<?plantuml 1.2026.2?><svg xmlns="http://www.w3.org/2000/svg" xmlns:xlink="http://www.w3.org/1999/xlink" contentStyleType="text/css" data-diagram-type="DESCRIPTION" height="1299px" preserveAspectRatio="none" style="width:2889px;height:1299px;background:#FAFAFA;" version="1.1" viewBox="0 0 2889 1299" width="2889px" zoomAndPan="magnify"><defs/><g><rect fill="#FAFAFA" height="1299" style="stroke:none;stroke-width:1;" width="2889" x="0" y="0"/><!--cluster pwa--><g class="cluster" data-qualified-name="pwa" data-source-line="34" id="ent0005"><rect fill="#E3F2FD" height="589" rx="4" ry="4" style="stroke:#555555;stroke-width:1;" width="344" x="1748" y="192.5"/><text fill="#222222" font-family="'Roboto'" font-size="14" font-weight="bold" lengthAdjust="spacing" textLength="95.5938" x="1872.2031" y="207.4883">PWA Container</text><text fill="#222222" font-family="'Roboto'" font-size="14" font-weight="bold" lengthAdjust="spacing" textLength="170.8711" x="1834.5645" y="223.8945">[React 19, TypeScript, Vite]</text><text fill="#222222" font-family="'Roboto'" font-size="14" font-weight="bold" lengthAdjust="spacing" textLength="145.6123" x="1847.1938" y="240.3008">Served as static assets</text></g><!--cluster backend--><g class="cluster" data-qualified-name="backend" data-source-line="43" id="ent0011"><rect fill="#E8F5E9" height="416" rx="4" ry="4" style="stroke:#555555;stroke-width:1;" width="1119" x="264" y="853.5"/><text fill="#222222" font-family="'Roboto'" font-size="14" font-weight="bold" lengthAdjust="spacing" textLength="107.6865" x="769.6567" y="868.4883">FastAPI Backend</text><text fill="#222222" font-family="'Roboto'" font-size="14" font-weight="bold" lengthAdjust="spacing" textLength="221.0059" x="712.9971" y="884.8945">[Python 3.12, FastAPI, Pydantic v2]</text><text fill="#222222" font-family="'Roboto'" font-size="14" font-weight="bold" lengthAdjust="spacing" textLength="121.7549" x="762.6226" y="901.3008">src/cyo_adventure/</text></g><!--entity reader--><g class="entity" data-qualified-name="pwa.reader" data-source-line="35" id="ent0006"><rect fill="#DDEEFF" height="52.8125" rx="4" ry="4" style="stroke:#555555;stroke-width:0.5;" width="149.4316" x="1763.5" y="260.5"/><text fill="#222222" font-family="'Roboto'" font-size="14" lengthAdjust="spacing" textLength="60.0879" x="1773.5" y="283.4883">Reader UI</text><text fill="#222222" font-family="'Roboto'" font-size="14" lengthAdjust="spacing" textLength="129.4316" x="1773.5" y="299.8945">frontend/src/reader/</text></g><!--entity library_ui--><g class="entity" data-qualified-name="pwa.library_ui" data-source-line="36" id="ent0007"><rect fill="#DDEEFF" height="52.8125" rx="4" ry="4" style="stroke:#555555;stroke-width:0.5;" width="128.4658" x="1948" y="260.5"/><text fill="#222222" font-family="'Roboto'" font-size="14" lengthAdjust="spacing" textLength="58.8916" x="1958" y="283.4883">Library UI</text><text fill="#222222" font-family="'Roboto'" font-size="14" lengthAdjust="spacing" textLength="108.4658" x="1958" y="299.8945">frontend/src/api/</text></g><!--entity player_ui--><g class="entity" data-qualified-name="pwa.player_ui" data-source-line="37" id="ent0008"><rect fill="#DDEEFF" height="69.2188" rx="4" ry="4" style="stroke:#555555;stroke-width:0.5;" width="211.1465" x="1773.5" y="374.5"/><text fill="#222222" font-family="'Roboto'" font-size="14" lengthAdjust="spacing" textLength="38.6436" x="1783.5" y="397.4883">Player</text><text fill="#222222" font-family="'Roboto'" font-size="14" lengthAdjust="spacing" textLength="127.2578" x="1783.5" y="413.8945">frontend/src/player/</text><text fill="#222222" font-family="'Roboto'" font-size="14" lengthAdjust="spacing" textLength="191.1465" x="1783.5" y="430.3008">TS evaluator + XState machine</text></g><!--entity offline--><g class="entity" data-qualified-name="pwa.offline" data-source-line="38" id="ent0009"><rect fill="#DDEEFF" height="69.2188" rx="4" ry="4" style="stroke:#555555;stroke-width:0.5;" width="174.3076" x="1798" y="535.5"/><text fill="#222222" font-family="'Roboto'" font-size="14" lengthAdjust="spacing" textLength="78.75" x="1808" y="558.4883">Offline Layer</text><text fill="#222222" font-family="'Roboto'" font-size="14" lengthAdjust="spacing" textLength="129.2676" x="1808" y="574.8945">frontend/src/offline/</text><text fill="#222222" font-family="'Roboto'" font-size="14" lengthAdjust="spacing" textLength="154.3076" x="1808" y="591.3008">IndexedDB + write queue</text></g><!--entity gen_client--><g class="entity" data-qualified-name="pwa.gen_client" data-source-line="39" id="ent0010"><rect fill="#E0E0E0" height="69.2188" rx="4" ry="4" style="stroke:#555555;stroke-width:0.5;" width="249.4893" x="1764.5" y="696.5"/><text fill="#222222" font-family="'Roboto'" font-size="14" lengthAdjust="spacing" textLength="128.748" x="1774.5" y="719.4883">Generated API Client</text><text fill="#222222" font-family="'Roboto'" font-size="14" lengthAdjust="spacing" textLength="229.4893" x="1774.5" y="735.8945">frontend/src/client/ [BUILD OUTPUT]</text><text fill="#222222" font-family="'Roboto'" font-size="14" lengthAdjust="spacing" textLength="210.0752" x="1774.5" y="752.3008">from OpenAPI schema via hey-api</text></g><!--entity routers--><g class="entity" data-qualified-name="backend.routers" data-source-line="44" id="ent0012"><rect fill="#CCEECC" height="85.625" rx="4" ry="4" style="stroke:#555555;stroke-width:0.5;" width="231.4561" x="771.5" y="929.5"/><text fill="#222222" font-family="'Roboto'" font-size="14" lengthAdjust="spacing" textLength="94.5547" x="781.5" y="952.4883">API Routers (9)</text><text fill="#222222" font-family="'Roboto'" font-size="14" lengthAdjust="spacing" textLength="211.4561" x="781.5" y="968.8945">health, library, reading, generation,</text><text fill="#222222" font-family="'Roboto'" font-size="14" lengthAdjust="spacing" textLength="185.5889" x="781.5" y="985.3008">profiles, ratings, assignments,</text><text fill="#222222" font-family="'Roboto'" font-size="14" lengthAdjust="spacing" textLength="171.2197" x="781.5" y="1001.707">approval [global admin], me</text></g><!--entity auth--><g class="entity" data-qualified-name="backend.auth" data-source-line="45" id="ent0013"><rect fill="#CCEECC" height="69.2188" rx="4" ry="4" style="stroke:#555555;stroke-width:0.5;" width="161.5176" x="288" y="1168"/><text fill="#222222" font-family="'Roboto'" font-size="14" lengthAdjust="spacing" textLength="68.2432" x="298" y="1190.9883">Auth Seam</text><text fill="#222222" font-family="'Roboto'" font-size="14" lengthAdjust="spacing" textLength="73.2402" x="298" y="1207.3945">api/deps.py</text><text fill="#222222" font-family="'Roboto'" font-size="14" lengthAdjust="spacing" textLength="141.5176" x="298" y="1223.8008">Principal / family / role</text></g><!--entity storybook_dom--><g class="entity" data-qualified-name="backend.storybook_dom" data-source-line="46" id="ent0014"><rect fill="#CCEECC" height="85.625" rx="4" ry="4" style="stroke:#555555;stroke-width:0.5;" width="164.0811" x="485" y="1159.5"/><text fill="#222222" font-family="'Roboto'" font-size="14" lengthAdjust="spacing" textLength="114.8438" x="495" y="1182.4883">Storybook Domain</text><text fill="#222222" font-family="'Roboto'" font-size="14" lengthAdjust="spacing" textLength="132.248" x="495" y="1198.8945">storybook/models.py</text><text fill="#222222" font-family="'Roboto'" font-size="14" lengthAdjust="spacing" textLength="143.9033" x="495" y="1215.3008">storybook/evaluator.py</text><text fill="#222222" font-family="'Roboto'" font-size="14" lengthAdjust="spacing" textLength="144.0811" x="495" y="1231.707">storybook/condition.py</text></g><!--entity player_eng--><g class="entity" data-qualified-name="backend.player_eng" data-source-line="47" id="ent0015"><rect fill="#CCEECC" height="69.2188" rx="4" ry="4" style="stroke:#555555;stroke-width:0.5;" width="200.1406" x="684" y="1168"/><text fill="#222222" font-family="'Roboto'" font-size="14" lengthAdjust="spacing" textLength="84.2256" x="694" y="1190.9883">Player Engine</text><text fill="#222222" font-family="'Roboto'" font-size="14" lengthAdjust="spacing" textLength="103.2021" x="694" y="1207.3945">player/engine.py</text><text fill="#222222" font-family="'Roboto'" font-size="14" lengthAdjust="spacing" textLength="180.1406" x="694" y="1223.8008">Runtime Semantics v1 (pure)</text></g><!--entity validator--><g class="entity" data-qualified-name="backend.validator" data-source-line="48" id="ent0016"><rect fill="#CCEECC" height="69.2188" rx="4" ry="4" style="stroke:#555555;stroke-width:0.5;" width="209.9844" x="919" y="1168"/><text fill="#222222" font-family="'Roboto'" font-size="14" lengthAdjust="spacing" textLength="88.7852" x="929" y="1190.9883">Validator Gate</text><text fill="#222222" font-family="'Roboto'" font-size="14" lengthAdjust="spacing" textLength="105.458" x="929" y="1207.3945">validator/gate.py</text><text fill="#222222" font-family="'Roboto'" font-size="14" lengthAdjust="spacing" textLength="189.9844" x="929" y="1223.8008">L1+Policy+L2+RL+SAFE layers</text></g><!--entity orchestrator--><g class="entity" data-qualified-name="backend.orchestrator" data-source-line="49" id="ent0017"><rect fill="#CCEECC" height="69.2188" rx="4" ry="4" style="stroke:#555555;stroke-width:0.5;" width="187.1182" x="1164.5" y="1168"/><text fill="#222222" font-family="'Roboto'" font-size="14" lengthAdjust="spacing" textLength="149.96" x="1174.5" y="1190.9883">Generation Orchestrator</text><text fill="#222222" font-family="'Roboto'" font-size="14" lengthAdjust="spacing" textLength="167.1182" x="1174.5" y="1207.3945">generation/orchestrator.py</text><text fill="#222222" font-family="'Roboto'" font-size="14" lengthAdjust="spacing" textLength="140.6016" x="1174.5" y="1223.8008">Stage A-&gt;B-&gt;C pipeline</text></g><!--entity middleware--><g class="entity" data-qualified-name="backend.middleware" data-source-line="50" id="ent0018"><rect fill="#CCEECC" height="69.2188" rx="4" ry="4" style="stroke:#555555;stroke-width:0.5;" width="183.502" x="352" y="938"/><text fill="#222222" font-family="'Roboto'" font-size="14" lengthAdjust="spacing" textLength="72.5498" x="362" y="960.9883">Middleware</text><text fill="#222222" font-family="'Roboto'" font-size="14" lengthAdjust="spacing" textLength="163.502" x="362" y="977.3945">middleware/correlation.py</text><text fill="#222222" font-family="'Roboto'" font-size="14" lengthAdjust="spacing" textLength="145.6055" x="362" y="993.8008">middleware/security.py</text></g><!--entity child--><g class="entity" data-qualified-name="child" data-source-line="29" id="ent0002"><ellipse cx="1837.8647" cy="30.5" fill="#E3F2FD" rx="8" ry="8" style="stroke:#181818;stroke-width:0.5;"/><path d="M1837.8647,38.5 L1837.8647,65.5 M1824.8647,46.5 L1850.8647,46.5 M1837.8647,65.5 L1824.8647,80.5 M1837.8647,65.5 L1850.8647,80.5" fill="none" style="stroke:#181818;stroke-width:0.5;"/><text fill="#000000" font-family="'Roboto'" font-size="14" lengthAdjust="spacing" textLength="78.7295" x="1798.5" y="94.9883">Child Reader</text></g><!--entity guardian--><g class="entity" data-qualified-name="guardian" data-source-line="30" id="ent0003"><ellipse cx="1976.1299" cy="30.5" fill="#E8F5E9" rx="8" ry="8" style="stroke:#181818;stroke-width:0.5;"/><path d="M1976.1299,38.5 L1976.1299,65.5 M1963.1299,46.5 L1989.1299,46.5 M1976.1299,65.5 L1963.1299,80.5 M1976.1299,65.5 L1989.1299,80.5" fill="none" style="stroke:#181818;stroke-width:0.5;"/><text fill="#000000" font-family="'Roboto'" font-size="14" lengthAdjust="spacing" textLength="56.2598" x="1948" y="94.9883">Guardian</text></g><!--entity admin--><g class="entity" data-qualified-name="admin" data-source-line="31" id="ent0004"><ellipse cx="2110.9482" cy="14" fill="#EDE7F6" rx="8" ry="8" style="stroke:#181818;stroke-width:0.5;"/><path d="M2110.9482,22 L2110.9482,49 M2097.9482,30 L2123.9482,30 M2110.9482,49 L2097.9482,64 M2110.9482,49 L2123.9482,64" fill="none" style="stroke:#181818;stroke-width:0.5;"/><text fill="#000000" font-family="'Roboto'" font-size="14" lengthAdjust="spacing" textLength="40.4414" x="2039" y="78.4883">Admin</text><text fill="#000000" font-family="'Roboto'" font-size="14" lengthAdjust="spacing" textLength="143.8965" x="2039" y="94.8945">(global safety operator,</text><text fill="#000000" font-family="'Roboto'" font-size="14" lengthAdjust="spacing" textLength="142.0918" x="2039" y="111.3008">cross-family, ADR-005)</text></g><!--entity worker--><g class="entity" data-qualified-name="worker" data-source-line="54" id="ent0019"><rect fill="#FFF3E0" height="69.2188" rx="4" ry="4" style="stroke:#555555;stroke-width:0.5;" width="152.9658" x="1892.5" y="938"/><text fill="#222222" font-family="'Roboto'" font-size="14" lengthAdjust="spacing" textLength="116.0605" x="1902.5" y="960.9883">Generation Worker</text><text fill="#222222" font-family="'Roboto'" font-size="14" lengthAdjust="spacing" textLength="124.9336" x="1902.5" y="977.3945">[RQ worker process]</text><text fill="#222222" font-family="'Roboto'" font-size="14" lengthAdjust="spacing" textLength="132.9658" x="1902.5" y="993.8008">generation/worker.py</text></g><!--entity postgres--><g class="entity" data-qualified-name="postgres" data-source-line="57" id="ent0020"><path d="M1760.5,1132.5 C1760.5,1122.5 1885.9658,1122.5 1885.9658,1122.5 C1885.9658,1122.5 2011.4316,1122.5 2011.4316,1132.5 L2011.4316,1272.75 C2011.4316,1282.75 1885.9658,1282.75 1885.9658,1282.75 C1885.9658,1282.75 1760.5,1282.75 1760.5,1272.75 L1760.5,1132.5" fill="#E0F7FA" style="stroke:#181818;stroke-width:0.5;"/><path d="M1760.5,1132.5 C1760.5,1142.5 1885.9658,1142.5 1885.9658,1142.5 C1885.9658,1142.5 2011.4316,1142.5 2011.4316,1132.5" fill="none" style="stroke:#181818;stroke-width:0.5;"/><text fill="#000000" font-family="'Roboto'" font-size="14" lengthAdjust="spacing" textLength="120.9824" x="1770.5" y="1159.4883">Supabase Postgres</text><text fill="#000000" font-family="'Roboto'" font-size="14" lengthAdjust="spacing" textLength="215.0313" x="1770.5" y="1175.8945">[Managed DB, ADR-009 decision 2]</text><text fill="#000000" font-family="'Roboto'" font-size="14" lengthAdjust="spacing" textLength="230.9316" x="1770.5" y="1192.3008">Session pooler :5432 (session mode)</text><text fill="#000000" font-family="'Roboto'" font-size="14" lengthAdjust="spacing" textLength="86.7959" x="1770.5" y="1208.707">9 ORM tables:</text><text fill="#000000" font-family="'Roboto'" font-size="14" lengthAdjust="spacing" textLength="156.9326" x="1770.5" y="1225.1133">Family, User, ChildProfile,</text><text fill="#000000" font-family="'Roboto'" font-size="14" lengthAdjust="spacing" textLength="182.752" x="1770.5" y="1241.5195">Storybook, StorybookVersion,</text><text fill="#000000" font-family="'Roboto'" font-size="14" lengthAdjust="spacing" textLength="163.8164" x="1770.5" y="1257.9258">ReadingState, Completion,</text><text fill="#000000" font-family="'Roboto'" font-size="14" lengthAdjust="spacing" textLength="149.9941" x="1770.5" y="1274.332">Concept, GenerationJob</text></g><!--entity redis--><g class="entity" data-qualified-name="redis" data-source-line="59" id="ent0021"><path d="M1446.5,1173.5 C1446.5,1163.5 1546.9531,1163.5 1546.9531,1163.5 C1546.9531,1163.5 1647.4063,1163.5 1647.4063,1173.5 L1647.4063,1231.7188 C1647.4063,1241.7188 1546.9531,1241.7188 1546.9531,1241.7188 C1546.9531,1241.7188 1446.5,1241.7188 1446.5,1231.7188 L1446.5,1173.5" fill="#E0E0E0" style="stroke:#181818;stroke-width:0.5;"/><path d="M1446.5,1173.5 C1446.5,1183.5 1546.9531,1183.5 1546.9531,1183.5 C1546.9531,1183.5 1647.4063,1183.5 1647.4063,1173.5" fill="none" style="stroke:#181818;stroke-width:0.5;"/><text fill="#000000" font-family="'Roboto'" font-size="14" lengthAdjust="spacing" textLength="34.5762" x="1456.5" y="1200.4883">Redis</text><text fill="#000000" font-family="'Roboto'" font-size="14" lengthAdjust="spacing" textLength="74.3203" x="1456.5" y="1216.8945">[Job broker]</text><text fill="#000000" font-family="'Roboto'" font-size="14" lengthAdjust="spacing" textLength="180.9063" x="1456.5" y="1233.3008">RQ queue for generation jobs</text></g><!--entity minio--><g class="entity" data-qualified-name="minio" data-source-line="61" id="ent0022"><rect fill="#E0E0E0" height="69.2188" rx="4" ry="4" style="stroke:#555555;stroke-width:0.5;" width="230.7725" x="2386.5" y="1168"/><text fill="#222222" font-family="'Roboto'" font-size="14" lengthAdjust="spacing" textLength="36.7979" x="2396.5" y="1190.9883">MinIO</text><text fill="#222222" font-family="'Roboto'" font-size="14" lengthAdjust="spacing" textLength="210.7725" x="2396.5" y="1207.3945">[Object storage, deferred Phase 5]</text><text fill="#222222" font-family="'Roboto'" font-size="14" lengthAdjust="spacing" textLength="167.1523" x="2396.5" y="1223.8008">Storybook blobs via S3 API</text></g><!--entity openrouter--><g class="entity" data-qualified-name="openrouter" data-source-line="64" id="ent0023"><rect fill="#F3E5F5" height="52.8125" rx="4" ry="4" style="stroke:#555555;stroke-width:0.5;" width="106.4404" x="2086" y="1176"/><text fill="#222222" font-family="'Roboto'" font-size="14" lengthAdjust="spacing" textLength="73.7256" x="2096" y="1198.9883">OpenRouter</text><text fill="#222222" font-family="'Roboto'" font-size="14" lengthAdjust="spacing" textLength="86.4404" x="2096" y="1215.3945">[Primary LLM]</text></g><!--entity ollama--><g class="entity" data-qualified-name="ollama" data-source-line="65" id="ent0024"><rect fill="#FFEBEE" height="52.8125" rx="4" ry="4" style="stroke:#555555;stroke-width:0.5;" width="113.96" x="2237" y="1176"/><text fill="#222222" font-family="'Roboto'" font-size="14" lengthAdjust="spacing" textLength="43.9482" x="2247" y="1198.9883">Ollama</text><text fill="#222222" font-family="'Roboto'" font-size="14" lengthAdjust="spacing" textLength="93.96" x="2247" y="1215.3945">[Local fallback]</text></g><!--entity supabase_auth--><g class="entity" data-qualified-name="supabase_auth" data-source-line="66" id="ent0025"><rect fill="#E0F7FA" height="52.8125" rx="4" ry="4" style="stroke:#555555;stroke-width:0.5;" width="119.8115" x="7" y="1176"/><text fill="#222222" font-family="'Roboto'" font-size="14" lengthAdjust="spacing" textLength="94.2471" x="17" y="1198.9883">Supabase Auth</text><text fill="#222222" font-family="'Roboto'" font-size="14" lengthAdjust="spacing" textLength="99.8115" x="17" y="1215.3945">[OIDC, ADR-009]</text></g><g class="entity" data-qualified-name="GMN47" data-source-line="92" id="ent0048"><path d="M2081,948.5 L2081,996.2031 A4,4 0 0 0 2085,1000.2031 L2407.2007,1000.2031 A4,4 0 0 0 2411.2007,996.2031 L2411.2007,954.5 L2401.2007,944.5 L2085,944.5 A4,4 0 0 0 2081,948.5" fill="#FEFFDD" style="stroke:#181818;stroke-width:0.5;"/><path d="M2401.2007,944.5 L2401.2007,952.5 A2,2 0 0 0 2403.2007,954.5 L2411.2007,954.5 L2401.2007,944.5" fill="#FEFFDD" style="stroke:#181818;stroke-width:1;"/><text fill="#000000" font-family="'Roboto'" font-size="13" lengthAdjust="spacing" textLength="309.2007" x="2087" y="961.5605">Regenerated from http://localhost:8000/openapi.json</text><text fill="#000000" font-family="'Roboto'" font-size="13" lengthAdjust="spacing" textLength="159.9165" x="2087" y="976.7949">via: npm run generate-client</text><text fill="#000000" font-family="'Roboto'" font-size="13" lengthAdjust="spacing" textLength="250.0596" x="2087" y="992.0293">Never hand-edit files in frontend/src/client/</text></g><g class="entity" data-qualified-name="GMN50" data-source-line="98" id="ent0051"><path d="M2653,1171 L2653,1198.5 L2617.6,1202.5 L2653,1206.5 L2653,1233.9375 A4,4 0 0 0 2657,1237.9375 L2878.8315,1237.9375 A4,4 0 0 0 2882.8315,1233.9375 L2882.8315,1177 L2872.8315,1167 L2657,1167 A4,4 0 0 0 2653,1171" fill="#FEFFDD" style="stroke:#181818;stroke-width:0.5;"/><path d="M2872.8315,1167 L2872.8315,1175 A2,2 0 0 0 2874.8315,1177 L2882.8315,1177 L2872.8315,1167" fill="#FEFFDD" style="stroke:#181818;stroke-width:0.5;"/><text fill="#000000" font-family="'Roboto'" font-size="13" lengthAdjust="spacing" textLength="152.3057" x="2659" y="1184.0605">Phase 1: blob stored inline</text><text fill="#000000" font-family="'Roboto'" font-size="13" lengthAdjust="spacing" textLength="208.8315" x="2659" y="1199.2949">on storybook_version.blob (JSONB).</text><text fill="#000000" font-family="'Roboto'" font-size="13" lengthAdjust="spacing" textLength="165.8262" x="2659" y="1214.5293">blob_ref column reserved for</text><text fill="#000000" font-family="'Roboto'" font-size="13" lengthAdjust="spacing" textLength="158.2217" x="2659" y="1229.7637">MinIO object key (Phase 5).</text></g><!--link child to reader--><g class="link" data-entity-1="ent0002" data-entity-2="ent0006" data-link-type="dependency" data-source-line="69" id="lnk26"><path d="M1838,98.15 C1838,143.96 1838,214.61 1838,254.36" fill="none" id="child-to-reader" style="stroke:#181818;stroke-width:1;"/><polygon fill="#181818" points="1838,260.36,1842,251.36,1838,255.36,1834,251.36,1838,260.36" style="stroke:#181818;stroke-width:1;"/></g><!--link guardian to library_ui--><g class="link" data-entity-1="ent0003" data-entity-2="ent0007" data-link-type="dependency" data-source-line="70" id="lnk27"><path d="M1981.94,98.15 C1989.27,143.96 2000.5921,214.6854 2006.9521,254.4354" fill="none" id="guardian-to-library_ui" style="stroke:#181818;stroke-width:1;"/><polygon fill="#181818" points="2007.9,260.36,2010.4278,250.8411,2007.11,255.4228,2002.5283,252.105,2007.9,260.36" style="stroke:#181818;stroke-width:1;"/></g><!--link admin to library_ui--><g class="link" data-entity-1="ent0004" data-entity-2="ent0007" data-link-type="dependency" data-source-line="71" id="lnk28"><path d="M2087.41,114.61 C2067.17,160.62 2041.2869,219.4483 2025.7469,254.7583" fill="none" id="admin-to-library_ui" style="stroke:#181818;stroke-width:1;"/><polygon fill="#181818" points="2023.33,260.25,2030.6165,253.6237,2025.3441,255.6736,2023.2942,250.4012,2023.33,260.25" style="stroke:#181818;stroke-width:1;"/><text fill="#000000" font-family="'Roboto'" font-size="13" lengthAdjust="spacing" textLength="97.9253" x="2098.8669" y="157.5605">review + approve</text><text fill="#000000" font-family="'Roboto'" font-size="13" lengthAdjust="spacing" textLength="147.6592" x="2074" y="172.7949">storybooks (cross-family)</text></g><!--link reader to player_ui--><g class="link" data-entity-1="ent0006" data-entity-2="ent0008" data-link-type="dependency" data-source-line="72" id="lnk29"><path d="M1846.8,313.74 C1852.82,331.37 1858.9282,349.2629 1865.4782,368.4129" fill="none" id="reader-to-player_ui" style="stroke:#181818;stroke-width:1;"/><polygon fill="#181818" points="1867.42,374.09,1868.2921,364.2798,1865.8019,369.3591,1860.7226,366.8689,1867.42,374.09" style="stroke:#181818;stroke-width:1;"/></g><!--link player_ui to offline--><g class="link" data-entity-1="ent0008" data-entity-2="ent0009" data-link-type="dependency" data-source-line="73" id="lnk30"><path d="M1880.27,443.72 C1881.29,470.7 1882.4832,502.3643 1883.5032,529.3343" fill="none" id="player_ui-to-offline" style="stroke:#181818;stroke-width:1;"/><polygon fill="#181818" points="1883.73,535.33,1887.387,526.1853,1883.541,530.3336,1879.3927,526.4876,1883.73,535.33" style="stroke:#181818;stroke-width:1;"/><text fill="#000000" font-family="'Roboto'" font-size="13" lengthAdjust="spacing" textLength="60.0171" x="1883" y="486.5605">local state</text><text fill="#000000" font-family="'Roboto'" font-size="13" lengthAdjust="spacing" textLength="34.7344" x="1895.6414" y="501.7949">cache</text></g><!--link gen_client to routers--><g class="link" data-entity-1="ent0010" data-entity-2="ent0012" data-link-type="dependency" data-source-line="74" id="lnk31"><path d="M1764.27,736.14 C1553.2,744.92 1135.94,770.41 1007,837.5 C966.97,858.33 937.2966,893.394 916.0766,924.294" fill="none" id="gen_client-to-routers" style="stroke:#181818;stroke-width:1;"/><polygon fill="#181818" points="912.68,929.24,921.0722,924.0854,915.5105,925.1183,914.4775,919.5566,912.68,929.24" style="stroke:#181818;stroke-width:1;"/><text fill="#000000" font-family="'Roboto'" font-size="13" lengthAdjust="spacing" textLength="75.9624" x="1130.1675" y="810.5605">REST /api/v1</text><text fill="#000000" font-family="'Roboto'" font-size="13" lengthAdjust="spacing" textLength="82.2974" x="1127" y="825.7949">(Bearer token)</text></g><!--link offline to gen_client--><g class="link" data-entity-1="ent0009" data-entity-2="ent0010" data-link-type="dependency" data-source-line="75" id="lnk32"><path d="M1885.85,604.72 C1886.53,631.7 1887.3188,663.3619 1887.9988,690.3319" fill="none" id="offline-to-gen_client" style="stroke:#181818;stroke-width:1;stroke-dasharray:7,7;"/><polygon fill="#181818" points="1888.15,696.33,1891.9219,687.232,1888.024,691.3316,1883.9244,687.4337,1888.15,696.33" style="stroke:#181818;stroke-width:1;"/><text fill="#000000" font-family="'Roboto'" font-size="13" lengthAdjust="spacing" textLength="73.7153" x="1918.5703" y="647.5605">queue replay</text><text fill="#000000" font-family="'Roboto'" font-size="13" lengthAdjust="spacing" textLength="134.856" x="1888" y="662.7949">(event_id idempotency)</text></g><!--link routers to auth--><g class="link" data-entity-1="ent0012" data-entity-2="ent0013" data-link-type="dependency" data-source-line="76" id="lnk33"><path d="M771.39,1000.9 C683.76,1024.81 562.53,1064.8 467,1122.5 C445.49,1135.49 428.0952,1148.8665 410.4252,1163.9365" fill="none" id="routers-to-auth" style="stroke:#181818;stroke-width:1;"/><polygon fill="#181818" points="405.86,1167.83,415.3034,1165.0333,409.6643,1164.5855,410.1121,1158.9463,405.86,1167.83" style="stroke:#181818;stroke-width:1;"/><text fill="#000000" font-family="'Roboto'" font-size="13" lengthAdjust="spacing" textLength="59.814" x="623" y="1073.5605">Depends()</text></g><!--link routers to orchestrator--><g class="link" data-entity-1="ent0012" data-entity-2="ent0017" data-link-type="dependency" data-source-line="77" id="lnk34"><path d="M964.97,1015.56 C1017.24,1044.39 1087.19,1084.21 1147,1122.5 C1169.21,1136.72 1188.2736,1150.0165 1208.2036,1164.4765" fill="none" id="routers-to-orchestrator" style="stroke:#181818;stroke-width:1;"/><polygon fill="#181818" points="1213.06,1168,1208.1244,1159.4771,1209.013,1165.0637,1203.4264,1165.9523,1213.06,1168" style="stroke:#181818;stroke-width:1;"/></g><!--link routers to validator--><g class="link" data-entity-1="ent0012" data-entity-2="ent0016" data-link-type="dependency" data-source-line="78" id="lnk35"><path d="M912.29,1015.58 C938.65,1059.46 976.3598,1122.217 1000.6698,1162.677" fill="none" id="routers-to-validator" style="stroke:#181818;stroke-width:1;"/><polygon fill="#181818" points="1003.76,1167.82,1002.5535,1158.0453,1001.1849,1163.5341,995.6961,1162.1655,1003.76,1167.82" style="stroke:#181818;stroke-width:1;"/></g><!--link routers to storybook_dom--><g class="link" data-entity-1="ent0012" data-entity-2="ent0014" data-link-type="dependency" data-source-line="79" id="lnk36"><path d="M821.75,1015.51 C777.23,1044.65 717.29,1084.84 666,1122.5 C650.14,1134.15 637.9555,1143.5622 622.7155,1155.7522" fill="none" id="routers-to-storybook_dom" style="stroke:#181818;stroke-width:1;"/><polygon fill="#181818" points="618.03,1159.5,627.5568,1157.002,621.9346,1156.3768,622.5597,1150.7546,618.03,1159.5" style="stroke:#181818;stroke-width:1;"/></g><!--link routers to player_eng--><g class="link" data-entity-1="ent0012" data-entity-2="ent0015" data-link-type="dependency" data-source-line="80" id="lnk37"><path d="M867.99,1015.58 C848.17,1059.46 819.9604,1121.8922 801.6804,1162.3522" fill="none" id="routers-to-player_eng" style="stroke:#181818;stroke-width:1;"/><polygon fill="#181818" points="799.21,1167.82,806.5608,1161.2652,801.2687,1163.2635,799.2704,1157.9713,799.21,1167.82" style="stroke:#181818;stroke-width:1;"/></g><!--link backend to postgres--><g class="link" data-entity-1="ent0011" data-entity-2="ent0020" data-link-type="dependency" data-source-line="81" id="lnk38"><path d="M1383.4528,973.5795 C1383.7727,973.5859 1384.1012,973.5929 1384.438,973.6004 C1389.8264,973.7205 1397.3488,973.9755 1406.5494,974.5097 C1424.9506,975.5781 1450.065,977.7638 1478.2475,982.2225 C1534.6125,991.14 1603.25,1009.15 1655,1045.5 C1675.68,1060.03 1668.29,1075.51 1687,1092.5 C1708.66,1112.16 1729.2905,1126.5858 1755.0605,1141.4258" fill="none" id="backend-to-postgres" style="stroke:#181818;stroke-width:1;"/><polygon fill="#181818" points="1760.26,1144.42,1754.4569,1136.4624,1755.9271,1141.9248,1750.4646,1143.395,1760.26,1144.42" style="stroke:#181818;stroke-width:1;"/><text fill="#000000" font-family="'Roboto'" font-size="13" lengthAdjust="spacing" textLength="121.3862" x="1688" y="1066.0605">async SQLAlchemy 2</text><text fill="#000000" font-family="'Roboto'" font-size="13" lengthAdjust="spacing" textLength="120.1865" x="1688.5999" y="1081.2949">session pooler :5432</text></g><!--link backend to redis--><g class="link" data-entity-1="ent0011" data-entity-2="ent0021" data-link-type="dependency" data-source-line="82" id="lnk39"><path d="M1383.0699,1032.7068 C1383.1166,1032.9065 1383.1636,1033.1063 1383.2108,1033.3063 C1383.3998,1034.1063 1383.593,1034.909 1383.7907,1035.7139 C1385.3721,1042.153 1387.236,1048.7373 1389.4323,1055.2784 C1393.825,1068.3606 1399.5475,1081.27 1407,1092.5 C1425.82,1120.86 1449.5463,1141.6255 1476.0463,1159.9655" fill="none" id="backend-to-redis" style="stroke:#181818;stroke-width:1;"/><polygon fill="#181818" points="1480.98,1163.38,1475.8558,1154.9691,1476.8686,1160.5346,1471.3031,1161.5474,1480.98,1163.38" style="stroke:#181818;stroke-width:1;"/><text fill="#000000" font-family="'Roboto'" font-size="13" lengthAdjust="spacing" textLength="70.6304" x="1425.9163" y="1066.0605">enqueue job</text><text fill="#000000" font-family="'Roboto'" font-size="13" lengthAdjust="spacing" textLength="106.4629" x="1408" y="1081.2949">(BackgroundTask)</text></g><!--link worker to redis--><g class="link" data-entity-1="ent0019" data-entity-2="ent0021" data-link-type="dependency" data-source-line="83" id="lnk40"><path d="M1902.13,1007.13 C1884.09,1017.96 1865.34,1030.97 1850,1045.5 C1831.66,1062.88 1837.7,1076.67 1818,1092.5 C1790.01,1114.98 1776.32,1109.12 1743,1122.5 C1709.81,1135.83 1679.0344,1148.2156 1646.7544,1161.2356" fill="none" id="worker-to-redis" style="stroke:#181818;stroke-width:1;"/><polygon fill="#181818" points="1641.19,1163.48,1651.0329,1163.823,1645.827,1161.6097,1648.0404,1156.4038,1641.19,1163.48" style="stroke:#181818;stroke-width:1;"/><text fill="#000000" font-family="'Roboto'" font-size="13" lengthAdjust="spacing" textLength="70.7827" x="1851" y="1073.5605">dequeue job</text></g><!--link worker to orchestrator--><g class="link" data-entity-1="ent0019" data-entity-2="ent0017" data-link-type="dependency" data-source-line="84" id="lnk41"><path d="M1892.46,979.52 C1787.69,988.96 1606.27,1009.93 1551,1045.5 C1529.75,1059.18 1539.16,1077.26 1519,1092.5 C1485.37,1117.93 1468.2,1106.97 1429,1122.5 C1394.64,1136.11 1362.7193,1150.5249 1331.7193,1165.2549" fill="none" id="worker-to-orchestrator" style="stroke:#181818;stroke-width:1;"/><polygon fill="#181818" points="1326.3,1167.83,1336.1457,1167.5803,1330.8161,1165.6841,1332.7123,1160.3545,1326.3,1167.83" style="stroke:#181818;stroke-width:1;"/><text fill="#000000" font-family="'Roboto'" font-size="13" lengthAdjust="spacing" textLength="94.6626" x="1552" y="1073.5605">generate_story()</text></g><!--link worker to openrouter--><g class="link" data-entity-1="ent0019" data-entity-2="ent0023" data-link-type="dependency" data-source-line="85" id="lnk42"><path d="M2038.46,1007.13 C2054.78,1017.6 2070.92,1030.44 2083,1045.5 C2114.33,1084.56 2127.8462,1136.6905 2133.9962,1169.8605" fill="none" id="worker-to-openrouter" style="stroke:#181818;stroke-width:1;"/><polygon fill="#181818" points="2135.09,1175.76,2137.3823,1166.1816,2134.1785,1170.8438,2129.5163,1167.64,2135.09,1175.76" style="stroke:#181818;stroke-width:1;"/><text fill="#000000" font-family="'Roboto'" font-size="13" lengthAdjust="spacing" textLength="113.731" x="2111" y="1073.5605">provider.complete()</text></g><!--link worker to ollama--><g class="link" data-entity-1="ent0019" data-entity-2="ent0024" data-link-type="dependency" data-source-line="86" id="lnk43"><path d="M2039.88,1007.03 C2047.92,1010.17 2056.07,1013.08 2064,1015.5 C2136.97,1037.75 2174.01,997.13 2233,1045.5 C2272.91,1078.23 2285.9932,1134.6245 2290.7632,1169.7745" fill="none" id="worker-to-ollama" style="stroke:#181818;stroke-width:1;stroke-dasharray:7,7;"/><polygon fill="#181818" points="2291.57,1175.72,2294.3234,1166.2639,2290.8976,1170.7654,2286.3961,1167.3396,2291.57,1175.72" style="stroke:#181818;stroke-width:1;"/><text fill="#000000" font-family="'Roboto'" font-size="13" lengthAdjust="spacing" textLength="45.6777" x="2268" y="1073.5605">fallback</text></g><!--link worker to postgres--><g class="link" data-entity-1="ent0019" data-entity-2="ent0020" data-link-type="dependency" data-source-line="87" id="lnk44"><path d="M1958.67,1007.05 C1951.13,1031 1940.44,1063.91 1930,1092.5 C1926.46,1102.18 1924.7987,1106.6935 1920.8887,1116.6735" fill="none" id="worker-to-postgres" style="stroke:#181818;stroke-width:1;"/><polygon fill="#181818" points="1918.7,1122.26,1925.7074,1115.3393,1920.5239,1117.6045,1918.2587,1112.421,1918.7,1122.26" style="stroke:#181818;stroke-width:1;"/><text fill="#000000" font-family="'Roboto'" font-size="13" lengthAdjust="spacing" textLength="128.4321" x="1946" y="1066.0605">update GenerationJob</text><text fill="#000000" font-family="'Roboto'" font-size="13" lengthAdjust="spacing" textLength="120.1865" x="1950.1228" y="1081.2949">session pooler :5432</text></g><!--link worker to minio--><g class="link" data-entity-1="ent0019" data-entity-2="ent0022" data-link-type="dependency" data-source-line="88" id="lnk45"><path d="M2038.43,1007.02 C2046.91,1010.27 2055.56,1013.2 2064,1015.5 C2175.38,1045.85 2216.36,998.96 2322,1045.5 C2385.01,1073.26 2438.2494,1126.3842 2470.5394,1163.2942" fill="none" id="worker-to-minio" style="stroke:#181818;stroke-width:1;stroke-dasharray:7,7;"/><polygon fill="#181818" points="2474.49,1167.81,2471.5747,1158.4025,2471.1978,1164.0468,2465.5535,1163.67,2474.49,1167.81" style="stroke:#181818;stroke-width:1;"/><text fill="#000000" font-family="'Roboto'" font-size="13" lengthAdjust="spacing" textLength="102.8003" x="2394" y="1066.0605">[planned Phase 5]</text><text fill="#000000" font-family="'Roboto'" font-size="13" lengthAdjust="spacing" textLength="79.7583" x="2405.521" y="1081.2949">blob_ref store</text></g><!--link backend to supabase_auth--><g class="link" data-entity-1="ent0011" data-entity-2="ent0025" data-link-type="dependency" data-source-line="89" id="lnk46"><path d="M263.6012,1026.6527 C261.8279,1026.6861 260.0639,1026.7203 258.3093,1026.7556 C254.8002,1026.8262 251.329,1026.9007 247.8968,1026.9792 C234.168,1027.2934 221.063,1027.6723 208.6509,1028.123 C183.8267,1029.0244 161.7742,1030.213 143.0463,1031.7446 C105.5906,1034.808 81.4338,1039.2438 75,1045.5 C40.49,1079.06 48.48,1135.2731 57.55,1170.1531" fill="none" id="backend-to-supabase_auth" style="stroke:#181818;stroke-width:1;"/><polygon fill="#181818" points="59.06,1175.96,60.6663,1166.243,57.8017,1171.1209,52.9238,1168.2563,59.06,1175.96" style="stroke:#181818;stroke-width:1;"/><text fill="#000000" font-family="'Roboto'" font-size="13" lengthAdjust="spacing" textLength="88.7974" x="129.4028" y="1058.5605">OIDC validation</text><text fill="#000000" font-family="'Roboto'" font-size="13" lengthAdjust="spacing" textLength="171.0122" x="88.2954" y="1073.7949">[local: token-as-subject seam;</text><text fill="#000000" font-family="'Roboto'" font-size="13" lengthAdjust="spacing" textLength="195.603" x="76" y="1089.0293">non-local: verified Supabase JWT]</text></g><!--link gen_client to GMN47--><g class="link" data-entity-1="ent0010" data-entity-2="ent0048" data-link-type="association" data-source-line="92" id="lnk49"><path d="M1947.39,765.69 C1981.55,785.82 2025.24,812.3 2063,837.5 C2115.73,872.7 2174.52,916.62 2210.89,944.38" fill="none" id="gen_client-GMN47" style="stroke:#181818;stroke-width:1;stroke-dasharray:7,7;"/></g><?plantuml-src fLXhRzku4ltkNp5mFjH1B3kFvhR9OWCaVXGftCPh9-szg8E0bcYRZKHgITbPu-B-ztj8IhAKEjWFwo2jJCw3d3bpPfHtzFi_-3JUKUyzZVY6ntHA0VMKp9YGN5DViALcYHNupnrTHnikixNcbnGM8eQOZ2XRSQ59o8nh5cP2ITDu1wMfMkkGqqB4t5pYEv7HOJVSgYTMcEgoDEsaMzfzMaDciklnBM67NeGMSddufgxeKlNJqcgDCvYt59OSHsRsWDqNfP-vTgvRap_8VtrBBrJu9s8PcpF3hKwBcQqCQVh7w3eELppPUis5HbouZBhEH2oWNZyWdELdu17TfLpQYth1FHRKOX4Zo5thgvEPmaA-J7-k-PfxjKY5ffl6J4g4gvlnS1MOb8UT9DgppI9jVuFZuzF0-mxI5_Ptik-3bKfupER1GcYJ1H5FOxLDeFrtcXU1MQSkT05siuNI2LIeDSrNwUwstoCDUopaXgxNW9FCnFDlpYhiyb0Ov0pW_9rAfR4osL93dXcBFr9fdbeMKv6gVS7H9y6IfRYuCaYjFP5qfxbdvfbEEXykzxW8rvdQU7Zyeq9hc6SXKuQImgKMR1rdGwJxAqiuDITghZBLh8ZCMVYy1A9br5EnqdGmlBO_5ObyKzjQ_LYrhdcOCRcCEVstGNIZTCHrRkJSVR1gNUThf-xJ-5-ZWVB5GhEt4d544ywWrxGH3jt2mU1iU3hi5rAVran7WaadiSo_GEZZy7nmKGXTHucGCzbQncgEr1YsuDaspvRIxPaCjJ8cMB14nDisNVSdWCpveRF9h2uCzWSVXlzg8Ff14D3u-xNzlx6xOzCkbQmrapzmy32ZauistMzJFWsrIBCsVHCPVvp9ATSRL1_Ccmo02V5aU6QSGzH1SKaNkOeF7mnwk9t9Mf5gjzvrwlwP3lhzmM0uhEkFn5mplVtLW6KnfnrxYQUrs6zX7BEjlLvDEtMBtPcydnBVi7Xjeqf7zEyfBiSfOSYSvFvoJlHDytSvhOpsU2cOQ2PlPSJ_ub7_1ZvUD2BgQSWvA8Xfh_bF9UzPpkivtddbfM3C7pSFjwC-tJtSZn_k7vrGKhAbiNpBQ2COhVWsGFGy_BXyylf8uB7ziN3sYBb18S77QzGKZIRV1cx6ssm5dZdhd9osATzkqtWRCMc1iZd5ONxj3ix_FFUHe_yrUgoVYMzErBeudCaLPt6sQXT9RpliW9_Qj6jIA8vKAzS-iOybkSG3u2gMqXAlWG2wf5R8E_t82ypLp6ER4f-Jl2FIGQyt6FHwhqu5ggKfPucr8xgWT8FkDfDZTDrGfB3M9L-OUD0gzYQPrTfhRmhiRUTAFLDV9SoMlIbMkecAUEpDxnPBnBvQntmH2Hi2h3TzgUPRJn6miDUvBmyQo2KmYCZvmk3kgpC_MIEBeDefy6FpQMXpGgqKAJoirWSqzZlunc8HkVBw11pFvARutbtYktCnEZaQgrY4swFHwT5aT3Iz7Wx8cVNyKghiz_2fJ3tTQU3SP8uaPx8okAZAXlE9GbzokWwkReAh7gKYvN5HyLNP_Hw_Y2YA-GlJk4zIFjk1HwFNvnceRHaUhb7tso8pkwtIGrbubVjyTmFMwnByHS2ITp6D4P2DWS0yrkvV3cxEUovvC1mEpr3okTy--h-337gtzLZC0q3ewzuEXr-OH0GZwjyKxUUYCdEuZc7SSwfG0fekpz-VdLBBvAiMs2Ze2xgRV27uiSFkJ0xpVlPWk6wJwwTZNyjjcx8SpMqg7xy18xxc9vu97853LILfp7CwG9CBkUrbky1zLdEFtc9O0VqDFs1CgDnwmYDXRmfPcck5YE5MYBEZRi90LY4T-gdc9kzcq2hPj553ZRozWxsx-KyikaWZWcqxr7009wBnolezVwnSbURW9-DuUtfcUq2E7YdKpeTFt-0lK9QTuqQZB-OrP6mVy4ng2LkBn3PL23vwn6FNKnumSJOu7vxNTEEO9Gnw8nN2_8B5iUNjNDLjMYWDRWQ3gbe96ikNzjgOLqkeUELYmdtov5YamDzdafUIMOdKtyUFKq5mbOyCZN9wickxGQ3X9w3w8brIK_EDu2_emPx_UOKyqM2g8zLXiv6F9TPAEGCqTjE0NIzQDqp7BZPsDeBL4FC3RpOgtTKTEcyga9uCflVaPfZD2QQy6muYq9G1OnAU2xETpbMrGqFFGyyD_U2N5hVDz4b492AUf0eZGUXEdZkoJbraeTddo75aMg-sgrnNsoWvjxPQQoYrdLqRQCpBmU5gLryumkktFpf5_FUGHBDcmTSJrBdqjqUbsP2LOxvz1S6jNWgghAX4l5If2TGO7dB5s-MJkr-hRgrI712rk46qTIVq3CChqZPVUJr0igYJch5gFDPfP8VD6Ycz5P6A1r_yqF_Xtivgl67PuadpXQVnUY3hnGPzzmAPvnaUKQ8En9SUXm4pU0FDgGh3pcypAPKCSX6yruc5WE-ooZz_ltziDXeIA2IyasKOEDIY0bzqq0dVlSQxwNILPUbbj-jihX2Pou_7nyTT6t2KHkUdKH9QuBvBaYbUpzQoO5mUb4Q_eWWqhPYC0gGzytyt8PJ_lY6vOODXZvWVL8lbAhFdT465DH_Aaql7kpwAg2vfon6xICkk0ZQ-zNISPElpzExhpM47GcKEGXMl4maq6l_kX8w1RTS5IFd0FlCjjVBqGRaytVy1?></g></svg>
