<svg xmlns="http://www.w3.org/2000/svg" xmlns:xlink="http://www.w3.org/1999/xlink" contentStyleType="text/css" height="753px" preserveAspectRatio="none" style="width:2033px;height:753px;background:#FAFAFA;" version="1.1" viewBox="0 0 2033 753" width="2033px" zoomAndPan="magnify"><defs><style type="text/css">@import url('https://fonts.googleapis.com/css?family=Roboto:400,100,100italic,300,300italic,400italic,500,500italic,700,700italic,900,900italic');</style></defs><g><rect fill="#FAFAFA" height="753" style="stroke:none;stroke-width:1.0;" width="2033" x="0" y="0"/><!--cluster system--><g id="cluster_system"><rect fill="#FFF3E0" height="314" rx="4" ry="4" style="stroke:#555555;stroke-width:1.0;" width="260" x="928.5" y="192.5"/><text fill="#222222" font-family="Roboto" font-size="14" font-weight="bold" lengthAdjust="spacing" textLength="146.7949" x="985.1025" y="207.4883">CYO Adventure System</text><text fill="#222222" font-family="Roboto" font-size="14" font-weight="bold" lengthAdjust="spacing" textLength="244.5352" x="936.2324" y="223.8945">[Homelab, Docker, Pangolin zero-trust]</text></g><!--entity pwa--><g id="elem_pwa"><rect fill="#E3F2FD" height="69.2188" rx="4" ry="4" style="stroke:#555555;stroke-width:0.5;" width="189.8936" x="970.5" y="243.5"/><text fill="#222222" font-family="Roboto" font-size="14" lengthAdjust="spacing" textLength="77.5879" x="980.5" y="266.4883">PWA Reader</text><text fill="#222222" font-family="Roboto" font-size="14" lengthAdjust="spacing" textLength="134.9277" x="980.5" y="282.8945">[React 19, TypeScript]</text><text fill="#222222" font-family="Roboto" font-size="14" lengthAdjust="spacing" textLength="169.8936" x="980.5" y="299.3008">Play stories, offline support</text></g><!--entity backend--><g id="elem_backend"><rect fill="#E8F5E9" height="85.625" rx="4" ry="4" style="stroke:#555555;stroke-width:0.5;" width="225.8164" x="945.5" y="404.5"/><text fill="#222222" font-family="Roboto" font-size="14" lengthAdjust="spacing" textLength="106.2168" x="955.5" y="427.4883">FastAPI Backend</text><text fill="#222222" font-family="Roboto" font-size="14" lengthAdjust="spacing" textLength="81.6553" x="955.5" y="443.8945">[Python 3.12]</text><text fill="#222222" font-family="Roboto" font-size="14" lengthAdjust="spacing" textLength="205.8164" x="955.5" y="460.3008">Library, generation, reading state,</text><text fill="#222222" font-family="Roboto" font-size="14" lengthAdjust="spacing" textLength="98.3555" x="955.5" y="476.707">guardian review</text></g><!--entity child--><g id="elem_child"><ellipse cx="935.3647" cy="22" fill="#E3F2FD" rx="8" ry="8" style="stroke:#555555;stroke-width:0.5;"/><path d="M935.3647,30 L935.3647,57 M922.3647,38 L948.3647,38 M935.3647,57 L922.3647,72 M935.3647,57 L948.3647,72 " fill="none" style="stroke:#555555;stroke-width:0.5;"/><text fill="#222222" font-family="Roboto" font-size="14" lengthAdjust="spacing" textLength="78.7295" x="896" y="86.4883">Child Reader</text><text fill="#222222" font-family="Roboto" font-size="14" lengthAdjust="spacing" textLength="71.4561" x="896" y="102.8945">(age 3-16+)</text></g><!--entity guardian--><g id="elem_guardian"><ellipse cx="1065.4258" cy="22" fill="#E8F5E9" rx="8" ry="8" style="stroke:#555555;stroke-width:0.5;"/><path d="M1065.4258,30 L1065.4258,57 M1052.4258,38 L1078.4258,38 M1065.4258,57 L1052.4258,72 M1065.4258,57 L1078.4258,72 " fill="none" style="stroke:#555555;stroke-width:0.5;"/><text fill="#222222" font-family="Roboto" font-size="14" lengthAdjust="spacing" textLength="110.8516" x="1010" y="86.4883">Guardian / Author</text><text fill="#222222" font-family="Roboto" font-size="14" lengthAdjust="spacing" textLength="101.1514" x="1010" y="102.8945">(parent or carer)</text></g><!--entity admin--><g id="elem_admin"><ellipse cx="1276.4482" cy="14" fill="#EDE7F6" rx="8" ry="8" style="stroke:#555555;stroke-width:0.5;"/><path d="M1276.4482,22 L1276.4482,49 M1263.4482,30 L1289.4482,30 M1276.4482,49 L1263.4482,64 M1276.4482,49 L1289.4482,64 " fill="none" style="stroke:#555555;stroke-width:0.5;"/><text fill="#222222" font-family="Roboto" font-size="14" lengthAdjust="spacing" textLength="40.4414" x="1204.5" y="78.4883">Admin</text><text fill="#222222" font-family="Roboto" font-size="14" lengthAdjust="spacing" textLength="143.8965" x="1204.5" y="94.8945">(global safety operator,</text><text fill="#222222" font-family="Roboto" font-size="14" lengthAdjust="spacing" textLength="142.0918" x="1204.5" y="111.3008">cross-family, ADR-005)</text></g><!--entity openrouter--><g id="elem_openrouter"><rect fill="#F3E5F5" height="69.2188" rx="4" ry="4" style="stroke:#555555;stroke-width:0.5;" width="175.1416" x="7" y="631"/><text fill="#222222" font-family="Roboto" font-size="14" lengthAdjust="spacing" textLength="73.7256" x="17" y="653.9883">OpenRouter</text><text fill="#222222" font-family="Roboto" font-size="14" lengthAdjust="spacing" textLength="140.752" x="17" y="670.3945">[Primary LLM provider]</text><text fill="#222222" font-family="Roboto" font-size="14" lengthAdjust="spacing" textLength="155.1416" x="17" y="686.8008">Multi-model API gateway</text></g><!--entity extra_providers--><g id="elem_extra_providers"><rect fill="#F3E5F5" height="69.2188" rx="4" ry="4" style="stroke:#555555;stroke-width:0.5;" width="226.7803" x="473" y="631"/><text fill="#222222" font-family="Roboto" font-size="14" lengthAdjust="spacing" textLength="112.3213" x="483" y="653.9883">Anthropic / Modal</text><text fill="#222222" font-family="Roboto" font-size="14" lengthAdjust="spacing" textLength="206.7803" x="483" y="670.3945">[Admin-selectable LLM providers,</text><text fill="#222222" font-family="Roboto" font-size="14" lengthAdjust="spacing" textLength="166.667" x="483" y="686.8008">WS-C PR1 per-job override]</text></g><!--entity ollama--><g id="elem_ollama"><rect fill="#FFEBEE" height="69.2188" rx="4" ry="4" style="stroke:#555555;stroke-width:0.5;" width="151.2021" x="735" y="631"/><text fill="#222222" font-family="Roboto" font-size="14" lengthAdjust="spacing" textLength="43.9482" x="745" y="653.9883">Ollama</text><text fill="#222222" font-family="Roboto" font-size="14" lengthAdjust="spacing" textLength="124.7354" x="745" y="670.3945">[Local fallback LLM]</text><text fill="#222222" font-family="Roboto" font-size="14" lengthAdjust="spacing" textLength="131.2021" x="745" y="686.8008">Self-hosted, homelab</text></g><!--entity supabase_auth--><g id="elem_supabase_auth"><rect fill="#E0F7FA" height="69.2188" rx="4" ry="4" style="stroke:#555555;stroke-width:0.5;" width="273.5654" x="921.5" y="631"/><text fill="#222222" font-family="Roboto" font-size="14" lengthAdjust="spacing" textLength="106.5107" x="931.5" y="653.9883">Supabase (OIDC)</text><text fill="#222222" font-family="Roboto" font-size="14" lengthAdjust="spacing" textLength="214.3408" x="931.5" y="670.3945">[Managed auth platform, ADR-009]</text><text fill="#222222" font-family="Roboto" font-size="14" lengthAdjust="spacing" textLength="253.5654" x="931.5" y="686.8008">Guardian + admin sign-in (Apple/Google)</text></g><!--entity postgres--><g id="elem_postgres"><rect fill="#E0F7FA" height="102.0313" rx="4" ry="4" style="stroke:#555555;stroke-width:0.5;" width="250.9316" x="1231" y="614.5"/><text fill="#222222" font-family="Roboto" font-size="14" lengthAdjust="spacing" textLength="120.9824" x="1241" y="637.4883">Supabase Postgres</text><text fill="#222222" font-family="Roboto" font-size="14" lengthAdjust="spacing" textLength="199.958" x="1241" y="653.8945">[Managed operational database,</text><text fill="#222222" font-family="Roboto" font-size="14" lengthAdjust="spacing" textLength="125.3438" x="1241" y="670.3008">ADR-009 decision 2]</text><text fill="#222222" font-family="Roboto" font-size="14" lengthAdjust="spacing" textLength="230.9316" x="1241" y="686.707">Session pooler :5432 (session mode)</text><text fill="#222222" font-family="Roboto" font-size="14" lengthAdjust="spacing" textLength="171.3086" x="1241" y="703.1133">Metadata and reading state</text></g><!--entity redis--><g id="elem_redis"><rect fill="#E0E0E0" height="69.2188" rx="4" ry="4" style="stroke:#555555;stroke-width:0.5;" width="157.9082" x="1517.5" y="631"/><text fill="#222222" font-family="Roboto" font-size="14" lengthAdjust="spacing" textLength="67.7236" x="1527.5" y="653.9883">Redis + RQ</text><text fill="#222222" font-family="Roboto" font-size="14" lengthAdjust="spacing" textLength="72.707" x="1527.5" y="670.3945">[Job queue]</text><text fill="#222222" font-family="Roboto" font-size="14" lengthAdjust="spacing" textLength="137.9082" x="1527.5" y="686.8008">Async generation jobs</text></g><g id="elem_GMN24"><path d="M1206.5,416 L1206.5,478.9375 A4,4 0 0 0 1210.5,482.9375 L1474.4165,482.9375 A4,4 0 0 0 1478.4165,478.9375 L1478.4165,422 L1468.4165,412 L1210.5,412 A4,4 0 0 0 1206.5,416 " fill="#FEFFDD" style="stroke:#181818;stroke-width:0.5;"/><path d="M1468.4165,412 L1468.4165,420 A2,2 0 0 0 1470.4165,422 L1478.4165,422 L1468.4165,412 " fill="#FEFFDD" style="stroke:#181818;stroke-width:1.0;"/><text fill="#000000" font-family="Roboto" font-size="13" lengthAdjust="spacing" textLength="131.46" x="1212.5" y="429.0605">Generated API client in</text><text fill="#000000" font-family="Roboto" font-size="13" lengthAdjust="spacing" textLength="193.7686" x="1212.5" y="444.2949">frontend/src/client/ (build output,</text><text fill="#000000" font-family="Roboto" font-size="13" lengthAdjust="spacing" textLength="236.2598" x="1212.5" y="459.5293">not hand-written) from OpenAPI schema.</text><text fill="#000000" font-family="Roboto" font-size="13" lengthAdjust="spacing" textLength="250.9165" x="1212.5" y="474.7637">Service worker + IndexedDB for offline play.</text></g><g id="elem_GMN27"><path d="M217.5,611 L217.5,661.5 L182.33,665.5 L217.5,669.5 L217.5,719.6406 A4,4 0 0 0 221.5,723.6406 L433.3657,723.6406 A4,4 0 0 0 437.3657,719.6406 L437.3657,617 L427.3657,607 L221.5,607 A4,4 0 0 0 217.5,611 " fill="#FEFFDD" style="stroke:#181818;stroke-width:0.5;"/><path d="M427.3657,607 L427.3657,615 A2,2 0 0 0 429.3657,617 L437.3657,617 L427.3657,607 " fill="#FEFFDD" style="stroke:#181818;stroke-width:0.5;"/><text fill="#000000" font-family="Roboto" font-size="13" lengthAdjust="spacing" textLength="198.8657" x="223.5" y="624.0605">Provider fallback cascade (3 legs):</text><text fill="#000000" font-family="Roboto" font-size="13" lengthAdjust="spacing" textLength="172.542" x="223.5" y="639.2949">OpenRouter haiku (primary) -&gt;</text><text fill="#000000" font-family="Roboto" font-size="13" lengthAdjust="spacing" textLength="182.8062" x="223.5" y="654.5293">OpenRouter sonnet (fallback) -&gt;</text><text fill="#000000" font-family="Roboto" font-size="13" lengthAdjust="spacing" textLength="129.5239" x="223.5" y="669.7637">Ollama (local fallback)</text><text fill="#000000" font-family="Roboto" font-size="13" lengthAdjust="spacing" textLength="144.2759" x="223.5" y="684.998">Layer 1: per-adapter retry</text><text fill="#000000" font-family="Roboto" font-size="13" lengthAdjust="spacing" textLength="196.79" x="223.5" y="700.2324">Layer 2: FallbackProvider cascade</text><text fill="#000000" font-family="Roboto" font-size="13" lengthAdjust="spacing" textLength="184.5898" x="223.5" y="715.4668">Layer 3: orchestrator repair loop</text></g><g id="elem_GMN30"><path d="M1711,588.5 L1711,742.8438 A4,4 0 0 0 1715,746.8438 L2022.252,746.8438 A4,4 0 0 0 2026.252,742.8438 L2026.252,594.5 L2016.252,584.5 L1715,584.5 A4,4 0 0 0 1711,588.5 " fill="#FEFFDD" style="stroke:#181818;stroke-width:0.5;"/><path d="M2016.252,584.5 L2016.252,592.5 A2,2 0 0 0 2018.252,594.5 L2026.252,594.5 L2016.252,584.5 " fill="#FEFFDD" style="stroke:#181818;stroke-width:1.0;"/><text fill="#000000" font-family="Roboto" font-size="13" lengthAdjust="spacing" textLength="284.4385" x="1717" y="601.5605">Mandatory human approval (ADR-005, amended):</text><text fill="#000000" font-family="Roboto" font-size="13" lengthAdjust="spacing" textLength="223.5327" x="1717" y="616.7949">no story reaches a child profile without</text><text fill="#000000" font-family="Roboto" font-size="13" lengthAdjust="spacing" textLength="277.1006" x="1717" y="632.0293">a recorded admin approval (global, cross-family;</text><text fill="#000000" font-family="Roboto" font-size="13" lengthAdjust="spacing" textLength="294.252" x="1717" y="647.2637">guardians author and submit, they do not approve).</text><text fill="#000000" font-family="Roboto" font-size="13" lengthAdjust="spacing" textLength="139.3945" x="1717" y="662.498">Two separate lifecycles:</text><text fill="#000000" font-family="Roboto" font-size="13" lengthAdjust="spacing" textLength="215.249" x="1717" y="677.7324">- GenerationJob: queued -&gt; running -&gt;</text><text fill="#000000" font-family="Roboto" font-size="13" lengthAdjust="spacing" textLength="171.6914" x="1723.4492" y="692.9668">passed | needs_review | failed</text><text fill="#000000" font-family="Roboto" font-size="13" lengthAdjust="spacing" textLength="183.5107" x="1717" y="708.2012">- Storybook: draft -&gt; in_review -&gt;</text><text fill="#000000" font-family="Roboto" font-size="13" lengthAdjust="spacing" textLength="210.647" x="1723.4492" y="723.4355">needs_revision | published | archived</text><text fill="#000000" font-family="Roboto" font-size="13" lengthAdjust="spacing" textLength="251.4497" x="1717" y="738.6699">("approved" is an action, not a resting state)</text></g><!--link child to pwa--><g id="link_child_pwa"><path d="M943.15,106.64 C948.17,128.75 956.16,155.09 968.5,176.5 C983.03,201.71 1000.8534,221.2979 1020.3534,239.3179 " fill="none" id="child-to-pwa" style="stroke:#181818;stroke-width:1.0;"/><polygon fill="#181818" points="1024.76,243.39,1020.8649,234.3441,1021.0879,239.9966,1015.4354,240.2195,1024.76,243.39" style="stroke:#181818;stroke-width:1.0;"/><text fill="#000000" font-family="Roboto" font-size="13" lengthAdjust="spacing" textLength="81.3452" x="971.2393" y="157.5605">Reads stories,</text><text fill="#000000" font-family="Roboto" font-size="13" lengthAdjust="spacing" textLength="84.8237" x="969.5" y="172.7949">chooses paths</text></g><!--link guardian to pwa--><g id="link_guardian_pwa"><path d="M1063.55,106.93 C1063.12,119.14 1062.72,132.32 1062.5,144.5 C1061.9,178.09 1062.7316,210.4643 1063.7516,237.2443 " fill="none" id="guardian-to-pwa" style="stroke:#181818;stroke-width:1.0;"/><polygon fill="#181818" points="1063.98,243.24,1067.6346,234.0943,1063.7897,238.2436,1059.6404,234.3988,1063.98,243.24" style="stroke:#181818;stroke-width:1.0;"/><text fill="#000000" font-family="Roboto" font-size="13" lengthAdjust="spacing" textLength="104.73" x="1095.9556" y="157.5605">Authors concepts,</text><text fill="#000000" font-family="Roboto" font-size="13" lengthAdjust="spacing" textLength="169.6411" x="1063.5" y="172.7949">submits for review (ADR-005)</text></g><!--link admin to pwa--><g id="link_admin_pwa"><path d="M1266.87,114.7 C1261.05,135.67 1251.87,158.86 1237.5,176.5 C1214.23,205.05 1185.8832,224.491 1154.4932,240.671 " fill="none" id="admin-to-pwa" style="stroke:#181818;stroke-width:1.0;"/><polygon fill="#181818" points="1149.16,243.42,1158.9925,242.852,1153.6043,241.1292,1155.3271,235.741,1149.16,243.42" style="stroke:#181818;stroke-width:1.0;"/><text fill="#000000" font-family="Roboto" font-size="13" lengthAdjust="spacing" textLength="173.5894" x="1272.6931" y="157.5605">Reviews and approves/rejects</text><text fill="#000000" font-family="Roboto" font-size="13" lengthAdjust="spacing" textLength="203.9756" x="1257.5" y="172.7949">storybooks, cross-family (ADR-005)</text></g><!--link pwa to backend--><g id="link_pwa_backend"><path d="M1064.08,312.9 C1062.98,339.28 1061.69,370.0452 1060.51,398.3352 " fill="none" id="pwa-to-backend" style="stroke:#181818;stroke-width:1.0;"/><polygon fill="#181818" points="1060.26,404.33,1064.6316,395.5045,1060.4684,399.3343,1056.6385,395.1711,1060.26,404.33" style="stroke:#181818;stroke-width:1.0;"/><text fill="#000000" font-family="Roboto" font-size="13" lengthAdjust="spacing" textLength="75.9624" x="1083.616" y="355.5605">REST /api/v1</text><text fill="#000000" font-family="Roboto" font-size="13" lengthAdjust="spacing" textLength="114.1943" x="1064.5" y="370.7949">(OIDC bearer token)</text></g><!--link backend to openrouter--><g id="link_backend_openrouter"><path d="M945.46,448.76 C776.35,452.96 450.54,476.02 199.5,584.5 C173.83,595.59 153.326,610.3641 134.136,626.8941 " fill="none" id="backend-to-openrouter" style="stroke:#181818;stroke-width:1.0;"/><polygon fill="#181818" points="129.59,630.81,139.0196,627.9669,133.3783,627.5468,133.7984,621.9056,129.59,630.81" style="stroke:#181818;stroke-width:1.0;"/><text fill="#000000" font-family="Roboto" font-size="13" lengthAdjust="spacing" textLength="100.2676" x="384.9592" y="535.5605">LLM completions</text><text fill="#000000" font-family="Roboto" font-size="13" lengthAdjust="spacing" textLength="109.186" x="380.5" y="550.7949">(primary, ADR-003)</text></g><!--link backend to extra_providers--><g id="link_backend_extra_providers"><path d="M945.32,460 C881.67,469.98 802.42,488.46 738.5,522.5 C687.66,549.57 645.0594,593.4614 617.2294,626.1514 " fill="none" id="backend-to-extra_providers" style="stroke:#181818;stroke-width:1.0;stroke-dasharray:7.0,7.0;"/><polygon fill="#181818" points="613.34,630.72,622.2199,626.46,616.5812,626.9128,616.1284,621.2741,613.34,630.72" style="stroke:#181818;stroke-width:1.0;"/><text fill="#000000" font-family="Roboto" font-size="13" lengthAdjust="spacing" textLength="100.2676" x="773.7297" y="535.5605">LLM completions</text><text fill="#000000" font-family="Roboto" font-size="13" lengthAdjust="spacing" textLength="168.7271" x="739.5" y="550.7949">(admin-selected job override)</text></g><!--link backend to ollama--><g id="link_backend_ollama"><path d="M991.16,490.57 C976.67,500.5 961.75,511.43 948.5,522.5 C907.87,556.44 870.1688,596.4478 843.4088,626.5178 " fill="none" id="backend-to-ollama" style="stroke:#181818;stroke-width:1.0;stroke-dasharray:7.0,7.0;"/><polygon fill="#181818" points="839.42,631,848.3913,626.936,842.744,627.2649,842.4151,621.6176,839.42,631" style="stroke:#181818;stroke-width:1.0;"/><text fill="#000000" font-family="Roboto" font-size="13" lengthAdjust="spacing" textLength="100.2676" x="949.5" y="535.5605">LLM completions</text><text fill="#000000" font-family="Roboto" font-size="13" lengthAdjust="spacing" textLength="85.4902" x="956.8887" y="550.7949">(local fallback)</text></g><!--link backend to supabase_auth--><g id="link_backend_supabase_auth"><path d="M1058.5,490.66 C1058.5,531.67 1058.5,587.15 1058.5,624.94 " fill="none" id="backend-to-supabase_auth" style="stroke:#181818;stroke-width:1.0;"/><polygon fill="#181818" points="1058.5,630.94,1062.5,621.94,1058.5,625.94,1054.5,621.94,1058.5,630.94" style="stroke:#181818;stroke-width:1.0;"/><text fill="#000000" font-family="Roboto" font-size="13" lengthAdjust="spacing" textLength="124.3506" x="1059.5" y="535.5605">OIDC token validation</text><text fill="#000000" font-family="Roboto" font-size="13" lengthAdjust="spacing" textLength="99.874" x="1071.7383" y="550.7949">(JWKS, ADR-009)</text></g><!--link backend to postgres--><g id="link_backend_postgres"><path d="M1141.28,490.66 C1158.61,500.47 1176.48,511.32 1192.5,522.5 C1232.04,550.08 1268.6236,581.5185 1299.7336,610.1285 " fill="none" id="backend-to-postgres" style="stroke:#181818;stroke-width:1.0;"/><polygon fill="#181818" points="1304.15,614.19,1300.2331,605.1535,1300.4697,610.8054,1294.8178,611.042,1304.15,614.19" style="stroke:#181818;stroke-width:1.0;"/><text fill="#000000" font-family="Roboto" font-size="13" lengthAdjust="spacing" textLength="122.7954" x="1232.5" y="535.5605">Async SQLAlchemy 2</text><text fill="#000000" font-family="Roboto" font-size="13" lengthAdjust="spacing" textLength="120.1865" x="1233.8044" y="550.7949">session pooler :5432</text></g><!--link backend to redis--><g id="link_backend_redis"><path d="M1127.85,490.51 C1146.88,500.11 1167.94,509.08 1188.5,514.5 C1263.79,534.35 1287.81,504.24 1363.5,522.5 C1428.08,538.08 1443.17,549.29 1499.5,584.5 C1520.97,597.92 1538.3788,611.6655 1555.9388,626.9855 " fill="none" id="backend-to-redis" style="stroke:#181818;stroke-width:1.0;"/><polygon fill="#181818" points="1560.46,630.93,1556.3078,621.9992,1556.6923,627.6429,1551.0486,628.0274,1560.46,630.93" style="stroke:#181818;stroke-width:1.0;"/><text fill="#000000" font-family="Roboto" font-size="13" lengthAdjust="spacing" textLength="142.8096" x="1450.5" y="543.0605">Enqueue generation jobs</text></g><!--link pwa to GMN24--><g id="link_pwa_GMN24"><path d="M1133.35,312.62 C1151.18,321.91 1170.25,332.27 1187.5,342.5 C1224.01,364.16 1263.74,390.89 1293.84,411.82 " fill="none" id="pwa-GMN24" style="stroke:#181818;stroke-width:1.0;stroke-dasharray:7.0,7.0;"/></g><!--link backend to GMN30--><g id="link_backend_GMN30"><path d="M1127.08,490.53 C1146.28,500.26 1167.63,509.29 1188.5,514.5 C1277.56,536.73 1512.65,499.43 1601.5,522.5 C1651.68,535.53 1702.88,559.64 1746.84,584.34 " fill="none" id="backend-GMN30" style="stroke:#181818;stroke-width:1.0;stroke-dasharray:7.0,7.0;"/></g><!--SRC=[fLThRnit5lskNt7N-H0P4INRYfj6HGCejfIcjMjNoY8ecYAWPYY9DOUSaXmxivl-znvo7XevsW2BAWYYYFSUtiUv3pwbx__1f_UKBfxJbRWNYaw9qR9qNcHqORGNdpnTIhwnF0jIlzxGDBqNsXTMJEXYQumJx5TJM7Rpe5bxH5RmLEeDyJodjR5q9rFNUmg49MGJGMkfX9lW_qJE9gEaD1zveppYkHob8dV3lAJuwTzQgHEPSpMoHWdAJ2hKX3O5jwdaUa39LgfqG3pDf3x-2kf6Q66vbqO7x7u3m8nM9V72RmqksdmDeNQiCgqVxssT5JhDZTJU_I-0T3MAfhUUzPVUs79bp1qzepUjSJ-Q5Icv5acP84mLMceIDyeLrnfNZNXgmrzsSdBECgvJ7d3Oji1tXfXRSy_LC4kfppDO9L84IvaLLoo6Y2eHORyEFMPh2mf8OPbI6Ui4Bqk_glYIkIBdAmvkuDI305aqPbd_IZTlBoyGDXmcmj4KWKU4vDrt4HMu8f4Ezz0PVK-jqgrnVcCXpnr1WKnUcyCL8G1Hw913zfIbOYsi5Ic-h3opOYD1S1jjUiVT7PqENqmEN9GKFaIfCGj06vwpH1c7R0RNGYH8mY8B9jmBK30nsXabOOz8QIliGOkyIBRCvIAf0lcFIhVtBpWdjQ2t5pS__tjnHLllSpSPZIn_66watnQhmWcRX5hMVfYOREJXQ6h7qHvVP8f9dB8r962KbLwuqVtPyFdmfEVkfCuvQXyfMVD2-Jc4VWQdw6XXLiQReux8YYTt6siAdLuOXPf_Cf-6Fns9-j22H_HjhtiW4i_r1gNztnxHQsDJOMkGy_Z1h-7g-hUp-EdzrONW2KhW_rA7v1SMnqy0VagCCPe6K1U-zYhyeujOyGjKlB0VT9zl18tPwJVFZey2BQj-y6Gsdf_DBnkLDtMNeL5akWbwi1dP81md-6OhxQOT0U3R-VdiPGCm3JKBfQg4oV6ry6LDVsC77tHYZNDipJEfoW5DBnUXBrIOLRq_cLtENio_QTog-_igUCvj6VtRfU1ehylNmX_qRp-OJ2Y-6j2bIUw47T0jvC5rJVyHrZ1l2-T_ZvUw2Z-4SpmxYKdfmD- -dxO1_0rV4a-dBmVqhip5Ch4ozxz_qBUAb-JWdHHkG6QzLe7Yw2gviJxUaJ_mDj1xy7Fk_FJsRKmkUX_kk2qHTKtZuUaPeA_aoiBf0UtwsQ1juSwZS17HDXLMt4ln46zSLO1jTbgMp3wXcOGkLFdj7iVp9XTwOGeV7SOeoqBChwwkAJHXYJZ0gciKbsHnEb2mVWCx7dWPBqQcjOtw2EbuTZu_xw9FjTzQayi4_BesALUu93A6EQ62s0fItTiS_7k_P1TqkpWba8ZzWN4J-fp5QPL0J7tBFxOAXwwzKOfd77TTcGIkhxbI8K3X9hYp56hDjkYZeITkA-9KlaIrG8tPwzci2zYsttwO3iT0lkOQzPN6mKpD86du_HAtj9NrhEQvanlDy6z_ckTAZDuO0-Yg49g9z36YFPcTp5-WDnswlsd_7GiEZHf4iRQaCw-Ywov-pmrM5KkJy-VZC-gx-jUGOVXsBJmFG8JPlK- -YjpD13fWvqAac3ZFQF4B30oRmf-5A0GkdhfI9nrM4_Bg8foDAi0AVnhMBf2J8EQsCgyeMtKlnbx5ufg4gtZgsZ94dudx7ipZVkkEUcsHT5Ig3kV274n4xeEMArQPz2xkWLKv8JzDZ-fLYTkxD8Yu69bwJt5Ok_v0190IronCQ0lTjjU53401i2dO03fRlgEumDsVefF6_MCbGkibRo04hKOwQ7Og3igXU30tmQWOhz2-go9kk3Zkg0-7hxueduCOl5EZe5Yt21_1rJLp44NjLTyZD_Ov3_teTtIOi226BGKmGFdn_K_Bjh0UWRHS3DcD55l-SZLLoLPa9PqX8mVulezGqG_gCnsv-WL7UprjlC0yyjvawFQ12cZgzKACu8IEc2WPHgRKE8bxAU17SSUE1oFghuh0NwGjB_m0KW2bBMZ47h3KGFmuw6KKsd40TC45FeJWKjXxYLV9Wx4ORAYjjzYPFudqydKaRJD-q8BAOIzu5SojZRPoi_N1vXrdW7XRvtxN5nFk4imywez9YOqxda1gDnXWfxmhg27MCR5N- -VEQ2qyzTjCrn8LDHxJ02TNl8JQwIHsUFIQFA1OuMtP7fvDQ5vhjFRMPhOoumcM50JA-RXiXAMTIqlAcFnn97RfgvCFaElcRKBnRKBDswGjLppQgXTA38WsiTkKeIM6IudNAnMqmfEH7h3G8Y0GvM7cXqqlfUwR9a1NUz9-V_WEAas_SlLJBxQOgZiDmekYn9eUILEtdUF0ZNSFi4c47HCkxXvbmLgs_sIRL9qOd0VbYxZfLqaYD4pdSF2Pj12f-rXtmSz869nA8rJx4fnGQldQ1nIf6z4QPwSUI-upvSLAIRUDsCqZ19Bzezg5z2W-JtHOZ-EY4zr3w9nl9yxnBf5_0m00]--></g></svg>
