<?plantuml 1.2026.2?><svg xmlns="http://www.w3.org/2000/svg" xmlns:xlink="http://www.w3.org/1999/xlink" contentStyleType="text/css" data-diagram-type="DESCRIPTION" height="1009px" preserveAspectRatio="none" style="width:2194px;height:1009px;background:#FAFAFA;" version="1.1" viewBox="0 0 2194 1009" width="2194px" zoomAndPan="magnify"><defs/><g><rect fill="#FAFAFA" height="1009" style="stroke:none;stroke-width:1;" width="2194" x="0" y="0"/><!--cluster Validator Gate--><g class="cluster" data-qualified-name="Validator Gate" data-source-line="31" id="ent0002"><path d="M10,250.37 L122.5635,250.37 A6,6 0 0 1 126.5635,254.37 L133.5635,272.6669 L1807,272.6669 A4,4 0 0 1 1811,276.6669 L1811,998.2 A4,4 0 0 1 1807,1002.2 L10,1002.2 A4,4 0 0 1 6,998.2 L6,254.37 A4,4 0 0 1 10,250.37" fill="#E8F5E9" style="stroke:#000000;stroke-width:1.5;"/><line style="stroke:#000000;stroke-width:1.5;" x1="6" x2="133.5635" y1="272.6669" y2="272.6669"/><text fill="#000000" font-family="'Roboto'" font-size="14" font-weight="bold" lengthAdjust="spacing" textLength="114.5635" x="10" y="265.3651">Validator Gate</text></g><!--cluster Layer 1: Graph Structure--><g class="cluster" data-qualified-name="Validator Gate.Layer 1. Graph Structure" data-source-line="35" id="ent0004"><path d="M424,528.75 L618.6904,528.75 A6,6 0 0 1 622.6904,532.75 L629.6904,551.0469 L778,551.0469 A4,4 0 0 1 782,555.0469 L782,752.42 A4,4 0 0 1 778,756.42 L424,756.42 A4,4 0 0 1 420,752.42 L420,532.75 A4,4 0 0 1 424,528.75" fill="#DCEDC8" style="stroke:#000000;stroke-width:1.5;"/><line style="stroke:#000000;stroke-width:1.5;" x1="420" x2="629.6904" y1="551.0469" y2="551.0469"/><text fill="#000000" font-family="'Roboto'" font-size="14" font-weight="bold" lengthAdjust="spacing" textLength="196.6904" x="424" y="543.7451">Layer 1: Graph Structure</text></g><!--cluster Policy Layer: age/scale invariants (ADR-011)--><g class="cluster" data-qualified-name="Validator Gate.Policy Layer. age.scale invariants .ADR-011." data-source-line="39" id="ent0006"><path d="M34,528.75 L382.8887,528.75 A6,6 0 0 1 386.8887,532.75 L393.8887,551.0469 L392,551.0469 A4,4 0 0 1 396,555.0469 L396,974.2 A4,4 0 0 1 392,978.2 L34,978.2 A4,4 0 0 1 30,974.2 L30,532.75 A4,4 0 0 1 34,528.75" fill="#A5D6A7" style="stroke:#000000;stroke-width:1.5;"/><line style="stroke:#000000;stroke-width:1.5;" x1="30" x2="393.8887" y1="551.0469" y2="551.0469"/><text fill="#000000" font-family="'Roboto'" font-size="14" font-weight="bold" lengthAdjust="spacing" textLength="350.8887" x="34" y="543.7451">Policy Layer: age/scale invariants (ADR-011)</text></g><!--cluster Layer 2: State-Space Walk (Tier-2 only)--><g class="cluster" data-qualified-name="Validator Gate.Layer 2. State-Space Walk .Tier-2 only." data-source-line="45" id="ent0009"><path d="M1465,561.34 L1773.7754,561.34 A6,6 0 0 1 1777.7754,565.34 L1784.7754,583.6369 L1783,583.6369 A4,4 0 0 1 1787,587.6369 L1787,957.9 A4,4 0 0 1 1783,961.9 L1465,961.9 A4,4 0 0 1 1461,957.9 L1461,565.34 A4,4 0 0 1 1465,561.34" fill="#C8E6C9" style="stroke:#000000;stroke-width:1.5;"/><line style="stroke:#000000;stroke-width:1.5;" x1="1461" x2="1784.7754" y1="583.6369" y2="583.6369"/><text fill="#000000" font-family="'Roboto'" font-size="14" font-weight="bold" lengthAdjust="spacing" textLength="310.7754" x="1465" y="576.3351">Layer 2: State-Space Walk (Tier-2 only)</text></g><!--cluster Advisory Checks--><g class="cluster" data-qualified-name="Validator Gate.Advisory Checks" data-source-line="50" id="ent0012"><path d="M810,569.49 L937.3154,569.49 A6,6 0 0 1 941.3154,573.49 L948.3154,591.7869 L1433,591.7869 A4,4 0 0 1 1437,595.7869 L1437,711.68 A4,4 0 0 1 1433,715.68 L810,715.68 A4,4 0 0 1 806,711.68 L806,573.49 A4,4 0 0 1 810,569.49" fill="#B2DFDB" style="stroke:#000000;stroke-width:1.5;"/><line style="stroke:#000000;stroke-width:1.5;" x1="806" x2="948.3154" y1="591.7869" y2="591.7869"/><text fill="#000000" font-family="'Roboto'" font-size="14" font-weight="bold" lengthAdjust="spacing" textLength="129.3154" x="810" y="584.4851">Advisory Checks</text></g><!--cluster Caller--><g class="cluster" data-qualified-name="Caller" data-source-line="60" id="ent0016"><path d="M1099,6 L1142.7188,6 A6,6 0 0 1 1146.7188,10 L1153.7188,28.2969 L1740,28.2969 A4,4 0 0 1 1744,32.2969 L1744,131.89 A4,4 0 0 1 1740,135.89 L1099,135.89 A4,4 0 0 1 1095,131.89 L1095,10 A4,4 0 0 1 1099,6" fill="#F3F3F3" style="stroke:#000000;stroke-width:1.5;"/><line style="stroke:#000000;stroke-width:1.5;" x1="1095" x2="1153.7188" y1="28.2969" y2="28.2969"/><text fill="#000000" font-family="'Roboto'" font-size="14" font-weight="bold" lengthAdjust="spacing" textLength="45.7188" x="1099" y="20.9951">Caller</text></g><!--entity gate--><g class="entity" data-qualified-name="Validator Gate.gate" data-source-line="33" id="ent0003"><rect fill="#A5D6A7" height="78.8906" rx="4" ry="4" style="stroke:#555555;stroke-width:0.5;" width="247.6279" x="1173.19" y="285.37"/><rect fill="#A5D6A7" height="10" style="stroke:#555555;stroke-width:0.5;" width="15" x="1400.8179" y="290.37"/><rect fill="#A5D6A7" height="2" style="stroke:#555555;stroke-width:0.5;" width="4" x="1398.8179" y="292.37"/><rect fill="#A5D6A7" height="2" style="stroke:#555555;stroke-width:0.5;" width="4" x="1398.8179" y="296.37"/><text fill="#222222" font-family="'Roboto'" font-size="14" lengthAdjust="spacing" textLength="75.2295" x="1188.19" y="318.3651">Gate Entry</text><text fill="#222222" font-family="'Roboto'" font-size="14" lengthAdjust="spacing" textLength="119.8271" x="1188.19" y="334.662">validator/gate.py</text><text fill="#222222" font-family="'Roboto'" font-size="14" lengthAdjust="spacing" textLength="207.6279" x="1188.19" y="350.9589">run_gate(data) -&gt; GateResult</text></g><!--entity report--><g class="entity" data-qualified-name="Validator Gate.report" data-source-line="56" id="ent0015"><rect fill="#E8F5E9" height="111.4844" rx="4" ry="4" style="stroke:#555555;stroke-width:0.5;" width="283.5166" x="838.24" y="842.57"/><rect fill="#E8F5E9" height="10" style="stroke:#555555;stroke-width:0.5;" width="15" x="1101.7566" y="847.57"/><rect fill="#E8F5E9" height="2" style="stroke:#555555;stroke-width:0.5;" width="4" x="1099.7566" y="849.57"/><rect fill="#E8F5E9" height="2" style="stroke:#555555;stroke-width:0.5;" width="4" x="1099.7566" y="853.57"/><text fill="#222222" font-family="'Roboto'" font-size="14" lengthAdjust="spacing" textLength="117.2568" x="853.24" y="875.5651">ValidationReport</text><text fill="#222222" font-family="'Roboto'" font-size="14" lengthAdjust="spacing" textLength="131.3252" x="853.24" y="891.862">validator/report.py</text><text fill="#222222" font-family="'Roboto'" font-size="14" lengthAdjust="spacing" textLength="243.5166" x="853.24" y="908.1589">ValidationFinding(rule_id, severity,</text><text fill="#222222" font-family="'Roboto'" font-size="14" lengthAdjust="spacing" textLength="206.0078" x="853.24" y="924.4557">node_id, choice_id, message)</text><text fill="#222222" font-family="'Roboto'" font-size="14" lengthAdjust="spacing" textLength="198.7207" x="853.24" y="940.7526">Severity: ERROR | WARNING</text></g><!--entity layer1--><g class="entity" data-qualified-name="Validator Gate.Layer 1. Graph Structure.layer1" data-source-line="36" id="ent0005"><rect fill="#DCEDC8" height="176.6719" rx="4" ry="4" style="stroke:#555555;stroke-width:0.5;" width="329.4541" x="436.27" y="563.75"/><rect fill="#DCEDC8" height="10" style="stroke:#555555;stroke-width:0.5;" width="15" x="745.7241" y="568.75"/><rect fill="#DCEDC8" height="2" style="stroke:#555555;stroke-width:0.5;" width="4" x="743.7241" y="570.75"/><rect fill="#DCEDC8" height="2" style="stroke:#555555;stroke-width:0.5;" width="4" x="743.7241" y="574.75"/><text fill="#222222" font-family="'Roboto'" font-size="14" lengthAdjust="spacing" textLength="118.166" x="451.27" y="596.7451">validate_layer1()</text><text fill="#222222" font-family="'Roboto'" font-size="14" lengthAdjust="spacing" textLength="132.2891" x="451.27" y="613.042">validator/layer1.py</text><text fill="#222222" font-family="'Roboto'" font-size="14" lengthAdjust="spacing" textLength="289.4541" x="451.27" y="629.3389">L1-1: schema conformance (jsonschema)</text><text fill="#222222" font-family="'Roboto'" font-size="14" lengthAdjust="spacing" textLength="159.6943" x="451.27" y="645.6357">L1-2: start_node exists</text><text fill="#222222" font-family="'Roboto'" font-size="14" lengthAdjust="spacing" textLength="176.8115" x="451.27" y="661.9326">L1-3: all nodes reachable</text><text fill="#222222" font-family="'Roboto'" font-size="14" lengthAdjust="spacing" textLength="175.1914" x="451.27" y="678.2295">L1-4: at least one ending</text><text fill="#222222" font-family="'Roboto'" font-size="14" lengthAdjust="spacing" textLength="177.0439" x="451.27" y="694.5264">L1-5: no dangling targets</text><text fill="#222222" font-family="'Roboto'" font-size="14" lengthAdjust="spacing" textLength="219.5361" x="451.27" y="710.8232">L1-6: variable usage consistent</text><text fill="#222222" font-family="'Roboto'" font-size="14" lengthAdjust="spacing" textLength="201.0518" x="451.27" y="727.1201">L1-7: depth budget enforced</text></g><!--entity policy--><g class="entity" data-qualified-name="Validator Gate.Policy Layer. age.scale invariants .ADR-011..policy" data-source-line="40" id="ent0007"><rect fill="#A5D6A7" height="176.6719" rx="4" ry="4" style="stroke:#555555;stroke-width:0.5;" width="316.917" x="63.54" y="563.75"/><rect fill="#A5D6A7" height="10" style="stroke:#555555;stroke-width:0.5;" width="15" x="360.457" y="568.75"/><rect fill="#A5D6A7" height="2" style="stroke:#555555;stroke-width:0.5;" width="4" x="358.457" y="570.75"/><rect fill="#A5D6A7" height="2" style="stroke:#555555;stroke-width:0.5;" width="4" x="358.457" y="574.75"/><text fill="#222222" font-family="'Roboto'" font-size="14" lengthAdjust="spacing" textLength="115.3496" x="78.54" y="596.7451">validate_policy()</text><text fill="#222222" font-family="'Roboto'" font-size="14" lengthAdjust="spacing" textLength="129.4727" x="78.54" y="613.042">validator/policy.py</text><text fill="#222222" font-family="'Roboto'" font-size="14" lengthAdjust="spacing" textLength="276.917" x="78.54" y="629.3389">PL-15: forbidden ending kinds per band</text><text fill="#222222" font-family="'Roboto'" font-size="14" lengthAdjust="spacing" textLength="258.0771" x="78.54" y="645.6357">PL-16: content-flag ceilings per band</text><text fill="#222222" font-family="'Roboto'" font-size="14" lengthAdjust="spacing" textLength="269.5547" x="78.54" y="661.9326">PL-17: ending/decision floors per band</text><text fill="#222222" font-family="'Roboto'" font-size="14" lengthAdjust="spacing" textLength="205.2285" x="78.54" y="678.2295">PL-18: choice-graph topology</text><text fill="#222222" font-family="'Roboto'" font-size="14" lengthAdjust="spacing" textLength="233.4404" x="78.54" y="694.5264">PL-19: words-per-node (advisory)</text><text fill="#222222" font-family="'Roboto'" font-size="14" lengthAdjust="spacing" textLength="201.4004" x="78.54" y="710.8232">PL-20: fastest-finish arc floor</text><text fill="#222222" font-family="'Roboto'" font-size="14" lengthAdjust="spacing" textLength="211.7637" x="78.54" y="727.1201">PL-21: off-matrix cell rejection</text></g><!--entity band_profile--><g class="entity" data-qualified-name="Validator Gate.Policy Layer. age.scale invariants .ADR-011..band_profile" data-source-line="42" id="ent0008"><rect fill="#A5D6A7" height="127.7813" rx="4" ry="4" style="stroke:#555555;stroke-width:0.5;" width="329.8506" x="50.07" y="834.42"/><rect fill="#A5D6A7" height="10" style="stroke:#555555;stroke-width:0.5;" width="15" x="359.9206" y="839.42"/><rect fill="#A5D6A7" height="2" style="stroke:#555555;stroke-width:0.5;" width="4" x="357.9206" y="841.42"/><rect fill="#A5D6A7" height="2" style="stroke:#555555;stroke-width:0.5;" width="4" x="357.9206" y="845.42"/><text fill="#222222" font-family="'Roboto'" font-size="14" lengthAdjust="spacing" textLength="108.377" x="65.07" y="867.4151">band_profile.py</text><text fill="#222222" font-family="'Roboto'" font-size="14" lengthAdjust="spacing" textLength="182.6563" x="65.07" y="883.712">BandProfile per age band:</text><text fill="#222222" font-family="'Roboto'" font-size="14" lengthAdjust="spacing" textLength="168.2051" x="65.07" y="900.0089">3-5 | 5-8 | 8-11 | 10-13 |</text><text fill="#222222" font-family="'Roboto'" font-size="14" lengthAdjust="spacing" textLength="83.8428" x="65.07" y="916.3057">13-16 | 16+</text><text fill="#222222" font-family="'Roboto'" font-size="14" lengthAdjust="spacing" textLength="258.9248" x="65.07" y="932.6026">node/depth budget, content ceilings,</text><text fill="#222222" font-family="'Roboto'" font-size="14" lengthAdjust="spacing" textLength="289.8506" x="65.07" y="948.8995">forbidden endings, ending/decision floors</text></g><!--entity layer2--><g class="entity" data-qualified-name="Validator Gate.Layer 2. State-Space Walk .Tier-2 only..layer2" data-source-line="46" id="ent0010"><rect fill="#C8E6C9" height="111.4844" rx="4" ry="4" style="stroke:#555555;stroke-width:0.5;" width="289.915" x="1477.04" y="596.34"/><rect fill="#C8E6C9" height="10" style="stroke:#555555;stroke-width:0.5;" width="15" x="1746.955" y="601.34"/><rect fill="#C8E6C9" height="2" style="stroke:#555555;stroke-width:0.5;" width="4" x="1744.955" y="603.34"/><rect fill="#C8E6C9" height="2" style="stroke:#555555;stroke-width:0.5;" width="4" x="1744.955" y="607.34"/><text fill="#222222" font-family="'Roboto'" font-size="14" lengthAdjust="spacing" textLength="118.166" x="1492.04" y="629.3351">validate_layer2()</text><text fill="#222222" font-family="'Roboto'" font-size="14" lengthAdjust="spacing" textLength="132.2891" x="1492.04" y="645.632">validator/layer2.py</text><text fill="#222222" font-family="'Roboto'" font-size="14" lengthAdjust="spacing" textLength="249.915" x="1492.04" y="661.9289">L2-9: every path reaches an ending</text><text fill="#222222" font-family="'Roboto'" font-size="14" lengthAdjust="spacing" textLength="225.0938" x="1492.04" y="678.2257">L2-10..L2-12: reachability under</text><text fill="#222222" font-family="'Roboto'" font-size="14" lengthAdjust="spacing" textLength="205.1943" x="1492.04" y="694.5226">conditions (networkx + walk)</text></g><!--entity walk_comp--><g class="entity" data-qualified-name="Validator Gate.Layer 2. State-Space Walk .Tier-2 only..walk_comp" data-source-line="47" id="ent0011"><rect fill="#C8E6C9" height="95.1875" rx="4" ry="4" style="stroke:#555555;stroke-width:0.5;" width="235.4941" x="1494.25" y="850.72"/><rect fill="#C8E6C9" height="10" style="stroke:#555555;stroke-width:0.5;" width="15" x="1709.7441" y="855.72"/><rect fill="#C8E6C9" height="2" style="stroke:#555555;stroke-width:0.5;" width="4" x="1707.7441" y="857.72"/><rect fill="#C8E6C9" height="2" style="stroke:#555555;stroke-width:0.5;" width="4" x="1707.7441" y="861.72"/><text fill="#222222" font-family="'Roboto'" font-size="14" lengthAdjust="spacing" textLength="133.4854" x="1509.25" y="883.7151">state_space_walk()</text><text fill="#222222" font-family="'Roboto'" font-size="14" lengthAdjust="spacing" textLength="120.2852" x="1509.25" y="900.012">validator/walk.py</text><text fill="#222222" font-family="'Roboto'" font-size="14" lengthAdjust="spacing" textLength="195.4941" x="1509.25" y="916.3089">BFS/DFS over variable state</text><text fill="#222222" font-family="'Roboto'" font-size="14" lengthAdjust="spacing" textLength="94.2402" x="1509.25" y="932.6057">combinations</text></g><!--entity reading_level--><g class="entity" data-qualified-name="Validator Gate.Advisory Checks.reading_level" data-source-line="51" id="ent0013"><rect fill="#B2DFDB" height="95.1875" rx="4" ry="4" style="stroke:#555555;stroke-width:0.5;" width="315.6182" x="822.19" y="604.49"/><rect fill="#B2DFDB" height="10" style="stroke:#555555;stroke-width:0.5;" width="15" x="1117.8082" y="609.49"/><rect fill="#B2DFDB" height="2" style="stroke:#555555;stroke-width:0.5;" width="4" x="1115.8082" y="611.49"/><rect fill="#B2DFDB" height="2" style="stroke:#555555;stroke-width:0.5;" width="4" x="1115.8082" y="615.49"/><text fill="#222222" font-family="'Roboto'" font-size="14" lengthAdjust="spacing" textLength="152.6875" x="837.19" y="637.4851">check_reading_level()</text><text fill="#222222" font-family="'Roboto'" font-size="14" lengthAdjust="spacing" textLength="182.0342" x="837.19" y="653.782">validator/reading_level.py</text><text fill="#222222" font-family="'Roboto'" font-size="14" lengthAdjust="spacing" textLength="195.2002" x="837.19" y="670.0789">RL-13: Flesch-Kincaid grade</text><text fill="#222222" font-family="'Roboto'" font-size="14" lengthAdjust="spacing" textLength="275.6182" x="837.19" y="686.3757">(textstat, WARNING only, never blocks)</text></g><!--entity safety--><g class="entity" data-qualified-name="Validator Gate.Advisory Checks.safety" data-source-line="53" id="ent0014"><rect fill="#B2DFDB" height="95.1875" rx="4" ry="4" style="stroke:#555555;stroke-width:0.5;" width="247.416" x="1173.29" y="604.49"/><rect fill="#B2DFDB" height="10" style="stroke:#555555;stroke-width:0.5;" width="15" x="1400.706" y="609.49"/><rect fill="#B2DFDB" height="2" style="stroke:#555555;stroke-width:0.5;" width="4" x="1398.706" y="611.49"/><rect fill="#B2DFDB" height="2" style="stroke:#555555;stroke-width:0.5;" width="4" x="1398.706" y="615.49"/><text fill="#222222" font-family="'Roboto'" font-size="14" lengthAdjust="spacing" textLength="102.1016" x="1188.29" y="637.4851">check_safety()</text><text fill="#222222" font-family="'Roboto'" font-size="14" lengthAdjust="spacing" textLength="131.4482" x="1188.29" y="653.782">validator/safety.py</text><text fill="#222222" font-family="'Roboto'" font-size="14" lengthAdjust="spacing" textLength="168.6357" x="1188.29" y="670.0789">SAFE-14: content safety</text><text fill="#222222" font-family="'Roboto'" font-size="14" lengthAdjust="spacing" textLength="207.416" x="1188.29" y="686.3757">(Phase 2 stub, always empty)</text></g><!--entity orch_caller--><g class="entity" data-qualified-name="Caller.orch_caller" data-source-line="61" id="ent0017"><rect fill="#FFF3E0" height="62.5938" rx="4" ry="4" style="stroke:#555555;stroke-width:0.5;" width="228.9111" x="1110.54" y="49.15"/><rect fill="#FFF3E0" height="10" style="stroke:#555555;stroke-width:0.5;" width="15" x="1319.4511" y="54.15"/><rect fill="#FFF3E0" height="2" style="stroke:#555555;stroke-width:0.5;" width="4" x="1317.4511" y="56.15"/><rect fill="#FFF3E0" height="2" style="stroke:#555555;stroke-width:0.5;" width="4" x="1317.4511" y="60.15"/><text fill="#222222" font-family="'Roboto'" font-size="14" lengthAdjust="spacing" textLength="171.4385" x="1125.54" y="82.1451">Generation Orchestrator</text><text fill="#222222" font-family="'Roboto'" font-size="14" lengthAdjust="spacing" textLength="188.9111" x="1125.54" y="98.442">generation/orchestrator.py</text></g><!--entity api_caller--><g class="entity" data-qualified-name="Caller.api_caller" data-source-line="62" id="ent0018"><rect fill="#E8F5E9" height="78.8906" rx="4" ry="4" style="stroke:#555555;stroke-width:0.5;" width="353.2158" x="1374.39" y="41"/><rect fill="#E8F5E9" height="10" style="stroke:#555555;stroke-width:0.5;" width="15" x="1707.6058" y="46"/><rect fill="#E8F5E9" height="2" style="stroke:#555555;stroke-width:0.5;" width="4" x="1705.6058" y="48"/><rect fill="#E8F5E9" height="2" style="stroke:#555555;stroke-width:0.5;" width="4" x="1705.6058" y="52"/><text fill="#222222" font-family="'Roboto'" font-size="14" lengthAdjust="spacing" textLength="124.2637" x="1389.39" y="73.9951">Validate Endpoint</text><text fill="#222222" font-family="'Roboto'" font-size="14" lengthAdjust="spacing" textLength="123.833" x="1389.39" y="90.292">api/generation.py</text><text fill="#222222" font-family="'Roboto'" font-size="14" lengthAdjust="spacing" textLength="313.2158" x="1389.39" y="106.5889">POST /storybooks/{id}/versions/{v}/validate</text></g><!--entity storybook_model--><g class="entity" data-qualified-name="storybook_model" data-source-line="65" id="ent0019"><rect fill="#E3F2FD" height="78.8906" rx="4" ry="4" style="stroke:#555555;stroke-width:0.5;" width="290.7012" x="1826.65" y="612.64"/><rect fill="#E3F2FD" height="10" style="stroke:#555555;stroke-width:0.5;" width="15" x="2097.3512" y="617.64"/><rect fill="#E3F2FD" height="2" style="stroke:#555555;stroke-width:0.5;" width="4" x="2095.3512" y="619.64"/><rect fill="#E3F2FD" height="2" style="stroke:#555555;stroke-width:0.5;" width="4" x="2095.3512" y="623.64"/><text fill="#222222" font-family="'Roboto'" font-size="14" lengthAdjust="spacing" textLength="117.5918" x="1841.65" y="645.6351">Storybook Model</text><text fill="#222222" font-family="'Roboto'" font-size="14" lengthAdjust="spacing" textLength="146.7402" x="1841.65" y="661.932">storybook/models.py</text><text fill="#222222" font-family="'Roboto'" font-size="14" lengthAdjust="spacing" textLength="250.7012" x="1841.65" y="678.2289">(Pydantic v2, parsed after L1 clean)</text></g><g class="entity" data-qualified-name="GMN38" data-source-line="90" id="ent0039"><path d="M1826.87,217.89 L1826.87,320.82 L1421.11,324.82 L1826.87,328.82 L1826.87,431.7494 A4,4 0 0 0 1830.87,435.7494 L2183.1332,435.7494 A4,4 0 0 0 2187.1332,431.7494 L2187.1332,223.89 L2177.1332,213.89 L1830.87,213.89 A4,4 0 0 0 1826.87,217.89" fill="#FEFFDD" style="stroke:#181818;stroke-width:0.5;"/><path d="M2177.1332,213.89 L2177.1332,221.89 A2,2 0 0 0 2179.1332,223.89 L2187.1332,223.89 L2177.1332,213.89" fill="#FEFFDD" style="stroke:#181818;stroke-width:0.5;"/><text fill="#000000" font-family="'Roboto'" font-size="13" lengthAdjust="spacing" textLength="339.2632" x="1832.87" y="230.9569">Rule application order (gate.py, validator-rules.md):</text><text fill="#000000" font-family="'Roboto'" font-size="13" lengthAdjust="spacing" textLength="270.8926" x="1832.87" y="246.0897">1. L1 (always): graph structure + schema</text><text fill="#000000" font-family="'Roboto'" font-size="13" lengthAdjust="spacing" textLength="211.4404" x="1832.87" y="261.2225">2. Early return on any L1 ERROR</text><text fill="#000000" font-family="'Roboto'" font-size="13" lengthAdjust="spacing" textLength="288.8438" x="1832.87" y="276.3553">3. Policy (PL-15..PL-21): age/scale invariants</text><text fill="#000000" font-family="'Roboto'" font-size="13" lengthAdjust="spacing" textLength="275.8501" x="1845.267" y="291.4881">on the parsed Storybook (ADR-011 band x</text><text fill="#000000" font-family="'Roboto'" font-size="13" lengthAdjust="spacing" textLength="93.6406" x="1845.267" y="306.621">length x style)</text><text fill="#000000" font-family="'Roboto'" font-size="13" lengthAdjust="spacing" textLength="233.9556" x="1832.87" y="321.7538">4. L2 (Tier-2 only): state-space walk</text><text fill="#000000" font-family="'Roboto'" font-size="13" lengthAdjust="spacing" textLength="285.6572" x="1832.87" y="336.8866">5. RL-13: advisory reading-level (WARNING)</text><text fill="#000000" font-family="'Roboto'" font-size="13" lengthAdjust="spacing" textLength="287.4282" x="1832.87" y="352.0194">6. SAFE-14: safety stub (always empty now)</text><text fill="#000000" font-family="'Roboto'" font-size="13" lengthAdjust="spacing" textLength="4.1323" x="1832.87" y="367.1522">&#160;</text><text fill="#000000" font-family="'Roboto'" font-size="13" lengthAdjust="spacing" textLength="277.3926" x="1832.87" y="382.285">blocked = any ERROR with rule_id starting</text><text fill="#000000" font-family="'Roboto'" font-size="13" lengthAdjust="spacing" textLength="147.6592" x="1841.1346" y="397.4178">with "L1", "L2", or "PL"</text><text fill="#000000" font-family="'Roboto'" font-size="13" lengthAdjust="spacing" textLength="219.1973" x="1832.87" y="412.5506">safety_flagged = any finding with</text><text fill="#000000" font-family="'Roboto'" font-size="13" lengthAdjust="spacing" textLength="139.6357" x="1841.1346" y="427.6835">rule_id == "SAFE-14"</text></g><!--link orch_caller to gate--><g class="link" data-entity-1="ent0017" data-entity-2="ent0003" data-link-type="dependency" data-source-line="68" id="lnk20"><path d="M1110.62,112.23 C1073.5,128.58 1045.97,152.03 1064,183.89 C1090.2,230.19 1133.1124,260.2505 1178.9824,282.3005" fill="none" id="orch_caller-to-gate" style="stroke:#181818;stroke-width:1;"/><polygon fill="#181818" points="1184.39,284.9,1178.0115,277.3957,1179.8836,282.7338,1174.5455,284.6059,1184.39,284.9" style="stroke:#181818;stroke-width:1;"/><text fill="#000000" font-family="'Roboto'" font-size="13" lengthAdjust="spacing" textLength="188.0493" x="1065" y="172.4569">run_gate(decoded JSON dict)</text></g><!--link gate to orch_caller--><g class="link" data-entity-1="ent0003" data-entity-2="ent0017" data-link-type="dependency" data-source-line="87" id="lnk37"><path d="M1290.65,284.92 C1284.3,249.63 1273.3,196.47 1258,151.89 C1253.4,138.47 1249.6481,129.6038 1243.7281,117.4538" fill="none" id="gate-to-orch_caller" style="stroke:#181818;stroke-width:1;"/><polygon fill="#181818" points="1241.1,112.06,1241.4463,121.9028,1243.2901,116.5548,1248.638,118.3986,1241.1,112.06" style="stroke:#181818;stroke-width:1;"/><text fill="#000000" font-family="'Roboto'" font-size="13" lengthAdjust="spacing" textLength="71.8872" x="1338.1561" y="164.9569">GateResult</text><text fill="#000000" font-family="'Roboto'" font-size="13" lengthAdjust="spacing" textLength="212.9194" x="1267.64" y="180.0897">(report, blocked, safety_flagged)</text></g><!--link api_caller to gate--><g class="link" data-entity-1="ent0018" data-entity-2="ent0003" data-link-type="dependency" data-source-line="69" id="lnk21"><path d="M1532.45,119.92 C1521.52,140.27 1506.43,164.9 1489,183.89 C1452.32,223.85 1407.7111,256.4318 1368.0911,281.8318" fill="none" id="api_caller-to-gate" style="stroke:#181818;stroke-width:1;"/><polygon fill="#181818" points="1363.04,285.07,1372.7755,283.5801,1367.2493,282.3715,1368.4579,276.8452,1363.04,285.07" style="stroke:#181818;stroke-width:1;"/><text fill="#000000" font-family="'Roboto'" font-size="13" lengthAdjust="spacing" textLength="114.4482" x="1513.97" y="172.4569">run_gate(sv.blob)</text></g><!--link gate to layer1--><g class="link" data-entity-1="ent0003" data-entity-2="ent0005" data-link-type="dependency" data-source-line="71" id="lnk22"><path d="M1181.71,364.63 C1080.47,400.33 930.36,457.24 806,520.75 C781.12,533.45 760.4913,545.1676 736.0113,560.2176" fill="none" id="gate-to-layer1" style="stroke:#181818;stroke-width:1;"/><polygon fill="#181818" points="730.9,563.36,740.6619,562.054,735.1594,560.7414,736.4721,555.2389,730.9,563.36" style="stroke:#181818;stroke-width:1;"/><text fill="#000000" font-family="'Roboto'" font-size="13" lengthAdjust="spacing" textLength="85.3125" x="927.3791" y="486.3169">raw mapping</text><text fill="#000000" font-family="'Roboto'" font-size="13" lengthAdjust="spacing" textLength="117.0508" x="911.51" y="501.4497">[always runs first]</text></g><!--link gate to layer1--><g class="link" data-entity-1="ent0003" data-entity-2="ent0005" data-link-type="dependency" data-source-line="73" id="lnk24"><path d="M1172.84,331.05 C1050.04,341.7 861.61,373.24 728,465.75 C692.56,490.28 667.1336,523.017 646.1736,558.157" fill="none" id="gate-to-layer1-1" style="stroke:#181818;stroke-width:1;stroke-dasharray:7,7;"/><polygon fill="#181818" points="643.1,563.31,651.1457,557.6296,645.6613,559.0159,644.2751,553.5315,643.1,563.31" style="stroke:#181818;stroke-width:1;"/><text fill="#000000" font-family="'Roboto'" font-size="13" lengthAdjust="spacing" textLength="73.4678" x="738.877" y="486.3169">early exit if</text><text fill="#000000" font-family="'Roboto'" font-size="13" lengthAdjust="spacing" textLength="93.2217" x="729" y="501.4497">any L1 ERROR</text></g><!--link layer1 to report--><g class="link" data-entity-1="ent0005" data-entity-2="ent0015" data-link-type="dependency" data-source-line="72" id="lnk23"><path d="M737.29,740.91 C789.71,774.69 842.9964,809.0201 889.3364,838.8801" fill="none" id="layer1-to-report" style="stroke:#181818;stroke-width:1;"/><polygon fill="#181818" points="894.38,842.13,888.9812,833.8927,890.177,839.4217,884.648,840.6175,894.38,842.13" style="stroke:#181818;stroke-width:1;"/><text fill="#000000" font-family="'Roboto'" font-size="13" lengthAdjust="spacing" textLength="71.2017" x="836.59" y="792.9869">L1 findings</text></g><!--link gate to storybook_model--><g class="link" data-entity-1="ent0003" data-entity-2="ent0019" data-link-type="dependency" data-source-line="74" id="lnk25"><path d="M1414.67,364.71 C1515.18,399.86 1662.25,455.94 1783,520.75 C1832.69,547.42 1880.4003,580.8196 1917.4203,608.5896" fill="none" id="gate-to-storybook_model" style="stroke:#181818;stroke-width:1;"/><polygon fill="#181818" points="1922.22,612.19,1917.4207,603.5896,1918.2203,609.1897,1912.6202,609.9892,1922.22,612.19" style="stroke:#181818;stroke-width:1;"/><text fill="#000000" font-family="'Roboto'" font-size="13" lengthAdjust="spacing" textLength="109.3193" x="1759.05" y="486.3169">model_validate()</text><text fill="#000000" font-family="'Roboto'" font-size="13" lengthAdjust="spacing" textLength="99.8677" x="1763.7758" y="501.4497">[after L1 clean]</text></g><!--link storybook_model to gate--><g class="link" data-entity-1="ent0019" data-entity-2="ent0003" data-link-type="dependency" data-source-line="75" id="lnk26"><path d="M1962.52,612.24 C1950.1,569.78 1924.16,502.87 1877,465.75 C1841.19,437.55 1586.3628,383.1699 1426.9128,351.1899" fill="none" id="storybook_model-to-gate" style="stroke:#181818;stroke-width:1;"/><polygon fill="#181818" points="1421.03,350.01,1429.0677,355.7017,1425.9324,350.9932,1430.6409,347.8579,1421.03,350.01" style="stroke:#181818;stroke-width:1;"/><text fill="#000000" font-family="'Roboto'" font-size="13" lengthAdjust="spacing" textLength="66.0283" x="1918.97" y="493.8169">Storybook</text></g><!--link gate to policy--><g class="link" data-entity-1="ent0003" data-entity-2="ent0007" data-link-type="dependency" data-source-line="76" id="lnk27"><path d="M1172.9,334.15 C996.91,350.11 668.62,395.45 420,520.75 C395.28,533.2 374.9586,544.8991 350.9486,560.1091" fill="none" id="gate-to-policy" style="stroke:#181818;stroke-width:1;"/><polygon fill="#181818" points="345.88,563.32,355.6234,561.8827,350.1038,560.6443,351.3423,555.1247,345.88,563.32" style="stroke:#181818;stroke-width:1;"/><text fill="#000000" font-family="'Roboto'" font-size="13" lengthAdjust="spacing" textLength="66.0283" x="549.1197" y="486.3169">Storybook</text><text fill="#000000" font-family="'Roboto'" font-size="13" lengthAdjust="spacing" textLength="99.8677" x="532.2" y="501.4497">[after L1 clean]</text></g><!--link policy to band_profile--><g class="link" data-entity-1="ent0007" data-entity-2="ent0008" data-link-type="dependency" data-source-line="77" id="lnk28"><path d="M106.54,740.6 C98.8,750.52 92.08,761.15 87,772.42 C76.67,795.35 81.5366,811.9399 98.6966,829.8299" fill="none" id="policy-to-band_profile" style="stroke:#181818;stroke-width:1;"/><polygon fill="#181818" points="102.85,834.16,99.5066,824.896,99.3889,830.5516,93.7332,830.4338,102.85,834.16" style="stroke:#181818;stroke-width:1;"/><text fill="#000000" font-family="'Roboto'" font-size="13" lengthAdjust="spacing" textLength="139.293" x="88" y="792.9869">profile_for(age_band)</text></g><!--link policy to report--><g class="link" data-entity-1="ent0007" data-entity-2="ent0015" data-link-type="dependency" data-source-line="78" id="lnk29"><path d="M367.63,740.91 C384.95,749.56 402.64,757.63 420,764.42 C557.39,818.12 716.6356,853.0131 831.8556,873.8331" fill="none" id="policy-to-report" style="stroke:#181818;stroke-width:1;"/><polygon fill="#181818" points="837.76,874.9,829.6147,869.3634,832.8397,874.0109,828.1922,877.2359,837.76,874.9" style="stroke:#181818;stroke-width:1;"/><text fill="#000000" font-family="'Roboto'" font-size="13" lengthAdjust="spacing" textLength="70.77" x="524.86" y="792.9869">PL findings</text></g><!--link gate to layer2--><g class="link" data-entity-1="ent0003" data-entity-2="ent0010" data-link-type="dependency" data-source-line="79" id="lnk30"><path d="M1335.88,364.73 C1393.42,422.31 1497.249,526.2257 1562.849,591.8757" fill="none" id="gate-to-layer2" style="stroke:#181818;stroke-width:1;"/><polygon fill="#181818" points="1567.09,596.12,1563.558,586.9263,1563.5558,592.5831,1557.899,592.581,1567.09,596.12" style="stroke:#181818;stroke-width:1;"/><text fill="#000000" font-family="'Roboto'" font-size="13" lengthAdjust="spacing" textLength="66.0283" x="1513.0122" y="478.8169">Storybook</text><text fill="#000000" font-family="'Roboto'" font-size="13" lengthAdjust="spacing" textLength="78.9395" x="1506.5567" y="493.9497">[Tier-2 only;</text><text fill="#000000" font-family="'Roboto'" font-size="13" lengthAdjust="spacing" textLength="132.1328" x="1479.96" y="509.0825">Tier-1 short-circuits]</text></g><!--link layer2 to walk_comp--><g class="link" data-entity-1="ent0010" data-entity-2="ent0011" data-link-type="dependency" data-source-line="80" id="lnk31"><path d="M1619.74,708.2 C1617.99,751.11 1615.8151,804.005 1614.1551,844.615" fill="none" id="layer2-to-walk_comp" style="stroke:#181818;stroke-width:1;"/><polygon fill="#181818" points="1613.91,850.61,1618.2742,841.7809,1614.1142,845.6142,1610.2809,841.4541,1613.91,850.61" style="stroke:#181818;stroke-width:1;"/><text fill="#000000" font-family="'Roboto'" font-size="13" lengthAdjust="spacing" textLength="153.6133" x="1618" y="792.9869">state-space exploration</text></g><!--link layer2 to report--><g class="link" data-entity-1="ent0010" data-entity-2="ent0015" data-link-type="dependency" data-source-line="81" id="lnk32"><path d="M1540.08,708.3 C1508.75,727.82 1472.1,748.78 1437,764.42 C1335.39,809.68 1220.099,842.6679 1128.079,865.1179" fill="none" id="layer2-to-report" style="stroke:#181818;stroke-width:1;"/><polygon fill="#181818" points="1122.25,866.54,1131.9416,868.2929,1127.1075,865.3549,1130.0455,860.5208,1122.25,866.54" style="stroke:#181818;stroke-width:1;"/><text fill="#000000" font-family="'Roboto'" font-size="13" lengthAdjust="spacing" textLength="71.2017" x="1414.5" y="792.9869">L2 findings</text></g><!--link gate to reading_level--><g class="link" data-entity-1="ent0003" data-entity-2="ent0013" data-link-type="dependency" data-source-line="82" id="lnk33"><path d="M1259.08,364.73 C1200.57,424.76 1092.6877,535.4531 1029.8277,599.9531" fill="none" id="gate-to-reading_level" style="stroke:#181818;stroke-width:1;"/><polygon fill="#181818" points="1025.64,604.25,1034.7861,600.5964,1029.1297,600.6692,1029.0569,595.0129,1025.64,604.25" style="stroke:#181818;stroke-width:1;"/><text fill="#000000" font-family="'Roboto'" font-size="13" lengthAdjust="spacing" textLength="66.0283" x="1158.48" y="493.8169">Storybook</text></g><!--link reading_level to report--><g class="link" data-entity-1="ent0013" data-entity-2="ent0015" data-link-type="dependency" data-source-line="83" id="lnk34"><path d="M980,700.17 C980,740.79 980,793.48 980,836.25" fill="none" id="reading_level-to-report" style="stroke:#181818;stroke-width:1;"/><polygon fill="#181818" points="980,842.25,984,833.25,980,837.25,976,833.25,980,842.25" style="stroke:#181818;stroke-width:1;"/><text fill="#000000" font-family="'Roboto'" font-size="13" lengthAdjust="spacing" textLength="105.7773" x="981" y="785.4869">RL-13 WARNING</text><text fill="#000000" font-family="'Roboto'" font-size="13" lengthAdjust="spacing" textLength="92.8154" x="987.481" y="800.6197">(never blocks)</text></g><!--link gate to safety--><g class="link" data-entity-1="ent0003" data-entity-2="ent0014" data-link-type="dependency" data-source-line="84" id="lnk35"><path d="M1297,364.73 C1297,424.76 1297,533.75 1297,598.25" fill="none" id="gate-to-safety" style="stroke:#181818;stroke-width:1;"/><polygon fill="#181818" points="1297,604.25,1301,595.25,1297,599.25,1293,595.25,1297,604.25" style="stroke:#181818;stroke-width:1;"/><text fill="#000000" font-family="'Roboto'" font-size="13" lengthAdjust="spacing" textLength="66.0283" x="1298" y="493.8169">Storybook</text></g><!--link safety to report--><g class="link" data-entity-1="ent0014" data-entity-2="ent0015" data-link-type="dependency" data-source-line="85" id="lnk36"><path d="M1237.4,700.15 C1212.06,720.06 1182.16,743.46 1155,764.42 C1121.63,790.17 1089.2434,814.8279 1057.7734,838.6579" fill="none" id="safety-to-report" style="stroke:#181818;stroke-width:1;"/><polygon fill="#181818" points="1052.99,842.28,1062.5798,840.0358,1056.9761,839.2616,1057.7503,833.658,1052.99,842.28" style="stroke:#181818;stroke-width:1;"/><text fill="#000000" font-family="'Roboto'" font-size="13" lengthAdjust="spacing" textLength="54.0693" x="1192.6935" y="785.4869">SAFE-14</text><text fill="#000000" font-family="'Roboto'" font-size="13" lengthAdjust="spacing" textLength="155.6763" x="1141.89" y="800.6197">(stub empty in Phase 2)</text></g><?plantuml-src fLXjRziu4lxkNp5mFwoDMdQaD6cgGmz8axZOkrmJs8jR7DO7WvPeMnkP4aWvYR7R_txFa9GjkTbBxrP1_4BEF9pt6Ve7-lWddiuFT5Lioa99LT5r9bPQR6BwfyYpL5I5fi-YaapphpkwJ1z1jDNuZfLfiTM9f6MMInFZEv7HoIZP5NDHquqUQvZH2Z33SaVxfwUtQiwh0tl4H9fjNlLVnSd5JkgmWTIx3ODmECJhUuBivPhq5XAzZbGMUPRicaZtjq5uDXpYBGf9hEJ892ANv0XV1rm8bSvBNR15B6pl4rRktGALKZCcCTN0OlsFZycUBRE9wJGu6z1PS36WYo0C_o-qy2G8JmSKdWRXETxEttwdwQEMwQFW0qmV1M54fe8N0rEAHBuEfQL8CxMQv_9HvepOcznQUK2ScK9_XxMDMCggvRxfvVWc2DyDw7ujZ2GMQRju7UX9v0_jo6oeGhpxFVgKXQwQmlW4oWeriNi36cUATHxG54hhhF8wfaLYHcKkbCBc0JAmKJpSf2yGYLJpVt0IXe41xIwmWHeiaRhogT0FOACUnmezKoxLgbhZWwbskNNDdweM7VEGgLBW94hbKY1dnuMglk1WwawAHL4LtGR9GYGFArriLNfLv2WcRyQN_DUWy9jQ8Jqk6kj9NPEcB3PjDtdKUMcRVkiGVIfqAhK_uim-M6N1_5fadyxNJWTEVU0qxBOhN9VUt5oCpsu-00-i1_WkxzADglHkfhufPpDLLx4UraMVWhysgbcNX27Uf3UNPzVdb-yPUY_0BQSJXJ5zjbLhMkbjmc45KQwlRgwlBgngBLdy-NBkgc2ltnHfNnbdYajYJ2PPouq0lreMUYCKehdtgocKM-zRiYZcnDNLN1Mf9FcScShOZTEOH9uJBnj2kYPhiSYbtNg7hGfn9Kn548oaZMkxTHQ3WrAXLZcM2CWhwG7FOteKEcCKsXgs00GpE0-QMOBtCIAgHAWkjYcu00kn4vbQAphbQil0BbzRjhot9PgiIUD6wSwKFLDLXdgNrnFEc7wtziP_iQyh-Mtxxll5JDb64HFaMsHfAfKt0I4yKsChFIUVeuFUK9Ir39QvM54YCxRDCHcqTo2ZL2QPGTsWPLuK-fZk0d3h8ajau9fTLK2kOkM5-X0JyZyr0PW2wzBUlg9QYkW4OiDnqa2SJ6LcJK8dxYX7WC0fbijW8ogDXfD8186Mlyg4IvbrXRD3CwHRDZpgWZFrHqqmdYdqCVgT6nbUkPFXpVOb-dscR6VYXVEtCyMgZ9hHCQYDkhVdOAQE_M46Vs1JgqTJqBqsnu7baXHPChKzOMfxmi_e2TJxAOED8sH0lkEOkhguER_wy5hEHY_aREHo5hqKCO3MiCFnKDGc7P9Fg4E6eTEU-8ORrra9zQiTeOfAU11MIJDs5G9UoOgRmJEzTLtia4XHBUwniBRppMtdcpDFMrhVAU7IyNHqFPvI0MaFMMsPMOJD8bEszJb3CzkS3scSshRofOzHkbhBv05SRpv5r-FhJzzQCs62UMjyQCjuF5dCb9qiOXgZdIRhuE-PIaIMygYOGjXU9Pyh5dn0FrzEllpuvRDrw80KUu8MUG5vdELQoBM4dPS5TCD9MxBzm39JVbBPLmPoUn2dERfW6igVnCwGt9JLpWdX2FUdUqCspZ-UEzgsyLFAJ1t8_5ZIutbZdgK3Cduy6RYqiskkvDYF6scuUaErUew9wMOokPiWLxq9lRduiBgjTbgzzmgjHMguUNpAVzRDpPOhCGrOuUXESmvKckMVgTL-OrGqDg2HFPBNved51lHuV7fpyg9nk9-dPP5nun5bDZh0kkf-D_s9HdQmMXJ5WndzbgLVHz2LAmY-FNwjnpHfZmN4_bIlBPHj73kjeUWVC6W-KtliqOONZ3ssTxz3uwooX1wZ0N936vcIM5Q0lGqfGRzLFWPgxhdbng6dusXytS5e5mG1JMJkac-TbOPNEasx19XGx4WIK_SmkyW4I2dzRNhtXT8igVhTJaEh5tdCun3PiG1bn-unaU_IJ2QUQ2FAqfQjNtmSWzVWlgXDzUzknzCocmyLi47HfOj7qtMmms4JLWgTxtXCgIXRmdbgnxQnuTSzY75i833Q3_FQRPoOlxHD2ucEsPfgxrtOECOtmkRkIx2UZ3bQBGTy_kCSZQk7n9ZpVh_5SJ3D_UsnQVOMZuvbQBIclyoK_HQIMGCfI3ATRBFAr1w8BCoXHCU-2VZhZtmkCK3RU6enD5mMlIHNkrYs3TZUQwFPObtN4UH4kmmtNEpgO1lOBxOHVQq55jTKLqin5zQNn5RyDXCbTgE_c-J1hVqrpieYkKxQq-OyrAqakwsZ2k3eRBN6NBoqeOFoCq5THOaeuL9NqknTXNh-1Z6WRwzy_HXyuP23gETIfn_xtpPCVKj0KtTpF4YZ8TtOnD0IMpX1KJCpG74w93yYjtxawByyAzkUnYZLMjQ5w533wa6Qt0NJ4H_VCedUGVweFIN5T7op1jtPa7o7hYVLEdW25o0z7mqCUZwaVU_qthPUxJKx9QuWJtrkYzvLzD6QmpMffwnoln2XcRch3qwoEjWTLA3kW8CQhxWQ8kkws6oxskFvgBTy5g16_VXn7tNT3aOtuhZe_0S0?></g></svg>
