<svg xmlns="http://www.w3.org/2000/svg" xmlns:xlink="http://www.w3.org/1999/xlink" contentStyleType="text/css" height="1586px" preserveAspectRatio="none" style="width:1483px;height:1586px;background:#FAFAFA;" version="1.1" viewBox="0 0 1483 1586" width="1483px" zoomAndPan="magnify"><defs><style type="text/css">@import url('https://fonts.googleapis.com/css?family=Roboto:400,100,100italic,300,300italic,400italic,500,500italic,700,700italic,900,900italic');</style></defs><g><rect fill="#FAFAFA" height="1586" style="stroke:none;stroke-width:1.0;" width="1483" x="0" y="0"/><!--cluster FastAPI Application\nsrc/cyo_adventure/app.py--><g id="cluster_FastAPI Application\nsrc/cyo_adventure/app.py"><path d="M10,6 L172.0146,6 A6,6 0 0 1 176.0146,10 L183.0146,44.8125 L1199,44.8125 A4,4 0 0 1 1203,48.8125 L1203,1228 A4,4 0 0 1 1199,1232 L10,1232 A4,4 0 0 1 6,1228 L6,10 A4,4 0 0 1 10,6 " fill="#E8F5E9" style="stroke:#000000;stroke-width:1.5;"/><line style="stroke:#000000;stroke-width:1.5;" x1="6" x2="183.0146" y1="44.8125" y2="44.8125"/><text fill="#000000" font-family="Roboto" font-size="14" font-weight="bold" lengthAdjust="spacing" textLength="124.7832" x="29.6157" y="20.9883">FastAPI Application</text><text fill="#000000" font-family="Roboto" font-size="14" font-weight="bold" lengthAdjust="spacing" textLength="164.0146" x="10" y="37.3945">src/cyo_adventure/app.py</text></g><!--cluster Middleware Stack (applied first)--><g id="cluster_Middleware Stack (applied first)"><path d="M144,65 L343.3936,65 A6,6 0 0 1 347.3936,69 L354.3936,87.4063 L372,87.4063 A4,4 0 0 1 376,91.4063 L376,381 A4,4 0 0 1 372,385 L144,385 A4,4 0 0 1 140,381 L140,69 A4,4 0 0 1 144,65 " fill="#CCEECC" style="stroke:#000000;stroke-width:1.5;"/><line style="stroke:#000000;stroke-width:1.5;" x1="140" x2="354.3936" y1="87.4063" y2="87.4063"/><text fill="#000000" font-family="Roboto" font-size="14" font-weight="bold" lengthAdjust="spacing" textLength="201.3936" x="144" y="79.9883">Middleware Stack (applied first)</text></g><!--cluster Dependencies\napi/deps.py--><g id="cluster_Dependencies\napi/deps.py"><path d="M44,434 L131.0586,434 A6,6 0 0 1 135.0586,438 L142.0586,472.8125 L473,472.8125 A4,4 0 0 1 477,476.8125 L477,952.5 A4,4 0 0 1 473,956.5 L44,956.5 A4,4 0 0 1 40,952.5 L40,438 A4,4 0 0 1 44,434 " fill="#DCEDC8" style="stroke:#000000;stroke-width:1.5;"/><line style="stroke:#000000;stroke-width:1.5;" x1="40" x2="142.0586" y1="472.8125" y2="472.8125"/><text fill="#000000" font-family="Roboto" font-size="14" font-weight="bold" lengthAdjust="spacing" textLength="89.0586" x="44" y="448.9883">Dependencies</text><text fill="#000000" font-family="Roboto" font-size="14" font-weight="bold" lengthAdjust="spacing" textLength="73.876" x="51.5913" y="465.3945">api/deps.py</text></g><!--cluster API Routers (all under /api/v1)--><g id="cluster_API Routers (all under /api/v1)"><path d="M34,1045 L223.5293,1045 A6,6 0 0 1 227.5293,1049 L234.5293,1067.4063 L1175,1067.4063 A4,4 0 0 1 1179,1071.4063 L1179,1204 A4,4 0 0 1 1175,1208 L34,1208 A4,4 0 0 1 30,1204 L30,1049 A4,4 0 0 1 34,1045 " fill="#B2DFDB" style="stroke:#000000;stroke-width:1.5;"/><line style="stroke:#000000;stroke-width:1.5;" x1="30" x2="234.5293" y1="1067.4063" y2="1067.4063"/><text fill="#000000" font-family="Roboto" font-size="14" font-weight="bold" lengthAdjust="spacing" textLength="191.5293" x="34" y="1059.9883">API Routers (all under /api/v1)</text></g><!--cluster Core--><g id="cluster_Core"><path d="M505,785 L532.7637,785 A6,6 0 0 1 536.7637,789 L543.7637,807.4063 L1175,807.4063 A4,4 0 0 1 1179,811.4063 L1179,977 A4,4 0 0 1 1175,981 L505,981 A4,4 0 0 1 501,977 L501,789 A4,4 0 0 1 505,785 " fill="#A5D6A7" style="stroke:#000000;stroke-width:1.5;"/><line style="stroke:#000000;stroke-width:1.5;" x1="501" x2="543.7637" y1="807.4063" y2="807.4063"/><text fill="#000000" font-family="Roboto" font-size="14" font-weight="bold" lengthAdjust="spacing" textLength="29.7637" x="505" y="799.9883">Core</text></g><!--cluster ORM Models\nsrc/cyo_adventure/db/models.py--><g id="cluster_ORM Models\nsrc/cyo_adventure/db/models.py"><path d="M328,1265 L534.1748,1265 A6,6 0 0 1 538.1748,1269 L545.1748,1303.8125 L671,1303.8125 A4,4 0 0 1 675,1307.8125 L675,1440 A4,4 0 0 1 671,1444 L328,1444 A4,4 0 0 1 324,1440 L324,1269 A4,4 0 0 1 328,1265 " fill="#FFF8E1" style="stroke:#000000;stroke-width:1.5;"/><line style="stroke:#000000;stroke-width:1.5;" x1="324" x2="545.1748" y1="1303.8125" y2="1303.8125"/><text fill="#000000" font-family="Roboto" font-size="14" font-weight="bold" lengthAdjust="spacing" textLength="80.9102" x="391.6323" y="1279.9883">ORM Models</text><text fill="#000000" font-family="Roboto" font-size="14" font-weight="bold" lengthAdjust="spacing" textLength="208.1748" x="328" y="1296.3945">src/cyo_adventure/db/models.py</text></g><!--entity corr_mw--><g id="elem_corr_mw"><rect fill="#CCEECC" height="95.625" rx="4" ry="4" style="stroke:#555555;stroke-width:0.5;" width="203.502" x="156" y="100"/><rect fill="#CCEECC" height="10" style="stroke:#555555;stroke-width:0.5;" width="15" x="339.502" y="105"/><rect fill="#CCEECC" height="2" style="stroke:#555555;stroke-width:0.5;" width="4" x="337.502" y="107"/><rect fill="#CCEECC" height="2" style="stroke:#555555;stroke-width:0.5;" width="4" x="337.502" y="111"/><text fill="#222222" font-family="Roboto" font-size="14" lengthAdjust="spacing" textLength="141.2783" x="171" y="132.9883">CorrelationMiddleware</text><text fill="#222222" font-family="Roboto" font-size="14" lengthAdjust="spacing" textLength="163.502" x="171" y="149.3945">middleware/correlation.py</text><text fill="#222222" font-family="Roboto" font-size="14" lengthAdjust="spacing" textLength="160.2686" x="171" y="165.8008">Attaches X-Correlation-ID;</text><text fill="#222222" font-family="Roboto" font-size="14" lengthAdjust="spacing" textLength="154.9297" x="171" y="182.207">must be first middleware</text></g><!--entity sec_mw--><g id="elem_sec_mw"><rect fill="#CCEECC" height="95.625" rx="4" ry="4" style="stroke:#555555;stroke-width:0.5;" width="185.79" x="165" y="273"/><rect fill="#CCEECC" height="10" style="stroke:#555555;stroke-width:0.5;" width="15" x="330.79" y="278"/><rect fill="#CCEECC" height="2" style="stroke:#555555;stroke-width:0.5;" width="4" x="328.79" y="280"/><rect fill="#CCEECC" height="2" style="stroke:#555555;stroke-width:0.5;" width="4" x="328.79" y="284"/><text fill="#222222" font-family="Roboto" font-size="14" lengthAdjust="spacing" textLength="122.6846" x="180" y="305.9883">SecurityMiddleware</text><text fill="#222222" font-family="Roboto" font-size="14" lengthAdjust="spacing" textLength="145.6055" x="180" y="322.3945">middleware/security.py</text><text fill="#222222" font-family="Roboto" font-size="14" lengthAdjust="spacing" textLength="145.79" x="180" y="338.8008">OWASP headers, HSTS,</text><text fill="#222222" font-family="Roboto" font-size="14" lengthAdjust="spacing" textLength="132.5693" x="180" y="355.207">CSP, SSRF protection</text></g><!--entity auth_seam--><g id="elem_auth_seam"><rect fill="#DCEDC8" height="95.625" rx="4" ry="4" style="stroke:#555555;stroke-width:0.5;" width="209.333" x="153.5" y="485"/><rect fill="#DCEDC8" height="10" style="stroke:#555555;stroke-width:0.5;" width="15" x="342.833" y="490"/><rect fill="#DCEDC8" height="2" style="stroke:#555555;stroke-width:0.5;" width="4" x="340.833" y="492"/><rect fill="#DCEDC8" height="2" style="stroke:#555555;stroke-width:0.5;" width="4" x="340.833" y="496"/><text fill="#222222" font-family="Roboto" font-size="14" lengthAdjust="spacing" textLength="68.2432" x="168.5" y="517.9883">Auth Seam</text><text fill="#222222" font-family="Roboto" font-size="14" lengthAdjust="spacing" textLength="111.002" x="168.5" y="534.3945">_extract_subject()</text><text fill="#222222" font-family="Roboto" font-size="14" lengthAdjust="spacing" textLength="139.2686" x="168.5" y="550.8008">[dev: token-as-subject]</text><text fill="#222222" font-family="Roboto" font-size="14" lengthAdjust="spacing" textLength="169.333" x="168.5" y="567.207">[prod: Authentik OIDC JWT]</text></g><!--entity principal--><g id="elem_principal"><rect fill="#DCEDC8" height="95.625" rx="4" ry="4" style="stroke:#555555;stroke-width:0.5;" width="196.3516" x="56" y="642"/><rect fill="#DCEDC8" height="10" style="stroke:#555555;stroke-width:0.5;" width="15" x="232.3516" y="647"/><rect fill="#DCEDC8" height="2" style="stroke:#555555;stroke-width:0.5;" width="4" x="230.3516" y="649"/><rect fill="#DCEDC8" height="2" style="stroke:#555555;stroke-width:0.5;" width="4" x="230.3516" y="653"/><text fill="#222222" font-family="Roboto" font-size="14" lengthAdjust="spacing" textLength="54.3252" x="71" y="674.9883">Principal</text><text fill="#222222" font-family="Roboto" font-size="14" lengthAdjust="spacing" textLength="156.3516" x="71" y="691.3945">role, family_id, profile_ids</text><text fill="#222222" font-family="Roboto" font-size="14" lengthAdjust="spacing" textLength="113.7979" x="71" y="707.8008">authorize_profile()</text><text fill="#222222" font-family="Roboto" font-size="14" lengthAdjust="spacing" textLength="112.3008" x="71" y="724.207">authorize_family()</text></g><!--entity db_session_dep--><g id="elem_db_session_dep"><rect fill="#DCEDC8" height="95.625" rx="4" ry="4" style="stroke:#555555;stroke-width:0.5;" width="172.7813" x="287.5" y="642"/><rect fill="#DCEDC8" height="10" style="stroke:#555555;stroke-width:0.5;" width="15" x="440.2813" y="647"/><rect fill="#DCEDC8" height="2" style="stroke:#555555;stroke-width:0.5;" width="4" x="438.2813" y="649"/><rect fill="#DCEDC8" height="2" style="stroke:#555555;stroke-width:0.5;" width="4" x="438.2813" y="653"/><text fill="#222222" font-family="Roboto" font-size="14" lengthAdjust="spacing" textLength="66.3564" x="302.5" y="674.9883">DbSession</text><text fill="#222222" font-family="Roboto" font-size="14" lengthAdjust="spacing" textLength="114.3652" x="302.5" y="691.3945">async unit-of-work</text><text fill="#222222" font-family="Roboto" font-size="14" lengthAdjust="spacing" textLength="124.7422" x="302.5" y="707.8008">commit on success,</text><text fill="#222222" font-family="Roboto" font-size="14" lengthAdjust="spacing" textLength="132.7813" x="302.5" y="724.207">rollback on exception</text></g><!--entity ctx--><g id="elem_ctx"><rect fill="#DCEDC8" height="95.625" rx="4" ry="4" style="stroke:#555555;stroke-width:0.5;" width="219.4502" x="241.5" y="844.5"/><rect fill="#DCEDC8" height="10" style="stroke:#555555;stroke-width:0.5;" width="15" x="440.9502" y="849.5"/><rect fill="#DCEDC8" height="2" style="stroke:#555555;stroke-width:0.5;" width="4" x="438.9502" y="851.5"/><rect fill="#DCEDC8" height="2" style="stroke:#555555;stroke-width:0.5;" width="4" x="438.9502" y="855.5"/><text fill="#222222" font-family="Roboto" font-size="14" lengthAdjust="spacing" textLength="99.3125" x="256.5" y="877.4883">RequestContext</text><text fill="#222222" font-family="Roboto" font-size="14" lengthAdjust="spacing" textLength="179.4502" x="256.5" y="893.8945">Context = principal + session</text><text fill="#222222" font-family="Roboto" font-size="14" lengthAdjust="spacing" textLength="156.8096" x="256.5" y="910.3008">Dependency-injected into</text><text fill="#222222" font-family="Roboto" font-size="14" lengthAdjust="spacing" textLength="118.918" x="256.5" y="926.707">every route handler</text></g><!--entity health_router--><g id="elem_health_router"><rect fill="#B2DFDB" height="95.625" rx="4" ry="4" style="stroke:#555555;stroke-width:0.5;" width="163.6416" x="999" y="1088"/><rect fill="#B2DFDB" height="10" style="stroke:#555555;stroke-width:0.5;" width="15" x="1142.6416" y="1093"/><rect fill="#B2DFDB" height="2" style="stroke:#555555;stroke-width:0.5;" width="4" x="1140.6416" y="1095"/><rect fill="#B2DFDB" height="2" style="stroke:#555555;stroke-width:0.5;" width="4" x="1140.6416" y="1099"/><text fill="#222222" font-family="Roboto" font-size="14" lengthAdjust="spacing" textLength="56.6221" x="1014" y="1120.9883">health.py</text><text fill="#222222" font-family="Roboto" font-size="14" lengthAdjust="spacing" textLength="100.3311" x="1014" y="1137.3945">GET /health/live</text><text fill="#222222" font-family="Roboto" font-size="14" lengthAdjust="spacing" textLength="113.6201" x="1014" y="1153.8008">GET /health/ready</text><text fill="#222222" font-family="Roboto" font-size="14" lengthAdjust="spacing" textLength="123.6416" x="1014" y="1170.207">GET /health/startup</text></g><!--entity library_router--><g id="elem_library_router"><rect fill="#B2DFDB" height="95.625" rx="4" ry="4" style="stroke:#555555;stroke-width:0.5;" width="226.9766" x="46.5" y="1088"/><rect fill="#B2DFDB" height="10" style="stroke:#555555;stroke-width:0.5;" width="15" x="253.4766" y="1093"/><rect fill="#B2DFDB" height="2" style="stroke:#555555;stroke-width:0.5;" width="4" x="251.4766" y="1095"/><rect fill="#B2DFDB" height="2" style="stroke:#555555;stroke-width:0.5;" width="4" x="251.4766" y="1099"/><text fill="#222222" font-family="Roboto" font-size="14" lengthAdjust="spacing" textLength="56.5742" x="61.5" y="1120.9883">library.py</text><text fill="#222222" font-family="Roboto" font-size="14" lengthAdjust="spacing" textLength="73.4932" x="61.5" y="1137.3945">GET /library</text><text fill="#222222" font-family="Roboto" font-size="14" lengthAdjust="spacing" textLength="130.1973" x="61.5" y="1153.8008">(filtered by age band,</text><text fill="#222222" font-family="Roboto" font-size="14" lengthAdjust="spacing" textLength="186.9766" x="61.5" y="1170.207">reading cap, published status)</text></g><!--entity reading_router--><g id="elem_reading_router"><rect fill="#B2DFDB" height="112.0313" rx="4" ry="4" style="stroke:#555555;stroke-width:0.5;" width="304.0039" x="309" y="1080"/><rect fill="#B2DFDB" height="10" style="stroke:#555555;stroke-width:0.5;" width="15" x="593.0039" y="1085"/><rect fill="#B2DFDB" height="2" style="stroke:#555555;stroke-width:0.5;" width="4" x="591.0039" y="1087"/><rect fill="#B2DFDB" height="2" style="stroke:#555555;stroke-width:0.5;" width="4" x="591.0039" y="1091"/><text fill="#222222" font-family="Roboto" font-size="14" lengthAdjust="spacing" textLength="64.8525" x="324" y="1112.9883">reading.py</text><text fill="#222222" font-family="Roboto" font-size="14" lengthAdjust="spacing" textLength="218.415" x="324" y="1129.3945">GET /reading-state/{profile}/{story}</text><text fill="#222222" font-family="Roboto" font-size="14" lengthAdjust="spacing" textLength="218.832" x="324" y="1145.8008">PUT /reading-state/{profile}/{story}</text><text fill="#222222" font-family="Roboto" font-size="14" lengthAdjust="spacing" textLength="264.0039" x="324" y="1162.207">(revision-based OCC, idempotent event_id)</text><text fill="#222222" font-family="Roboto" font-size="14" lengthAdjust="spacing" textLength="121.584" x="324" y="1178.6133">POST /completions</text></g><!--entity gen_router--><g id="elem_gen_router"><rect fill="#B2DFDB" height="112.0313" rx="4" ry="4" style="stroke:#555555;stroke-width:0.5;" width="315.0645" x="648.5" y="1080"/><rect fill="#B2DFDB" height="10" style="stroke:#555555;stroke-width:0.5;" width="15" x="943.5645" y="1085"/><rect fill="#B2DFDB" height="2" style="stroke:#555555;stroke-width:0.5;" width="4" x="941.5645" y="1087"/><rect fill="#B2DFDB" height="2" style="stroke:#555555;stroke-width:0.5;" width="4" x="941.5645" y="1091"/><text fill="#222222" font-family="Roboto" font-size="14" lengthAdjust="spacing" textLength="179.7715" x="663.5" y="1112.9883">generation.py [guardian-only]</text><text fill="#222222" font-family="Roboto" font-size="14" lengthAdjust="spacing" textLength="192.4932" x="663.5" y="1129.3945">POST /concepts (PII-screened)</text><text fill="#222222" font-family="Roboto" font-size="14" lengthAdjust="spacing" textLength="188.9727" x="663.5" y="1145.8008">POST /concepts/{id}/generate</text><text fill="#222222" font-family="Roboto" font-size="14" lengthAdjust="spacing" textLength="158.4365" x="663.5" y="1162.207">GET /generation-jobs/{id}</text><text fill="#222222" font-family="Roboto" font-size="14" lengthAdjust="spacing" textLength="275.0645" x="663.5" y="1178.6133">POST /storybooks/{id}/versions/{v}/validate</text></g><!--entity config--><g id="elem_config"><rect fill="#A5D6A7" height="95.625" rx="4" ry="4" style="stroke:#555555;stroke-width:0.5;" width="179.2275" x="983.5" y="844.5"/><rect fill="#A5D6A7" height="10" style="stroke:#555555;stroke-width:0.5;" width="15" x="1142.7275" y="849.5"/><rect fill="#A5D6A7" height="2" style="stroke:#555555;stroke-width:0.5;" width="4" x="1140.7275" y="851.5"/><rect fill="#A5D6A7" height="2" style="stroke:#555555;stroke-width:0.5;" width="4" x="1140.7275" y="855.5"/><text fill="#222222" font-family="Roboto" font-size="14" lengthAdjust="spacing" textLength="57.3535" x="998.5" y="877.4883">config.py</text><text fill="#222222" font-family="Roboto" font-size="14" lengthAdjust="spacing" textLength="108.6025" x="998.5" y="893.8945">Pydantic Settings</text><text fill="#222222" font-family="Roboto" font-size="14" lengthAdjust="spacing" textLength="114.8643" x="998.5" y="910.3008">env vars + .env file</text><text fill="#222222" font-family="Roboto" font-size="14" lengthAdjust="spacing" textLength="139.2275" x="998.5" y="926.707">fails on dev DB in prod</text></g><!--entity database--><g id="elem_database"><rect fill="#A5D6A7" height="95.625" rx="4" ry="4" style="stroke:#555555;stroke-width:0.5;" width="205.9492" x="742" y="844.5"/><rect fill="#A5D6A7" height="10" style="stroke:#555555;stroke-width:0.5;" width="15" x="927.9492" y="849.5"/><rect fill="#A5D6A7" height="2" style="stroke:#555555;stroke-width:0.5;" width="4" x="925.9492" y="851.5"/><rect fill="#A5D6A7" height="2" style="stroke:#555555;stroke-width:0.5;" width="4" x="925.9492" y="855.5"/><text fill="#222222" font-family="Roboto" font-size="14" lengthAdjust="spacing" textLength="76.0088" x="757" y="877.4883">database.py</text><text fill="#222222" font-family="Roboto" font-size="14" lengthAdjust="spacing" textLength="165.9492" x="757" y="893.8945">Async SQLAlchemy engine</text><text fill="#222222" font-family="Roboto" font-size="14" lengthAdjust="spacing" textLength="101.2129" x="757" y="910.3008">Base ORM class</text><text fill="#222222" font-family="Roboto" font-size="14" lengthAdjust="spacing" textLength="162.4697" x="757" y="926.707">get_session() context mgr</text></g><!--entity exceptions--><g id="elem_exceptions"><rect fill="#A5D6A7" height="144.8438" rx="4" ry="4" style="stroke:#555555;stroke-width:0.5;" width="190.2676" x="517" y="820"/><rect fill="#A5D6A7" height="10" style="stroke:#555555;stroke-width:0.5;" width="15" x="687.2676" y="825"/><rect fill="#A5D6A7" height="2" style="stroke:#555555;stroke-width:0.5;" width="4" x="685.2676" y="827"/><rect fill="#A5D6A7" height="2" style="stroke:#555555;stroke-width:0.5;" width="4" x="685.2676" y="831"/><text fill="#222222" font-family="Roboto" font-size="14" lengthAdjust="spacing" textLength="86.085" x="532" y="852.9883">exceptions.py</text><text fill="#222222" font-family="Roboto" font-size="14" lengthAdjust="spacing" textLength="92.7227" x="532" y="869.3945">ValidationError</text><text fill="#222222" font-family="Roboto" font-size="14" lengthAdjust="spacing" textLength="150.2676" x="532" y="885.8008">ResourceNotFoundError</text><text fill="#222222" font-family="Roboto" font-size="14" lengthAdjust="spacing" textLength="121.0986" x="532" y="902.207">AuthenticationError</text><text fill="#222222" font-family="Roboto" font-size="14" lengthAdjust="spacing" textLength="113.709" x="532" y="918.6133">AuthorizationError</text><text fill="#222222" font-family="Roboto" font-size="14" lengthAdjust="spacing" textLength="120.9688" x="532" y="935.0195">BusinessLogicError</text><text fill="#222222" font-family="Roboto" font-size="14" lengthAdjust="spacing" textLength="81.9834" x="532" y="951.4258">ProviderError</text></g><!--entity models_a--><g id="elem_models_a"><rect fill="#FFF8E1" height="112.0313" rx="4" ry="4" style="stroke:#555555;stroke-width:0.5;" width="150.5986" x="340.5" y="1316"/><rect fill="#FFF8E1" height="10" style="stroke:#555555;stroke-width:0.5;" width="15" x="471.0986" y="1321"/><rect fill="#FFF8E1" height="2" style="stroke:#555555;stroke-width:0.5;" width="4" x="469.0986" y="1323"/><rect fill="#FFF8E1" height="2" style="stroke:#555555;stroke-width:0.5;" width="4" x="469.0986" y="1327"/><text fill="#222222" font-family="Roboto" font-size="14" lengthAdjust="spacing" textLength="41.0635" x="355.5" y="1348.9883">Family</text><text fill="#222222" font-family="Roboto" font-size="14" lengthAdjust="spacing" textLength="28.4717" x="355.5" y="1365.3945">User</text><text fill="#222222" font-family="Roboto" font-size="14" lengthAdjust="spacing" textLength="72.1875" x="355.5" y="1381.8008">ChildProfile</text><text fill="#222222" font-family="Roboto" font-size="14" lengthAdjust="spacing" textLength="63.1709" x="355.5" y="1398.207">Storybook</text><text fill="#222222" font-family="Roboto" font-size="14" lengthAdjust="spacing" textLength="110.5986" x="355.5" y="1414.6133">StorybookVersion</text></g><!--entity models_b--><g id="elem_models_b"><rect fill="#FFF8E1" height="95.625" rx="4" ry="4" style="stroke:#555555;stroke-width:0.5;" width="131.7451" x="527" y="1324"/><rect fill="#FFF8E1" height="10" style="stroke:#555555;stroke-width:0.5;" width="15" x="638.7451" y="1329"/><rect fill="#FFF8E1" height="2" style="stroke:#555555;stroke-width:0.5;" width="4" x="636.7451" y="1331"/><rect fill="#FFF8E1" height="2" style="stroke:#555555;stroke-width:0.5;" width="4" x="636.7451" y="1335"/><text fill="#222222" font-family="Roboto" font-size="14" lengthAdjust="spacing" textLength="83.0703" x="542" y="1356.9883">ReadingState</text><text fill="#222222" font-family="Roboto" font-size="14" lengthAdjust="spacing" textLength="71.7637" x="542" y="1373.3945">Completion</text><text fill="#222222" font-family="Roboto" font-size="14" lengthAdjust="spacing" textLength="52.0215" x="542" y="1389.8008">Concept</text><text fill="#222222" font-family="Roboto" font-size="14" lengthAdjust="spacing" textLength="91.7451" x="542" y="1406.207">GenerationJob</text></g><!--entity pg--><g id="elem_pg"><path d="M398.5,1501 C398.5,1491 504.0801,1491 504.0801,1491 C504.0801,1491 609.6602,1491 609.6602,1501 L609.6602,1559.2188 C609.6602,1569.2188 504.0801,1569.2188 504.0801,1569.2188 C504.0801,1569.2188 398.5,1569.2188 398.5,1559.2188 L398.5,1501 " fill="#FFF8E1" style="stroke:#181818;stroke-width:0.5;"/><path d="M398.5,1501 C398.5,1511 504.0801,1511 504.0801,1511 C504.0801,1511 609.6602,1511 609.6602,1501 " fill="none" style="stroke:#181818;stroke-width:0.5;"/><text fill="#000000" font-family="Roboto" font-size="14" lengthAdjust="spacing" textLength="93.3447" x="408.5" y="1527.9883">PostgreSQL 16</text><text fill="#000000" font-family="Roboto" font-size="14" lengthAdjust="spacing" textLength="191.1602" x="408.5" y="1544.3945">Async SQLAlchemy 2 sessions</text><text fill="#000000" font-family="Roboto" font-size="14" lengthAdjust="spacing" textLength="121.1328" x="408.5" y="1560.8008">Alembic migrations</text></g><g id="elem_GMN43"><path d="M1219,494 L1219,529 L362.58,533 L1219,537 L1219,572.1719 A4,4 0 0 0 1223,576.1719 L1472.6089,576.1719 A4,4 0 0 0 1476.6089,572.1719 L1476.6089,500 L1466.6089,490 L1223,490 A4,4 0 0 0 1219,494 " fill="#FEFFDD" style="stroke:#181818;stroke-width:0.5;"/><path d="M1466.6089,490 L1466.6089,498 A2,2 0 0 0 1468.6089,500 L1476.6089,500 L1466.6089,490 " fill="#FEFFDD" style="stroke:#181818;stroke-width:0.5;"/><text fill="#000000" font-family="Roboto" font-size="13" lengthAdjust="spacing" textLength="171.5264" x="1225" y="507.0605">dev seam: treats bearer token</text><text fill="#000000" font-family="Roboto" font-size="13" lengthAdjust="spacing" textLength="236.6089" x="1225" y="522.2949">as OIDC subject without signature check.</text><text fill="#000000" font-family="Roboto" font-size="13" lengthAdjust="spacing" textLength="180.0005" x="1225" y="537.5293">Replace _extract_subject() with</text><text fill="#000000" font-family="Roboto" font-size="13" lengthAdjust="spacing" textLength="168.9048" x="1225" y="552.7637">real Authentik JWT validation</text><text fill="#000000" font-family="Roboto" font-size="13" lengthAdjust="spacing" textLength="191.8833" x="1225" y="567.998">before any non-local deployment.</text></g><g id="elem_GMN46"><path d="M1219,1097 L1219,1175.1719 A4,4 0 0 0 1223,1179.1719 L1453.2739,1179.1719 A4,4 0 0 0 1457.2739,1175.1719 L1457.2739,1103 L1447.2739,1093 L1223,1093 A4,4 0 0 0 1219,1097 " fill="#FEFFDD" style="stroke:#181818;stroke-width:0.5;"/><path d="M1447.2739,1093 L1447.2739,1101 A2,2 0 0 0 1449.2739,1103 L1457.2739,1103 L1447.2739,1093 " fill="#FEFFDD" style="stroke:#181818;stroke-width:1.0;"/><text fill="#000000" font-family="Roboto" font-size="13" lengthAdjust="spacing" textLength="142.9429" x="1225" y="1110.0605">PUT /reading-state uses:</text><text fill="#000000" font-family="Roboto" font-size="13" lengthAdjust="spacing" textLength="199.583" x="1225" y="1125.2949">SELECT ... FOR UPDATE (row lock)</text><text fill="#000000" font-family="Roboto" font-size="13" lengthAdjust="spacing" textLength="166.4102" x="1225" y="1140.5293">+ state_revision check (OCC)</text><text fill="#000000" font-family="Roboto" font-size="13" lengthAdjust="spacing" textLength="136.481" x="1225" y="1155.7637">+ event_id idempotency</text><text fill="#000000" font-family="Roboto" font-size="13" lengthAdjust="spacing" textLength="217.2739" x="1225" y="1170.998">Returns 409 + current row on conflict.</text></g><g id="elem_GMN49"><path d="M694,1333 L694,1411.1719 A4,4 0 0 0 698,1415.1719 L916.1816,1415.1719 A4,4 0 0 0 920.1816,1411.1719 L920.1816,1339 L910.1816,1329 L810.82,1329 L806.24,1192.16 L802.82,1329 L698,1329 A4,4 0 0 0 694,1333 " fill="#FEFFDD" style="stroke:#181818;stroke-width:0.5;"/><path d="M910.1816,1329 L910.1816,1337 A2,2 0 0 0 912.1816,1339 L920.1816,1339 L910.1816,1329 " fill="#FEFFDD" style="stroke:#181818;stroke-width:0.5;"/><text fill="#000000" font-family="Roboto" font-size="13" lengthAdjust="spacing" textLength="205.1816" x="700" y="1346.0605">All four endpoints are guardian-only</text><text fill="#000000" font-family="Roboto" font-size="13" lengthAdjust="spacing" textLength="189.23" x="700" y="1361.2949">(checked before any DB access).</text><text fill="#000000" font-family="Roboto" font-size="13" lengthAdjust="spacing" textLength="175.481" x="700" y="1376.5293">PII screen on concept creation</text><text fill="#000000" font-family="Roboto" font-size="13" lengthAdjust="spacing" textLength="169.4126" x="700" y="1391.7637">(child display_name must not</text><text fill="#000000" font-family="Roboto" font-size="13" lengthAdjust="spacing" textLength="137.668" x="700" y="1406.998">appear in the brief text).</text></g><!--link corr_mw to sec_mw--><g id="link_corr_mw_sec_mw"><path d="M258,196.18 C258,220.1 258,243.07 258,266.97 " fill="none" id="corr_mw-to-sec_mw" style="stroke:#181818;stroke-width:1.0;"/><polygon fill="#181818" points="258,272.97,262,263.97,258,267.97,254,263.97,258,272.97" style="stroke:#181818;stroke-width:1.0;"/><text fill="#000000" font-family="Roboto" font-size="13" lengthAdjust="spacing" textLength="78.311" x="259" y="239.0605">request chain</text></g><!--link sec_mw to auth_seam--><g id="link_sec_mw_auth_seam"><path d="M258,369.13 C258,403.59 258,444.15 258,478.67 " fill="none" id="sec_mw-to-auth_seam" style="stroke:#181818;stroke-width:1.0;"/><polygon fill="#181818" points="258,484.67,262,475.67,258,479.67,254,475.67,258,484.67" style="stroke:#181818;stroke-width:1.0;"/><text fill="#000000" font-family="Roboto" font-size="13" lengthAdjust="spacing" textLength="78.311" x="259" y="414.0605">request chain</text></g><!--link auth_seam to principal--><g id="link_auth_seam_principal"><path d="M226.23,581.35 C213.33,600.58 201.8043,617.7585 188.9143,636.9585 " fill="none" id="auth_seam-to-principal" style="stroke:#181818;stroke-width:1.0;"/><polygon fill="#181818" points="185.57,641.94,193.9075,636.6973,188.357,637.7888,187.2655,632.2382,185.57,641.94" style="stroke:#181818;stroke-width:1.0;"/></g><!--link db_session_dep to database--><g id="link_db_session_dep_database"><path d="M460.77,699.57 C534.72,709.75 641.91,731.49 725,777 C755.94,793.95 780.6756,816.4763 802.3156,839.9763 " fill="none" id="db_session_dep-to-database" style="stroke:#181818;stroke-width:1.0;"/><polygon fill="#181818" points="806.38,844.39,803.2259,835.0598,802.993,840.7119,797.341,840.479,806.38,844.39" style="stroke:#181818;stroke-width:1.0;"/></g><!--link principal to ctx--><g id="link_principal_ctx"><path d="M200.19,738.01 C231.69,770.07 269.0449,808.0902 300.5549,840.1602 " fill="none" id="principal-to-ctx" style="stroke:#181818;stroke-width:1.0;"/><polygon fill="#181818" points="304.76,844.44,301.3056,835.2168,301.2557,840.8735,295.5991,840.8236,304.76,844.44" style="stroke:#181818;stroke-width:1.0;"/></g><!--link db_session_dep to ctx--><g id="link_db_session_dep_ctx"><path d="M368.61,738.01 C364.93,770.07 360.764,806.4091 357.084,838.4791 " fill="none" id="db_session_dep-to-ctx" style="stroke:#181818;stroke-width:1.0;"/><polygon fill="#181818" points="356.4,844.44,361.3999,835.9547,356.97,839.4726,353.4521,835.0427,356.4,844.44" style="stroke:#181818;stroke-width:1.0;"/></g><!--link ctx to reading_router--><g id="link_ctx_reading_router"><path d="M372.47,940.64 C390.66,980.58 414.2928,1032.4498 433.4428,1074.4898 " fill="none" id="ctx-to-reading_router" style="stroke:#181818;stroke-width:1.0;"/><polygon fill="#181818" points="435.93,1079.95,435.8393,1070.1016,433.8573,1075.3998,428.559,1073.4179,435.93,1079.95" style="stroke:#181818;stroke-width:1.0;"/></g><!--link ctx to library_router--><g id="link_ctx_library_router"><path d="M313.72,940.64 C280.07,983.19 234.5319,1040.7639 200.9119,1083.2739 " fill="none" id="ctx-to-library_router" style="stroke:#181818;stroke-width:1.0;"/><polygon fill="#181818" points="197.19,1087.98,205.9103,1083.4021,200.2916,1084.0583,199.6355,1078.4396,197.19,1087.98" style="stroke:#181818;stroke-width:1.0;"/></g><!--link ctx to gen_router--><g id="link_ctx_gen_router"><path d="M409.02,940.61 C435.46,959.29 468.15,978.73 501,989 C522.65,995.77 684.98,986.34 705,997 C714.27,1001.93 740.7563,1038.632 765.6263,1074.892 " fill="none" id="ctx-to-gen_router" style="stroke:#181818;stroke-width:1.0;"/><polygon fill="#181818" points="769.02,1079.84,767.2281,1070.1555,766.1919,1075.7167,760.6307,1074.6805,769.02,1079.84" style="stroke:#181818;stroke-width:1.0;"/></g><!--link ctx to health_router--><g id="link_ctx_health_router"><path d="M409,940.67 C435.43,959.36 468.13,978.79 501,989 C548.99,1003.91 676.98,992.19 727,997 C840.76,1007.93 878.89,985.68 981,1037 C1005.11,1049.12 1023.0624,1064.7209 1040.2524,1083.5309 " fill="none" id="ctx-to-health_router" style="stroke:#181818;stroke-width:1.0;"/><polygon fill="#181818" points="1044.3,1087.96,1041.1813,1078.618,1040.927,1084.2691,1035.2758,1084.0148,1044.3,1087.96" style="stroke:#181818;stroke-width:1.0;"/></g><!--link reading_router to models_a--><g id="link_reading_router_models_a"><path d="M450.39,1192.16 C443.22,1229.45 434.9241,1272.6182 427.7441,1309.9182 " fill="none" id="reading_router-to-models_a" style="stroke:#181818;stroke-width:1.0;"/><polygon fill="#181818" points="426.61,1315.81,432.2391,1307.7283,427.5551,1310.9001,424.3833,1306.2162,426.61,1315.81" style="stroke:#181818;stroke-width:1.0;"/></g><!--link reading_router to models_b--><g id="link_reading_router_models_b"><path d="M492.12,1192.16 C514.68,1232.15 541.9219,1280.4542 563.3819,1318.4942 " fill="none" id="reading_router-to-models_b" style="stroke:#181818;stroke-width:1.0;"/><polygon fill="#181818" points="566.33,1323.72,565.3917,1313.9159,563.8733,1319.3652,558.424,1317.8467,566.33,1323.72" style="stroke:#181818;stroke-width:1.0;"/></g><!--link library_router to models_a--><g id="link_library_router_models_a"><path d="M211.5,1184.07 C253.11,1222.11 307.3312,1271.6721 351.1612,1311.7321 " fill="none" id="library_router-to-models_a" style="stroke:#181818;stroke-width:1.0;"/><polygon fill="#181818" points="355.59,1315.78,351.6453,1306.7556,351.8993,1312.4068,346.2482,1312.6607,355.59,1315.78" style="stroke:#181818;stroke-width:1.0;"/></g><!--link gen_router to models_a--><g id="link_gen_router_models_a"><path d="M727.33,1192.19 C698.27,1210.13 664.28,1228.38 631,1240 C579.73,1257.89 557.38,1230.47 510,1257 C485.27,1270.85 467.8831,1289.116 452.1231,1310.936 " fill="none" id="gen_router-to-models_a" style="stroke:#181818;stroke-width:1.0;"/><polygon fill="#181818" points="448.61,1315.8,457.1223,1310.8461,451.5376,1311.7467,450.637,1306.162,448.61,1315.8" style="stroke:#181818;stroke-width:1.0;"/></g><!--link gen_router to models_b--><g id="link_gen_router_models_b"><path d="M742.04,1192.14 C720.53,1211.8 696.95,1234.63 677,1257 C658.35,1277.92 643.1177,1297.9136 628.1177,1319.0936 " fill="none" id="gen_router-to-models_b" style="stroke:#181818;stroke-width:1.0;"/><polygon fill="#181818" points="624.65,1323.99,633.1159,1318.9572,627.5398,1319.9097,626.5873,1314.3336,624.65,1323.99" style="stroke:#181818;stroke-width:1.0;"/></g><!--link models_a to pg--><g id="link_models_a_pg"><path d="M447.27,1428.44 C458.93,1449.11 468.9538,1466.8632 479.5338,1485.6332 " fill="none" id="models_a-to-pg" style="stroke:#181818;stroke-width:1.0;"/><polygon fill="#181818" points="482.48,1490.86,481.5453,1481.0556,480.0248,1486.5043,474.5761,1484.9839,482.48,1490.86" style="stroke:#181818;stroke-width:1.0;"/></g><!--link models_b to pg--><g id="link_models_b_pg"><path d="M566.06,1420.23 C553.16,1442.83 540.9039,1464.3189 528.7539,1485.6089 " fill="none" id="models_b-to-pg" style="stroke:#181818;stroke-width:1.0;"/><polygon fill="#181818" points="525.78,1490.82,533.715,1484.9859,528.2583,1486.4774,526.7668,1481.0207,525.78,1490.82" style="stroke:#181818;stroke-width:1.0;"/></g><!--link exceptions to reading_router--><g id="link_exceptions_reading_router"><path d="M567.1,965.3 C544.15,1002.01 519.8413,1040.8929 498.5913,1074.8729 " fill="none" id="exceptions-to-reading_router" style="stroke:#181818;stroke-width:1.0;"/><polygon fill="#181818" points="495.41,1079.96,503.5734,1074.4502,498.0611,1075.7207,496.7906,1070.2084,495.41,1079.96" style="stroke:#181818;stroke-width:1.0;"/><text fill="#000000" font-family="Roboto" font-size="13" lengthAdjust="spacing" textLength="150.814" x="546" y="1010.0605">raised -&gt; mapped to HTTP</text><text fill="#000000" font-family="Roboto" font-size="13" lengthAdjust="spacing" textLength="126.1597" x="558.3271" y="1025.2949">by exception handlers</text></g><!--link exceptions to gen_router--><g id="link_exceptions_gen_router"><path d="M692.79,965.25 C703.37,973.6 714.26,981.72 725,989 C731.25,993.24 734.78,991.54 740,997 C762.22,1020.22 776.0063,1046.7176 786.6563,1074.1176 " fill="none" id="exceptions-to-gen_router" style="stroke:#181818;stroke-width:1.0;"/><polygon fill="#181818" points="788.83,1079.71,789.2977,1069.8723,787.0186,1075.0497,781.8412,1072.7705,788.83,1079.71" style="stroke:#181818;stroke-width:1.0;"/></g><!--link reading_router to GMN46--><g id="link_reading_router_GMN46"><path d="M526.05,1079.74 C560.11,1054 603.92,1026.32 648.5,1013 C703.12,996.68 1107.12,995.92 1161.5,1013 C1211.39,1028.67 1259.5,1063.98 1292.85,1092.77 " fill="none" id="reading_router-GMN46" style="stroke:#181818;stroke-width:1.0;stroke-dasharray:7.0,7.0;"/></g><!--SRC=[fLXjRnit4lw-lsBWV8YCMDObkBI93pr0qSlLHLBhBAUzGpSGkBkKn7f5xf6K79tX_zvdk2zQoPORe0hWhCZXl71cddbMB-c7l_29NjB0h0gZfVOqL69XnUg2FeZqLkgC-fDB4lX_8grJpakTIleejjBoiVzUKJ_RuDpQokWbLgPcRI4mLxbq5_XEv6pQIxTc9cgvdYYAys9BXv_EM3WVh1N56QrKbkNoJbX9ncRIdXvLfdfBANA_tDFPoHKaf7CzAqMcmfFpmlfrGOKrYNJFASnLOeNTjZLsd3TsIzKEuMOAexH_LarfUh6dfbhhmXalwHMbkFbSUcNqiweM2COA5ckqTHPhOJCbTDVeV7i1JKXDuTqP_MuI_Ds8N6KmyfnQboxbIhWz3oVRJ6YlKhBoVslfFC9mA0udQMKocJ_hPYOBTv3RpiGgdQf2v6SeC-tbLtz6OksNvAHO7LEsItylDTRAl8czCzXz_zH8GMMMoGo5Pvt_1gLEfckhV4Xnv-hN_dH2g2BK6IvkEhqU7rC1P_YFdgl5qvSsbTuZl-vP1KYBI8IJEnKTuROwHLajKAjdQ3w7lmlfPmwLYqYVLIU_SkAvX6g5dMQ9bWg5OzFbzfYABEcLYTrFNESzNLr_8ZYQrysIcTJrYbneZGXxd4DZrVz39hehuQtwUhxA8FcNm2XojqeN0XX4cPoBTUx7g9gVnKhIoRL9Z3SdBP44ABMmPgspWScDfHVZFlzhILIR5lr3xrhhQGrvKx_D9QrN-PlegMswZuW-10ogJBmD7wooOzNQc_297gAeW4TY0MThEEiNHQxIS4knFeQ69_HYz6xyTlGUvg2vKRAhS9fwBA9GM5rJwJWt68n6Wq5marfkdppP9x4-sbcnxdkOM4f7_-cs3dSlX__0iRNpbCZIR0kTJqWuOaMprLtjow4dqwhPZhZHwiLO7_JYZzERwLci1zD9sPSCtbwcx5UmZBFxXX_shcye2o0rPfQIBjOjXCAz3GUZuU3TutlhCpPDWKsndW6ih4ZHXUlaTrZjdCRwjqnkBiWR3CUkSDrgvmisu5fsGNmSUjGjNLqE1_JJhpTVWgVSBZE6lDhoeTq69sDjJOxsdukLohSpbPrnr3nIySnXL8qdPzKokxLRB8zrJeFLebPwpEemcPO80nK1WjPQ-QwPT- -ClOqr95VA4t34hTCKacV1kvpxZbSRd0dMigJ6gndk-PZ9wtAkLCC0oIqVw8UMjw_8rMurETnsbUQxHl5ZyffOout4A4Q3Ov8kmL5oQSjoz5zRjlShWZlocazOXrxASyIBIgCmlJQlkPy-l1cEXnyUrqN3CcBzhz4DLQoZnqHZVuL7_85GHJs2T-NIBBXjQtFHeRKT1QaqLGknxY3bE8bRIBR4CIK8dTDICWjA1UXJiKvovPOGOgAnTcKrL3h-pFQEjrIszqXBxxugkuVUVI153x6UVFuMAP2VZUAaTdduPNGr69oHoYGCUpOi6HDHuoZdoTKK6blaAFXVMVWp__V9qczxFEdBJdT9bp2xBo-xBhKIfzgco-tUlSeUQlfL9tfdeCjSAyZK1qEmYJ6trT4DysO4qBlVu4l5oK8qq78OoM6r0eOX-wB_TlXT__l79TaG4HW_921e3xq12KITlw9pVkPin7ekLEwuTO5ZX3fNcj4bgt2SzTNs3gsrM0jcHG2BwRy_zdFcaDkAkiIQgKjW3cak7BneaPZEALi8lRvQbArQwpncSu_QnFgNylxmVMIjiR6-bYwySVniG1FGojLo3S9fMxRV9YpLseUr2oy77yr2fTNQn9eDgjA6hy7BdHSjFv6fzhZda3y57lNKb6-JB2HqF1w_6xqE2Mq5Emx87UlFJiADmLBbsQHiebXFwx9gFVvIbbPmiTG-4xNkw01oG-DCVQZXGTDM0NmvDXHsKzC_cQIjCcbK8jmcNoSJu_p2IbG0lVxkYNfuKoCuxgEVorM2sbofHMcYRETYqQW6Q-nsktHTSGwtL8NZbQYc5jtkF-jXVy485KO8fKkXDFXWkS4okp7xM6otnvBDi8aEnXPlrd56kv74ovWiJqdpCWyTVjx7g6Pv7tgRvHq6D4jxyo6A3Z2F9UfSFxENH0TOltUkXJpVi9v4KLDTuU8MKLCQrVUerI6FBo6aGYY6VDOA1eidR-Z7cvj9h375McyhvHXt9uSQMnSLQOmBicgn136PxpAEacTCuqSGDBW0S4ya6AOjwHhsKNI1bLMiZUuK867joQc55joeA1MPtfv3z5hYJIULz9W3XbEGW8MyHVV0zEftRdYD_KJE0Tyaz9Oq9aLkKiYZP7ApNU78USG_ht0iXn4Tb13Hu_5AQyS_i11DHnz7WniwFp-dyTKrVPuC-pSZwbXpHp1uUmgHLu43o5azVSiOyTex69JRzTpTpU9q6su0DuBh__lVtlCF5Mky4G1BM3FhmAZ0QytZAF26visAmsYbZAWFgZK7LEz-EI5-gTcRpH3h1D-Os-mk3qDA1Evvodd1jAPoMbTkS9bGokakhnqg09oKAOS4RcUQtnp3smlSun90zGdBOm-9eyGgEISUIQUjIFu0]--></g></svg>
