<svg xmlns="http://www.w3.org/2000/svg" xmlns:xlink="http://www.w3.org/1999/xlink" contentStyleType="text/css" height="1075px" preserveAspectRatio="none" style="width:1718px;height:1075px;background:#FAFAFA;" version="1.1" viewBox="0 0 1718 1075" width="1718px" zoomAndPan="magnify"><defs><style type="text/css">@import url('https://fonts.googleapis.com/css?family=Roboto:400,100,100italic,300,300italic,400italic,500,500italic,700,700italic,900,900italic');</style></defs><g><rect fill="#FAFAFA" height="1075" style="stroke:none;stroke-width:1.0;" width="1718" x="0" y="0"/><!--cluster devices--><g id="cluster_devices"><polygon fill="#E3F2FD" points="175.2,16,185.2,6,367.2,6,367.2,164,357.2,174,175.2,174,175.2,16" style="stroke:#181818;stroke-width:1.0;"/><line style="stroke:#181818;stroke-width:1.0;" x1="357.2" x2="367.2" y1="16" y2="6"/><line style="stroke:#181818;stroke-width:1.0;" x1="175.2" x2="357.2" y1="16" y2="16"/><line style="stroke:#181818;stroke-width:1.0;" x1="357.2" x2="357.2" y1="16" y2="174"/><text fill="#000000" font-family="Roboto" font-size="14" font-weight="bold" lengthAdjust="spacing" textLength="94.7939" x="219.803" y="31.9883">Family Devices</text><text fill="#000000" font-family="Roboto" font-size="14" font-weight="bold" lengthAdjust="spacing" textLength="116.3271" x="209.0364" y="48.3945">[browsers, tablets]</text></g><!--cluster homelab--><g id="cluster_homelab"><polygon fill="#E8F5E9" points="423.2,233,433.2,223,1429.2,223,1429.2,1048,1419.2,1058,423.2,1058,423.2,233" style="stroke:#181818;stroke-width:1.0;"/><line style="stroke:#181818;stroke-width:1.0;" x1="1419.2" x2="1429.2" y1="233" y2="223"/><line style="stroke:#181818;stroke-width:1.0;" x1="423.2" x2="1419.2" y1="233" y2="233"/><line style="stroke:#181818;stroke-width:1.0;" x1="1419.2" x2="1419.2" y1="233" y2="1058"/><text fill="#000000" font-family="Roboto" font-size="14" font-weight="bold" lengthAdjust="spacing" textLength="101.1377" x="871.6312" y="248.9883">Homelab Server</text><text fill="#000000" font-family="Roboto" font-size="14" font-weight="bold" lengthAdjust="spacing" textLength="114.2695" x="865.0652" y="265.3945">[Docker + Dockge]</text><text fill="#000000" font-family="Roboto" font-size="14" font-weight="bold" lengthAdjust="spacing" textLength="66.8486" x="888.7757" y="281.8008">(ADR-004)</text></g><!--cluster pangolin--><g id="cluster_pangolin"><polygon fill="#CCEECC" points="737.2,314,747.2,304,998.2,304,998.2,446,988.2,456,737.2,456,737.2,314" style="stroke:#181818;stroke-width:1.0;"/><line style="stroke:#181818;stroke-width:1.0;" x1="988.2" x2="998.2" y1="314" y2="304"/><line style="stroke:#181818;stroke-width:1.0;" x1="737.2" x2="988.2" y1="314" y2="314"/><line style="stroke:#181818;stroke-width:1.0;" x1="988.2" x2="988.2" y1="314" y2="456"/><text fill="#000000" font-family="Roboto" font-size="14" font-weight="bold" lengthAdjust="spacing" textLength="55.5625" x="835.9188" y="329.9883">Pangolin</text><text fill="#000000" font-family="Roboto" font-size="14" font-weight="bold" lengthAdjust="spacing" textLength="157.3018" x="785.0491" y="346.3945">[Zero-trust reverse proxy</text><text fill="#000000" font-family="Roboto" font-size="14" font-weight="bold" lengthAdjust="spacing" textLength="185.3906" x="771.0047" y="362.8008">Tailscale / Cloudflare Tunnel]</text></g><!--cluster backend_container--><g id="cluster_backend_container"><polygon fill="#B2DFDB" points="832.2,548,842.2,538,1256.2,538,1256.2,713,1246.2,723,832.2,723,832.2,548" style="stroke:#181818;stroke-width:1.0;"/><line style="stroke:#181818;stroke-width:1.0;" x1="1246.2" x2="1256.2" y1="548" y2="538"/><line style="stroke:#181818;stroke-width:1.0;" x1="832.2" x2="1246.2" y1="548" y2="548"/><line style="stroke:#181818;stroke-width:1.0;" x1="1246.2" x2="1246.2" y1="548" y2="723"/><text fill="#000000" font-family="Roboto" font-size="14" font-weight="bold" lengthAdjust="spacing" textLength="81.1699" x="999.615" y="563.9883">cyo-backend</text><text fill="#000000" font-family="Roboto" font-size="14" font-weight="bold" lengthAdjust="spacing" textLength="111.4053" x="984.4974" y="580.3945">[Docker container</text><text fill="#000000" font-family="Roboto" font-size="14" font-weight="bold" lengthAdjust="spacing" textLength="124.4688" x="977.9656" y="596.8008">cyo-backend:latest]</text></g><!--cluster worker_container--><g id="cluster_worker_container"><polygon fill="#FFF3E0" points="559.2,540,569.2,530,800.2,530,800.2,721,790.2,731,559.2,731,559.2,540" style="stroke:#181818;stroke-width:1.0;"/><line style="stroke:#181818;stroke-width:1.0;" x1="790.2" x2="800.2" y1="540" y2="530"/><line style="stroke:#181818;stroke-width:1.0;" x1="559.2" x2="790.2" y1="540" y2="540"/><line style="stroke:#181818;stroke-width:1.0;" x1="790.2" x2="790.2" y1="540" y2="731"/><text fill="#000000" font-family="Roboto" font-size="14" font-weight="bold" lengthAdjust="spacing" textLength="71.1689" x="640.1155" y="555.9883">cyo-worker</text><text fill="#000000" font-family="Roboto" font-size="14" font-weight="bold" lengthAdjust="spacing" textLength="111.4053" x="619.9974" y="572.3945">[Docker container</text><text fill="#000000" font-family="Roboto" font-size="14" font-weight="bold" lengthAdjust="spacing" textLength="114.4678" x="618.4661" y="588.8008">cyo-worker:latest]</text></g><!--cluster postgres_container--><g id="cluster_postgres_container"><polygon fill="#FFF8E1" points="973.2,844,983.2,834,1172.2,834,1172.2,1008,1162.2,1018,973.2,1018,973.2,844" style="stroke:#181818;stroke-width:1.0;"/><line style="stroke:#181818;stroke-width:1.0;" x1="1162.2" x2="1172.2" y1="844" y2="834"/><line style="stroke:#181818;stroke-width:1.0;" x1="973.2" x2="1162.2" y1="844" y2="844"/><line style="stroke:#181818;stroke-width:1.0;" x1="1162.2" x2="1162.2" y1="844" y2="1018"/><text fill="#000000" font-family="Roboto" font-size="14" font-weight="bold" lengthAdjust="spacing" textLength="83.3096" x="1027.0452" y="859.9883">cyo-postgres</text><text fill="#000000" font-family="Roboto" font-size="14" font-weight="bold" lengthAdjust="spacing" textLength="111.4053" x="1012.9974" y="876.3945">[Docker container</text><text fill="#000000" font-family="Roboto" font-size="14" font-weight="bold" lengthAdjust="spacing" textLength="123.1836" x="1007.1082" y="892.8008">postgres:16-alpine]</text></g><!--cluster redis_container--><g id="cluster_redis_container"><polygon fill="#E0E0E0" points="741.2,844,751.2,834,949.2,834,949.2,1008,939.2,1018,741.2,1018,741.2,844" style="stroke:#181818;stroke-width:1.0;"/><line style="stroke:#181818;stroke-width:1.0;" x1="939.2" x2="949.2" y1="844" y2="834"/><line style="stroke:#181818;stroke-width:1.0;" x1="741.2" x2="939.2" y1="844" y2="844"/><line style="stroke:#181818;stroke-width:1.0;" x1="939.2" x2="939.2" y1="844" y2="1018"/><text fill="#000000" font-family="Roboto" font-size="14" font-weight="bold" lengthAdjust="spacing" textLength="59.1855" x="811.6072" y="859.9883">cyo-redis</text><text fill="#000000" font-family="Roboto" font-size="14" font-weight="bold" lengthAdjust="spacing" textLength="111.4053" x="785.4974" y="876.3945">[Docker container</text><text fill="#000000" font-family="Roboto" font-size="14" font-weight="bold" lengthAdjust="spacing" textLength="91.0273" x="795.6863" y="892.8008">redis:7-alpine]</text></g><!--cluster ollama_container--><g id="cluster_ollama_container"><polygon fill="#FFEBEE" points="1196.2,843.5,1206.2,833.5,1405.2,833.5,1405.2,1008.5,1395.2,1018.5,1196.2,1018.5,1196.2,843.5" style="stroke:#181818;stroke-width:1.0;"/><line style="stroke:#181818;stroke-width:1.0;" x1="1395.2" x2="1405.2" y1="843.5" y2="833.5"/><line style="stroke:#181818;stroke-width:1.0;" x1="1196.2" x2="1395.2" y1="843.5" y2="843.5"/><line style="stroke:#181818;stroke-width:1.0;" x1="1395.2" x2="1395.2" y1="843.5" y2="1018.5"/><text fill="#000000" font-family="Roboto" font-size="14" font-weight="bold" lengthAdjust="spacing" textLength="70.1641" x="1261.618" y="859.4883">cyo-ollama</text><text fill="#000000" font-family="Roboto" font-size="14" font-weight="bold" lengthAdjust="spacing" textLength="111.4053" x="1240.9974" y="875.8945">[Docker container</text><text fill="#000000" font-family="Roboto" font-size="14" font-weight="bold" lengthAdjust="spacing" textLength="133.4785" x="1229.9607" y="892.3008">ollama/ollama:latest]</text></g><!--cluster minio_container--><g id="cluster_minio_container"><polygon fill="#E0E0E0" points="455.2,836,465.2,826,709.2,826,709.2,1016,699.2,1026,455.2,1026,455.2,836" style="stroke:#181818;stroke-width:1.0;"/><line style="stroke:#181818;stroke-width:1.0;" x1="699.2" x2="709.2" y1="836" y2="826"/><line style="stroke:#181818;stroke-width:1.0;" x1="455.2" x2="699.2" y1="836" y2="836"/><line style="stroke:#181818;stroke-width:1.0;" x1="699.2" x2="699.2" y1="836" y2="1026"/><text fill="#000000" font-family="Roboto" font-size="14" font-weight="bold" lengthAdjust="spacing" textLength="178.6777" x="488.8611" y="851.9883">cyo-minio [planned Phase 5]</text><text fill="#000000" font-family="Roboto" font-size="14" font-weight="bold" lengthAdjust="spacing" textLength="111.4053" x="522.4974" y="868.3945">[Docker container</text><text fill="#000000" font-family="Roboto" font-size="14" font-weight="bold" lengthAdjust="spacing" textLength="79.7344" x="538.3328" y="884.8008">minio/minio]</text></g><!--entity pwa_client--><g id="elem_pwa_client"><rect fill="#DDEEFF" height="95.625" rx="4" ry="4" style="stroke:#181818;stroke-width:0.5;" width="134.1992" x="204.2" y="62"/><rect fill="#DDEEFF" height="10" style="stroke:#181818;stroke-width:0.5;" width="15" x="318.3992" y="67"/><rect fill="#DDEEFF" height="2" style="stroke:#181818;stroke-width:0.5;" width="4" x="316.3992" y="69"/><rect fill="#DDEEFF" height="2" style="stroke:#181818;stroke-width:0.5;" width="4" x="316.3992" y="73"/><text fill="#000000" font-family="Roboto" font-size="14" lengthAdjust="spacing" textLength="30.3857" x="219.2" y="94.9883">PWA</text><text fill="#000000" font-family="Roboto" font-size="14" lengthAdjust="spacing" textLength="94.1992" x="219.2" y="111.3945">(React 19 SPA)</text><text fill="#000000" font-family="Roboto" font-size="14" lengthAdjust="spacing" textLength="93.3037" x="219.2" y="127.8008">Service Worker</text><text fill="#000000" font-family="Roboto" font-size="14" lengthAdjust="spacing" textLength="78.4492" x="219.2" y="144.207">+ IndexedDB</text></g><!--entity tls--><g id="elem_tls"><rect fill="#CCEECC" height="62.8125" rx="4" ry="4" style="stroke:#181818;stroke-width:0.5;" width="187.6084" x="773.2" y="377"/><rect fill="#CCEECC" height="10" style="stroke:#181818;stroke-width:0.5;" width="15" x="940.8084" y="382"/><rect fill="#CCEECC" height="2" style="stroke:#181818;stroke-width:0.5;" width="4" x="938.8084" y="384"/><rect fill="#CCEECC" height="2" style="stroke:#181818;stroke-width:0.5;" width="4" x="938.8084" y="388"/><text fill="#000000" font-family="Roboto" font-size="14" lengthAdjust="spacing" textLength="99.1553" x="788.2" y="409.9883">TLS termination</text><text fill="#000000" font-family="Roboto" font-size="14" lengthAdjust="spacing" textLength="147.6084" x="788.2" y="426.3945">HTTPS -&gt; internal HTTP</text></g><!--entity fastapi_app--><g id="elem_fastapi_app"><rect fill="#B2DFDB" height="95.625" rx="4" ry="4" style="stroke:#181818;stroke-width:0.5;" width="198.9971" x="1040.7" y="611"/><rect fill="#B2DFDB" height="10" style="stroke:#181818;stroke-width:0.5;" width="15" x="1219.6971" y="616"/><rect fill="#B2DFDB" height="2" style="stroke:#181818;stroke-width:0.5;" width="4" x="1217.6971" y="618"/><rect fill="#B2DFDB" height="2" style="stroke:#181818;stroke-width:0.5;" width="4" x="1217.6971" y="622"/><text fill="#000000" font-family="Roboto" font-size="14" lengthAdjust="spacing" textLength="75.7422" x="1055.7" y="643.9883">FastAPI app</text><text fill="#000000" font-family="Roboto" font-size="14" lengthAdjust="spacing" textLength="121.7002" x="1055.7" y="660.3945">(uvicorn, port 8000)</text><text fill="#000000" font-family="Roboto" font-size="14" lengthAdjust="spacing" textLength="121.0166" x="1055.7" y="676.8008">src/cyo_adventure/</text><text fill="#000000" font-family="Roboto" font-size="14" lengthAdjust="spacing" textLength="158.9971" x="1055.7" y="693.207">correlation + security MW</text></g><!--entity static_assets--><g id="elem_static_assets"><rect fill="#B2DFDB" height="79.2188" rx="4" ry="4" style="stroke:#181818;stroke-width:0.5;" width="156.6484" x="848.7" y="619.5"/><rect fill="#B2DFDB" height="10" style="stroke:#181818;stroke-width:0.5;" width="15" x="985.3484" y="624.5"/><rect fill="#B2DFDB" height="2" style="stroke:#181818;stroke-width:0.5;" width="4" x="983.3484" y="626.5"/><rect fill="#B2DFDB" height="2" style="stroke:#181818;stroke-width:0.5;" width="4" x="983.3484" y="630.5"/><text fill="#000000" font-family="Roboto" font-size="14" lengthAdjust="spacing" textLength="114.4473" x="863.7" y="652.4883">Static PWA assets</text><text fill="#000000" font-family="Roboto" font-size="14" lengthAdjust="spacing" textLength="116.6484" x="863.7" y="668.8945">(served by FastAPI</text><text fill="#000000" font-family="Roboto" font-size="14" lengthAdjust="spacing" textLength="112.7109" x="863.7" y="685.3008">or separate nginx)</text></g><!--entity rq_worker--><g id="elem_rq_worker"><rect fill="#FFF3E0" height="95.625" rx="4" ry="4" style="stroke:#181818;stroke-width:0.5;" width="172.9658" x="602.7" y="611"/><rect fill="#FFF3E0" height="10" style="stroke:#181818;stroke-width:0.5;" width="15" x="755.6658" y="616"/><rect fill="#FFF3E0" height="2" style="stroke:#181818;stroke-width:0.5;" width="4" x="753.6658" y="618"/><rect fill="#FFF3E0" height="2" style="stroke:#181818;stroke-width:0.5;" width="4" x="753.6658" y="622"/><text fill="#000000" font-family="Roboto" font-size="14" lengthAdjust="spacing" textLength="66.1445" x="617.7" y="643.9883">RQ Worker</text><text fill="#000000" font-family="Roboto" font-size="14" lengthAdjust="spacing" textLength="132.9658" x="617.7" y="660.3945">generation/worker.py</text><text fill="#000000" font-family="Roboto" font-size="14" lengthAdjust="spacing" textLength="120.5244" x="617.7" y="676.8008">async, long-running</text><text fill="#000000" font-family="Roboto" font-size="14" lengthAdjust="spacing" textLength="108.5137" x="617.7" y="693.207">no inbound HTTP</text></g><!--entity pg_db--><g id="elem_pg_db"><path d="M1002.7,917 C1002.7,907 1073.2664,907 1073.2664,907 C1073.2664,907 1143.8328,907 1143.8328,917 L1143.8328,991.625 C1143.8328,1001.625 1073.2664,1001.625 1073.2664,1001.625 C1073.2664,1001.625 1002.7,1001.625 1002.7,991.625 L1002.7,917 " fill="#FFF8E1" style="stroke:#181818;stroke-width:0.5;"/><path d="M1002.7,917 C1002.7,927 1073.2664,927 1073.2664,927 C1073.2664,927 1143.8328,927 1143.8328,917 " fill="none" style="stroke:#181818;stroke-width:0.5;"/><text fill="#000000" font-family="Roboto" font-size="14" lengthAdjust="spacing" textLength="93.3447" x="1012.7" y="943.9883">PostgreSQL 16</text><text fill="#000000" font-family="Roboto" font-size="14" lengthAdjust="spacing" textLength="60.1152" x="1012.7" y="960.3945">port 5432</text><text fill="#000000" font-family="Roboto" font-size="14" lengthAdjust="spacing" textLength="49.4512" x="1012.7" y="976.8008">9 tables</text><text fill="#000000" font-family="Roboto" font-size="14" lengthAdjust="spacing" textLength="121.1328" x="1012.7" y="993.207">Alembic migrations</text></g><!--entity redis_db--><g id="elem_redis_db"><path d="M757.2,917 C757.2,907 845.2049,907 845.2049,907 C845.2049,907 933.2098,907 933.2098,917 L933.2098,991.625 C933.2098,1001.625 845.2049,1001.625 845.2049,1001.625 C845.2049,1001.625 757.2,1001.625 757.2,991.625 L757.2,917 " fill="#E0E0E0" style="stroke:#181818;stroke-width:0.5;"/><path d="M757.2,917 C757.2,927 845.2049,927 845.2049,927 C845.2049,927 933.2098,927 933.2098,917 " fill="none" style="stroke:#181818;stroke-width:0.5;"/><text fill="#000000" font-family="Roboto" font-size="14" lengthAdjust="spacing" textLength="45.917" x="767.2" y="943.9883">Redis 7</text><text fill="#000000" font-family="Roboto" font-size="14" lengthAdjust="spacing" textLength="60.1152" x="767.2" y="960.3945">port 6379</text><text fill="#000000" font-family="Roboto" font-size="14" lengthAdjust="spacing" textLength="82.6396" x="767.2" y="976.8008">RQ job queue</text><text fill="#000000" font-family="Roboto" font-size="14" lengthAdjust="spacing" textLength="156.0098" x="767.2" y="993.207">(no persistence required)</text></g><!--entity ollama_svc--><g id="elem_ollama_svc"><rect fill="#FFEBEE" height="95.625" rx="4" ry="4" style="stroke:#181818;stroke-width:0.5;" width="153.1758" x="1214.7" y="906.5"/><rect fill="#FFEBEE" height="10" style="stroke:#181818;stroke-width:0.5;" width="15" x="1347.8758" y="911.5"/><rect fill="#FFEBEE" height="2" style="stroke:#181818;stroke-width:0.5;" width="4" x="1345.8758" y="913.5"/><rect fill="#FFEBEE" height="2" style="stroke:#181818;stroke-width:0.5;" width="4" x="1345.8758" y="917.5"/><text fill="#000000" font-family="Roboto" font-size="14" lengthAdjust="spacing" textLength="43.9482" x="1229.7" y="939.4883">Ollama</text><text fill="#000000" font-family="Roboto" font-size="14" lengthAdjust="spacing" textLength="67.9834" x="1229.7" y="955.8945">port 11434</text><text fill="#000000" font-family="Roboto" font-size="14" lengthAdjust="spacing" textLength="113.1758" x="1229.7" y="972.3008">local LLM fallback</text><text fill="#000000" font-family="Roboto" font-size="14" lengthAdjust="spacing" textLength="107.4541" x="1229.7" y="988.707">(GPU if available)</text></g><!--entity minio_db--><g id="elem_minio_db"><path d="M519.7,917 C519.7,907 602.0311,907 602.0311,907 C602.0311,907 684.3621,907 684.3621,917 L684.3621,991.625 C684.3621,1001.625 602.0311,1001.625 602.0311,1001.625 C602.0311,1001.625 519.7,1001.625 519.7,991.625 L519.7,917 " fill="#E0E0E0" style="stroke:#181818;stroke-width:0.5;"/><path d="M519.7,917 C519.7,927 602.0311,927 602.0311,927 C602.0311,927 684.3621,927 684.3621,917 " fill="none" style="stroke:#181818;stroke-width:0.5;"/><text fill="#000000" font-family="Roboto" font-size="14" lengthAdjust="spacing" textLength="36.7979" x="529.7" y="943.9883">MinIO</text><text fill="#000000" font-family="Roboto" font-size="14" lengthAdjust="spacing" textLength="89.79" x="529.7" y="960.3945">S3-compatible</text><text fill="#000000" font-family="Roboto" font-size="14" lengthAdjust="spacing" textLength="144.6621" x="529.7" y="976.8008">Storybook blob storage</text><text fill="#000000" font-family="Roboto" font-size="14" lengthAdjust="spacing" textLength="100.3789" x="529.7" y="993.207">blog_ref column</text></g><!--entity openrouter_cloud--><g id="elem_openrouter_cloud"><path d="M199.1514,933.0248 C202.0484,927.0563 205.9517,926.3999 210.7852,930.8658 C214.9571,925.1749 219.1232,925.9637 223.0762,931.1139 C227.0164,926.4172 230.6001,925.6784 234.2765,931.3975 C237.719,924.2176 241.5929,923.9721 246.5145,930.0302 C250.1267,924.6827 255.7095,924.0579 258.834,930.5381 C262.1708,924.5846 266.6801,924.1367 270.266,930.3031 C274.5376,924.1974 278.5138,926.0149 282.115,931.0183 C285.3919,925.6068 291.1548,925.219 294.2525,931.209 C297.9387,925.216 302.8409,925.9149 306.2337,931.5123 C310.982,925.9848 316.1694,926.246 320.1094,932.467 C323.0431,927.2571 326.9513,927.4474 330.2887,932.0481 C334.7088,927.2569 338.3131,927.563 342.0682,932.8271 C348.3267,933.9606 350.4595,938.4475 345.9862,943.515 C352.0764,946.6144 352.24,952.4107 346.6386,956.1154 C351.3915,960.4655 350.832,964.3239 345.7097,967.8952 C349.6283,972.826 350.1977,977.0247 343.1476,979.5427 C339.3313,984.8605 333.4034,984.8235 330.1525,978.8897 C327.8455,984.5851 323.6179,984.8093 319.7817,980.4701 C315.1429,987.1385 310.3813,986.2525 306.5432,979.6702 C304.4118,984.6171 299.3319,984.9459 296.1757,980.8444 C292.9861,988.6035 286.6822,987.4886 282.2217,982.2039 C278.8932,987.4866 275.2461,988.7265 270.7542,983.4697 C265.6179,988.0836 261.5452,986.6922 258.6188,980.8941 C255.8877,987.411 250.3799,987.9353 246.3787,982.1588 C242.2901,987.0219 237.2699,986.196 235.7082,979.7703 C232.8418,985.7964 227.8255,985.7917 223.8044,981.0463 C219.3453,986.3929 215.289,985.3332 212.1516,979.6499 C207.6605,985.6901 203.7996,986.0448 199.7635,979.212 C191.8301,978.3379 188.614,972.7588 194.1906,966.1296 C187.118,964.3432 187.1899,958.9714 191.3214,954.4359 C187.4557,948.9609 189.1796,944.4919 196.1165,943.9631 C192.3906,939.7124 193.0104,934.5378 199.1514,933.0248 " fill="#F3E5F5" style="stroke:#181818;stroke-width:0.5;"/><text fill="#000000" font-family="Roboto" font-size="14" lengthAdjust="spacing" textLength="98.9707" x="205.2" y="950.9883">OpenRouter API</text><text fill="#000000" font-family="Roboto" font-size="14" lengthAdjust="spacing" textLength="129.8076" x="205.2" y="967.3945">https://openrouter.ai</text></g><!--entity authentik_cloud--><g id="elem_authentik_cloud"><path d="M25.478,924.6117 C27.9049,917.8009 34.0488,916.8686 38.1367,922.9851 C40.821,916.6756 44.9706,915.8391 50.2545,919.9667 C53.9898,914.3446 57.9903,913.7955 62.2648,919.3893 C64.8913,912.1202 71.6257,912.0262 75.719,917.8862 C78.148,911.5412 83.7843,912.0439 87.0514,917.0494 C91.0111,911.5241 96.3984,912.0376 99.2619,918.1952 C103.0153,913.2964 107.1482,913.4887 110.8365,918.273 C115.9294,913.659 121.575,914.5301 123.6723,921.5719 C127.9018,915.6187 133.4308,916.3897 136.4575,922.8143 C141.1886,917.1511 144.8772,917.7858 148.6406,923.822 C155.9395,928.8311 157.3567,934.2457 149.5019,940.0586 C157.9757,943.8702 159.0565,949.6271 151.5908,955.5834 C158.2282,960.7284 157.4386,967.9305 149.3605,970.938 C157.4859,975.9778 155.4399,983.311 148.288,987.3527 C144.6936,993.9123 140.7439,993.6888 136.322,988.1726 C132.8438,994.3061 127.917,994.9017 124.0969,988.5063 C120.8661,995.2459 114.8135,995.6646 110.9221,989.1637 C108.6646,995.4768 103.197,996.2111 99.265,990.8335 C95.9549,997.6527 90.675,997.4765 86.4347,991.7876 C82.1157,996.2936 77.9342,996.1144 75.1811,990.1108 C71.2702,997.1026 66.4553,996.3057 62.3255,990.3278 C57.2374,996.6113 53.5991,995.0046 49.936,988.9025 C46.9667,993.8884 41.2119,994.6755 38.2656,988.8776 C34.6453,993.2845 29.3912,992.3969 27.0055,987.3994 C17.3601,984.1038 15.9971,978.3429 23.1292,971.0657 C14.5522,967.8597 14.1414,961.7951 19.5117,955.3738 C12.2449,948.7071 14.6239,943.4698 22.6652,939.9285 C16.25,933.6908 16.8725,928.0909 25.478,924.6117 " fill="#E0F7FA" style="stroke:#181818;stroke-width:0.5;"/><text fill="#000000" font-family="Roboto" font-size="14" lengthAdjust="spacing" textLength="59.377" x="32.2" y="942.9883">Authentik</text><text fill="#000000" font-family="Roboto" font-size="14" lengthAdjust="spacing" textLength="93.4746" x="32.2" y="959.3945">[OIDC provider]</text><text fill="#000000" font-family="Roboto" font-size="14" lengthAdjust="spacing" textLength="108.2813" x="32.2" y="975.8008">homelab or cloud</text></g><g id="elem_GMN34"><path d="M1445.2,612.5 L1445.2,705.9063 A4,4 0 0 0 1449.2,709.9063 L1707.3465,709.9063 A4,4 0 0 0 1711.3465,705.9063 L1711.3465,618.5 L1701.3465,608.5 L1449.2,608.5 A4,4 0 0 0 1445.2,612.5 " fill="#FEFFDD" style="stroke:#181818;stroke-width:0.5;"/><path d="M1701.3465,608.5 L1701.3465,616.5 A2,2 0 0 0 1703.3465,618.5 L1711.3465,618.5 L1701.3465,608.5 " fill="#FEFFDD" style="stroke:#181818;stroke-width:1.0;"/><text fill="#000000" font-family="Roboto" font-size="13" lengthAdjust="spacing" textLength="228.4648" x="1451.2" y="625.5605">The worker runs in a separate container</text><text fill="#000000" font-family="Roboto" font-size="13" lengthAdjust="spacing" textLength="245.1465" x="1451.2" y="640.7949">so long-running generation (30-120s) does</text><text fill="#000000" font-family="Roboto" font-size="13" lengthAdjust="spacing" textLength="164.9946" x="1451.2" y="656.0293">not block the API event loop.</text><text fill="#000000" font-family="Roboto" font-size="13" lengthAdjust="spacing" textLength="220.835" x="1451.2" y="671.2637">Worker and API share the same image</text><text fill="#000000" font-family="Roboto" font-size="13" lengthAdjust="spacing" textLength="223.9961" x="1451.2" y="686.498">or a shared base; Dockge manages the</text><text fill="#000000" font-family="Roboto" font-size="13" lengthAdjust="spacing" textLength="92.0156" x="1451.2" y="701.7324">compose stack.</text></g><g id="elem_GMN37"><path d="M1445.7,923 L1445.7,985.9375 A4,4 0 0 0 1449.7,989.9375 L1676.4446,989.9375 A4,4 0 0 0 1680.4446,985.9375 L1680.4446,929 L1670.4446,919 L1449.7,919 A4,4 0 0 0 1445.7,923 " fill="#FEFFDD" style="stroke:#181818;stroke-width:0.5;"/><path d="M1670.4446,919 L1670.4446,927 A2,2 0 0 0 1672.4446,929 L1680.4446,929 L1670.4446,919 " fill="#FEFFDD" style="stroke:#181818;stroke-width:1.0;"/><text fill="#000000" font-family="Roboto" font-size="13" lengthAdjust="spacing" textLength="213.7446" x="1451.7" y="936.0605">Phase 1: blob stored inline as JSONB</text><text fill="#000000" font-family="Roboto" font-size="13" lengthAdjust="spacing" textLength="155.4224" x="1451.7" y="951.2949">on storybook_version.blob.</text><text fill="#000000" font-family="Roboto" font-size="13" lengthAdjust="spacing" textLength="186.6274" x="1451.7" y="966.5293">Phase 5: MinIO container added;</text><text fill="#000000" font-family="Roboto" font-size="13" lengthAdjust="spacing" textLength="212.7163" x="1451.7" y="981.7637">blob_ref column set to S3 object key.</text></g><g id="elem_GMN40"><path d="M151.2,362 L151.2,455.4063 A4,4 0 0 0 155.2,459.4063 L387.0418,459.4063 A4,4 0 0 0 391.0418,455.4063 L391.0418,368 L381.0418,358 L275.2,358 L271.2,158.31 L267.2,358 L155.2,358 A4,4 0 0 0 151.2,362 " fill="#FEFFDD" style="stroke:#181818;stroke-width:0.5;"/><path d="M381.0418,358 L381.0418,366 A2,2 0 0 0 383.0418,368 L391.0418,368 L381.0418,358 " fill="#FEFFDD" style="stroke:#181818;stroke-width:0.5;"/><text fill="#000000" font-family="Roboto" font-size="13" lengthAdjust="spacing" textLength="218.8418" x="157.2" y="375.0605">PWA assets cached by service worker</text><text fill="#000000" font-family="Roboto" font-size="13" lengthAdjust="spacing" textLength="173.6846" x="157.2" y="390.2949">(Workbox via vite-plugin-pwa).</text><text fill="#000000" font-family="Roboto" font-size="13" lengthAdjust="spacing" textLength="200.3892" x="157.2" y="405.5293">IndexedDB stores reading state for</text><text fill="#000000" font-family="Roboto" font-size="13" lengthAdjust="spacing" textLength="179.2261" x="157.2" y="420.7637">offline play. Offline write queue</text><text fill="#000000" font-family="Roboto" font-size="13" lengthAdjust="spacing" textLength="199.2275" x="157.2" y="435.998">replays on reconnect with event_id</text><text fill="#000000" font-family="Roboto" font-size="13" lengthAdjust="spacing" textLength="78.2095" x="157.2" y="451.2324">idempotency.</text></g><!--link pwa_client to tls--><g id="link_pwa_client_tls"><path d="M338.41,144.44 C455.01,202.44 687.6879,318.1978 800.2479,374.1878 " fill="none" id="pwa_client-to-tls" style="stroke:#181818;stroke-width:1.0;"/><polygon fill="#181818" points="805.62,376.86,799.3433,369.2703,801.1433,374.6332,795.7804,376.4331,805.62,376.86" style="stroke:#181818;stroke-width:1.0;"/><text fill="#000000" font-family="Roboto" font-size="13" lengthAdjust="spacing" textLength="74.8262" x="464.2" y="203.0605">HTTPS (443)</text></g><!--link tls to fastapi_app--><g id="link_tls_fastapi_app"><path d="M921.34,440.22 C952.76,459.35 992.13,485.67 1023.2,514 C1055.09,543.08 1082.1012,576.3393 1103.9812,606.0393 " fill="none" id="tls-to-fastapi_app" style="stroke:#181818;stroke-width:1.0;"/><polygon fill="#181818" points="1107.54,610.87,1105.4223,601.2515,1104.5744,606.8444,1098.9814,605.9965,1107.54,610.87" style="stroke:#181818;stroke-width:1.0;"/><text fill="#000000" font-family="Roboto" font-size="13" lengthAdjust="spacing" textLength="74.4136" x="1012.2" y="502.0605">HTTP (8000)</text></g><!--link fastapi_app to pg_db--><g id="link_fastapi_app_pg_db"><path d="M1129.44,707.16 C1116.9,762.09 1097.6451,846.4204 1085.1651,901.1004 " fill="none" id="fastapi_app-to-pg_db" style="stroke:#181818;stroke-width:1.0;"/><polygon fill="#181818" points="1083.83,906.95,1089.7324,899.0657,1084.9426,902.0754,1081.9329,897.2856,1083.83,906.95" style="stroke:#181818;stroke-width:1.0;"/><text fill="#000000" font-family="Roboto" font-size="13" lengthAdjust="spacing" textLength="110.8555" x="1117.2" y="775.5605">async SQLAlchemy</text><text fill="#000000" font-family="Roboto" font-size="13" lengthAdjust="spacing" textLength="29.2246" x="1158.0154" y="790.7949">5432</text></g><!--link fastapi_app to redis_db--><g id="link_fastapi_app_redis_db"><path d="M1089.77,707.12 C1070.37,722.52 1047.12,737.96 1023.2,747 C1003.17,754.57 944.48,742.37 927.2,755 C901.76,773.59 875.8968,848.3939 860.0868,901.0039 " fill="none" id="fastapi_app-to-redis_db" style="stroke:#181818;stroke-width:1.0;"/><polygon fill="#181818" points="858.36,906.75,864.781,899.282,859.799,901.9615,857.1194,896.9796,858.36,906.75" style="stroke:#181818;stroke-width:1.0;"/><text fill="#000000" font-family="Roboto" font-size="13" lengthAdjust="spacing" textLength="52.2856" x="928.2" y="775.5605">rq.Queue</text><text fill="#000000" font-family="Roboto" font-size="13" lengthAdjust="spacing" textLength="29.2246" x="939.7305" y="790.7949">6379</text></g><!--link fastapi_app to ollama_svc--><g id="link_fastapi_app_ollama_svc"><path d="M1197.48,707.03 C1211.82,721.18 1226,737.61 1236.2,755 C1263.97,802.35 1277.2293,858.3607 1284.1893,900.3707 " fill="none" id="fastapi_app-to-ollama_svc" style="stroke:#181818;stroke-width:1.0;"/><polygon fill="#181818" points="1285.17,906.29,1287.6452,896.7572,1284.3528,901.3572,1279.7528,898.0648,1285.17,906.29" style="stroke:#181818;stroke-width:1.0;"/><text fill="#000000" font-family="Roboto" font-size="13" lengthAdjust="spacing" textLength="32.9888" x="1259.971" y="775.5605">HTTP</text><text fill="#000000" font-family="Roboto" font-size="13" lengthAdjust="spacing" textLength="36.5308" x="1258.2" y="790.7949">11434</text></g><!--link rq_worker to redis_db--><g id="link_rq_worker_redis_db"><path d="M699.59,707.25 C706.85,735.64 717.99,771.95 733.2,802 C752.33,839.79 776.9607,873.4762 800.4007,902.1262 " fill="none" id="rq_worker-to-redis_db" style="stroke:#181818;stroke-width:1.0;"/><polygon fill="#181818" points="804.2,906.77,801.5969,897.2714,801.0339,902.9002,795.4051,902.3372,804.2,906.77" style="stroke:#181818;stroke-width:1.0;"/><text fill="#000000" font-family="Roboto" font-size="13" lengthAdjust="spacing" textLength="49.7339" x="734.2" y="775.5605">dequeue</text><text fill="#000000" font-family="Roboto" font-size="13" lengthAdjust="spacing" textLength="29.2246" x="744.4546" y="790.7949">6379</text></g><!--link rq_worker to pg_db--><g id="link_rq_worker_pg_db"><path d="M740.91,707.02 C756.55,721.93 773.48,738.76 788.2,755 C806.06,774.7 801.67,789.63 825.2,802 C849.64,814.85 924.47,797.71 949.2,810 C991.51,831.03 1022.0901,868.5328 1043.6601,901.8628 " fill="none" id="rq_worker-to-pg_db" style="stroke:#181818;stroke-width:1.0;"/><polygon fill="#181818" points="1046.92,906.9,1045.3883,897.171,1044.2034,902.7024,1038.6721,901.5175,1046.92,906.9" style="stroke:#181818;stroke-width:1.0;"/><text fill="#000000" font-family="Roboto" font-size="13" lengthAdjust="spacing" textLength="61.0645" x="826.2" y="775.5605">update job</text><text fill="#000000" font-family="Roboto" font-size="13" lengthAdjust="spacing" textLength="29.2246" x="842.1199" y="790.7949">5432</text></g><!--link rq_worker to openrouter_cloud--><g id="link_rq_worker_openrouter_cloud"><path d="M652.88,707.28 C638.09,722.9 619.65,738.45 599.2,747 C582.08,754.16 278.17,741.72 265.2,755 C221.97,799.28 239.7891,873.4041 255.5191,917.1341 " fill="none" id="rq_worker-to-openrouter_cloud" style="stroke:#181818;stroke-width:1.0;"/><polygon fill="#181818" points="257.55,922.78,258.2676,912.9573,255.8576,918.0751,250.7398,915.6651,257.55,922.78" style="stroke:#181818;stroke-width:1.0;"/><text fill="#000000" font-family="Roboto" font-size="13" lengthAdjust="spacing" textLength="40.7075" x="295.98" y="768.0605">HTTPS</text><text fill="#000000" font-family="Roboto" font-size="13" lengthAdjust="spacing" textLength="100.2676" x="266.2" y="783.2949">LLM completions</text><text fill="#000000" font-family="Roboto" font-size="13" lengthAdjust="spacing" textLength="52.8696" x="289.899" y="798.5293">(primary)</text></g><!--link rq_worker to ollama_svc--><g id="link_rq_worker_ollama_svc"><path d="M751.44,707.08 C775.42,722.67 803.88,738.26 832.2,747 C864.73,757.04 954.77,739.73 985.2,755 C1009.46,767.18 999.98,789.74 1024.2,802 C1051.21,815.67 1132.87,796.97 1160.2,810 C1203.74,830.76 1236.1039,868.1674 1259.1939,901.5074 " fill="none" id="rq_worker-to-ollama_svc" style="stroke:#181818;stroke-width:1.0;stroke-dasharray:7.0,7.0;"/><polygon fill="#181818" points="1262.61,906.44,1260.7742,896.7637,1259.7632,902.3295,1254.1975,901.3186,1262.61,906.44" style="stroke:#181818;stroke-width:1.0;"/><text fill="#000000" font-family="Roboto" font-size="13" lengthAdjust="spacing" textLength="32.9888" x="1045.8331" y="775.5605">HTTP</text><text fill="#000000" font-family="Roboto" font-size="13" lengthAdjust="spacing" textLength="74.2549" x="1025.2" y="790.7949">LLM fallback</text></g><!--link rq_worker to minio_db--><g id="link_rq_worker_minio_db"><path d="M659.95,707.48 C651.89,722.27 643.82,738.92 638.2,755 C620.64,805.26 611.942,859.85 607.192,900.76 " fill="none" id="rq_worker-to-minio_db" style="stroke:#181818;stroke-width:1.0;stroke-dasharray:7.0,7.0;"/><polygon fill="#181818" points="606.5,906.72,611.5113,898.2414,607.0767,901.7534,603.5647,897.3187,606.5,906.72" style="stroke:#181818;stroke-width:1.0;"/><text fill="#000000" font-family="Roboto" font-size="13" lengthAdjust="spacing" textLength="53.46" x="639.2" y="775.5605">[Phase 5]</text><text fill="#000000" font-family="Roboto" font-size="13" lengthAdjust="spacing" textLength="38.4668" x="646.6966" y="790.7949">S3 API</text></g><!--link pwa_client to authentik_cloud--><g id="link_pwa_client_authentik_cloud"><path d="M203.88,145.43 C177.48,162.59 149.82,185.94 134.2,215 C6,453.51 55.2322,793.925 77.0322,908.895 " fill="none" id="pwa_client-to-authentik_cloud" style="stroke:#181818;stroke-width:1.0;"/><polygon fill="#181818" points="78.15,914.79,80.4033,905.2024,77.2185,909.8775,72.5434,906.6927,78.15,914.79" style="stroke:#181818;stroke-width:1.0;"/><text fill="#000000" font-family="Roboto" font-size="13" lengthAdjust="spacing" textLength="86.436" x="57.2" y="502.0605">OIDC auth flow</text></g><!--link fastapi_app to authentik_cloud--><g id="link_fastapi_app_authentik_cloud"><path d="M1091.24,707.12 C1071.66,722.92 1047.9,738.64 1023.2,747 C991.78,757.64 457.24,743.31 426.2,755 C396.11,766.33 401.13,790.26 371.2,802 C350.7,810.04 192.16,798.81 173.2,810 C134.31,832.95 112.7043,875.0837 100.0643,909.2037 " fill="none" id="fastapi_app-to-authentik_cloud" style="stroke:#181818;stroke-width:1.0;"/><polygon fill="#181818" points="97.98,914.83,104.8574,907.78,99.7169,910.1414,97.3556,905.001,97.98,914.83" style="stroke:#181818;stroke-width:1.0;"/><text fill="#000000" font-family="Roboto" font-size="13" lengthAdjust="spacing" textLength="124.3506" x="459.6746" y="775.5605">OIDC token validation</text><text fill="#000000" font-family="Roboto" font-size="13" lengthAdjust="spacing" textLength="189.2998" x="427.2" y="790.7949">[prod; dev uses token-as-subject]</text></g><!--link worker_container to GMN34--><g id="link_worker_container_GMN34"><path d="M569.4054,529.7676 C569.5079,529.5023 569.6113,529.2376 569.7158,528.9734 C576.4,512.07 587.1,497.6425 603.7,489 C666.28,456.42 1170.04,472.77 1238.7,489 C1335.73,511.93 1436.61,567.11 1502.93,608.42 " fill="none" id="worker_container-GMN34" style="stroke:#181818;stroke-width:1.0;stroke-dasharray:7.0,7.0;"/></g><!--link minio_container to GMN37--><g id="link_minio_container_GMN37"><path d="M485.0892,825.5581 C485.1842,825.2766 485.2801,824.9955 485.3771,824.715 C485.7647,823.5929 486.1677,822.479 486.5864,821.3741 C493.2862,803.695 504.025,788.3125 520.7,778.5 C601.72,730.83 1278.9,744.93 1366.7,778.5 C1440.06,806.55 1503.32,876.01 1537.09,918.8 " fill="none" id="minio_container-GMN37" style="stroke:#181818;stroke-width:1.0;stroke-dasharray:7.0,7.0;"/></g><!--SRC=[fLTRRnf757xdLnpXXnZ52pZOkH2r4k7Ik79YnpYDMXEXONU0ZPUPzSoi7Lhbl_Sxixkm1aUgL6CmEtFkvpiNFwDV_iTFxHaDP9hezKegHt_4yg5Bx_LA9c8Mp6DZ7GrqU2iDHHigiFJ_lA1UT8-7pCZQCvoCTMP2IVCuaRQBPw98XxQL9aAfM2rQ8ZBy3jhjas1PbHzi1JTNqHESJeRBmAOon3NHuPcQ6s6ToKBMJLQ6BjQguHdxvxtFWo7J7UPM7z6bK0kTn8h-baO7OBFkY7gPMq9VV7lalLl8XlVXetQoInzYTNP1TgaV50bBtWu9YP6SIsFmxN8fhAJJHXCi_olqDNiRgrGOiK9qvo9Bt4Whzr6i9DMlz4mxNQ-Gp0GiDJfJKLydsj31gCUl2aLnQHJIzRfMKpg2e95OnSaQIRwFGsadwcPcz8ELnXwH4xD4Elkrpdv6EG4T33kZ5wC1_LCZ2lKgrOg1KR_yqfkemoifGaV7RsXysMjCr5WQPg8lsY3O4_MSpbGalyjeyCxBJ1_4D4nY5d0m60o7er7jHwqM9ZgBg7wHIdMbCmTZUvTd4xLqBhNTLalZtFZpfeYzcEt9DESz67M6fwFJKj8cdV3kucpGfzJe-pYIvYkavbWZ1CnJUu6YP2Zb3TkZLmXb4R82_yJkiLitHGayBz02iOUzmHLZkU7bbKeEXgz7fyCtY1s2byigyGSfVsqGI4P2C404Gx-l9-fQn8aDHIAfHNssQ9u8OFiw0_AIF3rfYUE3VdyuxFTzVXvbwFfyJ0ZHAbQ2AsAYtbzVNuuf-9LYXNCb4k8JByqbjXG4CJ-svePh7J3Gf8gsVeT0fOWLXw9otqs4azRbvXLdqmqf7RnxCHWDtktREKBr8k4aqXHnp00W8FQ8KcqSlMwtsy2LDM4BcgQYR34jQDOeliIxXaIWx3CJkpLz-EBrpo5KfF4KGalDkth73imX0SXWiC0zj5lES4IpDHLMJHI0OYNNavEa5h7wdgVOUkvfpbbHiHExXw8IVXAw_FfHvFAZQk168y2xlH-ugq-RGbj8KFfOj7B-PWeO2RjMuH4bMYq2a_dkEL5A8_ypxWpRz9kxQSvMAjjt9DNMBOnl6Fkkb9VTuvU1I58S5Y0jpdUyUJqyBho917eETy_wPKuw_dHEnozP8h9_Uj9vCL5lyhu4pRr4hcP8sIfUvCxQNCjY6irAmVkMeqN7JvljRxgl7fdipwhs3jlyshFtYkdeLM7foywhDnE5X7pJCxhBP2O19aGwHLN7rac5fcZaNHP3VAEYX-tE5UpRhPD4hCIJXkTNhVpF8_JaHu_ZFNmt7EwZvw8Gx-q_FZxfd4nKej5qwFpy0-edIRY6uSPlbvyfdfEuHrFYH3IgYknzMAhOzm2j9zPqKqxCOav-VT8bJzlodxad_kj_I8GVpnWzdO2T0onW8XwTDkkPrhSqIv0IYqUnm3cU5bCZvr2TP2jLqRIR2lm-eo08wADqN1mqJp0d-QHM6MC1sYatpowcX6-lXoSddKQzncTyL-r31GqT-gvMhrNlc3R7CQXytH9AePU4Ixb29NCbx3DiC0GUSzVybEEEiRXFMybNOST4-QpNQzlgtnKQoRkgpCU46tEpDEBc2EYNXZuct1lNPR0cYg76QSFQmUKCjAKcNWcpRbI5D9jFsry5wYxz9gcWljaYRzpXvQA-cyBT1G1CVd7WSv_u_O3-ZCLf33ww5qaS5NFt1bCzUiiB5MKM6vMd28GDR3RxXdNrQvqN3KJGn8kb8ptVcm50vFLI5iU4LcxHmqbi1rELqkf77P-siu4EE-tW-4NRDh1II-jhrN61XBS4PpWo97d2Ge1EcxZFvmi930k-j4jUGvZKybAAJ2qag30YHNw7qOb8lots8be91GhB7ENsY3mWZk5jiuRrWFNBNUTt2X-CUVgEkzjQXg9OOVkHNB-_Zoy-ykY5WxOi-odlKt2voIpDZOpJSftVzXKHHJ9w2mgchBG61DSXLGJ4Q9yckfNhFQknb3kzOhEtY69jcwM2Ge4QzYk5BRRZF8sWEkJmplHtkey5tau6QP9XnGWWgy56RxRdt6cU6YBYdFBsWN-kD4lHyxcF1DhikaaNnTC3jY6PZoBG6CctbaDa97nNxCz3373xV4_Z24JOa94W7bPLF_y5]--></g></svg>
