<svg xmlns="http://www.w3.org/2000/svg" xmlns:xlink="http://www.w3.org/1999/xlink" contentStyleType="text/css" height="1435px" preserveAspectRatio="none" style="width:1555px;height:1435px;background:#FAFAFA;" version="1.1" viewBox="0 0 1555 1435" width="1555px" zoomAndPan="magnify"><title>Guardian + Admin Surface Journey</title><defs><style type="text/css">@import url('https://fonts.googleapis.com/css?family=Roboto:400,100,100italic,300,300italic,400italic,500,500italic,700,700italic,900,900italic');</style><filter height="1" id="bih8jmetx2xrr0" width="1" x="0" y="0"><feFlood flood-color="#FFFDF8" result="flood"/><feComposite in="SourceGraphic" in2="flood" operator="over"/></filter><filter height="1" id="bih8jmetx2xrr1" width="1" x="0" y="0"><feFlood flood-color="#F3D9D4" result="flood"/><feComposite in="SourceGraphic" in2="flood" operator="over"/></filter></defs><g><rect fill="#FAFAFA" height="1435" style="stroke:none;stroke-width:1.0;" width="1555" x="0" y="0"/><text fill="#000000" font-family="Roboto" font-size="14" font-weight="bold" lengthAdjust="spacing" textLength="219.625" x="666.5842" y="32.9883">Guardian + Admin Surface Journey</text><text fill="#000000" font-family="Roboto" font-size="14" font-weight="bold" lengthAdjust="spacing" textLength="392.9092" x="579.9421" y="49.3945">("/guardian"; rose = planned. Approve is admin-only, ADR-005)</text><rect fill="none" height="21.0938" style="stroke:none;stroke-width:1.0;" width="1526.7935" x="11" y="66.707"/><rect fill="#CDDCEC" height="1219.0566" style="stroke:#CDDCEC;stroke-width:1.0;" width="550.2786" x="28" y="66.707"/><ellipse cx="136.0977" cy="102.8008" fill="#222222" rx="10" ry="10" style="stroke:#222222;stroke-width:1.0;"/><path d="M239.9785,151.2773 L239.9785,159.8945 L219.9785,163.8945 L239.9785,167.8945 L239.9785,176.5117 A0,0 0 0 0 239.9785,176.5117 L413.7476,176.5117 A0,0 0 0 0 413.7476,176.5117 L413.7476,161.2773 L403.7476,151.2773 L239.9785,151.2773 A0,0 0 0 0 239.9785,151.2773 " fill="#F1E9D8" style="stroke:#C9B48F;stroke-width:0.5;"/><path d="M403.7476,151.2773 L403.7476,161.2773 L413.7476,161.2773 L403.7476,151.2773 " fill="#F1E9D8" style="stroke:#C9B48F;stroke-width:0.5;"/><text fill="#000000" font-family="Roboto" font-size="13" lengthAdjust="spacing" textLength="152.769" x="245.9785" y="168.3379">/guardian/login  &#8226;  shipped</text><rect fill="#FFFDF8" height="62.1875" rx="5" ry="5" style="stroke:#8C6F56;stroke-width:0.5;" width="167.7617" x="52.2168" y="132.8008"/><text fill="#000000" font-family="Roboto" font-size="12" lengthAdjust="spacing" textLength="35.9297" x="62.2168" y="153.9336">Sign in</text><text fill="#000000" font-family="Roboto" font-size="12" lengthAdjust="spacing" textLength="147.7617" x="62.2168" y="167.9961">(email/password or Google,</text><text fill="#000000" font-family="Roboto" font-size="12" lengthAdjust="spacing" textLength="116.5723" x="62.2168" y="182.0586">Apple if the flag is on)</text><rect fill="#FFFDF8" height="34.0625" rx="5" ry="5" style="stroke:#8C6F56;stroke-width:0.5;" width="129.2832" x="71.4561" y="214.9883"/><text fill="#000000" font-family="Roboto" font-size="12" lengthAdjust="spacing" textLength="109.2832" x="81.4561" y="236.1211">Land on the Console</text><path d="M236.8291,280.4961 L236.8291,289.1133 L216.8291,293.1133 L236.8291,297.1133 L236.8291,305.7305 A0,0 0 0 0 236.8291,305.7305 L425.9468,305.7305 A0,0 0 0 0 425.9468,305.7305 L425.9468,290.4961 L415.9468,280.4961 L236.8291,280.4961 A0,0 0 0 0 236.8291,280.4961 " fill="#F1E9D8" style="stroke:#C9B48F;stroke-width:0.5;"/><path d="M415.9468,280.4961 L415.9468,290.4961 L425.9468,290.4961 L415.9468,280.4961 " fill="#F1E9D8" style="stroke:#C9B48F;stroke-width:0.5;"/><text fill="#000000" font-family="Roboto" font-size="13" lengthAdjust="spacing" textLength="168.1177" x="242.8291" y="297.5566">/guardian/profiles  &#8226;  shipped</text><rect fill="#FFFDF8" height="48.125" rx="5" ry="5" style="stroke:#8C6F56;stroke-width:0.5;" width="161.4629" x="55.3662" y="269.0508"/><text fill="#000000" font-family="Roboto" font-size="12" lengthAdjust="spacing" textLength="141.4629" x="65.3662" y="290.1836">Add or edit a child's profile</text><text fill="#000000" font-family="Roboto" font-size="12" lengthAdjust="spacing" textLength="121.1016" x="65.3662" y="304.2461">(name + preset avatar)</text><path d="M258.1953,341.5898 L258.1953,350.207 L238.1953,354.207 L258.1953,358.207 L258.1953,366.8242 A0,0 0 0 0 258.1953,366.8242 L515.6328,366.8242 A0,0 0 0 0 515.6328,366.8242 L515.6328,351.5898 L505.6328,341.5898 L258.1953,341.5898 A0,0 0 0 0 258.1953,341.5898 " fill="#F1E9D8" style="stroke:#C9B48F;stroke-width:0.5;"/><path d="M505.6328,341.5898 L505.6328,351.5898 L515.6328,351.5898 L505.6328,341.5898 " fill="#F1E9D8" style="stroke:#C9B48F;stroke-width:0.5;"/><text fill="#000000" font-family="Roboto" font-size="13" lengthAdjust="spacing" textLength="236.4375" x="264.1953" y="358.6504">planned (inbound child request-approval)</text><rect fill="#F3D9D4" height="34.0625" rx="5" ry="5" style="stroke:#8C6F56;stroke-width:0.5;" width="204.1953" x="34" y="337.1758"/><text fill="#000000" font-family="Roboto" font-size="12" lengthAdjust="spacing" textLength="184.1953" x="44" y="358.3086">Approve a story my child asked for</text><path d="M239.7031,402.6836 L239.7031,411.3008 L219.7031,415.3008 L239.7031,419.3008 L239.7031,427.918 A0,0 0 0 0 239.7031,427.918 L420.4038,427.918 A0,0 0 0 0 420.4038,427.918 L420.4038,412.6836 L410.4038,402.6836 L239.7031,402.6836 A0,0 0 0 0 239.7031,402.6836 " fill="#F1E9D8" style="stroke:#C9B48F;stroke-width:0.5;"/><path d="M410.4038,402.6836 L410.4038,412.6836 L420.4038,412.6836 L410.4038,402.6836 " fill="#F1E9D8" style="stroke:#C9B48F;stroke-width:0.5;"/><text fill="#000000" font-family="Roboto" font-size="13" lengthAdjust="spacing" textLength="159.7007" x="245.7031" y="419.7441">/guardian/intake  &#8226;  shipped</text><rect fill="#FFFDF8" height="48.125" rx="5" ry="5" style="stroke:#8C6F56;stroke-width:0.5;" width="167.2109" x="52.4922" y="391.2383"/><text fill="#000000" font-family="Roboto" font-size="12" lengthAdjust="spacing" textLength="147.2109" x="62.4922" y="412.3711">Request a story from Intake</text><text fill="#000000" font-family="Roboto" font-size="12" lengthAdjust="spacing" textLength="143.0566" x="62.4922" y="426.4336">("Who's it for?", topic, tone)</text><path d="M222.9248,470.8086 L222.9248,479.4258 L202.9248,483.4258 L222.9248,487.4258 L222.9248,496.043 A0,0 0 0 0 222.9248,496.043 L402.6479,496.043 A0,0 0 0 0 402.6479,496.043 L402.6479,480.8086 L392.6479,470.8086 L222.9248,470.8086 A0,0 0 0 0 222.9248,470.8086 " fill="#F1E9D8" style="stroke:#C9B48F;stroke-width:0.5;"/><path d="M392.6479,470.8086 L392.6479,480.8086 L402.6479,480.8086 L392.6479,470.8086 " fill="#F1E9D8" style="stroke:#C9B48F;stroke-width:0.5;"/><text fill="#000000" font-family="Roboto" font-size="13" lengthAdjust="spacing" textLength="158.7231" x="228.9248" y="487.8691">intake job status  &#8226;  shipped</text><rect fill="#FFFDF8" height="48.125" rx="5" ry="5" style="stroke:#8C6F56;stroke-width:0.5;" width="133.6543" x="69.2705" y="459.3633"/><text fill="#000000" font-family="Roboto" font-size="12" lengthAdjust="spacing" textLength="113.6543" x="79.2705" y="480.4961">Watch "My Requests"</text><text fill="#000000" font-family="Roboto" font-size="12" lengthAdjust="spacing" textLength="107.1504" x="79.2705" y="494.5586">show "Generating..."</text><path d="M235.543,978.3887 L235.543,987.0059 L215.543,991.0059 L235.543,995.0059 L235.543,1003.623 A0,0 0 0 0 235.543,1003.623 L357.8135,1003.623 A0,0 0 0 0 357.8135,1003.623 L357.8135,988.3887 L347.8135,978.3887 L235.543,978.3887 A0,0 0 0 0 235.543,978.3887 " fill="#F1E9D8" style="stroke:#C9B48F;stroke-width:0.5;"/><path d="M347.8135,978.3887 L347.8135,988.3887 L357.8135,988.3887 L347.8135,978.3887 " fill="#F1E9D8" style="stroke:#C9B48F;stroke-width:0.5;"/><text fill="#000000" font-family="Roboto" font-size="13" lengthAdjust="spacing" textLength="101.2705" x="241.543" y="995.4492">assign  &#8226;  shipped</text><rect fill="#FFFDF8" height="48.125" rx="5" ry="5" style="stroke:#8C6F56;stroke-width:0.5;" width="158.8906" x="56.6523" y="966.9434"/><text fill="#000000" font-family="Roboto" font-size="12" lengthAdjust="spacing" textLength="138.8906" x="66.6523" y="988.0762">Assign the approved story</text><text fill="#000000" font-family="Roboto" font-size="12" lengthAdjust="spacing" textLength="111.709" x="66.6523" y="1002.1387">to the child it was for</text><path d="M255.585,1094.959 L255.585,1103.5762 L235.585,1107.5762 L255.585,1111.5762 L255.585,1120.1934 A0,0 0 0 0 255.585,1120.1934 L463.6567,1120.1934 A0,0 0 0 0 463.6567,1120.1934 L463.6567,1104.959 L453.6567,1094.959 L255.585,1094.959 A0,0 0 0 0 255.585,1094.959 " fill="#F1E9D8" style="stroke:#C9B48F;stroke-width:0.5;"/><path d="M453.6567,1094.959 L453.6567,1104.959 L463.6567,1104.959 L453.6567,1094.959 " fill="#F1E9D8" style="stroke:#C9B48F;stroke-width:0.5;"/><text fill="#000000" font-family="Roboto" font-size="13" lengthAdjust="spacing" textLength="187.0718" x="261.585" y="1112.0195">AssignChildrenDialog  &#8226;  shipped</text><rect fill="#FFFDF8" height="48.125" rx="5" ry="5" style="stroke:#8C6F56;stroke-width:0.5;" width="198.9746" x="36.6104" y="1083.5137"/><text fill="#000000" font-family="Roboto" font-size="12" lengthAdjust="spacing" textLength="143.2969" x="46.6104" y="1104.6465">"Assign more" -&gt; pick more</text><text fill="#000000" font-family="Roboto" font-size="12" lengthAdjust="spacing" textLength="178.9746" x="46.6104" y="1118.709">children (adds only the new ones)</text><polygon fill="#F8F3E8" points="82.3276,1035.0684,189.8677,1035.0684,201.8677,1047.0684,189.8677,1059.0684,82.3276,1059.0684,70.3276,1047.0684,82.3276,1035.0684" style="stroke:#8C6F56;stroke-width:0.5;"/><text fill="#5A3E28" font-family="Roboto" font-size="11" lengthAdjust="spacing" textLength="16.7148" x="140.0977" y="1069.2734">yes</text><text fill="#000000" font-family="Roboto" font-size="11" lengthAdjust="spacing" textLength="107.54" x="82.3276" y="1050.8281">Give it to siblings too?</text><text fill="#5A3E28" font-family="Roboto" font-size="11" lengthAdjust="spacing" textLength="12.3481" x="201.8677" y="1044.3828">no</text><polygon fill="#F8F3E8" points="136.0977,1151.6387,148.0977,1163.6387,136.0977,1175.6387,124.0977,1163.6387,136.0977,1151.6387" style="stroke:#8C6F56;stroke-width:0.5;"/><path d="M244.376,1207.084 L244.376,1215.7012 L224.376,1219.7012 L244.376,1223.7012 L244.376,1232.3184 A0,0 0 0 0 244.376,1232.3184 L414.5459,1232.3184 A0,0 0 0 0 414.5459,1232.3184 L414.5459,1217.084 L404.5459,1207.084 L244.376,1207.084 A0,0 0 0 0 244.376,1207.084 " fill="#F1E9D8" style="stroke:#C9B48F;stroke-width:0.5;"/><path d="M404.5459,1207.084 L404.5459,1217.084 L414.5459,1217.084 L404.5459,1207.084 " fill="#F1E9D8" style="stroke:#C9B48F;stroke-width:0.5;"/><text fill="#000000" font-family="Roboto" font-size="13" lengthAdjust="spacing" textLength="149.1699" x="250.376" y="1224.1445">crosses to the kid surface</text><rect fill="#FFFDF8" height="48.125" rx="5" ry="5" style="stroke:#8C6F56;stroke-width:0.5;" width="176.5566" x="47.8193" y="1195.6387"/><text fill="#000000" font-family="Roboto" font-size="12" lengthAdjust="spacing" textLength="156.5566" x="57.8193" y="1216.7715">The child's avatar now shows</text><text fill="#000000" font-family="Roboto" font-size="12" lengthAdjust="spacing" textLength="94.8516" x="57.8193" y="1230.834">"new story ready!"</text><ellipse cx="136.0977" cy="1274.7637" fill="none" rx="11" ry="11" style="stroke:#222222;stroke-width:1.0;"/><ellipse cx="136.0977" cy="1274.7637" fill="#222222" rx="6" ry="6" style="stroke:#222222;stroke-width:1.0;"/><line style="stroke:#000000;stroke-width:1.5;" x1="28" x2="28" y1="66.707" y2="1285.7637"/><rect fill="#C5D9CC" height="1219.0566" style="stroke:#C5D9CC;stroke-width:1.0;" width="573.9243" x="530.6328" y="66.707"/><path d="M723.791,668.1523 L723.791,676.7695 L703.791,680.7695 L723.791,684.7695 L723.791,693.3867 A0,0 0 0 0 723.791,693.3867 L926.6387,693.3867 A0,0 0 0 0 926.6387,693.3867 L926.6387,678.1523 L916.6387,668.1523 L723.791,668.1523 A0,0 0 0 0 723.791,668.1523 " fill="#F1E9D8" style="stroke:#C9B48F;stroke-width:0.5;"/><path d="M916.6387,668.1523 L916.6387,678.1523 L926.6387,678.1523 L916.6387,668.1523 " fill="#F1E9D8" style="stroke:#C9B48F;stroke-width:0.5;"/><text fill="#000000" font-family="Roboto" font-size="13" lengthAdjust="spacing" textLength="181.8477" x="729.791" y="685.2129">/guardian  (Console)  &#8226;  shipped</text><rect fill="#FFFDF8" height="62.1875" rx="5" ry="5" style="stroke:#8C6F56;stroke-width:0.5;" width="141.1309" x="562.6602" y="649.6758"/><text fill="#000000" font-family="Roboto" font-size="12" lengthAdjust="spacing" textLength="121.1309" x="572.6602" y="670.8086">Open the review queue</text><text fill="#000000" font-family="Roboto" font-size="12" lengthAdjust="spacing" textLength="113.7246" x="572.6602" y="684.8711">(Flagged, then Ready,</text><text fill="#000000" font-family="Roboto" font-size="12" lengthAdjust="spacing" textLength="112.4238" x="572.6602" y="698.9336">then Still processing)</text><path d="M747.0908,765.3398 L747.0908,773.957 L727.0908,777.957 L747.0908,781.957 L747.0908,790.5742 A0,0 0 0 0 747.0908,790.5742 L949.0688,790.5742 A0,0 0 0 0 949.0688,790.5742 L949.0688,775.3398 L939.0688,765.3398 L747.0908,765.3398 A0,0 0 0 0 747.0908,765.3398 " fill="#F1E9D8" style="stroke:#C9B48F;stroke-width:0.5;"/><path d="M939.0688,765.3398 L939.0688,775.3398 L949.0688,775.3398 L939.0688,765.3398 " fill="#F1E9D8" style="stroke:#C9B48F;stroke-width:0.5;"/><text fill="#000000" font-family="Roboto" font-size="13" lengthAdjust="spacing" textLength="180.978" x="753.0908" y="782.4004">/guardian/review/:id  &#8226;  shipped</text><rect fill="#FFFDF8" height="62.1875" rx="5" ry="5" style="stroke:#8C6F56;stroke-width:0.5;" width="187.7305" x="539.3604" y="746.8633"/><text fill="#000000" font-family="Roboto" font-size="12" lengthAdjust="spacing" textLength="167.7305" x="549.3604" y="767.9961">Open a story: flagged passages</text><text fill="#000000" font-family="Roboto" font-size="12" lengthAdjust="spacing" textLength="112.7578" x="549.3604" y="782.0586">first, then the full text</text><text fill="#000000" font-family="Roboto" font-size="12" lengthAdjust="spacing" textLength="145.4355" x="549.3604" y="796.1211">with flags highlighted inline</text><rect fill="#FFFDF8" height="34.0625" rx="5" ry="5" style="stroke:#8C6F56;stroke-width:0.5;" width="152" x="557.2256" y="595.6133"/><text fill="#000000" font-family="Roboto" font-size="12" lengthAdjust="spacing" textLength="132" x="567.2256" y="616.7461">pick the top of the queue</text><polygon fill="#F8F3E8" points="593.8582,829.0508,672.593,829.0508,684.593,841.0508,672.593,853.0508,593.8582,853.0508,581.8582,841.0508,593.8582,829.0508" style="stroke:#8C6F56;stroke-width:0.5;"/><text fill="#5A3E28" font-family="Roboto" font-size="11" lengthAdjust="spacing" textLength="70.4634" x="637.2256" y="863.2559">yes -&gt; approve</text><text fill="#000000" font-family="Roboto" font-size="11" lengthAdjust="spacing" textLength="78.7349" x="593.8582" y="844.8105">Safe for a child?</text><text fill="#5A3E28" font-family="Roboto" font-size="11" lengthAdjust="spacing" textLength="12.3481" x="684.593" y="838.3652">no</text><rect fill="#FFFDF8" height="48.125" rx="5" ry="5" style="stroke:#8C6F56;stroke-width:0.5;" width="141.4883" x="959.0688" y="700.2695"/><text fill="#000000" font-family="Roboto" font-size="12" lengthAdjust="spacing" textLength="117.1758" x="969.0688" y="721.4023">Send back with a note</text><text fill="#000000" font-family="Roboto" font-size="12" lengthAdjust="spacing" textLength="121.4883" x="969.0688" y="735.4648">-&gt; the story is rewritten</text><rect fill="#FFFDF8" height="62.1875" rx="5" ry="5" style="stroke:#8C6F56;stroke-width:0.5;" width="193.1855" x="536.6328" y="884.7559"/><text fill="#000000" font-family="Roboto" font-size="12" lengthAdjust="spacing" textLength="44.3906" x="546.6328" y="905.8887">Approve</text><text fill="#000000" font-family="Roboto" font-size="12" lengthAdjust="spacing" textLength="173.1855" x="546.6328" y="919.9512">(recorded human gate, ADR-005.</text><text fill="#000000" font-family="Roboto" font-size="12" lengthAdjust="spacing" textLength="128.1855" x="546.6328" y="934.0137">Guardians get 403 here)</text><line style="stroke:#000000;stroke-width:1.5;" x1="530.6328" x2="530.6328" y1="66.707" y2="1285.7637"/><rect fill="#E4E4E4" height="1219.0566" style="stroke:#E4E4E4;stroke-width:1.0;" width="404.2363" x="1119.5571" y="66.707"/><path d="M1273.1704,531.3164 L1273.1704,547.5508 L1253.1704,551.5508 L1273.1704,555.5508 L1273.1704,571.7852 A0,0 0 0 0 1273.1704,571.7852 L1511.7935,571.7852 A0,0 0 0 0 1511.7935,571.7852 L1511.7935,541.3164 L1501.7935,531.3164 L1273.1704,531.3164 A0,0 0 0 0 1273.1704,531.3164 " fill="#F1E9D8" style="stroke:#C9B48F;stroke-width:0.5;"/><path d="M1501.7935,531.3164 L1501.7935,541.3164 L1511.7935,541.3164 L1501.7935,531.3164 " fill="#F1E9D8" style="stroke:#C9B48F;stroke-width:0.5;"/><text fill="#000000" font-family="Roboto" font-size="13" lengthAdjust="spacing" textLength="217.623" x="1279.1704" y="548.377">generation + validator gate  &#8226;  shipped</text><text fill="#000000" font-family="Roboto" font-size="13" lengthAdjust="spacing" textLength="124.5791" x="1279.1704" y="563.6113">detail: seq-generation</text><rect fill="#FFFDF8" height="48.125" rx="5" ry="5" style="stroke:#8C6F56;stroke-width:0.5;" width="127.6133" x="1125.5571" y="527.4883"/><text fill="#000000" font-family="Roboto" font-size="12" lengthAdjust="spacing" textLength="106.3418" x="1135.5571" y="548.6211">Write the story, then</text><text fill="#000000" font-family="Roboto" font-size="12" lengthAdjust="spacing" textLength="107.6133" x="1135.5571" y="562.6836">run the safety check</text><line style="stroke:#000000;stroke-width:1.5;" x1="1119.5571" x2="1119.5571" y1="66.707" y2="1285.7637"/><line style="stroke:#000000;stroke-width:1.5;" x1="1538.7935" x2="1538.7935" y1="66.707" y2="1285.7637"/><line style="stroke:#5A3E28;stroke-width:1.0;" x1="136.0977" x2="136.0977" y1="112.8008" y2="132.8008"/><polygon fill="#5A3E28" points="132.0977,122.8008,136.0977,132.8008,140.0977,122.8008,136.0977,126.8008" style="stroke:#5A3E28;stroke-width:1.0;"/><line style="stroke:#5A3E28;stroke-width:1.0;" x1="136.0977" x2="136.0977" y1="194.9883" y2="214.9883"/><polygon fill="#5A3E28" points="132.0977,204.9883,136.0977,214.9883,140.0977,204.9883,136.0977,208.9883" style="stroke:#5A3E28;stroke-width:1.0;"/><line style="stroke:#5A3E28;stroke-width:1.0;" x1="136.0977" x2="136.0977" y1="249.0508" y2="269.0508"/><polygon fill="#5A3E28" points="132.0977,259.0508,136.0977,269.0508,140.0977,259.0508,136.0977,263.0508" style="stroke:#5A3E28;stroke-width:1.0;"/><line style="stroke:#5A3E28;stroke-width:1.0;" x1="136.0977" x2="136.0977" y1="317.1758" y2="337.1758"/><polygon fill="#5A3E28" points="132.0977,327.1758,136.0977,337.1758,140.0977,327.1758,136.0977,331.1758" style="stroke:#5A3E28;stroke-width:1.0;"/><line style="stroke:#5A3E28;stroke-width:1.0;" x1="136.0977" x2="136.0977" y1="371.2383" y2="391.2383"/><polygon fill="#5A3E28" points="132.0977,381.2383,136.0977,391.2383,140.0977,381.2383,136.0977,385.2383" style="stroke:#5A3E28;stroke-width:1.0;"/><line style="stroke:#5A3E28;stroke-width:1.0;" x1="136.0977" x2="136.0977" y1="439.3633" y2="459.3633"/><polygon fill="#5A3E28" points="132.0977,449.3633,136.0977,459.3633,140.0977,449.3633,136.0977,453.3633" style="stroke:#5A3E28;stroke-width:1.0;"/><line style="stroke:#5A3E28;stroke-width:1.0;" x1="136.0977" x2="136.0977" y1="1059.0684" y2="1083.5137"/><polygon fill="#5A3E28" points="132.0977,1073.5137,136.0977,1083.5137,140.0977,1073.5137,136.0977,1077.5137" style="stroke:#5A3E28;stroke-width:1.0;"/><line style="stroke:#5A3E28;stroke-width:1.0;" x1="201.8677" x2="473.6567" y1="1047.0684" y2="1047.0684"/><polygon fill="#5A3E28" points="469.6567,1097.5762,473.6567,1107.5762,477.6567,1097.5762,473.6567,1101.5762" style="stroke:#5A3E28;stroke-width:1.0;"/><line style="stroke:#5A3E28;stroke-width:1.0;" x1="473.6567" x2="473.6567" y1="1047.0684" y2="1163.6387"/><line style="stroke:#5A3E28;stroke-width:1.0;" x1="473.6567" x2="148.0977" y1="1163.6387" y2="1163.6387"/><polygon fill="#5A3E28" points="158.0977,1159.6387,148.0977,1163.6387,158.0977,1167.6387,154.0977,1163.6387" style="stroke:#5A3E28;stroke-width:1.0;"/><line style="stroke:#5A3E28;stroke-width:1.0;" x1="136.0977" x2="136.0977" y1="1131.6387" y2="1151.6387"/><polygon fill="#5A3E28" points="132.0977,1141.6387,136.0977,1151.6387,140.0977,1141.6387,136.0977,1145.6387" style="stroke:#5A3E28;stroke-width:1.0;"/><line style="stroke:#5A3E28;stroke-width:1.0;" x1="136.0977" x2="136.0977" y1="1015.0684" y2="1035.0684"/><polygon fill="#5A3E28" points="132.0977,1025.0684,136.0977,1035.0684,140.0977,1025.0684,136.0977,1029.0684" style="stroke:#5A3E28;stroke-width:1.0;"/><line style="stroke:#5A3E28;stroke-width:1.0;" x1="136.0977" x2="136.0977" y1="1175.6387" y2="1195.6387"/><polygon fill="#5A3E28" points="132.0977,1185.6387,136.0977,1195.6387,140.0977,1185.6387,136.0977,1189.6387" style="stroke:#5A3E28;stroke-width:1.0;"/><line style="stroke:#5A3E28;stroke-width:1.0;" x1="136.0977" x2="136.0977" y1="1243.7637" y2="1263.7637"/><polygon fill="#5A3E28" points="132.0977,1253.7637,136.0977,1263.7637,140.0977,1253.7637,136.0977,1257.7637" style="stroke:#5A3E28;stroke-width:1.0;"/><line style="stroke:#5A3E28;stroke-width:1.0;" x1="633.2256" x2="633.2256" y1="711.8633" y2="746.8633"/><polygon fill="#5A3E28" points="629.2256,736.8633,633.2256,746.8633,637.2256,736.8633,633.2256,740.8633" style="stroke:#5A3E28;stroke-width:1.0;"/><line style="stroke:#5A3E28;stroke-width:1.0;" x1="633.2256" x2="633.2256" y1="629.6758" y2="649.6758"/><polygon fill="#5A3E28" points="629.2256,639.6758,633.2256,649.6758,637.2256,639.6758,633.2256,643.6758" style="stroke:#5A3E28;stroke-width:1.0;"/><line style="stroke:#5A3E28;stroke-width:1.0;" x1="684.593" x2="1029.813" y1="841.0508" y2="841.0508"/><line style="stroke:#5A3E28;stroke-width:1.0;" x1="1029.813" x2="1029.813" y1="748.3945" y2="841.0508"/><polygon fill="#5A3E28" points="1025.813,758.3945,1029.813,748.3945,1033.813,758.3945,1029.813,754.3945" style="stroke:#5A3E28;stroke-width:1.0;"/><line style="stroke:#5A3E28;stroke-width:1.0;" x1="1029.813" x2="1029.813" y1="612.6445" y2="700.2695"/><line style="stroke:#5A3E28;stroke-width:1.0;" x1="1029.813" x2="709.2256" y1="612.6445" y2="612.6445"/><polygon fill="#5A3E28" points="719.2256,608.6445,709.2256,612.6445,719.2256,616.6445,715.2256,612.6445" style="stroke:#5A3E28;stroke-width:1.0;"/><line style="stroke:#5A3E28;stroke-width:1.0;" x1="633.2256" x2="633.2256" y1="809.0508" y2="829.0508"/><polygon fill="#5A3E28" points="629.2256,819.0508,633.2256,829.0508,637.2256,819.0508,633.2256,823.0508" style="stroke:#5A3E28;stroke-width:1.0;"/><line style="stroke:#5A3E28;stroke-width:1.0;" x1="633.2256" x2="633.2256" y1="853.0508" y2="884.7559"/><polygon fill="#5A3E28" points="629.2256,874.7559,633.2256,884.7559,637.2256,874.7559,633.2256,878.7559" style="stroke:#5A3E28;stroke-width:1.0;"/><line style="stroke:#5A3E28;stroke-width:1.0;" x1="136.0977" x2="136.0977" y1="507.4883" y2="512.4883"/><line style="stroke:#5A3E28;stroke-width:1.0;" x1="136.0977" x2="1189.3638" y1="512.4883" y2="512.4883"/><line style="stroke:#5A3E28;stroke-width:1.0;" x1="1189.3638" x2="1189.3638" y1="512.4883" y2="527.4883"/><polygon fill="#5A3E28" points="1185.3638,517.4883,1189.3638,527.4883,1193.3638,517.4883,1189.3638,521.4883" style="stroke:#5A3E28;stroke-width:1.0;"/><line style="stroke:#5A3E28;stroke-width:1.0;" x1="1189.3638" x2="1189.3638" y1="575.6133" y2="580.6133"/><line style="stroke:#5A3E28;stroke-width:1.0;" x1="1189.3638" x2="633.2256" y1="580.6133" y2="580.6133"/><line style="stroke:#5A3E28;stroke-width:1.0;" x1="633.2256" x2="633.2256" y1="580.6133" y2="595.6133"/><polygon fill="#5A3E28" points="629.2256,585.6133,633.2256,595.6133,637.2256,585.6133,633.2256,589.6133" style="stroke:#5A3E28;stroke-width:1.0;"/><line style="stroke:#5A3E28;stroke-width:1.0;" x1="633.2256" x2="633.2256" y1="946.9434" y2="951.9434"/><line style="stroke:#5A3E28;stroke-width:1.0;" x1="633.2256" x2="136.0977" y1="951.9434" y2="951.9434"/><line style="stroke:#5A3E28;stroke-width:1.0;" x1="136.0977" x2="136.0977" y1="951.9434" y2="966.9434"/><polygon fill="#5A3E28" points="132.0977,956.9434,136.0977,966.9434,140.0977,956.9434,136.0977,960.9434" style="stroke:#5A3E28;stroke-width:1.0;"/><text fill="#000000" font-family="Roboto" font-size="18" lengthAdjust="spacing" textLength="72.334" x="238.1494" y="83.4063">Guardian</text><text fill="#000000" font-family="Roboto" font-size="18" lengthAdjust="spacing" textLength="51.9961" x="791.5969" y="83.4063">Admin</text><text fill="#000000" font-family="Roboto" font-size="18" lengthAdjust="spacing" textLength="59.7129" x="1288.3188" y="83.4063">System</text><rect fill="none" height="112.4375" id="_legend" rx="5" ry="5" style="stroke:#000000;stroke-width:1.0;" width="460.1738" x="546.3098" y="1297.7637"/><text fill="#000000" font-family="Roboto" font-size="14" font-weight="bold" lengthAdjust="spacing" textLength="33.2705" x="554.7961" y="1317.752">Node</text><text fill="#000000" font-family="Roboto" font-size="14" font-weight="bold" lengthAdjust="spacing" textLength="54.7285" x="602.3264" y="1317.752">Meaning</text><text fill="#000000" filter="url(#bih8jmetx2xrr0)" font-family="Roboto" font-size="14" lengthAdjust="spacing" textLength="33.6396" x="558.2551" y="1334.1582">white</text><text fill="#000000" font-family="Roboto" font-size="14" lengthAdjust="spacing" textLength="237.0498" x="602.3127" y="1334.1582">Shipped in the guardian console today</text><text fill="#000000" filter="url(#bih8jmetx2xrr1)" font-family="Roboto" font-size="14" lengthAdjust="spacing" textLength="27.3779" x="558.2551" y="1350.5645">rose</text><text fill="#000000" font-family="Roboto" font-size="14" lengthAdjust="spacing" textLength="129.6982" x="602.3127" y="1350.5645">Planned, not yet built</text><line style="stroke:#000000;stroke-width:1.0;" x1="551.3098" x2="842.8352" y1="1304.7637" y2="1304.7637"/><line style="stroke:#000000;stroke-width:1.0;" x1="551.3098" x2="842.8352" y1="1321.1699" y2="1321.1699"/><line style="stroke:#000000;stroke-width:1.0;" x1="551.3098" x2="842.8352" y1="1337.5762" y2="1337.5762"/><line style="stroke:#000000;stroke-width:1.0;" x1="551.3098" x2="842.8352" y1="1353.9824" y2="1353.9824"/><line style="stroke:#000000;stroke-width:1.0;" x1="551.3098" x2="551.3098" y1="1304.7637" y2="1353.9824"/><line style="stroke:#000000;stroke-width:1.0;" x1="598.8401" x2="598.8401" y1="1304.7637" y2="1353.9824"/><line style="stroke:#000000;stroke-width:1.0;" x1="842.8352" x2="842.8352" y1="1304.7637" y2="1353.9824"/><text fill="#000000" font-family="Roboto" font-size="14" lengthAdjust="spacing" textLength="58.8438" x="551.3098" y="1368.9707">Columns:</text><text fill="#000000" font-family="Roboto" font-size="14" font-weight="bold" lengthAdjust="spacing" textLength="56.9502" x="613.6262" y="1368.9707">Guardian</text><text fill="#000000" font-family="Roboto" font-size="14" lengthAdjust="spacing" textLength="179.04" x="674.0491" y="1368.9707">(request + assign + monitor),</text><text fill="#000000" font-family="Roboto" font-size="14" font-weight="bold" lengthAdjust="spacing" textLength="40.9951" x="856.5618" y="1368.9707">Admin</text><text fill="#000000" font-family="Roboto" font-size="14" lengthAdjust="spacing" textLength="82.4004" x="901.0295" y="1368.9707">(the ADR-005</text><text fill="#000000" font-family="Roboto" font-size="14" lengthAdjust="spacing" textLength="92.4492" x="551.3098" y="1385.377">approval gate),</text><text fill="#000000" font-family="Roboto" font-size="14" font-weight="bold" lengthAdjust="spacing" textLength="47.2637" x="647.2317" y="1385.377">System</text><text fill="#000000" font-family="Roboto" font-size="14" lengthAdjust="spacing" textLength="278.9883" x="697.968" y="1385.377">(generation + safety, behind the scenes). See</text><text fill="#000000" font-family="Roboto" font-size="14" lengthAdjust="spacing" textLength="450.1738" x="551.3098" y="1401.7832">journey-kid for the child side and journey-dev-coverage for test coverage.</text><!--SRC=[fLVTRjis5BxNKvov5xKNoqwRf4YLDeKN9q67jYlY5Xs6tj0IRNEHIPMauXhmnPvbZxOdsNSeoNz9UjCOWIpo_9_l_FWflVw9l-Wf_MNCN6RqsKaRNtulf5LIfvAkShD8wBeKDbD2qm4DihdID2hjHAGoUWhEZzPaPUhxd_-CqrnOvPSaSgzycKcQ64j-9gaGLceVWqVfAQL6EvDBQbjJUadUIaYYLdzQgsbrUlJ1CBlAyuGMCmMgr-HcgYXarYLh7ByNkT0QDhUryRIKdiQbodsd1rcVe5CKXJLtUAPU6KtAaM3ROwFp9RK7mvluyF2aSqQDLaSfF9mRhJoi7fUU12Grjtp9UfpC9t4ZkZtu-9QizAK5z_7X4Ui6pyYK5h5pAHpJBi49qSGQxQNE-iwc_U2txNdtdQYzrh29HaBhMFH_xTpdNr- -CrEbFugfP5bTkgW2kpcuaNTABeRI2vKtfpyGzrPxSRl5ZjGY1T9jJWREgQc-cAayGqQ7IkHckXQQcTJrGrQGvRx8BFzpbEEvq9b0M9VnhCJtEe0Yxysp3QSh0Rl2BAJ5zqBYvFdXynVnuOluw30kPiB9-5Z4SpE6IN6fueMoScB5NBeuasnM9Usd2Y42S87Cnm1FloErMYw_wlOMNC_s4DcZGGsG7T0XUZNeeiZTAesY47FAv4IKkRz2FZx05shTcB7nfhL5CXRfxHJeqDc5oO7D9rS3_cnHr9SmpTApmwqBDnEPMN3HJKJkvDRDm5gpgEMTY2Fv_7J_aarwb015TOTI_-sUQLTNmwi7AOtDfAsfJjCNavCN3r01KQZ0x9xOoUdaI9x-WE67qZyOB-zR-kpovV1qdsfRJlfoV7mwsOxcGisHOlb5PNv63kcAejMJY-7mul9YrM1cnKSdmvSN5wk07Nw_FERFQhHqNivNODeGEo-iZv8Hy4jAHsqvHwts2-7S0hOGxBWsPfhBRWHG0Pfg4Zhg91TJXfVHdRC8ZKcILTEPt-uSEJS7el_- -PUQtXabxr29O0eowdPn5g5guZYc4JfPaL1HLpsVHSaW2qR8JA4XKigL_zGrD55RCsOFy2uTEh2u4t3dKOlMadUDgjNVo6-bTAp5SQi8wfzS7GrV3e-Jfg2Qk_coCeM4kyK8m9pPrRcU3KgFEUSrjQrKhFiFAZ7PLulMEAUg4qRjrfUPWRlm7IhUjBhaJQ5IVcZvg9igCEz7_elmwOnQxvUDemurFZCBQbrBrAtmgD9UhzVQbLhB-jkCOPxmvRtOhK6LVB4y9pcnmP4kVzMHBQjaEp6HdgCcqzjT5TDQlU5sXw2eqAffAloU3rzr5YP9WYduBTwmDGaSr56jMDiFTRwGrAOkh2oay9GWehV1HWINJ8LlHAW4CecIFmfPUM33CAjkSD6-GWbCUHzWFn5KaIsxE0zl8u_LWL6QIamiFUsmg0Up1K5r7NJsGjlehe6HX9g3GkBYn4Hqe9WewtnjGIZB4cgz_Evnjr1e4ipZQ0QbEIi6jzAvql9HU_gLc_r4PNlsy1XOW2WPON27eL2f445G59zlSi-TmSe5084XVzO46eiKRrqZ825iPdKvl-amERQe3WkYzf9B_xpPdpfHKtnHsygK-sD6OOg7DAzJsukkrulK5Aq0wn3DfEKgQU0HTeSA0Pl-bzJ7VhEoPPKJaJVXj2fTbE12kFkLBYhstL2XIRQl5GzW3r2HKsF477dmni3Ra2rsiyCvRjK6p8sLBNOym97VS9lMcmwZEUDkYzsHRT808bg0kuUhXnQaFUCa1d48TuGygacKV6gSHAUfEYX4BeYRWujQhAfAgcM8_xBN85Bi7awoQy6mMy36rTivk8eeokKquCLuR-QmTlMwMgxnV2y5hsgqukDNZAYa7k3dLA_TzAhFv-Sh6bNc0xz1qMOnhhTvRpAnt1KLUZT4XVLeIzJ7gZjtQMTp3xmOlUKSIpEz6fyt807VENuir7twe4dvGREiTxfC7PfAHShsrR24IB7TbYhQgcTMn3ljh-gINHhBcKBGGa6baXFTmtXaHFnTRO0n1xhvULCXr2b4bSThGvB9kpW5dYsQHKNBzZSdFKv_bPpeVm00]--></g></svg>
