<svg xmlns="http://www.w3.org/2000/svg" xmlns:xlink="http://www.w3.org/1999/xlink" contentStyleType="text/css" height="2067px" preserveAspectRatio="none" style="width:1278px;height:2067px;background:#FAFAFA;" version="1.1" viewBox="0 0 1278 2067" width="1278px" zoomAndPan="magnify"><title>Kid-Surface Journey</title><defs><style type="text/css">@import url('https://fonts.googleapis.com/css?family=Roboto:400,100,100italic,300,300italic,400italic,500,500italic,700,700italic,900,900italic');</style><filter height="1" id="b1642mlu345cx0" width="1" x="0" y="0"><feFlood flood-color="#FFFDF8" result="flood"/><feComposite in="SourceGraphic" in2="flood" operator="over"/></filter><filter height="1" id="b1642mlu345cx1" width="1" x="0" y="0"><feFlood flood-color="#F3D9D4" result="flood"/><feComposite in="SourceGraphic" in2="flood" operator="over"/></filter></defs><g><rect fill="#FAFAFA" height="2067" style="stroke:none;stroke-width:1.0;" width="1278" x="0" y="0"/><text fill="#000000" font-family="Roboto" font-size="14" font-weight="bold" lengthAdjust="spacing" textLength="129.5137" x="572.7625" y="32.9883">Kid-Surface Journey</text><text fill="#000000" font-family="Roboto" font-size="14" font-weight="bold" lengthAdjust="spacing" textLength="311.3633" x="481.8376" y="49.3945">(child-facing app "/"; rose = planned, not yet built)</text><ellipse cx="639.658" cy="73.8125" fill="#222222" rx="10" ry="10" style="stroke:#222222;stroke-width:1.0;"/><rect fill="#FFFDF8" height="48.125" rx="5" ry="5" style="stroke:#8C6F56;stroke-width:0.5;" width="119.2344" x="580.0408" y="103.8125"/><text fill="#000000" font-family="Roboto" font-size="12" lengthAdjust="spacing" textLength="70.8398" x="590.0408" y="124.9453">Open the app</text><text fill="#000000" font-family="Roboto" font-size="12" lengthAdjust="spacing" textLength="99.2344" x="590.0408" y="139.0078">(tap the Kids door)</text><path d="M727.7185,245.2051 L727.7185,276.6738 L707.7185,280.6738 L727.7185,284.6738 L727.7185,316.1426 A0,0 0 0 0 727.7185,316.1426 L1042.634,316.1426 A0,0 0 0 0 1042.634,316.1426 L1042.634,255.2051 L1032.634,245.2051 L727.7185,245.2051 A0,0 0 0 0 727.7185,245.2051 " fill="#F1E9D8" style="stroke:#C9B48F;stroke-width:0.5;"/><path d="M1032.634,245.2051 L1032.634,255.2051 L1042.634,255.2051 L1032.634,245.2051 " fill="#F1E9D8" style="stroke:#C9B48F;stroke-width:0.5;"/><text fill="#000000" font-family="Roboto" font-size="13" lengthAdjust="spacing" textLength="293.9155" x="733.7185" y="262.2656">/guardian/login?intent=authorize-device  &#8226;  shipped</text><text fill="#000000" font-family="Roboto" font-size="13" lengthAdjust="spacing" textLength="254.4585" x="733.7185" y="277.5">ADR-014 -- mints a 90-day device grant, then</text><text fill="#000000" font-family="Roboto" font-size="13" lengthAdjust="spacing" textLength="266.0747" x="733.7185" y="292.7344">drops back here; a returning authorized device</text><text fill="#000000" font-family="Roboto" font-size="13" lengthAdjust="spacing" textLength="149.9951" x="733.7185" y="307.9688">never sees this step again</text><rect fill="#FFFDF8" height="48.125" rx="5" ry="5" style="stroke:#8C6F56;stroke-width:0.5;" width="136.1211" x="571.5974" y="256.6113"/><text fill="#000000" font-family="Roboto" font-size="12" lengthAdjust="spacing" textLength="115.2891" x="581.5974" y="277.7441">Guardian signs in and</text><text fill="#000000" font-family="Roboto" font-size="12" lengthAdjust="spacing" textLength="116.1211" x="581.5974" y="291.8066">authorizes this device</text><polygon fill="#F8F3E8" points="563.1763,171.9375,716.1396,171.9375,728.1396,197.7188,716.1396,223.5,563.1763,223.5,551.1763,197.7188,563.1763,171.9375" style="stroke:#8C6F56;stroke-width:0.5;"/><text fill="#5A3E28" font-family="Roboto" font-size="11" lengthAdjust="spacing" textLength="12.3481" x="643.658" y="233.7051">no</text><text fill="#000000" font-family="Roboto" font-size="11" lengthAdjust="spacing" textLength="123.5674" x="563.1763" y="182.1426">Is this device authorized?</text><text fill="#000000" font-family="Roboto" font-size="11" lengthAdjust="spacing" textLength="123.9648" x="563.1763" y="195.0332">(local device-grant check,</text><text fill="#000000" font-family="Roboto" font-size="11" lengthAdjust="spacing" textLength="152.9634" x="563.1763" y="207.9238">no guardian login, no Supabase</text><text fill="#000000" font-family="Roboto" font-size="11" lengthAdjust="spacing" textLength="51.3906" x="563.1763" y="220.8145">round-trip)</text><text fill="#5A3E28" font-family="Roboto" font-size="11" lengthAdjust="spacing" textLength="16.7148" x="728.1396" y="195.0332">yes</text><polygon fill="#F8F3E8" points="639.658,336.1426,651.658,348.1426,639.658,360.1426,627.658,348.1426,639.658,336.1426" style="stroke:#8C6F56;stroke-width:0.5;"/><path d="M727.0154,398.6191 L727.0154,407.2363 L707.0154,411.2363 L727.0154,415.2363 L727.0154,423.8535 A0,0 0 0 0 727.0154,423.8535 L932.7703,423.8535 A0,0 0 0 0 932.7703,423.8535 L932.7703,408.6191 L922.7703,398.6191 L727.0154,398.6191 A0,0 0 0 0 727.0154,398.6191 " fill="#F1E9D8" style="stroke:#C9B48F;stroke-width:0.5;"/><path d="M922.7703,398.6191 L922.7703,408.6191 L932.7703,408.6191 L922.7703,398.6191 " fill="#F1E9D8" style="stroke:#C9B48F;stroke-width:0.5;"/><text fill="#000000" font-family="Roboto" font-size="13" lengthAdjust="spacing" textLength="184.7549" x="733.0154" y="415.6797">/kids  (Profile Picker)  &#8226;  shipped</text><rect fill="#FFFDF8" height="62.1875" rx="5" ry="5" style="stroke:#8C6F56;stroke-width:0.5;" width="134.7148" x="572.3005" y="380.1426"/><text fill="#000000" font-family="Roboto" font-size="12" lengthAdjust="spacing" textLength="75.9668" x="582.3005" y="401.2754">Tap my avatar</text><text fill="#000000" font-family="Roboto" font-size="12" lengthAdjust="spacing" textLength="91.7637" x="582.3005" y="415.3379">(2-column picker,</text><text fill="#000000" font-family="Roboto" font-size="12" lengthAdjust="spacing" textLength="114.7148" x="582.3005" y="429.4004">dashed circle if none)</text><path d="M728.4978,473.7754 L728.4978,482.3926 L708.4978,486.3926 L728.4978,490.3926 L728.4978,499.0098 A0,0 0 0 0 728.4978,499.0098 L868.8083,499.0098 A0,0 0 0 0 868.8083,499.0098 L868.8083,483.7754 L858.8083,473.7754 L728.4978,473.7754 A0,0 0 0 0 728.4978,473.7754 " fill="#F1E9D8" style="stroke:#C9B48F;stroke-width:0.5;"/><path d="M858.8083,473.7754 L858.8083,483.7754 L868.8083,483.7754 L858.8083,473.7754 " fill="#F1E9D8" style="stroke:#C9B48F;stroke-width:0.5;"/><text fill="#000000" font-family="Roboto" font-size="13" lengthAdjust="spacing" textLength="119.3105" x="734.4978" y="490.8359">status pill  &#8226;  shipped</text><rect fill="#FFFDF8" height="48.125" rx="5" ry="5" style="stroke:#8C6F56;stroke-width:0.5;" width="137.6797" x="570.8181" y="462.3301"/><text fill="#000000" font-family="Roboto" font-size="12" lengthAdjust="spacing" textLength="117.6797" x="580.8181" y="483.4629">See "new story ready!"</text><text fill="#000000" font-family="Roboto" font-size="12" lengthAdjust="spacing" textLength="69.0117" x="580.8181" y="497.5254">on my avatar</text><path d="M737.1873,548.9316 L737.1873,557.5488 L717.1873,561.5488 L737.1873,565.5488 L737.1873,574.166 A0,0 0 0 0 737.1873,574.166 L918.5798,574.166 A0,0 0 0 0 918.5798,574.166 L918.5798,558.9316 L908.5798,548.9316 L737.1873,548.9316 A0,0 0 0 0 737.1873,548.9316 " fill="#F1E9D8" style="stroke:#C9B48F;stroke-width:0.5;"/><path d="M908.5798,548.9316 L908.5798,558.9316 L918.5798,558.9316 L908.5798,548.9316 " fill="#F1E9D8" style="stroke:#C9B48F;stroke-width:0.5;"/><text fill="#000000" font-family="Roboto" font-size="13" lengthAdjust="spacing" textLength="160.3926" x="743.1873" y="565.9922">/library/:profileId  &#8226;  shipped</text><rect fill="#FFFDF8" height="62.1875" rx="5" ry="5" style="stroke:#8C6F56;stroke-width:0.5;" width="155.0586" x="562.1287" y="530.4551"/><text fill="#000000" font-family="Roboto" font-size="12" lengthAdjust="spacing" textLength="86.5957" x="572.1287" y="551.5879">Open my Library</text><text fill="#000000" font-family="Roboto" font-size="12" lengthAdjust="spacing" textLength="125.0098" x="572.1287" y="565.6504">(Continue Reading hero</text><text fill="#000000" font-family="Roboto" font-size="12" lengthAdjust="spacing" textLength="135.0586" x="572.1287" y="579.7129">+ "More to Explore" shelf)</text><path d="M732.5173,622.916 L732.5173,646.7676 L712.5173,650.7676 L732.5173,654.7676 L732.5173,678.6191 A0,0 0 0 0 732.5173,678.6191 L1048.8928,678.6191 A0,0 0 0 0 1048.8928,678.6191 L1048.8928,632.916 L1038.8928,622.916 L732.5173,622.916 A0,0 0 0 0 732.5173,622.916 " fill="#F1E9D8" style="stroke:#C9B48F;stroke-width:0.5;"/><path d="M1038.8928,622.916 L1038.8928,632.916 L1048.8928,632.916 L1038.8928,622.916 " fill="#F1E9D8" style="stroke:#C9B48F;stroke-width:0.5;"/><text fill="#000000" font-family="Roboto" font-size="13" lengthAdjust="spacing" textLength="250.415" x="738.5173" y="639.9766">RequestStory on the library page  &#8226;  shipped</text><text fill="#000000" font-family="Roboto" font-size="13" lengthAdjust="spacing" textLength="295.3755" x="738.5173" y="655.2109">surfaces to a guardian/admin to approve or decline</text><text fill="#000000" font-family="Roboto" font-size="13" lengthAdjust="spacing" textLength="264.8496" x="738.5173" y="670.4453">(no moderation detail ever shown to the child)</text><rect fill="#FFFDF8" height="76.25" rx="5" ry="5" style="stroke:#8C6F56;stroke-width:0.5;" width="145.7188" x="566.7986" y="612.6426"/><text fill="#000000" font-family="Roboto" font-size="12" lengthAdjust="spacing" textLength="113.9531" x="576.7986" y="633.7754">Tap "Request a story"</text><text fill="#000000" font-family="Roboto" font-size="12" lengthAdjust="spacing" textLength="122.0918" x="576.7986" y="647.8379">and say what it's about</text><text fill="#000000" font-family="Roboto" font-size="12" lengthAdjust="spacing" textLength="125.7188" x="576.7986" y="661.9004">(or "Continue this story"</text><text fill="#000000" font-family="Roboto" font-size="12" lengthAdjust="spacing" textLength="91.7109" x="576.7986" y="675.9629">on a series book)</text><path d="M750.4382,727.3691 L750.4382,735.9863 L730.4382,739.9863 L750.4382,743.9863 L750.4382,752.6035 A0,0 0 0 0 750.4382,752.6035 L934.5603,752.6035 A0,0 0 0 0 934.5603,752.6035 L934.5603,737.3691 L924.5603,727.3691 L750.4382,727.3691 A0,0 0 0 0 750.4382,727.3691 " fill="#F1E9D8" style="stroke:#C9B48F;stroke-width:0.5;"/><path d="M924.5603,727.3691 L924.5603,737.3691 L934.5603,737.3691 L924.5603,727.3691 " fill="#F1E9D8" style="stroke:#C9B48F;stroke-width:0.5;"/><text fill="#000000" font-family="Roboto" font-size="13" lengthAdjust="spacing" textLength="163.1221" x="756.4382" y="744.4297">shipped  &#8226;  "My requests" list</text><rect fill="#FFFDF8" height="62.1875" rx="5" ry="5" style="stroke:#8C6F56;stroke-width:0.5;" width="181.5605" x="548.8777" y="708.8926"/><text fill="#000000" font-family="Roboto" font-size="12" lengthAdjust="spacing" textLength="116.1094" x="558.8777" y="730.0254">See my own requests'</text><text fill="#000000" font-family="Roboto" font-size="12" lengthAdjust="spacing" textLength="75.8672" x="558.8777" y="744.0879">friendly status</text><text fill="#000000" font-family="Roboto" font-size="12" lengthAdjust="spacing" textLength="161.5605" x="558.8777" y="758.1504">(Waiting / Yay! / Not this time)</text><rect fill="#FFFDF8" height="34.0625" rx="5" ry="5" style="stroke:#8C6F56;stroke-width:0.5;" width="81.8398" x="598.738" y="791.0801"/><text fill="#000000" font-family="Roboto" font-size="12" lengthAdjust="spacing" textLength="61.8398" x="608.738" y="812.2129">Pick a book</text><polygon fill="#F8F3E8" points="32,845.1426,137.3379,845.1426,149.3379,857.1426,137.3379,869.1426,32,869.1426,20,857.1426,32,845.1426" style="stroke:#8C6F56;stroke-width:0.5;"/><text fill="#5A3E28" font-family="Roboto" font-size="11" lengthAdjust="spacing" textLength="16.7148" x="88.6689" y="879.3477">yes</text><text fill="#000000" font-family="Roboto" font-size="11" lengthAdjust="spacing" textLength="105.3379" x="32" y="860.9023">Is the story available?</text><path d="M176.0605,906.4473 L176.0605,915.0645 L156.0605,919.0645 L176.0605,923.0645 L176.0605,931.6816 A0,0 0 0 0 176.0605,931.6816 L475.1006,931.6816 A0,0 0 0 0 475.1006,931.6816 L475.1006,916.4473 L465.1006,906.4473 L176.0605,906.4473 A0,0 0 0 0 176.0605,906.4473 " fill="#F1E9D8" style="stroke:#C9B48F;stroke-width:0.5;"/><path d="M465.1006,906.4473 L465.1006,916.4473 L475.1006,916.4473 L465.1006,906.4473 " fill="#F1E9D8" style="stroke:#C9B48F;stroke-width:0.5;"/><text fill="#000000" font-family="Roboto" font-size="13" lengthAdjust="spacing" textLength="278.04" x="182.0605" y="923.5078">/read/:profileId/:storybookId/:version  &#8226;  shipped</text><rect fill="#FFFDF8" height="34.0625" rx="5" ry="5" style="stroke:#8C6F56;stroke-width:0.5;" width="142.7832" x="13.2773" y="902.0332"/><text fill="#000000" font-family="Roboto" font-size="12" lengthAdjust="spacing" textLength="122.7832" x="23.2773" y="923.166">Reader opens the story</text><polygon fill="#F8F3E8" points="510.9597,845.1426,595.5813,845.1426,607.5813,857.1426,595.5813,869.1426,510.9597,869.1426,498.9597,857.1426,510.9597,845.1426" style="stroke:#8C6F56;stroke-width:0.5;"/><text fill="#000000" font-family="Roboto" font-size="11" lengthAdjust="spacing" textLength="84.6216" x="510.9597" y="860.9023">link is malformed</text><text fill="#5A3E28" font-family="Roboto" font-size="11" lengthAdjust="spacing" textLength="76.8926" x="607.5813" y="854.457">story is missing</text><path d="M631.4404,900.5879 L631.4404,909.2051 L611.4404,913.2051 L631.4404,917.2051 L631.4404,925.8223 A0,0 0 0 0 631.4404,925.8223 L871.917,925.8223 A0,0 0 0 0 871.917,925.8223 L871.917,910.5879 L861.917,900.5879 L631.4404,900.5879 A0,0 0 0 0 631.4404,900.5879 " fill="#F1E9D8" style="stroke:#C9B48F;stroke-width:0.5;"/><path d="M861.917,900.5879 L861.917,910.5879 L871.917,910.5879 L861.917,900.5879 " fill="#F1E9D8" style="stroke:#C9B48F;stroke-width:0.5;"/><text fill="#000000" font-family="Roboto" font-size="13" lengthAdjust="spacing" textLength="219.4766" x="637.4404" y="917.6484">shipped (reader.spec: malformed link)</text><rect fill="#FFFDF8" height="48.125" rx="5" ry="5" style="stroke:#8C6F56;stroke-width:0.5;" width="116.3398" x="495.1006" y="889.1426"/><text fill="#000000" font-family="Roboto" font-size="12" lengthAdjust="spacing" textLength="96.3398" x="505.1006" y="910.2754">See a friendly exit,</text><text fill="#000000" font-family="Roboto" font-size="12" lengthAdjust="spacing" textLength="79.0371" x="505.1006" y="924.3379">not a dead end</text><ellipse cx="553.2705" cy="971.2676" fill="none" rx="11" ry="11" style="stroke:#222222;stroke-width:1.0;"/><ellipse cx="553.2705" cy="971.2676" fill="#222222" rx="6" ry="6" style="stroke:#222222;stroke-width:1.0;"/><path d="M1034.6963,903.5879 L1034.6963,912.2051 L1014.6963,916.2051 L1034.6963,920.2051 L1034.6963,928.8223 A0,0 0 0 0 1034.6963,928.8223 L1266.0386,928.8223 A0,0 0 0 0 1266.0386,928.8223 L1266.0386,913.5879 L1256.0386,903.5879 L1034.6963,903.5879 A0,0 0 0 0 1034.6963,903.5879 " fill="#F1E9D8" style="stroke:#C9B48F;stroke-width:0.5;"/><path d="M1256.0386,903.5879 L1256.0386,913.5879 L1266.0386,913.5879 L1256.0386,903.5879 " fill="#F1E9D8" style="stroke:#C9B48F;stroke-width:0.5;"/><text fill="#000000" font-family="Roboto" font-size="13" lengthAdjust="spacing" textLength="210.3423" x="1040.6963" y="920.6484">shipped (reader.spec: missing story)</text><rect fill="#FFFDF8" height="48.125" rx="5" ry="5" style="stroke:#8C6F56;stroke-width:0.5;" width="122.7793" x="891.917" y="892.1426"/><text fill="#000000" font-family="Roboto" font-size="12" lengthAdjust="spacing" textLength="84.2754" x="901.917" y="913.2754">See "not found",</text><text fill="#000000" font-family="Roboto" font-size="12" lengthAdjust="spacing" textLength="102.7793" x="901.917" y="927.3379">not the offline copy</text><ellipse cx="953.3066" cy="974.2676" fill="none" rx="11" ry="11" style="stroke:#222222;stroke-width:1.0;"/><ellipse cx="953.3066" cy="974.2676" fill="#222222" rx="6" ry="6" style="stroke:#222222;stroke-width:1.0;"/><rect fill="#FFFDF8" height="48.125" rx="5" ry="5" style="stroke:#8C6F56;stroke-width:0.5;" width="152.1465" x="563.5847" y="1079.3301"/><text fill="#000000" font-family="Roboto" font-size="12" lengthAdjust="spacing" textLength="95.1855" x="573.5847" y="1100.4629">Read the passage</text><text fill="#000000" font-family="Roboto" font-size="12" lengthAdjust="spacing" textLength="132.1465" x="573.5847" y="1114.5254">(serif, generous spacing)</text><path d="M741.8513,1165.9316 L741.8513,1174.5488 L721.8513,1178.5488 L741.8513,1182.5488 L741.8513,1191.166 A0,0 0 0 0 741.8513,1191.166 L941.3538,1191.166 A0,0 0 0 0 941.3538,1191.166 L941.3538,1175.9316 L931.3538,1165.9316 L741.8513,1165.9316 A0,0 0 0 0 741.8513,1165.9316 " fill="#F1E9D8" style="stroke:#C9B48F;stroke-width:0.5;"/><path d="M931.3538,1165.9316 L931.3538,1175.9316 L941.3538,1175.9316 L931.3538,1165.9316 " fill="#F1E9D8" style="stroke:#C9B48F;stroke-width:0.5;"/><text fill="#000000" font-family="Roboto" font-size="13" lengthAdjust="spacing" textLength="178.5024" x="747.8513" y="1182.9922">state-gated visibility  &#8226;  shipped</text><rect fill="#FFFDF8" height="62.1875" rx="5" ry="5" style="stroke:#8C6F56;stroke-width:0.5;" width="164.3867" x="557.4646" y="1147.4551"/><text fill="#000000" font-family="Roboto" font-size="12" lengthAdjust="spacing" textLength="77.2266" x="567.4646" y="1168.5879">Make a choice</text><text fill="#000000" font-family="Roboto" font-size="12" lengthAdjust="spacing" textLength="142.8281" x="567.4646" y="1182.6504">(some choices stay hidden</text><text fill="#000000" font-family="Roboto" font-size="12" lengthAdjust="spacing" textLength="144.3867" x="567.4646" y="1196.7129">until the story-state allows)</text><polygon fill="#F8F3E8" points="609.6201,1229.6426,669.6958,1229.6426,681.6958,1241.6426,669.6958,1253.6426,609.6201,1253.6426,597.6201,1241.6426,609.6201,1229.6426" style="stroke:#8C6F56;stroke-width:0.5;"/><text fill="#000000" font-family="Roboto" font-size="11" lengthAdjust="spacing" textLength="60.0757" x="609.6201" y="1245.4023">Am I online?</text><text fill="#5A3E28" font-family="Roboto" font-size="11" lengthAdjust="spacing" textLength="16.7148" x="580.9053" y="1238.957">yes</text><text fill="#5A3E28" font-family="Roboto" font-size="11" lengthAdjust="spacing" textLength="31.1792" x="681.6958" y="1238.957">offline</text><rect fill="#FFFDF8" height="34.0625" rx="5" ry="5" style="stroke:#8C6F56;stroke-width:0.5;" width="158.8965" x="458.6042" y="1263.6426"/><text fill="#000000" font-family="Roboto" font-size="12" lengthAdjust="spacing" textLength="138.8965" x="468.6042" y="1284.7754">My progress saves as I go</text><path d="M844.5144,1282.1191 L844.5144,1290.7363 L824.5144,1294.7363 L844.5144,1298.7363 L844.5144,1307.3535 A0,0 0 0 0 844.5144,1307.3535 L992.1438,1307.3535 A0,0 0 0 0 992.1438,1307.3535 L992.1438,1292.1191 L982.1438,1282.1191 L844.5144,1282.1191 A0,0 0 0 0 844.5144,1282.1191 " fill="#F1E9D8" style="stroke:#C9B48F;stroke-width:0.5;"/><path d="M982.1438,1282.1191 L982.1438,1292.1191 L992.1438,1292.1191 L982.1438,1282.1191 " fill="#F1E9D8" style="stroke:#C9B48F;stroke-width:0.5;"/><text fill="#000000" font-family="Roboto" font-size="13" lengthAdjust="spacing" textLength="126.6294" x="850.5144" y="1299.1797">offline-first  &#8226;  shipped</text><rect fill="#FFFDF8" height="62.1875" rx="5" ry="5" style="stroke:#8C6F56;stroke-width:0.5;" width="166.502" x="658.0125" y="1263.6426"/><text fill="#000000" font-family="Roboto" font-size="12" lengthAdjust="spacing" textLength="118.4355" x="668.0125" y="1284.7754">Keep reading from the</text><text fill="#000000" font-family="Roboto" font-size="12" lengthAdjust="spacing" textLength="146.502" x="668.0125" y="1298.8379">downloaded copy, progress</text><text fill="#000000" font-family="Roboto" font-size="12" lengthAdjust="spacing" textLength="86.3613" x="668.0125" y="1312.9004">waits in a queue</text><rect fill="#FFFDF8" height="34.0625" rx="5" ry="5" style="stroke:#8C6F56;stroke-width:0.5;" width="135.0078" x="673.7595" y="1355.4941"/><text fill="#000000" font-family="Roboto" font-size="12" lengthAdjust="spacing" textLength="115.0078" x="683.7595" y="1376.627">On reconnect it syncs</text><path d="M855.0261,1471.2285 L855.0261,1479.8457 L835.0261,1483.8457 L855.0261,1487.8457 L855.0261,1496.4629 A0,0 0 0 0 855.0261,1496.4629 L1020.759,1496.4629 A0,0 0 0 0 1020.759,1496.4629 L1020.759,1481.2285 L1010.759,1471.2285 L855.0261,1471.2285 A0,0 0 0 0 855.0261,1471.2285 " fill="#F1E9D8" style="stroke:#C9B48F;stroke-width:0.5;"/><path d="M1010.759,1471.2285 L1010.759,1481.2285 L1020.759,1481.2285 L1010.759,1471.2285 " fill="#F1E9D8" style="stroke:#C9B48F;stroke-width:0.5;"/><text fill="#000000" font-family="Roboto" font-size="13" lengthAdjust="spacing" textLength="144.7329" x="861.0261" y="1488.2891">ConflictDialog  &#8226;  shipped</text><rect fill="#FFFDF8" height="48.125" rx="5" ry="5" style="stroke:#8C6F56;stroke-width:0.5;" width="187.5254" x="647.5007" y="1459.7832"/><text fill="#000000" font-family="Roboto" font-size="12" lengthAdjust="spacing" textLength="167.5254" x="657.5007" y="1480.916">Choose which progress to keep</text><text fill="#000000" font-family="Roboto" font-size="12" lengthAdjust="spacing" textLength="120.7441" x="657.5007" y="1494.9785">(mine / the newer one)</text><polygon fill="#F8F3E8" points="695.8965,1409.5566,786.6304,1409.5566,798.6304,1422.4473,786.6304,1435.3379,695.8965,1435.3379,683.8965,1422.4473,695.8965,1409.5566" style="stroke:#8C6F56;stroke-width:0.5;"/><text fill="#5A3E28" font-family="Roboto" font-size="11" lengthAdjust="spacing" textLength="47.7598" x="745.2634" y="1445.543">yes, clash</text><text fill="#000000" font-family="Roboto" font-size="11" lengthAdjust="spacing" textLength="90.7339" x="695.8965" y="1419.7617">Did another device</text><text fill="#000000" font-family="Roboto" font-size="11" lengthAdjust="spacing" textLength="68.9595" x="706.8105" y="1432.6523">change it too?</text><text fill="#5A3E28" font-family="Roboto" font-size="11" lengthAdjust="spacing" textLength="12.3481" x="798.6304" y="1419.7617">no</text><polygon fill="#F8F3E8" points="741.2634,1527.9082,753.2634,1539.9082,741.2634,1551.9082,729.2634,1539.9082,741.2634,1527.9082" style="stroke:#8C6F56;stroke-width:0.5;"/><polygon fill="#F8F3E8" points="639.658,1557.9082,651.658,1569.9082,639.658,1581.9082,627.658,1569.9082,639.658,1557.9082" style="stroke:#8C6F56;stroke-width:0.5;"/><rect fill="#FFFDF8" height="34.0625" rx="5" ry="5" style="stroke:#8C6F56;stroke-width:0.5;" width="101.4863" x="588.9148" y="1025.2676"/><text fill="#000000" font-family="Roboto" font-size="12" lengthAdjust="spacing" textLength="81.4863" x="598.9148" y="1046.4004">read a passage</text><polygon fill="#F8F3E8" points="592.1963,1601.9082,687.1196,1601.9082,699.1196,1613.9082,687.1196,1625.9082,592.1963,1625.9082,580.1963,1613.9082,592.1963,1601.9082" style="stroke:#8C6F56;stroke-width:0.5;"/><text fill="#5A3E28" font-family="Roboto" font-size="11" lengthAdjust="spacing" textLength="89.9497" x="643.658" y="1636.1133">reached an ending</text><text fill="#000000" font-family="Roboto" font-size="11" lengthAdjust="spacing" textLength="94.9233" x="592.1963" y="1617.668">More story to read?</text><text fill="#5A3E28" font-family="Roboto" font-size="11" lengthAdjust="spacing" textLength="16.7148" x="699.1196" y="1611.2227">yes</text><path d="M751.906,1661.4414 L751.906,1677.6758 L731.906,1681.6758 L751.906,1685.6758 L751.906,1701.9102 A0,0 0 0 0 751.906,1701.9102 L1000.7805,1701.9102 A0,0 0 0 0 1000.7805,1701.9102 L1000.7805,1671.4414 L990.7805,1661.4414 L751.906,1661.4414 A0,0 0 0 0 751.906,1661.4414 " fill="#F1E9D8" style="stroke:#C9B48F;stroke-width:0.5;"/><path d="M990.7805,1661.4414 L990.7805,1671.4414 L1000.7805,1671.4414 L990.7805,1661.4414 " fill="#F1E9D8" style="stroke:#C9B48F;stroke-width:0.5;"/><text fill="#000000" font-family="Roboto" font-size="13" lengthAdjust="spacing" textLength="144.2949" x="757.906" y="1678.502">ending screen  &#8226;  shipped</text><text fill="#000000" font-family="Roboto" font-size="13" lengthAdjust="spacing" textLength="227.8745" x="757.906" y="1693.7363">(restart + back to library, no rating here)</text><rect fill="#FFFDF8" height="48.125" rx="5" ry="5" style="stroke:#8C6F56;stroke-width:0.5;" width="184.4961" x="547.4099" y="1657.6133"/><text fill="#000000" font-family="Roboto" font-size="12" lengthAdjust="spacing" textLength="117.6152" x="557.4099" y="1678.7461">See the ending screen</text><text fill="#000000" font-family="Roboto" font-size="12" lengthAdjust="spacing" textLength="164.4961" x="557.4099" y="1692.8086">(restart, or "back to my books")</text><rect fill="#FFFDF8" height="34.0625" rx="5" ry="5" style="stroke:#8C6F56;stroke-width:0.5;" width="135.9805" x="571.6677" y="1725.7383"/><text fill="#000000" font-family="Roboto" font-size="12" lengthAdjust="spacing" textLength="115.9805" x="581.6677" y="1746.8711">Go back to my Library</text><path d="M753.4968,1783.6289 L753.4968,1799.8633 L733.4968,1803.8633 L753.4968,1807.8633 L753.4968,1824.0977 A0,0 0 0 0 753.4968,1824.0977 L1006.6497,1824.0977 A0,0 0 0 0 1006.6497,1824.0977 L1006.6497,1793.6289 L996.6497,1783.6289 L753.4968,1783.6289 A0,0 0 0 0 753.4968,1783.6289 " fill="#F1E9D8" style="stroke:#C9B48F;stroke-width:0.5;"/><path d="M996.6497,1783.6289 L996.6497,1793.6289 L1006.6497,1793.6289 L996.6497,1783.6289 " fill="#F1E9D8" style="stroke:#C9B48F;stroke-width:0.5;"/><text fill="#000000" font-family="Roboto" font-size="13" lengthAdjust="spacing" textLength="201.3921" x="759.4968" y="1800.6895">StarRating on BookCard  &#8226;  shipped</text><text fill="#000000" font-family="Roboto" font-size="13" lengthAdjust="spacing" textLength="232.1528" x="759.4968" y="1815.9238">(rating lives in the library, not the reader)</text><rect fill="#FFFDF8" height="48.125" rx="5" ry="5" style="stroke:#8C6F56;stroke-width:0.5;" width="187.6777" x="545.8191" y="1779.8008"/><text fill="#000000" font-family="Roboto" font-size="12" lengthAdjust="spacing" textLength="167.6777" x="555.8191" y="1800.9336">Rate a book by tapping its stars</text><text fill="#000000" font-family="Roboto" font-size="12" lengthAdjust="spacing" textLength="62.5781" x="555.8191" y="1814.9961">on the shelf</text><ellipse cx="639.658" cy="1858.9258" fill="none" rx="11" ry="11" style="stroke:#222222;stroke-width:1.0;"/><ellipse cx="639.658" cy="1858.9258" fill="#222222" rx="6" ry="6" style="stroke:#222222;stroke-width:1.0;"/><line style="stroke:#5A3E28;stroke-width:1.0;" x1="639.658" x2="639.658" y1="83.8125" y2="103.8125"/><polygon fill="#5A3E28" points="635.658,93.8125,639.658,103.8125,643.658,93.8125,639.658,97.8125" style="stroke:#5A3E28;stroke-width:1.0;"/><line style="stroke:#5A3E28;stroke-width:1.0;" x1="639.658" x2="639.658" y1="223.5" y2="256.6113"/><polygon fill="#5A3E28" points="635.658,246.6113,639.658,256.6113,643.658,246.6113,639.658,250.6113" style="stroke:#5A3E28;stroke-width:1.0;"/><line style="stroke:#5A3E28;stroke-width:1.0;" x1="728.1396" x2="1052.634" y1="197.7188" y2="197.7188"/><polygon fill="#5A3E28" points="1048.634,263.7832,1052.634,273.7832,1056.634,263.7832,1052.634,267.7832" style="stroke:#5A3E28;stroke-width:1.0;"/><line style="stroke:#5A3E28;stroke-width:1.0;" x1="1052.634" x2="1052.634" y1="197.7188" y2="348.1426"/><line style="stroke:#5A3E28;stroke-width:1.0;" x1="1052.634" x2="651.658" y1="348.1426" y2="348.1426"/><polygon fill="#5A3E28" points="661.658,344.1426,651.658,348.1426,661.658,352.1426,657.658,348.1426" style="stroke:#5A3E28;stroke-width:1.0;"/><line style="stroke:#5A3E28;stroke-width:1.0;" x1="639.658" x2="639.658" y1="304.7363" y2="336.1426"/><polygon fill="#5A3E28" points="635.658,326.1426,639.658,336.1426,643.658,326.1426,639.658,330.1426" style="stroke:#5A3E28;stroke-width:1.0;"/><line style="stroke:#5A3E28;stroke-width:1.0;" x1="639.658" x2="639.658" y1="151.9375" y2="171.9375"/><polygon fill="#5A3E28" points="635.658,161.9375,639.658,171.9375,643.658,161.9375,639.658,165.9375" style="stroke:#5A3E28;stroke-width:1.0;"/><line style="stroke:#5A3E28;stroke-width:1.0;" x1="639.658" x2="639.658" y1="360.1426" y2="380.1426"/><polygon fill="#5A3E28" points="635.658,370.1426,639.658,380.1426,643.658,370.1426,639.658,374.1426" style="stroke:#5A3E28;stroke-width:1.0;"/><line style="stroke:#5A3E28;stroke-width:1.0;" x1="639.658" x2="639.658" y1="442.3301" y2="462.3301"/><polygon fill="#5A3E28" points="635.658,452.3301,639.658,462.3301,643.658,452.3301,639.658,456.3301" style="stroke:#5A3E28;stroke-width:1.0;"/><line style="stroke:#5A3E28;stroke-width:1.0;" x1="639.658" x2="639.658" y1="510.4551" y2="530.4551"/><polygon fill="#5A3E28" points="635.658,520.4551,639.658,530.4551,643.658,520.4551,639.658,524.4551" style="stroke:#5A3E28;stroke-width:1.0;"/><line style="stroke:#5A3E28;stroke-width:1.0;" x1="639.658" x2="639.658" y1="592.6426" y2="612.6426"/><polygon fill="#5A3E28" points="635.658,602.6426,639.658,612.6426,643.658,602.6426,639.658,606.6426" style="stroke:#5A3E28;stroke-width:1.0;"/><line style="stroke:#5A3E28;stroke-width:1.0;" x1="639.658" x2="639.658" y1="688.8926" y2="708.8926"/><polygon fill="#5A3E28" points="635.658,698.8926,639.658,708.8926,643.658,698.8926,639.658,702.8926" style="stroke:#5A3E28;stroke-width:1.0;"/><line style="stroke:#5A3E28;stroke-width:1.0;" x1="639.658" x2="639.658" y1="771.0801" y2="791.0801"/><polygon fill="#5A3E28" points="635.658,781.0801,639.658,791.0801,643.658,781.0801,639.658,785.0801" style="stroke:#5A3E28;stroke-width:1.0;"/><line style="stroke:#5A3E28;stroke-width:1.0;" x1="553.2705" x2="553.2705" y1="937.2676" y2="960.2676"/><polygon fill="#5A3E28" points="549.2705,950.2676,553.2705,960.2676,557.2705,950.2676,553.2705,954.2676" style="stroke:#5A3E28;stroke-width:1.0;"/><line style="stroke:#5A3E28;stroke-width:1.0;" x1="953.3066" x2="953.3066" y1="940.2676" y2="963.2676"/><polygon fill="#5A3E28" points="949.3066,953.2676,953.3066,963.2676,957.3066,953.2676,953.3066,957.2676" style="stroke:#5A3E28;stroke-width:1.0;"/><line style="stroke:#5A3E28;stroke-width:1.0;" x1="84.6689" x2="84.6689" y1="869.1426" y2="902.0332"/><polygon fill="#5A3E28" points="80.6689,892.0332,84.6689,902.0332,88.6689,892.0332,84.6689,896.0332" style="stroke:#5A3E28;stroke-width:1.0;"/><line style="stroke:#5A3E28;stroke-width:1.0;" x1="84.6689" x2="84.6689" y1="936.0957" y2="1005.2676"/><polygon fill="#5A3E28" points="80.6689,995.2676,84.6689,1005.2676,88.6689,995.2676,84.6689,999.2676" style="stroke:#5A3E28;stroke-width:1.0;"/><line style="stroke:#5A3E28;stroke-width:1.0;" x1="553.2705" x2="553.2705" y1="869.1426" y2="889.1426"/><polygon fill="#5A3E28" points="549.2705,879.1426,553.2705,889.1426,557.2705,879.1426,553.2705,883.1426" style="stroke:#5A3E28;stroke-width:1.0;"/><line style="stroke:#5A3E28;stroke-width:1.0;" x1="149.3379" x2="498.9597" y1="857.1426" y2="857.1426"/><polygon fill="#5A3E28" points="488.9597,853.1426,498.9597,857.1426,488.9597,861.1426,492.9597,857.1426" style="stroke:#5A3E28;stroke-width:1.0;"/><line style="stroke:#5A3E28;stroke-width:1.0;" x1="639.658" x2="639.658" y1="825.1426" y2="830.1426"/><line style="stroke:#5A3E28;stroke-width:1.0;" x1="639.658" x2="84.6689" y1="830.1426" y2="830.1426"/><line style="stroke:#5A3E28;stroke-width:1.0;" x1="84.6689" x2="84.6689" y1="830.1426" y2="845.1426"/><polygon fill="#5A3E28" points="80.6689,835.1426,84.6689,845.1426,88.6689,835.1426,84.6689,839.1426" style="stroke:#5A3E28;stroke-width:1.0;"/><line style="stroke:#5A3E28;stroke-width:1.0;" x1="607.5813" x2="953.3066" y1="857.1426" y2="857.1426"/><line style="stroke:#5A3E28;stroke-width:1.0;" x1="953.3066" x2="953.3066" y1="857.1426" y2="892.1426"/><polygon fill="#5A3E28" points="949.3066,882.1426,953.3066,892.1426,957.3066,882.1426,953.3066,886.1426" style="stroke:#5A3E28;stroke-width:1.0;"/><line style="stroke:#5A3E28;stroke-width:1.0;" x1="84.6689" x2="639.658" y1="1005.2676" y2="1005.2676"/><line style="stroke:#5A3E28;stroke-width:1.0;" x1="639.658" x2="639.658" y1="1127.4551" y2="1147.4551"/><polygon fill="#5A3E28" points="635.658,1137.4551,639.658,1147.4551,643.658,1137.4551,639.658,1141.4551" style="stroke:#5A3E28;stroke-width:1.0;"/><line style="stroke:#5A3E28;stroke-width:1.0;" x1="741.2634" x2="741.2634" y1="1325.8301" y2="1355.4941"/><polygon fill="#5A3E28" points="737.2634,1345.4941,741.2634,1355.4941,745.2634,1345.4941,741.2634,1349.4941" style="stroke:#5A3E28;stroke-width:1.0;"/><line style="stroke:#5A3E28;stroke-width:1.0;" x1="741.2634" x2="741.2634" y1="1435.3379" y2="1459.7832"/><polygon fill="#5A3E28" points="737.2634,1449.7832,741.2634,1459.7832,745.2634,1449.7832,741.2634,1453.7832" style="stroke:#5A3E28;stroke-width:1.0;"/><line style="stroke:#5A3E28;stroke-width:1.0;" x1="798.6304" x2="1030.759" y1="1422.4473" y2="1422.4473"/><polygon fill="#5A3E28" points="1026.759,1473.4004,1030.759,1483.4004,1034.759,1473.4004,1030.759,1477.4004" style="stroke:#5A3E28;stroke-width:1.0;"/><line style="stroke:#5A3E28;stroke-width:1.0;" x1="1030.759" x2="1030.759" y1="1422.4473" y2="1539.9082"/><line style="stroke:#5A3E28;stroke-width:1.0;" x1="1030.759" x2="753.2634" y1="1539.9082" y2="1539.9082"/><polygon fill="#5A3E28" points="763.2634,1535.9082,753.2634,1539.9082,763.2634,1543.9082,759.2634,1539.9082" style="stroke:#5A3E28;stroke-width:1.0;"/><line style="stroke:#5A3E28;stroke-width:1.0;" x1="741.2634" x2="741.2634" y1="1507.9082" y2="1527.9082"/><polygon fill="#5A3E28" points="737.2634,1517.9082,741.2634,1527.9082,745.2634,1517.9082,741.2634,1521.9082" style="stroke:#5A3E28;stroke-width:1.0;"/><line style="stroke:#5A3E28;stroke-width:1.0;" x1="741.2634" x2="741.2634" y1="1389.5566" y2="1409.5566"/><polygon fill="#5A3E28" points="737.2634,1399.5566,741.2634,1409.5566,745.2634,1399.5566,741.2634,1403.5566" style="stroke:#5A3E28;stroke-width:1.0;"/><line style="stroke:#5A3E28;stroke-width:1.0;" x1="597.6201" x2="538.0525" y1="1241.6426" y2="1241.6426"/><line style="stroke:#5A3E28;stroke-width:1.0;" x1="538.0525" x2="538.0525" y1="1241.6426" y2="1263.6426"/><polygon fill="#5A3E28" points="534.0525,1253.6426,538.0525,1263.6426,542.0525,1253.6426,538.0525,1257.6426" style="stroke:#5A3E28;stroke-width:1.0;"/><line style="stroke:#5A3E28;stroke-width:1.0;" x1="681.6958" x2="741.2634" y1="1241.6426" y2="1241.6426"/><line style="stroke:#5A3E28;stroke-width:1.0;" x1="741.2634" x2="741.2634" y1="1241.6426" y2="1263.6426"/><polygon fill="#5A3E28" points="737.2634,1253.6426,741.2634,1263.6426,745.2634,1253.6426,741.2634,1257.6426" style="stroke:#5A3E28;stroke-width:1.0;"/><line style="stroke:#5A3E28;stroke-width:1.0;" x1="538.0525" x2="538.0525" y1="1297.7051" y2="1569.9082"/><line style="stroke:#5A3E28;stroke-width:1.0;" x1="538.0525" x2="627.658" y1="1569.9082" y2="1569.9082"/><polygon fill="#5A3E28" points="617.658,1565.9082,627.658,1569.9082,617.658,1573.9082,621.658,1569.9082" style="stroke:#5A3E28;stroke-width:1.0;"/><line style="stroke:#5A3E28;stroke-width:1.0;" x1="741.2634" x2="741.2634" y1="1551.9082" y2="1569.9082"/><line style="stroke:#5A3E28;stroke-width:1.0;" x1="741.2634" x2="651.658" y1="1569.9082" y2="1569.9082"/><polygon fill="#5A3E28" points="661.658,1565.9082,651.658,1569.9082,661.658,1573.9082,657.658,1569.9082" style="stroke:#5A3E28;stroke-width:1.0;"/><line style="stroke:#5A3E28;stroke-width:1.0;" x1="639.658" x2="639.658" y1="1209.6426" y2="1229.6426"/><polygon fill="#5A3E28" points="635.658,1219.6426,639.658,1229.6426,643.658,1219.6426,639.658,1223.6426" style="stroke:#5A3E28;stroke-width:1.0;"/><line style="stroke:#5A3E28;stroke-width:1.0;" x1="639.658" x2="639.658" y1="1059.3301" y2="1079.3301"/><polygon fill="#5A3E28" points="635.658,1069.3301,639.658,1079.3301,643.658,1069.3301,639.658,1073.3301" style="stroke:#5A3E28;stroke-width:1.0;"/><line style="stroke:#5A3E28;stroke-width:1.0;" x1="699.1196" x2="1064.759" y1="1613.9082" y2="1613.9082"/><polygon fill="#5A3E28" points="1060.759,1335.4941,1064.759,1325.4941,1068.759,1335.4941,1064.759,1331.4941" style="stroke:#5A3E28;stroke-width:1.0;"/><line style="stroke:#5A3E28;stroke-width:1.0;" x1="1064.759" x2="1064.759" y1="1042.2988" y2="1613.9082"/><line style="stroke:#5A3E28;stroke-width:1.0;" x1="1064.759" x2="690.4011" y1="1042.2988" y2="1042.2988"/><polygon fill="#5A3E28" points="700.4011,1038.2988,690.4011,1042.2988,700.4011,1046.2988,696.4011,1042.2988" style="stroke:#5A3E28;stroke-width:1.0;"/><line style="stroke:#5A3E28;stroke-width:1.0;" x1="639.658" x2="639.658" y1="1581.9082" y2="1601.9082"/><polygon fill="#5A3E28" points="635.658,1591.9082,639.658,1601.9082,643.658,1591.9082,639.658,1595.9082" style="stroke:#5A3E28;stroke-width:1.0;"/><line style="stroke:#5A3E28;stroke-width:1.0;" x1="639.658" x2="639.658" y1="1005.2676" y2="1025.2676"/><polygon fill="#5A3E28" points="635.658,1015.2676,639.658,1025.2676,643.658,1015.2676,639.658,1019.2676" style="stroke:#5A3E28;stroke-width:1.0;"/><line style="stroke:#5A3E28;stroke-width:1.0;" x1="639.658" x2="639.658" y1="1625.9082" y2="1657.6133"/><polygon fill="#5A3E28" points="635.658,1647.6133,639.658,1657.6133,643.658,1647.6133,639.658,1651.6133" style="stroke:#5A3E28;stroke-width:1.0;"/><line style="stroke:#5A3E28;stroke-width:1.0;" x1="639.658" x2="639.658" y1="1705.7383" y2="1725.7383"/><polygon fill="#5A3E28" points="635.658,1715.7383,639.658,1725.7383,643.658,1715.7383,639.658,1719.7383" style="stroke:#5A3E28;stroke-width:1.0;"/><line style="stroke:#5A3E28;stroke-width:1.0;" x1="639.658" x2="639.658" y1="1759.8008" y2="1779.8008"/><polygon fill="#5A3E28" points="635.658,1769.8008,639.658,1779.8008,643.658,1769.8008,639.658,1773.8008" style="stroke:#5A3E28;stroke-width:1.0;"/><line style="stroke:#5A3E28;stroke-width:1.0;" x1="639.658" x2="639.658" y1="1827.9258" y2="1847.9258"/><polygon fill="#5A3E28" points="635.658,1837.9258,639.658,1847.9258,643.658,1837.9258,639.658,1841.9258" style="stroke:#5A3E28;stroke-width:1.0;"/><rect fill="none" height="161.6563" id="_legend" rx="5" ry="5" style="stroke:#000000;stroke-width:1.0;" width="526.0449" x="374.4968" y="1880.9258"/><text fill="#000000" font-family="Roboto" font-size="14" font-weight="bold" lengthAdjust="spacing" textLength="33.2705" x="382.9832" y="1900.9141">Node</text><text fill="#000000" font-family="Roboto" font-size="14" font-weight="bold" lengthAdjust="spacing" textLength="54.7285" x="430.5134" y="1900.9141">Meaning</text><text fill="#000000" filter="url(#b1642mlu345cx0)" font-family="Roboto" font-size="14" lengthAdjust="spacing" textLength="33.6396" x="386.4421" y="1917.3203">white</text><text fill="#000000" font-family="Roboto" font-size="14" lengthAdjust="spacing" textLength="175.1162" x="430.4998" y="1917.3203">Shipped in the kid app today</text><text fill="#000000" filter="url(#b1642mlu345cx1)" font-family="Roboto" font-size="14" lengthAdjust="spacing" textLength="27.3779" x="386.4421" y="1933.7266">rose</text><text fill="#000000" font-family="Roboto" font-size="14" lengthAdjust="spacing" textLength="129.6982" x="430.4998" y="1933.7266">Planned, not yet built</text><line style="stroke:#000000;stroke-width:1.0;" x1="379.4968" x2="609.0886" y1="1887.9258" y2="1887.9258"/><line style="stroke:#000000;stroke-width:1.0;" x1="379.4968" x2="609.0886" y1="1904.332" y2="1904.332"/><line style="stroke:#000000;stroke-width:1.0;" x1="379.4968" x2="609.0886" y1="1920.7383" y2="1920.7383"/><line style="stroke:#000000;stroke-width:1.0;" x1="379.4968" x2="609.0886" y1="1937.1445" y2="1937.1445"/><line style="stroke:#000000;stroke-width:1.0;" x1="379.4968" x2="379.4968" y1="1887.9258" y2="1937.1445"/><line style="stroke:#000000;stroke-width:1.0;" x1="427.0271" x2="427.0271" y1="1887.9258" y2="1937.1445"/><line style="stroke:#000000;stroke-width:1.0;" x1="609.0886" x2="609.0886" y1="1887.9258" y2="1937.1445"/><text fill="#000000" font-family="Roboto" font-size="14" lengthAdjust="spacing" textLength="481.749" x="379.4968" y="1952.1328">The kid surface is a separate route tree from the guardian console and shares</text><text fill="#000000" font-family="Roboto" font-size="14" lengthAdjust="spacing" textLength="476.417" x="379.4968" y="1968.5391">no navigation. ADR-014: the whole tree sits behind a local device-grant check</text><text fill="#000000" font-family="Roboto" font-size="14" lengthAdjust="spacing" textLength="445.1221" x="379.4968" y="1984.9453">(DeviceAuthorizedRoute), not a per-page gate, and stays Supabase-free.</text><text fill="#000000" font-family="Roboto" font-size="14" lengthAdjust="spacing" textLength="478.249" x="379.4968" y="2001.3516">See journey-guardian for the parent side, seq-device-grant for the mint/verify/</text><text fill="#000000" font-family="Roboto" font-size="14" lengthAdjust="spacing" textLength="516.0449" x="379.4968" y="2017.7578">revoke mechanics, journey-end-to-end for the whole loop, and journey-dev-coverage</text><text fill="#000000" font-family="Roboto" font-size="14" lengthAdjust="spacing" textLength="109.2041" x="379.4968" y="2034.1641">for test coverage.</text><!--SRC=[fLZTRXit5hwVfpXLBYoXaYTftAujDmqIkmwyRLB3Rj3TXO45DSFHi1gHKvAoeeKlzbdsqVP9zZiaHzPVWWMQN8p58S_vpjzt3kU8Nls9VzaH_SEOkIpfevDszEEdLbebTI7fgZ7BCVsaIhfRs4eKCZl2vXjhoaNXyuz_6nMDiCglI3HU-KKfgJAMV2sfg5LJZd14wIc9jYMZcnNrhLbuITvAIRsyDpY6j0-6Zwcc6TEoLdZxYbojsXPml2d5QaZME5vj6w4rLllQU5f9JvE5QZpBW9Gxix00x0g8rcwC5QBA6ksbBdDdYpnejiVUVIBgps3H4vGnvLXmGyeRDR72hl9nQmqWoUiIYrQACZy-FZuFGeakvOCgv9k5hurL_vBbRH2qjA9rmVHbRPeeU4XlBcz7pr-S3FRn29pF3ufYZ4CAxylm_fqLscEL-adSE25fJ24QYfj6Kzu5lyjYDaIuMZ4HJeugm3YW7Qui4Pdyv_Yy4LEPN9EaEI-y78cbi9BZxwWqnXuG1CVbDz5PDwgOITk9Eg0pEVVd-Ems3kcjCRCBOSluwyuBUoiyK7rPpAtyOo6Tl_F6hXBsc7HAAw-07Y6EMuRqszteRHU-b5n3cfk5vbr6Xx0bkTG25ur6v92ZebMvOmN_JABSSRiwu0LE4Ma1YH_HZFZtHa0lZAuQLVXB9HhpPDjDZJ3HYG2S2Pn87wzfgQoih9YZYWogiFNaMbbG_-QMdftyPTXPS1vWkvZufIbeeQ4nMOdVBdSBL79hbjBYRuXmEIs5WriyD9I4Fr4lmXSr0MQxyCJgI27JbiREQ2xjL9PixfzYbmpKq8Gi6YKMeRy2j9QhUztVumdGmlbEnGzfk-AppCsKRWLSXEIlnABnLmZ61_POxzPCZ3UzZIqJKSocg7PTNfW6zFJiwWt_tzYHNWAIfHVFDrwuMfHcoT0gqJYvyUQDjMQPv7qhNiflJdTVCgJFRYYyUW1lljs3TdLrUNLmfx48RjfrMdnNVVlTWLt8hRdHvPxOwhHwAK-_SE2BqZyOB_UHllZnxF9qTzUcdE9iSd9QPTdZiwldbsTlJnylEDQF6QZ5-cpyIojZuI7gMT-BDlnuufhpJ5NKlsPELIwHN635I9MlaJoVvRzxhGrD5-0K9JHeSgeq9z6Q5kzrC6NahMe70rQigR-IRf19X9axp20Z6h_h93WrrOwK9j0bNgnHR84xnniagYIhfhL7K-a0v070QyLyuL-j3u-IJVJVV_zdJKltEd4yKz0SHnm9Edi-GYFiV10C7GRGzxgq1cs7KvngQUKvTgEyKLsXdjRUIcVX5_c090Ut9UZEovR4L2YTWSnKbOr_HIJcwEWF0d7A-j-C2jCivfhQGE_3h1IkXi12sG9LZHXfeoMYjMKwzrCGSkeC55l3ODlKB1lVyHoWvP82oHBJwEghNWP6NYFO5injQU60fMdsX8M4mhdKNx8-61TjP2435xC_u26JVKszzmPTpHl2f8DCbJq8aKsrQyF-CB2dadtLIuq8dWzMz38a2Jd4QraB3pOzGWWd8DYiZwhehK4bzuSJC1YdUUf2BD4DTw1ijhg3xMedXLoaMSSsYdKTvA94GeMr5YOzI0AUKXQDqaWCv3nQ4AeNhHSgIkc5QYXcIssMuTnwi1l4qC7P_ARhZKTPnNDZYK4lnYdh_oOKTtBAwUzYzHKUO8bekLVptQpfnhveJU_zQYsv1tETXyCvaM0I- -WyGsEIO5fByXFtB1vLa44DIWDd8ASLldPFB29JbY6lL2CcZNozLVcezzYpoI2HDWxirNKO29-o8X-7ROo9Vy1ZZZsudIlCAum4pfuHp9-B1gCoPkw8WRMpHmMjNSX63QDgB9VGINYn2wRpMJ-E8CVSviTFqedriMs0s2PoYrvW3Cev16VGAU-ngeg9iTSfPYUOgk8KmJ3IhlvFzL5mTD-Jzi0lcPMjH5sC-GGCQuLpIE7pplz1PLh4Mf-heXhILA8v6vI-QyEiC0W7teiP-woe3SWjx3OyDOMVN5membgLPV0lXZqaz3ggSSB5nGLN73VOiokClzCmHJuefp2QyJLdEwR4xDT_CwThljt0HRi9nGXHeTPChNJ08nw02bFNDKqDQupnIFvD1twI86IR20j3vfn5Pd6aM-h6mCrb2CLmBJYyNGgk0MvHX9fP18TksvJqZ2fbmLQxfa3rBrpA63crB9YtoArquQ8SDlGIboO1WM3Hr4x2gw8MUifJ8nZ2R7fWIBWTkZhQ1V4NjU6n3fSy39nhfu1MPZ0vRUhFETFo42Rq1Ix6q5pYsqrhjiVf0-PiTdAYc7pTC-KWeA0vzKCxY5K1DEnxc87w264CPS3fNN3NmomWmurfaBeN0uqhwUwPOM-OS8PChxtGcI4LLCa4uNexdBTrTfV7Er7qDNLo4ks7QSQ6MrBe-o3aTuOsbAKcU9wDRqEQ1-qqWOKWVpx5sSB2NPOQIkY1s-2UhcBSTRfhsZxAkALHdDvggpqDromI2MAG1Ih86ec2BW7AUpD7M1vVnUy0UBwN8WmlZxpyFPiqJcFn3vI-4D3tEQ__y4XtYN-ILhxNyoKYV3ZObl3oykpo11B2rM93mit1EqOu-skIcDeffmHtQHvtsKTFdpAwCdqQEL55Zhy2X56WHcToWM18YmSr3HtskFisCDxvQ81X4w6Po5ffviVFpRZCTWS_7mo6gMNWxZSAqm7Js3120IEwxOy3nn34YVnxl9ADrYPqNt9WBiPMe2eXnCa_HbjOkbqygkOFpDMh71AjV32WvhbaTb05kA2JBtdiDlnOdussDyQq4MMt5OemV49eR0LXEmzQtTenjvIOITd_0000]--></g></svg>
