<svg xmlns="http://www.w3.org/2000/svg" xmlns:xlink="http://www.w3.org/1999/xlink" contentStyleType="text/css" height="1994px" preserveAspectRatio="none" style="width:2011px;height:1994px;background:#FAFAFA;" version="1.1" viewBox="0 0 2011 1994" width="2011px" zoomAndPan="magnify"><title>Target-State End-to-End User Journey</title><defs><style type="text/css">@import url('https://fonts.googleapis.com/css?family=Roboto:400,100,100italic,300,300italic,400italic,500,500italic,700,700italic,900,900italic');</style><filter height="1" id="b5ja4esyetz3w0" width="1" x="0" y="0"><feFlood flood-color="#FFFDF8" result="flood"/><feComposite in="SourceGraphic" in2="flood" operator="over"/></filter><filter height="1" id="b5ja4esyetz3w1" width="1" x="0" y="0"><feFlood flood-color="#F3D9D4" result="flood"/><feComposite in="SourceGraphic" in2="flood" operator="over"/></filter></defs><g><rect fill="#FAFAFA" height="1994" style="stroke:none;stroke-width:1.0;" width="2011" x="0" y="0"/><text fill="#000000" font-family="Roboto" font-size="14" font-weight="bold" lengthAdjust="spacing" textLength="241.582" x="883.4521" y="32.9883">Target-State End-to-End User Journey</text><text fill="#000000" font-family="Roboto" font-size="14" font-weight="bold" lengthAdjust="spacing" textLength="278.9268" x="864.7798" y="49.3945">(child-initiated; rose = planned, not yet built)</text><rect fill="none" height="21.0938" style="stroke:none;stroke-width:1.0;" width="1982.4863" x="11" y="66.707"/><rect fill="#F0D9B8" height="1712.918" style="stroke:#F0D9B8;stroke-width:1.0;" width="542.2612" x="28" y="66.707"/><path d="M293.0386,341.5898 L293.0386,350.207 L273.0386,354.207 L293.0386,358.207 L293.0386,366.8242 A0,0 0 0 0 293.0386,366.8242 L475.0024,366.8242 A0,0 0 0 0 475.0024,366.8242 L475.0024,351.5898 L465.0024,341.5898 L293.0386,341.5898 A0,0 0 0 0 293.0386,341.5898 " fill="#F1E9D8" style="stroke:#C9B48F;stroke-width:0.5;"/><path d="M465.0024,341.5898 L465.0024,351.5898 L475.0024,351.5898 L465.0024,341.5898 " fill="#F1E9D8" style="stroke:#C9B48F;stroke-width:0.5;"/><text fill="#000000" font-family="Roboto" font-size="13" lengthAdjust="spacing" textLength="160.9639" x="299.0386" y="358.6504">/  (Profile Picker)  &#8226;  shipped</text><rect fill="#FFFDF8" height="34.0625" rx="5" ry="5" style="stroke:#8C6F56;stroke-width:1.0;" width="168.9102" x="104.1284" y="337.1758"/><text fill="#000000" font-family="Roboto" font-size="12" lengthAdjust="spacing" textLength="148.9102" x="114.1284" y="358.3086">Open the app, tap my avatar</text><path d="M275.3081,409.7148 L275.3081,418.332 L255.3081,422.332 L275.3081,426.332 L275.3081,434.9492 A0,0 0 0 0 275.3081,434.9492 L546.7231,434.9492 A0,0 0 0 0 546.7231,434.9492 L546.7231,419.7148 L536.7231,409.7148 L275.3081,409.7148 A0,0 0 0 0 275.3081,409.7148 " fill="#F1E9D8" style="stroke:#C9B48F;stroke-width:0.5;"/><path d="M536.7231,409.7148 L536.7231,419.7148 L546.7231,419.7148 L536.7231,409.7148 " fill="#F1E9D8" style="stroke:#C9B48F;stroke-width:0.5;"/><text fill="#000000" font-family="Roboto" font-size="13" lengthAdjust="spacing" textLength="250.415" x="281.3081" y="426.7754">RequestStory on the library page  &#8226;  shipped</text><rect fill="#FFFDF8" height="62.1875" rx="5" ry="5" style="stroke:#8C6F56;stroke-width:1.0;" width="133.4492" x="121.8589" y="391.2383"/><text fill="#000000" font-family="Roboto" font-size="12" lengthAdjust="spacing" textLength="109.125" x="131.8589" y="412.3711">Open my Library, tap</text><text fill="#000000" font-family="Roboto" font-size="12" lengthAdjust="spacing" textLength="113.4492" x="131.8589" y="426.4336">"Request a story" and</text><text fill="#000000" font-family="Roboto" font-size="12" lengthAdjust="spacing" textLength="99.1934" x="131.8589" y="440.4961">say what it's about</text><path d="M266.0093,1182.7637 L266.0093,1191.3809 L246.0093,1195.3809 L266.0093,1199.3809 L266.0093,1207.998 A0,0 0 0 0 266.0093,1207.998 L447.1924,1207.998 A0,0 0 0 0 447.1924,1207.998 L447.1924,1192.7637 L437.1924,1182.7637 L266.0093,1182.7637 A0,0 0 0 0 266.0093,1182.7637 " fill="#F1E9D8" style="stroke:#C9B48F;stroke-width:0.5;"/><path d="M437.1924,1182.7637 L437.1924,1192.7637 L447.1924,1192.7637 L437.1924,1182.7637 " fill="#F1E9D8" style="stroke:#C9B48F;stroke-width:0.5;"/><text fill="#000000" font-family="Roboto" font-size="13" lengthAdjust="spacing" textLength="160.1831" x="272.0093" y="1199.8242">Profile Picker pill  &#8226;  shipped</text><rect fill="#FFFDF8" height="48.125" rx="5" ry="5" style="stroke:#8C6F56;stroke-width:1.0;" width="114.8516" x="131.1577" y="1171.3184"/><text fill="#000000" font-family="Roboto" font-size="12" lengthAdjust="spacing" textLength="90.3516" x="141.1577" y="1192.4512">My avatar shows</text><text fill="#000000" font-family="Roboto" font-size="12" lengthAdjust="spacing" textLength="94.8516" x="141.1577" y="1206.5137">"new story ready!"</text><path d="M289.2563,1250.8887 L289.2563,1259.5059 L269.2563,1263.5059 L289.2563,1267.5059 L289.2563,1276.123 A0,0 0 0 0 289.2563,1276.123 L470.6489,1276.123 A0,0 0 0 0 470.6489,1276.123 L470.6489,1260.8887 L460.6489,1250.8887 L289.2563,1250.8887 A0,0 0 0 0 289.2563,1250.8887 " fill="#F1E9D8" style="stroke:#C9B48F;stroke-width:0.5;"/><path d="M460.6489,1250.8887 L460.6489,1260.8887 L470.6489,1260.8887 L460.6489,1250.8887 " fill="#F1E9D8" style="stroke:#C9B48F;stroke-width:0.5;"/><text fill="#000000" font-family="Roboto" font-size="13" lengthAdjust="spacing" textLength="160.3926" x="295.2563" y="1267.9492">/library/:profileId  &#8226;  shipped</text><rect fill="#FFFDF8" height="48.125" rx="5" ry="5" style="stroke:#8C6F56;stroke-width:1.0;" width="161.3457" x="107.9106" y="1239.4434"/><text fill="#000000" font-family="Roboto" font-size="12" lengthAdjust="spacing" textLength="86.5957" x="117.9106" y="1260.5762">Open my Library</text><text fill="#000000" font-family="Roboto" font-size="12" lengthAdjust="spacing" textLength="141.3457" x="117.9106" y="1274.6387">(Continue Reading + shelf)</text><path d="M260.5161,1319.0137 L260.5161,1327.6309 L240.5161,1331.6309 L260.5161,1335.6309 L260.5161,1344.248 A0,0 0 0 0 260.5161,1344.248 L447.3994,1344.248 A0,0 0 0 0 447.3994,1344.248 L447.3994,1329.0137 L437.3994,1319.0137 L260.5161,1319.0137 A0,0 0 0 0 260.5161,1319.0137 " fill="#F1E9D8" style="stroke:#C9B48F;stroke-width:0.5;"/><path d="M437.3994,1319.0137 L437.3994,1329.0137 L447.3994,1329.0137 L437.3994,1319.0137 " fill="#F1E9D8" style="stroke:#C9B48F;stroke-width:0.5;"/><text fill="#000000" font-family="Roboto" font-size="13" lengthAdjust="spacing" textLength="165.8833" x="266.5161" y="1336.0742">/read/...  (Reader)  &#8226;  shipped</text><rect fill="#FFFDF8" height="48.125" rx="5" ry="5" style="stroke:#8C6F56;stroke-width:1.0;" width="103.8652" x="136.6509" y="1307.5684"/><text fill="#000000" font-family="Roboto" font-size="12" lengthAdjust="spacing" textLength="83.8652" x="146.6509" y="1328.7012">Read passages,</text><text fill="#000000" font-family="Roboto" font-size="12" lengthAdjust="spacing" textLength="73.9629" x="146.6509" y="1342.7637">make choices</text><polygon fill="#F8F3E8" points="170.5339,1375.6934,206.6331,1375.6934,218.6331,1387.6934,206.6331,1399.6934,170.5339,1399.6934,158.5339,1387.6934,170.5339,1375.6934" style="stroke:#8C6F56;stroke-width:1.0;"/><text fill="#000000" font-family="Roboto" font-size="11" lengthAdjust="spacing" textLength="36.0991" x="170.5339" y="1391.4531">Online?</text><text fill="#5A3E28" font-family="Roboto" font-size="11" lengthAdjust="spacing" textLength="16.7148" x="141.8191" y="1385.0078">yes</text><text fill="#5A3E28" font-family="Roboto" font-size="11" lengthAdjust="spacing" textLength="31.1792" x="218.6331" y="1385.0078">offline</text><rect fill="#FFFDF8" height="34.0625" rx="5" ry="5" style="stroke:#8C6F56;stroke-width:1.0;" width="140.5977" x="34" y="1409.6934"/><text fill="#000000" font-family="Roboto" font-size="12" lengthAdjust="spacing" textLength="120.5977" x="44" y="1430.8262">Progress saves as I go</text><path d="M371.1387,1421.1387 L371.1387,1429.7559 L351.1387,1433.7559 L371.1387,1437.7559 L371.1387,1446.373 A0,0 0 0 0 371.1387,1446.373 L518.7681,1446.373 A0,0 0 0 0 518.7681,1446.373 L518.7681,1431.1387 L508.7681,1421.1387 L371.1387,1421.1387 A0,0 0 0 0 371.1387,1421.1387 " fill="#F1E9D8" style="stroke:#C9B48F;stroke-width:0.5;"/><path d="M508.7681,1421.1387 L508.7681,1431.1387 L518.7681,1431.1387 L508.7681,1421.1387 " fill="#F1E9D8" style="stroke:#C9B48F;stroke-width:0.5;"/><text fill="#000000" font-family="Roboto" font-size="13" lengthAdjust="spacing" textLength="126.6294" x="377.1387" y="1438.1992">offline-first  &#8226;  shipped</text><rect fill="#FFFDF8" height="48.125" rx="5" ry="5" style="stroke:#8C6F56;stroke-width:1.0;" width="156.541" x="194.5977" y="1409.6934"/><text fill="#000000" font-family="Roboto" font-size="12" lengthAdjust="spacing" textLength="93.0352" x="204.5977" y="1430.8262">Read from cache,</text><text fill="#000000" font-family="Roboto" font-size="12" lengthAdjust="spacing" textLength="136.541" x="204.5977" y="1444.8887">progress waits in a queue</text><path d="M363.3164,1489.2637 L363.3164,1497.8809 L343.3164,1501.8809 L363.3164,1505.8809 L363.3164,1514.498 A0,0 0 0 0 363.3164,1514.498 L558.2612,1514.498 A0,0 0 0 0 558.2612,1514.498 L558.2612,1499.2637 L548.2612,1489.2637 L363.3164,1489.2637 A0,0 0 0 0 363.3164,1489.2637 " fill="#F1E9D8" style="stroke:#C9B48F;stroke-width:0.5;"/><path d="M548.2612,1489.2637 L548.2612,1499.2637 L558.2612,1499.2637 L548.2612,1489.2637 " fill="#F1E9D8" style="stroke:#C9B48F;stroke-width:0.5;"/><text fill="#000000" font-family="Roboto" font-size="13" lengthAdjust="spacing" textLength="173.9448" x="369.3164" y="1506.3242">seq-offline / seq-reading-state</text><rect fill="#FFFDF8" height="48.125" rx="5" ry="5" style="stroke:#8C6F56;stroke-width:1.0;" width="140.8965" x="202.4199" y="1477.8184"/><text fill="#000000" font-family="Roboto" font-size="12" lengthAdjust="spacing" textLength="115.0078" x="212.4199" y="1498.9512">On reconnect it syncs</text><text fill="#000000" font-family="Roboto" font-size="12" lengthAdjust="spacing" textLength="120.8965" x="212.4199" y="1513.0137">(reconcile if it clashes)</text><polygon fill="#F8F3E8" points="188.5835,1531.9434,200.5835,1543.9434,188.5835,1555.9434,176.5835,1543.9434,188.5835,1531.9434" style="stroke:#8C6F56;stroke-width:1.0;"/><rect fill="#FFFDF8" height="34.0625" rx="5" ry="5" style="stroke:#8C6F56;stroke-width:1.0;" width="108.3242" x="134.4214" y="1575.9434"/><text fill="#000000" font-family="Roboto" font-size="12" lengthAdjust="spacing" textLength="88.3242" x="144.4214" y="1597.0762">Reach an ending</text><path d="M296.9849,1626.2168 L296.9849,1650.0684 L276.9849,1654.0684 L296.9849,1658.0684 L296.9849,1681.9199 A0,0 0 0 0 296.9849,1681.9199 L526.0483,1681.9199 A0,0 0 0 0 526.0483,1681.9199 L526.0483,1636.2168 L516.0483,1626.2168 L296.9849,1626.2168 A0,0 0 0 0 296.9849,1626.2168 " fill="#F1E9D8" style="stroke:#C9B48F;stroke-width:0.5;"/><path d="M516.0483,1626.2168 L516.0483,1636.2168 L526.0483,1636.2168 L516.0483,1626.2168 " fill="#F1E9D8" style="stroke:#C9B48F;stroke-width:0.5;"/><text fill="#000000" font-family="Roboto" font-size="13" lengthAdjust="spacing" textLength="45.8555" x="302.9849" y="1643.2773">shipped</text><text fill="#000000" font-family="Roboto" font-size="13" lengthAdjust="spacing" textLength="208.0635" x="302.9849" y="1658.5117">(rating lives on the library BookCard,</text><text fill="#000000" font-family="Roboto" font-size="13" lengthAdjust="spacing" textLength="169.5078" x="302.9849" y="1673.7461">not the reader ending screen)</text><rect fill="#FFFDF8" height="48.125" rx="5" ry="5" style="stroke:#8C6F56;stroke-width:1.0;" width="176.8027" x="100.1821" y="1630.0059"/><text fill="#000000" font-family="Roboto" font-size="12" lengthAdjust="spacing" textLength="73.7695" x="110.1821" y="1651.1387">Rate the story</text><text fill="#000000" font-family="Roboto" font-size="12" lengthAdjust="spacing" textLength="156.8027" x="110.1821" y="1665.2012">(tap stars on the library shelf)</text><polygon fill="#F8F3E8" points="139.532,1701.9199,237.635,1701.9199,249.635,1713.9199,237.635,1725.9199,139.532,1725.9199,127.532,1713.9199,139.532,1701.9199" style="stroke:#8C6F56;stroke-width:1.0;"/><text fill="#5A3E28" font-family="Roboto" font-size="11" lengthAdjust="spacing" textLength="12.3481" x="192.5835" y="1736.125">no</text><text fill="#000000" font-family="Roboto" font-size="11" lengthAdjust="spacing" textLength="98.103" x="139.532" y="1717.6797">Want another story?</text><text fill="#5A3E28" font-family="Roboto" font-size="11" lengthAdjust="spacing" textLength="16.7148" x="249.635" y="1711.2344">yes</text><ellipse cx="188.5835" cy="1768.625" fill="none" rx="11" ry="11" style="stroke:#222222;stroke-width:1.0;"/><ellipse cx="188.5835" cy="1768.625" fill="#222222" rx="6" ry="6" style="stroke:#222222;stroke-width:1.0;"/><line style="stroke:#000000;stroke-width:1.5;" x1="28" x2="28" y1="66.707" y2="1779.625"/><rect fill="#CDDCEC" height="1712.918" style="stroke:#CDDCEC;stroke-width:1.0;" width="516.6555" x="585.2612" y="66.707"/><ellipse cx="683.3862" cy="102.8008" fill="#222222" rx="10" ry="10" style="stroke:#222222;stroke-width:1.0;"/><path d="M781.5044,151.2773 L781.5044,159.8945 L761.5044,163.8945 L781.5044,167.8945 L781.5044,176.5117 A0,0 0 0 0 781.5044,176.5117 L955.2734,176.5117 A0,0 0 0 0 955.2734,176.5117 L955.2734,161.2773 L945.2734,151.2773 L781.5044,151.2773 A0,0 0 0 0 781.5044,151.2773 " fill="#F1E9D8" style="stroke:#C9B48F;stroke-width:0.5;"/><path d="M945.2734,151.2773 L945.2734,161.2773 L955.2734,161.2773 L945.2734,151.2773 " fill="#F1E9D8" style="stroke:#C9B48F;stroke-width:0.5;"/><text fill="#000000" font-family="Roboto" font-size="13" lengthAdjust="spacing" textLength="152.769" x="787.5044" y="168.3379">/guardian/login  &#8226;  shipped</text><rect fill="#FFFDF8" height="62.1875" rx="5" ry="5" style="stroke:#8C6F56;stroke-width:1.0;" width="156.2363" x="605.2681" y="132.8008"/><text fill="#000000" font-family="Roboto" font-size="12" lengthAdjust="spacing" textLength="35.9297" x="615.2681" y="153.9336">Sign in</text><text fill="#000000" font-family="Roboto" font-size="12" lengthAdjust="spacing" textLength="136.2363" x="615.2681" y="167.9961">(email/password, Google,</text><text fill="#000000" font-family="Roboto" font-size="12" lengthAdjust="spacing" textLength="103.998" x="615.2681" y="182.0586">or Apple if enabled)</text><path d="M782.1724,226.4336 L782.1724,235.0508 L762.1724,239.0508 L782.1724,243.0508 L782.1724,251.668 A0,0 0 0 0 782.1724,251.668 L971.29,251.668 A0,0 0 0 0 971.29,251.668 L971.29,236.4336 L961.29,226.4336 L782.1724,226.4336 A0,0 0 0 0 782.1724,226.4336 " fill="#F1E9D8" style="stroke:#C9B48F;stroke-width:0.5;"/><path d="M961.29,226.4336 L961.29,236.4336 L971.29,236.4336 L961.29,226.4336 " fill="#F1E9D8" style="stroke:#C9B48F;stroke-width:0.5;"/><text fill="#000000" font-family="Roboto" font-size="13" lengthAdjust="spacing" textLength="168.1177" x="788.1724" y="243.4941">/guardian/profiles  &#8226;  shipped</text><rect fill="#FFFDF8" height="48.125" rx="5" ry="5" style="stroke:#8C6F56;stroke-width:1.0;" width="157.5723" x="604.6001" y="214.9883"/><text fill="#000000" font-family="Roboto" font-size="12" lengthAdjust="spacing" textLength="137.5723" x="614.6001" y="236.1211">Create each child's profile</text><text fill="#000000" font-family="Roboto" font-size="12" lengthAdjust="spacing" textLength="121.1016" x="614.6001" y="250.1836">(name + preset avatar)</text><path d="M774.4497,484.2852 L774.4497,500.5195 L754.4497,504.5195 L774.4497,508.5195 L774.4497,524.7539 A0,0 0 0 0 774.4497,524.7539 L1015.5356,524.7539 A0,0 0 0 0 1015.5356,524.7539 L1015.5356,494.2852 L1005.5356,484.2852 L774.4497,484.2852 A0,0 0 0 0 774.4497,484.2852 " fill="#F1E9D8" style="stroke:#C9B48F;stroke-width:0.5;"/><path d="M1005.5356,484.2852 L1005.5356,494.2852 L1015.5356,494.2852 L1005.5356,484.2852 " fill="#F1E9D8" style="stroke:#C9B48F;stroke-width:0.5;"/><text fill="#000000" font-family="Roboto" font-size="13" lengthAdjust="spacing" textLength="174.9731" x="780.4497" y="501.3457">/guardian/requests  &#8226;  shipped</text><text fill="#000000" font-family="Roboto" font-size="13" lengthAdjust="spacing" textLength="220.0859" x="780.4497" y="516.5801">(guardian-own-family or admin-global)</text><rect fill="#FFFDF8" height="62.1875" rx="5" ry="5" style="stroke:#8C6F56;stroke-width:1.0;" width="142.127" x="612.3228" y="473.4258"/><text fill="#000000" font-family="Roboto" font-size="12" lengthAdjust="spacing" textLength="119.1152" x="622.3228" y="494.5586">See my child's request</text><text fill="#000000" font-family="Roboto" font-size="12" lengthAdjust="spacing" textLength="122.127" x="622.3228" y="508.6211">(screened text + flags),</text><text fill="#000000" font-family="Roboto" font-size="12" lengthAdjust="spacing" textLength="108.0117" x="622.3228" y="522.6836">approve or decline it</text><path d="M770.647,703.3086 L770.647,711.9258 L750.647,715.9258 L770.647,719.9258 L770.647,728.543 A0,0 0 0 0 770.647,728.543 L951.3477,728.543 A0,0 0 0 0 951.3477,728.543 L951.3477,713.3086 L941.3477,703.3086 L770.647,703.3086 A0,0 0 0 0 770.647,703.3086 " fill="#F1E9D8" style="stroke:#C9B48F;stroke-width:0.5;"/><path d="M941.3477,703.3086 L941.3477,713.3086 L951.3477,713.3086 L941.3477,703.3086 " fill="#F1E9D8" style="stroke:#C9B48F;stroke-width:0.5;"/><text fill="#000000" font-family="Roboto" font-size="13" lengthAdjust="spacing" textLength="159.7007" x="776.647" y="720.3691">/guardian/intake  &#8226;  shipped</text><rect fill="#FFFDF8" height="48.125" rx="5" ry="5" style="stroke:#8C6F56;stroke-width:1.0;" width="134.5215" x="616.1255" y="691.8633"/><text fill="#000000" font-family="Roboto" font-size="12" lengthAdjust="spacing" textLength="114.5215" x="626.1255" y="712.9961">"My Requests" shows</text><text fill="#000000" font-family="Roboto" font-size="12" lengthAdjust="spacing" textLength="75.5098" x="626.1255" y="727.0586">"Generating..."</text><path d="M795.5112,1114.6387 L795.5112,1123.2559 L775.5112,1127.2559 L795.5112,1131.2559 L795.5112,1139.873 A0,0 0 0 0 795.5112,1139.873 L964.7417,1139.873 A0,0 0 0 0 964.7417,1139.873 L964.7417,1124.6387 L954.7417,1114.6387 L795.5112,1114.6387 A0,0 0 0 0 795.5112,1114.6387 " fill="#F1E9D8" style="stroke:#C9B48F;stroke-width:0.5;"/><path d="M954.7417,1114.6387 L954.7417,1124.6387 L964.7417,1124.6387 L954.7417,1114.6387 " fill="#F1E9D8" style="stroke:#C9B48F;stroke-width:0.5;"/><text fill="#000000" font-family="Roboto" font-size="13" lengthAdjust="spacing" textLength="148.2305" x="801.5112" y="1131.6992">intake / assign  &#8226;  shipped</text><rect fill="#FFFDF8" height="48.125" rx="5" ry="5" style="stroke:#8C6F56;stroke-width:1.0;" width="184.25" x="591.2612" y="1103.1934"/><text fill="#000000" font-family="Roboto" font-size="12" lengthAdjust="spacing" textLength="108.4102" x="601.2612" y="1124.3262">Assign it to the child</text><text fill="#000000" font-family="Roboto" font-size="12" lengthAdjust="spacing" textLength="164.25" x="601.2612" y="1138.3887">("Assign more" to add siblings)</text><rect fill="#FFFDF8" height="34.0625" rx="5" ry="5" style="stroke:#8C6F56;stroke-width:1.0;" width="135.4883" x="615.6421" y="283.1133"/><text fill="#000000" font-family="Roboto" font-size="12" lengthAdjust="spacing" textLength="115.4883" x="625.6421" y="304.2461">a new story is wanted</text><line style="stroke:#000000;stroke-width:1.5;" x1="585.2612" x2="585.2612" y1="66.707" y2="1779.625"/><rect fill="#C5D9CC" height="1712.918" style="stroke:#C5D9CC;stroke-width:1.0;" width="564.0366" x="1030.5356" y="66.707"/><path d="M1224.2007,832.5273 L1224.2007,841.1445 L1204.2007,845.1445 L1224.2007,849.1445 L1224.2007,857.7617 A0,0 0 0 0 1224.2007,857.7617 L1427.0483,857.7617 A0,0 0 0 0 1427.0483,857.7617 L1427.0483,842.5273 L1417.0483,832.5273 L1224.2007,832.5273 A0,0 0 0 0 1224.2007,832.5273 " fill="#F1E9D8" style="stroke:#C9B48F;stroke-width:0.5;"/><path d="M1417.0483,832.5273 L1417.0483,842.5273 L1427.0483,842.5273 L1417.0483,832.5273 " fill="#F1E9D8" style="stroke:#C9B48F;stroke-width:0.5;"/><text fill="#000000" font-family="Roboto" font-size="13" lengthAdjust="spacing" textLength="181.8477" x="1230.2007" y="849.5879">/guardian  (Console)  &#8226;  shipped</text><rect fill="#FFFDF8" height="62.1875" rx="5" ry="5" style="stroke:#8C6F56;stroke-width:1.0;" width="141.1309" x="1063.0698" y="814.0508"/><text fill="#000000" font-family="Roboto" font-size="12" lengthAdjust="spacing" textLength="121.1309" x="1073.0698" y="835.1836">Open the review queue</text><text fill="#000000" font-family="Roboto" font-size="12" lengthAdjust="spacing" textLength="113.7246" x="1073.0698" y="849.2461">(Flagged, then Ready,</text><text fill="#000000" font-family="Roboto" font-size="12" lengthAdjust="spacing" textLength="112.4238" x="1073.0698" y="863.3086">then Still processing)</text><path d="M1237.106,922.6836 L1237.106,931.3008 L1217.106,935.3008 L1237.106,939.3008 L1237.106,947.918 A0,0 0 0 0 1237.106,947.918 L1439.084,947.918 A0,0 0 0 0 1439.084,947.918 L1439.084,932.6836 L1429.084,922.6836 L1237.106,922.6836 A0,0 0 0 0 1237.106,922.6836 " fill="#F1E9D8" style="stroke:#C9B48F;stroke-width:0.5;"/><path d="M1429.084,922.6836 L1429.084,932.6836 L1439.084,932.6836 L1429.084,922.6836 " fill="#F1E9D8" style="stroke:#C9B48F;stroke-width:0.5;"/><text fill="#000000" font-family="Roboto" font-size="13" lengthAdjust="spacing" textLength="180.978" x="1243.106" y="939.7441">/guardian/review/:id  &#8226;  shipped</text><rect fill="#FFFDF8" height="48.125" rx="5" ry="5" style="stroke:#8C6F56;stroke-width:1.0;" width="166.9414" x="1050.1646" y="911.2383"/><text fill="#000000" font-family="Roboto" font-size="12" lengthAdjust="spacing" textLength="146.9414" x="1060.1646" y="932.3711">Read the flagged passages,</text><text fill="#000000" font-family="Roboto" font-size="12" lengthAdjust="spacing" textLength="92.6836" x="1060.1646" y="946.4336">then the full story</text><rect fill="#FFFDF8" height="34.0625" rx="5" ry="5" style="stroke:#8C6F56;stroke-width:1.0;" width="109.9648" x="1078.6528" y="759.9883"/><text fill="#000000" font-family="Roboto" font-size="12" lengthAdjust="spacing" textLength="89.9648" x="1088.6528" y="781.1211">take the top item</text><polygon fill="#F8F3E8" points="1094.2678,979.3633,1173.0027,979.3633,1185.0027,991.3633,1173.0027,1003.3633,1094.2678,1003.3633,1082.2678,991.3633,1094.2678,979.3633" style="stroke:#8C6F56;stroke-width:1.0;"/><text fill="#5A3E28" font-family="Roboto" font-size="11" lengthAdjust="spacing" textLength="70.4634" x="1137.6353" y="1013.5684">yes -&gt; approve</text><text fill="#000000" font-family="Roboto" font-size="11" lengthAdjust="spacing" textLength="78.7349" x="1094.2678" y="995.123">Safe for a child?</text><text fill="#5A3E28" font-family="Roboto" font-size="11" lengthAdjust="spacing" textLength="12.3481" x="1185.0027" y="988.6777">no</text><rect fill="#FFFDF8" height="48.125" rx="5" ry="5" style="stroke:#8C6F56;stroke-width:1.0;" width="141.4883" x="1449.084" y="857.6133"/><text fill="#000000" font-family="Roboto" font-size="12" lengthAdjust="spacing" textLength="117.1758" x="1459.084" y="878.7461">Send back with a note</text><text fill="#000000" font-family="Roboto" font-size="12" lengthAdjust="spacing" textLength="121.4883" x="1459.084" y="892.8086">-&gt; the story is rewritten</text><rect fill="#FFFDF8" height="48.125" rx="5" ry="5" style="stroke:#8C6F56;stroke-width:1.0;" width="194.1992" x="1036.5356" y="1035.0684"/><text fill="#000000" font-family="Roboto" font-size="12" lengthAdjust="spacing" textLength="44.3906" x="1046.5356" y="1056.2012">Approve</text><text fill="#000000" font-family="Roboto" font-size="12" lengthAdjust="spacing" textLength="174.1992" x="1046.5356" y="1070.2637">(recorded human gate, ADR-005)</text><line style="stroke:#000000;stroke-width:1.5;" x1="1030.5356" x2="1030.5356" y1="66.707" y2="1779.625"/><rect fill="#E4E4E4" height="1712.918" style="stroke:#E4E4E4;stroke-width:1.0;" width="369.9141" x="1609.5723" y="66.707"/><path d="M1773.3223,559.4414 L1773.3223,575.6758 L1753.3223,579.6758 L1773.3223,583.6758 L1773.3223,599.9102 A0,0 0 0 0 1773.3223,599.9102 L1967.4863,599.9102 A0,0 0 0 0 1967.4863,599.9102 L1967.4863,569.4414 L1957.4863,559.4414 L1773.3223,559.4414 A0,0 0 0 0 1773.3223,559.4414 " fill="#F1E9D8" style="stroke:#C9B48F;stroke-width:0.5;"/><path d="M1957.4863,559.4414 L1957.4863,569.4414 L1967.4863,569.4414 L1957.4863,559.4414 " fill="#F1E9D8" style="stroke:#C9B48F;stroke-width:0.5;"/><text fill="#000000" font-family="Roboto" font-size="13" lengthAdjust="spacing" textLength="173.1641" x="1779.3223" y="576.502">generation pipeline  &#8226;  shipped</text><text fill="#000000" font-family="Roboto" font-size="13" lengthAdjust="spacing" textLength="124.5791" x="1779.3223" y="591.7363">detail: seq-generation</text><rect fill="#FFFDF8" height="48.125" rx="5" ry="5" style="stroke:#8C6F56;stroke-width:1.0;" width="137.75" x="1615.5723" y="555.6133"/><text fill="#000000" font-family="Roboto" font-size="12" lengthAdjust="spacing" textLength="77.4785" x="1625.5723" y="576.7461">Write the story</text><text fill="#000000" font-family="Roboto" font-size="12" lengthAdjust="spacing" textLength="117.75" x="1625.5723" y="590.8086">(staged, with fallback)</text><path d="M1773.0469,635.1836 L1773.0469,643.8008 L1753.0469,647.8008 L1773.0469,651.8008 L1773.0469,660.418 A0,0 0 0 0 1773.0469,660.418 L1936.0947,660.418 A0,0 0 0 0 1936.0947,660.418 L1936.0947,645.1836 L1926.0947,635.1836 L1773.0469,635.1836 A0,0 0 0 0 1773.0469,635.1836 " fill="#F1E9D8" style="stroke:#C9B48F;stroke-width:0.5;"/><path d="M1926.0947,635.1836 L1926.0947,645.1836 L1936.0947,645.1836 L1926.0947,635.1836 " fill="#F1E9D8" style="stroke:#C9B48F;stroke-width:0.5;"/><text fill="#000000" font-family="Roboto" font-size="13" lengthAdjust="spacing" textLength="142.0479" x="1779.0469" y="652.2441">validator gate  &#8226;  shipped</text><rect fill="#FFFDF8" height="48.125" rx="5" ry="5" style="stroke:#8C6F56;stroke-width:1.0;" width="137.1992" x="1615.8477" y="623.7383"/><text fill="#000000" font-family="Roboto" font-size="12" lengthAdjust="spacing" textLength="68.3848" x="1625.8477" y="644.8711">Safety check</text><text fill="#000000" font-family="Roboto" font-size="12" lengthAdjust="spacing" textLength="117.1992" x="1625.8477" y="658.9336">(flags risky passages)</text><line style="stroke:#000000;stroke-width:1.5;" x1="1609.5723" x2="1609.5723" y1="66.707" y2="1779.625"/><line style="stroke:#000000;stroke-width:1.5;" x1="1994.4863" x2="1994.4863" y1="66.707" y2="1779.625"/><line style="stroke:#5A3E28;stroke-width:1.0;" x1="188.5835" x2="188.5835" y1="371.2383" y2="391.2383"/><polygon fill="#5A3E28" points="184.5835,381.2383,188.5835,391.2383,192.5835,381.2383,188.5835,385.2383" style="stroke:#5A3E28;stroke-width:1.0;"/><line style="stroke:#5A3E28;stroke-width:1.0;" x1="188.5835" x2="188.5835" y1="1219.4434" y2="1239.4434"/><polygon fill="#5A3E28" points="184.5835,1229.4434,188.5835,1239.4434,192.5835,1229.4434,188.5835,1233.4434" style="stroke:#5A3E28;stroke-width:1.0;"/><line style="stroke:#5A3E28;stroke-width:1.0;" x1="188.5835" x2="188.5835" y1="1287.5684" y2="1307.5684"/><polygon fill="#5A3E28" points="184.5835,1297.5684,188.5835,1307.5684,192.5835,1297.5684,188.5835,1301.5684" style="stroke:#5A3E28;stroke-width:1.0;"/><line style="stroke:#5A3E28;stroke-width:1.0;" x1="272.8682" x2="272.8682" y1="1457.8184" y2="1477.8184"/><polygon fill="#5A3E28" points="268.8682,1467.8184,272.8682,1477.8184,276.8682,1467.8184,272.8682,1471.8184" style="stroke:#5A3E28;stroke-width:1.0;"/><line style="stroke:#5A3E28;stroke-width:1.0;" x1="158.5339" x2="104.2988" y1="1387.6934" y2="1387.6934"/><line style="stroke:#5A3E28;stroke-width:1.0;" x1="104.2988" x2="104.2988" y1="1387.6934" y2="1409.6934"/><polygon fill="#5A3E28" points="100.2988,1399.6934,104.2988,1409.6934,108.2988,1399.6934,104.2988,1403.6934" style="stroke:#5A3E28;stroke-width:1.0;"/><line style="stroke:#5A3E28;stroke-width:1.0;" x1="218.6331" x2="272.8682" y1="1387.6934" y2="1387.6934"/><line style="stroke:#5A3E28;stroke-width:1.0;" x1="272.8682" x2="272.8682" y1="1387.6934" y2="1409.6934"/><polygon fill="#5A3E28" points="268.8682,1399.6934,272.8682,1409.6934,276.8682,1399.6934,272.8682,1403.6934" style="stroke:#5A3E28;stroke-width:1.0;"/><line style="stroke:#5A3E28;stroke-width:1.0;" x1="104.2988" x2="104.2988" y1="1443.7559" y2="1543.9434"/><line style="stroke:#5A3E28;stroke-width:1.0;" x1="104.2988" x2="176.5835" y1="1543.9434" y2="1543.9434"/><polygon fill="#5A3E28" points="166.5835,1539.9434,176.5835,1543.9434,166.5835,1547.9434,170.5835,1543.9434" style="stroke:#5A3E28;stroke-width:1.0;"/><line style="stroke:#5A3E28;stroke-width:1.0;" x1="272.8682" x2="272.8682" y1="1525.9434" y2="1543.9434"/><line style="stroke:#5A3E28;stroke-width:1.0;" x1="272.8682" x2="200.5835" y1="1543.9434" y2="1543.9434"/><polygon fill="#5A3E28" points="210.5835,1539.9434,200.5835,1543.9434,210.5835,1547.9434,206.5835,1543.9434" style="stroke:#5A3E28;stroke-width:1.0;"/><line style="stroke:#5A3E28;stroke-width:1.0;" x1="188.5835" x2="188.5835" y1="1355.6934" y2="1375.6934"/><polygon fill="#5A3E28" points="184.5835,1365.6934,188.5835,1375.6934,192.5835,1365.6934,188.5835,1369.6934" style="stroke:#5A3E28;stroke-width:1.0;"/><line style="stroke:#5A3E28;stroke-width:1.0;" x1="188.5835" x2="188.5835" y1="1555.9434" y2="1575.9434"/><polygon fill="#5A3E28" points="184.5835,1565.9434,188.5835,1575.9434,192.5835,1565.9434,188.5835,1569.9434" style="stroke:#5A3E28;stroke-width:1.0;"/><line style="stroke:#5A3E28;stroke-width:1.0;" x1="188.5835" x2="188.5835" y1="1610.0059" y2="1630.0059"/><polygon fill="#5A3E28" points="184.5835,1620.0059,188.5835,1630.0059,192.5835,1620.0059,188.5835,1624.0059" style="stroke:#5A3E28;stroke-width:1.0;"/><line style="stroke:#5A3E28;stroke-width:1.0;" x1="188.5835" x2="188.5835" y1="1678.1309" y2="1701.9199"/><polygon fill="#5A3E28" points="184.5835,1691.9199,188.5835,1701.9199,192.5835,1691.9199,188.5835,1695.9199" style="stroke:#5A3E28;stroke-width:1.0;"/><line style="stroke:#5A3E28;stroke-width:1.0;" x1="188.5835" x2="188.5835" y1="1725.9199" y2="1757.625"/><polygon fill="#5A3E28" points="184.5835,1747.625,188.5835,1757.625,192.5835,1747.625,188.5835,1751.625" style="stroke:#5A3E28;stroke-width:1.0;"/><line style="stroke:#5A3E28;stroke-width:1.0;" x1="683.3862" x2="683.3862" y1="112.8008" y2="132.8008"/><polygon fill="#5A3E28" points="679.3862,122.8008,683.3862,132.8008,687.3862,122.8008,683.3862,126.8008" style="stroke:#5A3E28;stroke-width:1.0;"/><line style="stroke:#5A3E28;stroke-width:1.0;" x1="683.3862" x2="683.3862" y1="194.9883" y2="214.9883"/><polygon fill="#5A3E28" points="679.3862,204.9883,683.3862,214.9883,687.3862,204.9883,683.3862,208.9883" style="stroke:#5A3E28;stroke-width:1.0;"/><line style="stroke:#5A3E28;stroke-width:1.0;" x1="683.3862" x2="683.3862" y1="263.1133" y2="283.1133"/><polygon fill="#5A3E28" points="679.3862,273.1133,683.3862,283.1133,687.3862,273.1133,683.3862,277.1133" style="stroke:#5A3E28;stroke-width:1.0;"/><line style="stroke:#5A3E28;stroke-width:1.0;" x1="1133.6353" x2="1133.6353" y1="876.2383" y2="911.2383"/><polygon fill="#5A3E28" points="1129.6353,901.2383,1133.6353,911.2383,1137.6353,901.2383,1133.6353,905.2383" style="stroke:#5A3E28;stroke-width:1.0;"/><line style="stroke:#5A3E28;stroke-width:1.0;" x1="1133.6353" x2="1133.6353" y1="794.0508" y2="814.0508"/><polygon fill="#5A3E28" points="1129.6353,804.0508,1133.6353,814.0508,1137.6353,804.0508,1133.6353,808.0508" style="stroke:#5A3E28;stroke-width:1.0;"/><line style="stroke:#5A3E28;stroke-width:1.0;" x1="1185.0027" x2="1519.8281" y1="991.3633" y2="991.3633"/><line style="stroke:#5A3E28;stroke-width:1.0;" x1="1519.8281" x2="1519.8281" y1="905.7383" y2="991.3633"/><polygon fill="#5A3E28" points="1515.8281,915.7383,1519.8281,905.7383,1523.8281,915.7383,1519.8281,911.7383" style="stroke:#5A3E28;stroke-width:1.0;"/><line style="stroke:#5A3E28;stroke-width:1.0;" x1="1519.8281" x2="1519.8281" y1="777.0195" y2="857.6133"/><line style="stroke:#5A3E28;stroke-width:1.0;" x1="1519.8281" x2="1188.6177" y1="777.0195" y2="777.0195"/><polygon fill="#5A3E28" points="1198.6177,773.0195,1188.6177,777.0195,1198.6177,781.0195,1194.6177,777.0195" style="stroke:#5A3E28;stroke-width:1.0;"/><line style="stroke:#5A3E28;stroke-width:1.0;" x1="1133.6353" x2="1133.6353" y1="959.3633" y2="979.3633"/><polygon fill="#5A3E28" points="1129.6353,969.3633,1133.6353,979.3633,1137.6353,969.3633,1133.6353,973.3633" style="stroke:#5A3E28;stroke-width:1.0;"/><line style="stroke:#5A3E28;stroke-width:1.0;" x1="1133.6353" x2="1133.6353" y1="1003.3633" y2="1035.0684"/><polygon fill="#5A3E28" points="1129.6353,1025.0684,1133.6353,1035.0684,1137.6353,1025.0684,1133.6353,1029.0684" style="stroke:#5A3E28;stroke-width:1.0;"/><line style="stroke:#5A3E28;stroke-width:1.0;" x1="1684.4473" x2="1684.4473" y1="603.7383" y2="623.7383"/><polygon fill="#5A3E28" points="1680.4473,613.7383,1684.4473,623.7383,1688.4473,613.7383,1684.4473,617.7383" style="stroke:#5A3E28;stroke-width:1.0;"/><line style="stroke:#5A3E28;stroke-width:1.0;" x1="188.5835" x2="188.5835" y1="453.4258" y2="458.4258"/><line style="stroke:#5A3E28;stroke-width:1.0;" x1="188.5835" x2="683.3862" y1="458.4258" y2="458.4258"/><line style="stroke:#5A3E28;stroke-width:1.0;" x1="683.3862" x2="683.3862" y1="458.4258" y2="473.4258"/><polygon fill="#5A3E28" points="679.3862,463.4258,683.3862,473.4258,687.3862,463.4258,683.3862,467.4258" style="stroke:#5A3E28;stroke-width:1.0;"/><line style="stroke:#5A3E28;stroke-width:1.0;" x1="683.3862" x2="683.3862" y1="535.6133" y2="540.6133"/><line style="stroke:#5A3E28;stroke-width:1.0;" x1="683.3862" x2="1684.4473" y1="540.6133" y2="540.6133"/><line style="stroke:#5A3E28;stroke-width:1.0;" x1="1684.4473" x2="1684.4473" y1="540.6133" y2="555.6133"/><polygon fill="#5A3E28" points="1680.4473,545.6133,1684.4473,555.6133,1688.4473,545.6133,1684.4473,549.6133" style="stroke:#5A3E28;stroke-width:1.0;"/><line style="stroke:#5A3E28;stroke-width:1.0;" x1="1684.4473" x2="1684.4473" y1="671.8633" y2="676.8633"/><line style="stroke:#5A3E28;stroke-width:1.0;" x1="1684.4473" x2="683.3862" y1="676.8633" y2="676.8633"/><line style="stroke:#5A3E28;stroke-width:1.0;" x1="683.3862" x2="683.3862" y1="676.8633" y2="691.8633"/><polygon fill="#5A3E28" points="679.3862,681.8633,683.3862,691.8633,687.3862,681.8633,683.3862,685.8633" style="stroke:#5A3E28;stroke-width:1.0;"/><line style="stroke:#5A3E28;stroke-width:1.0;" x1="683.3862" x2="683.3862" y1="739.9883" y2="744.9883"/><line style="stroke:#5A3E28;stroke-width:1.0;" x1="683.3862" x2="1133.6353" y1="744.9883" y2="744.9883"/><line style="stroke:#5A3E28;stroke-width:1.0;" x1="1133.6353" x2="1133.6353" y1="744.9883" y2="759.9883"/><polygon fill="#5A3E28" points="1129.6353,749.9883,1133.6353,759.9883,1137.6353,749.9883,1133.6353,753.9883" style="stroke:#5A3E28;stroke-width:1.0;"/><line style="stroke:#5A3E28;stroke-width:1.0;" x1="1133.6353" x2="1133.6353" y1="1083.1934" y2="1088.1934"/><line style="stroke:#5A3E28;stroke-width:1.0;" x1="1133.6353" x2="683.3862" y1="1088.1934" y2="1088.1934"/><line style="stroke:#5A3E28;stroke-width:1.0;" x1="683.3862" x2="683.3862" y1="1088.1934" y2="1103.1934"/><polygon fill="#5A3E28" points="679.3862,1093.1934,683.3862,1103.1934,687.3862,1093.1934,683.3862,1097.1934" style="stroke:#5A3E28;stroke-width:1.0;"/><line style="stroke:#5A3E28;stroke-width:1.0;" x1="683.3862" x2="683.3862" y1="1151.3184" y2="1156.3184"/><line style="stroke:#5A3E28;stroke-width:1.0;" x1="683.3862" x2="188.5835" y1="1156.3184" y2="1156.3184"/><line style="stroke:#5A3E28;stroke-width:1.0;" x1="188.5835" x2="188.5835" y1="1156.3184" y2="1171.3184"/><polygon fill="#5A3E28" points="184.5835,1161.3184,188.5835,1171.3184,192.5835,1161.3184,188.5835,1165.3184" style="stroke:#5A3E28;stroke-width:1.0;"/><line style="stroke:#5A3E28;stroke-width:1.0;" x1="683.3862" x2="683.3862" y1="317.1758" y2="322.1758"/><line style="stroke:#5A3E28;stroke-width:1.0;" x1="683.3862" x2="188.5835" y1="322.1758" y2="322.1758"/><line style="stroke:#5A3E28;stroke-width:1.0;" x1="188.5835" x2="188.5835" y1="322.1758" y2="337.1758"/><polygon fill="#5A3E28" points="184.5835,327.1758,188.5835,337.1758,192.5835,327.1758,188.5835,331.1758" style="stroke:#5A3E28;stroke-width:1.0;"/><line style="stroke:#5A3E28;stroke-width:1.0;" x1="127.532" x2="518.3438" y1="1713.9199" y2="1713.9199"/><polygon fill="#5A3E28" points="514.3438,1007.5742,518.3438,997.5742,522.3438,1007.5742,518.3438,1003.5742" style="stroke:#5A3E28;stroke-width:1.0;"/><line style="stroke:#5A3E28;stroke-width:1.0;" x1="518.3438" x2="518.3438" y1="300.1445" y2="1713.9199"/><line style="stroke:#5A3E28;stroke-width:1.0;" x1="518.3438" x2="615.6421" y1="300.1445" y2="300.1445"/><polygon fill="#5A3E28" points="625.6421,296.1445,615.6421,300.1445,625.6421,304.1445,621.6421,300.1445" style="stroke:#5A3E28;stroke-width:1.0;"/><text fill="#000000" font-family="Roboto" font-size="18" lengthAdjust="spacing" textLength="40.5352" x="275.363" y="83.4063">Child</text><text fill="#000000" font-family="Roboto" font-size="18" lengthAdjust="spacing" textLength="72.334" x="766.7314" y="83.4063">Guardian</text><text fill="#000000" font-family="Roboto" font-size="18" lengthAdjust="spacing" textLength="51.9961" x="1286.5559" y="83.4063">Admin</text><text fill="#000000" font-family="Roboto" font-size="18" lengthAdjust="spacing" textLength="59.7129" x="1761.1729" y="83.4063">System</text><rect fill="none" height="178.0625" id="_legend" rx="5" ry="5" style="stroke:#000000;stroke-width:1.0;" width="495.3516" x="756.5674" y="1791.625"/><line style="stroke:#000000;stroke-width:1.0;" x1="756.5674" x2="939.3735" y1="1804.8281" y2="1804.8281"/><line style="stroke:#000000;stroke-width:1.0;" x1="756.5674" x2="939.3735" y1="1806.8281" y2="1806.8281"/><text fill="#000000" font-family="Roboto" font-size="14" lengthAdjust="spacing" textLength="122.7939" x="942.8462" y="1809.1133">Reading the journey</text><line style="stroke:#000000;stroke-width:1.0;" x1="1069.1128" x2="1251.9189" y1="1804.8281" y2="1804.8281"/><line style="stroke:#000000;stroke-width:1.0;" x1="1069.1128" x2="1251.9189" y1="1806.8281" y2="1806.8281"/><text fill="#000000" font-family="Roboto" font-size="14" lengthAdjust="spacing" textLength="155.7842" x="761.5674" y="1826.0195">Columns = who is acting:</text><text fill="#000000" font-family="Roboto" font-size="14" font-weight="bold" lengthAdjust="spacing" textLength="32.3271" x="920.8242" y="1826.0195">Child</text><text fill="#000000" font-family="Roboto" font-size="14" lengthAdjust="spacing" textLength="2.7549" x="953.1514" y="1826.0195">,</text><text fill="#000000" font-family="Roboto" font-size="14" font-weight="bold" lengthAdjust="spacing" textLength="56.9502" x="959.3789" y="1826.0195">Guardian</text><text fill="#000000" font-family="Roboto" font-size="14" lengthAdjust="spacing" textLength="2.7549" x="1016.3291" y="1826.0195">,</text><text fill="#000000" font-family="Roboto" font-size="14" font-weight="bold" lengthAdjust="spacing" textLength="40.9951" x="1022.5566" y="1826.0195">Admin</text><text fill="#000000" font-family="Roboto" font-size="14" lengthAdjust="spacing" textLength="2.7549" x="1063.5518" y="1826.0195">,</text><text fill="#000000" font-family="Roboto" font-size="14" font-weight="bold" lengthAdjust="spacing" textLength="47.2637" x="1069.7793" y="1826.0195">System</text><text fill="#000000" font-family="Roboto" font-size="14" lengthAdjust="spacing" textLength="126.4033" x="1120.5156" y="1826.0195">(behind the scenes).</text><text fill="#000000" font-family="Roboto" font-size="14" font-weight="bold" lengthAdjust="spacing" textLength="33.2705" x="765.0537" y="1844.4258">Node</text><text fill="#000000" font-family="Roboto" font-size="14" font-weight="bold" lengthAdjust="spacing" textLength="54.7285" x="812.584" y="1844.4258">Meaning</text><text fill="#000000" filter="url(#b5ja4esyetz3w0)" font-family="Roboto" font-size="14" lengthAdjust="spacing" textLength="33.6396" x="768.5127" y="1860.832">white</text><text fill="#000000" font-family="Roboto" font-size="14" lengthAdjust="spacing" textLength="153.248" x="812.5703" y="1860.832">Shipped in the app today</text><text fill="#000000" filter="url(#b5ja4esyetz3w1)" font-family="Roboto" font-size="14" lengthAdjust="spacing" textLength="27.3779" x="768.5127" y="1877.2383">rose</text><text fill="#000000" font-family="Roboto" font-size="14" lengthAdjust="spacing" textLength="235.833" x="812.5703" y="1877.2383">Planned target-state step, not yet built</text><line style="stroke:#000000;stroke-width:1.0;" x1="761.5674" x2="1051.876" y1="1831.4375" y2="1831.4375"/><line style="stroke:#000000;stroke-width:1.0;" x1="761.5674" x2="1051.876" y1="1847.8438" y2="1847.8438"/><line style="stroke:#000000;stroke-width:1.0;" x1="761.5674" x2="1051.876" y1="1864.25" y2="1864.25"/><line style="stroke:#000000;stroke-width:1.0;" x1="761.5674" x2="1051.876" y1="1880.6563" y2="1880.6563"/><line style="stroke:#000000;stroke-width:1.0;" x1="761.5674" x2="761.5674" y1="1831.4375" y2="1880.6563"/><line style="stroke:#000000;stroke-width:1.0;" x1="809.0977" x2="809.0977" y1="1831.4375" y2="1880.6563"/><line style="stroke:#000000;stroke-width:1.0;" x1="1051.876" x2="1051.876" y1="1831.4375" y2="1880.6563"/><text fill="#000000" font-family="Roboto" font-size="14" lengthAdjust="spacing" textLength="444.3223" x="761.5674" y="1895.6445">The child-initiated request (Act 2, WS-B) is shipped: a guardian or admin</text><text fill="#000000" font-family="Roboto" font-size="14" lengthAdjust="spacing" textLength="427.9229" x="761.5674" y="1912.0508">approves or declines it from /guardian/requests. A guardian can also</text><text fill="#000000" font-family="Roboto" font-size="14" lengthAdjust="spacing" textLength="440.3779" x="761.5674" y="1928.457">author a request directly from Intake without a prior child ask. Approval</text><text fill="#000000" font-family="Roboto" font-size="14" lengthAdjust="spacing" textLength="482.9111" x="761.5674" y="1944.8633">of the generated storybook (ADR-005) remains the one mandatory admin gate</text><text fill="#000000" font-family="Roboto" font-size="14" lengthAdjust="spacing" textLength="201.3184" x="761.5674" y="1961.2695">before any story reaches a child.</text><!--SRC=[fLZRRjlA5NtdL-mgG2CXefISsAbD9ovyJLqqYM4dI1yEK8p84JKLnU6P6LeHu8T-Ip-jNzArPqXTA3ium74In2HdzdNjjVVCI_hm1twYb_JDIXDV_QYaKR9C9LqNUfdGLs5owU9x9voagpABdOxn7_rTrwQKg-WbTjuQdTMf6t_xPvmMmYYt8b4uvUfCKh_KZaH9PxStPELlDOiUZEX25_MYj2IC93UJ43Ah5w8SJ-HCiPAPZ6qgIsd9w4BQ4oerX4rLKT12cBabErDL9JDwi5GLeYpngzMDg4BhYZ9TJx2J1FvIBYhigqQDkGeoLbG9DoDbAPsf8ejLgPo2andrdVUPBFiyfE_tyVb9gm-ctsahOxP4PX36TjaXgIcSN96H2w7AeNSBEYsnzol8cjIgS2TiZ9x2IcYjgun3AXyaJB5ELX2col3DEw0sJlQjz66YtcUzf5HZZynwB5oISFxBH3kd5uFWuJsIWmpQr4Y988yfawcoIfSsmLUYgT6basKsjYOT6rqxQKRE_g3dVlfpbT4hocjXCeLa-Yta8DqEzWKMQc8Gt_4TfzkwUwVDgYk-tmsw2Ok7NXpj1ftYc3W2eb9ZozB-rQoseshrX06jdQq5zbRaSi-2zIgHBH1uKLK6WMtqQyCnArG9hG4WB-tQnWua_9RRcR2I3WGjz4GLahxTq58PEJLY8P4neBu2eYgPKl_sZbuS_6NOxZ_n-RCXPPbEgIupQHexy6p7jaPHLdef3Nw723kcfM1p73Ha32faMhXqHiXBLJjYTQISfQKsSrf8mBanqylp1QFA79uR_XU_VdqOe_e0I0GtzfKOXtY8OhJ84Aps2QXsSakKC0YEawchZHmZcZdyXP7ojpX7zS8eW6vKrOi2ClPhEvDEgE9tYTFJAMUZaSNvQzuW38B1QIIYN6BhxnB7cn21sDTu4Dgtgp8DOb9LA6ywo_f3j1g11e66vrYKERUbqb_BRb6SeD00gWyjmmrtwMGGHNQkoah0AuHoAkh2NQCCFZFaUdSQbA1xMqic8ftdADqo0_i2u2-kp_ZFrehc8wmnzERrrWSx4vbU8c0q5OMLMr_EZD7BHjwXU2j_EUf-P9EUNP0wzO1-SRvdslNrvVMJAxL1TJIhZj9tqyDtpwxwEbFf73YpzEQ9DPTAB7IPxQcU7atVogEVRFYf1P_1oVlUlBawlZpghjgManvF3ewcsn5VgWMoBh-h35tA8gKH4tlp5ep2_PESAb7b7sWvqzml12n5ZlgU92TQpz7Z2kcuYpazHoiOfHQC_VZY-lNbyVdHumNZxH7F5vUN5rSNZnyRIlIl3Y-FBouUpvWS-VdgWFyytg_GgnQFKQSmE4Zq9g5M0YXeelbNDeVfQB2pFDfIXH8qBahkLLwY0KPzRg75k1BMWhs0-OzQvuKSHWZJMLMXcD1hPIdGtBF1IUHxe57vp2Mq8Vv2vw1q-jz__aijpKR91OgUEwu0KRQK3bP3AvTHl-IYUOLdQL5Vua70gcV5DxjiHqCt9bzdp4uLj78OV592Qzy9HLX1YQ1IBfjLoELIb4m1B3J6Zm_mBmarBMs_WLPRKyt0RudQ_2PVAbdwBWCQ1nHu65erFdPS1A_U1kVe5iKZpQ0RHIyBs_yHkhmN5_LQiqHme8TfA8kiM06Py4qvX5fCq9rsrMrF242CDx6P7k17BZkwjq2Jt6CUW1MTrXprmyo3U3Zvmo6XqqBaTZ2CclQ-tTYLUow_xNYngny4tQw8zRACfsAXYXLBz1D4d1Tw8j3DjZFsDg5pt_P2amzjBoIdhQJaEoRcCDxvsC471z-1_AL2wODm2sRk3XWtxPKgLKdlKCVQq5qJskt629sOIiUXa-aywli0GQgTSyojXMhRqOM-h_niuBl_JvBI-xHgSsfxMA6NDkfzR5IN-MWqwZqNSX2PcClzWbf7yY2Xl_5WGZkZ2FNFBkzuVcaXt_1LMrHUA8VMyKIDU9z4H9jwCF91eUXWSItneN-DOFZGusC9LqIs6kAzVxftVFg0xXGT1TuCMDIJpa3G1MPj75owrGFTBDJhdWPTww2l5VcFDNHvE3ohPHoC7oUOpNUrC5oMM8GY0V3uAK19U45HVBe16pEDaKiW4DFpIHksvOm9eCz0eIdZEzJPNmUy72UwWHz4-Yl6ycaxEG-YvAoPeViyHQ6xPU5KvpCrf3PJkvnscD0PuWdo3mdSWbFpNk64uuzsmOgetsi-BBIHFVucCfp-r0H5a7Uns-1gZ2dPx-c0jsN8JoqVjgZTS36FYgi_TO2xIv8eGQJhUUo-IpoMwCza6BDFaFE6K2F63ggbbduFTuvN42gBQRSTjUUif6b7DrqS1AnjyBNWIAGphO3WZYnsSepw17Hvqpxle-dslvHCCq21XocdVy28HYnomrEM5G_Xm7r3kJw992R5zPW-M6CVHxK5fMZ2aX5VjPkNWWyiV10BvTZ5VIC79s-3FhDNLb_ApGc04SF3lEMIRWTwFpVWGre8HDFkLU_M8GDesJiZH2WbDVKXnVW0JFDpcP_WZTXbRswlFDFORaTxAecRrX8e4eivXfsTvnZbBb0MmrzBBhp0N9obnehcf8_Mirl0tp53m5QD3IQOrvGmfoxKC8fv3KMigAAeaBcd3N-XW21Xa6c1o8h_7KuhU8rlxJLEPm9DwFtar0jzFvwS3lcfBUlr2q_KwwVG3FcnFITkDSp12AeUFs1gpYJ__qaAFhxI8xz-p_oMD0U6KsBNkKT15DwVFj9zSuUWrXCG62F3PBAp- -tbyUK1Tli3rzRks-PkALm91IZusvhEMSnB-zfIrFwz1leKps_Xwc2mTRUJyEtKUcXkHWd8QaZLRWqibk7hgsT_KXdHsKPCobsoi9h5r6xc2Ror8rCe28UnnGkw2Up8tG736PPXYiHoxmGAUJwYiwRRGfQ_kPBjvC4NRkjZngOBXnimwrTgbDBwMY5uvbi1P4qa-ehqTsPhbWKZsBRLZBZU0XAZ_mC0]--></g></svg>
