<svg xmlns="http://www.w3.org/2000/svg" xmlns:xlink="http://www.w3.org/1999/xlink" contentStyleType="text/css" height="2121px" preserveAspectRatio="none" style="width:1881px;height:2121px;background:#FAFAFA;" version="1.1" viewBox="0 0 1881 2121" width="1881px" zoomAndPan="magnify"><title>Guardian + Admin Surface Journey</title><defs><style type="text/css">@import url('https://fonts.googleapis.com/css?family=Roboto:400,100,100italic,300,300italic,400italic,500,500italic,700,700italic,900,900italic');</style><filter height="1" id="brurqww5lkxm50" width="1" x="0" y="0"><feFlood flood-color="#FFFDF8" result="flood"/><feComposite in="SourceGraphic" in2="flood" operator="over"/></filter><filter height="1" id="brurqww5lkxm51" width="1" x="0" y="0"><feFlood flood-color="#F3D9D4" result="flood"/><feComposite in="SourceGraphic" in2="flood" operator="over"/></filter></defs><g><rect fill="#FAFAFA" height="2121" style="stroke:none;stroke-width:1.0;" width="1881" x="0" y="0"/><text fill="#000000" font-family="Roboto" font-size="14" font-weight="bold" lengthAdjust="spacing" textLength="219.625" x="829.3522" y="32.9883">Guardian + Admin Surface Journey</text><text fill="#000000" font-family="Roboto" font-size="14" font-weight="bold" lengthAdjust="spacing" textLength="392.9092" x="742.7101" y="49.3945">("/guardian"; rose = planned. Approve is admin-only, ADR-005)</text><rect fill="none" height="21.0938" style="stroke:none;stroke-width:1.0;" width="1852.3293" x="11" y="66.707"/><rect fill="#CDDCEC" height="1757.498" style="stroke:#CDDCEC;stroke-width:1.0;" width="716.4421" x="21.2087" y="66.707"/><ellipse cx="237.0164" cy="102.8008" fill="#222222" rx="10" ry="10" style="stroke:#222222;stroke-width:1.0;"/><path d="M340.8972,122.8008 L340.8972,161.8867 L320.8972,165.8867 L340.8972,169.8867 L340.8972,208.9727 A0,0 0 0 0 340.8972,208.9727 L639.9119,208.9727 A0,0 0 0 0 639.9119,208.9727 L639.9119,132.8008 L629.9119,122.8008 L340.8972,122.8008 A0,0 0 0 0 340.8972,122.8008 " fill="#F1E9D8" style="stroke:#C9B48F;stroke-width:0.5;"/><path d="M629.9119,122.8008 L629.9119,132.8008 L639.9119,132.8008 L629.9119,122.8008 " fill="#F1E9D8" style="stroke:#C9B48F;stroke-width:0.5;"/><text fill="#000000" font-family="Roboto" font-size="13" lengthAdjust="spacing" textLength="152.769" x="346.8972" y="139.8613">/guardian/login  &#8226;  shipped</text><text fill="#000000" font-family="Roboto" font-size="13" lengthAdjust="spacing" textLength="256.5024" x="346.8972" y="155.0957">ADR-014 -- conditional now: only a cold entry</text><text fill="#000000" font-family="Roboto" font-size="13" lengthAdjust="spacing" textLength="278.0146" x="346.8972" y="170.3301">or a step-up crossing UP from kid mode reaches</text><text fill="#000000" font-family="Roboto" font-size="13" lengthAdjust="spacing" textLength="277.5894" x="346.8972" y="185.5645">this (or the "Grown-ups only" password re-entry);</text><text fill="#000000" font-family="Roboto" font-size="13" lengthAdjust="spacing" textLength="244.6958" x="346.8972" y="200.7988">adult&lt;-&gt;adult navigation is free once warm</text><rect fill="#FFFDF8" height="62.1875" rx="5" ry="5" style="stroke:#8C6F56;stroke-width:0.5;" width="167.7617" x="153.1355" y="134.793"/><text fill="#000000" font-family="Roboto" font-size="12" lengthAdjust="spacing" textLength="35.9297" x="163.1355" y="155.9258">Sign in</text><text fill="#000000" font-family="Roboto" font-size="12" lengthAdjust="spacing" textLength="147.7617" x="163.1355" y="169.9883">(email/password or Google,</text><text fill="#000000" font-family="Roboto" font-size="12" lengthAdjust="spacing" textLength="116.5723" x="163.1355" y="184.0508">Apple if the flag is on)</text><path d="M335.2136,276.459 L335.2136,307.9277 L315.2136,311.9277 L335.2136,315.9277 L335.2136,347.3965 A0,0 0 0 0 335.2136,347.3965 L608.3933,347.3965 A0,0 0 0 0 608.3933,347.3965 L608.3933,286.459 L598.3933,276.459 L335.2136,276.459 A0,0 0 0 0 335.2136,276.459 " fill="#F1E9D8" style="stroke:#C9B48F;stroke-width:0.5;"/><path d="M598.3933,276.459 L598.3933,286.459 L608.3933,286.459 L598.3933,276.459 " fill="#F1E9D8" style="stroke:#C9B48F;stroke-width:0.5;"/><text fill="#000000" font-family="Roboto" font-size="13" lengthAdjust="spacing" textLength="227.1318" x="341.2136" y="293.5195">/guardian/awaiting-approval  &#8226;  shipped</text><text fill="#000000" font-family="Roboto" font-size="13" lengthAdjust="spacing" textLength="246.8667" x="341.2136" y="308.7539">ProtectedRoute redirect target (AuthStatus</text><text fill="#000000" font-family="Roboto" font-size="13" lengthAdjust="spacing" textLength="252.1797" x="341.2136" y="323.9883">'awaiting-approval'); no further in-app action</text><text fill="#000000" font-family="Roboto" font-size="13" lengthAdjust="spacing" textLength="252.0464" x="341.2136" y="339.2227">until an admin approves the account (WS-J)</text><rect fill="#FFFDF8" height="48.125" rx="5" ry="5" style="stroke:#8C6F56;stroke-width:0.5;" width="156.3945" x="158.8191" y="287.8652"/><text fill="#000000" font-family="Roboto" font-size="12" lengthAdjust="spacing" textLength="136.3945" x="168.8191" y="308.998">See "waiting for approval"</text><text fill="#000000" font-family="Roboto" font-size="12" lengthAdjust="spacing" textLength="53.2266" x="168.8191" y="323.0605">interstitial</text><ellipse cx="237.0164" cy="378.3965" fill="none" rx="11" ry="11" style="stroke:#222222;stroke-width:1.0;"/><ellipse cx="237.0164" cy="378.3965" fill="#222222" rx="6" ry="6" style="stroke:#222222;stroke-width:1.0;"/><polygon fill="#F8F3E8" points="176.7339,228.9727,297.2988,228.9727,309.2988,241.8633,297.2988,254.7539,176.7339,254.7539,164.7339,241.8633,176.7339,228.9727" style="stroke:#8C6F56;stroke-width:0.5;"/><text fill="#5A3E28" font-family="Roboto" font-size="11" lengthAdjust="spacing" textLength="16.7148" x="241.0164" y="264.959">yes</text><text fill="#000000" font-family="Roboto" font-size="11" lengthAdjust="spacing" textLength="71.9888" x="176.7339" y="239.1777">Self-signed-up,</text><text fill="#000000" font-family="Roboto" font-size="11" lengthAdjust="spacing" textLength="120.5649" x="176.7339" y="252.0684">not yet admin-approved?</text><text fill="#5A3E28" font-family="Roboto" font-size="11" lengthAdjust="spacing" textLength="12.3481" x="309.2988" y="239.1777">no</text><path d="M348.5818,478.8828 L348.5818,517.9688 L328.5818,521.9688 L348.5818,525.9688 L348.5818,565.0547 A0,0 0 0 0 348.5818,565.0547 L657.3464,565.0547 A0,0 0 0 0 657.3464,565.0547 L657.3464,488.8828 L647.3464,478.8828 L348.5818,478.8828 A0,0 0 0 0 348.5818,478.8828 " fill="#F1E9D8" style="stroke:#C9B48F;stroke-width:0.5;"/><path d="M647.3464,478.8828 L647.3464,488.8828 L657.3464,488.8828 L647.3464,478.8828 " fill="#F1E9D8" style="stroke:#C9B48F;stroke-width:0.5;"/><text fill="#000000" font-family="Roboto" font-size="13" lengthAdjust="spacing" textLength="170.9868" x="354.5818" y="495.9434">/guardian/consent  &#8226;  shipped</text><text fill="#000000" font-family="Roboto" font-size="13" lengthAdjust="spacing" textLength="287.7646" x="354.5818" y="511.1777">Phase 2 / ADR-018 D1 verifiable-parental-consent;</text><text fill="#000000" font-family="Roboto" font-size="13" lengthAdjust="spacing" textLength="246.8667" x="354.5818" y="526.4121">ProtectedRoute redirect target (AuthStatus</text><text fill="#000000" font-family="Roboto" font-size="13" lengthAdjust="spacing" textLength="223.1074" x="354.5818" y="541.6465">'needs-consent'); recordConsent() then</text><text fill="#000000" font-family="Roboto" font-size="13" lengthAdjust="spacing" textLength="179.7466" x="354.5818" y="556.8809">continues to the console below</text><rect fill="#FFFDF8" height="48.125" rx="5" ry="5" style="stroke:#8C6F56;stroke-width:0.5;" width="183.1309" x="145.4509" y="497.9063"/><text fill="#000000" font-family="Roboto" font-size="12" lengthAdjust="spacing" textLength="135.4688" x="155.4509" y="519.0391">Confirm parental consent</text><text fill="#000000" font-family="Roboto" font-size="12" lengthAdjust="spacing" textLength="163.1309" x="155.4509" y="533.1016">(typed legal name + checkbox)</text><polygon fill="#F8F3E8" points="173.6079,431.3965,300.4248,431.3965,312.4248,444.2871,300.4248,457.1777,173.6079,457.1777,161.6079,444.2871,173.6079,431.3965" style="stroke:#8C6F56;stroke-width:0.5;"/><text fill="#5A3E28" font-family="Roboto" font-size="11" lengthAdjust="spacing" textLength="16.7148" x="241.0164" y="467.3828">yes</text><text fill="#000000" font-family="Roboto" font-size="11" lengthAdjust="spacing" textLength="91.459" x="173.6079" y="441.6016">Approved, but VPC</text><text fill="#000000" font-family="Roboto" font-size="11" lengthAdjust="spacing" textLength="126.8169" x="173.6079" y="454.4922">consent not yet recorded?</text><text fill="#5A3E28" font-family="Roboto" font-size="11" lengthAdjust="spacing" textLength="12.3481" x="312.4248" y="441.6016">no</text><polygon fill="#F8F3E8" points="237.0164,585.0547,249.0164,597.0547,237.0164,609.0547,225.0164,597.0547,237.0164,585.0547" style="stroke:#8C6F56;stroke-width:0.5;"/><path d="M466.824,640.5 L466.824,649.1172 L446.824,653.1172 L466.824,657.1172 L466.824,665.7344 A0,0 0 0 0 466.824,665.7344 L712.4421,665.7344 A0,0 0 0 0 712.4421,665.7344 L712.4421,650.5 L702.4421,640.5 L466.824,640.5 A0,0 0 0 0 466.824,640.5 " fill="#F1E9D8" style="stroke:#C9B48F;stroke-width:0.5;"/><path d="M702.4421,640.5 L702.4421,650.5 L712.4421,650.5 L702.4421,640.5 " fill="#F1E9D8" style="stroke:#C9B48F;stroke-width:0.5;"/><text fill="#000000" font-family="Roboto" font-size="13" lengthAdjust="spacing" textLength="224.6182" x="472.824" y="657.5605">AdultGate + ProtectedRoute  &#8226;  shipped</text><rect fill="#FFFDF8" height="48.125" rx="5" ry="5" style="stroke:#8C6F56;stroke-width:0.5;" width="419.6152" x="27.2087" y="629.0547"/><text fill="#000000" font-family="Roboto" font-size="12" lengthAdjust="spacing" textLength="109.2832" x="37.2087" y="650.1875">Land on the Console</text><text fill="#000000" font-family="Roboto" font-size="12" lengthAdjust="spacing" textLength="399.6152" x="37.2087" y="664.25">(role-based: admin-only -&gt; /admin;\nguardian-only or dual-role -&gt; /guardian)</text><path d="M337.7478,708.625 L337.7478,717.2422 L317.7478,721.2422 L337.7478,725.2422 L337.7478,733.8594 A0,0 0 0 0 337.7478,733.8594 L526.8655,733.8594 A0,0 0 0 0 526.8655,733.8594 L526.8655,718.625 L516.8655,708.625 L337.7478,708.625 A0,0 0 0 0 337.7478,708.625 " fill="#F1E9D8" style="stroke:#C9B48F;stroke-width:0.5;"/><path d="M516.8655,708.625 L516.8655,718.625 L526.8655,718.625 L516.8655,708.625 " fill="#F1E9D8" style="stroke:#C9B48F;stroke-width:0.5;"/><text fill="#000000" font-family="Roboto" font-size="13" lengthAdjust="spacing" textLength="168.1177" x="343.7478" y="725.6855">/guardian/profiles  &#8226;  shipped</text><rect fill="#FFFDF8" height="48.125" rx="5" ry="5" style="stroke:#8C6F56;stroke-width:0.5;" width="161.4629" x="156.2849" y="697.1797"/><text fill="#000000" font-family="Roboto" font-size="12" lengthAdjust="spacing" textLength="141.4629" x="166.2849" y="718.3125">Add or edit a child's profile</text><text fill="#000000" font-family="Roboto" font-size="12" lengthAdjust="spacing" textLength="121.1016" x="166.2849" y="732.375">(name + preset avatar)</text><path d="M326.8992,768.5469 L326.8992,792.3984 L306.8992,796.3984 L326.8992,800.3984 L326.8992,824.25 A0,0 0 0 0 326.8992,824.25 L626.4788,824.25 A0,0 0 0 0 626.4788,824.25 L626.4788,778.5469 L616.4788,768.5469 L326.8992,768.5469 A0,0 0 0 0 326.8992,768.5469 " fill="#F1E9D8" style="stroke:#C9B48F;stroke-width:0.5;"/><path d="M616.4788,768.5469 L616.4788,778.5469 L626.4788,778.5469 L616.4788,768.5469 " fill="#F1E9D8" style="stroke:#C9B48F;stroke-width:0.5;"/><text fill="#000000" font-family="Roboto" font-size="13" lengthAdjust="spacing" textLength="174.9731" x="332.8992" y="785.6074">/guardian/requests  &#8226;  shipped</text><text fill="#000000" font-family="Roboto" font-size="13" lengthAdjust="spacing" textLength="218.3086" x="332.8992" y="800.8418">(guardian-own-family or admin-global;</text><text fill="#000000" font-family="Roboto" font-size="13" lengthAdjust="spacing" textLength="278.5796" x="332.8992" y="816.0762">NOT admin-only, unlike the approval gate below)</text><rect fill="#FFFDF8" height="62.1875" rx="5" ry="5" style="stroke:#8C6F56;stroke-width:0.5;" width="139.7656" x="167.1335" y="765.3047"/><text fill="#000000" font-family="Roboto" font-size="12" lengthAdjust="spacing" textLength="110.4785" x="177.1335" y="786.4375">Open Story requests,</text><text fill="#000000" font-family="Roboto" font-size="12" lengthAdjust="spacing" textLength="116.0332" x="177.1335" y="800.5">review my child's idea</text><text fill="#000000" font-family="Roboto" font-size="12" lengthAdjust="spacing" textLength="119.7656" x="177.1335" y="814.5625">(screened text + flags)</text><path d="M330.5671,858.3516 L330.5671,874.5859 L310.5671,878.5859 L330.5671,882.5859 L330.5671,898.8203 A0,0 0 0 0 330.5671,898.8203 L561.2683,898.8203 A0,0 0 0 0 561.2683,898.8203 L561.2683,868.3516 L551.2683,858.3516 L330.5671,858.3516 A0,0 0 0 0 330.5671,858.3516 " fill="#F1E9D8" style="stroke:#C9B48F;stroke-width:0.5;"/><path d="M551.2683,858.3516 L551.2683,868.3516 L561.2683,868.3516 L551.2683,858.3516 " fill="#F1E9D8" style="stroke:#C9B48F;stroke-width:0.5;"/><text fill="#000000" font-family="Roboto" font-size="13" lengthAdjust="spacing" textLength="209.7012" x="336.5671" y="875.4121">shipped  &#8226;  approve builds a Concept</text><text fill="#000000" font-family="Roboto" font-size="13" lengthAdjust="spacing" textLength="146.0723" x="336.5671" y="890.6465">and enqueues generation</text><rect fill="#FFFDF8" height="62.1875" rx="5" ry="5" style="stroke:#8C6F56;stroke-width:0.5;" width="147.1016" x="163.4656" y="847.4922"/><text fill="#000000" font-family="Roboto" font-size="12" lengthAdjust="spacing" textLength="110.5371" x="173.4656" y="868.625">Set age band, length,</text><text fill="#000000" font-family="Roboto" font-size="12" lengthAdjust="spacing" textLength="103.8047" x="173.4656" y="882.6875">optional series title,</text><text fill="#000000" font-family="Roboto" font-size="12" lengthAdjust="spacing" textLength="127.1016" x="173.4656" y="896.75">then Approve or Decline</text><path d="M340.6218,941.125 L340.6218,949.7422 L320.6218,953.7422 L340.6218,957.7422 L340.6218,966.3594 A0,0 0 0 0 340.6218,966.3594 L521.3225,966.3594 A0,0 0 0 0 521.3225,966.3594 L521.3225,951.125 L511.3225,941.125 L340.6218,941.125 A0,0 0 0 0 340.6218,941.125 " fill="#F1E9D8" style="stroke:#C9B48F;stroke-width:0.5;"/><path d="M511.3225,941.125 L511.3225,951.125 L521.3225,951.125 L511.3225,941.125 " fill="#F1E9D8" style="stroke:#C9B48F;stroke-width:0.5;"/><text fill="#000000" font-family="Roboto" font-size="13" lengthAdjust="spacing" textLength="159.7007" x="346.6218" y="958.1855">/guardian/intake  &#8226;  shipped</text><rect fill="#FFFDF8" height="48.125" rx="5" ry="5" style="stroke:#8C6F56;stroke-width:0.5;" width="167.2109" x="153.4109" y="929.6797"/><text fill="#000000" font-family="Roboto" font-size="12" lengthAdjust="spacing" textLength="147.2109" x="163.4109" y="950.8125">Request a story from Intake</text><text fill="#000000" font-family="Roboto" font-size="12" lengthAdjust="spacing" textLength="143.0566" x="163.4109" y="964.875">("Who's it for?", topic, tone)</text><path d="M323.8435,1009.25 L323.8435,1017.8672 L303.8435,1021.8672 L323.8435,1025.8672 L323.8435,1034.4844 A0,0 0 0 0 323.8435,1034.4844 L503.5667,1034.4844 A0,0 0 0 0 503.5667,1034.4844 L503.5667,1019.25 L493.5667,1009.25 L323.8435,1009.25 A0,0 0 0 0 323.8435,1009.25 " fill="#F1E9D8" style="stroke:#C9B48F;stroke-width:0.5;"/><path d="M493.5667,1009.25 L493.5667,1019.25 L503.5667,1019.25 L493.5667,1009.25 " fill="#F1E9D8" style="stroke:#C9B48F;stroke-width:0.5;"/><text fill="#000000" font-family="Roboto" font-size="13" lengthAdjust="spacing" textLength="158.7231" x="329.8435" y="1026.3105">intake job status  &#8226;  shipped</text><rect fill="#FFFDF8" height="48.125" rx="5" ry="5" style="stroke:#8C6F56;stroke-width:0.5;" width="133.6543" x="170.1892" y="997.8047"/><text fill="#000000" font-family="Roboto" font-size="12" lengthAdjust="spacing" textLength="113.6543" x="180.1892" y="1018.9375">Watch "My Requests"</text><text fill="#000000" font-family="Roboto" font-size="12" lengthAdjust="spacing" textLength="107.1504" x="180.1892" y="1033">show "Generating..."</text><path d="M336.4617,1516.8301 L336.4617,1525.4473 L316.4617,1529.4473 L336.4617,1533.4473 L336.4617,1542.0645 A0,0 0 0 0 336.4617,1542.0645 L458.7322,1542.0645 A0,0 0 0 0 458.7322,1542.0645 L458.7322,1526.8301 L448.7322,1516.8301 L336.4617,1516.8301 A0,0 0 0 0 336.4617,1516.8301 " fill="#F1E9D8" style="stroke:#C9B48F;stroke-width:0.5;"/><path d="M448.7322,1516.8301 L448.7322,1526.8301 L458.7322,1526.8301 L448.7322,1516.8301 " fill="#F1E9D8" style="stroke:#C9B48F;stroke-width:0.5;"/><text fill="#000000" font-family="Roboto" font-size="13" lengthAdjust="spacing" textLength="101.2705" x="342.4617" y="1533.8906">assign  &#8226;  shipped</text><rect fill="#FFFDF8" height="48.125" rx="5" ry="5" style="stroke:#8C6F56;stroke-width:0.5;" width="158.8906" x="157.571" y="1505.3848"/><text fill="#000000" font-family="Roboto" font-size="12" lengthAdjust="spacing" textLength="138.8906" x="167.571" y="1526.5176">Assign the approved story</text><text fill="#000000" font-family="Roboto" font-size="12" lengthAdjust="spacing" textLength="111.709" x="167.571" y="1540.5801">to the child it was for</text><path d="M356.5037,1633.4004 L356.5037,1642.0176 L336.5037,1646.0176 L356.5037,1650.0176 L356.5037,1658.6348 A0,0 0 0 0 356.5037,1658.6348 L564.5754,1658.6348 A0,0 0 0 0 564.5754,1658.6348 L564.5754,1643.4004 L554.5754,1633.4004 L356.5037,1633.4004 A0,0 0 0 0 356.5037,1633.4004 " fill="#F1E9D8" style="stroke:#C9B48F;stroke-width:0.5;"/><path d="M554.5754,1633.4004 L554.5754,1643.4004 L564.5754,1643.4004 L554.5754,1633.4004 " fill="#F1E9D8" style="stroke:#C9B48F;stroke-width:0.5;"/><text fill="#000000" font-family="Roboto" font-size="13" lengthAdjust="spacing" textLength="187.0718" x="362.5037" y="1650.4609">AssignChildrenDialog  &#8226;  shipped</text><rect fill="#FFFDF8" height="48.125" rx="5" ry="5" style="stroke:#8C6F56;stroke-width:0.5;" width="198.9746" x="137.5291" y="1621.9551"/><text fill="#000000" font-family="Roboto" font-size="12" lengthAdjust="spacing" textLength="143.2969" x="147.5291" y="1643.0879">"Assign more" -&gt; pick more</text><text fill="#000000" font-family="Roboto" font-size="12" lengthAdjust="spacing" textLength="178.9746" x="147.5291" y="1657.1504">children (adds only the new ones)</text><polygon fill="#F8F3E8" points="183.2463,1573.5098,290.7864,1573.5098,302.7864,1585.5098,290.7864,1597.5098,183.2463,1597.5098,171.2463,1585.5098,183.2463,1573.5098" style="stroke:#8C6F56;stroke-width:0.5;"/><text fill="#5A3E28" font-family="Roboto" font-size="11" lengthAdjust="spacing" textLength="16.7148" x="241.0164" y="1607.7148">yes</text><text fill="#000000" font-family="Roboto" font-size="11" lengthAdjust="spacing" textLength="107.54" x="183.2463" y="1589.2695">Give it to siblings too?</text><text fill="#5A3E28" font-family="Roboto" font-size="11" lengthAdjust="spacing" textLength="12.3481" x="302.7864" y="1582.8242">no</text><polygon fill="#F8F3E8" points="237.0164,1690.0801,249.0164,1702.0801,237.0164,1714.0801,225.0164,1702.0801,237.0164,1690.0801" style="stroke:#8C6F56;stroke-width:0.5;"/><path d="M345.2947,1745.5254 L345.2947,1754.1426 L325.2947,1758.1426 L345.2947,1762.1426 L345.2947,1770.7598 A0,0 0 0 0 345.2947,1770.7598 L515.4646,1770.7598 A0,0 0 0 0 515.4646,1770.7598 L515.4646,1755.5254 L505.4646,1745.5254 L345.2947,1745.5254 A0,0 0 0 0 345.2947,1745.5254 " fill="#F1E9D8" style="stroke:#C9B48F;stroke-width:0.5;"/><path d="M505.4646,1745.5254 L505.4646,1755.5254 L515.4646,1755.5254 L505.4646,1745.5254 " fill="#F1E9D8" style="stroke:#C9B48F;stroke-width:0.5;"/><text fill="#000000" font-family="Roboto" font-size="13" lengthAdjust="spacing" textLength="149.1699" x="351.2947" y="1762.5859">crosses to the kid surface</text><rect fill="#FFFDF8" height="48.125" rx="5" ry="5" style="stroke:#8C6F56;stroke-width:0.5;" width="176.5566" x="148.738" y="1734.0801"/><text fill="#000000" font-family="Roboto" font-size="12" lengthAdjust="spacing" textLength="156.5566" x="158.738" y="1755.2129">The child's avatar now shows</text><text fill="#000000" font-family="Roboto" font-size="12" lengthAdjust="spacing" textLength="94.8516" x="158.738" y="1769.2754">"new story ready!"</text><ellipse cx="237.0164" cy="1813.2051" fill="none" rx="11" ry="11" style="stroke:#222222;stroke-width:1.0;"/><ellipse cx="237.0164" cy="1813.2051" fill="#222222" rx="6" ry="6" style="stroke:#222222;stroke-width:1.0;"/><line style="stroke:#000000;stroke-width:1.5;" x1="21.2087" x2="21.2087" y1="66.707" y2="1824.2051"/><rect fill="#C5D9CC" height="1757.498" style="stroke:#C5D9CC;stroke-width:1.0;" width="702.6509" x="727.4421" y="66.707"/><path d="M920.6003,1198.9766 L920.6003,1215.2109 L900.6003,1219.2109 L920.6003,1223.2109 L920.6003,1239.4453 A0,0 0 0 0 920.6003,1239.4453 L1274.6047,1239.4453 A0,0 0 0 0 1274.6047,1239.4453 L1274.6047,1208.9766 L1264.6047,1198.9766 L920.6003,1198.9766 A0,0 0 0 0 920.6003,1198.9766 " fill="#F1E9D8" style="stroke:#C9B48F;stroke-width:0.5;"/><path d="M1264.6047,1198.9766 L1264.6047,1208.9766 L1274.6047,1208.9766 L1264.6047,1198.9766 " fill="#F1E9D8" style="stroke:#C9B48F;stroke-width:0.5;"/><text fill="#000000" font-family="Roboto" font-size="13" lengthAdjust="spacing" textLength="199.8306" x="926.6003" y="1216.0371">/admin  (Review queue)  &#8226;  shipped</text><text fill="#000000" font-family="Roboto" font-size="13" lengthAdjust="spacing" textLength="333.0044" x="926.6003" y="1231.2715">(the review queue moved here from the guardian console)</text><rect fill="#FFFDF8" height="62.1875" rx="5" ry="5" style="stroke:#8C6F56;stroke-width:0.5;" width="141.1309" x="759.4695" y="1188.1172"/><text fill="#000000" font-family="Roboto" font-size="12" lengthAdjust="spacing" textLength="121.1309" x="769.4695" y="1209.25">Open the review queue</text><text fill="#000000" font-family="Roboto" font-size="12" lengthAdjust="spacing" textLength="113.7246" x="769.4695" y="1223.3125">(Flagged, then Ready,</text><text fill="#000000" font-family="Roboto" font-size="12" lengthAdjust="spacing" textLength="112.4238" x="769.4695" y="1237.375">then Still processing)</text><path d="M943.9001,1303.7813 L943.9001,1312.3984 L923.9001,1316.3984 L943.9001,1320.3984 L943.9001,1329.0156 A0,0 0 0 0 943.9001,1329.0156 L1189.3596,1329.0156 A0,0 0 0 0 1189.3596,1329.0156 L1189.3596,1313.7813 L1179.3596,1303.7813 L943.9001,1303.7813 A0,0 0 0 0 943.9001,1303.7813 " fill="#F1E9D8" style="stroke:#C9B48F;stroke-width:0.5;"/><path d="M1179.3596,1303.7813 L1179.3596,1313.7813 L1189.3596,1313.7813 L1179.3596,1303.7813 " fill="#F1E9D8" style="stroke:#C9B48F;stroke-width:0.5;"/><text fill="#000000" font-family="Roboto" font-size="13" lengthAdjust="spacing" textLength="224.4595" x="949.9001" y="1320.8418">/admin/review/:storybookId  &#8226;  shipped</text><rect fill="#FFFDF8" height="62.1875" rx="5" ry="5" style="stroke:#8C6F56;stroke-width:0.5;" width="187.7305" x="736.1697" y="1285.3047"/><text fill="#000000" font-family="Roboto" font-size="12" lengthAdjust="spacing" textLength="167.7305" x="746.1697" y="1306.4375">Open a story: flagged passages</text><text fill="#000000" font-family="Roboto" font-size="12" lengthAdjust="spacing" textLength="112.7578" x="746.1697" y="1320.5">first, then the full text</text><text fill="#000000" font-family="Roboto" font-size="12" lengthAdjust="spacing" textLength="145.4355" x="746.1697" y="1334.5625">with flags highlighted inline</text><rect fill="#FFFDF8" height="34.0625" rx="5" ry="5" style="stroke:#8C6F56;stroke-width:0.5;" width="152" x="754.0349" y="1134.0547"/><text fill="#000000" font-family="Roboto" font-size="12" lengthAdjust="spacing" textLength="132" x="764.0349" y="1155.1875">pick the top of the queue</text><polygon fill="#F8F3E8" points="790.6675,1367.4922,869.4023,1367.4922,881.4023,1379.4922,869.4023,1391.4922,790.6675,1391.4922,778.6675,1379.4922,790.6675,1367.4922" style="stroke:#8C6F56;stroke-width:0.5;"/><text fill="#5A3E28" font-family="Roboto" font-size="11" lengthAdjust="spacing" textLength="70.4634" x="834.0349" y="1401.6973">yes -&gt; approve</text><text fill="#000000" font-family="Roboto" font-size="11" lengthAdjust="spacing" textLength="78.7349" x="790.6675" y="1383.252">Safe for a child?</text><text fill="#5A3E28" font-family="Roboto" font-size="11" lengthAdjust="spacing" textLength="12.3481" x="881.4023" y="1376.8066">no</text><rect fill="#FFFDF8" height="48.125" rx="5" ry="5" style="stroke:#8C6F56;stroke-width:0.5;" width="141.4883" x="1284.6047" y="1238.7109"/><text fill="#000000" font-family="Roboto" font-size="12" lengthAdjust="spacing" textLength="117.1758" x="1294.6047" y="1259.8438">Send back with a note</text><text fill="#000000" font-family="Roboto" font-size="12" lengthAdjust="spacing" textLength="121.4883" x="1294.6047" y="1273.9063">-&gt; the story is rewritten</text><rect fill="#FFFDF8" height="62.1875" rx="5" ry="5" style="stroke:#8C6F56;stroke-width:0.5;" width="193.1855" x="733.4421" y="1423.1973"/><text fill="#000000" font-family="Roboto" font-size="12" lengthAdjust="spacing" textLength="44.3906" x="743.4421" y="1444.3301">Approve</text><text fill="#000000" font-family="Roboto" font-size="12" lengthAdjust="spacing" textLength="173.1855" x="743.4421" y="1458.3926">(recorded human gate, ADR-005.</text><text fill="#000000" font-family="Roboto" font-size="12" lengthAdjust="spacing" textLength="128.1855" x="743.4421" y="1472.4551">Guardians get 403 here)</text><line style="stroke:#000000;stroke-width:1.5;" x1="727.4421" x2="727.4421" y1="66.707" y2="1824.2051"/><rect fill="#E4E4E4" height="1757.498" style="stroke:#E4E4E4;stroke-width:1.0;" width="404.2363" x="1445.093" y="66.707"/><path d="M1598.7063,1069.7578 L1598.7063,1085.9922 L1578.7063,1089.9922 L1598.7063,1093.9922 L1598.7063,1110.2266 A0,0 0 0 0 1598.7063,1110.2266 L1837.3293,1110.2266 A0,0 0 0 0 1837.3293,1110.2266 L1837.3293,1079.7578 L1827.3293,1069.7578 L1598.7063,1069.7578 A0,0 0 0 0 1598.7063,1069.7578 " fill="#F1E9D8" style="stroke:#C9B48F;stroke-width:0.5;"/><path d="M1827.3293,1069.7578 L1827.3293,1079.7578 L1837.3293,1079.7578 L1827.3293,1069.7578 " fill="#F1E9D8" style="stroke:#C9B48F;stroke-width:0.5;"/><text fill="#000000" font-family="Roboto" font-size="13" lengthAdjust="spacing" textLength="217.623" x="1604.7063" y="1086.8184">generation + validator gate  &#8226;  shipped</text><text fill="#000000" font-family="Roboto" font-size="13" lengthAdjust="spacing" textLength="124.5791" x="1604.7063" y="1102.0527">detail: seq-generation</text><rect fill="#FFFDF8" height="48.125" rx="5" ry="5" style="stroke:#8C6F56;stroke-width:0.5;" width="127.6133" x="1451.093" y="1065.9297"/><text fill="#000000" font-family="Roboto" font-size="12" lengthAdjust="spacing" textLength="106.3418" x="1461.093" y="1087.0625">Write the story, then</text><text fill="#000000" font-family="Roboto" font-size="12" lengthAdjust="spacing" textLength="107.6133" x="1461.093" y="1101.125">run the safety check</text><line style="stroke:#000000;stroke-width:1.5;" x1="1445.093" x2="1445.093" y1="66.707" y2="1824.2051"/><line style="stroke:#000000;stroke-width:1.5;" x1="1864.3293" x2="1864.3293" y1="66.707" y2="1824.2051"/><line style="stroke:#5A3E28;stroke-width:1.0;" x1="237.0164" x2="237.0164" y1="112.8008" y2="134.793"/><polygon fill="#5A3E28" points="233.0164,124.793,237.0164,134.793,241.0164,124.793,237.0164,128.793" style="stroke:#5A3E28;stroke-width:1.0;"/><line style="stroke:#5A3E28;stroke-width:1.0;" x1="237.0164" x2="237.0164" y1="335.9902" y2="367.3965"/><polygon fill="#5A3E28" points="233.0164,357.3965,237.0164,367.3965,241.0164,357.3965,237.0164,361.3965" style="stroke:#5A3E28;stroke-width:1.0;"/><line style="stroke:#5A3E28;stroke-width:1.0;" x1="237.0164" x2="237.0164" y1="254.7539" y2="287.8652"/><polygon fill="#5A3E28" points="233.0164,277.8652,237.0164,287.8652,241.0164,277.8652,237.0164,281.8652" style="stroke:#5A3E28;stroke-width:1.0;"/><line style="stroke:#5A3E28;stroke-width:1.0;" x1="309.2988" x2="618.3933" y1="241.8633" y2="241.8633"/><polygon fill="#5A3E28" points="614.3933,326.9824,618.3933,336.9824,622.3933,326.9824,618.3933,330.9824" style="stroke:#5A3E28;stroke-width:1.0;"/><line style="stroke:#5A3E28;stroke-width:1.0;" x1="618.3933" x2="618.3933" y1="241.8633" y2="411.3965"/><line style="stroke:#5A3E28;stroke-width:1.0;" x1="618.3933" x2="237.0164" y1="411.3965" y2="411.3965"/><line style="stroke:#5A3E28;stroke-width:1.0;" x1="237.0164" x2="237.0164" y1="411.3965" y2="431.3965"/><polygon fill="#5A3E28" points="233.0164,421.3965,237.0164,431.3965,241.0164,421.3965,237.0164,425.3965" style="stroke:#5A3E28;stroke-width:1.0;"/><line style="stroke:#5A3E28;stroke-width:1.0;" x1="237.0164" x2="237.0164" y1="196.9805" y2="228.9727"/><polygon fill="#5A3E28" points="233.0164,218.9727,237.0164,228.9727,241.0164,218.9727,237.0164,222.9727" style="stroke:#5A3E28;stroke-width:1.0;"/><line style="stroke:#5A3E28;stroke-width:1.0;" x1="237.0164" x2="237.0164" y1="457.1777" y2="497.9063"/><polygon fill="#5A3E28" points="233.0164,487.9063,237.0164,497.9063,241.0164,487.9063,237.0164,491.9063" style="stroke:#5A3E28;stroke-width:1.0;"/><line style="stroke:#5A3E28;stroke-width:1.0;" x1="312.4248" x2="667.3464" y1="444.2871" y2="444.2871"/><polygon fill="#5A3E28" points="663.3464,511.5234,667.3464,521.5234,671.3464,511.5234,667.3464,515.5234" style="stroke:#5A3E28;stroke-width:1.0;"/><line style="stroke:#5A3E28;stroke-width:1.0;" x1="667.3464" x2="667.3464" y1="444.2871" y2="597.0547"/><line style="stroke:#5A3E28;stroke-width:1.0;" x1="667.3464" x2="249.0164" y1="597.0547" y2="597.0547"/><polygon fill="#5A3E28" points="259.0164,593.0547,249.0164,597.0547,259.0164,601.0547,255.0164,597.0547" style="stroke:#5A3E28;stroke-width:1.0;"/><line style="stroke:#5A3E28;stroke-width:1.0;" x1="237.0164" x2="237.0164" y1="546.0313" y2="585.0547"/><polygon fill="#5A3E28" points="233.0164,575.0547,237.0164,585.0547,241.0164,575.0547,237.0164,579.0547" style="stroke:#5A3E28;stroke-width:1.0;"/><line style="stroke:#5A3E28;stroke-width:1.0;" x1="237.0164" x2="237.0164" y1="609.0547" y2="629.0547"/><polygon fill="#5A3E28" points="233.0164,619.0547,237.0164,629.0547,241.0164,619.0547,237.0164,623.0547" style="stroke:#5A3E28;stroke-width:1.0;"/><line style="stroke:#5A3E28;stroke-width:1.0;" x1="237.0164" x2="237.0164" y1="677.1797" y2="697.1797"/><polygon fill="#5A3E28" points="233.0164,687.1797,237.0164,697.1797,241.0164,687.1797,237.0164,691.1797" style="stroke:#5A3E28;stroke-width:1.0;"/><line style="stroke:#5A3E28;stroke-width:1.0;" x1="237.0164" x2="237.0164" y1="745.3047" y2="765.3047"/><polygon fill="#5A3E28" points="233.0164,755.3047,237.0164,765.3047,241.0164,755.3047,237.0164,759.3047" style="stroke:#5A3E28;stroke-width:1.0;"/><line style="stroke:#5A3E28;stroke-width:1.0;" x1="237.0164" x2="237.0164" y1="827.4922" y2="847.4922"/><polygon fill="#5A3E28" points="233.0164,837.4922,237.0164,847.4922,241.0164,837.4922,237.0164,841.4922" style="stroke:#5A3E28;stroke-width:1.0;"/><line style="stroke:#5A3E28;stroke-width:1.0;" x1="237.0164" x2="237.0164" y1="909.6797" y2="929.6797"/><polygon fill="#5A3E28" points="233.0164,919.6797,237.0164,929.6797,241.0164,919.6797,237.0164,923.6797" style="stroke:#5A3E28;stroke-width:1.0;"/><line style="stroke:#5A3E28;stroke-width:1.0;" x1="237.0164" x2="237.0164" y1="977.8047" y2="997.8047"/><polygon fill="#5A3E28" points="233.0164,987.8047,237.0164,997.8047,241.0164,987.8047,237.0164,991.8047" style="stroke:#5A3E28;stroke-width:1.0;"/><line style="stroke:#5A3E28;stroke-width:1.0;" x1="237.0164" x2="237.0164" y1="1597.5098" y2="1621.9551"/><polygon fill="#5A3E28" points="233.0164,1611.9551,237.0164,1621.9551,241.0164,1611.9551,237.0164,1615.9551" style="stroke:#5A3E28;stroke-width:1.0;"/><line style="stroke:#5A3E28;stroke-width:1.0;" x1="302.7864" x2="574.5754" y1="1585.5098" y2="1585.5098"/><polygon fill="#5A3E28" points="570.5754,1636.0176,574.5754,1646.0176,578.5754,1636.0176,574.5754,1640.0176" style="stroke:#5A3E28;stroke-width:1.0;"/><line style="stroke:#5A3E28;stroke-width:1.0;" x1="574.5754" x2="574.5754" y1="1585.5098" y2="1702.0801"/><line style="stroke:#5A3E28;stroke-width:1.0;" x1="574.5754" x2="249.0164" y1="1702.0801" y2="1702.0801"/><polygon fill="#5A3E28" points="259.0164,1698.0801,249.0164,1702.0801,259.0164,1706.0801,255.0164,1702.0801" style="stroke:#5A3E28;stroke-width:1.0;"/><line style="stroke:#5A3E28;stroke-width:1.0;" x1="237.0164" x2="237.0164" y1="1670.0801" y2="1690.0801"/><polygon fill="#5A3E28" points="233.0164,1680.0801,237.0164,1690.0801,241.0164,1680.0801,237.0164,1684.0801" style="stroke:#5A3E28;stroke-width:1.0;"/><line style="stroke:#5A3E28;stroke-width:1.0;" x1="237.0164" x2="237.0164" y1="1553.5098" y2="1573.5098"/><polygon fill="#5A3E28" points="233.0164,1563.5098,237.0164,1573.5098,241.0164,1563.5098,237.0164,1567.5098" style="stroke:#5A3E28;stroke-width:1.0;"/><line style="stroke:#5A3E28;stroke-width:1.0;" x1="237.0164" x2="237.0164" y1="1714.0801" y2="1734.0801"/><polygon fill="#5A3E28" points="233.0164,1724.0801,237.0164,1734.0801,241.0164,1724.0801,237.0164,1728.0801" style="stroke:#5A3E28;stroke-width:1.0;"/><line style="stroke:#5A3E28;stroke-width:1.0;" x1="237.0164" x2="237.0164" y1="1782.2051" y2="1802.2051"/><polygon fill="#5A3E28" points="233.0164,1792.2051,237.0164,1802.2051,241.0164,1792.2051,237.0164,1796.2051" style="stroke:#5A3E28;stroke-width:1.0;"/><line style="stroke:#5A3E28;stroke-width:1.0;" x1="830.0349" x2="830.0349" y1="1250.3047" y2="1285.3047"/><polygon fill="#5A3E28" points="826.0349,1275.3047,830.0349,1285.3047,834.0349,1275.3047,830.0349,1279.3047" style="stroke:#5A3E28;stroke-width:1.0;"/><line style="stroke:#5A3E28;stroke-width:1.0;" x1="830.0349" x2="830.0349" y1="1168.1172" y2="1188.1172"/><polygon fill="#5A3E28" points="826.0349,1178.1172,830.0349,1188.1172,834.0349,1178.1172,830.0349,1182.1172" style="stroke:#5A3E28;stroke-width:1.0;"/><line style="stroke:#5A3E28;stroke-width:1.0;" x1="881.4023" x2="1355.3489" y1="1379.4922" y2="1379.4922"/><line style="stroke:#5A3E28;stroke-width:1.0;" x1="1355.3489" x2="1355.3489" y1="1286.8359" y2="1379.4922"/><polygon fill="#5A3E28" points="1351.3489,1296.8359,1355.3489,1286.8359,1359.3489,1296.8359,1355.3489,1292.8359" style="stroke:#5A3E28;stroke-width:1.0;"/><line style="stroke:#5A3E28;stroke-width:1.0;" x1="1355.3489" x2="1355.3489" y1="1151.0859" y2="1238.7109"/><line style="stroke:#5A3E28;stroke-width:1.0;" x1="1355.3489" x2="906.0349" y1="1151.0859" y2="1151.0859"/><polygon fill="#5A3E28" points="916.0349,1147.0859,906.0349,1151.0859,916.0349,1155.0859,912.0349,1151.0859" style="stroke:#5A3E28;stroke-width:1.0;"/><line style="stroke:#5A3E28;stroke-width:1.0;" x1="830.0349" x2="830.0349" y1="1347.4922" y2="1367.4922"/><polygon fill="#5A3E28" points="826.0349,1357.4922,830.0349,1367.4922,834.0349,1357.4922,830.0349,1361.4922" style="stroke:#5A3E28;stroke-width:1.0;"/><line style="stroke:#5A3E28;stroke-width:1.0;" x1="830.0349" x2="830.0349" y1="1391.4922" y2="1423.1973"/><polygon fill="#5A3E28" points="826.0349,1413.1973,830.0349,1423.1973,834.0349,1413.1973,830.0349,1417.1973" style="stroke:#5A3E28;stroke-width:1.0;"/><line style="stroke:#5A3E28;stroke-width:1.0;" x1="237.0164" x2="237.0164" y1="1045.9297" y2="1050.9297"/><line style="stroke:#5A3E28;stroke-width:1.0;" x1="237.0164" x2="1514.8997" y1="1050.9297" y2="1050.9297"/><line style="stroke:#5A3E28;stroke-width:1.0;" x1="1514.8997" x2="1514.8997" y1="1050.9297" y2="1065.9297"/><polygon fill="#5A3E28" points="1510.8997,1055.9297,1514.8997,1065.9297,1518.8997,1055.9297,1514.8997,1059.9297" style="stroke:#5A3E28;stroke-width:1.0;"/><line style="stroke:#5A3E28;stroke-width:1.0;" x1="1514.8997" x2="1514.8997" y1="1114.0547" y2="1119.0547"/><line style="stroke:#5A3E28;stroke-width:1.0;" x1="1514.8997" x2="830.0349" y1="1119.0547" y2="1119.0547"/><line style="stroke:#5A3E28;stroke-width:1.0;" x1="830.0349" x2="830.0349" y1="1119.0547" y2="1134.0547"/><polygon fill="#5A3E28" points="826.0349,1124.0547,830.0349,1134.0547,834.0349,1124.0547,830.0349,1128.0547" style="stroke:#5A3E28;stroke-width:1.0;"/><line style="stroke:#5A3E28;stroke-width:1.0;" x1="830.0349" x2="830.0349" y1="1485.3848" y2="1490.3848"/><line style="stroke:#5A3E28;stroke-width:1.0;" x1="830.0349" x2="237.0164" y1="1490.3848" y2="1490.3848"/><line style="stroke:#5A3E28;stroke-width:1.0;" x1="237.0164" x2="237.0164" y1="1490.3848" y2="1505.3848"/><polygon fill="#5A3E28" points="233.0164,1495.3848,237.0164,1505.3848,241.0164,1495.3848,237.0164,1499.3848" style="stroke:#5A3E28;stroke-width:1.0;"/><text fill="#000000" font-family="Roboto" font-size="18" lengthAdjust="spacing" textLength="72.334" x="333.1584" y="83.4063">Guardian</text><text fill="#000000" font-family="Roboto" font-size="18" lengthAdjust="spacing" textLength="51.9961" x="1052.7695" y="83.4063">Admin</text><text fill="#000000" font-family="Roboto" font-size="18" lengthAdjust="spacing" textLength="59.7129" x="1613.8547" y="83.4063">System</text><rect fill="none" height="260.0938" id="_legend" rx="5" ry="5" style="stroke:#000000;stroke-width:1.0;" width="494.709" x="691.8102" y="1836.2051"/><text fill="#000000" font-family="Roboto" font-size="14" font-weight="bold" lengthAdjust="spacing" textLength="33.2705" x="700.2965" y="1856.1934">Node</text><text fill="#000000" font-family="Roboto" font-size="14" font-weight="bold" lengthAdjust="spacing" textLength="54.7285" x="747.8268" y="1856.1934">Meaning</text><text fill="#000000" filter="url(#brurqww5lkxm50)" font-family="Roboto" font-size="14" lengthAdjust="spacing" textLength="33.6396" x="703.7555" y="1872.5996">white</text><text fill="#000000" font-family="Roboto" font-size="14" lengthAdjust="spacing" textLength="237.0498" x="747.8131" y="1872.5996">Shipped in the guardian console today</text><text fill="#000000" filter="url(#brurqww5lkxm51)" font-family="Roboto" font-size="14" lengthAdjust="spacing" textLength="27.3779" x="703.7555" y="1889.0059">rose</text><text fill="#000000" font-family="Roboto" font-size="14" lengthAdjust="spacing" textLength="129.6982" x="747.8131" y="1889.0059">Planned, not yet built</text><line style="stroke:#000000;stroke-width:1.0;" x1="696.8102" x2="988.3356" y1="1843.2051" y2="1843.2051"/><line style="stroke:#000000;stroke-width:1.0;" x1="696.8102" x2="988.3356" y1="1859.6113" y2="1859.6113"/><line style="stroke:#000000;stroke-width:1.0;" x1="696.8102" x2="988.3356" y1="1876.0176" y2="1876.0176"/><line style="stroke:#000000;stroke-width:1.0;" x1="696.8102" x2="988.3356" y1="1892.4238" y2="1892.4238"/><line style="stroke:#000000;stroke-width:1.0;" x1="696.8102" x2="696.8102" y1="1843.2051" y2="1892.4238"/><line style="stroke:#000000;stroke-width:1.0;" x1="744.3405" x2="744.3405" y1="1843.2051" y2="1892.4238"/><line style="stroke:#000000;stroke-width:1.0;" x1="988.3356" x2="988.3356" y1="1843.2051" y2="1892.4238"/><text fill="#000000" font-family="Roboto" font-size="14" lengthAdjust="spacing" textLength="58.8438" x="696.8102" y="1907.4121">Columns:</text><text fill="#000000" font-family="Roboto" font-size="14" font-weight="bold" lengthAdjust="spacing" textLength="56.9502" x="759.1266" y="1907.4121">Guardian</text><text fill="#000000" font-family="Roboto" font-size="14" lengthAdjust="spacing" textLength="316.9277" x="819.5494" y="1907.4121">(request + assign + monitor; the console also has a</text><text fill="#000000" font-family="Roboto" font-size="14" lengthAdjust="spacing" textLength="445.457" x="696.8102" y="1923.8184">notification bell, a family reading-visibility page (/guardian/reading), and</text><text fill="#000000" font-family="Roboto" font-size="14" lengthAdjust="spacing" textLength="426.7539" x="696.8102" y="1940.2246">cross-family connection consent (/guardian/connections, ADR-016)),</text><text fill="#000000" font-family="Roboto" font-size="14" font-weight="bold" lengthAdjust="spacing" textLength="40.9951" x="1127.0367" y="1940.2246">Admin</text><text fill="#000000" font-family="Roboto" font-size="14" lengthAdjust="spacing" textLength="471.584" x="696.8102" y="1956.6309">(the ADR-005 approval gate; the admin console also holds the master library</text><text fill="#000000" font-family="Roboto" font-size="14" lengthAdjust="spacing" textLength="468.5693" x="696.8102" y="1973.0371">(#277), user management, the authoring queue, the moderation dashboard/</text><text fill="#000000" font-family="Roboto" font-size="14" lengthAdjust="spacing" textLength="474.4688" x="696.8102" y="1989.4434">thresholds, the provider allowlist, and the audit log -- see sitemap-and-flows),</text><text fill="#000000" font-family="Roboto" font-size="14" font-weight="bold" lengthAdjust="spacing" textLength="47.2637" x="696.8102" y="2005.8496">System</text><text fill="#000000" font-family="Roboto" font-size="14" lengthAdjust="spacing" textLength="252.3555" x="747.5465" y="2005.8496">(generation + safety, behind the scenes).</text><text fill="#000000" font-family="Roboto" font-size="14" lengthAdjust="spacing" textLength="480.3477" x="696.8102" y="2022.2559">ADR-014: one AdultGate at the root of the whole adult subtree (not a per-page</text><text fill="#000000" font-family="Roboto" font-size="14" lengthAdjust="spacing" textLength="470.2305" x="696.8102" y="2038.6621">gate) is the single kid-to-adult boundary; step-up fires only crossing UP from</text><text fill="#000000" font-family="Roboto" font-size="14" lengthAdjust="spacing" textLength="484.709" x="696.8102" y="2055.0684">kid mode, never guardian&lt;-&gt;guardian, guardian&lt;-&gt;admin, or admin&lt;-&gt;guardian.</text><text fill="#000000" font-family="Roboto" font-size="14" lengthAdjust="spacing" textLength="435.1143" x="696.8102" y="2071.4746">See journey-kid for the child side, seq-device-grant for the device-grant</text><text fill="#000000" font-family="Roboto" font-size="14" lengthAdjust="spacing" textLength="346.2402" x="696.8102" y="2087.8809">mechanics, and journey-dev-coverage for test coverage.</text><!--SRC=[fLdRSXit4dsVh-Yb7qokEQ8LoubCEKufakLoAd5KehtUsj8BE0EIY8R019WHpIqzxBVif-sNx6bSU9UpMuah9Mi6q-Xkd3vz6dvAt_-9_xAdz0zZvhAaJqxQ_EsNMbebTI7fgZAB8RrhXIsLqFICpikvqZHgxKGKCdkABw-jATkY6NpwUrvKmgfcIQ9gLDEMaYR6KZEJL0ihTPFZ6wMdL1ZjJ2MfQqtRI6giX2Ng3APncqxlY3uO_bnLrP0MCuLLtvERgRgMPP-iSVnxNGcjuNDNcuQMig5ngwgcTmHR7x6dg6jhxl6pQ9JHf1m9zZqtkbfIz_po9d_-_6NlZDAkZWf4E3TQDV1wt3OaO2czvPUyZvFL94-ck-VNxydAfhNu-kJv2zuRtunCQv4xLo0mxOPuGZInHZTIbmDdYu6FsnurxWjHTxN3EXj3MkLYyDSp4kIGDYJil6ohvfref3T9jB2YTZx1YnadLF1xSksOZL2UqzWqixKj4hgaWSy2l_GfE3xfxVidscOsM6qM_OpBXsIqf3jLvet9muPZq-fIs2KLE1bsjP_y4tPEhe4DmfPEugNH8wHNJ6MVNkRioCUFF_SP7tSuIHmJO0Bi0IJO0OTHoWFkhNBpivagVGrZx6AVBWAkqWFgJiHSuR0ZtXuBDA7xV25KWwtF_UcAQcrdlQE8Qo84H9L2_JpAVmhWS6ggsvhI0aIEY1mAGedgZrpW2921GpiNuLMVhcS2yF-61d7dS2wdT7bCzqZTH8bn9VDGSQBAutU7TcOW37n1xsNEodib5_HxArlPwuVA6TpuXvUo4MgLdA-SpdliVoVNnmEYG45BjtvoxZXP5pDLbV3s4WaoqpymUYFXasjMHcWpHpQ-7ARY7vIog9HEzIAeuBsUEe3I0AznVPzFxyUpH31S6ybaRXOwZp0oDfdnF3Ajp1ZdJnz-_RZ9B9Mwaxua8yE4hSR6tAqXCKL5V0tNFsBruGZP3i8hHCEveh4r2u3XMNBCvzE7y_Pi8mRsIujxBYwx31kNfd03pw10Cw1W-N_sDv-39GJxdCzQ_7s5zADv-RKlZq_o4lWePCw8DbRzKvOvquGe2XG-lgRk8pIM-ECC50ZeZe7lachZchpY0iSnbShAelcgvyUdUH61vFBQgdjHB07-ULqX1ONq-s-LIDmy5Gfj5KeeiXC12Xe3i_JfFItWmyIAkUILXQn1jBKig7jzGqzElkidz9pvmtUX1S1NGcmo8SVxxbgqrzeim0e3Dk4684h7VGGxb3X4xXoYAMQ4Xb2Z3_5sf1f72sFlQ2xjL9Rivfzg-HaO2O4zrjhf9qIWvV9MTpSQyzbExpsYyzWAjzfhFu6_bsNkJcdaMCofb1E1Wxy2uZzm6Zit1lt9T3QMZ4LnDxKCXmjJeGi_kJhdFnihuakuPkdu-SOBDnEbMN3dc8ZAoOqtvnPL4ksz52_aDwUxBzcbHnT0Fjn3rFouvzhLrUNLmPN6uiJZgjFYsydBRm-i0jj1QvHxPYUdanVoz2iVVDNw1zF8VK-FtxwwFDrTjMcdU3K-EPriPdEXvZXY-LcLK10EnvLb3qykBYyltbuy9CmyyAENbwykBXuyTlZtjoVyvs6qT8sSF-2ZzM880Tjamn4e2aqnwyev-iYW1ca1rsZ-bjuP0txePm0LeAaclfGcbPWol8pkdMMGO9AiciwQJOqKQ8B-ywz_Koh3Mntr2hCv2hPKh09Hvfe5hMT4T0DJbO4KRpMsXyvgP9sZUISXGv-kcQBdApM2AXN5JBfRtSpWKpVgsyuxousYhPqttQ5LL5RcWNNFRhLNIw_pDq4rWP0L6a7KfXDMRBxGMJHbYBqxIce2HDhM_LkTT6uejDZYoXzwx8AcxbAwNaOq7C5I9-eKhy0JWtVmTbEDdE7tmmdTapcxoKKlRy38ihpneZKnDE68f_2mUuuUC8BmQv6fftlMda9sQqEJri9pIo6OADHlTQiRLH7BLKz8CSwWSz5C06nim7gBeqLthJE9WkSne9UXbQg9prua9emBBEN_TdrngoF3KyeZFEOYsCyWvD14GRhkzWQywpPBbWYLd3AMcCQUGLJ8ucvillGUJsZQUZUDISlzZohkxF_Cl9QoTEbZpde8EShCReZR9mRdqtAEZKzpcj364lFVNdg7F_CW0TpoqYWTi-wwTmytzL3-9euSy7rRaG2PPOlO-4E_BBtUgVELN42gTwBVIcU6bfYZsaSOoEeXrL5kyhDiU5vwXa6scWqP6DTatNYIjPME2-mU-ie-IZShomUtZmhLimcBJB_zhpNmDTeKdQwVHP4zNwxyKQKKMJSCZa1P8xyqy8ePq3tgJRAtYwtkOGsxfLvn9jlojG-vibAmMterOA47_kO4JV4xGD178UXfC-jdfexywlZg041YTT7FV5qbZO3DBuCUtuubwUuGG1gkUPeleIeOOIotm9-QsThF98wco93rz9bbmzsSUyuEyqVMxNoU6SvjmsJuGwSFaDUgu1zQFffLvJ_UEU7XPo_BEhyiqoaxg9UPMQ01H7VqzEZegBDjDThwpOpzCDpk0MVLBeUVBTzrU0N9WVHzWMQs3RNcn4Gsoy0tsrkiim6yuCYKb_3Xu7PmKVhv3LcNl-URIGpeFTywy-uXJUSHdJg-bRKK3GsHqJll8v9B9dHkVrBCYG7-_6XphcGslGAqfqpI7YWtKfJBFfxxtqPe0nMNACyFIEm-lOO6GTsRpMbrhmvszqKZHryWT1uPWC8BrlSywR8WkHqnDVHbEEN91BqT1U2m0bs2nqVlhjSgBJpcgiMxXO9oygLBC_XRiS_uMkbG08T26GGt1yFLpFY-tC4AAsGeX19bY6hWty96mflBGAChyB2ii781H672F4idjPZnFDCT0Kf170JoGGzaFGEIz-sHMo5pSYn6b7qiOl1yx9hanqEFanKsZh9tgziqxaOdpr_uFEFe4hxyY1eWj9Q6m_XupJgmxuF8KaTY9xc6ULI2tzlm3uFlJgfO1RnJF9iqtDUS6YFpK-vnPg_ZTw83SsDbXmFtUERVy3RDbLmEPL1utYSDH853t1um3zrhx3YtrrC_fY11LQ7_i5GbPXUNTNYhT6U16ldB3iDulRfktwnMNRoYzG8fWrxnU35DO-Rmzk7xSCEAdxz8mPCqFV3ZruoeOPnjtb2yUwNN0tx-ve56aQgLFbWrSA0KosrJBovVNPx0b9ySDqnTXn6oJrlNj_vRJ2NjNBiXlHw_II31Ts_uNYeG_RDqvC_IZUtPbd3126W8uef4E1e8gYBG8zfOrGVgOqFaTB8qlLV0XwhuzhhcxhPrg-INy3MOBXaEdEnyVRUePRXXJXfl-z8kldMnHew_xS4GulByoK5vKRbnNxJLTKDKWUUsOpFS7FdbNA1tMAhKs0hK2wmz-UQxxx19YrQCjnhXpFtDeJSLBcTmtfuBmqEUR6BtA8MRZGtS7tWQXXxoEuLrx1Wa2aYZWXQe57CVD-LWcAKL0nrLxZ22E21dBkeS2_89bhiUCpiY3yqkdETMtmhj3O9TpbIqwWh91NQKfNlEUF-yreIWD4_m1YYAVUVGPRZ_Hm91jRGvdo_i-Kiu9Zs_JxYPEdYjVROQ2q7tCjR_xeG8Wsb61A8bDFogE33nfR_sDn_wK-sl9Dd6CWwNfxZVmXqCNwEj_Yab4A5Jl0-ty7ZfDhL2Dwj5cmzXQowB6OgySE6uabcimcm0Lndm_bCkhVJaY9afy4RsNm00]--></g></svg>
