<svg xmlns="http://www.w3.org/2000/svg" xmlns:xlink="http://www.w3.org/1999/xlink" contentStyleType="text/css" height="1522px" preserveAspectRatio="none" style="width:1548px;height:1522px;background:#FAFAFA;" version="1.1" viewBox="0 0 1548 1522" width="1548px" zoomAndPan="magnify"><defs><style type="text/css">@import url('https://fonts.googleapis.com/css?family=Roboto:400,100,100italic,300,300italic,400italic,500,500italic,700,700italic,900,900italic');</style></defs><g><rect fill="#FAFAFA" height="1522" style="stroke:none;stroke-width:1.0;" width="1548" x="0" y="0"/><ellipse cx="791.5" cy="16" fill="#222222" rx="10" ry="10" style="stroke:#222222;stroke-width:1.0;"/><g id="n_start"><rect fill="#BBDEFB" height="50.4688" rx="4" ry="4" style="stroke:#181818;stroke-width:0.5;" width="88.1738" x="747.5" y="87"/><line style="stroke:#181818;stroke-width:0.5;" x1="747.5" x2="835.6738" y1="113.4063" y2="113.4063"/><text fill="#000000" font-family="Roboto" font-size="14" lengthAdjust="spacing" textLength="42.793" x="770.1904" y="104.9883">n_start</text><text fill="#000000" font-family="Roboto" font-size="12" lengthAdjust="spacing" textLength="68.1738" x="752.5" y="129.5391">setup &#183; 175w</text></g><g id="n_note"><rect fill="#D1C4E9" height="50.4688" rx="4" ry="4" style="stroke:#181818;stroke-width:0.5;" width="87.7988" x="400.5" y="214"/><line style="stroke:#181818;stroke-width:0.5;" x1="400.5" x2="488.2988" y1="240.4063" y2="240.4063"/><text fill="#000000" font-family="Roboto" font-size="14" lengthAdjust="spacing" textLength="41.7676" x="423.5156" y="231.9883">n_note</text><text fill="#000000" font-family="Roboto" font-size="12" lengthAdjust="spacing" textLength="67.7988" x="405.5" y="256.5391">rising &#183; 175w</text></g><g id="n_door"><rect fill="#D1C4E9" height="50.4688" rx="4" ry="4" style="stroke:#181818;stroke-width:0.5;" width="87.7988" x="747.5" y="214"/><line style="stroke:#181818;stroke-width:0.5;" x1="747.5" x2="835.2988" y1="240.4063" y2="240.4063"/><text fill="#000000" font-family="Roboto" font-size="14" lengthAdjust="spacing" textLength="42.6563" x="770.0713" y="231.9883">n_door</text><text fill="#000000" font-family="Roboto" font-size="12" lengthAdjust="spacing" textLength="67.7988" x="752.5" y="256.5391">rising &#183; 175w</text></g><g id="n_keeper"><rect fill="#D1C4E9" height="50.4688" rx="4" ry="4" style="stroke:#181818;stroke-width:0.5;" width="87.7988" x="1045.5" y="214"/><line style="stroke:#181818;stroke-width:0.5;" x1="1045.5" x2="1133.2988" y1="240.4063" y2="240.4063"/><text fill="#000000" font-family="Roboto" font-size="14" lengthAdjust="spacing" textLength="56.0205" x="1061.3892" y="231.9883">n_keeper</text><text fill="#000000" font-family="Roboto" font-size="12" lengthAdjust="spacing" textLength="67.7988" x="1050.5" y="256.5391">rising &#183; 175w</text></g><g id="n_keyhunt"><rect fill="#D1C4E9" height="50.4688" rx="4" ry="4" style="stroke:#181818;stroke-width:0.5;" width="87.7988" x="473.5" y="341"/><line style="stroke:#181818;stroke-width:0.5;" x1="473.5" x2="561.2988" y1="367.4063" y2="367.4063"/><text fill="#000000" font-family="Roboto" font-size="14" lengthAdjust="spacing" textLength="62.9316" x="485.9336" y="358.9883">n_keyhunt</text><text fill="#000000" font-family="Roboto" font-size="12" lengthAdjust="spacing" textLength="67.7988" x="478.5" y="383.5391">rising &#183; 175w</text></g><g id="n_keeper_story"><rect fill="#D1C4E9" height="50.4688" rx="4" ry="4" style="stroke:#181818;stroke-width:0.5;" width="113.4951" x="1275" y="341"/><line style="stroke:#181818;stroke-width:0.5;" x1="1275" x2="1388.4951" y1="367.4063" y2="367.4063"/><text fill="#000000" font-family="Roboto" font-size="14" lengthAdjust="spacing" textLength="93.4951" x="1285" y="358.9883">n_keeper_story</text><text fill="#000000" font-family="Roboto" font-size="12" lengthAdjust="spacing" textLength="67.7988" x="1280" y="383.5391">rising &#183; 175w</text></g><g id="n_window"><rect fill="#D1C4E9" height="50.4688" rx="4" ry="4" style="stroke:#181818;stroke-width:0.5;" width="87.7988" x="931.5" y="341"/><line style="stroke:#181818;stroke-width:0.5;" x1="931.5" x2="1019.2988" y1="367.4063" y2="367.4063"/><text fill="#000000" font-family="Roboto" font-size="14" lengthAdjust="spacing" textLength="62.1045" x="944.3472" y="358.9883">n_window</text><text fill="#000000" font-family="Roboto" font-size="12" lengthAdjust="spacing" textLength="67.7988" x="936.5" y="383.5391">rising &#183; 175w</text></g><g id="n_inside"><rect fill="#FFF9C4" height="50.4688" rx="4" ry="4" style="stroke:#181818;stroke-width:0.5;" width="93.6348" x="724.5" y="468"/><line style="stroke:#181818;stroke-width:0.5;" x1="724.5" x2="818.1348" y1="494.4063" y2="494.4063"/><text fill="#000000" font-family="Roboto" font-size="14" lengthAdjust="spacing" textLength="51.1328" x="745.751" y="485.9883">n_inside</text><text fill="#000000" font-family="Roboto" font-size="12" lengthAdjust="spacing" textLength="73.6348" x="729.5" y="510.5391">choice &#183; 175w</text></g><g id="n_stairs"><rect fill="#D1C4E9" height="50.4688" rx="4" ry="4" style="stroke:#181818;stroke-width:0.5;" width="87.7988" x="1122.5" y="595"/><line style="stroke:#181818;stroke-width:0.5;" x1="1122.5" x2="1210.2988" y1="621.4063" y2="621.4063"/><text fill="#000000" font-family="Roboto" font-size="14" lengthAdjust="spacing" textLength="48.8428" x="1141.978" y="612.9883">n_stairs</text><text fill="#000000" font-family="Roboto" font-size="12" lengthAdjust="spacing" textLength="67.7988" x="1127.5" y="637.5391">rising &#183; 175w</text></g><g id="n_study"><rect fill="#D1C4E9" height="50.4688" rx="4" ry="4" style="stroke:#181818;stroke-width:0.5;" width="87.7988" x="586.5" y="595"/><line style="stroke:#181818;stroke-width:0.5;" x1="586.5" x2="674.2988" y1="621.4063" y2="621.4063"/><text fill="#000000" font-family="Roboto" font-size="14" lengthAdjust="spacing" textLength="48.0908" x="606.354" y="612.9883">n_study</text><text fill="#000000" font-family="Roboto" font-size="12" lengthAdjust="spacing" textLength="67.7988" x="591.5" y="637.5391">rising &#183; 175w</text></g><g id="n_pendulum"><rect fill="#D1C4E9" height="50.4688" rx="4" ry="4" style="stroke:#181818;stroke-width:0.5;" width="96.0771" x="64.5" y="595"/><line style="stroke:#181818;stroke-width:0.5;" x1="64.5" x2="160.5771" y1="621.4063" y2="621.4063"/><text fill="#000000" font-family="Roboto" font-size="14" lengthAdjust="spacing" textLength="76.0771" x="74.5" y="612.9883">n_pendulum</text><text fill="#000000" font-family="Roboto" font-size="12" lengthAdjust="spacing" textLength="67.7988" x="69.5" y="637.5391">rising &#183; 175w</text></g><g id="n_basement"><rect fill="#D1C4E9" height="50.4688" rx="4" ry="4" style="stroke:#181818;stroke-width:0.5;" width="96.1865" x="856.5" y="595"/><line style="stroke:#181818;stroke-width:0.5;" x1="856.5" x2="952.6865" y1="621.4063" y2="621.4063"/><text fill="#000000" font-family="Roboto" font-size="14" lengthAdjust="spacing" textLength="76.1865" x="866.5" y="612.9883">n_basement</text><text fill="#000000" font-family="Roboto" font-size="12" lengthAdjust="spacing" textLength="67.7988" x="861.5" y="637.5391">rising &#183; 175w</text></g><g id="n_clockface"><rect fill="#FFF9C4" height="50.4688" rx="4" ry="4" style="stroke:#181818;stroke-width:0.5;" width="94.4229" x="613.5" y="722"/><line style="stroke:#181818;stroke-width:0.5;" x1="613.5" x2="707.9229" y1="748.4063" y2="748.4063"/><text fill="#000000" font-family="Roboto" font-size="14" lengthAdjust="spacing" textLength="74.4229" x="623.5" y="739.9883">n_clockface</text><text fill="#000000" font-family="Roboto" font-size="12" lengthAdjust="spacing" textLength="73.6348" x="618.5" y="764.5391">choice &#183; 175w</text></g><g id="n_setcorrect"><rect fill="#FFE0B2" height="50.4688" rx="4" ry="4" style="stroke:#181818;stroke-width:0.5;" width="97.4102" x="282" y="897"/><line style="stroke:#181818;stroke-width:0.5;" x1="282" x2="379.4102" y1="923.4063" y2="923.4063"/><text fill="#000000" font-family="Roboto" font-size="14" lengthAdjust="spacing" textLength="77.4102" x="292" y="914.9883">n_setcorrect</text><text fill="#000000" font-family="Roboto" font-size="12" lengthAdjust="spacing" textLength="73.459" x="287" y="939.5391">climax &#183; 175w</text></g><g id="n_setjam"><rect fill="#FFE0B2" height="50.4688" rx="4" ry="4" style="stroke:#181818;stroke-width:0.5;" width="93.459" x="884" y="897"/><line style="stroke:#181818;stroke-width:0.5;" x1="884" x2="977.459" y1="923.4063" y2="923.4063"/><text fill="#000000" font-family="Roboto" font-size="14" lengthAdjust="spacing" textLength="56.5195" x="902.4697" y="914.9883">n_setjam</text><text fill="#000000" font-family="Roboto" font-size="12" lengthAdjust="spacing" textLength="73.459" x="889" y="939.5391">climax &#183; 175w</text></g><g id="n_backpanel"><rect fill="#D1C4E9" height="50.4688" rx="4" ry="4" style="stroke:#181818;stroke-width:0.5;" width="97.9844" x="608.5" y="897"/><line style="stroke:#181818;stroke-width:0.5;" x1="608.5" x2="706.4844" y1="923.4063" y2="923.4063"/><text fill="#000000" font-family="Roboto" font-size="14" lengthAdjust="spacing" textLength="77.9844" x="618.5" y="914.9883">n_backpanel</text><text fill="#000000" font-family="Roboto" font-size="12" lengthAdjust="spacing" textLength="67.7988" x="613.5" y="939.5391">rising &#183; 175w</text></g><g id="n_vault"><rect fill="#FFF9C4" height="50.4688" rx="4" ry="4" style="stroke:#181818;stroke-width:0.5;" width="93.6348" x="531.5" y="1079.5"/><line style="stroke:#181818;stroke-width:0.5;" x1="531.5" x2="625.1348" y1="1105.9063" y2="1105.9063"/><text fill="#000000" font-family="Roboto" font-size="14" lengthAdjust="spacing" textLength="44.1465" x="556.2441" y="1097.4883">n_vault</text><text fill="#000000" font-family="Roboto" font-size="12" lengthAdjust="spacing" textLength="73.6348" x="536.5" y="1122.0391">choice &#183; 175w</text></g><g id="n_end_library"><rect fill="#E0E0E0" height="64.5313" rx="4" ry="4" style="stroke:#181818;stroke-width:0.5;" width="139.2324" x="150" y="802"/><line style="stroke:#181818;stroke-width:0.5;" x1="150" x2="289.2324" y1="828.4063" y2="828.4063"/><text fill="#000000" font-family="Roboto" font-size="14" lengthAdjust="spacing" textLength="81.8125" x="178.71" y="819.9883">n_end_library</text><text fill="#000000" font-family="Roboto" font-size="12" lengthAdjust="spacing" textLength="99.2285" x="155" y="844.5391">discovery (neutral)</text><text fill="#000000" font-family="Roboto" font-size="12" lengthAdjust="spacing" textLength="119.2324" x="155" y="858.6016">"Lost in the Logbooks"</text></g><g id="n_end_giveup"><rect fill="#FFCDD2" height="64.5313" rx="4" ry="4" style="stroke:#181818;stroke-width:0.5;" width="118.6484" x="7" y="977"/><line style="stroke:#181818;stroke-width:0.5;" x1="7" x2="125.6484" y1="1003.4063" y2="1003.4063"/><text fill="#000000" font-family="Roboto" font-size="14" lengthAdjust="spacing" textLength="84.4648" x="24.0918" y="994.9883">n_end_giveup</text><text fill="#000000" font-family="Roboto" font-size="12" lengthAdjust="spacing" textLength="98.6484" x="12" y="1019.5391">setback (negative)</text><text fill="#000000" font-family="Roboto" font-size="12" lengthAdjust="spacing" textLength="59.7773" x="12" y="1033.6016">"Too Risky"</text></g><g id="n_end_timeout"><rect fill="#FFCDD2" height="64.5313" rx="4" ry="4" style="stroke:#181818;stroke-width:0.5;" width="118.6484" x="1293" y="1167"/><line style="stroke:#181818;stroke-width:0.5;" x1="1293" x2="1411.6484" y1="1193.4063" y2="1193.4063"/><text fill="#000000" font-family="Roboto" font-size="14" lengthAdjust="spacing" textLength="91.3828" x="1306.6328" y="1184.9883">n_end_timeout</text><text fill="#000000" font-family="Roboto" font-size="12" lengthAdjust="spacing" textLength="98.6484" x="1298" y="1209.5391">setback (negative)</text><text fill="#000000" font-family="Roboto" font-size="12" lengthAdjust="spacing" textLength="70.418" x="1298" y="1223.6016">"Out of Time"</text></g><g id="n_end_stuck"><rect fill="#FFCDD2" height="64.5313" rx="4" ry="4" style="stroke:#181818;stroke-width:0.5;" width="157.9238" x="1105.5" y="1167"/><line style="stroke:#181818;stroke-width:0.5;" x1="1105.5" x2="1263.4238" y1="1193.4063" y2="1193.4063"/><text fill="#000000" font-family="Roboto" font-size="14" lengthAdjust="spacing" textLength="77.3623" x="1145.7808" y="1184.9883">n_end_stuck</text><text fill="#000000" font-family="Roboto" font-size="12" lengthAdjust="spacing" textLength="98.6484" x="1110.5" y="1209.5391">setback (negative)</text><text fill="#000000" font-family="Roboto" font-size="12" lengthAdjust="spacing" textLength="137.9238" x="1110.5" y="1223.6016">"Locked Out for the Night"</text></g><g id="n_end_secret"><rect fill="#C8E6C9" height="64.5313" rx="4" ry="4" style="stroke:#181818;stroke-width:0.5;" width="145.8008" x="321.5" y="1072"/><line style="stroke:#181818;stroke-width:0.5;" x1="321.5" x2="467.3008" y1="1098.4063" y2="1098.4063"/><text fill="#000000" font-family="Roboto" font-size="14" lengthAdjust="spacing" textLength="82.1406" x="353.3301" y="1089.9883">n_end_secret</text><text fill="#000000" font-family="Roboto" font-size="12" lengthAdjust="spacing" textLength="97.0957" x="326.5" y="1114.5391">success (positive)</text><text fill="#000000" font-family="Roboto" font-size="12" lengthAdjust="spacing" textLength="125.8008" x="326.5" y="1128.6016">"The Hidden Workshop"</text></g><g id="n_end_hero"><rect fill="#C8E6C9" height="64.5313" rx="4" ry="4" style="stroke:#181818;stroke-width:0.5;" width="136.7891" x="486" y="1262"/><line style="stroke:#181818;stroke-width:0.5;" x1="486" x2="622.7891" y1="1288.4063" y2="1288.4063"/><text fill="#000000" font-family="Roboto" font-size="14" lengthAdjust="spacing" textLength="71.2783" x="518.7554" y="1279.9883">n_end_hero</text><text fill="#000000" font-family="Roboto" font-size="12" lengthAdjust="spacing" textLength="112.957" x="491" y="1304.5391">completion (positive)</text><text fill="#000000" font-family="Roboto" font-size="12" lengthAdjust="spacing" textLength="116.7891" x="491" y="1318.6016">"The Cipher Revealed"</text></g><g id="n_end_keepsake"><rect fill="#C8E6C9" height="64.5313" rx="4" ry="4" style="stroke:#181818;stroke-width:0.5;" width="122.5801" x="721" y="1262"/><line style="stroke:#181818;stroke-width:0.5;" x1="721" x2="843.5801" y1="1288.4063" y2="1288.4063"/><text fill="#000000" font-family="Roboto" font-size="14" lengthAdjust="spacing" textLength="102.5801" x="731" y="1279.9883">n_end_keepsake</text><text fill="#000000" font-family="Roboto" font-size="12" lengthAdjust="spacing" textLength="97.0957" x="726" y="1304.5391">success (positive)</text><text fill="#000000" font-family="Roboto" font-size="12" lengthAdjust="spacing" textLength="80.1504" x="726" y="1318.6016">"A Secret Kept"</text></g><g id="n_end_caught"><rect fill="#FFCDD2" height="64.5313" rx="4" ry="4" style="stroke:#181818;stroke-width:0.5;" width="134.3457" x="310.5" y="1262"/><line style="stroke:#181818;stroke-width:0.5;" x1="310.5" x2="444.8457" y1="1288.4063" y2="1288.4063"/><text fill="#000000" font-family="Roboto" font-size="14" lengthAdjust="spacing" textLength="86.2285" x="334.5586" y="1279.9883">n_end_caught</text><text fill="#000000" font-family="Roboto" font-size="12" lengthAdjust="spacing" textLength="98.6484" x="315.5" y="1304.5391">setback (negative)</text><text fill="#000000" font-family="Roboto" font-size="12" lengthAdjust="spacing" textLength="114.3457" x="315.5" y="1318.6016">"Caught Red-Handed"</text></g><ellipse cx="486.5" cy="1399" fill="none" rx="11" ry="11" style="stroke:#222222;stroke-width:1.0;"/><ellipse cx="486.5" cy="1399" fill="#222222" rx="6" ry="6" style="stroke:#222222;stroke-width:1.0;"/><!--link *start* to n_start--><g id="link_*start*_n_start"><path d="M791.5,26.01 C791.5,39.89 791.5,60.97 791.5,80.84 " fill="none" id="*start*-to-n_start" style="stroke:#181818;stroke-width:1.0;"/><polygon fill="#181818" points="791.5,86.84,795.5,77.84,791.5,81.84,787.5,77.84,791.5,86.84" style="stroke:#181818;stroke-width:1.0;"/></g><!--link n_start to n_note--><g id="link_n_start_n_note"><path d="M747.22,116.35 C694.81,121.66 605.92,134.91 536.5,167 C511.41,178.6 491.2969,194.1141 473.8569,209.7541 " fill="none" id="n_start-to-n_note" style="stroke:#181818;stroke-width:1.0;"/><polygon fill="#181818" points="469.39,213.76,478.7609,210.7291,473.1124,210.4218,473.4198,204.7733,469.39,213.76" style="stroke:#181818;stroke-width:1.0;"/><text fill="#000000" font-family="Roboto" font-size="13" lengthAdjust="spacing" textLength="245.9336" x="537.5" y="180.0605">Examine the cipher note pinned to the do...</text></g><!--link n_start to n_door--><g id="link_n_start_n_door"><path d="M791.5,137.1 C791.5,159.24 791.5,185.86 791.5,207.97 " fill="none" id="n_start-to-n_door" style="stroke:#181818;stroke-width:1.0;"/><polygon fill="#181818" points="791.5,213.97,795.5,204.97,791.5,208.97,787.5,204.97,791.5,213.97" style="stroke:#181818;stroke-width:1.0;"/><text fill="#000000" font-family="Roboto" font-size="13" lengthAdjust="spacing" textLength="220.9429" x="792.5" y="180.0605">Search the building for another way in.</text></g><!--link n_start to n_keeper--><g id="link_n_start_n_keeper"><path d="M835.75,115.9 C884.17,120.71 962.73,133.44 1021.5,167 C1041.81,178.59 1056.1242,193.4069 1068.5142,209.0469 " fill="none" id="n_start-to-n_keeper" style="stroke:#181818;stroke-width:1.0;"/><polygon fill="#181818" points="1072.24,213.75,1069.7867,204.2116,1069.1352,209.8308,1063.516,209.1793,1072.24,213.75" style="stroke:#181818;stroke-width:1.0;"/><text fill="#000000" font-family="Roboto" font-size="13" lengthAdjust="spacing" textLength="239.1797" x="1043.5" y="180.0605">Find the old clockkeeper and ask for hel...</text></g><!--link n_note to n_keyhunt--><g id="link_n_note_n_keyhunt"><path d="M437.69,264.31 C435.03,278.66 434.14,296.75 441.5,311 C448.55,324.66 455.8368,332.3082 468.4968,340.6882 " fill="none" id="n_note-to-n_keyhunt" style="stroke:#181818;stroke-width:1.0;"/><polygon fill="#181818" points="473.5,344,468.203,335.6969,469.3307,341.2402,463.7873,342.3678,473.5,344" style="stroke:#181818;stroke-width:1.0;"/><text fill="#000000" font-family="Roboto" font-size="13" lengthAdjust="spacing" textLength="234.2349" x="442.5" y="307.0605">Follow the clue to hunt for the hidden k...</text></g><!--link n_note to n_inside--><g id="link_n_note_n_inside"><path d="M400.24,251.28 C324.2,272.76 181.74,323.52 234.5,391 C294.61,467.88 598.9739,486.2033 718.5039,490.5233 " fill="none" id="n_note-to-n_inside" style="stroke:#181818;stroke-width:1.0;"/><polygon fill="#181818" points="724.5,490.74,715.6503,486.4175,719.5033,490.5594,715.3614,494.4123,724.5,490.74" style="stroke:#181818;stroke-width:1.0;"/><text fill="#000000" font-family="Roboto" font-size="13" lengthAdjust="spacing" textLength="219.1465" x="235.5" y="370.5605">Try the loose grate the note mentions.</text></g><!--link n_door to n_inside--><g id="link_n_door_n_inside"><path d="M768.29,264.24 C751.67,283.39 730.67,311.68 721.5,341 C707.45,385.94 731.0016,432.9814 750.5016,462.7414 " fill="none" id="n_door-to-n_inside" style="stroke:#181818;stroke-width:1.0;"/><polygon fill="#181818" points="753.79,467.76,752.2031,458.0398,751.0497,463.5778,745.5117,462.4244,753.79,467.76" style="stroke:#181818;stroke-width:1.0;"/><text fill="#000000" font-family="Roboto" font-size="13" lengthAdjust="spacing" textLength="191.7183" x="722.5" y="370.5605">Shoulder the stiff side door open.</text></g><!--link n_door to n_window--><g id="link_n_door_n_window"><path d="M826.61,264.04 C846.75,277.81 872.53,295.41 895.5,311 C909.92,320.79 920.8561,328.1844 934.6561,337.4944 " fill="none" id="n_door-to-n_window" style="stroke:#181818;stroke-width:1.0;"/><polygon fill="#181818" points="939.63,340.85,934.4062,332.5006,935.4851,338.0537,929.932,339.1326,939.63,340.85" style="stroke:#181818;stroke-width:1.0;"/><text fill="#000000" font-family="Roboto" font-size="13" lengthAdjust="spacing" textLength="166.8799" x="896.5" y="307.0605">Climb up to the high window.</text></g><!--link n_keeper to n_inside--><g id="link_n_keeper_n_inside"><path d="M1091.54,264.05 C1093.66,305.79 1091.42,391.6 1043.5,438 C1012.02,468.47 893.809,482.4087 824.629,488.2087 " fill="none" id="n_keeper-to-n_inside" style="stroke:#181818;stroke-width:1.0;"/><polygon fill="#181818" points="818.65,488.71,827.9527,491.9441,823.6325,488.2923,827.2844,483.9721,818.65,488.71" style="stroke:#181818;stroke-width:1.0;"/><text fill="#000000" font-family="Roboto" font-size="13" lengthAdjust="spacing" textLength="148.6558" x="1088.5" y="370.5605">Go inside with the keeper.</text></g><!--link n_keeper to n_keeper_story--><g id="link_n_keeper_n_keeper_story"><path d="M1133.61,262.78 C1176.41,284.89 1235.8191,315.5766 1279.4791,338.1266 " fill="none" id="n_keeper-to-n_keeper_story" style="stroke:#181818;stroke-width:1.0;"/><polygon fill="#181818" points="1284.81,340.88,1278.6492,333.196,1280.3676,338.5855,1274.978,340.3039,1284.81,340.88" style="stroke:#181818;stroke-width:1.0;"/><text fill="#000000" font-family="Roboto" font-size="13" lengthAdjust="spacing" textLength="141.521" x="1225.5" y="307.0605">Ask who built the cipher.</text></g><!--link n_keyhunt to n_inside--><g id="link_n_keyhunt_n_inside"><path d="M473.37,384.67 C446.09,398.15 419.28,417.78 436.5,438 C472.93,480.77 635.0614,489.6597 718.4014,491.4697 " fill="none" id="n_keyhunt-to-n_inside" style="stroke:#181818;stroke-width:1.0;"/><polygon fill="#181818" points="724.4,491.6,715.489,487.4055,719.4012,491.4914,715.3153,495.4036,724.4,491.6" style="stroke:#181818;stroke-width:1.0;"/><text fill="#000000" font-family="Roboto" font-size="13" lengthAdjust="spacing" textLength="239.5542" x="437.5" y="434.0605">Unlock the front door with the brass key...</text></g><!--link n_keeper_story to n_inside--><g id="link_n_keeper_story_n_inside"><path d="M1274.92,388.39 C1231.77,404.02 1170.57,424.72 1115.5,438 C1010.89,463.23 891.4019,478.8046 824.6719,486.3646 " fill="none" id="n_keeper_story-to-n_inside" style="stroke:#181818;stroke-width:1.0;"/><polygon fill="#181818" points="818.71,487.04,828.1031,490.0014,823.6782,486.4771,827.2025,482.0523,818.71,487.04" style="stroke:#181818;stroke-width:1.0;"/><text fill="#000000" font-family="Roboto" font-size="13" lengthAdjust="spacing" textLength="231.4673" x="1176.5" y="434.0605">Head inside with what you have learned.</text></g><!--link n_window to n_inside--><g id="link_n_window_n_inside"><path d="M936.17,391.1 C900.04,413.24 851.9162,442.7256 815.8262,464.8356 " fill="none" id="n_window-to-n_inside" style="stroke:#181818;stroke-width:1.0;"/><polygon fill="#181818" points="810.71,467.97,820.4739,466.6792,814.9735,465.358,816.2947,459.8576,810.71,467.97" style="stroke:#181818;stroke-width:1.0;"/><text fill="#000000" font-family="Roboto" font-size="13" lengthAdjust="spacing" textLength="148.7192" x="886.5" y="434.0605">Drop down into the tower.</text></g><!--link n_inside to n_stairs--><g id="link_n_inside_n_stairs"><path d="M818.5,500.66 C869.45,508.68 952.7,524.12 1021.5,548 C1057.38,560.45 1090.62,576.7602 1118.93,592.0402 " fill="none" id="n_inside-to-n_stairs" style="stroke:#181818;stroke-width:1.0;"/><polygon fill="#181818" points="1124.21,594.89,1118.1899,587.0953,1119.81,592.5151,1114.3901,594.1353,1124.21,594.89" style="stroke:#181818;stroke-width:1.0;"/><text fill="#000000" font-family="Roboto" font-size="13" lengthAdjust="spacing" textLength="122.3003" x="1063.5" y="561.0605">Climb the spiral stair.</text></g><!--link n_inside to n_study--><g id="link_n_inside_n_study"><path d="M724.31,510.7 C704.61,519.46 682.62,531.79 666.5,548 C653.44,561.13 646.3739,574.3816 640.5239,589.3516 " fill="none" id="n_inside-to-n_study" style="stroke:#181818;stroke-width:1.0;"/><polygon fill="#181818" points="638.34,594.94,645.3414,588.0132,640.1599,590.283,637.8902,585.1014,638.34,594.94" style="stroke:#181818;stroke-width:1.0;"/><text fill="#000000" font-family="Roboto" font-size="13" lengthAdjust="spacing" textLength="169.4507" x="667.5" y="561.0605">Open the clockmaker's study.</text></g><!--link n_inside to n_pendulum--><g id="link_n_inside_n_pendulum"><path d="M724.37,502.5 C666.28,513.01 564.57,531.54 477.5,548 C363.8,569.5 236.2563,594.5376 166.4763,608.3176 " fill="none" id="n_inside-to-n_pendulum" style="stroke:#181818;stroke-width:1.0;"/><polygon fill="#181818" points="160.59,609.48,170.1944,611.6606,165.4953,608.5113,168.6445,603.8122,160.59,609.48" style="stroke:#181818;stroke-width:1.0;"/><text fill="#000000" font-family="Roboto" font-size="13" lengthAdjust="spacing" textLength="167.9844" x="478.5" y="561.0605">Edge along the pendulum pit.</text></g><!--link n_inside to n_basement--><g id="link_n_inside_n_basement"><path d="M808.29,518.13 C820.63,526.92 834.14,537.33 845.5,548 C860.69,562.26 872.0073,575.5977 883.0673,589.9477 " fill="none" id="n_inside-to-n_basement" style="stroke:#181818;stroke-width:1.0;"/><polygon fill="#181818" points="886.73,594.7,884.4041,585.1297,883.6777,590.7398,878.0677,590.0134,886.73,594.7" style="stroke:#181818;stroke-width:1.0;"/><text fill="#000000" font-family="Roboto" font-size="13" lengthAdjust="spacing" textLength="151.9629" x="861.5" y="561.0605">Go down to the basement.</text></g><!--link n_stairs to n_clockface--><g id="link_n_stairs_n_clockface"><path d="M1161.73,645.01 C1157.24,660.97 1148.83,680.95 1133.5,692 C1066.21,740.52 819.59,746.1404 713.68,746.3104 " fill="none" id="n_stairs-to-n_clockface" style="stroke:#181818;stroke-width:1.0;"/><polygon fill="#181818" points="707.68,746.32,716.6864,750.3055,712.68,746.312,716.6736,742.3056,707.68,746.32" style="stroke:#181818;stroke-width:1.0;"/><text fill="#000000" font-family="Roboto" font-size="13" lengthAdjust="spacing" textLength="183.46" x="1149.5" y="688.0605">Climb up to the great clockface.</text></g><!--link n_study to n_clockface--><g id="link_n_study_n_clockface"><path d="M625.79,645.1 C623.97,659.05 623.22,676.8 627.5,692 C630.45,702.47 632.7849,707.8862 638.5449,716.7662 " fill="none" id="n_study-to-n_clockface" style="stroke:#181818;stroke-width:1.0;"/><polygon fill="#181818" points="641.81,721.8,640.2681,712.0726,639.089,717.6052,633.5564,716.4261,641.81,721.8" style="stroke:#181818;stroke-width:1.0;"/><text fill="#000000" font-family="Roboto" font-size="13" lengthAdjust="spacing" textLength="242.6836" x="628.5" y="688.0605">Take the cipher wheel up to the clockfac...</text></g><!--link n_study to n_end_library--><g id="link_n_study_n_end_library"><path d="M586.24,622.63 C535.09,626.3 449.96,637.99 387.5,675 C338.19,704.22 344.66,733.16 302.5,772 C291.16,782.45 282.8933,789.2512 270.5133,798.4112 " fill="none" id="n_study-to-n_end_library" style="stroke:#181818;stroke-width:1.0;"/><polygon fill="#181818" points="265.69,801.98,275.3041,799.8424,269.7094,799.006,270.5457,793.4113,265.69,801.98" style="stroke:#181818;stroke-width:1.0;"/><text fill="#000000" font-family="Roboto" font-size="13" lengthAdjust="spacing" textLength="228.0459" x="388.5" y="688.0605">Stay and read the fascinating logbooks.</text></g><!--link n_pendulum to n_clockface--><g id="link_n_pendulum_n_clockface"><path d="M103.62,645.32 C99.76,660.59 98.31,679.66 109.5,692 C126.37,710.6 476.962,734.4401 607.322,742.7101 " fill="none" id="n_pendulum-to-n_clockface" style="stroke:#181818;stroke-width:1.0;"/><polygon fill="#181818" points="613.31,743.09,604.5813,738.5282,608.32,742.7734,604.0748,746.5122,613.31,743.09" style="stroke:#181818;stroke-width:1.0;"/><text fill="#000000" font-family="Roboto" font-size="13" lengthAdjust="spacing" textLength="206.5654" x="110.5" y="688.0605">Cross carefully and grab the oil can.</text></g><!--link n_pendulum to n_end_giveup--><g id="link_n_pendulum_n_end_giveup"><path d="M93.79,645.12 C79.9,664.64 62.11,693.48 54.5,722 C30.51,811.95 46.7452,917.4863 57.9052,971.0063 " fill="none" id="n_pendulum-to-n_end_giveup" style="stroke:#181818;stroke-width:1.0;"/><polygon fill="#181818" points="59.13,976.88,61.2086,967.253,58.1094,971.9853,53.3771,968.886,59.13,976.88" style="stroke:#181818;stroke-width:1.0;"/><text fill="#000000" font-family="Roboto" font-size="13" lengthAdjust="spacing" textLength="238.3101" x="55.5" y="751.5605">Decide the ledge is too risky and back o...</text></g><!--link n_basement to n_clockface--><g id="link_n_basement_n_clockface"><path d="M900.46,645.01 C896.62,660.55 889.28,680.05 875.5,692 C828.55,732.73 761.2621,743.2522 713.5621,745.7022 " fill="none" id="n_basement-to-n_clockface" style="stroke:#181818;stroke-width:1.0;"/><polygon fill="#181818" points="707.57,746.01,716.7633,749.5431,712.5634,745.7535,716.353,741.5536,707.57,746.01" style="stroke:#181818;stroke-width:1.0;"/><text fill="#000000" font-family="Roboto" font-size="13" lengthAdjust="spacing" textLength="236.5645" x="888.5" y="688.0605">Take the service ladder up to the clockf...</text></g><!--link n_clockface to n_setcorrect--><g id="link_n_clockface_n_setcorrect"><path d="M613.48,755.15 C572.98,762.68 513.91,777.01 467.5,802 C421.18,826.95 381.0843,865.604 355.9643,892.514 " fill="none" id="n_clockface-to-n_setcorrect" style="stroke:#181818;stroke-width:1.0;"/><polygon fill="#181818" points="351.87,896.9,360.9354,893.0505,355.2819,893.245,355.0874,887.5915,351.87,896.9" style="stroke:#181818;stroke-width:1.0;"/><text fill="#000000" font-family="Roboto" font-size="13" lengthAdjust="spacing" textLength="177.7217" x="468.5" y="839.0605">Set the hands using the cipher.</text></g><!--link n_clockface to n_setjam--><g id="link_n_clockface_n_setjam"><path d="M707.52,753.52 C767.02,761.4 864.97,777.69 891.5,802 C918.27,826.53 926.1294,863.7282 928.7594,890.7782 " fill="none" id="n_clockface-to-n_setjam" style="stroke:#181818;stroke-width:1.0;"/><polygon fill="#181818" points="929.34,896.75,932.4503,887.4052,928.8561,891.7735,924.4878,888.1793,929.34,896.75" style="stroke:#181818;stroke-width:1.0;"/><text fill="#000000" font-family="Roboto" font-size="13" lengthAdjust="spacing" textLength="179.1943" x="924.5" y="839.0605">Force the hands by guesswork.</text></g><!--link n_clockface to n_backpanel--><g id="link_n_clockface_n_backpanel"><path d="M657.24,772.15 C656.13,781.46 655.04,792.21 654.5,802 C652.68,834.81 653.9139,866.7812 655.3839,890.8312 " fill="none" id="n_clockface-to-n_backpanel" style="stroke:#181818;stroke-width:1.0;"/><polygon fill="#181818" points="655.75,896.82,659.1935,887.5927,655.445,891.8293,651.2084,888.0808,655.75,896.82" style="stroke:#181818;stroke-width:1.0;"/><text fill="#000000" font-family="Roboto" font-size="13" lengthAdjust="spacing" textLength="231.4546" x="655.5" y="839.0605">Search for a back panel behind the face.</text></g><!--link n_clockface to n_end_timeout--><g id="link_n_clockface_n_end_timeout"><path d="M707.63,750.57 C807.99,756.55 1039.58,773.09 1112.5,802 C1234.22,850.26 1289.72,860.51 1349.5,977 C1380.84,1038.07 1371.1766,1115.7988 1361.6966,1160.8088 " fill="none" id="n_clockface-to-n_end_timeout" style="stroke:#181818;stroke-width:1.0;"/><polygon fill="#181818" points="1360.46,1166.68,1366.229,1158.6976,1361.4905,1161.7873,1358.4008,1157.0488,1360.46,1166.68" style="stroke:#181818;stroke-width:1.0;"/><text fill="#000000" font-family="Roboto" font-size="13" lengthAdjust="spacing" textLength="208.3682" x="1332.5" y="926.5605">Spin the hands at random and hope.</text></g><!--link n_setcorrect to n_vault--><g id="link_n_setcorrect_n_vault"><path d="M281.8,931.76 C255.91,939.16 226.25,952.64 210.5,977 C194.81,1001.26 191.22,1020.49 210.5,1042 C251.39,1087.61 424.67,1058.86 484.5,1072 C499.97,1075.4 510.7811,1078.4835 525.5611,1083.5235 " fill="none" id="n_setcorrect-to-n_vault" style="stroke:#181818;stroke-width:1.0;"/><polygon fill="#181818" points="531.24,1085.46,524.0127,1078.7693,526.5076,1083.8462,521.4306,1086.3412,531.24,1085.46" style="stroke:#181818;stroke-width:1.0;"/><text fill="#000000" font-family="Roboto" font-size="13" lengthAdjust="spacing" textLength="145.2725" x="211.5" y="1014.0605">Step through to the vault.</text></g><!--link n_setjam to n_vault--><g id="link_n_setjam_n_vault"><path d="M913.61,947.11 C890.35,980.02 850.22,1035.68 840.5,1042 C774.32,1085.07 687.3256,1097.6642 631.7656,1101.5242 " fill="none" id="n_setjam-to-n_vault" style="stroke:#181818;stroke-width:1.0;"/><polygon fill="#181818" points="625.78,1101.94,635.0356,1105.3066,630.768,1101.5935,634.4811,1097.3259,625.78,1101.94" style="stroke:#181818;stroke-width:1.0;"/><text fill="#000000" font-family="Roboto" font-size="13" lengthAdjust="spacing" textLength="226.7129" x="891.5" y="1014.0605">Free the jammed gears with the oil can.</text></g><!--link n_setjam to n_end_stuck--><g id="link_n_setjam_n_end_stuck"><path d="M977.03,923.21 C1021.43,925.98 1087.19,937.19 1126.5,977 C1152.96,1003.8 1171.1468,1106.3554 1179.2668,1160.9154 " fill="none" id="n_setjam-to-n_end_stuck" style="stroke:#181818;stroke-width:1.0;"/><polygon fill="#181818" points="1180.15,1166.85,1182.7816,1157.3592,1179.414,1161.9045,1174.8687,1158.5369,1180.15,1166.85" style="stroke:#181818;stroke-width:1.0;"/><text fill="#000000" font-family="Roboto" font-size="13" lengthAdjust="spacing" textLength="185.9863" x="1155.5" y="1014.0605">Give up; the gears will not move.</text></g><!--link n_backpanel to n_vault--><g id="link_n_backpanel_n_vault"><path d="M660.81,947.2 C663.11,972.29 663.48,1011.97 648.5,1042 C641.21,1056.62 633.4449,1065.5189 621.0649,1075.4789 " fill="none" id="n_backpanel-to-n_vault" style="stroke:#181818;stroke-width:1.0;"/><polygon fill="#181818" points="616.39,1079.24,625.9097,1076.715,620.2857,1076.1058,620.895,1070.4818,616.39,1079.24" style="stroke:#181818;stroke-width:1.0;"/><text fill="#000000" font-family="Roboto" font-size="13" lengthAdjust="spacing" textLength="168.0415" x="663.5" y="1014.0605">Open the panel into the vault.</text></g><!--link n_backpanel to n_end_secret--><g id="link_n_backpanel_n_end_secret"><path d="M608.26,925.85 C539.49,930.97 420.09,944.43 393.5,977 C372.11,1003.2 375.3395,1037.8455 382.4895,1065.9255 " fill="none" id="n_backpanel-to-n_end_secret" style="stroke:#181818;stroke-width:1.0;"/><polygon fill="#181818" points="383.97,1071.74,385.6255,1062.0313,382.7362,1066.8946,377.8729,1064.0053,383.97,1071.74" style="stroke:#181818;stroke-width:1.0;"/><text fill="#000000" font-family="Roboto" font-size="13" lengthAdjust="spacing" textLength="245.2798" x="394.5" y="1014.0605">Slip into the clockmaker's hidden worksh...</text></g><!--link n_vault to n_end_hero--><g id="link_n_vault_n_end_hero"><path d="M568.9,1129.64 C564.91,1140.82 560.7,1154.39 558.5,1167 C552.92,1198.93 552.3002,1230.0616 552.9002,1255.8016 " fill="none" id="n_vault-to-n_end_hero" style="stroke:#181818;stroke-width:1.0;"/><polygon fill="#181818" points="553.04,1261.8,556.8292,1252.7092,552.9235,1256.8014,548.8314,1252.8957,553.04,1261.8" style="stroke:#181818;stroke-width:1.0;"/><text fill="#000000" font-family="Roboto" font-size="13" lengthAdjust="spacing" textLength="243.1089" x="559.5" y="1204.0605">Decode the final message and bring it to...</text></g><!--link n_vault to n_end_keepsake--><g id="link_n_vault_n_end_keepsake"><path d="M625.67,1111.42 C686.05,1120.07 785.52,1138.34 807.5,1167 C828.34,1194.18 818.0217,1228.6927 804.1917,1256.3727 " fill="none" id="n_vault-to-n_end_keepsake" style="stroke:#181818;stroke-width:1.0;"/><polygon fill="#181818" points="801.51,1261.74,809.1108,1255.4768,803.7448,1257.2672,801.9544,1251.9012,801.51,1261.74" style="stroke:#181818;stroke-width:1.0;"/><text fill="#000000" font-family="Roboto" font-size="13" lengthAdjust="spacing" textLength="252.5542" x="819.5" y="1204.0605">Keep the clockmaker's secret among frien...</text></g><!--link n_vault to n_end_caught--><g id="link_n_vault_n_end_caught"><path d="M531.06,1122.79 C516.27,1127.8 499.82,1133 484.5,1137 C415.34,1155.06 372.08,1111.95 326.5,1167 C308.08,1189.25 316.7,1204.82 326.5,1232 C330.36,1242.7 333.1955,1248.1941 340.4055,1257.0641 " fill="none" id="n_vault-to-n_end_caught" style="stroke:#181818;stroke-width:1.0;"/><polygon fill="#181818" points="344.19,1261.72,341.6171,1252.2131,341.0362,1257.8401,335.4093,1257.2592,344.19,1261.72" style="stroke:#181818;stroke-width:1.0;"/><text fill="#000000" font-family="Roboto" font-size="13" lengthAdjust="spacing" textLength="217.7627" x="327.5" y="1204.0605">Stuff the treasure in your bag and run.</text></g><!--link n_end_library to *end*--><g id="link_n_end_library_*end*"><path d="M200.12,867.05 C181.29,900.78 155.5,956.46 155.5,1008.5 C155.5,1008.5 155.5,1008.5 155.5,1295.5 C155.5,1364.08 412.0748,1391.2649 469.5148,1396.5049 " fill="none" id="n_end_library-to-*end*" style="stroke:#181818;stroke-width:1.0;"/><polygon fill="#181818" points="475.49,1397.05,466.8906,1392.2489,470.5107,1396.5958,466.1638,1400.2158,475.49,1397.05" style="stroke:#181818;stroke-width:1.0;"/></g><!--link n_end_giveup to *end*--><g id="link_n_end_giveup_*end*"><path d="M61.22,1042.12 C51.73,1110.92 40.35,1274.7 129.5,1358 C155.47,1382.27 412.3657,1394.778 469.5557,1397.278 " fill="none" id="n_end_giveup-to-*end*" style="stroke:#181818;stroke-width:1.0;"/><polygon fill="#181818" points="475.55,1397.54,466.7333,1393.1508,470.5548,1397.3216,466.3839,1401.1431,475.55,1397.54" style="stroke:#181818;stroke-width:1.0;"/></g><!--link n_end_timeout to *end*--><g id="link_n_end_timeout_*end*"><path d="M1292.66,1227.64 C1288.9,1229.16 1285.16,1230.62 1281.5,1232 C1148.19,1282.07 1114.36,1295.44 975.5,1327 C883.07,1348 858.3,1344.36 764.5,1358 C660.51,1373.12 540.5397,1390.2815 503.2997,1395.6015 " fill="none" id="n_end_timeout-to-*end*" style="stroke:#181818;stroke-width:1.0;"/><polygon fill="#181818" points="497.36,1396.45,506.8352,1399.137,502.3097,1395.7429,505.7039,1391.2174,497.36,1396.45" style="stroke:#181818;stroke-width:1.0;"/></g><!--link n_end_stuck to *end*--><g id="link_n_end_stuck_*end*"><path d="M1114.92,1232.12 C1050.37,1260.39 951.06,1301.23 861.5,1327 C720.46,1367.59 548.7048,1390.3545 503.3648,1395.9545 " fill="none" id="n_end_stuck-to-*end*" style="stroke:#181818;stroke-width:1.0;"/><polygon fill="#181818" points="497.41,1396.69,506.8324,1399.5566,502.3723,1396.0771,505.8518,1391.6169,497.41,1396.69" style="stroke:#181818;stroke-width:1.0;"/></g><!--link n_end_secret to *end*--><g id="link_n_end_secret_*end*"><path d="M336.82,1137.09 C325.92,1145.48 315.7,1155.48 308.5,1167 C270.63,1227.61 251.56,1268.42 292.5,1327 C336.06,1389.32 434.5218,1396.9645 469.1418,1397.8045 " fill="none" id="n_end_secret-to-*end*" style="stroke:#181818;stroke-width:1.0;"/><polygon fill="#181818" points="475.14,1397.95,466.2397,1393.7329,470.1415,1397.8287,466.0456,1401.7305,475.14,1397.95" style="stroke:#181818;stroke-width:1.0;"/></g><!--link n_end_hero to *end*--><g id="link_n_end_hero_*end*"><path d="M533.54,1327.09 C519.18,1348.74 504.478,1370.9009 495.478,1384.4609 " fill="none" id="n_end_hero-to-*end*" style="stroke:#181818;stroke-width:1.0;"/><polygon fill="#181818" points="492.16,1389.46,500.4697,1384.1733,494.925,1385.2941,493.8042,1379.7494,492.16,1389.46" style="stroke:#181818;stroke-width:1.0;"/></g><!--link n_end_keepsake to *end*--><g id="link_n_end_keepsake_*end*"><path d="M720.81,1316.86 C647.95,1342.09 537.8798,1380.2071 502.6698,1392.3971 " fill="none" id="n_end_keepsake-to-*end*" style="stroke:#181818;stroke-width:1.0;"/><polygon fill="#181818" points="497,1394.36,506.8134,1395.1955,501.7249,1392.7242,504.1961,1387.6357,497,1394.36" style="stroke:#181818;stroke-width:1.0;"/></g><!--link n_end_caught to *end*--><g id="link_n_end_caught_*end*"><path d="M411.09,1327.09 C434.86,1349.44 460.5189,1373.5699 474.4189,1386.6399 " fill="none" id="n_end_caught-to-*end*" style="stroke:#181818;stroke-width:1.0;"/><polygon fill="#181818" points="478.79,1390.75,474.9734,1381.6707,475.1474,1387.3249,469.4932,1387.4989,478.79,1390.75" style="stroke:#181818;stroke-width:1.0;"/></g><rect fill="none" height="75.625" id="_legend" rx="4" ry="4" style="stroke:#000000;stroke-width:1.0;" width="220.417" x="1302.4512" y="1427"/><text fill="#000000" font-family="Roboto" font-size="14" lengthAdjust="spacing" textLength="140.8682" x="1307.4512" y="1444.9883">The Clocktower Cipher</text><text fill="#000000" font-family="Roboto" font-size="14" lengthAdjust="spacing" textLength="179.3955" x="1307.4512" y="1461.3945">Band 10-13 &#183; Tier 1 &#183; ~18 min</text><text fill="#000000" font-family="Roboto" font-size="14" lengthAdjust="spacing" textLength="209.2002" x="1307.4512" y="1477.8008">Topology: branch_and_bottleneck</text><text fill="#000000" font-family="Roboto" font-size="14" lengthAdjust="spacing" textLength="210.417" x="1307.4512" y="1494.207">25 nodes &#183; 8 endings (3+ / 1n / 4-)</text><!--SRC=[XLVRRXit47tVho3aXoGjl8bpQHC7A13BLe8cI03BHH-Amg1sHrfMr791SgtefR_LztvP3o-xMgua5mRavN3E36SuDpvX7wacpIsLRAdLXfarIRAgPh_EltrbYnqpXHQDDSyrrINf-sx_lXHyfVd6vCqkpvwmQyLgPHcLmZfKnUloFTDqhjkQsOhOAgXHEi_CMjGD1vQLjEIjj3DLswzyGsnognRAgic0PS6BzKghjYwdIYhDpcOVtD-08svgo6TliqgKn6ZJs1saXxCBLMVP7p_yoSxFVs7rlR5Ssmo_bheLExkwkhwPNMNT-f8Pict3_ls7NVpyPjjpmqHYPzSNqzStxxAul6HQ656l3fXBvSxRC_lbIUOrKKD3zaXu1B2hsjecY43v7nqmKUdTWQP8FWdUYhfKsm4i4au2H6tSNPpDPhDtqzTPJxXaHQL4GGS0_1VQ33H4maaDnhRbBk5twvFi3IAubUrcWEX99q4BRcX3YPzxqabG8LMnNl9YQFsUTje1P0kbDHNMuMvUNBtC4YA0KcpuzsF0lv092SWHJW9SLZMy9fcOrT5EslNWidLWKrYVj0VElPTYeRaBjviNxYzBgPUi5APG3uJlfpMrLdFvx81dyaKPoqGe95_KQg7KsamIDIlnGCXN76rwVVqoIuW-cPrrJiMAMr2VZJacTqgnMs7MkrIk5HjIhHq9xgYFIDwpJBxXdrgoEr1IuOXNG5FHWVQ8u8u1JYdMgDfE-XALnVdcgrXLTgI32aqu__JjpK_JTrb2X9QsACWOzhHHHYHQEex97UH-4cL9DVjTwRMfL9Dgg4YhaNnFGbYeJODcWVfxg22oUF5JqM39Rkc1kAGo5U-ga-5h6gdeoOyOCU2PV63pOD9dQaOkAdWBjutk8H8VkOYUOp8DNxTKddz2ttCMT8qaj9pO9sw-yuseoLzL4MpsEuseQzoaLNwdL7cUZmJ4tZ4dhelASorQ8KkNe-xkESGuQLk-GvgCmNqdcQ5YUx2I9VFrA6xXq8oRjPTLaGpw_T4w2LrdcIafKVIz1R8bTsQ_qqLW5I9bVI2YB_vtI6d7APKo60lSwE7NdjULLOIBoRj-EGBFAzLAZ24UOQnOBfdVyRmArNm4x7lK57LmmP3gqSaLCeM5tNpVR4VQFYeMlxV21hS7nWF8g8L-W2-tbVANP0VNdG-wz4ZNRxMx3y-BEGpxtefUBqeX8XpOuDX4tqZI9-9bSkvjnItRgHP3sGFyZXX2jENx3Zx2NslLGFksXf3eBQksuV2HgH-aGdiEplLNqWXKSEPtZl27zlmDznGZ22PlaA3wYM5-zm0pQD0tvOeObmenxy3zJYFi0MpGed69tfXeIhUJx-UB01dsvt6qh3J1XJr7tiyQXz0xLsy62Rwj21rrBwhZxN9yBoNjUNEBN7PvgTrr-h3WfX0rIX0S86CJp8Spp14xj4BK55pJifKoo4F6XRjIGcAhFY8YwOpNL3Y_-fGbTmN2m1RbHeHraEZBOonQlUCVyOmX_U361SbBbyfZtmH1UsGCdk4ODAUGLUwLOLZhPvKqoux0mq0qKxgW0HXlbLMBxh55Rpi674v5iVpwYXki3ZiBghhAseN7M4mw4ioRECo4Co2sD3xm-dBkH8CD4RQtECZefgsv9RYimhi7DIowpk_b-yalHSmq1PknjK6dMS4GioykWqX8uCDnuoFY0LVrFZxc0bvA_-ZRO83BamaoLTydVDZioqf_w34mcK3cKZHxJ58pOhVP-haan4tGkHSJvmn4iOfHl4GIINGQOxWhA2w0jGiWF5ojEYvaC4Xy9k_ySV4AX-KRLvsMMg0H7HNKpmnpsw9t-TgA13Uj9ZVVeaXh1DOg97xhRsHO5fmWF6JJuJKbTa6MKiCjZcZXp2dHkoibzSQdv6XAHymauOcFKxiHD6FCptNEHRvtn14Fz2jdsiMByujNxhbm9x1tuRx-ldZBC1mvf6hmqb_jBbtJgulg7eZxXR9MKat56Xmlto3iyBftkBSCMd5z6FzU_SYUiuiQFw_FdsKWXoFz1m00]--></g></svg>
