<?plantuml 1.2026.2?><svg xmlns="http://www.w3.org/2000/svg" xmlns:xlink="http://www.w3.org/1999/xlink" contentStyleType="text/css" data-diagram-type="STATE" height="1536px" preserveAspectRatio="none" style="width:1742px;height:1536px;background:#FAFAFA;" version="1.1" viewBox="0 0 1742 1536" width="1742px" zoomAndPan="magnify"><defs/><g><rect fill="#FAFAFA" height="1536" style="stroke:none;stroke-width:1;" width="1742" x="0" y="0"/><g class="entity" data-qualified-name="n_start" id="ent0002"><rect fill="#BBDEFB" height="50.2656" rx="4" ry="4" style="stroke:#181818;stroke-width:0.5;" width="97.7246" x="783.4" y="87"/><line style="stroke:#181818;stroke-width:0.5;" x1="783.4" x2="881.1246" y1="113.2969" y2="113.2969"/><text fill="#000000" font-family="'Roboto'" font-size="14" lengthAdjust="spacing" textLength="48.4805" x="808.0221" y="104.9951">n_start</text><text fill="#000000" font-family="'Roboto'" font-size="12" lengthAdjust="spacing" textLength="77.7246" x="788.4" y="129.4355">setup &#183; 175w</text></g><g class="entity" data-qualified-name="n_note" id="ent0003"><rect fill="#D1C4E9" height="50.2656" rx="4" ry="4" style="stroke:#181818;stroke-width:0.5;" width="97.2383" x="398.64" y="214.26"/><line style="stroke:#181818;stroke-width:0.5;" x1="398.64" x2="495.8783" y1="240.5569" y2="240.5569"/><text fill="#000000" font-family="'Roboto'" font-size="14" lengthAdjust="spacing" textLength="47.4141" x="423.5521" y="232.2551">n_note</text><text fill="#000000" font-family="'Roboto'" font-size="12" lengthAdjust="spacing" textLength="77.2383" x="403.64" y="256.6955">rising &#183; 175w</text></g><g class="entity" data-qualified-name="n_door" id="ent0004"><rect fill="#D1C4E9" height="50.2656" rx="4" ry="4" style="stroke:#181818;stroke-width:0.5;" width="97.2383" x="783.64" y="214.26"/><line style="stroke:#181818;stroke-width:0.5;" x1="783.64" x2="880.8783" y1="240.5569" y2="240.5569"/><text fill="#000000" font-family="'Roboto'" font-size="14" lengthAdjust="spacing" textLength="47.6465" x="808.4359" y="232.2551">n_door</text><text fill="#000000" font-family="'Roboto'" font-size="12" lengthAdjust="spacing" textLength="77.2383" x="788.64" y="256.6955">rising &#183; 175w</text></g><g class="entity" data-qualified-name="n_keeper" id="ent0005"><rect fill="#D1C4E9" height="50.2656" rx="4" ry="4" style="stroke:#181818;stroke-width:0.5;" width="97.2383" x="1114.64" y="214.26"/><line style="stroke:#181818;stroke-width:0.5;" x1="1114.64" x2="1211.8783" y1="240.5569" y2="240.5569"/><text fill="#000000" font-family="'Roboto'" font-size="14" lengthAdjust="spacing" textLength="64.4629" x="1131.0277" y="232.2551">n_keeper</text><text fill="#000000" font-family="'Roboto'" font-size="12" lengthAdjust="spacing" textLength="77.2383" x="1119.64" y="256.6955">rising &#183; 175w</text></g><g class="entity" data-qualified-name="n_keyhunt" id="ent0006"><rect fill="#D1C4E9" height="50.2656" rx="4" ry="4" style="stroke:#181818;stroke-width:0.5;" width="97.2383" x="486.64" y="341.53"/><line style="stroke:#181818;stroke-width:0.5;" x1="486.64" x2="583.8783" y1="367.8269" y2="367.8269"/><text fill="#000000" font-family="'Roboto'" font-size="14" lengthAdjust="spacing" textLength="72.9873" x="498.7655" y="359.5251">n_keyhunt</text><text fill="#000000" font-family="'Roboto'" font-size="12" lengthAdjust="spacing" textLength="77.2383" x="491.64" y="383.9655">rising &#183; 175w</text></g><g class="entity" data-qualified-name="n_keeper_story" id="ent0007"><rect fill="#D1C4E9" height="50.2656" rx="4" ry="4" style="stroke:#181818;stroke-width:0.5;" width="126.8525" x="1370.83" y="341.53"/><line style="stroke:#181818;stroke-width:0.5;" x1="1370.83" x2="1497.6825" y1="367.8269" y2="367.8269"/><text fill="#000000" font-family="'Roboto'" font-size="14" lengthAdjust="spacing" textLength="106.8525" x="1380.83" y="359.5251">n_keeper_story</text><text fill="#000000" font-family="'Roboto'" font-size="12" lengthAdjust="spacing" textLength="77.2383" x="1375.83" y="383.9655">rising &#183; 175w</text></g><g class="entity" data-qualified-name="n_window" id="ent0008"><rect fill="#D1C4E9" height="50.2656" rx="4" ry="4" style="stroke:#181818;stroke-width:0.5;" width="97.2383" x="995.64" y="341.53"/><line style="stroke:#181818;stroke-width:0.5;" x1="995.64" x2="1092.8783" y1="367.8269" y2="367.8269"/><text fill="#000000" font-family="'Roboto'" font-size="14" lengthAdjust="spacing" textLength="68.9883" x="1009.765" y="359.5251">n_window</text><text fill="#000000" font-family="'Roboto'" font-size="12" lengthAdjust="spacing" textLength="77.2383" x="1000.64" y="383.9655">rising &#183; 175w</text></g><g class="entity" data-qualified-name="n_inside" id="ent0009"><rect fill="#FFF9C4" height="50.2656" rx="4" ry="4" style="stroke:#181818;stroke-width:0.5;" width="103.0215" x="802.75" y="468.8"/><line style="stroke:#181818;stroke-width:0.5;" x1="802.75" x2="905.7715" y1="495.0969" y2="495.0969"/><text fill="#000000" font-family="'Roboto'" font-size="14" lengthAdjust="spacing" textLength="57.3193" x="825.6011" y="486.7951">n_inside</text><text fill="#000000" font-family="'Roboto'" font-size="12" lengthAdjust="spacing" textLength="83.0215" x="807.75" y="511.2355">choice &#183; 175w</text></g><g class="entity" data-qualified-name="n_stairs" id="ent0010"><rect fill="#D1C4E9" height="50.2656" rx="4" ry="4" style="stroke:#181818;stroke-width:0.5;" width="97.2383" x="1247.64" y="596.06"/><line style="stroke:#181818;stroke-width:0.5;" x1="1247.64" x2="1344.8783" y1="622.3569" y2="622.3569"/><text fill="#000000" font-family="'Roboto'" font-size="14" lengthAdjust="spacing" textLength="54.1748" x="1269.1717" y="614.0551">n_stairs</text><text fill="#000000" font-family="'Roboto'" font-size="12" lengthAdjust="spacing" textLength="77.2383" x="1252.64" y="638.4955">rising &#183; 175w</text></g><g class="entity" data-qualified-name="n_study" id="ent0011"><rect fill="#D1C4E9" height="50.2656" rx="4" ry="4" style="stroke:#181818;stroke-width:0.5;" width="97.2383" x="646.64" y="596.06"/><line style="stroke:#181818;stroke-width:0.5;" x1="646.64" x2="743.8783" y1="622.3569" y2="622.3569"/><text fill="#000000" font-family="'Roboto'" font-size="14" lengthAdjust="spacing" textLength="54.7012" x="667.9086" y="614.0551">n_study</text><text fill="#000000" font-family="'Roboto'" font-size="12" lengthAdjust="spacing" textLength="77.2383" x="651.64" y="638.4955">rising &#183; 175w</text></g><g class="entity" data-qualified-name="n_pendulum" id="ent0012"><rect fill="#D1C4E9" height="50.2656" rx="4" ry="4" style="stroke:#181818;stroke-width:0.5;" width="106.4063" x="65.06" y="596.06"/><line style="stroke:#181818;stroke-width:0.5;" x1="65.06" x2="171.4663" y1="622.3569" y2="622.3569"/><text fill="#000000" font-family="'Roboto'" font-size="14" lengthAdjust="spacing" textLength="86.4063" x="75.06" y="614.0551">n_pendulum</text><text fill="#000000" font-family="'Roboto'" font-size="12" lengthAdjust="spacing" textLength="77.2383" x="70.06" y="638.4955">rising &#183; 175w</text></g><g class="entity" data-qualified-name="n_basement" id="ent0013"><rect fill="#D1C4E9" height="50.2656" rx="4" ry="4" style="stroke:#181818;stroke-width:0.5;" width="105.8594" x="950.33" y="596.06"/><line style="stroke:#181818;stroke-width:0.5;" x1="950.33" x2="1056.1894" y1="622.3569" y2="622.3569"/><text fill="#000000" font-family="'Roboto'" font-size="14" lengthAdjust="spacing" textLength="85.8594" x="960.33" y="614.0551">n_basement</text><text fill="#000000" font-family="'Roboto'" font-size="12" lengthAdjust="spacing" textLength="77.2383" x="955.33" y="638.4955">rising &#183; 175w</text></g><g class="entity" data-qualified-name="n_clockface" id="ent0014"><rect fill="#FFF9C4" height="50.2656" rx="4" ry="4" style="stroke:#181818;stroke-width:0.5;" width="103.0215" x="675.75" y="723.33"/><line style="stroke:#181818;stroke-width:0.5;" x1="675.75" x2="778.7715" y1="749.6269" y2="749.6269"/><text fill="#000000" font-family="'Roboto'" font-size="14" lengthAdjust="spacing" textLength="81.6484" x="686.4365" y="741.3251">n_clockface</text><text fill="#000000" font-family="'Roboto'" font-size="12" lengthAdjust="spacing" textLength="83.0215" x="680.75" y="765.7655">choice &#183; 175w</text></g><g class="entity" data-qualified-name="n_setcorrect" id="ent0015"><rect fill="#FFE0B2" height="50.2656" rx="4" ry="4" style="stroke:#181818;stroke-width:0.5;" width="106.8438" x="302.84" y="897.83"/><line style="stroke:#181818;stroke-width:0.5;" x1="302.84" x2="409.6838" y1="924.1269" y2="924.1269"/><text fill="#000000" font-family="'Roboto'" font-size="14" lengthAdjust="spacing" textLength="86.8438" x="312.84" y="915.8251">n_setcorrect</text><text fill="#000000" font-family="'Roboto'" font-size="12" lengthAdjust="spacing" textLength="83.5723" x="307.84" y="940.2655">climax &#183; 175w</text></g><g class="entity" data-qualified-name="n_setjam" id="ent0016"><rect fill="#FFE0B2" height="50.2656" rx="4" ry="4" style="stroke:#181818;stroke-width:0.5;" width="103.5723" x="978.47" y="897.83"/><line style="stroke:#181818;stroke-width:0.5;" x1="978.47" x2="1082.0423" y1="924.1269" y2="924.1269"/><text fill="#000000" font-family="'Roboto'" font-size="14" lengthAdjust="spacing" textLength="63.376" x="998.5681" y="915.8251">n_setjam</text><text fill="#000000" font-family="'Roboto'" font-size="12" lengthAdjust="spacing" textLength="83.5723" x="983.47" y="940.2655">climax &#183; 175w</text></g><g class="entity" data-qualified-name="n_backpanel" id="ent0017"><rect fill="#D1C4E9" height="50.2656" rx="4" ry="4" style="stroke:#181818;stroke-width:0.5;" width="107.9854" x="670.27" y="897.83"/><line style="stroke:#181818;stroke-width:0.5;" x1="670.27" x2="778.2554" y1="924.1269" y2="924.1269"/><text fill="#000000" font-family="'Roboto'" font-size="14" lengthAdjust="spacing" textLength="87.9854" x="680.27" y="915.8251">n_backpanel</text><text fill="#000000" font-family="'Roboto'" font-size="12" lengthAdjust="spacing" textLength="77.2383" x="675.27" y="940.2655">rising &#183; 175w</text></g><g class="entity" data-qualified-name="n_vault" id="ent0018"><rect fill="#FFF9C4" height="50.2656" rx="4" ry="4" style="stroke:#181818;stroke-width:0.5;" width="103.0215" x="594.75" y="1079.31"/><line style="stroke:#181818;stroke-width:0.5;" x1="594.75" x2="697.7715" y1="1105.6069" y2="1105.6069"/><text fill="#000000" font-family="'Roboto'" font-size="14" lengthAdjust="spacing" textLength="50.9893" x="620.7661" y="1097.3051">n_vault</text><text fill="#000000" font-family="'Roboto'" font-size="12" lengthAdjust="spacing" textLength="83.0215" x="599.75" y="1121.7455">choice &#183; 175w</text></g><g class="entity" data-qualified-name="n_end_library" id="ent0019"><rect fill="#E0E0E0" height="64.2344" rx="4" ry="4" style="stroke:#181818;stroke-width:0.5;" width="155.2461" x="160.64" y="803.59"/><line style="stroke:#181818;stroke-width:0.5;" x1="160.64" x2="315.8861" y1="829.8869" y2="829.8869"/><text fill="#000000" font-family="'Roboto'" font-size="14" lengthAdjust="spacing" textLength="94.2881" x="191.119" y="821.5851">n_end_library</text><text fill="#000000" font-family="'Roboto'" font-size="12" lengthAdjust="spacing" textLength="113.7598" x="165.64" y="846.0255">discovery (neutral)</text><text fill="#000000" font-family="'Roboto'" font-size="12" lengthAdjust="spacing" textLength="135.2461" x="165.64" y="859.9943">"Lost in the Logbooks"</text></g><g class="entity" data-qualified-name="n_end_giveup" id="ent0020"><rect fill="#FFCDD2" height="64.2344" rx="4" ry="4" style="stroke:#181818;stroke-width:0.5;" width="132.5176" x="7" y="978.09"/><line style="stroke:#181818;stroke-width:0.5;" x1="7" x2="139.5176" y1="1004.3869" y2="1004.3869"/><text fill="#000000" font-family="'Roboto'" font-size="14" lengthAdjust="spacing" textLength="96.6807" x="24.9185" y="996.0851">n_end_giveup</text><text fill="#000000" font-family="'Roboto'" font-size="12" lengthAdjust="spacing" textLength="112.5176" x="12" y="1020.5255">setback (negative)</text><text fill="#000000" font-family="'Roboto'" font-size="12" lengthAdjust="spacing" textLength="68.8418" x="12" y="1034.4943">"Too Risky"</text></g><g class="entity" data-qualified-name="n_end_timeout" id="ent0021"><rect fill="#FFCDD2" height="64.2344" rx="4" ry="4" style="stroke:#181818;stroke-width:0.5;" width="132.5176" x="1449" y="1166.56"/><line style="stroke:#181818;stroke-width:0.5;" x1="1449" x2="1581.5176" y1="1192.8569" y2="1192.8569"/><text fill="#000000" font-family="'Roboto'" font-size="14" lengthAdjust="spacing" textLength="103.8037" x="1463.3569" y="1184.5551">n_end_timeout</text><text fill="#000000" font-family="'Roboto'" font-size="12" lengthAdjust="spacing" textLength="112.5176" x="1454" y="1208.9955">setback (negative)</text><text fill="#000000" font-family="'Roboto'" font-size="12" lengthAdjust="spacing" textLength="81.7266" x="1454" y="1222.9643">"Out of Time"</text></g><g class="entity" data-qualified-name="n_end_stuck" id="ent0022"><rect fill="#FFCDD2" height="64.2344" rx="4" ry="4" style="stroke:#181818;stroke-width:0.5;" width="179.0586" x="1242.73" y="1166.56"/><line style="stroke:#181818;stroke-width:0.5;" x1="1242.73" x2="1421.7886" y1="1192.8569" y2="1192.8569"/><text fill="#000000" font-family="'Roboto'" font-size="14" lengthAdjust="spacing" textLength="86.707" x="1288.9058" y="1184.5551">n_end_stuck</text><text fill="#000000" font-family="'Roboto'" font-size="12" lengthAdjust="spacing" textLength="112.5176" x="1247.73" y="1208.9955">setback (negative)</text><text fill="#000000" font-family="'Roboto'" font-size="12" lengthAdjust="spacing" textLength="159.0586" x="1247.73" y="1222.9643">"Locked Out for the Night"</text></g><g class="entity" data-qualified-name="n_end_secret" id="ent0023"><rect fill="#C8E6C9" height="64.2344" rx="4" ry="4" style="stroke:#181818;stroke-width:0.5;" width="163.4727" x="336.52" y="1072.33"/><line style="stroke:#181818;stroke-width:0.5;" x1="336.52" x2="499.9927" y1="1098.6269" y2="1098.6269"/><text fill="#000000" font-family="'Roboto'" font-size="14" lengthAdjust="spacing" textLength="92.709" x="371.9018" y="1090.3251">n_end_secret</text><text fill="#000000" font-family="'Roboto'" font-size="12" lengthAdjust="spacing" textLength="107.1855" x="341.52" y="1114.7655">success (positive)</text><text fill="#000000" font-family="'Roboto'" font-size="12" lengthAdjust="spacing" textLength="143.4727" x="341.52" y="1128.7343">"The Hidden Workshop"</text></g><g class="entity" data-qualified-name="n_end_hero" id="ent0024"><rect fill="#C8E6C9" height="64.2344" rx="4" ry="4" style="stroke:#181818;stroke-width:0.5;" width="156.1309" x="541.19" y="1260.8"/><line style="stroke:#181818;stroke-width:0.5;" x1="541.19" x2="697.3209" y1="1287.0969" y2="1287.0969"/><text fill="#000000" font-family="'Roboto'" font-size="14" lengthAdjust="spacing" textLength="81.0537" x="578.7286" y="1278.7951">n_end_hero</text><text fill="#000000" font-family="'Roboto'" font-size="12" lengthAdjust="spacing" textLength="127.1953" x="546.19" y="1303.2355">completion (positive)</text><text fill="#000000" font-family="'Roboto'" font-size="12" lengthAdjust="spacing" textLength="136.1309" x="546.19" y="1317.2043">"The Cipher Revealed"</text></g><g class="entity" data-qualified-name="n_end_keepsake" id="ent0025"><rect fill="#C8E6C9" height="64.2344" rx="4" ry="4" style="stroke:#181818;stroke-width:0.5;" width="136.0605" x="806.23" y="1260.8"/><line style="stroke:#181818;stroke-width:0.5;" x1="806.23" x2="942.2905" y1="1287.0969" y2="1287.0969"/><text fill="#000000" font-family="'Roboto'" font-size="14" lengthAdjust="spacing" textLength="116.0605" x="816.23" y="1278.7951">n_end_keepsake</text><text fill="#000000" font-family="'Roboto'" font-size="12" lengthAdjust="spacing" textLength="107.1855" x="811.23" y="1303.2355">success (positive)</text><text fill="#000000" font-family="'Roboto'" font-size="12" lengthAdjust="spacing" textLength="93.0703" x="811.23" y="1317.2043">"A Secret Kept"</text></g><g class="entity" data-qualified-name="n_end_caught" id="ent0026"><rect fill="#FFCDD2" height="64.2344" rx="4" ry="4" style="stroke:#181818;stroke-width:0.5;" width="152.3867" x="346.07" y="1260.8"/><line style="stroke:#181818;stroke-width:0.5;" x1="346.07" x2="498.4567" y1="1287.0969" y2="1287.0969"/><text fill="#000000" font-family="'Roboto'" font-size="14" lengthAdjust="spacing" textLength="97.6445" x="373.4411" y="1278.7951">n_end_caught</text><text fill="#000000" font-family="'Roboto'" font-size="12" lengthAdjust="spacing" textLength="112.5176" x="351.07" y="1303.2355">setback (negative)</text><text fill="#000000" font-family="'Roboto'" font-size="12" lengthAdjust="spacing" textLength="132.3867" x="351.07" y="1317.2043">"Caught Red-Handed"</text></g><g class="start_entity" data-qualified-name=".start." data-source-line="8" id="ent0002"><ellipse cx="832.26" cy="16" fill="#222222" rx="10" ry="10" style="stroke:#222222;stroke-width:1;"/></g><g class="end_entity" data-qualified-name=".end." data-source-line="101" id="ent0038"><ellipse cx="544.26" cy="1397.03" fill="none" rx="11" ry="11" style="stroke:#222222;stroke-width:1;"/><ellipse cx="544.26" cy="1397.03" fill="#222222" rx="6" ry="6" style="stroke:#222222;stroke-width:1;"/></g><!--link *start* to n_start--><g class="link" data-entity-1="ent0002" data-entity-2="ent0002" data-link-type="dependency" data-source-line="8" id="lnk3"><path d="M832.26,26.37 C832.26,40.32 832.26,61.02 832.26,80.74" fill="none" id="*start*-to-n_start" style="stroke:#181818;stroke-width:1;"/><polygon fill="#181818" points="832.26,86.74,836.26,77.74,832.26,81.74,828.26,77.74,832.26,86.74" style="stroke:#181818;stroke-width:1;"/></g><!--link n_start to n_note--><g class="link" data-entity-1="ent0002" data-entity-2="ent0003" data-link-type="dependency" data-source-line="67" id="lnk4"><path d="M783.05,115.05 C722.88,118.97 619.07,130.9 538.26,167.26 C513.21,178.54 493.3314,194.064 476.1514,209.824" fill="none" id="n_start-to-n_note" style="stroke:#181818;stroke-width:1;"/><polygon fill="#181818" points="471.73,213.88,481.0661,210.7437,475.4145,210.5,475.6582,204.8484,471.73,213.88" style="stroke:#181818;stroke-width:1;"/><text fill="#000000" font-family="'Roboto'" font-size="13" lengthAdjust="spacing" textLength="284.1084" x="539.26" y="180.3269">Examine the cipher note pinned to the do...</text></g><!--link n_start to n_door--><g class="link" data-entity-1="ent0002" data-entity-2="ent0004" data-link-type="dependency" data-source-line="68" id="lnk5"><path d="M832.26,137.58 C832.26,159.65 832.26,185.96 832.26,208.01" fill="none" id="n_start-to-n_door" style="stroke:#181818;stroke-width:1;"/><polygon fill="#181818" points="832.26,214.01,836.26,205.01,832.26,209.01,828.26,205.01,832.26,214.01" style="stroke:#181818;stroke-width:1;"/><text fill="#000000" font-family="'Roboto'" font-size="13" lengthAdjust="spacing" textLength="254.1348" x="833.26" y="180.3269">Search the building for another way in.</text></g><!--link n_start to n_keeper--><g class="link" data-entity-1="ent0002" data-entity-2="ent0005" data-link-type="dependency" data-source-line="69" id="lnk6"><path d="M881.55,114.44 C937.01,117.83 1028.23,129.32 1096.26,167.26 C1116.56,178.59 1130.6609,193.4049 1142.7809,209.1549" fill="none" id="n_start-to-n_keeper" style="stroke:#181818;stroke-width:1;"/><polygon fill="#181818" points="1146.44,213.91,1144.1213,204.338,1143.3907,209.9474,1137.7812,209.2168,1146.44,213.91" style="stroke:#181818;stroke-width:1;"/><text fill="#000000" font-family="'Roboto'" font-size="13" lengthAdjust="spacing" textLength="273.0127" x="1118.79" y="180.3269">Find the old clockkeeper and ask for hel...</text></g><!--link n_note to n_keyhunt--><g class="link" data-entity-1="ent0003" data-entity-2="ent0006" data-link-type="dependency" data-source-line="70" id="lnk7"><path d="M440.02,264.98 C437.21,279.44 436.32,297.56 444.26,311.53 C453.53,327.83 464.5312,336.9724 480.8212,345.4024" fill="none" id="n_note-to-n_keyhunt" style="stroke:#181818;stroke-width:1;"/><polygon fill="#181818" points="486.15,348.16,479.9953,340.4711,481.7094,345.862,476.3185,347.5761,486.15,348.16" style="stroke:#181818;stroke-width:1;"/><text fill="#000000" font-family="'Roboto'" font-size="13" lengthAdjust="spacing" textLength="269.2231" x="445.26" y="307.5969">Follow the clue to hunt for the hidden k...</text></g><!--link n_note to n_inside--><g class="link" data-entity-1="ent0003" data-entity-2="ent0009" data-link-type="dependency" data-source-line="71" id="lnk8"><path d="M398.42,251.05 C314.97,271.46 159.19,320.47 216.26,391.8 C288.99,482.7 657.41,492.6471 796.32,493.1771" fill="none" id="n_note-to-n_inside" style="stroke:#181818;stroke-width:1;"/><polygon fill="#181818" points="802.32,493.2,793.3353,489.1657,797.32,493.1809,793.3048,497.1656,802.32,493.2" style="stroke:#181818;stroke-width:1;"/><text fill="#000000" font-family="'Roboto'" font-size="13" lengthAdjust="spacing" textLength="251.3862" x="217.26" y="371.2269">Try the loose grate the note mentions.</text></g><!--link n_door to n_inside--><g class="link" data-entity-1="ent0004" data-entity-2="ent0009" data-link-type="dependency" data-source-line="72" id="lnk9"><path d="M806.65,264.82 C778.95,294.35 741.05,345.81 759.26,391.8 C771.59,422.93 793.923,446.2382 815.973,464.5382" fill="none" id="n_door-to-n_inside" style="stroke:#181818;stroke-width:1;"/><polygon fill="#181818" points="820.59,468.37,816.219,459.5442,816.7425,465.1768,811.1099,465.7003,820.59,468.37" style="stroke:#181818;stroke-width:1;"/><text fill="#000000" font-family="'Roboto'" font-size="13" lengthAdjust="spacing" textLength="217.2358" x="760.26" y="371.2269">Shoulder the stiff side door open.</text></g><!--link n_door to n_window--><g class="link" data-entity-1="ent0004" data-entity-2="ent0008" data-link-type="dependency" data-source-line="73" id="lnk10"><path d="M870.08,265.02 C891.87,279 919.87,296.62 945.26,311.53 C962.32,321.55 976.0558,329.2295 992.8158,338.3195" fill="none" id="n_door-to-n_window" style="stroke:#181818;stroke-width:1;"/><polygon fill="#181818" points="998.09,341.18,992.0857,333.3731,993.6948,338.7962,988.2717,340.4053,998.09,341.18" style="stroke:#181818;stroke-width:1;"/><text fill="#000000" font-family="'Roboto'" font-size="13" lengthAdjust="spacing" textLength="190.5503" x="946.26" y="307.5969">Climb up to the high window.</text></g><!--link n_keeper to n_inside--><g class="link" data-entity-1="ent0005" data-entity-2="ent0009" data-link-type="dependency" data-source-line="74" id="lnk11"><path d="M1168.65,264.86 C1176.26,306.45 1184.67,391.08 1140.26,438.8 C1109.19,472.18 985.7368,485.0025 912.0968,489.8925" fill="none" id="n_keeper-to-n_inside" style="stroke:#181818;stroke-width:1;"/><polygon fill="#181818" points="906.11,490.29,915.3553,493.6849,911.099,489.9587,914.8252,485.7025,906.11,490.29" style="stroke:#181818;stroke-width:1;"/><text fill="#000000" font-family="'Roboto'" font-size="13" lengthAdjust="spacing" textLength="171.209" x="1175.34" y="371.2269">Go inside with the keeper.</text></g><!--link n_keeper to n_keeper_story--><g class="link" data-entity-1="ent0005" data-entity-2="ent0007" data-link-type="dependency" data-source-line="75" id="lnk12"><path d="M1212.33,263.08 C1260.08,285.15 1326.9337,316.0525 1375.9337,338.7025" fill="none" id="n_keeper-to-n_keeper_story" style="stroke:#181818;stroke-width:1;"/><polygon fill="#181818" points="1381.38,341.22,1374.8889,333.8129,1376.8414,339.1221,1371.5322,341.0746,1381.38,341.22" style="stroke:#181818;stroke-width:1;"/><text fill="#000000" font-family="'Roboto'" font-size="13" lengthAdjust="spacing" textLength="161.4209" x="1315.98" y="307.5969">Ask who built the cipher.</text></g><!--link n_keyhunt to n_inside--><g class="link" data-entity-1="ent0006" data-entity-2="ent0009" data-link-type="dependency" data-source-line="76" id="lnk13"><path d="M486.25,383.17 C453.31,396.1 419.28,416.04 439.26,438.8 C462.9,465.72 690.5018,482.9142 796.4718,489.5642" fill="none" id="n_keyhunt-to-n_inside" style="stroke:#181818;stroke-width:1;"/><polygon fill="#181818" points="802.46,489.94,793.7282,485.3842,797.4698,489.6268,793.2271,493.3685,802.46,489.94" style="stroke:#181818;stroke-width:1;"/><text fill="#000000" font-family="'Roboto'" font-size="13" lengthAdjust="spacing" textLength="274.6123" x="440.26" y="434.8669">Unlock the front door with the brass key...</text></g><!--link n_keeper_story to n_inside--><g class="link" data-entity-1="ent0007" data-entity-2="ent0009" data-link-type="dependency" data-source-line="77" id="lnk14"><path d="M1370.34,388.55 C1321.22,404.03 1251.48,424.79 1189.26,438.8 C1089.97,461.14 978.09,477.2072 911.95,485.7972" fill="none" id="n_keeper_story-to-n_inside" style="stroke:#181818;stroke-width:1;"/><polygon fill="#181818" points="906,486.57,915.4402,489.3775,910.9584,485.926,914.4099,481.4442,906,486.57" style="stroke:#181818;stroke-width:1;"/><text fill="#000000" font-family="'Roboto'" font-size="13" lengthAdjust="spacing" textLength="266.1128" x="1258.22" y="434.8669">Head inside with what you have learned.</text></g><!--link n_window to n_inside--><g class="link" data-entity-1="ent0008" data-entity-2="ent0009" data-link-type="dependency" data-source-line="78" id="lnk15"><path d="M1007.17,392.11 C973.8,414.11 930.0295,442.9778 896.5795,465.0278" fill="none" id="n_window-to-n_inside" style="stroke:#181818;stroke-width:1;"/><polygon fill="#181818" points="891.57,468.33,901.2858,466.7163,895.7446,465.5781,896.8828,460.037,891.57,468.33" style="stroke:#181818;stroke-width:1;"/><text fill="#000000" font-family="'Roboto'" font-size="13" lengthAdjust="spacing" textLength="170.5615" x="961.63" y="434.8669">Drop down into the tower.</text></g><!--link n_inside to n_stairs--><g class="link" data-entity-1="ent0009" data-entity-2="ent0010" data-link-type="dependency" data-source-line="79" id="lnk16"><path d="M906.07,500.92 C964.08,508.5 1060.43,523.71 1140.26,549.06 C1178.56,561.22 1214.4916,577.6406 1244.9616,592.9906" fill="none" id="n_inside-to-n_stairs" style="stroke:#181818;stroke-width:1;"/><polygon fill="#181818" points="1250.32,595.69,1244.082,588.0685,1245.8546,593.4405,1240.4827,595.2131,1250.32,595.69" style="stroke:#181818;stroke-width:1;"/><text fill="#000000" font-family="'Roboto'" font-size="13" lengthAdjust="spacing" textLength="139.4326" x="1185.37" y="562.1269">Climb the spiral stair.</text></g><!--link n_inside to n_study--><g class="link" data-entity-1="ent0009" data-entity-2="ent0011" data-link-type="dependency" data-source-line="80" id="lnk17"><path d="M802.49,511.08 C780.57,519.78 755.85,532.24 737.26,549.06 C723.11,561.86 714.8956,575.1362 707.7956,590.1462" fill="none" id="n_inside-to-n_study" style="stroke:#181818;stroke-width:1;"/><polygon fill="#181818" points="705.23,595.57,712.6942,589.1446,707.368,591.0501,705.4625,585.7239,705.23,595.57" style="stroke:#181818;stroke-width:1;"/><text fill="#000000" font-family="'Roboto'" font-size="13" lengthAdjust="spacing" textLength="193.8765" x="738.26" y="562.1269">Open the clockmaker's study.</text></g><!--link n_inside to n_pendulum--><g class="link" data-entity-1="ent0009" data-entity-2="ent0012" data-link-type="dependency" data-source-line="81" id="lnk18"><path d="M802.28,503.07 C736.39,513.46 619.31,532.1 519.26,549.06 C394.65,570.18 254.4535,595.4181 177.6235,609.3681" fill="none" id="n_inside-to-n_pendulum" style="stroke:#181818;stroke-width:1;"/><polygon fill="#181818" points="171.72,610.44,181.2898,612.7678,176.6396,609.5468,179.8606,604.8965,171.72,610.44" style="stroke:#181818;stroke-width:1;"/><text fill="#000000" font-family="'Roboto'" font-size="13" lengthAdjust="spacing" textLength="193.1909" x="520.26" y="562.1269">Edge along the pendulum pit.</text></g><!--link n_inside to n_basement--><g class="link" data-entity-1="ent0009" data-entity-2="ent0013" data-link-type="dependency" data-source-line="82" id="lnk19"><path d="M898.36,519.36 C912.34,527.96 927.48,538.21 940.26,549.06 C956.73,563.05 969.0556,576.694 980.8656,591.224" fill="none" id="n_inside-to-n_basement" style="stroke:#181818;stroke-width:1;"/><polygon fill="#181818" points="984.65,595.88,982.0774,586.3731,981.4963,592,975.8694,591.4189,984.65,595.88" style="stroke:#181818;stroke-width:1;"/><text fill="#000000" font-family="'Roboto'" font-size="13" lengthAdjust="spacing" textLength="173.1387" x="958.34" y="562.1269">Go down to the basement.</text></g><!--link n_stairs to n_clockface--><g class="link" data-entity-1="ent0010" data-entity-2="ent0014" data-link-type="dependency" data-source-line="83" id="lnk20"><path d="M1293.21,646.56 C1289.86,662.47 1282.86,682.28 1268.26,693.33 C1229.73,722.48 912.754,739.3626 784.984,745.0626" fill="none" id="n_stairs-to-n_clockface" style="stroke:#181818;stroke-width:1;"/><polygon fill="#181818" points="778.99,745.33,788.1593,748.9249,783.985,745.1072,787.8028,740.9329,778.99,745.33" style="stroke:#181818;stroke-width:1;"/><text fill="#000000" font-family="'Roboto'" font-size="13" lengthAdjust="spacing" textLength="208.6221" x="1282.57" y="689.3969">Climb up to the great clockface.</text></g><!--link n_study to n_clockface--><g class="link" data-entity-1="ent0011" data-entity-2="ent0014" data-link-type="dependency" data-source-line="84" id="lnk21"><path d="M690.36,646.71 C688.52,660.65 687.82,678.27 692.26,693.33 C695.36,703.85 697.8287,709.2904 703.8787,718.1204" fill="none" id="n_study-to-n_clockface" style="stroke:#181818;stroke-width:1;"/><polygon fill="#181818" points="707.27,723.07,705.4828,713.3847,704.4439,718.9453,698.8833,717.9064,707.27,723.07" style="stroke:#181818;stroke-width:1;"/><text fill="#000000" font-family="'Roboto'" font-size="13" lengthAdjust="spacing" textLength="277.1196" x="693.26" y="689.3969">Take the cipher wheel up to the clockfac...</text></g><!--link n_study to n_end_library--><g class="link" data-entity-1="ent0011" data-entity-2="ent0019" data-link-type="dependency" data-source-line="85" id="lnk22"><path d="M646.37,621.97 C588.59,623.83 491.44,633.78 421.26,676.33 C373.87,705.05 385.25,737.43 343.26,773.59 C330.55,784.54 320.7699,791.5181 306.2099,800.1581" fill="none" id="n_study-to-n_end_library" style="stroke:#181818;stroke-width:1;"/><polygon fill="#181818" points="301.05,803.22,310.8311,802.0671,305.3499,800.6684,306.7486,795.1872,301.05,803.22" style="stroke:#181818;stroke-width:1;"/><text fill="#000000" font-family="'Roboto'" font-size="13" lengthAdjust="spacing" textLength="258.9146" x="422.26" y="689.3969">Stay and read the fascinating logbooks.</text></g><!--link n_pendulum to n_clockface--><g class="link" data-entity-1="ent0012" data-entity-2="ent0014" data-link-type="dependency" data-source-line="86" id="lnk23"><path d="M109.33,646.6 C105.44,661.91 103.99,681.02 115.26,693.33 C124.7,703.64 523.5252,732.9628 669.4852,743.3828" fill="none" id="n_pendulum-to-n_clockface" style="stroke:#181818;stroke-width:1;"/><polygon fill="#181818" points="675.47,743.81,666.7777,739.1793,670.4827,743.454,666.208,747.159,675.47,743.81" style="stroke:#181818;stroke-width:1;"/><text fill="#000000" font-family="'Roboto'" font-size="13" lengthAdjust="spacing" textLength="235.1743" x="116.26" y="689.3969">Cross carefully and grab the oil can.</text></g><!--link n_pendulum to n_end_giveup--><g class="link" data-entity-1="ent0012" data-entity-2="ent0020" data-link-type="dependency" data-source-line="87" id="lnk24"><path d="M99.26,646.75 C85.42,666.29 67.81,694.97 60.26,723.33 C36.34,813.1 53.0452,918.4027 64.4652,971.8027" fill="none" id="n_pendulum-to-n_end_giveup" style="stroke:#181818;stroke-width:1;"/><polygon fill="#181818" points="65.72,977.67,67.7494,968.0325,64.6744,972.7806,59.9263,969.7055,65.72,977.67" style="stroke:#181818;stroke-width:1;"/><text fill="#000000" font-family="'Roboto'" font-size="13" lengthAdjust="spacing" textLength="273.5649" x="61.26" y="753.0269">Decide the ledge is too risky and back o...</text></g><!--link n_basement to n_clockface--><g class="link" data-entity-1="ent0013" data-entity-2="ent0014" data-link-type="dependency" data-source-line="88" id="lnk25"><path d="M999.63,646.72 C996.04,662.28 989,681.63 975.26,693.33 C946.19,718.08 848.8357,733.3922 785.0857,741.1822" fill="none" id="n_basement-to-n_clockface" style="stroke:#181818;stroke-width:1;"/><polygon fill="#181818" points="779.13,741.91,788.5487,744.7888,784.0931,741.3035,787.5784,736.8479,779.13,741.91" style="stroke:#181818;stroke-width:1;"/><text fill="#000000" font-family="'Roboto'" font-size="13" lengthAdjust="spacing" textLength="270.9243" x="989.1" y="689.3969">Take the service ladder up to the clockf...</text></g><!--link n_clockface to n_setcorrect--><g class="link" data-entity-1="ent0014" data-entity-2="ent0015" data-link-type="dependency" data-source-line="89" id="lnk26"><path d="M675.35,755.9 C629.38,763.06 561.37,777.25 507.26,803.59 C457.54,827.8 413.1418,866.2284 385.0218,893.1784" fill="none" id="n_clockface-to-n_setcorrect" style="stroke:#181818;stroke-width:1;"/><polygon fill="#181818" points="380.69,897.33,389.9554,893.9905,384.2998,893.8704,384.42,888.2148,380.69,897.33" style="stroke:#181818;stroke-width:1;"/><text fill="#000000" font-family="'Roboto'" font-size="13" lengthAdjust="spacing" textLength="203.9883" x="508.26" y="840.2769">Set the hands using the cipher.</text></g><!--link n_clockface to n_setjam--><g class="link" data-entity-1="ent0014" data-entity-2="ent0016" data-link-type="dependency" data-source-line="90" id="lnk27"><path d="M779.19,753.97 C846.94,760.85 960.46,776.18 991.26,803.59 C1018.25,827.62 1026.0543,864.6967 1028.6143,891.7267" fill="none" id="n_clockface-to-n_setjam" style="stroke:#181818;stroke-width:1;"/><polygon fill="#181818" points="1029.18,897.7,1032.3136,888.3629,1028.7086,892.7223,1024.3492,889.1172,1029.18,897.7" style="stroke:#181818;stroke-width:1;"/><text fill="#000000" font-family="'Roboto'" font-size="13" lengthAdjust="spacing" textLength="202.8267" x="1025.39" y="840.2769">Force the hands by guesswork.</text></g><!--link n_clockface to n_backpanel--><g class="link" data-entity-1="ent0014" data-entity-2="ent0017" data-link-type="dependency" data-source-line="91" id="lnk28"><path d="M723.97,773.93 C722.87,783.21 721.8,793.87 721.26,803.59 C719.47,836.02 720.6649,867.5211 722.1249,891.4711" fill="none" id="n_clockface-to-n_backpanel" style="stroke:#181818;stroke-width:1;"/><polygon fill="#181818" points="722.49,897.46,725.935,888.2333,722.1858,892.4693,717.9498,888.7201,722.49,897.46" style="stroke:#181818;stroke-width:1;"/><text fill="#000000" font-family="'Roboto'" font-size="13" lengthAdjust="spacing" textLength="264.4243" x="722.26" y="840.2769">Search for a back panel behind the face.</text></g><!--link n_clockface to n_end_timeout--><g class="link" data-entity-1="ent0014" data-entity-2="ent0021" data-link-type="dependency" data-source-line="92" id="lnk29"><path d="M778.87,751.99 C890.82,757.96 1152.6,774.63 1236.26,803.59 C1374.11,851.31 1443.37,850.59 1514.26,978.09 C1547.42,1037.73 1536.075,1115.492 1525.425,1160.382" fill="none" id="n_clockface-to-n_end_timeout" style="stroke:#181818;stroke-width:1;"/><polygon fill="#181818" points="1524.04,1166.22,1530.0095,1158.3864,1525.1942,1161.355,1522.2256,1156.5397,1524.04,1166.22" style="stroke:#181818;stroke-width:1;"/><text fill="#000000" font-family="'Roboto'" font-size="13" lengthAdjust="spacing" textLength="238.4688" x="1495.91" y="927.5269">Spin the hands at random and hope.</text></g><!--link n_setcorrect to n_vault--><g class="link" data-entity-1="ent0015" data-entity-2="ent0018" data-link-type="dependency" data-source-line="93" id="lnk30"><path d="M302.44,931.33 C273.8,938.29 240.93,951.82 223.26,978.09 C207.32,1001.78 204.12,1021.14 223.26,1042.33 C267.28,1091.06 452.52,1061.27 517.26,1072.33 C542.92,1076.71 565.2464,1081.8062 588.6764,1087.7862" fill="none" id="n_setcorrect-to-n_vault" style="stroke:#181818;stroke-width:1;"/><polygon fill="#181818" points="594.49,1089.27,586.7588,1083.1685,589.6453,1088.0335,584.7803,1090.92,594.49,1089.27" style="stroke:#181818;stroke-width:1;"/><text fill="#000000" font-family="'Roboto'" font-size="13" lengthAdjust="spacing" textLength="168.6191" x="224.26" y="1014.7769">Step through to the vault.</text></g><!--link n_setjam to n_vault--><g class="link" data-entity-1="ent0016" data-entity-2="ent0018" data-link-type="dependency" data-source-line="94" id="lnk31"><path d="M1011.96,948.52 C987.27,981.36 945.25,1036.18 935.26,1042.33 C861.44,1087.73 765.1329,1099.5273 704.1229,1102.5073" fill="none" id="n_setjam-to-n_vault" style="stroke:#181818;stroke-width:1;"/><polygon fill="#181818" points="698.13,1102.8,707.3144,1106.3562,703.124,1102.5561,706.9241,1098.3657,698.13,1102.8" style="stroke:#181818;stroke-width:1;"/><text fill="#000000" font-family="'Roboto'" font-size="13" lengthAdjust="spacing" textLength="260.146" x="989.15" y="1014.7769">Free the jammed gears with the oil can.</text></g><!--link n_setjam to n_end_stuck--><g class="link" data-entity-1="ent0016" data-entity-2="ent0022" data-link-type="dependency" data-source-line="95" id="lnk32"><path d="M1082.31,930.49 C1141.11,938.85 1231.93,955.06 1257.26,978.09 C1285.5,1003.77 1311.6969,1105.9 1324.0869,1160.27" fill="none" id="n_setjam-to-n_end_stuck" style="stroke:#181818;stroke-width:1;"/><polygon fill="#181818" points="1325.42,1166.12,1327.3203,1156.4562,1324.3091,1161.245,1319.5203,1158.2337,1325.42,1166.12" style="stroke:#181818;stroke-width:1;"/><text fill="#000000" font-family="'Roboto'" font-size="13" lengthAdjust="spacing" textLength="215.9092" x="1291.28" y="1014.7769">Give up; the gears will not move.</text></g><!--link n_backpanel to n_vault--><g class="link" data-entity-1="ent0017" data-entity-2="ent0018" data-link-type="dependency" data-source-line="96" id="lnk33"><path d="M728.45,948.49 C731.52,973.47 732.93,1012.63 718.26,1042.33 C711.07,1056.88 703.3955,1065.6228 690.8955,1075.4028" fill="none" id="n_backpanel-to-n_vault" style="stroke:#181818;stroke-width:1;"/><polygon fill="#181818" points="686.17,1079.1,695.7231,1076.7045,690.1079,1076.019,690.7934,1070.4038,686.17,1079.1" style="stroke:#181818;stroke-width:1;"/><text fill="#000000" font-family="'Roboto'" font-size="13" lengthAdjust="spacing" textLength="195.7617" x="731.45" y="1014.7769">Open the panel into the vault.</text></g><!--link n_backpanel to n_end_secret--><g class="link" data-entity-1="ent0017" data-entity-2="ent0023" data-link-type="dependency" data-source-line="97" id="lnk34"><path d="M670.04,926.28 C593.83,930.75 460.8,943.44 429.26,978.09 C406.47,1003.13 406.3644,1037.8642 410.5244,1066.0642" fill="none" id="n_backpanel-to-n_end_secret" style="stroke:#181818;stroke-width:1;"/><polygon fill="#181818" points="411.4,1072,414.0437,1062.5126,410.6703,1067.0535,406.1294,1063.6801,411.4,1072" style="stroke:#181818;stroke-width:1;"/><text fill="#000000" font-family="'Roboto'" font-size="13" lengthAdjust="spacing" textLength="279.3223" x="430.26" y="1014.7769">Slip into the clockmaker's hidden worksh...</text></g><!--link n_vault to n_end_hero--><g class="link" data-entity-1="ent0018" data-entity-2="ent0024" data-link-type="dependency" data-source-line="98" id="lnk35"><path d="M636.05,1129.99 C631.94,1140.98 627.62,1154.22 625.26,1166.56 C619.21,1198.12 618.0977,1228.9301 618.2777,1254.4601" fill="none" id="n_vault-to-n_end_hero" style="stroke:#181818;stroke-width:1;"/><polygon fill="#181818" points="618.32,1260.46,622.2564,1251.432,618.2847,1255.4601,614.2566,1251.4884,618.32,1260.46" style="stroke:#181818;stroke-width:1;"/><text fill="#000000" font-family="'Roboto'" font-size="13" lengthAdjust="spacing" textLength="278.3638" x="626.26" y="1203.2469">Decode the final message and bring it to...</text></g><!--link n_vault to n_end_keepsake--><g class="link" data-entity-1="ent0018" data-entity-2="ent0025" data-link-type="dependency" data-source-line="99" id="lnk36"><path d="M697.98,1109.97 C766.95,1117.2 883.38,1133.98 909.26,1166.56 C930.76,1193.63 917.2133,1228.0154 900.2933,1255.4054" fill="none" id="n_vault-to-n_end_keepsake" style="stroke:#181818;stroke-width:1;"/><polygon fill="#181818" points="897.14,1260.51,905.273,1254.9554,899.7678,1256.2562,898.4669,1250.7509,897.14,1260.51" style="stroke:#181818;stroke-width:1;"/><text fill="#000000" font-family="'Roboto'" font-size="13" lengthAdjust="spacing" textLength="287.606" x="920.43" y="1203.2469">Keep the clockmaker's secret among frien...</text></g><!--link n_vault to n_end_caught--><g class="link" data-entity-1="ent0018" data-entity-2="ent0026" data-link-type="dependency" data-source-line="100" id="lnk37"><path d="M594.3,1118.61 C570.83,1124.39 542.71,1131.09 517.26,1136.56 C482.1,1144.11 381.21,1138.88 358.26,1166.56 C340.04,1188.54 347.03,1204.55 358.26,1230.8 C362.97,1241.81 366.5074,1247.5474 375.0574,1256.0974" fill="none" id="n_vault-to-n_end_caught" style="stroke:#181818;stroke-width:1;"/><polygon fill="#181818" points="379.3,1260.34,375.7645,1251.1476,375.7645,1256.8045,370.1076,1256.8045,379.3,1260.34" style="stroke:#181818;stroke-width:1;"/><text fill="#000000" font-family="'Roboto'" font-size="13" lengthAdjust="spacing" textLength="251.729" x="359.26" y="1203.2469">Stuff the treasure in your bag and run.</text></g><!--link n_end_library to *end*--><g class="link" data-entity-1="ent0019" data-entity-2="ent0038" data-link-type="dependency" data-source-line="101" id="lnk39"><path d="M216.88,868.22 C196.29,901.68 168.26,956.85 168.26,1009.21 C168.26,1009.21 168.26,1009.21 168.26,1293.91 C168.26,1371.53 464.4489,1391.7225 527.0189,1395.1425" fill="none" id="n_end_library-to-*end*" style="stroke:#181818;stroke-width:1;"/><polygon fill="#181818" points="533.01,1395.47,524.2417,1390.9848,528.0175,1395.1971,523.8051,1398.9728,533.01,1395.47" style="stroke:#181818;stroke-width:1;"/></g><!--link n_end_giveup to *end*--><g class="link" data-entity-1="ent0020" data-entity-2="ent0038" data-link-type="dependency" data-source-line="102" id="lnk40"><path d="M68.61,1042.75 C60.48,1111.34 52.23,1274.45 142.26,1356.03 C172.08,1383.05 465.5129,1393.5823 527.1929,1395.5123" fill="none" id="n_end_giveup-to-*end*" style="stroke:#181818;stroke-width:1;"/><polygon fill="#181818" points="533.19,1395.7,524.3195,1391.4205,528.1924,1395.5436,524.0693,1399.4166,533.19,1395.7" style="stroke:#181818;stroke-width:1;"/></g><!--link n_end_timeout to *end*--><g class="link" data-entity-1="ent0021" data-entity-2="ent0038" data-link-type="dependency" data-source-line="103" id="lnk41"><path d="M1448.71,1227.48 C1445.53,1228.63 1442.37,1229.74 1439.26,1230.8 C1287.06,1282.28 1247.83,1293.66 1090.26,1325.03 C877.45,1367.4 618.72,1389.9611 561.48,1394.6411" fill="none" id="n_end_timeout-to-*end*" style="stroke:#181818;stroke-width:1;"/><polygon fill="#181818" points="555.5,1395.13,564.796,1398.3833,560.4834,1394.7226,564.1441,1390.4099,555.5,1395.13" style="stroke:#181818;stroke-width:1;"/></g><!--link n_end_stuck to *end*--><g class="link" data-entity-1="ent0022" data-entity-2="ent0038" data-link-type="dependency" data-source-line="104" id="lnk42"><path d="M1250.98,1231.16 C1176.34,1259.09 1062.19,1299.32 960.26,1325.03 C801.83,1364.98 609.7106,1388.5232 561.2806,1394.1032" fill="none" id="n_end_stuck-to-*end*" style="stroke:#181818;stroke-width:1;"/><polygon fill="#181818" points="555.32,1394.79,564.7187,1397.7336,560.2871,1394.2177,563.803,1389.7861,555.32,1394.79" style="stroke:#181818;stroke-width:1;"/></g><!--link n_end_secret to *end*--><g class="link" data-entity-1="ent0023" data-entity-2="ent0038" data-link-type="dependency" data-source-line="105" id="lnk43"><path d="M365.22,1136.92 C355.09,1145.3 345.66,1155.24 339.26,1166.56 C304.53,1228.03 286.86,1267.84 328.26,1325.03 C377.91,1393.62 490.001,1397.2187 526.981,1396.5487" fill="none" id="n_end_secret-to-*end*" style="stroke:#181818;stroke-width:1;"/><polygon fill="#181818" points="532.98,1396.44,523.909,1392.6037,527.9808,1396.5306,524.0539,1400.6024,532.98,1396.44" style="stroke:#181818;stroke-width:1;"/></g><!--link n_end_hero to *end*--><g class="link" data-entity-1="ent0024" data-entity-2="ent0038" data-link-type="dependency" data-source-line="106" id="lnk44"><path d="M596.14,1325.38 C580.31,1346.95 563.9817,1369.1742 554.0517,1382.6942" fill="none" id="n_end_hero-to-*end*" style="stroke:#181818;stroke-width:1;"/><polygon fill="#181818" points="550.5,1387.53,559.0515,1382.6441,553.4598,1383.5002,552.6037,1377.9084,550.5,1387.53" style="stroke:#181818;stroke-width:1;"/></g><!--link n_end_keepsake to *end*--><g class="link" data-entity-1="ent0025" data-entity-2="ent0038" data-link-type="dependency" data-source-line="107" id="lnk45"><path d="M805.88,1315.07 C723.95,1340.43 598.6721,1379.197 560.6521,1390.957" fill="none" id="n_end_keepsake-to-*end*" style="stroke:#181818;stroke-width:1;"/><polygon fill="#181818" points="554.92,1392.73,564.7001,1393.8919,559.6967,1391.2525,562.3361,1386.2491,554.92,1392.73" style="stroke:#181818;stroke-width:1;"/></g><!--link n_end_caught to *end*--><g class="link" data-entity-1="ent0026" data-entity-2="ent0038" data-link-type="dependency" data-source-line="108" id="lnk46"><path d="M459.86,1325.38 C486.74,1347.89 516.1803,1372.5174 531.5103,1385.3574" fill="none" id="n_end_caught-to-*end*" style="stroke:#181818;stroke-width:1;"/><polygon fill="#181818" points="536.11,1389.21,531.7788,1380.3646,532.2769,1385.9995,526.642,1386.4976,536.11,1389.21" style="stroke:#181818;stroke-width:1;"/></g><g class="legend" data-source-line="110"><rect fill="none" height="91.4844" rx="4" ry="4" style="stroke:#000000;stroke-width:1;" width="276.8066" x="1439.5721" y="1425.03"/><text fill="#000000" font-family="'Roboto'" font-size="14" lengthAdjust="spacing" textLength="158.6416" x="1444.5721" y="1443.0251">The Clocktower Cipher</text><text fill="#000000" font-family="'Roboto'" font-size="14" lengthAdjust="spacing" textLength="208.3389" x="1444.5721" y="1459.322">Band 10-13 &#183; Tier 1 &#183; ~18 min</text><text fill="#000000" font-family="'Roboto'" font-size="14" lengthAdjust="spacing" textLength="236.5918" x="1444.5721" y="1475.6189">Topology: branch_and_bottleneck</text><text fill="#000000" font-family="'Roboto'" font-size="14" lengthAdjust="spacing" textLength="241.5068" x="1444.5721" y="1491.9157">25 nodes &#183; 8 endings (3+ / 1n / 4-)</text><text fill="#000000" font-family="'Roboto'" font-size="14" lengthAdjust="spacing" textLength="266.8066" x="1444.5721" y="1508.2126">MVP/Test tier (not production-eligible)</text></g><?plantuml-src XLTVRzis47_Nfo2SXxORh3RziwKPCA1nuXPhrmvnjZqCGq1BPuapBGea5TSl-rfxtoVRZwGaYxAT8O0Z7kztnplUFpvXxwaYpItbRANLXfarIRAgOZyjldnconqpcHQrDSyrLJdf-sx_FXUyq7nZqdgN9a_OjMALienoOHsgv5N-0zCqrKt5R4ci26gKJXEp5bNDWMKvhNWZxLnLzZFV49lSggMoQZ9WMV9iNMZLLFbCIQNPsVoT-njmj9iQyjb5KegS66rgkuFqS7QXgYJvuvi_sNJw8wlkZUNQ9lYrrAtOsTNLzStyAkdMbyoGRMhsxp_i_FitsvuR9X8xkpwVlRvvcxJBIwQ54LLnm9mhTzwUsIzFCg-9QXgojuH70BkogMo429J_qG4JbTuTQ6h99y5RKULgEu2rX9C0KHbt5sVp-Vpjx7NI4ovPLYgHqG40_uKs0mqjuQG6Ovjy5_6xzKds6X7So6OpGFIaaw0bDxIXoCyzwIGeaofRhtWsj7vFE-q0ifdIcZBhS3Slhbuc4H50AJRywp7WNyY42EG89m4kgsfUaOpCwcWdxNfmsJgmAQnFsWFdtaknrDo5syqBzvV4r4kM2vEf1yBtqueQgxbyTi0p-QICPI8Kaa-gM2grDfD8JI4U2FcAeyskhryc4T4dixFEgIYu1VNPc6DofnIx5MQzY-LQiI7Ls97WZlg8v3tBv0l-gHMx0oKMZdW5D1OTQ8y8xXZWb6oDgksahr1Pd6y-YwAq8nsKQSBvPnSttytU9X4HMfei8sFOqreP4MdfE2PtaFj1v3bLx7UbrwPKTQoX9Ar6yZq9OQ4sDPe5wk-XWfR5Yv-96ajsIm_49UMnU5UT35_JI4LFViI80S_a7Li4apvIFN9HnXkuRNGFBV6HY-Wv9hFmTKlvz0FwdhEWQoIXvRHzukOhtuYA_5LbmMQ_KukgmarQvNTobQRfI43REnR4TLPwhcKZPEvorDqzXnWdRSjtI9CnkEyaSrHi3rOoPxuUjLiuDEDcxMML98D-VxHEGjTPvafA57rlWMp8dTdlT15OXaXP7uZeY_yTKjfnIgKCnW8tUlYrvtLb5U5YqgvVZi2BKZKIOuX762jMA-PtFAz2DHy1-nurGnrSCgHww-GIcSB2RhfljYDjxnLhlxV21hS7nWF8g8M-Wo-tfVANP0VNdGwwz4ZNhvMx3y-BEGpxtefUBqeX8XpOuDX8tqZI1-9vTEvjoItRgGP3sGFyZXX2jANx3Zx2NsjLG_ksWf3MMrPjm-5RfdwG2kqvEDTVIIrGmPdVES8VslCNt5CRGJ1vWmJLJmppkmUOGOE-oGjYN2h4l0FtExMm1x11YyObUcDQKxgTT3zV1CYmFu-ZfT045_OSQJzh74BlNBqP9FYs97JKlQYEjylnlPIuvoqiSjdbfNRNwSE2cqnKA45mW6oRO3gSOOxOeHMY9kEQLesKGHuoBjoL4X9RrH4HKMUyfipvrQSikIiG1hOeDoAiWqHV7jkYrJl-4SyOqWzkN90yTwayzaqGj4UsmJCSWnOKiigzCWnh_AmIPzaHU1Y8vafdD03ZhL8qw1vRzBPZmE5Kr9PVNt63rM5dIMLNMRlm68k9Hu95tGupuGo8BOqFlBwSEz5WGuJjBGuokcbhOGakA_7kGGrhNUVtqlta5oFcceBDsDgWqnGmnEoBoo0I8lXmt7YFUC1L_T0-vW9UIl_ess20IwC9CbRV9tpOxCjAV-WnC9f05bBKUqnKCzfki_LpIOYRe7Clffqp4CMgZU8LaaYYqnZ3NK5n0QnT0E7XQjLn8OD1uYDvvu-BLpWitxZgjD82ZUYee7vcMDW6lSlNLYIuQJIv-HP5MYEmYf3uZR-HOLbmWl2GZOVNcDW5MKmDjpYYXJF7HE-kcDGR7vDRKpfY8WbFV9pQZQ09OtwkSoxolQCTyK2_SgQTlvYUltBFXJk1lNFtzVVv1SDmv92gnak_s5swfbTbvJqGzqjbhQIAiZKuNhv1sE5rxt0N35fnVHZ_NdtBdhFp2Z-lfy_0zlDllpo_8xmShDFor4LghLNUP6x4c98KXLXAZ7CG40x_7m00?></g></svg>
