<svg xmlns="http://www.w3.org/2000/svg" xmlns:xlink="http://www.w3.org/1999/xlink" contentStyleType="text/css" height="2283px" preserveAspectRatio="none" style="width:2203px;height:2283px;background:#FAFAFA;" version="1.1" viewBox="0 0 2203 2283" width="2203px" zoomAndPan="magnify"><defs><style type="text/css">@import url('https://fonts.googleapis.com/css?family=Roboto:400,100,100italic,300,300italic,400italic,500,500italic,700,700italic,900,900italic');</style></defs><g><rect fill="#FAFAFA" height="2283" style="stroke:none;stroke-width:1.0;" width="2203" x="0" y="0"/><ellipse cx="234.93" cy="16" fill="#222222" rx="10" ry="10" style="stroke:#222222;stroke-width:1.0;"/><g id="n_start"><rect fill="#BBDEFB" height="50.2656" rx="4" ry="4" style="stroke:#181818;stroke-width:0.5;" width="90.0898" x="189.93" y="87"/><line style="stroke:#181818;stroke-width:0.5;" x1="189.93" x2="280.0198" y1="113.2969" y2="113.2969"/><text fill="#000000" font-family="Roboto" font-size="14" lengthAdjust="spacing" textLength="48.4805" x="210.7347" y="104.9951">n_start</text><text fill="#000000" font-family="Roboto" font-size="12" lengthAdjust="spacing" textLength="70.0898" x="194.93" y="129.4355">setup &#183; 42w</text></g><g id="n_kitchen"><rect fill="#BBDEFB" height="50.2656" rx="4" ry="4" style="stroke:#181818;stroke-width:0.5;" width="90.0898" x="189.93" y="214"/><line style="stroke:#181818;stroke-width:0.5;" x1="189.93" x2="280.0198" y1="240.2969" y2="240.2969"/><text fill="#000000" font-family="Roboto" font-size="14" lengthAdjust="spacing" textLength="67.416" x="201.2669" y="231.9951">n_kitchen</text><text fill="#000000" font-family="Roboto" font-size="12" lengthAdjust="spacing" textLength="70.0898" x="194.93" y="256.4355">setup &#183; 40w</text></g><g id="n_bowls"><rect fill="#FFF9C4" height="50.2656" rx="4" ry="4" style="stroke:#181818;stroke-width:0.5;" width="95.3867" x="187.43" y="341"/><line style="stroke:#181818;stroke-width:0.5;" x1="187.43" x2="282.8167" y1="367.2969" y2="367.2969"/><text fill="#000000" font-family="Roboto" font-size="14" lengthAdjust="spacing" textLength="55.959" x="207.1439" y="358.9951">n_bowls</text><text fill="#000000" font-family="Roboto" font-size="12" lengthAdjust="spacing" textLength="75.3867" x="192.43" y="383.4355">choice &#183; 42w</text></g><g id="n_bowl_oops"><rect fill="#D1C4E9" height="50.2656" rx="4" ry="4" style="stroke:#181818;stroke-width:0.5;" width="108.9766" x="79.43" y="468"/><line style="stroke:#181818;stroke-width:0.5;" x1="79.43" x2="188.4066" y1="494.2969" y2="494.2969"/><text fill="#000000" font-family="Roboto" font-size="14" lengthAdjust="spacing" textLength="88.9766" x="89.43" y="485.9951">n_bowl_oops</text><text fill="#000000" font-family="Roboto" font-size="12" lengthAdjust="spacing" textLength="69.6035" x="84.43" y="510.4355">rising &#183; 40w</text></g><g id="n_bowl_ok"><rect fill="#D1C4E9" height="50.2656" rx="4" ry="4" style="stroke:#181818;stroke-width:0.5;" width="92.3379" x="431.93" y="468"/><line style="stroke:#181818;stroke-width:0.5;" x1="431.93" x2="524.2679" y1="494.2969" y2="494.2969"/><text fill="#000000" font-family="Roboto" font-size="14" lengthAdjust="spacing" textLength="72.3379" x="441.93" y="485.9951">n_bowl_ok</text><text fill="#000000" font-family="Roboto" font-size="12" lengthAdjust="spacing" textLength="69.6035" x="436.93" y="510.4355">rising &#183; 36w</text></g><g id="n_flour"><rect fill="#FFF9C4" height="50.2656" rx="4" ry="4" style="stroke:#181818;stroke-width:0.5;" width="95.3867" x="430.43" y="595"/><line style="stroke:#181818;stroke-width:0.5;" x1="430.43" x2="525.8167" y1="621.2969" y2="621.2969"/><text fill="#000000" font-family="Roboto" font-size="14" lengthAdjust="spacing" textLength="47.8857" x="454.1805" y="612.9951">n_flour</text><text fill="#000000" font-family="Roboto" font-size="12" lengthAdjust="spacing" textLength="75.3867" x="435.43" y="637.4355">choice &#183; 42w</text></g><g id="n_flour_oops"><rect fill="#D1C4E9" height="50.2656" rx="4" ry="4" style="stroke:#181818;stroke-width:0.5;" width="108.1973" x="319.93" y="722"/><line style="stroke:#181818;stroke-width:0.5;" x1="319.93" x2="428.1273" y1="748.2969" y2="748.2969"/><text fill="#000000" font-family="Roboto" font-size="14" lengthAdjust="spacing" textLength="88.1973" x="329.93" y="739.9951">n_flour_oops</text><text fill="#000000" font-family="Roboto" font-size="12" lengthAdjust="spacing" textLength="69.6035" x="324.93" y="764.4355">rising &#183; 40w</text></g><g id="n_flour_ok"><rect fill="#D1C4E9" height="50.2656" rx="4" ry="4" style="stroke:#181818;stroke-width:0.5;" width="91.5586" x="690.93" y="722"/><line style="stroke:#181818;stroke-width:0.5;" x1="690.93" x2="782.4886" y1="748.2969" y2="748.2969"/><text fill="#000000" font-family="Roboto" font-size="14" lengthAdjust="spacing" textLength="71.5586" x="700.93" y="739.9951">n_flour_ok</text><text fill="#000000" font-family="Roboto" font-size="12" lengthAdjust="spacing" textLength="69.6035" x="695.93" y="764.4355">rising &#183; 36w</text></g><g id="n_seeds"><rect fill="#FFF9C4" height="50.2656" rx="4" ry="4" style="stroke:#181818;stroke-width:0.5;" width="95.3867" x="689.43" y="849"/><line style="stroke:#181818;stroke-width:0.5;" x1="689.43" x2="784.8167" y1="875.2969" y2="875.2969"/><text fill="#000000" font-family="Roboto" font-size="14" lengthAdjust="spacing" textLength="56.5742" x="708.8363" y="866.9951">n_seeds</text><text fill="#000000" font-family="Roboto" font-size="12" lengthAdjust="spacing" textLength="75.3867" x="694.43" y="891.4355">choice &#183; 44w</text></g><g id="n_acorn_chase"><rect fill="#D1C4E9" height="50.2656" rx="4" ry="4" style="stroke:#181818;stroke-width:0.5;" width="123.4004" x="465.43" y="976"/><line style="stroke:#181818;stroke-width:0.5;" x1="465.43" x2="588.8304" y1="1002.2969" y2="1002.2969"/><text fill="#000000" font-family="Roboto" font-size="14" lengthAdjust="spacing" textLength="103.4004" x="475.43" y="993.9951">n_acorn_chase</text><text fill="#000000" font-family="Roboto" font-size="12" lengthAdjust="spacing" textLength="69.6035" x="470.43" y="1018.4355">rising &#183; 40w</text></g><g id="n_acorn_back"><rect fill="#D1C4E9" height="50.2656" rx="4" ry="4" style="stroke:#181818;stroke-width:0.5;" width="115.6143" x="580.93" y="1103"/><line style="stroke:#181818;stroke-width:0.5;" x1="580.93" x2="696.5443" y1="1129.2969" y2="1129.2969"/><text fill="#000000" font-family="Roboto" font-size="14" lengthAdjust="spacing" textLength="95.6143" x="590.93" y="1120.9951">n_acorn_back</text><text fill="#000000" font-family="Roboto" font-size="12" lengthAdjust="spacing" textLength="69.6035" x="585.93" y="1145.4355">rising &#183; 38w</text></g><g id="n_seeds_ok"><rect fill="#D1C4E9" height="50.2656" rx="4" ry="4" style="stroke:#181818;stroke-width:0.5;" width="100.2471" x="963.93" y="976"/><line style="stroke:#181818;stroke-width:0.5;" x1="963.93" x2="1064.1771" y1="1002.2969" y2="1002.2969"/><text fill="#000000" font-family="Roboto" font-size="14" lengthAdjust="spacing" textLength="80.2471" x="973.93" y="993.9951">n_seeds_ok</text><text fill="#000000" font-family="Roboto" font-size="12" lengthAdjust="spacing" textLength="69.6035" x="968.93" y="1018.4355">rising &#183; 36w</text></g><g id="n_honey"><rect fill="#D1C4E9" height="50.2656" rx="4" ry="4" style="stroke:#181818;stroke-width:0.5;" width="89.6035" x="968.93" y="1103"/><line style="stroke:#181818;stroke-width:0.5;" x1="968.93" x2="1058.5335" y1="1129.2969" y2="1129.2969"/><text fill="#000000" font-family="Roboto" font-size="14" lengthAdjust="spacing" textLength="59.083" x="984.1903" y="1120.9951">n_honey</text><text fill="#000000" font-family="Roboto" font-size="12" lengthAdjust="spacing" textLength="69.6035" x="973.93" y="1145.4355">rising &#183; 38w</text></g><g id="n_mix"><rect fill="#D1C4E9" height="50.2656" rx="4" ry="4" style="stroke:#181818;stroke-width:0.5;" width="89.6035" x="968.93" y="1230"/><line style="stroke:#181818;stroke-width:0.5;" x1="968.93" x2="1058.5335" y1="1256.2969" y2="1256.2969"/><text fill="#000000" font-family="Roboto" font-size="14" lengthAdjust="spacing" textLength="41.6855" x="992.889" y="1247.9951">n_mix</text><text fill="#000000" font-family="Roboto" font-size="12" lengthAdjust="spacing" textLength="69.6035" x="973.93" y="1272.4355">rising &#183; 38w</text></g><g id="n_rest"><rect fill="#D1C4E9" height="50.2656" rx="4" ry="4" style="stroke:#181818;stroke-width:0.5;" width="89.6035" x="968.93" y="1357"/><line style="stroke:#181818;stroke-width:0.5;" x1="968.93" x2="1058.5335" y1="1383.2969" y2="1383.2969"/><text fill="#000000" font-family="Roboto" font-size="14" lengthAdjust="spacing" textLength="43.0254" x="992.2191" y="1374.9951">n_rest</text><text fill="#000000" font-family="Roboto" font-size="12" lengthAdjust="spacing" textLength="69.6035" x="973.93" y="1399.4355">rising &#183; 40w</text></g><g id="n_shape"><rect fill="#FFF9C4" height="50.2656" rx="4" ry="4" style="stroke:#181818;stroke-width:0.5;" width="95.3867" x="966.43" y="1484"/><line style="stroke:#181818;stroke-width:0.5;" x1="966.43" x2="1061.8167" y1="1510.2969" y2="1510.2969"/><text fill="#000000" font-family="Roboto" font-size="14" lengthAdjust="spacing" textLength="58.1191" x="985.0638" y="1501.9951">n_shape</text><text fill="#000000" font-family="Roboto" font-size="12" lengthAdjust="spacing" textLength="75.3867" x="971.43" y="1526.4355">choice &#183; 42w</text></g><g id="n_tray_neat"><rect fill="#D1C4E9" height="50.2656" rx="4" ry="4" style="stroke:#181818;stroke-width:0.5;" width="102.5371" x="787.43" y="1611"/><line style="stroke:#181818;stroke-width:0.5;" x1="787.43" x2="889.9671" y1="1637.2969" y2="1637.2969"/><text fill="#000000" font-family="Roboto" font-size="14" lengthAdjust="spacing" textLength="82.5371" x="797.43" y="1628.9951">n_tray_neat</text><text fill="#000000" font-family="Roboto" font-size="12" lengthAdjust="spacing" textLength="69.6035" x="792.43" y="1653.4355">rising &#183; 38w</text></g><g id="n_tray_funny"><rect fill="#D1C4E9" height="50.2656" rx="4" ry="4" style="stroke:#181818;stroke-width:0.5;" width="110.8154" x="1150.43" y="1611"/><line style="stroke:#181818;stroke-width:0.5;" x1="1150.43" x2="1261.2454" y1="1637.2969" y2="1637.2969"/><text fill="#000000" font-family="Roboto" font-size="14" lengthAdjust="spacing" textLength="90.8154" x="1160.43" y="1628.9951">n_tray_funny</text><text fill="#000000" font-family="Roboto" font-size="12" lengthAdjust="spacing" textLength="69.6035" x="1155.43" y="1653.4355">rising &#183; 38w</text></g><g id="n_oven"><rect fill="#FFF9C4" height="50.2656" rx="4" ry="4" style="stroke:#181818;stroke-width:0.5;" width="95.3867" x="645.43" y="1738"/><line style="stroke:#181818;stroke-width:0.5;" x1="645.43" x2="740.8167" y1="1764.2969" y2="1764.2969"/><text fill="#000000" font-family="Roboto" font-size="14" lengthAdjust="spacing" textLength="50.21" x="668.0184" y="1755.9951">n_oven</text><text fill="#000000" font-family="Roboto" font-size="12" lengthAdjust="spacing" textLength="75.3867" x="650.43" y="1780.4355">choice &#183; 40w</text></g><g id="n_peek_oops"><rect fill="#D1C4E9" height="50.2656" rx="4" ry="4" style="stroke:#181818;stroke-width:0.5;" width="110.4053" x="514.93" y="1865"/><line style="stroke:#181818;stroke-width:0.5;" x1="514.93" x2="625.3353" y1="1891.2969" y2="1891.2969"/><text fill="#000000" font-family="Roboto" font-size="14" lengthAdjust="spacing" textLength="90.4053" x="524.93" y="1882.9951">n_peek_oops</text><text fill="#000000" font-family="Roboto" font-size="12" lengthAdjust="spacing" textLength="69.6035" x="519.93" y="1907.4355">rising &#183; 38w</text></g><g id="n_golden"><rect fill="#FFF9C4" height="50.2656" rx="4" ry="4" style="stroke:#181818;stroke-width:0.5;" width="95.3867" x="864.43" y="1865"/><line style="stroke:#181818;stroke-width:0.5;" x1="864.43" x2="959.8167" y1="1891.2969" y2="1891.2969"/><text fill="#000000" font-family="Roboto" font-size="14" lengthAdjust="spacing" textLength="63.5879" x="880.3294" y="1882.9951">n_golden</text><text fill="#000000" font-family="Roboto" font-size="12" lengthAdjust="spacing" textLength="75.3867" x="869.43" y="1907.4355">choice &#183; 42w</text></g><g id="n_oven_funny"><rect fill="#FFF9C4" height="50.2656" rx="4" ry="4" style="stroke:#181818;stroke-width:0.5;" width="117.043" x="1232.43" y="1738"/><line style="stroke:#181818;stroke-width:0.5;" x1="1232.43" x2="1349.473" y1="1764.2969" y2="1764.2969"/><text fill="#000000" font-family="Roboto" font-size="14" lengthAdjust="spacing" textLength="97.043" x="1242.43" y="1755.9951">n_oven_funny</text><text fill="#000000" font-family="Roboto" font-size="12" lengthAdjust="spacing" textLength="75.3867" x="1237.43" y="1780.4355">choice &#183; 40w</text></g><g id="n_funny_peek"><rect fill="#D1C4E9" height="50.2656" rx="4" ry="4" style="stroke:#181818;stroke-width:0.5;" width="116.9268" x="1232.43" y="1865"/><line style="stroke:#181818;stroke-width:0.5;" x1="1232.43" x2="1349.3568" y1="1891.2969" y2="1891.2969"/><text fill="#000000" font-family="Roboto" font-size="14" lengthAdjust="spacing" textLength="96.9268" x="1242.43" y="1882.9951">n_funny_peek</text><text fill="#000000" font-family="Roboto" font-size="12" lengthAdjust="spacing" textLength="69.6035" x="1237.43" y="1907.4355">rising &#183; 38w</text></g><g id="n_funny_out"><rect fill="#FFF9C4" height="50.2656" rx="4" ry="4" style="stroke:#181818;stroke-width:0.5;" width="105.6338" x="1629.93" y="1865"/><line style="stroke:#181818;stroke-width:0.5;" x1="1629.93" x2="1735.5638" y1="1891.2969" y2="1891.2969"/><text fill="#000000" font-family="Roboto" font-size="14" lengthAdjust="spacing" textLength="85.6338" x="1639.93" y="1882.9951">n_funny_out</text><text fill="#000000" font-family="Roboto" font-size="12" lengthAdjust="spacing" textLength="75.3867" x="1634.93" y="1907.4355">choice &#183; 42w</text></g><g id="e_teatime"><rect fill="#C8E6C9" height="64.2344" rx="4" ry="4" style="stroke:#181818;stroke-width:0.5;" width="179.375" x="563.43" y="1992"/><line style="stroke:#181818;stroke-width:0.5;" x1="563.43" x2="742.805" y1="2018.2969" y2="2018.2969"/><text fill="#000000" font-family="Roboto" font-size="14" lengthAdjust="spacing" textLength="69.9248" x="618.1551" y="2009.9951">e_teatime</text><text fill="#000000" font-family="Roboto" font-size="12" lengthAdjust="spacing" textLength="127.1953" x="568.43" y="2034.4355">completion (positive)</text><text fill="#000000" font-family="Roboto" font-size="12" lengthAdjust="spacing" textLength="159.375" x="568.43" y="2048.4043">"A Teatime Picnic for Two"</text></g><g id="e_neighbors"><rect fill="#C8E6C9" height="64.2344" rx="4" ry="4" style="stroke:#181818;stroke-width:0.5;" width="232.2324" x="798.93" y="1992"/><line style="stroke:#181818;stroke-width:0.5;" x1="798.93" x2="1031.1624" y1="2018.2969" y2="2018.2969"/><text fill="#000000" font-family="Roboto" font-size="14" lengthAdjust="spacing" textLength="85.251" x="872.4207" y="2009.9951">e_neighbors</text><text fill="#000000" font-family="Roboto" font-size="12" lengthAdjust="spacing" textLength="107.1855" x="803.93" y="2034.4355">success (positive)</text><text fill="#000000" font-family="Roboto" font-size="12" lengthAdjust="spacing" textLength="212.2324" x="803.93" y="2048.4043">"Warm Buns for the Whole Burrow"</text></g><g id="e_perfect"><rect fill="#C8E6C9" height="64.2344" rx="4" ry="4" style="stroke:#181818;stroke-width:0.5;" width="184.3379" x="1084.93" y="1992"/><line style="stroke:#181818;stroke-width:0.5;" x1="1084.93" x2="1269.2679" y1="2018.2969" y2="2018.2969"/><text fill="#000000" font-family="Roboto" font-size="14" lengthAdjust="spacing" textLength="65.5977" x="1144.3001" y="2009.9951">e_perfect</text><text fill="#000000" font-family="Roboto" font-size="12" lengthAdjust="spacing" textLength="107.1855" x="1089.93" y="2034.4355">success (positive)</text><text fill="#000000" font-family="Roboto" font-size="12" lengthAdjust="spacing" textLength="164.3379" x="1089.93" y="2048.4043">"The Perfect Golden Batch"</text></g><g id="e_funny"><rect fill="#C8E6C9" height="64.2344" rx="4" ry="4" style="stroke:#181818;stroke-width:0.5;" width="202.0566" x="1327.93" y="1992"/><line style="stroke:#181818;stroke-width:0.5;" x1="1327.93" x2="1529.9866" y1="2018.2969" y2="2018.2969"/><text fill="#000000" font-family="Roboto" font-size="14" lengthAdjust="spacing" textLength="55.4463" x="1401.2352" y="2009.9951">e_funny</text><text fill="#000000" font-family="Roboto" font-size="12" lengthAdjust="spacing" textLength="127.1953" x="1332.93" y="2034.4355">completion (positive)</text><text fill="#000000" font-family="Roboto" font-size="12" lengthAdjust="spacing" textLength="182.0566" x="1332.93" y="2048.4043">"Funny Shapes, Yummy Buns"</text></g><g id="e_recipe"><rect fill="#C8E6C9" height="64.2344" rx="4" ry="4" style="stroke:#181818;stroke-width:0.5;" width="197.3047" x="1580.43" y="1992"/><line style="stroke:#181818;stroke-width:0.5;" x1="1580.43" x2="1777.7347" y1="2018.2969" y2="2018.2969"/><text fill="#000000" font-family="Roboto" font-size="14" lengthAdjust="spacing" textLength="59.0693" x="1649.5477" y="2009.9951">e_recipe</text><text fill="#000000" font-family="Roboto" font-size="12" lengthAdjust="spacing" textLength="117.9082" x="1585.43" y="2034.4355">discovery (positive)</text><text fill="#000000" font-family="Roboto" font-size="12" lengthAdjust="spacing" textLength="177.3047" x="1585.43" y="2048.4043">"A Brand-New Family Recipe"</text></g><g id="e_silly"><rect fill="#C8E6C9" height="64.2344" rx="4" ry="4" style="stroke:#181818;stroke-width:0.5;" width="222.541" x="1845.43" y="1992"/><line style="stroke:#181818;stroke-width:0.5;" x1="1845.43" x2="2067.971" y1="2018.2969" y2="2018.2969"/><text fill="#000000" font-family="Roboto" font-size="14" lengthAdjust="spacing" textLength="42.8613" x="1935.2698" y="2009.9951">e_silly</text><text fill="#000000" font-family="Roboto" font-size="12" lengthAdjust="spacing" textLength="107.1855" x="1850.43" y="2034.4355">success (positive)</text><text fill="#000000" font-family="Roboto" font-size="12" lengthAdjust="spacing" textLength="202.541" x="1850.43" y="2048.4043">"Silly Buns Make Everyone Smile"</text></g><ellipse cx="1302.93" cy="2128" fill="none" rx="11" ry="11" style="stroke:#222222;stroke-width:1.0;"/><ellipse cx="1302.93" cy="2128" fill="#222222" rx="6" ry="6" style="stroke:#222222;stroke-width:1.0;"/><!--link *start* to n_start--><g id="link_*start*_n_start"><path d="M234.93,26.01 C234.93,39.89 234.93,60.97 234.93,80.84 " fill="none" id="*start*-to-n_start" style="stroke:#181818;stroke-width:1.0;"/><polygon fill="#181818" points="234.93,86.84,238.93,77.84,234.93,81.84,230.93,77.84,234.93,86.84" style="stroke:#181818;stroke-width:1.0;"/></g><!--link n_start to n_kitchen--><g id="link_n_start_n_kitchen"><path d="M234.93,137.1 C234.93,159.24 234.93,185.86 234.93,207.97 " fill="none" id="n_start-to-n_kitchen" style="stroke:#181818;stroke-width:1.0;"/><polygon fill="#181818" points="234.93,213.97,238.93,204.97,234.93,208.97,230.93,204.97,234.93,213.97" style="stroke:#181818;stroke-width:1.0;"/><text fill="#000000" font-family="Roboto" font-size="13" lengthAdjust="spacing" textLength="206.2988" x="235.93" y="180.0669">Scamper to the burrow kitchen.</text></g><!--link n_kitchen to n_bowls--><g id="link_n_kitchen_n_bowls"><path d="M234.93,264.1 C234.93,286.24 234.93,312.86 234.93,334.97 " fill="none" id="n_kitchen-to-n_bowls" style="stroke:#181818;stroke-width:1.0;"/><polygon fill="#181818" points="234.93,340.97,238.93,331.97,234.93,335.97,230.93,331.97,234.93,340.97" style="stroke:#181818;stroke-width:1.0;"/><text fill="#000000" font-family="Roboto" font-size="13" lengthAdjust="spacing" textLength="176.4902" x="235.93" y="307.0669">Go get the big brown bowl.</text></g><!--link n_bowls to n_bowl_ok--><g id="link_n_bowls_n_bowl_ok"><path d="M282.76,373.14 C321.94,379.93 377.47,393.76 418.93,421 C437.14,432.97 449.2702,447.3025 459.8102,462.7625 " fill="none" id="n_bowls-to-n_bowl_ok" style="stroke:#181818;stroke-width:1.0;"/><polygon fill="#181818" points="463.19,467.72,461.4253,458.0305,460.3735,463.5888,454.8153,462.537,463.19,467.72" style="stroke:#181818;stroke-width:1.0;"/><text fill="#000000" font-family="Roboto" font-size="13" lengthAdjust="spacing" textLength="229.2773" x="439.93" y="434.0669">Lift the top bowls off one at a time.</text></g><!--link n_bowls to n_bowl_oops--><g id="link_n_bowls_n_bowl_oops"><path d="M224.22,391.32 C217.28,405.68 207.4,423.76 195.93,438 C187.24,448.78 180.8152,455.2801 170.4952,463.9901 " fill="none" id="n_bowls-to-n_bowl_oops" style="stroke:#181818;stroke-width:1.0;"/><polygon fill="#181818" points="165.91,467.86,175.3677,465.112,169.731,464.6351,170.2079,458.9984,165.91,467.86" style="stroke:#181818;stroke-width:1.0;"/><text fill="#000000" font-family="Roboto" font-size="13" lengthAdjust="spacing" textLength="201.0239" x="208.93" y="434.0669">Slide the bottom bowl out fast.</text></g><!--link n_bowl_oops to n_bowls--><g id="link_n_bowl_oops_n_bowls"><path d="M79.38,478.04 C43.3,466.09 6,446.72 25.93,421 C45.49,395.74 125.7554,380.9832 181.1654,373.4032 " fill="none" id="n_bowl_oops-to-n_bowls" style="stroke:#181818;stroke-width:1.0;"/><polygon fill="#181818" points="187.11,372.59,177.6509,369.8467,182.1561,373.2677,178.7352,377.7729,187.11,372.59" style="stroke:#181818;stroke-width:1.0;"/><text fill="#000000" font-family="Roboto" font-size="13" lengthAdjust="spacing" textLength="160.6592" x="26.93" y="434.0669">Try the bowl shelf again.</text></g><!--link n_bowl_ok to n_flour--><g id="link_n_bowl_ok_n_flour"><path d="M477.93,518.1 C477.93,540.24 477.93,566.86 477.93,588.97 " fill="none" id="n_bowl_ok-to-n_flour" style="stroke:#181818;stroke-width:1.0;"/><polygon fill="#181818" points="477.93,594.97,481.93,585.97,477.93,589.97,473.93,585.97,477.93,594.97" style="stroke:#181818;stroke-width:1.0;"/><text fill="#000000" font-family="Roboto" font-size="13" lengthAdjust="spacing" textLength="138.6709" x="478.93" y="561.0669">Fetch the flour crock.</text></g><!--link n_flour to n_flour_ok--><g id="link_n_flour_n_flour_ok"><path d="M525.68,625.64 C568.41,631.62 631.31,645.08 677.93,675 C696.4,686.86 708.6431,701.3869 719.1531,716.9569 " fill="none" id="n_flour-to-n_flour_ok" style="stroke:#181818;stroke-width:1.0;"/><polygon fill="#181818" points="722.51,721.93,720.79,712.2325,719.7126,717.7858,714.1593,716.7083,722.51,721.93" style="stroke:#181818;stroke-width:1.0;"/><text fill="#000000" font-family="Roboto" font-size="13" lengthAdjust="spacing" textLength="228.3887" x="698.93" y="688.0669">Scoop small scoops, nice and slow.</text></g><!--link n_flour to n_flour_oops--><g id="link_n_flour_n_flour_oops"><path d="M467.5,645.09 C460.59,659.53 450.65,677.79 438.93,692 C429.96,702.86 423.2512,709.4043 412.5212,718.0543 " fill="none" id="n_flour-to-n_flour_oops" style="stroke:#181818;stroke-width:1.0;"/><polygon fill="#181818" points="407.85,721.82,417.3672,719.2856,411.7426,718.6819,412.3463,713.0574,407.85,721.82" style="stroke:#181818;stroke-width:1.0;"/><text fill="#000000" font-family="Roboto" font-size="13" lengthAdjust="spacing" textLength="217.0137" x="451.93" y="688.0669">Tip the whole crock over at once.</text></g><!--link n_flour_oops to n_flour--><g id="link_n_flour_oops_n_flour"><path d="M319.83,732.89 C282.19,721.12 242.18,701.61 262.93,675 C283.28,648.9 367.3888,634.2634 424.2988,626.9634 " fill="none" id="n_flour_oops-to-n_flour" style="stroke:#181818;stroke-width:1.0;"/><polygon fill="#181818" points="430.25,626.2,420.8142,623.3776,425.2906,626.8362,421.8321,631.3126,430.25,626.2" style="stroke:#181818;stroke-width:1.0;"/><text fill="#000000" font-family="Roboto" font-size="13" lengthAdjust="spacing" textLength="166.4609" x="263.93" y="688.0669">Dust off and scoop again.</text></g><!--link n_flour_ok to n_seeds--><g id="link_n_flour_ok_n_seeds"><path d="M736.93,772.1 C736.93,794.24 736.93,820.86 736.93,842.97 " fill="none" id="n_flour_ok-to-n_seeds" style="stroke:#181818;stroke-width:1.0;"/><polygon fill="#181818" points="736.93,848.97,740.93,839.97,736.93,843.97,732.93,839.97,736.93,848.97" style="stroke:#181818;stroke-width:1.0;"/><text fill="#000000" font-family="Roboto" font-size="13" lengthAdjust="spacing" textLength="120.5293" x="737.93" y="815.0669">Open the seed jar.</text></g><!--link n_seeds to n_seeds_ok--><g id="link_n_seeds_n_seeds_ok"><path d="M784.54,896.49 C834.51,919.03 907.2512,951.8618 958.1912,974.8518 " fill="none" id="n_seeds-to-n_seeds_ok" style="stroke:#181818;stroke-width:1.0;"/><polygon fill="#181818" points="963.66,977.32,957.1022,969.9719,959.1026,975.2632,953.8113,977.2636,963.66,977.32" style="stroke:#181818;stroke-width:1.0;"/><text fill="#000000" font-family="Roboto" font-size="13" lengthAdjust="spacing" textLength="224.2881" x="893.93" y="942.0669">Pour the seeds in a gentle stream.</text></g><!--link n_seeds to n_acorn_chase--><g id="link_n_seeds_n_acorn_chase"><path d="M689.41,878.85 C626.68,885.04 521.43,899.59 497.93,929 C486.95,942.73 491.5435,956.2827 501.9135,970.9327 " fill="none" id="n_seeds-to-n_acorn_chase" style="stroke:#181818;stroke-width:1.0;"/><polygon fill="#181818" points="505.38,975.83,503.4451,966.1731,502.4912,971.7489,496.9154,970.7951,505.38,975.83" style="stroke:#181818;stroke-width:1.0;"/><text fill="#000000" font-family="Roboto" font-size="13" lengthAdjust="spacing" textLength="211.0405" x="498.93" y="942.0669">Shake the jar hard upside down.</text></g><!--link n_acorn_chase to n_acorn_back--><g id="link_n_acorn_chase_n_acorn_back"><path d="M530.75,1026.05 C534.08,1040.83 540.14,1059.47 550.93,1073 C560.43,1084.91 568.2087,1091.7276 581.1887,1099.7076 " fill="none" id="n_acorn_chase-to-n_acorn_back" style="stroke:#181818;stroke-width:1.0;"/><polygon fill="#181818" points="586.3,1102.85,580.728,1094.7289,582.0406,1100.2313,576.5381,1101.544,586.3,1102.85" style="stroke:#181818;stroke-width:1.0;"/><text fill="#000000" font-family="Roboto" font-size="13" lengthAdjust="spacing" textLength="158.812" x="551.93" y="1069.0669">Catch that rolling acorn!</text></g><!--link n_acorn_back to n_seeds--><g id="link_n_acorn_back_n_seeds"><path d="M686.01,1102.78 C697.23,1094.79 707.95,1084.86 714.93,1073 C747.46,1017.7 745.0303,944.5468 740.8703,905.1668 " fill="none" id="n_acorn_back-to-n_seeds" style="stroke:#181818;stroke-width:1.0;"/><polygon fill="#181818" points="740.24,899.2,737.2076,908.5704,740.7653,904.1723,745.1633,907.73,740.24,899.2" style="stroke:#181818;stroke-width:1.0;"/><text fill="#000000" font-family="Roboto" font-size="13" lengthAdjust="spacing" textLength="190.2266" x="742.93" y="1005.5669">Pour the seeds again, gently.</text></g><!--link n_seeds_ok to n_honey--><g id="link_n_seeds_ok_n_honey"><path d="M1013.93,1026.1 C1013.93,1048.24 1013.93,1074.86 1013.93,1096.97 " fill="none" id="n_seeds_ok-to-n_honey" style="stroke:#181818;stroke-width:1.0;"/><polygon fill="#181818" points="1013.93,1102.97,1017.93,1093.97,1013.93,1097.97,1009.93,1093.97,1013.93,1102.97" style="stroke:#181818;stroke-width:1.0;"/><text fill="#000000" font-family="Roboto" font-size="13" lengthAdjust="spacing" textLength="133.6563" x="1014.93" y="1069.0669">Bring the honey pot.</text></g><!--link n_honey to n_mix--><g id="link_n_honey_n_mix"><path d="M1013.93,1153.1 C1013.93,1175.24 1013.93,1201.86 1013.93,1223.97 " fill="none" id="n_honey-to-n_mix" style="stroke:#181818;stroke-width:1.0;"/><polygon fill="#181818" points="1013.93,1229.97,1017.93,1220.97,1013.93,1224.97,1009.93,1220.97,1013.93,1229.97" style="stroke:#181818;stroke-width:1.0;"/><text fill="#000000" font-family="Roboto" font-size="13" lengthAdjust="spacing" textLength="118.7139" x="1014.93" y="1196.0669">Stir it all together.</text></g><!--link n_mix to n_rest--><g id="link_n_mix_n_rest"><path d="M1013.93,1280.1 C1013.93,1302.24 1013.93,1328.86 1013.93,1350.97 " fill="none" id="n_mix-to-n_rest" style="stroke:#181818;stroke-width:1.0;"/><polygon fill="#181818" points="1013.93,1356.97,1017.93,1347.97,1013.93,1351.97,1009.93,1347.97,1013.93,1356.97" style="stroke:#181818;stroke-width:1.0;"/><text fill="#000000" font-family="Roboto" font-size="13" lengthAdjust="spacing" textLength="204.8833" x="1014.93" y="1323.0669">Let the dough have a little nap.</text></g><!--link n_rest to n_shape--><g id="link_n_rest_n_shape"><path d="M1013.93,1407.1 C1013.93,1429.24 1013.93,1455.86 1013.93,1477.97 " fill="none" id="n_rest-to-n_shape" style="stroke:#181818;stroke-width:1.0;"/><polygon fill="#181818" points="1013.93,1483.97,1017.93,1474.97,1013.93,1478.97,1009.93,1474.97,1013.93,1483.97" style="stroke:#181818;stroke-width:1.0;"/><text fill="#000000" font-family="Roboto" font-size="13" lengthAdjust="spacing" textLength="202.2935" x="1014.93" y="1450.0669">Shape the buns with Grandma.</text></g><!--link n_shape to n_tray_neat--><g id="link_n_shape_n_tray_neat"><path d="M966.35,1522.99 C940.86,1531.63 910.04,1544.96 886.93,1564 C871.42,1576.77 861.8162,1590.5653 853.4662,1605.7153 " fill="none" id="n_shape-to-n_tray_neat" style="stroke:#181818;stroke-width:1.0;"/><polygon fill="#181818" points="850.57,1610.97,858.4174,1605.0187,852.9835,1606.5911,851.4111,1601.1571,850.57,1610.97" style="stroke:#181818;stroke-width:1.0;"/><text fill="#000000" font-family="Roboto" font-size="13" lengthAdjust="spacing" textLength="241.998" x="887.93" y="1577.0669">Roll neat round buns like Grandma&#8217;s.</text></g><!--link n_shape to n_tray_funny--><g id="link_n_shape_n_tray_funny"><path d="M1061.56,1526.88 C1084.45,1536.1 1111.69,1548.76 1133.93,1564 C1153.19,1577.2 1167.8384,1591.3963 1181.3384,1606.2763 " fill="none" id="n_shape-to-n_tray_funny" style="stroke:#181818;stroke-width:1.0;"/><polygon fill="#181818" points="1185.37,1610.72,1182.2851,1601.3667,1182.0104,1607.0169,1176.3602,1606.7422,1185.37,1610.72" style="stroke:#181818;stroke-width:1.0;"/><text fill="#000000" font-family="Roboto" font-size="13" lengthAdjust="spacing" textLength="232.7368" x="1154.93" y="1577.0669">Squish fun shapes, stars and snails.</text></g><!--link n_tray_neat to n_oven--><g id="link_n_tray_neat_n_oven"><path d="M810.78,1661.1 C784.92,1683.24 751.3782,1711.9583 725.5482,1734.0683 " fill="none" id="n_tray_neat-to-n_oven" style="stroke:#181818;stroke-width:1.0;"/><polygon fill="#181818" points="720.99,1737.97,730.4284,1735.1562,724.7885,1734.7186,725.2261,1729.0787,720.99,1737.97" style="stroke:#181818;stroke-width:1.0;"/><text fill="#000000" font-family="Roboto" font-size="13" lengthAdjust="spacing" textLength="227.7666" x="775.93" y="1704.0669">Watch and wait by the warm oven.</text></g><!--link n_tray_funny to n_oven_funny--><g id="link_n_tray_funny_n_oven_funny"><path d="M1222.31,1661.1 C1237.37,1683.24 1256.1753,1710.899 1271.2153,1733.009 " fill="none" id="n_tray_funny-to-n_oven_funny" style="stroke:#181818;stroke-width:1.0;"/><polygon fill="#181818" points="1274.59,1737.97,1272.8354,1728.2787,1271.7778,1733.8358,1266.2207,1732.7782,1274.59,1737.97" style="stroke:#181818;stroke-width:1.0;"/><text fill="#000000" font-family="Roboto" font-size="13" lengthAdjust="spacing" textLength="227.7666" x="1253.93" y="1704.0669">Watch and wait by the warm oven.</text></g><!--link n_oven to n_golden--><g id="link_n_oven_n_golden"><path d="M740.55,1769.2 C778.62,1775.42 831.61,1788.92 868.93,1818 C884.38,1830.05 893.0478,1843.8767 900.1278,1859.3067 " fill="none" id="n_oven-to-n_golden" style="stroke:#181818;stroke-width:1.0;"/><polygon fill="#181818" points="902.63,1864.76,902.5122,1854.9118,900.5448,1860.2156,895.2411,1858.2482,902.63,1864.76" style="stroke:#181818;stroke-width:1.0;"/><text fill="#000000" font-family="Roboto" font-size="13" lengthAdjust="spacing" textLength="141.9019" x="885.93" y="1831.0669">Wait for the little bell.</text></g><!--link n_oven to n_peek_oops--><g id="link_n_oven_n_peek_oops"><path d="M645.32,1767.57 C581.17,1773.48 472.21,1787.78 447.93,1818 C424.52,1847.13 466.4851,1865.2325 508.9451,1876.3325 " fill="none" id="n_oven-to-n_peek_oops" style="stroke:#181818;stroke-width:1.0;"/><polygon fill="#181818" points="514.75,1877.85,507.0543,1871.7037,509.9126,1876.5854,505.0309,1879.4436,514.75,1877.85" style="stroke:#181818;stroke-width:1.0;"/><text fill="#000000" font-family="Roboto" font-size="13" lengthAdjust="spacing" textLength="196.7456" x="448.93" y="1831.0669">Open the door for a tiny peek.</text></g><!--link n_peek_oops to n_oven--><g id="link_n_peek_oops_n_oven"><path d="M612.85,1864.93 C625.68,1856.5 639.18,1846.29 649.93,1835 C663.04,1821.22 671.2955,1808.1052 678.8955,1793.4652 " fill="none" id="n_peek_oops-to-n_oven" style="stroke:#181818;stroke-width:1.0;"/><polygon fill="#181818" points="681.66,1788.14,673.9632,1794.2848,679.3563,1792.5777,681.0635,1797.9708,681.66,1788.14" style="stroke:#181818;stroke-width:1.0;"/><text fill="#000000" font-family="Roboto" font-size="13" lengthAdjust="spacing" textLength="196.1299" x="663.93" y="1831.0669">Wait by the warm oven again.</text></g><!--link n_golden to e_teatime--><g id="link_n_golden_e_teatime"><path d="M864.3,1893.77 C796.02,1898.85 675.59,1912.31 648.93,1945 C638.47,1957.82 637.6528,1970.2689 640.9528,1985.9289 " fill="none" id="n_golden-to-e_teatime" style="stroke:#181818;stroke-width:1.0;"/><polygon fill="#181818" points="642.19,1991.8,644.2482,1982.1686,641.159,1986.9075,636.4202,1983.8182,642.19,1991.8" style="stroke:#181818;stroke-width:1.0;"/><text fill="#000000" font-family="Roboto" font-size="13" lengthAdjust="spacing" textLength="242.7217" x="649.93" y="1958.0669">Have a teatime picnic with Grandma.</text></g><!--link n_golden to e_neighbors--><g id="link_n_golden_e_neighbors"><path d="M905.95,1915.03 C903.93,1924.33 901.92,1935.1 900.93,1945 C899.37,1960.47 900.5383,1971.6389 903.8683,1985.8189 " fill="none" id="n_golden-to-e_neighbors" style="stroke:#181818;stroke-width:1.0;"/><polygon fill="#181818" points="905.24,1991.66,907.0765,1981.9839,904.0969,1986.7924,899.2884,1983.8128,905.24,1991.66" style="stroke:#181818;stroke-width:1.0;"/><text fill="#000000" font-family="Roboto" font-size="13" lengthAdjust="spacing" textLength="223.3867" x="901.93" y="1958.0669">Take warm buns to the neighbors.</text></g><!--link n_golden to e_perfect--><g id="link_n_golden_e_perfect"><path d="M959.72,1892.46 C1007.12,1896.13 1079.73,1907.96 1129.93,1945 C1145.83,1956.73 1154.8462,1970.1753 1162.5262,1986.4253 " fill="none" id="n_golden-to-e_perfect" style="stroke:#181818;stroke-width:1.0;"/><polygon fill="#181818" points="1165.09,1991.85,1164.8608,1982.0038,1162.9535,1987.3294,1157.6279,1985.4222,1165.09,1991.85" style="stroke:#181818;stroke-width:1.0;"/><text fill="#000000" font-family="Roboto" font-size="13" lengthAdjust="spacing" textLength="235.0029" x="1146.93" y="1958.0669">Line up the batch on the windowsill.</text></g><!--link n_oven_funny to n_funny_out--><g id="link_n_oven_funny_n_funny_out"><path d="M1349.44,1767.75 C1409.3,1773.22 1504.05,1786.44 1579.93,1818 C1607.6,1829.51 1630.6818,1845.4956 1650.4018,1861.2456 " fill="none" id="n_oven_funny-to-n_funny_out" style="stroke:#181818;stroke-width:1.0;"/><polygon fill="#181818" points="1655.09,1864.99,1650.5539,1856.2479,1651.1831,1861.8697,1645.5614,1862.4989,1655.09,1864.99" style="stroke:#181818;stroke-width:1.0;"/><text fill="#000000" font-family="Roboto" font-size="13" lengthAdjust="spacing" textLength="141.9019" x="1610.93" y="1831.0669">Wait for the little bell.</text></g><!--link n_oven_funny to n_funny_peek--><g id="link_n_oven_funny_n_funny_peek"><path d="M1232.3,1775.29 C1208.42,1783.09 1183.14,1796.16 1168.93,1818 C1149.34,1848.09 1186.3209,1865.4504 1226.5109,1876.1204 " fill="none" id="n_oven_funny-to-n_funny_peek" style="stroke:#181818;stroke-width:1.0;"/><polygon fill="#181818" points="1232.31,1877.66,1224.6377,1871.4845,1227.4774,1876.377,1222.5849,1879.2167,1232.31,1877.66" style="stroke:#181818;stroke-width:1.0;"/><text fill="#000000" font-family="Roboto" font-size="13" lengthAdjust="spacing" textLength="196.7456" x="1169.93" y="1831.0669">Open the door for a tiny peek.</text></g><!--link n_funny_peek to n_oven_funny--><g id="link_n_funny_peek_n_oven_funny"><path d="M1346.63,1864.95 C1366.08,1852.82 1380.86,1836.69 1370.93,1818 C1364.48,1805.87 1358.8799,1799.39 1347.5499,1791.53 " fill="none" id="n_funny_peek-to-n_oven_funny" style="stroke:#181818;stroke-width:1.0;"/><polygon fill="#181818" points="1342.62,1788.11,1347.7348,1796.5266,1346.7282,1790.96,1352.2948,1789.9534,1342.62,1788.11" style="stroke:#181818;stroke-width:1.0;"/><text fill="#000000" font-family="Roboto" font-size="13" lengthAdjust="spacing" textLength="196.1299" x="1374.93" y="1831.0669">Wait by the warm oven again.</text></g><!--link n_funny_out to e_funny--><g id="link_n_funny_out_e_funny"><path d="M1629.83,1892.82 C1583.5,1896.93 1516.72,1909.23 1470.93,1945 C1455.78,1956.83 1447.6861,1970.1585 1441.0361,1986.3785 " fill="none" id="n_funny_out-to-e_funny" style="stroke:#181818;stroke-width:1.0;"/><polygon fill="#181818" points="1438.76,1991.93,1445.8751,1985.1201,1440.6567,1987.3037,1438.4731,1982.0853,1438.76,1991.93" style="stroke:#181818;stroke-width:1.0;"/><text fill="#000000" font-family="Roboto" font-size="13" lengthAdjust="spacing" textLength="199.272" x="1471.93" y="1958.0669">Taste the wiggly star bun first.</text></g><!--link n_funny_out to e_recipe--><g id="link_n_funny_out_e_recipe"><path d="M1682.19,1915.21 C1681.54,1936.8 1680.7617,1962.5128 1680.0517,1985.9528 " fill="none" id="n_funny_out-to-e_recipe" style="stroke:#181818;stroke-width:1.0;"/><polygon fill="#181818" points="1679.87,1991.95,1684.1407,1983.0752,1680.0214,1986.9523,1676.1443,1982.833,1679.87,1991.95" style="stroke:#181818;stroke-width:1.0;"/><text fill="#000000" font-family="Roboto" font-size="13" lengthAdjust="spacing" textLength="253.3096" x="1681.93" y="1958.0669">Draw the new buns on the recipe card.</text></g><!--link n_funny_out to e_silly--><g id="link_n_funny_out_e_silly"><path d="M1736.09,1895.11 C1803.62,1901.47 1914.79,1916.09 1942.93,1945 C1954.82,1957.23 1958.2516,1969.9144 1958.8616,1985.9244 " fill="none" id="n_funny_out-to-e_silly" style="stroke:#181818;stroke-width:1.0;"/><polygon fill="#181818" points="1959.09,1991.92,1962.7444,1982.7742,1958.8996,1986.9236,1954.7502,1983.0788,1959.09,1991.92" style="stroke:#181818;stroke-width:1.0;"/><text fill="#000000" font-family="Roboto" font-size="13" lengthAdjust="spacing" textLength="241.1919" x="1953.93" y="1958.0669">Show the silly buns to the neighbors.</text></g><!--link e_teatime to *end*--><g id="link_e_teatime_*end*"><path d="M742.54,2047.93 C755.38,2050.86 768.46,2053.65 780.93,2056 C984.49,2094.39 1230.4993,2119.838 1285.8693,2125.328 " fill="none" id="e_teatime-to-*end*" style="stroke:#181818;stroke-width:1.0;"/><polygon fill="#181818" points="1291.84,2125.92,1283.2786,2121.0515,1286.8644,2125.4267,1282.4892,2129.0125,1291.84,2125.92" style="stroke:#181818;stroke-width:1.0;"/></g><!--link e_neighbors to *end*--><g id="link_e_neighbors_*end*"><path d="M1031.08,2055.53 C1127.75,2080.95 1249.5374,2112.9638 1286.6074,2122.7138 " fill="none" id="e_neighbors-to-*end*" style="stroke:#181818;stroke-width:1.0;"/><polygon fill="#181818" points="1292.41,2124.24,1284.7235,2118.0823,1287.5745,2122.9682,1282.6886,2125.8191,1292.41,2124.24" style="stroke:#181818;stroke-width:1.0;"/></g><!--link e_perfect to *end*--><g id="link_e_perfect_*end*"><path d="M1215.41,2056.16 C1243.21,2078.65 1273.8769,2103.4844 1289.7969,2116.3744 " fill="none" id="e_perfect-to-*end*" style="stroke:#181818;stroke-width:1.0;"/><polygon fill="#181818" points="1294.46,2120.15,1289.9824,2111.3778,1290.5741,2117.0037,1284.9482,2117.5953,1294.46,2120.15" style="stroke:#181818;stroke-width:1.0;"/></g><!--link e_funny to *end*--><g id="link_e_funny_*end*"><path d="M1390.44,2056.16 C1362.65,2078.65 1331.9843,2103.4858 1316.0543,2116.3758 " fill="none" id="e_funny-to-*end*" style="stroke:#181818;stroke-width:1.0;"/><polygon fill="#181818" points="1311.39,2120.15,1320.9026,2117.5983,1315.2769,2117.0049,1315.8703,2111.3792,1311.39,2120.15" style="stroke:#181818;stroke-width:1.0;"/></g><!--link e_recipe to *end*--><g id="link_e_recipe_*end*"><path d="M1580.14,2051.8 C1485.49,2077.48 1357.3606,2112.2286 1319.2206,2122.5786 " fill="none" id="e_recipe-to-*end*" style="stroke:#181818;stroke-width:1.0;"/><polygon fill="#181818" points="1313.43,2124.15,1323.1635,2125.6533,1318.2555,2122.8405,1321.0683,2117.9325,1313.43,2124.15" style="stroke:#181818;stroke-width:1.0;"/></g><!--link e_silly to *end*--><g id="link_e_silly_*end*"><path d="M1845.06,2047.1 C1828.28,2050.21 1811.16,2053.28 1794.93,2056 C1602.57,2088.27 1372.3517,2118.1401 1319.6417,2124.8701 " fill="none" id="e_silly-to-*end*" style="stroke:#181818;stroke-width:1.0;"/><polygon fill="#181818" points="1313.69,2125.63,1323.1241,2128.4579,1318.6497,2124.9967,1322.1109,2120.5223,1313.69,2125.63" style="stroke:#181818;stroke-width:1.0;"/></g><rect fill="none" height="107.7813" id="_legend" rx="4" ry="4" style="stroke:#000000;stroke-width:1.0;" width="251.5068" x="1925.6151" y="2156"/><text fill="#000000" font-family="Roboto" font-size="14" lengthAdjust="spacing" textLength="218.8936" x="1930.6151" y="2173.9951">Baking Day with Grandma Vole</text><text fill="#000000" font-family="Roboto" font-size="14" lengthAdjust="spacing" textLength="181.6172" x="1930.6151" y="2190.292">Band 3-5 &#183; Tier 1 &#183; ~4 min</text><text fill="#000000" font-family="Roboto" font-size="14" lengthAdjust="spacing" textLength="178.2676" x="1930.6151" y="2206.5889">Topology: loop_and_grow</text><text fill="#000000" font-family="Roboto" font-size="14" lengthAdjust="spacing" textLength="241.5068" x="1930.6151" y="2222.8857">30 nodes &#183; 6 endings (6+ / 0n / 0-)</text><text fill="#000000" font-family="Roboto" font-size="14" lengthAdjust="spacing" textLength="130.6484" x="1930.6151" y="2239.1826">Production-eligible</text><text fill="#000000" font-family="Roboto" font-size="14" lengthAdjust="spacing" textLength="156.8369" x="1930.6151" y="2255.4795">Scale: medium &#183; prose</text></g></svg>