<svg xmlns="http://www.w3.org/2000/svg" xmlns:xlink="http://www.w3.org/1999/xlink" contentStyleType="text/css" height="1441px" preserveAspectRatio="none" style="width:835px;height:1441px;background:#FAFAFA;" version="1.1" viewBox="0 0 835 1441" width="835px" zoomAndPan="magnify"><defs><style type="text/css">@import url('https://fonts.googleapis.com/css?family=Roboto:400,100,100italic,300,300italic,400italic,500,500italic,700,700italic,900,900italic');</style></defs><g><rect fill="#FAFAFA" height="1441" style="stroke:none;stroke-width:1.0;" width="835" x="0" y="0"/><ellipse cx="394" cy="16" fill="#222222" rx="10" ry="10" style="stroke:#222222;stroke-width:1.0;"/><g id="n_window"><rect fill="#BBDEFB" height="50.2656" rx="4" ry="4" style="stroke:#181818;stroke-width:0.5;" width="90.0898" x="349" y="87"/><line style="stroke:#181818;stroke-width:0.5;" x1="349" x2="439.0898" y1="113.2969" y2="113.2969"/><text fill="#000000" font-family="Roboto" font-size="14" lengthAdjust="spacing" textLength="68.9883" x="359.5508" y="104.9951">n_window</text><text fill="#000000" font-family="Roboto" font-size="12" lengthAdjust="spacing" textLength="70.0898" x="354" y="129.4355">setup &#183; 42w</text></g><g id="n_door"><rect fill="#BBDEFB" height="50.2656" rx="4" ry="4" style="stroke:#181818;stroke-width:0.5;" width="90.0898" x="349" y="214"/><line style="stroke:#181818;stroke-width:0.5;" x1="349" x2="439.0898" y1="240.2969" y2="240.2969"/><text fill="#000000" font-family="Roboto" font-size="14" lengthAdjust="spacing" textLength="47.6465" x="370.2217" y="231.9951">n_door</text><text fill="#000000" font-family="Roboto" font-size="12" lengthAdjust="spacing" textLength="70.0898" x="354" y="256.4355">setup &#183; 40w</text></g><g id="n_gate"><rect fill="#BBDEFB" height="50.2656" rx="4" ry="4" style="stroke:#181818;stroke-width:0.5;" width="90.0898" x="349" y="341"/><line style="stroke:#181818;stroke-width:0.5;" x1="349" x2="439.0898" y1="367.2969" y2="367.2969"/><text fill="#000000" font-family="Roboto" font-size="14" lengthAdjust="spacing" textLength="47.4414" x="370.3242" y="358.9951">n_gate</text><text fill="#000000" font-family="Roboto" font-size="12" lengthAdjust="spacing" textLength="70.0898" x="354" y="383.4355">setup &#183; 38w</text></g><g id="n_corner"><rect fill="#FFF9C4" height="50.2656" rx="4" ry="4" style="stroke:#181818;stroke-width:0.5;" width="95.3867" x="346.5" y="468"/><line style="stroke:#181818;stroke-width:0.5;" x1="346.5" x2="441.8867" y1="494.2969" y2="494.2969"/><text fill="#000000" font-family="Roboto" font-size="14" lengthAdjust="spacing" textLength="61.1338" x="363.6265" y="485.9951">n_corner</text><text fill="#000000" font-family="Roboto" font-size="12" lengthAdjust="spacing" textLength="75.3867" x="351.5" y="510.4355">choice &#183; 44w</text></g><g id="n_lane"><rect fill="#D1C4E9" height="50.2656" rx="4" ry="4" style="stroke:#181818;stroke-width:0.5;" width="89.6035" x="241" y="595"/><line style="stroke:#181818;stroke-width:0.5;" x1="241" x2="330.6035" y1="621.2969" y2="621.2969"/><text fill="#000000" font-family="Roboto" font-size="14" lengthAdjust="spacing" textLength="45.8281" x="262.8877" y="612.9951">n_lane</text><text fill="#000000" font-family="Roboto" font-size="12" lengthAdjust="spacing" textLength="69.6035" x="246" y="637.4355">rising &#183; 40w</text></g><g id="n_wiggle"><rect fill="#FFF9C4" height="50.2656" rx="4" ry="4" style="stroke:#181818;stroke-width:0.5;" width="95.3867" x="232.5" y="722"/><line style="stroke:#181818;stroke-width:0.5;" x1="232.5" x2="327.8867" y1="748.2969" y2="748.2969"/><text fill="#000000" font-family="Roboto" font-size="14" lengthAdjust="spacing" textLength="61.4893" x="249.4487" y="739.9951">n_wiggle</text><text fill="#000000" font-family="Roboto" font-size="12" lengthAdjust="spacing" textLength="75.3867" x="237.5" y="764.4355">choice &#183; 44w</text></g><g id="n_worm_carry"><rect fill="#D1C4E9" height="50.2656" rx="4" ry="4" style="stroke:#181818;stroke-width:0.5;" width="118.3555" x="38" y="849"/><line style="stroke:#181818;stroke-width:0.5;" x1="38" x2="156.3555" y1="875.2969" y2="875.2969"/><text fill="#000000" font-family="Roboto" font-size="14" lengthAdjust="spacing" textLength="98.3555" x="48" y="866.9951">n_worm_carry</text><text fill="#000000" font-family="Roboto" font-size="12" lengthAdjust="spacing" textLength="69.6035" x="43" y="891.4355">rising &#183; 38w</text></g><g id="n_worm_end"><rect fill="#C8E6C9" height="64.2344" rx="4" ry="4" style="stroke:#181818;stroke-width:0.5;" width="161.9668" x="7" y="1056"/><line style="stroke:#181818;stroke-width:0.5;" x1="7" x2="168.9668" y1="1082.2969" y2="1082.2969"/><text fill="#000000" font-family="Roboto" font-size="14" lengthAdjust="spacing" textLength="88.6553" x="43.6558" y="1073.9951">n_worm_end</text><text fill="#000000" font-family="Roboto" font-size="12" lengthAdjust="spacing" textLength="127.1953" x="12" y="1098.4355">completion (positive)</text><text fill="#000000" font-family="Roboto" font-size="12" lengthAdjust="spacing" textLength="141.9668" x="12" y="1112.4043">"A Home for the Worm"</text></g><g id="n_mirror"><rect fill="#D1C4E9" height="50.2656" rx="4" ry="4" style="stroke:#181818;stroke-width:0.5;" width="89.6035" x="241" y="849"/><line style="stroke:#181818;stroke-width:0.5;" x1="241" x2="330.6035" y1="875.2969" y2="875.2969"/><text fill="#000000" font-family="Roboto" font-size="14" lengthAdjust="spacing" textLength="59.2334" x="256.1851" y="866.9951">n_mirror</text><text fill="#000000" font-family="Roboto" font-size="12" lengthAdjust="spacing" textLength="69.6035" x="246" y="891.4355">rising &#183; 38w</text></g><g id="n_mirror_climax"><rect fill="#D1C4E9" height="50.2656" rx="4" ry="4" style="stroke:#181818;stroke-width:0.5;" width="132.2119" x="191" y="976"/><line style="stroke:#181818;stroke-width:0.5;" x1="191" x2="323.2119" y1="1002.2969" y2="1002.2969"/><text fill="#000000" font-family="Roboto" font-size="14" lengthAdjust="spacing" textLength="112.2119" x="201" y="993.9951">n_mirror_climax</text><text fill="#000000" font-family="Roboto" font-size="12" lengthAdjust="spacing" textLength="69.6035" x="196" y="1018.4355">rising &#183; 36w</text></g><g id="n_splash_end"><rect fill="#C8E6C9" height="64.2344" rx="4" ry="4" style="stroke:#181818;stroke-width:0.5;" width="145.9063" x="196" y="1150"/><line style="stroke:#181818;stroke-width:0.5;" x1="196" x2="341.9063" y1="1176.2969" y2="1176.2969"/><text fill="#000000" font-family="Roboto" font-size="14" lengthAdjust="spacing" textLength="94.0625" x="221.9219" y="1167.9951">n_splash_end</text><text fill="#000000" font-family="Roboto" font-size="12" lengthAdjust="spacing" textLength="107.1855" x="201" y="1192.4355">success (positive)</text><text fill="#000000" font-family="Roboto" font-size="12" lengthAdjust="spacing" textLength="125.9063" x="201" y="1206.4043">"The Biggest Splash"</text></g><g id="n_hill"><rect fill="#D1C4E9" height="50.2656" rx="4" ry="4" style="stroke:#181818;stroke-width:0.5;" width="89.6035" x="456" y="595"/><line style="stroke:#181818;stroke-width:0.5;" x1="456" x2="545.6035" y1="621.2969" y2="621.2969"/><text fill="#000000" font-family="Roboto" font-size="14" lengthAdjust="spacing" textLength="36.415" x="482.5942" y="612.9951">n_hill</text><text fill="#000000" font-family="Roboto" font-size="12" lengthAdjust="spacing" textLength="69.6035" x="461" y="637.4355">rising &#183; 40w</text></g><g id="n_stream_fork"><rect fill="#FFF9C4" height="50.2656" rx="4" ry="4" style="stroke:#181818;stroke-width:0.5;" width="119.5996" x="442" y="722"/><line style="stroke:#181818;stroke-width:0.5;" x1="442" x2="561.5996" y1="748.2969" y2="748.2969"/><text fill="#000000" font-family="Roboto" font-size="14" lengthAdjust="spacing" textLength="99.5996" x="452" y="739.9951">n_stream_fork</text><text fill="#000000" font-family="Roboto" font-size="12" lengthAdjust="spacing" textLength="75.3867" x="447" y="764.4355">choice &#183; 44w</text></g><g id="n_race"><rect fill="#D1C4E9" height="50.2656" rx="4" ry="4" style="stroke:#181818;stroke-width:0.5;" width="89.6035" x="450" y="849"/><line style="stroke:#181818;stroke-width:0.5;" x1="450" x2="539.6035" y1="875.2969" y2="875.2969"/><text fill="#000000" font-family="Roboto" font-size="14" lengthAdjust="spacing" textLength="46.5186" x="471.5425" y="866.9951">n_race</text><text fill="#000000" font-family="Roboto" font-size="12" lengthAdjust="spacing" textLength="69.6035" x="455" y="891.4355">rising &#183; 38w</text></g><g id="n_race_finish"><rect fill="#D1C4E9" height="50.2656" rx="4" ry="4" style="stroke:#181818;stroke-width:0.5;" width="111.2666" x="437.5" y="976"/><line style="stroke:#181818;stroke-width:0.5;" x1="437.5" x2="548.7666" y1="1002.2969" y2="1002.2969"/><text fill="#000000" font-family="Roboto" font-size="14" lengthAdjust="spacing" textLength="91.2666" x="447.5" y="993.9951">n_race_finish</text><text fill="#000000" font-family="Roboto" font-size="12" lengthAdjust="spacing" textLength="69.6035" x="442.5" y="1018.4355">rising &#183; 36w</text></g><g id="n_race_end"><rect fill="#C8E6C9" height="64.2344" rx="4" ry="4" style="stroke:#181818;stroke-width:0.5;" width="152.873" x="389.5" y="1150"/><line style="stroke:#181818;stroke-width:0.5;" x1="389.5" x2="542.373" y1="1176.2969" y2="1176.2969"/><text fill="#000000" font-family="Roboto" font-size="14" lengthAdjust="spacing" textLength="79.8916" x="425.9907" y="1167.9951">n_race_end</text><text fill="#000000" font-family="Roboto" font-size="12" lengthAdjust="spacing" textLength="107.1855" x="394.5" y="1192.4355">success (positive)</text><text fill="#000000" font-family="Roboto" font-size="12" lengthAdjust="spacing" textLength="132.873" x="394.5" y="1206.4043">"Champion Leaf Boat"</text></g><g id="n_downhill"><rect fill="#D1C4E9" height="50.2656" rx="4" ry="4" style="stroke:#181818;stroke-width:0.5;" width="94.1904" x="623" y="849"/><line style="stroke:#181818;stroke-width:0.5;" x1="623" x2="717.1904" y1="875.2969" y2="875.2969"/><text fill="#000000" font-family="Roboto" font-size="14" lengthAdjust="spacing" textLength="74.1904" x="633" y="866.9951">n_downhill</text><text fill="#000000" font-family="Roboto" font-size="12" lengthAdjust="spacing" textLength="69.6035" x="628" y="891.4355">rising &#183; 38w</text></g><g id="n_sky"><rect fill="#D1C4E9" height="50.2656" rx="4" ry="4" style="stroke:#181818;stroke-width:0.5;" width="89.6035" x="627" y="976"/><line style="stroke:#181818;stroke-width:0.5;" x1="627" x2="716.6035" y1="1002.2969" y2="1002.2969"/><text fill="#000000" font-family="Roboto" font-size="14" lengthAdjust="spacing" textLength="39.5596" x="652.022" y="993.9951">n_sky</text><text fill="#000000" font-family="Roboto" font-size="12" lengthAdjust="spacing" textLength="69.6035" x="632" y="1018.4355">rising &#183; 34w</text></g><g id="n_rainbow_end"><rect fill="#C8E6C9" height="64.2344" rx="4" ry="4" style="stroke:#181818;stroke-width:0.5;" width="162.0664" x="584" y="1150"/><line style="stroke:#181818;stroke-width:0.5;" x1="584" x2="746.0664" y1="1176.2969" y2="1176.2969"/><text fill="#000000" font-family="Roboto" font-size="14" lengthAdjust="spacing" textLength="105.2461" x="612.4102" y="1167.9951">n_rainbow_end</text><text fill="#000000" font-family="Roboto" font-size="12" lengthAdjust="spacing" textLength="117.9082" x="589" y="1192.4355">discovery (positive)</text><text fill="#000000" font-family="Roboto" font-size="12" lengthAdjust="spacing" textLength="142.0664" x="589" y="1206.4043">"The Rainbow Surprise"</text></g><ellipse cx="367" cy="1286" fill="none" rx="11" ry="11" style="stroke:#222222;stroke-width:1.0;"/><ellipse cx="367" cy="1286" fill="#222222" rx="6" ry="6" style="stroke:#222222;stroke-width:1.0;"/><!--link *start* to n_window--><g id="link_*start*_n_window"><path d="M394,26.01 C394,39.89 394,60.97 394,80.84 " fill="none" id="*start*-to-n_window" style="stroke:#181818;stroke-width:1.0;"/><polygon fill="#181818" points="394,86.84,398,77.84,394,81.84,390,77.84,394,86.84" style="stroke:#181818;stroke-width:1.0;"/></g><!--link n_window to n_door--><g id="link_n_window_n_door"><path d="M394,137.1 C394,159.24 394,185.86 394,207.97 " fill="none" id="n_window-to-n_door" style="stroke:#181818;stroke-width:1.0;"/><polygon fill="#181818" points="394,213.97,398,204.97,394,208.97,390,204.97,394,213.97" style="stroke:#181818;stroke-width:1.0;"/><text fill="#000000" font-family="Roboto" font-size="13" lengthAdjust="spacing" textLength="171.8438" x="395" y="180.0669">Put on boots and raincoat.</text></g><!--link n_door to n_gate--><g id="link_n_door_n_gate"><path d="M394,264.1 C394,286.24 394,312.86 394,334.97 " fill="none" id="n_door-to-n_gate" style="stroke:#181818;stroke-width:1.0;"/><polygon fill="#181818" points="394,340.97,398,331.97,394,335.97,390,331.97,394,340.97" style="stroke:#181818;stroke-width:1.0;"/><text fill="#000000" font-family="Roboto" font-size="13" lengthAdjust="spacing" textLength="182.1396" x="395" y="307.0669">Step outside with Grandma.</text></g><!--link n_gate to n_corner--><g id="link_n_gate_n_corner"><path d="M394,391.1 C394,413.24 394,439.86 394,461.97 " fill="none" id="n_gate-to-n_corner" style="stroke:#181818;stroke-width:1.0;"/><polygon fill="#181818" points="394,467.97,398,458.97,394,462.97,390,458.97,394,467.97" style="stroke:#181818;stroke-width:1.0;"/><text fill="#000000" font-family="Roboto" font-size="13" lengthAdjust="spacing" textLength="124.9028" x="395" y="434.0669">Walk to the corner.</text></g><!--link n_corner to n_lane--><g id="link_n_corner_n_lane"><path d="M346.28,504.58 C322.94,512.42 296.92,525.74 283,548 C274.36,561.81 274.2016,574.3771 277.2616,589.0071 " fill="none" id="n_corner-to-n_lane" style="stroke:#181818;stroke-width:1.0;"/><polygon fill="#181818" points="278.49,594.88,280.5627,585.2517,277.4664,589.9859,272.7322,586.8895,278.49,594.88" style="stroke:#181818;stroke-width:1.0;"/><text fill="#000000" font-family="Roboto" font-size="13" lengthAdjust="spacing" textLength="169.0889" x="284" y="561.0669">Take the drippy tree lane.</text></g><!--link n_corner to n_hill--><g id="link_n_corner_n_hill"><path d="M429.9,518.22 C441.02,526.8 452.76,537.06 462,548 C473.88,562.08 481.2512,574.9177 488.1112,589.3977 " fill="none" id="n_corner-to-n_hill" style="stroke:#181818;stroke-width:1.0;"/><polygon fill="#181818" points="490.68,594.82,490.4416,584.974,488.5393,590.3014,483.2119,588.3991,490.68,594.82" style="stroke:#181818;stroke-width:1.0;"/><text fill="#000000" font-family="Roboto" font-size="13" lengthAdjust="spacing" textLength="191.3945" x="475" y="561.0669">Take the hill with the stream.</text></g><!--link n_lane to n_wiggle--><g id="link_n_lane_n_wiggle"><path d="M284.84,645.1 C283.78,667.24 282.4973,693.8669 281.4373,715.9769 " fill="none" id="n_lane-to-n_wiggle" style="stroke:#181818;stroke-width:1.0;"/><polygon fill="#181818" points="281.15,721.97,285.5764,713.1719,281.3894,716.9757,277.5856,712.7888,281.15,721.97" style="stroke:#181818;stroke-width:1.0;"/><text fill="#000000" font-family="Roboto" font-size="13" lengthAdjust="spacing" textLength="166.9243" x="285" y="688.0669">Look closer at the wiggle.</text></g><!--link n_wiggle to n_worm_carry--><g id="link_n_wiggle_n_worm_carry"><path d="M232.27,754.49 C199.09,761.26 155.82,774.87 127,802 C113.85,814.38 107.8368,827.6719 103.5668,842.9319 " fill="none" id="n_wiggle-to-n_worm_carry" style="stroke:#181818;stroke-width:1.0;"/><polygon fill="#181818" points="101.95,848.71,108.2272,841.1208,103.2973,843.895,100.5232,838.965,101.95,848.71" style="stroke:#181818;stroke-width:1.0;"/><text fill="#000000" font-family="Roboto" font-size="13" lengthAdjust="spacing" textLength="140.9497" x="128" y="815.0669">Help the worm home.</text></g><!--link n_wiggle to n_mirror--><g id="link_n_wiggle_n_mirror"><path d="M277.5,772.02 C276.44,785.79 275.71,803.38 277,819 C277.82,828.85 278.3957,833.7034 280.0557,843.0034 " fill="none" id="n_wiggle-to-n_mirror" style="stroke:#181818;stroke-width:1.0;"/><polygon fill="#181818" points="281.11,848.91,283.4663,839.3472,280.2314,843.9878,275.5908,840.7529,281.11,848.91" style="stroke:#181818;stroke-width:1.0;"/><text fill="#000000" font-family="Roboto" font-size="13" lengthAdjust="spacing" textLength="180.7686" x="278" y="815.0669">Tiptoe to the mirror puddle.</text></g><!--link n_worm_carry to n_worm_end--><g id="link_n_worm_carry_n_worm_end"><path d="M90.48,899 C88.27,908.3 86.09,919.07 85,929 C80.2,972.77 82.1295,1017.7777 84.5895,1049.7377 " fill="none" id="n_worm_carry-to-n_worm_end" style="stroke:#181818;stroke-width:1.0;"/><polygon fill="#181818" points="85.05,1055.72,88.3475,1046.4396,84.6663,1050.7347,80.3711,1047.0535,85.05,1055.72" style="stroke:#181818;stroke-width:1.0;"/><text fill="#000000" font-family="Roboto" font-size="13" lengthAdjust="spacing" textLength="175.9063" x="86" y="942.0669">Set the worm down gently.</text></g><!--link n_mirror to n_mirror_climax--><g id="link_n_mirror_n_mirror_climax"><path d="M280.41,899.1 C275.27,921.24 269.0561,948.0153 263.9261,970.1253 " fill="none" id="n_mirror-to-n_mirror_climax" style="stroke:#181818;stroke-width:1.0;"/><polygon fill="#181818" points="262.57,975.97,268.5007,968.107,263.7001,971.0994,260.7077,966.2988,262.57,975.97" style="stroke:#181818;stroke-width:1.0;"/><text fill="#000000" font-family="Roboto" font-size="13" lengthAdjust="spacing" textLength="147.0308" x="275" y="942.0669">Count one, two, three!</text></g><!--link n_mirror_climax to n_splash_end--><g id="link_n_mirror_climax_n_splash_end"><path d="M235.88,1026.16 C229.49,1034.95 223.3,1045.36 220,1056 C211.58,1083.17 210.56,1093.17 220,1120 C223.79,1130.76 226.6321,1136.3366 233.7521,1145.2766 " fill="none" id="n_mirror_climax-to-n_splash_end" style="stroke:#181818;stroke-width:1.0;"/><polygon fill="#181818" points="237.49,1149.97,235.0121,1140.438,234.3751,1146.0588,228.7542,1145.4219,237.49,1149.97" style="stroke:#181818;stroke-width:1.0;"/><text fill="#000000" font-family="Roboto" font-size="13" lengthAdjust="spacing" textLength="233.6318" x="221" y="1092.5669">Come down with a great big splash.</text></g><!--link n_hill to n_stream_fork--><g id="link_n_hill_n_stream_fork"><path d="M501.19,645.1 C501.37,667.24 501.5812,693.8602 501.7612,715.9702 " fill="none" id="n_hill-to-n_stream_fork" style="stroke:#181818;stroke-width:1.0;"/><polygon fill="#181818" points="501.81,721.97,505.7366,712.9377,501.7693,716.9702,497.7369,713.0029,501.81,721.97" style="stroke:#181818;stroke-width:1.0;"/><text fill="#000000" font-family="Roboto" font-size="13" lengthAdjust="spacing" textLength="155.9048" x="502" y="688.0669">Follow the busy stream.</text></g><!--link n_stream_fork to n_race--><g id="link_n_stream_fork_n_race"><path d="M500.65,772.1 C499.41,794.24 497.9133,820.8693 496.6833,842.9793 " fill="none" id="n_stream_fork-to-n_race" style="stroke:#181818;stroke-width:1.0;"/><polygon fill="#181818" points="496.35,848.97,500.8437,840.2061,496.6277,843.9777,492.8561,839.7617,496.35,848.97" style="stroke:#181818;stroke-width:1.0;"/><text fill="#000000" font-family="Roboto" font-size="13" lengthAdjust="spacing" textLength="110.062" x="500" y="815.0669">Race a leaf boat.</text></g><!--link n_stream_fork to n_downhill--><g id="link_n_stream_fork_n_downhill"><path d="M562.27,768.76 C581.63,777.2 602.35,788.26 619,802 C634.68,814.95 644.8225,828.6514 653.8825,843.6814 " fill="none" id="n_stream_fork-to-n_downhill" style="stroke:#181818;stroke-width:1.0;"/><polygon fill="#181818" points="656.98,848.82,655.7595,839.0471,654.3987,844.5378,648.908,843.1771,656.98,848.82" style="stroke:#181818;stroke-width:1.0;"/><text fill="#000000" font-family="Roboto" font-size="13" lengthAdjust="spacing" textLength="174.313" x="636" y="815.0669">Follow the sunbeam down.</text></g><!--link n_race to n_race_finish--><g id="link_n_race_n_race_finish"><path d="M491.74,899.15 C490.63,908.46 489.54,919.21 489,929 C488.14,944.53 488.5812,955.9925 489.7712,969.7025 " fill="none" id="n_race-to-n_race_finish" style="stroke:#181818;stroke-width:1.0;"/><polygon fill="#181818" points="490.29,975.68,493.4968,966.3678,489.8576,970.6987,485.5267,967.0596,490.29,975.68" style="stroke:#181818;stroke-width:1.0;"/><text fill="#000000" font-family="Roboto" font-size="13" lengthAdjust="spacing" textLength="139.0708" x="490" y="942.0669">Run to the finish line.</text></g><!--link n_race_finish to n_race_end--><g id="link_n_race_finish_n_race_end"><path d="M489.36,1026.14 C484.54,1058.11 476.9133,1108.6069 471.6133,1143.8069 " fill="none" id="n_race_finish-to-n_race_end" style="stroke:#181818;stroke-width:1.0;"/><polygon fill="#181818" points="470.72,1149.74,476.0154,1141.4359,471.4644,1144.7957,468.1046,1140.2448,470.72,1149.74" style="stroke:#181818;stroke-width:1.0;"/><text fill="#000000" font-family="Roboto" font-size="13" lengthAdjust="spacing" textLength="128.813" x="486" y="1092.5669">Catch the leaf boat.</text></g><!--link n_downhill to n_sky--><g id="link_n_downhill_n_sky"><path d="M670.39,899.1 C670.74,921.24 671.1623,947.8608 671.5223,969.9708 " fill="none" id="n_downhill-to-n_sky" style="stroke:#181818;stroke-width:1.0;"/><polygon fill="#181818" points="671.62,975.97,675.4729,966.9061,671.5386,970.9707,667.474,967.0363,671.62,975.97" style="stroke:#181818;stroke-width:1.0;"/><text fill="#000000" font-family="Roboto" font-size="13" lengthAdjust="spacing" textLength="124.2236" x="672" y="942.0669">Look up at the sky.</text></g><!--link n_sky to n_rainbow_end--><g id="link_n_sky_n_rainbow_end"><path d="M671.06,1026.14 C669.81,1058.11 667.835,1108.5446 666.455,1143.7446 " fill="none" id="n_sky-to-n_rainbow_end" style="stroke:#181818;stroke-width:1.0;"/><polygon fill="#181818" points="666.22,1149.74,670.5695,1140.9036,666.4159,1144.7438,662.5756,1140.5902,666.22,1149.74" style="stroke:#181818;stroke-width:1.0;"/><text fill="#000000" font-family="Roboto" font-size="13" lengthAdjust="spacing" textLength="157.0537" x="670" y="1092.5669">See what the sky made.</text></g><!--link n_worm_end to *end*--><g id="link_n_worm_end_*end*"><path d="M103.6,1120.26 C119.03,1148.3 145.08,1188.81 178,1214 C236.18,1258.51 319.4346,1276.6087 350.2046,1282.1387 " fill="none" id="n_worm_end-to-*end*" style="stroke:#181818;stroke-width:1.0;"/><polygon fill="#181818" points="356.11,1283.2,347.9595,1277.6711,351.1888,1282.3156,346.5444,1285.5449,356.11,1283.2" style="stroke:#181818;stroke-width:1.0;"/></g><!--link n_splash_end to *end*--><g id="link_n_splash_end_*end*"><path d="M298.94,1214.16 C320.1,1236.19 342.7331,1259.7433 355.4631,1272.9933 " fill="none" id="n_splash_end-to-*end*" style="stroke:#181818;stroke-width:1.0;"/><polygon fill="#181818" points="359.62,1277.32,356.2691,1268.0587,356.1559,1273.7144,350.5002,1273.6012,359.62,1277.32" style="stroke:#181818;stroke-width:1.0;"/></g><!--link n_race_end to *end*--><g id="link_n_race_end_*end*"><path d="M435.76,1214.16 C414.38,1236.19 391.5005,1259.7661 378.6305,1273.0161 " fill="none" id="n_race_end-to-*end*" style="stroke:#181818;stroke-width:1.0;"/><polygon fill="#181818" points="374.45,1277.32,383.59,1273.6511,377.9337,1273.7334,377.8514,1268.0772,374.45,1277.32" style="stroke:#181818;stroke-width:1.0;"/></g><!--link n_rainbow_end to *end*--><g id="link_n_rainbow_end_*end*"><path d="M583.96,1210.74 C510.54,1235.87 414.7765,1268.6464 382.7665,1279.6064 " fill="none" id="n_rainbow_end-to-*end*" style="stroke:#181818;stroke-width:1.0;"/><polygon fill="#181818" points="377.09,1281.55,386.9005,1282.4189,381.8204,1279.9303,384.309,1274.8503,377.09,1281.55" style="stroke:#181818;stroke-width:1.0;"/></g><rect fill="none" height="107.7813" id="_legend" rx="4" ry="4" style="stroke:#000000;stroke-width:1.0;" width="251.5068" x="557.5469" y="1314"/><text fill="#000000" font-family="Roboto" font-size="14" lengthAdjust="spacing" textLength="141.3125" x="562.5469" y="1331.9951">Puddle Jumping Day</text><text fill="#000000" font-family="Roboto" font-size="14" lengthAdjust="spacing" textLength="181.6172" x="562.5469" y="1348.292">Band 3-5 &#183; Tier 1 &#183; ~3 min</text><text fill="#000000" font-family="Roboto" font-size="14" lengthAdjust="spacing" textLength="145.168" x="562.5469" y="1364.5889">Topology: time_cave</text><text fill="#000000" font-family="Roboto" font-size="14" lengthAdjust="spacing" textLength="241.5068" x="562.5469" y="1380.8857">19 nodes &#183; 4 endings (4+ / 0n / 0-)</text><text fill="#000000" font-family="Roboto" font-size="14" lengthAdjust="spacing" textLength="130.6484" x="562.5469" y="1397.1826">Production-eligible</text><text fill="#000000" font-family="Roboto" font-size="14" lengthAdjust="spacing" textLength="135.2764" x="562.5469" y="1413.4795">Scale: short &#183; prose</text></g></svg>