<svg xmlns="http://www.w3.org/2000/svg" xmlns:xlink="http://www.w3.org/1999/xlink" contentStyleType="text/css" height="1045px" preserveAspectRatio="none" style="width:1059px;height:1045px;background:#FAFAFA;" version="1.1" viewBox="0 0 1059 1045" width="1059px" zoomAndPan="magnify"><defs><style type="text/css">@import url('https://fonts.googleapis.com/css?family=Roboto:400,100,100italic,300,300italic,400italic,500,500italic,700,700italic,900,900italic');</style></defs><g><rect fill="#FAFAFA" height="1045" style="stroke:none;stroke-width:1.0;" width="1059" x="0" y="0"/><ellipse cx="535.07" cy="16" fill="#222222" rx="10" ry="10" style="stroke:#222222;stroke-width:1.0;"/><g id="n_start"><rect fill="#BBDEFB" height="50.4688" rx="4" ry="4" style="stroke:#181818;stroke-width:0.5;" width="81.4297" x="494.57" y="87"/><line style="stroke:#181818;stroke-width:0.5;" x1="494.57" x2="575.9997" y1="113.4063" y2="113.4063"/><text fill="#000000" font-family="Roboto" font-size="14" lengthAdjust="spacing" textLength="42.793" x="513.8884" y="104.9883">n_start</text><text fill="#000000" font-family="Roboto" font-size="12" lengthAdjust="spacing" textLength="61.4297" x="499.57" y="129.5391">setup &#183; 85w</text></g><g id="n_pine"><rect fill="#D1C4E9" height="50.4688" rx="4" ry="4" style="stroke:#181818;stroke-width:0.5;" width="81.0547" x="222.57" y="214"/><line style="stroke:#181818;stroke-width:0.5;" x1="222.57" x2="303.6247" y1="240.4063" y2="240.4063"/><text fill="#000000" font-family="Roboto" font-size="14" lengthAdjust="spacing" textLength="40.4688" x="242.863" y="231.9883">n_pine</text><text fill="#000000" font-family="Roboto" font-size="12" lengthAdjust="spacing" textLength="61.0547" x="227.57" y="256.5391">rising &#183; 80w</text></g><g id="n_rabbit"><rect fill="#D1C4E9" height="50.4688" rx="4" ry="4" style="stroke:#181818;stroke-width:0.5;" width="81.0547" x="528.57" y="214"/><line style="stroke:#181818;stroke-width:0.5;" x1="528.57" x2="609.6247" y1="240.4063" y2="240.4063"/><text fill="#000000" font-family="Roboto" font-size="14" lengthAdjust="spacing" textLength="50.1143" x="544.0402" y="231.9883">n_rabbit</text><text fill="#000000" font-family="Roboto" font-size="12" lengthAdjust="spacing" textLength="61.0547" x="533.57" y="256.5391">rising &#183; 80w</text></g><g id="n_sled"><rect fill="#D1C4E9" height="50.4688" rx="4" ry="4" style="stroke:#181818;stroke-width:0.5;" width="81.0547" x="745.57" y="214"/><line style="stroke:#181818;stroke-width:0.5;" x1="745.57" x2="826.6247" y1="240.4063" y2="240.4063"/><text fill="#000000" font-family="Roboto" font-size="14" lengthAdjust="spacing" textLength="39.9971" x="766.0988" y="231.9883">n_sled</text><text fill="#000000" font-family="Roboto" font-size="12" lengthAdjust="spacing" textLength="61.0547" x="750.57" y="256.5391">rising &#183; 80w</text></g><g id="n_creek"><rect fill="#FFF9C4" height="50.4688" rx="4" ry="4" style="stroke:#181818;stroke-width:0.5;" width="86.8906" x="525.57" y="341"/><line style="stroke:#181818;stroke-width:0.5;" x1="525.57" x2="612.4606" y1="367.4063" y2="367.4063"/><text fill="#000000" font-family="Roboto" font-size="14" lengthAdjust="spacing" textLength="48.0635" x="544.9836" y="358.9883">n_creek</text><text fill="#000000" font-family="Roboto" font-size="12" lengthAdjust="spacing" textLength="66.8906" x="530.57" y="383.5391">choice &#183; 85w</text></g><g id="n_birds"><rect fill="#D1C4E9" height="50.4688" rx="4" ry="4" style="stroke:#181818;stroke-width:0.5;" width="81.0547" x="528.57" y="468"/><line style="stroke:#181818;stroke-width:0.5;" x1="528.57" x2="609.6247" y1="494.4063" y2="494.4063"/><text fill="#000000" font-family="Roboto" font-size="14" lengthAdjust="spacing" textLength="45.1787" x="546.508" y="485.9883">n_birds</text><text fill="#000000" font-family="Roboto" font-size="12" lengthAdjust="spacing" textLength="61.0547" x="533.57" y="510.5391">rising &#183; 80w</text></g><g id="n_help"><rect fill="#D1C4E9" height="50.4688" rx="4" ry="4" style="stroke:#181818;stroke-width:0.5;" width="81.0547" x="377.57" y="602.5"/><line style="stroke:#181818;stroke-width:0.5;" x1="377.57" x2="458.6247" y1="628.9063" y2="628.9063"/><text fill="#000000" font-family="Roboto" font-size="14" lengthAdjust="spacing" textLength="40.4482" x="397.8732" y="620.4883">n_help</text><text fill="#000000" font-family="Roboto" font-size="12" lengthAdjust="spacing" textLength="61.0547" x="382.57" y="645.0391">rising &#183; 80w</text></g><g id="n_cocoa"><rect fill="#D1C4E9" height="50.4688" rx="4" ry="4" style="stroke:#181818;stroke-width:0.5;" width="81.0547" x="243.57" y="468"/><line style="stroke:#181818;stroke-width:0.5;" x1="243.57" x2="324.6247" y1="494.4063" y2="494.4063"/><text fill="#000000" font-family="Roboto" font-size="14" lengthAdjust="spacing" textLength="52.2881" x="257.9533" y="485.9883">n_cocoa</text><text fill="#000000" font-family="Roboto" font-size="12" lengthAdjust="spacing" textLength="61.0547" x="248.57" y="510.5391">rising &#183; 80w</text></g><g id="n_found"><rect fill="#C8E6C9" height="64.5313" rx="4" ry="4" style="stroke:#181818;stroke-width:0.5;" width="132.957" x="532.57" y="595"/><line style="stroke:#181818;stroke-width:0.5;" x1="532.57" x2="665.527" y1="621.4063" y2="621.4063"/><text fill="#000000" font-family="Roboto" font-size="14" lengthAdjust="spacing" textLength="50.2441" x="573.9264" y="612.9883">n_found</text><text fill="#000000" font-family="Roboto" font-size="12" lengthAdjust="spacing" textLength="112.957" x="537.57" y="637.5391">completion (positive)</text><text fill="#000000" font-family="Roboto" font-size="12" lengthAdjust="spacing" textLength="88.5352" x="537.57" y="651.6016">"The Red Mitten"</text></g><g id="n_together"><rect fill="#C8E6C9" height="64.5313" rx="4" ry="4" style="stroke:#181818;stroke-width:0.5;" width="132.957" x="351.57" y="785"/><line style="stroke:#181818;stroke-width:0.5;" x1="351.57" x2="484.527" y1="811.4063" y2="811.4063"/><text fill="#000000" font-family="Roboto" font-size="14" lengthAdjust="spacing" textLength="66.3564" x="384.8703" y="802.9883">n_together</text><text fill="#000000" font-family="Roboto" font-size="12" lengthAdjust="spacing" textLength="112.957" x="356.57" y="827.5391">completion (positive)</text><text fill="#000000" font-family="Roboto" font-size="12" lengthAdjust="spacing" textLength="92.2207" x="356.57" y="841.6016">"Found Together"</text></g><g id="n_surprise"><rect fill="#C8E6C9" height="64.5313" rx="4" ry="4" style="stroke:#181818;stroke-width:0.5;" width="117.0957" x="174.57" y="690"/><line style="stroke:#181818;stroke-width:0.5;" x1="174.57" x2="291.6657" y1="716.4063" y2="716.4063"/><text fill="#000000" font-family="Roboto" font-size="14" lengthAdjust="spacing" textLength="64.3945" x="200.9206" y="707.9883">n_surprise</text><text fill="#000000" font-family="Roboto" font-size="12" lengthAdjust="spacing" textLength="97.0957" x="179.57" y="732.5391">success (positive)</text><text fill="#000000" font-family="Roboto" font-size="12" lengthAdjust="spacing" textLength="91.8398" x="179.57" y="746.6016">"A Cozy Surprise"</text></g><ellipse cx="418.07" cy="922" fill="none" rx="11" ry="11" style="stroke:#222222;stroke-width:1.0;"/><ellipse cx="418.07" cy="922" fill="#222222" rx="6" ry="6" style="stroke:#222222;stroke-width:1.0;"/><!--link *start* to n_start--><g id="link_*start*_n_start"><path d="M535.07,26.01 C535.07,39.89 535.07,60.97 535.07,80.84 " fill="none" id="*start*-to-n_start" style="stroke:#181818;stroke-width:1.0;"/><polygon fill="#181818" points="535.07,86.84,539.07,77.84,535.07,81.84,531.07,77.84,535.07,86.84" style="stroke:#181818;stroke-width:1.0;"/></g><!--link n_start to n_pine--><g id="link_n_start_n_pine"><path d="M494.24,114.54 C383.57,119.12 84.17,134.45 55.07,167 C6,221.91 143.1444,234.1506 216.5744,236.9606 " fill="none" id="n_start-to-n_pine" style="stroke:#181818;stroke-width:1.0;"/><polygon fill="#181818" points="222.57,237.19,213.7295,232.8488,217.5737,236.9988,213.4236,240.8429,222.57,237.19" style="stroke:#181818;stroke-width:1.0;"/><text fill="#000000" font-family="Roboto" font-size="13" lengthAdjust="spacing" textLength="163.9917" x="56.07" y="180.0605">Look under the big pine tree.</text></g><!--link n_pine to n_start--><g id="link_n_pine_n_start"><path d="M265.56,213.92 C268.44,198.36 274.66,178.86 288.07,167 C318.29,140.29 426.4281,124.7851 488.4181,117.7651 " fill="none" id="n_pine-to-n_start" style="stroke:#181818;stroke-width:1.0;"/><polygon fill="#181818" points="494.38,117.09,484.9871,114.1281,489.4118,117.6526,485.8873,122.0773,494.38,117.09" style="stroke:#181818;stroke-width:1.0;"/><text fill="#000000" font-family="Roboto" font-size="13" lengthAdjust="spacing" textLength="147.4243" x="289.07" y="180.0605">Go back to the snowy hill.</text></g><!--link n_start to n_rabbit--><g id="link_n_start_n_rabbit"><path d="M494.35,127.15 C465.11,139.7 433.41,159.77 449.07,184 C466.5,210.95 495.1256,223.1492 522.6556,229.9592 " fill="none" id="n_start-to-n_rabbit" style="stroke:#181818;stroke-width:1.0;"/><polygon fill="#181818" points="528.48,231.4,520.7038,225.3559,523.6263,230.1994,518.7828,233.1218,528.48,231.4" style="stroke:#181818;stroke-width:1.0;"/><text fill="#000000" font-family="Roboto" font-size="13" lengthAdjust="spacing" textLength="124.1157" x="450.07" y="180.0605">Ask Hoppy the rabbit.</text></g><!--link n_rabbit to n_start--><g id="link_n_rabbit_n_start"><path d="M578.08,213.76 C581.92,199.76 584.42,182.01 579.07,167 C575.18,156.06 571.9347,150.277 564.5047,141.647 " fill="none" id="n_rabbit-to-n_start" style="stroke:#181818;stroke-width:1.0;"/><polygon fill="#181818" points="560.59,137.1,563.4308,146.5303,563.8523,140.8891,569.4934,141.3106,560.59,137.1" style="stroke:#181818;stroke-width:1.0;"/><text fill="#000000" font-family="Roboto" font-size="13" lengthAdjust="spacing" textLength="126.0708" x="583.07" y="180.0605">Look again on the hill.</text></g><!--link n_start to n_sled--><g id="link_n_start_n_sled"><path d="M575.71,118.78 C614.52,125.68 673.51,139.87 718.07,167 C737.9,179.07 752.0753,193.6961 764.5553,209.1161 " fill="none" id="n_start-to-n_sled" style="stroke:#181818;stroke-width:1.0;"/><polygon fill="#181818" points="768.33,213.78,765.7773,204.2677,765.1844,209.8934,759.5587,209.3006,768.33,213.78" style="stroke:#181818;stroke-width:1.0;"/><text fill="#000000" font-family="Roboto" font-size="13" lengthAdjust="spacing" textLength="145.5073" x="740.07" y="180.0605">Check the sledding track.</text></g><!--link n_sled to n_start--><g id="link_n_sled_n_start"><path d="M826.83,227.99 C866.7,216.31 918.16,194.97 894.07,167 C853.37,119.71 666.8699,113.3045 581.7399,112.8145 " fill="none" id="n_sled-to-n_start" style="stroke:#181818;stroke-width:1.0;"/><polygon fill="#181818" points="575.74,112.78,584.7168,116.8317,580.7399,112.8088,584.7629,108.8319,575.74,112.78" style="stroke:#181818;stroke-width:1.0;"/><text fill="#000000" font-family="Roboto" font-size="13" lengthAdjust="spacing" textLength="150.1221" x="901.07" y="180.0605">Try the hill one more time.</text></g><!--link n_pine to n_creek--><g id="link_n_pine_n_creek"><path d="M291.75,264.05 C311.32,279.41 338.44,298.68 365.07,311 C417.61,335.31 477.0999,349.0897 519.4699,356.9197 " fill="none" id="n_pine-to-n_creek" style="stroke:#181818;stroke-width:1.0;"/><polygon fill="#181818" points="525.37,358.01,517.2467,352.4411,520.4533,357.1014,515.793,360.3079,525.37,358.01" style="stroke:#181818;stroke-width:1.0;"/><text fill="#000000" font-family="Roboto" font-size="13" lengthAdjust="spacing" textLength="194.1304" x="366.07" y="307.0605">Follow the footprints to the creek.</text></g><!--link n_rabbit to n_creek--><g id="link_n_rabbit_n_creek"><path d="M569.07,264.1 C569.07,286.24 569.07,312.86 569.07,334.97 " fill="none" id="n_rabbit-to-n_creek" style="stroke:#181818;stroke-width:1.0;"/><polygon fill="#181818" points="569.07,340.97,573.07,331.97,569.07,335.97,565.07,331.97,569.07,340.97" style="stroke:#181818;stroke-width:1.0;"/><text fill="#000000" font-family="Roboto" font-size="13" lengthAdjust="spacing" textLength="133.5674" x="570.07" y="307.0605">Hop down to the creek.</text></g><!--link n_sled to n_creek--><g id="link_n_sled_n_creek"><path d="M765.42,264.33 C751.58,279.41 732.25,298.27 712.07,311 C681.22,330.47 647.9925,342.8613 618.5325,351.7813 " fill="none" id="n_sled-to-n_creek" style="stroke:#181818;stroke-width:1.0;"/><polygon fill="#181818" points="612.79,353.52,622.563,354.7402,617.5754,352.071,620.2446,347.0835,612.79,353.52" style="stroke:#181818;stroke-width:1.0;"/><text fill="#000000" font-family="Roboto" font-size="13" lengthAdjust="spacing" textLength="196.4917" x="735.07" y="307.0605">Follow the red thread to the creek.</text></g><!--link n_creek to n_found--><g id="link_n_creek_n_found"><path d="M612.75,366.86 C654.39,369.33 715.19,380.31 746.07,421 C784.77,471.99 784.73,511.84 749.07,565 C730.42,592.81 702.4803,606.4877 671.7303,614.8377 " fill="none" id="n_creek-to-n_found" style="stroke:#181818;stroke-width:1.0;"/><polygon fill="#181818" points="665.94,616.41,675.6737,617.9117,670.7653,615.0997,673.5773,610.1913,665.94,616.41" style="stroke:#181818;stroke-width:1.0;"/><text fill="#000000" font-family="Roboto" font-size="13" lengthAdjust="spacing" textLength="203.9883" x="776.07" y="497.5605">Reach for the red thing in the snow.</text></g><!--link n_creek to n_birds--><g id="link_n_creek_n_birds"><path d="M569.07,391.1 C569.07,413.24 569.07,439.86 569.07,461.97 " fill="none" id="n_creek-to-n_birds" style="stroke:#181818;stroke-width:1.0;"/><polygon fill="#181818" points="569.07,467.97,573.07,458.97,569.07,462.97,565.07,458.97,569.07,467.97" style="stroke:#181818;stroke-width:1.0;"/><text fill="#000000" font-family="Roboto" font-size="13" lengthAdjust="spacing" textLength="167.4448" x="570.07" y="434.0605">Look up at the chirping birds.</text></g><!--link n_creek to n_cocoa--><g id="link_n_creek_n_cocoa"><path d="M525.32,373.67 C484.1,381.16 421.48,395.71 372.07,421 C348.31,433.17 329.3672,448.3686 312.6972,463.7686 " fill="none" id="n_creek-to-n_cocoa" style="stroke:#181818;stroke-width:1.0;"/><polygon fill="#181818" points="308.29,467.84,317.6151,464.671,311.9627,464.4471,312.1865,458.7947,308.29,467.84" style="stroke:#181818;stroke-width:1.0;"/><text fill="#000000" font-family="Roboto" font-size="13" lengthAdjust="spacing" textLength="187.5986" x="373.07" y="434.0605">Follow the smell of cocoa home.</text></g><!--link n_birds to n_found--><g id="link_n_birds_n_found"><path d="M574.58,518.3 C579.45,539.82 585.2647,565.5082 590.5847,588.9982 " fill="none" id="n_birds-to-n_found" style="stroke:#181818;stroke-width:1.0;"/><polygon fill="#181818" points="591.91,594.85,593.8232,585.1888,590.8056,589.9735,586.0208,586.9558,591.91,594.85" style="stroke:#181818;stroke-width:1.0;"/><text fill="#000000" font-family="Roboto" font-size="13" lengthAdjust="spacing" textLength="155.0542" x="585.07" y="561.0605">Gently lift the mitten down.</text></g><!--link n_birds to n_help--><g id="link_n_birds_n_help"><path d="M528.34,499.28 C497.23,505.52 455.8,519.02 432.07,548 C419.71,563.1 416.7872,579.3804 416.5972,596.3504 " fill="none" id="n_birds-to-n_help" style="stroke:#181818;stroke-width:1.0;"/><polygon fill="#181818" points="416.53,602.35,420.6305,593.3953,416.586,597.3503,412.631,593.3058,416.53,602.35" style="stroke:#181818;stroke-width:1.0;"/><text fill="#000000" font-family="Roboto" font-size="13" lengthAdjust="spacing" textLength="139.6992" x="433.07" y="561.0605">Call your friends to help.</text></g><!--link n_help to n_together--><g id="link_n_help_n_together"><path d="M417.59,652.74 C417.39,664.06 417.17,677.72 417.07,690 C416.84,718.89 416.84,726.11 417.07,755 C417.15,764.72 417.2,769.3008 417.36,778.9008 " fill="none" id="n_help-to-n_together" style="stroke:#181818;stroke-width:1.0;"/><polygon fill="#181818" points="417.46,784.9,421.3095,775.8346,417.3767,779.9007,413.3106,775.9679,417.46,784.9" style="stroke:#181818;stroke-width:1.0;"/><text fill="#000000" font-family="Roboto" font-size="13" lengthAdjust="spacing" textLength="153.061" x="418.07" y="727.0605">Reach the mitten together.</text></g><!--link n_cocoa to n_surprise--><g id="link_n_cocoa_n_surprise"><path d="M264.23,518.14 C257.98,527.01 251.76,537.47 248.07,548 C231.47,595.36 229.9179,648.2528 230.9979,683.8128 " fill="none" id="n_cocoa-to-n_surprise" style="stroke:#181818;stroke-width:1.0;"/><polygon fill="#181818" points="231.18,689.81,234.9049,680.6927,231.0282,684.8123,226.9086,680.9356,231.18,689.81" style="stroke:#181818;stroke-width:1.0;"/><text fill="#000000" font-family="Roboto" font-size="13" lengthAdjust="spacing" textLength="165.7246" x="249.07" y="561.0605">See what fell out of the boot.</text></g><!--link n_found to *end*--><g id="link_n_found_*end*"><path d="M597.52,660.15 C595.26,686.52 589.71,724.54 576.07,755 C541.46,832.35 460.0237,892.5146 431.9737,911.6846 " fill="none" id="n_found-to-*end*" style="stroke:#181818;stroke-width:1.0;"/><polygon fill="#181818" points="427.02,915.07,436.7075,913.2943,431.1481,912.2488,432.1935,906.6894,427.02,915.07" style="stroke:#181818;stroke-width:1.0;"/></g><!--link n_together to *end*--><g id="link_n_together_*end*"><path d="M418.07,850.09 C418.07,870.8 418.07,890.55 418.07,904.62 " fill="none" id="n_together-to-*end*" style="stroke:#181818;stroke-width:1.0;"/><polygon fill="#181818" points="418.07,910.62,422.07,901.62,418.07,905.62,414.07,901.62,418.07,910.62" style="stroke:#181818;stroke-width:1.0;"/></g><!--link n_surprise to *end*--><g id="link_n_surprise_*end*"><path d="M255.57,755.06 C275.06,781.54 304.69,819.78 334.07,850 C359.5,876.15 388.9555,899.1927 404.7055,911.0427 " fill="none" id="n_surprise-to-*end*" style="stroke:#181818;stroke-width:1.0;"/><polygon fill="#181818" points="409.5,914.65,404.7131,906.0427,405.5046,911.6439,399.9034,912.4354,409.5,914.65" style="stroke:#181818;stroke-width:1.0;"/></g><rect fill="none" height="75.625" id="_legend" rx="4" ry="4" style="stroke:#000000;stroke-width:1.0;" width="220.417" x="812.7751" y="950"/><text fill="#000000" font-family="Roboto" font-size="14" lengthAdjust="spacing" textLength="97.7061" x="817.7751" y="967.9883">The Lost Mitten</text><text fill="#000000" font-family="Roboto" font-size="14" lengthAdjust="spacing" textLength="155.791" x="817.7751" y="984.3945">Band 3-5 &#183; Tier 1 &#183; ~5 min</text><text fill="#000000" font-family="Roboto" font-size="14" lengthAdjust="spacing" textLength="159.1406" x="817.7751" y="1000.8008">Topology: loop_and_grow</text><text fill="#000000" font-family="Roboto" font-size="14" lengthAdjust="spacing" textLength="210.417" x="817.7751" y="1017.207">11 nodes &#183; 3 endings (3+ / 0n / 0-)</text><!--SRC=[TLN1Rjim3BtxAuZqq7L3l1LjXxO31hHfqs7eDg3DRHW2nMPi8RPeIF82xx3VsdrVDago73T34C08oST7YYAfOtX0XLfOp66jgGQpmGejAVZy_Eqhh3emcPQDDMyrgXprCjgNkHI55hL9covDZk6EG945pALrNgLG-GVGEDMj0biY524CwJGn6waQmRwGurgqbPsJibz5ZJ1veXLPcemWAv5j2asjocTKaOQZ-OtxZH2zKJC_N2Qbp16mRcp7x25tIIf9lh_-0TFfHr1BOuMs2NyjHWcERc_lxkUtIPIlmQ1j6_Zx1ouljWEuaGhXwEvqTdv_bVJYDMXff2eyzjqEgyLgnRNOeNl58Rof-0fsQ2yUmcOQSSEbcC-lPkT9bAyXAqbck9_rIkhSZAY3V8YxnAePWRruC0_AI8p0GJw4NhkBWgFPvVtxcKC7cREckk6Uuck2LmqPQULFF1dP9mlkdoSknnTfBQh9G6YfGEujFU8SL8TfHv39t8TOz9eTisbrmuV04VEWujveimoDUKaxiazkO4Q_EdZkLPEXhq87zdtpIBI1rasLdv2LBC1RBDzckkSoDC-DsS0dQfhE-mJrFhZldLc9sSR3d29tDs8rZrCQMpUWO_FCgQfew_5h8ikPAsl0ajTuq9vZ79K7ybCQeKRHbXU0hAfqr_KlG_418AUj-e_z1Jho-pg9GaW559P99FS7FNWApKPRQXJvVt56ZZ7AGdS3DyT1g4dpNSZQtqMW3nwnBvzGP2NNIe-YkI9BDTHXtpMENhZw1eGDUPLIDyxLs_UTubIDZcPgT5ck8TXA2ba6-fTPydwtLGULN8TOjHyYN_vzbtxMPuAvEserlmYIjxvl0cTBupu8yD4WXLACwACj7RP2N-tTb3mZmhRa2gpzMLhhpkC7WRil7URV-V7o7W_kJZNGHLLI8RyqEM-WehG9W5iTZsHilpjOSyil4vnDBznsMaXcEtN_Vbzmviwye8RVcQAxXegeMJ9uoS_FbYsdf_p2yPlYu6V0GVZ2U0USlO6ty4wvp_GaONN8u1y0]--></g></svg>
