<svg xmlns="http://www.w3.org/2000/svg" xmlns:xlink="http://www.w3.org/1999/xlink" contentStyleType="text/css" height="1394px" preserveAspectRatio="none" style="width:1478px;height:1394px;background:#FAFAFA;" version="1.1" viewBox="0 0 1478 1394" width="1478px" zoomAndPan="magnify"><defs><style type="text/css">@import url('https://fonts.googleapis.com/css?family=Roboto:400,100,100italic,300,300italic,400italic,500,500italic,700,700italic,900,900italic');</style></defs><g><rect fill="#FAFAFA" height="1394" style="stroke:none;stroke-width:1.0;" width="1478" x="0" y="0"/><ellipse cx="871.5" cy="16" fill="#222222" rx="10" ry="10" style="stroke:#222222;stroke-width:1.0;"/><g id="n_start"><rect fill="#BBDEFB" height="50.2656" rx="4" ry="4" style="stroke:#181818;stroke-width:0.5;" width="90.0898" x="826.5" y="87"/><line style="stroke:#181818;stroke-width:0.5;" x1="826.5" x2="916.5898" y1="113.2969" y2="113.2969"/><text fill="#000000" font-family="Roboto" font-size="14" lengthAdjust="spacing" textLength="48.4805" x="847.3047" y="104.9951">n_start</text><text fill="#000000" font-family="Roboto" font-size="12" lengthAdjust="spacing" textLength="70.0898" x="831.5" y="129.4355">setup &#183; 42w</text></g><g id="n_moon"><rect fill="#BBDEFB" height="50.2656" rx="4" ry="4" style="stroke:#181818;stroke-width:0.5;" width="90.0898" x="826.5" y="214"/><line style="stroke:#181818;stroke-width:0.5;" x1="826.5" x2="916.5898" y1="240.2969" y2="240.2969"/><text fill="#000000" font-family="Roboto" font-size="14" lengthAdjust="spacing" textLength="55.5146" x="843.7876" y="231.9951">n_moon</text><text fill="#000000" font-family="Roboto" font-size="12" lengthAdjust="spacing" textLength="70.0898" x="831.5" y="256.4355">setup &#183; 40w</text></g><g id="n_ready"><rect fill="#FFF9C4" height="50.2656" rx="4" ry="4" style="stroke:#181818;stroke-width:0.5;" width="95.3867" x="824" y="341"/><line style="stroke:#181818;stroke-width:0.5;" x1="824" x2="919.3867" y1="367.2969" y2="367.2969"/><text fill="#000000" font-family="Roboto" font-size="14" lengthAdjust="spacing" textLength="55.9932" x="843.6968" y="358.9951">n_ready</text><text fill="#000000" font-family="Roboto" font-size="12" lengthAdjust="spacing" textLength="75.3867" x="829" y="383.4355">choice &#183; 40w</text></g><g id="n_cloud"><rect fill="#FFF9C4" height="50.2656" rx="4" ry="4" style="stroke:#181818;stroke-width:0.5;" width="95.3867" x="285" y="468"/><line style="stroke:#181818;stroke-width:0.5;" x1="285" x2="380.3867" y1="494.2969" y2="494.2969"/><text fill="#000000" font-family="Roboto" font-size="14" lengthAdjust="spacing" textLength="53.7852" x="305.8008" y="485.9951">n_cloud</text><text fill="#000000" font-family="Roboto" font-size="12" lengthAdjust="spacing" textLength="75.3867" x="290" y="510.4355">choice &#183; 40w</text></g><g id="n_cozy_retry"><rect fill="#D1C4E9" height="50.2656" rx="4" ry="4" style="stroke:#181818;stroke-width:0.5;" width="108.6689" x="7" y="595"/><line style="stroke:#181818;stroke-width:0.5;" x1="7" x2="115.6689" y1="621.2969" y2="621.2969"/><text fill="#000000" font-family="Roboto" font-size="14" lengthAdjust="spacing" textLength="88.6689" x="17" y="612.9951">n_cozy_retry</text><text fill="#000000" font-family="Roboto" font-size="12" lengthAdjust="spacing" textLength="69.6035" x="12" y="637.4355">rising &#183; 38w</text></g><g id="n_peek"><rect fill="#D1C4E9" height="50.2656" rx="4" ry="4" style="stroke:#181818;stroke-width:0.5;" width="89.6035" x="288.5" y="595"/><line style="stroke:#181818;stroke-width:0.5;" x1="288.5" x2="378.1035" y1="621.2969" y2="621.2969"/><text fill="#000000" font-family="Roboto" font-size="14" lengthAdjust="spacing" textLength="50.0938" x="308.2549" y="612.9951">n_peek</text><text fill="#000000" font-family="Roboto" font-size="12" lengthAdjust="spacing" textLength="69.6035" x="293.5" y="637.4355">rising &#183; 38w</text></g><g id="n_wiggle"><rect fill="#FFF9C4" height="50.2656" rx="4" ry="4" style="stroke:#181818;stroke-width:0.5;" width="95.3867" x="734" y="468"/><line style="stroke:#181818;stroke-width:0.5;" x1="734" x2="829.3867" y1="494.2969" y2="494.2969"/><text fill="#000000" font-family="Roboto" font-size="14" lengthAdjust="spacing" textLength="61.4893" x="750.9487" y="485.9951">n_wiggle</text><text fill="#000000" font-family="Roboto" font-size="12" lengthAdjust="spacing" textLength="75.3867" x="739" y="510.4355">choice &#183; 40w</text></g><g id="n_giggle_retry"><rect fill="#D1C4E9" height="50.2656" rx="4" ry="4" style="stroke:#181818;stroke-width:0.5;" width="119.8252" x="815.5" y="595"/><line style="stroke:#181818;stroke-width:0.5;" x1="815.5" x2="935.3252" y1="621.2969" y2="621.2969"/><text fill="#000000" font-family="Roboto" font-size="14" lengthAdjust="spacing" textLength="99.8252" x="825.5" y="612.9951">n_giggle_retry</text><text fill="#000000" font-family="Roboto" font-size="12" lengthAdjust="spacing" textLength="69.6035" x="820.5" y="637.4355">rising &#183; 38w</text></g><g id="n_sway"><rect fill="#D1C4E9" height="50.2656" rx="4" ry="4" style="stroke:#181818;stroke-width:0.5;" width="89.6035" x="498.5" y="595"/><line style="stroke:#181818;stroke-width:0.5;" x1="498.5" x2="588.1035" y1="621.2969" y2="621.2969"/><text fill="#000000" font-family="Roboto" font-size="14" lengthAdjust="spacing" textLength="51.4814" x="517.561" y="612.9951">n_sway</text><text fill="#000000" font-family="Roboto" font-size="12" lengthAdjust="spacing" textLength="69.6035" x="503.5" y="637.4355">rising &#183; 36w</text></g><g id="n_slide"><rect fill="#FFF9C4" height="50.2656" rx="4" ry="4" style="stroke:#181818;stroke-width:0.5;" width="95.3867" x="1162" y="468"/><line style="stroke:#181818;stroke-width:0.5;" x1="1162" x2="1257.3867" y1="494.2969" y2="494.2969"/><text fill="#000000" font-family="Roboto" font-size="14" lengthAdjust="spacing" textLength="48.4463" x="1185.4702" y="485.9951">n_slide</text><text fill="#000000" font-family="Roboto" font-size="12" lengthAdjust="spacing" textLength="75.3867" x="1167" y="510.4355">choice &#183; 40w</text></g><g id="n_low"><rect fill="#D1C4E9" height="50.2656" rx="4" ry="4" style="stroke:#181818;stroke-width:0.5;" width="89.6035" x="1099.5" y="595"/><line style="stroke:#181818;stroke-width:0.5;" x1="1099.5" x2="1189.1035" y1="621.2969" y2="621.2969"/><text fill="#000000" font-family="Roboto" font-size="14" lengthAdjust="spacing" textLength="39.7783" x="1124.4126" y="612.9951">n_low</text><text fill="#000000" font-family="Roboto" font-size="12" lengthAdjust="spacing" textLength="69.6035" x="1104.5" y="637.4355">rising &#183; 40w</text></g><g id="n_almost"><rect fill="#FFF9C4" height="50.2656" rx="4" ry="4" style="stroke:#181818;stroke-width:0.5;" width="95.3867" x="496" y="722"/><line style="stroke:#181818;stroke-width:0.5;" x1="496" x2="591.3867" y1="748.2969" y2="748.2969"/><text fill="#000000" font-family="Roboto" font-size="14" lengthAdjust="spacing" textLength="63.3281" x="512.0293" y="739.9951">n_almost</text><text fill="#000000" font-family="Roboto" font-size="12" lengthAdjust="spacing" textLength="75.3867" x="501" y="764.4355">choice &#183; 40w</text></g><g id="n_first_sparkle"><rect fill="#D1C4E9" height="50.2656" rx="4" ry="4" style="stroke:#181818;stroke-width:0.5;" width="121.3564" x="815" y="849"/><line style="stroke:#181818;stroke-width:0.5;" x1="815" x2="936.3564" y1="875.2969" y2="875.2969"/><text fill="#000000" font-family="Roboto" font-size="14" lengthAdjust="spacing" textLength="101.3564" x="825" y="866.9951">n_first_sparkle</text><text fill="#000000" font-family="Roboto" font-size="12" lengthAdjust="spacing" textLength="69.6035" x="820" y="891.4355">rising &#183; 36w</text></g><g id="n_shine"><rect fill="#FFF9C4" height="50.2656" rx="4" ry="4" style="stroke:#181818;stroke-width:0.5;" width="95.3867" x="496" y="976"/><line style="stroke:#181818;stroke-width:0.5;" x1="496" x2="591.3867" y1="1002.2969" y2="1002.2969"/><text fill="#000000" font-family="Roboto" font-size="14" lengthAdjust="spacing" textLength="53.416" x="516.9854" y="993.9951">n_shine</text><text fill="#000000" font-family="Roboto" font-size="12" lengthAdjust="spacing" textLength="75.3867" x="501" y="1018.4355">choice &#183; 42w</text></g><g id="e_goodnight"><rect fill="#C8E6C9" height="64.2344" rx="4" ry="4" style="stroke:#181818;stroke-width:0.5;" width="170.1875" x="237.5" y="1103"/><line style="stroke:#181818;stroke-width:0.5;" x1="237.5" x2="407.6875" y1="1129.2969" y2="1129.2969"/><text fill="#000000" font-family="Roboto" font-size="14" lengthAdjust="spacing" textLength="86.5293" x="279.3291" y="1120.9951">e_goodnight</text><text fill="#000000" font-family="Roboto" font-size="12" lengthAdjust="spacing" textLength="127.1953" x="242.5" y="1145.4355">completion (positive)</text><text fill="#000000" font-family="Roboto" font-size="12" lengthAdjust="spacing" textLength="150.1875" x="242.5" y="1159.4043">"Goodnight, Little World"</text></g><g id="e_lullaby"><rect fill="#C8E6C9" height="64.2344" rx="4" ry="4" style="stroke:#181818;stroke-width:0.5;" width="149.7676" x="468.5" y="1103"/><line style="stroke:#181818;stroke-width:0.5;" x1="468.5" x2="618.2676" y1="1129.2969" y2="1129.2969"/><text fill="#000000" font-family="Roboto" font-size="14" lengthAdjust="spacing" textLength="61.9063" x="512.4307" y="1120.9951">e_lullaby</text><text fill="#000000" font-family="Roboto" font-size="12" lengthAdjust="spacing" textLength="107.1855" x="473.5" y="1145.4355">success (positive)</text><text fill="#000000" font-family="Roboto" font-size="12" lengthAdjust="spacing" textLength="129.7676" x="473.5" y="1159.4043">"The Twinkle Lullaby"</text></g><g id="e_friends"><rect fill="#C8E6C9" height="64.2344" rx="4" ry="4" style="stroke:#181818;stroke-width:0.5;" width="152.9434" x="682" y="1103"/><line style="stroke:#181818;stroke-width:0.5;" x1="682" x2="834.9434" y1="1129.2969" y2="1129.2969"/><text fill="#000000" font-family="Roboto" font-size="14" lengthAdjust="spacing" textLength="63.8545" x="726.5444" y="1120.9951">e_friends</text><text fill="#000000" font-family="Roboto" font-size="12" lengthAdjust="spacing" textLength="107.1855" x="687" y="1145.4355">success (positive)</text><text fill="#000000" font-family="Roboto" font-size="12" lengthAdjust="spacing" textLength="132.9434" x="687" y="1159.4043">"A Sky Full of Friends"</text></g><ellipse cx="543.5" cy="1239" fill="none" rx="11" ry="11" style="stroke:#222222;stroke-width:1.0;"/><ellipse cx="543.5" cy="1239" fill="#222222" rx="6" ry="6" style="stroke:#222222;stroke-width:1.0;"/><!--link *start* to n_start--><g id="link_*start*_n_start"><path d="M871.5,26.01 C871.5,39.89 871.5,60.97 871.5,80.84 " fill="none" id="*start*-to-n_start" style="stroke:#181818;stroke-width:1.0;"/><polygon fill="#181818" points="871.5,86.84,875.5,77.84,871.5,81.84,867.5,77.84,871.5,86.84" style="stroke:#181818;stroke-width:1.0;"/></g><!--link n_start to n_moon--><g id="link_n_start_n_moon"><path d="M871.5,137.1 C871.5,159.24 871.5,185.86 871.5,207.97 " fill="none" id="n_start-to-n_moon" style="stroke:#181818;stroke-width:1.0;"/><polygon fill="#181818" points="871.5,213.97,875.5,204.97,871.5,208.97,867.5,204.97,871.5,213.97" style="stroke:#181818;stroke-width:1.0;"/><text fill="#000000" font-family="Roboto" font-size="13" lengthAdjust="spacing" textLength="185.8721" x="872.5" y="180.0669">Peek out at the evening sky.</text></g><!--link n_moon to n_ready--><g id="link_n_moon_n_ready"><path d="M871.5,264.1 C871.5,286.24 871.5,312.86 871.5,334.97 " fill="none" id="n_moon-to-n_ready" style="stroke:#181818;stroke-width:1.0;"/><polygon fill="#181818" points="871.5,340.97,875.5,331.97,871.5,335.97,867.5,331.97,871.5,340.97" style="stroke:#181818;stroke-width:1.0;"/><text fill="#000000" font-family="Roboto" font-size="13" lengthAdjust="spacing" textLength="164.4614" x="872.5" y="307.0669">Take a big, brave breath.</text></g><!--link n_ready to n_cloud--><g id="link_n_ready_n_cloud"><path d="M823.92,374.34 C765.88,383.63 664.93,400.87 579.5,421 C509.58,437.47 435.6385,459.5255 386.1385,474.9455 " fill="none" id="n_ready-to-n_cloud" style="stroke:#181818;stroke-width:1.0;"/><polygon fill="#181818" points="380.41,476.73,390.1924,477.8722,385.1837,475.2429,387.8131,470.2342,380.41,476.73" style="stroke:#181818;stroke-width:1.0;"/><text fill="#000000" font-family="Roboto" font-size="13" lengthAdjust="spacing" textLength="184.7041" x="580.5" y="434.0669">Hide behind the fluffy cloud.</text></g><!--link n_ready to n_wiggle--><g id="link_n_ready_n_wiggle"><path d="M823.79,382.99 C806.35,391.41 788.47,403.69 778.5,421 C770.44,435.01 770.2411,447.385 773.1211,461.885 " fill="none" id="n_ready-to-n_wiggle" style="stroke:#181818;stroke-width:1.0;"/><polygon fill="#181818" points="774.29,467.77,776.46,458.1632,773.3159,462.8658,768.6133,459.7217,774.29,467.77" style="stroke:#181818;stroke-width:1.0;"/><text fill="#000000" font-family="Roboto" font-size="13" lengthAdjust="spacing" textLength="156.5396" x="779.5" y="434.0669">Do a big sparkle wiggle.</text></g><!--link n_ready to n_slide--><g id="link_n_ready_n_slide"><path d="M919.35,390.56 C959.93,410.49 1012.37,436.12 1017.5,438 C1067.89,456.5 1082.91,453.15 1134.5,468 C1143.3,470.53 1146.9069,471.5884 1155.8969,474.4184 " fill="none" id="n_ready-to-n_slide" style="stroke:#181818;stroke-width:1.0;"/><polygon fill="#181818" points="1161.62,476.22,1154.2364,469.7022,1156.8507,474.7187,1151.8342,477.333,1161.62,476.22" style="stroke:#181818;stroke-width:1.0;"/><text fill="#000000" font-family="Roboto" font-size="13" lengthAdjust="spacing" textLength="241.7568" x="1018.5" y="434.0669">Scoot down low to peek at the world.</text></g><!--link n_slide to n_ready--><g id="link_n_slide_n_ready"><path d="M1246.84,467.78 C1263.87,453.79 1277.62,436.04 1264.5,421 C1220.2,370.2 1019.8699,365.4713 925.1999,366.0813 " fill="none" id="n_slide-to-n_ready" style="stroke:#181818;stroke-width:1.0;"/><polygon fill="#181818" points="919.2,366.12,928.2256,370.0619,924.1999,366.0878,928.174,362.0621,919.2,366.12" style="stroke:#181818;stroke-width:1.0;"/><text fill="#000000" font-family="Roboto" font-size="13" lengthAdjust="spacing" textLength="200.2876" x="1270.5" y="434.0669">Climb the moonbeam back up.</text></g><!--link n_cloud to n_cozy_retry--><g id="link_n_cloud_n_cozy_retry"><path d="M284.84,502.47 C230.81,512.7 146.69,530.68 119.5,548 C101.11,559.71 89.0878,574.2075 78.8178,589.8175 " fill="none" id="n_cloud-to-n_cozy_retry" style="stroke:#181818;stroke-width:1.0;"/><polygon fill="#181818" points="75.52,594.83,83.8083,589.5098,78.2681,590.6529,77.125,585.1128,75.52,594.83" style="stroke:#181818;stroke-width:1.0;"/><text fill="#000000" font-family="Roboto" font-size="13" lengthAdjust="spacing" textLength="200.7891" x="120.5" y="561.0669">Snuggle deeper into the cloud.</text></g><!--link n_cloud to n_peek--><g id="link_n_cloud_n_peek"><path d="M330.52,518.31 C329.64,532.02 328.93,549.47 329.5,565 C329.86,574.77 330.1151,579.5288 330.8551,588.8488 " fill="none" id="n_cloud-to-n_peek" style="stroke:#181818;stroke-width:1.0;"/><polygon fill="#181818" points="331.33,594.83,334.6051,585.5416,330.9342,589.8457,326.6302,586.1748,331.33,594.83" style="stroke:#181818;stroke-width:1.0;"/><text fill="#000000" font-family="Roboto" font-size="13" lengthAdjust="spacing" textLength="169.6221" x="330.5" y="561.0669">Peek out one tiny sparkle.</text></g><!--link n_cozy_retry to n_ready--><g id="link_n_cozy_retry_n_ready"><path d="M60.63,594.9 C60.84,561.04 66.73,499.94 103.5,468 C211.89,373.87 667.66,366.4944 817.99,366.6344 " fill="none" id="n_cozy_retry-to-n_ready" style="stroke:#181818;stroke-width:1.0;"/><polygon fill="#181818" points="823.99,366.64,814.9937,362.6316,818.99,366.6353,814.9863,370.6316,823.99,366.64" style="stroke:#181818;stroke-width:1.0;"/><text fill="#000000" font-family="Roboto" font-size="13" lengthAdjust="spacing" textLength="162.2905" x="104.5" y="497.5669">Float back and try again.</text></g><!--link n_peek to n_almost--><g id="link_n_peek_n_almost"><path d="M339.62,645.18 C344.7,660.59 353.42,679.87 367.5,692 C403.59,723.08 451.3522,735.4081 489.9322,741.0081 " fill="none" id="n_peek-to-n_almost" style="stroke:#181818;stroke-width:1.0;"/><polygon fill="#181818" points="495.87,741.87,487.5379,736.6187,490.9219,741.1518,486.3887,744.5357,495.87,741.87" style="stroke:#181818;stroke-width:1.0;"/><text fill="#000000" font-family="Roboto" font-size="13" lengthAdjust="spacing" textLength="166.6768" x="368.5" y="688.0669">Let the glow grow bigger.</text></g><!--link n_wiggle to n_giggle_retry--><g id="link_n_wiggle_n_giggle_retry"><path d="M786.84,518.28 C790.86,532.79 797.43,551.06 807.5,565 C815.62,576.24 821.9293,582.7152 832.7793,591.0852 " fill="none" id="n_wiggle-to-n_giggle_retry" style="stroke:#181818;stroke-width:1.0;"/><polygon fill="#181818" points="837.53,594.75,832.8472,586.0856,833.5711,591.696,827.9607,592.4199,837.53,594.75" style="stroke:#181818;stroke-width:1.0;"/><text fill="#000000" font-family="Roboto" font-size="13" lengthAdjust="spacing" textLength="127.7402" x="808.5" y="561.0669">Wiggle even faster!</text></g><!--link n_wiggle to n_sway--><g id="link_n_wiggle_n_sway"><path d="M733.77,500.16 C677.19,508.41 587.51,524.74 563.5,548 C550.99,560.12 546.8299,573.441 545.0199,588.851 " fill="none" id="n_wiggle-to-n_sway" style="stroke:#181818;stroke-width:1.0;"/><polygon fill="#181818" points="544.32,594.81,549.3426,586.3381,544.9033,589.8441,541.3972,585.4048,544.32,594.81" style="stroke:#181818;stroke-width:1.0;"/><text fill="#000000" font-family="Roboto" font-size="13" lengthAdjust="spacing" textLength="225.6782" x="564.5" y="561.0669">Slow down and sway like a lullaby.</text></g><!--link n_giggle_retry to n_ready--><g id="link_n_giggle_retry_n_ready"><path d="M915.65,594.86 C925.62,586.72 935.02,576.69 940.5,565 C967.69,507.06 968.53,478.53 940.5,421 C934.77,409.24 929.8314,402.9797 919.5214,394.9397 " fill="none" id="n_giggle_retry-to-n_ready" style="stroke:#181818;stroke-width:1.0;"/><polygon fill="#181818" points="914.79,391.25,919.4273,399.9388,918.7328,394.3247,924.3469,393.6302,914.79,391.25" style="stroke:#181818;stroke-width:1.0;"/><text fill="#000000" font-family="Roboto" font-size="13" lengthAdjust="spacing" textLength="162.2905" x="962.5" y="497.5669">Float back and try again.</text></g><!--link n_sway to n_almost--><g id="link_n_sway_n_almost"><path d="M543.5,645.1 C543.5,667.24 543.5,693.86 543.5,715.97 " fill="none" id="n_sway-to-n_almost" style="stroke:#181818;stroke-width:1.0;"/><polygon fill="#181818" points="543.5,721.97,547.5,712.97,543.5,716.97,539.5,712.97,543.5,721.97" style="stroke:#181818;stroke-width:1.0;"/><text fill="#000000" font-family="Roboto" font-size="13" lengthAdjust="spacing" textLength="163.8838" x="544.5" y="688.0669">Glide to her shining spot.</text></g><!--link n_slide to n_low--><g id="link_n_slide_n_low"><path d="M1196.97,518.1 C1185.46,540.24 1171.2586,567.537 1159.7586,589.647 " fill="none" id="n_slide-to-n_low" style="stroke:#181818;stroke-width:1.0;"/><polygon fill="#181818" points="1156.99,594.97,1164.6917,588.8312,1159.2972,590.5341,1157.5943,585.1397,1156.99,594.97" style="stroke:#181818;stroke-width:1.0;"/><text fill="#000000" font-family="Roboto" font-size="13" lengthAdjust="spacing" textLength="183.7837" x="1181.5" y="561.0669">Take a peek from down low.</text></g><!--link n_low to n_almost--><g id="link_n_low_n_almost"><path d="M1099.33,630.4 C988.63,653.42 710.5044,711.2686 597.1444,734.8386 " fill="none" id="n_low-to-n_almost" style="stroke:#181818;stroke-width:1.0;"/><polygon fill="#181818" points="591.27,736.06,600.8958,738.1441,596.1653,735.0422,599.2673,730.3116,591.27,736.06" style="stroke:#181818;stroke-width:1.0;"/><text fill="#000000" font-family="Roboto" font-size="13" lengthAdjust="spacing" textLength="199.5449" x="881.5" y="688.0669">Float up to her spot in the sky.</text></g><!--link n_almost to n_first_sparkle--><g id="link_n_almost_n_first_sparkle"><path d="M591.07,765.91 C649.97,788.09 744.7548,823.7759 809.1648,848.0259 " fill="none" id="n_almost-to-n_first_sparkle" style="stroke:#181818;stroke-width:1.0;"/><polygon fill="#181818" points="814.78,850.14,807.7666,843.2254,810.1007,848.3783,804.9478,850.7123,814.78,850.14" style="stroke:#181818;stroke-width:1.0;"/><text fill="#000000" font-family="Roboto" font-size="13" lengthAdjust="spacing" textLength="190.5122" x="730.5" y="815.0669">Try one tiny practice sparkle.</text></g><!--link n_almost to n_shine--><g id="link_n_almost_n_shine"><path d="M540.14,772.02 C537.46,792.45 533.93,822.58 532.5,849 C531.3,871.19 531.3,876.81 532.5,899 C533.93,925.42 536.6796,949.601 539.3596,970.031 " fill="none" id="n_almost-to-n_shine" style="stroke:#181818;stroke-width:1.0;"/><polygon fill="#181818" points="540.14,975.98,542.9354,966.5362,539.4897,971.0225,535.0034,967.5767,540.14,975.98" style="stroke:#181818;stroke-width:1.0;"/><text fill="#000000" font-family="Roboto" font-size="13" lengthAdjust="spacing" textLength="263.2183" x="533.5" y="878.5669">Hold a moonbeam and shine all at once.</text></g><!--link n_first_sparkle to n_shine--><g id="link_n_first_sparkle_n_shine"><path d="M814.99,897.78 C750.65,922.01 655.8251,957.7055 596.8451,979.9155 " fill="none" id="n_first_sparkle-to-n_shine" style="stroke:#181818;stroke-width:1.0;"/><polygon fill="#181818" points="591.23,982.03,601.0623,982.6017,595.9092,980.268,598.243,975.1149,591.23,982.03" style="stroke:#181818;stroke-width:1.0;"/><text fill="#000000" font-family="Roboto" font-size="13" lengthAdjust="spacing" textLength="150.1665" x="730.5" y="942.0669">Shine with all her light.</text></g><!--link n_shine to e_goodnight--><g id="link_n_shine_e_goodnight"><path d="M495.83,1007.16 C438.33,1014.47 346.73,1029.92 325.5,1056 C315.06,1068.82 313.2651,1081.1726 314.9051,1096.8326 " fill="none" id="n_shine-to-e_goodnight" style="stroke:#181818;stroke-width:1.0;"/><polygon fill="#181818" points="315.53,1102.8,318.5708,1093.4323,315.0092,1097.8272,310.6144,1094.2656,315.53,1102.8" style="stroke:#181818;stroke-width:1.0;"/><text fill="#000000" font-family="Roboto" font-size="13" lengthAdjust="spacing" textLength="205.5752" x="326.5" y="1069.0669">Wink goodnight to the children.</text></g><!--link n_shine to e_lullaby--><g id="link_n_shine_e_lullaby"><path d="M541.87,1026.18 C541.32,1035.5 540.77,1046.24 540.5,1056 C540.07,1071.44 540.3095,1082.608 541.0495,1096.888 " fill="none" id="n_shine-to-e_lullaby" style="stroke:#181818;stroke-width:1.0;"/><polygon fill="#181818" points="541.36,1102.88,544.8889,1093.6851,541.1012,1097.8867,536.8996,1094.0991,541.36,1102.88" style="stroke:#181818;stroke-width:1.0;"/><text fill="#000000" font-family="Roboto" font-size="13" lengthAdjust="spacing" textLength="201.9951" x="541.5" y="1069.0669">Sing a twinkle song with Moon.</text></g><!--link n_shine to e_friends--><g id="link_n_shine_e_friends"><path d="M591.05,1008.45 C644.63,1016.73 726.95,1032.85 747.5,1056 C758.67,1068.58 761.6097,1081.0801 761.6897,1096.9001 " fill="none" id="n_shine-to-e_friends" style="stroke:#181818;stroke-width:1.0;"/><polygon fill="#181818" points="761.72,1102.9,765.6744,1093.8799,761.6947,1097.9001,757.6745,1093.9203,761.72,1102.9" style="stroke:#181818;stroke-width:1.0;"/><text fill="#000000" font-family="Roboto" font-size="13" lengthAdjust="spacing" textLength="174.0845" x="758.5" y="1069.0669">Invite the other little stars.</text></g><!--link e_goodnight to *end*--><g id="link_e_goodnight_*end*"><path d="M389.71,1167.02 C441.77,1191.05 503.622,1219.5962 528.372,1231.0162 " fill="none" id="e_goodnight-to-*end*" style="stroke:#181818;stroke-width:1.0;"/><polygon fill="#181818" points="533.82,1233.53,527.3238,1226.1273,529.28,1231.4352,523.9721,1233.3913,533.82,1233.53" style="stroke:#181818;stroke-width:1.0;"/></g><!--link e_lullaby to *end*--><g id="link_e_lullaby_*end*"><path d="M543.5,1167.16 C543.5,1187.78 543.5,1207.53 543.5,1221.61 " fill="none" id="e_lullaby-to-*end*" style="stroke:#181818;stroke-width:1.0;"/><polygon fill="#181818" points="543.5,1227.61,547.5,1218.61,543.5,1222.61,539.5,1218.61,543.5,1227.61" style="stroke:#181818;stroke-width:1.0;"/></g><!--link e_friends to *end*--><g id="link_e_friends_*end*"><path d="M693.12,1167.02 C642.71,1190.93 583.0515,1219.2395 558.6915,1230.7895 " fill="none" id="e_friends-to-*end*" style="stroke:#181818;stroke-width:1.0;"/><polygon fill="#181818" points="553.27,1233.36,563.1159,1233.1185,557.7879,1231.2179,559.6885,1225.8899,553.27,1233.36" style="stroke:#181818;stroke-width:1.0;"/></g><rect fill="none" height="107.7813" id="_legend" rx="4" ry="4" style="stroke:#000000;stroke-width:1.0;" width="251.5068" x="1201.2808" y="1267"/><text fill="#000000" font-family="Roboto" font-size="14" lengthAdjust="spacing" textLength="150.4453" x="1206.2808" y="1284.9951">The Sleepy Little Star</text><text fill="#000000" font-family="Roboto" font-size="14" lengthAdjust="spacing" textLength="181.6172" x="1206.2808" y="1301.292">Band 3-5 &#183; Tier 1 &#183; ~3 min</text><text fill="#000000" font-family="Roboto" font-size="14" lengthAdjust="spacing" textLength="178.2676" x="1206.2808" y="1317.5889">Topology: loop_and_grow</text><text fill="#000000" font-family="Roboto" font-size="14" lengthAdjust="spacing" textLength="241.5068" x="1206.2808" y="1333.8857">17 nodes &#183; 3 endings (3+ / 0n / 0-)</text><text fill="#000000" font-family="Roboto" font-size="14" lengthAdjust="spacing" textLength="130.6484" x="1206.2808" y="1350.1826">Production-eligible</text><text fill="#000000" font-family="Roboto" font-size="14" lengthAdjust="spacing" textLength="135.2764" x="1206.2808" y="1366.4795">Scale: short &#183; prose</text></g></svg>