<svg xmlns="http://www.w3.org/2000/svg" xmlns:xlink="http://www.w3.org/1999/xlink" contentStyleType="text/css" height="1825px" preserveAspectRatio="none" style="width:1144px;height:1825px;background:#FAFAFA;" version="1.1" viewBox="0 0 1144 1825" width="1144px" zoomAndPan="magnify"><defs><style type="text/css">@import url('https://fonts.googleapis.com/css?family=Roboto:400,100,100italic,300,300italic,400italic,500,500italic,700,700italic,900,900italic');</style></defs><g><rect fill="#FAFAFA" height="1825" style="stroke:none;stroke-width:1.0;" width="1144" x="0" y="0"/><ellipse cx="644.5" cy="16" fill="#222222" rx="10" ry="10" style="stroke:#222222;stroke-width:1.0;"/><g id="n_park"><rect fill="#BBDEFB" height="50.4688" rx="4" ry="4" style="stroke:#181818;stroke-width:0.5;" width="81.4297" x="604" y="87"/><line style="stroke:#181818;stroke-width:0.5;" x1="604" x2="685.4297" y1="113.4063" y2="113.4063"/><text fill="#000000" font-family="Roboto" font-size="14" lengthAdjust="spacing" textLength="41.3643" x="624.0327" y="104.9883">n_park</text><text fill="#000000" font-family="Roboto" font-size="12" lengthAdjust="spacing" textLength="61.4297" x="609" y="129.5391">setup &#183; 44w</text></g><g id="n_slip"><rect fill="#BBDEFB" height="50.4688" rx="4" ry="4" style="stroke:#181818;stroke-width:0.5;" width="81.4297" x="604" y="214"/><line style="stroke:#181818;stroke-width:0.5;" x1="604" x2="685.4297" y1="240.4063" y2="240.4063"/><text fill="#000000" font-family="Roboto" font-size="14" lengthAdjust="spacing" textLength="35.9434" x="626.7432" y="231.9883">n_slip</text><text fill="#000000" font-family="Roboto" font-size="12" lengthAdjust="spacing" textLength="61.4297" x="609" y="256.5391">setup &#183; 42w</text></g><g id="n_run"><rect fill="#BBDEFB" height="50.4688" rx="4" ry="4" style="stroke:#181818;stroke-width:0.5;" width="81.4297" x="604" y="341"/><line style="stroke:#181818;stroke-width:0.5;" x1="604" x2="685.4297" y1="367.4063" y2="367.4063"/><text fill="#000000" font-family="Roboto" font-size="14" lengthAdjust="spacing" textLength="34.2412" x="627.5942" y="358.9883">n_run</text><text fill="#000000" font-family="Roboto" font-size="12" lengthAdjust="spacing" textLength="61.4297" x="609" y="383.5391">setup &#183; 38w</text></g><g id="n_fork"><rect fill="#FFF9C4" height="50.4688" rx="4" ry="4" style="stroke:#181818;stroke-width:0.5;" width="86.8906" x="601" y="468"/><line style="stroke:#181818;stroke-width:0.5;" x1="601" x2="687.8906" y1="494.4063" y2="494.4063"/><text fill="#000000" font-family="Roboto" font-size="14" lengthAdjust="spacing" textLength="38.7393" x="625.0757" y="485.9883">n_fork</text><text fill="#000000" font-family="Roboto" font-size="12" lengthAdjust="spacing" textLength="66.8906" x="606" y="510.5391">choice &#183; 44w</text></g><g id="n_pond"><rect fill="#D1C4E9" height="50.4688" rx="4" ry="4" style="stroke:#181818;stroke-width:0.5;" width="81.0547" x="478" y="595"/><line style="stroke:#181818;stroke-width:0.5;" x1="478" x2="559.0547" y1="621.4063" y2="621.4063"/><text fill="#000000" font-family="Roboto" font-size="14" lengthAdjust="spacing" textLength="45.5205" x="495.7671" y="612.9883">n_pond</text><text fill="#000000" font-family="Roboto" font-size="12" lengthAdjust="spacing" textLength="61.0547" x="483" y="637.5391">rising &#183; 40w</text></g><g id="n_ducks"><rect fill="#D1C4E9" height="50.4688" rx="4" ry="4" style="stroke:#181818;stroke-width:0.5;" width="81.0547" x="459" y="722"/><line style="stroke:#181818;stroke-width:0.5;" x1="459" x2="540.0547" y1="748.4063" y2="748.4063"/><text fill="#000000" font-family="Roboto" font-size="14" lengthAdjust="spacing" textLength="51.3105" x="473.8721" y="739.9883">n_ducks</text><text fill="#000000" font-family="Roboto" font-size="12" lengthAdjust="spacing" textLength="61.0547" x="464" y="764.5391">rising &#183; 36w</text></g><g id="n_reeds"><rect fill="#FFF9C4" height="50.4688" rx="4" ry="4" style="stroke:#181818;stroke-width:0.5;" width="86.8906" x="378" y="849"/><line style="stroke:#181818;stroke-width:0.5;" x1="378" x2="464.8906" y1="875.4063" y2="875.4063"/><text fill="#000000" font-family="Roboto" font-size="14" lengthAdjust="spacing" textLength="48.7607" x="397.0649" y="866.9883">n_reeds</text><text fill="#000000" font-family="Roboto" font-size="12" lengthAdjust="spacing" textLength="66.8906" x="383" y="891.5391">choice &#183; 44w</text></g><g id="n_stones"><rect fill="#D1C4E9" height="50.4688" rx="4" ry="4" style="stroke:#181818;stroke-width:0.5;" width="81.0547" x="155" y="976"/><line style="stroke:#181818;stroke-width:0.5;" x1="155" x2="236.0547" y1="1002.4063" y2="1002.4063"/><text fill="#000000" font-family="Roboto" font-size="14" lengthAdjust="spacing" textLength="56.2188" x="167.418" y="993.9883">n_stones</text><text fill="#000000" font-family="Roboto" font-size="12" lengthAdjust="spacing" textLength="61.0547" x="160" y="1018.5391">rising &#183; 38w</text></g><g id="n_willow"><rect fill="#FFF9C4" height="50.4688" rx="4" ry="4" style="stroke:#181818;stroke-width:0.5;" width="86.8906" x="152" y="1103"/><line style="stroke:#181818;stroke-width:0.5;" x1="152" x2="238.8906" y1="1129.4063" y2="1129.4063"/><text fill="#000000" font-family="Roboto" font-size="14" lengthAdjust="spacing" textLength="53.2861" x="168.8022" y="1120.9883">n_willow</text><text fill="#000000" font-family="Roboto" font-size="12" lengthAdjust="spacing" textLength="66.8906" x="157" y="1145.5391">choice &#183; 42w</text></g><g id="n_stick"><rect fill="#D1C4E9" height="50.4688" rx="4" ry="4" style="stroke:#181818;stroke-width:0.5;" width="81.0547" x="7" y="1230"/><line style="stroke:#181818;stroke-width:0.5;" x1="7" x2="88.0547" y1="1256.4063" y2="1256.4063"/><text fill="#000000" font-family="Roboto" font-size="14" lengthAdjust="spacing" textLength="43.6816" x="25.6865" y="1247.9883">n_stick</text><text fill="#000000" font-family="Roboto" font-size="12" lengthAdjust="spacing" textLength="61.0547" x="12" y="1272.5391">rising &#183; 36w</text></g><g id="n_catch_end"><rect fill="#C8E6C9" height="64.5313" rx="4" ry="4" style="stroke:#181818;stroke-width:0.5;" width="117.0957" x="38" y="1437"/><line style="stroke:#181818;stroke-width:0.5;" x1="38" x2="155.0957" y1="1463.4063" y2="1463.4063"/><text fill="#000000" font-family="Roboto" font-size="14" lengthAdjust="spacing" textLength="77.9775" x="57.5591" y="1454.9883">n_catch_end</text><text fill="#000000" font-family="Roboto" font-size="12" lengthAdjust="spacing" textLength="97.0957" x="43" y="1479.5391">success (positive)</text><text fill="#000000" font-family="Roboto" font-size="12" lengthAdjust="spacing" textLength="74.7773" x="43" y="1493.6016">"{A1_PRIZE1}"</text></g><g id="n_breeze"><rect fill="#D1C4E9" height="50.4688" rx="4" ry="4" style="stroke:#181818;stroke-width:0.5;" width="81.0547" x="173" y="1230"/><line style="stroke:#181818;stroke-width:0.5;" x1="173" x2="254.0547" y1="1256.4063" y2="1256.4063"/><text fill="#000000" font-family="Roboto" font-size="14" lengthAdjust="spacing" textLength="55.8701" x="185.5923" y="1247.9883">n_breeze</text><text fill="#000000" font-family="Roboto" font-size="12" lengthAdjust="spacing" textLength="61.0547" x="178" y="1272.5391">rising &#183; 38w</text></g><g id="n_drift"><rect fill="#D1C4E9" height="50.4688" rx="4" ry="4" style="stroke:#181818;stroke-width:0.5;" width="81.0547" x="180" y="1357"/><line style="stroke:#181818;stroke-width:0.5;" x1="180" x2="261.0547" y1="1383.4063" y2="1383.4063"/><text fill="#000000" font-family="Roboto" font-size="14" lengthAdjust="spacing" textLength="39.5391" x="200.7578" y="1374.9883">n_drift</text><text fill="#000000" font-family="Roboto" font-size="12" lengthAdjust="spacing" textLength="61.0547" x="185" y="1399.5391">rising &#183; 36w</text></g><g id="n_parade_end"><rect fill="#C8E6C9" height="64.5313" rx="4" ry="4" style="stroke:#181818;stroke-width:0.5;" width="123.8984" x="264.5" y="1532"/><line style="stroke:#181818;stroke-width:0.5;" x1="264.5" x2="388.3984" y1="1558.4063" y2="1558.4063"/><text fill="#000000" font-family="Roboto" font-size="14" lengthAdjust="spacing" textLength="86.5703" x="283.1641" y="1549.9883">n_parade_end</text><text fill="#000000" font-family="Roboto" font-size="12" lengthAdjust="spacing" textLength="103.8984" x="269.5" y="1574.5391">discovery (positive)</text><text fill="#000000" font-family="Roboto" font-size="12" lengthAdjust="spacing" textLength="74.7773" x="269.5" y="1588.6016">"{A1_PRIZE2}"</text></g><g id="n_boat"><rect fill="#D1C4E9" height="50.4688" rx="4" ry="4" style="stroke:#181818;stroke-width:0.5;" width="81.0547" x="381" y="976"/><line style="stroke:#181818;stroke-width:0.5;" x1="381" x2="462.0547" y1="1002.4063" y2="1002.4063"/><text fill="#000000" font-family="Roboto" font-size="14" lengthAdjust="spacing" textLength="42.0889" x="400.4829" y="993.9883">n_boat</text><text fill="#000000" font-family="Roboto" font-size="12" lengthAdjust="spacing" textLength="61.0547" x="386" y="1018.5391">rising &#183; 40w</text></g><g id="n_pedal"><rect fill="#D1C4E9" height="50.4688" rx="4" ry="4" style="stroke:#181818;stroke-width:0.5;" width="81.0547" x="381" y="1103"/><line style="stroke:#181818;stroke-width:0.5;" x1="381" x2="462.0547" y1="1129.4063" y2="1129.4063"/><text fill="#000000" font-family="Roboto" font-size="14" lengthAdjust="spacing" textLength="48.248" x="397.4033" y="1120.9883">n_pedal</text><text fill="#000000" font-family="Roboto" font-size="12" lengthAdjust="spacing" textLength="61.0547" x="386" y="1145.5391">rising &#183; 36w</text></g><g id="n_fountain"><rect fill="#D1C4E9" height="50.4688" rx="4" ry="4" style="stroke:#181818;stroke-width:0.5;" width="85.6797" x="380.5" y="1230"/><line style="stroke:#181818;stroke-width:0.5;" x1="380.5" x2="466.1797" y1="1256.4063" y2="1256.4063"/><text fill="#000000" font-family="Roboto" font-size="14" lengthAdjust="spacing" textLength="65.6797" x="390.5" y="1247.9883">n_fountain</text><text fill="#000000" font-family="Roboto" font-size="12" lengthAdjust="spacing" textLength="61.0547" x="385.5" y="1272.5391">rising &#183; 38w</text></g><g id="n_boat_end"><rect fill="#C8E6C9" height="64.5313" rx="4" ry="4" style="stroke:#181818;stroke-width:0.5;" width="117.0957" x="401" y="1437"/><line style="stroke:#181818;stroke-width:0.5;" x1="401" x2="518.0957" y1="1463.4063" y2="1463.4063"/><text fill="#000000" font-family="Roboto" font-size="14" lengthAdjust="spacing" textLength="71.4561" x="423.8198" y="1454.9883">n_boat_end</text><text fill="#000000" font-family="Roboto" font-size="12" lengthAdjust="spacing" textLength="97.0957" x="406" y="1479.5391">success (positive)</text><text fill="#000000" font-family="Roboto" font-size="12" lengthAdjust="spacing" textLength="68.0332" x="406" y="1493.6016">"{A2_PRIZE}"</text></g><g id="n_hill"><rect fill="#D1C4E9" height="50.4688" rx="4" ry="4" style="stroke:#181818;stroke-width:0.5;" width="81.0547" x="730" y="595"/><line style="stroke:#181818;stroke-width:0.5;" x1="730" x2="811.0547" y1="621.4063" y2="621.4063"/><text fill="#000000" font-family="Roboto" font-size="14" lengthAdjust="spacing" textLength="31.9717" x="754.5415" y="612.9883">n_hill</text><text fill="#000000" font-family="Roboto" font-size="12" lengthAdjust="spacing" textLength="61.0547" x="735" y="637.5391">rising &#183; 40w</text></g><g id="n_bell"><rect fill="#D1C4E9" height="50.4688" rx="4" ry="4" style="stroke:#181818;stroke-width:0.5;" width="81.0547" x="731" y="722"/><line style="stroke:#181818;stroke-width:0.5;" x1="731" x2="812.0547" y1="748.4063" y2="748.4063"/><text fill="#000000" font-family="Roboto" font-size="14" lengthAdjust="spacing" textLength="36.1416" x="753.4565" y="739.9883">n_bell</text><text fill="#000000" font-family="Roboto" font-size="12" lengthAdjust="spacing" textLength="61.0547" x="736" y="764.5391">rising &#183; 36w</text></g><g id="n_hillside"><rect fill="#FFF9C4" height="50.4688" rx="4" ry="4" style="stroke:#181818;stroke-width:0.5;" width="86.8906" x="728" y="849"/><line style="stroke:#181818;stroke-width:0.5;" x1="728" x2="814.8906" y1="875.4063" y2="875.4063"/><text fill="#000000" font-family="Roboto" font-size="14" lengthAdjust="spacing" textLength="57.9209" x="742.4849" y="866.9883">n_hillside</text><text fill="#000000" font-family="Roboto" font-size="12" lengthAdjust="spacing" textLength="66.8906" x="733" y="891.5391">choice &#183; 44w</text></g><g id="n_cart"><rect fill="#D1C4E9" height="50.4688" rx="4" ry="4" style="stroke:#181818;stroke-width:0.5;" width="81.0547" x="731" y="976"/><line style="stroke:#181818;stroke-width:0.5;" x1="731" x2="812.0547" y1="1002.4063" y2="1002.4063"/><text fill="#000000" font-family="Roboto" font-size="14" lengthAdjust="spacing" textLength="38.3154" x="752.3696" y="993.9883">n_cart</text><text fill="#000000" font-family="Roboto" font-size="12" lengthAdjust="spacing" textLength="61.0547" x="736" y="1018.5391">rising &#183; 40w</text></g><g id="n_umbrella"><rect fill="#FFF9C4" height="50.4688" rx="4" ry="4" style="stroke:#181818;stroke-width:0.5;" width="88.4961" x="727.5" y="1103"/><line style="stroke:#181818;stroke-width:0.5;" x1="727.5" x2="815.9961" y1="1129.4063" y2="1129.4063"/><text fill="#000000" font-family="Roboto" font-size="14" lengthAdjust="spacing" textLength="68.4961" x="737.5" y="1120.9883">n_umbrella</text><text fill="#000000" font-family="Roboto" font-size="12" lengthAdjust="spacing" textLength="66.8906" x="732.5" y="1145.5391">choice &#183; 42w</text></g><g id="n_reachup"><rect fill="#D1C4E9" height="50.4688" rx="4" ry="4" style="stroke:#181818;stroke-width:0.5;" width="84.4492" x="554.5" y="1230"/><line style="stroke:#181818;stroke-width:0.5;" x1="554.5" x2="638.9492" y1="1256.4063" y2="1256.4063"/><text fill="#000000" font-family="Roboto" font-size="14" lengthAdjust="spacing" textLength="64.4492" x="564.5" y="1247.9883">n_reachup</text><text fill="#000000" font-family="Roboto" font-size="12" lengthAdjust="spacing" textLength="61.0547" x="559.5" y="1272.5391">rising &#183; 36w</text></g><g id="n_sundae_end"><rect fill="#C8E6C9" height="64.5313" rx="4" ry="4" style="stroke:#181818;stroke-width:0.5;" width="132.957" x="527" y="1437"/><line style="stroke:#181818;stroke-width:0.5;" x1="527" x2="659.957" y1="1463.4063" y2="1463.4063"/><text fill="#000000" font-family="Roboto" font-size="14" lengthAdjust="spacing" textLength="89.0244" x="548.9663" y="1454.9883">n_sundae_end</text><text fill="#000000" font-family="Roboto" font-size="12" lengthAdjust="spacing" textLength="112.957" x="532" y="1479.5391">completion (positive)</text><text fill="#000000" font-family="Roboto" font-size="12" lengthAdjust="spacing" textLength="74.4258" x="532" y="1493.6016">"{B1_PRIZE1}"</text></g><g id="n_stool"><rect fill="#D1C4E9" height="50.4688" rx="4" ry="4" style="stroke:#181818;stroke-width:0.5;" width="81.0547" x="743" y="1230"/><line style="stroke:#181818;stroke-width:0.5;" x1="743" x2="824.0547" y1="1256.4063" y2="1256.4063"/><text fill="#000000" font-family="Roboto" font-size="14" lengthAdjust="spacing" textLength="45.2266" x="760.9141" y="1247.9883">n_stool</text><text fill="#000000" font-family="Roboto" font-size="12" lengthAdjust="spacing" textLength="61.0547" x="748" y="1272.5391">rising &#183; 38w</text></g><g id="n_gust"><rect fill="#D1C4E9" height="50.4688" rx="4" ry="4" style="stroke:#181818;stroke-width:0.5;" width="81.0547" x="712" y="1357"/><line style="stroke:#181818;stroke-width:0.5;" x1="712" x2="793.0547" y1="1383.4063" y2="1383.4063"/><text fill="#000000" font-family="Roboto" font-size="14" lengthAdjust="spacing" textLength="41.4326" x="731.811" y="1374.9883">n_gust</text><text fill="#000000" font-family="Roboto" font-size="12" lengthAdjust="spacing" textLength="61.0547" x="717" y="1399.5391">rising &#183; 38w</text></g><g id="n_goodbye_end"><rect fill="#E0E0E0" height="64.5313" rx="4" ry="4" style="stroke:#181818;stroke-width:0.5;" width="117.0498" x="660" y="1532"/><line style="stroke:#181818;stroke-width:0.5;" x1="660" x2="777.0498" y1="1558.4063" y2="1558.4063"/><text fill="#000000" font-family="Roboto" font-size="14" lengthAdjust="spacing" textLength="97.0498" x="670" y="1549.9883">n_goodbye_end</text><text fill="#000000" font-family="Roboto" font-size="12" lengthAdjust="spacing" textLength="90.416" x="665" y="1574.5391">setback (neutral)</text><text fill="#000000" font-family="Roboto" font-size="12" lengthAdjust="spacing" textLength="74.4258" x="665" y="1588.6016">"{B1_PRIZE2}"</text></g><g id="n_top"><rect fill="#D1C4E9" height="50.4688" rx="4" ry="4" style="stroke:#181818;stroke-width:0.5;" width="81.0547" x="925" y="976"/><line style="stroke:#181818;stroke-width:0.5;" x1="925" x2="1006.0547" y1="1002.4063" y2="1002.4063"/><text fill="#000000" font-family="Roboto" font-size="14" lengthAdjust="spacing" textLength="34.4736" x="948.2905" y="993.9883">n_top</text><text fill="#000000" font-family="Roboto" font-size="12" lengthAdjust="spacing" textLength="61.0547" x="930" y="1018.5391">rising &#183; 40w</text></g><g id="n_kites"><rect fill="#D1C4E9" height="50.4688" rx="4" ry="4" style="stroke:#181818;stroke-width:0.5;" width="81.0547" x="941" y="1103"/><line style="stroke:#181818;stroke-width:0.5;" x1="941" x2="1022.0547" y1="1129.4063" y2="1129.4063"/><text fill="#000000" font-family="Roboto" font-size="14" lengthAdjust="spacing" textLength="43.7773" x="959.6387" y="1120.9883">n_kites</text><text fill="#000000" font-family="Roboto" font-size="12" lengthAdjust="spacing" textLength="61.0547" x="946" y="1145.5391">rising &#183; 38w</text></g><g id="n_reel"><rect fill="#D1C4E9" height="50.4688" rx="4" ry="4" style="stroke:#181818;stroke-width:0.5;" width="81.0547" x="927" y="1230"/><line style="stroke:#181818;stroke-width:0.5;" x1="927" x2="1008.0547" y1="1256.4063" y2="1256.4063"/><text fill="#000000" font-family="Roboto" font-size="14" lengthAdjust="spacing" textLength="37.0439" x="949.0054" y="1247.9883">n_reel</text><text fill="#000000" font-family="Roboto" font-size="12" lengthAdjust="spacing" textLength="61.0547" x="932" y="1272.5391">rising &#183; 36w</text></g><g id="n_kite_end"><rect fill="#C8E6C9" height="64.5313" rx="4" ry="4" style="stroke:#181818;stroke-width:0.5;" width="117.0957" x="859" y="1532"/><line style="stroke:#181818;stroke-width:0.5;" x1="859" x2="976.0957" y1="1558.4063" y2="1558.4063"/><text fill="#000000" font-family="Roboto" font-size="14" lengthAdjust="spacing" textLength="65.9189" x="884.5884" y="1549.9883">n_kite_end</text><text fill="#000000" font-family="Roboto" font-size="12" lengthAdjust="spacing" textLength="97.0957" x="864" y="1574.5391">success (positive)</text><text fill="#000000" font-family="Roboto" font-size="12" lengthAdjust="spacing" textLength="67.6816" x="864" y="1588.6016">"{B2_PRIZE}"</text></g><ellipse cx="525.5" cy="1669" fill="none" rx="11" ry="11" style="stroke:#222222;stroke-width:1.0;"/><ellipse cx="525.5" cy="1669" fill="#222222" rx="6" ry="6" style="stroke:#222222;stroke-width:1.0;"/><!--link *start* to n_park--><g id="link_*start*_n_park"><path d="M644.5,26.01 C644.5,39.89 644.5,60.97 644.5,80.84 " fill="none" id="*start*-to-n_park" style="stroke:#181818;stroke-width:1.0;"/><polygon fill="#181818" points="644.5,86.84,648.5,77.84,644.5,81.84,640.5,77.84,644.5,86.84" style="stroke:#181818;stroke-width:1.0;"/></g><!--link n_park to n_slip--><g id="link_n_park_n_slip"><path d="M644.5,137.1 C644.5,159.24 644.5,185.86 644.5,207.97 " fill="none" id="n_park-to-n_slip" style="stroke:#181818;stroke-width:1.0;"/><polygon fill="#181818" points="644.5,213.97,648.5,204.97,644.5,208.97,640.5,204.97,644.5,213.97" style="stroke:#181818;stroke-width:1.0;"/><text fill="#000000" font-family="Roboto" font-size="13" lengthAdjust="spacing" textLength="142.2446" x="645.5" y="180.0605">Skip down the park path.</text></g><!--link n_slip to n_run--><g id="link_n_slip_n_run"><path d="M644.5,264.1 C644.5,286.24 644.5,312.86 644.5,334.97 " fill="none" id="n_slip-to-n_run" style="stroke:#181818;stroke-width:1.0;"/><polygon fill="#181818" points="644.5,340.97,648.5,331.97,644.5,335.97,640.5,331.97,644.5,340.97" style="stroke:#181818;stroke-width:1.0;"/><text fill="#000000" font-family="Roboto" font-size="13" lengthAdjust="spacing" textLength="84.9507" x="645.5" y="307.0605">Chase {GOAL}!</text></g><!--link n_run to n_fork--><g id="link_n_run_n_fork"><path d="M644.5,391.1 C644.5,413.24 644.5,439.86 644.5,461.97 " fill="none" id="n_run-to-n_fork" style="stroke:#181818;stroke-width:1.0;"/><polygon fill="#181818" points="644.5,467.97,648.5,458.97,644.5,462.97,640.5,458.97,644.5,467.97" style="stroke:#181818;stroke-width:1.0;"/><text fill="#000000" font-family="Roboto" font-size="13" lengthAdjust="spacing" textLength="164.0806" x="645.5" y="434.0605">Run to where the path splits.</text></g><!--link n_fork to n_pond--><g id="link_n_fork_n_pond"><path d="M600.7,500.88 C572.75,507.75 538.51,521.34 520.5,548 C511.32,561.59 510.3586,574.2711 512.2986,589.0411 " fill="none" id="n_fork-to-n_pond" style="stroke:#181818;stroke-width:1.0;"/><polygon fill="#181818" points="513.08,594.99,515.8739,585.5457,512.4289,590.0326,507.942,586.5876,513.08,594.99" style="stroke:#181818;stroke-width:1.0;"/><text fill="#000000" font-family="Roboto" font-size="13" lengthAdjust="spacing" textLength="205.5752" x="521.5" y="561.0605">Follow it down to {ROUTE_A_LURE}.</text></g><!--link n_fork to n_hill--><g id="link_n_fork_n_hill"><path d="M688.42,515.35 C703.32,524.04 719.27,535.1 731.5,548 C744.37,561.57 751.9237,574.7403 758.5837,589.5103 " fill="none" id="n_fork-to-n_hill" style="stroke:#181818;stroke-width:1.0;"/><polygon fill="#181818" points="761.05,594.98,760.9969,585.1313,758.9947,590.422,753.704,588.4197,761.05,594.98" style="stroke:#181818;stroke-width:1.0;"/><text fill="#000000" font-family="Roboto" font-size="13" lengthAdjust="spacing" textLength="173.0752" x="745.5" y="561.0605">Follow it up {ROUTE_B_LURE}.</text></g><!--link n_pond to n_ducks--><g id="link_n_pond_n_ducks"><path d="M514.84,645.1 C511.47,667.24 507.4115,693.9281 504.0515,716.0381 " fill="none" id="n_pond-to-n_ducks" style="stroke:#181818;stroke-width:1.0;"/><polygon fill="#181818" points="503.15,721.97,508.4568,713.6731,503.9012,717.0268,500.5476,712.4712,503.15,721.97" style="stroke:#181818;stroke-width:1.0;"/><text fill="#000000" font-family="Roboto" font-size="13" lengthAdjust="spacing" textLength="182.2158" x="511.5" y="688.0605">Hurry around {ROUTE_A_LURE}.</text></g><!--link n_ducks to n_reeds--><g id="link_n_ducks_n_reeds"><path d="M484.46,772.1 C470.65,794.24 453.4669,821.7701 439.6669,843.8801 " fill="none" id="n_ducks-to-n_reeds" style="stroke:#181818;stroke-width:1.0;"/><polygon fill="#181818" points="436.49,848.97,444.6486,843.453,439.1374,844.7284,437.862,839.2172,436.49,848.97" style="stroke:#181818;stroke-width:1.0;"/><text fill="#000000" font-family="Roboto" font-size="13" lengthAdjust="spacing" textLength="176.6362" x="466.5" y="815.0605">Go to {ROUTE_A_LANDMARK}.</text></g><!--link n_reeds to n_stones--><g id="link_n_reeds_n_stones"><path d="M377.62,876.75 C334.71,880.65 269.81,892.68 227.5,929 C213.55,940.98 207.0953,954.5174 202.5153,969.9674 " fill="none" id="n_reeds-to-n_stones" style="stroke:#181818;stroke-width:1.0;"/><polygon fill="#181818" points="200.81,975.72,207.203,968.228,202.2311,970.9262,199.5329,965.9543,200.81,975.72" style="stroke:#181818;stroke-width:1.0;"/><text fill="#000000" font-family="Roboto" font-size="13" lengthAdjust="spacing" textLength="184.2725" x="228.5" y="942.0605">Tiptoe across {A1_APPROACH}.</text></g><!--link n_reeds to n_boat--><g id="link_n_reeds_n_boat"><path d="M421.5,899.1 C421.5,921.24 421.5,947.86 421.5,969.97 " fill="none" id="n_reeds-to-n_boat" style="stroke:#181818;stroke-width:1.0;"/><polygon fill="#181818" points="421.5,975.97,425.5,966.97,421.5,970.97,417.5,966.97,421.5,975.97" style="stroke:#181818;stroke-width:1.0;"/><text fill="#000000" font-family="Roboto" font-size="13" lengthAdjust="spacing" textLength="120.5293" x="422.5" y="942.0605">Wave to {A2_GUIDE}.</text></g><!--link n_stones to n_willow--><g id="link_n_stones_n_willow"><path d="M195.5,1026.1 C195.5,1048.24 195.5,1074.86 195.5,1096.97 " fill="none" id="n_stones-to-n_willow" style="stroke:#181818;stroke-width:1.0;"/><polygon fill="#181818" points="195.5,1102.97,199.5,1093.97,195.5,1097.97,191.5,1093.97,195.5,1102.97" style="stroke:#181818;stroke-width:1.0;"/><text fill="#000000" font-family="Roboto" font-size="13" lengthAdjust="spacing" textLength="133.3833" x="196.5" y="1069.0605">Stop under {A1_ZONE}.</text></g><!--link n_willow to n_stick--><g id="link_n_willow_n_stick"><path d="M151.64,1129.8 C112.49,1133.14 57.19,1144.87 29.5,1183 C19.64,1196.58 22.0746,1209.6496 29.3246,1224.3396 " fill="none" id="n_willow-to-n_stick" style="stroke:#181818;stroke-width:1.0;"/><polygon fill="#181818" points="31.98,1229.72,31.5838,1219.8791,29.7672,1225.2363,24.4099,1223.4197,31.98,1229.72" style="stroke:#181818;stroke-width:1.0;"/><text fill="#000000" font-family="Roboto" font-size="13" lengthAdjust="spacing" textLength="164.3218" x="30.5" y="1196.0605">Reach up with {A1_OFFER1}.</text></g><!--link n_willow to n_breeze--><g id="link_n_willow_n_breeze"><path d="M198.97,1153.1 C202.16,1175.24 206.0058,1201.9211 209.1858,1224.0311 " fill="none" id="n_willow-to-n_breeze" style="stroke:#181818;stroke-width:1.0;"/><polygon fill="#181818" points="210.04,1229.97,212.718,1220.4922,209.3282,1225.0209,204.7995,1221.6311,210.04,1229.97" style="stroke:#181818;stroke-width:1.0;"/><text fill="#000000" font-family="Roboto" font-size="13" lengthAdjust="spacing" textLength="171.3359" x="207.5" y="1196.0605">Wait for {A1_OFFER2} to help.</text></g><!--link n_stick to n_catch_end--><g id="link_n_stick_n_catch_end"><path d="M53.12,1280.38 C62.02,1318.97 78.0016,1388.2835 87.8516,1430.9935 " fill="none" id="n_stick-to-n_catch_end" style="stroke:#181818;stroke-width:1.0;"/><polygon fill="#181818" points="89.2,1436.84,91.0752,1427.1713,88.0764,1431.9679,83.2798,1428.9691,89.2,1436.84" style="stroke:#181818;stroke-width:1.0;"/><text fill="#000000" font-family="Roboto" font-size="13" lengthAdjust="spacing" textLength="94.8657" x="65.5" y="1323.0605">Catch the string!</text></g><!--link n_breeze to n_drift--><g id="link_n_breeze_n_drift"><path d="M214.85,1280.1 C216.09,1302.24 217.5867,1328.8693 218.8167,1350.9793 " fill="none" id="n_breeze-to-n_drift" style="stroke:#181818;stroke-width:1.0;"/><polygon fill="#181818" points="219.15,1356.97,222.6439,1347.7617,218.8723,1351.9777,214.6563,1348.2061,219.15,1356.97" style="stroke:#181818;stroke-width:1.0;"/><text fill="#000000" font-family="Roboto" font-size="13" lengthAdjust="spacing" textLength="120.7769" x="218.5" y="1323.0605">Watch where it goes.</text></g><!--link n_drift to n_parade_end--><g id="link_n_drift_n_parade_end"><path d="M217.97,1407.25 C216.51,1432.74 217.73,1473.08 235.5,1502 C242.69,1513.7 248.2191,1520.0945 259.3691,1528.4045 " fill="none" id="n_drift-to-n_parade_end" style="stroke:#181818;stroke-width:1.0;"/><polygon fill="#181818" points="264.18,1531.99,259.354,1523.4045,260.171,1529.0021,254.5734,1529.819,264.18,1531.99" style="stroke:#181818;stroke-width:1.0;"/><text fill="#000000" font-family="Roboto" font-size="13" lengthAdjust="spacing" textLength="146.0596" x="236.5" y="1474.0605">Wave to the duck parade.</text></g><!--link n_boat to n_pedal--><g id="link_n_boat_n_pedal"><path d="M421.5,1026.1 C421.5,1048.24 421.5,1074.86 421.5,1096.97 " fill="none" id="n_boat-to-n_pedal" style="stroke:#181818;stroke-width:1.0;"/><polygon fill="#181818" points="421.5,1102.97,425.5,1093.97,421.5,1097.97,417.5,1093.97,421.5,1102.97" style="stroke:#181818;stroke-width:1.0;"/><text fill="#000000" font-family="Roboto" font-size="13" lengthAdjust="spacing" textLength="111.7568" x="422.5" y="1069.0605">Pedal after {GOAL}.</text></g><!--link n_pedal to n_fountain--><g id="link_n_pedal_n_fountain"><path d="M419.41,1153.32 C418.5,1167.03 417.78,1184.47 418.5,1200 C418.95,1209.78 419.27,1214.5591 420.19,1223.8691 " fill="none" id="n_pedal-to-n_fountain" style="stroke:#181818;stroke-width:1.0;"/><polygon fill="#181818" points="420.78,1229.84,423.8756,1220.4903,420.2883,1224.8642,415.9143,1221.277,420.78,1229.84" style="stroke:#181818;stroke-width:1.0;"/><text fill="#000000" font-family="Roboto" font-size="13" lengthAdjust="spacing" textLength="134.1323" x="419.5" y="1196.0605">Follow it to {A2_ZONE}.</text></g><!--link n_fountain to n_boat_end--><g id="link_n_fountain_n_boat_end"><path d="M427.63,1280.38 C434.17,1318.97 445.8972,1388.2144 453.1372,1430.9244 " fill="none" id="n_fountain-to-n_boat_end" style="stroke:#181818;stroke-width:1.0;"/><polygon fill="#181818" points="454.14,1436.84,456.5796,1427.2981,453.3043,1431.9103,448.6921,1428.6351,454.14,1436.84" style="stroke:#181818;stroke-width:1.0;"/><text fill="#000000" font-family="Roboto" font-size="13" lengthAdjust="spacing" textLength="120.6943" x="436.5" y="1323.0605">Hold out both hands.</text></g><!--link n_hill to n_bell--><g id="link_n_hill_n_bell"><path d="M770.69,645.1 C770.87,667.24 771.0812,693.8602 771.2612,715.9702 " fill="none" id="n_hill-to-n_bell" style="stroke:#181818;stroke-width:1.0;"/><polygon fill="#181818" points="771.31,721.97,775.2366,712.9377,771.2693,716.9702,767.2369,713.0029,771.31,721.97" style="stroke:#181818;stroke-width:1.0;"/><text fill="#000000" font-family="Roboto" font-size="13" lengthAdjust="spacing" textLength="196.0981" x="771.5" y="688.0605">Keep climbing toward the sounds.</text></g><!--link n_bell to n_hillside--><g id="link_n_bell_n_hillside"><path d="M771.5,772.1 C771.5,794.24 771.5,820.86 771.5,842.97 " fill="none" id="n_bell-to-n_hillside" style="stroke:#181818;stroke-width:1.0;"/><polygon fill="#181818" points="771.5,848.97,775.5,839.97,771.5,843.97,767.5,839.97,771.5,848.97" style="stroke:#181818;stroke-width:1.0;"/><text fill="#000000" font-family="Roboto" font-size="13" lengthAdjust="spacing" textLength="140.1245" x="772.5" y="815.0605">See where {GOAL} goes.</text></g><!--link n_hillside to n_cart--><g id="link_n_hillside_n_cart"><path d="M771.5,899.1 C771.5,921.24 771.5,947.86 771.5,969.97 " fill="none" id="n_hillside-to-n_cart" style="stroke:#181818;stroke-width:1.0;"/><polygon fill="#181818" points="771.5,975.97,775.5,966.97,771.5,970.97,767.5,966.97,771.5,975.97" style="stroke:#181818;stroke-width:1.0;"/><text fill="#000000" font-family="Roboto" font-size="13" lengthAdjust="spacing" textLength="107.3643" x="772.5" y="942.0605">Run to {B1_ZONE}.</text></g><!--link n_hillside to n_top--><g id="link_n_hillside_n_top"><path d="M815.17,891.33 C837.94,900.77 865.71,913.78 888.5,929 C908.61,942.43 924.4022,956.7928 938.9722,971.6028 " fill="none" id="n_hillside-to-n_top" style="stroke:#181818;stroke-width:1.0;"/><polygon fill="#181818" points="943.18,975.88,939.7197,966.659,939.6735,972.3157,934.0168,972.2695,943.18,975.88" style="stroke:#181818;stroke-width:1.0;"/><text fill="#000000" font-family="Roboto" font-size="13" lengthAdjust="spacing" textLength="227.335" x="909.5" y="942.0605">Climb up to the {ROUTE_B_CREATURE}.</text></g><!--link n_cart to n_umbrella--><g id="link_n_cart_n_umbrella"><path d="M769.63,1026.31 C768.79,1040.02 768.07,1057.46 768.5,1073 C768.77,1082.76 768.9665,1087.5104 769.5165,1096.8304 " fill="none" id="n_cart-to-n_umbrella" style="stroke:#181818;stroke-width:1.0;"/><polygon fill="#181818" points="769.87,1102.82,773.3329,1093.6,769.5754,1097.8287,765.3468,1094.0713,769.87,1102.82" style="stroke:#181818;stroke-width:1.0;"/><text fill="#000000" font-family="Roboto" font-size="13" lengthAdjust="spacing" textLength="168.2637" x="769.5" y="1069.0605">Look up at the tangled string.</text></g><!--link n_umbrella to n_reachup--><g id="link_n_umbrella_n_reachup"><path d="M727.29,1131.92 C690.62,1136.78 639.89,1149.56 610.5,1183 C599.3,1195.74 596.2573,1208.7947 595.6573,1223.9547 " fill="none" id="n_umbrella-to-n_reachup" style="stroke:#181818;stroke-width:1.0;"/><polygon fill="#181818" points="595.42,1229.95,599.7728,1221.1152,595.6177,1224.9539,591.7791,1220.7989,595.42,1229.95" style="stroke:#181818;stroke-width:1.0;"/><text fill="#000000" font-family="Roboto" font-size="13" lengthAdjust="spacing" textLength="156.3301" x="611.5" y="1196.0605">Ask {B1_GUIDE} to reach it.</text></g><!--link n_umbrella to n_stool--><g id="link_n_umbrella_n_stool"><path d="M773.81,1153.1 C775.94,1175.24 778.4973,1201.8874 780.6173,1223.9974 " fill="none" id="n_umbrella-to-n_stool" style="stroke:#181818;stroke-width:1.0;"/><polygon fill="#181818" points="781.19,1229.97,784.3127,1220.6293,780.7128,1224.9928,776.3492,1221.3929,781.19,1229.97" style="stroke:#181818;stroke-width:1.0;"/><text fill="#000000" font-family="Roboto" font-size="13" lengthAdjust="spacing" textLength="145.6914" x="778.5" y="1196.0605">Climb {B1_TOOL} and try.</text></g><!--link n_reachup to n_sundae_end--><g id="link_n_reachup_n_sundae_end"><path d="M596.16,1280.38 C595.61,1318.97 594.6343,1388.1306 594.0343,1430.8406 " fill="none" id="n_reachup-to-n_sundae_end" style="stroke:#181818;stroke-width:1.0;"/><polygon fill="#181818" points="593.95,1436.84,598.076,1427.8971,594.0202,1431.8405,590.0768,1427.7847,593.95,1436.84" style="stroke:#181818;stroke-width:1.0;"/><text fill="#000000" font-family="Roboto" font-size="13" lengthAdjust="spacing" textLength="108.0308" x="597.5" y="1323.0605">Take {GOAL} back.</text></g><!--link n_stool to n_gust--><g id="link_n_stool_n_gust"><path d="M777.52,1280.1 C772.03,1302.24 765.3834,1329.0362 759.9034,1351.1462 " fill="none" id="n_stool-to-n_gust" style="stroke:#181818;stroke-width:1.0;"/><polygon fill="#181818" points="758.46,1356.97,764.5077,1349.1966,759.6629,1352.1168,756.7426,1347.272,758.46,1356.97" style="stroke:#181818;stroke-width:1.0;"/><text fill="#000000" font-family="Roboto" font-size="13" lengthAdjust="spacing" textLength="124.9473" x="770.5" y="1323.0605">Reach one more inch.</text></g><!--link n_gust to n_goodbye_end--><g id="link_n_gust_n_goodbye_end"><path d="M747.91,1407.34 C741.84,1439.58 732.2298,1490.5835 725.5498,1526.0735 " fill="none" id="n_gust-to-n_goodbye_end" style="stroke:#181818;stroke-width:1.0;"/><polygon fill="#181818" points="724.44,1531.97,730.0357,1523.8652,725.3649,1527.0563,722.1738,1522.3854,724.44,1531.97" style="stroke:#181818;stroke-width:1.0;"/><text fill="#000000" font-family="Roboto" font-size="13" lengthAdjust="spacing" textLength="68.8276" x="743.5" y="1474.0605">Watch it go.</text></g><!--link n_top to n_kites--><g id="link_n_top_n_kites"><path d="M968.58,1026.1 C971.42,1048.24 974.8282,1074.9086 977.6582,1097.0186 " fill="none" id="n_top-to-n_kites" style="stroke:#181818;stroke-width:1.0;"/><polygon fill="#181818" points="978.42,1102.97,981.245,1093.535,977.7852,1098.0105,973.3097,1094.5507,978.42,1102.97" style="stroke:#181818;stroke-width:1.0;"/><text fill="#000000" font-family="Roboto" font-size="13" lengthAdjust="spacing" textLength="135.3511" x="974.5" y="1069.0605">Ask {B2_FRIEND} to try.</text></g><!--link n_kites to n_reel--><g id="link_n_kites_n_reel"><path d="M978.8,1153.1 C976.32,1175.24 973.3388,1201.8974 970.8588,1224.0074 " fill="none" id="n_kites-to-n_reel" style="stroke:#181818;stroke-width:1.0;"/><polygon fill="#181818" points="970.19,1229.97,975.1683,1221.472,970.7473,1225.0012,967.2181,1220.5802,970.19,1229.97" style="stroke:#181818;stroke-width:1.0;"/><text fill="#000000" font-family="Roboto" font-size="13" lengthAdjust="spacing" textLength="126.6802" x="975.5" y="1196.0605">Reel them in together.</text></g><!--link n_reel to n_kite_end--><g id="link_n_reel_n_kite_end"><path d="M963.58,1280.13 C954.62,1335.2 933.6433,1464.2478 923.6133,1525.9078 " fill="none" id="n_reel-to-n_kite_end" style="stroke:#181818;stroke-width:1.0;"/><polygon fill="#181818" points="922.65,1531.83,928.0431,1523.589,923.4528,1526.8949,920.1469,1522.3045,922.65,1531.83" style="stroke:#181818;stroke-width:1.0;"/><text fill="#000000" font-family="Roboto" font-size="13" lengthAdjust="spacing" textLength="132.9517" x="951.5" y="1386.5605">Take hold of the string.</text></g><!--link n_catch_end to *end*--><g id="link_n_catch_end_*end*"><path d="M125.65,1502.2 C153.88,1531.04 199.24,1572.7 246.5,1597 C342.73,1646.48 469.7706,1662.4447 508.5306,1666.3747 " fill="none" id="n_catch_end-to-*end*" style="stroke:#181818;stroke-width:1.0;"/><polygon fill="#181818" points="514.5,1666.98,505.9494,1662.0925,509.5255,1666.4756,505.1424,1670.0517,514.5,1666.98" style="stroke:#181818;stroke-width:1.0;"/></g><!--link n_parade_end to *end*--><g id="link_n_parade_end_*end*"><path d="M387.83,1597.09 C433.97,1620.85 487.6755,1648.5234 510.5355,1660.2934 " fill="none" id="n_parade_end-to-*end*" style="stroke:#181818;stroke-width:1.0;"/><polygon fill="#181818" points="515.87,1663.04,509.6994,1655.3638,511.4246,1660.7512,506.0373,1662.4765,515.87,1663.04" style="stroke:#181818;stroke-width:1.0;"/></g><!--link n_boat_end to *end*--><g id="link_n_boat_end_*end*"><path d="M470.1,1502.23 C485.41,1548.03 510.9778,1624.5495 520.3578,1652.6095 " fill="none" id="n_boat_end-to-*end*" style="stroke:#181818;stroke-width:1.0;"/><polygon fill="#181818" points="522.26,1658.3,523.2003,1648.4961,520.6748,1653.5579,515.613,1651.0324,522.26,1658.3" style="stroke:#181818;stroke-width:1.0;"/></g><!--link n_sundae_end to *end*--><g id="link_n_sundae_end_*end*"><path d="M582.57,1502.23 C566.81,1548.03 540.4531,1624.5668 530.7931,1652.6268 " fill="none" id="n_sundae_end-to-*end*" style="stroke:#181818;stroke-width:1.0;"/><polygon fill="#181818" points="528.84,1658.3,535.5518,1651.0922,530.4676,1653.5723,527.9875,1648.4881,528.84,1658.3" style="stroke:#181818;stroke-width:1.0;"/></g><!--link n_goodbye_end to *end*--><g id="link_n_goodbye_end_*end*"><path d="M660.17,1597.15 C641.76,1607.08 621.3,1618.05 602.5,1628 C578.27,1640.82 554.9054,1652.8853 540.3454,1660.3753 " fill="none" id="n_goodbye_end-to-*end*" style="stroke:#181818;stroke-width:1.0;"/><polygon fill="#181818" points="535.01,1663.12,544.8429,1662.56,539.4562,1660.8328,541.1834,1655.446,535.01,1663.12" style="stroke:#181818;stroke-width:1.0;"/></g><!--link n_kite_end to *end*--><g id="link_n_kite_end_*end*"><path d="M858.81,1580.85 C763.56,1605.75 587.1449,1651.8823 541.7449,1663.7523 " fill="none" id="n_kite_end-to-*end*" style="stroke:#181818;stroke-width:1.0;"/><polygon fill="#181818" points="535.94,1665.27,545.6591,1666.8634,540.7774,1664.0052,543.6355,1659.1235,535.94,1665.27" style="stroke:#181818;stroke-width:1.0;"/></g><rect fill="none" height="108.4375" id="_legend" rx="4" ry="4" style="stroke:#000000;stroke-width:1.0;" width="220.417" x="898.418" y="1697"/><text fill="#000000" font-family="Roboto" font-size="14" lengthAdjust="spacing" textLength="124.6875" x="903.418" y="1714.9883">The Big Red Balloon</text><text fill="#000000" font-family="Roboto" font-size="14" lengthAdjust="spacing" textLength="155.791" x="903.418" y="1731.3945">Band 3-5 &#183; Tier 1 &#183; ~4 min</text><text fill="#000000" font-family="Roboto" font-size="14" lengthAdjust="spacing" textLength="128.0713" x="903.418" y="1747.8008">Topology: time_cave</text><text fill="#000000" font-family="Roboto" font-size="14" lengthAdjust="spacing" textLength="210.417" x="903.418" y="1764.207">32 nodes &#183; 6 endings (5+ / 1n / 0-)</text><text fill="#000000" font-family="Roboto" font-size="14" lengthAdjust="spacing" textLength="116.2588" x="903.418" y="1780.6133">Production-eligible</text><text fill="#000000" font-family="Roboto" font-size="14" lengthAdjust="spacing" textLength="137.7852" x="903.418" y="1797.0195">Scale: medium &#183; prose</text><!--SRC=[TLTjRzis4FwkNt5DFxJT4BLnqgBDW06sOoTzMHmuBWfq60nQeYN2aYXGL0mloFxMlk-NxOwa9Cgj420MZyyTxuvtzqWlu9eNN37DOzWgcKErundNie1FzujRs1oWYfGeTVLQyIBcQjtihsF14iNoAYmFOV02hYGKKWEFXIQjb1NnRw3ugQeBq2c7n1uZLHXKEr6K37KXvbjMPtek2ttBSWudIxcHMfvua0sBTecITH5FPIOLF9-FwSz3k4s5zk5za8gO0yzBVK3hrdSXYo3uyvU_uFJqToZMgBKBAeqXkmKydqokPlD9u9QNK75Tb_3Vlt1niM-XLIPA3sgMFdJKGIde3aah3tZ-lWDk9Hq_dyy_J2y2jxo4A9KYuiVdbxA8uVdLsVHYzY5moqjGeX95Oh1lEcnSHxlA0zkrZpv_vxdBULnvRjZra1yLtZxtZJj1pxeNurvacTnxvfsWPt_asnVHhcUUraE-Hqn7wPfJQgRlP- -cfD79CErr5F6gWfUbh8GM3_pL4U3aSNoslbj-_3uxUpffpMum1tzppmid60eoLcAh_OIRzP3JLBWnF_BQ4rv2BAf8Fd1rw3lUmtIUZtpF9VCTCSkXCYbvp3A_finwoEijDffcel0KMj5GNkZuepXRqS3bUFiOuSX6w0MOOlbuBfZbK80RtiEQvL1uPAYYwT5LQYiQweM8AJ_PPZdaIvrZ3MKPy-oteg5UK9n5AOwDxeX6CXH5XSEG7PUM9yIJP5xY2CUfsCzx3tJoEFb9Ls2dowpV-J8RlFkahlpacEKWLifuSt1-pzxGNz2NcWbAR00l2rvhnR9NFo0wh_sEqD9F8As6hcWdT6-osVMGppWHijxDyE7Y8aj7bzAA1lh0syUukZvmB6N9pB7G_Gv_OhctN6lsIwRJiE4f2xP4D4rPnU7nUZ7-ylJCqPFTT_Ip9CgMi4-vuiwUJg4gCw6hi64fnwMMXERIJ7IaVkk3XCVbukjgjXwlltnTpfwEj5pBTbfOpqvXqYaOsrQXeQ-RMk54P8RnVtA4XRbO7OTToxuxuzkhFyRBpmPlCIwH3Ocjy8r1Sc2HadWZD6B7TtVBnNXwyuEEcwtVs0CtX-2mklxwySewumnQP4jvzrH-DRr96TFV5xSMxG2DBvRnbjJhb9ozm0iW_68-dotFVjHesUaRmtHYgZlqw8byItbMXYsPMYMV1QVqR2wxqWhhzrb7UUuA7A5zCq1R6tXK8hcf2RlTlc1r9DKaXqpJ_O3T3HjgSYgEUExCBzjgoe-fqB2bfQP6MyRfwiSblyrc2-hkoRbp8xCOP8tlg19JIc-fndrJaGviEU8pvoL4cSWtrCrQxfcARNwe-8oIGNOLxOZYddEN7Xj0cw8MqsJVS8LhDXfShVj7I3knfkGB5ODBPjimq-Lil6fQm5YrQXwvV95oHwgORrBLh4WoVE6tLntwHDGqJqCousfdVBDrJMURFKpwJzGQEh2kajfgiS0CO9P1gqFeqPTJy2bdnNPjpcZEXot1MB3Z3ziKs5kGIwh18Z9ZpkmwO8yJRC6QKWtT-BUmPhZR44Vh-VBZxFRAnEYSjOXsdcJcTFp17EPuC28JZiygRAP_PzYFAJKrj_MwA-ozWv8MVfxqN-ywOLkzdSZBMoVqm-wahJEDACXuGcibabG702lqQY8IZ2o62SEEmgybm2U4d9- -9HvR2Up6Cthwvm9oGTihMUBNM7Au12roZh4yS9IUZ_0R4B-w2FeEy10C5KdjxQ_m6iuA_FVcz1N2xfJ4IK0l8ASy4udOPAHy7x6CNqAENv1rJXPA7C0yG2lMuVy1]--></g></svg>