<svg xmlns="http://www.w3.org/2000/svg" xmlns:xlink="http://www.w3.org/1999/xlink" contentStyleType="text/css" height="1187px" preserveAspectRatio="none" style="width:2792px;height:1187px;background:#FAFAFA;" version="1.1" viewBox="0 0 2792 1187" width="2792px" zoomAndPan="magnify"><defs><style type="text/css">@import url('https://fonts.googleapis.com/css?family=Roboto:400,100,100italic,300,300italic,400italic,500,500italic,700,700italic,900,900italic');</style></defs><g><rect fill="#FAFAFA" height="1187" style="stroke:none;stroke-width:1.0;" width="2792" x="0" y="0"/><!--cluster pwa--><g id="cluster_pwa"><rect fill="#E3F2FD" height="589" rx="4" ry="4" style="stroke:#555555;stroke-width:1.0;" width="344" x="1656.5" y="128.5"/><text fill="#222222" font-family="Roboto" font-size="14" font-weight="bold" lengthAdjust="spacing" textLength="95.5938" x="1780.7031" y="143.4883">PWA Container</text><text fill="#222222" font-family="Roboto" font-size="14" font-weight="bold" lengthAdjust="spacing" textLength="170.8711" x="1743.0645" y="159.8945">[React 19, TypeScript, Vite]</text><text fill="#222222" font-family="Roboto" font-size="14" font-weight="bold" lengthAdjust="spacing" textLength="145.6123" x="1755.6938" y="176.3008">Served as static assets</text></g><!--cluster backend--><g id="cluster_backend"><rect fill="#E8F5E9" height="376" rx="4" ry="4" style="stroke:#555555;stroke-width:1.0;" width="1073" x="212.5" y="789.5"/><text fill="#222222" font-family="Roboto" font-size="14" font-weight="bold" lengthAdjust="spacing" textLength="107.6865" x="695.1567" y="804.4883">FastAPI Backend</text><text fill="#222222" font-family="Roboto" font-size="14" font-weight="bold" lengthAdjust="spacing" textLength="221.0059" x="638.4971" y="820.8945">[Python 3.12, FastAPI, Pydantic v2]</text><text fill="#222222" font-family="Roboto" font-size="14" font-weight="bold" lengthAdjust="spacing" textLength="121.7549" x="688.1226" y="837.3008">src/cyo_adventure/</text></g><!--entity reader--><g id="elem_reader"><rect fill="#DDEEFF" height="52.8125" rx="4" ry="4" style="stroke:#555555;stroke-width:0.5;" width="149.4316" x="1672" y="196.5"/><text fill="#222222" font-family="Roboto" font-size="14" lengthAdjust="spacing" textLength="60.0879" x="1682" y="219.4883">Reader UI</text><text fill="#222222" font-family="Roboto" font-size="14" lengthAdjust="spacing" textLength="129.4316" x="1682" y="235.8945">frontend/src/reader/</text></g><!--entity library_ui--><g id="elem_library_ui"><rect fill="#DDEEFF" height="52.8125" rx="4" ry="4" style="stroke:#555555;stroke-width:0.5;" width="128.4658" x="1856.5" y="196.5"/><text fill="#222222" font-family="Roboto" font-size="14" lengthAdjust="spacing" textLength="58.8916" x="1866.5" y="219.4883">Library UI</text><text fill="#222222" font-family="Roboto" font-size="14" lengthAdjust="spacing" textLength="108.4658" x="1866.5" y="235.8945">frontend/src/api/</text></g><!--entity player_ui--><g id="elem_player_ui"><rect fill="#DDEEFF" height="69.2188" rx="4" ry="4" style="stroke:#555555;stroke-width:0.5;" width="211.1465" x="1682" y="310.5"/><text fill="#222222" font-family="Roboto" font-size="14" lengthAdjust="spacing" textLength="38.6436" x="1692" y="333.4883">Player</text><text fill="#222222" font-family="Roboto" font-size="14" lengthAdjust="spacing" textLength="127.2578" x="1692" y="349.8945">frontend/src/player/</text><text fill="#222222" font-family="Roboto" font-size="14" lengthAdjust="spacing" textLength="191.1465" x="1692" y="366.3008">TS evaluator + XState machine</text></g><!--entity offline--><g id="elem_offline"><rect fill="#DDEEFF" height="69.2188" rx="4" ry="4" style="stroke:#555555;stroke-width:0.5;" width="174.3076" x="1706.5" y="471.5"/><text fill="#222222" font-family="Roboto" font-size="14" lengthAdjust="spacing" textLength="78.75" x="1716.5" y="494.4883">Offline Layer</text><text fill="#222222" font-family="Roboto" font-size="14" lengthAdjust="spacing" textLength="129.2676" x="1716.5" y="510.8945">frontend/src/offline/</text><text fill="#222222" font-family="Roboto" font-size="14" lengthAdjust="spacing" textLength="154.3076" x="1716.5" y="527.3008">IndexedDB + write queue</text></g><!--entity gen_client--><g id="elem_gen_client"><rect fill="#E0E0E0" height="69.2188" rx="4" ry="4" style="stroke:#555555;stroke-width:0.5;" width="249.4893" x="1673" y="632.5"/><text fill="#222222" font-family="Roboto" font-size="14" lengthAdjust="spacing" textLength="128.748" x="1683" y="655.4883">Generated API Client</text><text fill="#222222" font-family="Roboto" font-size="14" lengthAdjust="spacing" textLength="229.4893" x="1683" y="671.8945">frontend/src/client/ [BUILD OUTPUT]</text><text fill="#222222" font-family="Roboto" font-size="14" lengthAdjust="spacing" textLength="210.0752" x="1683" y="688.3008">from OpenAPI schema via hey-api</text></g><!--entity routers--><g id="elem_routers"><rect fill="#CCEECC" height="69.2188" rx="4" ry="4" style="stroke:#555555;stroke-width:0.5;" width="175.7568" x="729.5" y="865.5"/><text fill="#222222" font-family="Roboto" font-size="14" lengthAdjust="spacing" textLength="73.5479" x="739.5" y="888.4883">API Routers</text><text fill="#222222" font-family="Roboto" font-size="14" lengthAdjust="spacing" textLength="146.8359" x="739.5" y="904.8945">api/health.py, library.py,</text><text fill="#222222" font-family="Roboto" font-size="14" lengthAdjust="spacing" textLength="155.7568" x="739.5" y="921.3008">reading.py, generation.py</text></g><!--entity auth--><g id="elem_auth"><rect fill="#CCEECC" height="69.2188" rx="4" ry="4" style="stroke:#555555;stroke-width:0.5;" width="161.5176" x="236.5" y="1064"/><text fill="#222222" font-family="Roboto" font-size="14" lengthAdjust="spacing" textLength="68.2432" x="246.5" y="1086.9883">Auth Seam</text><text fill="#222222" font-family="Roboto" font-size="14" lengthAdjust="spacing" textLength="73.2402" x="246.5" y="1103.3945">api/deps.py</text><text fill="#222222" font-family="Roboto" font-size="14" lengthAdjust="spacing" textLength="141.5176" x="246.5" y="1119.8008">Principal / family / role</text></g><!--entity storybook_dom--><g id="elem_storybook_dom"><rect fill="#CCEECC" height="85.625" rx="4" ry="4" style="stroke:#555555;stroke-width:0.5;" width="164.0811" x="433.5" y="1055.5"/><text fill="#222222" font-family="Roboto" font-size="14" lengthAdjust="spacing" textLength="114.8438" x="443.5" y="1078.4883">Storybook Domain</text><text fill="#222222" font-family="Roboto" font-size="14" lengthAdjust="spacing" textLength="132.248" x="443.5" y="1094.8945">storybook/models.py</text><text fill="#222222" font-family="Roboto" font-size="14" lengthAdjust="spacing" textLength="143.9033" x="443.5" y="1111.3008">storybook/evaluator.py</text><text fill="#222222" font-family="Roboto" font-size="14" lengthAdjust="spacing" textLength="144.0811" x="443.5" y="1127.707">storybook/condition.py</text></g><!--entity player_eng--><g id="elem_player_eng"><rect fill="#CCEECC" height="69.2188" rx="4" ry="4" style="stroke:#555555;stroke-width:0.5;" width="200.1406" x="632.5" y="1064"/><text fill="#222222" font-family="Roboto" font-size="14" lengthAdjust="spacing" textLength="84.2256" x="642.5" y="1086.9883">Player Engine</text><text fill="#222222" font-family="Roboto" font-size="14" lengthAdjust="spacing" textLength="103.2021" x="642.5" y="1103.3945">player/engine.py</text><text fill="#222222" font-family="Roboto" font-size="14" lengthAdjust="spacing" textLength="180.1406" x="642.5" y="1119.8008">Runtime Semantics v1 (pure)</text></g><!--entity validator--><g id="elem_validator"><rect fill="#CCEECC" height="69.2188" rx="4" ry="4" style="stroke:#555555;stroke-width:0.5;" width="164.4639" x="867.5" y="1064"/><text fill="#222222" font-family="Roboto" font-size="14" lengthAdjust="spacing" textLength="88.7852" x="877.5" y="1086.9883">Validator Gate</text><text fill="#222222" font-family="Roboto" font-size="14" lengthAdjust="spacing" textLength="105.458" x="877.5" y="1103.3945">validator/gate.py</text><text fill="#222222" font-family="Roboto" font-size="14" lengthAdjust="spacing" textLength="144.4639" x="877.5" y="1119.8008">L1+L2+RL+SAFE layers</text></g><!--entity orchestrator--><g id="elem_orchestrator"><rect fill="#CCEECC" height="69.2188" rx="4" ry="4" style="stroke:#555555;stroke-width:0.5;" width="187.1182" x="1067" y="1064"/><text fill="#222222" font-family="Roboto" font-size="14" lengthAdjust="spacing" textLength="149.96" x="1077" y="1086.9883">Generation Orchestrator</text><text fill="#222222" font-family="Roboto" font-size="14" lengthAdjust="spacing" textLength="167.1182" x="1077" y="1103.3945">generation/orchestrator.py</text><text fill="#222222" font-family="Roboto" font-size="14" lengthAdjust="spacing" textLength="140.6016" x="1077" y="1119.8008">Stage A-&gt;B-&gt;C pipeline</text></g><!--entity middleware--><g id="elem_middleware"><rect fill="#CCEECC" height="69.2188" rx="4" ry="4" style="stroke:#555555;stroke-width:0.5;" width="183.502" x="307.5" y="865.5"/><text fill="#222222" font-family="Roboto" font-size="14" lengthAdjust="spacing" textLength="72.5498" x="317.5" y="888.4883">Middleware</text><text fill="#222222" font-family="Roboto" font-size="14" lengthAdjust="spacing" textLength="163.502" x="317.5" y="904.8945">middleware/correlation.py</text><text fill="#222222" font-family="Roboto" font-size="14" lengthAdjust="spacing" textLength="145.6055" x="317.5" y="921.3008">middleware/security.py</text></g><!--entity child--><g id="elem_child"><ellipse cx="1746.3647" cy="14" fill="#E3F2FD" rx="8" ry="8" style="stroke:#181818;stroke-width:0.5;"/><path d="M1746.3647,22 L1746.3647,49 M1733.3647,30 L1759.3647,30 M1746.3647,49 L1733.3647,64 M1746.3647,49 L1759.3647,64 " fill="none" style="stroke:#181818;stroke-width:0.5;"/><text fill="#000000" font-family="Roboto" font-size="14" lengthAdjust="spacing" textLength="78.7295" x="1707" y="78.4883">Child Reader</text></g><!--entity guardian--><g id="elem_guardian"><ellipse cx="1920.6299" cy="14" fill="#E8F5E9" rx="8" ry="8" style="stroke:#181818;stroke-width:0.5;"/><path d="M1920.6299,22 L1920.6299,49 M1907.6299,30 L1933.6299,30 M1920.6299,49 L1907.6299,64 M1920.6299,49 L1933.6299,64 " fill="none" style="stroke:#181818;stroke-width:0.5;"/><text fill="#000000" font-family="Roboto" font-size="14" lengthAdjust="spacing" textLength="56.2598" x="1892.5" y="78.4883">Guardian</text></g><!--entity worker--><g id="elem_worker"><rect fill="#FFF3E0" height="69.2188" rx="4" ry="4" style="stroke:#555555;stroke-width:0.5;" width="152.9658" x="1795" y="865.5"/><text fill="#222222" font-family="Roboto" font-size="14" lengthAdjust="spacing" textLength="116.0605" x="1805" y="888.4883">Generation Worker</text><text fill="#222222" font-family="Roboto" font-size="14" lengthAdjust="spacing" textLength="124.9336" x="1805" y="904.8945">[RQ worker process]</text><text fill="#222222" font-family="Roboto" font-size="14" lengthAdjust="spacing" textLength="132.9658" x="1805" y="921.3008">generation/worker.py</text></g><!--entity postgres--><g id="elem_postgres"><path d="M1699,1036.5 C1699,1026.5 1800.376,1026.5 1800.376,1026.5 C1800.376,1026.5 1901.752,1026.5 1901.752,1036.5 L1901.752,1160.3438 C1901.752,1170.3438 1800.376,1170.3438 1800.376,1170.3438 C1800.376,1170.3438 1699,1170.3438 1699,1160.3438 L1699,1036.5 " fill="#FFF8E1" style="stroke:#181818;stroke-width:0.5;"/><path d="M1699,1036.5 C1699,1046.5 1800.376,1046.5 1800.376,1046.5 C1800.376,1046.5 1901.752,1046.5 1901.752,1036.5 " fill="none" style="stroke:#181818;stroke-width:0.5;"/><text fill="#000000" font-family="Roboto" font-size="14" lengthAdjust="spacing" textLength="93.3447" x="1709" y="1063.4883">PostgreSQL 16</text><text fill="#000000" font-family="Roboto" font-size="14" lengthAdjust="spacing" textLength="100.8027" x="1709" y="1079.8945">[Operational DB]</text><text fill="#000000" font-family="Roboto" font-size="14" lengthAdjust="spacing" textLength="86.7959" x="1709" y="1096.3008">9 ORM tables:</text><text fill="#000000" font-family="Roboto" font-size="14" lengthAdjust="spacing" textLength="156.9326" x="1709" y="1112.707">Family, User, ChildProfile,</text><text fill="#000000" font-family="Roboto" font-size="14" lengthAdjust="spacing" textLength="182.752" x="1709" y="1129.1133">Storybook, StorybookVersion,</text><text fill="#000000" font-family="Roboto" font-size="14" lengthAdjust="spacing" textLength="163.8164" x="1709" y="1145.5195">ReadingState, Completion,</text><text fill="#000000" font-family="Roboto" font-size="14" lengthAdjust="spacing" textLength="149.9941" x="1709" y="1161.9258">Concept, GenerationJob</text></g><!--entity redis--><g id="elem_redis"><path d="M1361,1069.5 C1361,1059.5 1461.4531,1059.5 1461.4531,1059.5 C1461.4531,1059.5 1561.9063,1059.5 1561.9063,1069.5 L1561.9063,1127.7188 C1561.9063,1137.7188 1461.4531,1137.7188 1461.4531,1137.7188 C1461.4531,1137.7188 1361,1137.7188 1361,1127.7188 L1361,1069.5 " fill="#E0E0E0" style="stroke:#181818;stroke-width:0.5;"/><path d="M1361,1069.5 C1361,1079.5 1461.4531,1079.5 1461.4531,1079.5 C1461.4531,1079.5 1561.9063,1079.5 1561.9063,1069.5 " fill="none" style="stroke:#181818;stroke-width:0.5;"/><text fill="#000000" font-family="Roboto" font-size="14" lengthAdjust="spacing" textLength="34.5762" x="1371" y="1096.4883">Redis</text><text fill="#000000" font-family="Roboto" font-size="14" lengthAdjust="spacing" textLength="74.3203" x="1371" y="1112.8945">[Job broker]</text><text fill="#000000" font-family="Roboto" font-size="14" lengthAdjust="spacing" textLength="180.9063" x="1371" y="1129.3008">RQ queue for generation jobs</text></g><!--entity minio--><g id="elem_minio"><rect fill="#E0E0E0" height="69.2188" rx="4" ry="4" style="stroke:#555555;stroke-width:0.5;" width="230.7725" x="2289" y="1064"/><text fill="#222222" font-family="Roboto" font-size="14" lengthAdjust="spacing" textLength="36.7979" x="2299" y="1086.9883">MinIO</text><text fill="#222222" font-family="Roboto" font-size="14" lengthAdjust="spacing" textLength="210.7725" x="2299" y="1103.3945">[Object storage, deferred Phase 5]</text><text fill="#222222" font-family="Roboto" font-size="14" lengthAdjust="spacing" textLength="167.1523" x="2299" y="1119.8008">Storybook blobs via S3 API</text></g><!--entity openrouter--><g id="elem_openrouter"><rect fill="#F3E5F5" height="52.8125" rx="4" ry="4" style="stroke:#555555;stroke-width:0.5;" width="106.4404" x="1988.5" y="1072"/><text fill="#222222" font-family="Roboto" font-size="14" lengthAdjust="spacing" textLength="73.7256" x="1998.5" y="1094.9883">OpenRouter</text><text fill="#222222" font-family="Roboto" font-size="14" lengthAdjust="spacing" textLength="86.4404" x="1998.5" y="1111.3945">[Primary LLM]</text></g><!--entity ollama--><g id="elem_ollama"><rect fill="#FFEBEE" height="52.8125" rx="4" ry="4" style="stroke:#555555;stroke-width:0.5;" width="113.96" x="2139.5" y="1072"/><text fill="#222222" font-family="Roboto" font-size="14" lengthAdjust="spacing" textLength="43.9482" x="2149.5" y="1094.9883">Ollama</text><text fill="#222222" font-family="Roboto" font-size="14" lengthAdjust="spacing" textLength="93.96" x="2149.5" y="1111.3945">[Local fallback]</text></g><!--entity authentik--><g id="elem_authentik"><rect fill="#E0F7FA" height="52.8125" rx="4" ry="4" style="stroke:#555555;stroke-width:0.5;" width="79.377" x="7" y="1072"/><text fill="#222222" font-family="Roboto" font-size="14" lengthAdjust="spacing" textLength="59.377" x="17" y="1094.9883">Authentik</text><text fill="#222222" font-family="Roboto" font-size="14" lengthAdjust="spacing" textLength="39.1631" x="17" y="1111.3945">[OIDC]</text></g><g id="elem_GMN45"><path d="M1983.5,876 L1983.5,923.7031 A4,4 0 0 0 1987.5,927.7031 L2309.7007,927.7031 A4,4 0 0 0 2313.7007,923.7031 L2313.7007,882 L2303.7007,872 L1987.5,872 A4,4 0 0 0 1983.5,876 " fill="#FEFFDD" style="stroke:#181818;stroke-width:0.5;"/><path d="M2303.7007,872 L2303.7007,880 A2,2 0 0 0 2305.7007,882 L2313.7007,882 L2303.7007,872 " fill="#FEFFDD" style="stroke:#181818;stroke-width:1.0;"/><text fill="#000000" font-family="Roboto" font-size="13" lengthAdjust="spacing" textLength="309.2007" x="1989.5" y="889.0605">Regenerated from http://localhost:8000/openapi.json</text><text fill="#000000" font-family="Roboto" font-size="13" lengthAdjust="spacing" textLength="159.9165" x="1989.5" y="904.2949">via: npm run generate-client</text><text fill="#000000" font-family="Roboto" font-size="13" lengthAdjust="spacing" textLength="250.0596" x="1989.5" y="919.5293">Never hand-edit files in frontend/src/client/</text></g><g id="elem_GMN48"><path d="M2555.5,1067 L2555.5,1094.5 L2520.1,1098.5 L2555.5,1102.5 L2555.5,1129.9375 A4,4 0 0 0 2559.5,1133.9375 L2781.3315,1133.9375 A4,4 0 0 0 2785.3315,1129.9375 L2785.3315,1073 L2775.3315,1063 L2559.5,1063 A4,4 0 0 0 2555.5,1067 " fill="#FEFFDD" style="stroke:#181818;stroke-width:0.5;"/><path d="M2775.3315,1063 L2775.3315,1071 A2,2 0 0 0 2777.3315,1073 L2785.3315,1073 L2775.3315,1063 " fill="#FEFFDD" style="stroke:#181818;stroke-width:0.5;"/><text fill="#000000" font-family="Roboto" font-size="13" lengthAdjust="spacing" textLength="152.3057" x="2561.5" y="1080.0605">Phase 1: blob stored inline</text><text fill="#000000" font-family="Roboto" font-size="13" lengthAdjust="spacing" textLength="208.8315" x="2561.5" y="1095.2949">on storybook_version.blob (JSONB).</text><text fill="#000000" font-family="Roboto" font-size="13" lengthAdjust="spacing" textLength="165.8262" x="2561.5" y="1110.5293">blob_ref column reserved for</text><text fill="#000000" font-family="Roboto" font-size="13" lengthAdjust="spacing" textLength="158.2217" x="2561.5" y="1125.7637">MinIO object key (Phase 5).</text></g><!--link child to reader--><g id="link_child_reader"><path d="M1746.5,81.71 C1746.5,116.07 1746.5,160.2 1746.5,190.31 " fill="none" id="child-to-reader" style="stroke:#181818;stroke-width:1.0;"/><polygon fill="#181818" points="1746.5,196.31,1750.5,187.31,1746.5,191.31,1742.5,187.31,1746.5,196.31" style="stroke:#181818;stroke-width:1.0;"/></g><!--link guardian to library_ui--><g id="link_guardian_library_ui"><path d="M1920.5,81.71 C1920.5,116.07 1920.5,160.2 1920.5,190.31 " fill="none" id="guardian-to-library_ui" style="stroke:#181818;stroke-width:1.0;"/><polygon fill="#181818" points="1920.5,196.31,1924.5,187.31,1920.5,191.31,1916.5,187.31,1920.5,196.31" style="stroke:#181818;stroke-width:1.0;"/></g><!--link reader to player_ui--><g id="link_reader_player_ui"><path d="M1755.3,249.74 C1761.32,267.37 1767.4282,285.2629 1773.9782,304.4129 " fill="none" id="reader-to-player_ui" style="stroke:#181818;stroke-width:1.0;"/><polygon fill="#181818" points="1775.92,310.09,1776.7921,300.2798,1774.3019,305.3591,1769.2226,302.8689,1775.92,310.09" style="stroke:#181818;stroke-width:1.0;"/></g><!--link player_ui to offline--><g id="link_player_ui_offline"><path d="M1788.77,379.72 C1789.79,406.7 1790.9832,438.3643 1792.0032,465.3343 " fill="none" id="player_ui-to-offline" style="stroke:#181818;stroke-width:1.0;"/><polygon fill="#181818" points="1792.23,471.33,1795.887,462.1853,1792.041,466.3336,1787.8927,462.4876,1792.23,471.33" style="stroke:#181818;stroke-width:1.0;"/><text fill="#000000" font-family="Roboto" font-size="13" lengthAdjust="spacing" textLength="60.0171" x="1791.5" y="422.5605">local state</text><text fill="#000000" font-family="Roboto" font-size="13" lengthAdjust="spacing" textLength="34.7344" x="1804.1414" y="437.7949">cache</text></g><!--link gen_client to routers--><g id="link_gen_client_routers"><path d="M1672.9,670.7 C1459.84,677.29 1036.21,699.56 909.5,773.5 C873.45,794.54 850.1173,830.5406 835.1373,860.0306 " fill="none" id="gen_client-to-routers" style="stroke:#181818;stroke-width:1.0;"/><polygon fill="#181818" points="832.42,865.38,840.0623,859.1674,834.6844,860.9222,832.9297,855.5443,832.42,865.38" style="stroke:#181818;stroke-width:1.0;"/><text fill="#000000" font-family="Roboto" font-size="13" lengthAdjust="spacing" textLength="75.9624" x="1013.6675" y="746.5605">REST /api/v1</text><text fill="#000000" font-family="Roboto" font-size="13" lengthAdjust="spacing" textLength="82.2974" x="1010.5" y="761.7949">(Bearer token)</text></g><!--link offline to gen_client--><g id="link_offline_gen_client"><path d="M1794.35,540.72 C1795.03,567.7 1795.8188,599.3619 1796.4988,626.3319 " fill="none" id="offline-to-gen_client" style="stroke:#181818;stroke-width:1.0;stroke-dasharray:7.0,7.0;"/><polygon fill="#181818" points="1796.65,632.33,1800.4219,623.232,1796.524,627.3316,1792.4244,623.4337,1796.65,632.33" style="stroke:#181818;stroke-width:1.0;"/><text fill="#000000" font-family="Roboto" font-size="13" lengthAdjust="spacing" textLength="73.7153" x="1827.0703" y="583.5605">queue replay</text><text fill="#000000" font-family="Roboto" font-size="13" lengthAdjust="spacing" textLength="134.856" x="1796.5" y="598.7949">(event_id idempotency)</text></g><!--link routers to auth--><g id="link_routers_auth"><path d="M729.34,919.04 C645.47,938.35 517.35,973.56 415.5,1026.5 C395.55,1036.87 379.9363,1047.3386 362.9563,1060.2486 " fill="none" id="routers-to-auth" style="stroke:#181818;stroke-width:1.0;"/><polygon fill="#181818" points="358.18,1063.88,367.7654,1061.617,362.1602,1060.8538,362.9235,1055.2487,358.18,1063.88" style="stroke:#181818;stroke-width:1.0;"/><text fill="#000000" font-family="Roboto" font-size="13" lengthAdjust="spacing" textLength="59.814" x="566.5" y="985.0605">Depends()</text></g><!--link routers to orchestrator--><g id="link_routers_orchestrator"><path d="M882.71,934.64 C929.6,959.23 994.07,993.84 1049.5,1026.5 C1069.41,1038.23 1085.8393,1048.4955 1104.5493,1060.5755 " fill="none" id="routers-to-orchestrator" style="stroke:#181818;stroke-width:1.0;"/><polygon fill="#181818" points="1109.59,1063.83,1104.1986,1055.5878,1105.3894,1061.1179,1099.8593,1062.3087,1109.59,1063.83" style="stroke:#181818;stroke-width:1.0;"/></g><!--link routers to validator--><g id="link_routers_validator"><path d="M840.19,934.78 C864.44,970.88 899.3146,1022.7892 923.5346,1058.8492 " fill="none" id="routers-to-validator" style="stroke:#181818;stroke-width:1.0;"/><polygon fill="#181818" points="926.88,1063.83,925.1824,1054.1285,924.0922,1059.6793,918.5414,1058.5891,926.88,1063.83" style="stroke:#181818;stroke-width:1.0;"/></g><!--link routers to storybook_dom--><g id="link_routers_storybook_dom"><path d="M760.84,934.61 C719.76,959.32 663.11,994.1 614.5,1026.5 C600.86,1035.59 591.2948,1042.206 577.7648,1051.856 " fill="none" id="routers-to-storybook_dom" style="stroke:#181818;stroke-width:1.0;"/><polygon fill="#181818" points="572.88,1055.34,582.5299,1053.3705,576.9507,1052.4367,577.8846,1046.8574,572.88,1055.34" style="stroke:#181818;stroke-width:1.0;"/></g><!--link routers to player_eng--><g id="link_routers_player_eng"><path d="M802.89,934.78 C787.27,970.88 765.0423,1022.2632 749.4423,1058.3232 " fill="none" id="routers-to-player_eng" style="stroke:#181818;stroke-width:1.0;"/><polygon fill="#181818" points="747.06,1063.83,754.3046,1057.158,749.0453,1059.241,746.9623,1053.9816,747.06,1063.83" style="stroke:#181818;stroke-width:1.0;"/></g><!--link backend to postgres--><g id="link_backend_postgres"><path d="M1285.6527,901.2239 C1285.962,901.2353 1286.2795,901.2473 1286.6052,901.2598 C1291.8157,901.4602 1299.102,901.8104 1308.0453,902.4183 C1325.9319,903.6341 1350.4463,905.8806 1378.2375,910.0213 C1433.82,918.3025 1502.51,934.16 1557.5,964.5 C1575.11,974.22 1573.08,984.88 1589.5,996.5 C1622.98,1020.2 1657.4286,1038.4355 1693.4786,1054.8355 " fill="none" id="backend-to-postgres" style="stroke:#181818;stroke-width:1.0;"/><polygon fill="#181818" points="1698.94,1057.32,1692.4042,1049.9523,1694.3888,1055.2496,1689.0915,1057.2342,1698.94,1057.32" style="stroke:#181818;stroke-width:1.0;"/><text fill="#000000" font-family="Roboto" font-size="13" lengthAdjust="spacing" textLength="121.3862" x="1590.5" y="985.0605">async SQLAlchemy 2</text></g><!--link backend to redis--><g id="link_backend_redis"><path d="M1285.5327,944.2099 C1285.5761,944.3676 1285.6197,944.5254 1285.6635,944.6835 C1285.7512,944.9996 1285.8397,945.3164 1285.9292,945.6337 C1286.108,946.2685 1286.2905,946.9058 1286.4766,947.5453 C1286.8487,948.8243 1287.2354,950.1121 1287.6372,951.4063 C1289.2443,956.583 1291.0926,961.8615 1293.2148,967.0845 C1297.4594,977.5306 1302.8,987.755 1309.5,996.5 C1329.06,1022.03 1351.8785,1040.0643 1378.4885,1056.3043 " fill="none" id="backend-to-redis" style="stroke:#181818;stroke-width:1.0;"/><polygon fill="#181818" points="1383.61,1059.43,1378.0115,1051.3271,1379.342,1056.8253,1373.8439,1058.1559,1383.61,1059.43" style="stroke:#181818;stroke-width:1.0;"/><text fill="#000000" font-family="Roboto" font-size="13" lengthAdjust="spacing" textLength="70.6304" x="1328.4163" y="977.5605">enqueue job</text><text fill="#000000" font-family="Roboto" font-size="13" lengthAdjust="spacing" textLength="106.4629" x="1310.5" y="992.7949">(BackgroundTask)</text></g><!--link worker to redis--><g id="link_worker_redis"><path d="M1805.89,934.53 C1789.68,943.63 1772.63,953.91 1757.5,964.5 C1739.69,976.97 1739.12,985.28 1720.5,996.5 C1671.21,1026.21 1617.3121,1048.2037 1567.7321,1065.3037 " fill="none" id="worker-to-redis" style="stroke:#181818;stroke-width:1.0;"/><polygon fill="#181818" points="1562.06,1067.26,1571.8724,1068.107,1566.7868,1065.6298,1569.264,1060.5441,1562.06,1067.26" style="stroke:#181818;stroke-width:1.0;"/><text fill="#000000" font-family="Roboto" font-size="13" lengthAdjust="spacing" textLength="70.7827" x="1758.5" y="985.0605">dequeue job</text></g><!--link worker to orchestrator--><g id="link_worker_orchestrator"><path d="M1794.97,906.88 C1691.11,915.84 1511.8,935.03 1453.5,964.5 C1435.55,973.57 1438.36,985.54 1421.5,996.5 C1390.36,1016.74 1378.15,1013.12 1343.5,1026.5 C1312.03,1038.66 1283.1235,1049.859 1252.6435,1061.689 " fill="none" id="worker-to-orchestrator" style="stroke:#181818;stroke-width:1.0;"/><polygon fill="#181818" points="1247.05,1063.86,1256.8875,1064.3325,1251.7112,1062.0509,1253.9929,1056.8746,1247.05,1063.86" style="stroke:#181818;stroke-width:1.0;"/><text fill="#000000" font-family="Roboto" font-size="13" lengthAdjust="spacing" textLength="94.6626" x="1454.5" y="985.0605">generate_story()</text></g><!--link worker to openrouter--><g id="link_worker_openrouter"><path d="M1948.26,933.82 C1962.25,942.31 1975.79,952.51 1986.5,964.5 C2014.39,995.71 2027.9227,1037.1874 2034.9127,1066.1574 " fill="none" id="worker-to-openrouter" style="stroke:#181818;stroke-width:1.0;"/><polygon fill="#181818" points="2036.32,1071.99,2038.0974,1062.3029,2035.1472,1067.1295,2030.3206,1064.1793,2036.32,1071.99" style="stroke:#181818;stroke-width:1.0;"/><text fill="#000000" font-family="Roboto" font-size="13" lengthAdjust="spacing" textLength="113.731" x="2007.5" y="985.0605">provider.complete()</text></g><!--link worker to ollama--><g id="link_worker_ollama"><path d="M1948.17,929.19 C1954.34,931.1 1960.5,932.9 1966.5,934.5 C2037.68,953.47 2070.55,920.33 2129.5,964.5 C2164.78,990.93 2181.2446,1035.3498 2189.3446,1065.9498 " fill="none" id="worker-to-ollama" style="stroke:#181818;stroke-width:1.0;stroke-dasharray:7.0,7.0;"/><polygon fill="#181818" points="2190.88,1071.75,2192.4438,1062.0261,2189.6005,1066.9165,2184.7101,1064.0732,2190.88,1071.75" style="stroke:#181818;stroke-width:1.0;"/><text fill="#000000" font-family="Roboto" font-size="13" lengthAdjust="spacing" textLength="45.6777" x="2157.5" y="985.0605">fallback</text></g><!--link worker to postgres--><g id="link_worker_postgres"><path d="M1859.29,934.78 C1850.22,959.91 1839.5393,989.4672 1828.2493,1020.7072 " fill="none" id="worker-to-postgres" style="stroke:#181818;stroke-width:1.0;"/><polygon fill="#181818" points="1826.21,1026.35,1833.0308,1019.2453,1827.9094,1021.6477,1825.5071,1016.5263,1826.21,1026.35" style="stroke:#181818;stroke-width:1.0;"/><text fill="#000000" font-family="Roboto" font-size="13" lengthAdjust="spacing" textLength="128.4321" x="1849.5" y="985.0605">update GenerationJob</text></g><!--link worker to minio--><g id="link_worker_minio"><path d="M1948.07,929.59 C1954.26,931.41 1960.46,933.08 1966.5,934.5 C2073.3,959.56 2108.93,925.59 2211.5,964.5 C2271.61,987.31 2326.479,1028.7216 2363.169,1060.0816 " fill="none" id="worker-to-minio" style="stroke:#181818;stroke-width:1.0;stroke-dasharray:7.0,7.0;"/><polygon fill="#181818" points="2367.73,1063.98,2363.4875,1055.0918,2363.9292,1060.7313,2358.2896,1061.1731,2367.73,1063.98" style="stroke:#181818;stroke-width:1.0;"/><text fill="#000000" font-family="Roboto" font-size="13" lengthAdjust="spacing" textLength="102.8003" x="2275.5" y="977.5605">[planned Phase 5]</text><text fill="#000000" font-family="Roboto" font-size="13" lengthAdjust="spacing" textLength="79.7583" x="2287.021" y="992.7949">blob_ref store</text></g><!--link backend to authentik--><g id="link_backend_authentik"><path d="M212.2444,946.9284 C210.6499,946.9707 209.0647,947.014 207.489,947.0582 C204.3374,947.1466 201.2235,947.2389 198.1483,947.335 C191.9978,947.5274 186.002,947.7353 180.1689,947.9597 C156.8364,948.8571 136.1078,950.0172 118.5023,951.4907 C83.2912,954.4378 60.5725,958.6388 54.5,964.5 C26.21,991.81 30.5985,1035.6565 37.6585,1065.9565 " fill="none" id="backend-to-authentik" style="stroke:#181818;stroke-width:1.0;"/><polygon fill="#181818" points="39.02,1071.8,40.8733,1062.1271,37.8854,1066.9304,33.082,1063.9425,39.02,1071.8" style="stroke:#181818;stroke-width:1.0;"/><text fill="#000000" font-family="Roboto" font-size="13" lengthAdjust="spacing" textLength="88.7974" x="93.4114" y="977.5605">OIDC validation</text><text fill="#000000" font-family="Roboto" font-size="13" lengthAdjust="spacing" textLength="164.6201" x="55.5" y="992.7949">[dev: token-as-subject seam]</text></g><!--link gen_client to GMN45--><g id="link_gen_client_GMN45"><path d="M1852.33,701.66 C1885.33,722.11 1928.07,748.93 1965.5,773.5 C2015.9,806.59 2073.07,846.12 2109.9,871.86 " fill="none" id="gen_client-GMN45" style="stroke:#181818;stroke-width:1.0;stroke-dasharray:7.0,7.0;"/></g><!--SRC=[fLVRRjiu47tNLmoSXxgePUVIxAO1Da1yArAuZMidxIxg8A0bsbOZaLfITceizj_ta9HaoNMm3tNHLYBdnfapPwXNzCSl_BnNr7jB8xxXCPsIJpqfCXO9hgWViQLYYH7uwvQkmmqNsLhnImeA4KrCX9IjUAGe4XbNBCWYARJt2afJkLO1fqKKSts9ToAjWawmbO-iCDLXQTfEjxJxDOTCPzVZ6y8EFKSg4ilNB-f67Qh-cagk4OD-IM794J8p0NQUfNhYohfkJZwJUtr9Bv3u9sGPcpFDZKwJwQq8QFfvT1q7AvvidUP28IzSX1rh8ewWNWyGpl8OU4YtAHVce4xmW0MvMCH8SiVuQcUwi90lqzzhlkPEBPI1xgGn4mBfwcGyMFawvK4x2Gziir2Pl_xnyQdlVFlfC_i_sRV-IYOyPdD_4IcT-I5FOxbDeEqqVmc1ddwAHCg0DGhvWgtZR8WyV689fyP4pcKc6nMHEGkUbYYr27iobegEXjVcJqKYtrG6n1TLwue76HFBcDC_7b5Ngf2htCYv_M7LkCxNJktF-zVpW6iiD7ghA0vfmXdq6iGq1NRXQ70sF1ts2wdtQwR2Y0ahiSnV87GnF1-yyv0it_Tf_FNQ_E_jGcgOfRBxPk8R_0GPdRnhqTqsvTD0HMdMeYzHnXzcOihL1YY21vq1qm6UDC-qzObw5Z7PWrPykDZf_cOcQc1JThrZrTqp7VNxWy5mMDSVHNF5rFPd0wORhNRi91xNqM4BuvXjpV5gsgbTxCp4tPJuXiLhPZBvXlwSud2S4eP42-uEPqLVD7-RjyVeW9UYesRYHeJy1m_xNVXuLiYeQoVhe6YmW-RVb_rhUhTd-sVFIz7vtxhtDwC-tTxVZU_l7gnGKdQzDhp1Q1CnMl6jZ-mvj73nwFHHm6Fpnw3F8QOBtCF7FceAmiotWPlnDbj9GMVjazCMvTij6cz39WnGDgS8vcUMi_xdkOyShFleCNucZcHdmbHynLcShS29hQBkvdac38H087PZHxjuTG1p9kYerniCUhqz7-jiHLFE4kS1HAEXDnDZp88WIbbC7Lgm98gtU50oTaLZHkkWlIcGj9rB-KHzcQ2rSFPYfPF8aCVE_6wnnD_UEgPU65MFKMuzXgZiGUSEx3GGIo1g9dAOS_jgpK_Mg0buRWeqcEfesfnGCqL1NbVH3et33hwmE0fjixm7AcTYKxntbdYtBaOdRqQdRoQZDzFhuO2iFKSJfUnXq-_Bkj6j0bnrfepmJ5JcgAniM6VeroMdQ_-gwr_rA8rI7XUDMvKzxF5Z58OnVsOA1qdAPpD_5KPFdlhQbkR16ksxBKgosoezbFrJESzNE-_tE-ad0SF1nUM0KYK3hlL3xVpbFS9wpoMFXiFX6Jetzzl7pS5YXMlhiRX901rIPql5SO-Waz_W3EJWx0Ba_IuylQFRoKU2kBb2pSJGmhv5zvgh5jbXD5RINB1Q9lCv6bjKFdv1gM4EknFNa9PEeIgJDEQPsyB82RYPBBlpVv1pXpuNeBP7kXYSU9NW9poCm0BV84jp9N5m18nqMIAb1MgyonDzbtETpnPebTpcrOelRcvD4kRViMWJ1YYrp8s0e_uXZLV6x_b3vQWqZs7OikZqp31o3W8HoPqFLuN13r2EIUnez57lLzwmikCrGvygIio8W-230ovs7MKX3sU3y-5vJJUEMSAWDv81p2zO71iMpLNjfadVe3iOU7iq1-QDdioHR_gzXvB6xAe9V_WxRZLv-9Ey0VGgIbtuxkhX-rVvlFRAcuPPsqrXBn_dPhMSdTvkYfhrOkHTKYEsfp1t2ZHXWBdB6rvbAbb_ENr3UZAOtf6T_PkJcMXsEJfFKGOqYDSDhp3RRbzL9nlq74WKDs50ZviXz1Y558KyIIL6QR25Vk78EBK43yq-HpL2tTpRhf9BRQCakTfgZRfhEpl2zURbmBtQTG92sB_zqscZ9kim3a4kt3c1VfESyjvwn_GJudykMAYY4l9IfIPG8q_85TyHZ_OapRgr2c0X2kBQ8A-g7RYkvnLfKvaSev0ii5ipLZtvEWtDTQnE55LRhlKW-Sr-GzIwrlJge-8BnuNrbErm3rtJ3aNTu0CD4lBDfKELpxIlrpb5u9BmqF0y0S0GlX8oJ66vg20DqsN2TrzSzWAsohBqijEnC5_XQ9SNnyV77PCneBZzNKi1BH3A9OaK7mnhKT0OzqkZdu1NHIjy-_geM-O-SV41VF0Bq3DdD27cWQfekSfCd3PNiEOoT79foSmb1uqWJETW5-Iv0-l6yNdRIZO_J6y_TL-t8LIcDf3nEX60atQV1w1XR5jg9UcoziJn0PjN1SfbTFy1]--></g></svg>
