<svg xmlns="http://www.w3.org/2000/svg" xmlns:xlink="http://www.w3.org/1999/xlink" contentStyleType="text/css" height="1475px" preserveAspectRatio="none" style="width:4810px;height:1475px;background:#FAFAFA;" version="1.1" viewBox="0 0 4810 1475" width="4810px" zoomAndPan="magnify"><defs><style type="text/css">@import url('https://fonts.googleapis.com/css?family=Roboto:400,100,100italic,300,300italic,400italic,500,500italic,700,700italic,900,900italic');</style></defs><g><rect fill="#FAFAFA" height="1475" style="stroke:none;stroke-width:1.0;" width="4810" x="0" y="0"/><!--cluster pwa--><g id="cluster_pwa"><rect fill="#E3F2FD" height="588" rx="4" ry="4" style="stroke:#555555;stroke-width:1.0;" width="365" x="4261" y="192.5"/><text fill="#222222" font-family="Roboto" font-size="14" font-weight="bold" lengthAdjust="spacing" textLength="118.5762" x="4384.2119" y="207.4951">PWA Container</text><text fill="#222222" font-family="Roboto" font-size="14" font-weight="bold" lengthAdjust="spacing" textLength="219.0645" x="4333.9678" y="223.792">[React 19, TypeScript, Vite]</text><text fill="#222222" font-family="Roboto" font-size="14" font-weight="bold" lengthAdjust="spacing" textLength="182.4238" x="4352.2881" y="240.0889">Served as static assets</text></g><!--cluster backend--><g id="cluster_backend"><rect fill="#E8F5E9" height="560" rx="4" ry="4" style="stroke:#555555;stroke-width:1.0;" width="2237" x="2175" y="852.5"/><text fill="#222222" font-family="Roboto" font-size="14" font-weight="bold" lengthAdjust="spacing" textLength="132.4258" x="3227.2871" y="867.4951">FastAPI Backend</text><text fill="#222222" font-family="Roboto" font-size="14" font-weight="bold" lengthAdjust="spacing" textLength="280.9229" x="3153.0386" y="883.792">[Python 3.12, FastAPI, Pydantic v2]</text><text fill="#222222" font-family="Roboto" font-size="14" font-weight="bold" lengthAdjust="spacing" textLength="148.9209" x="3219.0396" y="900.0889">src/cyo_adventure/</text></g><!--entity reader--><g id="elem_reader"><rect fill="#DDEEFF" height="52.5938" rx="4" ry="4" style="stroke:#555555;stroke-width:0.5;" width="161.0869" x="4277.5" y="259.5"/><text fill="#222222" font-family="Roboto" font-size="14" lengthAdjust="spacing" textLength="69.002" x="4287.5" y="282.4951">Reader UI</text><text fill="#222222" font-family="Roboto" font-size="14" lengthAdjust="spacing" textLength="141.0869" x="4287.5" y="298.792">frontend/src/reader/</text></g><!--entity library_ui--><g id="elem_library_ui"><rect fill="#DDEEFF" height="52.5938" rx="4" ry="4" style="stroke:#555555;stroke-width:0.5;" width="136.2383" x="4474" y="259.5"/><text fill="#222222" font-family="Roboto" font-size="14" lengthAdjust="spacing" textLength="67.7783" x="4484" y="282.4951">Library UI</text><text fill="#222222" font-family="Roboto" font-size="14" lengthAdjust="spacing" textLength="116.2383" x="4484" y="298.792">frontend/src/api/</text></g><!--entity player_ui--><g id="elem_player_ui"><rect fill="#DDEEFF" height="68.8906" rx="4" ry="4" style="stroke:#555555;stroke-width:0.5;" width="240.4111" x="4285" y="373.5"/><text fill="#222222" font-family="Roboto" font-size="14" lengthAdjust="spacing" textLength="43.5654" x="4295" y="396.4951">Player</text><text fill="#222222" font-family="Roboto" font-size="14" lengthAdjust="spacing" textLength="138.8926" x="4295" y="412.792">frontend/src/player/</text><text fill="#222222" font-family="Roboto" font-size="14" lengthAdjust="spacing" textLength="220.4111" x="4295" y="429.0889">TS evaluator + XState machine</text></g><!--entity offline--><g id="elem_offline"><rect fill="#DDEEFF" height="68.8906" rx="4" ry="4" style="stroke:#555555;stroke-width:0.5;" width="200.8105" x="4309.5" y="534.5"/><text fill="#222222" font-family="Roboto" font-size="14" lengthAdjust="spacing" textLength="89.626" x="4319.5" y="557.4951">Offline Layer</text><text fill="#222222" font-family="Roboto" font-size="14" lengthAdjust="spacing" textLength="138.5713" x="4319.5" y="573.792">frontend/src/offline/</text><text fill="#222222" font-family="Roboto" font-size="14" lengthAdjust="spacing" textLength="180.8105" x="4319.5" y="590.0889">IndexedDB + write queue</text></g><!--entity gen_client--><g id="elem_gen_client"><rect fill="#E0E0E0" height="68.8906" rx="4" ry="4" style="stroke:#555555;stroke-width:0.5;" width="272.7793" x="4277.5" y="695.5"/><text fill="#222222" font-family="Roboto" font-size="14" lengthAdjust="spacing" textLength="145.8516" x="4287.5" y="718.4951">Generated API Client</text><text fill="#222222" font-family="Roboto" font-size="14" lengthAdjust="spacing" textLength="252.7793" x="4287.5" y="734.792">frontend/src/client/ [BUILD OUTPUT]</text><text fill="#222222" font-family="Roboto" font-size="14" lengthAdjust="spacing" textLength="237.8564" x="4287.5" y="751.0889">from OpenAPI schema via hey-api</text></g><!--entity routers--><g id="elem_routers"><rect fill="#CCEECC" height="199.2656" rx="4" ry="4" style="stroke:#555555;stroke-width:0.5;" width="343.2168" x="3325.5" y="927.5"/><text fill="#222222" font-family="Roboto" font-size="14" lengthAdjust="spacing" textLength="114.1055" x="3335.5" y="950.4951">API Routers (21)</text><text fill="#222222" font-family="Roboto" font-size="14" lengthAdjust="spacing" textLength="250.1338" x="3335.5" y="966.792">health, library, reading, generation,</text><text fill="#222222" font-family="Roboto" font-size="14" lengthAdjust="spacing" textLength="275.1875" x="3335.5" y="983.0889">profiles, families, ratings, assignments,</text><text fill="#222222" font-family="Roboto" font-size="14" lengthAdjust="spacing" textLength="227.377" x="3335.5" y="999.3857">approval [global admin], covers,</text><text fill="#222222" font-family="Roboto" font-size="14" lengthAdjust="spacing" textLength="225.0801" x="3335.5" y="1015.6826">moderation_thresholds [admin],</text><text fill="#222222" font-family="Roboto" font-size="14" lengthAdjust="spacing" textLength="225.8525" x="3335.5" y="1031.9795">moderation_dashboard [admin],</text><text fill="#222222" font-family="Roboto" font-size="14" lengthAdjust="spacing" textLength="217.417" x="3335.5" y="1048.2764">provider_allowlist [admin], me,</text><text fill="#222222" font-family="Roboto" font-size="14" lengthAdjust="spacing" textLength="215.9131" x="3335.5" y="1064.5732">story_requests, child_sessions,</text><text fill="#222222" font-family="Roboto" font-size="14" lengthAdjust="spacing" textLength="190.9756" x="3335.5" y="1080.8701">device_grants, onboarding,</text><text fill="#222222" font-family="Roboto" font-size="14" lengthAdjust="spacing" textLength="323.2168" x="3335.5" y="1097.167">admin_users [admin], admin_profiles [admin],</text><text fill="#222222" font-family="Roboto" font-size="14" lengthAdjust="spacing" textLength="193.8809" x="3335.5" y="1113.4639">family_connections [admin]</text></g><!--entity auth--><g id="elem_auth"><rect fill="#CCEECC" height="85.1875" rx="4" ry="4" style="stroke:#555555;stroke-width:0.5;" width="259.8525" x="3911" y="1303.5"/><text fill="#222222" font-family="Roboto" font-size="14" lengthAdjust="spacing" textLength="76.9795" x="3921" y="1326.4951">Auth Seam</text><text fill="#222222" font-family="Roboto" font-size="14" lengthAdjust="spacing" textLength="81.375" x="3921" y="1342.792">api/deps.py</text><text fill="#222222" font-family="Roboto" font-size="14" lengthAdjust="spacing" textLength="239.8525" x="3921" y="1359.0889">Principal / family / role + is_admin</text><text fill="#222222" font-family="Roboto" font-size="14" lengthAdjust="spacing" textLength="223.0361" x="3921" y="1375.3857">(guardian, child, admin, device)</text></g><!--entity storybook_dom--><g id="elem_storybook_dom"><rect fill="#CCEECC" height="85.1875" rx="4" ry="4" style="stroke:#555555;stroke-width:0.5;" width="182.4834" x="4206" y="1303.5"/><text fill="#222222" font-family="Roboto" font-size="14" lengthAdjust="spacing" textLength="129.8828" x="4216" y="1326.4951">Storybook Domain</text><text fill="#222222" font-family="Roboto" font-size="14" lengthAdjust="spacing" textLength="146.7402" x="4216" y="1342.792">storybook/models.py</text><text fill="#222222" font-family="Roboto" font-size="14" lengthAdjust="spacing" textLength="162.4834" x="4216" y="1359.0889">storybook/evaluator.py</text><text fill="#222222" font-family="Roboto" font-size="14" lengthAdjust="spacing" textLength="160.583" x="4216" y="1375.3857">storybook/condition.py</text></g><!--entity player_eng--><g id="elem_player_eng"><rect fill="#CCEECC" height="68.8906" rx="4" ry="4" style="stroke:#555555;stroke-width:0.5;" width="225.6592" x="2826" y="1311.5"/><text fill="#222222" font-family="Roboto" font-size="14" lengthAdjust="spacing" textLength="95.9971" x="2836" y="1334.4951">Player Engine</text><text fill="#222222" font-family="Roboto" font-size="14" lengthAdjust="spacing" textLength="118.0977" x="2836" y="1350.792">player/engine.py</text><text fill="#222222" font-family="Roboto" font-size="14" lengthAdjust="spacing" textLength="205.6592" x="2836" y="1367.0889">Runtime Semantics v1 (pure)</text></g><!--entity validator--><g id="elem_validator"><rect fill="#CCEECC" height="68.8906" rx="4" ry="4" style="stroke:#555555;stroke-width:0.5;" width="240.8623" x="3087.5" y="1311.5"/><text fill="#222222" font-family="Roboto" font-size="14" lengthAdjust="spacing" textLength="101.1924" x="3097.5" y="1334.4951">Validator Gate</text><text fill="#222222" font-family="Roboto" font-size="14" lengthAdjust="spacing" textLength="119.8271" x="3097.5" y="1350.792">validator/gate.py</text><text fill="#222222" font-family="Roboto" font-size="14" lengthAdjust="spacing" textLength="220.8623" x="3097.5" y="1367.0889">L1+Policy+L2+RL+SAFE layers</text></g><!--entity orchestrator--><g id="elem_orchestrator"><rect fill="#CCEECC" height="85.1875" rx="4" ry="4" style="stroke:#555555;stroke-width:0.5;" width="261.4043" x="2207.5" y="1303.5"/><text fill="#222222" font-family="Roboto" font-size="14" lengthAdjust="spacing" textLength="171.4385" x="2217.5" y="1326.4951">Generation Orchestrator</text><text fill="#222222" font-family="Roboto" font-size="14" lengthAdjust="spacing" textLength="188.9111" x="2217.5" y="1342.792">generation/orchestrator.py</text><text fill="#222222" font-family="Roboto" font-size="14" lengthAdjust="spacing" textLength="241.4043" x="2217.5" y="1359.0889">fresh_generation (Stage A-&gt;B-&gt;C)</text><text fill="#222222" font-family="Roboto" font-size="14" lengthAdjust="spacing" textLength="200.2314" x="2217.5" y="1375.3857">or skeleton_fill (fill_skeleton)</text></g><!--entity moderation_comp--><g id="elem_moderation_comp"><rect fill="#CCEECC" height="68.8906" rx="4" ry="4" style="stroke:#555555;stroke-width:0.5;" width="286.793" x="2503.5" y="1311.5"/><text fill="#222222" font-family="Roboto" font-size="14" lengthAdjust="spacing" textLength="79.2969" x="2513.5" y="1334.4951">Moderation</text><text fill="#222222" font-family="Roboto" font-size="14" lengthAdjust="spacing" textLength="266.793" x="2513.5" y="1350.792">moderation/pipeline.py, thresholds.py</text><text fill="#222222" font-family="Roboto" font-size="14" lengthAdjust="spacing" textLength="195.1045" x="2513.5" y="1367.0889">fidelity_review.py, repair.py</text></g><!--entity publishing_comp--><g id="elem_publishing_comp"><rect fill="#CCEECC" height="68.8906" rx="4" ry="4" style="stroke:#555555;stroke-width:0.5;" width="267.0986" x="3363.5" y="1311.5"/><text fill="#222222" font-family="Roboto" font-size="14" lengthAdjust="spacing" textLength="71.7979" x="3373.5" y="1334.4951">Publishing</text><text fill="#222222" font-family="Roboto" font-size="14" lengthAdjust="spacing" textLength="201.209" x="3373.5" y="1350.792">publishing/state_machine.py</text><text fill="#222222" font-family="Roboto" font-size="14" lengthAdjust="spacing" textLength="247.0986" x="3373.5" y="1367.0889">approve -&gt; publish gate (ADR-005)</text></g><!--entity events_comp--><g id="elem_events_comp"><rect fill="#CCEECC" height="68.8906" rx="4" ry="4" style="stroke:#555555;stroke-width:0.5;" width="209.5127" x="3666" y="1311.5"/><text fill="#222222" font-family="Roboto" font-size="14" lengthAdjust="spacing" textLength="129.3564" x="3676" y="1334.4951">Pipeline Event Log</text><text fill="#222222" font-family="Roboto" font-size="14" lengthAdjust="spacing" textLength="168.3965" x="3676" y="1350.792">events/writer.py [WS-D]</text><text fill="#222222" font-family="Roboto" font-size="14" lengthAdjust="spacing" textLength="189.5127" x="3676" y="1367.0889">append-only lifecycle audit</text></g><!--entity middleware--><g id="elem_middleware"><rect fill="#CCEECC" height="68.8906" rx="4" ry="4" style="stroke:#555555;stroke-width:0.5;" width="204.2148" x="2652" y="992.5"/><text fill="#222222" font-family="Roboto" font-size="14" lengthAdjust="spacing" textLength="80.6436" x="2662" y="1015.4951">Middleware</text><text fill="#222222" font-family="Roboto" font-size="14" lengthAdjust="spacing" textLength="184.2148" x="2662" y="1031.792">middleware/correlation.py</text><text fill="#222222" font-family="Roboto" font-size="14" lengthAdjust="spacing" textLength="164.4385" x="2662" y="1048.0889">middleware/security.py</text></g><!--entity child--><g id="elem_child"><ellipse cx="4357.9702" cy="30.5" fill="#E3F2FD" rx="8" ry="8" style="stroke:#181818;stroke-width:0.5;"/><path d="M4357.9702,38.5 L4357.9702,65.5 M4344.9702,46.5 L4370.9702,46.5 M4357.9702,65.5 L4344.9702,80.5 M4357.9702,65.5 L4370.9702,80.5 " fill="none" style="stroke:#181818;stroke-width:0.5;"/><text fill="#000000" font-family="Roboto" font-size="14" lengthAdjust="spacing" textLength="89.9404" x="4313" y="94.9951">Child Reader</text></g><!--entity guardian--><g id="elem_guardian"><ellipse cx="4506.1426" cy="30.5" fill="#E8F5E9" rx="8" ry="8" style="stroke:#181818;stroke-width:0.5;"/><path d="M4506.1426,38.5 L4506.1426,65.5 M4493.1426,46.5 L4519.1426,46.5 M4506.1426,65.5 L4493.1426,80.5 M4506.1426,65.5 L4519.1426,80.5 " fill="none" style="stroke:#181818;stroke-width:0.5;"/><text fill="#000000" font-family="Roboto" font-size="14" lengthAdjust="spacing" textLength="64.2852" x="4474" y="94.9951">Guardian</text></g><!--entity admin--><g id="elem_admin"><ellipse cx="4655.9551" cy="14" fill="#EDE7F6" rx="8" ry="8" style="stroke:#181818;stroke-width:0.5;"/><path d="M4655.9551,22 L4655.9551,49 M4642.9551,30 L4668.9551,30 M4655.9551,49 L4642.9551,64 M4655.9551,49 L4668.9551,64 " fill="none" style="stroke:#181818;stroke-width:0.5;"/><text fill="#000000" font-family="Roboto" font-size="14" lengthAdjust="spacing" textLength="44.8643" x="4573.5" y="78.4951">Admin</text><text fill="#000000" font-family="Roboto" font-size="14" lengthAdjust="spacing" textLength="164.9102" x="4573.5" y="94.792">(global safety operator,</text><text fill="#000000" font-family="Roboto" font-size="14" lengthAdjust="spacing" textLength="161.0889" x="4573.5" y="111.0889">cross-family, ADR-005)</text></g><!--entity worker--><g id="elem_worker"><rect fill="#FFF3E0" height="68.8906" rx="4" ry="4" style="stroke:#555555;stroke-width:0.5;" width="170.7256" x="1075.5" y="992.5"/><text fill="#222222" font-family="Roboto" font-size="14" lengthAdjust="spacing" textLength="133.1914" x="1085.5" y="1015.4951">Generation Worker</text><text fill="#222222" font-family="Roboto" font-size="14" lengthAdjust="spacing" textLength="142.9258" x="1085.5" y="1031.792">[RQ worker process]</text><text fill="#222222" font-family="Roboto" font-size="14" lengthAdjust="spacing" textLength="150.7256" x="1085.5" y="1048.0889">generation/worker.py</text></g><!--entity postgres--><g id="elem_postgres"><path d="M1669,1243.5 C1669,1233.5 1836.8999,1233.5 1836.8999,1233.5 C1836.8999,1233.5 2004.7998,1233.5 2004.7998,1243.5 L2004.7998,1448.0625 C2004.7998,1458.0625 1836.8999,1458.0625 1836.8999,1458.0625 C1836.8999,1458.0625 1669,1458.0625 1669,1448.0625 L1669,1243.5 " fill="#E0F7FA" style="stroke:#181818;stroke-width:0.5;"/><path d="M1669,1243.5 C1669,1253.5 1836.8999,1253.5 1836.8999,1253.5 C1836.8999,1253.5 2004.7998,1253.5 2004.7998,1243.5 " fill="none" style="stroke:#181818;stroke-width:0.5;"/><text fill="#000000" font-family="Roboto" font-size="14" lengthAdjust="spacing" textLength="133.3896" x="1679" y="1270.4951">Supabase Postgres</text><text fill="#000000" font-family="Roboto" font-size="14" lengthAdjust="spacing" textLength="246.5313" x="1679" y="1286.792">[Managed DB, ADR-009 decision 2]</text><text fill="#000000" font-family="Roboto" font-size="14" lengthAdjust="spacing" textLength="258.2891" x="1679" y="1303.0889">Session pooler :5432 (session mode)</text><text fill="#000000" font-family="Roboto" font-size="14" lengthAdjust="spacing" textLength="107.0098" x="1679" y="1319.3857">21 ORM tables:</text><text fill="#000000" font-family="Roboto" font-size="14" lengthAdjust="spacing" textLength="277.9971" x="1679" y="1335.6826">Family, FamilyConnection, Series, User,</text><text fill="#000000" font-family="Roboto" font-size="14" lengthAdjust="spacing" textLength="296.4336" x="1679" y="1351.9795">ChildProfile, Storybook, StorybookVersion,</text><text fill="#000000" font-family="Roboto" font-size="14" lengthAdjust="spacing" textLength="242.3955" x="1679" y="1368.2764">ReadingState, Completion, Rating,</text><text fill="#000000" font-family="Roboto" font-size="14" lengthAdjust="spacing" textLength="224.7861" x="1679" y="1384.5732">StorybookAssignment, Concept,</text><text fill="#000000" font-family="Roboto" font-size="14" lengthAdjust="spacing" textLength="315.7998" x="1679" y="1400.8701">StoryRequest, ModerationThreshold(+Audit),</text><text fill="#000000" font-family="Roboto" font-size="14" lengthAdjust="spacing" textLength="237.9795" x="1679" y="1417.167">ModerationSetting, PipelineEvent,</text><text fill="#000000" font-family="Roboto" font-size="14" lengthAdjust="spacing" textLength="221.9834" x="1679" y="1433.4639">ProviderModelAllowlist(+Audit),</text><text fill="#000000" font-family="Roboto" font-size="14" lengthAdjust="spacing" textLength="196.0068" x="1679" y="1449.7607">GenerationJob, DeviceGrant</text></g><!--entity redis--><g id="elem_redis"><path d="M1367,1317 C1367,1307 1480.2158,1307 1480.2158,1307 C1480.2158,1307 1593.4316,1307 1593.4316,1317 L1593.4316,1374.8906 C1593.4316,1384.8906 1480.2158,1384.8906 1480.2158,1384.8906 C1480.2158,1384.8906 1367,1384.8906 1367,1374.8906 L1367,1317 " fill="#E0E0E0" style="stroke:#181818;stroke-width:0.5;"/><path d="M1367,1317 C1367,1327 1480.2158,1327 1480.2158,1327 C1480.2158,1327 1593.4316,1327 1593.4316,1317 " fill="none" style="stroke:#181818;stroke-width:0.5;"/><text fill="#000000" font-family="Roboto" font-size="14" lengthAdjust="spacing" textLength="38.4111" x="1377" y="1343.9951">Redis</text><text fill="#000000" font-family="Roboto" font-size="14" lengthAdjust="spacing" textLength="82.6396" x="1377" y="1360.292">[Job broker]</text><text fill="#000000" font-family="Roboto" font-size="14" lengthAdjust="spacing" textLength="206.4316" x="1377" y="1376.5889">RQ queue for generation jobs</text></g><!--entity minio--><g id="elem_minio"><rect fill="#E0E0E0" height="68.8906" rx="4" ry="4" style="stroke:#555555;stroke-width:0.5;" width="262.7168" x="168.5" y="1311.5"/><text fill="#222222" font-family="Roboto" font-size="14" lengthAdjust="spacing" textLength="39.9902" x="178.5" y="1334.4951">MinIO</text><text fill="#222222" font-family="Roboto" font-size="14" lengthAdjust="spacing" textLength="242.7168" x="178.5" y="1350.792">[Object storage, deferred Phase 5]</text><text fill="#222222" font-family="Roboto" font-size="14" lengthAdjust="spacing" textLength="187.127" x="178.5" y="1367.0889">Storybook blobs via S3 API</text></g><!--entity openrouter--><g id="elem_openrouter"><rect fill="#F3E5F5" height="52.5938" rx="4" ry="4" style="stroke:#555555;stroke-width:0.5;" width="237.3555" x="754.5" y="1319.5"/><text fill="#222222" font-family="Roboto" font-size="14" lengthAdjust="spacing" textLength="84.417" x="764.5" y="1342.4951">OpenRouter</text><text fill="#222222" font-family="Roboto" font-size="14" lengthAdjust="spacing" textLength="217.3555" x="764.5" y="1358.792">[Primary LLM, default cascade]</text></g><!--entity extra_providers--><g id="elem_extra_providers"><rect fill="#F3E5F5" height="68.8906" rx="4" ry="4" style="stroke:#555555;stroke-width:0.5;" width="201.043" x="1026.5" y="1311.5"/><text fill="#222222" font-family="Roboto" font-size="14" lengthAdjust="spacing" textLength="123.2246" x="1036.5" y="1334.4951">Anthropic / Modal</text><text fill="#222222" font-family="Roboto" font-size="14" lengthAdjust="spacing" textLength="181.043" x="1036.5" y="1350.792">[Admin-selectable per-job</text><text fill="#222222" font-family="Roboto" font-size="14" lengthAdjust="spacing" textLength="175.2188" x="1036.5" y="1367.0889">provider legs, WS-C PR1]</text></g><!--entity ollama--><g id="elem_ollama"><rect fill="#FFEBEE" height="52.5938" rx="4" ry="4" style="stroke:#555555;stroke-width:0.5;" width="126.4629" x="7" y="1319.5"/><text fill="#222222" font-family="Roboto" font-size="14" lengthAdjust="spacing" textLength="49.5947" x="17" y="1342.4951">Ollama</text><text fill="#222222" font-family="Roboto" font-size="14" lengthAdjust="spacing" textLength="106.4629" x="17" y="1358.792">[Local fallback]</text></g><!--entity supabase_auth--><g id="elem_supabase_auth"><rect fill="#E0F7FA" height="52.5938" rx="4" ry="4" style="stroke:#555555;stroke-width:0.5;" width="137.3867" x="4436.5" y="1319.5"/><text fill="#222222" font-family="Roboto" font-size="14" lengthAdjust="spacing" textLength="105.8613" x="4446.5" y="1342.4951">Supabase Auth</text><text fill="#222222" font-family="Roboto" font-size="14" lengthAdjust="spacing" textLength="117.3867" x="4446.5" y="1358.792">[OIDC, ADR-009]</text></g><g id="elem_GMN56"><path d="M4436.5,1003.5 L4436.5,1050.8984 A4,4 0 0 0 4440.5,1054.8984 L4799.4854,1054.8984 A4,4 0 0 0 4803.4854,1050.8984 L4803.4854,1009.5 L4793.4854,999.5 L4605.43,999.5 L4437.43,764.55 L4597.43,999.5 L4440.5,999.5 A4,4 0 0 0 4436.5,1003.5 " fill="#FEFFDD" style="stroke:#181818;stroke-width:0.5;"/><path d="M4793.4854,999.5 L4793.4854,1007.5 A2,2 0 0 0 4795.4854,1009.5 L4803.4854,1009.5 L4793.4854,999.5 " fill="#FEFFDD" style="stroke:#181818;stroke-width:0.5;"/><text fill="#000000" font-family="Roboto" font-size="13" lengthAdjust="spacing" textLength="345.9854" x="4442.5" y="1016.5669">Regenerated from http://localhost:8000/openapi.json</text><text fill="#000000" font-family="Roboto" font-size="13" lengthAdjust="spacing" textLength="186.3164" x="4442.5" y="1031.6997">via: npm run generate-client</text><text fill="#000000" font-family="Roboto" font-size="13" lengthAdjust="spacing" textLength="279.8682" x="4442.5" y="1046.8325">Never hand-edit files in frontend/src/client/</text></g><g id="elem_GMN59"><path d="M467,1314.5 L467,1342 L431.62,1346 L467,1350 L467,1377.0313 A4,4 0 0 0 471,1381.0313 L714.5596,1381.0313 A4,4 0 0 0 718.5596,1377.0313 L718.5596,1320.5 L708.5596,1310.5 L471,1310.5 A4,4 0 0 0 467,1314.5 " fill="#FEFFDD" style="stroke:#181818;stroke-width:0.5;"/><path d="M708.5596,1310.5 L708.5596,1318.5 A2,2 0 0 0 710.5596,1320.5 L718.5596,1320.5 L708.5596,1310.5 " fill="#FEFFDD" style="stroke:#181818;stroke-width:0.5;"/><text fill="#000000" font-family="Roboto" font-size="13" lengthAdjust="spacing" textLength="172.7959" x="473" y="1327.5669">Phase 1: blob stored inline</text><text fill="#000000" font-family="Roboto" font-size="13" lengthAdjust="spacing" textLength="230.5596" x="473" y="1342.6997">on storybook_version.blob (JSONB).</text><text fill="#000000" font-family="Roboto" font-size="13" lengthAdjust="spacing" textLength="188.0176" x="473" y="1357.8325">blob_ref column reserved for</text><text fill="#000000" font-family="Roboto" font-size="13" lengthAdjust="spacing" textLength="178.3057" x="473" y="1372.9653">MinIO object key (Phase 5).</text></g><!--link child to reader--><g id="link_child_reader"><path d="M4358,98.24 C4358,143.77 4358,213.64 4358,253.21 " fill="none" id="child-to-reader" style="stroke:#181818;stroke-width:1.0;"/><polygon fill="#181818" points="4358,259.21,4362,250.21,4358,254.21,4354,250.21,4358,259.21" style="stroke:#181818;stroke-width:1.0;"/></g><!--link guardian to library_ui--><g id="link_guardian_library_ui"><path d="M4511.99,98.24 C4519.3,143.77 4530.5479,213.716 4536.9079,253.286 " fill="none" id="guardian-to-library_ui" style="stroke:#181818;stroke-width:1.0;"/><polygon fill="#181818" points="4537.86,259.21,4540.3811,249.6893,4537.0665,254.2734,4532.4825,250.9588,4537.86,259.21" style="stroke:#181818;stroke-width:1.0;"/></g><!--link admin to library_ui--><g id="link_admin_library_ui"><path d="M4628.69,114.65 C4605.38,160.47 4575.581,219.0125 4557.731,254.0925 " fill="none" id="admin-to-library_ui" style="stroke:#181818;stroke-width:1.0;"/><polygon fill="#181818" points="4555.01,259.44,4562.6565,253.2327,4557.2775,254.9837,4555.5265,249.6047,4555.01,259.44" style="stroke:#181818;stroke-width:1.0;"/><text fill="#000000" font-family="Roboto" font-size="13" lengthAdjust="spacing" textLength="115.8955" x="4637.2544" y="157.5669">review + approve</text><text fill="#000000" font-family="Roboto" font-size="13" lengthAdjust="spacing" textLength="164.4043" x="4613" y="172.6997">storybooks (cross-family)</text></g><!--link reader to player_ui--><g id="link_reader_player_ui"><path d="M4368.08,312.74 C4374.99,330.37 4382.032,348.3532 4389.532,367.5032 " fill="none" id="reader-to-player_ui" style="stroke:#181818;stroke-width:1.0;"/><polygon fill="#181818" points="4391.72,373.09,4392.1625,363.2511,4389.8966,368.4343,4384.7134,366.1685,4391.72,373.09" style="stroke:#181818;stroke-width:1.0;"/></g><!--link player_ui to offline--><g id="link_player_ui_offline"><path d="M4406.06,442.72 C4406.91,469.7 4407.901,501.363 4408.751,528.333 " fill="none" id="player_ui-to-offline" style="stroke:#181818;stroke-width:1.0;"/><polygon fill="#181818" points="4408.94,534.33,4412.6545,525.2085,4408.7825,529.3325,4404.6585,525.4605,4408.94,534.33" style="stroke:#181818;stroke-width:1.0;"/><text fill="#000000" font-family="Roboto" font-size="13" lengthAdjust="spacing" textLength="67.355" x="4408" y="485.5669">local state</text><text fill="#000000" font-family="Roboto" font-size="13" lengthAdjust="spacing" textLength="38.4985" x="4422.4282" y="500.6997">cache</text></g><!--link gen_client to routers--><g id="link_gen_client_routers"><path d="M4309.7,764.55 C4153.5,814.8 3862.7818,908.3327 3674.3618,968.9427 " fill="none" id="gen_client-to-routers" style="stroke:#181818;stroke-width:1.0;"/><polygon fill="#181818" points="3668.65,970.78,3678.4425,971.8318,3673.4098,969.2489,3675.9928,964.2162,3668.65,970.78" style="stroke:#181818;stroke-width:1.0;"/><text fill="#000000" font-family="Roboto" font-size="13" lengthAdjust="spacing" textLength="82.126" x="4199.2683" y="809.5669">REST /api/v1</text><text fill="#000000" font-family="Roboto" font-size="13" lengthAdjust="spacing" textLength="94.6626" x="4193" y="824.6997">(Bearer token)</text></g><!--link offline to gen_client--><g id="link_offline_gen_client"><path d="M4410.85,603.72 C4411.53,630.7 4412.3188,662.3619 4412.9988,689.3319 " fill="none" id="offline-to-gen_client" style="stroke:#181818;stroke-width:1.0;stroke-dasharray:7.0,7.0;"/><polygon fill="#181818" points="4413.15,695.33,4416.9219,686.232,4413.024,690.3316,4408.9244,686.4337,4413.15,695.33" style="stroke:#181818;stroke-width:1.0;"/><text fill="#000000" font-family="Roboto" font-size="13" lengthAdjust="spacing" textLength="85.7251" x="4447.4233" y="646.5669">queue replay</text><text fill="#000000" font-family="Roboto" font-size="13" lengthAdjust="spacing" textLength="154.5718" x="4413" y="661.6997">(event_id idempotency)</text></g><!--link routers to auth--><g id="link_routers_auth"><path d="M3668.59,1101.75 C3704.9,1118.73 3742.62,1137.44 3777,1156.5 C3831.45,1186.68 3843.17,1197.56 3894,1233.5 C3925.65,1255.88 3955.4695,1278.3449 3983.1295,1299.6849 " fill="none" id="routers-to-auth" style="stroke:#181818;stroke-width:1.0;"/><polygon fill="#181818" points="3987.88,1303.35,3983.1976,1294.6854,3983.9212,1300.2958,3978.3109,1301.0194,3987.88,1303.35" style="stroke:#181818;stroke-width:1.0;"/><text fill="#000000" font-family="Roboto" font-size="13" lengthAdjust="spacing" textLength="67.666" x="3851" y="1184.5669">Depends()</text></g><!--link routers to orchestrator--><g id="link_routers_orchestrator"><path d="M3325.32,1053.48 C3077.69,1091.83 2633.75,1166.97 2486,1233.5 C2447.72,1250.74 2414.5559,1275.4641 2386.7759,1299.3941 " fill="none" id="routers-to-orchestrator" style="stroke:#181818;stroke-width:1.0;"/><polygon fill="#181818" points="2382.23,1303.31,2391.6595,1300.4667,2386.0183,1300.0467,2386.4383,1294.4055,2382.23,1303.31" style="stroke:#181818;stroke-width:1.0;"/></g><!--link routers to validator--><g id="link_routers_validator"><path d="M3407.14,1126.56 C3349.65,1189.63 3282.6527,1263.1164 3242.8427,1306.7764 " fill="none" id="routers-to-validator" style="stroke:#181818;stroke-width:1.0;"/><polygon fill="#181818" points="3238.8,1311.21,3247.8197,1307.2547,3242.1689,1307.5153,3241.9082,1301.8645,3238.8,1311.21" style="stroke:#181818;stroke-width:1.0;"/></g><!--link routers to storybook_dom--><g id="link_routers_storybook_dom"><path d="M3668.71,1053.77 C3815.15,1081.44 4027.04,1135.31 4189,1233.5 C4218.84,1251.59 4242.2845,1275.3044 4261.9645,1298.8744 " fill="none" id="routers-to-storybook_dom" style="stroke:#181818;stroke-width:1.0;"/><polygon fill="#181818" points="4265.81,1303.48,4263.1121,1294.0079,4262.6054,1299.642,4256.9713,1299.1352,4265.81,1303.48" style="stroke:#181818;stroke-width:1.0;"/></g><!--link routers to player_eng--><g id="link_routers_player_eng"><path d="M3325.33,1098.46 C3245.16,1134.38 3149.99,1181.45 3070,1233.5 C3034.83,1256.39 3003.1881,1283.648 2977.8481,1307.278 " fill="none" id="routers-to-player_eng" style="stroke:#181818;stroke-width:1.0;"/><polygon fill="#181818" points="2973.46,1311.37,2982.7702,1308.1574,2977.1168,1307.96,2977.3142,1302.3066,2973.46,1311.37" style="stroke:#181818;stroke-width:1.0;"/></g><!--link routers to moderation_comp--><g id="link_routers_moderation_comp"><path d="M3325.42,1063.49 C3182.8,1096.64 2976.81,1153.15 2809,1233.5 C2764.96,1254.58 2724.3206,1283.2222 2692.8306,1307.6522 " fill="none" id="routers-to-moderation_comp" style="stroke:#181818;stroke-width:1.0;"/><polygon fill="#181818" points="2688.09,1311.33,2697.6528,1308.9737,2692.0405,1308.2652,2692.7491,1302.6529,2688.09,1311.33" style="stroke:#181818;stroke-width:1.0;"/></g><!--link routers to publishing_comp--><g id="link_routers_publishing_comp"><path d="M3497,1126.56 C3497,1189.63 3497,1261.55 3497,1305.21 " fill="none" id="routers-to-publishing_comp" style="stroke:#181818;stroke-width:1.0;"/><polygon fill="#181818" points="3497,1311.21,3501,1302.21,3497,1306.21,3493,1302.21,3497,1311.21" style="stroke:#181818;stroke-width:1.0;"/></g><!--link routers to events_comp--><g id="link_routers_events_comp"><path d="M3582.19,1126.56 C3636.71,1189.63 3700.1257,1263.0113 3737.8757,1306.6713 " fill="none" id="routers-to-events_comp" style="stroke:#181818;stroke-width:1.0;"/><polygon fill="#181818" points="3741.8,1311.21,3738.9393,1301.7857,3738.5297,1307.4278,3732.8877,1307.0182,3741.8,1311.21" style="stroke:#181818;stroke-width:1.0;"/><text fill="#000000" font-family="Roboto" font-size="13" lengthAdjust="spacing" textLength="125.2202" x="3643" y="1177.0669">write PipelineEvent</text><text fill="#000000" font-family="Roboto" font-size="13" lengthAdjust="spacing" textLength="123.1128" x="3644.0537" y="1192.1997">(same transaction)</text></g><!--link backend to postgres--><g id="link_backend_postgres"><path d="M2174.9966,1035.8784 C2173.4281,1037.423 2171.6518,1039.1725 2169.6878,1041.1073 C2161.8319,1048.8466 2150.9738,1059.5494 2138.4125,1071.9463 C2113.29,1096.74 2081.355,1128.31 2053,1156.5 C2032.05,1177.33 2027.79,1183.55 2006,1203.5 C1995.27,1213.32 1988.5321,1219.3966 1977.1221,1229.3466 " fill="none" id="backend-to-postgres" style="stroke:#181818;stroke-width:1.0;"/><polygon fill="#181818" points="1972.6,1233.29,1982.0121,1230.3896,1976.3684,1230.0038,1976.7542,1224.3601,1972.6,1233.29" style="stroke:#181818;stroke-width:1.0;"/><text fill="#000000" font-family="Roboto" font-size="13" lengthAdjust="spacing" textLength="136.3286" x="2054" y="1177.0669">async SQLAlchemy 2</text><text fill="#000000" font-family="Roboto" font-size="13" lengthAdjust="spacing" textLength="134.9639" x="2054.6824" y="1192.1997">session pooler :5432</text></g><!--link backend to redis--><g id="link_backend_redis"><path d="M2174.5152,1028.8332 C2173.9636,1028.8884 2173.3865,1028.9463 2172.7842,1029.007 C2171.5798,1029.1284 2170.2748,1029.2607 2168.8728,1029.4038 C2166.0686,1029.6901 2162.8757,1030.0199 2159.3202,1030.3929 C2145.0982,1031.885 2125.0745,1034.068 2100.9202,1036.9223 C2052.6116,1042.6309 1987.7806,1051.0244 1919.7962,1061.9438 C1783.8275,1083.7825 1635.245,1115.725 1581,1156.5 C1554.96,1176.08 1519.5239,1251.8896 1498.3239,1301.0996 " fill="none" id="backend-to-redis" style="stroke:#181818;stroke-width:1.0;"/><polygon fill="#181818" points="1495.95,1306.61,1503.1845,1299.927,1497.9283,1302.018,1495.8373,1296.7618,1495.95,1306.61" style="stroke:#181818;stroke-width:1.0;"/><text fill="#000000" font-family="Roboto" font-size="13" lengthAdjust="spacing" textLength="80.9136" x="1600.6399" y="1177.0669">enqueue job</text><text fill="#000000" font-family="Roboto" font-size="13" lengthAdjust="spacing" textLength="118.1934" x="1582" y="1192.1997">(BackgroundTask)</text></g><!--link worker to redis--><g id="link_worker_redis"><path d="M1180.69,1061.61 C1206.93,1105.8 1252.65,1180.51 1275,1203.5 C1315.1,1244.74 1363.7249,1278.2167 1406.1349,1303.8467 " fill="none" id="worker-to-redis" style="stroke:#181818;stroke-width:1.0;"/><polygon fill="#181818" points="1411.27,1306.95,1405.6362,1298.8716,1406.9907,1304.3639,1401.4985,1305.7184,1411.27,1306.95" style="stroke:#181818;stroke-width:1.0;"/><text fill="#000000" font-family="Roboto" font-size="13" lengthAdjust="spacing" textLength="80.9263" x="1276" y="1184.5669">dequeue job</text></g><!--link worker to orchestrator--><g id="link_worker_orchestrator"><path d="M1246.62,1030.7 C1360,1037.97 1562.24,1064.07 1705,1156.5 C1727.09,1170.8 1718.06,1190.61 1741,1203.5 C1850.51,1265.01 1899.51,1205.75 2022,1233.5 C2096.47,1250.37 2172.0557,1277.0556 2233.4857,1301.1956 " fill="none" id="worker-to-orchestrator" style="stroke:#181818;stroke-width:1.0;"/><polygon fill="#181818" points="2239.07,1303.39,2232.1565,1296.3755,2234.4164,1301.5613,2229.2306,1303.8212,2239.07,1303.39" style="stroke:#181818;stroke-width:1.0;"/><text fill="#000000" font-family="Roboto" font-size="13" lengthAdjust="spacing" textLength="108.3989" x="1742" y="1177.0669">generate_story()</text><text fill="#000000" font-family="Roboto" font-size="13" lengthAdjust="spacing" textLength="104.6855" x="1743.8567" y="1192.1997">or fill_skeleton()</text></g><!--link worker to moderation_comp--><g id="link_worker_moderation_comp"><path d="M1246.51,1035.59 C1409.13,1051.35 1755.58,1091.64 1855,1156.5 C1876.16,1170.31 1864.96,1191.13 1887,1203.5 C2003.22,1268.74 2359.82,1190.58 2486,1233.5 C2533.96,1249.81 2576.0911,1280.9859 2606.7311,1307.4759 " fill="none" id="worker-to-moderation_comp" style="stroke:#181818;stroke-width:1.0;"/><polygon fill="#181818" points="2611.27,1311.4,2607.0778,1302.4879,2607.4876,1308.1299,2601.8456,1308.5398,2611.27,1311.4" style="stroke:#181818;stroke-width:1.0;"/><text fill="#000000" font-family="Roboto" font-size="13" lengthAdjust="spacing" textLength="109.4907" x="1888" y="1184.5669">post-gate review</text></g><!--link worker to openrouter--><g id="link_worker_openrouter"><path d="M1075.35,1046.85 C1015.53,1064.7 939.11,1097.79 897,1156.5 C861.91,1205.42 863.9671,1274.429 868.4371,1313.449 " fill="none" id="worker-to-openrouter" style="stroke:#181818;stroke-width:1.0;"/><polygon fill="#181818" points="869.12,1319.41,872.0697,1310.0132,868.5509,1314.4425,864.1217,1310.9237,869.12,1319.41" style="stroke:#181818;stroke-width:1.0;"/><text fill="#000000" font-family="Roboto" font-size="13" lengthAdjust="spacing" textLength="129.4478" x="898" y="1177.0669">provider.complete()</text><text fill="#000000" font-family="Roboto" font-size="13" lengthAdjust="spacing" textLength="114.4673" x="905.4902" y="1192.1997">(default provider)</text></g><!--link worker to extra_providers--><g id="link_worker_extra_providers"><path d="M1115.74,1061.55 C1088.42,1084.78 1056.06,1118.31 1041,1156.5 C1019.23,1211.71 1057.3032,1269.5409 1089.9232,1306.8909 " fill="none" id="worker-to-extra_providers" style="stroke:#181818;stroke-width:1.0;stroke-dasharray:7.0,7.0;"/><polygon fill="#181818" points="1093.87,1311.41,1090.9625,1302.0001,1090.581,1307.6441,1084.937,1307.2625,1093.87,1311.41" style="stroke:#181818;stroke-width:1.0;"/><text fill="#000000" font-family="Roboto" font-size="13" lengthAdjust="spacing" textLength="129.4478" x="1073.6367" y="1177.0669">provider.complete()</text><text fill="#000000" font-family="Roboto" font-size="13" lengthAdjust="spacing" textLength="192.7212" x="1042" y="1192.1997">(admin-selected job override)</text></g><!--link worker to ollama--><g id="link_worker_ollama"><path d="M1075.22,1036.98 C859.96,1060.82 303.23,1130.99 151,1233.5 C119.05,1255.02 98.007,1288.2409 84.737,1313.8909 " fill="none" id="worker-to-ollama" style="stroke:#181818;stroke-width:1.0;stroke-dasharray:7.0,7.0;"/><polygon fill="#181818" points="81.98,1319.22,89.6682,1313.0644,84.2775,1314.7791,82.5628,1309.3884,81.98,1319.22" style="stroke:#181818;stroke-width:1.0;"/><text fill="#000000" font-family="Roboto" font-size="13" lengthAdjust="spacing" textLength="50.6606" x="354" y="1184.5669">fallback</text></g><!--link worker to postgres--><g id="link_worker_postgres"><path d="M1225.33,1061.69 C1266.63,1085.09 1320.01,1118.76 1361,1156.5 C1380.36,1174.32 1374.28,1190.23 1397,1203.5 C1479.56,1251.71 1518.62,1205.41 1610,1233.5 C1629.52,1239.5 1643.9029,1244.6652 1663.4329,1252.9152 " fill="none" id="worker-to-postgres" style="stroke:#181818;stroke-width:1.0;"/><polygon fill="#181818" points="1668.96,1255.25,1662.2259,1248.0631,1664.3541,1253.3043,1659.1128,1255.4325,1668.96,1255.25" style="stroke:#181818;stroke-width:1.0;"/><text fill="#000000" font-family="Roboto" font-size="13" lengthAdjust="spacing" textLength="142.4985" x="1398" y="1177.0669">update GenerationJob</text><text fill="#000000" font-family="Roboto" font-size="13" lengthAdjust="spacing" textLength="134.9639" x="1401.7673" y="1192.1997">session pooler :5432</text></g><!--link worker to minio--><g id="link_worker_minio"><path d="M1075.42,1042.34 C937.91,1067.61 661.66,1127.68 449,1233.5 C407.49,1254.15 370.2562,1282.786 341.5462,1307.386 " fill="none" id="worker-to-minio" style="stroke:#181818;stroke-width:1.0;stroke-dasharray:7.0,7.0;"/><polygon fill="#181818" points="336.99,1311.29,346.427,1308.4715,340.7868,1308.0367,341.2217,1302.3966,336.99,1311.29" style="stroke:#181818;stroke-width:1.0;"/><text fill="#000000" font-family="Roboto" font-size="13" lengthAdjust="spacing" textLength="118.0537" x="618" y="1177.0669">[planned Phase 5]</text><text fill="#000000" font-family="Roboto" font-size="13" lengthAdjust="spacing" textLength="89.7876" x="632.1331" y="1192.1997">blob_ref store</text></g><!--link backend to supabase_auth--><g id="link_backend_supabase_auth"><path d="M4412.1288,1161.8788 C4413.0084,1162.5094 4413.8801,1163.1508 4414.7441,1163.8024 C4418.2,1166.4091 4421.5318,1169.181 4424.7435,1172.0964 C4431.1668,1177.9272 4437.1095,1184.332 4442.6033,1191.1364 C4453.5909,1204.7453 4462.7831,1219.9531 4470.4338,1235.3663 C4485.735,1266.1925 4493.5,1291.9985 4498.5,1313.3185 " fill="none" id="backend-to-supabase_auth" style="stroke:#181818;stroke-width:1.0;"/><polygon fill="#181818" points="4499.87,1319.16,4501.7094,1309.4844,4498.7284,1314.2921,4493.9207,1311.311,4499.87,1319.16" style="stroke:#181818;stroke-width:1.0;"/><text fill="#000000" font-family="Roboto" font-size="13" lengthAdjust="spacing" textLength="101.2896" x="4508.6936" y="1169.5669">OIDC validation</text><text fill="#000000" font-family="Roboto" font-size="13" lengthAdjust="spacing" textLength="195.8442" x="4461.4163" y="1184.6997">[local: token-as-subject seam;</text><text fill="#000000" font-family="Roboto" font-size="13" lengthAdjust="spacing" textLength="218.6768" x="4450" y="1199.8325">non-local: verified Supabase JWT]</text></g><!--SRC=[fLXhRzku4ltkNp58FzH1h3YFvhRDOWiuVXGfqYPhf-szY0E3bcXRZKngITcfSN7_-pr3IhBaEhiVra4IcPm7EPmvSwZNzFi_-3HUK_SDtSYrJEYC0kfgbObOIKEzMCoDMBB0Vswf4wsbobP6Nb9OY5WIAg9i8MD3iSga4M4MQsKRhw4qqYiJIfh5YRIN-4vaJTWEDteY2bDjaQR7wOQsd-P0sAnpTqsOeUVOn6f- -A9ktARgfsdq2ckmBodC9POiU87jPssUf76kcyC_o7zzII_K-1E9J4o5bQpJ57QZGXhzSTD9meLSRhpcp20kKaLjPoA9eLvV89pbQv0HtQPIyKQzu1uBUZPB4EGs-phER64X7wO_Lt8blLgaGzjE4w4KmjNEPBW8R2h3usMqPrf4Xd-3avEpmFiEqcVnTx9lWeLUoaHCWrbiR1P4CatqPWdjlzDy7zXLwa8NO3QRQRE42ZL7-IZTNlUwP61FXD9IPuLqKbdyz9kp2hioZ2tE3CdvEvLATzfcSmDvOJd_IAVvqOg4YgFQ5nnpYgNFf34omiCq2uoSnnPPuzPqB-mJdHw_lTpZA5nbUYrDiImOceiK4TGMES9RKsmYnefCk8ZNCcfndLYTn94xxuKqRaN_g5ORzYbMgK1L8YupiKgo0JBcYrXAEXZggSxqGKLaAiAdEOf2HLsTQ4El1Xt-gKZaauRB_LtLkf5X9jGyaVJV1j6LDf4qkP4Bzy4ekyx7pjodyRz60mY0WOFk8auY6ae1lGC-fD0DlEgV3yu6lKBguqgOA1RAISppBn1wDxZelo-4Ej4oLcFLd2TwYjErOYQpJNxWshJ6AZJQsc0cbd6oQL6dDqJMNHmwcu9rOR3NVpluLmFH3uA0xhvt-7zZkyS37Yg1RwmUiF0mezFtBRhVf78KcZZDMlGjpkJZM8samV6oUPiXvq8yMPbPvn2bL6pIHQxYmmU3lbwFLQtEZHjlEtN_JAzwlNv_CAZhtyHJ8ypcLmCCX4uxyHAJLRpVmbqYDhozcdRg1jjZTJyYkHR9YgDAH_Jl4JOdQIbmSahwpJdH5ytVviXqiyTB0MPZTQqY-LD6lIluU3Q8g4Sovw30jhtcFvRGoR3PTT2ruwK0tOUhhzStFRhzUd_tzVxH2IrBmBKCsOBMiK1DRW94pwUVL1ElZmCyuHzEPvynLoWa-DZDcg9NvTF8cxjDjW1KdH-VdhKedsxHtIOIYXDbVOR5_DfWdFzfxYFF_jtiOJz3tz-eUNPwE5OBAP9iqIfElUMI1nZNecsZGtMaHhiMt29N8J4_yQIQum6P6yyLmxY5A7gkqKW1UiXhpPNF8mCPa8ybbZhABK-o1L1nePF8qaCkLvkFX5rCDKgwCitcOqXCH9BevmJ0MqxIKaB08lSs4oEH4XPBygWniT9o1-05H78TXt82Ni9B9gsS2zurbi-M9YlB8IhD-i4Y29MrUBoO0AELzAobcFILcCVwLRVRxtUxEuU19aKZAPOSixYDPcZ12yRg3dmbZ5D4hksZlS63qL0vGcUOY0B9SgJBzvSliaL-SpboiOkzpaSSewdMJzJJIy46RJ7IvlWdVYtRmRAgTyQnzIZcdMFymCDPFZM9K2zxdNi8eRwQeqvne1uyfFlgp0zNo7Iqen5gZ7FUqlgKcYdI_B2A8T3Ox-2RS0qJ4FGHjJvMw-9xUuxlpiNDwT4TscguERevEnhU78qwWpuvinw3IvNz7ZwMrK6tQDL8DDT8ngh23tLbmlcSSR9FjXBWBvcOI-e47ww23rsK8zpP9vd83BcFN4keoNydnPZVVTNk_jLzBYkeMatjD4vbucFSectf-RMXf98uuxfPn_BPYO1FYTWK1rifor0lqnUETZL5HGBivpZNyhdDFKvEyZRW_7cOa1Hye5oE-6oeMMkzMnD_vJFV5lKP2-b6mxVaHzjslS5Hz8Vlew3twFm280EjK5P9F9FX9eGDiK8IEuzUyI-yVOwZA97FmY2lbkKpyti3QfjNGctAod25TMpAG9PJfOUoILJowhkxJ-osYry4c6WKbmz2JC5_xMCj3yjxYlEUIxuQ30RdQ4-vtnxehYjTm1jxBEWla6ANnCBXPw6Gjn7rhWggzBv2iHsxSM1BgGPk6RgyU7D-HiqSWbqc8TdFJkbs-9dWY2ztOpN8oPV_toqnjGKSCAxbV0Ki0tKTBxppQ8p90d0gZzzGnhvp3Nq_Spoa1NgsJ559pkZGzI-8b5gTif6nf0eb-5e-FVJTf4NRqhel2gXvrE7qEOJiTdOaCsUUYknqoTbYUFVjYqMJJj72AZQs9_n9JrlKStZ-aNkLBudYBW62CNWB8buvgw6COZuVADBKQ9mppWBPuSWHuTPKwUhqGqzjpXUXLVALHYtNrVKjxDrEVs3GvGVEdNkCl_tGtOBzNZnMWaXJj7thcD7ed5bMdlCgrbiVFkdwFr6SVDcwkVbiTnETcPRdAao9JBnasWh1Ld5feL3O44pNjrfGUUNRBLBxl7ynkAWQwoZ0dKx1djfyWYA1JNSb22oGDNGfIBWC10ZAbc5G8fdV03cwT3SyzOxaJo3lf12n-xpT9ebO2hYuqI5sDmDHOMAMBzHDSltrh_hzgbfPQSmCEEguqvRrvPMBM_34T_OY0tmuXpd-02zJ7qv_Nmg0iVvEq2YlHposPVeDVyMf3z8b7VXc0EAHmtMbyuD1LkzCXmUD_Dx1LagItzZIVHulk3bC9oushZ7WzeNE80yQ5Vhi5ftJ9qWF-wDxSfUKzId8pvK4UXhAaE9eYet2xF7nXoe5XvxFVFTY0A3STEW-YN75ZkGorU3yeLjvxeYTkiX2ioUvKTZcpdIr-TOcIi9G6wsneThCbiFKXdUwR5sbtWrhSzM-XTNxIr4DUx1zotTyh5rP_uuDUvkMjv8FMsY1WTstKtI6iz-3wdKB7agWBfMFlAkdvbNv3e5VZi3hSz7RAYgHB5Lg0ZMw0xdYxTV4nRRfMLED9ZNh7dQ92spmJWF7Dto6rnrkeOH5yqe_3dtlaEonMM1GCRlro3cuYn4lcX4L30ASOkl4joG3oRh573LWg42JsfAh9xTA-LqHrTh8IsTNyU0H6leFxZrN3TmPqa4CPvuXr8-y3adGTw_Yycfm3FJ1bVgbhzP0sC2kydw2oyzlOwMq2d8Hx3sUnV1TOk6dx_UF1us6GgtIL6SPxXHwLYboaBEXtBuGTPVqHPQbb-ssixb0P2xVdPoSjFbO0I37FwnMq4A3kYILBiciLD4MPL0Q_OA2ChGGu8f8qCo_WIQ0vBvt1GqE1YynNwY9vukCr-c22ci-bAUNhZdwA0A35DScPd4iMvnOU-fox2IRdqQtNwuEZo5Kda6eazLI8N6jVuM4jevfrwf9-y0-oGqry-E3Shcw_mC0]--></g></svg>