<?plantuml 1.2026.2?><svg xmlns="http://www.w3.org/2000/svg" xmlns:xlink="http://www.w3.org/1999/xlink" contentStyleType="text/css" data-diagram-type="DESCRIPTION" height="1278px" preserveAspectRatio="none" style="width:3173px;height:1278px;background:#FAFAFA;" version="1.1" viewBox="0 0 3173 1278" width="3173px" zoomAndPan="magnify"><defs/><g><rect fill="#FAFAFA" height="1278" style="stroke:none;stroke-width:1;" width="3173" x="0" y="0"/><!--cluster pwa--><g class="cluster" data-qualified-name="pwa" data-source-line="32" id="ent0005"><rect fill="#E3F2FD" height="587.27" rx="4" ry="4" style="stroke:#555555;stroke-width:1;" width="365" x="1884.69" y="192.39"/><text fill="#222222" font-family="'Roboto'" font-size="14" font-weight="bold" lengthAdjust="spacing" textLength="118.5762" x="2007.9019" y="207.3851">PWA Container</text><text fill="#222222" font-family="'Roboto'" font-size="14" font-weight="bold" lengthAdjust="spacing" textLength="219.0645" x="1957.6578" y="223.682">[React 19, TypeScript, Vite]</text><text fill="#222222" font-family="'Roboto'" font-size="14" font-weight="bold" lengthAdjust="spacing" textLength="182.4238" x="1975.9781" y="239.9789">Served as static assets</text></g><!--cluster backend--><g class="cluster" data-qualified-name="backend" data-source-line="41" id="ent0011"><rect fill="#E8F5E9" height="405.32" rx="4" ry="4" style="stroke:#555555;stroke-width:1;" width="1231" x="295.69" y="851.66"/><text fill="#222222" font-family="'Roboto'" font-size="14" font-weight="bold" lengthAdjust="spacing" textLength="132.4258" x="844.9771" y="866.6551">FastAPI Backend</text><text fill="#222222" font-family="'Roboto'" font-size="14" font-weight="bold" lengthAdjust="spacing" textLength="280.9229" x="770.7286" y="882.952">[Python 3.12, FastAPI, Pydantic v2]</text><text fill="#222222" font-family="'Roboto'" font-size="14" font-weight="bold" lengthAdjust="spacing" textLength="148.9209" x="836.7296" y="899.2489">src/cyo_adventure/</text></g><!--entity reader--><g class="entity" data-qualified-name="pwa.reader" data-source-line="33" id="ent0006"><rect fill="#DDEEFF" height="52.5938" rx="4" ry="4" style="stroke:#555555;stroke-width:0.5;" width="161.0869" x="1901.15" y="259.39"/><text fill="#222222" font-family="'Roboto'" font-size="14" lengthAdjust="spacing" textLength="69.002" x="1911.15" y="282.3851">Reader UI</text><text fill="#222222" font-family="'Roboto'" font-size="14" lengthAdjust="spacing" textLength="141.0869" x="1911.15" y="298.682">frontend/src/reader/</text></g><!--entity library_ui--><g class="entity" data-qualified-name="pwa.library_ui" data-source-line="34" id="ent0007"><rect fill="#DDEEFF" height="52.5938" rx="4" ry="4" style="stroke:#555555;stroke-width:0.5;" width="136.2383" x="2097.57" y="259.39"/><text fill="#222222" font-family="'Roboto'" font-size="14" lengthAdjust="spacing" textLength="67.7783" x="2107.57" y="282.3851">Library UI</text><text fill="#222222" font-family="'Roboto'" font-size="14" lengthAdjust="spacing" textLength="116.2383" x="2107.57" y="298.682">frontend/src/api/</text></g><!--entity player_ui--><g class="entity" data-qualified-name="pwa.player_ui" data-source-line="35" id="ent0008"><rect fill="#DDEEFF" height="68.8906" rx="4" ry="4" style="stroke:#555555;stroke-width:0.5;" width="240.4111" x="1908.49" y="372.99"/><text fill="#222222" font-family="'Roboto'" font-size="14" lengthAdjust="spacing" textLength="43.5654" x="1918.49" y="395.9851">Player</text><text fill="#222222" font-family="'Roboto'" font-size="14" lengthAdjust="spacing" textLength="138.8926" x="1918.49" y="412.282">frontend/src/player/</text><text fill="#222222" font-family="'Roboto'" font-size="14" lengthAdjust="spacing" textLength="220.4111" x="1918.49" y="428.5789">TS evaluator + XState machine</text></g><!--entity offline--><g class="entity" data-qualified-name="pwa.offline" data-source-line="36" id="ent0009"><rect fill="#DDEEFF" height="68.8906" rx="4" ry="4" style="stroke:#555555;stroke-width:0.5;" width="200.8105" x="1933.29" y="533.88"/><text fill="#222222" font-family="'Roboto'" font-size="14" lengthAdjust="spacing" textLength="89.626" x="1943.29" y="556.8751">Offline Layer</text><text fill="#222222" font-family="'Roboto'" font-size="14" lengthAdjust="spacing" textLength="138.5713" x="1943.29" y="573.172">frontend/src/offline/</text><text fill="#222222" font-family="'Roboto'" font-size="14" lengthAdjust="spacing" textLength="180.8105" x="1943.29" y="589.4689">IndexedDB + write queue</text></g><!--entity gen_client--><g class="entity" data-qualified-name="pwa.gen_client" data-source-line="37" id="ent0010"><rect fill="#E0E0E0" height="68.8906" rx="4" ry="4" style="stroke:#555555;stroke-width:0.5;" width="272.7793" x="1900.3" y="694.77"/><text fill="#222222" font-family="'Roboto'" font-size="14" lengthAdjust="spacing" textLength="145.8516" x="1910.3" y="717.7651">Generated API Client</text><text fill="#222222" font-family="'Roboto'" font-size="14" lengthAdjust="spacing" textLength="252.7793" x="1910.3" y="734.062">frontend/src/client/ [BUILD OUTPUT]</text><text fill="#222222" font-family="'Roboto'" font-size="14" lengthAdjust="spacing" textLength="237.8564" x="1910.3" y="750.3589">from OpenAPI schema via hey-api</text></g><!--entity routers--><g class="entity" data-qualified-name="backend.routers" data-source-line="42" id="ent0012"><rect fill="#CCEECC" height="85.1875" rx="4" ry="4" style="stroke:#555555;stroke-width:0.5;" width="270.1338" x="820.63" y="926.66"/><text fill="#222222" font-family="'Roboto'" font-size="14" lengthAdjust="spacing" textLength="105.1982" x="830.63" y="949.6551">API Routers (9)</text><text fill="#222222" font-family="'Roboto'" font-size="14" lengthAdjust="spacing" textLength="250.1338" x="830.63" y="965.952">health, library, reading, generation,</text><text fill="#222222" font-family="'Roboto'" font-size="14" lengthAdjust="spacing" textLength="211.5654" x="830.63" y="982.2489">profiles, ratings, assignments,</text><text fill="#222222" font-family="'Roboto'" font-size="14" lengthAdjust="spacing" textLength="198.9668" x="830.63" y="998.5457">approval [global admin], me</text></g><!--entity auth--><g class="entity" data-qualified-name="backend.auth" data-source-line="43" id="ent0013"><rect fill="#CCEECC" height="68.8906" rx="4" ry="4" style="stroke:#555555;stroke-width:0.5;" width="177.1719" x="320.11" y="1155.94"/><text fill="#222222" font-family="'Roboto'" font-size="14" lengthAdjust="spacing" textLength="76.9795" x="330.11" y="1178.9351">Auth Seam</text><text fill="#222222" font-family="'Roboto'" font-size="14" lengthAdjust="spacing" textLength="81.375" x="330.11" y="1195.232">api/deps.py</text><text fill="#222222" font-family="'Roboto'" font-size="14" lengthAdjust="spacing" textLength="157.1719" x="330.11" y="1211.5289">Principal / family / role</text></g><!--entity storybook_dom--><g class="entity" data-qualified-name="backend.storybook_dom" data-source-line="44" id="ent0014"><rect fill="#CCEECC" height="85.1875" rx="4" ry="4" style="stroke:#555555;stroke-width:0.5;" width="182.4834" x="532.45" y="1147.79"/><text fill="#222222" font-family="'Roboto'" font-size="14" lengthAdjust="spacing" textLength="129.8828" x="542.45" y="1170.7851">Storybook Domain</text><text fill="#222222" font-family="'Roboto'" font-size="14" lengthAdjust="spacing" textLength="146.7402" x="542.45" y="1187.082">storybook/models.py</text><text fill="#222222" font-family="'Roboto'" font-size="14" lengthAdjust="spacing" textLength="162.4834" x="542.45" y="1203.3789">storybook/evaluator.py</text><text fill="#222222" font-family="'Roboto'" font-size="14" lengthAdjust="spacing" textLength="160.583" x="542.45" y="1219.6757">storybook/condition.py</text></g><!--entity player_eng--><g class="entity" data-qualified-name="backend.player_eng" data-source-line="45" id="ent0015"><rect fill="#CCEECC" height="68.8906" rx="4" ry="4" style="stroke:#555555;stroke-width:0.5;" width="225.6592" x="749.86" y="1155.94"/><text fill="#222222" font-family="'Roboto'" font-size="14" lengthAdjust="spacing" textLength="95.9971" x="759.86" y="1178.9351">Player Engine</text><text fill="#222222" font-family="'Roboto'" font-size="14" lengthAdjust="spacing" textLength="118.0977" x="759.86" y="1195.232">player/engine.py</text><text fill="#222222" font-family="'Roboto'" font-size="14" lengthAdjust="spacing" textLength="205.6592" x="759.86" y="1211.5289">Runtime Semantics v1 (pure)</text></g><!--entity validator--><g class="entity" data-qualified-name="backend.validator" data-source-line="46" id="ent0016"><rect fill="#CCEECC" height="68.8906" rx="4" ry="4" style="stroke:#555555;stroke-width:0.5;" width="240.8623" x="1010.26" y="1155.94"/><text fill="#222222" font-family="'Roboto'" font-size="14" lengthAdjust="spacing" textLength="101.1924" x="1020.26" y="1178.9351">Validator Gate</text><text fill="#222222" font-family="'Roboto'" font-size="14" lengthAdjust="spacing" textLength="119.8271" x="1020.26" y="1195.232">validator/gate.py</text><text fill="#222222" font-family="'Roboto'" font-size="14" lengthAdjust="spacing" textLength="220.8623" x="1020.26" y="1211.5289">L1+Policy+L2+RL+SAFE layers</text></g><!--entity orchestrator--><g class="entity" data-qualified-name="backend.orchestrator" data-source-line="47" id="ent0017"><rect fill="#CCEECC" height="68.8906" rx="4" ry="4" style="stroke:#555555;stroke-width:0.5;" width="208.9111" x="1286.24" y="1155.94"/><text fill="#222222" font-family="'Roboto'" font-size="14" lengthAdjust="spacing" textLength="171.4385" x="1296.24" y="1178.9351">Generation Orchestrator</text><text fill="#222222" font-family="'Roboto'" font-size="14" lengthAdjust="spacing" textLength="188.9111" x="1296.24" y="1195.232">generation/orchestrator.py</text><text fill="#222222" font-family="'Roboto'" font-size="14" lengthAdjust="spacing" textLength="167.4189" x="1296.24" y="1211.5289">Stage A-&gt;B-&gt;C pipeline</text></g><!--entity middleware--><g class="entity" data-qualified-name="backend.middleware" data-source-line="48" id="ent0018"><rect fill="#CCEECC" height="68.8906" rx="4" ry="4" style="stroke:#555555;stroke-width:0.5;" width="204.2148" x="1248.59" y="934.81"/><text fill="#222222" font-family="'Roboto'" font-size="14" lengthAdjust="spacing" textLength="80.6436" x="1258.59" y="957.8051">Middleware</text><text fill="#222222" font-family="'Roboto'" font-size="14" lengthAdjust="spacing" textLength="184.2148" x="1258.59" y="974.102">middleware/correlation.py</text><text fill="#222222" font-family="'Roboto'" font-size="14" lengthAdjust="spacing" textLength="164.4385" x="1258.59" y="990.3989">middleware/security.py</text></g><!--entity child--><g class="entity" data-qualified-name="child" data-source-line="27" id="ent0002"><ellipse cx="1981.6902" cy="30.3" fill="#E3F2FD" rx="8" ry="8" style="stroke:#181818;stroke-width:0.5;"/><path d="M1981.6902,38.3 L1981.6902,65.3 M1968.6902,46.3 L1994.6902,46.3 M1981.6902,65.3 L1968.6902,80.3 M1981.6902,65.3 L1994.6902,80.3" fill="none" style="stroke:#181818;stroke-width:0.5;"/><text fill="#000000" font-family="'Roboto'" font-size="14" lengthAdjust="spacing" textLength="89.9404" x="1936.72" y="94.7951">Child Reader</text></g><!--entity guardian--><g class="entity" data-qualified-name="guardian" data-source-line="28" id="ent0003"><ellipse cx="2129.6926" cy="30.3" fill="#E8F5E9" rx="8" ry="8" style="stroke:#181818;stroke-width:0.5;"/><path d="M2129.6926,38.3 L2129.6926,65.3 M2116.6926,46.3 L2142.6926,46.3 M2129.6926,65.3 L2116.6926,80.3 M2129.6926,65.3 L2142.6926,80.3" fill="none" style="stroke:#181818;stroke-width:0.5;"/><text fill="#000000" font-family="'Roboto'" font-size="14" lengthAdjust="spacing" textLength="64.2852" x="2097.55" y="94.7951">Guardian</text></g><!--entity admin--><g class="entity" data-qualified-name="admin" data-source-line="29" id="ent0004"><ellipse cx="2279.6951" cy="14" fill="#EDE7F6" rx="8" ry="8" style="stroke:#181818;stroke-width:0.5;"/><path d="M2279.6951,22 L2279.6951,49 M2266.6951,30 L2292.6951,30 M2279.6951,49 L2266.6951,64 M2279.6951,49 L2292.6951,64" fill="none" style="stroke:#181818;stroke-width:0.5;"/><text fill="#000000" font-family="'Roboto'" font-size="14" lengthAdjust="spacing" textLength="44.8643" x="2197.24" y="78.4951">Admin</text><text fill="#000000" font-family="'Roboto'" font-size="14" lengthAdjust="spacing" textLength="164.9102" x="2197.24" y="94.792">(global safety operator,</text><text fill="#000000" font-family="'Roboto'" font-size="14" lengthAdjust="spacing" textLength="161.0889" x="2197.24" y="111.0889">cross-family, ADR-005)</text></g><!--entity worker--><g class="entity" data-qualified-name="worker" data-source-line="52" id="ent0019"><rect fill="#FFF3E0" height="68.8906" rx="4" ry="4" style="stroke:#555555;stroke-width:0.5;" width="170.7256" x="2078.33" y="934.81"/><text fill="#222222" font-family="'Roboto'" font-size="14" lengthAdjust="spacing" textLength="133.1914" x="2088.33" y="957.8051">Generation Worker</text><text fill="#222222" font-family="'Roboto'" font-size="14" lengthAdjust="spacing" textLength="142.9258" x="2088.33" y="974.102">[RQ worker process]</text><text fill="#222222" font-family="'Roboto'" font-size="14" lengthAdjust="spacing" textLength="150.7256" x="2088.33" y="990.3989">generation/worker.py</text></g><!--entity postgres--><g class="entity" data-qualified-name="postgres" data-source-line="55" id="ent0020"><path d="M1972.63,1128.85 C1972.63,1118.85 2086.6969,1118.85 2086.6969,1118.85 C2086.6969,1118.85 2200.7638,1118.85 2200.7638,1128.85 L2200.7638,1251.9281 C2200.7638,1261.9281 2086.6969,1261.9281 2086.6969,1261.9281 C2086.6969,1261.9281 1972.63,1261.9281 1972.63,1251.9281 L1972.63,1128.85" fill="#FFF8E1" style="stroke:#181818;stroke-width:0.5;"/><path d="M1972.63,1128.85 C1972.63,1138.85 2086.6969,1138.85 2086.6969,1138.85 C2086.6969,1138.85 2200.7638,1138.85 2200.7638,1128.85" fill="none" style="stroke:#181818;stroke-width:0.5;"/><text fill="#000000" font-family="'Roboto'" font-size="14" lengthAdjust="spacing" textLength="103.0176" x="1982.63" y="1155.8451">PostgreSQL 16</text><text fill="#000000" font-family="'Roboto'" font-size="14" lengthAdjust="spacing" textLength="117.8994" x="1982.63" y="1172.142">[Operational DB]</text><text fill="#000000" font-family="'Roboto'" font-size="14" lengthAdjust="spacing" textLength="98.1025" x="1982.63" y="1188.4389">9 ORM tables:</text><text fill="#000000" font-family="'Roboto'" font-size="14" lengthAdjust="spacing" textLength="179.8945" x="1982.63" y="1204.7357">Family, User, ChildProfile,</text><text fill="#000000" font-family="'Roboto'" font-size="14" lengthAdjust="spacing" textLength="208.1338" x="1982.63" y="1221.0326">Storybook, StorybookVersion,</text><text fill="#000000" font-family="'Roboto'" font-size="14" lengthAdjust="spacing" textLength="188.0498" x="1982.63" y="1237.3295">ReadingState, Completion,</text><text fill="#000000" font-family="'Roboto'" font-size="14" lengthAdjust="spacing" textLength="166.4824" x="1982.63" y="1253.6264">Concept, GenerationJob</text></g><!--entity redis--><g class="entity" data-qualified-name="redis" data-source-line="57" id="ent0021"><path d="M1604.48,1161.44 C1604.48,1151.44 1717.6958,1151.44 1717.6958,1151.44 C1717.6958,1151.44 1830.9116,1151.44 1830.9116,1161.44 L1830.9116,1219.3306 C1830.9116,1229.3306 1717.6958,1229.3306 1717.6958,1229.3306 C1717.6958,1229.3306 1604.48,1229.3306 1604.48,1219.3306 L1604.48,1161.44" fill="#E0E0E0" style="stroke:#181818;stroke-width:0.5;"/><path d="M1604.48,1161.44 C1604.48,1171.44 1717.6958,1171.44 1717.6958,1171.44 C1717.6958,1171.44 1830.9116,1171.44 1830.9116,1161.44" fill="none" style="stroke:#181818;stroke-width:0.5;"/><text fill="#000000" font-family="'Roboto'" font-size="14" lengthAdjust="spacing" textLength="38.4111" x="1614.48" y="1188.4351">Redis</text><text fill="#000000" font-family="'Roboto'" font-size="14" lengthAdjust="spacing" textLength="82.6396" x="1614.48" y="1204.732">[Job broker]</text><text fill="#000000" font-family="'Roboto'" font-size="14" lengthAdjust="spacing" textLength="206.4316" x="1614.48" y="1221.0289">RQ queue for generation jobs</text></g><!--entity minio--><g class="entity" data-qualified-name="minio" data-source-line="59" id="ent0022"><rect fill="#E0E0E0" height="68.8906" rx="4" ry="4" style="stroke:#555555;stroke-width:0.5;" width="262.7168" x="2617.33" y="1155.94"/><text fill="#222222" font-family="'Roboto'" font-size="14" lengthAdjust="spacing" textLength="39.9902" x="2627.33" y="1178.9351">MinIO</text><text fill="#222222" font-family="'Roboto'" font-size="14" lengthAdjust="spacing" textLength="242.7168" x="2627.33" y="1195.232">[Object storage, deferred Phase 5]</text><text fill="#222222" font-family="'Roboto'" font-size="14" lengthAdjust="spacing" textLength="187.127" x="2627.33" y="1211.5289">Storybook blobs via S3 API</text></g><!--entity openrouter--><g class="entity" data-qualified-name="openrouter" data-source-line="62" id="ent0023"><rect fill="#F3E5F5" height="52.5938" rx="4" ry="4" style="stroke:#555555;stroke-width:0.5;" width="117.3984" x="2288.99" y="1164.09"/><text fill="#222222" font-family="'Roboto'" font-size="14" lengthAdjust="spacing" textLength="84.417" x="2298.99" y="1187.0851">OpenRouter</text><text fill="#222222" font-family="'Roboto'" font-size="14" lengthAdjust="spacing" textLength="97.3984" x="2298.99" y="1203.382">[Primary LLM]</text></g><!--entity ollama--><g class="entity" data-qualified-name="ollama" data-source-line="63" id="ent0024"><rect fill="#FFEBEE" height="52.5938" rx="4" ry="4" style="stroke:#555555;stroke-width:0.5;" width="126.4629" x="2455.46" y="1164.09"/><text fill="#222222" font-family="'Roboto'" font-size="14" lengthAdjust="spacing" textLength="49.5947" x="2465.46" y="1187.0851">Ollama</text><text fill="#222222" font-family="'Roboto'" font-size="14" lengthAdjust="spacing" textLength="106.4629" x="2465.46" y="1203.382">[Local fallback]</text></g><!--entity supabase_auth--><g class="entity" data-qualified-name="supabase_auth" data-source-line="64" id="ent0025"><rect fill="#E0F7FA" height="52.5938" rx="4" ry="4" style="stroke:#555555;stroke-width:0.5;" width="137.3867" x="7" y="1164.09"/><text fill="#222222" font-family="'Roboto'" font-size="14" lengthAdjust="spacing" textLength="68.5986" x="17" y="1187.0851">Supabase</text><text fill="#222222" font-family="'Roboto'" font-size="14" lengthAdjust="spacing" textLength="117.3867" x="17" y="1203.382">[OIDC, ADR-009]</text></g><g class="entity" data-qualified-name="GMN47" data-source-line="90" id="ent0048"><path d="M2284.2,945.55 L2284.2,992.9484 A4,4 0 0 0 2288.2,996.9484 L2647.1854,996.9484 A4,4 0 0 0 2651.1854,992.9484 L2651.1854,951.55 L2641.1854,941.55 L2288.2,941.55 A4,4 0 0 0 2284.2,945.55" fill="#FEFFDD" style="stroke:#181818;stroke-width:0.5;"/><path d="M2641.1854,941.55 L2641.1854,949.55 A2,2 0 0 0 2643.1854,951.55 L2651.1854,951.55 L2641.1854,941.55" fill="#FEFFDD" style="stroke:#181818;stroke-width:1;"/><text fill="#000000" font-family="'Roboto'" font-size="13" lengthAdjust="spacing" textLength="345.9854" x="2290.2" y="958.6169">Regenerated from http://localhost:8000/openapi.json</text><text fill="#000000" font-family="'Roboto'" font-size="13" lengthAdjust="spacing" textLength="186.3164" x="2290.2" y="973.7497">via: npm run generate-client</text><text fill="#000000" font-family="'Roboto'" font-size="13" lengthAdjust="spacing" textLength="279.8682" x="2290.2" y="988.8825">Never hand-edit files in frontend/src/client/</text></g><g class="entity" data-qualified-name="GMN50" data-source-line="96" id="ent0051"><path d="M2914.91,1159.12 L2914.91,1186.39 L2880.44,1190.39 L2914.91,1194.39 L2914.91,1221.6513 A4,4 0 0 0 2918.91,1225.6513 L3162.4696,1225.6513 A4,4 0 0 0 3166.4696,1221.6513 L3166.4696,1165.12 L3156.4696,1155.12 L2918.91,1155.12 A4,4 0 0 0 2914.91,1159.12" fill="#FEFFDD" style="stroke:#181818;stroke-width:0.5;"/><path d="M3156.4696,1155.12 L3156.4696,1163.12 A2,2 0 0 0 3158.4696,1165.12 L3166.4696,1165.12 L3156.4696,1155.12" fill="#FEFFDD" style="stroke:#181818;stroke-width:0.5;"/><text fill="#000000" font-family="'Roboto'" font-size="13" lengthAdjust="spacing" textLength="172.7959" x="2920.91" y="1172.1869">Phase 1: blob stored inline</text><text fill="#000000" font-family="'Roboto'" font-size="13" lengthAdjust="spacing" textLength="230.5596" x="2920.91" y="1187.3197">on storybook_version.blob (JSONB).</text><text fill="#000000" font-family="'Roboto'" font-size="13" lengthAdjust="spacing" textLength="188.0176" x="2920.91" y="1202.4525">blob_ref column reserved for</text><text fill="#000000" font-family="'Roboto'" font-size="13" lengthAdjust="spacing" textLength="178.3057" x="2920.91" y="1217.5853">MinIO object key (Phase 5).</text></g><!--link child to reader--><g class="link" data-entity-1="ent0002" data-entity-2="ent0006" data-link-type="dependency" data-source-line="67" id="lnk26"><path d="M1981.69,98.4 C1981.69,143.93 1981.69,213.56 1981.69,252.99" fill="none" id="child-to-reader" style="stroke:#181818;stroke-width:1;"/><polygon fill="#181818" points="1981.69,258.99,1985.69,249.99,1981.69,253.99,1977.69,249.99,1981.69,258.99" style="stroke:#181818;stroke-width:1;"/></g><!--link guardian to library_ui--><g class="link" data-entity-1="ent0003" data-entity-2="ent0007" data-link-type="dependency" data-source-line="68" id="lnk27"><path d="M2135.72,98.4 C2143.04,143.93 2154.256,213.6363 2160.606,253.0663" fill="none" id="guardian-to-library_ui" style="stroke:#181818;stroke-width:1;"/><polygon fill="#181818" points="2161.56,258.99,2164.0782,249.4685,2160.765,254.0536,2156.1799,250.7405,2161.56,258.99" style="stroke:#181818;stroke-width:1;"/></g><!--link admin to library_ui--><g class="link" data-entity-1="ent0004" data-entity-2="ent0007" data-link-type="dependency" data-source-line="69" id="lnk28"><path d="M2252.24,114.83 C2228.99,160.47 2199.3841,218.5741 2181.5441,253.5841" fill="none" id="admin-to-library_ui" style="stroke:#181818;stroke-width:1;"/><polygon fill="#181818" points="2178.82,258.93,2186.4702,252.7272,2181.0901,254.475,2179.3422,249.095,2178.82,258.93" style="stroke:#181818;stroke-width:1;"/><text fill="#000000" font-family="'Roboto'" font-size="13" lengthAdjust="spacing" textLength="115.8955" x="2261.5144" y="157.4569">review + approve</text><text fill="#000000" font-family="'Roboto'" font-size="13" lengthAdjust="spacing" textLength="164.4043" x="2237.26" y="172.5897">storybooks (cross-family)</text></g><!--link reader to player_ui--><g class="link" data-entity-1="ent0006" data-entity-2="ent0008" data-link-type="dependency" data-source-line="70" id="lnk29"><path d="M1991.78,312.38 C1998.68,329.97 2005.719,347.8944 2013.219,367.0144" fill="none" id="reader-to-player_ui" style="stroke:#181818;stroke-width:1;"/><polygon fill="#181818" points="2015.41,372.6,2015.8472,362.7609,2013.5841,367.9453,2008.3997,365.6822,2015.41,372.6" style="stroke:#181818;stroke-width:1;"/></g><!--link player_ui to offline--><g class="link" data-entity-1="ent0008" data-entity-2="ent0009" data-link-type="dependency" data-source-line="71" id="lnk30"><path d="M2029.75,442.13 C2030.6,469 2031.5907,500.473 2032.4407,527.403" fill="none" id="player_ui-to-offline" style="stroke:#181818;stroke-width:1;"/><polygon fill="#181818" points="2032.63,533.4,2036.3441,524.2783,2032.4723,528.4025,2028.3481,524.5307,2032.63,533.4" style="stroke:#181818;stroke-width:1;"/><text fill="#000000" font-family="'Roboto'" font-size="13" lengthAdjust="spacing" textLength="67.355" x="2032.64" y="484.9469">local state</text><text fill="#000000" font-family="'Roboto'" font-size="13" lengthAdjust="spacing" textLength="38.4985" x="2047.0682" y="500.0797">cache</text></g><!--link gen_client to routers--><g class="link" data-entity-1="ent0010" data-entity-2="ent0012" data-link-type="dependency" data-source-line="72" id="lnk31"><path d="M1899.89,734.87 C1737.3,743.4 1459.25,767.53 1230.69,835.66 C1158.06,857.31 1086.0043,893.235 1031.9243,923.295" fill="none" id="gen_client-to-routers" style="stroke:#181818;stroke-width:1;"/><polygon fill="#181818" points="1026.68,926.21,1036.4898,925.3337,1031.0503,923.7808,1032.6031,918.3413,1026.68,926.21" style="stroke:#181818;stroke-width:1;"/><text fill="#000000" font-family="'Roboto'" font-size="13" lengthAdjust="spacing" textLength="82.126" x="1388.4783" y="808.7269">REST /api/v1</text><text fill="#000000" font-family="'Roboto'" font-size="13" lengthAdjust="spacing" textLength="94.6626" x="1382.21" y="823.8597">(Bearer token)</text></g><!--link offline to gen_client--><g class="link" data-entity-1="ent0009" data-entity-2="ent0010" data-link-type="dependency" data-source-line="73" id="lnk32"><path d="M2034.33,603.02 C2034.84,629.89 2035.4264,661.3611 2035.9364,688.2911" fill="none" id="offline-to-gen_client" style="stroke:#181818;stroke-width:1;stroke-dasharray:7,7;"/><polygon fill="#181818" points="2036.05,694.29,2039.8789,685.2159,2035.9553,689.2909,2031.8803,685.3674,2036.05,694.29" style="stroke:#181818;stroke-width:1;"/><text fill="#000000" font-family="'Roboto'" font-size="13" lengthAdjust="spacing" textLength="85.7251" x="2070.8833" y="645.8369">queue replay</text><text fill="#000000" font-family="'Roboto'" font-size="13" lengthAdjust="spacing" textLength="154.5718" x="2036.46" y="660.9697">(event_id idempotency)</text></g><!--link routers to auth--><g class="link" data-entity-1="ent0012" data-entity-2="ent0013" data-link-type="dependency" data-source-line="74" id="lnk33"><path d="M820.31,1003.5 C730.58,1028.48 611.93,1067.24 514.69,1118.85 C494.48,1129.57 478.2419,1139.772 460.1619,1152.142" fill="none" id="routers-to-auth" style="stroke:#181818;stroke-width:1;"/><polygon fill="#181818" points="455.21,1155.53,464.8965,1153.7493,459.3366,1152.7067,460.3792,1147.1467,455.21,1155.53" style="stroke:#181818;stroke-width:1;"/><text fill="#000000" font-family="'Roboto'" font-size="13" lengthAdjust="spacing" textLength="67.666" x="691.52" y="1069.9169">Depends()</text></g><!--link routers to orchestrator--><g class="link" data-entity-1="ent0012" data-entity-2="ent0017" data-link-type="dependency" data-source-line="75" id="lnk34"><path d="M1049.11,1012.2 C1111.84,1040.95 1196.01,1080.66 1268.69,1118.85 C1290.46,1130.28 1308.7593,1140.5835 1329.2493,1152.5535" fill="none" id="routers-to-orchestrator" style="stroke:#181818;stroke-width:1;"/><polygon fill="#181818" points="1334.43,1155.58,1328.6766,1147.5864,1330.1127,1153.0579,1324.6412,1154.494,1334.43,1155.58" style="stroke:#181818;stroke-width:1;"/></g><!--link routers to validator--><g class="link" data-entity-1="ent0012" data-entity-2="ent0016" data-link-type="dependency" data-source-line="76" id="lnk35"><path d="M989.23,1012.25 C1022.57,1054 1069.3357,1112.5517 1100.1157,1151.0917" fill="none" id="routers-to-validator" style="stroke:#181818;stroke-width:1;"/><polygon fill="#181818" points="1103.86,1155.78,1101.3691,1146.2513,1100.7397,1151.8731,1095.118,1151.2438,1103.86,1155.78" style="stroke:#181818;stroke-width:1;"/></g><!--link routers to storybook_dom--><g class="link" data-entity-1="ent0012" data-entity-2="ent0014" data-link-type="dependency" data-source-line="77" id="lnk36"><path d="M892.07,1012.25 C833.23,1051.08 751.2476,1105.1948 692.3876,1144.0448" fill="none" id="routers-to-storybook_dom" style="stroke:#181818;stroke-width:1;"/><polygon fill="#181818" points="687.38,1147.35,697.0948,1145.7306,691.553,1144.5957,692.6879,1139.0538,687.38,1147.35" style="stroke:#181818;stroke-width:1;"/></g><!--link routers to player_eng--><g class="link" data-entity-1="ent0012" data-entity-2="ent0015" data-link-type="dependency" data-source-line="78" id="lnk37"><path d="M937.87,1012.25 C920.15,1054 895.6545,1111.717 879.2945,1150.257" fill="none" id="routers-to-player_eng" style="stroke:#181818;stroke-width:1;"/><polygon fill="#181818" points="876.95,1155.78,884.1487,1149.0585,878.9037,1151.1775,876.7847,1145.9325,876.95,1155.78" style="stroke:#181818;stroke-width:1;"/></g><!--link backend to postgres--><g class="link" data-entity-1="ent0011" data-entity-2="ent0020" data-link-type="dependency" data-source-line="79" id="lnk38"><path d="M1526.8953,970.0909 C1527.5568,970.0846 1528.2557,970.0792 1528.991,970.0753 C1534.8732,970.0433 1543.0852,970.096 1553.1305,970.4083 C1573.2209,971.0328 1600.6444,972.6956 1631.4288,976.7963 C1692.9975,984.9975 1768.01,1002.95 1824.69,1041.85 C1845.53,1056.15 1837.24,1072.71 1856.69,1088.85 C1890.32,1116.74 1927.3118,1135.9751 1966.6518,1151.7651" fill="none" id="backend-to-postgres" style="stroke:#181818;stroke-width:1;"/><polygon fill="#181818" points="1972.22,1154,1965.3576,1146.9355,1967.5798,1152.1376,1962.3777,1154.3597,1972.22,1154" style="stroke:#181818;stroke-width:1;"/><text fill="#000000" font-family="'Roboto'" font-size="13" lengthAdjust="spacing" textLength="136.3286" x="1857.69" y="1069.9169">async SQLAlchemy 2</text></g><!--link backend to redis--><g class="link" data-entity-1="ent0011" data-entity-2="ent0021" data-link-type="dependency" data-source-line="80" id="lnk39"><path d="M1526.7861,1034.8997 C1526.8368,1035.1014 1526.8877,1035.3032 1526.939,1035.5051 C1527.144,1036.3125 1527.3541,1037.1215 1527.5694,1037.9315 C1528.0001,1039.5516 1528.4515,1041.1761 1528.9249,1042.8017 C1529.8716,1046.0531 1530.9057,1049.3095 1532.0353,1052.5461 C1536.5538,1065.4925 1542.6,1078.1225 1550.69,1088.85 C1570.26,1114.78 1593.3994,1132.4705 1621.2294,1148.1105" fill="none" id="backend-to-redis" style="stroke:#181818;stroke-width:1;"/><polygon fill="#181818" points="1626.46,1151.05,1620.5738,1143.1537,1622.1012,1148.6004,1616.6544,1150.1278,1626.46,1151.05" style="stroke:#181818;stroke-width:1;"/><text fill="#000000" font-family="'Roboto'" font-size="13" lengthAdjust="spacing" textLength="80.9136" x="1570.3299" y="1062.4169">enqueue job</text><text fill="#000000" font-family="'Roboto'" font-size="13" lengthAdjust="spacing" textLength="118.1934" x="1551.69" y="1077.5497">(BackgroundTask)</text></g><!--link worker to redis--><g class="link" data-entity-1="ent0019" data-entity-2="ent0021" data-link-type="dependency" data-source-line="81" id="lnk40"><path d="M2088.77,1004.14 C2069.94,1014.65 2050.58,1027.34 2034.69,1041.85 C2016.03,1058.88 2022.72,1073.43 2002.69,1088.85 C1974.84,1110.29 1903.7981,1135.0766 1836.9381,1155.5066" fill="none" id="worker-to-redis" style="stroke:#181818;stroke-width:1;"/><polygon fill="#181818" points="1831.2,1157.26,1840.976,1158.4554,1835.9817,1155.7989,1838.6382,1150.8046,1831.2,1157.26" style="stroke:#181818;stroke-width:1;"/><text fill="#000000" font-family="'Roboto'" font-size="13" lengthAdjust="spacing" textLength="80.9263" x="2035.69" y="1069.9169">dequeue job</text></g><!--link worker to orchestrator--><g class="link" data-entity-1="ent0019" data-entity-2="ent0017" data-link-type="dependency" data-source-line="82" id="lnk41"><path d="M2078.12,975.57 C1963.33,984.05 1766.92,1003.73 1706.69,1041.85 C1685.34,1055.36 1694.8,1073.54 1674.69,1088.85 C1641.82,1113.88 1625.69,1105.18 1586.69,1118.85 C1553.08,1130.63 1521.9533,1141.7421 1489.4433,1153.4821" fill="none" id="worker-to-orchestrator" style="stroke:#181818;stroke-width:1;"/><polygon fill="#181818" points="1483.8,1155.52,1493.6236,1156.2253,1488.5028,1153.8217,1490.9064,1148.7009,1483.8,1155.52" style="stroke:#181818;stroke-width:1;"/><text fill="#000000" font-family="'Roboto'" font-size="13" lengthAdjust="spacing" textLength="108.3989" x="1707.69" y="1069.9169">generate_story()</text></g><!--link worker to openrouter--><g class="link" data-entity-1="ent0019" data-entity-2="ent0023" data-link-type="dependency" data-source-line="83" id="lnk42"><path d="M2245.5,1004.19 C2262.82,1014.3 2279.75,1026.8 2292.69,1041.85 C2323.36,1077.49 2336.5261,1125.9462 2342.5961,1157.7762" fill="none" id="worker-to-openrouter" style="stroke:#181818;stroke-width:1;"/><polygon fill="#181818" points="2343.72,1163.67,2345.9633,1154.08,2342.7834,1158.7585,2338.1049,1155.5786,2343.72,1163.67" style="stroke:#181818;stroke-width:1;"/><text fill="#000000" font-family="'Roboto'" font-size="13" lengthAdjust="spacing" textLength="129.4478" x="2320.66" y="1069.9169">provider.complete()</text></g><!--link worker to ollama--><g class="link" data-entity-1="ent0019" data-entity-2="ent0024" data-link-type="dependency" data-source-line="84" id="lnk43"><path d="M2242.35,1004.14 C2250.49,1007 2258.7,1009.64 2266.69,1011.85 C2349.95,1034.83 2390.98,988.23 2458.69,1041.85 C2496.74,1071.97 2509.9213,1124.1977 2515.0113,1157.7977" fill="none" id="worker-to-ollama" style="stroke:#181818;stroke-width:1;stroke-dasharray:7,7;"/><polygon fill="#181818" points="2515.91,1163.73,2518.5169,1154.2324,2515.1611,1158.7864,2510.6071,1155.4306,2515.91,1163.73" style="stroke:#181818;stroke-width:1;"/><text fill="#000000" font-family="'Roboto'" font-size="13" lengthAdjust="spacing" textLength="50.6606" x="2493.46" y="1069.9169">fallback</text></g><!--link worker to postgres--><g class="link" data-entity-1="ent0019" data-entity-2="ent0020" data-link-type="dependency" data-source-line="85" id="lnk44"><path d="M2152.99,1004.12 C2145.36,1027.92 2134.73,1060.44 2124.69,1088.85 C2121.31,1098.44 2119.7305,1102.876 2116.0505,1112.776" fill="none" id="worker-to-postgres" style="stroke:#181818;stroke-width:1;"/><polygon fill="#181818" points="2113.96,1118.4,2120.8452,1111.3577,2115.7021,1113.7133,2113.3465,1108.5703,2113.96,1118.4" style="stroke:#181818;stroke-width:1;"/><text fill="#000000" font-family="'Roboto'" font-size="13" lengthAdjust="spacing" textLength="142.4985" x="2141.2" y="1069.9169">update GenerationJob</text></g><!--link worker to minio--><g class="link" data-entity-1="ent0019" data-entity-2="ent0022" data-link-type="dependency" data-source-line="86" id="lnk45"><path d="M2241.1,1004.17 C2249.63,1007.1 2258.27,1009.75 2266.69,1011.85 C2390.71,1042.74 2433.76,995.05 2552.69,1041.85 C2617.49,1067.35 2675.152,1116.2941 2711.482,1151.3441" fill="none" id="worker-to-minio" style="stroke:#181818;stroke-width:1;stroke-dasharray:7,7;"/><polygon fill="#181818" points="2715.8,1155.51,2712.1002,1146.3825,2712.2016,1152.0384,2706.5457,1152.1398,2715.8,1155.51" style="stroke:#181818;stroke-width:1;"/><text fill="#000000" font-family="'Roboto'" font-size="13" lengthAdjust="spacing" textLength="118.0537" x="2635.37" y="1062.4169">[planned Phase 5]</text><text fill="#000000" font-family="'Roboto'" font-size="13" lengthAdjust="spacing" textLength="89.7876" x="2649.5031" y="1077.5497">blob_ref store</text></g><!--link backend to supabase_auth--><g class="link" data-entity-1="ent0011" data-entity-2="ent0025" data-link-type="dependency" data-source-line="87" id="lnk46"><path d="M292.0485,1021.4987 C290.0898,1021.5312 288.1414,1021.5647 286.2035,1021.5994 C282.3277,1021.6688 278.4937,1021.7426 274.7028,1021.8209 C259.539,1022.1343 245.0641,1022.5208 231.3542,1022.9882 C203.9343,1023.9231 179.5748,1025.1817 158.8861,1026.8273 C117.5087,1030.1184 90.815,1034.9575 83.69,1041.85 C51.43,1073.06 58.0774,1124.721 66.4374,1157.981" fill="none" id="backend-to-supabase_auth" style="stroke:#181818;stroke-width:1;"/><polygon fill="#181818" points="67.9,1163.8,69.5854,1154.0964,66.6811,1158.9508,61.8267,1156.0466,67.9,1163.8" style="stroke:#181818;stroke-width:1;"/><text fill="#000000" font-family="'Roboto'" font-size="13" lengthAdjust="spacing" textLength="101.2896" x="143.3836" y="1054.9169">OIDC validation</text><text fill="#000000" font-family="'Roboto'" font-size="13" lengthAdjust="spacing" textLength="195.8442" x="96.1063" y="1070.0497">[local: token-as-subject seam;</text><text fill="#000000" font-family="'Roboto'" font-size="13" lengthAdjust="spacing" textLength="218.6768" x="84.69" y="1085.1825">non-local: verified Supabase JWT]</text></g><!--link gen_client to GMN47--><g class="link" data-entity-1="ent0010" data-entity-2="ent0048" data-link-type="association" data-source-line="90" id="lnk49"><path d="M2118.55,764.1 C2163.16,783.46 2218.87,809.13 2266.69,835.66 C2326.1,868.62 2391.07,913.16 2430.61,941.3" fill="none" id="gen_client-GMN47" style="stroke:#181818;stroke-width:1;stroke-dasharray:7,7;"/></g><?plantuml-src fLXhRzku4ltkNp5mFjH1B3kFpMwJYniWyQD8uTPUEsdlHHq4j4JRR2HIbvITDIxsl-yXASbIwc8_h8EqCZaFSkRCcL7UqR__mQVnZdg_q8XlUKpd551FoOm9oJNr1LjfbbY1_uxfDjfocMqqlwQm4374P4JPcWjDGcPSip0JIfh6EoZDr4Q7d9OYvkOQtucC3hlXJZspmbINfMadtT7-qneoazrExWaxz2gqaAlZd-gABbK_BQqsE8FvcSAAuyZC7h3xglGBryvrQ_ex-Qy_qmiL_ebOnXRCSAlJOcOdGvhzFhgDmpLFTbvpgH4NBgEkCn4BgDSF26Vv6NX4uvHBUr4lUC22MYvZ1BbhVNKoKrZ8b-b_6xxXNYrIeUccCPCIuUfcF5m79kLX9uaERBD8sz_WzFGyyBw3z9NzdUmlmLebF6QBO2cqoOA8fx7Q9T3-Eyshm6nI5xe0kzbIwGGgr9hbgpI-x_T8mnuBkQ7R3U0aC_5Yh_QFSDqmBqAc30YcY2_P9iw6YEvdbd1gJjL2PQfP4Lcmy6K50CcefsAbwMXuQtyg4lccjgNnlcfTyp1ZSXLp-d-3w4xfYElSoANxODMwpjVEtQVnPwE1Qi52ixSMSKHJpg3N96OeT0j7WulX-R1VI7tOC1q99ft4Aly2eVV3oy5L8NGR9KBEPMiLgmMBoR0bptQaKeivfTjp6MfbJB1aYOXtRRhjJv6XosDdarbT6EmFVXl-sa3qWo2WoTTR-tzZVyUcNIf9OYw_uU1XHcTNRNhOfNmMQf5cRVeYCluqbpEkjm0xp9iCfHVYoV3CE8U0NN595xcA3nyCUhoVorfDQBVUTUh-cOxw_S5WEAphZyH2CxtxqO0b3QSTUuddZJXiOHApdRrUJJjrYzsvV9WHtx9uOwDA9_IV6Ix7AM78dEJ-Saxqf-R7UHMF3dWf2dykxsN4_-1H_mu-NZKYwglUEIXuuA3v3oNDM8hfkJ9_uwKWg6ztZ_UZFeqV7oQF3qzEA2d9oLXwOxGLZDPy5o1w7dvSFdjz9F3K_bWuUyJSeP3Wuorg2bxFju6RoIvRAqaNdRFpDkNRRPhi8YOjKBRdECoFPEpyBt8VEVhVeiVwcVfUGAshuxbSSnPdwtQHzBR33cYgJVkUWE98jNBT2ljOaYiy0AvY9ItF6GYWAMc5lDEtlC1SpJorAV4voHiG7VLwWq6lz-PKO3QQSPPOEw8B1ZLe9dCvGPCBHGfhNVA5YGUjOc-IMQs3zcR0tcwXr0lrLS9isPjYfPkeYCVU_7wnHEoRTRJpIDWGOBtfIpNVUew0XOFEVNdGGAw0GKJE5mPtNvtvwGPP1DNEW1-RJqFRCsgbIE5njJwWSTZ15nQBo9NN1-1uBhV5z-uAtvsBqTd9HCKYt9sCpa-cevFPxN10pgpdbrBbi8SFPUffh85papcIdClAdA0g6yud2dt5wJQukGjkUfIAbCT5nLTb3tly9A8evgzCupv9-Mpd2utMccUWjcLuk47TxuhCxBTA3sNXLUxprSqpRqlm1m5BtiNmGq0s-gzvgjs_d9ESzrpoQ3WSNg3aSxzzJ4OECkZUrcCnAG4aocGhpJ4dqTclS3PESxl0UlyEdgveFFr44BSZubmEyxRqQBXkaskB4r-IRHlv79HjAX-_8DM-TAU-e1qFGrKbQSppgaQl2hbjIVlxVrGB3q9_GEEkz7vmrgWSVieZON1eoD92ArmS1qQu70CJnfWATz1tjJ1vKu9MIOgDMlBb_TW6OV4TYovWW5BRpYOS-OzeihP-BvygLwK5QCOu-frTM2hFGI25sllmMHZy0UQnWHsDFfctcRTqxWdHyguMYUsD47pomCMkPox4uM9mERoiwSOnInZqHYg4-IMBOqk_kQhRjE4Rt0q6LRLYlBCtne1Np1fNNgyO2PyzlGrEXxzXriglCisBmQn5wg_Y1w8WkCcRVgESV-pQlfKt_0nJNwHhQcg-5VmLNTGpEA_G7rf4TIWwRZRomS9QARjuOz_FxNhHV64wTc6nqmsiXfW0UBDHwO_kq7bRWFHqC7iWDuLipp2dtN6KigOCy9BmN9ZjT6wgFHPw7dLkIWP3jBXjXyyY8X7n95Lewg4xUUx8EdMHXMQV8xsHQRtPhh9LRQDapTfghINKTlP4tbYKhVzcNreumjlN9JflrcHzqK2GItzFb9CDJZcIFp3pWlE_5hHMKObugL8JgB4nv8eNhsTtarRTMgK286eHWhZgJkXfX5UaRMPoq4EoA8QQiUhDDsba1yCwyrHj-Lg6v3VtwbIZ0LlypvelFRdMGrOl8EYxjwWyT_23idF0lFRO2fZ1QrZEF1X1_ZMNKiaW5zboBPO2lijtiezV7vwQZOO4iWXlIXd60BMiG19zRShtxx9kPbndMNhTxJgRQyJW-ltfwMdNXXPmxtmtIa8BL7PDCiLBqqOM1Cg3qkXd05lJciaeG88p_yS3GaaV6bqRDXZsYFb1jLYjCtjE5rHOyw4yktOqwgE8Yf6snB0BsjwZUkixIST9jZxEnf_lZZiGAdCGgdYJIE3E-3SQD01iEr8dvGFxmdVKojC7vV9qVm40?></g></svg>
