<svg xmlns="http://www.w3.org/2000/svg" xmlns:xlink="http://www.w3.org/1999/xlink" contentStyleType="text/css" height="1593px" preserveAspectRatio="none" style="width:4852px;height:1593px;background:#FAFAFA;" version="1.1" viewBox="0 0 4852 1593" width="4852px" zoomAndPan="magnify"><defs><style type="text/css">@import url('https://fonts.googleapis.com/css?family=Roboto:400,100,100italic,300,300italic,400italic,500,500italic,700,700italic,900,900italic');</style></defs><g><rect fill="#FAFAFA" height="1593" style="stroke:none;stroke-width:1.0;" width="4852" x="0" y="0"/><!--cluster pwa--><g id="cluster_pwa"><rect fill="#E3F2FD" height="588" rx="4" ry="4" style="stroke:#555555;stroke-width:1.0;" width="365" x="4303.5" y="192.5"/><text fill="#222222" font-family="Roboto" font-size="14" font-weight="bold" lengthAdjust="spacing" textLength="118.5762" x="4426.7119" y="207.4951">PWA Container</text><text fill="#222222" font-family="Roboto" font-size="14" font-weight="bold" lengthAdjust="spacing" textLength="219.0645" x="4376.4678" y="223.792">[React 19, TypeScript, Vite]</text><text fill="#222222" font-family="Roboto" font-size="14" font-weight="bold" lengthAdjust="spacing" textLength="182.4238" x="4394.7881" y="240.0889">Served as static assets</text></g><!--cluster backend--><g id="cluster_backend"><rect fill="#E8F5E9" height="678" rx="4" ry="4" style="stroke:#555555;stroke-width:1.0;" width="2237" x="2217.5" y="852.5"/><text fill="#222222" font-family="Roboto" font-size="14" font-weight="bold" lengthAdjust="spacing" textLength="132.4258" x="3269.7871" y="867.4951">FastAPI Backend</text><text fill="#222222" font-family="Roboto" font-size="14" font-weight="bold" lengthAdjust="spacing" textLength="280.9229" x="3195.5386" y="883.792">[Python 3.12, FastAPI, Pydantic v2]</text><text fill="#222222" font-family="Roboto" font-size="14" font-weight="bold" lengthAdjust="spacing" textLength="148.9209" x="3261.5396" y="900.0889">src/cyo_adventure/</text></g><!--entity reader--><g id="elem_reader"><rect fill="#DDEEFF" height="52.5938" rx="4" ry="4" style="stroke:#555555;stroke-width:0.5;" width="161.0869" x="4320" y="259.5"/><text fill="#222222" font-family="Roboto" font-size="14" lengthAdjust="spacing" textLength="69.002" x="4330" y="282.4951">Reader UI</text><text fill="#222222" font-family="Roboto" font-size="14" lengthAdjust="spacing" textLength="141.0869" x="4330" y="298.792">frontend/src/reader/</text></g><!--entity library_ui--><g id="elem_library_ui"><rect fill="#DDEEFF" height="52.5938" rx="4" ry="4" style="stroke:#555555;stroke-width:0.5;" width="136.2383" x="4516.5" y="259.5"/><text fill="#222222" font-family="Roboto" font-size="14" lengthAdjust="spacing" textLength="67.7783" x="4526.5" y="282.4951">Library UI</text><text fill="#222222" font-family="Roboto" font-size="14" lengthAdjust="spacing" textLength="116.2383" x="4526.5" y="298.792">frontend/src/api/</text></g><!--entity player_ui--><g id="elem_player_ui"><rect fill="#DDEEFF" height="68.8906" rx="4" ry="4" style="stroke:#555555;stroke-width:0.5;" width="240.4111" x="4327.5" y="373.5"/><text fill="#222222" font-family="Roboto" font-size="14" lengthAdjust="spacing" textLength="43.5654" x="4337.5" y="396.4951">Player</text><text fill="#222222" font-family="Roboto" font-size="14" lengthAdjust="spacing" textLength="138.8926" x="4337.5" y="412.792">frontend/src/player/</text><text fill="#222222" font-family="Roboto" font-size="14" lengthAdjust="spacing" textLength="220.4111" x="4337.5" y="429.0889">TS evaluator + XState machine</text></g><!--entity offline--><g id="elem_offline"><rect fill="#DDEEFF" height="68.8906" rx="4" ry="4" style="stroke:#555555;stroke-width:0.5;" width="200.8105" x="4352" y="534.5"/><text fill="#222222" font-family="Roboto" font-size="14" lengthAdjust="spacing" textLength="89.626" x="4362" y="557.4951">Offline Layer</text><text fill="#222222" font-family="Roboto" font-size="14" lengthAdjust="spacing" textLength="138.5713" x="4362" y="573.792">frontend/src/offline/</text><text fill="#222222" font-family="Roboto" font-size="14" lengthAdjust="spacing" textLength="180.8105" x="4362" y="590.0889">IndexedDB + write queue</text></g><!--entity gen_client--><g id="elem_gen_client"><rect fill="#E0E0E0" height="68.8906" rx="4" ry="4" style="stroke:#555555;stroke-width:0.5;" width="272.7793" x="4320" y="695.5"/><text fill="#222222" font-family="Roboto" font-size="14" lengthAdjust="spacing" textLength="145.8516" x="4330" y="718.4951">Generated API Client</text><text fill="#222222" font-family="Roboto" font-size="14" lengthAdjust="spacing" textLength="252.7793" x="4330" y="734.792">frontend/src/client/ [BUILD OUTPUT]</text><text fill="#222222" font-family="Roboto" font-size="14" lengthAdjust="spacing" textLength="237.8564" x="4330" y="751.0889">from OpenAPI schema via hey-api</text></g><!--entity routers--><g id="elem_routers"><rect fill="#CCEECC" height="317.0469" rx="4" ry="4" style="stroke:#555555;stroke-width:0.5;" width="362.9023" x="3312" y="927.5"/><text fill="#222222" font-family="Roboto" font-size="14" lengthAdjust="spacing" textLength="114.1055" x="3322" y="950.4951">API Routers (28)</text><text fill="#222222" font-family="Roboto" font-size="14" lengthAdjust="spacing" textLength="164.1309" x="3322" y="983.0889">health, me, onboarding</text><line style="stroke:#555555;stroke-width:1.0;" x1="3313" x2="3438.873" y1="961.9453" y2="961.9453"/><text fill="#222222" font-family="Roboto" font-size="14" lengthAdjust="spacing" textLength="109.1563" x="3438.873" y="966.292">public / identity</text><line style="stroke:#555555;stroke-width:1.0;" x1="3548.0293" x2="3673.9023" y1="961.9453" y2="961.9453"/><text fill="#222222" font-family="Roboto" font-size="14" lengthAdjust="spacing" textLength="287.082" x="3322" y="1019.6826">library, reading, reading_history, ratings,</text><text fill="#222222" font-family="Roboto" font-size="14" lengthAdjust="spacing" textLength="288.7295" x="3322" y="1035.9795">recommendations, flags (+admin queue)</text><line style="stroke:#555555;stroke-width:1.0;" x1="3313" x2="3426.4385" y1="998.5391" y2="998.5391"/><text fill="#222222" font-family="Roboto" font-size="14" lengthAdjust="spacing" textLength="134.0254" x="3426.4385" y="1002.8857">kid / profile-scoped</text><line style="stroke:#555555;stroke-width:1.0;" x1="3560.4639" x2="3673.9023" y1="998.5391" y2="998.5391"/><text fill="#222222" font-family="Roboto" font-size="14" lengthAdjust="spacing" textLength="278.6328" x="3322" y="1072.5732">generation (+admin force-fail), profiles,</text><text fill="#222222" font-family="Roboto" font-size="14" lengthAdjust="spacing" textLength="324.5635" x="3322" y="1088.8701">assignments, story_requests (+admin queue),</text><text fill="#222222" font-family="Roboto" font-size="14" lengthAdjust="spacing" textLength="301.041" x="3322" y="1105.167">notifications, child_sessions, device_grants</text><line style="stroke:#555555;stroke-width:1.0;" x1="3313" x2="3462.2896" y1="1051.4297" y2="1051.4297"/><text fill="#222222" font-family="Roboto" font-size="14" lengthAdjust="spacing" textLength="62.3232" x="3462.2896" y="1055.7764">guardian</text><line style="stroke:#555555;stroke-width:1.0;" x1="3524.6128" x2="3673.9023" y1="1051.4297" y2="1051.4297"/><text fill="#222222" font-family="Roboto" font-size="14" lengthAdjust="spacing" textLength="299.3457" x="3322" y="1141.7607">approval, covers, families, audit, rescreen,</text><text fill="#222222" font-family="Roboto" font-size="14" lengthAdjust="spacing" textLength="336.9023" x="3322" y="1158.0576">moderation_thresholds, moderation_dashboard,</text><text fill="#222222" font-family="Roboto" font-size="14" lengthAdjust="spacing" textLength="336.2119" x="3322" y="1174.3545">provider_allowlist, admin_users, admin_profiles,</text><text fill="#222222" font-family="Roboto" font-size="14" lengthAdjust="spacing" textLength="283.9238" x="3322" y="1190.6514">family_connections (+guardian consent)</text><line style="stroke:#555555;stroke-width:1.0;" x1="3313" x2="3442.4824" y1="1120.6172" y2="1120.6172"/><text fill="#222222" font-family="Roboto" font-size="14" lengthAdjust="spacing" textLength="101.9375" x="3442.4824" y="1124.9639">admin [global]</text><line style="stroke:#555555;stroke-width:1.0;" x1="3544.4199" x2="3673.9023" y1="1120.6172" y2="1120.6172"/><text fill="#222222" font-family="Roboto" font-size="14" lengthAdjust="spacing" textLength="68.8174" x="3322" y="1227.2451">node_edit</text><line style="stroke:#555555;stroke-width:1.0;" x1="3313" x2="3387.6445" y1="1206.1016" y2="1206.1016"/><text fill="#222222" font-family="Roboto" font-size="14" lengthAdjust="spacing" textLength="211.6133" x="3387.6445" y="1210.4482">admin or guardian-own-family</text><line style="stroke:#555555;stroke-width:1.0;" x1="3599.2578" x2="3673.9023" y1="1206.1016" y2="1206.1016"/></g><!--entity auth--><g id="elem_auth"><rect fill="#CCEECC" height="85.1875" rx="4" ry="4" style="stroke:#555555;stroke-width:0.5;" width="259.8525" x="2868.5" y="1421.5"/><text fill="#222222" font-family="Roboto" font-size="14" lengthAdjust="spacing" textLength="76.9795" x="2878.5" y="1444.4951">Auth Seam</text><text fill="#222222" font-family="Roboto" font-size="14" lengthAdjust="spacing" textLength="81.375" x="2878.5" y="1460.792">api/deps.py</text><text fill="#222222" font-family="Roboto" font-size="14" lengthAdjust="spacing" textLength="239.8525" x="2878.5" y="1477.0889">Principal / family / role + is_admin</text><text fill="#222222" font-family="Roboto" font-size="14" lengthAdjust="spacing" textLength="223.0361" x="2878.5" y="1493.3857">(guardian, child, admin, device)</text></g><!--entity storybook_dom--><g id="elem_storybook_dom"><rect fill="#CCEECC" height="85.1875" rx="4" ry="4" style="stroke:#555555;stroke-width:0.5;" width="182.4834" x="3163.5" y="1421.5"/><text fill="#222222" font-family="Roboto" font-size="14" lengthAdjust="spacing" textLength="129.8828" x="3173.5" y="1444.4951">Storybook Domain</text><text fill="#222222" font-family="Roboto" font-size="14" lengthAdjust="spacing" textLength="146.7402" x="3173.5" y="1460.792">storybook/models.py</text><text fill="#222222" font-family="Roboto" font-size="14" lengthAdjust="spacing" textLength="162.4834" x="3173.5" y="1477.0889">storybook/evaluator.py</text><text fill="#222222" font-family="Roboto" font-size="14" lengthAdjust="spacing" textLength="160.583" x="3173.5" y="1493.3857">storybook/condition.py</text></g><!--entity player_eng--><g id="elem_player_eng"><rect fill="#CCEECC" height="68.8906" rx="4" ry="4" style="stroke:#555555;stroke-width:0.5;" width="225.6592" x="3380.5" y="1429.5"/><text fill="#222222" font-family="Roboto" font-size="14" lengthAdjust="spacing" textLength="95.9971" x="3390.5" y="1452.4951">Player Engine</text><text fill="#222222" font-family="Roboto" font-size="14" lengthAdjust="spacing" textLength="118.0977" x="3390.5" y="1468.792">player/engine.py</text><text fill="#222222" font-family="Roboto" font-size="14" lengthAdjust="spacing" textLength="205.6592" x="3390.5" y="1485.0889">Runtime Semantics v1 (pure)</text></g><!--entity validator--><g id="elem_validator"><rect fill="#CCEECC" height="68.8906" rx="4" ry="4" style="stroke:#555555;stroke-width:0.5;" width="240.8623" x="3642" y="1429.5"/><text fill="#222222" font-family="Roboto" font-size="14" lengthAdjust="spacing" textLength="101.1924" x="3652" y="1452.4951">Validator Gate</text><text fill="#222222" font-family="Roboto" font-size="14" lengthAdjust="spacing" textLength="119.8271" x="3652" y="1468.792">validator/gate.py</text><text fill="#222222" font-family="Roboto" font-size="14" lengthAdjust="spacing" textLength="220.8623" x="3652" y="1485.0889">L1+Policy+L2+RL+SAFE layers</text></g><!--entity orchestrator--><g id="elem_orchestrator"><rect fill="#CCEECC" height="85.1875" rx="4" ry="4" style="stroke:#555555;stroke-width:0.5;" width="261.4043" x="2250" y="1421.5"/><text fill="#222222" font-family="Roboto" font-size="14" lengthAdjust="spacing" textLength="171.4385" x="2260" y="1444.4951">Generation Orchestrator</text><text fill="#222222" font-family="Roboto" font-size="14" lengthAdjust="spacing" textLength="188.9111" x="2260" y="1460.792">generation/orchestrator.py</text><text fill="#222222" font-family="Roboto" font-size="14" lengthAdjust="spacing" textLength="241.4043" x="2260" y="1477.0889">fresh_generation (Stage A-&gt;B-&gt;C)</text><text fill="#222222" font-family="Roboto" font-size="14" lengthAdjust="spacing" textLength="200.2314" x="2260" y="1493.3857">or skeleton_fill (fill_skeleton)</text></g><!--entity moderation_comp--><g id="elem_moderation_comp"><rect fill="#CCEECC" height="68.8906" rx="4" ry="4" style="stroke:#555555;stroke-width:0.5;" width="286.793" x="2546" y="1429.5"/><text fill="#222222" font-family="Roboto" font-size="14" lengthAdjust="spacing" textLength="79.2969" x="2556" y="1452.4951">Moderation</text><text fill="#222222" font-family="Roboto" font-size="14" lengthAdjust="spacing" textLength="266.793" x="2556" y="1468.792">moderation/pipeline.py, thresholds.py</text><text fill="#222222" font-family="Roboto" font-size="14" lengthAdjust="spacing" textLength="195.1045" x="2556" y="1485.0889">fidelity_review.py, repair.py</text></g><!--entity publishing_comp--><g id="elem_publishing_comp"><rect fill="#CCEECC" height="68.8906" rx="4" ry="4" style="stroke:#555555;stroke-width:0.5;" width="267.0986" x="3918" y="1429.5"/><text fill="#222222" font-family="Roboto" font-size="14" lengthAdjust="spacing" textLength="71.7979" x="3928" y="1452.4951">Publishing</text><text fill="#222222" font-family="Roboto" font-size="14" lengthAdjust="spacing" textLength="201.209" x="3928" y="1468.792">publishing/state_machine.py</text><text fill="#222222" font-family="Roboto" font-size="14" lengthAdjust="spacing" textLength="247.0986" x="3928" y="1485.0889">approve -&gt; publish gate (ADR-005)</text></g><!--entity events_comp--><g id="elem_events_comp"><rect fill="#CCEECC" height="68.8906" rx="4" ry="4" style="stroke:#555555;stroke-width:0.5;" width="209.5127" x="4220.5" y="1429.5"/><text fill="#222222" font-family="Roboto" font-size="14" lengthAdjust="spacing" textLength="129.3564" x="4230.5" y="1452.4951">Pipeline Event Log</text><text fill="#222222" font-family="Roboto" font-size="14" lengthAdjust="spacing" textLength="168.3965" x="4230.5" y="1468.792">events/writer.py [WS-D]</text><text fill="#222222" font-family="Roboto" font-size="14" lengthAdjust="spacing" textLength="189.5127" x="4230.5" y="1485.0889">append-only lifecycle audit</text></g><!--entity middleware--><g id="elem_middleware"><rect fill="#CCEECC" height="68.8906" rx="4" ry="4" style="stroke:#555555;stroke-width:0.5;" width="204.2148" x="2666.5" y="1051.5"/><text fill="#222222" font-family="Roboto" font-size="14" lengthAdjust="spacing" textLength="80.6436" x="2676.5" y="1074.4951">Middleware</text><text fill="#222222" font-family="Roboto" font-size="14" lengthAdjust="spacing" textLength="184.2148" x="2676.5" y="1090.792">middleware/correlation.py</text><text fill="#222222" font-family="Roboto" font-size="14" lengthAdjust="spacing" textLength="164.4385" x="2676.5" y="1107.0889">middleware/security.py</text></g><!--entity child--><g id="elem_child"><ellipse cx="4400.4702" cy="30.5" fill="#E3F2FD" rx="8" ry="8" style="stroke:#181818;stroke-width:0.5;"/><path d="M4400.4702,38.5 L4400.4702,65.5 M4387.4702,46.5 L4413.4702,46.5 M4400.4702,65.5 L4387.4702,80.5 M4400.4702,65.5 L4413.4702,80.5 " fill="none" style="stroke:#181818;stroke-width:0.5;"/><text fill="#000000" font-family="Roboto" font-size="14" lengthAdjust="spacing" textLength="89.9404" x="4355.5" y="94.9951">Child Reader</text></g><!--entity guardian--><g id="elem_guardian"><ellipse cx="4762.6426" cy="30.5" fill="#E8F5E9" rx="8" ry="8" style="stroke:#181818;stroke-width:0.5;"/><path d="M4762.6426,38.5 L4762.6426,65.5 M4749.6426,46.5 L4775.6426,46.5 M4762.6426,65.5 L4749.6426,80.5 M4762.6426,65.5 L4775.6426,80.5 " fill="none" style="stroke:#181818;stroke-width:0.5;"/><text fill="#000000" font-family="Roboto" font-size="14" lengthAdjust="spacing" textLength="64.2852" x="4730.5" y="94.9951">Guardian</text></g><!--entity admin--><g id="elem_admin"><ellipse cx="4573.4551" cy="14" fill="#EDE7F6" rx="8" ry="8" style="stroke:#181818;stroke-width:0.5;"/><path d="M4573.4551,22 L4573.4551,49 M4560.4551,30 L4586.4551,30 M4573.4551,49 L4560.4551,64 M4573.4551,49 L4586.4551,64 " fill="none" style="stroke:#181818;stroke-width:0.5;"/><text fill="#000000" font-family="Roboto" font-size="14" lengthAdjust="spacing" textLength="44.8643" x="4491" y="78.4951">Admin</text><text fill="#000000" font-family="Roboto" font-size="14" lengthAdjust="spacing" textLength="164.9102" x="4491" y="94.792">(global safety operator,</text><text fill="#000000" font-family="Roboto" font-size="14" lengthAdjust="spacing" textLength="161.0889" x="4491" y="111.0889">cross-family, ADR-005)</text></g><!--entity worker--><g id="elem_worker"><rect fill="#FFF3E0" height="68.8906" rx="4" ry="4" style="stroke:#555555;stroke-width:0.5;" width="170.7256" x="845" y="1051.5"/><text fill="#222222" font-family="Roboto" font-size="14" lengthAdjust="spacing" textLength="133.1914" x="855" y="1074.4951">Generation Worker</text><text fill="#222222" font-family="Roboto" font-size="14" lengthAdjust="spacing" textLength="142.9258" x="855" y="1090.792">[RQ worker process]</text><text fill="#222222" font-family="Roboto" font-size="14" lengthAdjust="spacing" textLength="150.7256" x="855" y="1107.0889">generation/worker.py</text></g><!--entity postgres--><g id="elem_postgres"><path d="M975.5,1361.5 C975.5,1351.5 1143.3999,1351.5 1143.3999,1351.5 C1143.3999,1351.5 1311.2998,1351.5 1311.2998,1361.5 L1311.2998,1566.0625 C1311.2998,1576.0625 1143.3999,1576.0625 1143.3999,1576.0625 C1143.3999,1576.0625 975.5,1576.0625 975.5,1566.0625 L975.5,1361.5 " fill="#E0F7FA" style="stroke:#181818;stroke-width:0.5;"/><path d="M975.5,1361.5 C975.5,1371.5 1143.3999,1371.5 1143.3999,1371.5 C1143.3999,1371.5 1311.2998,1371.5 1311.2998,1361.5 " fill="none" style="stroke:#181818;stroke-width:0.5;"/><text fill="#000000" font-family="Roboto" font-size="14" lengthAdjust="spacing" textLength="133.3896" x="985.5" y="1388.4951">Supabase Postgres</text><text fill="#000000" font-family="Roboto" font-size="14" lengthAdjust="spacing" textLength="246.5313" x="985.5" y="1404.792">[Managed DB, ADR-009 decision 2]</text><text fill="#000000" font-family="Roboto" font-size="14" lengthAdjust="spacing" textLength="258.2891" x="985.5" y="1421.0889">Session pooler :5432 (session mode)</text><text fill="#000000" font-family="Roboto" font-size="14" lengthAdjust="spacing" textLength="107.0098" x="985.5" y="1437.3857">22 ORM tables:</text><text fill="#000000" font-family="Roboto" font-size="14" lengthAdjust="spacing" textLength="277.9971" x="985.5" y="1453.6826">Family, FamilyConnection, Series, User,</text><text fill="#000000" font-family="Roboto" font-size="14" lengthAdjust="spacing" textLength="296.4336" x="985.5" y="1469.9795">ChildProfile, Storybook, StorybookVersion,</text><text fill="#000000" font-family="Roboto" font-size="14" lengthAdjust="spacing" textLength="242.3955" x="985.5" y="1486.2764">ReadingState, Completion, Rating,</text><text fill="#000000" font-family="Roboto" font-size="14" lengthAdjust="spacing" textLength="224.7861" x="985.5" y="1502.5732">StorybookAssignment, Concept,</text><text fill="#000000" font-family="Roboto" font-size="14" lengthAdjust="spacing" textLength="315.7998" x="985.5" y="1518.8701">StoryRequest, ModerationThreshold(+Audit),</text><text fill="#000000" font-family="Roboto" font-size="14" lengthAdjust="spacing" textLength="237.9795" x="985.5" y="1535.167">ModerationSetting, PipelineEvent,</text><text fill="#000000" font-family="Roboto" font-size="14" lengthAdjust="spacing" textLength="221.9834" x="985.5" y="1551.4639">ProviderModelAllowlist(+Audit),</text><text fill="#000000" font-family="Roboto" font-size="14" lengthAdjust="spacing" textLength="256.2725" x="985.5" y="1567.7607">GenerationJob, DeviceGrant, KidFlag</text></g><!--entity redis--><g id="elem_redis"><path d="M1633.5,1435 C1633.5,1425 1746.7158,1425 1746.7158,1425 C1746.7158,1425 1859.9316,1425 1859.9316,1435 L1859.9316,1492.8906 C1859.9316,1502.8906 1746.7158,1502.8906 1746.7158,1502.8906 C1746.7158,1502.8906 1633.5,1502.8906 1633.5,1492.8906 L1633.5,1435 " fill="#E0E0E0" style="stroke:#181818;stroke-width:0.5;"/><path d="M1633.5,1435 C1633.5,1445 1746.7158,1445 1746.7158,1445 C1746.7158,1445 1859.9316,1445 1859.9316,1435 " fill="none" style="stroke:#181818;stroke-width:0.5;"/><text fill="#000000" font-family="Roboto" font-size="14" lengthAdjust="spacing" textLength="38.4111" x="1643.5" y="1461.9951">Redis</text><text fill="#000000" font-family="Roboto" font-size="14" lengthAdjust="spacing" textLength="82.6396" x="1643.5" y="1478.292">[Job broker]</text><text fill="#000000" font-family="Roboto" font-size="14" lengthAdjust="spacing" textLength="206.4316" x="1643.5" y="1494.5889">RQ queue for generation jobs</text></g><!--entity minio--><g id="elem_minio"><rect fill="#E0E0E0" height="68.8906" rx="4" ry="4" style="stroke:#555555;stroke-width:0.5;" width="262.7168" x="677" y="1429.5"/><text fill="#222222" font-family="Roboto" font-size="14" lengthAdjust="spacing" textLength="39.9902" x="687" y="1452.4951">MinIO</text><text fill="#222222" font-family="Roboto" font-size="14" lengthAdjust="spacing" textLength="242.7168" x="687" y="1468.792">[Object storage, deferred Phase 5]</text><text fill="#222222" font-family="Roboto" font-size="14" lengthAdjust="spacing" textLength="187.127" x="687" y="1485.0889">Storybook blobs via S3 API</text></g><!--entity r2--><g id="elem_r2"><rect fill="#E0E0E0" height="85.1875" rx="4" ry="4" style="stroke:#555555;stroke-width:0.5;" width="262.4912" x="1894.5" y="1421.5"/><text fill="#222222" font-family="Roboto" font-size="14" lengthAdjust="spacing" textLength="94.8418" x="1904.5" y="1444.4951">Cloudflare R2</text><text fill="#222222" font-family="Roboto" font-size="14" lengthAdjust="spacing" textLength="238.2051" x="1904.5" y="1460.792">[Object storage, S3 API, ADR-017]</text><text fill="#222222" font-family="Roboto" font-size="14" lengthAdjust="spacing" textLength="205.9326" x="1904.5" y="1477.0889">AI cover art WebP; written by</text><text fill="#222222" font-family="Roboto" font-size="14" lengthAdjust="spacing" textLength="242.4912" x="1904.5" y="1493.3857">covers/worker.py RQ job (shipped)</text></g><!--entity openrouter--><g id="elem_openrouter"><rect fill="#F3E5F5" height="52.5938" rx="4" ry="4" style="stroke:#555555;stroke-width:0.5;" width="237.3555" x="7" y="1437.5"/><text fill="#222222" font-family="Roboto" font-size="14" lengthAdjust="spacing" textLength="84.417" x="17" y="1460.4951">OpenRouter</text><text fill="#222222" font-family="Roboto" font-size="14" lengthAdjust="spacing" textLength="217.3555" x="17" y="1476.792">[Primary LLM, default cascade]</text></g><!--entity extra_providers--><g id="elem_extra_providers"><rect fill="#F3E5F5" height="68.8906" rx="4" ry="4" style="stroke:#555555;stroke-width:0.5;" width="201.043" x="279" y="1429.5"/><text fill="#222222" font-family="Roboto" font-size="14" lengthAdjust="spacing" textLength="123.2246" x="289" y="1452.4951">Anthropic / Modal</text><text fill="#222222" font-family="Roboto" font-size="14" lengthAdjust="spacing" textLength="181.043" x="289" y="1468.792">[Admin-selectable per-job</text><text fill="#222222" font-family="Roboto" font-size="14" lengthAdjust="spacing" textLength="175.2188" x="289" y="1485.0889">provider legs, WS-C PR1]</text></g><!--entity ollama--><g id="elem_ollama"><rect fill="#FFEBEE" height="52.5938" rx="4" ry="4" style="stroke:#555555;stroke-width:0.5;" width="126.4629" x="515.5" y="1437.5"/><text fill="#222222" font-family="Roboto" font-size="14" lengthAdjust="spacing" textLength="49.5947" x="525.5" y="1460.4951">Ollama</text><text fill="#222222" font-family="Roboto" font-size="14" lengthAdjust="spacing" textLength="106.4629" x="525.5" y="1476.792">[Local fallback]</text></g><!--entity supabase_auth--><g id="elem_supabase_auth"><rect fill="#E0F7FA" height="52.5938" rx="4" ry="4" style="stroke:#555555;stroke-width:0.5;" width="137.3867" x="4479" y="1437.5"/><text fill="#222222" font-family="Roboto" font-size="14" lengthAdjust="spacing" textLength="105.8613" x="4489" y="1460.4951">Supabase Auth</text><text fill="#222222" font-family="Roboto" font-size="14" lengthAdjust="spacing" textLength="117.3867" x="4489" y="1476.792">[OIDC, ADR-009]</text></g><g id="elem_GMN58"><path d="M4479,1062.5 L4479,1109.8984 A4,4 0 0 0 4483,1113.8984 L4841.9854,1113.8984 A4,4 0 0 0 4845.9854,1109.8984 L4845.9854,1068.5 L4835.9854,1058.5 L4651.08,1058.5 L4476.07,764.62 L4643.08,1058.5 L4483,1058.5 A4,4 0 0 0 4479,1062.5 " fill="#FEFFDD" style="stroke:#181818;stroke-width:0.5;"/><path d="M4835.9854,1058.5 L4835.9854,1066.5 A2,2 0 0 0 4837.9854,1068.5 L4845.9854,1068.5 L4835.9854,1058.5 " fill="#FEFFDD" style="stroke:#181818;stroke-width:0.5;"/><text fill="#000000" font-family="Roboto" font-size="13" lengthAdjust="spacing" textLength="345.9854" x="4485" y="1075.5669">Regenerated from http://localhost:8000/openapi.json</text><text fill="#000000" font-family="Roboto" font-size="13" lengthAdjust="spacing" textLength="186.3164" x="4485" y="1090.6997">via: npm run generate-client</text><text fill="#000000" font-family="Roboto" font-size="13" lengthAdjust="spacing" textLength="279.8682" x="4485" y="1105.8325">Never hand-edit files in frontend/src/client/</text></g><g id="elem_GMN61"><path d="M1346.5,1432.5 L1346.5,1495.0313 A4,4 0 0 0 1350.5,1499.0313 L1594.0596,1499.0313 A4,4 0 0 0 1598.0596,1495.0313 L1598.0596,1438.5 L1588.0596,1428.5 L1350.5,1428.5 A4,4 0 0 0 1346.5,1432.5 " fill="#FEFFDD" style="stroke:#181818;stroke-width:0.5;"/><path d="M1588.0596,1428.5 L1588.0596,1436.5 A2,2 0 0 0 1590.0596,1438.5 L1598.0596,1438.5 L1588.0596,1428.5 " fill="#FEFFDD" style="stroke:#181818;stroke-width:1.0;"/><text fill="#000000" font-family="Roboto" font-size="13" lengthAdjust="spacing" textLength="172.7959" x="1352.5" y="1445.5669">Phase 1: blob stored inline</text><text fill="#000000" font-family="Roboto" font-size="13" lengthAdjust="spacing" textLength="230.5596" x="1352.5" y="1460.6997">on storybook_version.blob (JSONB).</text><text fill="#000000" font-family="Roboto" font-size="13" lengthAdjust="spacing" textLength="188.0176" x="1352.5" y="1475.8325">blob_ref column reserved for</text><text fill="#000000" font-family="Roboto" font-size="13" lengthAdjust="spacing" textLength="178.3057" x="1352.5" y="1490.9653">MinIO object key (Phase 5).</text></g><!--link child to reader--><g id="link_child_reader"><path d="M4400.5,98.24 C4400.5,143.77 4400.5,213.64 4400.5,253.21 " fill="none" id="child-to-reader" style="stroke:#181818;stroke-width:1.0;"/><polygon fill="#181818" points="4400.5,259.21,4404.5,250.21,4400.5,254.21,4396.5,250.21,4400.5,259.21" style="stroke:#181818;stroke-width:1.0;"/></g><!--link guardian to library_ui--><g id="link_guardian_library_ui"><path d="M4762.47,98.26 C4760.84,122.3 4755.56,153.3 4740.5,176.5 C4716.61,213.31 4680.727,238.3132 4646.677,256.5832 " fill="none" id="guardian-to-library_ui" style="stroke:#181818;stroke-width:1.0;"/><polygon fill="#181818" points="4641.39,259.42,4651.2117,258.6894,4645.7958,257.056,4647.4293,251.6401,4641.39,259.42" style="stroke:#181818;stroke-width:1.0;"/></g><!--link admin to library_ui--><g id="link_admin_library_ui"><path d="M4571.28,114.89 C4570.95,124.74 4570.67,134.93 4570.5,144.5 C4570.24,158.72 4569.59,162.31 4570.5,176.5 C4572.33,204.93 4575.8981,231.3612 4579.3081,253.2912 " fill="none" id="admin-to-library_ui" style="stroke:#181818;stroke-width:1.0;"/><polygon fill="#181818" points="4580.23,259.22,4582.7997,249.7123,4579.4618,254.2794,4574.8947,250.9415,4580.23,259.22" style="stroke:#181818;stroke-width:1.0;"/><text fill="#000000" font-family="Roboto" font-size="13" lengthAdjust="spacing" textLength="115.8955" x="4595.7544" y="157.5669">review + approve</text><text fill="#000000" font-family="Roboto" font-size="13" lengthAdjust="spacing" textLength="164.4043" x="4571.5" y="172.6997">storybooks (cross-family)</text></g><!--link reader to player_ui--><g id="link_reader_player_ui"><path d="M4410.58,312.74 C4417.49,330.37 4424.532,348.3532 4432.032,367.5032 " fill="none" id="reader-to-player_ui" style="stroke:#181818;stroke-width:1.0;"/><polygon fill="#181818" points="4434.22,373.09,4434.6625,363.2511,4432.3966,368.4343,4427.2134,366.1685,4434.22,373.09" style="stroke:#181818;stroke-width:1.0;"/></g><!--link player_ui to offline--><g id="link_player_ui_offline"><path d="M4448.56,442.72 C4449.41,469.7 4450.401,501.363 4451.251,528.333 " fill="none" id="player_ui-to-offline" style="stroke:#181818;stroke-width:1.0;"/><polygon fill="#181818" points="4451.44,534.33,4455.1545,525.2085,4451.2825,529.3325,4447.1585,525.4605,4451.44,534.33" style="stroke:#181818;stroke-width:1.0;"/><text fill="#000000" font-family="Roboto" font-size="13" lengthAdjust="spacing" textLength="67.355" x="4450.5" y="485.5669">local state</text><text fill="#000000" font-family="Roboto" font-size="13" lengthAdjust="spacing" textLength="38.4985" x="4464.9282" y="500.6997">cache</text></g><!--link gen_client to routers--><g id="link_gen_client_routers"><path d="M4365.04,764.62 C4207.17,822.65 3886.3915,940.5698 3680.9015,1016.1098 " fill="none" id="gen_client-to-routers" style="stroke:#181818;stroke-width:1.0;"/><polygon fill="#181818" points="3675.27,1018.18,3685.0974,1018.8291,3679.963,1016.4548,3682.3372,1011.3203,3675.27,1018.18" style="stroke:#181818;stroke-width:1.0;"/><text fill="#000000" font-family="Roboto" font-size="13" lengthAdjust="spacing" textLength="82.126" x="4278.7683" y="809.5669">REST /api/v1</text><text fill="#000000" font-family="Roboto" font-size="13" lengthAdjust="spacing" textLength="94.6626" x="4272.5" y="824.6997">(Bearer token)</text></g><!--link offline to gen_client--><g id="link_offline_gen_client"><path d="M4453.35,603.72 C4454.03,630.7 4454.8188,662.3619 4455.4988,689.3319 " fill="none" id="offline-to-gen_client" style="stroke:#181818;stroke-width:1.0;stroke-dasharray:7.0,7.0;"/><polygon fill="#181818" points="4455.65,695.33,4459.4219,686.232,4455.524,690.3316,4451.4244,686.4337,4455.65,695.33" style="stroke:#181818;stroke-width:1.0;"/><text fill="#000000" font-family="Roboto" font-size="13" lengthAdjust="spacing" textLength="85.7251" x="4489.9233" y="646.5669">queue replay</text><text fill="#000000" font-family="Roboto" font-size="13" lengthAdjust="spacing" textLength="154.5718" x="4455.5" y="661.6997">(event_id idempotency)</text></g><!--link routers to auth--><g id="link_routers_auth"><path d="M3311.99,1224.87 C3220.25,1294.56 3120.2278,1370.5306 3058.0278,1417.7806 " fill="none" id="routers-to-auth" style="stroke:#181818;stroke-width:1.0;"/><polygon fill="#181818" points="3053.25,1421.41,3062.8363,1419.151,3057.2315,1418.3855,3057.9971,1412.7807,3053.25,1421.41" style="stroke:#181818;stroke-width:1.0;"/><text fill="#000000" font-family="Roboto" font-size="13" lengthAdjust="spacing" textLength="67.666" x="3246.5" y="1302.5669">Depends()</text></g><!--link routers to orchestrator--><g id="link_routers_orchestrator"><path d="M3311.82,1134.91 C3042.28,1206.26 2564.18,1333.97 2528.5,1351.5 C2491.25,1369.8 2458.5491,1394.1048 2430.7191,1417.5448 " fill="none" id="routers-to-orchestrator" style="stroke:#181818;stroke-width:1.0;"/><polygon fill="#181818" points="2426.13,1421.41,2435.5905,1418.6716,2429.9543,1418.189,2430.4369,1412.5528,2426.13,1421.41" style="stroke:#181818;stroke-width:1.0;"/></g><!--link routers to validator--><g id="link_routers_validator"><path d="M3606.22,1244.55 C3655.42,1313.33 3705.1285,1382.8105 3735.0385,1424.6105 " fill="none" id="routers-to-validator" style="stroke:#181818;stroke-width:1.0;"/><polygon fill="#181818" points="3738.53,1429.49,3736.5457,1419.8431,3735.6204,1425.4238,3730.0397,1424.4985,3738.53,1429.49" style="stroke:#181818;stroke-width:1.0;"/></g><!--link routers to storybook_dom--><g id="link_routers_storybook_dom"><path d="M3393.35,1244.55 C3352.32,1309.11 3311.3789,1373.5165 3284.1389,1416.3665 " fill="none" id="routers-to-storybook_dom" style="stroke:#181818;stroke-width:1.0;"/><polygon fill="#181818" points="3280.92,1421.43,3289.124,1415.9807,3283.6024,1417.2104,3282.3727,1411.6889,3280.92,1421.43" style="stroke:#181818;stroke-width:1.0;"/></g><!--link routers to player_eng--><g id="link_routers_player_eng"><path d="M3493.5,1244.55 C3493.5,1313.33 3493.5,1381.69 3493.5,1423.49 " fill="none" id="routers-to-player_eng" style="stroke:#181818;stroke-width:1.0;"/><polygon fill="#181818" points="3493.5,1429.49,3497.5,1420.49,3493.5,1424.49,3489.5,1420.49,3493.5,1429.49" style="stroke:#181818;stroke-width:1.0;"/></g><!--link routers to moderation_comp--><g id="link_routers_moderation_comp"><path d="M3311.69,1150.13 C3180.5,1198.48 3000.92,1270.49 2851.5,1351.5 C2809.33,1374.36 2769.4622,1402.1363 2737.7322,1425.7663 " fill="none" id="routers-to-moderation_comp" style="stroke:#181818;stroke-width:1.0;"/><polygon fill="#181818" points="2732.92,1429.35,2742.5274,1427.1825,2736.9301,1426.3636,2737.7491,1420.7663,2732.92,1429.35" style="stroke:#181818;stroke-width:1.0;"/></g><!--link routers to publishing_comp--><g id="link_routers_publishing_comp"><path d="M3675.11,1201.73 C3746.05,1247.41 3827.69,1301.03 3900.5,1351.5 C3937.06,1376.84 3972.7687,1403.2485 4002.6187,1425.7485 " fill="none" id="routers-to-publishing_comp" style="stroke:#181818;stroke-width:1.0;"/><polygon fill="#181818" points="4007.41,1429.36,4002.6307,1420.7485,4003.4172,1426.3504,3997.8153,1427.1369,4007.41,1429.36" style="stroke:#181818;stroke-width:1.0;"/></g><!--link routers to events_comp--><g id="link_routers_events_comp"><path d="M3675.03,1133.99 C3823.61,1177.19 4035.7,1249.99 4202.5,1351.5 C4237.58,1372.85 4267.56,1400.6563 4290.93,1424.9463 " fill="none" id="routers-to-events_comp" style="stroke:#181818;stroke-width:1.0;"/><polygon fill="#181818" points="4295.09,1429.27,4291.7325,1420.0111,4291.6234,1425.6669,4285.9676,1425.5577,4295.09,1429.27" style="stroke:#181818;stroke-width:1.0;"/><text fill="#000000" font-family="Roboto" font-size="13" lengthAdjust="spacing" textLength="125.2202" x="4149.5" y="1295.0669">write PipelineEvent</text><text fill="#000000" font-family="Roboto" font-size="13" lengthAdjust="spacing" textLength="123.1128" x="4150.5537" y="1310.1997">(same transaction)</text></g><!--link backend to postgres--><g id="link_backend_postgres"><path d="M2216.6719,1087.3544 C2216.094,1087.3804 2215.4888,1087.408 2214.8565,1087.4373 C2213.592,1087.4958 2212.2194,1087.5611 2210.7412,1087.6337 C2207.7847,1087.7788 2204.4059,1087.9529 2200.6244,1088.1603 C2185.4982,1088.9896 2163.9293,1090.3498 2137.1817,1092.5059 C2083.6866,1096.8181 2009.4769,1104.3138 1924.6663,1117.1125 C1755.045,1142.71 1543.02,1189.52 1369.5,1274.5 C1346.44,1285.79 1311.2195,1313.3699 1271.3895,1347.4399 " fill="none" id="backend-to-postgres" style="stroke:#181818;stroke-width:1.0;"/><polygon fill="#181818" points="1266.83,1351.34,1276.2693,1348.5295,1270.6296,1348.0899,1271.0692,1342.4501,1266.83,1351.34" style="stroke:#181818;stroke-width:1.0;"/><text fill="#000000" font-family="Roboto" font-size="13" lengthAdjust="spacing" textLength="136.3286" x="1370.5" y="1295.0669">async SQLAlchemy 2</text><text fill="#000000" font-family="Roboto" font-size="13" lengthAdjust="spacing" textLength="134.9639" x="1371.1824" y="1310.1997">session pooler :5432</text></g><!--link backend to redis--><g id="link_backend_redis"><path d="M2217.0598,1087.8746 C2212.1743,1088.3935 2205.2682,1089.144 2196.6054,1090.1279 C2179.2799,1092.0959 2154.9279,1094.998 2125.662,1098.8509 C2067.1303,1106.5569 1988.9431,1118.0662 1908.0013,1133.5125 C1746.1175,1164.405 1573.215,1211.045 1524.5,1274.5 C1511.78,1291.07 1512.26,1304.57 1524.5,1321.5 C1549.46,1356.01 1578.37,1330.64 1615.5,1351.5 C1650.52,1371.17 1680.5787,1396.7875 1705.3287,1420.6275 " fill="none" id="backend-to-redis" style="stroke:#181818;stroke-width:1.0;"/><polygon fill="#181818" points="1709.65,1424.79,1705.943,1415.6654,1706.0489,1421.3213,1700.393,1421.4272,1709.65,1424.79" style="stroke:#181818;stroke-width:1.0;"/><text fill="#000000" font-family="Roboto" font-size="13" lengthAdjust="spacing" textLength="80.9136" x="1544.1399" y="1295.0669">enqueue job</text><text fill="#000000" font-family="Roboto" font-size="13" lengthAdjust="spacing" textLength="118.1934" x="1525.5" y="1310.1997">(BackgroundTask)</text></g><!--link worker to redis--><g id="link_worker_redis"><path d="M972.29,1120.58 C1018.56,1157.88 1095.24,1220.03 1160.5,1274.5 C1185.18,1295.1 1185.77,1309.25 1215.5,1321.5 C1380.32,1389.44 1450.61,1283.72 1615.5,1351.5 C1654.17,1367.4 1685.6028,1394.895 1709.8728,1420.505 " fill="none" id="worker-to-redis" style="stroke:#181818;stroke-width:1.0;"/><polygon fill="#181818" points="1714,1424.86,1710.7126,1415.576,1710.5607,1421.2308,1704.9059,1421.0789,1714,1424.86" style="stroke:#181818;stroke-width:1.0;"/><text fill="#000000" font-family="Roboto" font-size="13" lengthAdjust="spacing" textLength="80.9263" x="1216.5" y="1302.5669">dequeue job</text></g><!--link worker to orchestrator--><g id="link_worker_orchestrator"><path d="M1016.27,1091.56 C1158.76,1102.81 1448.35,1141.56 1648.5,1274.5 C1670.42,1289.06 1661.27,1309.13 1684.5,1321.5 C1780.6,1372.66 2068.8,1321.66 2173.5,1351.5 C2226.1,1366.49 2275.2729,1393.1426 2315.0329,1418.1826 " fill="none" id="worker-to-orchestrator" style="stroke:#181818;stroke-width:1.0;"/><polygon fill="#181818" points="2320.11,1421.38,2314.626,1413.1992,2315.8791,1418.7155,2310.3628,1419.9686,2320.11,1421.38" style="stroke:#181818;stroke-width:1.0;"/><text fill="#000000" font-family="Roboto" font-size="13" lengthAdjust="spacing" textLength="108.3989" x="1685.5" y="1295.0669">generate_story()</text><text fill="#000000" font-family="Roboto" font-size="13" lengthAdjust="spacing" textLength="104.6855" x="1687.3567" y="1310.1997">or fill_skeleton()</text></g><!--link worker to moderation_comp--><g id="link_worker_moderation_comp"><path d="M1016.06,1094.51 C1175.62,1110.85 1527.01,1158 1798.5,1274.5 C1832.6,1289.13 1832.3,1309.77 1867.5,1321.5 C2007,1367.99 2389.18,1304.47 2528.5,1351.5 C2576.5,1367.7 2618.624,1398.8926 2649.254,1425.4126 " fill="none" id="worker-to-moderation_comp" style="stroke:#181818;stroke-width:1.0;"/><polygon fill="#181818" points="2653.79,1429.34,2649.6042,1420.4249,2650.01,1426.0672,2644.3677,1426.473,2653.79,1429.34" style="stroke:#181818;stroke-width:1.0;"/><text fill="#000000" font-family="Roboto" font-size="13" lengthAdjust="spacing" textLength="109.4907" x="1868.5" y="1302.5669">post-gate review</text></g><!--link worker to openrouter--><g id="link_worker_openrouter"><path d="M844.97,1098.78 C719.65,1119.02 482.19,1168.85 308.5,1274.5 C236.6,1318.23 176.8428,1392.005 147.0828,1432.505 " fill="none" id="worker-to-openrouter" style="stroke:#181818;stroke-width:1.0;"/><polygon fill="#181818" points="143.53,1437.34,152.0826,1432.456,146.4907,1433.3108,145.6359,1427.7189,143.53,1437.34" style="stroke:#181818;stroke-width:1.0;"/><text fill="#000000" font-family="Roboto" font-size="13" lengthAdjust="spacing" textLength="129.4478" x="309.5" y="1295.0669">provider.complete()</text><text fill="#000000" font-family="Roboto" font-size="13" lengthAdjust="spacing" textLength="114.4673" x="316.9902" y="1310.1997">(default provider)</text></g><!--link worker to extra_providers--><g id="link_worker_extra_providers"><path d="M844.85,1105.32 C747.97,1129.74 590.11,1181.14 485.5,1274.5 C437.32,1317.5 408.1098,1382.182 392.7698,1423.692 " fill="none" id="worker-to-extra_providers" style="stroke:#181818;stroke-width:1.0;stroke-dasharray:7.0,7.0;"/><polygon fill="#181818" points="390.69,1429.32,397.5617,1422.2646,392.4232,1424.63,390.0577,1419.4915,390.69,1429.32" style="stroke:#181818;stroke-width:1.0;"/><text fill="#000000" font-family="Roboto" font-size="13" lengthAdjust="spacing" textLength="129.4478" x="518.1367" y="1295.0669">provider.complete()</text><text fill="#000000" font-family="Roboto" font-size="13" lengthAdjust="spacing" textLength="192.7212" x="486.5" y="1310.1997">(admin-selected job override)</text></g><!--link worker to ollama--><g id="link_worker_ollama"><path d="M892.13,1120.64 C837.73,1169.16 736.25,1262.73 659.5,1351.5 C635.4,1379.37 614.3304,1409.0826 598.7004,1432.3026 " fill="none" id="worker-to-ollama" style="stroke:#181818;stroke-width:1.0;stroke-dasharray:7.0,7.0;"/><polygon fill="#181818" points="595.35,1437.28,603.6939,1432.0475,598.142,1433.1322,597.0574,1427.5803,595.35,1437.28" style="stroke:#181818;stroke-width:1.0;"/><text fill="#000000" font-family="Roboto" font-size="13" lengthAdjust="spacing" textLength="50.6606" x="731.5" y="1302.5669">fallback</text></g><!--link worker to postgres--><g id="link_worker_postgres"><path d="M937.68,1120.72 C948.74,1168.04 972.92,1255.72 1012.5,1321.5 C1018.54,1331.54 1021.7673,1336.6895 1029.0673,1346.3695 " fill="none" id="worker-to-postgres" style="stroke:#181818;stroke-width:1.0;"/><polygon fill="#181818" points="1032.68,1351.16,1030.4547,1341.5658,1029.6695,1347.1679,1024.0674,1346.3827,1032.68,1351.16" style="stroke:#181818;stroke-width:1.0;"/><text fill="#000000" font-family="Roboto" font-size="13" lengthAdjust="spacing" textLength="142.4985" x="1013.5" y="1295.0669">update GenerationJob</text><text fill="#000000" font-family="Roboto" font-size="13" lengthAdjust="spacing" textLength="134.9639" x="1017.2673" y="1310.1997">session pooler :5432</text></g><!--link worker to minio--><g id="link_worker_minio"><path d="M902.35,1120.65 C874.45,1156.3 833.35,1215.47 815.5,1274.5 C799.67,1326.85 801.0111,1385.1408 804.2111,1423.4908 " fill="none" id="worker-to-minio" style="stroke:#181818;stroke-width:1.0;stroke-dasharray:7.0,7.0;"/><polygon fill="#181818" points="804.71,1429.47,807.9478,1420.1686,804.2942,1424.4873,799.9755,1420.8338,804.71,1429.47" style="stroke:#181818;stroke-width:1.0;"/><text fill="#000000" font-family="Roboto" font-size="13" lengthAdjust="spacing" textLength="118.0537" x="816.5" y="1295.0669">[planned Phase 5]</text><text fill="#000000" font-family="Roboto" font-size="13" lengthAdjust="spacing" textLength="89.7876" x="830.6331" y="1310.1997">blob_ref store</text></g><!--link backend to r2--><g id="link_backend_r2"><path d="M2217.2578,1090.4914 C2216.9481,1090.6272 2216.6303,1090.767 2216.3048,1090.9106 C2211.0958,1093.2093 2203.8791,1096.5082 2195.1933,1100.7733 C2177.8216,1109.3034 2154.5731,1121.6981 2129.7563,1137.6838 C2080.1225,1169.655 2024.215,1215.99 1996.5,1274.5 C1974.25,1321.48 1987.9926,1376.1508 2003.6526,1415.7308 " fill="none" id="backend-to-r2" style="stroke:#181818;stroke-width:1.0;stroke-dasharray:7.0,7.0;"/><polygon fill="#181818" points="2005.86,1421.31,2006.2683,1411.4696,2004.0205,1416.6607,1998.8294,1414.4128,2005.86,1421.31" style="stroke:#181818;stroke-width:1.0;"/><text fill="#000000" font-family="Roboto" font-size="13" lengthAdjust="spacing" textLength="99.7534" x="2065.3057" y="1295.0669">cover art WebP</text><text fill="#000000" font-family="Roboto" font-size="13" lengthAdjust="spacing" textLength="235.3647" x="1997.5" y="1310.1997">(covers/worker.py RQ job, ADR-017)</text></g><!--link backend to supabase_auth--><g id="link_backend_supabase_auth"><path d="M4454.6288,1279.8788 C4455.5084,1280.5094 4456.3801,1281.1508 4457.2441,1281.8024 C4460.7,1284.4091 4464.0318,1287.181 4467.2435,1290.0964 C4473.6668,1295.9272 4479.6095,1302.332 4485.1033,1309.1364 C4496.0909,1322.7453 4505.2831,1337.9531 4512.9338,1353.3663 C4528.235,1384.1925 4536,1409.9985 4541,1431.3185 " fill="none" id="backend-to-supabase_auth" style="stroke:#181818;stroke-width:1.0;"/><polygon fill="#181818" points="4542.37,1437.16,4544.2094,1427.4844,4541.2284,1432.2921,4536.4207,1429.311,4542.37,1437.16" style="stroke:#181818;stroke-width:1.0;"/><text fill="#000000" font-family="Roboto" font-size="13" lengthAdjust="spacing" textLength="101.2896" x="4551.1936" y="1287.5669">OIDC validation</text><text fill="#000000" font-family="Roboto" font-size="13" lengthAdjust="spacing" textLength="195.8442" x="4503.9163" y="1302.6997">[local: token-as-subject seam;</text><text fill="#000000" font-family="Roboto" font-size="13" lengthAdjust="spacing" textLength="218.6768" x="4492.5" y="1317.8325">non-local: verified Supabase JWT]</text></g><!--link minio to GMN61--><g id="link_minio_GMN61"><path d="M830.53,1429.36 C858.49,1389.01 910.87,1324.51 975,1298 C1113.01,1240.96 1173.43,1239.91 1311,1298 C1373.41,1324.36 1423.63,1387.93 1450.67,1428.32 " fill="none" id="minio-GMN61" style="stroke:#181818;stroke-width:1.0;stroke-dasharray:7.0,7.0;"/></g><!--SRC=[fLbjSnev4lxEh-XoFWIN6HFZ-99uQrE5UKavvyGiECbTnIvAp0YOU93cf067khh_VazBCyCCmRiVbjGc8FMRMjrFTsjVqkz_uzDuIRtNT2CtCg4E1TJJAXEnaeRwiLWOiMA2VzzIDzf8bQsDlAIm8B4aL4JPKiQ6OfL98y8iriesNe9fejScb3IF4salyPl8ch0TRlLK5ABQ8arFqotjFisXi5btT4tOeQVOn6fn_2nltARgfsdq6ZROvnWM4YOBDh3zfCsZD4vrS_m7-P_FyOKQVqKY4pDX9VCqXTsga2P_t7IJS2bNMyyvD_2BL57RYKXYiDSDXBBS1XdHRIeL7zGJ7f2Wv_C4JcwphjFC5XBoPVhFMgwbPujqQDjf8fI2kzgP39U1JMLukeeER8l8y7_1grUTmEiEqYVnLxIlWwLUoKJCWdbiR1P4CatqTWNkl-9y5zXrwbmNO3URQxC22pKd-IhTNlTxP21FXD9ITurmKbdy-9kJ2haoZ2tk3C7vEvLC8sspXG6zi1n_fDFyQaL2nLKTSeuvW-bpQOoCy6MM1KOkOekeSJRT2Vj8PwTlBWye2jUPtaXJc0L12v72WzeYHlXeYaN4iCY4otWZenRdYTL97BdxNahZBFfRkTgmZx5A1R8IVfcBTP8D4J6VnKhIqLZFTAQFAYGp4Juka1Ggwkb46tenxFAV2aM-QJZTtrQb6nbcGYqIIVzj45rf4qcJ2xbm7woowdojupwD_pKQG00i7FMMSHBHM0hm7V4bXMxXnU1ys1ds2weFQs6YM2X7iSX_WEZjy6BmhY3gHgjOtQlc8j4ptAuLSvbjymlNfdMlGgEj3UPY5IVR5dNxOqJTnR6JAPWN0lk3DyD_DE3z80XezAtB_pPsPppYfHBuxjLt61vcTFQkHNVRL4v24wTPYxx6cNouLnDfSBqitcQ8kH3VhCoiKuXKAWxfF5VHuPr1NwxlLItFZLjlEtR_dLxq-uF1S5ZdlubdHfZjhm8O21rtuYccw_YmX54Yjdoy6dVg5jltwcv2SYEIDNkLJkXV4nnEqahWvfJqXtEapug_pP7fve2M0ipkrRMAv4yPzQ-Wuyd0enx9d882smwA_r129yDcpq7NdfO2TBzVVRc-wTFjbxlHbxi7HxGg0TSoP0lQn08vkGtWFHz-KaqzFoxm5V_XSFOHSuL4Wexzg2bgLRwDk1bjioMWwlpqhDEYVBj5esqa50VAfWDZVYqmJlyirv57_txqi9wnhs_KxBmzlbUmArtF4eXjKnmnPY8jWk1UBQL8icMBLh95MiqqfvLQE8R7E09rQZHNvS26oAB8yUIXqt8H2EhootG9UDHk1x6k5XO91xFq2jWVESIrBPedOW6pJdow-Shaz9KvpJfszRSaHJK89L8tJevRXLci0HaLBnIN5qXt-gT6GgxDzjM0MEaidiTXOOn3cgcLrlhVaTp4ePoYbO4qPvNd_-u1vS7PXdR3Q4G_WpPGdi_4U1B36XBhACxO8JOqKYfeNEaeFyaqMs9zgPC8X9NbIDYbypoeMJ8ko4n5akYd1FviUHEcQ-jK-H-Lutiicw9-AEaxAfowz2MN5MuPAcT1nXRRWNvIEHYwaoaODPKuWGUOF8HUz7g3GQ-t5sEelJIHOiN-YDkeyHRjphqQeGqBunJWswPSSXkIm7A2WZSL1K3d5kHNa9-hk80Sa5d5GUKJlkMPre_Krol10csnqcR79jwMtM89LdlhS0zE2wTX_SYZTBurZG031vLxPAI1MW1-S6CU4wNxwSIFryWlLDa9e8DJsTBcZ9efilUu2etWEApWgt1z0Exf0o3iNcsAt-q5VZiLDsSd8tGBuVRafdColZcPT8S3Sc9zQIbP3cluiCkkMtGWI1LN7wjfrzQL3QTppi4xhIOcK7yXgHkylmhUzn1YK6SVPI8p13N2Cw4c_pqjrlpfgt8FM_UfJ8rgzhJJE9M9zt6BTgdaRKFE9C0qPFucba-E16sYY4rniPLy0o2bprmjOwHTEWHCo-zjBjrocbStfyz3WAJWFULqn7T3pLf7iHFnPphpOz608PvkD7HB_chRhkIvoUFxjqdGVt1w0QM1LaYh99xBS1j2XWCTfz4p_ecsJt4K9V996CJLglpEOuj1nvvdGctBod0DExQb8ykjKaDP-ofnzSsDIVjLy1S2xf-AcOf17MszVQZ5OJb-EUqvvOlXS7YEgflhxQEBTwcBtfir5bqza6A_DuV2Jq8XRYFgNnKTuBlAvE2QDbSFADN0BKEN5w_FEzJCguIB90HxfqEtuqy4HJoptgjXtbFwVtib7BU00yRLXYz0S02sQtT77i2nMG1EvUjNf35p0afyONNjLGjTvof59ZcXOrTXGL9oTSiwo9Ggb6X3y-snhuSjsgNMNP50pPCkXmyNnztkH6PEF1NHwOApnV3kwnEJ9jsYHbLax6xuevwrgE_m_0FNqnRzCuw6gFu-DufP2GtKy0q6ZSgbZL62-A8WWMP6uy9nAGWJLyMv3w0A2ltGCvltm-0g-x56BUZLzItatSv-OD452WA0YusVxcYqPBqN3nLlqWmLtxhERtBENMGU_2hM1tNq4hsEqDiWBSQT0xgya3pWpjv0LVVQzmyO0ZFw9cUZtroFYmQLPaX1trjKNX_W09mLSRYCWGAHXnZJsLdZSs7m4vZ1e-tDpIUxdt_Sr_hEa1jG4wzuI01XgnWHAHGsn5pnuB4QvBuBGCQT3ow65rLXNGKKrgbhAX4F8e5CDu055e0VkimWZ5u1pDvrDfH8D8O4GElHQ7pc5ScVA0ZJWiGUqdQR968beE96XpZT70qIjy6veMwJOM5mDHXKsKe0u8Q5x-MwtolJtZCNRmvJtt0KyUZTESvXaRtktUcdqm3GxoUmHgLnVL-Pgng-tQelqYKT-Hg5VYYl8fM61BrRTK8zFchaKnvBAKUgncwuulLY4eBenFd6rIj440gMF6fKXXLdTDxLWNeycDoH6matP-Z9hYIYrr26X4EjRXHYJq_VLmSUyFayTCym2DIcApfJJ0kukrMg4S2XipnNn4gTPy7Pbro_R7DlkzeJr3RAFgQsMclIQZkxrggsl5Vywopr8btRgvPJMEz7q1eaulYMNrHWkxB-HHDdcvKpuFiTq470_biW0IdiWM9Jb-213UnIUS-xV6fUbIys_1G5hKz5oQsmHB9agH7KkZ3G5M-DK-VRfc_cQjrRiwvXlv-233vfuDeW7-5rXJieOT8yqqz3Nz8aQsmM65JixZHo3EvZnBDYH0M30EuCceob1fHrYJbgG5219ZMJgpUtJlbbZchLxRcxgsZmzGBytzshOgtKS851lphtZSlkofaFi0wcUdd0oPwf2MLLsGkzEh11e7i-pNFAjTVV7M1S-fmFX0tiEgzRcEn-uu5G1Ja9D6DonWbAHFtuxUxXgD70I2rffhCC0vEULw02dUTOxXwntSFACilIotRRoLp2lvTlNxrwrURW00oT_h1QWGj5zv9KkYApLaMfbq4fzBDajom56c6ULVt_DI1-8JZmljDWPx29kQ4cNYmpjjDT3QJv2pcxT0NVtmMGJ766OnUNkqERZU_BJXrby-FazlFLyIc8ofiCTR9UAPx-_RCVMXLik_Q3j7VieznICmy2C9VM_Hy0]--></g></svg>