<svg xmlns="http://www.w3.org/2000/svg" xmlns:xlink="http://www.w3.org/1999/xlink" contentStyleType="text/css" height="1430px" preserveAspectRatio="none" style="width:4275px;height:1430px;background:#FAFAFA;" version="1.1" viewBox="0 0 4275 1430" width="4275px" zoomAndPan="magnify"><defs><style type="text/css">@import url('https://fonts.googleapis.com/css?family=Roboto:400,100,100italic,300,300italic,400italic,500,500italic,700,700italic,900,900italic');</style></defs><g><rect fill="#FAFAFA" height="1430" style="stroke:none;stroke-width:1.0;" width="4275" x="0" y="0"/><!--cluster pwa--><g id="cluster_pwa"><rect fill="#E3F2FD" height="589" rx="4" ry="4" style="stroke:#555555;stroke-width:1.0;" width="344" x="3770" y="192.5"/><text fill="#222222" font-family="Roboto" font-size="14" font-weight="bold" lengthAdjust="spacing" textLength="95.5938" x="3894.2031" y="207.4883">PWA Container</text><text fill="#222222" font-family="Roboto" font-size="14" font-weight="bold" lengthAdjust="spacing" textLength="170.8711" x="3856.5645" y="223.8945">[React 19, TypeScript, Vite]</text><text fill="#222222" font-family="Roboto" font-size="14" font-weight="bold" lengthAdjust="spacing" textLength="145.6123" x="3869.1938" y="240.3008">Served as static assets</text></g><!--cluster backend--><g id="cluster_backend"><rect fill="#E8F5E9" height="514" rx="4" ry="4" style="stroke:#555555;stroke-width:1.0;" width="1937" x="1977" y="853.5"/><text fill="#222222" font-family="Roboto" font-size="14" font-weight="bold" lengthAdjust="spacing" textLength="107.6865" x="2891.6567" y="868.4883">FastAPI Backend</text><text fill="#222222" font-family="Roboto" font-size="14" font-weight="bold" lengthAdjust="spacing" textLength="221.0059" x="2834.9971" y="884.8945">[Python 3.12, FastAPI, Pydantic v2]</text><text fill="#222222" font-family="Roboto" font-size="14" font-weight="bold" lengthAdjust="spacing" textLength="121.7549" x="2884.6226" y="901.3008">src/cyo_adventure/</text></g><!--entity reader--><g id="elem_reader"><rect fill="#DDEEFF" height="52.8125" rx="4" ry="4" style="stroke:#555555;stroke-width:0.5;" width="149.4316" x="3785.5" y="260.5"/><text fill="#222222" font-family="Roboto" font-size="14" lengthAdjust="spacing" textLength="60.0879" x="3795.5" y="283.4883">Reader UI</text><text fill="#222222" font-family="Roboto" font-size="14" lengthAdjust="spacing" textLength="129.4316" x="3795.5" y="299.8945">frontend/src/reader/</text></g><!--entity library_ui--><g id="elem_library_ui"><rect fill="#DDEEFF" height="52.8125" rx="4" ry="4" style="stroke:#555555;stroke-width:0.5;" width="128.4658" x="3970" y="260.5"/><text fill="#222222" font-family="Roboto" font-size="14" lengthAdjust="spacing" textLength="58.8916" x="3980" y="283.4883">Library UI</text><text fill="#222222" font-family="Roboto" font-size="14" lengthAdjust="spacing" textLength="108.4658" x="3980" y="299.8945">frontend/src/api/</text></g><!--entity player_ui--><g id="elem_player_ui"><rect fill="#DDEEFF" height="69.2188" rx="4" ry="4" style="stroke:#555555;stroke-width:0.5;" width="211.1465" x="3795.5" y="374.5"/><text fill="#222222" font-family="Roboto" font-size="14" lengthAdjust="spacing" textLength="38.6436" x="3805.5" y="397.4883">Player</text><text fill="#222222" font-family="Roboto" font-size="14" lengthAdjust="spacing" textLength="127.2578" x="3805.5" y="413.8945">frontend/src/player/</text><text fill="#222222" font-family="Roboto" font-size="14" lengthAdjust="spacing" textLength="191.1465" x="3805.5" y="430.3008">TS evaluator + XState machine</text></g><!--entity offline--><g id="elem_offline"><rect fill="#DDEEFF" height="69.2188" rx="4" ry="4" style="stroke:#555555;stroke-width:0.5;" width="174.3076" x="3820" y="535.5"/><text fill="#222222" font-family="Roboto" font-size="14" lengthAdjust="spacing" textLength="78.75" x="3830" y="558.4883">Offline Layer</text><text fill="#222222" font-family="Roboto" font-size="14" lengthAdjust="spacing" textLength="129.2676" x="3830" y="574.8945">frontend/src/offline/</text><text fill="#222222" font-family="Roboto" font-size="14" lengthAdjust="spacing" textLength="154.3076" x="3830" y="591.3008">IndexedDB + write queue</text></g><!--entity gen_client--><g id="elem_gen_client"><rect fill="#E0E0E0" height="69.2188" rx="4" ry="4" style="stroke:#555555;stroke-width:0.5;" width="249.4893" x="3786.5" y="696.5"/><text fill="#222222" font-family="Roboto" font-size="14" lengthAdjust="spacing" textLength="128.748" x="3796.5" y="719.4883">Generated API Client</text><text fill="#222222" font-family="Roboto" font-size="14" lengthAdjust="spacing" textLength="229.4893" x="3796.5" y="735.8945">frontend/src/client/ [BUILD OUTPUT]</text><text fill="#222222" font-family="Roboto" font-size="14" lengthAdjust="spacing" textLength="210.0752" x="3796.5" y="752.3008">from OpenAPI schema via hey-api</text></g><!--entity routers--><g id="elem_routers"><rect fill="#CCEECC" height="151.25" rx="4" ry="4" style="stroke:#555555;stroke-width:0.5;" width="261.4385" x="3026.5" y="929.5"/><text fill="#222222" font-family="Roboto" font-size="14" lengthAdjust="spacing" textLength="102.4229" x="3036.5" y="952.4883">API Routers (15)</text><text fill="#222222" font-family="Roboto" font-size="14" lengthAdjust="spacing" textLength="211.4561" x="3036.5" y="968.8945">health, library, reading, generation,</text><text fill="#222222" font-family="Roboto" font-size="14" lengthAdjust="spacing" textLength="241.4385" x="3036.5" y="985.3008">profiles, families, ratings, assignments,</text><text fill="#222222" font-family="Roboto" font-size="14" lengthAdjust="spacing" textLength="195.7607" x="3036.5" y="1001.707">approval [global admin], covers,</text><text fill="#222222" font-family="Roboto" font-size="14" lengthAdjust="spacing" textLength="196.4375" x="3036.5" y="1018.1133">moderation_thresholds [admin],</text><text fill="#222222" font-family="Roboto" font-size="14" lengthAdjust="spacing" textLength="197.0801" x="3036.5" y="1034.5195">moderation_dashboard [admin],</text><text fill="#222222" font-family="Roboto" font-size="14" lengthAdjust="spacing" textLength="187.2021" x="3036.5" y="1050.9258">provider_allowlist [admin], me,</text><text fill="#222222" font-family="Roboto" font-size="14" lengthAdjust="spacing" textLength="91.7725" x="3036.5" y="1067.332">story_requests</text></g><!--entity auth--><g id="elem_auth"><rect fill="#CCEECC" height="69.2188" rx="4" ry="4" style="stroke:#555555;stroke-width:0.5;" width="161.5176" x="3529" y="1266"/><text fill="#222222" font-family="Roboto" font-size="14" lengthAdjust="spacing" textLength="68.2432" x="3539" y="1288.9883">Auth Seam</text><text fill="#222222" font-family="Roboto" font-size="14" lengthAdjust="spacing" textLength="73.2402" x="3539" y="1305.3945">api/deps.py</text><text fill="#222222" font-family="Roboto" font-size="14" lengthAdjust="spacing" textLength="141.5176" x="3539" y="1321.8008">Principal / family / role</text></g><!--entity storybook_dom--><g id="elem_storybook_dom"><rect fill="#CCEECC" height="85.625" rx="4" ry="4" style="stroke:#555555;stroke-width:0.5;" width="164.0811" x="3726" y="1257.5"/><text fill="#222222" font-family="Roboto" font-size="14" lengthAdjust="spacing" textLength="114.8438" x="3736" y="1280.4883">Storybook Domain</text><text fill="#222222" font-family="Roboto" font-size="14" lengthAdjust="spacing" textLength="132.248" x="3736" y="1296.8945">storybook/models.py</text><text fill="#222222" font-family="Roboto" font-size="14" lengthAdjust="spacing" textLength="143.9033" x="3736" y="1313.3008">storybook/evaluator.py</text><text fill="#222222" font-family="Roboto" font-size="14" lengthAdjust="spacing" textLength="144.0811" x="3736" y="1329.707">storybook/condition.py</text></g><!--entity player_eng--><g id="elem_player_eng"><rect fill="#CCEECC" height="69.2188" rx="4" ry="4" style="stroke:#555555;stroke-width:0.5;" width="200.1406" x="2561" y="1266"/><text fill="#222222" font-family="Roboto" font-size="14" lengthAdjust="spacing" textLength="84.2256" x="2571" y="1288.9883">Player Engine</text><text fill="#222222" font-family="Roboto" font-size="14" lengthAdjust="spacing" textLength="103.2021" x="2571" y="1305.3945">player/engine.py</text><text fill="#222222" font-family="Roboto" font-size="14" lengthAdjust="spacing" textLength="180.1406" x="2571" y="1321.8008">Runtime Semantics v1 (pure)</text></g><!--entity validator--><g id="elem_validator"><rect fill="#CCEECC" height="69.2188" rx="4" ry="4" style="stroke:#555555;stroke-width:0.5;" width="209.9844" x="2796" y="1266"/><text fill="#222222" font-family="Roboto" font-size="14" lengthAdjust="spacing" textLength="88.7852" x="2806" y="1288.9883">Validator Gate</text><text fill="#222222" font-family="Roboto" font-size="14" lengthAdjust="spacing" textLength="105.458" x="2806" y="1305.3945">validator/gate.py</text><text fill="#222222" font-family="Roboto" font-size="14" lengthAdjust="spacing" textLength="189.9844" x="2806" y="1321.8008">L1+Policy+L2+RL+SAFE layers</text></g><!--entity orchestrator--><g id="elem_orchestrator"><rect fill="#CCEECC" height="85.625" rx="4" ry="4" style="stroke:#555555;stroke-width:0.5;" width="226.541" x="2009.5" y="1257.5"/><text fill="#222222" font-family="Roboto" font-size="14" lengthAdjust="spacing" textLength="149.96" x="2019.5" y="1280.4883">Generation Orchestrator</text><text fill="#222222" font-family="Roboto" font-size="14" lengthAdjust="spacing" textLength="167.1182" x="2019.5" y="1296.8945">generation/orchestrator.py</text><text fill="#222222" font-family="Roboto" font-size="14" lengthAdjust="spacing" textLength="206.541" x="2019.5" y="1313.3008">fresh_generation (Stage A-&gt;B-&gt;C)</text><text fill="#222222" font-family="Roboto" font-size="14" lengthAdjust="spacing" textLength="177.8711" x="2019.5" y="1329.707">or skeleton_fill (fill_skeleton)</text></g><!--entity moderation_comp--><g id="elem_moderation_comp"><rect fill="#CCEECC" height="69.2188" rx="4" ry="4" style="stroke:#555555;stroke-width:0.5;" width="254.418" x="2272" y="1266"/><text fill="#222222" font-family="Roboto" font-size="14" lengthAdjust="spacing" textLength="71.5859" x="2282" y="1288.9883">Moderation</text><text fill="#222222" font-family="Roboto" font-size="14" lengthAdjust="spacing" textLength="234.418" x="2282" y="1305.3945">moderation/pipeline.py, thresholds.py</text><text fill="#222222" font-family="Roboto" font-size="14" lengthAdjust="spacing" textLength="166.5918" x="2282" y="1321.8008">fidelity_review.py, repair.py</text></g><!--entity publishing_comp--><g id="elem_publishing_comp"><rect fill="#CCEECC" height="69.2188" rx="4" ry="4" style="stroke:#555555;stroke-width:0.5;" width="232.1055" x="3041" y="1266"/><text fill="#222222" font-family="Roboto" font-size="14" lengthAdjust="spacing" textLength="65.1533" x="3051" y="1288.9883">Publishing</text><text fill="#222222" font-family="Roboto" font-size="14" lengthAdjust="spacing" textLength="179.3682" x="3051" y="1305.3945">publishing/state_machine.py</text><text fill="#222222" font-family="Roboto" font-size="14" lengthAdjust="spacing" textLength="212.1055" x="3051" y="1321.8008">approve -&gt; publish gate (ADR-005)</text></g><!--entity events_comp--><g id="elem_events_comp"><rect fill="#CCEECC" height="69.2188" rx="4" ry="4" style="stroke:#555555;stroke-width:0.5;" width="185.3682" x="3308.5" y="1266"/><text fill="#222222" font-family="Roboto" font-size="14" lengthAdjust="spacing" textLength="114.29" x="3318.5" y="1288.9883">Pipeline Event Log</text><text fill="#222222" font-family="Roboto" font-size="14" lengthAdjust="spacing" textLength="145.2227" x="3318.5" y="1305.3945">events/writer.py [WS-D]</text><text fill="#222222" font-family="Roboto" font-size="14" lengthAdjust="spacing" textLength="165.3682" x="3318.5" y="1321.8008">append-only lifecycle audit</text></g><!--entity middleware--><g id="elem_middleware"><rect fill="#CCEECC" height="69.2188" rx="4" ry="4" style="stroke:#555555;stroke-width:0.5;" width="183.502" x="2414" y="970.5"/><text fill="#222222" font-family="Roboto" font-size="14" lengthAdjust="spacing" textLength="72.5498" x="2424" y="993.4883">Middleware</text><text fill="#222222" font-family="Roboto" font-size="14" lengthAdjust="spacing" textLength="163.502" x="2424" y="1009.8945">middleware/correlation.py</text><text fill="#222222" font-family="Roboto" font-size="14" lengthAdjust="spacing" textLength="145.6055" x="2424" y="1026.3008">middleware/security.py</text></g><!--entity child--><g id="elem_child"><ellipse cx="3859.8647" cy="30.5" fill="#E3F2FD" rx="8" ry="8" style="stroke:#181818;stroke-width:0.5;"/><path d="M3859.8647,38.5 L3859.8647,65.5 M3846.8647,46.5 L3872.8647,46.5 M3859.8647,65.5 L3846.8647,80.5 M3859.8647,65.5 L3872.8647,80.5 " fill="none" style="stroke:#181818;stroke-width:0.5;"/><text fill="#000000" font-family="Roboto" font-size="14" lengthAdjust="spacing" textLength="78.7295" x="3820.5" y="94.9883">Child Reader</text></g><!--entity guardian--><g id="elem_guardian"><ellipse cx="3998.1299" cy="30.5" fill="#E8F5E9" rx="8" ry="8" style="stroke:#181818;stroke-width:0.5;"/><path d="M3998.1299,38.5 L3998.1299,65.5 M3985.1299,46.5 L4011.1299,46.5 M3998.1299,65.5 L3985.1299,80.5 M3998.1299,65.5 L4011.1299,80.5 " fill="none" style="stroke:#181818;stroke-width:0.5;"/><text fill="#000000" font-family="Roboto" font-size="14" lengthAdjust="spacing" textLength="56.2598" x="3970" y="94.9883">Guardian</text></g><!--entity admin--><g id="elem_admin"><ellipse cx="4132.9482" cy="14" fill="#EDE7F6" rx="8" ry="8" style="stroke:#181818;stroke-width:0.5;"/><path d="M4132.9482,22 L4132.9482,49 M4119.9482,30 L4145.9482,30 M4132.9482,49 L4119.9482,64 M4132.9482,49 L4145.9482,64 " fill="none" style="stroke:#181818;stroke-width:0.5;"/><text fill="#000000" font-family="Roboto" font-size="14" lengthAdjust="spacing" textLength="40.4414" x="4061" y="78.4883">Admin</text><text fill="#000000" font-family="Roboto" font-size="14" lengthAdjust="spacing" textLength="143.8965" x="4061" y="94.8945">(global safety operator,</text><text fill="#000000" font-family="Roboto" font-size="14" lengthAdjust="spacing" textLength="142.0918" x="4061" y="111.3008">cross-family, ADR-005)</text></g><!--entity worker--><g id="elem_worker"><rect fill="#FFF3E0" height="69.2188" rx="4" ry="4" style="stroke:#555555;stroke-width:0.5;" width="152.9658" x="977.5" y="970.5"/><text fill="#222222" font-family="Roboto" font-size="14" lengthAdjust="spacing" textLength="116.0605" x="987.5" y="993.4883">Generation Worker</text><text fill="#222222" font-family="Roboto" font-size="14" lengthAdjust="spacing" textLength="124.9336" x="987.5" y="1009.8945">[RQ worker process]</text><text fill="#222222" font-family="Roboto" font-size="14" lengthAdjust="spacing" textLength="132.9658" x="987.5" y="1026.3008">generation/worker.py</text></g><!--entity postgres--><g id="elem_postgres"><path d="M1519.5,1197.5 C1519.5,1187.5 1667.7808,1187.5 1667.7808,1187.5 C1667.7808,1187.5 1816.0615,1187.5 1816.0615,1197.5 L1816.0615,1403.375 C1816.0615,1413.375 1667.7808,1413.375 1667.7808,1413.375 C1667.7808,1413.375 1519.5,1413.375 1519.5,1403.375 L1519.5,1197.5 " fill="#E0F7FA" style="stroke:#181818;stroke-width:0.5;"/><path d="M1519.5,1197.5 C1519.5,1207.5 1667.7808,1207.5 1667.7808,1207.5 C1667.7808,1207.5 1816.0615,1207.5 1816.0615,1197.5 " fill="none" style="stroke:#181818;stroke-width:0.5;"/><text fill="#000000" font-family="Roboto" font-size="14" lengthAdjust="spacing" textLength="120.9824" x="1529.5" y="1224.4883">Supabase Postgres</text><text fill="#000000" font-family="Roboto" font-size="14" lengthAdjust="spacing" textLength="215.0313" x="1529.5" y="1240.8945">[Managed DB, ADR-009 decision 2]</text><text fill="#000000" font-family="Roboto" font-size="14" lengthAdjust="spacing" textLength="230.9316" x="1529.5" y="1257.3008">Session pooler :5432 (session mode)</text><text fill="#000000" font-family="Roboto" font-size="14" lengthAdjust="spacing" textLength="94.6641" x="1529.5" y="1273.707">19 ORM tables:</text><text fill="#000000" font-family="Roboto" font-size="14" lengthAdjust="spacing" textLength="201.6943" x="1529.5" y="1290.1133">Family, Series, User, ChildProfile,</text><text fill="#000000" font-family="Roboto" font-size="14" lengthAdjust="spacing" textLength="182.752" x="1529.5" y="1306.5195">Storybook, StorybookVersion,</text><text fill="#000000" font-family="Roboto" font-size="14" lengthAdjust="spacing" textLength="209.8633" x="1529.5" y="1322.9258">ReadingState, Completion, Rating,</text><text fill="#000000" font-family="Roboto" font-size="14" lengthAdjust="spacing" textLength="198.7686" x="1529.5" y="1339.332">StorybookAssignment, Concept,</text><text fill="#000000" font-family="Roboto" font-size="14" lengthAdjust="spacing" textLength="276.5615" x="1529.5" y="1355.7383">StoryRequest, ModerationThreshold(+Audit),</text><text fill="#000000" font-family="Roboto" font-size="14" lengthAdjust="spacing" textLength="208.4209" x="1529.5" y="1372.1445">ModerationSetting, PipelineEvent,</text><text fill="#000000" font-family="Roboto" font-size="14" lengthAdjust="spacing" textLength="196.8955" x="1529.5" y="1388.5508">ProviderModelAllowlist(+Audit),</text><text fill="#000000" font-family="Roboto" font-size="14" lengthAdjust="spacing" textLength="91.7451" x="1529.5" y="1404.957">GenerationJob</text></g><!--entity redis--><g id="elem_redis"><path d="M1244.5,1271.5 C1244.5,1261.5 1344.9531,1261.5 1344.9531,1261.5 C1344.9531,1261.5 1445.4063,1261.5 1445.4063,1271.5 L1445.4063,1329.7188 C1445.4063,1339.7188 1344.9531,1339.7188 1344.9531,1339.7188 C1344.9531,1339.7188 1244.5,1339.7188 1244.5,1329.7188 L1244.5,1271.5 " fill="#E0E0E0" style="stroke:#181818;stroke-width:0.5;"/><path d="M1244.5,1271.5 C1244.5,1281.5 1344.9531,1281.5 1344.9531,1281.5 C1344.9531,1281.5 1445.4063,1281.5 1445.4063,1271.5 " fill="none" style="stroke:#181818;stroke-width:0.5;"/><text fill="#000000" font-family="Roboto" font-size="14" lengthAdjust="spacing" textLength="34.5762" x="1254.5" y="1298.4883">Redis</text><text fill="#000000" font-family="Roboto" font-size="14" lengthAdjust="spacing" textLength="74.3203" x="1254.5" y="1314.8945">[Job broker]</text><text fill="#000000" font-family="Roboto" font-size="14" lengthAdjust="spacing" textLength="180.9063" x="1254.5" y="1331.3008">RQ queue for generation jobs</text></g><!--entity minio--><g id="elem_minio"><rect fill="#E0E0E0" height="69.2188" rx="4" ry="4" style="stroke:#555555;stroke-width:0.5;" width="230.7725" x="156.5" y="1266"/><text fill="#222222" font-family="Roboto" font-size="14" lengthAdjust="spacing" textLength="36.7979" x="166.5" y="1288.9883">MinIO</text><text fill="#222222" font-family="Roboto" font-size="14" lengthAdjust="spacing" textLength="210.7725" x="166.5" y="1305.3945">[Object storage, deferred Phase 5]</text><text fill="#222222" font-family="Roboto" font-size="14" lengthAdjust="spacing" textLength="167.1523" x="166.5" y="1321.8008">Storybook blobs via S3 API</text></g><!--entity openrouter--><g id="elem_openrouter"><rect fill="#F3E5F5" height="52.8125" rx="4" ry="4" style="stroke:#555555;stroke-width:0.5;" width="212.0762" x="688" y="1274"/><text fill="#222222" font-family="Roboto" font-size="14" lengthAdjust="spacing" textLength="73.7256" x="698" y="1296.9883">OpenRouter</text><text fill="#222222" font-family="Roboto" font-size="14" lengthAdjust="spacing" textLength="192.0762" x="698" y="1313.3945">[Primary LLM, default cascade]</text></g><!--entity extra_providers--><g id="elem_extra_providers"><rect fill="#F3E5F5" height="69.2188" rx="4" ry="4" style="stroke:#555555;stroke-width:0.5;" width="178.2793" x="935" y="1266"/><text fill="#222222" font-family="Roboto" font-size="14" lengthAdjust="spacing" textLength="112.3213" x="945" y="1288.9883">Anthropic / Modal</text><text fill="#222222" font-family="Roboto" font-size="14" lengthAdjust="spacing" textLength="158.2793" x="945" y="1305.3945">[Admin-selectable per-job</text><text fill="#222222" font-family="Roboto" font-size="14" lengthAdjust="spacing" textLength="152.6807" x="945" y="1321.8008">provider legs, WS-C PR1]</text></g><!--entity ollama--><g id="elem_ollama"><rect fill="#FFEBEE" height="52.8125" rx="4" ry="4" style="stroke:#555555;stroke-width:0.5;" width="113.96" x="7" y="1274"/><text fill="#222222" font-family="Roboto" font-size="14" lengthAdjust="spacing" textLength="43.9482" x="17" y="1296.9883">Ollama</text><text fill="#222222" font-family="Roboto" font-size="14" lengthAdjust="spacing" textLength="93.96" x="17" y="1313.3945">[Local fallback]</text></g><!--entity supabase_auth--><g id="elem_supabase_auth"><rect fill="#E0F7FA" height="52.8125" rx="4" ry="4" style="stroke:#555555;stroke-width:0.5;" width="119.8115" x="3938" y="1274"/><text fill="#222222" font-family="Roboto" font-size="14" lengthAdjust="spacing" textLength="94.2471" x="3948" y="1296.9883">Supabase Auth</text><text fill="#222222" font-family="Roboto" font-size="14" lengthAdjust="spacing" textLength="99.8115" x="3948" y="1313.3945">[OIDC, ADR-009]</text></g><g id="elem_GMN56"><path d="M3938,981 L3938,1028.7031 A4,4 0 0 0 3942,1032.7031 L4264.2007,1032.7031 A4,4 0 0 0 4268.2007,1028.7031 L4268.2007,987 L4258.2007,977 L4087.93,977 L3934.74,765.63 L4079.93,977 L3942,977 A4,4 0 0 0 3938,981 " fill="#FEFFDD" style="stroke:#181818;stroke-width:0.5;"/><path d="M4258.2007,977 L4258.2007,985 A2,2 0 0 0 4260.2007,987 L4268.2007,987 L4258.2007,977 " fill="#FEFFDD" style="stroke:#181818;stroke-width:0.5;"/><text fill="#000000" font-family="Roboto" font-size="13" lengthAdjust="spacing" textLength="309.2007" x="3944" y="994.0605">Regenerated from http://localhost:8000/openapi.json</text><text fill="#000000" font-family="Roboto" font-size="13" lengthAdjust="spacing" textLength="159.9165" x="3944" y="1009.2949">via: npm run generate-client</text><text fill="#000000" font-family="Roboto" font-size="13" lengthAdjust="spacing" textLength="250.0596" x="3944" y="1024.5293">Never hand-edit files in frontend/src/client/</text></g><g id="elem_GMN59"><path d="M423,1269 L423,1296.5 L387.6,1300.5 L423,1304.5 L423,1331.9375 A4,4 0 0 0 427,1335.9375 L648.8315,1335.9375 A4,4 0 0 0 652.8315,1331.9375 L652.8315,1275 L642.8315,1265 L427,1265 A4,4 0 0 0 423,1269 " fill="#FEFFDD" style="stroke:#181818;stroke-width:0.5;"/><path d="M642.8315,1265 L642.8315,1273 A2,2 0 0 0 644.8315,1275 L652.8315,1275 L642.8315,1265 " fill="#FEFFDD" style="stroke:#181818;stroke-width:0.5;"/><text fill="#000000" font-family="Roboto" font-size="13" lengthAdjust="spacing" textLength="152.3057" x="429" y="1282.0605">Phase 1: blob stored inline</text><text fill="#000000" font-family="Roboto" font-size="13" lengthAdjust="spacing" textLength="208.8315" x="429" y="1297.2949">on storybook_version.blob (JSONB).</text><text fill="#000000" font-family="Roboto" font-size="13" lengthAdjust="spacing" textLength="165.8262" x="429" y="1312.5293">blob_ref column reserved for</text><text fill="#000000" font-family="Roboto" font-size="13" lengthAdjust="spacing" textLength="158.2217" x="429" y="1327.7637">MinIO object key (Phase 5).</text></g><!--link child to reader--><g id="link_child_reader"><path d="M3860,98.15 C3860,143.96 3860,214.61 3860,254.36 " fill="none" id="child-to-reader" style="stroke:#181818;stroke-width:1.0;"/><polygon fill="#181818" points="3860,260.36,3864,251.36,3860,255.36,3856,251.36,3860,260.36" style="stroke:#181818;stroke-width:1.0;"/></g><!--link guardian to library_ui--><g id="link_guardian_library_ui"><path d="M4003.94,98.15 C4011.27,143.96 4022.5921,214.6854 4028.9521,254.4354 " fill="none" id="guardian-to-library_ui" style="stroke:#181818;stroke-width:1.0;"/><polygon fill="#181818" points="4029.9,260.36,4032.4278,250.8411,4029.11,255.4228,4024.5283,252.105,4029.9,260.36" style="stroke:#181818;stroke-width:1.0;"/></g><!--link admin to library_ui--><g id="link_admin_library_ui"><path d="M4109.41,114.61 C4089.17,160.62 4063.2869,219.4483 4047.7469,254.7583 " fill="none" id="admin-to-library_ui" style="stroke:#181818;stroke-width:1.0;"/><polygon fill="#181818" points="4045.33,260.25,4052.6165,253.6237,4047.3441,255.6736,4045.2942,250.4012,4045.33,260.25" style="stroke:#181818;stroke-width:1.0;"/><text fill="#000000" font-family="Roboto" font-size="13" lengthAdjust="spacing" textLength="97.9253" x="4120.8669" y="157.5605">review + approve</text><text fill="#000000" font-family="Roboto" font-size="13" lengthAdjust="spacing" textLength="147.6592" x="4096" y="172.7949">storybooks (cross-family)</text></g><!--link reader to player_ui--><g id="link_reader_player_ui"><path d="M3868.8,313.74 C3874.82,331.37 3880.9282,349.2629 3887.4782,368.4129 " fill="none" id="reader-to-player_ui" style="stroke:#181818;stroke-width:1.0;"/><polygon fill="#181818" points="3889.42,374.09,3890.2921,364.2798,3887.8019,369.3591,3882.7226,366.8689,3889.42,374.09" style="stroke:#181818;stroke-width:1.0;"/></g><!--link player_ui to offline--><g id="link_player_ui_offline"><path d="M3902.27,443.72 C3903.29,470.7 3904.4832,502.3643 3905.5032,529.3343 " fill="none" id="player_ui-to-offline" style="stroke:#181818;stroke-width:1.0;"/><polygon fill="#181818" points="3905.73,535.33,3909.387,526.1853,3905.541,530.3336,3901.3927,526.4876,3905.73,535.33" style="stroke:#181818;stroke-width:1.0;"/><text fill="#000000" font-family="Roboto" font-size="13" lengthAdjust="spacing" textLength="60.0171" x="3905" y="486.5605">local state</text><text fill="#000000" font-family="Roboto" font-size="13" lengthAdjust="spacing" textLength="34.7344" x="3917.6414" y="501.7949">cache</text></g><!--link gen_client to routers--><g id="link_gen_client_routers"><path d="M3817.79,765.63 C3684.51,813.7 3444.574,900.264 3293.244,954.854 " fill="none" id="gen_client-to-routers" style="stroke:#181818;stroke-width:1.0;"/><polygon fill="#181818" points="3287.6,956.89,3297.4233,957.5987,3292.3033,955.1933,3294.7087,950.0734,3287.6,956.89" style="stroke:#181818;stroke-width:1.0;"/><text fill="#000000" font-family="Roboto" font-size="13" lengthAdjust="spacing" textLength="75.9624" x="3732.1675" y="810.5605">REST /api/v1</text><text fill="#000000" font-family="Roboto" font-size="13" lengthAdjust="spacing" textLength="82.2974" x="3729" y="825.7949">(Bearer token)</text></g><!--link offline to gen_client--><g id="link_offline_gen_client"><path d="M3907.85,604.72 C3908.53,631.7 3909.3188,663.3619 3909.9988,690.3319 " fill="none" id="offline-to-gen_client" style="stroke:#181818;stroke-width:1.0;stroke-dasharray:7.0,7.0;"/><polygon fill="#181818" points="3910.15,696.33,3913.9219,687.232,3910.024,691.3316,3905.9244,687.4337,3910.15,696.33" style="stroke:#181818;stroke-width:1.0;"/><text fill="#000000" font-family="Roboto" font-size="13" lengthAdjust="spacing" textLength="73.7153" x="3940.5703" y="647.5605">queue replay</text><text fill="#000000" font-family="Roboto" font-size="13" lengthAdjust="spacing" textLength="134.856" x="3910" y="662.7949">(event_id idempotency)</text></g><!--link routers to auth--><g id="link_routers_auth"><path d="M3287.65,1054.36 C3358.95,1085.09 3445.72,1129.95 3511,1187.5 C3538.16,1211.44 3561.3327,1237.8883 3580.2527,1261.2383 " fill="none" id="routers-to-auth" style="stroke:#181818;stroke-width:1.0;"/><polygon fill="#181818" points="3584.03,1265.9,3581.4719,1256.3892,3580.8822,1262.0152,3575.2562,1261.4256,3584.03,1265.9" style="stroke:#181818;stroke-width:1.0;"/><text fill="#000000" font-family="Roboto" font-size="13" lengthAdjust="spacing" textLength="59.814" x="3469" y="1138.5605">Depends()</text></g><!--link routers to orchestrator--><g id="link_routers_orchestrator"><path d="M3026.24,1023.89 C2810.21,1054.83 2389.27,1121.4 2255,1187.5 C2219.95,1204.76 2190.7353,1229.1705 2166.2653,1253.1505 " fill="none" id="routers-to-orchestrator" style="stroke:#181818;stroke-width:1.0;"/><polygon fill="#181818" points="2161.98,1257.35,2171.2077,1253.9076,2165.5511,1253.8504,2165.6083,1248.1938,2161.98,1257.35" style="stroke:#181818;stroke-width:1.0;"/></g><!--link routers to validator--><g id="link_routers_validator"><path d="M3091.74,1080.82 C3039.74,1140.43 2973.3443,1216.5687 2934.2443,1261.3887 " fill="none" id="routers-to-validator" style="stroke:#181818;stroke-width:1.0;"/><polygon fill="#181818" points="2930.3,1265.91,2939.2307,1261.7575,2933.5869,1262.1422,2933.2022,1256.4985,2930.3,1265.91" style="stroke:#181818;stroke-width:1.0;"/></g><!--link routers to storybook_dom--><g id="link_routers_storybook_dom"><path d="M3287.56,1025.1 C3406.66,1047.73 3582.81,1094.73 3709,1187.5 C3735.45,1206.95 3756.2229,1229.8022 3774.2329,1252.7222 " fill="none" id="routers-to-storybook_dom" style="stroke:#181818;stroke-width:1.0;"/><polygon fill="#181818" points="3777.94,1257.44,3775.5245,1247.8919,3774.8507,1253.5085,3769.2342,1252.8348,3777.94,1257.44" style="stroke:#181818;stroke-width:1.0;"/></g><!--link routers to player_eng--><g id="link_routers_player_eng"><path d="M3026.42,1056.71 C2950.96,1088.89 2856.02,1134.41 2779,1187.5 C2746.09,1210.18 2717.6258,1237.6442 2695.0658,1261.5742 " fill="none" id="routers-to-player_eng" style="stroke:#181818;stroke-width:1.0;"/><polygon fill="#181818" points="2690.95,1265.94,2700.0343,1262.1352,2694.3799,1262.3019,2694.2132,1256.6475,2690.95,1265.94" style="stroke:#181818;stroke-width:1.0;"/></g><!--link routers to moderation_comp--><g id="link_routers_moderation_comp"><path d="M3026.44,1030 C2898.6,1056.83 2700.75,1107.33 2544,1187.5 C2503.22,1208.36 2466.9286,1237.2085 2439.0486,1261.9385 " fill="none" id="routers-to-moderation_comp" style="stroke:#181818;stroke-width:1.0;"/><polygon fill="#181818" points="2434.56,1265.92,2443.9473,1262.9402,2438.3005,1262.6021,2438.6386,1256.9554,2434.56,1265.92" style="stroke:#181818;stroke-width:1.0;"/></g><!--link routers to publishing_comp--><g id="link_routers_publishing_comp"><path d="M3157,1080.82 C3157,1140.43 3157,1215.09 3157,1259.91 " fill="none" id="routers-to-publishing_comp" style="stroke:#181818;stroke-width:1.0;"/><polygon fill="#181818" points="3157,1265.91,3161,1256.91,3157,1260.91,3153,1256.91,3157,1265.91" style="stroke:#181818;stroke-width:1.0;"/></g><!--link routers to events_comp--><g id="link_routers_events_comp"><path d="M3219.2,1080.82 C3268.76,1140.43 3331.9738,1216.4766 3369.2438,1261.2966 " fill="none" id="routers-to-events_comp" style="stroke:#181818;stroke-width:1.0;"/><polygon fill="#181818" points="3373.08,1265.91,3370.4012,1256.4324,3369.8831,1262.0655,3364.25,1261.5474,3373.08,1265.91" style="stroke:#181818;stroke-width:1.0;"/><text fill="#000000" font-family="Roboto" font-size="13" lengthAdjust="spacing" textLength="109.6685" x="3280.054" y="1131.0605">write PipelineEvent</text><text fill="#000000" font-family="Roboto" font-size="13" lengthAdjust="spacing" textLength="109.7764" x="3280" y="1146.2949">(same transaction)</text></g><!--link backend to postgres--><g id="link_backend_postgres"><path d="M1976.7361,1013.2614 C1976.3622,1013.5912 1975.977,1013.931 1975.5808,1014.2807 C1974.7884,1014.9801 1973.952,1015.7188 1973.0739,1016.495 C1966.0491,1022.7044 1956.3556,1031.31 1945.1863,1041.3275 C1922.8475,1061.3625 1894.605,1087.045 1870,1110.5 C1848.62,1130.88 1844.34,1137.07 1823,1157.5 C1812.85,1167.22 1806.6337,1173.1233 1795.9437,1183.1133 " fill="none" id="backend-to-postgres" style="stroke:#181818;stroke-width:1.0;"/><polygon fill="#181818" points="1791.56,1187.21,1800.8667,1183.9875,1795.2131,1183.7961,1795.4045,1178.1425,1791.56,1187.21" style="stroke:#181818;stroke-width:1.0;"/><text fill="#000000" font-family="Roboto" font-size="13" lengthAdjust="spacing" textLength="121.3862" x="1871" y="1131.0605">async SQLAlchemy 2</text><text fill="#000000" font-family="Roboto" font-size="13" lengthAdjust="spacing" textLength="120.1865" x="1871.5999" y="1146.2949">session pooler :5432</text></g><!--link backend to redis--><g id="link_backend_redis"><path d="M1976.5046,1006.5986 C1976.2419,1006.6176 1975.9735,1006.6371 1975.6993,1006.657 C1974.6027,1006.7368 1973.4146,1006.8239 1972.138,1006.9186 C1969.585,1007.1078 1966.6781,1007.327 1963.4412,1007.5766 C1950.4936,1008.575 1932.266,1010.0596 1910.282,1012.0611 C1866.3141,1016.0641 1807.3206,1022.1344 1745.4913,1030.5163 C1621.8325,1047.28 1486.83,1073.29 1438,1110.5 C1412.4,1130.01 1380.1924,1206.4194 1361.2224,1255.7794 " fill="none" id="backend-to-redis" style="stroke:#181818;stroke-width:1.0;"/><polygon fill="#181818" points="1359.07,1261.38,1366.0324,1254.414,1360.8637,1256.7128,1358.5649,1251.5441,1359.07,1261.38" style="stroke:#181818;stroke-width:1.0;"/><text fill="#000000" font-family="Roboto" font-size="13" lengthAdjust="spacing" textLength="70.6304" x="1456.9163" y="1131.0605">enqueue job</text><text fill="#000000" font-family="Roboto" font-size="13" lengthAdjust="spacing" textLength="106.4629" x="1439" y="1146.2949">(BackgroundTask)</text></g><!--link worker to redis--><g id="link_worker_redis"><path d="M1074.73,1039.53 C1098.78,1077.91 1137.5,1138.01 1156,1157.5 C1194.15,1197.68 1239.6367,1231.6283 1278.8267,1257.9083 " fill="none" id="worker-to-redis" style="stroke:#181818;stroke-width:1.0;"/><polygon fill="#181818" points="1283.81,1261.25,1278.5629,1252.9153,1279.6573,1258.4653,1274.1073,1259.5597,1283.81,1261.25" style="stroke:#181818;stroke-width:1.0;"/><text fill="#000000" font-family="Roboto" font-size="13" lengthAdjust="spacing" textLength="70.7827" x="1157" y="1138.5605">dequeue job</text></g><!--link worker to orchestrator--><g id="link_worker_orchestrator"><path d="M1130.65,1006.04 C1233.67,1009.49 1418.97,1027.91 1550,1110.5 C1572.26,1124.53 1563.15,1144.45 1586,1157.5 C1682.42,1212.55 1726.29,1160.56 1834,1187.5 C1902.12,1204.54 1970.3797,1230.9359 2026.3397,1255.0459 " fill="none" id="worker-to-orchestrator" style="stroke:#181818;stroke-width:1.0;"/><polygon fill="#181818" points="2031.85,1257.42,2025.1672,1250.1853,2027.2581,1255.4416,2022.0018,1257.5324,2031.85,1257.42" style="stroke:#181818;stroke-width:1.0;"/><text fill="#000000" font-family="Roboto" font-size="13" lengthAdjust="spacing" textLength="94.6626" x="1587" y="1131.0605">generate_story()</text><text fill="#000000" font-family="Roboto" font-size="13" lengthAdjust="spacing" textLength="92.9805" x="1587.8411" y="1146.2949">or fill_skeleton()</text></g><!--link worker to moderation_comp--><g id="link_worker_moderation_comp"><path d="M1130.69,1011.16 C1278.21,1022.28 1594.97,1052.35 1686,1110.5 C1707.3,1124.1 1696,1145.06 1718,1157.5 C1821.85,1216.2 2142.22,1145.83 2254,1187.5 C2298.41,1204.05 2335.9448,1235.0905 2363.1648,1261.6405 " fill="none" id="worker-to-moderation_comp" style="stroke:#181818;stroke-width:1.0;"/><polygon fill="#181818" points="2367.46,1265.83,2363.8102,1256.6824,2363.8807,1262.3388,2358.2243,1262.4093,2367.46,1265.83" style="stroke:#181818;stroke-width:1.0;"/><text fill="#000000" font-family="Roboto" font-size="13" lengthAdjust="spacing" textLength="95.4307" x="1719" y="1138.5605">post-gate review</text></g><!--link worker to openrouter--><g id="link_worker_openrouter"><path d="M977.5,1019.2 C923.81,1032.67 855.05,1059.22 817,1110.5 C781.06,1158.95 783.9072,1228.4187 788.9472,1267.7387 " fill="none" id="worker-to-openrouter" style="stroke:#181818;stroke-width:1.0;"/><polygon fill="#181818" points="789.71,1273.69,792.5333,1264.2545,789.0743,1268.7306,784.5982,1265.2716,789.71,1273.69" style="stroke:#181818;stroke-width:1.0;"/><text fill="#000000" font-family="Roboto" font-size="13" lengthAdjust="spacing" textLength="113.731" x="818" y="1131.0605">provider.complete()</text><text fill="#000000" font-family="Roboto" font-size="13" lengthAdjust="spacing" textLength="99.8042" x="824.9634" y="1146.2949">(default provider)</text></g><!--link worker to extra_providers--><g id="link_worker_extra_providers"><path d="M1004.16,1039.65 C981.9,1057.74 958.02,1082.15 946,1110.5 C923,1164.75 958.8498,1223.4606 989.5498,1261.3006 " fill="none" id="worker-to-extra_providers" style="stroke:#181818;stroke-width:1.0;stroke-dasharray:7.0,7.0;"/><polygon fill="#181818" points="993.33,1265.96,990.7659,1256.4508,990.1798,1262.0772,984.5534,1261.4911,993.33,1265.96" style="stroke:#181818;stroke-width:1.0;"/><text fill="#000000" font-family="Roboto" font-size="13" lengthAdjust="spacing" textLength="113.731" x="974.498" y="1131.0605">provider.complete()</text><text fill="#000000" font-family="Roboto" font-size="13" lengthAdjust="spacing" textLength="168.7271" x="947" y="1146.2949">(admin-selected job override)</text></g><!--link worker to ollama--><g id="link_worker_ollama"><path d="M977.33,1012.99 C782.43,1032.01 273.94,1089.95 139,1187.5 C108.47,1209.57 89.2098,1242.744 77.2398,1268.364 " fill="none" id="worker-to-ollama" style="stroke:#181818;stroke-width:1.0;stroke-dasharray:7.0,7.0;"/><polygon fill="#181818" points="74.7,1273.8,82.1336,1267.3392,76.8165,1269.27,74.8857,1263.9529,74.7,1273.8" style="stroke:#181818;stroke-width:1.0;"/><text fill="#000000" font-family="Roboto" font-size="13" lengthAdjust="spacing" textLength="45.6777" x="343" y="1138.5605">fallback</text></g><!--link worker to postgres--><g id="link_worker_postgres"><path d="M1125.36,1039.71 C1159.69,1057.89 1200.19,1082.37 1232,1110.5 C1251.71,1127.93 1245.36,1144.09 1268,1157.5 C1343.44,1202.2 1379.94,1159.39 1463,1187.5 C1481.73,1193.84 1495.3379,1199.2509 1513.8679,1208.0309 " fill="none" id="worker-to-postgres" style="stroke:#181818;stroke-width:1.0;"/><polygon fill="#181818" points="1519.29,1210.6,1512.8696,1203.1315,1514.7716,1208.459,1509.444,1210.361,1519.29,1210.6" style="stroke:#181818;stroke-width:1.0;"/><text fill="#000000" font-family="Roboto" font-size="13" lengthAdjust="spacing" textLength="128.4321" x="1269" y="1131.0605">update GenerationJob</text><text fill="#000000" font-family="Roboto" font-size="13" lengthAdjust="spacing" textLength="120.1865" x="1273.1228" y="1146.2949">session pooler :5432</text></g><!--link worker to minio--><g id="link_worker_minio"><path d="M977.36,1016.6 C851.78,1036.27 597,1086 405,1187.5 C366.44,1207.89 333.3004,1236.7253 308.0404,1261.6553 " fill="none" id="worker-to-minio" style="stroke:#181818;stroke-width:1.0;stroke-dasharray:7.0,7.0;"/><polygon fill="#181818" points="303.77,1265.87,312.9854,1262.395,307.3287,1262.3578,307.3659,1256.7011,303.77,1265.87" style="stroke:#181818;stroke-width:1.0;"/><text fill="#000000" font-family="Roboto" font-size="13" lengthAdjust="spacing" textLength="102.8003" x="576" y="1131.0605">[planned Phase 5]</text><text fill="#000000" font-family="Roboto" font-size="13" lengthAdjust="spacing" textLength="79.7583" x="587.521" y="1146.2949">blob_ref store</text></g><!--link backend to supabase_auth--><g id="link_backend_supabase_auth"><path d="M3914.5023,1116.4363 C3914.7135,1116.5973 3914.9241,1116.759 3915.1343,1116.9213 C3915.5546,1117.2459 3915.9729,1117.5731 3916.3891,1117.9029 C3919.7187,1120.5409 3922.9165,1123.3421 3925.9875,1126.2849 C3932.1296,1132.1705 3937.7645,1138.6222 3942.9322,1145.4669 C3953.2675,1159.1563 3961.7338,1174.4175 3968.65,1189.865 C3982.4825,1220.76 3989.0116,1246.5023 3992.9966,1267.8023 " fill="none" id="backend-to-supabase_auth" style="stroke:#181818;stroke-width:1.0;"/><polygon fill="#181818" points="3994.1,1273.7,3996.3767,1264.1179,3993.1805,1268.7853,3988.5131,1265.5891,3994.1,1273.7" style="stroke:#181818;stroke-width:1.0;"/><text fill="#000000" font-family="Roboto" font-size="13" lengthAdjust="spacing" textLength="88.7974" x="4003.4028" y="1123.5605">OIDC validation</text><text fill="#000000" font-family="Roboto" font-size="13" lengthAdjust="spacing" textLength="171.0122" x="3962.2954" y="1138.7949">[local: token-as-subject seam;</text><text fill="#000000" font-family="Roboto" font-size="13" lengthAdjust="spacing" textLength="195.603" x="3950" y="1154.0293">non-local: verified Supabase JWT]</text></g><!--SRC=[fLXjRngv5lxEhpXAFvGeJ0X9SzjcjPK8BrKgMbX8stiL8cHc3BWPx5bx84LNzx_Vn_RCC4F9xeSbIZBOvyK-FkSvZ-Sr_VuFFhNNr7b30xxbCLrIG1qbKoOarzGLRAdPsWhyPqZjQCjbkj7yXi9Sn12J4QKhBZG9cNBDmbGeQMgleJHH6nroMeYOcnjy9p8wR8OxDMEvgIPBalDaH_jFlSzCsXxT4MReMMWXbwSlweecbJzrhJPOWtb9OScnP6ONs7nM-ebhvxe-_eFyrvVqGeK_4KlPd1bkTUhCx6H8apy6xJXSyVNEQouqui9br7GcOW7rwWBXB5i3ZsYOS6atwWMFM52BHOmWDwslyzJa5h9X-dF3DzohHIeqpIHcKY9SpPI7gy0aF3nVHqUcMQJjRt1nSHbutq7opFvEzasmKciUitcm4DgaGSIJMEtMqFuxpVU1sIGkT05cquNIQwXGVPADql2kso4DUopaXjeRf9DCnTDlpYhiyb0Od1cIytSgb4RAf4iDUMPi_f5AigDbCUL7TImukXKiMOADAuEZjIkIRZNtp3nHw_pjpH4NuIPLMvyU_wZGQkP9o8IXfB2f1Tl4QH_7_OMjEPsCrLobwgGaCcVXqn8PBQEEYfMcL_ss_Ib9P9FQrkgxidNDmvJ9PSpflpMYMwKZhZCZr-w3KUiw6xjqdzh_QZMKBmPEEYiHHpJc37edDiAX6tZLk-fVzhkvrCSDqv5WqaaiioyGUjU_xhtFXThHMiYfh2zZDSVH6BRWwIuxBQKRKnbgPKomO6iHxnhKxewHCjUdpYQpkZ3OxRtj_wk6w0T1GAFlRVk_jj_ZYHqgK6ig7x3mCANM-mRTxn8-2RL8qWPz4ob_dCe9rrjK7yoR50aJuidmr3Y7g8Dyaovo9Hy-6FJrRYehHQhTUDEf-sTwrUtsUlr-LNyWvfhftQy6B8evxTXBp3RYk8LHp7PsUnNjn0qsf_9-GdpBuesDAftHloVO7ASrmyb9xZVdH5yqFynWPN34Iuv4Ktad8_wJHzrR-7ZMYAY78USW1wQZvZyMk6Snh-Dmvy1BZfWFjr_l1bqQVhqVVRr_T4Bh0YsDnLj6My5enNS1ekVJZykPryS1NjWVcyu-OsvHIF1nc3LveyccaJUZNRe2pboTjouRb4qtQBIBcBI9iht4Odxj3ix_FFEHPVzXzbW_Oz-SgDwwFftA5MTnkchafzvmoGE0Qj2-Iw4w4grS_soGgn1Xd-oaNE81cIkMqcAmWIWQfbP80Nh8QisLpsC3tHhWPINMAieipz8LW6sbuiZGGoPNcO-OMSqLIheqRSqBICnO7AldM9YqcAGrXu11xkrccYCbJ5PHMKUcLvrEhzVf74G5K4yJpjPsyQA9bcBGNQToXAuVYWHRQFfjx_2WLUpJZ5cje_OcrlzSgIVggZMpi6FoaQRTM-pDxmUBYZaO1x-9X8q3nayyL6HJimYvUDIvBq_goILg0C7oXSdTLsT-l44M0Uedo5-RJuQsBQedIA7JSdr2uxY3RomMaIllZwYZgTpctvjBV7Sk1gspaOf5k3iRN9wD1sUJThz7pgm_ZKBbk8UFHURHKAFEJEf0UYfBn4cL9fpFXKsasLu2ZJrbIqxjuCDjyA63L8SxyyHZdYAlaCmnrUtVMJxcTr-sUtnrduliB6TgCn49ZtsC6xHFQxysf6iiKfkJMy6VdGY81XCwFzXIoeTgdRnmj9iviXr0kiIv5izDsp_uB8DOvy-N8AVW0sLoPC-6wfMsjZVnLpwpRL7FuWmD57np-sYQ3dSTTttuFWcwZyulm2TG4fKIYmKFTo5ii0sIs7dqYd_XxRE8efW_CusyMXVFblXgSBwi4YfJXeSRh6DN1BAOAZmK05pAg- -EQ1z2yIy2jeddh9mGKn13yrZ9muB0E- -PvAj-lty5wC_yTi43NUc2mrcFEIy4KXnoF3Zyp2JoDgBkRKv3tfUufsCEnZqd2b2awURwpTKbrKqsQZC9oTvwJyFnPu8ZU-kPodv6R40x77X_DLmto16iaSTs06S1N93B7x-XQ7qF6FlEu3ewL768g1ixHMFN2Se6saLBi98ov60-sVJOutA3zeLqdvTB_Qnja-KKillP2K-TUSfpqQLYm-ApRmHMD6xdpQ1aOt-UdzJSvtpEfT6T-s_1Oak7CUQHi0S0MPfhXOD4i77yZbaGxWkbbaW_r3phB5QhQFQrIZBBko7i3US_CEWI00VRi9oR8vyZ6gsit-l7KjneZfvf7AsON5cAaYMr56hlmsTLxoUgprup1eFFvZ2JBKtnZTxo2ItMblD1i94pVWgP2K4J7ptgGTotIEJkLU-wVrqsrfR0CvM0UZJjeR4ODXsV3WoWCtGvHc3I0OAoRyyKSqiE00qT6erRtX7_2MYTvIBccBTX7BCrWuk12h6x1RgyPJNPGjsaBR3URQzNLYjAoNPp6tNSvee2yihv_M_cMtUU0JwSumnW08Y93wU_R0G0KK-eQyNTmexjQNBDtm-gWtH39nxjmL0pF2wrTj2lyeNZzAIMaNPhfM38jJrNjkCviONfsCN68J-kBe1-Vb8hSK-tw8poG7hSczoJO_ZR5kv0jnpmg2b5YgFhrNApv-SVolmLUZxptPKOg5jty3qJ4U7irea2OGxToZD7rgcBB3Ixt7O2Kp-OBdVNoaJ122gZ5RfJcTcJbChmGHkjgbJRNMMkt9YmUd-ZgC0Djc_i1HbhbyQ_NSBUvWMb_x275XWuV2z3bpZx8x1TjU2X1EfS-iYxUghV5XTm-t80Nf_pvbLIYNYXKX6ey1d8vUzzPYwsTK-BAZoeNlLmo4nWm-uqS8J2PtZLuHvAh6XMwUUXRnVSUgpd69JFxZtQ73p4Y1VDi1860KwnTR9N30t9giKCDM0eHvFAaiidjqaYkx5AvtZfx4eUF493_y6zuQc0kuLqCB-5fm3L8wz24lJTIwYi6Xp5V72bVkEhDM0cC9kid-32yjjKIYM3J0Hx5mi1tmKMVlf-_tXIgqdKAirLckBIe1Qb8WVx6lFzgq1tmrsbQNBJR3gRAqJcvjt5nKNJ7Yi0vFo7KH9QQ50t99CrwOtCso8F2gDVK52QLWna40cQ-dUl190yTj6ksM3O9MOBrMAvIkqwNL1XpOUoTUEQeuyYC4ZQsiGiZcMF4rlFLiwTPFtJPFZbzlGSGiKPX2hUh2KIr_ZtBsZhc7QjcfGFx1FVKJqxFYWNg_i_]--></g></svg>
