<svg xmlns="http://www.w3.org/2000/svg" xmlns:xlink="http://www.w3.org/1999/xlink" contentStyleType="text/css" height="814px" preserveAspectRatio="none" style="width:2338px;height:814px;background:#FAFAFA;" version="1.1" viewBox="0 0 2338 814" width="2338px" zoomAndPan="magnify"><defs><style type="text/css">@import url('https://fonts.googleapis.com/css?family=Roboto:400,100,100italic,300,300italic,400italic,500,500italic,700,700italic,900,900italic');</style></defs><g><rect fill="#FAFAFA" height="814" style="stroke:none;stroke-width:1.0;" width="2338" x="0" y="0"/><!--cluster system--><g id="cluster_system"><rect fill="#FFF3E0" height="314" rx="4" ry="4" style="stroke:#555555;stroke-width:1.0;" width="260" x="1295.5" y="192.5"/><text fill="#222222" font-family="Roboto" font-size="14" font-weight="bold" lengthAdjust="spacing" textLength="146.7949" x="1352.1025" y="207.4883">CYO Adventure System</text><text fill="#222222" font-family="Roboto" font-size="14" font-weight="bold" lengthAdjust="spacing" textLength="244.5352" x="1303.2324" y="223.8945">[Homelab, Docker, Pangolin zero-trust]</text></g><!--entity pwa--><g id="elem_pwa"><rect fill="#E3F2FD" height="69.2188" rx="4" ry="4" style="stroke:#555555;stroke-width:0.5;" width="189.8936" x="1337.5" y="243.5"/><text fill="#222222" font-family="Roboto" font-size="14" lengthAdjust="spacing" textLength="77.5879" x="1347.5" y="266.4883">PWA Reader</text><text fill="#222222" font-family="Roboto" font-size="14" lengthAdjust="spacing" textLength="134.9277" x="1347.5" y="282.8945">[React 19, TypeScript]</text><text fill="#222222" font-family="Roboto" font-size="14" lengthAdjust="spacing" textLength="169.8936" x="1347.5" y="299.3008">Play stories, offline support</text></g><!--entity backend--><g id="elem_backend"><rect fill="#E8F5E9" height="85.625" rx="4" ry="4" style="stroke:#555555;stroke-width:0.5;" width="225.8164" x="1312.5" y="404.5"/><text fill="#222222" font-family="Roboto" font-size="14" lengthAdjust="spacing" textLength="106.2168" x="1322.5" y="427.4883">FastAPI Backend</text><text fill="#222222" font-family="Roboto" font-size="14" lengthAdjust="spacing" textLength="81.6553" x="1322.5" y="443.8945">[Python 3.14]</text><text fill="#222222" font-family="Roboto" font-size="14" lengthAdjust="spacing" textLength="205.8164" x="1322.5" y="460.3008">Library, generation, reading state,</text><text fill="#222222" font-family="Roboto" font-size="14" lengthAdjust="spacing" textLength="98.3555" x="1322.5" y="476.707">guardian review</text></g><!--entity child--><g id="elem_child"><ellipse cx="1302.3647" cy="22" fill="#E3F2FD" rx="8" ry="8" style="stroke:#555555;stroke-width:0.5;"/><path d="M1302.3647,30 L1302.3647,57 M1289.3647,38 L1315.3647,38 M1302.3647,57 L1289.3647,72 M1302.3647,57 L1315.3647,72 " fill="none" style="stroke:#555555;stroke-width:0.5;"/><text fill="#222222" font-family="Roboto" font-size="14" lengthAdjust="spacing" textLength="78.7295" x="1263" y="86.4883">Child Reader</text><text fill="#222222" font-family="Roboto" font-size="14" lengthAdjust="spacing" textLength="71.4561" x="1263" y="102.8945">(age 3-16+)</text></g><!--entity guardian--><g id="elem_guardian"><ellipse cx="1432.4258" cy="22" fill="#E8F5E9" rx="8" ry="8" style="stroke:#555555;stroke-width:0.5;"/><path d="M1432.4258,30 L1432.4258,57 M1419.4258,38 L1445.4258,38 M1432.4258,57 L1419.4258,72 M1432.4258,57 L1445.4258,72 " fill="none" style="stroke:#555555;stroke-width:0.5;"/><text fill="#222222" font-family="Roboto" font-size="14" lengthAdjust="spacing" textLength="110.8516" x="1377" y="86.4883">Guardian / Author</text><text fill="#222222" font-family="Roboto" font-size="14" lengthAdjust="spacing" textLength="101.1514" x="1377" y="102.8945">(parent or carer)</text></g><!--entity admin--><g id="elem_admin"><ellipse cx="1643.4482" cy="14" fill="#EDE7F6" rx="8" ry="8" style="stroke:#555555;stroke-width:0.5;"/><path d="M1643.4482,22 L1643.4482,49 M1630.4482,30 L1656.4482,30 M1643.4482,49 L1630.4482,64 M1643.4482,49 L1656.4482,64 " fill="none" style="stroke:#555555;stroke-width:0.5;"/><text fill="#222222" font-family="Roboto" font-size="14" lengthAdjust="spacing" textLength="40.4414" x="1571.5" y="78.4883">Admin</text><text fill="#222222" font-family="Roboto" font-size="14" lengthAdjust="spacing" textLength="143.8965" x="1571.5" y="94.8945">(global safety operator,</text><text fill="#222222" font-family="Roboto" font-size="14" lengthAdjust="spacing" textLength="142.0918" x="1571.5" y="111.3008">cross-family, ADR-005)</text></g><!--entity openrouter--><g id="elem_openrouter"><rect fill="#F3E5F5" height="69.2188" rx="4" ry="4" style="stroke:#555555;stroke-width:0.5;" width="175.1416" x="7" y="661.5"/><text fill="#222222" font-family="Roboto" font-size="14" lengthAdjust="spacing" textLength="73.7256" x="17" y="684.4883">OpenRouter</text><text fill="#222222" font-family="Roboto" font-size="14" lengthAdjust="spacing" textLength="140.752" x="17" y="700.8945">[Primary LLM provider]</text><text fill="#222222" font-family="Roboto" font-size="14" lengthAdjust="spacing" textLength="155.1416" x="17" y="717.3008">Multi-model API gateway</text></g><!--entity extra_providers--><g id="elem_extra_providers"><rect fill="#F3E5F5" height="69.2188" rx="4" ry="4" style="stroke:#555555;stroke-width:0.5;" width="226.7803" x="1088" y="661.5"/><text fill="#222222" font-family="Roboto" font-size="14" lengthAdjust="spacing" textLength="112.3213" x="1098" y="684.4883">Anthropic / Modal</text><text fill="#222222" font-family="Roboto" font-size="14" lengthAdjust="spacing" textLength="206.7803" x="1098" y="700.8945">[Admin-selectable LLM providers,</text><text fill="#222222" font-family="Roboto" font-size="14" lengthAdjust="spacing" textLength="166.667" x="1098" y="717.3008">WS-C PR1 per-job override]</text></g><!--entity ollama--><g id="elem_ollama"><rect fill="#FFEBEE" height="69.2188" rx="4" ry="4" style="stroke:#555555;stroke-width:0.5;" width="151.2021" x="1350" y="661.5"/><text fill="#222222" font-family="Roboto" font-size="14" lengthAdjust="spacing" textLength="43.9482" x="1360" y="684.4883">Ollama</text><text fill="#222222" font-family="Roboto" font-size="14" lengthAdjust="spacing" textLength="124.7354" x="1360" y="700.8945">[Local fallback LLM]</text><text fill="#222222" font-family="Roboto" font-size="14" lengthAdjust="spacing" textLength="131.2021" x="1360" y="717.3008">Self-hosted, homelab</text></g><!--entity supabase_auth--><g id="elem_supabase_auth"><rect fill="#E0F7FA" height="69.2188" rx="4" ry="4" style="stroke:#555555;stroke-width:0.5;" width="273.5654" x="472.5" y="661.5"/><text fill="#222222" font-family="Roboto" font-size="14" lengthAdjust="spacing" textLength="106.5107" x="482.5" y="684.4883">Supabase (OIDC)</text><text fill="#222222" font-family="Roboto" font-size="14" lengthAdjust="spacing" textLength="214.3408" x="482.5" y="700.8945">[Managed auth platform, ADR-009]</text><text fill="#222222" font-family="Roboto" font-size="14" lengthAdjust="spacing" textLength="253.5654" x="482.5" y="717.3008">Guardian + admin sign-in (Apple/Google)</text></g><!--entity postgres--><g id="elem_postgres"><rect fill="#E0F7FA" height="102.0313" rx="4" ry="4" style="stroke:#555555;stroke-width:0.5;" width="250.9316" x="1536" y="645"/><text fill="#222222" font-family="Roboto" font-size="14" lengthAdjust="spacing" textLength="120.9824" x="1546" y="667.9883">Supabase Postgres</text><text fill="#222222" font-family="Roboto" font-size="14" lengthAdjust="spacing" textLength="199.958" x="1546" y="684.3945">[Managed operational database,</text><text fill="#222222" font-family="Roboto" font-size="14" lengthAdjust="spacing" textLength="125.3438" x="1546" y="700.8008">ADR-009 decision 2]</text><text fill="#222222" font-family="Roboto" font-size="14" lengthAdjust="spacing" textLength="230.9316" x="1546" y="717.207">Session pooler :5432 (session mode)</text><text fill="#222222" font-family="Roboto" font-size="14" lengthAdjust="spacing" textLength="171.3086" x="1546" y="733.6133">Metadata and reading state</text></g><!--entity redis--><g id="elem_redis"><rect fill="#E0E0E0" height="69.2188" rx="4" ry="4" style="stroke:#555555;stroke-width:0.5;" width="157.9082" x="1822.5" y="661.5"/><text fill="#222222" font-family="Roboto" font-size="14" lengthAdjust="spacing" textLength="67.7236" x="1832.5" y="684.4883">Redis + RQ</text><text fill="#222222" font-family="Roboto" font-size="14" lengthAdjust="spacing" textLength="72.707" x="1832.5" y="700.8945">[Job queue]</text><text fill="#222222" font-family="Roboto" font-size="14" lengthAdjust="spacing" textLength="137.9082" x="1832.5" y="717.3008">Async generation jobs</text></g><g id="elem_GMN24"><path d="M1573.5,416 L1573.5,478.9375 A4,4 0 0 0 1577.5,482.9375 L1841.4165,482.9375 A4,4 0 0 0 1845.4165,478.9375 L1845.4165,422 L1835.4165,412 L1577.5,412 A4,4 0 0 0 1573.5,416 " fill="#FEFFDD" style="stroke:#181818;stroke-width:0.5;"/><path d="M1835.4165,412 L1835.4165,420 A2,2 0 0 0 1837.4165,422 L1845.4165,422 L1835.4165,412 " fill="#FEFFDD" style="stroke:#181818;stroke-width:1.0;"/><text fill="#000000" font-family="Roboto" font-size="13" lengthAdjust="spacing" textLength="131.46" x="1579.5" y="429.0605">Generated API client in</text><text fill="#000000" font-family="Roboto" font-size="13" lengthAdjust="spacing" textLength="193.7686" x="1579.5" y="444.2949">frontend/src/client/ (build output,</text><text fill="#000000" font-family="Roboto" font-size="13" lengthAdjust="spacing" textLength="236.2598" x="1579.5" y="459.5293">not hand-written) from OpenAPI schema.</text><text fill="#000000" font-family="Roboto" font-size="13" lengthAdjust="spacing" textLength="250.9165" x="1579.5" y="474.7637">Service worker + IndexedDB for offline play.</text></g><g id="elem_GMN27"><path d="M217.5,641.5 L217.5,692 L182.33,696 L217.5,700 L217.5,750.1406 A4,4 0 0 0 221.5,754.1406 L433.3657,754.1406 A4,4 0 0 0 437.3657,750.1406 L437.3657,647.5 L427.3657,637.5 L221.5,637.5 A4,4 0 0 0 217.5,641.5 " fill="#FEFFDD" style="stroke:#181818;stroke-width:0.5;"/><path d="M427.3657,637.5 L427.3657,645.5 A2,2 0 0 0 429.3657,647.5 L437.3657,647.5 L427.3657,637.5 " fill="#FEFFDD" style="stroke:#181818;stroke-width:0.5;"/><text fill="#000000" font-family="Roboto" font-size="13" lengthAdjust="spacing" textLength="198.8657" x="223.5" y="654.5605">Provider fallback cascade (3 legs):</text><text fill="#000000" font-family="Roboto" font-size="13" lengthAdjust="spacing" textLength="172.542" x="223.5" y="669.7949">OpenRouter haiku (primary) -&gt;</text><text fill="#000000" font-family="Roboto" font-size="13" lengthAdjust="spacing" textLength="182.8062" x="223.5" y="685.0293">OpenRouter sonnet (fallback) -&gt;</text><text fill="#000000" font-family="Roboto" font-size="13" lengthAdjust="spacing" textLength="129.5239" x="223.5" y="700.2637">Ollama (local fallback)</text><text fill="#000000" font-family="Roboto" font-size="13" lengthAdjust="spacing" textLength="144.2759" x="223.5" y="715.498">Layer 1: per-adapter retry</text><text fill="#000000" font-family="Roboto" font-size="13" lengthAdjust="spacing" textLength="196.79" x="223.5" y="730.7324">Layer 2: FallbackProvider cascade</text><text fill="#000000" font-family="Roboto" font-size="13" lengthAdjust="spacing" textLength="184.5898" x="223.5" y="745.9668">Layer 3: orchestrator repair loop</text></g><g id="elem_GMN30"><path d="M2016,619 L2016,773.3438 A4,4 0 0 0 2020,777.3438 L2327.252,777.3438 A4,4 0 0 0 2331.252,773.3438 L2331.252,625 L2321.252,615 L2020,615 A4,4 0 0 0 2016,619 " fill="#FEFFDD" style="stroke:#181818;stroke-width:0.5;"/><path d="M2321.252,615 L2321.252,623 A2,2 0 0 0 2323.252,625 L2331.252,625 L2321.252,615 " fill="#FEFFDD" style="stroke:#181818;stroke-width:1.0;"/><text fill="#000000" font-family="Roboto" font-size="13" lengthAdjust="spacing" textLength="284.4385" x="2022" y="632.0605">Mandatory human approval (ADR-005, amended):</text><text fill="#000000" font-family="Roboto" font-size="13" lengthAdjust="spacing" textLength="223.5327" x="2022" y="647.2949">no story reaches a child profile without</text><text fill="#000000" font-family="Roboto" font-size="13" lengthAdjust="spacing" textLength="277.1006" x="2022" y="662.5293">a recorded admin approval (global, cross-family;</text><text fill="#000000" font-family="Roboto" font-size="13" lengthAdjust="spacing" textLength="294.252" x="2022" y="677.7637">guardians author and submit, they do not approve).</text><text fill="#000000" font-family="Roboto" font-size="13" lengthAdjust="spacing" textLength="139.3945" x="2022" y="692.998">Two separate lifecycles:</text><text fill="#000000" font-family="Roboto" font-size="13" lengthAdjust="spacing" textLength="215.249" x="2022" y="708.2324">- GenerationJob: queued -&gt; running -&gt;</text><text fill="#000000" font-family="Roboto" font-size="13" lengthAdjust="spacing" textLength="171.6914" x="2028.4492" y="723.4668">passed | needs_review | failed</text><text fill="#000000" font-family="Roboto" font-size="13" lengthAdjust="spacing" textLength="183.5107" x="2022" y="738.7012">- Storybook: draft -&gt; in_review -&gt;</text><text fill="#000000" font-family="Roboto" font-size="13" lengthAdjust="spacing" textLength="210.647" x="2028.4492" y="753.9355">needs_revision | published | archived</text><text fill="#000000" font-family="Roboto" font-size="13" lengthAdjust="spacing" textLength="251.4497" x="2022" y="769.1699">("approved" is an action, not a resting state)</text></g><g id="elem_GMN33"><path d="M782,588.5 L782,692 L746.66,696 L782,700 L782,803.7813 A4,4 0 0 0 786,807.7813 L1048.6279,807.7813 A4,4 0 0 0 1052.6279,803.7813 L1052.6279,594.5 L1042.6279,584.5 L786,584.5 A4,4 0 0 0 782,588.5 " fill="#FEFFDD" style="stroke:#181818;stroke-width:0.5;"/><path d="M1042.6279,584.5 L1042.6279,592.5 A2,2 0 0 0 1044.6279,594.5 L1052.6279,594.5 L1042.6279,584.5 " fill="#FEFFDD" style="stroke:#181818;stroke-width:0.5;"/><text fill="#000000" font-family="Roboto" font-size="13" lengthAdjust="spacing" textLength="191.9849" x="788" y="601.5605">ADR-014: three token types, three</text><text fill="#000000" font-family="Roboto" font-size="13" lengthAdjust="spacing" textLength="133.7451" x="788" y="616.7949">lifetimes, three scopes:</text><text fill="#000000" font-family="Roboto" font-size="13" lengthAdjust="spacing" textLength="228.6489" x="788" y="632.0293">- Supabase JWT: "a grown-up is present</text><text fill="#000000" font-family="Roboto" font-size="13" lengthAdjust="spacing" textLength="196.8535" x="794.4492" y="647.2637">now" (short, RS256/ES256, JWKS)</text><text fill="#000000" font-family="Roboto" font-size="13" lengthAdjust="spacing" textLength="200.3955" x="788" y="662.498">- Device grant (new): "this device is</text><text fill="#000000" font-family="Roboto" font-size="13" lengthAdjust="spacing" textLength="200.5859" x="794.4492" y="677.7324">authorized for the family" (90 days,</text><text fill="#000000" font-family="Roboto" font-size="13" lengthAdjust="spacing" textLength="231.1816" x="794.4492" y="692.9668">revocable, HS256, aud cyo-device-grant)</text><text fill="#000000" font-family="Roboto" font-size="13" lengthAdjust="spacing" textLength="169.0889" x="788" y="708.2012">- Child session: "this profile is</text><text fill="#000000" font-family="Roboto" font-size="13" lengthAdjust="spacing" textLength="190.7598" x="794.4492" y="723.4355">reading" (12h, no refresh, HS256)</text><text fill="#000000" font-family="Roboto" font-size="13" lengthAdjust="spacing" textLength="249.6279" x="788" y="738.6699">Only the guardian's Supabase JWT touches</text><text fill="#000000" font-family="Roboto" font-size="13" lengthAdjust="spacing" textLength="199.6401" x="788" y="753.9043">this box; the device grant and child</text><text fill="#000000" font-family="Roboto" font-size="13" lengthAdjust="spacing" textLength="233.27" x="788" y="769.1387">session are backend-minted and verified</text><text fill="#000000" font-family="Roboto" font-size="13" lengthAdjust="spacing" textLength="230.166" x="788" y="784.373">locally against their own HS256 secrets,</text><text fill="#000000" font-family="Roboto" font-size="13" lengthAdjust="spacing" textLength="165.4771" x="788" y="799.6074">with no Supabase round-trip.</text></g><!--link child to pwa--><g id="link_child_pwa"><path d="M1310.15,106.64 C1315.17,128.75 1323.16,155.09 1335.5,176.5 C1350.03,201.71 1367.8534,221.2979 1387.3534,239.3179 " fill="none" id="child-to-pwa" style="stroke:#181818;stroke-width:1.0;"/><polygon fill="#181818" points="1391.76,243.39,1387.8649,234.3441,1388.0879,239.9966,1382.4354,240.2195,1391.76,243.39" style="stroke:#181818;stroke-width:1.0;"/><text fill="#000000" font-family="Roboto" font-size="13" lengthAdjust="spacing" textLength="81.3452" x="1338.2393" y="157.5605">Reads stories,</text><text fill="#000000" font-family="Roboto" font-size="13" lengthAdjust="spacing" textLength="84.8237" x="1336.5" y="172.7949">chooses paths</text></g><!--link guardian to pwa--><g id="link_guardian_pwa"><path d="M1430.55,106.93 C1430.12,119.14 1429.72,132.32 1429.5,144.5 C1428.9,178.09 1429.7316,210.4643 1430.7516,237.2443 " fill="none" id="guardian-to-pwa" style="stroke:#181818;stroke-width:1.0;"/><polygon fill="#181818" points="1430.98,243.24,1434.6346,234.0943,1430.7897,238.2436,1426.6404,234.3988,1430.98,243.24" style="stroke:#181818;stroke-width:1.0;"/><text fill="#000000" font-family="Roboto" font-size="13" lengthAdjust="spacing" textLength="104.73" x="1462.9556" y="157.5605">Authors concepts,</text><text fill="#000000" font-family="Roboto" font-size="13" lengthAdjust="spacing" textLength="169.6411" x="1430.5" y="172.7949">submits for review (ADR-005)</text></g><!--link admin to pwa--><g id="link_admin_pwa"><path d="M1633.87,114.7 C1628.05,135.67 1618.87,158.86 1604.5,176.5 C1581.23,205.05 1552.8832,224.491 1521.4932,240.671 " fill="none" id="admin-to-pwa" style="stroke:#181818;stroke-width:1.0;"/><polygon fill="#181818" points="1516.16,243.42,1525.9925,242.852,1520.6043,241.1292,1522.3271,235.741,1516.16,243.42" style="stroke:#181818;stroke-width:1.0;"/><text fill="#000000" font-family="Roboto" font-size="13" lengthAdjust="spacing" textLength="173.5894" x="1639.6931" y="157.5605">Reviews and approves/rejects</text><text fill="#000000" font-family="Roboto" font-size="13" lengthAdjust="spacing" textLength="203.9756" x="1624.5" y="172.7949">storybooks, cross-family (ADR-005)</text></g><!--link pwa to backend--><g id="link_pwa_backend"><path d="M1431.08,312.9 C1429.98,339.28 1428.69,370.0452 1427.51,398.3352 " fill="none" id="pwa-to-backend" style="stroke:#181818;stroke-width:1.0;"/><polygon fill="#181818" points="1427.26,404.33,1431.6316,395.5045,1427.4684,399.3343,1423.6385,395.1711,1427.26,404.33" style="stroke:#181818;stroke-width:1.0;"/><text fill="#000000" font-family="Roboto" font-size="13" lengthAdjust="spacing" textLength="75.9624" x="1450.616" y="355.5605">REST /api/v1</text><text fill="#000000" font-family="Roboto" font-size="13" lengthAdjust="spacing" textLength="114.1943" x="1431.5" y="370.7949">(OIDC bearer token)</text></g><!--link backend to openrouter--><g id="link_backend_openrouter"><path d="M1312.17,451.15 C1046.88,458.92 393.34,487.63 199.5,584.5 C164.7,601.89 138.7918,630.8969 120.0118,656.5769 " fill="none" id="backend-to-openrouter" style="stroke:#181818;stroke-width:1.0;"/><polygon fill="#181818" points="116.47,661.42,125.0114,656.5165,119.4215,657.3841,118.554,651.7941,116.47,661.42" style="stroke:#181818;stroke-width:1.0;"/><text fill="#000000" font-family="Roboto" font-size="13" lengthAdjust="spacing" textLength="100.2676" x="426.9592" y="535.5605">LLM completions</text><text fill="#000000" font-family="Roboto" font-size="13" lengthAdjust="spacing" textLength="109.186" x="422.5" y="550.7949">(primary, ADR-003)</text></g><!--link backend to extra_providers--><g id="link_backend_extra_providers"><path d="M1312.39,477.37 C1288.22,488.12 1264.8,502.73 1247.5,522.5 C1213.32,561.57 1204.5209,617.3703 1202.2909,655.4303 " fill="none" id="backend-to-extra_providers" style="stroke:#181818;stroke-width:1.0;stroke-dasharray:7.0,7.0;"/><polygon fill="#181818" points="1201.94,661.42,1206.4596,652.6694,1202.2325,656.4286,1198.4733,652.2014,1201.94,661.42" style="stroke:#181818;stroke-width:1.0;"/><text fill="#000000" font-family="Roboto" font-size="13" lengthAdjust="spacing" textLength="100.2676" x="1282.7297" y="535.5605">LLM completions</text><text fill="#000000" font-family="Roboto" font-size="13" lengthAdjust="spacing" textLength="168.7271" x="1248.5" y="550.7949">(admin-selected job override)</text></g><!--link backend to ollama--><g id="link_backend_ollama"><path d="M1425.5,490.59 C1425.5,538.86 1425.5,611.01 1425.5,655.39 " fill="none" id="backend-to-ollama" style="stroke:#181818;stroke-width:1.0;stroke-dasharray:7.0,7.0;"/><polygon fill="#181818" points="1425.5,661.39,1429.5,652.39,1425.5,656.39,1421.5,652.39,1425.5,661.39" style="stroke:#181818;stroke-width:1.0;"/><text fill="#000000" font-family="Roboto" font-size="13" lengthAdjust="spacing" textLength="100.2676" x="1426.5" y="535.5605">LLM completions</text><text fill="#000000" font-family="Roboto" font-size="13" lengthAdjust="spacing" textLength="85.4902" x="1433.8887" y="550.7949">(local fallback)</text></g><!--link backend to supabase_auth--><g id="link_backend_supabase_auth"><path d="M1312.45,457.41 C1177.29,471.25 946.54,505.14 764.5,584.5 C720.57,603.65 681.282,632.7101 651.482,657.6401 " fill="none" id="backend-to-supabase_auth" style="stroke:#181818;stroke-width:1.0;"/><polygon fill="#181818" points="646.88,661.49,656.3496,658.7831,650.715,658.2817,651.2164,652.6472,646.88,661.49" style="stroke:#181818;stroke-width:1.0;"/><text fill="#000000" font-family="Roboto" font-size="13" lengthAdjust="spacing" textLength="124.3506" x="940.5" y="535.5605">OIDC token validation</text><text fill="#000000" font-family="Roboto" font-size="13" lengthAdjust="spacing" textLength="99.874" x="952.7383" y="550.7949">(JWKS, ADR-009)</text></g><!--link backend to postgres--><g id="link_backend_postgres"><path d="M1496.07,490.63 C1509.82,500.28 1523.64,511.09 1535.5,522.5 C1573.58,559.14 1605.0812,603.3828 1628.3912,639.8928 " fill="none" id="backend-to-postgres" style="stroke:#181818;stroke-width:1.0;"/><polygon fill="#181818" points="1631.62,644.95,1630.1483,635.2117,1628.9294,640.7357,1623.4054,639.5168,1631.62,644.95" style="stroke:#181818;stroke-width:1.0;"/><text fill="#000000" font-family="Roboto" font-size="13" lengthAdjust="spacing" textLength="122.7954" x="1564.5" y="535.5605">Async SQLAlchemy 2</text><text fill="#000000" font-family="Roboto" font-size="13" lengthAdjust="spacing" textLength="120.1865" x="1565.8044" y="550.7949">session pooler :5432</text></g><!--link backend to redis--><g id="link_backend_redis"><path d="M1495.24,490.52 C1514.17,500.06 1535.09,509 1555.5,514.5 C1615.67,530.73 1635.73,504.85 1695.5,522.5 C1748.95,538.28 1761.3,549.29 1804.5,584.5 C1832.2,607.08 1854.9303,633.2786 1873.1703,656.6686 " fill="none" id="backend-to-redis" style="stroke:#181818;stroke-width:1.0;"/><polygon fill="#181818" points="1876.86,661.4,1874.4798,651.8431,1873.7853,657.4571,1868.1712,656.7626,1876.86,661.4" style="stroke:#181818;stroke-width:1.0;"/><text fill="#000000" font-family="Roboto" font-size="13" lengthAdjust="spacing" textLength="142.8096" x="1765.5" y="543.0605">Enqueue generation jobs</text></g><!--link pwa to GMN24--><g id="link_pwa_GMN24"><path d="M1500.35,312.62 C1518.18,321.91 1537.25,332.27 1554.5,342.5 C1591.01,364.16 1630.74,390.89 1660.84,411.82 " fill="none" id="pwa-GMN24" style="stroke:#181818;stroke-width:1.0;stroke-dasharray:7.0,7.0;"/></g><!--link backend to GMN30--><g id="link_backend_GMN30"><path d="M1494.43,490.66 C1513.54,500.33 1534.76,509.29 1555.5,514.5 C1594.41,524.27 1878.25,510.39 1916.5,522.5 C1976.7,541.56 2035.77,579.46 2082.08,614.9 " fill="none" id="backend-GMN30" style="stroke:#181818;stroke-width:1.0;stroke-dasharray:7.0,7.0;"/></g><!--SRC=[fLXjRnf94lxEhwXpFXWK1eonapNHHY8spilPQw_nALfjLbOpqq2lX-wvxXuJzdB__PxgUV7W44kd9Tg4dQb-kbwVgcAVVluRdzO-dHxHXNoGAGqeekd6URcYKwEz_EhfJ8c55IkM-ksAnic3r3wtSaIdIsESZ7upkOskrZggNv6L8b5wGIBBQ6uitQl4jVQ1C8LiB6ckKkb6-7yYP-D-l35teZhS5vdg9p9plMn3uTE-jah7AXDftvfKqieaCXtH8XSsKK9tALwgDEcII5PATmCgKI8V56vgZyzkeeF14TwMZo8Oept5LYQuK8cqIngcMmYaPg5qf_ECNWkffHLU6StQjIiL8gFJ3OdSBmrKNJo7KBgcCAuTDA_T9NMI6QMzwpph6hRYBbWHVDI6rRwVAkS1_c3kPMqg1Q4VWSK6VpNH0jY7wU7nA_A0WMD5dX0EHKtFTUda8FaHPZBhX-ZKmMjFlR6RcJ7tz9BUrzxxP6QKghcCDp4oeK1BJEpwMIgqXY_w8h7yNtHmS1ojX4u4uqJB7DyZf9Kr3oBjhH9gYnNS9XFaGsfc8er25b0X8ktpqCDeRf7bIjeeJLTH8xghvDc39v7BCp4JI7-yzSZnLL1cMZwbguzdfuWhNiRIqHYPmSbs_wREpbWvt4E7z3FLXwwDymiBUU481yXafJeY9JWW23rhqE2e2bMPYt_994BnHIA66Ywew9VA9aM0oMyoEIfLuWkRQVE67B1HRdpU6_WrJps16R8epsXcSiJ4RdQfOmVGOYujAWnVPZwoSe7ib3RSVolSFGrwhqSxx8vppq6hl0IWXSYYE3KEoSMUvi2GWeCiAkT1ekXZevr95TmZ4rfAkzD1NiRBo6KoBkBwjyYozGyOfxIaZwTNl_phveAMtcTkrEzRiUujb5_cizn96pDxegPYi-fx69hOOT37vwiqKdWRpI41fQpoqlKV3dj7lOEMkrSw4s1RX68kuF1p2Fs25AUz6pCptkmrH6OYlbzO3iIfIS6oByx7_ASXKRwqI6lwgTLy8MClGdJ_qo9wPsmYRGbo73vuobUNpmx3f_NV9eI8KP7_rt58VgTn-33mFaLHH6C6TVorLU3ldGQ6l053Ilj5jyL2qZ0Ql7hPsUCgAVZpnMHuVdX-LXrvNx8ozKFX6Ju7dH4DmkiOtsnnkg9l0FnqVZmvgG36J24uL30AEJ6NVbDMex7TBpgsnhbeBbOgtNGfj9Y3umApe9yNaxF9w_DNbLbbHwsA9jZt68AzhRvQ2d_HltymAvcAMPVEJ7mlRPUk8OzSr_INj2RoDdV-Zt2fA_3PdSF9GGXA0_xwyxXsuE_u4diQd7Jf5iK_ZQtA_1zVz7KgDYXkK8PqNJBpUSef3fBBZFNXZcmjQaTlmPyBvyVN7qDmGSMuute3hsiQzWP7WBvGCmkZk_H8hzswvJcFmeL7wr2WXIcv3ZVE2i0wEdMMJBw2J9WK2xlTKtzUPLBVcDm7Wp4yhDZd5nUNn3r1mG_GwXB5fQBGh8YrNq2FjTY4Yn5fRSDvk7GuEJu_RgAFjLzQawaO-NLf4f7Yaf0naPCfYyqWrRpDmRxFq-YKhcy6X2IA_aJtOvwpU5i447EM5NVrWLtNNgMfM0dSTM5Yc3uNQSeEufjWpbIcysW97cLEN1Q9KzWIZd5gJDvD9at0cdxRtAmwGBuK6lMLX466ghvMvVS9RgahwsMPvqujT8H_s-CiIsN_lJ60BWgXQf1t0Ut5vE3yDRXfr_qL_JSqsDNvuCLIaqRx3AQxy3qp60ujZOwFXeVKTkLJZZ1ikvHUC11XbDXElYAvgmwqGyyRcQ3ZlAIRNw4W3ox_pcKkSV7ORNJSo6f2N5s0i-48iFXFbRKtY0cBkQNAYfGjs2kAteRY6l5L8d5r6O9dmeGDzOHVkhrMNIID8mN3EUw3iSmydtBvRAMy2vDtKKxb6CmSrIe2jtKfYxZWcN9iSfWa_uG7419NpM-WXIRjDI4PY06hWcNGoVIMmhpwC02JXd5e9fbwYz43foffFjceE1pcua7VH4O5Vp5z5qLSvUAmSRpNU_jT-Up448qQHOerY_09N5apEr7IhUfxOiPspkDyiBkOjJ2lyfG26A1y-lpFQLrOJq3gNEJeXXIR_denJkEbN6te417PaU_R24NwuVX4XrpzBaTRBMsyH3_otgp0zfmA8FLoFeTpc17ZL77BL1flmfWC-7uO-SEBFhLdEUSlmfRblWifWD8IQHIjCTH0lCFdLiHqp82EJH0z24wb3OFcsbWqDjJMHupmNsLozYuaRTL-G46RNekjOdLBfQrQB3th_9WpGBmkO__8Yx5mCNeUjOUKoeNhZ23rs1YWfxhFgKgi3aLljzyxexNqrAuZNKeKgV4q3V3cGcnmR30A30-koHZ5IcytzSl34PsN9sfzIpLhcU48GmeSvNmODdY74CfYDJNPKqyyXgyCFa0kgrM9mgf4rQfKbokMkc9X2WxH9h3DXYcHByNgM90IJl6IJciCj708H0NtV9xq4cgkM0nTp4dR_F06Hog-SkLg72YcOASkxniRZEaXQKhQwN1ktAwXa-GP4oO-xeYiRRIzGOuA9aRE8-NpCEaNGI8GfdDuyGshlKpSNSc2tn0m69K4g7en7L5YnTmpYjALQ8dpU3oKt3VAyXasxMN0hfOGIBRtIXEIlR2UQ1wFmw0Jp8FhdAyxJkU7ARt57u0jVxmOmLbMoiRIvhh58yYmYxnQrOzGPgYCqbzrZ_tq-HPy8B3QcRNc1GvQPj0AXLmOQZ1pjHs2XD3Sy6y0_Gd_tIMcgau0EsjiXzJMSjq19DP9L-sDoWMinzqpL3ClbaLEu8QJ0_JpZUi6GVwv8kPngKiVYijs_U1GN5xi0INtLVTMMLfUNFPrN3CuNBBhyMGE8vSbFYDTyIyrh5ALdFjkoqjmSiwLqEAD65VCpDStt-t68P53eK2iucCqjweG8_v9XWi5OcWnQgv2bWJIu1-A5aAXiJ8iIXi1ATG3KWp22CxXkcC3QjN2reIPNsKDHlmV]--></g></svg>
