<svg xmlns="http://www.w3.org/2000/svg" xmlns:xlink="http://www.w3.org/1999/xlink" contentStyleType="text/css" height="1598px" preserveAspectRatio="none" style="width:4372px;height:1598px;background:#FAFAFA;" version="1.1" viewBox="0 0 4372 1598" width="4372px" zoomAndPan="magnify"><defs><style type="text/css">@import url('https://fonts.googleapis.com/css?family=Roboto:400,100,100italic,300,300italic,400italic,500,500italic,700,700italic,900,900italic');</style></defs><g><rect fill="#FAFAFA" height="1598" style="stroke:none;stroke-width:1.0;" width="4372" x="0" y="0"/><!--cluster pwa--><g id="cluster_pwa"><rect fill="#E3F2FD" height="589" rx="4" ry="4" style="stroke:#555555;stroke-width:1.0;" width="344" x="3867" y="192.5"/><text fill="#222222" font-family="Roboto" font-size="14" font-weight="bold" lengthAdjust="spacing" textLength="95.5938" x="3991.2031" y="207.4883">PWA Container</text><text fill="#222222" font-family="Roboto" font-size="14" font-weight="bold" lengthAdjust="spacing" textLength="170.8711" x="3953.5645" y="223.8945">[React 19, TypeScript, Vite]</text><text fill="#222222" font-family="Roboto" font-size="14" font-weight="bold" lengthAdjust="spacing" textLength="145.6123" x="3966.1938" y="240.3008">Served as static assets</text></g><!--cluster backend--><g id="cluster_backend"><rect fill="#E8F5E9" height="682" rx="4" ry="4" style="stroke:#555555;stroke-width:1.0;" width="2006" x="2005" y="853.5"/><text fill="#222222" font-family="Roboto" font-size="14" font-weight="bold" lengthAdjust="spacing" textLength="107.6865" x="2954.1567" y="868.4883">FastAPI Backend</text><text fill="#222222" font-family="Roboto" font-size="14" font-weight="bold" lengthAdjust="spacing" textLength="221.0059" x="2897.4971" y="884.8945">[Python 3.14, FastAPI, Pydantic v2]</text><text fill="#222222" font-family="Roboto" font-size="14" font-weight="bold" lengthAdjust="spacing" textLength="121.7549" x="2947.1226" y="901.3008">src/cyo_adventure/</text></g><!--entity reader--><g id="elem_reader"><rect fill="#DDEEFF" height="52.8125" rx="4" ry="4" style="stroke:#555555;stroke-width:0.5;" width="149.4316" x="3882.5" y="260.5"/><text fill="#222222" font-family="Roboto" font-size="14" lengthAdjust="spacing" textLength="60.0879" x="3892.5" y="283.4883">Reader UI</text><text fill="#222222" font-family="Roboto" font-size="14" lengthAdjust="spacing" textLength="129.4316" x="3892.5" y="299.8945">frontend/src/reader/</text></g><!--entity library_ui--><g id="elem_library_ui"><rect fill="#DDEEFF" height="52.8125" rx="4" ry="4" style="stroke:#555555;stroke-width:0.5;" width="128.4658" x="4067" y="260.5"/><text fill="#222222" font-family="Roboto" font-size="14" lengthAdjust="spacing" textLength="58.8916" x="4077" y="283.4883">Library UI</text><text fill="#222222" font-family="Roboto" font-size="14" lengthAdjust="spacing" textLength="108.4658" x="4077" y="299.8945">frontend/src/api/</text></g><!--entity player_ui--><g id="elem_player_ui"><rect fill="#DDEEFF" height="69.2188" rx="4" ry="4" style="stroke:#555555;stroke-width:0.5;" width="211.1465" x="3892.5" y="374.5"/><text fill="#222222" font-family="Roboto" font-size="14" lengthAdjust="spacing" textLength="38.6436" x="3902.5" y="397.4883">Player</text><text fill="#222222" font-family="Roboto" font-size="14" lengthAdjust="spacing" textLength="127.2578" x="3902.5" y="413.8945">frontend/src/player/</text><text fill="#222222" font-family="Roboto" font-size="14" lengthAdjust="spacing" textLength="191.1465" x="3902.5" y="430.3008">TS evaluator + XState machine</text></g><!--entity offline--><g id="elem_offline"><rect fill="#DDEEFF" height="69.2188" rx="4" ry="4" style="stroke:#555555;stroke-width:0.5;" width="174.3076" x="3917" y="535.5"/><text fill="#222222" font-family="Roboto" font-size="14" lengthAdjust="spacing" textLength="78.75" x="3927" y="558.4883">Offline Layer</text><text fill="#222222" font-family="Roboto" font-size="14" lengthAdjust="spacing" textLength="129.2676" x="3927" y="574.8945">frontend/src/offline/</text><text fill="#222222" font-family="Roboto" font-size="14" lengthAdjust="spacing" textLength="154.3076" x="3927" y="591.3008">IndexedDB + write queue</text></g><!--entity gen_client--><g id="elem_gen_client"><rect fill="#E0E0E0" height="69.2188" rx="4" ry="4" style="stroke:#555555;stroke-width:0.5;" width="249.4893" x="3883.5" y="696.5"/><text fill="#222222" font-family="Roboto" font-size="14" lengthAdjust="spacing" textLength="128.748" x="3893.5" y="719.4883">Generated API Client</text><text fill="#222222" font-family="Roboto" font-size="14" lengthAdjust="spacing" textLength="229.4893" x="3893.5" y="735.8945">frontend/src/client/ [BUILD OUTPUT]</text><text fill="#222222" font-family="Roboto" font-size="14" lengthAdjust="spacing" textLength="210.0752" x="3893.5" y="752.3008">from OpenAPI schema via hey-api</text></g><!--entity routers--><g id="elem_routers"><rect fill="#CCEECC" height="318.9063" rx="4" ry="4" style="stroke:#555555;stroke-width:0.5;" width="323.3496" x="2993.5" y="929.5"/><text fill="#222222" font-family="Roboto" font-size="14" lengthAdjust="spacing" textLength="102.4229" x="3003.5" y="952.4883">API Routers (28)</text><text fill="#222222" font-family="Roboto" font-size="14" lengthAdjust="spacing" textLength="141.415" x="3003.5" y="985.3008">health, me, onboarding</text><line style="stroke:#555555;stroke-width:1.0;" x1="2994.5" x2="3107.2036" y1="964.1094" y2="964.1094"/><text fill="#222222" font-family="Roboto" font-size="14" lengthAdjust="spacing" textLength="95.9424" x="3107.2036" y="968.3945">public / identity</text><line style="stroke:#555555;stroke-width:1.0;" x1="3203.146" x2="3315.8496" y1="964.1094" y2="964.1094"/><text fill="#222222" font-family="Roboto" font-size="14" lengthAdjust="spacing" textLength="244.9385" x="3003.5" y="1022.1133">library, reading, reading_history, ratings,</text><text fill="#222222" font-family="Roboto" font-size="14" lengthAdjust="spacing" textLength="252.5469" x="3003.5" y="1038.5195">recommendations, flags (+admin queue)</text><line style="stroke:#555555;stroke-width:1.0;" x1="2994.5" x2="3094.9775" y1="1000.9219" y2="1000.9219"/><text fill="#222222" font-family="Roboto" font-size="14" lengthAdjust="spacing" textLength="120.3945" x="3094.9775" y="1005.207">kid / profile-scoped</text><line style="stroke:#555555;stroke-width:1.0;" x1="3215.3721" x2="3315.8496" y1="1000.9219" y2="1000.9219"/><text fill="#222222" font-family="Roboto" font-size="14" lengthAdjust="spacing" textLength="241.3838" x="3003.5" y="1075.332">generation (+admin force-fail), profiles,</text><text fill="#222222" font-family="Roboto" font-size="14" lengthAdjust="spacing" textLength="282.7754" x="3003.5" y="1091.7383">assignments, story_requests (+admin queue),</text><text fill="#222222" font-family="Roboto" font-size="14" lengthAdjust="spacing" textLength="268.1328" x="3003.5" y="1108.1445">notifications, child_sessions, device_grants</text><line style="stroke:#555555;stroke-width:1.0;" x1="2994.5" x2="3127.8823" y1="1054.1406" y2="1054.1406"/><text fill="#222222" font-family="Roboto" font-size="14" lengthAdjust="spacing" textLength="54.585" x="3127.8823" y="1058.4258">guardian</text><line style="stroke:#555555;stroke-width:1.0;" x1="3182.4673" x2="3315.8496" y1="1054.1406" y2="1054.1406"/><text fill="#222222" font-family="Roboto" font-size="14" lengthAdjust="spacing" textLength="257.8994" x="3003.5" y="1144.957">approval, covers, families, audit, rescreen,</text><text fill="#222222" font-family="Roboto" font-size="14" lengthAdjust="spacing" textLength="297.3496" x="3003.5" y="1161.3633">moderation_thresholds, moderation_dashboard,</text><text fill="#222222" font-family="Roboto" font-size="14" lengthAdjust="spacing" textLength="295.6406" x="3003.5" y="1177.7695">provider_allowlist, admin_users, admin_profiles,</text><text fill="#222222" font-family="Roboto" font-size="14" lengthAdjust="spacing" textLength="250.1064" x="3003.5" y="1194.1758">family_connections (+guardian consent)</text><line style="stroke:#555555;stroke-width:1.0;" x1="2994.5" x2="3111.1992" y1="1123.7656" y2="1123.7656"/><text fill="#222222" font-family="Roboto" font-size="14" lengthAdjust="spacing" textLength="87.9512" x="3111.1992" y="1128.0508">admin [global]</text><line style="stroke:#555555;stroke-width:1.0;" x1="3199.1504" x2="3315.8496" y1="1123.7656" y2="1123.7656"/><text fill="#222222" font-family="Roboto" font-size="14" lengthAdjust="spacing" textLength="60.6553" x="3003.5" y="1230.9883">node_edit</text><line style="stroke:#555555;stroke-width:1.0;" x1="2994.5" x2="3062.5" y1="1209.7969" y2="1209.7969"/><text fill="#222222" font-family="Roboto" font-size="14" lengthAdjust="spacing" textLength="185.3496" x="3062.5" y="1214.082">admin or guardian-own-family</text><line style="stroke:#555555;stroke-width:1.0;" x1="3247.8496" x2="3315.8496" y1="1209.7969" y2="1209.7969"/></g><!--entity auth--><g id="elem_auth"><rect fill="#CCEECC" height="85.625" rx="4" ry="4" style="stroke:#555555;stroke-width:0.5;" width="232.2764" x="2589" y="1425.5"/><text fill="#222222" font-family="Roboto" font-size="14" lengthAdjust="spacing" textLength="68.2432" x="2599" y="1448.4883">Auth Seam</text><text fill="#222222" font-family="Roboto" font-size="14" lengthAdjust="spacing" textLength="73.2402" x="2599" y="1464.8945">api/deps.py</text><text fill="#222222" font-family="Roboto" font-size="14" lengthAdjust="spacing" textLength="212.2764" x="2599" y="1481.3008">Principal / family / role + is_admin</text><text fill="#222222" font-family="Roboto" font-size="14" lengthAdjust="spacing" textLength="191.8574" x="2599" y="1497.707">(guardian, child, admin, device)</text></g><!--entity storybook_dom--><g id="elem_storybook_dom"><rect fill="#CCEECC" height="85.625" rx="4" ry="4" style="stroke:#555555;stroke-width:0.5;" width="164.0811" x="2856" y="1425.5"/><text fill="#222222" font-family="Roboto" font-size="14" lengthAdjust="spacing" textLength="114.8438" x="2866" y="1448.4883">Storybook Domain</text><text fill="#222222" font-family="Roboto" font-size="14" lengthAdjust="spacing" textLength="132.248" x="2866" y="1464.8945">storybook/models.py</text><text fill="#222222" font-family="Roboto" font-size="14" lengthAdjust="spacing" textLength="143.9033" x="2866" y="1481.3008">storybook/evaluator.py</text><text fill="#222222" font-family="Roboto" font-size="14" lengthAdjust="spacing" textLength="144.0811" x="2866" y="1497.707">storybook/condition.py</text></g><!--entity player_eng--><g id="elem_player_eng"><rect fill="#CCEECC" height="69.2188" rx="4" ry="4" style="stroke:#555555;stroke-width:0.5;" width="200.1406" x="3055" y="1434"/><text fill="#222222" font-family="Roboto" font-size="14" lengthAdjust="spacing" textLength="84.2256" x="3065" y="1456.9883">Player Engine</text><text fill="#222222" font-family="Roboto" font-size="14" lengthAdjust="spacing" textLength="103.2021" x="3065" y="1473.3945">player/engine.py</text><text fill="#222222" font-family="Roboto" font-size="14" lengthAdjust="spacing" textLength="180.1406" x="3065" y="1489.8008">Runtime Semantics v1 (pure)</text></g><!--entity validator--><g id="elem_validator"><rect fill="#CCEECC" height="69.2188" rx="4" ry="4" style="stroke:#555555;stroke-width:0.5;" width="209.9844" x="3290" y="1434"/><text fill="#222222" font-family="Roboto" font-size="14" lengthAdjust="spacing" textLength="88.7852" x="3300" y="1456.9883">Validator Gate</text><text fill="#222222" font-family="Roboto" font-size="14" lengthAdjust="spacing" textLength="105.458" x="3300" y="1473.3945">validator/gate.py</text><text fill="#222222" font-family="Roboto" font-size="14" lengthAdjust="spacing" textLength="189.9844" x="3300" y="1489.8008">L1+Policy+L2+RL+SAFE layers</text></g><!--entity orchestrator--><g id="elem_orchestrator"><rect fill="#CCEECC" height="85.625" rx="4" ry="4" style="stroke:#555555;stroke-width:0.5;" width="226.541" x="2037.5" y="1425.5"/><text fill="#222222" font-family="Roboto" font-size="14" lengthAdjust="spacing" textLength="149.96" x="2047.5" y="1448.4883">Generation Orchestrator</text><text fill="#222222" font-family="Roboto" font-size="14" lengthAdjust="spacing" textLength="167.1182" x="2047.5" y="1464.8945">generation/orchestrator.py</text><text fill="#222222" font-family="Roboto" font-size="14" lengthAdjust="spacing" textLength="206.541" x="2047.5" y="1481.3008">fresh_generation (Stage A-&gt;B-&gt;C)</text><text fill="#222222" font-family="Roboto" font-size="14" lengthAdjust="spacing" textLength="177.8711" x="2047.5" y="1497.707">or skeleton_fill (fill_skeleton)</text></g><!--entity moderation_comp--><g id="elem_moderation_comp"><rect fill="#CCEECC" height="69.2188" rx="4" ry="4" style="stroke:#555555;stroke-width:0.5;" width="254.418" x="2300" y="1434"/><text fill="#222222" font-family="Roboto" font-size="14" lengthAdjust="spacing" textLength="71.5859" x="2310" y="1456.9883">Moderation</text><text fill="#222222" font-family="Roboto" font-size="14" lengthAdjust="spacing" textLength="234.418" x="2310" y="1473.3945">moderation/pipeline.py, thresholds.py</text><text fill="#222222" font-family="Roboto" font-size="14" lengthAdjust="spacing" textLength="166.5918" x="2310" y="1489.8008">fidelity_review.py, repair.py</text></g><!--entity publishing_comp--><g id="elem_publishing_comp"><rect fill="#CCEECC" height="69.2188" rx="4" ry="4" style="stroke:#555555;stroke-width:0.5;" width="232.1055" x="3535" y="1434"/><text fill="#222222" font-family="Roboto" font-size="14" lengthAdjust="spacing" textLength="65.1533" x="3545" y="1456.9883">Publishing</text><text fill="#222222" font-family="Roboto" font-size="14" lengthAdjust="spacing" textLength="179.3682" x="3545" y="1473.3945">publishing/state_machine.py</text><text fill="#222222" font-family="Roboto" font-size="14" lengthAdjust="spacing" textLength="212.1055" x="3545" y="1489.8008">approve -&gt; publish gate (ADR-005)</text></g><!--entity events_comp--><g id="elem_events_comp"><rect fill="#CCEECC" height="69.2188" rx="4" ry="4" style="stroke:#555555;stroke-width:0.5;" width="185.3682" x="3802.5" y="1434"/><text fill="#222222" font-family="Roboto" font-size="14" lengthAdjust="spacing" textLength="114.29" x="3812.5" y="1456.9883">Pipeline Event Log</text><text fill="#222222" font-family="Roboto" font-size="14" lengthAdjust="spacing" textLength="145.2227" x="3812.5" y="1473.3945">events/writer.py [WS-D]</text><text fill="#222222" font-family="Roboto" font-size="14" lengthAdjust="spacing" textLength="165.3682" x="3812.5" y="1489.8008">append-only lifecycle audit</text></g><!--entity middleware--><g id="elem_middleware"><rect fill="#CCEECC" height="69.2188" rx="4" ry="4" style="stroke:#555555;stroke-width:0.5;" width="183.502" x="2411" y="1054.5"/><text fill="#222222" font-family="Roboto" font-size="14" lengthAdjust="spacing" textLength="72.5498" x="2421" y="1077.4883">Middleware</text><text fill="#222222" font-family="Roboto" font-size="14" lengthAdjust="spacing" textLength="163.502" x="2421" y="1093.8945">middleware/correlation.py</text><text fill="#222222" font-family="Roboto" font-size="14" lengthAdjust="spacing" textLength="145.6055" x="2421" y="1110.3008">middleware/security.py</text></g><!--entity child--><g id="elem_child"><ellipse cx="3956.8647" cy="30.5" fill="#E3F2FD" rx="8" ry="8" style="stroke:#181818;stroke-width:0.5;"/><path d="M3956.8647,38.5 L3956.8647,65.5 M3943.8647,46.5 L3969.8647,46.5 M3956.8647,65.5 L3943.8647,80.5 M3956.8647,65.5 L3969.8647,80.5 " fill="none" style="stroke:#181818;stroke-width:0.5;"/><text fill="#000000" font-family="Roboto" font-size="14" lengthAdjust="spacing" textLength="78.7295" x="3917.5" y="94.9883">Child Reader</text></g><!--entity guardian--><g id="elem_guardian"><ellipse cx="4289.1299" cy="30.5" fill="#E8F5E9" rx="8" ry="8" style="stroke:#181818;stroke-width:0.5;"/><path d="M4289.1299,38.5 L4289.1299,65.5 M4276.1299,46.5 L4302.1299,46.5 M4289.1299,65.5 L4276.1299,80.5 M4289.1299,65.5 L4302.1299,80.5 " fill="none" style="stroke:#181818;stroke-width:0.5;"/><text fill="#000000" font-family="Roboto" font-size="14" lengthAdjust="spacing" textLength="56.2598" x="4261" y="94.9883">Guardian</text></g><!--entity admin--><g id="elem_admin"><ellipse cx="4116.9482" cy="14" fill="#EDE7F6" rx="8" ry="8" style="stroke:#181818;stroke-width:0.5;"/><path d="M4116.9482,22 L4116.9482,49 M4103.9482,30 L4129.9482,30 M4116.9482,49 L4103.9482,64 M4116.9482,49 L4129.9482,64 " fill="none" style="stroke:#181818;stroke-width:0.5;"/><text fill="#000000" font-family="Roboto" font-size="14" lengthAdjust="spacing" textLength="40.4414" x="4045" y="78.4883">Admin</text><text fill="#000000" font-family="Roboto" font-size="14" lengthAdjust="spacing" textLength="143.8965" x="4045" y="94.8945">(global safety operator,</text><text fill="#000000" font-family="Roboto" font-size="14" lengthAdjust="spacing" textLength="142.0918" x="4045" y="111.3008">cross-family, ADR-005)</text></g><!--entity worker--><g id="elem_worker"><rect fill="#FFF3E0" height="69.2188" rx="4" ry="4" style="stroke:#555555;stroke-width:0.5;" width="152.9658" x="762.5" y="1054.5"/><text fill="#222222" font-family="Roboto" font-size="14" lengthAdjust="spacing" textLength="116.0605" x="772.5" y="1077.4883">Generation Worker</text><text fill="#222222" font-family="Roboto" font-size="14" lengthAdjust="spacing" textLength="124.9336" x="772.5" y="1093.8945">[RQ worker process]</text><text fill="#222222" font-family="Roboto" font-size="14" lengthAdjust="spacing" textLength="132.9658" x="772.5" y="1110.3008">generation/worker.py</text></g><!--entity postgres--><g id="elem_postgres"><path d="M882.5,1365.5 C882.5,1355.5 1030.7808,1355.5 1030.7808,1355.5 C1030.7808,1355.5 1179.0615,1355.5 1179.0615,1365.5 L1179.0615,1571.375 C1179.0615,1581.375 1030.7808,1581.375 1030.7808,1581.375 C1030.7808,1581.375 882.5,1581.375 882.5,1571.375 L882.5,1365.5 " fill="#E0F7FA" style="stroke:#181818;stroke-width:0.5;"/><path d="M882.5,1365.5 C882.5,1375.5 1030.7808,1375.5 1030.7808,1375.5 C1030.7808,1375.5 1179.0615,1375.5 1179.0615,1365.5 " fill="none" style="stroke:#181818;stroke-width:0.5;"/><text fill="#000000" font-family="Roboto" font-size="14" lengthAdjust="spacing" textLength="120.9824" x="892.5" y="1392.4883">Supabase Postgres</text><text fill="#000000" font-family="Roboto" font-size="14" lengthAdjust="spacing" textLength="215.0313" x="892.5" y="1408.8945">[Managed DB, ADR-009 decision 2]</text><text fill="#000000" font-family="Roboto" font-size="14" lengthAdjust="spacing" textLength="230.9316" x="892.5" y="1425.3008">Session pooler :5432 (session mode)</text><text fill="#000000" font-family="Roboto" font-size="14" lengthAdjust="spacing" textLength="94.6641" x="892.5" y="1441.707">22 ORM tables:</text><text fill="#000000" font-family="Roboto" font-size="14" lengthAdjust="spacing" textLength="241.582" x="892.5" y="1458.1133">Family, FamilyConnection, Series, User,</text><text fill="#000000" font-family="Roboto" font-size="14" lengthAdjust="spacing" textLength="261.167" x="892.5" y="1474.5195">ChildProfile, Storybook, StorybookVersion,</text><text fill="#000000" font-family="Roboto" font-size="14" lengthAdjust="spacing" textLength="209.8633" x="892.5" y="1490.9258">ReadingState, Completion, Rating,</text><text fill="#000000" font-family="Roboto" font-size="14" lengthAdjust="spacing" textLength="198.7686" x="892.5" y="1507.332">StorybookAssignment, Concept,</text><text fill="#000000" font-family="Roboto" font-size="14" lengthAdjust="spacing" textLength="276.5615" x="892.5" y="1523.7383">StoryRequest, ModerationThreshold(+Audit),</text><text fill="#000000" font-family="Roboto" font-size="14" lengthAdjust="spacing" textLength="208.4209" x="892.5" y="1540.1445">ModerationSetting, PipelineEvent,</text><text fill="#000000" font-family="Roboto" font-size="14" lengthAdjust="spacing" textLength="196.8955" x="892.5" y="1556.5508">ProviderModelAllowlist(+Audit),</text><text fill="#000000" font-family="Roboto" font-size="14" lengthAdjust="spacing" textLength="226.6592" x="892.5" y="1572.957">GenerationJob, DeviceGrant, KidFlag</text></g><!--entity redis--><g id="elem_redis"><path d="M1480.5,1439.5 C1480.5,1429.5 1580.9531,1429.5 1580.9531,1429.5 C1580.9531,1429.5 1681.4063,1429.5 1681.4063,1439.5 L1681.4063,1497.7188 C1681.4063,1507.7188 1580.9531,1507.7188 1580.9531,1507.7188 C1580.9531,1507.7188 1480.5,1507.7188 1480.5,1497.7188 L1480.5,1439.5 " fill="#E0E0E0" style="stroke:#181818;stroke-width:0.5;"/><path d="M1480.5,1439.5 C1480.5,1449.5 1580.9531,1449.5 1580.9531,1449.5 C1580.9531,1449.5 1681.4063,1449.5 1681.4063,1439.5 " fill="none" style="stroke:#181818;stroke-width:0.5;"/><text fill="#000000" font-family="Roboto" font-size="14" lengthAdjust="spacing" textLength="34.5762" x="1490.5" y="1466.4883">Redis</text><text fill="#000000" font-family="Roboto" font-size="14" lengthAdjust="spacing" textLength="74.3203" x="1490.5" y="1482.8945">[Job broker]</text><text fill="#000000" font-family="Roboto" font-size="14" lengthAdjust="spacing" textLength="180.9063" x="1490.5" y="1499.3008">RQ queue for generation jobs</text></g><!--entity minio--><g id="elem_minio"><rect fill="#E0E0E0" height="69.2188" rx="4" ry="4" style="stroke:#555555;stroke-width:0.5;" width="230.7725" x="616.5" y="1434"/><text fill="#222222" font-family="Roboto" font-size="14" lengthAdjust="spacing" textLength="36.7979" x="626.5" y="1456.9883">MinIO</text><text fill="#222222" font-family="Roboto" font-size="14" lengthAdjust="spacing" textLength="210.7725" x="626.5" y="1473.3945">[Object storage, deferred Phase 5]</text><text fill="#222222" font-family="Roboto" font-size="14" lengthAdjust="spacing" textLength="167.1523" x="626.5" y="1489.8008">Storybook blobs via S3 API</text></g><!--entity r2--><g id="elem_r2"><rect fill="#E0E0E0" height="85.625" rx="4" ry="4" style="stroke:#555555;stroke-width:0.5;" width="234.874" x="1716.5" y="1425.5"/><text fill="#222222" font-family="Roboto" font-size="14" lengthAdjust="spacing" textLength="84.1367" x="1726.5" y="1448.4883">Cloudflare R2</text><text fill="#222222" font-family="Roboto" font-size="14" lengthAdjust="spacing" textLength="206.8076" x="1726.5" y="1464.8945">[Object storage, S3 API, ADR-017]</text><text fill="#222222" font-family="Roboto" font-size="14" lengthAdjust="spacing" textLength="178.4727" x="1726.5" y="1481.3008">AI cover art WebP; written by</text><text fill="#222222" font-family="Roboto" font-size="14" lengthAdjust="spacing" textLength="214.874" x="1726.5" y="1497.707">covers/worker.py RQ job (shipped)</text></g><!--entity openrouter--><g id="elem_openrouter"><rect fill="#F3E5F5" height="52.8125" rx="4" ry="4" style="stroke:#555555;stroke-width:0.5;" width="212.0762" x="7" y="1442"/><text fill="#222222" font-family="Roboto" font-size="14" lengthAdjust="spacing" textLength="73.7256" x="17" y="1464.9883">OpenRouter</text><text fill="#222222" font-family="Roboto" font-size="14" lengthAdjust="spacing" textLength="192.0762" x="17" y="1481.3945">[Primary LLM, default cascade]</text></g><!--entity extra_providers--><g id="elem_extra_providers"><rect fill="#F3E5F5" height="69.2188" rx="4" ry="4" style="stroke:#555555;stroke-width:0.5;" width="178.2793" x="254" y="1434"/><text fill="#222222" font-family="Roboto" font-size="14" lengthAdjust="spacing" textLength="112.3213" x="264" y="1456.9883">Anthropic / Modal</text><text fill="#222222" font-family="Roboto" font-size="14" lengthAdjust="spacing" textLength="158.2793" x="264" y="1473.3945">[Admin-selectable per-job</text><text fill="#222222" font-family="Roboto" font-size="14" lengthAdjust="spacing" textLength="152.6807" x="264" y="1489.8008">provider legs, WS-C PR1]</text></g><!--entity ollama--><g id="elem_ollama"><rect fill="#FFEBEE" height="52.8125" rx="4" ry="4" style="stroke:#555555;stroke-width:0.5;" width="113.96" x="467" y="1442"/><text fill="#222222" font-family="Roboto" font-size="14" lengthAdjust="spacing" textLength="43.9482" x="477" y="1464.9883">Ollama</text><text fill="#222222" font-family="Roboto" font-size="14" lengthAdjust="spacing" textLength="93.96" x="477" y="1481.3945">[Local fallback]</text></g><!--entity supabase_auth--><g id="elem_supabase_auth"><rect fill="#E0F7FA" height="52.8125" rx="4" ry="4" style="stroke:#555555;stroke-width:0.5;" width="119.8115" x="4035" y="1442"/><text fill="#222222" font-family="Roboto" font-size="14" lengthAdjust="spacing" textLength="94.2471" x="4045" y="1464.9883">Supabase Auth</text><text fill="#222222" font-family="Roboto" font-size="14" lengthAdjust="spacing" textLength="99.8115" x="4045" y="1481.3945">[OIDC, ADR-009]</text></g><g id="elem_GMN58"><path d="M4035,1065 L4035,1112.7031 A4,4 0 0 0 4039,1116.7031 L4361.2007,1116.7031 A4,4 0 0 0 4365.2007,1112.7031 L4365.2007,1071 L4355.2007,1061 L4189.37,1061 L4026.24,765.81 L4181.37,1061 L4039,1061 A4,4 0 0 0 4035,1065 " fill="#FEFFDD" style="stroke:#181818;stroke-width:0.5;"/><path d="M4355.2007,1061 L4355.2007,1069 A2,2 0 0 0 4357.2007,1071 L4365.2007,1071 L4355.2007,1061 " fill="#FEFFDD" style="stroke:#181818;stroke-width:0.5;"/><text fill="#000000" font-family="Roboto" font-size="13" lengthAdjust="spacing" textLength="309.2007" x="4041" y="1078.0605">Regenerated from http://localhost:8000/openapi.json</text><text fill="#000000" font-family="Roboto" font-size="13" lengthAdjust="spacing" textLength="159.9165" x="4041" y="1093.2949">via: npm run generate-client</text><text fill="#000000" font-family="Roboto" font-size="13" lengthAdjust="spacing" textLength="250.0596" x="4041" y="1108.5293">Never hand-edit files in frontend/src/client/</text></g><g id="elem_GMN61"><path d="M1215,1437 L1215,1499.9375 A4,4 0 0 0 1219,1503.9375 L1440.8315,1503.9375 A4,4 0 0 0 1444.8315,1499.9375 L1444.8315,1443 L1434.8315,1433 L1219,1433 A4,4 0 0 0 1215,1437 " fill="#FEFFDD" style="stroke:#181818;stroke-width:0.5;"/><path d="M1434.8315,1433 L1434.8315,1441 A2,2 0 0 0 1436.8315,1443 L1444.8315,1443 L1434.8315,1433 " fill="#FEFFDD" style="stroke:#181818;stroke-width:1.0;"/><text fill="#000000" font-family="Roboto" font-size="13" lengthAdjust="spacing" textLength="152.3057" x="1221" y="1450.0605">Phase 1: blob stored inline</text><text fill="#000000" font-family="Roboto" font-size="13" lengthAdjust="spacing" textLength="208.8315" x="1221" y="1465.2949">on storybook_version.blob (JSONB).</text><text fill="#000000" font-family="Roboto" font-size="13" lengthAdjust="spacing" textLength="165.8262" x="1221" y="1480.5293">blob_ref column reserved for</text><text fill="#000000" font-family="Roboto" font-size="13" lengthAdjust="spacing" textLength="158.2217" x="1221" y="1495.7637">MinIO object key (Phase 5).</text></g><!--link child to reader--><g id="link_child_reader"><path d="M3957,98.15 C3957,143.96 3957,214.61 3957,254.36 " fill="none" id="child-to-reader" style="stroke:#181818;stroke-width:1.0;"/><polygon fill="#181818" points="3957,260.36,3961,251.36,3957,255.36,3953,251.36,3957,260.36" style="stroke:#181818;stroke-width:1.0;"/></g><!--link guardian to library_ui--><g id="link_guardian_library_ui"><path d="M4288.41,98.18 C4286.52,122.04 4281.18,152.87 4267,176.5 C4245.55,212.24 4212.9803,237.9619 4182.7303,257.1019 " fill="none" id="guardian-to-library_ui" style="stroke:#181818;stroke-width:1.0;"/><polygon fill="#181818" points="4177.66,260.31,4187.4042,258.878,4181.8853,257.6366,4183.1267,252.1176,4177.66,260.31" style="stroke:#181818;stroke-width:1.0;"/></g><!--link admin to library_ui--><g id="link_admin_library_ui"><path d="M4114.78,114.89 C4114.45,124.74 4114.17,134.93 4114,144.5 C4113.74,158.72 4112.91,162.32 4114,176.5 C4116.23,205.46 4120.6457,232.4625 4124.7857,254.5725 " fill="none" id="admin-to-library_ui" style="stroke:#181818;stroke-width:1.0;"/><polygon fill="#181818" points="4125.89,260.47,4128.1652,250.8876,4124.9698,255.5554,4120.3019,252.3599,4125.89,260.47" style="stroke:#181818;stroke-width:1.0;"/><text fill="#000000" font-family="Roboto" font-size="13" lengthAdjust="spacing" textLength="97.9253" x="4139.8669" y="157.5605">review + approve</text><text fill="#000000" font-family="Roboto" font-size="13" lengthAdjust="spacing" textLength="147.6592" x="4115" y="172.7949">storybooks (cross-family)</text></g><!--link reader to player_ui--><g id="link_reader_player_ui"><path d="M3965.8,313.74 C3971.82,331.37 3977.9282,349.2629 3984.4782,368.4129 " fill="none" id="reader-to-player_ui" style="stroke:#181818;stroke-width:1.0;"/><polygon fill="#181818" points="3986.42,374.09,3987.2921,364.2798,3984.8019,369.3591,3979.7226,366.8689,3986.42,374.09" style="stroke:#181818;stroke-width:1.0;"/></g><!--link player_ui to offline--><g id="link_player_ui_offline"><path d="M3999.27,443.72 C4000.29,470.7 4001.4832,502.3643 4002.5032,529.3343 " fill="none" id="player_ui-to-offline" style="stroke:#181818;stroke-width:1.0;"/><polygon fill="#181818" points="4002.73,535.33,4006.387,526.1853,4002.541,530.3336,3998.3927,526.4876,4002.73,535.33" style="stroke:#181818;stroke-width:1.0;"/><text fill="#000000" font-family="Roboto" font-size="13" lengthAdjust="spacing" textLength="60.0171" x="4002" y="486.5605">local state</text><text fill="#000000" font-family="Roboto" font-size="13" lengthAdjust="spacing" textLength="34.7344" x="4014.6414" y="501.7949">cache</text></g><!--link gen_client to routers--><g id="link_gen_client_routers"><path d="M3927.37,765.65 C3787.83,823.89 3504.3371,942.199 3322.1271,1018.249 " fill="none" id="gen_client-to-routers" style="stroke:#181818;stroke-width:1.0;"/><polygon fill="#181818" points="3316.59,1020.56,3326.4363,1020.7848,3321.2042,1018.6341,3323.3549,1013.4021,3316.59,1020.56" style="stroke:#181818;stroke-width:1.0;"/><text fill="#000000" font-family="Roboto" font-size="13" lengthAdjust="spacing" textLength="75.9624" x="3848.1675" y="810.5605">REST /api/v1</text><text fill="#000000" font-family="Roboto" font-size="13" lengthAdjust="spacing" textLength="82.2974" x="3845" y="825.7949">(Bearer token)</text></g><!--link offline to gen_client--><g id="link_offline_gen_client"><path d="M4004.85,604.72 C4005.53,631.7 4006.3188,663.3619 4006.9988,690.3319 " fill="none" id="offline-to-gen_client" style="stroke:#181818;stroke-width:1.0;stroke-dasharray:7.0,7.0;"/><polygon fill="#181818" points="4007.15,696.33,4010.9219,687.232,4007.024,691.3316,4002.9244,687.4337,4007.15,696.33" style="stroke:#181818;stroke-width:1.0;"/><text fill="#000000" font-family="Roboto" font-size="13" lengthAdjust="spacing" textLength="73.7153" x="4037.5703" y="647.5605">queue replay</text><text fill="#000000" font-family="Roboto" font-size="13" lengthAdjust="spacing" textLength="134.856" x="4007" y="662.7949">(event_id idempotency)</text></g><!--link routers to auth--><g id="link_routers_auth"><path d="M2993.49,1225.49 C2909.42,1296.01 2817.0666,1373.4836 2759.6866,1421.6236 " fill="none" id="routers-to-auth" style="stroke:#181818;stroke-width:1.0;"/><polygon fill="#181818" points="2755.09,1425.48,2764.5558,1422.7598,2758.9205,1422.2664,2759.4139,1416.6311,2755.09,1425.48" style="stroke:#181818;stroke-width:1.0;"/><text fill="#000000" font-family="Roboto" font-size="13" lengthAdjust="spacing" textLength="59.814" x="2931" y="1306.5605">Depends()</text></g><!--link routers to orchestrator--><g id="link_routers_orchestrator"><path d="M2993.46,1137.34 C2750.26,1208.89 2314.91,1338.09 2283,1355.5 C2249.23,1373.93 2220.5749,1397.7921 2196.0149,1421.1821 " fill="none" id="routers-to-orchestrator" style="stroke:#181818;stroke-width:1.0;"/><polygon fill="#181818" points="2191.67,1425.32,2200.9459,1422.0097,2195.2907,1421.8718,2195.4287,1416.2166,2191.67,1425.32" style="stroke:#181818;stroke-width:1.0;"/></g><!--link routers to validator--><g id="link_routers_validator"><path d="M3255.91,1248.73 C3299.75,1317.69 3343.8609,1387.0666 3370.4609,1428.9066 " fill="none" id="routers-to-validator" style="stroke:#181818;stroke-width:1.0;"/><polygon fill="#181818" points="3373.68,1433.97,3372.227,1424.2289,3370.9974,1429.7505,3365.4758,1428.521,3373.68,1433.97" style="stroke:#181818;stroke-width:1.0;"/></g><!--link routers to storybook_dom--><g id="link_routers_storybook_dom"><path d="M3063.76,1248.73 C3026.67,1313.25 2989.8109,1377.3786 2965.1309,1420.2986 " fill="none" id="routers-to-storybook_dom" style="stroke:#181818;stroke-width:1.0;"/><polygon fill="#181818" points="2962.14,1425.5,2970.094,1419.6919,2964.6324,1421.1655,2963.1588,1415.704,2962.14,1425.5" style="stroke:#181818;stroke-width:1.0;"/></g><!--link routers to player_eng--><g id="link_routers_player_eng"><path d="M3155,1248.73 C3155,1317.69 3155,1386.13 3155,1427.97 " fill="none" id="routers-to-player_eng" style="stroke:#181818;stroke-width:1.0;"/><polygon fill="#181818" points="3155,1433.97,3159,1424.97,3155,1428.97,3151,1424.97,3155,1433.97" style="stroke:#181818;stroke-width:1.0;"/></g><!--link routers to moderation_comp--><g id="link_routers_moderation_comp"><path d="M2993.49,1151.78 C2873.57,1200.42 2707.97,1273.53 2572,1355.5 C2533.73,1378.57 2498.3858,1406.2028 2470.1358,1429.9128 " fill="none" id="routers-to-moderation_comp" style="stroke:#181818;stroke-width:1.0;"/><polygon fill="#181818" points="2465.54,1433.77,2475.0052,1431.048,2469.3699,1430.5556,2469.8623,1424.9202,2465.54,1433.77" style="stroke:#181818;stroke-width:1.0;"/></g><!--link routers to publishing_comp--><g id="link_routers_publishing_comp"><path d="M3316.69,1204.64 C3380.18,1250.59 3453.21,1304.63 3518,1355.5 C3550.53,1381.04 3581.7849,1407.4031 3608.0449,1430.0331 " fill="none" id="routers-to-publishing_comp" style="stroke:#181818;stroke-width:1.0;"/><polygon fill="#181818" points="3612.59,1433.95,3608.3835,1425.0446,3608.8024,1430.686,3603.1611,1431.1048,3612.59,1433.95" style="stroke:#181818;stroke-width:1.0;"/></g><!--link routers to events_comp--><g id="link_routers_events_comp"><path d="M3316.5,1138.3 C3449.29,1182.5 3638.7,1256.14 3785,1355.5 C3817.13,1377.32 3843.6805,1404.9815 3864.3605,1429.2715 " fill="none" id="routers-to-events_comp" style="stroke:#181818;stroke-width:1.0;"/><polygon fill="#181818" points="3868.25,1433.84,3865.4614,1424.3942,3865.0087,1430.0329,3859.37,1429.5802,3868.25,1433.84" style="stroke:#181818;stroke-width:1.0;"/><text fill="#000000" font-family="Roboto" font-size="13" lengthAdjust="spacing" textLength="109.6685" x="3723.054" y="1299.0605">write PipelineEvent</text><text fill="#000000" font-family="Roboto" font-size="13" lengthAdjust="spacing" textLength="109.7764" x="3723" y="1314.2949">(same transaction)</text></g><!--link backend to postgres--><g id="link_backend_postgres"><path d="M2004.9874,1090.4764 C2004.4628,1090.5102 2003.9135,1090.5459 2003.3396,1090.5837 C2002.1919,1090.6592 2000.9461,1090.7429 1999.6045,1090.835 C1996.9214,1091.0192 1993.8551,1091.2375 1990.4238,1091.4932 C1976.6988,1092.5163 1957.1334,1094.1398 1932.8863,1096.5889 C1884.3919,1101.4872 1817.17,1109.6881 1740.4875,1122.9938 C1587.1225,1149.605 1395.915,1196.635 1241,1278.5 C1219.32,1289.96 1186.9389,1317.2304 1150.1589,1351.1804 " fill="none" id="backend-to-postgres" style="stroke:#181818;stroke-width:1.0;"/><polygon fill="#181818" points="1145.75,1355.25,1155.0764,1352.0848,1149.4241,1351.8586,1149.6502,1346.2063,1145.75,1355.25" style="stroke:#181818;stroke-width:1.0;"/><text fill="#000000" font-family="Roboto" font-size="13" lengthAdjust="spacing" textLength="121.3862" x="1242" y="1299.0605">async SQLAlchemy 2</text><text fill="#000000" font-family="Roboto" font-size="13" lengthAdjust="spacing" textLength="120.1865" x="1242.5999" y="1314.2949">session pooler :5432</text></g><!--link backend to redis--><g id="link_backend_redis"><path d="M2004.5285,1091.1442 C2004.2386,1091.1843 2003.9416,1091.2254 2003.6375,1091.2675 C2003.0295,1091.3517 2002.3934,1091.4401 2001.7297,1091.5327 C2000.4024,1091.7177 1998.9647,1091.9194 1997.4205,1092.1375 C1994.332,1092.5737 1990.8172,1093.0758 1986.9059,1093.643 C1971.2607,1095.9119 1949.2718,1099.2232 1922.8492,1103.5302 C1870.0041,1112.1441 1799.4244,1124.7406 1726.3913,1140.9463 C1580.325,1173.3575 1424.445,1220.205 1381,1278.5 C1368.52,1295.25 1369.07,1308.36 1381,1325.5 C1402.93,1357.01 1429.37,1335.27 1462,1355.5 C1494.43,1375.6 1521.5302,1401.1192 1543.8502,1424.9692 " fill="none" id="backend-to-redis" style="stroke:#181818;stroke-width:1.0;"/><polygon fill="#181818" points="1547.95,1429.35,1544.7209,1420.0456,1544.5335,1425.6993,1538.8798,1425.512,1547.95,1429.35" style="stroke:#181818;stroke-width:1.0;"/><text fill="#000000" font-family="Roboto" font-size="13" lengthAdjust="spacing" textLength="70.6304" x="1399.9163" y="1299.0605">enqueue job</text><text fill="#000000" font-family="Roboto" font-size="13" lengthAdjust="spacing" textLength="106.4629" x="1382" y="1314.2949">(BackgroundTask)</text></g><!--link worker to redis--><g id="link_worker_redis"><path d="M875.96,1123.68 C947.32,1188.68 1097.15,1325.13 1098,1325.5 C1246.87,1390.22 1313.69,1289.51 1462,1355.5 C1498.29,1371.65 1526.6044,1399.0496 1548.3244,1424.7196 " fill="none" id="worker-to-redis" style="stroke:#181818;stroke-width:1.0;"/><polygon fill="#181818" points="1552.2,1429.3,1549.4402,1419.8457,1548.9704,1425.483,1543.333,1425.0131,1552.2,1429.3" style="stroke:#181818;stroke-width:1.0;"/><text fill="#000000" font-family="Roboto" font-size="13" lengthAdjust="spacing" textLength="70.7827" x="1099" y="1306.5605">dequeue job</text></g><!--link worker to orchestrator--><g id="link_worker_orchestrator"><path d="M915.63,1096.5 C1044.94,1110.66 1310.25,1153.77 1493,1278.5 C1514.73,1293.33 1505.82,1313.06 1529,1325.5 C1615.35,1371.85 1875.66,1325.62 1969,1355.5 C2016.17,1370.6 2058.7804,1396.8909 2093.4004,1421.9609 " fill="none" id="worker-to-orchestrator" style="stroke:#181818;stroke-width:1.0;"/><polygon fill="#181818" points="2098.26,1425.48,2093.3166,1416.9616,2094.2103,1422.5474,2088.6245,1423.4411,2098.26,1425.48" style="stroke:#181818;stroke-width:1.0;"/><text fill="#000000" font-family="Roboto" font-size="13" lengthAdjust="spacing" textLength="94.6626" x="1530" y="1299.0605">generate_story()</text><text fill="#000000" font-family="Roboto" font-size="13" lengthAdjust="spacing" textLength="92.9805" x="1530.8411" y="1314.2949">or fill_skeleton()</text></g><!--link worker to moderation_comp--><g id="link_worker_moderation_comp"><path d="M915.73,1098.9 C1060.39,1117.69 1381.21,1169 1629,1278.5 C1662.94,1293.5 1662.83,1313.66 1698,1325.5 C1821.16,1366.95 2160.13,1310.39 2282,1355.5 C2326.45,1371.95 2363.9895,1402.9957 2391.1895,1429.5857 " fill="none" id="worker-to-moderation_comp" style="stroke:#181818;stroke-width:1.0;"/><polygon fill="#181818" points="2395.48,1433.78,2391.8405,1424.6283,2391.9046,1430.2848,2386.2481,1430.3489,2395.48,1433.78" style="stroke:#181818;stroke-width:1.0;"/><text fill="#000000" font-family="Roboto" font-size="13" lengthAdjust="spacing" textLength="95.4307" x="1699" y="1306.5605">post-gate review</text></g><!--link worker to openrouter--><g id="link_worker_openrouter"><path d="M762.13,1103.56 C650.13,1125.99 438.81,1178.59 286,1278.5 C217.49,1323.29 161.5093,1396.3996 133.5193,1436.7596 " fill="none" id="worker-to-openrouter" style="stroke:#181818;stroke-width:1.0;"/><polygon fill="#181818" points="130.1,1441.69,138.5158,1436.5739,132.9494,1437.5813,131.942,1432.0149,130.1,1441.69" style="stroke:#181818;stroke-width:1.0;"/><text fill="#000000" font-family="Roboto" font-size="13" lengthAdjust="spacing" textLength="113.731" x="287" y="1299.0605">provider.complete()</text><text fill="#000000" font-family="Roboto" font-size="13" lengthAdjust="spacing" textLength="99.8042" x="293.9634" y="1314.2949">(default provider)</text></g><!--link worker to extra_providers--><g id="link_worker_extra_providers"><path d="M762.37,1111.08 C676.54,1137.94 537.5,1191.61 446,1278.5 C399.53,1322.63 371.1411,1386.8115 356.1211,1428.1015 " fill="none" id="worker-to-extra_providers" style="stroke:#181818;stroke-width:1.0;stroke-dasharray:7.0,7.0;"/><polygon fill="#181818" points="354.07,1433.74,360.9057,1426.6496,355.7793,1429.0412,353.3877,1423.9148,354.07,1433.74" style="stroke:#181818;stroke-width:1.0;"/><text fill="#000000" font-family="Roboto" font-size="13" lengthAdjust="spacing" textLength="113.731" x="474.498" y="1299.0605">provider.complete()</text><text fill="#000000" font-family="Roboto" font-size="13" lengthAdjust="spacing" textLength="168.7271" x="447" y="1314.2949">(admin-selected job override)</text></g><!--link worker to ollama--><g id="link_worker_ollama"><path d="M805.49,1123.81 C757.49,1172.94 667.41,1267.81 599,1355.5 C576.83,1383.91 557.3741,1413.5846 542.8541,1436.7746 " fill="none" id="worker-to-ollama" style="stroke:#181818;stroke-width:1.0;stroke-dasharray:7.0,7.0;"/><polygon fill="#181818" points="539.67,1441.86,547.8365,1436.3547,542.3234,1437.6222,541.0559,1432.1091,539.67,1441.86" style="stroke:#181818;stroke-width:1.0;"/><text fill="#000000" font-family="Roboto" font-size="13" lengthAdjust="spacing" textLength="45.6777" x="663" y="1306.5605">fallback</text></g><!--link worker to postgres--><g id="link_worker_postgres"><path d="M845.05,1123.63 C854.49,1170.88 875.54,1258.6 912,1325.5 C917.46,1335.53 920.3054,1340.5526 926.9954,1350.3026 " fill="none" id="worker-to-postgres" style="stroke:#181818;stroke-width:1.0;"/><polygon fill="#181818" points="930.39,1355.25,928.5963,1345.5659,927.5611,1351.1272,921.9998,1350.0921,930.39,1355.25" style="stroke:#181818;stroke-width:1.0;"/><text fill="#000000" font-family="Roboto" font-size="13" lengthAdjust="spacing" textLength="128.4321" x="913" y="1299.0605">update GenerationJob</text><text fill="#000000" font-family="Roboto" font-size="13" lengthAdjust="spacing" textLength="120.1865" x="917.1228" y="1314.2949">session pooler :5432</text></g><!--link worker to minio--><g id="link_worker_minio"><path d="M814.37,1123.69 C789.51,1159.88 752.62,1220.09 737,1278.5 C722.89,1331.3 724.5194,1389.3909 727.7294,1427.7309 " fill="none" id="worker-to-minio" style="stroke:#181818;stroke-width:1.0;stroke-dasharray:7.0,7.0;"/><polygon fill="#181818" points="728.23,1433.71,731.4652,1424.4076,727.8128,1428.7274,723.4931,1425.0751,728.23,1433.71" style="stroke:#181818;stroke-width:1.0;"/><text fill="#000000" font-family="Roboto" font-size="13" lengthAdjust="spacing" textLength="102.8003" x="738" y="1299.0605">[planned Phase 5]</text><text fill="#000000" font-family="Roboto" font-size="13" lengthAdjust="spacing" textLength="79.7583" x="749.521" y="1314.2949">blob_ref store</text></g><!--link backend to r2--><g id="link_backend_r2"><path d="M2004.9347,1094.2983 C2000.3643,1096.8073 1994.0337,1100.3875 1986.4173,1104.9631 C1971.1847,1114.1144 1950.8094,1127.2475 1929.0888,1143.7575 C1885.6475,1176.7775 1836.825,1223.305 1813,1278.5 C1792.59,1325.79 1803.0152,1379.9074 1815.7152,1419.4474 " fill="none" id="backend-to-r2" style="stroke:#181818;stroke-width:1.0;stroke-dasharray:7.0,7.0;"/><polygon fill="#181818" points="1817.55,1425.16,1818.6061,1415.3679,1816.021,1420.3995,1810.9894,1417.8144,1817.55,1425.16" style="stroke:#181818;stroke-width:1.0;"/><text fill="#000000" font-family="Roboto" font-size="13" lengthAdjust="spacing" textLength="87.9214" x="1873.4204" y="1299.0605">cover art WebP</text><text fill="#000000" font-family="Roboto" font-size="13" lengthAdjust="spacing" textLength="206.7622" x="1814" y="1314.2949">(covers/worker.py RQ job, ADR-017)</text></g><!--link backend to supabase_auth--><g id="link_backend_supabase_auth"><path d="M4011.5036,1284.4335 C4011.7149,1284.5945 4011.9256,1284.756 4012.1358,1284.9183 C4012.5562,1285.2428 4012.9745,1285.5698 4013.3907,1285.8995 C4016.7208,1288.5365 4019.919,1291.3368 4022.9904,1294.2788 C4029.1332,1300.1627 4034.7685,1306.6131 4039.9364,1313.4569 C4050.2722,1327.1444 4058.7381,1342.405 4065.6538,1357.8525 C4079.485,1388.7475 4086.0116,1414.4923 4089.9966,1435.7923 " fill="none" id="backend-to-supabase_auth" style="stroke:#181818;stroke-width:1.0;"/><polygon fill="#181818" points="4091.1,1441.69,4093.3767,1432.1079,4090.1805,1436.7753,4085.5131,1433.5791,4091.1,1441.69" style="stroke:#181818;stroke-width:1.0;"/><text fill="#000000" font-family="Roboto" font-size="13" lengthAdjust="spacing" textLength="88.7974" x="4100.4028" y="1291.5605">OIDC validation</text><text fill="#000000" font-family="Roboto" font-size="13" lengthAdjust="spacing" textLength="171.0122" x="4059.2954" y="1306.7949">[local: token-as-subject seam;</text><text fill="#000000" font-family="Roboto" font-size="13" lengthAdjust="spacing" textLength="195.603" x="4047" y="1322.0293">non-local: verified Supabase JWT]</text></g><!--link minio to GMN61--><g id="link_minio_GMN61"><path d="M751.05,1433.86 C775.46,1393.49 821.96,1328.88 882.5,1302 C1003.14,1248.43 1058.86,1248.43 1179.5,1302 C1239.51,1328.65 1285.72,1392.35 1310.3,1432.78 " fill="none" id="minio-GMN61" style="stroke:#181818;stroke-width:1.0;stroke-dasharray:7.0,7.0;"/></g><!--SRC=[fLbjRziu4lxkNp58FzH1hBX9cckRnGPm_5AabpPUEstla0G6BT6s6fdKaR9Jut3__PuX9LbodTqFws9Rcvmt3cUUcU6-fj__ngVnchflwKQkPKAd551Ngqp4IXhgnM9kn989_drBdMWjLROoyeB2WiIIK15b2naRYbKcZGYpM2lRU0sciLwPKD8iJgIzm6yYQy9skD4JKOXgYpGzJZUq_JG7mcQTuJLXXvvZ4wlvuOkySPkgdwRHAzXWNsAOIvWisC3sipPFqZZLpT4Vv7- -n1Tg_1M9J4o5bSpJ57QZGXh_STD9meLSRZpdpC0lKaLj9oA9mLut4Cfo6sH4jwbKV51Fk4U2diqIEBdDkeupMqZ8b-a_AxcIdYtIeMsdYL0AxcfdCbm4DfNXyJBQioqYm_y5RzwS1bvta3wBlw9z6opqKYPY6inYOxCWaccYDqjm_nNdXy2kKkUw0BlPJ9ibMAWvpbVfzhhN9GDv8fIMEYk4ayhYfz-SLCYLOMnnPmZEtwba6cgRpGteXUNu8vtcLoiIAgvgdtFC2KoVIMDaX2_JB31o7bj4ZRFfJjWdEZb-Tx57KRZAz5gQmYm8ceiK7jGMCS97KomYXaKcNCHh6RKuJwnEuiZTzq8QPz7VojM6VOfLAf2LyCjCh99iW8Zv8fQI3aPwgZDzK26PYl1fZgHGKLSdsj2hGOV_L2ZoJSFf_hugtSWm4sgUIFflW-XAcqYQNCYv-s2LLUThf-xJ-5-Z0GJ0ma5t4ISHZQG0tm5VKkWMNlNF1gU3Na7rSILC50lbAERv3n2z7vptFnH4dMWPgmVLd2TwYjkrOYQpJNxXshGUL6YqjS5CBEDaqw9ERuIeEpzqCWNpGc2l_sxmZmQy7mG13Rzt-D_6zem7l5G2tuEwX-5XHYSVMdItIUKuD76QjUXRdCd71pMM1jVBucs6c0lnpShCEeL8fUAGpdCL7TuPzFNwGTNotBZrjcFtt-bLhzVl3mPr_fjuQeJP_2g0WT1n9vvYiehtInWcOiF7gt6dRh7zeEx69DSYMR5NwOZ-DSRX92q5Rav9VpX7-gBusnoPRlPeAS3iGLshIFwKKUyAEfuDFEgHp2aei6sl-8ybT39iTXrqxMWfGFV-wklrJOzklzuDlzuzEg9b2RYM8LlGEXR8oKq0x_dmashY-N61R_WFXxEFc2ia4dJiHarHg_9jnCrmaoq0LMV79szRb6-tQBY9XE90MP_2c5yBZDC_pNNaqRyRFQndvEiRDK_V7pues9MkfWd4jYcE63EH5a7me1PI9DcYHKlP8gsccjDApHt3Kno1EZMQgt9WGsHHv7Zoq6cv20Hr-MMo03ngjuDOLtEBX8DPUWdiZnpYsXRD4Z67MKS-tNnbSlhAd6OTs_fRag8QX1Af6oU7hS8ire2CYkUAomkaE_qJ8o7NPhjgGAnq5i_Yi3368St4IclzxqYkur1EqCf0chFAyzzxG7bqjg7TC1hHpw0DbESpCPx4i8R4AeepTeWDZPGA6fSwoayooHPON-Wa0c5bEH9suJmFQfQC2p8JaIJwEO4_Mzw4oSewLVv7vVWUooQe7qhwZWgdBdt9POLRXifPaB75Tg2VLGw6xcGAHaqaJk019W-XLzrklz_jxiGOQY-DfLYoF-8sQhn5k_EWXcZ3mZW5-BOfbzo69B0SeU1DH07GkGNv5UJdAYuW1sHMiLVvc6zvglKJzVHIi41RhBJPiOctPRjOWjNEEjo3qy9fM3_mA9rlJIB0m5xb7Xcfh-Q07zoOnqJfVZhnenNo2rLs3EZWLBQqFg5cYkmzh48ZEFOh-2PS7u1x-WW8Ur3hudTxZjzEnSt9qH3TGhWvkZaz6jqSZJk3FZcnlhIKBFirVDncroqw4AIAgu_Lj6lhoeRJEUFWdLGJ4wW_bzG9Bg-2oov23EhiaqnaXg16U2RKvBydnPe_VLNkVki-bwbHpPvs6gSoyJvkqJQLl6t8cGIOXinVn_BPaQ1D5B4fBhQIRm2az8MhPOoq2uU0QVczpQLRJlBgvlHv290KN59EHtmtrAnr55iHVwOpFnRr6UBfHaEtvA-sxKgUcppklu-3tgFJ2oWDj49Q9V5CXfiGCXpeE8sUyK-qVOwZA97FmY2kbkLt7biCElOy4sfRLeOhsB4f7LbkbHhAsbU9g-zkJDgjWhyGSFzKp5GCwcZhxMCj3ilnosdFALyD1eCpLDrSRmzTl4jTzDwiiUZgWHIxlJaKVXOASHjHxwhe03zK9WVNjBbwGAa6RXcwE7zxTahDl4guI4AmdvxIxUWpGH7Fh0zgaFUK_jzk2SSju81njU4h41o0xThTeGTmR1Q0K_dw3MdCd80INrXTUzL2rxbCaKbEwCXLM92KN9so3ZAb2YNQq7nxvEjXYxQfTLSaKFEem-73nN6xEvQP4qz5TBhWR36y-_h4f4cdg54L6TiR_gIdBUevFF_8zRH5_uoZ0Qg_purYLa83DNY7GQDoQIEK8BueIA2fqRXmN0h2n5LnxWEeWa8_zDJc_J2uodwiKGjwTNqBURVJ7rXqWO80u6BZfpiQBbZl-MF5cpH5nRUkynkVSHUP1x-AzLuTtKIl8lGsI8lHwHvTNaWUS2VleAfpxVi7384PVPVJuM-knqM3IbEaeEyjAgyFS03EYZXSn421o4ECETrQutEX_nEOmQFjpSrdkvj_tDVwpf0RK1ClUKW0OQiO4IaKDiHSyUYn6kI-2q36dVNF1-TLOHq55DQfQoeH3oA1J3U01HQ07xhC88nU0SpUTZQKI3I6143hqd1quXN9doW8auB4xjDscoHYAQ3YHeSutGmD4hV1kQ5kas6XVzNlLzbA0E26XU_bkjSjqzup5syE4zzm5F7etJdAOP6zxjtffzC0qEydi4QbSRsip5KDtsxL5-c23doDGZ-KLv5AGuBUhJgX7XuqyYcFfPGZLMCxNF5wCGb1TE9yu-eL8WW5InuqAiEACphlwa0zwe_lo8s4wnFqP5SIqMieGyAXLZSAiSV7bzM11tm-3zqp30ArwOhE1DC2xcwPQWHmw2pF5R5IvrbmzYJNBzlSsQxs1BMDie-fhTQQjDhEjhMgBUyK_pfBlKZNzghb5DRx4RG6YJY-vHSLsAwiVz74sQRb37Yv1Je8s7qB9225tLDiwX8yi85TAkzvbq_Dg_B5Xf-YeFMvABaLbaYMB3M2MXS6kkAjSU9ys_JDNArxQzOrxFPJaC4d3LmRv2Eyhd0B9KoQP_fnw4kQP8tD0eEAtQr6Zi5TZ7XHZAXW4C2TGPEnr82oBZ573GWgqAHcSlNcLYc_p56jkhrqTnKDlbw0_zwzAjPA3HSOzAiptxXihvpv0EjWgfS7dEo5cb1MbPtGgmCR1BhdqpodN7jzxm3ZmkTy86nWLtdTmcJt6m-4AiX9e1cJCqvG8kgdxtUF1uq6Hcf9Kvrb69Zqh08Lw3n7Slk8xHvM5bcMNhJRJkO2_hru_-RDcpO71s3e-8VL2bmekXUaqYMPbIfAlGnAeLyaksKXq0ZphEh_hm7n2y6Uzvq6EuDDp0qryNoHiPtkQY3DNyZ9XIlu_Yw0P8ep7Bkut2tQh7rVTkmecv_6jr-k3ez1LDvag9FLKl7qxv_zqAfWsxKVfBrZd-I6cdaGWBcqxly0]--></g></svg>
