<?plantuml 1.2026.2?><svg xmlns="http://www.w3.org/2000/svg" xmlns:xlink="http://www.w3.org/1999/xlink" contentStyleType="text/css" data-diagram-type="DESCRIPTION" height="1199px" preserveAspectRatio="none" style="width:3121px;height:1199px;background:#FAFAFA;" version="1.1" viewBox="0 0 3121 1199" width="3121px" zoomAndPan="magnify"><defs/><g><rect fill="#FAFAFA" height="1199" style="stroke:none;stroke-width:1;" width="3121" x="0" y="0"/><!--cluster pwa--><g class="cluster" data-qualified-name="pwa" data-source-line="31" id="ent0004"><rect fill="#E3F2FD" height="587.27" rx="4" ry="4" style="stroke:#555555;stroke-width:1;" width="365" x="1845.69" y="128.8"/><text fill="#222222" font-family="'Roboto'" font-size="14" font-weight="bold" lengthAdjust="spacing" textLength="118.5762" x="1968.9019" y="143.7951">PWA Container</text><text fill="#222222" font-family="'Roboto'" font-size="14" font-weight="bold" lengthAdjust="spacing" textLength="219.0645" x="1918.6578" y="160.092">[React 19, TypeScript, Vite]</text><text fill="#222222" font-family="'Roboto'" font-size="14" font-weight="bold" lengthAdjust="spacing" textLength="182.4238" x="1936.9781" y="176.3889">Served as static assets</text></g><!--cluster backend--><g class="cluster" data-qualified-name="backend" data-source-line="40" id="ent0010"><rect fill="#E8F5E9" height="389.02" rx="4" ry="4" style="stroke:#555555;stroke-width:1;" width="1179" x="295.69" y="788.07"/><text fill="#222222" font-family="'Roboto'" font-size="14" font-weight="bold" lengthAdjust="spacing" textLength="132.4258" x="818.9771" y="803.0651">FastAPI Backend</text><text fill="#222222" font-family="'Roboto'" font-size="14" font-weight="bold" lengthAdjust="spacing" textLength="280.9229" x="744.7286" y="819.362">[Python 3.12, FastAPI, Pydantic v2]</text><text fill="#222222" font-family="'Roboto'" font-size="14" font-weight="bold" lengthAdjust="spacing" textLength="148.9209" x="810.7296" y="835.6589">src/cyo_adventure/</text></g><!--entity reader--><g class="entity" data-qualified-name="pwa.reader" data-source-line="32" id="ent0005"><rect fill="#DDEEFF" height="52.5938" rx="4" ry="4" style="stroke:#555555;stroke-width:0.5;" width="161.0869" x="1862.15" y="195.8"/><text fill="#222222" font-family="'Roboto'" font-size="14" lengthAdjust="spacing" textLength="69.002" x="1872.15" y="218.7951">Reader UI</text><text fill="#222222" font-family="'Roboto'" font-size="14" lengthAdjust="spacing" textLength="141.0869" x="1872.15" y="235.092">frontend/src/reader/</text></g><!--entity library_ui--><g class="entity" data-qualified-name="pwa.library_ui" data-source-line="33" id="ent0006"><rect fill="#DDEEFF" height="52.5938" rx="4" ry="4" style="stroke:#555555;stroke-width:0.5;" width="136.2383" x="2058.57" y="195.8"/><text fill="#222222" font-family="'Roboto'" font-size="14" lengthAdjust="spacing" textLength="67.7783" x="2068.57" y="218.7951">Library UI</text><text fill="#222222" font-family="'Roboto'" font-size="14" lengthAdjust="spacing" textLength="116.2383" x="2068.57" y="235.092">frontend/src/api/</text></g><!--entity player_ui--><g class="entity" data-qualified-name="pwa.player_ui" data-source-line="34" id="ent0007"><rect fill="#DDEEFF" height="68.8906" rx="4" ry="4" style="stroke:#555555;stroke-width:0.5;" width="240.4111" x="1869.49" y="309.39"/><text fill="#222222" font-family="'Roboto'" font-size="14" lengthAdjust="spacing" textLength="43.5654" x="1879.49" y="332.3851">Player</text><text fill="#222222" font-family="'Roboto'" font-size="14" lengthAdjust="spacing" textLength="138.8926" x="1879.49" y="348.682">frontend/src/player/</text><text fill="#222222" font-family="'Roboto'" font-size="14" lengthAdjust="spacing" textLength="220.4111" x="1879.49" y="364.9789">TS evaluator + XState machine</text></g><!--entity offline--><g class="entity" data-qualified-name="pwa.offline" data-source-line="35" id="ent0008"><rect fill="#DDEEFF" height="68.8906" rx="4" ry="4" style="stroke:#555555;stroke-width:0.5;" width="200.8105" x="1894.29" y="470.29"/><text fill="#222222" font-family="'Roboto'" font-size="14" lengthAdjust="spacing" textLength="89.626" x="1904.29" y="493.2851">Offline Layer</text><text fill="#222222" font-family="'Roboto'" font-size="14" lengthAdjust="spacing" textLength="138.5713" x="1904.29" y="509.582">frontend/src/offline/</text><text fill="#222222" font-family="'Roboto'" font-size="14" lengthAdjust="spacing" textLength="180.8105" x="1904.29" y="525.8789">IndexedDB + write queue</text></g><!--entity gen_client--><g class="entity" data-qualified-name="pwa.gen_client" data-source-line="36" id="ent0009"><rect fill="#E0E0E0" height="68.8906" rx="4" ry="4" style="stroke:#555555;stroke-width:0.5;" width="272.7793" x="1861.3" y="631.18"/><text fill="#222222" font-family="'Roboto'" font-size="14" lengthAdjust="spacing" textLength="145.8516" x="1871.3" y="654.1751">Generated API Client</text><text fill="#222222" font-family="'Roboto'" font-size="14" lengthAdjust="spacing" textLength="252.7793" x="1871.3" y="670.472">frontend/src/client/ [BUILD OUTPUT]</text><text fill="#222222" font-family="'Roboto'" font-size="14" lengthAdjust="spacing" textLength="237.8564" x="1871.3" y="686.7689">from OpenAPI schema via hey-api</text></g><!--entity routers--><g class="entity" data-qualified-name="backend.routers" data-source-line="41" id="ent0011"><rect fill="#CCEECC" height="68.8906" rx="4" ry="4" style="stroke:#555555;stroke-width:0.5;" width="201.7676" x="847.81" y="863.07"/><text fill="#222222" font-family="'Roboto'" font-size="14" lengthAdjust="spacing" textLength="80.917" x="857.81" y="886.0651">API Routers</text><text fill="#222222" font-family="'Roboto'" font-size="14" lengthAdjust="spacing" textLength="172.0264" x="857.81" y="902.362">api/health.py, library.py,</text><text fill="#222222" font-family="'Roboto'" font-size="14" lengthAdjust="spacing" textLength="181.7676" x="857.81" y="918.6589">reading.py, generation.py</text></g><!--entity auth--><g class="entity" data-qualified-name="backend.auth" data-source-line="42" id="ent0012"><rect fill="#CCEECC" height="68.8906" rx="4" ry="4" style="stroke:#555555;stroke-width:0.5;" width="177.1719" x="320.11" y="1076.05"/><text fill="#222222" font-family="'Roboto'" font-size="14" lengthAdjust="spacing" textLength="76.9795" x="330.11" y="1099.0451">Auth Seam</text><text fill="#222222" font-family="'Roboto'" font-size="14" lengthAdjust="spacing" textLength="81.375" x="330.11" y="1115.342">api/deps.py</text><text fill="#222222" font-family="'Roboto'" font-size="14" lengthAdjust="spacing" textLength="157.1719" x="330.11" y="1131.6389">Principal / family / role</text></g><!--entity storybook_dom--><g class="entity" data-qualified-name="backend.storybook_dom" data-source-line="43" id="ent0013"><rect fill="#CCEECC" height="85.1875" rx="4" ry="4" style="stroke:#555555;stroke-width:0.5;" width="182.4834" x="532.45" y="1067.9"/><text fill="#222222" font-family="'Roboto'" font-size="14" lengthAdjust="spacing" textLength="129.8828" x="542.45" y="1090.8951">Storybook Domain</text><text fill="#222222" font-family="'Roboto'" font-size="14" lengthAdjust="spacing" textLength="146.7402" x="542.45" y="1107.192">storybook/models.py</text><text fill="#222222" font-family="'Roboto'" font-size="14" lengthAdjust="spacing" textLength="162.4834" x="542.45" y="1123.4889">storybook/evaluator.py</text><text fill="#222222" font-family="'Roboto'" font-size="14" lengthAdjust="spacing" textLength="160.583" x="542.45" y="1139.7857">storybook/condition.py</text></g><!--entity player_eng--><g class="entity" data-qualified-name="backend.player_eng" data-source-line="44" id="ent0014"><rect fill="#CCEECC" height="68.8906" rx="4" ry="4" style="stroke:#555555;stroke-width:0.5;" width="225.6592" x="749.86" y="1076.05"/><text fill="#222222" font-family="'Roboto'" font-size="14" lengthAdjust="spacing" textLength="95.9971" x="759.86" y="1099.0451">Player Engine</text><text fill="#222222" font-family="'Roboto'" font-size="14" lengthAdjust="spacing" textLength="118.0977" x="759.86" y="1115.342">player/engine.py</text><text fill="#222222" font-family="'Roboto'" font-size="14" lengthAdjust="spacing" textLength="205.6592" x="759.86" y="1131.6389">Runtime Semantics v1 (pure)</text></g><!--entity validator--><g class="entity" data-qualified-name="backend.validator" data-source-line="45" id="ent0015"><rect fill="#CCEECC" height="68.8906" rx="4" ry="4" style="stroke:#555555;stroke-width:0.5;" width="188.3623" x="1010.51" y="1076.05"/><text fill="#222222" font-family="'Roboto'" font-size="14" lengthAdjust="spacing" textLength="101.1924" x="1020.51" y="1099.0451">Validator Gate</text><text fill="#222222" font-family="'Roboto'" font-size="14" lengthAdjust="spacing" textLength="119.8271" x="1020.51" y="1115.342">validator/gate.py</text><text fill="#222222" font-family="'Roboto'" font-size="14" lengthAdjust="spacing" textLength="168.3623" x="1020.51" y="1131.6389">L1+L2+RL+SAFE layers</text></g><!--entity orchestrator--><g class="entity" data-qualified-name="backend.orchestrator" data-source-line="46" id="ent0016"><rect fill="#CCEECC" height="68.8906" rx="4" ry="4" style="stroke:#555555;stroke-width:0.5;" width="208.9111" x="1234.24" y="1076.05"/><text fill="#222222" font-family="'Roboto'" font-size="14" lengthAdjust="spacing" textLength="171.4385" x="1244.24" y="1099.0451">Generation Orchestrator</text><text fill="#222222" font-family="'Roboto'" font-size="14" lengthAdjust="spacing" textLength="188.9111" x="1244.24" y="1115.342">generation/orchestrator.py</text><text fill="#222222" font-family="'Roboto'" font-size="14" lengthAdjust="spacing" textLength="167.4189" x="1244.24" y="1131.6389">Stage A-&gt;B-&gt;C pipeline</text></g><!--entity middleware--><g class="entity" data-qualified-name="backend.middleware" data-source-line="47" id="ent0017"><rect fill="#CCEECC" height="68.8906" rx="4" ry="4" style="stroke:#555555;stroke-width:0.5;" width="204.2148" x="1198.59" y="863.07"/><text fill="#222222" font-family="'Roboto'" font-size="14" lengthAdjust="spacing" textLength="80.6436" x="1208.59" y="886.0651">Middleware</text><text fill="#222222" font-family="'Roboto'" font-size="14" lengthAdjust="spacing" textLength="184.2148" x="1208.59" y="902.362">middleware/correlation.py</text><text fill="#222222" font-family="'Roboto'" font-size="14" lengthAdjust="spacing" textLength="164.4385" x="1208.59" y="918.6589">middleware/security.py</text></g><!--entity child--><g class="entity" data-qualified-name="child" data-source-line="27" id="ent0002"><ellipse cx="1942.6902" cy="14" fill="#E3F2FD" rx="8" ry="8" style="stroke:#181818;stroke-width:0.5;"/><path d="M1942.6902,22 L1942.6902,49 M1929.6902,30 L1955.6902,30 M1942.6902,49 L1929.6902,64 M1942.6902,49 L1955.6902,64" fill="none" style="stroke:#181818;stroke-width:0.5;"/><text fill="#000000" font-family="'Roboto'" font-size="14" lengthAdjust="spacing" textLength="89.9404" x="1897.72" y="78.4951">Child Reader</text></g><!--entity guardian--><g class="entity" data-qualified-name="guardian" data-source-line="28" id="ent0003"><ellipse cx="2126.6926" cy="14" fill="#E8F5E9" rx="8" ry="8" style="stroke:#181818;stroke-width:0.5;"/><path d="M2126.6926,22 L2126.6926,49 M2113.6926,30 L2139.6926,30 M2126.6926,49 L2113.6926,64 M2126.6926,49 L2139.6926,64" fill="none" style="stroke:#181818;stroke-width:0.5;"/><text fill="#000000" font-family="'Roboto'" font-size="14" lengthAdjust="spacing" textLength="64.2852" x="2094.55" y="78.4951">Guardian</text></g><!--entity worker--><g class="entity" data-qualified-name="worker" data-source-line="51" id="ent0018"><rect fill="#FFF3E0" height="68.8906" rx="4" ry="4" style="stroke:#555555;stroke-width:0.5;" width="170.7256" x="2026.33" y="863.07"/><text fill="#222222" font-family="'Roboto'" font-size="14" lengthAdjust="spacing" textLength="133.1914" x="2036.33" y="886.0651">Generation Worker</text><text fill="#222222" font-family="'Roboto'" font-size="14" lengthAdjust="spacing" textLength="142.9258" x="2036.33" y="902.362">[RQ worker process]</text><text fill="#222222" font-family="'Roboto'" font-size="14" lengthAdjust="spacing" textLength="150.7256" x="2036.33" y="918.6589">generation/worker.py</text></g><!--entity postgres--><g class="entity" data-qualified-name="postgres" data-source-line="54" id="ent0019"><path d="M1920.63,1048.96 C1920.63,1038.96 2034.6969,1038.96 2034.6969,1038.96 C2034.6969,1038.96 2148.7638,1038.96 2148.7638,1048.96 L2148.7638,1172.0381 C2148.7638,1182.0381 2034.6969,1182.0381 2034.6969,1182.0381 C2034.6969,1182.0381 1920.63,1182.0381 1920.63,1172.0381 L1920.63,1048.96" fill="#FFF8E1" style="stroke:#181818;stroke-width:0.5;"/><path d="M1920.63,1048.96 C1920.63,1058.96 2034.6969,1058.96 2034.6969,1058.96 C2034.6969,1058.96 2148.7638,1058.96 2148.7638,1048.96" fill="none" style="stroke:#181818;stroke-width:0.5;"/><text fill="#000000" font-family="'Roboto'" font-size="14" lengthAdjust="spacing" textLength="103.0176" x="1930.63" y="1075.9551">PostgreSQL 16</text><text fill="#000000" font-family="'Roboto'" font-size="14" lengthAdjust="spacing" textLength="117.8994" x="1930.63" y="1092.252">[Operational DB]</text><text fill="#000000" font-family="'Roboto'" font-size="14" lengthAdjust="spacing" textLength="98.1025" x="1930.63" y="1108.5489">9 ORM tables:</text><text fill="#000000" font-family="'Roboto'" font-size="14" lengthAdjust="spacing" textLength="179.8945" x="1930.63" y="1124.8457">Family, User, ChildProfile,</text><text fill="#000000" font-family="'Roboto'" font-size="14" lengthAdjust="spacing" textLength="208.1338" x="1930.63" y="1141.1426">Storybook, StorybookVersion,</text><text fill="#000000" font-family="'Roboto'" font-size="14" lengthAdjust="spacing" textLength="188.0498" x="1930.63" y="1157.4395">ReadingState, Completion,</text><text fill="#000000" font-family="'Roboto'" font-size="14" lengthAdjust="spacing" textLength="166.4824" x="1930.63" y="1173.7364">Concept, GenerationJob</text></g><!--entity redis--><g class="entity" data-qualified-name="redis" data-source-line="56" id="ent0020"><path d="M1552.48,1081.55 C1552.48,1071.55 1665.6958,1071.55 1665.6958,1071.55 C1665.6958,1071.55 1778.9116,1071.55 1778.9116,1081.55 L1778.9116,1139.4406 C1778.9116,1149.4406 1665.6958,1149.4406 1665.6958,1149.4406 C1665.6958,1149.4406 1552.48,1149.4406 1552.48,1139.4406 L1552.48,1081.55" fill="#E0E0E0" style="stroke:#181818;stroke-width:0.5;"/><path d="M1552.48,1081.55 C1552.48,1091.55 1665.6958,1091.55 1665.6958,1091.55 C1665.6958,1091.55 1778.9116,1091.55 1778.9116,1081.55" fill="none" style="stroke:#181818;stroke-width:0.5;"/><text fill="#000000" font-family="'Roboto'" font-size="14" lengthAdjust="spacing" textLength="38.4111" x="1562.48" y="1108.5451">Redis</text><text fill="#000000" font-family="'Roboto'" font-size="14" lengthAdjust="spacing" textLength="82.6396" x="1562.48" y="1124.842">[Job broker]</text><text fill="#000000" font-family="'Roboto'" font-size="14" lengthAdjust="spacing" textLength="206.4316" x="1562.48" y="1141.1389">RQ queue for generation jobs</text></g><!--entity minio--><g class="entity" data-qualified-name="minio" data-source-line="58" id="ent0021"><rect fill="#E0E0E0" height="68.8906" rx="4" ry="4" style="stroke:#555555;stroke-width:0.5;" width="262.7168" x="2565.33" y="1076.05"/><text fill="#222222" font-family="'Roboto'" font-size="14" lengthAdjust="spacing" textLength="39.9902" x="2575.33" y="1099.0451">MinIO</text><text fill="#222222" font-family="'Roboto'" font-size="14" lengthAdjust="spacing" textLength="242.7168" x="2575.33" y="1115.342">[Object storage, deferred Phase 5]</text><text fill="#222222" font-family="'Roboto'" font-size="14" lengthAdjust="spacing" textLength="187.127" x="2575.33" y="1131.6389">Storybook blobs via S3 API</text></g><!--entity openrouter--><g class="entity" data-qualified-name="openrouter" data-source-line="61" id="ent0022"><rect fill="#F3E5F5" height="52.5938" rx="4" ry="4" style="stroke:#555555;stroke-width:0.5;" width="117.3984" x="2236.99" y="1084.2"/><text fill="#222222" font-family="'Roboto'" font-size="14" lengthAdjust="spacing" textLength="84.417" x="2246.99" y="1107.1951">OpenRouter</text><text fill="#222222" font-family="'Roboto'" font-size="14" lengthAdjust="spacing" textLength="97.3984" x="2246.99" y="1123.492">[Primary LLM]</text></g><!--entity ollama--><g class="entity" data-qualified-name="ollama" data-source-line="62" id="ent0023"><rect fill="#FFEBEE" height="52.5938" rx="4" ry="4" style="stroke:#555555;stroke-width:0.5;" width="126.4629" x="2403.46" y="1084.2"/><text fill="#222222" font-family="'Roboto'" font-size="14" lengthAdjust="spacing" textLength="49.5947" x="2413.46" y="1107.1951">Ollama</text><text fill="#222222" font-family="'Roboto'" font-size="14" lengthAdjust="spacing" textLength="106.4629" x="2413.46" y="1123.492">[Local fallback]</text></g><!--entity supabase_auth--><g class="entity" data-qualified-name="supabase_auth" data-source-line="63" id="ent0024"><rect fill="#E0F7FA" height="52.5938" rx="4" ry="4" style="stroke:#555555;stroke-width:0.5;" width="137.3867" x="7" y="1084.2"/><text fill="#222222" font-family="'Roboto'" font-size="14" lengthAdjust="spacing" textLength="68.5986" x="17" y="1107.1951">Supabase</text><text fill="#222222" font-family="'Roboto'" font-size="14" lengthAdjust="spacing" textLength="117.3867" x="17" y="1123.492">[OIDC, ADR-009]</text></g><g class="entity" data-qualified-name="GMN45" data-source-line="88" id="ent0046"><path d="M2232.2,873.81 L2232.2,921.2084 A4,4 0 0 0 2236.2,925.2084 L2595.1854,925.2084 A4,4 0 0 0 2599.1854,921.2084 L2599.1854,879.81 L2589.1854,869.81 L2236.2,869.81 A4,4 0 0 0 2232.2,873.81" fill="#FEFFDD" style="stroke:#181818;stroke-width:0.5;"/><path d="M2589.1854,869.81 L2589.1854,877.81 A2,2 0 0 0 2591.1854,879.81 L2599.1854,879.81 L2589.1854,869.81" fill="#FEFFDD" style="stroke:#181818;stroke-width:1;"/><text fill="#000000" font-family="'Roboto'" font-size="13" lengthAdjust="spacing" textLength="345.9854" x="2238.2" y="886.8769">Regenerated from http://localhost:8000/openapi.json</text><text fill="#000000" font-family="'Roboto'" font-size="13" lengthAdjust="spacing" textLength="186.3164" x="2238.2" y="902.0097">via: npm run generate-client</text><text fill="#000000" font-family="'Roboto'" font-size="13" lengthAdjust="spacing" textLength="279.8682" x="2238.2" y="917.1425">Never hand-edit files in frontend/src/client/</text></g><g class="entity" data-qualified-name="GMN48" data-source-line="94" id="ent0049"><path d="M2862.91,1079.23 L2862.91,1106.5 L2828.44,1110.5 L2862.91,1114.5 L2862.91,1141.7613 A4,4 0 0 0 2866.91,1145.7613 L3110.4696,1145.7613 A4,4 0 0 0 3114.4696,1141.7613 L3114.4696,1085.23 L3104.4696,1075.23 L2866.91,1075.23 A4,4 0 0 0 2862.91,1079.23" fill="#FEFFDD" style="stroke:#181818;stroke-width:0.5;"/><path d="M3104.4696,1075.23 L3104.4696,1083.23 A2,2 0 0 0 3106.4696,1085.23 L3114.4696,1085.23 L3104.4696,1075.23" fill="#FEFFDD" style="stroke:#181818;stroke-width:0.5;"/><text fill="#000000" font-family="'Roboto'" font-size="13" lengthAdjust="spacing" textLength="172.7959" x="2868.91" y="1092.2969">Phase 1: blob stored inline</text><text fill="#000000" font-family="'Roboto'" font-size="13" lengthAdjust="spacing" textLength="230.5596" x="2868.91" y="1107.4297">on storybook_version.blob (JSONB).</text><text fill="#000000" font-family="'Roboto'" font-size="13" lengthAdjust="spacing" textLength="188.0176" x="2868.91" y="1122.5625">blob_ref column reserved for</text><text fill="#000000" font-family="'Roboto'" font-size="13" lengthAdjust="spacing" textLength="178.3057" x="2868.91" y="1137.6953">MinIO object key (Phase 5).</text></g><!--link child to reader--><g class="link" data-entity-1="ent0002" data-entity-2="ent0005" data-link-type="dependency" data-source-line="66" id="lnk25"><path d="M1942.69,82.07 C1942.69,116.16 1942.69,159.61 1942.69,189.42" fill="none" id="child-to-reader" style="stroke:#181818;stroke-width:1;"/><polygon fill="#181818" points="1942.69,195.42,1946.69,186.42,1942.69,190.42,1938.69,186.42,1942.69,195.42" style="stroke:#181818;stroke-width:1;"/></g><!--link guardian to library_ui--><g class="link" data-entity-1="ent0003" data-entity-2="ent0006" data-link-type="dependency" data-source-line="67" id="lnk26"><path d="M2126.69,82.07 C2126.69,116.16 2126.69,159.61 2126.69,189.42" fill="none" id="guardian-to-library_ui" style="stroke:#181818;stroke-width:1;"/><polygon fill="#181818" points="2126.69,195.42,2130.69,186.42,2126.69,190.42,2122.69,186.42,2126.69,195.42" style="stroke:#181818;stroke-width:1;"/></g><!--link reader to player_ui--><g class="link" data-entity-1="ent0005" data-entity-2="ent0007" data-link-type="dependency" data-source-line="68" id="lnk27"><path d="M1952.78,248.79 C1959.68,266.38 1966.719,284.3044 1974.219,303.4244" fill="none" id="reader-to-player_ui" style="stroke:#181818;stroke-width:1;"/><polygon fill="#181818" points="1976.41,309.01,1976.8472,299.1709,1974.5841,304.3553,1969.3997,302.0922,1976.41,309.01" style="stroke:#181818;stroke-width:1;"/></g><!--link player_ui to offline--><g class="link" data-entity-1="ent0007" data-entity-2="ent0008" data-link-type="dependency" data-source-line="69" id="lnk28"><path d="M1990.75,378.54 C1991.6,405.41 1992.5907,436.883 1993.4407,463.813" fill="none" id="player_ui-to-offline" style="stroke:#181818;stroke-width:1;"/><polygon fill="#181818" points="1993.63,469.81,1997.3441,460.6883,1993.4723,464.8125,1989.3481,460.9407,1993.63,469.81" style="stroke:#181818;stroke-width:1;"/><text fill="#000000" font-family="'Roboto'" font-size="13" lengthAdjust="spacing" textLength="67.355" x="1993.64" y="421.3569">local state</text><text fill="#000000" font-family="'Roboto'" font-size="13" lengthAdjust="spacing" textLength="38.4985" x="2008.0682" y="436.4897">cache</text></g><!--link gen_client to routers--><g class="link" data-entity-1="ent0009" data-entity-2="ent0011" data-link-type="dependency" data-source-line="70" id="lnk29"><path d="M1861.05,669.2 C1696.1,675.71 1412.04,697.87 1180.69,772.07 C1114.1,793.42 1049.2998,830.4753 1003.8598,859.4353" fill="none" id="gen_client-to-routers" style="stroke:#181818;stroke-width:1;"/><polygon fill="#181818" points="998.8,862.66,1008.5395,861.1961,1003.0165,859.9727,1004.2398,854.4498,998.8,862.66" style="stroke:#181818;stroke-width:1;"/><text fill="#000000" font-family="'Roboto'" font-size="13" lengthAdjust="spacing" textLength="82.126" x="1317.6283" y="745.1369">REST /api/v1</text><text fill="#000000" font-family="'Roboto'" font-size="13" lengthAdjust="spacing" textLength="94.6626" x="1311.36" y="760.2697">(Bearer token)</text></g><!--link offline to gen_client--><g class="link" data-entity-1="ent0008" data-entity-2="ent0009" data-link-type="dependency" data-source-line="71" id="lnk30"><path d="M1995.33,539.43 C1995.84,566.3 1996.4264,597.7711 1996.9364,624.7011" fill="none" id="offline-to-gen_client" style="stroke:#181818;stroke-width:1;stroke-dasharray:7,7;"/><polygon fill="#181818" points="1997.05,630.7,2000.8789,621.6259,1996.9553,625.7009,1992.8803,621.7774,1997.05,630.7" style="stroke:#181818;stroke-width:1;"/><text fill="#000000" font-family="'Roboto'" font-size="13" lengthAdjust="spacing" textLength="85.7251" x="2031.8833" y="582.2469">queue replay</text><text fill="#000000" font-family="'Roboto'" font-size="13" lengthAdjust="spacing" textLength="154.5718" x="1997.46" y="597.3797">(event_id idempotency)</text></g><!--link routers to auth--><g class="link" data-entity-1="ent0011" data-entity-2="ent0012" data-link-type="dependency" data-source-line="72" id="lnk31"><path d="M847.47,920.9 C756.96,943.29 622.38,982.55 514.69,1038.96 C494.33,1049.62 477.9686,1059.8772 459.8386,1072.3072" fill="none" id="routers-to-auth" style="stroke:#181818;stroke-width:1;"/><polygon fill="#181818" points="454.89,1075.7,464.5748,1073.9099,459.0139,1072.8727,460.0511,1067.3117,454.89,1075.7" style="stroke:#181818;stroke-width:1;"/><text fill="#000000" font-family="'Roboto'" font-size="13" lengthAdjust="spacing" textLength="67.666" x="700.3" y="990.0269">Depends()</text></g><!--link routers to orchestrator--><g class="link" data-entity-1="ent0011" data-entity-2="ent0016" data-link-type="dependency" data-source-line="73" id="lnk32"><path d="M1015.18,932.38 C1069.66,960.37 1148.6,1001.45 1216.69,1038.96 C1237.91,1050.64 1255.7716,1060.8266 1276.0716,1072.6166" fill="none" id="routers-to-orchestrator" style="stroke:#181818;stroke-width:1;"/><polygon fill="#181818" points="1281.26,1075.63,1275.4863,1067.651,1276.9363,1073.1189,1271.4685,1074.5689,1281.26,1075.63" style="stroke:#181818;stroke-width:1;"/></g><!--link routers to validator--><g class="link" data-entity-1="ent0011" data-entity-2="ent0015" data-link-type="dependency" data-source-line="74" id="lnk33"><path d="M973.76,932.41 C1002.87,971.78 1047.0429,1031.5255 1076.1229,1070.8555" fill="none" id="routers-to-validator" style="stroke:#181818;stroke-width:1;"/><polygon fill="#181818" points="1079.69,1075.68,1077.5556,1066.0652,1076.7174,1071.6596,1071.123,1070.8214,1079.69,1075.68" style="stroke:#181818;stroke-width:1;"/></g><!--link routers to storybook_dom--><g class="link" data-entity-1="ent0011" data-entity-2="ent0013" data-link-type="dependency" data-source-line="75" id="lnk34"><path d="M896.48,932.41 C839.87,969.16 754.4721,1024.5923 693.4121,1064.2423" fill="none" id="routers-to-storybook_dom" style="stroke:#181818;stroke-width:1;"/><polygon fill="#181818" points="688.38,1067.51,698.1066,1065.9632,692.5734,1064.7869,693.7497,1059.2537,688.38,1067.51" style="stroke:#181818;stroke-width:1;"/></g><!--link routers to player_eng--><g class="link" data-entity-1="ent0011" data-entity-2="ent0014" data-link-type="dependency" data-source-line="76" id="lnk35"><path d="M934.88,932.41 C918.83,971.78 894.7746,1030.7938 878.7446,1070.1238" fill="none" id="routers-to-player_eng" style="stroke:#181818;stroke-width:1;"/><polygon fill="#181818" points="876.48,1075.68,883.581,1068.8554,878.3672,1071.0498,876.1727,1065.8359,876.48,1075.68" style="stroke:#181818;stroke-width:1;"/></g><!--link backend to postgres--><g class="link" data-entity-1="ent0010" data-entity-2="ent0019" data-link-type="dependency" data-source-line="77" id="lnk36"><path d="M1474.8819,898.0829 C1475.5423,898.0555 1476.2401,898.0279 1476.9742,898.0005 C1482.8471,897.7812 1491.0467,897.5739 1501.0784,897.5734 C1521.1419,897.5725 1548.5338,898.3988 1579.2975,901.61 C1640.825,908.0325 1715.84,923.995 1772.69,961.96 C1793.71,975.99 1785.24,992.82 1804.69,1008.96 C1838.32,1036.85 1875.3118,1056.0851 1914.6518,1071.8751" fill="none" id="backend-to-postgres" style="stroke:#181818;stroke-width:1;"/><polygon fill="#181818" points="1920.22,1074.11,1913.3576,1067.0455,1915.5798,1072.2476,1910.3777,1074.4697,1920.22,1074.11" style="stroke:#181818;stroke-width:1;"/><text fill="#000000" font-family="'Roboto'" font-size="13" lengthAdjust="spacing" textLength="136.3286" x="1805.69" y="990.0269">async SQLAlchemy 2</text></g><!--link backend to redis--><g class="link" data-entity-1="ent0010" data-entity-2="ent0020" data-link-type="dependency" data-source-line="78" id="lnk37"><path d="M1474.8102,955.9428 C1474.9063,956.3164 1475.0035,956.6905 1475.1019,957.065 C1476.6759,963.0569 1478.5439,969.1587 1480.7609,975.1852 C1485.195,987.2381 1491.025,998.99 1498.69,1008.96 C1518.6,1034.85 1541.9992,1052.5607 1569.9392,1068.2607" fill="none" id="backend-to-redis" style="stroke:#181818;stroke-width:1;"/><polygon fill="#181818" points="1575.17,1071.2,1569.2834,1063.3039,1570.811,1068.7506,1565.3644,1070.2783,1575.17,1071.2" style="stroke:#181818;stroke-width:1;"/><text fill="#000000" font-family="'Roboto'" font-size="13" lengthAdjust="spacing" textLength="80.9136" x="1518.3299" y="982.5269">enqueue job</text><text fill="#000000" font-family="'Roboto'" font-size="13" lengthAdjust="spacing" textLength="118.1934" x="1499.69" y="997.6597">(BackgroundTask)</text></g><!--link worker to redis--><g class="link" data-entity-1="ent0018" data-entity-2="ent0020" data-link-type="dependency" data-source-line="79" id="lnk38"><path d="M2026.91,932.36 C2011.28,940.71 1995.79,950.58 1982.69,961.96 C1963.61,978.53 1970.72,993.54 1950.69,1008.96 C1922.84,1030.4 1851.7981,1055.1866 1784.9381,1075.6166" fill="none" id="worker-to-redis" style="stroke:#181818;stroke-width:1;"/><polygon fill="#181818" points="1779.2,1077.37,1788.976,1078.5654,1783.9817,1075.9089,1786.6382,1070.9146,1779.2,1077.37" style="stroke:#181818;stroke-width:1;"/><text fill="#000000" font-family="'Roboto'" font-size="13" lengthAdjust="spacing" textLength="80.9263" x="1983.69" y="990.0269">dequeue job</text></g><!--link worker to orchestrator--><g class="link" data-entity-1="ent0018" data-entity-2="ent0016" data-link-type="dependency" data-source-line="80" id="lnk39"><path d="M2026.17,902.17 C1911.44,908.46 1715.09,924.47 1654.69,961.96 C1633.22,975.28 1642.8,993.65 1622.69,1008.96 C1589.82,1033.99 1573.69,1025.29 1534.69,1038.96 C1501.08,1050.74 1469.9533,1061.8521 1437.4433,1073.5921" fill="none" id="worker-to-orchestrator" style="stroke:#181818;stroke-width:1;"/><polygon fill="#181818" points="1431.8,1075.63,1441.6236,1076.3353,1436.5028,1073.9317,1438.9064,1068.8109,1431.8,1075.63" style="stroke:#181818;stroke-width:1;"/><text fill="#000000" font-family="'Roboto'" font-size="13" lengthAdjust="spacing" textLength="108.3989" x="1655.69" y="990.0269">generate_story()</text></g><!--link worker to openrouter--><g class="link" data-entity-1="ent0018" data-entity-2="ent0022" data-link-type="dependency" data-source-line="81" id="lnk40"><path d="M2197.47,929.25 C2213.38,937.93 2228.72,948.72 2240.69,961.96 C2272.32,996.93 2285.2405,1045.8543 2290.9905,1077.9043" fill="none" id="worker-to-openrouter" style="stroke:#181818;stroke-width:1;"/><polygon fill="#181818" points="2292.05,1083.81,2294.3978,1074.2451,2291.1671,1078.8886,2286.5236,1075.6578,2292.05,1083.81" style="stroke:#181818;stroke-width:1;"/><text fill="#000000" font-family="'Roboto'" font-size="13" lengthAdjust="spacing" textLength="129.4478" x="2270.96" y="990.0269">provider.complete()</text></g><!--link worker to ollama--><g class="link" data-entity-1="ent0018" data-entity-2="ent0023" data-link-type="dependency" data-source-line="82" id="lnk41"><path d="M2197.39,927.48 C2203.22,929.09 2209.02,930.61 2214.69,931.96 C2299.57,952.16 2340.57,907.45 2408.69,961.96 C2446.41,992.13 2458.8539,1044.3358 2463.4639,1077.9158" fill="none" id="worker-to-ollama" style="stroke:#181818;stroke-width:1;stroke-dasharray:7,7;"/><polygon fill="#181818" points="2464.28,1083.86,2467.0188,1074.3996,2463.6,1078.9065,2459.0931,1075.4877,2464.28,1083.86" style="stroke:#181818;stroke-width:1;"/><text fill="#000000" font-family="'Roboto'" font-size="13" lengthAdjust="spacing" textLength="50.6606" x="2442.92" y="990.0269">fallback</text></g><!--link worker to postgres--><g class="link" data-entity-1="ent0018" data-entity-2="ent0019" data-link-type="dependency" data-source-line="83" id="lnk42"><path d="M2099.94,932.42 C2092.29,954.3 2082.05,983.36 2072.69,1008.96 C2069.17,1018.6 2067.5155,1023.1116 2063.7755,1033.0916" fill="none" id="worker-to-postgres" style="stroke:#181818;stroke-width:1;"/><polygon fill="#181818" points="2061.67,1038.71,2068.5739,1031.686,2063.4246,1034.028,2061.0826,1028.8787,2061.67,1038.71" style="stroke:#181818;stroke-width:1;"/><text fill="#000000" font-family="'Roboto'" font-size="13" lengthAdjust="spacing" textLength="142.4985" x="2090" y="990.0269">update GenerationJob</text></g><!--link worker to minio--><g class="link" data-entity-1="ent0018" data-entity-2="ent0021" data-link-type="dependency" data-source-line="84" id="lnk43"><path d="M2197.32,927.8 C2203.16,929.34 2208.99,930.75 2214.69,931.96 C2340.15,958.57 2382.4,914.87 2501.69,961.96 C2566.26,987.44 2623.5852,1036.3704 2659.6952,1071.4304" fill="none" id="worker-to-minio" style="stroke:#181818;stroke-width:1;stroke-dasharray:7,7;"/><polygon fill="#181818" points="2664,1075.61,2660.3292,1066.4708,2660.4127,1072.127,2654.7565,1072.2105,2664,1075.61" style="stroke:#181818;stroke-width:1;"/><text fill="#000000" font-family="'Roboto'" font-size="13" lengthAdjust="spacing" textLength="118.0537" x="2584.02" y="982.5269">[planned Phase 5]</text><text fill="#000000" font-family="'Roboto'" font-size="13" lengthAdjust="spacing" textLength="89.7876" x="2598.1531" y="997.6597">blob_ref store</text></g><!--link backend to supabase_auth--><g class="link" data-entity-1="ent0010" data-entity-2="ent0024" data-link-type="dependency" data-source-line="85" id="lnk44"><path d="M290.0033,941.9361 C282.3802,942.0652 274.9138,942.2107 267.6132,942.3736 C253.0121,942.6993 239.0743,943.0945 225.8732,943.5664 C199.4711,944.5103 176.016,945.7613 156.0955,947.379 C116.2547,950.6144 90.5525,955.3162 83.69,961.96 C51.44,993.18 58.0886,1044.8407 66.4386,1078.0907" fill="none" id="backend-to-supabase_auth" style="stroke:#181818;stroke-width:1;"/><polygon fill="#181818" points="67.9,1083.91,69.5875,1074.2068,66.6822,1079.0606,61.8284,1076.1553,67.9,1083.91" style="stroke:#181818;stroke-width:1;"/><text fill="#000000" font-family="'Roboto'" font-size="13" lengthAdjust="spacing" textLength="101.2896" x="143.3836" y="975.0269">OIDC validation</text><text fill="#000000" font-family="'Roboto'" font-size="13" lengthAdjust="spacing" textLength="195.8442" x="96.1063" y="990.1597">[local: token-as-subject seam;</text><text fill="#000000" font-family="'Roboto'" font-size="13" lengthAdjust="spacing" textLength="218.6768" x="84.69" y="1005.2925">non-local: verified Supabase JWT]</text></g><!--link gen_client to GMN45--><g class="link" data-entity-1="ent0009" data-entity-2="ent0046" data-link-type="association" data-source-line="88" id="lnk47"><path d="M2072.22,700.53 C2114.54,720.36 2168.19,746.46 2214.69,772.07 C2271.5,803.35 2334.75,843.42 2374.85,869.52" fill="none" id="gen_client-GMN45" style="stroke:#181818;stroke-width:1;stroke-dasharray:7,7;"/></g><?plantuml-src fLThRziu5lskNt7XVAYBMdOUavasYmtWPv72hJrsqkwY3W9Qecqr4gabPMUCnVptEIGbMN9Tz4CL9978-o0lppttyXNz-nSUxnNrVwCnt_6OBicdlXGPYmHND8ZOMh742FntGjrmnqMsLVo6Wa944nCXPHiUAOf4nXKBiaWAxRs2qbnkLS1f5SLSt-2RIAkW4-pb4ojCTLYQjjCz7PxcYEciExqZpD1Bf2AnVlr3tQX3rQUfv1Phq3zIM7CicPa5TbwaUkRAkcxE_YJt-IEzGE9Fo3AsP9eRdIRJUn7G_CznDmusFDaxpPL2NBW8EzP4746zla0uozV0GvgaN9YDEi4J5kHg5IF87UEhdUd2GZvC_zloBNTgeGnq9usP40XN9-F1njSf3zf9U6AQXShy-kVdbxxpxQSlx6Uol_aRcV2OBVrLf7JcXpoDvJw1ziyqt_bwczhG-PZDLb8bKA7cF1-boTsWJmhsMC0rTRU0ayYYPxErNyArfvyZaJ8Wc4A-Ojiu6o6wdrZ2gJ6JIvd9HaLaoOBdDG0amhwCfQApKTVyL2JoIMLIustLkk91niGwvlH_ZwWdLSXLRkJQFXWrhlEnI_juVtiUiWK3ZVucYaEQSGQz1Z5DWHqu6rwDBaU3GkhzbgamOi9AhFCF2BqTNG_VUGYMx_iq_T8r_xt3aXfcgCpfXVWAFq565-zQTBzF-JnGKPgrw7EKySU5c7Er0pRXGMV8b01lccVQ-WHAYZNPZLPykBNJmzr2r22ix7Z7ghjtEXiCXiFHgAu_ZfQAgVtt1aoEM-tOIJnjezCMfZ7Rc-tLj5Cxs5c8-pdn7Oktp4Jo3VrdZirnIXW2BRZRd1NzeVb9ddJZ4rwAF5s8En7oltWuwC77Yq94NP9Q1qNQdZJ_lcG5mmXzcvL7NWe--Tfxk1iFQF9mFtsuVxH2ISabsh0Hert4QCFtFgBdqCB5azF70PwR7uC-XvWUS0yVnwWfQ3YV1cwc-smZ1LsrBovRb4-tQBeFcJ10sLrYCTzpf_M_p7taO3r6Z_4pSzIz4ER4Dvp5sGPCsohEtRmlX84GoCLE7CWSdmvWpWITzVl3ORz_v0EqGdFE4kS1zAMXjn1JL9WWIbbC7Lgn98htU54oTeV6ZDP9UtCWQR-Kyfa6Ca5gOU_5I2UH8O-T-SDWYR-ZSTJICAfkevnw2d6o9vqxiDDGh86eXSXXpksdDJ_Ruap0StEWmPoEfjq5DLCSoEigsg5nsi5d5aUXJPRtGEL2x8hlpXhVriNuuituyiri_6RU7Gt9sdCqKSgUDls-F3UQAC1LPye8BqIbEilAX7M6V5rpwlgtFV-sJscKyhX8tAhiQOyVep2C-GjJs4XIlfkghb3Gyj3NfZGFjaZVVN4aXwdIGva_bVryiLt4SIPz9s0uk6WvA5KILKy_rlPVTYVMUovvDXgDhf2vkTy1-X6B5THCux7eJu0EgRErukXEwE9tE0CvEBi0-Q07J-zeClj843UDsKACBEnRzA2vQf4jHbCbJTlMCf7FqTYYylKpZXhcC3jp2Mdf5AeoIMEUkIcKd82RodBO_mUvTEXp2zHsIs-75rvbyJCUHc21hv2bfPBOE1QCS5aY9JGFbSIdRtAfyze2hPBRlDhXYxk92SBo6mPjm02bbka8ECu_fEd6-Br-h6oLbZ4CMnQTNnb6pa4W8ddmuKvX-1SenmHsFFweZq_UiBBZDKEVAafCYOFWemCkPXrb8GvNm-lHTKqtZbd2e3UM0SolM1mR5irLxQG9tx0t75RLYgRAx1XjLOkwWvdfmPnUqOWzELuRde_-G8UJRsMM9uFUHAdRYcj3VFyshzrUsNMOiKD5zlBIRaRBEkeTAgePByhV3JLYkoFJNs2P0MemRtYL2cNzvLGEwTbmVa-s3zXTB4Ipnv65YZ8WGxnkU8NPTlksMkMWvm1ZsqeaTvERWlGKXHI5F4abocgmXtxXo3YrGO7cWEDaGjqycguIJMsY9BpQQ8t6QpC7ylMMPV6zFMG5bd1ylw3BHatMuHs2NBXz8XDCSCeUzfxfPwp_fM2aYah8IvMQG8r88LVSL9xiJffrQnNmGXGajaDSLJjm3C0hqkPaShn2ii1npLXrvziqDArPdJIgjbmQGlAhlMlKCjZaxPFYAyUBzP3LiGzzU-t8pmv-a34Mc3SEMpxJkBVaf86suLyB8QJmSv4TLz4gWk_o4lFXo_rZm_C4a4MuMcGetN9LWIHAqemVBd-sQzjaMNhJwLYR6yJWvktv-Nd7X1PmRt_JKa0BB7H38iKjOoiAxkD-QVGJWAreWskuZmFEt6qRT_6Jbr7F1CCiCL-eYjQRpApJ1XNMN2WlRYm3kYWYOuH9CSo2SG-ethaYqBQIpG_poQVUwpQ4oZC8PBnD172dtPq2t8rfoySaNM2VEUxI-V51kLpTFm00?></g></svg>
