<svg xmlns="http://www.w3.org/2000/svg" xmlns:xlink="http://www.w3.org/1999/xlink" contentStyleType="text/css" height="1106px" preserveAspectRatio="none" style="width:2356px;height:1106px;background:#FAFAFA;" version="1.1" viewBox="0 0 2356 1106" width="2356px" zoomAndPan="magnify"><defs><style type="text/css">@import url('https://fonts.googleapis.com/css?family=Roboto:400,100,100italic,300,300italic,400italic,500,500italic,700,700italic,900,900italic');</style></defs><g><rect fill="#FAFAFA" height="1106" style="stroke:none;stroke-width:1.0;" width="2356" x="0" y="0"/><!--cluster Validator Gate--><g id="cluster_Validator Gate"><path d="M10,258 L122.5635,258 A6,6 0 0 1 126.5635,262 L133.5635,280.2969 L1969,280.2969 A4,4 0 0 1 1973,284.2969 L1973,1095 A4,4 0 0 1 1969,1099 L10,1099 A4,4 0 0 1 6,1095 L6,262 A4,4 0 0 1 10,258 " fill="#E8F5E9" style="stroke:#000000;stroke-width:1.5;"/><line style="stroke:#000000;stroke-width:1.5;" x1="6" x2="133.5635" y1="280.2969" y2="280.2969"/><text fill="#000000" font-family="Roboto" font-size="14" font-weight="bold" lengthAdjust="spacing" textLength="114.5635" x="10" y="272.9951">Validator Gate</text></g><!--cluster Layer 1: Graph Structure--><g id="cluster_Layer 1: Graph Structure"><path d="M568,544 L762.6904,544 A6,6 0 0 1 766.6904,548 L773.6904,566.2969 L920,566.2969 A4,4 0 0 1 924,570.2969 L924,849 A4,4 0 0 1 920,853 L568,853 A4,4 0 0 1 564,849 L564,548 A4,4 0 0 1 568,544 " fill="#DCEDC8" style="stroke:#000000;stroke-width:1.5;"/><line style="stroke:#000000;stroke-width:1.5;" x1="564" x2="773.6904" y1="566.2969" y2="566.2969"/><text fill="#000000" font-family="Roboto" font-size="14" font-weight="bold" lengthAdjust="spacing" textLength="196.6904" x="568" y="558.9951">Layer 1: Graph Structure</text></g><!--cluster Policy Layer: age/scale invariants (ADR-011)--><g id="cluster_Policy Layer: age/scale invariants (ADR-011)"><path d="M34,576.5 L382.8887,576.5 A6,6 0 0 1 386.8887,580.5 L393.8887,598.7969 L536,598.7969 A4,4 0 0 1 540,602.7969 L540,1071 A4,4 0 0 1 536,1075 L34,1075 A4,4 0 0 1 30,1071 L30,580.5 A4,4 0 0 1 34,576.5 " fill="#A5D6A7" style="stroke:#000000;stroke-width:1.5;"/><line style="stroke:#000000;stroke-width:1.5;" x1="30" x2="393.8887" y1="598.7969" y2="598.7969"/><text fill="#000000" font-family="Roboto" font-size="14" font-weight="bold" lengthAdjust="spacing" textLength="350.8887" x="34" y="591.4951">Policy Layer: age/scale invariants (ADR-011)</text></g><!--cluster Layer 2: State-Space Walk (Tier-2 only)--><g id="cluster_Layer 2: State-Space Walk (Tier-2 only)"><path d="M1607,584.5 L1915.7754,584.5 A6,6 0 0 1 1919.7754,588.5 L1926.7754,606.7969 L1945,606.7969 A4,4 0 0 1 1949,610.7969 L1949,1054.5 A4,4 0 0 1 1945,1058.5 L1607,1058.5 A4,4 0 0 1 1603,1054.5 L1603,588.5 A4,4 0 0 1 1607,584.5 " fill="#C8E6C9" style="stroke:#000000;stroke-width:1.5;"/><line style="stroke:#000000;stroke-width:1.5;" x1="1603" x2="1926.7754" y1="606.7969" y2="606.7969"/><text fill="#000000" font-family="Roboto" font-size="14" font-weight="bold" lengthAdjust="spacing" textLength="310.7754" x="1607" y="599.4951">Layer 2: State-Space Walk (Tier-2 only)</text></g><!--cluster Advisory Checks--><g id="cluster_Advisory Checks"><path d="M952,625.5 L1079.3154,625.5 A6,6 0 0 1 1083.3154,629.5 L1090.3154,647.7969 L1575,647.7969 A4,4 0 0 1 1579,651.7969 L1579,767.5 A4,4 0 0 1 1575,771.5 L952,771.5 A4,4 0 0 1 948,767.5 L948,629.5 A4,4 0 0 1 952,625.5 " fill="#B2DFDB" style="stroke:#000000;stroke-width:1.5;"/><line style="stroke:#000000;stroke-width:1.5;" x1="948" x2="1090.3154" y1="647.7969" y2="647.7969"/><text fill="#000000" font-family="Roboto" font-size="14" font-weight="bold" lengthAdjust="spacing" textLength="129.3154" x="952" y="640.4951">Advisory Checks</text></g><!--cluster Caller--><g id="cluster_Caller"><path d="M1240,6 L1283.7188,6 A6,6 0 0 1 1287.7188,10 L1294.7188,28.2969 L1882,28.2969 A4,4 0 0 1 1886,32.2969 L1886,132 A4,4 0 0 1 1882,136 L1240,136 A4,4 0 0 1 1236,132 L1236,10 A4,4 0 0 1 1240,6 " fill="#F3F3F3" style="stroke:#000000;stroke-width:1.5;"/><line style="stroke:#000000;stroke-width:1.5;" x1="1236" x2="1294.7188" y1="28.2969" y2="28.2969"/><text fill="#000000" font-family="Roboto" font-size="14" font-weight="bold" lengthAdjust="spacing" textLength="45.7188" x="1240" y="20.9951">Caller</text></g><!--entity gate--><g id="elem_gate"><rect fill="#A5D6A7" height="78.8906" rx="4" ry="4" style="stroke:#555555;stroke-width:0.5;" width="247.6279" x="1315" y="293"/><rect fill="#A5D6A7" height="10" style="stroke:#555555;stroke-width:0.5;" width="15" x="1542.6279" y="298"/><rect fill="#A5D6A7" height="2" style="stroke:#555555;stroke-width:0.5;" width="4" x="1540.6279" y="300"/><rect fill="#A5D6A7" height="2" style="stroke:#555555;stroke-width:0.5;" width="4" x="1540.6279" y="304"/><text fill="#222222" font-family="Roboto" font-size="14" lengthAdjust="spacing" textLength="75.2295" x="1330" y="325.9951">Gate Entry</text><text fill="#222222" font-family="Roboto" font-size="14" lengthAdjust="spacing" textLength="119.8271" x="1330" y="342.292">validator/gate.py</text><text fill="#222222" font-family="Roboto" font-size="14" lengthAdjust="spacing" textLength="207.6279" x="1330" y="358.5889">run_gate(data) -&gt; GateResult</text></g><!--entity report--><g id="elem_report"><rect fill="#E8F5E9" height="111.4844" rx="4" ry="4" style="stroke:#555555;stroke-width:0.5;" width="310.0742" x="967" y="939.5"/><rect fill="#E8F5E9" height="10" style="stroke:#555555;stroke-width:0.5;" width="15" x="1257.0742" y="944.5"/><rect fill="#E8F5E9" height="2" style="stroke:#555555;stroke-width:0.5;" width="4" x="1255.0742" y="946.5"/><rect fill="#E8F5E9" height="2" style="stroke:#555555;stroke-width:0.5;" width="4" x="1255.0742" y="950.5"/><text fill="#222222" font-family="Roboto" font-size="14" lengthAdjust="spacing" textLength="117.2568" x="982" y="972.4951">ValidationReport</text><text fill="#222222" font-family="Roboto" font-size="14" lengthAdjust="spacing" textLength="131.3252" x="982" y="988.792">validator/report.py</text><text fill="#222222" font-family="Roboto" font-size="14" lengthAdjust="spacing" textLength="243.5166" x="982" y="1005.0889">ValidationFinding(rule_id, severity,</text><text fill="#222222" font-family="Roboto" font-size="14" lengthAdjust="spacing" textLength="270.0742" x="982" y="1021.3857">story_id, message, node_id, choice_id)</text><text fill="#222222" font-family="Roboto" font-size="14" lengthAdjust="spacing" textLength="198.7207" x="982" y="1037.6826">Severity: ERROR | WARNING</text></g><!--entity layer1--><g id="elem_layer1"><rect fill="#DCEDC8" height="258.1563" rx="4" ry="4" style="stroke:#555555;stroke-width:0.5;" width="329.4541" x="579.5" y="579"/><rect fill="#DCEDC8" height="10" style="stroke:#555555;stroke-width:0.5;" width="15" x="888.9541" y="584"/><rect fill="#DCEDC8" height="2" style="stroke:#555555;stroke-width:0.5;" width="4" x="886.9541" y="586"/><rect fill="#DCEDC8" height="2" style="stroke:#555555;stroke-width:0.5;" width="4" x="886.9541" y="590"/><text fill="#222222" font-family="Roboto" font-size="14" lengthAdjust="spacing" textLength="118.166" x="594.5" y="611.9951">validate_layer1()</text><text fill="#222222" font-family="Roboto" font-size="14" lengthAdjust="spacing" textLength="132.2891" x="594.5" y="628.292">validator/layer1.py</text><text fill="#222222" font-family="Roboto" font-size="14" lengthAdjust="spacing" textLength="289.4541" x="594.5" y="644.5889">L1-1: schema conformance (jsonschema)</text><text fill="#222222" font-family="Roboto" font-size="14" lengthAdjust="spacing" textLength="270.3545" x="594.5" y="660.8857">L1-2: id uniqueness, start_node exists,</text><text fill="#222222" font-family="Roboto" font-size="14" lengthAdjust="spacing" textLength="253.3877" x="603.4004" y="677.1826">choice targets resolve (no dangling)</text><text fill="#222222" font-family="Roboto" font-size="14" lengthAdjust="spacing" textLength="218.7295" x="594.5" y="693.4795">L1-3: all nodes reachable (BFS)</text><text fill="#222222" font-family="Roboto" font-size="14" lengthAdjust="spacing" textLength="241.2949" x="594.5" y="709.7764">L1-4: termination well-formedness</text><text fill="#222222" font-family="Roboto" font-size="14" lengthAdjust="spacing" textLength="260.2031" x="603.4004" y="726.0732">(endings childless; non-endings have</text><text fill="#222222" font-family="Roboto" font-size="14" lengthAdjust="spacing" textLength="216.46" x="603.4004" y="742.3701">choices + a path to an ending)</text><text fill="#222222" font-family="Roboto" font-size="14" lengthAdjust="spacing" textLength="229.8926" x="594.5" y="758.667">L1-5: trap loops (every cycle can</text><text fill="#222222" font-family="Roboto" font-size="14" lengthAdjust="spacing" textLength="119.3555" x="603.4004" y="774.9639">reach an ending)</text><text fill="#222222" font-family="Roboto" font-size="14" lengthAdjust="spacing" textLength="274.0732" x="594.5" y="791.2607">L1-6: variable/condition/effect whitelist</text><text fill="#222222" font-family="Roboto" font-size="14" lengthAdjust="spacing" textLength="274.1484" x="594.5" y="807.5576">L1-7: ending_count + node-count band</text><text fill="#222222" font-family="Roboto" font-size="14" lengthAdjust="spacing" textLength="144.9971" x="603.4004" y="823.8545">+ max branch depth</text></g><!--entity policy--><g id="elem_policy"><rect fill="#A5D6A7" height="192.9688" rx="4" ry="4" style="stroke:#555555;stroke-width:0.5;" width="477.999" x="46" y="611.5"/><rect fill="#A5D6A7" height="10" style="stroke:#555555;stroke-width:0.5;" width="15" x="503.999" y="616.5"/><rect fill="#A5D6A7" height="2" style="stroke:#555555;stroke-width:0.5;" width="4" x="501.999" y="618.5"/><rect fill="#A5D6A7" height="2" style="stroke:#555555;stroke-width:0.5;" width="4" x="501.999" y="622.5"/><text fill="#222222" font-family="Roboto" font-size="14" lengthAdjust="spacing" textLength="115.3496" x="61" y="644.4951">validate_policy()</text><text fill="#222222" font-family="Roboto" font-size="14" lengthAdjust="spacing" textLength="129.4727" x="61" y="660.792">validator/policy.py</text><text fill="#222222" font-family="Roboto" font-size="14" lengthAdjust="spacing" textLength="276.917" x="61" y="677.0889">PL-15: forbidden ending kinds per band</text><text fill="#222222" font-family="Roboto" font-size="14" lengthAdjust="spacing" textLength="258.0771" x="61" y="693.3857">PL-16: content-flag ceilings per band</text><text fill="#222222" font-family="Roboto" font-size="14" lengthAdjust="spacing" textLength="269.5547" x="61" y="709.6826">PL-17: ending/decision floors per band</text><text fill="#222222" font-family="Roboto" font-size="14" lengthAdjust="spacing" textLength="205.2285" x="61" y="725.9795">PL-18: choice-graph topology</text><text fill="#222222" font-family="Roboto" font-size="14" lengthAdjust="spacing" textLength="437.999" x="61" y="742.2764">PL-19: words-per-node cap (blocking) + story-mean (advisory)</text><text fill="#222222" font-family="Roboto" font-size="14" lengthAdjust="spacing" textLength="201.4004" x="61" y="758.5732">PL-20: fastest-finish arc floor</text><text fill="#222222" font-family="Roboto" font-size="14" lengthAdjust="spacing" textLength="211.7637" x="61" y="774.8701">PL-21: off-matrix cell rejection</text><text fill="#222222" font-family="Roboto" font-size="14" lengthAdjust="spacing" textLength="335.6445" x="61" y="791.167">PL-22: band profile not configured -&gt; fail closed</text></g><!--entity band_profile--><g id="elem_band_profile"><rect fill="#A5D6A7" height="127.7813" rx="4" ry="4" style="stroke:#555555;stroke-width:0.5;" width="329.8506" x="120" y="931"/><rect fill="#A5D6A7" height="10" style="stroke:#555555;stroke-width:0.5;" width="15" x="429.8506" y="936"/><rect fill="#A5D6A7" height="2" style="stroke:#555555;stroke-width:0.5;" width="4" x="427.8506" y="938"/><rect fill="#A5D6A7" height="2" style="stroke:#555555;stroke-width:0.5;" width="4" x="427.8506" y="942"/><text fill="#222222" font-family="Roboto" font-size="14" lengthAdjust="spacing" textLength="108.377" x="135" y="963.9951">band_profile.py</text><text fill="#222222" font-family="Roboto" font-size="14" lengthAdjust="spacing" textLength="182.6563" x="135" y="980.292">BandProfile per age band:</text><text fill="#222222" font-family="Roboto" font-size="14" lengthAdjust="spacing" textLength="168.2051" x="135" y="996.5889">3-5 | 5-8 | 8-11 | 10-13 |</text><text fill="#222222" font-family="Roboto" font-size="14" lengthAdjust="spacing" textLength="83.8428" x="135" y="1012.8857">13-16 | 16+</text><text fill="#222222" font-family="Roboto" font-size="14" lengthAdjust="spacing" textLength="258.9248" x="135" y="1029.1826">node/depth budget, content ceilings,</text><text fill="#222222" font-family="Roboto" font-size="14" lengthAdjust="spacing" textLength="289.8506" x="135" y="1045.4795">forbidden endings, ending/decision floors</text></g><!--entity layer2--><g id="elem_layer2"><rect fill="#C8E6C9" height="176.6719" rx="4" ry="4" style="stroke:#555555;stroke-width:0.5;" width="313.7178" x="1619" y="619.5"/><rect fill="#C8E6C9" height="10" style="stroke:#555555;stroke-width:0.5;" width="15" x="1912.7178" y="624.5"/><rect fill="#C8E6C9" height="2" style="stroke:#555555;stroke-width:0.5;" width="4" x="1910.7178" y="626.5"/><rect fill="#C8E6C9" height="2" style="stroke:#555555;stroke-width:0.5;" width="4" x="1910.7178" y="630.5"/><text fill="#222222" font-family="Roboto" font-size="14" lengthAdjust="spacing" textLength="118.166" x="1634" y="652.4951">validate_layer2()</text><text fill="#222222" font-family="Roboto" font-size="14" lengthAdjust="spacing" textLength="132.2891" x="1634" y="668.792">validator/layer2.py</text><text fill="#222222" font-family="Roboto" font-size="14" lengthAdjust="spacing" textLength="250.5234" x="1634" y="685.0889">L2-9: stateful dead-ends (reachable</text><text fill="#222222" font-family="Roboto" font-size="14" lengthAdjust="spacing" textLength="264.7559" x="1642.9004" y="701.3857">non-ending config, no visible choices)</text><text fill="#222222" font-family="Roboto" font-size="14" lengthAdjust="spacing" textLength="254.0098" x="1634" y="717.6826">L2-10: loop escape (an ending stays</text><text fill="#222222" font-family="Roboto" font-size="14" lengthAdjust="spacing" textLength="203.5811" x="1642.9004" y="733.9795">reachable from every config)</text><text fill="#222222" font-family="Roboto" font-size="14" lengthAdjust="spacing" textLength="273.7178" x="1634" y="750.2764">L2-11: dead branch (conditional choice</text><text fill="#222222" font-family="Roboto" font-size="14" lengthAdjust="spacing" textLength="94.8008" x="1642.9004" y="766.5732">never visible)</text><text fill="#222222" font-family="Roboto" font-size="14" lengthAdjust="spacing" textLength="253.7842" x="1634" y="782.8701">L2-12: walk-cap ceiling (complexity)</text></g><!--entity walk_comp--><g id="elem_walk_comp"><rect fill="#C8E6C9" height="95.1875" rx="4" ry="4" style="stroke:#555555;stroke-width:0.5;" width="224.5635" x="1663.5" y="947.5"/><rect fill="#C8E6C9" height="10" style="stroke:#555555;stroke-width:0.5;" width="15" x="1868.0635" y="952.5"/><rect fill="#C8E6C9" height="2" style="stroke:#555555;stroke-width:0.5;" width="4" x="1866.0635" y="954.5"/><rect fill="#C8E6C9" height="2" style="stroke:#555555;stroke-width:0.5;" width="4" x="1866.0635" y="958.5"/><text fill="#222222" font-family="Roboto" font-size="14" lengthAdjust="spacing" textLength="150.1104" x="1678.5" y="980.4951">walk_configurations()</text><text fill="#222222" font-family="Roboto" font-size="14" lengthAdjust="spacing" textLength="120.2852" x="1678.5" y="996.792">validator/walk.py</text><text fill="#222222" font-family="Roboto" font-size="14" lengthAdjust="spacing" textLength="184.5635" x="1678.5" y="1013.0889">BFS over (node, var-state)</text><text fill="#222222" font-family="Roboto" font-size="14" lengthAdjust="spacing" textLength="179.9766" x="1678.5" y="1029.3857">configurations (cap 100k)</text></g><!--entity reading_level--><g id="elem_reading_level"><rect fill="#B2DFDB" height="95.1875" rx="4" ry="4" style="stroke:#555555;stroke-width:0.5;" width="315.6182" x="964" y="660.5"/><rect fill="#B2DFDB" height="10" style="stroke:#555555;stroke-width:0.5;" width="15" x="1259.6182" y="665.5"/><rect fill="#B2DFDB" height="2" style="stroke:#555555;stroke-width:0.5;" width="4" x="1257.6182" y="667.5"/><rect fill="#B2DFDB" height="2" style="stroke:#555555;stroke-width:0.5;" width="4" x="1257.6182" y="671.5"/><text fill="#222222" font-family="Roboto" font-size="14" lengthAdjust="spacing" textLength="152.6875" x="979" y="693.4951">check_reading_level()</text><text fill="#222222" font-family="Roboto" font-size="14" lengthAdjust="spacing" textLength="182.0342" x="979" y="709.792">validator/reading_level.py</text><text fill="#222222" font-family="Roboto" font-size="14" lengthAdjust="spacing" textLength="195.2002" x="979" y="726.0889">RL-13: Flesch-Kincaid grade</text><text fill="#222222" font-family="Roboto" font-size="14" lengthAdjust="spacing" textLength="275.6182" x="979" y="742.3857">(textstat, WARNING only, never blocks)</text></g><!--entity safety--><g id="elem_safety"><rect fill="#B2DFDB" height="95.1875" rx="4" ry="4" style="stroke:#555555;stroke-width:0.5;" width="247.416" x="1315.5" y="660.5"/><rect fill="#B2DFDB" height="10" style="stroke:#555555;stroke-width:0.5;" width="15" x="1542.916" y="665.5"/><rect fill="#B2DFDB" height="2" style="stroke:#555555;stroke-width:0.5;" width="4" x="1540.916" y="667.5"/><rect fill="#B2DFDB" height="2" style="stroke:#555555;stroke-width:0.5;" width="4" x="1540.916" y="671.5"/><text fill="#222222" font-family="Roboto" font-size="14" lengthAdjust="spacing" textLength="102.1016" x="1330.5" y="693.4951">check_safety()</text><text fill="#222222" font-family="Roboto" font-size="14" lengthAdjust="spacing" textLength="131.4482" x="1330.5" y="709.792">validator/safety.py</text><text fill="#222222" font-family="Roboto" font-size="14" lengthAdjust="spacing" textLength="168.6357" x="1330.5" y="726.0889">SAFE-14: content safety</text><text fill="#222222" font-family="Roboto" font-size="14" lengthAdjust="spacing" textLength="207.416" x="1330.5" y="742.3857">(Phase 2 stub, always empty)</text></g><!--entity orch_caller--><g id="elem_orch_caller"><rect fill="#FFF3E0" height="62.5938" rx="4" ry="4" style="stroke:#555555;stroke-width:0.5;" width="228.9111" x="1252.5" y="49"/><rect fill="#FFF3E0" height="10" style="stroke:#555555;stroke-width:0.5;" width="15" x="1461.4111" y="54"/><rect fill="#FFF3E0" height="2" style="stroke:#555555;stroke-width:0.5;" width="4" x="1459.4111" y="56"/><rect fill="#FFF3E0" height="2" style="stroke:#555555;stroke-width:0.5;" width="4" x="1459.4111" y="60"/><text fill="#222222" font-family="Roboto" font-size="14" lengthAdjust="spacing" textLength="171.4385" x="1267.5" y="81.9951">Generation Orchestrator</text><text fill="#222222" font-family="Roboto" font-size="14" lengthAdjust="spacing" textLength="188.9111" x="1267.5" y="98.292">generation/orchestrator.py</text></g><!--entity api_caller--><g id="elem_api_caller"><rect fill="#E8F5E9" height="78.8906" rx="4" ry="4" style="stroke:#555555;stroke-width:0.5;" width="353.2158" x="1516.5" y="41"/><rect fill="#E8F5E9" height="10" style="stroke:#555555;stroke-width:0.5;" width="15" x="1849.7158" y="46"/><rect fill="#E8F5E9" height="2" style="stroke:#555555;stroke-width:0.5;" width="4" x="1847.7158" y="48"/><rect fill="#E8F5E9" height="2" style="stroke:#555555;stroke-width:0.5;" width="4" x="1847.7158" y="52"/><text fill="#222222" font-family="Roboto" font-size="14" lengthAdjust="spacing" textLength="124.2637" x="1531.5" y="73.9951">Validate Endpoint</text><text fill="#222222" font-family="Roboto" font-size="14" lengthAdjust="spacing" textLength="123.833" x="1531.5" y="90.292">api/generation.py</text><text fill="#222222" font-family="Roboto" font-size="14" lengthAdjust="spacing" textLength="313.2158" x="1531.5" y="106.5889">POST /storybooks/{id}/versions/{v}/validate</text></g><!--entity storybook_model--><g id="elem_storybook_model"><rect fill="#E3F2FD" height="78.8906" rx="4" ry="4" style="stroke:#555555;stroke-width:0.5;" width="290.7012" x="1988.5" y="668.5"/><rect fill="#E3F2FD" height="10" style="stroke:#555555;stroke-width:0.5;" width="15" x="2259.2012" y="673.5"/><rect fill="#E3F2FD" height="2" style="stroke:#555555;stroke-width:0.5;" width="4" x="2257.2012" y="675.5"/><rect fill="#E3F2FD" height="2" style="stroke:#555555;stroke-width:0.5;" width="4" x="2257.2012" y="679.5"/><text fill="#222222" font-family="Roboto" font-size="14" lengthAdjust="spacing" textLength="117.5918" x="2003.5" y="701.4951">Storybook Model</text><text fill="#222222" font-family="Roboto" font-size="14" lengthAdjust="spacing" textLength="146.7402" x="2003.5" y="717.792">storybook/models.py</text><text fill="#222222" font-family="Roboto" font-size="14" lengthAdjust="spacing" textLength="250.7012" x="2003.5" y="734.0889">(Pydantic v2, parsed after L1 clean)</text></g><g id="elem_GMN38"><path d="M1989,218 L1989,328.5 L1563.04,332.5 L1989,336.5 L1989,446.9922 A4,4 0 0 0 1993,450.9922 L2345.2632,450.9922 A4,4 0 0 0 2349.2632,446.9922 L2349.2632,224 L2339.2632,214 L1993,214 A4,4 0 0 0 1989,218 " fill="#FEFFDD" style="stroke:#181818;stroke-width:0.5;"/><path d="M2339.2632,214 L2339.2632,222 A2,2 0 0 0 2341.2632,224 L2349.2632,224 L2339.2632,214 " fill="#FEFFDD" style="stroke:#181818;stroke-width:0.5;"/><text fill="#000000" font-family="Roboto" font-size="13" lengthAdjust="spacing" textLength="339.2632" x="1995" y="231.0669">Rule application order (gate.py, validator-rules.md):</text><text fill="#000000" font-family="Roboto" font-size="13" lengthAdjust="spacing" textLength="270.8926" x="1995" y="246.1997">1. L1 (always): graph structure + schema</text><text fill="#000000" font-family="Roboto" font-size="13" lengthAdjust="spacing" textLength="211.4404" x="1995" y="261.3325">2. Early return on any L1 ERROR</text><text fill="#000000" font-family="Roboto" font-size="13" lengthAdjust="spacing" textLength="288.8438" x="1995" y="276.4653">3. Policy (PL-15..PL-22): age/scale invariants</text><text fill="#000000" font-family="Roboto" font-size="13" lengthAdjust="spacing" textLength="306.8711" x="2007.397" y="291.5981">(PL-22 = fail closed when band profile missing)</text><text fill="#000000" font-family="Roboto" font-size="13" lengthAdjust="spacing" textLength="275.8501" x="2007.397" y="306.731">on the parsed Storybook (ADR-011 band x</text><text fill="#000000" font-family="Roboto" font-size="13" lengthAdjust="spacing" textLength="93.6406" x="2007.397" y="321.8638">length x style)</text><text fill="#000000" font-family="Roboto" font-size="13" lengthAdjust="spacing" textLength="233.9556" x="1995" y="336.9966">4. L2 (Tier-2 only): state-space walk</text><text fill="#000000" font-family="Roboto" font-size="13" lengthAdjust="spacing" textLength="285.6572" x="1995" y="352.1294">5. RL-13: advisory reading-level (WARNING)</text><text fill="#000000" font-family="Roboto" font-size="13" lengthAdjust="spacing" textLength="287.4282" x="1995" y="367.2622">6. SAFE-14: safety stub (always empty now)</text><text fill="#000000" font-family="Roboto" font-size="13" lengthAdjust="spacing" textLength="4.1323" x="1995" y="382.395">&#160;</text><text fill="#000000" font-family="Roboto" font-size="13" lengthAdjust="spacing" textLength="277.3926" x="1995" y="397.5278">blocked = any ERROR with rule_id starting</text><text fill="#000000" font-family="Roboto" font-size="13" lengthAdjust="spacing" textLength="147.6592" x="2003.2646" y="412.6606">with "L1", "L2", or "PL"</text><text fill="#000000" font-family="Roboto" font-size="13" lengthAdjust="spacing" textLength="219.1973" x="1995" y="427.7935">safety_flagged = any finding with</text><text fill="#000000" font-family="Roboto" font-size="13" lengthAdjust="spacing" textLength="139.6357" x="2003.2646" y="442.9263">rule_id == "SAFE-14"</text></g><!--link orch_caller to gate--><g id="link_orch_caller_gate"><path d="M1252.98,112.11 C1215.93,128.44 1188.34,151.92 1206,184 C1233.47,233.91 1280.3628,266.6485 1328.4528,290.2285 " fill="none" id="orch_caller-to-gate" style="stroke:#181818;stroke-width:1.0;"/><polygon fill="#181818" points="1333.84,292.87,1327.5202,285.3162,1329.3506,290.6687,1323.9981,292.4992,1333.84,292.87" style="stroke:#181818;stroke-width:1.0;"/><text fill="#000000" font-family="Roboto" font-size="13" lengthAdjust="spacing" textLength="188.0493" x="1207" y="172.5669">run_gate(decoded JSON dict)</text></g><!--link gate to orch_caller--><g id="link_gate_orch_caller"><path d="M1433.15,292.66 C1426.99,255.84 1415.98,199.28 1400,152 C1395.46,138.56 1391.7199,129.6729 1385.7899,117.5129 " fill="none" id="gate-to-orch_caller" style="stroke:#181818;stroke-width:1.0;"/><polygon fill="#181818" points="1383.16,112.12,1383.5096,121.9627,1385.3516,116.6141,1390.7002,118.4561,1383.16,112.12" style="stroke:#181818;stroke-width:1.0;"/><text fill="#000000" font-family="Roboto" font-size="13" lengthAdjust="spacing" textLength="71.8872" x="1479.5161" y="165.0669">GateResult</text><text fill="#000000" font-family="Roboto" font-size="13" lengthAdjust="spacing" textLength="212.9194" x="1409" y="180.1997">(report, blocked, safety_flagged)</text></g><!--link api_caller to gate--><g id="link_api_caller_gate"><path d="M1673.56,120.28 C1662.39,140.48 1647.17,164.89 1630,184 C1591.77,226.53 1544.9687,262.2619 1504.9687,289.5119 " fill="none" id="api_caller-to-gate" style="stroke:#181818;stroke-width:1.0;"/><polygon fill="#181818" points="1500.01,292.89,1509.7001,291.1286,1504.1422,290.0749,1505.1959,284.5171,1500.01,292.89" style="stroke:#181818;stroke-width:1.0;"/><text fill="#000000" font-family="Roboto" font-size="13" lengthAdjust="spacing" textLength="114.4482" x="1655" y="172.5669">run_gate(sv.blob)</text></g><!--link gate to layer1--><g id="link_gate_layer1"><path d="M1317.03,372.06 C1214.55,407.16 1066.32,464.37 948,536 C927.05,548.69 910.7955,559.8044 890.6255,575.2344 " fill="none" id="gate-to-layer1" style="stroke:#181818;stroke-width:1.0;"/><polygon fill="#181818" points="885.86,578.88,895.4386,576.5886,889.8312,575.842,890.5778,570.2346,885.86,578.88" style="stroke:#181818;stroke-width:1.0;"/><text fill="#000000" font-family="Roboto" font-size="13" lengthAdjust="spacing" textLength="85.3125" x="1052.8691" y="501.5669">raw mapping</text><text fill="#000000" font-family="Roboto" font-size="13" lengthAdjust="spacing" textLength="117.0508" x="1037" y="516.6997">[always runs first]</text></g><!--link gate to layer1--><g id="link_gate_layer1"><path d="M1314.93,337.76 C1190.39,347.93 998.87,380.33 869,481 C836.31,506.34 813.7447,537.4506 794.6747,573.6806 " fill="none" id="gate-to-layer1-1" style="stroke:#181818;stroke-width:1.0;stroke-dasharray:7.0,7.0;"/><polygon fill="#181818" points="791.88,578.99,799.6116,572.889,794.2089,574.5655,792.5324,569.1628,791.88,578.99" style="stroke:#181818;stroke-width:1.0;"/><text fill="#000000" font-family="Roboto" font-size="13" lengthAdjust="spacing" textLength="73.4678" x="879.877" y="501.5669">early exit if</text><text fill="#000000" font-family="Roboto" font-size="13" lengthAdjust="spacing" textLength="93.2217" x="870" y="516.6997">any L1 ERROR</text></g><!--link layer1 to report--><g id="link_layer1_report"><path d="M908.7,833.18 C958.04,870.38 1004.8292,905.6578 1044.9092,935.8778 " fill="none" id="layer1-to-report" style="stroke:#181818;stroke-width:1.0;"/><polygon fill="#181818" points="1049.7,939.49,1044.9219,930.8778,1045.7077,936.4798,1040.1056,937.2655,1049.7,939.49" style="stroke:#181818;stroke-width:1.0;"/><text fill="#000000" font-family="Roboto" font-size="13" lengthAdjust="spacing" textLength="71.2017" x="989" y="889.5669">L1 findings</text></g><!--link gate to storybook_model--><g id="link_gate_storybook_model"><path d="M1563.25,368.65 C1670.42,402.19 1826.77,459.02 1949,536 C2008.03,573.18 2061.2596,625.9926 2096.0596,663.8526 " fill="none" id="gate-to-storybook_model" style="stroke:#181818;stroke-width:1.0;"/><polygon fill="#181818" points="2100.12,668.27,2096.9744,658.937,2096.7364,664.5888,2091.0845,664.3508,2100.12,668.27" style="stroke:#181818;stroke-width:1.0;"/><text fill="#000000" font-family="Roboto" font-size="13" lengthAdjust="spacing" textLength="109.3193" x="1924" y="501.5669">model_validate()</text><text fill="#000000" font-family="Roboto" font-size="13" lengthAdjust="spacing" textLength="99.8677" x="1928.7258" y="516.6997">[after L1 clean]</text></g><!--link storybook_model to gate--><g id="link_storybook_model_gate"><path d="M2129.13,668.42 C2120.63,617.76 2098.28,529.58 2042,481 C2005.72,449.69 1734.6237,391.8555 1568.9437,358.7555 " fill="none" id="storybook_model-to-gate" style="stroke:#181818;stroke-width:1.0;"/><polygon fill="#181818" points="1563.06,357.58,1571.1019,363.2657,1567.9631,358.5596,1572.6692,355.4207,1563.06,357.58" style="stroke:#181818;stroke-width:1.0;"/><text fill="#000000" font-family="Roboto" font-size="13" lengthAdjust="spacing" textLength="66.0283" x="2080" y="509.0669">Storybook</text></g><!--link gate to policy--><g id="link_gate_policy"><path d="M1314.83,344.88 C1139.89,364.69 814.27,415.56 564,536 C518.57,557.86 476.2072,581.9709 433.5872,608.2509 " fill="none" id="gate-to-policy" style="stroke:#181818;stroke-width:1.0;"/><polygon fill="#181818" points="428.48,611.4,438.2401,610.0811,432.736,608.7757,434.0413,603.2715,428.48,611.4" style="stroke:#181818;stroke-width:1.0;"/><text fill="#000000" font-family="Roboto" font-size="13" lengthAdjust="spacing" textLength="66.0283" x="692.9197" y="501.5669">Storybook</text><text fill="#000000" font-family="Roboto" font-size="13" lengthAdjust="spacing" textLength="99.8677" x="676" y="516.6997">[after L1 clean]</text></g><!--link policy to band_profile--><g id="link_policy_band_profile"><path d="M189.45,804.82 C174.92,824.59 162.09,846.35 154,869 C145.65,892.39 150.7807,908.8965 167.6107,926.5565 " fill="none" id="policy-to-band_profile" style="stroke:#181818;stroke-width:1.0;"/><polygon fill="#181818" points="171.75,930.9,168.4366,921.6252,168.3005,927.2804,162.6453,927.1443,171.75,930.9" style="stroke:#181818;stroke-width:1.0;"/><text fill="#000000" font-family="Roboto" font-size="13" lengthAdjust="spacing" textLength="139.293" x="155" y="889.5669">profile_for(age_band)</text></g><!--link policy to report--><g id="link_policy_report"><path d="M443.08,804.51 C481.71,825.2 523.57,845.49 564,861 C695.91,911.62 847.1039,945.868 960.9439,967.338 " fill="none" id="policy-to-report" style="stroke:#181818;stroke-width:1.0;"/><polygon fill="#181818" points="966.84,968.45,958.7372,962.8513,961.9266,967.5233,957.2546,970.7127,966.84,968.45" style="stroke:#181818;stroke-width:1.0;"/><text fill="#000000" font-family="Roboto" font-size="13" lengthAdjust="spacing" textLength="70.77" x="668" y="889.5669">PL findings</text></g><!--link gate to layer2--><g id="link_gate_layer2"><path d="M1473.8,372.06 C1526.1,430.03 1622.3405,536.6954 1693.0105,615.0154 " fill="none" id="gate-to-layer2" style="stroke:#181818;stroke-width:1.0;"/><polygon fill="#181818" points="1697.03,619.47,1693.9705,610.1084,1693.6804,615.7578,1688.031,615.4677,1697.03,619.47" style="stroke:#181818;stroke-width:1.0;"/><text fill="#000000" font-family="Roboto" font-size="13" lengthAdjust="spacing" textLength="66.0283" x="1641.0522" y="494.0669">Storybook</text><text fill="#000000" font-family="Roboto" font-size="13" lengthAdjust="spacing" textLength="78.9395" x="1634.5967" y="509.1997">[Tier-2 only;</text><text fill="#000000" font-family="Roboto" font-size="13" lengthAdjust="spacing" textLength="132.1328" x="1608" y="524.3325">Tier-1 short-circuits]</text></g><!--link layer2 to walk_comp--><g id="link_layer2_walk_comp"><path d="M1776,796.83 C1776,846.56 1776,900.74 1776,941.44 " fill="none" id="layer2-to-walk_comp" style="stroke:#181818;stroke-width:1.0;"/><polygon fill="#181818" points="1776,947.44,1780,938.44,1776,942.44,1772,938.44,1776,947.44" style="stroke:#181818;stroke-width:1.0;"/><text fill="#000000" font-family="Roboto" font-size="13" lengthAdjust="spacing" textLength="153.6133" x="1777" y="889.5669">state-space exploration</text></g><!--link layer2 to report--><g id="link_layer2_report"><path d="M1676.7,796.68 C1646.78,819.96 1612.85,843.47 1579,861 C1484.07,910.16 1374.2164,942.251 1282.9864,963.301 " fill="none" id="layer2-to-report" style="stroke:#181818;stroke-width:1.0;"/><polygon fill="#181818" points="1277.14,964.65,1286.8089,966.5241,1282.012,963.5259,1285.0103,958.729,1277.14,964.65" style="stroke:#181818;stroke-width:1.0;"/><text fill="#000000" font-family="Roboto" font-size="13" lengthAdjust="spacing" textLength="71.2017" x="1557" y="889.5669">L2 findings</text></g><!--link gate to reading_level--><g id="link_gate_reading_level"><path d="M1406.27,372.06 C1347.66,441.12 1228.9023,581.0453 1165.5923,655.6453 " fill="none" id="gate-to-reading_level" style="stroke:#181818;stroke-width:1.0;"/><polygon fill="#181818" points="1161.71,660.22,1170.5833,655.9462,1164.9453,656.4078,1164.4837,650.7698,1161.71,660.22" style="stroke:#181818;stroke-width:1.0;"/><text fill="#000000" font-family="Roboto" font-size="13" lengthAdjust="spacing" textLength="66.0283" x="1309" y="509.0669">Storybook</text></g><!--link reading_level to report--><g id="link_reading_level_report"><path d="M1122,755.74 C1122,806.12 1122,880.21 1122,933.43 " fill="none" id="reading_level-to-report" style="stroke:#181818;stroke-width:1.0;"/><polygon fill="#181818" points="1122,939.43,1126,930.43,1122,934.43,1118,930.43,1122,939.43" style="stroke:#181818;stroke-width:1.0;"/><text fill="#000000" font-family="Roboto" font-size="13" lengthAdjust="spacing" textLength="105.7773" x="1123" y="882.0669">RL-13 WARNING</text><text fill="#000000" font-family="Roboto" font-size="13" lengthAdjust="spacing" textLength="92.8154" x="1129.481" y="897.1997">(never blocks)</text></g><!--link gate to safety--><g id="link_gate_safety"><path d="M1439,372.06 C1439,441.12 1439,579.62 1439,654.22 " fill="none" id="gate-to-safety" style="stroke:#181818;stroke-width:1.0;"/><polygon fill="#181818" points="1439,660.22,1443,651.22,1439,655.22,1435,651.22,1439,660.22" style="stroke:#181818;stroke-width:1.0;"/><text fill="#000000" font-family="Roboto" font-size="13" lengthAdjust="spacing" textLength="66.0283" x="1440" y="509.0669">Storybook</text></g><!--link safety to report--><g id="link_safety_report"><path d="M1399.64,755.56 C1372.39,786.72 1334.58,827.93 1298,861 C1267.6,888.48 1236.7057,912.6681 1205.4057,935.6581 " fill="none" id="safety-to-report" style="stroke:#181818;stroke-width:1.0;"/><polygon fill="#181818" points="1200.57,939.21,1210.1915,937.106,1204.5998,936.2501,1205.4557,930.6584,1200.57,939.21" style="stroke:#181818;stroke-width:1.0;"/><text fill="#000000" font-family="Roboto" font-size="13" lengthAdjust="spacing" textLength="54.0693" x="1335.8035" y="882.0669">SAFE-14</text><text fill="#000000" font-family="Roboto" font-size="13" lengthAdjust="spacing" textLength="155.6763" x="1285" y="897.1997">(stub empty in Phase 2)</text></g><!--SRC=[fLXjR-Eu4VxkNp7mVZWPQzcniibcTTW2sIHUj4rt0_lGGt4k34QYRLvaIXNb9CRT_lS-GrAov4kRQyz1_4BE6-VbcQ6-euz_uDNxZgxoRP5hgIkwLc9TYcrCVnUPIaMLb_HPL99f_l6LBjD74ErA_CRAFD-LYQILogI9yPl8bCausUTBKTED7sinupN4Z8ezDQ-WtEabhmwjYfaqkwmQl2ed4tjPJbgIWjj9E1cDyFwUO7kneN87YrwNLEIPIlPjINUtuUHiDC97595Oox59H2R94Ruky5xeT5cKENl4YWq-OUNEBL0XIvP9J3Mqilx7br7Fbjd4T1gU3Uail1ZIHJYP_5_I9YVXv7H8azDmSewFyxU_q_LHn_LH-06kZy99HAP254DJY4I-BggK8bLwlSpaeynOOZ2xjVQ0M9cy_1tUDc8bgqxuvfVJct3oRaXt6s4aiKcx-zS5FOdiePkPhQCGx_wUynHvMRMDyGMaSZspUqEQAird7j8SXovLvS-OveaP5vdG6fi7aQ7Duj4sVO58f2N_XoUJIMX0kmzjeeOhbAvyoii7i570kKBFb4czhZRuOgfzPaFpXz2YPnwKBWGqKIfN0ZKxpNNr1OgfFyllyohljqZkHVAmBlETJg_o363oPdh9VoqAlrbgbCT5QpsfCMdEPjDkcqMzbxRfbnxHfxnCPUbLdDaNLjamlnRPL-zRhuUWFd0Pzhi8rwStDnVJiviFa0VMW_W-xzADhihzGly6pXQwHh40ws90uPzQQDOdOOWtwStbsVNvvNiMtHXmo-L4avW-MzIQL-KkuRI2ATTNDzTN5_Pe7LkyVhbqA1WCsYOroBZG38ancMGZjmByUfMNMw6HpS7F9jTkVM39efXKIZkj_hMJMXepv3ekgwNEKqdoMPdA31SQHcno1NxihMLbg9GcpnuXJ-UK2htEa9PEu6bC8ik8-PbC91jnZ_W5dwPpH_0kfagMMwLjST2JpBAGxPCfwsTTWRI5Og1KPIcgm7mFUJgibpVYKHviClIM1BoA7Azo4feScLDs1cNmBcLvNXW8Hk7jATadi2WHceLO4u_PpcDw5ALYoyTmNwhOrB5ShMHIqTD6LJA3Popf-zXpBXDaSWLZ-EYX-y4bo4hUqbO0l4l4O8EoAQgDJGqNiJhS2FQtJeBSsRv3Da_YLZzIsXgd4OVWydh6C33erodsNvB6zR5kqZHDSA5jzui9iRXNQIfhZn1gBZMsVRdZC1qS1BzKa1-kCh6cHAhCngPBrZXddCf46Oxt2g4eZ-akOX_Cq7NmAeTT-TeRzI4cW5fgGZ25DZ4JX3Iup_BaWKC6zpeKt4h4CMXQYEMEJd0aOIffOAhIoY3OPUBCS0Ieb7or2hUYAj5X4-GZak9dH1hcEWeKYGLJtziHuSfMbLgZN5Ek-PLG6ILPRcHg8-lSsYxxJaYE9eM5_a-3GhpGwFNqApTxl7EtnuVjtVJhGjlkpGldRnUQFJEsoKNtknHbEgnZr8G7fNmSNbJyoo6ovsWRsfpcE4yTaC59SzitvxPl_eY-IS4F2Y6BADVPdbFqwkBc_Eh3QxWMlO1haSCrp1kncpHMkmoL95961TH1WpHSRWUmy64QOecG5OgXoCF6m8gR83qO74YYjWhWL8C4h6Pl6eYmABOgyorv4B62lH2a4DjILtZGO8R8l3fh5dFMPdXEU8qdZ90psaU9sRT51l2js6arJaIr-uwTn_pBEXqjg9gk0_s0WooRpYbd6mBEbI5ZN6YT2VAk0DW0WoOd9m_E0gzZMxICw2R1fQywkjh8v07Py-PJT3sz_lJRO2TCiEnCW5rxZuV3XRR3OKnJz89a4_vLwKIWQm4hKZWsgEHpnSSOqe-Nioz__lBPvjlG-zl2X777w4YkBUozRA2RBxkMDJFdGljXiy51SdimfprzOg3Ddf169BT57Kr7s6ZtZcpfFnuTkxxnW-P27yZyP1dmoBXKANgudp1HxnOPxU8MZHIX6je6PLTSQk8h3baFfJ7Tp6PVPm0LxqplE5PRpqYzpY1rXNulImHyUif_Dk3j-GbpXSig-bh2jGODkMBiNJSRuxorWRDPbRosJAniY9vEJszENdGJ3sTfaIiDFub2ZGzYNLVxEl-1njOBztd-OCQ_gFJR66TbgCElns_rp2sjMeXejFhJuh0jjVDQ5FqDVioyXtbXlEK5OzK6TtlCHPLAw34QeafAT0OIAqm-T3j1fq2dyjbGSoyjDvIUJgFfTGzpUXY6D9EPgyYDmW23bLxRBo5QZvqlO-eV1b6PG59AVvb__KAfIgf1lzSwrOiyvd64Eha7PS_kCP6VJfXCF660AGhas4B_v3CQl0QN_z9K_-ptF2sp-LG16mwwSfbf-axiQDGMAqMPxNd8h4Yj43ozPz_OzEiVp3Xs41ZjbsKTDYxHdxgkXKN7RErZDo5igV4TkxtxabXFnXoTtWW-_tM93XkWC9QyF-Xm75npTtliciRZqR4DhHxw_KBRNnCo6qWA4rKcErMPEWAH5NC0QqXgtsNbSu7RaCsd3aChPD5BTdLXi-l0xbvNceNj6aTG4rr0ReNO8M9Ni5_iIlIe2rcChWvLCG_ND_vE_hOB9NRtE7Sj0tVfx-JM5ic8QRKjUPXTImvR3qEUf5AjDnN6GviwW9yP41OGKI2a3jBinPC2VntabdfyVn_4u9kCE8a2Lpg3s3-eClMLZoTOUoa3QJIY6riOfSGMD6XgLmOeJaVahmQT9rQ3b-y8lURPLXJHn_QaYfiCni3EPBjLnl18xPYWkjh86hqEm5VVEXplioC-Viv0z0w7ZhepO4p7prP0TpOYt-3hqRtEkD1bLU1JY8MUZwXflJv5R2e4xKQB5lSquAxguujpimzTPtjIbNj6YCRdRhlGPCzWTm1R_I5N0jxpaakrZyrkVdXvlbGidnLGI_tuiKdLVW_Z9DyOPE_V]--></g></svg>