<svg xmlns="http://www.w3.org/2000/svg" xmlns:xlink="http://www.w3.org/1999/xlink" contentStyleType="text/css" height="943px" preserveAspectRatio="none" style="width:1589px;height:943px;background:#FAFAFA;" version="1.1" viewBox="0 0 1589 943" width="1589px" zoomAndPan="magnify"><defs><style type="text/css">@import url('https://fonts.googleapis.com/css?family=Roboto:400,100,100italic,300,300italic,400italic,500,500italic,700,700italic,900,900italic');</style></defs><g><rect fill="#FAFAFA" height="943" style="stroke:none;stroke-width:1.0;" width="1589" x="0" y="0"/><!--cluster Validator Gate--><g id="cluster_Validator Gate"><path d="M10,228.5 L98.0703,228.5 A6,6 0 0 1 102.0703,232.5 L109.0703,250.9063 L1289,250.9063 A4,4 0 0 1 1293,254.9063 L1293,932 A4,4 0 0 1 1289,936 L10,936 A4,4 0 0 1 6,932 L6,232.5 A4,4 0 0 1 10,228.5 " fill="#E8F5E9" style="stroke:#000000;stroke-width:1.5;"/><line style="stroke:#000000;stroke-width:1.5;" x1="6" x2="109.0703" y1="250.9063" y2="250.9063"/><text fill="#000000" font-family="Roboto" font-size="14" font-weight="bold" lengthAdjust="spacing" textLength="90.0703" x="10" y="243.4883">Validator Gate</text></g><!--cluster Layer 1: Graph Structure--><g id="cluster_Layer 1: Graph Structure"><path d="M941,485 L1092.9727,485 A6,6 0 0 1 1096.9727,489 L1103.9727,507.4063 L1265,507.4063 A4,4 0 0 1 1269,511.4063 L1269,710 A4,4 0 0 1 1265,714 L941,714 A4,4 0 0 1 937,710 L937,489 A4,4 0 0 1 941,485 " fill="#DCEDC8" style="stroke:#000000;stroke-width:1.5;"/><line style="stroke:#000000;stroke-width:1.5;" x1="937" x2="1103.9727" y1="507.4063" y2="507.4063"/><text fill="#000000" font-family="Roboto" font-size="14" font-weight="bold" lengthAdjust="spacing" textLength="153.9727" x="941" y="499.9883">Layer 1: Graph Structure</text></g><!--cluster Layer 2: State-Space Walk (Tier-2 only)--><g id="cluster_Layer 2: State-Space Walk (Tier-2 only)"><path d="M34,518 L279.4814,518 A6,6 0 0 1 283.4814,522 L290.4814,540.4063 L314,540.4063 A4,4 0 0 1 318,544.4063 L318,908 A4,4 0 0 1 314,912 L34,912 A4,4 0 0 1 30,908 L30,522 A4,4 0 0 1 34,518 " fill="#C8E6C9" style="stroke:#000000;stroke-width:1.5;"/><line style="stroke:#000000;stroke-width:1.5;" x1="30" x2="290.4814" y1="540.4063" y2="540.4063"/><text fill="#000000" font-family="Roboto" font-size="14" font-weight="bold" lengthAdjust="spacing" textLength="247.4814" x="34" y="532.9883">Layer 2: State-Space Walk (Tier-2 only)</text></g><!--cluster Advisory Checks--><g id="cluster_Advisory Checks"><path d="M346,526 L449.4375,526 A6,6 0 0 1 453.4375,530 L460.4375,548.4063 L909,548.4063 A4,4 0 0 1 913,552.4063 L913,669 A4,4 0 0 1 909,673 L346,673 A4,4 0 0 1 342,669 L342,530 A4,4 0 0 1 346,526 " fill="#B2DFDB" style="stroke:#000000;stroke-width:1.5;"/><line style="stroke:#000000;stroke-width:1.5;" x1="342" x2="460.4375" y1="548.4063" y2="548.4063"/><text fill="#000000" font-family="Roboto" font-size="14" font-weight="bold" lengthAdjust="spacing" textLength="105.4375" x="346" y="540.9883">Advisory Checks</text></g><!--cluster Caller--><g id="cluster_Caller"><path d="M848,6 L882.7773,6 A6,6 0 0 1 886.7773,10 L893.7773,28.4063 L1430,28.4063 A4,4 0 0 1 1434,32.4063 L1434,132 A4,4 0 0 1 1430,136 L848,136 A4,4 0 0 1 844,132 L844,10 A4,4 0 0 1 848,6 " fill="#F3F3F3" style="stroke:#000000;stroke-width:1.5;"/><line style="stroke:#000000;stroke-width:1.5;" x1="844" x2="893.7773" y1="28.4063" y2="28.4063"/><text fill="#000000" font-family="Roboto" font-size="14" font-weight="bold" lengthAdjust="spacing" textLength="36.7773" x="848" y="20.9883">Caller</text></g><!--entity gate--><g id="elem_gate"><rect fill="#A5D6A7" height="79.2188" rx="4" ry="4" style="stroke:#555555;stroke-width:0.5;" width="217.6318" x="939" y="263.5"/><rect fill="#A5D6A7" height="10" style="stroke:#555555;stroke-width:0.5;" width="15" x="1136.6318" y="268.5"/><rect fill="#A5D6A7" height="2" style="stroke:#555555;stroke-width:0.5;" width="4" x="1134.6318" y="270.5"/><rect fill="#A5D6A7" height="2" style="stroke:#555555;stroke-width:0.5;" width="4" x="1134.6318" y="274.5"/><text fill="#222222" font-family="Roboto" font-size="14" lengthAdjust="spacing" textLength="64.2646" x="954" y="296.4883">Gate Entry</text><text fill="#222222" font-family="Roboto" font-size="14" lengthAdjust="spacing" textLength="105.458" x="954" y="312.8945">validator/gate.py</text><text fill="#222222" font-family="Roboto" font-size="14" lengthAdjust="spacing" textLength="177.6318" x="954" y="329.3008">run_gate(data) -&gt; GateResult</text></g><!--entity report--><g id="elem_report"><rect fill="#E8F5E9" height="112.0313" rx="4" ry="4" style="stroke:#555555;stroke-width:0.5;" width="251.2031" x="459.5" y="792"/><rect fill="#E8F5E9" height="10" style="stroke:#555555;stroke-width:0.5;" width="15" x="690.7031" y="797"/><rect fill="#E8F5E9" height="2" style="stroke:#555555;stroke-width:0.5;" width="4" x="688.7031" y="799"/><rect fill="#E8F5E9" height="2" style="stroke:#555555;stroke-width:0.5;" width="4" x="688.7031" y="803"/><text fill="#222222" font-family="Roboto" font-size="14" lengthAdjust="spacing" textLength="103.7695" x="474.5" y="824.9883">ValidationReport</text><text fill="#222222" font-family="Roboto" font-size="14" lengthAdjust="spacing" textLength="115.3154" x="474.5" y="841.3945">validator/report.py</text><text fill="#222222" font-family="Roboto" font-size="14" lengthAdjust="spacing" textLength="211.2031" x="474.5" y="857.8008">ValidationFinding(rule_id, severity,</text><text fill="#222222" font-family="Roboto" font-size="14" lengthAdjust="spacing" textLength="181.8291" x="474.5" y="874.207">node_id, choice_id, message)</text><text fill="#222222" font-family="Roboto" font-size="14" lengthAdjust="spacing" textLength="173.4893" x="474.5" y="890.6133">Severity: ERROR | WARNING</text></g><!--entity layer1--><g id="elem_layer1"><rect fill="#DCEDC8" height="177.6563" rx="4" ry="4" style="stroke:#555555;stroke-width:0.5;" width="299.0889" x="953.5" y="520"/><rect fill="#DCEDC8" height="10" style="stroke:#555555;stroke-width:0.5;" width="15" x="1232.5889" y="525"/><rect fill="#DCEDC8" height="2" style="stroke:#555555;stroke-width:0.5;" width="4" x="1230.5889" y="527"/><rect fill="#DCEDC8" height="2" style="stroke:#555555;stroke-width:0.5;" width="4" x="1230.5889" y="531"/><text fill="#222222" font-family="Roboto" font-size="14" lengthAdjust="spacing" textLength="102.3818" x="968.5" y="552.9883">validate_layer1()</text><text fill="#222222" font-family="Roboto" font-size="14" lengthAdjust="spacing" textLength="115.6572" x="968.5" y="569.3945">validator/layer1.py</text><text fill="#222222" font-family="Roboto" font-size="14" lengthAdjust="spacing" textLength="259.0889" x="968.5" y="585.8008">L1-1: schema conformance (jsonschema)</text><text fill="#222222" font-family="Roboto" font-size="14" lengthAdjust="spacing" textLength="140.3828" x="968.5" y="602.207">L1-2: start_node exists</text><text fill="#222222" font-family="Roboto" font-size="14" lengthAdjust="spacing" textLength="154.7656" x="968.5" y="618.6133">L1-3: all nodes reachable</text><text fill="#222222" font-family="Roboto" font-size="14" lengthAdjust="spacing" textLength="152.0586" x="968.5" y="635.0195">L1-4: at least one ending</text><text fill="#222222" font-family="Roboto" font-size="14" lengthAdjust="spacing" textLength="154.2051" x="968.5" y="651.4258">L1-5: no dangling targets</text><text fill="#222222" font-family="Roboto" font-size="14" lengthAdjust="spacing" textLength="192.8623" x="968.5" y="667.832">L1-6: variable usage consistent</text><text fill="#222222" font-family="Roboto" font-size="14" lengthAdjust="spacing" textLength="175.1641" x="968.5" y="684.2383">L1-7: depth budget enforced</text></g><!--entity layer2--><g id="elem_layer2"><rect fill="#C8E6C9" height="112.0313" rx="4" ry="4" style="stroke:#555555;stroke-width:0.5;" width="255.5303" x="46" y="553"/><rect fill="#C8E6C9" height="10" style="stroke:#555555;stroke-width:0.5;" width="15" x="281.5303" y="558"/><rect fill="#C8E6C9" height="2" style="stroke:#555555;stroke-width:0.5;" width="4" x="279.5303" y="560"/><rect fill="#C8E6C9" height="2" style="stroke:#555555;stroke-width:0.5;" width="4" x="279.5303" y="564"/><text fill="#222222" font-family="Roboto" font-size="14" lengthAdjust="spacing" textLength="102.3818" x="61" y="585.9883">validate_layer2()</text><text fill="#222222" font-family="Roboto" font-size="14" lengthAdjust="spacing" textLength="115.6572" x="61" y="602.3945">validator/layer2.py</text><text fill="#222222" font-family="Roboto" font-size="14" lengthAdjust="spacing" textLength="215.5303" x="61" y="618.8008">L2-9: every path reaches an ending</text><text fill="#222222" font-family="Roboto" font-size="14" lengthAdjust="spacing" textLength="194.9746" x="61" y="635.207">L2-10..L2-12: reachability under</text><text fill="#222222" font-family="Roboto" font-size="14" lengthAdjust="spacing" textLength="178.958" x="61" y="651.6133">conditions (networkx + walk)</text></g><!--entity walk_comp--><g id="elem_walk_comp"><rect fill="#C8E6C9" height="95.625" rx="4" ry="4" style="stroke:#555555;stroke-width:0.5;" width="213.4141" x="58.5" y="800"/><rect fill="#C8E6C9" height="10" style="stroke:#555555;stroke-width:0.5;" width="15" x="251.9141" y="805"/><rect fill="#C8E6C9" height="2" style="stroke:#555555;stroke-width:0.5;" width="4" x="249.9141" y="807"/><rect fill="#C8E6C9" height="2" style="stroke:#555555;stroke-width:0.5;" width="4" x="249.9141" y="811"/><text fill="#222222" font-family="Roboto" font-size="14" lengthAdjust="spacing" textLength="119.8135" x="73.5" y="832.9883">state_space_walk()</text><text fill="#222222" font-family="Roboto" font-size="14" lengthAdjust="spacing" textLength="106.6133" x="73.5" y="849.3945">validator/walk.py</text><text fill="#222222" font-family="Roboto" font-size="14" lengthAdjust="spacing" textLength="173.4141" x="73.5" y="865.8008">BFS/DFS over variable state</text><text fill="#222222" font-family="Roboto" font-size="14" lengthAdjust="spacing" textLength="85.1279" x="73.5" y="882.207">combinations</text></g><!--entity reading_level--><g id="elem_reading_level"><rect fill="#B2DFDB" height="95.625" rx="4" ry="4" style="stroke:#555555;stroke-width:0.5;" width="280.8438" x="615.5" y="561"/><rect fill="#B2DFDB" height="10" style="stroke:#555555;stroke-width:0.5;" width="15" x="876.3438" y="566"/><rect fill="#B2DFDB" height="2" style="stroke:#555555;stroke-width:0.5;" width="4" x="874.3438" y="568"/><rect fill="#B2DFDB" height="2" style="stroke:#555555;stroke-width:0.5;" width="4" x="874.3438" y="572"/><text fill="#222222" font-family="Roboto" font-size="14" lengthAdjust="spacing" textLength="134.2988" x="630.5" y="593.9883">check_reading_level()</text><text fill="#222222" font-family="Roboto" font-size="14" lengthAdjust="spacing" textLength="159.4072" x="630.5" y="610.3945">validator/reading_level.py</text><text fill="#222222" font-family="Roboto" font-size="14" lengthAdjust="spacing" textLength="172.5117" x="630.5" y="626.8008">RL-13: Flesch-Kincaid grade</text><text fill="#222222" font-family="Roboto" font-size="14" lengthAdjust="spacing" textLength="240.8438" x="630.5" y="643.207">(textstat, WARNING only, never blocks)</text></g><!--entity safety--><g id="elem_safety"><rect fill="#B2DFDB" height="95.625" rx="4" ry="4" style="stroke:#555555;stroke-width:0.5;" width="222.1436" x="358" y="561"/><rect fill="#B2DFDB" height="10" style="stroke:#555555;stroke-width:0.5;" width="15" x="560.1436" y="566"/><rect fill="#B2DFDB" height="2" style="stroke:#555555;stroke-width:0.5;" width="4" x="558.1436" y="568"/><rect fill="#B2DFDB" height="2" style="stroke:#555555;stroke-width:0.5;" width="4" x="558.1436" y="572"/><text fill="#222222" font-family="Roboto" font-size="14" lengthAdjust="spacing" textLength="91.2051" x="373" y="593.9883">check_safety()</text><text fill="#222222" font-family="Roboto" font-size="14" lengthAdjust="spacing" textLength="116.3135" x="373" y="610.3945">validator/safety.py</text><text fill="#222222" font-family="Roboto" font-size="14" lengthAdjust="spacing" textLength="148.7773" x="373" y="626.8008">SAFE-14: content safety</text><text fill="#222222" font-family="Roboto" font-size="14" lengthAdjust="spacing" textLength="182.1436" x="373" y="643.207">(Phase 2 stub, always empty)</text></g><!--entity orch_caller--><g id="elem_orch_caller"><rect fill="#FFF3E0" height="62.8125" rx="4" ry="4" style="stroke:#555555;stroke-width:0.5;" width="207.1182" x="860.5" y="49"/><rect fill="#FFF3E0" height="10" style="stroke:#555555;stroke-width:0.5;" width="15" x="1047.6182" y="54"/><rect fill="#FFF3E0" height="2" style="stroke:#555555;stroke-width:0.5;" width="4" x="1045.6182" y="56"/><rect fill="#FFF3E0" height="2" style="stroke:#555555;stroke-width:0.5;" width="4" x="1045.6182" y="60"/><text fill="#222222" font-family="Roboto" font-size="14" lengthAdjust="spacing" textLength="149.96" x="875.5" y="81.9883">Generation Orchestrator</text><text fill="#222222" font-family="Roboto" font-size="14" lengthAdjust="spacing" textLength="167.1182" x="875.5" y="98.3945">generation/orchestrator.py</text></g><!--entity api_caller--><g id="elem_api_caller"><rect fill="#E8F5E9" height="79.2188" rx="4" ry="4" style="stroke:#555555;stroke-width:0.5;" width="315.0645" x="1102.5" y="41"/><rect fill="#E8F5E9" height="10" style="stroke:#555555;stroke-width:0.5;" width="15" x="1397.5645" y="46"/><rect fill="#E8F5E9" height="2" style="stroke:#555555;stroke-width:0.5;" width="4" x="1395.5645" y="48"/><rect fill="#E8F5E9" height="2" style="stroke:#555555;stroke-width:0.5;" width="4" x="1395.5645" y="52"/><text fill="#222222" font-family="Roboto" font-size="14" lengthAdjust="spacing" textLength="109.4707" x="1117.5" y="73.9883">Validate Endpoint</text><text fill="#222222" font-family="Roboto" font-size="14" lengthAdjust="spacing" textLength="109.334" x="1117.5" y="90.3945">api/generation.py</text><text fill="#222222" font-family="Roboto" font-size="14" lengthAdjust="spacing" textLength="275.0645" x="1117.5" y="106.8008">POST /storybooks/{id}/versions/{v}/validate</text></g><!--entity storybook_model--><g id="elem_storybook_model"><rect fill="#E3F2FD" height="79.2188" rx="4" ry="4" style="stroke:#555555;stroke-width:0.5;" width="259.3516" x="1309.5" y="569.5"/><rect fill="#E3F2FD" height="10" style="stroke:#555555;stroke-width:0.5;" width="15" x="1548.8516" y="574.5"/><rect fill="#E3F2FD" height="2" style="stroke:#555555;stroke-width:0.5;" width="4" x="1546.8516" y="576.5"/><rect fill="#E3F2FD" height="2" style="stroke:#555555;stroke-width:0.5;" width="4" x="1546.8516" y="580.5"/><text fill="#222222" font-family="Roboto" font-size="14" lengthAdjust="spacing" textLength="105.5742" x="1324.5" y="602.4883">Storybook Model</text><text fill="#222222" font-family="Roboto" font-size="14" lengthAdjust="spacing" textLength="132.248" x="1324.5" y="618.8945">storybook/models.py</text><text fill="#222222" font-family="Roboto" font-size="14" lengthAdjust="spacing" textLength="219.3516" x="1324.5" y="635.3008">(Pydantic v2, parsed after L1 clean)</text></g><g id="elem_GMN32"><path d="M1309,218 L1309,299 L1157.22,303 L1309,307 L1309,387.5781 A4,4 0 0 0 1313,391.5781 L1578.5034,391.5781 A4,4 0 0 0 1582.5034,387.5781 L1582.5034,224 L1572.5034,214 L1313,214 A4,4 0 0 0 1309,218 " fill="#FEFFDD" style="stroke:#181818;stroke-width:0.5;"/><path d="M1572.5034,214 L1572.5034,222 A2,2 0 0 0 1574.5034,224 L1582.5034,224 L1572.5034,214 " fill="#FEFFDD" style="stroke:#181818;stroke-width:0.5;"/><text fill="#000000" font-family="Roboto" font-size="13" lengthAdjust="spacing" textLength="245.6099" x="1315" y="231.0605">Rule application order (validator-rules.md):</text><text fill="#000000" font-family="Roboto" font-size="13" lengthAdjust="spacing" textLength="235.1553" x="1315" y="246.2949">1. L1 (always): graph structure + schema</text><text fill="#000000" font-family="Roboto" font-size="13" lengthAdjust="spacing" textLength="182.2285" x="1315" y="261.5293">2. Early return on any L1 ERROR</text><text fill="#000000" font-family="Roboto" font-size="13" lengthAdjust="spacing" textLength="204.4517" x="1315" y="276.7637">3. L2 (Tier-2 only): state-space walk</text><text fill="#000000" font-family="Roboto" font-size="13" lengthAdjust="spacing" textLength="249.8184" x="1315" y="291.998">4. RL-13: advisory reading-level (WARNING)</text><text fill="#000000" font-family="Roboto" font-size="13" lengthAdjust="spacing" textLength="252.5034" x="1315" y="307.2324">5. SAFE-14: safety stub (always empty now)</text><text fill="#000000" font-family="Roboto" font-size="13" lengthAdjust="spacing" textLength="3.2246" x="1315" y="322.4668">&#160;</text><text fill="#000000" font-family="Roboto" font-size="13" lengthAdjust="spacing" textLength="239.4019" x="1315" y="337.7012">blocked = any ERROR with rule_id starting</text><text fill="#000000" font-family="Roboto" font-size="13" lengthAdjust="spacing" textLength="91.1079" x="1321.4492" y="352.9355">with "L1" or "L2"</text><text fill="#000000" font-family="Roboto" font-size="13" lengthAdjust="spacing" textLength="189.6489" x="1315" y="368.1699">safety_flagged = any finding with</text><text fill="#000000" font-family="Roboto" font-size="13" lengthAdjust="spacing" textLength="116.0098" x="1321.4492" y="383.4043">rule_id == "SAFE-14"</text></g><!--link orch_caller to gate--><g id="link_orch_caller_gate"><path d="M986.6,112.26 C994.57,124.2 1003.02,138.29 1009,152 C1024.81,188.26 1034.1623,226.4427 1040.2523,257.4127 " fill="none" id="orch_caller-to-gate" style="stroke:#181818;stroke-width:1.0;"/><polygon fill="#181818" points="1041.41,263.3,1043.5983,253.6973,1040.4453,258.394,1035.7486,255.2409,1041.41,263.3" style="stroke:#181818;stroke-width:1.0;"/><text fill="#000000" font-family="Roboto" font-size="13" lengthAdjust="spacing" textLength="170.2188" x="1022" y="172.5605">run_gate(decoded JSON dict)</text></g><!--link gate to orch_caller--><g id="link_gate_orch_caller"><path d="M938.81,274.82 C891.87,257.14 841.55,228.75 814,184 C794.9,152.98 818.1057,131.5582 855.3257,114.6782 " fill="none" id="gate-to-orch_caller" style="stroke:#181818;stroke-width:1.0;"/><polygon fill="#181818" points="860.79,112.2,850.9414,112.2744,856.2364,114.2651,854.2457,119.5601,860.79,112.2" style="stroke:#181818;stroke-width:1.0;"/><text fill="#000000" font-family="Roboto" font-size="13" lengthAdjust="spacing" textLength="63.2671" x="876.239" y="165.0605">GateResult</text><text fill="#000000" font-family="Roboto" font-size="13" lengthAdjust="spacing" textLength="185.7451" x="815" y="180.2949">(report, blocked, safety_flagged)</text></g><!--link api_caller to gate--><g id="link_api_caller_gate"><path d="M1242.23,120.35 C1231.89,140.58 1217.62,164.98 1201,184 C1174.41,214.44 1143.8679,238.9328 1113.7779,259.9628 " fill="none" id="api_caller-to-gate" style="stroke:#181818;stroke-width:1.0;"/><polygon fill="#181818" points="1108.86,263.4,1118.5283,261.5229,1112.9583,260.5357,1113.9455,254.9657,1108.86,263.4" style="stroke:#181818;stroke-width:1.0;"/><text fill="#000000" font-family="Roboto" font-size="13" lengthAdjust="spacing" textLength="100.7183" x="1224" y="172.5605">run_gate(sv.blob)</text></g><!--link gate to layer1--><g id="link_gate_layer1"><path d="M1055.78,342.76 C1060.34,365.76 1066.14,395.52 1071,422 C1076.85,453.91 1081.9604,483.0356 1087.2504,514.0256 " fill="none" id="gate-to-layer1" style="stroke:#181818;stroke-width:1.0;"/><polygon fill="#181818" points="1088.26,519.94,1090.6886,510.3953,1087.4187,515.0113,1082.8026,511.7414,1088.26,519.94" style="stroke:#181818;stroke-width:1.0;"/><text fill="#000000" font-family="Roboto" font-size="13" lengthAdjust="spacing" textLength="75.1816" x="1093.3015" y="442.5605">raw mapping</text><text fill="#000000" font-family="Roboto" font-size="13" lengthAdjust="spacing" textLength="101.7847" x="1080" y="457.7949">[always runs first]</text></g><!--link gate to layer1--><g id="link_gate_layer1"><path d="M1014.45,342.75 C989.88,376.03 963.48,425.4 980,469 C986.79,486.93 993.469,499.2307 1005.249,514.9307 " fill="none" id="gate-to-layer1-1" style="stroke:#181818;stroke-width:1.0;stroke-dasharray:7.0,7.0;"/><polygon fill="#181818" points="1008.85,519.73,1006.648,510.1304,1005.8492,515.7306,1000.249,514.9318,1008.85,519.73" style="stroke:#181818;stroke-width:1.0;"/><text fill="#000000" font-family="Roboto" font-size="13" lengthAdjust="spacing" textLength="62.5688" x="990.4771" y="442.5605">early exit if</text><text fill="#000000" font-family="Roboto" font-size="13" lengthAdjust="spacing" textLength="81.5229" x="981" y="457.7949">any L1 ERROR</text></g><!--link layer1 to report--><g id="link_layer1_report"><path d="M959.07,698.04 C943.7,706.47 928.15,714.62 913,722 C847.94,753.68 778.3093,780.8488 716.2893,803.0388 " fill="none" id="layer1-to-report" style="stroke:#181818;stroke-width:1.0;"/><polygon fill="#181818" points="710.64,805.06,720.4614,805.7943,715.3477,803.3756,717.7664,798.2619,710.64,805.06" style="stroke:#181818;stroke-width:1.0;"/><text fill="#000000" font-family="Roboto" font-size="13" lengthAdjust="spacing" textLength="64.0732" x="896" y="750.5605">L1 findings</text></g><!--link gate to storybook_model--><g id="link_gate_storybook_model"><path d="M1097.52,342.5 C1172.53,400.82 1309.3929,507.2376 1384.5329,565.6476 " fill="none" id="gate-to-storybook_model" style="stroke:#181818;stroke-width:1.0;"/><polygon fill="#181818" points="1389.27,569.33,1384.6193,560.6484,1385.3224,566.2614,1379.7094,566.9645,1389.27,569.33" style="stroke:#181818;stroke-width:1.0;"/><text fill="#000000" font-family="Roboto" font-size="13" lengthAdjust="spacing" textLength="96.2813" x="1256" y="442.5605">model_validate()</text><text fill="#000000" font-family="Roboto" font-size="13" lengthAdjust="spacing" textLength="85.9028" x="1261.1892" y="457.7949">[after L1 clean]</text></g><!--link storybook_model to gate--><g id="link_storybook_model_gate"><path d="M1432.21,569.4 C1422.97,527.78 1402.59,462.1 1361,422 C1353.04,414.33 1249.4852,376.0828 1162.2852,344.6828 " fill="none" id="storybook_model-to-gate" style="stroke:#181818;stroke-width:1.0;"/><polygon fill="#181818" points="1156.64,342.65,1163.7526,349.4626,1161.3443,344.344,1166.4629,341.9357,1156.64,342.65" style="stroke:#181818;stroke-width:1.0;"/><text fill="#000000" font-family="Roboto" font-size="13" lengthAdjust="spacing" textLength="58.6587" x="1394" y="450.0605">Storybook</text></g><!--link gate to layer2--><g id="link_gate_layer2"><path d="M938.74,312.92 C794.24,328.58 535.3,370.21 342,477 C303.96,498.02 270.0504,523.4882 239.5104,549.0582 " fill="none" id="gate-to-layer2" style="stroke:#181818;stroke-width:1.0;"/><polygon fill="#181818" points="234.91,552.91,244.3785,550.1993,238.7437,549.7002,239.2428,544.0654,234.91,552.91" style="stroke:#181818;stroke-width:1.0;"/><text fill="#000000" font-family="Roboto" font-size="13" lengthAdjust="spacing" textLength="58.6587" x="477.5645" y="435.0605">Storybook</text><text fill="#000000" font-family="Roboto" font-size="13" lengthAdjust="spacing" textLength="66.4409" x="473.6733" y="450.2949">[Tier-2 only;</text><text fill="#000000" font-family="Roboto" font-size="13" lengthAdjust="spacing" textLength="115.7876" x="449" y="465.5293">Tier-1 short-circuits]</text></g><!--link layer2 to walk_comp--><g id="link_layer2_walk_comp"><path d="M89.18,665.2 C68.58,683.17 49.27,705.03 38,730 C25.73,757.19 37.4096,777.2809 62.1196,796.1309 " fill="none" id="layer2-to-walk_comp" style="stroke:#181818;stroke-width:1.0;"/><polygon fill="#181818" points="66.89,799.77,62.1604,791.1311,62.9147,796.7374,57.3083,797.4916,66.89,799.77" style="stroke:#181818;stroke-width:1.0;"/><text fill="#000000" font-family="Roboto" font-size="13" lengthAdjust="spacing" textLength="135.478" x="39" y="750.5605">state-space exploration</text></g><!--link layer2 to report--><g id="link_layer2_report"><path d="M252.73,665.14 C280.5,683.88 312.24,704.5 342,722 C383.41,746.35 424.7162,768.2813 466.0062,789.1713 " fill="none" id="layer2-to-report" style="stroke:#181818;stroke-width:1.0;"/><polygon fill="#181818" points="471.36,791.88,465.1351,784.2478,466.8985,789.6228,461.5235,791.3862,471.36,791.88" style="stroke:#181818;stroke-width:1.0;"/><text fill="#000000" font-family="Roboto" font-size="13" lengthAdjust="spacing" textLength="64.0732" x="408" y="750.5605">L2 findings</text></g><!--link gate to reading_level--><g id="link_gate_reading_level"><path d="M996.6,342.65 C968.64,364.66 934.12,393.46 906,422 C862.62,466.03 822.4992,516.9945 793.5492,555.9445 " fill="none" id="gate-to-reading_level" style="stroke:#181818;stroke-width:1.0;"/><polygon fill="#181818" points="789.97,560.76,798.5491,555.9228,792.9527,556.7471,792.1284,551.1506,789.97,560.76" style="stroke:#181818;stroke-width:1.0;"/><text fill="#000000" font-family="Roboto" font-size="13" lengthAdjust="spacing" textLength="58.6587" x="907" y="450.0605">Storybook</text></g><!--link reading_level to report--><g id="link_reading_level_report"><path d="M740.46,657.13 C728.62,688.74 710.22,730.23 686,762 C678.01,772.48 672.8872,778.4364 662.9672,787.7364 " fill="none" id="reading_level-to-report" style="stroke:#181818;stroke-width:1.0;"/><polygon fill="#181818" points="658.59,791.84,667.8916,788.6027,662.2377,788.4203,662.4201,782.7664,658.59,791.84" style="stroke:#181818;stroke-width:1.0;"/><text fill="#000000" font-family="Roboto" font-size="13" lengthAdjust="spacing" textLength="95.4053" x="707" y="743.0605">RL-13 WARNING</text><text fill="#000000" font-family="Roboto" font-size="13" lengthAdjust="spacing" textLength="81.8467" x="713.7793" y="758.2949">(never blocks)</text></g><!--link gate to safety--><g id="link_gate_safety"><path d="M938.7,331.8 C843.56,359.2 704.59,407.16 598,477 C563.16,499.83 534.2534,528.8991 510.4234,556.3491 " fill="none" id="gate-to-safety" style="stroke:#181818;stroke-width:1.0;"/><polygon fill="#181818" points="506.49,560.88,515.4106,556.7059,509.7678,557.1043,509.3695,551.4615,506.49,560.88" style="stroke:#181818;stroke-width:1.0;"/><text fill="#000000" font-family="Roboto" font-size="13" lengthAdjust="spacing" textLength="58.6587" x="690" y="450.0605">Storybook</text></g><!--link safety to report--><g id="link_safety_report"><path d="M492.06,657.11 C511.02,695.85 535.2928,745.4407 555.2728,786.2707 " fill="none" id="safety-to-report" style="stroke:#181818;stroke-width:1.0;"/><polygon fill="#181818" points="557.91,791.66,557.547,781.8178,555.7123,787.1689,550.3612,785.3342,557.91,791.66" style="stroke:#181818;stroke-width:1.0;"/><text fill="#000000" font-family="Roboto" font-size="13" lengthAdjust="spacing" textLength="48.9785" x="585.002" y="743.0605">SAFE-14</text><text fill="#000000" font-family="Roboto" font-size="13" lengthAdjust="spacing" textLength="136.9824" x="541" y="758.2949">(stub empty in Phase 2)</text></g><!--SRC=[fLTjRzis4FwkNt5GFbJ6BBjMcZRLa06ERHNTigImYnL3FHYqHDjSP58WQIT2b_- -8qNPaXiW1Ue0GSAxU-w5Ty_Hh-3g9pxUAnY9RI4uvHh6ZAmbsSRm5ybPHhIGy85eQdJ-leDXjaUbdSJ_yMGcTZAbi68vLJ7-3w1asazBiI2rNdzVm_JN2DChIZXy0hdZ2tFQjIwcLErotNaH9oSbbOC6Kd0p20Uz7lv-1nXxiG6vmuX-42bg8KNXUqIAma44IcDGeIf8Ib-6afHaZAyNETtJt206qvjmSDu5L6PAoF9b24LML9VDQ6R3P18EtdJXquOe2YQatV9be0UItxSBtKW5ZFH7yYc4rCrWN3ymmQTMreM4SPDp5sQOj6JQvPY9LFMBd72EmYDaQ2-bjyrGwQUwrLFtZ1S4cnGokYBOCudW-fPiAVXJiHHQ-0sL9KdlrrBiU3OIEJRpMJ8qFmqD9vISIhXidAVrJCnqcLFORVF8UquCtpo0Qo4pAfsB2_l1KnEOEulintloFBo5UxB6ODiJviFPv3AvcBn7F3Gzmlj62XEkPJddtutJdDTJ5E0vwK3uMsEQV20AZ13EXXVZjyDt1leGm8tfVnZ4yC5EpKpBNMhw04CPZoRZqQLDhHMByqyNrHG6dMP8XycSSpEICQXqGxS4xVbAo2tXs7x1lqhmwhnZrQBOJ9hK2ouo2lIHAQsiu3m6akTWZXNWVAKRiiof5Rr1aOQS4gK10mDg6z6ABcAqW8pmTOv7WCXhwW3Vnh0daXaKs2bJ0GnCeJ_Cp2gyYx6Z2hs1vIv3AuJ5i5EQsIfMoTMLmReyFLDBJ6PcPsrcP-qBpXe4dncLOOI1vcK7IpkwdBmTlN-fjD4pfOsgqY97nM16haJt6Asj3TQ8y6CXaC5UEoABw-An76SKiDcfd7DCFMDccXK4dEe78UyVuPUA7OxvHdMufy5QHbbOHbaOctQqZe7c_3gPzSV930H6Uoo-DJOXR9UCMqfHrgKnMnWd3Q_jAWyTcy9eGzDxj3gxZiR9-FhxQgP6OT6YvNQCfumzvvQnOqYGfj9D-0VZAM6PsIWP1Xje-gXDu5tuCfpUVhpzO2-q2zpS12npWV5KbMiXrn5wpmTOaNuxiiCYc7Et0MBJgQPDeP9XECsLW5icVo2b0hejT5a5KIaUlBj2DloVydcxDexzv_oevkW-C3o-O5aNbAFzxfoR8RLdwKQmjFfpIvKPCaojtWynJARJkodyLvVGbSiugzdFQr7a21c0IhpcvDpys6jkCYD5qhR1mPqqCw2bYN_ErmT1NpG4c95rQSuMgSL6w2Gvdxn-jZY6ThD2CCCFf63z8wojpQUxsMVeAmGkbqBSg_utbZtrCLTbMhh_RVzKhpzgtIB4mQlB5fDjk9tLKF0d5ZIVymDsVsiEb7KRV2gHtpHBOHzrSJQaeXcGbKROcm6aI8lSzK1jlR3MwFGyYPAnXniu34EOqhmQlWqhb3dncdK9SP7OpH63VrmnD4Ma37wVtTr2nbBTyRr6Li_Qg7qFfsE9cfwL6IL7faQDFC2M58MbhQ-kZz5MuRDIAlsFxpbTO-PQ1SqmqLNLZyglO7kz9YmbCY_DDj70LdXvl3IriUtd7yCuBH0QsZyMzRMPmVpQBYr6T6hMJFjmXVv9jb5BYh2DjV3hdDl_1g0sc62OCfdkc5Przf65ET9Zx0ZOFUdeOu5l37kNBOD6kQBJSbNo9b6rWs_BscYMAEiPndviKs2Zl1K7jO7TOHlHyHnY6JwhU0mOhn- -hTvfDcbSlOwgnmvQI_SqjR5Gmr7MssALa_MQPWQ72yIHRBt1fyFANXkE_XGv3SUpo5bQqObzpa7m_Ukr4wFwe6VQ8QYwjHExRnsgVZ_X7grUEAWQzM1YUr5I524mXsOpeiOvWaNjLq8Cfozsr7lJ0xUXwkyKzGM6rIK5xaOwg7pHWyFkS1MtbGsQcm9VIWyTinPSkU3AnbQHz0FJrHSf9FFgXOQUx1Ap4fn07wjaMil7qtQT7P1hEMjWBMkugwl3bViUlbd0N8htFm00]--></g></svg>
