<svg xmlns="http://www.w3.org/2000/svg" xmlns:xlink="http://www.w3.org/1999/xlink" contentStyleType="text/css" height="1073px" preserveAspectRatio="none" style="width:1691px;height:1073px;background:#FAFAFA;" version="1.1" viewBox="0 0 1691 1073" width="1691px" zoomAndPan="magnify"><defs><style type="text/css">@import url('https://fonts.googleapis.com/css?family=Roboto:400,100,100italic,300,300italic,400italic,500,500italic,700,700italic,900,900italic');</style></defs><g><rect fill="#FAFAFA" height="1073" style="stroke:none;stroke-width:1.0;" width="1691" x="0" y="0"/><!--cluster Generation Pipeline--><g id="cluster_Generation Pipeline"><path d="M10,6 L131.8467,6 A6,6 0 0 1 135.8467,10 L142.8467,28.4063 L1111,28.4063 A4,4 0 0 1 1115,32.4063 L1115,1062 A4,4 0 0 1 1111,1066 L10,1066 A4,4 0 0 1 6,1062 L6,10 A4,4 0 0 1 10,6 " fill="#FFF3E0" style="stroke:#000000;stroke-width:1.5;"/><line style="stroke:#000000;stroke-width:1.5;" x1="6" x2="142.8467" y1="28.4063" y2="28.4063"/><text fill="#000000" font-family="Roboto" font-size="14" font-weight="bold" lengthAdjust="spacing" textLength="123.8467" x="10" y="20.9883">Generation Pipeline</text></g><!--cluster Provider Layer--><g id="cluster_Provider Layer"><path d="M290,183 L379.7246,183 A6,6 0 0 1 383.7246,187 L390.7246,205.4063 L849,205.4063 A4,4 0 0 1 853,209.4063 L853,608 A4,4 0 0 1 849,612 L290,612 A4,4 0 0 1 286,608 L286,187 A4,4 0 0 1 290,183 " fill="#F3E5F5" style="stroke:#000000;stroke-width:1.5;"/><line style="stroke:#000000;stroke-width:1.5;" x1="286" x2="390.7246" y1="205.4063" y2="205.4063"/><text fill="#000000" font-family="Roboto" font-size="14" font-weight="bold" lengthAdjust="spacing" textLength="91.7246" x="290" y="197.9883">Provider Layer</text></g><!--cluster External LLM APIs--><g id="cluster_External LLM APIs"><path d="M1143,771.5 L1256.6299,771.5 A6,6 0 0 1 1260.6299,775.5 L1267.6299,793.9063 L1552,793.9063 A4,4 0 0 1 1556,797.9063 L1556,881.5 A4,4 0 0 1 1552,885.5 L1143,885.5 A4,4 0 0 1 1139,881.5 L1139,775.5 A4,4 0 0 1 1143,771.5 " fill="#E0E0E0" style="stroke:#000000;stroke-width:1.5;"/><line style="stroke:#000000;stroke-width:1.5;" x1="1139" x2="1267.6299" y1="793.9063" y2="793.9063"/><text fill="#000000" font-family="Roboto" font-size="14" font-weight="bold" lengthAdjust="spacing" textLength="115.6299" x="1143" y="786.4883">External LLM APIs</text></g><!--entity concept--><g id="elem_concept"><rect fill="#FFF3E0" height="62.8125" rx="4" ry="4" style="stroke:#555555;stroke-width:0.5;" width="180.6904" x="35.5" y="234.5"/><rect fill="#FFF3E0" height="10" style="stroke:#555555;stroke-width:0.5;" width="15" x="196.1904" y="239.5"/><rect fill="#FFF3E0" height="2" style="stroke:#555555;stroke-width:0.5;" width="4" x="194.1904" y="241.5"/><rect fill="#FFF3E0" height="2" style="stroke:#555555;stroke-width:0.5;" width="4" x="194.1904" y="245.5"/><text fill="#222222" font-family="Roboto" font-size="14" lengthAdjust="spacing" textLength="81.1836" x="50.5" y="267.4883">ConceptBrief</text><text fill="#222222" font-family="Roboto" font-size="14" lengthAdjust="spacing" textLength="140.6904" x="50.5" y="283.8945">generation/concept.py</text></g><!--entity pii--><g id="elem_pii"><rect fill="#FFEBEE" height="79.2188" rx="4" ry="4" style="stroke:#555555;stroke-width:0.5;" width="194.54" x="333.5" y="971"/><rect fill="#FFEBEE" height="10" style="stroke:#555555;stroke-width:0.5;" width="15" x="508.04" y="976"/><rect fill="#FFEBEE" height="2" style="stroke:#555555;stroke-width:0.5;" width="4" x="506.04" y="978"/><rect fill="#FFEBEE" height="2" style="stroke:#555555;stroke-width:0.5;" width="4" x="506.04" y="982"/><text fill="#222222" font-family="Roboto" font-size="14" lengthAdjust="spacing" textLength="57.4287" x="348.5" y="1003.9883">PII Guard</text><text fill="#222222" font-family="Roboto" font-size="14" lengthAdjust="spacing" textLength="105.123" x="348.5" y="1020.3945">generation/pii.py</text><text fill="#222222" font-family="Roboto" font-size="14" lengthAdjust="spacing" textLength="154.54" x="348.5" y="1036.8008">assert_prompt_pii_safe()</text></g><!--entity prompts--><g id="elem_prompts"><rect fill="#FFF3E0" height="112.0313" rx="4" ry="4" style="stroke:#555555;stroke-width:0.5;" width="193.9521" x="22" y="782"/><rect fill="#FFF3E0" height="10" style="stroke:#555555;stroke-width:0.5;" width="15" x="195.9521" y="787"/><rect fill="#FFF3E0" height="2" style="stroke:#555555;stroke-width:0.5;" width="4" x="193.9521" y="789"/><rect fill="#FFF3E0" height="2" style="stroke:#555555;stroke-width:0.5;" width="4" x="193.9521" y="793"/><text fill="#222222" font-family="Roboto" font-size="14" lengthAdjust="spacing" textLength="93.0645" x="37" y="814.9883">Prompt Builder</text><text fill="#222222" font-family="Roboto" font-size="14" lengthAdjust="spacing" textLength="142.9873" x="37" y="831.3945">generation/prompts.py</text><text fill="#222222" font-family="Roboto" font-size="14" lengthAdjust="spacing" textLength="153.9521" x="37" y="847.8008">build_structure_prompt()</text><text fill="#222222" font-family="Roboto" font-size="14" lengthAdjust="spacing" textLength="133.1299" x="37" y="864.207">build_prose_prompt()</text><text fill="#222222" font-family="Roboto" font-size="14" lengthAdjust="spacing" textLength="133.6836" x="37" y="880.6133">build_repair_prompt()</text></g><!--entity orchestrator--><g id="elem_orchestrator"><rect fill="#FFE0B2" height="95.625" rx="4" ry="4" style="stroke:#555555;stroke-width:0.5;" width="207.1182" x="22.5" y="500"/><rect fill="#FFE0B2" height="10" style="stroke:#555555;stroke-width:0.5;" width="15" x="209.6182" y="505"/><rect fill="#FFE0B2" height="2" style="stroke:#555555;stroke-width:0.5;" width="4" x="207.6182" y="507"/><rect fill="#FFE0B2" height="2" style="stroke:#555555;stroke-width:0.5;" width="4" x="207.6182" y="511"/><text fill="#222222" font-family="Roboto" font-size="14" lengthAdjust="spacing" textLength="149.96" x="37.5" y="532.9883">Generation Orchestrator</text><text fill="#222222" font-family="Roboto" font-size="14" lengthAdjust="spacing" textLength="167.1182" x="37.5" y="549.3945">generation/orchestrator.py</text><text fill="#222222" font-family="Roboto" font-size="14" lengthAdjust="spacing" textLength="101.9443" x="37.5" y="565.8008">generate_story()</text><text fill="#222222" font-family="Roboto" font-size="14" lengthAdjust="spacing" textLength="102.5049" x="37.5" y="582.207">Stage A -&gt; B -&gt; C</text></g><!--entity gate--><g id="elem_gate"><rect fill="#E8F5E9" height="95.625" rx="4" ry="4" style="stroke:#555555;stroke-width:0.5;" width="196.4678" x="251" y="790"/><rect fill="#E8F5E9" height="10" style="stroke:#555555;stroke-width:0.5;" width="15" x="427.4678" y="795"/><rect fill="#E8F5E9" height="2" style="stroke:#555555;stroke-width:0.5;" width="4" x="425.4678" y="797"/><rect fill="#E8F5E9" height="2" style="stroke:#555555;stroke-width:0.5;" width="4" x="425.4678" y="801"/><text fill="#222222" font-family="Roboto" font-size="14" lengthAdjust="spacing" textLength="88.7852" x="266" y="822.9883">Validator Gate</text><text fill="#222222" font-family="Roboto" font-size="14" lengthAdjust="spacing" textLength="105.458" x="266" y="839.3945">validator/gate.py</text><text fill="#222222" font-family="Roboto" font-size="14" lengthAdjust="spacing" textLength="149.9258" x="266" y="855.8008">run_gate() -&gt; GateResult</text><text fill="#222222" font-family="Roboto" font-size="14" lengthAdjust="spacing" textLength="156.4678" x="266" y="872.207">(blocked, safety_flagged)</text></g><!--entity queue--><g id="elem_queue"><rect fill="#E0E0E0" height="79.2188" rx="4" ry="4" style="stroke:#555555;stroke-width:0.5;" width="175.8779" x="895" y="41"/><rect fill="#E0E0E0" height="10" style="stroke:#555555;stroke-width:0.5;" width="15" x="1050.8779" y="46"/><rect fill="#E0E0E0" height="2" style="stroke:#555555;stroke-width:0.5;" width="4" x="1048.8779" y="48"/><rect fill="#E0E0E0" height="2" style="stroke:#555555;stroke-width:0.5;" width="4" x="1048.8779" y="52"/><text fill="#222222" font-family="Roboto" font-size="14" lengthAdjust="spacing" textLength="61.6465" x="910" y="73.9883">RQ Queue</text><text fill="#222222" font-family="Roboto" font-size="14" lengthAdjust="spacing" textLength="128.6934" x="910" y="90.3945">generation/queue.py</text><text fill="#222222" font-family="Roboto" font-size="14" lengthAdjust="spacing" textLength="135.8779" x="910" y="106.8008">enqueue_generation()</text></g><!--entity worker_comp--><g id="elem_worker_comp"><rect fill="#FFF8E1" height="79.2188" rx="4" ry="4" style="stroke:#555555;stroke-width:0.5;" width="172.9658" x="896.5" y="226.5"/><rect fill="#FFF8E1" height="10" style="stroke:#555555;stroke-width:0.5;" width="15" x="1049.4658" y="231.5"/><rect fill="#FFF8E1" height="2" style="stroke:#555555;stroke-width:0.5;" width="4" x="1047.4658" y="233.5"/><rect fill="#FFF8E1" height="2" style="stroke:#555555;stroke-width:0.5;" width="4" x="1047.4658" y="237.5"/><text fill="#222222" font-family="Roboto" font-size="14" lengthAdjust="spacing" textLength="66.1445" x="911.5" y="259.4883">RQ Worker</text><text fill="#222222" font-family="Roboto" font-size="14" lengthAdjust="spacing" textLength="132.9658" x="911.5" y="275.8945">generation/worker.py</text><text fill="#222222" font-family="Roboto" font-size="14" lengthAdjust="spacing" textLength="85.4492" x="911.5" y="292.3008">async, per job</text></g><!--entity fallback--><g id="elem_fallback"><rect fill="#F3E5F5" height="95.625" rx="4" ry="4" style="stroke:#555555;stroke-width:0.5;" width="243.4854" x="306.5" y="218"/><rect fill="#F3E5F5" height="10" style="stroke:#555555;stroke-width:0.5;" width="15" x="529.9854" y="223"/><rect fill="#F3E5F5" height="2" style="stroke:#555555;stroke-width:0.5;" width="4" x="527.9854" y="225"/><rect fill="#F3E5F5" height="2" style="stroke:#555555;stroke-width:0.5;" width="4" x="527.9854" y="229"/><text fill="#222222" font-family="Roboto" font-size="14" lengthAdjust="spacing" textLength="103.8721" x="321.5" y="250.9883">FallbackProvider</text><text fill="#222222" font-family="Roboto" font-size="14" lengthAdjust="spacing" textLength="203.4854" x="321.5" y="267.3945">generation/providers/fallback.py</text><text fill="#222222" font-family="Roboto" font-size="14" lengthAdjust="spacing" textLength="156.167" x="321.5" y="283.8008">Layer 2: ordered cascade</text><text fill="#222222" font-family="Roboto" font-size="14" lengthAdjust="spacing" textLength="134.5518" x="321.5" y="300.207">circuit breaker per leg</text></g><!--entity openrouter--><g id="elem_openrouter"><rect fill="#F3E5F5" height="95.625" rx="4" ry="4" style="stroke:#555555;stroke-width:0.5;" width="262.4893" x="302" y="500"/><rect fill="#F3E5F5" height="10" style="stroke:#555555;stroke-width:0.5;" width="15" x="544.4893" y="505"/><rect fill="#F3E5F5" height="2" style="stroke:#555555;stroke-width:0.5;" width="4" x="542.4893" y="507"/><rect fill="#F3E5F5" height="2" style="stroke:#555555;stroke-width:0.5;" width="4" x="542.4893" y="511"/><text fill="#222222" font-family="Roboto" font-size="14" lengthAdjust="spacing" textLength="125.5352" x="317" y="532.9883">OpenRouterProvider</text><text fill="#222222" font-family="Roboto" font-size="14" lengthAdjust="spacing" textLength="222.4893" x="317" y="549.3945">generation/providers/openrouter.py</text><text fill="#222222" font-family="Roboto" font-size="14" lengthAdjust="spacing" textLength="138.7764" x="317" y="565.8008">Layer 1: transient retry</text><text fill="#222222" font-family="Roboto" font-size="14" lengthAdjust="spacing" textLength="165.1084" x="317" y="582.207">exp. backoff, leg-fatal map</text></g><!--entity ollama_prov--><g id="elem_ollama_prov"><rect fill="#F3E5F5" height="95.625" rx="4" ry="4" style="stroke:#555555;stroke-width:0.5;" width="236.5947" x="599.5" y="500"/><rect fill="#F3E5F5" height="10" style="stroke:#555555;stroke-width:0.5;" width="15" x="816.0947" y="505"/><rect fill="#F3E5F5" height="2" style="stroke:#555555;stroke-width:0.5;" width="4" x="814.0947" y="507"/><rect fill="#F3E5F5" height="2" style="stroke:#555555;stroke-width:0.5;" width="4" x="814.0947" y="511"/><text fill="#222222" font-family="Roboto" font-size="14" lengthAdjust="spacing" textLength="95.7578" x="614.5" y="532.9883">OllamaProvider</text><text fill="#222222" font-family="Roboto" font-size="14" lengthAdjust="spacing" textLength="196.5947" x="614.5" y="549.3945">generation/providers/ollama.py</text><text fill="#222222" font-family="Roboto" font-size="14" lengthAdjust="spacing" textLength="138.7764" x="614.5" y="565.8008">Layer 1: transient retry</text><text fill="#222222" font-family="Roboto" font-size="14" lengthAdjust="spacing" textLength="82.4004" x="614.5" y="582.207">local fallback</text></g><!--entity or_api--><g id="elem_or_api"><rect fill="#E0E0E0" height="62.8125" rx="4" ry="4" style="stroke:#555555;stroke-width:0.5;" width="169.8076" x="1155" y="806.5"/><rect fill="#E0E0E0" height="10" style="stroke:#555555;stroke-width:0.5;" width="15" x="1304.8076" y="811.5"/><rect fill="#E0E0E0" height="2" style="stroke:#555555;stroke-width:0.5;" width="4" x="1302.8076" y="813.5"/><rect fill="#E0E0E0" height="2" style="stroke:#555555;stroke-width:0.5;" width="4" x="1302.8076" y="817.5"/><text fill="#222222" font-family="Roboto" font-size="14" lengthAdjust="spacing" textLength="98.9707" x="1170" y="839.4883">OpenRouter API</text><text fill="#222222" font-family="Roboto" font-size="14" lengthAdjust="spacing" textLength="129.8076" x="1170" y="855.8945">https://openrouter.ai</text></g><!--entity ol_api--><g id="elem_ol_api"><rect fill="#E0E0E0" height="62.8125" rx="4" ry="4" style="stroke:#555555;stroke-width:0.5;" width="179.6445" x="1360" y="806.5"/><rect fill="#E0E0E0" height="10" style="stroke:#555555;stroke-width:0.5;" width="15" x="1519.6445" y="811.5"/><rect fill="#E0E0E0" height="2" style="stroke:#555555;stroke-width:0.5;" width="4" x="1517.6445" y="813.5"/><rect fill="#E0E0E0" height="2" style="stroke:#555555;stroke-width:0.5;" width="4" x="1517.6445" y="817.5"/><text fill="#222222" font-family="Roboto" font-size="14" lengthAdjust="spacing" textLength="69.1934" x="1375" y="839.4883">Ollama API</text><text fill="#222222" font-family="Roboto" font-size="14" lengthAdjust="spacing" textLength="139.6445" x="1375" y="855.8945">http://localhost:11434</text></g><!--entity pg--><g id="elem_pg"><path d="M1483.5,510.5 C1483.5,500.5 1579.0039,500.5 1579.0039,500.5 C1579.0039,500.5 1674.5078,500.5 1674.5078,510.5 L1674.5078,585.125 C1674.5078,595.125 1579.0039,595.125 1579.0039,595.125 C1579.0039,595.125 1483.5,595.125 1483.5,585.125 L1483.5,510.5 " fill="#FFF8E1" style="stroke:#181818;stroke-width:0.5;"/><path d="M1483.5,510.5 C1483.5,520.5 1579.0039,520.5 1579.0039,520.5 C1579.0039,520.5 1674.5078,520.5 1674.5078,510.5 " fill="none" style="stroke:#181818;stroke-width:0.5;"/><text fill="#000000" font-family="Roboto" font-size="14" lengthAdjust="spacing" textLength="74.1357" x="1493.5" y="537.4883">PostgreSQL</text><text fill="#000000" font-family="Roboto" font-size="14" lengthAdjust="spacing" textLength="118.4668" x="1493.5" y="553.8945">GenerationJob row</text><text fill="#000000" font-family="Roboto" font-size="14" lengthAdjust="spacing" textLength="161.2461" x="1493.5" y="570.3008">status: queued-&gt;running-&gt;</text><text fill="#000000" font-family="Roboto" font-size="14" lengthAdjust="spacing" textLength="171.0078" x="1493.5" y="586.707">passed|needs_review|failed</text></g><g id="elem_GMN29"><path d="M1131.5,410 L1131.5,686.2188 A4,4 0 0 0 1135.5,690.2188 L1444.0088,690.2188 A4,4 0 0 0 1448.0088,686.2188 L1448.0088,416 L1438.0088,406 L1135.5,406 A4,4 0 0 0 1131.5,410 " fill="#FEFFDD" style="stroke:#181818;stroke-width:0.5;"/><path d="M1438.0088,406 L1438.0088,414 A2,2 0 0 0 1440.0088,416 L1448.0088,416 L1438.0088,406 " fill="#FEFFDD" style="stroke:#181818;stroke-width:1.0;"/><text fill="#000000" font-family="Roboto" font-size="13" lengthAdjust="spacing" textLength="264.1768" x="1137.5" y="423.0605">Stage A (Structure): build_structure_prompt -&gt;</text><text fill="#000000" font-family="Roboto" font-size="13" lengthAdjust="spacing" textLength="259.2891" x="1143.9492" y="438.2949">PII-guard -&gt; provider.complete -&gt; parse JSON</text><text fill="#000000" font-family="Roboto" font-size="13" lengthAdjust="spacing" textLength="63.7495" x="1143.9492" y="453.5293">-&gt; run_gate</text><text fill="#000000" font-family="Roboto" font-size="13" lengthAdjust="spacing" textLength="206.5591" x="1143.9492" y="468.7637">If blocked: skip Stage B, enter repair</text><text fill="#000000" font-family="Roboto" font-size="13" lengthAdjust="spacing" textLength="225.0181" x="1137.5" y="483.998">Stage B (Prose): build_prose_prompt -&gt;</text><text fill="#000000" font-family="Roboto" font-size="13" lengthAdjust="spacing" textLength="259.2891" x="1143.9492" y="499.2324">PII-guard -&gt; provider.complete -&gt; parse JSON</text><text fill="#000000" font-family="Roboto" font-size="13" lengthAdjust="spacing" textLength="63.7495" x="1143.9492" y="514.4668">-&gt; run_gate</text><text fill="#000000" font-family="Roboto" font-size="13" lengthAdjust="spacing" textLength="241.9092" x="1137.5" y="529.7012">Stage C (Repair, bounded max_repairs=3):</text><text fill="#000000" font-family="Roboto" font-size="13" lengthAdjust="spacing" textLength="250.6689" x="1143.9492" y="544.9355">while blocked AND attempts &lt; max_repairs:</text><text fill="#000000" font-family="Roboto" font-size="13" lengthAdjust="spacing" textLength="197.7549" x="1150.3984" y="560.1699">build_repair_prompt -&gt; PII-guard -&gt;</text><text fill="#000000" font-family="Roboto" font-size="13" lengthAdjust="spacing" textLength="203.9248" x="1150.3984" y="575.4043">provider.complete -&gt; parse JSON -&gt;</text><text fill="#000000" font-family="Roboto" font-size="13" lengthAdjust="spacing" textLength="173.7734" x="1150.3984" y="590.6387">run_gate -&gt; no-progress check</text><text fill="#000000" font-family="Roboto" font-size="13" lengthAdjust="spacing" textLength="3.2246" x="1137.5" y="605.873">&#160;</text><text fill="#000000" font-family="Roboto" font-size="13" lengthAdjust="spacing" textLength="56.0244" x="1137.5" y="621.1074">Outcome:</text><text fill="#000000" font-family="Roboto" font-size="13" lengthAdjust="spacing" textLength="243.1533" x="1143.9492" y="636.3418">gate clean, not safety_flagged  -&gt; "passed"</text><text fill="#000000" font-family="Roboto" font-size="13" lengthAdjust="spacing" textLength="273.4824" x="1143.9492" y="651.5762">gate clean, safety_flagged       -&gt; "needs_review"</text><text fill="#000000" font-family="Roboto" font-size="13" lengthAdjust="spacing" textLength="289.0596" x="1143.9492" y="666.8105">blocked after exhausting repairs -&gt; "needs_review"</text><text fill="#000000" font-family="Roboto" font-size="13" lengthAdjust="spacing" textLength="231.6196" x="1143.9492" y="682.0449">blocked, no doc produced         -&gt; "failed"</text></g><!--link concept to orchestrator--><g id="link_concept_orchestrator"><path d="M126,297.77 C126,346.64 126,436.34 126,493.89 " fill="none" id="concept-to-orchestrator" style="stroke:#181818;stroke-width:1.0;"/><polygon fill="#181818" points="126,499.89,130,490.89,126,494.89,122,490.89,126,499.89" style="stroke:#181818;stroke-width:1.0;"/><text fill="#000000" font-family="Roboto" font-size="13" lengthAdjust="spacing" textLength="26.2793" x="127" y="364.5605">brief</text></g><!--link orchestrator to prompts--><g id="link_orchestrator_prompts"><path d="M100.18,596 C83.33,629.47 62.86,676.11 54,720 C51.18,733.94 49.44,738.53 54,752 C57.51,762.38 59.58,767.4659 65.73,776.8859 " fill="none" id="orchestrator-to-prompts" style="stroke:#181818;stroke-width:1.0;"/><polygon fill="#181818" points="69.01,781.91,67.4393,772.1872,66.2766,777.7233,60.7405,776.5606,69.01,781.91" style="stroke:#181818;stroke-width:1.0;"/><text fill="#000000" font-family="Roboto" font-size="13" lengthAdjust="spacing" textLength="108.8687" x="55" y="740.5605">build stage prompt</text></g><!--link prompts to pii--><g id="link_prompts_pii"><path d="M216.01,892.01 C262.7,917.53 312.3845,944.6835 355.0545,967.9935 " fill="none" id="prompts-to-pii" style="stroke:#181818;stroke-width:1.0;"/><polygon fill="#181818" points="360.32,970.87,354.3394,963.0449,355.9321,968.4729,350.504,970.0656,360.32,970.87" style="stroke:#181818;stroke-width:1.0;"/><text fill="#000000" font-family="Roboto" font-size="13" lengthAdjust="spacing" textLength="76.21" x="304" y="937.0605">StagePrompt</text></g><!--link pii to fallback--><g id="link_pii_fallback"><path d="M455.78,970.59 C491.13,909.63 545.35,791.24 484,720 C425.35,651.89 342.65,758.11 284,690 C242.82,642.18 259.33,464.09 284,406 C299.48,369.54 325.1048,341.812 353.8948,318.022 " fill="none" id="pii-to-fallback" style="stroke:#181818;stroke-width:1.0;"/><polygon fill="#181818" points="358.52,314.2,349.0342,316.8494,354.6656,317.385,354.1301,323.0164,358.52,314.2" style="stroke:#181818;stroke-width:1.0;"/><text fill="#000000" font-family="Roboto" font-size="13" lengthAdjust="spacing" textLength="92.7964" x="506.6216" y="733.0605">guarded prompt</text><text fill="#000000" font-family="Roboto" font-size="13" lengthAdjust="spacing" textLength="98.0396" x="504" y="748.2949">(raises on PII hit)</text></g><!--link fallback to openrouter--><g id="link_fallback_openrouter"><path d="M428.84,314.18 C429.76,365.77 431.1232,441.961 432.0432,493.621 " fill="none" id="fallback-to-openrouter" style="stroke:#181818;stroke-width:1.0;"/><polygon fill="#181818" points="432.15,499.62,435.9891,490.5502,432.061,494.6208,427.9904,490.6927,432.15,499.62" style="stroke:#181818;stroke-width:1.0;"/><text fill="#000000" font-family="Roboto" font-size="13" lengthAdjust="spacing" textLength="64.4731" x="431" y="364.5605">primary leg</text></g><!--link fallback to ollama_prov--><g id="link_fallback_ollama_prov"><path d="M481.5,314.13 C511.22,340.67 548.62,374.69 581,406 C612.65,436.61 643.0479,467.8292 669.5279,495.5792 " fill="none" id="fallback-to-ollama_prov" style="stroke:#181818;stroke-width:1.0;stroke-dasharray:7.0,7.0;"/><polygon fill="#181818" points="673.67,499.92,670.3507,490.6474,670.2182,496.3027,664.5629,496.1702,673.67,499.92" style="stroke:#181818;stroke-width:1.0;"/><text fill="#000000" font-family="Roboto" font-size="13" lengthAdjust="spacing" textLength="63.502" x="550" y="364.5605">failover leg</text></g><!--link openrouter to or_api--><g id="link_openrouter_or_api"><path d="M468.47,596.31 C495.67,628.69 536.22,669.37 582,690 C650.55,720.88 844.7,708.5 919,720 C941.05,723.41 1094.24,755.33 1115,763.5 C1143.23,774.61 1167.5251,788.3176 1190.6851,803.1276 " fill="none" id="openrouter-to-or_api" style="stroke:#181818;stroke-width:1.0;"/><polygon fill="#181818" points="1195.74,806.36,1190.3126,798.1415,1191.5276,803.6663,1186.0028,804.8813,1195.74,806.36" style="stroke:#181818;stroke-width:1.0;"/><text fill="#000000" font-family="Roboto" font-size="13" lengthAdjust="spacing" textLength="143.5522" x="1069" y="733.0605">POST /chat/completions</text><text fill="#000000" font-family="Roboto" font-size="13" lengthAdjust="spacing" textLength="80.8945" x="1100.3289" y="748.2949">(httpx, retries)</text></g><!--link ollama_prov to ol_api--><g id="link_ollama_prov_ol_api"><path d="M836.79,592.4 C915.27,620.8 1020.51,658.36 1114,690 C1215.25,724.27 1247.04,716.41 1343,763.5 C1366.87,775.22 1386.6379,788.1932 1406.2279,802.6132 " fill="none" id="ollama_prov-to-ol_api" style="stroke:#181818;stroke-width:1.0;"/><polygon fill="#181818" points="1411.06,806.17,1406.1831,797.6134,1407.0333,803.206,1401.4407,804.0561,1411.06,806.17" style="stroke:#181818;stroke-width:1.0;"/><text fill="#000000" font-family="Roboto" font-size="13" lengthAdjust="spacing" textLength="114.9941" x="1317" y="733.0605">POST /api/generate</text><text fill="#000000" font-family="Roboto" font-size="13" lengthAdjust="spacing" textLength="80.8945" x="1334.0498" y="748.2949">(httpx, retries)</text></g><!--link fallback to orchestrator--><g id="link_fallback_orchestrator"><path d="M306.32,312.49 C304.88,313 303.43,313.5 302,314 C260.98,328.26 240.86,314.48 209,344 C164.46,385.28 144.4408,448.0497 134.7408,493.9397 " fill="none" id="fallback-to-orchestrator" style="stroke:#181818;stroke-width:1.0;"/><polygon fill="#181818" points="133.5,499.81,139.2748,491.8318,134.534,494.9181,131.4477,490.1773,133.5,499.81" style="stroke:#181818;stroke-width:1.0;"/><text fill="#000000" font-family="Roboto" font-size="13" lengthAdjust="spacing" textLength="46.3188" x="210" y="364.5605">raw text</text></g><!--link orchestrator to gate--><g id="link_orchestrator_gate"><path d="M133.01,596.4 C142.04,641.78 161.91,709.46 204,752 C213.75,761.86 220.65,757.21 233,763.5 C248.4,771.35 259.2806,777.4784 274.2806,786.7784 " fill="none" id="orchestrator-to-gate" style="stroke:#181818;stroke-width:1.0;"/><polygon fill="#181818" points="279.38,789.94,273.8386,781.7979,275.1305,787.3053,269.6231,788.5972,279.38,789.94" style="stroke:#181818;stroke-width:1.0;"/><text fill="#000000" font-family="Roboto" font-size="13" lengthAdjust="spacing" textLength="100.8198" x="205" y="733.0605">parsed JSON doc</text><text fill="#000000" font-family="Roboto" font-size="13" lengthAdjust="spacing" textLength="80.6597" x="215.0801" y="748.2949">run_gate(doc)</text></g><!--link gate to orchestrator--><g id="link_gate_orchestrator"><path d="M341.5,789.82 C335.92,766.78 326.33,739.84 310,720 C292.8,699.1 278.24,706.78 257,690 C222.13,662.45 191.9992,630.0558 167.3792,600.8758 " fill="none" id="gate-to-orchestrator" style="stroke:#181818;stroke-width:1.0;"/><polygon fill="#181818" points="163.51,596.29,166.2566,605.7481,166.7343,600.1115,172.371,600.5893,163.51,596.29" style="stroke:#181818;stroke-width:1.0;"/><text fill="#000000" font-family="Roboto" font-size="13" lengthAdjust="spacing" textLength="63.2671" x="371.0122" y="733.0605">GateResult</text><text fill="#000000" font-family="Roboto" font-size="13" lengthAdjust="spacing" textLength="145.2915" x="330" y="748.2949">(blocked, safety_flagged)</text></g><!--link orchestrator to GMN29--><g id="link_orchestrator_GMN29"><path d="M154.91,499.65 C185.36,453.94 237.96,388.26 303.5,360 C412.06,313.19 719.54,336.96 835.5,360 C937.89,380.34 1046.13,424.13 1131.29,464.33 " fill="none" id="orchestrator-GMN29" style="stroke:#181818;stroke-width:1.0;stroke-dasharray:7.0,7.0;"/></g><!--link queue to worker_comp--><g id="link_queue_worker_comp"><path d="M983,120.42 C983,151.66 983,189.31 983,220.46 " fill="none" id="queue-to-worker_comp" style="stroke:#181818;stroke-width:1.0;"/><polygon fill="#181818" points="983,226.46,987,217.46,983,221.46,979,217.46,983,226.46" style="stroke:#181818;stroke-width:1.0;"/><text fill="#000000" font-family="Roboto" font-size="13" lengthAdjust="spacing" textLength="34.1821" x="984" y="163.0605">job_id</text></g><!--link worker_comp to orchestrator--><g id="link_worker_comp_orchestrator"><path d="M949.71,305.63 C925.64,330.59 890.82,361.1 853,376 C735.61,422.25 402.82,358.31 286,406 C237.33,425.87 197.4312,462.6179 167.9812,495.3779 " fill="none" id="worker_comp-to-orchestrator" style="stroke:#181818;stroke-width:1.0;"/><polygon fill="#181818" points="163.97,499.84,172.9616,495.8211,167.3127,496.1216,167.0121,490.4727,163.97,499.84" style="stroke:#181818;stroke-width:1.0;"/><text fill="#000000" font-family="Roboto" font-size="13" lengthAdjust="spacing" textLength="193.3369" x="906" y="364.5605">generate_story(brief, provider, pii)</text></g><!--link worker_comp to pg--><g id="link_worker_comp_pg"><path d="M1069.91,275.92 C1172.09,289.85 1343.28,324.24 1466,406 C1502.16,430.09 1529.0149,464.3397 1549.0349,495.3397 " fill="none" id="worker_comp-to-pg" style="stroke:#181818;stroke-width:1.0;"/><polygon fill="#181818" points="1552.29,500.38,1550.7676,490.6495,1549.5775,496.1798,1544.0472,494.9896,1552.29,500.38" style="stroke:#181818;stroke-width:1.0;"/><text fill="#000000" font-family="Roboto" font-size="13" lengthAdjust="spacing" textLength="128.4321" x="1421.9871" y="357.0605">update GenerationJob</text><text fill="#000000" font-family="Roboto" font-size="13" lengthAdjust="spacing" textLength="156.4063" x="1408" y="372.2949">status, report, storybook_id</text></g><!--SRC=[hLTjRzis4FwkNt5GFzG6h3Wl3T0PQu0ujOiKMVFYOSC00mOjKJPdcTH8Aecnzh_lZfHaoN6Q59s312Pvz_1uByzTtiA7d_W4R-52hNCbkRJmKR25Pki1VEAIQsQ5ad0ZSfu9oKdmhsiuJ-vHij2unfs9AdJC8HKPDmDS0nWTz-EDch5Ahh-eiVfAnqjkBAwKFiWt01rZsO8da9UNT5_6o3MQQurJTvzEp12LpJCE_WpccOfNvZLOGcnn7DRDvIKi2gQJrrboBnAkQuZErcqtvHcPP5MiiX_0CtsLSwbLOHts3obc6Lkp7rHAMPRDMRpo4HcNg_e5CJCnIruJcbZ9cEUs4PeBlpFKWgUl0FYdu0LlHgHpTmjkynNA3qgl6i50PMOsCWQ4y4VFOTopJ2IKalq5itmd8NGXPxGDAAmtkHBIUfn4nQQVPqnA8HTzbcZwZGuFJw9KAsa5rr6MhQEjWGVh11L_gbO3in8oPrYYaF2K5PaTurLVs9f3UAVcc6bXGuIYkC0qaic5ofI6D-Dp-cb8b8SQJOJtZVsuOeI9tM1P5UliEDXt3Fy604EbCKtAAqxT1tV9i7Bls7s2Rq6GeqLOxn3kuPSGxHkFJqQ728hwspl2PX9DvTvy2u4PA9SLpWuALVOdgkmMX6U0gMJ6S6rdda1ck3ipBEMThWF69O6EXgFHBgWdd64XClH16xdcgQcSq_aCYQ-8AUFAQphTwWJNvkckvZaJkjxsfdZKPzxOSEjrWsfRTkrmS7t6qJwbDtJzX4WPpY4wWo7zkN1NDnMTEmw7ntH_7TIQCQxOXckAvydeT7pgagHbvYx5xFhjAIzDfSE4um6uRCEMKTBILCP2nuL0rjUShOXnyJVZ2sTp1L7P4koQSerCU-UOzWLZMfHScNCq0FI7D8AmD4U2c4h-c1-uqbDfsYD3efHPbi6QvTwDDT3pHZaMVycWYkg_PmmsGhowyeA_t-bHLjtN1W1ysycaFofEX4-O6bFvX2EdicB6JfToXCJkk45AcigEQy0ywG4LaTtCqemjiCtx57Pi-cRqVdmw-cNdLgJgMsBxrfEhfe2kbUxxR7jOLeNRHin3-dcA-QUZ_nPetIoezB5Bz5pQ_Atc3i-VpWZ5LThxqL7Gug_H8yPFecklhdw3yvjB4rQtkspVcs0aDvLBQtCpw3VpYOcolcOi5_KhzcJ45W41N6YNojZ1qT6xatTbR5iGQ376ZCsPeUf4qONcazkhgTpon6SrnoxmC9KuYDd23Bmha-WCeqkDBJgR8kaZEIPV9UU9GLAw5_pXQyfmv4iy9IssFdeBKHJ1E5CFz2Me63d216dHnm32ET5v6BIsIQvYE18X6WGt8fRROL0TEr7aPHHpT7LJdUCUdTMLZm9keACfqybWVcec34TtOVV1hh0KjXi6jO8pTbkag9zhiMPwurXbAtTmSDOg9XGahwZxad-21eXtW0iEYjrSJtw7VhnajaynpZX5mg1T5Dh7dYjUmGqQrSHt65aR0nVL2CJtwRSVjHC1pHx0yaUx9mYkHkdbJ6FeuVFa-WiDF8sYnnNYExbzsA-ZWo2G2W6qM2mjgBI5WWLGzQ7EfEgStG7ixwL8GOv5CPwH2pVuLF83UkbbxZRfIUv5JW5tgZUvzMKAfRa3m8adBuqOzcW0n4ZwfbmRDyH_6QXvruOrM_d_P9I_wGA7ONTt3-Oqjc5Orkon71BCXvFkmAa-BB4mgoV0-PUFmApbhcH-RIfuQO0zemPTtpIvb7p1yArWFJBZkLGHwY7l69pFbZnU4JjV5nOnk3V1ISOPPxA7qdOdHvmlGiz0uHFvNLaedHSskSghLHvXAKMHFovPOImIN1bGytqrCeqAW9oG575zbx-j9CE0ouIUm8F0DoGgZ6OhmRh03ZCJADhStbS_EqEP8yjU7O8UKL_tAGfICUeMUK8-Qf5yHV143hdI5dr7m7EbLiwU_m00]--></g></svg>
