<svg xmlns="http://www.w3.org/2000/svg" xmlns:xlink="http://www.w3.org/1999/xlink" contentStyleType="text/css" height="904px" preserveAspectRatio="none" style="width:1539px;height:904px;background:#FAFAFA;" version="1.1" viewBox="0 0 1539 904" width="1539px" zoomAndPan="magnify"><defs><style type="text/css">@import url('https://fonts.googleapis.com/css?family=Roboto:400,100,100italic,300,300italic,400italic,500,500italic,700,700italic,900,900italic');</style></defs><g><rect fill="#FAFAFA" height="904" style="stroke:none;stroke-width:1.0;" width="1539" x="0" y="0"/><!--cluster Backend Player (Python)--><g id="cluster_Backend Player (Python)"><path d="M10,78 L163.7227,78 A6,6 0 0 1 167.7227,82 L174.7227,100.4063 L649,100.4063 A4,4 0 0 1 653,104.4063 L653,703 A4,4 0 0 1 649,707 L10,707 A4,4 0 0 1 6,703 L6,82 A4,4 0 0 1 10,78 " fill="#E3F2FD" style="stroke:#000000;stroke-width:1.5;"/><line style="stroke:#000000;stroke-width:1.5;" x1="6" x2="174.7227" y1="100.4063" y2="100.4063"/><text fill="#000000" font-family="Roboto" font-size="14" font-weight="bold" lengthAdjust="spacing" textLength="155.7227" x="10" y="92.9883">Backend Player (Python)</text></g><!--cluster Frontend Player (TypeScript)--><g id="cluster_Frontend Player (TypeScript)"><path d="M943,78 L1122.8701,78 A6,6 0 0 1 1126.8701,82 L1133.8701,100.4063 L1216,100.4063 A4,4 0 0 1 1220,104.4063 L1220,893 A4,4 0 0 1 1216,897 L943,897 A4,4 0 0 1 939,893 L939,82 A4,4 0 0 1 943,78 " fill="#FFF3E0" style="stroke:#000000;stroke-width:1.5;"/><line style="stroke:#000000;stroke-width:1.5;" x1="939" x2="1133.8701" y1="100.4063" y2="100.4063"/><text fill="#000000" font-family="Roboto" font-size="14" font-weight="bold" lengthAdjust="spacing" textLength="181.8701" x="943" y="92.9883">Frontend Player (TypeScript)</text></g><!--cluster semantics_doc--><g id="cluster_semantics_doc"><path d="M1248,6 L1494.623,6 A6,6 0 0 1 1498.623,10 L1505.623,44.8125 L1528,44.8125 A4,4 0 0 1 1532,48.8125 L1532,277 A4,4 0 0 1 1528,281 L1248,281 A4,4 0 0 1 1244,277 L1244,10 A4,4 0 0 1 1248,6 " fill="#F5F5F5" style="stroke:#000000;stroke-width:1.5;"/><line style="stroke:#000000;stroke-width:1.5;" x1="1244" x2="1505.623" y1="44.8125" y2="44.8125"/><text fill="#000000" font-family="Roboto" font-size="14" font-weight="bold" lengthAdjust="spacing" textLength="141.4287" x="1301.5972" y="20.9883">Runtime Semantics v1</text><text fill="#000000" font-family="Roboto" font-size="14" font-weight="bold" lengthAdjust="spacing" textLength="248.623" x="1248" y="37.3945">(docs/planning/runtime-semantics.md)</text></g><!--entity storybook_model--><g id="elem_storybook_model"><rect fill="#BBDEFB" height="95.625" rx="4" ry="4" style="stroke:#555555;stroke-width:0.5;" width="203.0576" x="156.5" y="113"/><rect fill="#BBDEFB" height="10" style="stroke:#555555;stroke-width:0.5;" width="15" x="339.5576" y="118"/><rect fill="#BBDEFB" height="2" style="stroke:#555555;stroke-width:0.5;" width="4" x="337.5576" y="120"/><rect fill="#BBDEFB" height="2" style="stroke:#555555;stroke-width:0.5;" width="4" x="337.5576" y="124"/><text fill="#222222" font-family="Roboto" font-size="14" lengthAdjust="spacing" textLength="163.0576" x="171.5" y="145.9883">Storybook Pydantic Model</text><text fill="#222222" font-family="Roboto" font-size="14" lengthAdjust="spacing" textLength="132.248" x="171.5" y="162.3945">storybook/models.py</text><text fill="#222222" font-family="Roboto" font-size="14" lengthAdjust="spacing" textLength="154.6357" x="171.5" y="178.8008">Storybook, Node, Choice,</text><text fill="#222222" font-family="Roboto" font-size="14" lengthAdjust="spacing" textLength="143.042" x="171.5" y="195.207">Effect, Variable, Ending</text></g><!--entity cond_validator--><g id="elem_cond_validator"><rect fill="#BBDEFB" height="95.625" rx="4" ry="4" style="stroke:#555555;stroke-width:0.5;" width="267.5273" x="22" y="367"/><rect fill="#BBDEFB" height="10" style="stroke:#555555;stroke-width:0.5;" width="15" x="269.5273" y="372"/><rect fill="#BBDEFB" height="2" style="stroke:#555555;stroke-width:0.5;" width="4" x="267.5273" y="374"/><rect fill="#BBDEFB" height="2" style="stroke:#555555;stroke-width:0.5;" width="4" x="267.5273" y="378"/><text fill="#222222" font-family="Roboto" font-size="14" lengthAdjust="spacing" textLength="147.9707" x="37" y="399.9883">Condition DSL Validator</text><text fill="#222222" font-family="Roboto" font-size="14" lengthAdjust="spacing" textLength="144.0811" x="37" y="416.3945">storybook/condition.py</text><text fill="#222222" font-family="Roboto" font-size="14" lengthAdjust="spacing" textLength="122.7461" x="37" y="432.8008">validate_condition()</text><text fill="#222222" font-family="Roboto" font-size="14" lengthAdjust="spacing" textLength="227.5273" x="37" y="449.207">whitelisted-op check at schema time</text></g><!--entity evaluator--><g id="elem_evaluator"><rect fill="#BBDEFB" height="128.4375" rx="4" ry="4" style="stroke:#555555;stroke-width:0.5;" width="223.3809" x="79.5" y="563"/><rect fill="#BBDEFB" height="10" style="stroke:#555555;stroke-width:0.5;" width="15" x="282.8809" y="568"/><rect fill="#BBDEFB" height="2" style="stroke:#555555;stroke-width:0.5;" width="4" x="280.8809" y="570"/><rect fill="#BBDEFB" height="2" style="stroke:#555555;stroke-width:0.5;" width="4" x="280.8809" y="574"/><text fill="#222222" font-family="Roboto" font-size="14" lengthAdjust="spacing" textLength="121.7002" x="94.5" y="595.9883">Condition Evaluator</text><text fill="#222222" font-family="Roboto" font-size="14" lengthAdjust="spacing" textLength="143.9033" x="94.5" y="612.3945">storybook/evaluator.py</text><text fill="#222222" font-family="Roboto" font-size="14" lengthAdjust="spacing" textLength="183.3809" x="94.5" y="628.8008">evaluate(condition, var_state)</text><text fill="#222222" font-family="Roboto" font-size="14" lengthAdjust="spacing" textLength="173.3799" x="94.5" y="645.207">whitelisted ops: eq, ne, lt, gt,</text><text fill="#222222" font-family="Roboto" font-size="14" lengthAdjust="spacing" textLength="182.6221" x="94.5" y="661.6133">lte, gte, and, or, not, var, literal</text><text fill="#222222" font-family="Roboto" font-size="14" lengthAdjust="spacing" textLength="163.4063" x="94.5" y="678.0195">strict equality, no coercion</text></g><!--entity engine--><g id="elem_engine"><rect fill="#1565C0" height="112.0313" rx="4" ry="4" style="stroke:#555555;stroke-width:0.5;" width="223.9346" x="325" y="359"/><rect fill="#1565C0" height="10" style="stroke:#555555;stroke-width:0.5;" width="15" x="528.9346" y="364"/><rect fill="#1565C0" height="2" style="stroke:#555555;stroke-width:0.5;" width="4" x="526.9346" y="366"/><rect fill="#1565C0" height="2" style="stroke:#555555;stroke-width:0.5;" width="4" x="526.9346" y="370"/><text fill="#222222" font-family="Roboto" font-size="14" lengthAdjust="spacing" textLength="77.8271" x="340" y="391.9883">Story Engine</text><text fill="#222222" font-family="Roboto" font-size="14" lengthAdjust="spacing" textLength="103.2021" x="340" y="408.3945">player/engine.py</text><text fill="#222222" font-family="Roboto" font-size="14" lengthAdjust="spacing" textLength="183.9346" x="340" y="424.8008">StoryEngine: start(), choose(),</text><text fill="#222222" font-family="Roboto" font-size="14" lengthAdjust="spacing" textLength="178.7803" x="340" y="441.207">visible_choices(), is_ending()</text><text fill="#222222" font-family="Roboto" font-size="14" lengthAdjust="spacing" textLength="135.9258" x="340" y="457.6133">Pure: no I/O, no async</text></g><!--entity reading_state--><g id="elem_reading_state"><rect fill="#BBDEFB" height="112.0313" rx="4" ry="4" style="stroke:#555555;stroke-width:0.5;" width="198.4502" x="387" y="571"/><rect fill="#BBDEFB" height="10" style="stroke:#555555;stroke-width:0.5;" width="15" x="565.4502" y="576"/><rect fill="#BBDEFB" height="2" style="stroke:#555555;stroke-width:0.5;" width="4" x="563.4502" y="578"/><rect fill="#BBDEFB" height="2" style="stroke:#555555;stroke-width:0.5;" width="4" x="563.4502" y="582"/><text fill="#222222" font-family="Roboto" font-size="14" lengthAdjust="spacing" textLength="83.0703" x="402" y="603.9883">ReadingState</text><text fill="#222222" font-family="Roboto" font-size="14" lengthAdjust="spacing" textLength="93.0508" x="402" y="620.3945">player/state.py</text><text fill="#222222" font-family="Roboto" font-size="14" lengthAdjust="spacing" textLength="147.4854" x="402" y="636.8008">current_node, var_state,</text><text fill="#222222" font-family="Roboto" font-size="14" lengthAdjust="spacing" textLength="139.2139" x="402" y="653.207">path, visit_set, version,</text><text fill="#222222" font-family="Roboto" font-size="14" lengthAdjust="spacing" textLength="158.4502" x="402" y="669.6133">state_revision, save_slots</text></g><!--entity ts_evaluator--><g id="elem_ts_evaluator"><rect fill="#FFE0B2" height="95.625" rx="4" ry="4" style="stroke:#555555;stroke-width:0.5;" width="243.6973" x="957" y="113"/><rect fill="#FFE0B2" height="10" style="stroke:#555555;stroke-width:0.5;" width="15" x="1180.6973" y="118"/><rect fill="#FFE0B2" height="2" style="stroke:#555555;stroke-width:0.5;" width="4" x="1178.6973" y="120"/><rect fill="#FFE0B2" height="2" style="stroke:#555555;stroke-width:0.5;" width="4" x="1178.6973" y="124"/><text fill="#222222" font-family="Roboto" font-size="14" lengthAdjust="spacing" textLength="141.8389" x="972" y="145.9883">TS Condition Evaluator</text><text fill="#222222" font-family="Roboto" font-size="14" lengthAdjust="spacing" textLength="200.6211" x="972" y="162.3945">frontend/src/player/evaluator.ts</text><text fill="#222222" font-family="Roboto" font-size="14" lengthAdjust="spacing" textLength="203.6973" x="972" y="178.8008">Mirrors Python evaluator exactly;</text><text fill="#222222" font-family="Roboto" font-size="14" lengthAdjust="spacing" textLength="179.4844" x="972" y="195.207">conformance fixtures shared</text></g><!--entity ts_engine--><g id="elem_ts_engine"><rect fill="#FFE0B2" height="95.625" rx="4" ry="4" style="stroke:#555555;stroke-width:0.5;" width="224.3311" x="967" y="367"/><rect fill="#FFE0B2" height="10" style="stroke:#555555;stroke-width:0.5;" width="15" x="1171.3311" y="372"/><rect fill="#FFE0B2" height="2" style="stroke:#555555;stroke-width:0.5;" width="4" x="1169.3311" y="374"/><rect fill="#FFE0B2" height="2" style="stroke:#555555;stroke-width:0.5;" width="4" x="1169.3311" y="378"/><text fill="#222222" font-family="Roboto" font-size="14" lengthAdjust="spacing" textLength="97.9658" x="982" y="399.9883">TS Story Engine</text><text fill="#222222" font-family="Roboto" font-size="14" lengthAdjust="spacing" textLength="184.3311" x="982" y="416.3945">frontend/src/player/engine.ts</text><text fill="#222222" font-family="Roboto" font-size="14" lengthAdjust="spacing" textLength="140.4443" x="982" y="432.8008">Mirrors Python engine:</text><text fill="#222222" font-family="Roboto" font-size="14" lengthAdjust="spacing" textLength="181.4805" x="982" y="449.207">same transition order (RS v1)</text></g><!--entity xstate--><g id="elem_xstate"><rect fill="#FFE0B2" height="95.625" rx="4" ry="4" style="stroke:#555555;stroke-width:0.5;" width="236.2461" x="961" y="579"/><rect fill="#FFE0B2" height="10" style="stroke:#555555;stroke-width:0.5;" width="15" x="1177.2461" y="584"/><rect fill="#FFE0B2" height="2" style="stroke:#555555;stroke-width:0.5;" width="4" x="1175.2461" y="586"/><rect fill="#FFE0B2" height="2" style="stroke:#555555;stroke-width:0.5;" width="4" x="1175.2461" y="590"/><text fill="#222222" font-family="Roboto" font-size="14" lengthAdjust="spacing" textLength="98.1982" x="976" y="611.9883">XState Machine</text><text fill="#222222" font-family="Roboto" font-size="14" lengthAdjust="spacing" textLength="196.2461" x="976" y="628.3945">frontend/src/player/machine.ts</text><text fill="#222222" font-family="Roboto" font-size="14" lengthAdjust="spacing" textLength="167.4873" x="976" y="644.8008">Wraps TS engine in explicit</text><text fill="#222222" font-family="Roboto" font-size="14" lengthAdjust="spacing" textLength="173.6328" x="976" y="661.207">state machine for testability</text></g><!--entity reader_ui--><g id="elem_reader_ui"><rect fill="#FFF3E0" height="95.625" rx="4" ry="4" style="stroke:#555555;stroke-width:0.5;" width="216.8047" x="970.5" y="785"/><rect fill="#FFF3E0" height="10" style="stroke:#555555;stroke-width:0.5;" width="15" x="1167.3047" y="790"/><rect fill="#FFF3E0" height="2" style="stroke:#555555;stroke-width:0.5;" width="4" x="1165.3047" y="792"/><rect fill="#FFF3E0" height="2" style="stroke:#555555;stroke-width:0.5;" width="4" x="1165.3047" y="796"/><text fill="#222222" font-family="Roboto" font-size="14" lengthAdjust="spacing" textLength="60.0879" x="985.5" y="817.9883">Reader UI</text><text fill="#222222" font-family="Roboto" font-size="14" lengthAdjust="spacing" textLength="129.4316" x="985.5" y="834.3945">frontend/src/reader/</text><text fill="#222222" font-family="Roboto" font-size="14" lengthAdjust="spacing" textLength="176.8047" x="985.5" y="850.8008">Renders node body, choices,</text><text fill="#222222" font-family="Roboto" font-size="14" lengthAdjust="spacing" textLength="117.5439" x="985.5" y="867.207">triggers transitions</text></g><g id="elem_semantics_note"><path d="M1260.5,61 L1260.5,261.0469 A4,4 0 0 0 1264.5,265.0469 L1511.6206,265.0469 A4,4 0 0 0 1515.6206,261.0469 L1515.6206,67 L1505.6206,57 L1264.5,57 A4,4 0 0 0 1260.5,61 " fill="#FEFFDD" style="stroke:#181818;stroke-width:0.5;"/><path d="M1505.6206,57 L1505.6206,65 A2,2 0 0 0 1507.6206,67 L1515.6206,67 L1505.6206,57 " fill="#FEFFDD" style="stroke:#181818;stroke-width:1.0;"/><text fill="#000000" font-family="Roboto" font-size="13" lengthAdjust="spacing" textLength="188.2588" x="1266.5" y="74.0605">Transition order on every choice:</text><text fill="#000000" font-family="Roboto" font-size="13" lengthAdjust="spacing" textLength="234.1206" x="1266.5" y="89.2949">1. Evaluate choice condition vs var_state</text><text fill="#000000" font-family="Roboto" font-size="13" lengthAdjust="spacing" textLength="131.6313" x="1266.5" y="104.5293">2. Apply choice effects</text><text fill="#000000" font-family="Roboto" font-size="13" lengthAdjust="spacing" textLength="205.5942" x="1266.5" y="119.7637">3. Set current_node to choice target</text><text fill="#000000" font-family="Roboto" font-size="13" lengthAdjust="spacing" textLength="180.8765" x="1266.5" y="134.998">4. Apply target on_enter effects</text><text fill="#000000" font-family="Roboto" font-size="13" lengthAdjust="spacing" textLength="165.4834" x="1276.1738" y="150.2324">(once: true -&gt; first entry only)</text><text fill="#000000" font-family="Roboto" font-size="13" lengthAdjust="spacing" textLength="3.2246" x="1266.5" y="165.4668">&#160;</text><text fill="#000000" font-family="Roboto" font-size="13" lengthAdjust="spacing" textLength="158.1519" x="1266.5" y="180.7012">Bounds clamping (int vars):</text><text fill="#000000" font-family="Roboto" font-size="13" lengthAdjust="spacing" textLength="206.6099" x="1266.5" y="195.9355">- set/inc/dec all clamp to [min, max]</text><text fill="#000000" font-family="Roboto" font-size="13" lengthAdjust="spacing" textLength="3.2246" x="1266.5" y="211.1699">&#160;</text><text fill="#000000" font-family="Roboto" font-size="13" lengthAdjust="spacing" textLength="157.6377" x="1266.5" y="226.4043">Hidden choices (section 4):</text><text fill="#000000" font-family="Roboto" font-size="13" lengthAdjust="spacing" textLength="210.9009" x="1266.5" y="241.6387">- condition false -&gt; choice not shown</text><text fill="#000000" font-family="Roboto" font-size="13" lengthAdjust="spacing" textLength="197.8564" x="1266.5" y="256.873">- condition true or absent -&gt; visible</text></g><g id="elem_GMN25"><path d="M669.5,580.5 L669.5,673.9063 A4,4 0 0 0 673.5,677.9063 L918.2021,677.9063 A4,4 0 0 0 922.2021,673.9063 L922.2021,586.5 L912.2021,576.5 L673.5,576.5 A4,4 0 0 0 669.5,580.5 " fill="#FEFFDD" style="stroke:#181818;stroke-width:0.5;"/><path d="M912.2021,576.5 L912.2021,584.5 A2,2 0 0 0 914.2021,586.5 L922.2021,586.5 L912.2021,576.5 " fill="#FEFFDD" style="stroke:#181818;stroke-width:1.0;"/><text fill="#000000" font-family="Roboto" font-size="13" lengthAdjust="spacing" textLength="163.1411" x="675.5" y="593.5605">ADR-006: in-house evaluator</text><text fill="#000000" font-family="Roboto" font-size="13" lengthAdjust="spacing" textLength="152.3691" x="675.5" y="608.7949">No third-party logic library.</text><text fill="#000000" font-family="Roboto" font-size="13" lengthAdjust="spacing" textLength="154.1592" x="675.5" y="624.0293">Whitelisted operators only.</text><text fill="#000000" font-family="Roboto" font-size="13" lengthAdjust="spacing" textLength="183.9932" x="675.5" y="639.2637">Strict equality, no type coercion.</text><text fill="#000000" font-family="Roboto" font-size="13" lengthAdjust="spacing" textLength="231.7021" x="675.5" y="654.498">Python + TypeScript share conformance</text><text fill="#000000" font-family="Roboto" font-size="13" lengthAdjust="spacing" textLength="151.8867" x="675.5" y="669.7324">fixtures (cross-impl tests).</text></g><g id="elem_GMN28"><path d="M369.5,794 L369.5,872.1719 A4,4 0 0 0 373.5,876.1719 L598.2642,876.1719 A4,4 0 0 0 602.2642,872.1719 L602.2642,800 L592.2642,790 L490,790 L486,683.21 L482,790 L373.5,790 A4,4 0 0 0 369.5,794 " fill="#FEFFDD" style="stroke:#181818;stroke-width:0.5;"/><path d="M592.2642,790 L592.2642,798 A2,2 0 0 0 594.2642,800 L602.2642,800 L592.2642,790 " fill="#FEFFDD" style="stroke:#181818;stroke-width:0.5;"/><text fill="#000000" font-family="Roboto" font-size="13" lengthAdjust="spacing" textLength="171.063" x="375.5" y="807.0605">save_slots: named snapshots</text><text fill="#000000" font-family="Roboto" font-size="13" lengthAdjust="spacing" textLength="175.3921" x="375.5" y="822.2949">(a clone of state at save time).</text><text fill="#000000" font-family="Roboto" font-size="13" lengthAdjust="spacing" textLength="193.1782" x="375.5" y="837.5293">visit_set drives once: true effects.</text><text fill="#000000" font-family="Roboto" font-size="13" lengthAdjust="spacing" textLength="211.7642" x="375.5" y="852.7637">state_revision: server-owned counter</text><text fill="#000000" font-family="Roboto" font-size="13" lengthAdjust="spacing" textLength="155.0415" x="375.5" y="867.998">for optimistic concurrency.</text></g><!--link storybook_model to engine--><g id="link_storybook_model_engine"><path d="M291.46,209.1 C321.61,251.56 362.4958,309.1082 394.3058,353.8982 " fill="none" id="storybook_model-to-engine" style="stroke:#181818;stroke-width:1.0;"/><polygon fill="#181818" points="397.78,358.79,395.8299,349.1361,394.8848,354.7135,389.3075,353.7684,397.78,358.79" style="stroke:#181818;stroke-width:1.0;"/><text fill="#000000" font-family="Roboto" font-size="13" lengthAdjust="spacing" textLength="58.6587" x="411.2324" y="310.0605">Storybook</text><text fill="#000000" font-family="Roboto" font-size="13" lengthAdjust="spacing" textLength="131.1235" x="375" y="325.2949">(parsed, schema-valid)</text></g><!--link storybook_model to cond_validator--><g id="link_storybook_model_cond_validator"><path d="M238.93,209.1 C220.71,254.12 195.6404,316.058 177.4004,361.138 " fill="none" id="storybook_model-to-cond_validator" style="stroke:#181818;stroke-width:1.0;"/><polygon fill="#181818" points="175.15,366.7,182.2337,359.8573,177.0254,362.065,174.8177,356.8567,175.15,366.7" style="stroke:#181818;stroke-width:1.0;"/><text fill="#000000" font-family="Roboto" font-size="13" lengthAdjust="spacing" textLength="80.374" x="206.5735" y="310.0605">condition DSL</text><text fill="#000000" font-family="Roboto" font-size="13" lengthAdjust="spacing" textLength="89.521" x="202" y="325.2949">at schema time</text></g><!--link engine to evaluator--><g id="link_engine_evaluator"><path d="M324.94,465.69 C318.93,467.64 312.92,469.43 307,471 C252.27,485.51 91.6,458.67 54,501 C31.97,525.79 44.9867,547.356 74.2167,568.476 " fill="none" id="engine-to-evaluator" style="stroke:#181818;stroke-width:1.0;"/><polygon fill="#181818" points="79.08,571.99,74.1277,563.4768,75.0272,569.0617,69.4424,569.9613,79.08,571.99" style="stroke:#181818;stroke-width:1.0;"/><text fill="#000000" font-family="Roboto" font-size="13" lengthAdjust="spacing" textLength="151.3789" x="55" y="514.0605">evaluate(choice.condition,</text><text fill="#000000" font-family="Roboto" font-size="13" lengthAdjust="spacing" textLength="57.3447" x="102.0171" y="529.2949">var_state)</text></g><!--link evaluator to engine--><g id="link_evaluator_engine"><path d="M224.33,562.73 C237.73,541.31 254.63,518.42 274,501 C289.07,487.45 301.505,478.3993 319.485,467.9293 " fill="none" id="evaluator-to-engine" style="stroke:#181818;stroke-width:1.0;"/><polygon fill="#181818" points="324.67,464.91,314.8797,465.9823,320.3492,467.4261,318.9054,472.8956,324.67,464.91" style="stroke:#181818;stroke-width:1.0;"/><text fill="#000000" font-family="Roboto" font-size="13" lengthAdjust="spacing" textLength="25.2891" x="275" y="521.5605">bool</text></g><!--link engine to reading_state--><g id="link_engine_reading_state"><path d="M331.79,471.05 C311.59,488.99 300.42,510.22 314,533 C330.43,560.56 352.7852,577.7734 381.2452,591.8934 " fill="none" id="engine-to-reading_state" style="stroke:#181818;stroke-width:1.0;"/><polygon fill="#181818" points="386.62,594.56,380.3355,586.9768,382.141,592.3378,376.78,594.1433,386.62,594.56" style="stroke:#181818;stroke-width:1.0;"/><text fill="#000000" font-family="Roboto" font-size="13" lengthAdjust="spacing" textLength="126.1152" x="353.543" y="514.0605">produces / consumes</text><text fill="#000000" font-family="Roboto" font-size="13" lengthAdjust="spacing" textLength="203.2012" x="315" y="529.2949">(immutable: clone on each choose)</text></g><!--link reading_state to engine--><g id="link_reading_state_engine"><path d="M518.5,570.97 C527.4,548.85 532.33,523.35 523,501 C518.55,490.35 515.8369,484.9958 508.3669,475.8558 " fill="none" id="reading_state-to-engine" style="stroke:#181818;stroke-width:1.0;"/><polygon fill="#181818" points="504.57,471.21,507.1682,480.71,507.7341,475.0815,513.3626,475.6474,504.57,471.21" style="stroke:#181818;stroke-width:1.0;"/><text fill="#000000" font-family="Roboto" font-size="13" lengthAdjust="spacing" textLength="73.5122" x="529" y="521.5605">current state</text></g><!--link ts_evaluator to ts_engine--><g id="link_ts_evaluator_ts_engine"><path d="M1079,209.1 C1079,254.12 1079,315.62 1079,360.7 " fill="none" id="ts_evaluator-to-ts_engine" style="stroke:#181818;stroke-width:1.0;"/><polygon fill="#181818" points="1079,366.7,1083,357.7,1079,361.7,1075,357.7,1079,366.7" style="stroke:#181818;stroke-width:1.0;"/><text fill="#000000" font-family="Roboto" font-size="13" lengthAdjust="spacing" textLength="57.7827" x="1080" y="317.5605">evaluate()</text></g><!--link ts_engine to xstate--><g id="link_ts_engine_xstate"><path d="M1079,463.13 C1079,497.59 1079,538.15 1079,572.67 " fill="none" id="ts_engine-to-xstate" style="stroke:#181818;stroke-width:1.0;"/><polygon fill="#181818" points="1079,578.67,1083,569.67,1079,573.67,1075,569.67,1079,578.67" style="stroke:#181818;stroke-width:1.0;"/><text fill="#000000" font-family="Roboto" font-size="13" lengthAdjust="spacing" textLength="60.9692" x="1080" y="521.5605">step result</text></g><!--link xstate to reader_ui--><g id="link_xstate_reader_ui"><path d="M1019.78,675.07 C1006.48,688.95 994.19,705.23 987,723 C977.8,745.72 985.2262,762.9286 1003.0062,780.6986 " fill="none" id="xstate-to-reader_ui" style="stroke:#181818;stroke-width:1.0;"/><polygon fill="#181818" points="1007.25,784.94,1003.7119,775.7486,1003.7135,781.4055,998.0566,781.4071,1007.25,784.94" style="stroke:#181818;stroke-width:1.0;"/><text fill="#000000" font-family="Roboto" font-size="13" lengthAdjust="spacing" textLength="87.4136" x="996.5789" y="736.0605">visible choices,</text><text fill="#000000" font-family="Roboto" font-size="13" lengthAdjust="spacing" textLength="104.5713" x="988" y="751.2949">current node body</text></g><!--link reader_ui to xstate--><g id="link_reader_ui_xstate"><path d="M1091.86,784.65 C1094,774.92 1095.88,764.68 1097,755 C1100.05,728.56 1097.52,705.0208 1092.69,681.1508 " fill="none" id="reader_ui-to-xstate" style="stroke:#181818;stroke-width:1.0;"/><polygon fill="#181818" points="1091.5,675.27,1089.3644,684.8845,1092.4916,680.1707,1097.2055,683.2979,1091.5,675.27" style="stroke:#181818;stroke-width:1.0;"/><text fill="#000000" font-family="Roboto" font-size="13" lengthAdjust="spacing" textLength="66.6377" x="1099" y="743.5605">user choice</text></g><!--link engine to GMN25--><g id="link_engine_GMN25"><path d="M549.13,467.91 C569.97,478.36 591.35,489.64 611,501 C650.76,524 693.35,552.49 727.63,576.46 " fill="none" id="engine-GMN25" style="stroke:#181818;stroke-width:1.0;stroke-dasharray:7.0,7.0;"/></g><!--SRC=[fLVRRXit47tNLmpa1qkeBeuJ1uMA5l1DQ80cCQmqQL4L0hLBIOHtoIr9EHAA_dlFSE-o71UeZ5n43eU7CtFEZ4_fn__nwPpIjKapewNsTAF4sefqGdU9s4jBjtgjj2IXOvfvO_TBOnxezb4aMu6lVFJtZtGPF-BirihEALPcPciZIIkLI3V1To9det6qDmjHsespu7qiW_THjgVYqmkNv9SEw7whlKebpMGgyB_8qUEh_hSzEYzyqo7rxgM8bLxFU8DYuKMK2EUUS-FAHuvJ4yl4bQvwrUi7z04x0xhU61NXtzlLIaR-PN-o35fmsIk-obv_G9-53V06z7MZl4oKyp8ca_q7b97HiVBAwDnhzPLkPhyGhb0nN_co7nTj4EI5t6N6UlWA1rRMQ2zrFEQJxPHvHyrFxzECKcMjiMHMLAMr_xoRAXfDJmTk6X5xtbCgeirJHBtVyeGNk_dns4IEZscDWXZRlBg6hgokKHeVCHEnvJ_3ixEtmogyRgZqncoT7DOWm-d_HSIEUr0w4-0VnN8bjecVuhqV12ZGlJTBuqstOR8KqSFQcgsEhqs2Y9rCB_cdOL5iMWqYVzzOZqgwp_m-aRHDa_FEiMtwkqDqPMmiRN75HVXWbO4LQ-VXq_cdqyc0IAm1zWh_GPfA4UdTxVt6w7wNJcvVJy-dDt0C7_KztLfRxlPno0QzP_xDzH52plLpP9phd8s1Kaei4-QdPlftIJYgV2s2BpgvkhgvdLuTOBbkSUXpoQ4cb2RhvhgWcLnKoxt-N3UeF3GPWL_H0mbFETE8Io-0uaEBYgalOggqjucdoPIvhgIbmZE05DX5qCOsCXQP2Sc_1iHwco1mQuye9gn5Q_uBmZyWOx5lVF02Avos8gJ6giZZz1Re_PvjW5dQ23U6frMmddbLI6FHOkRwi2SKQSwt9qYUi9xLCjeOurWt4Ndb59AyY4Bw7Uygjv0Xuvo3EuZSX66z6tyCy8JRwoZ7bZUsarSNRo-kpmw0DNj61QniBNCTRQs5tKA7sgj22q2Py1ki09PVECaHazPn0ZXQN29MyYPdn8b7kN29yIxWiVcLkQSwNarMJGlrgsZrQP_9MMHLvfbQq-dqzUtP4sf1KezMpqkgFDVlWn8xojdRoARSYSWd-nyG2QDNna8_GyFVSLC1pJR2oZYyoYCRTH5CfxTdL-TFyRNhu9jTvocgl3mGNvP9RuLs-LE3RA7zptXegC0KMJ-Af6WPx_EMSHn8tMtc-eiLcIFWBxmgeDbbYOgKBz9TjXz2aCXBh2qLKoN0sHMfFeg5An3mVtrt0CE6zV5StsC5jKLSWxGqyJuGWrc0MWCnrslUhUDHLvcqYwqgowLTOSS6hhdklTmtym1NAmkSm0qN_1EQ2DH3jYrufSET-jDXoaAfIHH4_fv9i7erAcjN5kjKppgFhYPXi3uVqMMM9QKBag4hkB3tUeJdUMfocBmfBI4oQ-c3uPlIIRu6N2WVI5_B6uyQ1jK_GQYtaeO_WGRMGHIHWpsE99XSWk4LzsAeVIBI356adaAQWThrymSE4Hi_LZeQnp8YaIIvAKFx8rNGYrJi_inT_QpYMEeotTHpGCDXU5EvgaEp4eaBi8ht8UpWf_cgdrW6_2XJiNHSWJXIg2iiMNH2mb0ifpGS3kbU9YAKrKQ10rZf73RN8JmKn9Wq6ZpA2LE6asWhUISSXjxNxnvrSD0SuQWruSxrGKFj53U6oolXmR6w9uOuZEhMoFsxx8quNnrgumUkfEMzhTUmoAo9jvoFCQDssrH28degJRUU1v49yWbkX-g6A1HT33Us7RLlBOgKmbwtqsd9APlMajPy8xpM6sosgr2YwMV0xZ1RTZkx-ivQ661K9BuXA2MGIcrotFc9zWqOYcrn4eW3yJ6vUfFMlncWeYvlxdcYda0qXs6GhjE5tG-6_4RPU8XIyNjAp1e3OQAMLjZz2FjVMXCCfX7F7O7Pnhkp8tE9HwkiXXCsAjh7TrGtqRnnKQEdmQxgQht86eUvFysI8EMkF-fKl3XyPokfy58tUumZQ5GnEOtciJ51HdgYB8vLdkem9-98AEe-mwr62egjUfJys4fq2ZrYi_QGWQ59MaZf47p7bH4a2Fh5Z-9Vi38uHmWHMRmuJt2qRxpfNm00]--></g></svg>
