<svg xmlns="http://www.w3.org/2000/svg" xmlns:xlink="http://www.w3.org/1999/xlink" contentStyleType="text/css" height="1063px" preserveAspectRatio="none" style="width:2338px;height:1063px;background:#FAFAFA;" version="1.1" viewBox="0 0 2338 1063" width="2338px" zoomAndPan="magnify"><defs><style type="text/css">@import url('https://fonts.googleapis.com/css?family=Roboto:400,100,100italic,300,300italic,400italic,500,500italic,700,700italic,900,900italic');</style></defs><g><rect fill="#FAFAFA" height="1063" style="stroke:none;stroke-width:1.0;" width="2338" x="0" y="0"/><!--cluster Publishing--><g id="cluster_Publishing"><path d="M10,218 L74.7803,218 A6,6 0 0 1 78.7803,222 L85.7803,240.4063 L1028,240.4063 A4,4 0 0 1 1032,244.4063 L1032,982 A4,4 0 0 1 1028,986 L10,986 A4,4 0 0 1 6,982 L6,222 A4,4 0 0 1 10,218 " fill="#F3E5F5" style="stroke:#000000;stroke-width:1.5;"/><line style="stroke:#000000;stroke-width:1.5;" x1="6" x2="85.7803" y1="240.4063" y2="240.4063"/><text fill="#000000" font-family="Roboto" font-size="14" font-weight="bold" lengthAdjust="spacing" textLength="66.7803" x="10" y="232.9883">Publishing</text></g><!--cluster pg--><g id="cluster_pg"><path d="M1291,842.5 C1291,832.5 1533.5,832.5 1533.5,832.5 C1533.5,832.5 1776,832.5 1776,842.5 L1776,967.5 C1776,977.5 1533.5,977.5 1533.5,977.5 C1533.5,977.5 1291,977.5 1291,967.5 L1291,842.5 " fill="#E0F7FA" style="stroke:#181818;stroke-width:1.0;"/><path d="M1291,842.5 C1291,852.5 1533.5,852.5 1533.5,852.5 C1533.5,852.5 1776,852.5 1776,842.5 " fill="none" style="stroke:#181818;stroke-width:1.0;"/><text fill="#000000" font-family="Roboto" font-size="14" font-weight="bold" lengthAdjust="spacing" textLength="75.4209" x="1495.7896" y="867.4883">PostgreSQL</text></g><!--entity approval_router--><g id="elem_approval_router"><rect fill="#E1BEE7" height="161.25" rx="4" ry="4" style="stroke:#555555;stroke-width:0.5;" width="203.4678" x="411.5" y="253"/><rect fill="#E1BEE7" height="10" style="stroke:#555555;stroke-width:0.5;" width="15" x="594.9678" y="258"/><rect fill="#E1BEE7" height="2" style="stroke:#555555;stroke-width:0.5;" width="4" x="592.9678" y="260"/><rect fill="#E1BEE7" height="2" style="stroke:#555555;stroke-width:0.5;" width="4" x="592.9678" y="264"/><text fill="#222222" font-family="Roboto" font-size="14" lengthAdjust="spacing" textLength="163.4678" x="426.5" y="285.9883">approval.py [global admin]</text><text fill="#222222" font-family="Roboto" font-size="14" lengthAdjust="spacing" textLength="96.7012" x="426.5" y="302.3945">api/approval.py</text><text fill="#222222" font-family="Roboto" font-size="14" lengthAdjust="spacing" textLength="98.5195" x="426.5" y="318.8008">POST .../submit</text><text fill="#222222" font-family="Roboto" font-size="14" lengthAdjust="spacing" textLength="105.7246" x="426.5" y="335.207">POST .../approve</text><text fill="#222222" font-family="Roboto" font-size="14" lengthAdjust="spacing" textLength="119.499" x="426.5" y="351.6133">POST .../send-back</text><text fill="#222222" font-family="Roboto" font-size="14" lengthAdjust="spacing" textLength="100.4609" x="426.5" y="368.0195">POST .../archive</text><text fill="#222222" font-family="Roboto" font-size="14" lengthAdjust="spacing" textLength="86.4678" x="426.5" y="384.4258">GET .../review</text><text fill="#222222" font-family="Roboto" font-size="14" lengthAdjust="spacing" textLength="117.5029" x="426.5" y="400.832">GET /review-queue</text></g><!--entity load_admin--><g id="elem_load_admin"><rect fill="#D1C4E9" height="128.4375" rx="4" ry="4" style="stroke:#555555;stroke-width:0.5;" width="241.7832" x="527" y="567.5"/><rect fill="#D1C4E9" height="10" style="stroke:#555555;stroke-width:0.5;" width="15" x="748.7832" y="572.5"/><rect fill="#D1C4E9" height="2" style="stroke:#555555;stroke-width:0.5;" width="4" x="746.7832" y="574.5"/><rect fill="#D1C4E9" height="2" style="stroke:#555555;stroke-width:0.5;" width="4" x="746.7832" y="578.5"/><text fill="#222222" font-family="Roboto" font-size="14" lengthAdjust="spacing" textLength="125.5967" x="542" y="600.4883">_load_admin_story()</text><text fill="#222222" font-family="Roboto" font-size="14" lengthAdjust="spacing" textLength="96.7012" x="542" y="616.8945">api/approval.py</text><text fill="#222222" font-family="Roboto" font-size="14" lengthAdjust="spacing" textLength="189.5742" x="542" y="633.3008">requires ctx.principal.is_admin</text><text fill="#222222" font-family="Roboto" font-size="14" lengthAdjust="spacing" textLength="201.7832" x="542" y="649.707">(role checked BEFORE any load);</text><text fill="#222222" font-family="Roboto" font-size="14" lengthAdjust="spacing" textLength="149.2627" x="542" y="666.1133">SELECT ... FOR UPDATE</text><text fill="#222222" font-family="Roboto" font-size="14" lengthAdjust="spacing" textLength="196.6973" x="542" y="682.5195">(closes #129 concurrency race)</text></g><!--entity review_surface--><g id="elem_review_surface"><rect fill="#D1C4E9" height="112.0313" rx="4" ry="4" style="stroke:#555555;stroke-width:0.5;" width="205.1221" x="50.5" y="575.5"/><rect fill="#D1C4E9" height="10" style="stroke:#555555;stroke-width:0.5;" width="15" x="235.6221" y="580.5"/><rect fill="#D1C4E9" height="2" style="stroke:#555555;stroke-width:0.5;" width="4" x="233.6221" y="582.5"/><rect fill="#D1C4E9" height="2" style="stroke:#555555;stroke-width:0.5;" width="4" x="233.6221" y="586.5"/><text fill="#222222" font-family="Roboto" font-size="14" lengthAdjust="spacing" textLength="111.7129" x="65.5" y="608.4883">review_surface.py</text><text fill="#222222" font-family="Roboto" font-size="14" lengthAdjust="spacing" textLength="136.3701" x="65.5" y="624.8945">api/review_surface.py</text><text fill="#222222" font-family="Roboto" font-size="14" lengthAdjust="spacing" textLength="139.8018" x="65.5" y="641.3008">build_review_surface()</text><text fill="#222222" font-family="Roboto" font-size="14" lengthAdjust="spacing" textLength="165.1221" x="65.5" y="657.707">build_review_queue_item()</text><text fill="#222222" font-family="Roboto" font-size="14" lengthAdjust="spacing" textLength="156.8916" x="65.5" y="674.1133">applies admin noise floor</text></g><!--entity state_machine--><g id="elem_state_machine"><rect fill="#CE93D8" height="95.625" rx="4" ry="4" style="stroke:#555555;stroke-width:0.5;" width="219.3682" x="793.5" y="874"/><rect fill="#CE93D8" height="10" style="stroke:#555555;stroke-width:0.5;" width="15" x="992.8682" y="879"/><rect fill="#CE93D8" height="2" style="stroke:#555555;stroke-width:0.5;" width="4" x="990.8682" y="881"/><rect fill="#CE93D8" height="2" style="stroke:#555555;stroke-width:0.5;" width="4" x="990.8682" y="885"/><text fill="#222222" font-family="Roboto" font-size="14" lengthAdjust="spacing" textLength="89.4209" x="808.5" y="906.9883">State Machine</text><text fill="#222222" font-family="Roboto" font-size="14" lengthAdjust="spacing" textLength="179.3682" x="808.5" y="923.3945">publishing/state_machine.py</text><text fill="#222222" font-family="Roboto" font-size="14" lengthAdjust="spacing" textLength="113.7979" x="808.5" y="939.8008">assert_transition()</text><text fill="#222222" font-family="Roboto" font-size="14" lengthAdjust="spacing" textLength="137.6416" x="808.5" y="956.207">pure, dependency-free</text></g><!--entity service--><g id="elem_service"><rect fill="#CE93D8" height="128.4375" rx="4" ry="4" style="stroke:#555555;stroke-width:0.5;" width="172.4668" x="320" y="567.5"/><rect fill="#CE93D8" height="10" style="stroke:#555555;stroke-width:0.5;" width="15" x="472.4668" y="572.5"/><rect fill="#CE93D8" height="2" style="stroke:#555555;stroke-width:0.5;" width="4" x="470.4668" y="574.5"/><rect fill="#CE93D8" height="2" style="stroke:#555555;stroke-width:0.5;" width="4" x="470.4668" y="578.5"/><text fill="#222222" font-family="Roboto" font-size="14" lengthAdjust="spacing" textLength="114.0439" x="335" y="600.4883">Publishing Service</text><text fill="#222222" font-family="Roboto" font-size="14" lengthAdjust="spacing" textLength="132.4668" x="335" y="616.8945">publishing/service.py</text><text fill="#222222" font-family="Roboto" font-size="14" lengthAdjust="spacing" textLength="52.7324" x="335" y="633.3008">submit()</text><text fill="#222222" font-family="Roboto" font-size="14" lengthAdjust="spacing" textLength="59.9375" x="335" y="649.707">approve()</text><text fill="#222222" font-family="Roboto" font-size="14" lengthAdjust="spacing" textLength="76.1592" x="335" y="666.1133">send_back()</text><text fill="#222222" font-family="Roboto" font-size="14" lengthAdjust="spacing" textLength="54.6738" x="335" y="682.5195">archive()</text></g><!--entity auto_reject--><g id="elem_auto_reject"><rect fill="#CE93D8" height="95.625" rx="4" ry="4" style="stroke:#555555;stroke-width:0.5;" width="211.2539" x="804.5" y="583.5"/><rect fill="#CE93D8" height="10" style="stroke:#555555;stroke-width:0.5;" width="15" x="995.7539" y="588.5"/><rect fill="#CE93D8" height="2" style="stroke:#555555;stroke-width:0.5;" width="4" x="993.7539" y="590.5"/><rect fill="#CE93D8" height="2" style="stroke:#555555;stroke-width:0.5;" width="4" x="993.7539" y="594.5"/><text fill="#222222" font-family="Roboto" font-size="14" lengthAdjust="spacing" textLength="78.7295" x="819.5" y="616.4883">auto_reject()</text><text fill="#222222" font-family="Roboto" font-size="14" lengthAdjust="spacing" textLength="132.4668" x="819.5" y="632.8945">publishing/service.py</text><text fill="#222222" font-family="Roboto" font-size="14" lengthAdjust="spacing" textLength="143.7119" x="819.5" y="649.3008">machine-side rejection;</text><text fill="#222222" font-family="Roboto" font-size="14" lengthAdjust="spacing" textLength="171.2539" x="819.5" y="665.707">Actor.system(), no principal</text></g><!--entity storybook_row--><g id="elem_storybook_row"><rect fill="#E0F7FA" height="79.2188" rx="4" ry="4" style="stroke:#555555;stroke-width:0.5;" width="206.3936" x="1554" y="882.5"/><rect fill="#E0F7FA" height="10" style="stroke:#555555;stroke-width:0.5;" width="15" x="1740.3936" y="887.5"/><rect fill="#E0F7FA" height="2" style="stroke:#555555;stroke-width:0.5;" width="4" x="1738.3936" y="889.5"/><rect fill="#E0F7FA" height="2" style="stroke:#555555;stroke-width:0.5;" width="4" x="1738.3936" y="893.5"/><text fill="#222222" font-family="Roboto" font-size="14" lengthAdjust="spacing" textLength="63.1709" x="1569" y="915.4883">Storybook</text><text fill="#222222" font-family="Roboto" font-size="14" lengthAdjust="spacing" textLength="105.4033" x="1569" y="931.8945">.status, .visibility,</text><text fill="#222222" font-family="Roboto" font-size="14" lengthAdjust="spacing" textLength="166.3936" x="1569" y="948.3008">.current_published_version</text></g><!--entity version_row--><g id="elem_version_row"><rect fill="#E0F7FA" height="79.2188" rx="4" ry="4" style="stroke:#555555;stroke-width:0.5;" width="211.5957" x="1307" y="882.5"/><rect fill="#E0F7FA" height="10" style="stroke:#555555;stroke-width:0.5;" width="15" x="1498.5957" y="887.5"/><rect fill="#E0F7FA" height="2" style="stroke:#555555;stroke-width:0.5;" width="4" x="1496.5957" y="889.5"/><rect fill="#E0F7FA" height="2" style="stroke:#555555;stroke-width:0.5;" width="4" x="1496.5957" y="893.5"/><text fill="#222222" font-family="Roboto" font-size="14" lengthAdjust="spacing" textLength="110.5986" x="1322" y="915.4883">StorybookVersion</text><text fill="#222222" font-family="Roboto" font-size="14" lengthAdjust="spacing" textLength="171.5957" x="1322" y="931.8945">.approved_by, .published_at</text><text fill="#222222" font-family="Roboto" font-size="14" lengthAdjust="spacing" textLength="118.9863" x="1322" y="948.3008">.moderation_report</text></g><!--entity admin--><g id="elem_admin"><ellipse cx="512.9482" cy="14" fill="#EDE7F6" rx="8" ry="8" style="stroke:#181818;stroke-width:0.5;"/><path d="M512.9482,22 L512.9482,49 M499.9482,30 L525.9482,30 M512.9482,49 L499.9482,64 M512.9482,49 L525.9482,64 " fill="none" style="stroke:#181818;stroke-width:0.5;"/><text fill="#000000" font-family="Roboto" font-size="14" lengthAdjust="spacing" textLength="40.4414" x="441" y="78.4883">Admin</text><text fill="#000000" font-family="Roboto" font-size="14" lengthAdjust="spacing" textLength="143.8965" x="441" y="94.8945">(global safety operator,</text><text fill="#000000" font-family="Roboto" font-size="14" lengthAdjust="spacing" textLength="142.0918" x="441" y="111.3008">cross-family, ADR-005)</text></g><!--entity moderation--><g id="elem_moderation"><rect fill="#E8F5E9" height="95.625" rx="4" ry="4" style="stroke:#555555;stroke-width:0.5;" width="254.334" x="1325" y="285.5"/><rect fill="#E8F5E9" height="10" style="stroke:#555555;stroke-width:0.5;" width="15" x="1559.334" y="290.5"/><rect fill="#E8F5E9" height="2" style="stroke:#555555;stroke-width:0.5;" width="4" x="1557.334" y="292.5"/><rect fill="#E8F5E9" height="2" style="stroke:#555555;stroke-width:0.5;" width="4" x="1557.334" y="296.5"/><text fill="#222222" font-family="Roboto" font-size="14" lengthAdjust="spacing" textLength="124.5439" x="1340" y="318.4883">Moderation Pipeline</text><text fill="#222222" font-family="Roboto" font-size="14" lengthAdjust="spacing" textLength="144.1084" x="1340" y="334.8945">moderation/pipeline.py</text><text fill="#222222" font-family="Roboto" font-size="14" lengthAdjust="spacing" textLength="81.1768" x="1340" y="351.3008">[worker path]</text><text fill="#222222" font-family="Roboto" font-size="14" lengthAdjust="spacing" textLength="214.334" x="1340" y="367.707">[see component-moderation.puml]</text></g><!--entity events_log--><g id="elem_events_log"><rect fill="#FFF8E1" height="79.2188" rx="4" ry="4" style="stroke:#555555;stroke-width:0.5;" width="223.8594" x="1048" y="882.5"/><rect fill="#FFF8E1" height="10" style="stroke:#555555;stroke-width:0.5;" width="15" x="1251.8594" y="887.5"/><rect fill="#FFF8E1" height="2" style="stroke:#555555;stroke-width:0.5;" width="4" x="1249.8594" y="889.5"/><rect fill="#FFF8E1" height="2" style="stroke:#555555;stroke-width:0.5;" width="4" x="1249.8594" y="893.5"/><text fill="#222222" font-family="Roboto" font-size="14" lengthAdjust="spacing" textLength="114.29" x="1063" y="915.4883">Pipeline Event Log</text><text fill="#222222" font-family="Roboto" font-size="14" lengthAdjust="spacing" textLength="145.2227" x="1063" y="931.8945">events/writer.py [WS-D]</text><text fill="#222222" font-family="Roboto" font-size="14" lengthAdjust="spacing" textLength="183.8594" x="1063" y="948.3008">[see component-events.puml]</text></g><g id="elem_GMN32"><path d="M1795,829.5 L1795,1014.3125 A4,4 0 0 0 1799,1018.3125 L2044.8257,1018.3125 A4,4 0 0 0 2048.8257,1014.3125 L2048.8257,835.5 L2038.8257,825.5 L1799,825.5 A4,4 0 0 0 1795,829.5 " fill="#FEFFDD" style="stroke:#181818;stroke-width:0.5;"/><path d="M2038.8257,825.5 L2038.8257,833.5 A2,2 0 0 0 2040.8257,835.5 L2048.8257,835.5 L2038.8257,825.5 " fill="#FEFFDD" style="stroke:#181818;stroke-width:1.0;"/><text fill="#000000" font-family="Roboto" font-size="13" lengthAdjust="spacing" textLength="232.8257" x="1801" y="842.5605">LEGAL_TRANSITIONS (the single source</text><text fill="#000000" font-family="Roboto" font-size="13" lengthAdjust="spacing" textLength="132.2534" x="1801" y="857.7949">of truth for legal hops):</text><text fill="#000000" font-family="Roboto" font-size="13" lengthAdjust="spacing" textLength="3.2246" x="1801" y="873.0293">&#160;</text><text fill="#000000" font-family="Roboto" font-size="13" lengthAdjust="spacing" textLength="27.5806" x="1801" y="888.2637">draft</text><text fill="#000000" font-family="Roboto" font-size="13" lengthAdjust="spacing" text-decoration="line-through" textLength="39.9902" x="1831.8052" y="888.2637">submit</text><text fill="#000000" font-family="Roboto" font-size="13" lengthAdjust="spacing" textLength="63.6479" x="1871.7954" y="888.2637">&gt; in_review</text><text fill="#000000" font-family="Roboto" font-size="13" lengthAdjust="spacing" textLength="27.5806" x="1801" y="903.498">draft</text><text fill="#000000" font-family="Roboto" font-size="13" lengthAdjust="spacing" text-decoration="line-through" textLength="64.1304" x="1831.8052" y="903.498">auto_reject</text><text fill="#000000" font-family="Roboto" font-size="13" lengthAdjust="spacing" textLength="96.1162" x="1895.9355" y="903.498">&gt; needs_revision</text><text fill="#000000" font-family="Roboto" font-size="13" lengthAdjust="spacing" textLength="86.0933" x="1801" y="918.7324">needs_revision</text><text fill="#000000" font-family="Roboto" font-size="13" lengthAdjust="spacing" text-decoration="line-through" textLength="39.9902" x="1890.3179" y="918.7324">submit</text><text fill="#000000" font-family="Roboto" font-size="13" lengthAdjust="spacing" textLength="63.6479" x="1930.3081" y="918.7324">&gt; in_review</text><text fill="#000000" font-family="Roboto" font-size="13" lengthAdjust="spacing" textLength="53.625" x="1801" y="933.9668">in_review</text><text fill="#000000" font-family="Roboto" font-size="13" lengthAdjust="spacing" text-decoration="line-through" textLength="46.6807" x="1857.8496" y="933.9668">approve</text><text fill="#000000" font-family="Roboto" font-size="13" lengthAdjust="spacing" textLength="66.2061" x="1904.5303" y="933.9668">&gt; published</text><text fill="#000000" font-family="Roboto" font-size="13" lengthAdjust="spacing" textLength="53.625" x="1801" y="949.2012">in_review</text><text fill="#000000" font-family="Roboto" font-size="13" lengthAdjust="spacing" text-decoration="line-through" textLength="61.7437" x="1857.8496" y="949.2012">send_back</text><text fill="#000000" font-family="Roboto" font-size="13" lengthAdjust="spacing" textLength="96.1162" x="1919.5933" y="949.2012">&gt; needs_revision</text><text fill="#000000" font-family="Roboto" font-size="13" lengthAdjust="spacing" textLength="56.1831" x="1801" y="964.4355">published</text><text fill="#000000" font-family="Roboto" font-size="13" lengthAdjust="spacing" text-decoration="line-through" textLength="41.793" x="1860.4077" y="964.4355">archive</text><text fill="#000000" font-family="Roboto" font-size="13" lengthAdjust="spacing" textLength="59.1475" x="1902.2007" y="964.4355">&gt; archived</text><text fill="#000000" font-family="Roboto" font-size="13" lengthAdjust="spacing" textLength="3.2246" x="1801" y="979.6699">&#160;</text><text fill="#000000" font-family="Roboto" font-size="13" lengthAdjust="spacing" textLength="196.9741" x="1801" y="994.9043">Any other (from_state, action) pair</text><text fill="#000000" font-family="Roboto" font-size="13" lengthAdjust="spacing" textLength="196.8599" x="1801" y="1010.1387">raises StateTransitionError -&gt; 409.</text></g><g id="elem_GMN35"><path d="M1048,210.5 L1048,329.5 L614.54,333.5 L1048,337.5 L1048,456.25 A4,4 0 0 0 1052,460.25 L1285.7588,460.25 A4,4 0 0 0 1289.7588,456.25 L1289.7588,216.5 L1279.7588,206.5 L1052,206.5 A4,4 0 0 0 1048,210.5 " fill="#FEFFDD" style="stroke:#181818;stroke-width:0.5;"/><path d="M1279.7588,206.5 L1279.7588,214.5 A2,2 0 0 0 1281.7588,216.5 L1289.7588,216.5 L1279.7588,206.5 " fill="#FEFFDD" style="stroke:#181818;stroke-width:0.5;"/><text fill="#000000" font-family="Roboto" font-size="13" lengthAdjust="spacing" textLength="166.4927" x="1054" y="223.5605">Every handler in this router is</text><text fill="#000000" font-family="Roboto" font-size="13" lengthAdjust="spacing" textLength="178.4136" x="1054" y="238.7949">admin-only: authorize_family is</text><text fill="#000000" font-family="Roboto" font-size="13" lengthAdjust="spacing" textLength="180.8828" x="1054" y="254.0293">intentionally NOT called (admin</text><text fill="#000000" font-family="Roboto" font-size="13" lengthAdjust="spacing" textLength="162.5444" x="1054" y="269.2637">authority is cross-family, the</text><text fill="#000000" font-family="Roboto" font-size="13" lengthAdjust="spacing" textLength="189.3379" x="1054" y="284.498">backend safety-review operator).</text><text fill="#000000" font-family="Roboto" font-size="13" lengthAdjust="spacing" textLength="3.2246" x="1054" y="299.7324">&#160;</text><text fill="#000000" font-family="Roboto" font-size="13" lengthAdjust="spacing" textLength="211.1992" x="1054" y="314.9668">approve() is the SOLE code path that</text><text fill="#000000" font-family="Roboto" font-size="13" lengthAdjust="spacing" textLength="213.2813" x="1054" y="330.2012">may set status="published"; it always</text><text fill="#000000" font-family="Roboto" font-size="13" lengthAdjust="spacing" textLength="220.7588" x="1054" y="345.4355">stamps approved_by + published_at in</text><text fill="#000000" font-family="Roboto" font-size="13" lengthAdjust="spacing" textLength="209.7329" x="1054" y="360.6699">the same operation (no-unapproved-</text><text fill="#000000" font-family="Roboto" font-size="13" lengthAdjust="spacing" textLength="193.6924" x="1054" y="375.9043">publish invariant). tech-spec.md's</text><text fill="#000000" font-family="Roboto" font-size="13" lengthAdjust="spacing" textLength="202.9219" x="1054" y="391.1387">Authorization Matrix: guardians get</text><text fill="#000000" font-family="Roboto" font-size="13" lengthAdjust="spacing" textLength="213.0083" x="1054" y="406.373">403 on approve/publish, including on</text><text fill="#000000" font-family="Roboto" font-size="13" lengthAdjust="spacing" textLength="189.6235" x="1054" y="421.6074">their own family's story -- there is</text><text fill="#000000" font-family="Roboto" font-size="13" lengthAdjust="spacing" textLength="215.6045" x="1054" y="436.8418">no guardian path (ADR-005, amended</text><text fill="#000000" font-family="Roboto" font-size="13" lengthAdjust="spacing" textLength="73.5884" x="1054" y="452.0762">2026-06-30).</text></g><g id="elem_GMN38"><path d="M2084,791.5 L2084,1052.4844 A4,4 0 0 0 2088,1056.4844 L2327.6431,1056.4844 A4,4 0 0 0 2331.6431,1052.4844 L2331.6431,797.5 L2321.6431,787.5 L2088,787.5 A4,4 0 0 0 2084,791.5 " fill="#FEFFDD" style="stroke:#181818;stroke-width:0.5;"/><path d="M2321.6431,787.5 L2321.6431,795.5 A2,2 0 0 0 2323.6431,797.5 L2331.6431,797.5 L2321.6431,787.5 " fill="#FEFFDD" style="stroke:#181818;stroke-width:1.0;"/><text fill="#000000" font-family="Roboto" font-size="13" lengthAdjust="spacing" textLength="212.1133" x="2090" y="804.5605">submit() and approve() both refuse a</text><text fill="#000000" font-family="Roboto" font-size="13" lengthAdjust="spacing" textLength="206.6099" x="2090" y="819.7949">version whose moderation_report is</text><text fill="#000000" font-family="Roboto" font-size="13" lengthAdjust="spacing" textLength="176.9917" x="2090" y="835.0293">still None (BusinessLogicError,</text><text fill="#000000" font-family="Roboto" font-size="13" lengthAdjust="spacing" textLength="220.8667" x="2090" y="850.2637">"cannot submit/approve a version that</text><text fill="#000000" font-family="Roboto" font-size="13" lengthAdjust="spacing" textLength="160.3354" x="2090" y="865.498">has never been screened by</text><text fill="#000000" font-family="Roboto" font-size="13" lengthAdjust="spacing" textLength="181.9048" x="2090" y="880.7324">moderation"): no unscreened or</text><text fill="#000000" font-family="Roboto" font-size="13" lengthAdjust="spacing" textLength="182.4634" x="2090" y="895.9668">unmoderated version can reach</text><text fill="#000000" font-family="Roboto" font-size="13" lengthAdjust="spacing" textLength="209.8979" x="2090" y="911.2012">in_review or published, regardless of</text><text fill="#000000" font-family="Roboto" font-size="13" lengthAdjust="spacing" textLength="216.8677" x="2090" y="926.4355">which of the two callers (admin HTTP</text><text fill="#000000" font-family="Roboto" font-size="13" lengthAdjust="spacing" textLength="186.8115" x="2090" y="941.6699">path or moderation worker path)</text><text fill="#000000" font-family="Roboto" font-size="13" lengthAdjust="spacing" textLength="58.3096" x="2090" y="956.9043">invokes it.</text><text fill="#000000" font-family="Roboto" font-size="13" lengthAdjust="spacing" textLength="3.2246" x="2090" y="972.1387">&#160;</text><text fill="#000000" font-family="Roboto" font-size="13" lengthAdjust="spacing" textLength="210.4692" x="2090" y="987.373">approve() additionally runs the WS-G</text><text fill="#000000" font-family="Roboto" font-size="13" lengthAdjust="spacing" textLength="187.6685" x="2090" y="1002.6074">series-chain validation gate for a</text><text fill="#000000" font-family="Roboto" font-size="13" lengthAdjust="spacing" textLength="215.2427" x="2090" y="1017.8418">series book before publishing (legacy</text><text fill="#000000" font-family="Roboto" font-size="13" lengthAdjust="spacing" textLength="226.6431" x="2090" y="1033.0762">pre-WS-G chains are grandfathered and</text><text fill="#000000" font-family="Roboto" font-size="13" lengthAdjust="spacing" textLength="90.7207" x="2090" y="1048.3105">skip the check).</text></g><!--link admin to approval_router--><g id="link_admin_approval_router"><path d="M513,114.64 C513,154.12 513,202.45 513,246.98 " fill="none" id="admin-to-approval_router" style="stroke:#181818;stroke-width:1.0;"/><polygon fill="#181818" points="513,252.98,517,243.98,513,247.98,509,243.98,513,252.98" style="stroke:#181818;stroke-width:1.0;"/><text fill="#000000" font-family="Roboto" font-size="13" lengthAdjust="spacing" textLength="107.0723" x="517.0024" y="157.5605">submit / approve /</text><text fill="#000000" font-family="Roboto" font-size="13" lengthAdjust="spacing" textLength="113.0771" x="514" y="172.7949">send-back / archive</text></g><!--link approval_router to load_admin--><g id="link_approval_router_load_admin"><path d="M614.63,358.15 C683.46,380.03 769.36,420.15 812,490.5 C833.15,525.39 811.6385,552.7548 774.1285,576.3548 " fill="none" id="approval_router-to-load_admin" style="stroke:#181818;stroke-width:1.0;"/><polygon fill="#181818" points="769.05,579.55,778.7978,578.1429,773.282,576.8873,774.5376,571.3716,769.05,579.55" style="stroke:#181818;stroke-width:1.0;"/><text fill="#000000" font-family="Roboto" font-size="13" lengthAdjust="spacing" textLength="98.7188" x="836.8406" y="511.0605">admin role check</text><text fill="#000000" font-family="Roboto" font-size="13" lengthAdjust="spacing" textLength="130.3999" x="821" y="526.2949">(403 before any query)</text></g><!--link load_admin to storybook_row--><g id="link_load_admin_storybook_row"><path d="M769.09,690.6 C775.08,692.45 781.07,694.11 787,695.5 C876.18,716.47 1540.23,667.32 1611,725.5 C1656.79,763.14 1662.2654,831.0039 1660.6354,876.3839 " fill="none" id="load_admin-to-storybook_row" style="stroke:#181818;stroke-width:1.0;"/><polygon fill="#181818" points="1660.42,882.38,1664.7405,873.5294,1660.5995,877.3832,1656.7456,873.2422,1660.42,882.38" style="stroke:#181818;stroke-width:1.0;"/><text fill="#000000" font-family="Roboto" font-size="13" lengthAdjust="spacing" textLength="138.6011" x="1635" y="746.0605">SELECT ... FOR UPDATE</text></g><!--link approval_router to review_surface--><g id="link_approval_router_review_surface"><path d="M411.1,341.94 C314.19,355.05 173.36,391.17 105,490.5 C87.52,515.9 94.0755,542.9943 109.0555,570.1943 " fill="none" id="approval_router-to-review_surface" style="stroke:#181818;stroke-width:1.0;"/><polygon fill="#181818" points="111.95,575.45,111.1121,565.6369,109.5379,571.0703,104.1045,569.4962,111.95,575.45" style="stroke:#181818;stroke-width:1.0;"/><text fill="#000000" font-family="Roboto" font-size="13" lengthAdjust="spacing" textLength="82.8496" x="119.1301" y="511.0605">GET .../review,</text><text fill="#000000" font-family="Roboto" font-size="13" lengthAdjust="spacing" textLength="109.1099" x="106" y="526.2949">GET /review-queue</text></g><!--link review_surface to version_row--><g id="link_review_surface_version_row"><path d="M255.73,681.04 C270.98,686.74 286.71,691.82 302,695.5 C481.8,738.76 533.04,706.65 717,725.5 C824.49,736.51 850.61,745.52 958,757.5 C1031.62,765.71 1223.56,754.73 1290,787.5 C1332.54,808.48 1364.1664,845.9888 1385.8164,877.4188 " fill="none" id="review_surface-to-version_row" style="stroke:#181818;stroke-width:1.0;"/><polygon fill="#181818" points="1389.22,882.36,1387.4087,872.6791,1386.3836,878.2424,1380.8204,877.2173,1389.22,882.36" style="stroke:#181818;stroke-width:1.0;"/><text fill="#000000" font-family="Roboto" font-size="13" lengthAdjust="spacing" textLength="146.0596" x="959" y="746.0605">blob + moderation_report</text></g><!--link approval_router to service--><g id="link_approval_router_service"><path d="M411.41,401.12 C382.88,425.51 355.45,455.77 340,490.5 C328.75,515.79 334.1873,538.2246 348.3473,562.1846 " fill="none" id="approval_router-to-service" style="stroke:#181818;stroke-width:2.0;"/><polygon fill="#181818" points="351.4,567.35,350.2646,557.5668,348.8561,563.0455,343.3774,561.637,351.4,567.35" style="stroke:#181818;stroke-width:2.0;"/><text fill="#000000" font-family="Roboto" font-size="13" lengthAdjust="spacing" textLength="128.2417" x="341" y="511.0605">submit(session, book)</text><text fill="#000000" font-family="Roboto" font-size="13" lengthAdjust="spacing" textLength="72.0459" x="369.0979" y="526.2949">[admin path]</text></g><!--link approval_router to service--><g id="link_approval_router_service"><path d="M505.95,414.02 C500.51,452.51 490.9,498.67 474,537.5 C469.57,547.68 467.113,552.7684 460.893,562.4084 " fill="none" id="approval_router-to-service-1" style="stroke:#181818;stroke-width:2.0;"/><polygon fill="#181818" points="457.64,567.45,465.8806,562.0562,460.3508,563.2486,459.1584,557.7189,457.64,567.45" style="stroke:#181818;stroke-width:2.0;"/><text fill="#000000" font-family="Roboto" font-size="13" lengthAdjust="spacing" textLength="153.791" x="491" y="503.5605">approve(session, principal,</text><text fill="#000000" font-family="Roboto" font-size="13" lengthAdjust="spacing" textLength="133.3833" x="501.2039" y="518.7949">book, version, visibility)</text><text fill="#000000" font-family="Roboto" font-size="13" lengthAdjust="spacing" textLength="148.4844" x="493.6533" y="534.0293">[ADMIN ONLY -- ADR-005]</text></g><!--link approval_router to service--><g id="link_approval_router_service"><path d="M614.5,409.34 C655.45,448.58 686.09,496.81 653,537.5 C611.76,588.22 569.78,543.42 509,567.5 C503.35,569.74 503.0605,569.6656 497.4005,572.4056 " fill="none" id="approval_router-to-service-2" style="stroke:#181818;stroke-width:1.0;"/><polygon fill="#181818" points="492,575.02,501.8436,574.6988,496.5004,572.8414,498.3578,567.4981,492,575.02" style="stroke:#181818;stroke-width:1.0;"/><text fill="#000000" font-family="Roboto" font-size="13" lengthAdjust="spacing" textLength="113.5278" x="679.2483" y="511.0605">send_back(session,</text><text fill="#000000" font-family="Roboto" font-size="13" lengthAdjust="spacing" textLength="134.0244" x="669" y="526.2949">principal, book, reason)</text></g><!--link approval_router to service--><g id="link_approval_router_service"><path d="M411.38,361.96 C347.68,385.02 270.56,424.98 232,490.5 C221.4,508.5 221.26,519.58 232,537.5 C237.48,546.64 273.4106,566.2125 314.4006,586.6525 " fill="none" id="approval_router-to-service-3" style="stroke:#181818;stroke-width:1.0;"/><polygon fill="#181818" points="319.77,589.33,313.5008,581.7341,315.2955,587.0987,309.9308,588.8934,319.77,589.33" style="stroke:#181818;stroke-width:1.0;"/><text fill="#000000" font-family="Roboto" font-size="13" lengthAdjust="spacing" textLength="93.5771" x="233" y="511.0605">archive(session,</text><text fill="#000000" font-family="Roboto" font-size="13" lengthAdjust="spacing" textLength="88.5688" x="235.5042" y="526.2949">principal, book)</text></g><!--link moderation to service--><g id="link_moderation_service"><path d="M1410.06,381.66 C1383.43,408.73 1346.76,441.09 1308,460.5 C1250.71,489.19 1229.57,476.74 1167,490.5 C1074.86,510.76 1053.35,523.88 960,537.5 C761.22,566.5 700.45,506.66 509,567.5 C503.41,569.28 503.3019,569.0266 497.7619,571.4366 " fill="none" id="moderation-to-service" style="stroke:#181818;stroke-width:2.0;"/><polygon fill="#181818" points="492.26,573.83,502.1086,573.9078,496.845,571.8355,498.9173,566.5719,492.26,573.83" style="stroke:#181818;stroke-width:2.0;"/><text fill="#000000" font-family="Roboto" font-size="13" lengthAdjust="spacing" textLength="128.2417" x="1170.1296" y="503.5605">submit(session, book)</text><text fill="#000000" font-family="Roboto" font-size="13" lengthAdjust="spacing" textLength="132.501" x="1168" y="518.7949">[worker path, post-gate</text><text fill="#000000" font-family="Roboto" font-size="13" lengthAdjust="spacing" textLength="100.2866" x="1184.1072" y="534.0293">clean or repaired]</text></g><!--link moderation to auto_reject--><g id="link_moderation_auto_reject"><path d="M1431.32,381.59 C1408.28,428.42 1366.55,498.71 1309,537.5 C1221.41,596.53 1107.1544,617.8161 1021.6244,625.7461 " fill="none" id="moderation-to-auto_reject" style="stroke:#181818;stroke-width:1.0;stroke-dasharray:7.0,7.0;"/><polygon fill="#181818" points="1015.65,626.3,1024.9808,629.452,1020.6286,625.8384,1024.2423,621.4862,1015.65,626.3" style="stroke:#181818;stroke-width:1.0;"/><text fill="#000000" font-family="Roboto" font-size="13" lengthAdjust="spacing" textLength="152.3818" x="1360" y="511.0605">auto_reject(session, book)</text><text fill="#000000" font-family="Roboto" font-size="13" lengthAdjust="spacing" textLength="141.6226" x="1365.3796" y="526.2949">[worker path, hard block]</text></g><!--link service to state_machine--><g id="link_service_state_machine"><path d="M492.16,685.45 C497.85,688.87 503.5,692.24 509,695.5 C615.32,758.42 733.9237,825.8829 813.9737,871.0229 " fill="none" id="service-to-state_machine" style="stroke:#181818;stroke-width:1.0;"/><polygon fill="#181818" points="819.2,873.97,813.3252,866.0651,814.8447,871.5141,809.3958,873.0335,819.2,873.97" style="stroke:#181818;stroke-width:1.0;"/><text fill="#000000" font-family="Roboto" font-size="13" lengthAdjust="spacing" textLength="101.1436" x="607" y="738.5605">assert_transition(</text><text fill="#000000" font-family="Roboto" font-size="13" lengthAdjust="spacing" textLength="87.2993" x="613.9221" y="753.7949">current, action)</text></g><!--link auto_reject to state_machine--><g id="link_auto_reject_state_machine"><path d="M908.85,679.82 C907.55,733.37 905.5956,814.0918 904.2956,867.6618 " fill="none" id="auto_reject-to-state_machine" style="stroke:#181818;stroke-width:1.0;"/><polygon fill="#181818" points="904.15,873.66,908.3672,864.7597,904.2713,868.6615,900.3695,864.5656,904.15,873.66" style="stroke:#181818;stroke-width:1.0;"/></g><!--link service to storybook_row--><g id="link_service_storybook_row"><path d="M492.19,689.4 C497.75,691.75 503.38,693.82 509,695.5 C701.97,753.3 1228.44,649.5 1415,725.5 C1434.52,733.45 1431.88,746.73 1450,757.5 C1485.16,778.4 1502.91,764.9 1537,787.5 C1575.06,812.72 1605.2808,847.9771 1627.2308,877.6371 " fill="none" id="service-to-storybook_row" style="stroke:#181818;stroke-width:1.0;"/><polygon fill="#181818" points="1630.8,882.46,1628.6614,872.8461,1627.8256,878.4409,1622.2309,877.6051,1630.8,882.46" style="stroke:#181818;stroke-width:1.0;"/><text fill="#000000" font-family="Roboto" font-size="13" lengthAdjust="spacing" textLength="91.019" x="1481.0308" y="738.5605">status, visibility,</text><text fill="#000000" font-family="Roboto" font-size="13" lengthAdjust="spacing" textLength="151.0806" x="1451" y="753.7949">current_published_version</text></g><!--link service to version_row--><g id="link_service_version_row"><path d="M492.2,689.36 C497.76,691.72 503.38,693.8 509,695.5 C592.34,720.7 1216.77,681.68 1292,725.5 C1351.15,759.96 1383.3799,830.3227 1399.5199,876.7527 " fill="none" id="service-to-version_row" style="stroke:#181818;stroke-width:1.0;"/><polygon fill="#181818" points="1401.49,882.42,1402.3131,872.6056,1399.8483,877.6972,1394.7566,875.2324,1401.49,882.42" style="stroke:#181818;stroke-width:1.0;"/><text fill="#000000" font-family="Roboto" font-size="13" lengthAdjust="spacing" textLength="75.8862" x="1331" y="738.5605">approved_by,</text><text fill="#000000" font-family="Roboto" font-size="13" lengthAdjust="spacing" textLength="73.3726" x="1332.2568" y="753.7949">published_at</text></g><!--link auto_reject to storybook_row--><g id="link_auto_reject_storybook_row"><path d="M1015.63,635.79 C1239.71,643.85 1746.45,668.27 1798,725.5 C1807.52,736.07 1802.95,744.17 1798,757.5 C1792.48,772.34 1736.8579,834.4203 1696.9279,877.9103 " fill="none" id="auto_reject-to-storybook_row" style="stroke:#181818;stroke-width:1.0;"/><polygon fill="#181818" points="1692.87,882.33,1701.9033,878.4057,1696.2516,878.6469,1696.0104,872.9952,1692.87,882.33" style="stroke:#181818;stroke-width:1.0;"/><text fill="#000000" font-family="Roboto" font-size="13" lengthAdjust="spacing" textLength="135.8398" x="1804" y="746.0605">status = needs_revision</text></g><!--link service to events_log--><g id="link_service_events_log"><path d="M492.23,689.29 C497.78,691.66 503.39,693.77 509,695.5 C573.31,715.34 1062.29,682.42 1114,725.5 C1159.54,763.44 1165.0853,831.2035 1163.5353,876.4835 " fill="none" id="service-to-events_log" style="stroke:#181818;stroke-width:1.0;"/><polygon fill="#181818" points="1163.33,882.48,1167.6356,873.6221,1163.5011,877.4829,1159.6402,873.3484,1163.33,882.48" style="stroke:#181818;stroke-width:1.0;"/><text fill="#000000" font-family="Roboto" font-size="13" lengthAdjust="spacing" textLength="120.7896" x="1150.178" y="738.5605">RELEASED (approve)</text><text fill="#000000" font-family="Roboto" font-size="13" lengthAdjust="spacing" textLength="145.1455" x="1138" y="753.7949">SENT_BACK (send_back)</text></g><!--link state_machine to GMN32--><g id="link_state_machine_GMN32"><path d="M926.1,873.71 C949.95,830.09 991.67,768.68 1048.5,741.5 C1119.67,707.46 1686.38,709.52 1758.5,741.5 C1798.5,759.24 1832.89,792.14 1859.65,825.04 " fill="none" id="state_machine-GMN32" style="stroke:#181818;stroke-width:1.0;stroke-dasharray:7.0,7.0;"/></g><!--link service to GMN38--><g id="link_service_GMN38"><path d="M492.17,689.46 C497.74,691.79 503.37,693.84 509,695.5 C780.45,775.4 1510.32,646.38 1782,725.5 C1808.42,733.19 1809.02,748.43 1835,757.5 C1933.16,791.77 1973.08,742.9 2067,787.5 C2072.63,790.18 2078.19,793.16 2083.65,796.4 " fill="none" id="service-GMN38" style="stroke:#181818;stroke-width:1.0;stroke-dasharray:7.0,7.0;"/></g><!--SRC=[fLbjZzf84lxEhoYH3m4jXibxGfH8P0QoqKrcSiFSdbQP23Ls0trZtDvkUsQvrVxtVQhRDZO3sJj250NQtVNwr5FLpcDwzmEVrcCwrUjK9pB9w4o9fH7h8Nt9vx6oAvKigJDAKwFlH4pJJ6IIFeiGwxBB1t-zf55qXvEvaQt7M9dgt8II5YgMTeZVHDQ4Wt2ZPwBSDqWhsGFB4cThBx6VRgZ3EdBRer6OAPtqw1TbrLp5AjlqdBZ_ztC-_ZWwdrrVZIwcdwu_NLvCZnCZh9KccsL695QnPKDAuSjnmYAPoYIIIRW95aPAsagbJCnZ5zg_2vmqTofq8VEVZitdQvNrIEIPdXdv7ndo3vUw8ysqC78s5-4jv1Xaw4uEII9LT6z4QeyBOztNd-ZowZE4gKnQ-kaeUKQ6saGpoH7g4J1CYpYtgqC15AaQY0BDsz0L0HJHMYM1Jk8D_Nnz_OLiRXOYbCFZOkUoKIYJ0mvbmA4S71Ss7_w1aNTAtXV_1B_bCfVVSzNlcnMErB0oprKSpPgFZyD8Gv8pQ8PqhWzPjTQHD8ApFqXLAkEYwhrLzzhSIXEa8bjHAE9O6jAB7uX-fpke5KEd-_R8Af0KbWGPR1tef_awFkId0wGTE6oR7QHrhiRduz5qVDQZwVZYUlPXTFeFyWUyk4Y7Tf368acuqaLa-6zmSl8YM8ia4fascs2LutjGONaT0Rzh9fM8dfuyVHcSl0oUdHm7tHAp1TkGEhBKgt9wIuccPIvCf4H2dDvzVcOoN0KsbQ5pnihGi-meprRQgF-wcAFtP4RzpiT_gEMrxArAKe5E1ovUY3pE9Zh9BX11Qb_fkSvqkxQ5wtPfT9v4fphMXXvDHlodjgDuQ190zdLjlSBDDDl4aW2OfwrzZ-cF5j47C9aqXOeNxeDLDgnOU-e-hJzRBH421DGUSOXlaiuordEqPoiMCjkGJXcXslHkaj1eQuE5MAjuWvPwTiKewhRHpNnwwD7uRFngyhBLsfhI_bn1dBuKDNgJx2_Sc-IhBrgNrM_u-Trg-UOqRnUX_lNanVXDgvKYn6A9w6_dZZRY_6pyOl82mK4SQWRM6VnhuRjp1mRiCFnDykLoUatzVd_WEQ6sKE2ylgLawVekJxqtoSUnN_1SvtytcDY7jT0z0oHG-l3moOVn-DME1xDOYsZcR9vPhkTETu_fHlwMAuFU66Q_zrEZab2bUAIiFud46mrKXIiPtgBkFumdbrTZ4ic6M7ptxKqo1TESEhC9p-XVNyv6rsES2sDj8VVHawTlO5OIviRmD486VS33OsiWFJfxSlgSazHmuK5lyGxiMTxNRDZV0wt3XoADbIn1ccXbkR5hRPnjJL47x6lCgZV9TsPEgDiTxjW6DzxjZcfEVqC0FJeTltbszdf7VMr-dlfHhMb3DRxT96MpScup8lbhDNkvTO_1ZazDSVQ0uaR7EwYpC3wmAfBaTyDj86R4pDAt6-ioqMFchf3d0RwLlxK0b8I-9ER2SWbhcosDdFxpt1r8boY2aychoSYnN2D5GFvSQvHRtnPZV_zkE-zZsICpcnLko6Xs9us5gKKY2W6ejljIom4Tl_Xpa5b46U459_QtaWN8eRyb9pYPQfCvHONIXfe_6wHPCYMDkP7JkLxU90-6WA__dWPd3rdIxwinf5y0II1qaydazVX92nql208_cEAXsV3Fbg-F87Z_W7U6rFQuea7Pq6dWOUKOZfSzgjgjtRCihrR_4EM_RDa65FByv1dDvK8RwHW7zMistNQhTex5D3C4INiPQRy9EsMEmqqAxktZuDREAHPKpnwapD4nSFTucEaoo4N18aIkqeEoqbt4Tmnzz-vzLP1Lp36zMEjkh-mwgl2hZuXhakrMhG7-ZyThJRP7AUehMC8mzFTOOgB2A00F15f5r9JUxxzlrEkmIG_VLxF2l4Q8LNWBeQMDFgTr-cEP3-ZpfcWfV0Drp09ar0rv8ARrTu4jgR6okM8bm83jxvLfnfUAGjYfqTddJnTqUN7-AzIMCz2t_P2hfw8Yu58boBJIILwbaS9wvxulh2JmWw8WOYV6EtLJycE37W-pOqFO3lxh_5Sr2CT_-vAqrmvwHucKaNNTsojiQAmH6CwKznrSKRpgBaycvSsdKqMQWv1eT6sZbgiCTxyTZEnvcKETR2N9ehs1cgnxzuHjE9aPt1i8z4InN68-NEdKTeVSAoCZ5koShpMsLYN5559xMWi4RsbwYttDXOFYgkyiqZlFMwgWxsofGh5NPtMAXNb4EUhtNoDsRWGgrWY9eSx2wFNC1R0gGcAIm2uZ58z_RaIwhgfsR0p21O7FJzxqMx24E1cxATb1EgIXuw4ThN0rvHixQ2vRAKj58U3oMByA3fcFt7rEplornEzGIGR4m0XS-pTqSNdjNm14nLiPbk7FPNo0clSQ-8iD73Ossj-2WYAcvMMes-VmL0CM2s7aJ2_Fn-Z468BSMuTi9J9iMuiDgZSZ3_PtxIhmxRU4ZYhYUx5Xg_5ydPOploiez9LwGP4ptK6KxvRU6CPB9z51NivxKR1DBaxS2ODxSjRjK_rA_9WLxhiC3wkhjQMbPFEvDUFnpZs-1z5Xd4Syakh2B6L8toVa0_cu6AYO9Xb2qgTcz-vEdO930Il_nW6RjkySkW-WW-jqfjUkd3r5jBOlQ30xHBMiOEiAfBh8CKSAR2kOY-vNkAyyxDZUG9kfEAOBVldN-P232q2ocBzKw03TmuvsA1AOilDIZaGblyZx2hCNJsq6aurCo8QO-1E0SBvXK5JQszqXHoLFgWsQwo0lBybOA0L3CJU9SDKeT9HPXH9k8ak4DuRL_BgBuAmALux3W9liNXVlmcnH2su6PC1mBY2frkzh_Rlh5DxfMzIvodR0Bw98LSLcu8TJXU7q8uTJ6bozWd0be0k5hY8ld2SEHwYYskHQLpa5fhN_CM3E3JbegP41ooKd3gM2ZKimJhGG3c8H0u3btQhK6U76opg6_W80]--></g></svg>
