<svg xmlns="http://www.w3.org/2000/svg" xmlns:xlink="http://www.w3.org/1999/xlink" contentStyleType="text/css" height="901px" preserveAspectRatio="none" style="width:1690px;height:901px;background:#FAFAFA;" version="1.1" viewBox="0 0 1690 901" width="1690px" zoomAndPan="magnify"><defs><style type="text/css">@import url('https://fonts.googleapis.com/css?family=Roboto:400,100,100italic,300,300italic,400italic,500,500italic,700,700italic,900,900italic');</style></defs><g><rect fill="#FAFAFA" height="901" style="stroke:none;stroke-width:1.0;" width="1690" x="0" y="0"/><!--cluster Backend Player (Python)--><g id="cluster_Backend Player (Python)"><path d="M10,61.5 L203.4189,61.5 A6,6 0 0 1 207.4189,65.5 L214.4189,83.7969 L709,83.7969 A4,4 0 0 1 713,87.7969 L713,701 A4,4 0 0 1 709,705 L10,705 A4,4 0 0 1 6,701 L6,65.5 A4,4 0 0 1 10,61.5 " fill="#E3F2FD" style="stroke:#000000;stroke-width:1.5;"/><line style="stroke:#000000;stroke-width:1.5;" x1="6" x2="214.4189" y1="83.7969" y2="83.7969"/><text fill="#000000" font-family="Roboto" font-size="14" font-weight="bold" lengthAdjust="spacing" textLength="195.4189" x="10" y="76.4951">Backend Player (Python)</text></g><!--cluster Frontend Player (TypeScript)--><g id="cluster_Frontend Player (TypeScript)"><path d="M1035,78 L1262.7969,78 A6,6 0 0 1 1266.7969,82 L1273.7969,100.2969 L1333,100.2969 A4,4 0 0 1 1337,104.2969 L1337,890 A4,4 0 0 1 1333,894 L1035,894 A4,4 0 0 1 1031,890 L1031,82 A4,4 0 0 1 1035,78 " fill="#FFF3E0" style="stroke:#000000;stroke-width:1.5;"/><line style="stroke:#000000;stroke-width:1.5;" x1="1031" x2="1273.7969" y1="100.2969" y2="100.2969"/><text fill="#000000" font-family="Roboto" font-size="14" font-weight="bold" lengthAdjust="spacing" textLength="229.7969" x="1035" y="92.9951">Frontend Player (TypeScript)</text></g><!--cluster semantics_doc--><g id="cluster_semantics_doc"><path d="M1365,6 L1669.3867,6 A6,6 0 0 1 1673.3867,10 L1680.3867,44.5938 L1679,44.5938 A4,4 0 0 1 1683,48.5938 L1683,276 A4,4 0 0 1 1679,280 L1365,280 A4,4 0 0 1 1361,276 L1361,10 A4,4 0 0 1 1365,6 " fill="#F5F5F5" style="stroke:#000000;stroke-width:1.5;"/><line style="stroke:#000000;stroke-width:1.5;" x1="1361" x2="1680.3867" y1="44.5938" y2="44.5938"/><text fill="#000000" font-family="Roboto" font-size="14" font-weight="bold" lengthAdjust="spacing" textLength="176.6064" x="1429.8901" y="20.9951">Runtime Semantics v1</text><text fill="#000000" font-family="Roboto" font-size="14" font-weight="bold" lengthAdjust="spacing" textLength="306.3867" x="1365" y="37.292">(docs/planning/runtime-semantics.md)</text></g><!--entity storybook_model--><g id="elem_storybook_model"><rect fill="#BBDEFB" height="95.1875" rx="4" ry="4" style="stroke:#555555;stroke-width:0.5;" width="222.1846" x="399" y="113"/><rect fill="#BBDEFB" height="10" style="stroke:#555555;stroke-width:0.5;" width="15" x="601.1846" y="118"/><rect fill="#BBDEFB" height="2" style="stroke:#555555;stroke-width:0.5;" width="4" x="599.1846" y="120"/><rect fill="#BBDEFB" height="2" style="stroke:#555555;stroke-width:0.5;" width="4" x="599.1846" y="124"/><text fill="#222222" font-family="Roboto" font-size="14" lengthAdjust="spacing" textLength="182.1846" x="414" y="145.9951">Storybook Pydantic Model</text><text fill="#222222" font-family="Roboto" font-size="14" lengthAdjust="spacing" textLength="146.7402" x="414" y="162.292">storybook/models.py</text><text fill="#222222" font-family="Roboto" font-size="14" lengthAdjust="spacing" textLength="177.3105" x="414" y="178.5889">Storybook, Node, Choice,</text><text fill="#222222" font-family="Roboto" font-size="14" lengthAdjust="spacing" textLength="164.3291" x="414" y="194.8857">Effect, Variable, Ending</text></g><!--entity cond_validator--><g id="elem_cond_validator"><rect fill="#BBDEFB" height="95.1875" rx="4" ry="4" style="stroke:#555555;stroke-width:0.5;" width="298.0635" x="399" y="366"/><rect fill="#BBDEFB" height="10" style="stroke:#555555;stroke-width:0.5;" width="15" x="677.0635" y="371"/><rect fill="#BBDEFB" height="2" style="stroke:#555555;stroke-width:0.5;" width="4" x="675.0635" y="373"/><rect fill="#BBDEFB" height="2" style="stroke:#555555;stroke-width:0.5;" width="4" x="675.0635" y="377"/><text fill="#222222" font-family="Roboto" font-size="14" lengthAdjust="spacing" textLength="166.3867" x="414" y="398.9951">Condition DSL Validator</text><text fill="#222222" font-family="Roboto" font-size="14" lengthAdjust="spacing" textLength="160.583" x="414" y="415.292">storybook/condition.py</text><text fill="#222222" font-family="Roboto" font-size="14" lengthAdjust="spacing" textLength="138.8652" x="414" y="431.5889">validate_condition()</text><text fill="#222222" font-family="Roboto" font-size="14" lengthAdjust="spacing" textLength="258.0635" x="414" y="447.8857">whitelisted-op check at schema time</text></g><!--entity evaluator--><g id="elem_evaluator"><rect fill="#BBDEFB" height="127.7813" rx="4" ry="4" style="stroke:#555555;stroke-width:0.5;" width="300.1826" x="71" y="561"/><rect fill="#BBDEFB" height="10" style="stroke:#555555;stroke-width:0.5;" width="15" x="351.1826" y="566"/><rect fill="#BBDEFB" height="2" style="stroke:#555555;stroke-width:0.5;" width="4" x="349.1826" y="568"/><rect fill="#BBDEFB" height="2" style="stroke:#555555;stroke-width:0.5;" width="4" x="349.1826" y="572"/><text fill="#222222" font-family="Roboto" font-size="14" lengthAdjust="spacing" textLength="138.1201" x="86" y="593.9951">Condition Evaluator</text><text fill="#222222" font-family="Roboto" font-size="14" lengthAdjust="spacing" textLength="162.4834" x="86" y="610.292">storybook/evaluator.py</text><text fill="#222222" font-family="Roboto" font-size="14" lengthAdjust="spacing" textLength="210.5605" x="86" y="626.5889">evaluate(condition, var_state)</text><text fill="#222222" font-family="Roboto" font-size="14" lengthAdjust="spacing" textLength="252.5605" x="86" y="642.8857">whitelisted 10-op JSONLogic subset:</text><text fill="#222222" font-family="Roboto" font-size="14" lengthAdjust="spacing" textLength="260.1826" x="86" y="659.1826">var, !, and, or, ==, !=, &lt;, &lt;=, &gt;, &gt;=</text><text fill="#222222" font-family="Roboto" font-size="14" lengthAdjust="spacing" textLength="187.0176" x="86" y="675.4795">strict equality, no coercion</text></g><!--entity engine--><g id="elem_engine"><rect fill="#1565C0" height="111.4844" rx="4" ry="4" style="stroke:#555555;stroke-width:0.5;" width="251.5449" x="112" y="358"/><rect fill="#1565C0" height="10" style="stroke:#555555;stroke-width:0.5;" width="15" x="343.5449" y="363"/><rect fill="#1565C0" height="2" style="stroke:#555555;stroke-width:0.5;" width="4" x="341.5449" y="365"/><rect fill="#1565C0" height="2" style="stroke:#555555;stroke-width:0.5;" width="4" x="341.5449" y="369"/><text fill="#222222" font-family="Roboto" font-size="14" lengthAdjust="spacing" textLength="89.4141" x="127" y="390.9951">Story Engine</text><text fill="#222222" font-family="Roboto" font-size="14" lengthAdjust="spacing" textLength="118.0977" x="127" y="407.292">player/engine.py</text><text fill="#222222" font-family="Roboto" font-size="14" lengthAdjust="spacing" textLength="211.5449" x="127" y="423.5889">StoryEngine: start(), choose(),</text><text fill="#222222" font-family="Roboto" font-size="14" lengthAdjust="spacing" textLength="201.332" x="127" y="439.8857">visible_choices(), is_ending()</text><text fill="#222222" font-family="Roboto" font-size="14" lengthAdjust="spacing" textLength="154.123" x="127" y="456.1826">Pure: no I/O, no async</text></g><!--entity reading_state--><g id="elem_reading_state"><rect fill="#BBDEFB" height="111.4844" rx="4" ry="4" style="stroke:#555555;stroke-width:0.5;" width="218.835" x="440.5" y="569.5"/><rect fill="#BBDEFB" height="10" style="stroke:#555555;stroke-width:0.5;" width="15" x="639.335" y="574.5"/><rect fill="#BBDEFB" height="2" style="stroke:#555555;stroke-width:0.5;" width="4" x="637.335" y="576.5"/><rect fill="#BBDEFB" height="2" style="stroke:#555555;stroke-width:0.5;" width="4" x="637.335" y="580.5"/><text fill="#222222" font-family="Roboto" font-size="14" lengthAdjust="spacing" textLength="94.5137" x="455.5" y="602.4951">ReadingState</text><text fill="#222222" font-family="Roboto" font-size="14" lengthAdjust="spacing" textLength="105.8135" x="455.5" y="618.792">player/state.py</text><text fill="#222222" font-family="Roboto" font-size="14" lengthAdjust="spacing" textLength="171.4316" x="455.5" y="635.0889">current_node, var_state,</text><text fill="#222222" font-family="Roboto" font-size="14" lengthAdjust="spacing" textLength="162.5996" x="455.5" y="651.3857">path, visit_set, version,</text><text fill="#222222" font-family="Roboto" font-size="14" lengthAdjust="spacing" textLength="178.835" x="455.5" y="667.6826">state_revision, save_slots</text></g><!--entity replay--><g id="elem_replay"><rect fill="#BBDEFB" height="127.7813" rx="4" ry="4" style="stroke:#555555;stroke-width:0.5;" width="303.2383" x="22.5" y="96.5"/><rect fill="#BBDEFB" height="10" style="stroke:#555555;stroke-width:0.5;" width="15" x="305.7383" y="101.5"/><rect fill="#BBDEFB" height="2" style="stroke:#555555;stroke-width:0.5;" width="4" x="303.7383" y="103.5"/><rect fill="#BBDEFB" height="2" style="stroke:#555555;stroke-width:0.5;" width="4" x="303.7383" y="107.5"/><text fill="#222222" font-family="Roboto" font-size="14" lengthAdjust="spacing" textLength="102.0264" x="37.5" y="129.4951">Save Validator</text><text fill="#222222" font-family="Roboto" font-size="14" lengthAdjust="spacing" textLength="114.3584" x="37.5" y="145.792">player/replay.py</text><text fill="#222222" font-family="Roboto" font-size="14" lengthAdjust="spacing" textLength="246.9482" x="37.5" y="162.0889">validate_reading_state(): structural</text><text fill="#222222" font-family="Roboto" font-size="14" lengthAdjust="spacing" textLength="263.2383" x="37.5" y="178.3857">floor + replays the saved choice path</text><text fill="#222222" font-family="Roboto" font-size="14" lengthAdjust="spacing" textLength="232.6953" x="37.5" y="194.6826">through StoryEngine (server-side</text><text fill="#222222" font-family="Roboto" font-size="14" lengthAdjust="spacing" textLength="172.7031" x="37.5" y="210.9795">reading-state save gate)</text></g><!--entity ts_evaluator--><g id="elem_ts_evaluator"><rect fill="#FFE0B2" height="95.1875" rx="4" ry="4" style="stroke:#555555;stroke-width:0.5;" width="273.1602" x="1047.5" y="113"/><rect fill="#FFE0B2" height="10" style="stroke:#555555;stroke-width:0.5;" width="15" x="1300.6602" y="118"/><rect fill="#FFE0B2" height="2" style="stroke:#555555;stroke-width:0.5;" width="4" x="1298.6602" y="120"/><rect fill="#FFE0B2" height="2" style="stroke:#555555;stroke-width:0.5;" width="4" x="1298.6602" y="124"/><text fill="#222222" font-family="Roboto" font-size="14" lengthAdjust="spacing" textLength="160.0088" x="1062.5" y="145.9951">TS Condition Evaluator</text><text fill="#222222" font-family="Roboto" font-size="14" lengthAdjust="spacing" textLength="222.7559" x="1062.5" y="162.292">frontend/src/player/evaluator.ts</text><text fill="#222222" font-family="Roboto" font-size="14" lengthAdjust="spacing" textLength="233.1602" x="1062.5" y="178.5889">Mirrors Python evaluator exactly;</text><text fill="#222222" font-family="Roboto" font-size="14" lengthAdjust="spacing" textLength="201.8174" x="1062.5" y="194.8857">conformance fixtures shared</text></g><!--entity ts_engine--><g id="elem_ts_engine"><rect fill="#FFE0B2" height="95.1875" rx="4" ry="4" style="stroke:#555555;stroke-width:0.5;" width="246.9307" x="1060.5" y="366"/><rect fill="#FFE0B2" height="10" style="stroke:#555555;stroke-width:0.5;" width="15" x="1287.4307" y="371"/><rect fill="#FFE0B2" height="2" style="stroke:#555555;stroke-width:0.5;" width="4" x="1285.4307" y="373"/><rect fill="#FFE0B2" height="2" style="stroke:#555555;stroke-width:0.5;" width="4" x="1285.4307" y="377"/><text fill="#222222" font-family="Roboto" font-size="14" lengthAdjust="spacing" textLength="111.3027" x="1075.5" y="398.9951">TS Story Engine</text><text fill="#222222" font-family="Roboto" font-size="14" lengthAdjust="spacing" textLength="203.875" x="1075.5" y="415.292">frontend/src/player/engine.ts</text><text fill="#222222" font-family="Roboto" font-size="14" lengthAdjust="spacing" textLength="158.9902" x="1075.5" y="431.5889">Mirrors Python engine:</text><text fill="#222222" font-family="Roboto" font-size="14" lengthAdjust="spacing" textLength="206.9307" x="1075.5" y="447.8857">same transition order (RS v1)</text></g><!--entity xstate--><g id="elem_xstate"><rect fill="#FFE0B2" height="95.1875" rx="4" ry="4" style="stroke:#555555;stroke-width:0.5;" width="256.2891" x="1056" y="577.5"/><rect fill="#FFE0B2" height="10" style="stroke:#555555;stroke-width:0.5;" width="15" x="1292.2891" y="582.5"/><rect fill="#FFE0B2" height="2" style="stroke:#555555;stroke-width:0.5;" width="4" x="1290.2891" y="584.5"/><rect fill="#FFE0B2" height="2" style="stroke:#555555;stroke-width:0.5;" width="4" x="1290.2891" y="588.5"/><text fill="#222222" font-family="Roboto" font-size="14" lengthAdjust="spacing" textLength="109.7031" x="1071" y="610.4951">XState Machine</text><text fill="#222222" font-family="Roboto" font-size="14" lengthAdjust="spacing" textLength="216.2891" x="1071" y="626.792">frontend/src/player/machine.ts</text><text fill="#222222" font-family="Roboto" font-size="14" lengthAdjust="spacing" textLength="190.75" x="1071" y="643.0889">Wraps TS engine in explicit</text><text fill="#222222" font-family="Roboto" font-size="14" lengthAdjust="spacing" textLength="198.0234" x="1071" y="659.3857">state machine for testability</text></g><!--entity reader_ui--><g id="elem_reader_ui"><rect fill="#FFF3E0" height="95.1875" rx="4" ry="4" style="stroke:#555555;stroke-width:0.5;" width="242.207" x="1063" y="783"/><rect fill="#FFF3E0" height="10" style="stroke:#555555;stroke-width:0.5;" width="15" x="1285.207" y="788"/><rect fill="#FFF3E0" height="2" style="stroke:#555555;stroke-width:0.5;" width="4" x="1283.207" y="790"/><rect fill="#FFF3E0" height="2" style="stroke:#555555;stroke-width:0.5;" width="4" x="1283.207" y="794"/><text fill="#222222" font-family="Roboto" font-size="14" lengthAdjust="spacing" textLength="69.002" x="1078" y="815.9951">Reader UI</text><text fill="#222222" font-family="Roboto" font-size="14" lengthAdjust="spacing" textLength="141.0869" x="1078" y="832.292">frontend/src/reader/</text><text fill="#222222" font-family="Roboto" font-size="14" lengthAdjust="spacing" textLength="202.207" x="1078" y="848.5889">Renders node body, choices,</text><text fill="#222222" font-family="Roboto" font-size="14" lengthAdjust="spacing" textLength="133.0137" x="1078" y="864.8857">triggers transitions</text></g><g id="elem_semantics_note"><path d="M1378,61 L1378,259.7266 A4,4 0 0 0 1382,263.7266 L1661.957,263.7266 A4,4 0 0 0 1665.957,259.7266 L1665.957,67 L1655.957,57 L1382,57 A4,4 0 0 0 1378,61 " fill="#FEFFDD" style="stroke:#181818;stroke-width:0.5;"/><path d="M1655.957,57 L1655.957,65 A2,2 0 0 0 1657.957,67 L1665.957,67 L1655.957,57 " fill="#FEFFDD" style="stroke:#181818;stroke-width:1.0;"/><text fill="#000000" font-family="Roboto" font-size="13" lengthAdjust="spacing" textLength="215.5981" x="1384" y="74.0669">Transition order on every choice:</text><text fill="#000000" font-family="Roboto" font-size="13" lengthAdjust="spacing" textLength="266.957" x="1384" y="89.1997">1. Evaluate choice condition vs var_state</text><text fill="#000000" font-family="Roboto" font-size="13" lengthAdjust="spacing" textLength="147.7671" x="1384" y="104.3325">2. Apply choice effects</text><text fill="#000000" font-family="Roboto" font-size="13" lengthAdjust="spacing" textLength="235.6694" x="1384" y="119.4653">3. Set current_node to choice target</text><text fill="#000000" font-family="Roboto" font-size="13" lengthAdjust="spacing" textLength="206.9272" x="1384" y="134.5981">4. Apply target on_enter effects</text><text fill="#000000" font-family="Roboto" font-size="13" lengthAdjust="spacing" textLength="196.0601" x="1396.397" y="149.731">(once: true -&gt; first entry only)</text><text fill="#000000" font-family="Roboto" font-size="13" lengthAdjust="spacing" textLength="4.1323" x="1384" y="164.8638">&#160;</text><text fill="#000000" font-family="Roboto" font-size="13" lengthAdjust="spacing" textLength="179.7656" x="1384" y="179.9966">Bounds clamping (int vars):</text><text fill="#000000" font-family="Roboto" font-size="13" lengthAdjust="spacing" textLength="235.5044" x="1384" y="195.1294">- set/inc/dec all clamp to [min, max]</text><text fill="#000000" font-family="Roboto" font-size="13" lengthAdjust="spacing" textLength="4.1323" x="1384" y="210.2622">&#160;</text><text fill="#000000" font-family="Roboto" font-size="13" lengthAdjust="spacing" textLength="177.0107" x="1384" y="225.395">Hidden choices (section 4):</text><text fill="#000000" font-family="Roboto" font-size="13" lengthAdjust="spacing" textLength="241.3252" x="1384" y="240.5278">- condition false -&gt; choice not shown</text><text fill="#000000" font-family="Roboto" font-size="13" lengthAdjust="spacing" textLength="231.0293" x="1384" y="255.6606">- condition true or absent -&gt; visible</text></g><g id="elem_GMN27"><path d="M729.5,578.5 L729.5,671.2969 A4,4 0 0 0 733.5,675.2969 L1010.1245,675.2969 A4,4 0 0 0 1014.1245,671.2969 L1014.1245,584.5 L1004.1245,574.5 L733.5,574.5 A4,4 0 0 0 729.5,578.5 " fill="#FEFFDD" style="stroke:#181818;stroke-width:0.5;"/><path d="M1004.1245,574.5 L1004.1245,582.5 A2,2 0 0 0 1006.1245,584.5 L1014.1245,584.5 L1004.1245,574.5 " fill="#FEFFDD" style="stroke:#181818;stroke-width:1.0;"/><text fill="#000000" font-family="Roboto" font-size="13" lengthAdjust="spacing" textLength="187.7002" x="735.5" y="591.5669">ADR-006: in-house evaluator</text><text fill="#000000" font-family="Roboto" font-size="13" lengthAdjust="spacing" textLength="176.1982" x="735.5" y="606.6997">No third-party logic library.</text><text fill="#000000" font-family="Roboto" font-size="13" lengthAdjust="spacing" textLength="175.7222" x="735.5" y="621.8325">Whitelisted operators only.</text><text fill="#000000" font-family="Roboto" font-size="13" lengthAdjust="spacing" textLength="212.4434" x="735.5" y="636.9653">Strict equality, no type coercion.</text><text fill="#000000" font-family="Roboto" font-size="13" lengthAdjust="spacing" textLength="263.6245" x="735.5" y="652.0981">Python + TypeScript share conformance</text><text fill="#000000" font-family="Roboto" font-size="13" lengthAdjust="spacing" textLength="170.4346" x="735.5" y="667.231">fixtures (cross-impl tests).</text></g><g id="elem_GMN30"><path d="M418.5,791.5 L418.5,869.1641 A4,4 0 0 0 422.5,873.1641 L677.7393,873.1641 A4,4 0 0 0 681.7393,869.1641 L681.7393,797.5 L671.7393,787.5 L554,787.5 L550,680.53 L546,787.5 L422.5,787.5 A4,4 0 0 0 418.5,791.5 " fill="#FEFFDD" style="stroke:#181818;stroke-width:0.5;"/><path d="M671.7393,787.5 L671.7393,795.5 A2,2 0 0 0 673.7393,797.5 L681.7393,797.5 L671.7393,787.5 " fill="#FEFFDD" style="stroke:#181818;stroke-width:0.5;"/><text fill="#000000" font-family="Roboto" font-size="13" lengthAdjust="spacing" textLength="190.9692" x="424.5" y="804.5669">save_slots: named snapshots</text><text fill="#000000" font-family="Roboto" font-size="13" lengthAdjust="spacing" textLength="200.313" x="424.5" y="819.6997">(a clone of state at save time).</text><text fill="#000000" font-family="Roboto" font-size="13" lengthAdjust="spacing" textLength="220.0542" x="424.5" y="834.8325">visit_set drives once: true effects.</text><text fill="#000000" font-family="Roboto" font-size="13" lengthAdjust="spacing" textLength="242.2393" x="424.5" y="849.9653">state_revision: server-owned counter</text><text fill="#000000" font-family="Roboto" font-size="13" lengthAdjust="spacing" textLength="174.5859" x="424.5" y="865.0981">for optimistic concurrency.</text></g><!--link storybook_model to engine--><g id="link_storybook_model_engine"><path d="M461.95,208.03 C435.36,233.86 401.76,266.62 372,296 C357.69,310.13 354.87,314.46 340,328 C329.12,337.91 321.8872,344.2725 310.2872,354.0525 " fill="none" id="storybook_model-to-engine" style="stroke:#181818;stroke-width:1.0;"/><polygon fill="#181818" points="305.7,357.92,315.1591,355.1769,309.5227,354.6971,310.0025,349.0606,305.7,357.92" style="stroke:#181818;stroke-width:1.0;"/><text fill="#000000" font-family="Roboto" font-size="13" lengthAdjust="spacing" textLength="66.0283" x="414.7898" y="309.0669">Storybook</text><text fill="#000000" font-family="Roboto" font-size="13" lengthAdjust="spacing" textLength="149.6079" x="373" y="324.1997">(parsed, schema-valid)</text></g><!--link storybook_model to cond_validator--><g id="link_storybook_model_cond_validator"><path d="M517.4,208.17 C521.48,234.04 526.59,266.79 531,296 C534.48,319.04 537.3702,338.7219 540.4602,360.0619 " fill="none" id="storybook_model-to-cond_validator" style="stroke:#181818;stroke-width:1.0;"/><polygon fill="#181818" points="541.32,366,543.989,356.5197,540.6035,361.0516,536.0715,357.6661,541.32,366" style="stroke:#181818;stroke-width:1.0;"/><text fill="#000000" font-family="Roboto" font-size="13" lengthAdjust="spacing" textLength="89.7432" x="541.8716" y="309.0669">condition DSL</text><text fill="#000000" font-family="Roboto" font-size="13" lengthAdjust="spacing" textLength="101.4863" x="536" y="324.1997">at schema time</text></g><!--link engine to evaluator--><g id="link_engine_evaluator"><path d="M111.59,449.19 C88.76,461.24 67.85,477.4 54,499 C38.26,523.54 44.2834,541.2264 66.3134,559.1264 " fill="none" id="engine-to-evaluator" style="stroke:#181818;stroke-width:1.0;"/><polygon fill="#181818" points="70.97,562.91,66.5075,554.1301,67.0895,559.757,61.4626,560.339,70.97,562.91" style="stroke:#181818;stroke-width:1.0;"/><text fill="#000000" font-family="Roboto" font-size="13" lengthAdjust="spacing" textLength="172.1104" x="55" y="512.0669">evaluate(choice.condition,</text><text fill="#000000" font-family="Roboto" font-size="13" lengthAdjust="spacing" textLength="65.5078" x="108.3013" y="527.1997">var_state)</text></g><!--link evaluator to engine--><g id="link_evaluator_engine"><path d="M229.05,560.77 C230.15,550.82 231.18,540.64 232,531 C233.71,510.82 234.7118,494.6231 235.6518,475.0731 " fill="none" id="evaluator-to-engine" style="stroke:#181818;stroke-width:1.0;"/><polygon fill="#181818" points="235.94,469.08,231.5124,477.8775,235.6999,474.0742,239.5031,478.2617,235.94,469.08" style="stroke:#181818;stroke-width:1.0;"/><text fill="#000000" font-family="Roboto" font-size="13" lengthAdjust="spacing" textLength="27.771" x="236" y="519.5669">bool</text></g><!--link engine to reading_state--><g id="link_engine_reading_state"><path d="M275.94,469.15 C292.78,490.5 313.99,513.9 337,531 C355.06,544.42 392.2463,561.495 434.7363,579.085 " fill="none" id="engine-to-reading_state" style="stroke:#181818;stroke-width:1.0;"/><polygon fill="#181818" points="440.28,581.38,433.4944,574.2417,435.6602,579.4675,430.4344,581.6333,440.28,581.38" style="stroke:#181818;stroke-width:1.0;"/><text fill="#000000" font-family="Roboto" font-size="13" lengthAdjust="spacing" textLength="138.3916" x="383.6619" y="512.0669">produces / consumes</text><text fill="#000000" font-family="Roboto" font-size="13" lengthAdjust="spacing" textLength="229.7153" x="338" y="527.1997">(immutable: clone on each choose)</text></g><!--link reading_state to engine--><g id="link_reading_state_engine"><path d="M577.76,569.23 C585.72,545.21 588.39,518.18 572,499 C544.23,466.5 423.32,479.96 382,469 C376.19,467.46 376.0186,467.5216 370.0886,465.7116 " fill="none" id="reading_state-to-engine" style="stroke:#181818;stroke-width:1.0;"/><polygon fill="#181818" points="364.35,463.96,371.7902,470.4131,369.1322,465.4197,374.1257,462.7616,364.35,463.96" style="stroke:#181818;stroke-width:1.0;"/><text fill="#000000" font-family="Roboto" font-size="13" lengthAdjust="spacing" textLength="84.4746" x="584" y="519.5669">current state</text></g><!--link replay to engine--><g id="link_replay_engine"><path d="M148.72,224.86 C139.82,256.85 135.1,295.64 149,328 C153.62,338.77 156.4901,344.2333 164.2301,353.3633 " fill="none" id="replay-to-engine" style="stroke:#181818;stroke-width:1.0;"/><polygon fill="#181818" points="168.11,357.94,165.3413,348.4883,164.8767,354.1261,159.239,353.6616,168.11,357.94" style="stroke:#181818;stroke-width:1.0;"/><text fill="#000000" font-family="Roboto" font-size="13" lengthAdjust="spacing" textLength="163.5981" x="160.8608" y="309.0669">replay saved choice path</text><text fill="#000000" font-family="Roboto" font-size="13" lengthAdjust="spacing" textLength="185.3198" x="150" y="324.1997">(server-side save validation)</text></g><!--link ts_evaluator to ts_engine--><g id="link_ts_evaluator_ts_engine"><path d="M1184,208.12 C1184,253.06 1184,314.7 1184,359.7 " fill="none" id="ts_evaluator-to-ts_engine" style="stroke:#181818;stroke-width:1.0;"/><polygon fill="#181818" points="1184,365.7,1188,356.7,1184,360.7,1180,356.7,1184,365.7" style="stroke:#181818;stroke-width:1.0;"/><text fill="#000000" font-family="Roboto" font-size="13" lengthAdjust="spacing" textLength="66.7139" x="1185" y="316.5669">evaluate()</text></g><!--link ts_engine to xstate--><g id="link_ts_engine_xstate"><path d="M1184,461.26 C1184,495.87 1184,536.81 1184,571.39 " fill="none" id="ts_engine-to-xstate" style="stroke:#181818;stroke-width:1.0;"/><polygon fill="#181818" points="1184,577.39,1188,568.39,1184,572.39,1180,568.39,1184,577.39" style="stroke:#181818;stroke-width:1.0;"/><text fill="#000000" font-family="Roboto" font-size="13" lengthAdjust="spacing" textLength="69.3164" x="1185" y="519.5669">step result</text></g><!--link xstate to reader_ui--><g id="link_xstate_reader_ui"><path d="M1115.48,672.72 C1100.72,686.41 1087.13,702.69 1079,721 C1068.69,744.24 1076.7696,761.4705 1096.3696,778.8405 " fill="none" id="xstate-to-reader_ui" style="stroke:#181818;stroke-width:1.0;"/><polygon fill="#181818" points="1100.86,782.82,1096.7774,773.8572,1097.118,779.5038,1091.4714,779.8444,1100.86,782.82" style="stroke:#181818;stroke-width:1.0;"/><text fill="#000000" font-family="Roboto" font-size="13" lengthAdjust="spacing" textLength="98.687" x="1090.791" y="734.0669">visible choices,</text><text fill="#000000" font-family="Roboto" font-size="13" lengthAdjust="spacing" textLength="120.269" x="1080" y="749.1997">current node body</text></g><!--link reader_ui to xstate--><g id="link_reader_ui_xstate"><path d="M1198.9,782.98 C1201.44,773.18 1203.68,762.83 1205,753 C1208.6,726.31 1205.5404,702.4467 1199.8304,678.4767 " fill="none" id="reader_ui-to-xstate" style="stroke:#181818;stroke-width:1.0;"/><polygon fill="#181818" points="1198.44,672.64,1196.6345,682.3219,1199.5987,677.5039,1204.4167,680.4681,1198.44,672.64" style="stroke:#181818;stroke-width:1.0;"/><text fill="#000000" font-family="Roboto" font-size="13" lengthAdjust="spacing" textLength="74.585" x="1207" y="741.5669">user choice</text></g><!--link engine to GMN27--><g id="link_engine_GMN27"><path d="M364.25,464.37 C370.21,466.06 376.15,467.62 382,469 C510.27,499.25 552.57,455.59 677,499 C725.6,515.96 774.35,547.21 810.95,574.22 " fill="none" id="engine-GMN27" style="stroke:#181818;stroke-width:1.0;stroke-dasharray:7.0,7.0;"/></g><!--SRC=[fLXhRnit5lskNt7hV8Y4Q2p7IOg5sXI87q9JD0zOsNONLI7GCvH4P8QSaXpNmcB_-vvBpbEMQomgsyY8Zyl3-pZdJfxJsx_n6JsdIrEKHaljwKg9hHN5d3xdOYyjNUkjqfA4pcZfZTtV6lELhkz4NWbyvQt__aJliZlihQmSFSV8qbGsbRHHkNHpV2ToDfsbUxCMpRfP6QpFPB1-Mkwf_ep38V7GATrKsgj2qb8M0a-fexkNax-swBpmVOCqlf4YKtgxv0dAX1TfBfnxmeoL_D07XYihx9Ph6-sjmqbpSjBUIPiubSbWyl_uE74dQGihtr4ypv7VIKftHi5_fV2xnr2w9XIpmcGoTmtGSHkZANt4p9GkWx4fNMysClLFsvDDQ8F9SVrLZYTJ-aNOuCGf_RbJNkRAUPcHATtJLbEZC-MLqT5g-vMkbZzJxLbZdxRZqXrIOItlIsCzR8KD6skqbpgRySvXOdatSFZuov8APQsnP3RK9j_aSJEjD_gM3ipqFFQufKAakuU8nl-AQLdFnksPIHrlqnffDhEn1XBNrC1faHrP9ZBBVydPsRT9wrwNABqpbPD91pBi_bjqCN9VbIu5M88okH5LxXUuxqU1GZsvCRV6cvFUabkHVjrQK-diqkJmsBF5E_xfhQWdhGRT_ACtdZQajFJxN59LvEUZOzFqdn7HXR6PjFKHRy87emoi7ZiFdz5_HwCIYCGMO2_mW30rL3V-lFSxeoSdzEpwrU9ySGN3iD6TSz8nuETz5g917xZ-Llf8GQxqOyMuqh4QGqafSPjpVMecbHCIZbfRws2BdbrSN5qlBWwmN0vgw9UcXlfG-bMtqYs1jSFZoKhtIZan9RX7fbz9U8gLHfnw0HHlMhUL-YIcLY7wUFgLij8jjRHufg026tbrY8nUdZ6udvQVFlvijl2wgswTz7E-b9tIDrFMfoaPFBzzY-_u-nw_-ES7_Bvb35QbdkGV5MxWzrFI1hYbJN5gk5uBxP6RXL3MOhZIX-fLXpfEGnAyi9uP4qnk77CdW2gd4EXr97V7iygjPOWwn-4pY6xEiDxFFWLumkrr6h552NxsyistRoxF3e3rrQq5reZWIgULjLYtrY7_MlS24CiBHW3Bh-5BF4hhE0ZihQXpFCbHOPrQkznu5_0C1F0nVx6qzPBoK5PxwJWmDvwm-soLWlW5wcgJ6yJanK0V6KxMLycLzZkGo7P7lJ3GkAVCArsVaaJGhV9EwXknzUugVP9Or6JUiiINVIcNgLMbPwPOB1QlhiyUC0KKucWnF2KoA_qX28kZI4Qzn9Jt8lNv_Zi4rUYDiP23q6NTiqQ2DNR2oYnSnoEnkdnUBAxFBiuVuXkcz5-Aw4DKCTEHAipwtWhjubK32wFdMdAdreAf4_Weabe1FqG5F0wa4y-L_jMAqX7mrrOLqDoNkKgLhpEtKLE2ayXBZDqghle0vxxEsgDOk9W0_v_l3s3OC3vRwHkCe4o8oubkJRQVrddeK3RWcEsMPpj_T0KZxRfIJReCC-nObxlIuwVRWEZWTcID7JZX3Vy4JTG6Dnsiu94HDnvV3aCMKaqY8U9zvc7LozCcTzkkj6lTxbp79s7r-IczAykyCK4oY9mBSwzESJrFVJeYRvgLuCkjz67XwyP870Ckf8y7mBurxfmCidyELrUIaXzG1jQ1tn63FRRaQCJ2mWjkBI1UkIXAU9762c46QZU95qpW6pzJEfrbCYMHvt4fG_kjKA2-Gjp_7atzgB9CwYRSp2vfSCFhrbJdcet8NO1LtmzkHtsQF_M3bG4_qbH0pm0DMsgXm4ecdH0m9CjpIfA4RcGkGbhj56e08wF3NY61XRemvhr-1Uc4fib9Y6GKzYJGx-Jag843hOUXGSE-qWVzmQW-CHpU4W-sTH8V_73QANrGxbhgiR_TDCGFNFd0-b1wiAAq9giu7ZD6xQf2WYB6gYWgpttL7F54ROVi1YdKWemJXuQ6fzP9Ic6EbmPn6Awf1uz8KLzseixKdbJSMev60t9cenr1zZs6fTq4BxjlxuoEg8Gd71hlaz5zTuEEPh2eJgCUFJNNQhahUY7k69w0DmPRxmJYG2DewxqfkjScvEUxgnj-tPY3WfFmbj457xCV3SHQsIn1ulazvQ5lozMj5NP_YlbV1- -Gql8s5sgNPvT76ZOFuMsxDbvKYz4BwYGvoY3r51BhMeqSfzOul1GLPHw4mKrEHssL7Tvpa28ZwdL1wDCWUnav3IdQcK1AOz6asYOcJcYYEVnS8XE6s_PQb5br9_coBONLxCRBXjrN-nyCO0zEDH0Qs90lnM-V9Op3XV0iRXm3dEvxT_eV]--></g></svg>