<svg xmlns="http://www.w3.org/2000/svg" xmlns:xlink="http://www.w3.org/1999/xlink" contentStyleType="text/css" height="1238px" preserveAspectRatio="none" style="width:3312px;height:1238px;background:#FAFAFA;" version="1.1" viewBox="0 0 3312 1238" width="3312px" zoomAndPan="magnify"><defs><style type="text/css">@import url('https://fonts.googleapis.com/css?family=Roboto:400,100,100italic,300,300italic,400italic,500,500italic,700,700italic,900,900italic');</style></defs><g><rect fill="#FAFAFA" height="1238" style="stroke:none;stroke-width:1.0;" width="3312" x="0" y="0"/><!--cluster Pipeline Event Log (WS-D)--><g id="cluster_Pipeline Event Log (WS-D)"><path d="M791,318 L996.416,318 A6,6 0 0 1 1000.416,322 L1007.416,340.2969 L1596,340.2969 A4,4 0 0 1 1600,344.2969 L1600,973.5 A4,4 0 0 1 1596,977.5 L791,977.5 A4,4 0 0 1 787,973.5 L787,322 A4,4 0 0 1 791,318 " fill="#FFF8E1" style="stroke:#000000;stroke-width:1.5;"/><line style="stroke:#000000;stroke-width:1.5;" x1="787" x2="1007.416" y1="340.2969" y2="340.2969"/><text fill="#000000" font-family="Roboto" font-size="14" font-weight="bold" lengthAdjust="spacing" textLength="207.416" x="791" y="332.9951">Pipeline Event Log (WS-D)</text></g><!--cluster pg--><g id="cluster_pg"><path d="M1624,745 C1624,735 1785,735 1785,735 C1785,735 1946,735 1946,745 L1946,935 C1946,945 1785,945 1785,945 C1785,945 1624,945 1624,935 L1624,745 " fill="#E0F7FA" style="stroke:#181818;stroke-width:1.0;"/><path d="M1624,745 C1624,755 1785,755 1785,755 C1785,755 1946,755 1946,745 " fill="none" style="stroke:#181818;stroke-width:1.0;"/><text fill="#000000" font-family="Roboto" font-size="14" font-weight="bold" lengthAdjust="spacing" textLength="92.2305" x="1738.8848" y="769.9951">PostgreSQL</text></g><!--entity event_type--><g id="elem_event_type"><rect fill="#FFECB3" height="209.2656" rx="4" ry="4" style="stroke:#555555;stroke-width:0.5;" width="393.6436" x="803" y="752.5"/><rect fill="#FFECB3" height="10" style="stroke:#555555;stroke-width:0.5;" width="15" x="1176.6436" y="757.5"/><rect fill="#FFECB3" height="2" style="stroke:#555555;stroke-width:0.5;" width="4" x="1174.6436" y="759.5"/><rect fill="#FFECB3" height="2" style="stroke:#555555;stroke-width:0.5;" width="4" x="1174.6436" y="763.5"/><text fill="#222222" font-family="Roboto" font-size="14" lengthAdjust="spacing" textLength="74.4434" x="818" y="785.4951">EventType</text><text fill="#222222" font-family="Roboto" font-size="14" lengthAdjust="spacing" textLength="124.3936" x="818" y="801.792">events/models.py</text><text fill="#222222" font-family="Roboto" font-size="14" lengthAdjust="spacing" textLength="130.6348" x="818" y="818.0889">17-value StrEnum:</text><text fill="#222222" font-family="Roboto" font-size="14" lengthAdjust="spacing" textLength="300.9521" x="818" y="834.3857">REQUEST_CREATED/APPROVED/DECLINED,</text><text fill="#222222" font-family="Roboto" font-size="14" lengthAdjust="spacing" textLength="293.7471" x="818" y="850.6826">PLAN_ASSIGNED, GENERATION_STARTED/</text><text fill="#222222" font-family="Roboto" font-size="14" lengthAdjust="spacing" textLength="268.5156" x="818" y="866.9795">FINISHED, MODERATION_COMPLETED,</text><text fill="#222222" font-family="Roboto" font-size="14" lengthAdjust="spacing" textLength="292.9199" x="818" y="883.2764">REPAIR_APPLIED, SENT_BACK, RELEASED,</text><text fill="#222222" font-family="Roboto" font-size="14" lengthAdjust="spacing" textLength="353.6436" x="818" y="899.5732">THRESHOLD_CHANGED, NOISE_FLOOR_CHANGED,</text><text fill="#222222" font-family="Roboto" font-size="14" lengthAdjust="spacing" textLength="181.084" x="818" y="915.8701">BOOK_ASSIGNED, RATED,</text><text fill="#222222" font-family="Roboto" font-size="14" lengthAdjust="spacing" textLength="259.6084" x="818" y="932.167">USER_MANAGED, FAMILY_MANAGED,</text><text fill="#222222" font-family="Roboto" font-size="14" lengthAdjust="spacing" textLength="229.5508" x="818" y="948.4639">FAMILY_CONNECTION_CHANGED</text></g><!--entity actor--><g id="elem_actor"><rect fill="#FFECB3" height="144.0781" rx="4" ry="4" style="stroke:#555555;stroke-width:0.5;" width="351.165" x="1232.5" y="785"/><rect fill="#FFECB3" height="10" style="stroke:#555555;stroke-width:0.5;" width="15" x="1563.665" y="790"/><rect fill="#FFECB3" height="2" style="stroke:#555555;stroke-width:0.5;" width="4" x="1561.665" y="792"/><rect fill="#FFECB3" height="2" style="stroke:#555555;stroke-width:0.5;" width="4" x="1561.665" y="796"/><text fill="#222222" font-family="Roboto" font-size="14" lengthAdjust="spacing" textLength="37.085" x="1247.5" y="817.9951">Actor</text><text fill="#222222" font-family="Roboto" font-size="14" lengthAdjust="spacing" textLength="124.3936" x="1247.5" y="834.292">events/models.py</text><text fill="#222222" font-family="Roboto" font-size="14" lengthAdjust="spacing" textLength="218.8115" x="1247.5" y="850.5889">system() -- worker/moderation,</text><text fill="#222222" font-family="Roboto" font-size="14" lengthAdjust="spacing" textLength="82.2363" x="1247.5" y="866.8857">no principal</text><text fill="#222222" font-family="Roboto" font-size="14" lengthAdjust="spacing" textLength="298.498" x="1247.5" y="883.1826">from_principal(acting_role?) -- HTTP caller;</text><text fill="#222222" font-family="Roboto" font-size="14" lengthAdjust="spacing" textLength="311.165" x="1247.5" y="899.4795">admin-gated calls stamp actor_role='admin'</text><text fill="#222222" font-family="Roboto" font-size="14" lengthAdjust="spacing" textLength="229.3525" x="1247.5" y="915.7764">D2: system &lt;-&gt; actor_id is None</text></g><!--entity record_event--><g id="elem_record_event"><rect fill="#FFD54F" height="144.0781" rx="4" ry="4" style="stroke:#555555;stroke-width:0.5;" width="290.4824" x="1284" y="353"/><rect fill="#FFD54F" height="10" style="stroke:#555555;stroke-width:0.5;" width="15" x="1554.4824" y="358"/><rect fill="#FFD54F" height="2" style="stroke:#555555;stroke-width:0.5;" width="4" x="1552.4824" y="360"/><rect fill="#FFD54F" height="2" style="stroke:#555555;stroke-width:0.5;" width="4" x="1552.4824" y="364"/><text fill="#222222" font-family="Roboto" font-size="14" lengthAdjust="spacing" textLength="103.0723" x="1299" y="385.9951">record_event()</text><text fill="#222222" font-family="Roboto" font-size="14" lengthAdjust="spacing" textLength="114.4609" x="1299" y="402.292">events/writer.py</text><text fill="#222222" font-family="Roboto" font-size="14" lengthAdjust="spacing" textLength="146.1455" x="1299" y="418.5889">THE ONLY write path</text><text fill="#222222" font-family="Roboto" font-size="14" lengthAdjust="spacing" textLength="250.4824" x="1299" y="434.8857">_validate_payload(): per-event-type</text><text fill="#222222" font-family="Roboto" font-size="14" lengthAdjust="spacing" textLength="246.3193" x="1299" y="451.1826">key allowlist + PII-safe value check</text><text fill="#222222" font-family="Roboto" font-size="14" lengthAdjust="spacing" textLength="193.1357" x="1299" y="467.4795">(D3); adds + flushes on the</text><text fill="#222222" font-family="Roboto" font-size="14" lengthAdjust="spacing" textLength="239.8047" x="1299" y="483.7764">CALLER's session/transaction (D1)</text></g><!--entity pipeline_event_table--><g id="elem_pipeline_event_table"><rect fill="#E0F7FA" height="144.0781" rx="4" ry="4" style="stroke:#555555;stroke-width:0.5;" width="289.6826" x="1640" y="785"/><rect fill="#E0F7FA" height="10" style="stroke:#555555;stroke-width:0.5;" width="15" x="1909.6826" y="790"/><rect fill="#E0F7FA" height="2" style="stroke:#555555;stroke-width:0.5;" width="4" x="1907.6826" y="792"/><rect fill="#E0F7FA" height="2" style="stroke:#555555;stroke-width:0.5;" width="4" x="1907.6826" y="796"/><text fill="#222222" font-family="Roboto" font-size="14" lengthAdjust="spacing" textLength="95.2041" x="1655" y="817.9951">PipelineEvent</text><text fill="#222222" font-family="Roboto" font-size="14" lengthAdjust="spacing" textLength="173.8037" x="1655" y="834.292">id, occurred_at, actor_id,</text><text fill="#222222" font-family="Roboto" font-size="14" lengthAdjust="spacing" textLength="231.4922" x="1655" y="850.5889">actor_role, entity_type, entity_id,</text><text fill="#222222" font-family="Roboto" font-size="14" lengthAdjust="spacing" textLength="232.2715" x="1655" y="866.8857">event_type, from_state, to_state,</text><text fill="#222222" font-family="Roboto" font-size="14" lengthAdjust="spacing" textLength="115.1582" x="1655" y="883.1826">payload (JSONB)</text><text fill="#222222" font-family="Roboto" font-size="14" lengthAdjust="spacing" textLength="168.6699" x="1655" y="899.4795">DB trigger: append-only</text><text fill="#222222" font-family="Roboto" font-size="14" lengthAdjust="spacing" textLength="249.6826" x="1655" y="915.7764">(no UPDATE/DELETE from the ORM)</text></g><!--entity gen_worker--><g id="elem_gen_worker"><rect fill="#FFF3E0" height="78.8906" rx="4" ry="4" style="stroke:#555555;stroke-width:0.5;" width="280.0234" x="7" y="7"/><rect fill="#FFF3E0" height="10" style="stroke:#555555;stroke-width:0.5;" width="15" x="267.0234" y="12"/><rect fill="#FFF3E0" height="2" style="stroke:#555555;stroke-width:0.5;" width="4" x="265.0234" y="14"/><rect fill="#FFF3E0" height="2" style="stroke:#555555;stroke-width:0.5;" width="4" x="265.0234" y="18"/><text fill="#222222" font-family="Roboto" font-size="14" lengthAdjust="spacing" textLength="133.1914" x="22" y="39.9951">Generation Worker</text><text fill="#222222" font-family="Roboto" font-size="14" lengthAdjust="spacing" textLength="150.7256" x="22" y="56.292">generation/worker.py</text><text fill="#222222" font-family="Roboto" font-size="14" lengthAdjust="spacing" textLength="240.0234" x="22" y="72.5889">[see component-generation.puml]</text></g><!--entity mod_pipeline--><g id="elem_mod_pipeline"><rect fill="#E8F5E9" height="78.8906" rx="4" ry="4" style="stroke:#555555;stroke-width:0.5;" width="284.7402" x="369.5" y="7"/><rect fill="#E8F5E9" height="10" style="stroke:#555555;stroke-width:0.5;" width="15" x="634.2402" y="12"/><rect fill="#E8F5E9" height="2" style="stroke:#555555;stroke-width:0.5;" width="4" x="632.2402" y="14"/><rect fill="#E8F5E9" height="2" style="stroke:#555555;stroke-width:0.5;" width="4" x="632.2402" y="18"/><text fill="#222222" font-family="Roboto" font-size="14" lengthAdjust="spacing" textLength="138.8447" x="384.5" y="39.9951">Moderation Pipeline</text><text fill="#222222" font-family="Roboto" font-size="14" lengthAdjust="spacing" textLength="162.7363" x="384.5" y="56.292">moderation/pipeline.py</text><text fill="#222222" font-family="Roboto" font-size="14" lengthAdjust="spacing" textLength="244.7402" x="384.5" y="72.5889">[see component-moderation.puml]</text></g><!--entity pub_service--><g id="elem_pub_service"><rect fill="#F3E5F5" height="78.8906" rx="4" ry="4" style="stroke:#555555;stroke-width:0.5;" width="276.127" x="726" y="7"/><rect fill="#F3E5F5" height="10" style="stroke:#555555;stroke-width:0.5;" width="15" x="982.127" y="12"/><rect fill="#F3E5F5" height="2" style="stroke:#555555;stroke-width:0.5;" width="4" x="980.127" y="14"/><rect fill="#F3E5F5" height="2" style="stroke:#555555;stroke-width:0.5;" width="4" x="980.127" y="18"/><text fill="#222222" font-family="Roboto" font-size="14" lengthAdjust="spacing" textLength="127.9893" x="741" y="39.9951">Publishing Service</text><text fill="#222222" font-family="Roboto" font-size="14" lengthAdjust="spacing" textLength="148.7295" x="741" y="56.292">publishing/service.py</text><text fill="#222222" font-family="Roboto" font-size="14" lengthAdjust="spacing" textLength="236.127" x="741" y="72.5889">[see component-publishing.puml]</text></g><!--entity story_req--><g id="elem_story_req"><rect fill="#DCEDC8" height="78.8906" rx="4" ry="4" style="stroke:#555555;stroke-width:0.5;" width="219.6963" x="1037" y="7"/><rect fill="#DCEDC8" height="10" style="stroke:#555555;stroke-width:0.5;" width="15" x="1236.6963" y="12"/><rect fill="#DCEDC8" height="2" style="stroke:#555555;stroke-width:0.5;" width="4" x="1234.6963" y="14"/><rect fill="#DCEDC8" height="2" style="stroke:#555555;stroke-width:0.5;" width="4" x="1234.6963" y="18"/><text fill="#222222" font-family="Roboto" font-size="14" lengthAdjust="spacing" textLength="155.1211" x="1052" y="39.9951">Story Request Service</text><text fill="#222222" font-family="Roboto" font-size="14" lengthAdjust="spacing" textLength="179.6963" x="1052" y="56.292">story_requests/service.py</text><text fill="#222222" font-family="Roboto" font-size="14" lengthAdjust="spacing" textLength="150.9033" x="1052" y="72.5889">api/story_requests.py</text></g><!--entity authoring_plan--><g id="elem_authoring_plan"><rect fill="#DCEDC8" height="62.5938" rx="4" ry="4" style="stroke:#555555;stroke-width:0.5;" width="274.5615" x="1292.5" y="15"/><rect fill="#DCEDC8" height="10" style="stroke:#555555;stroke-width:0.5;" width="15" x="1547.0615" y="20"/><rect fill="#DCEDC8" height="2" style="stroke:#555555;stroke-width:0.5;" width="4" x="1545.0615" y="22"/><rect fill="#DCEDC8" height="2" style="stroke:#555555;stroke-width:0.5;" width="4" x="1545.0615" y="26"/><text fill="#222222" font-family="Roboto" font-size="14" lengthAdjust="spacing" textLength="103.0176" x="1307.5" y="47.9951">Authoring Plan</text><text fill="#222222" font-family="Roboto" font-size="14" lengthAdjust="spacing" textLength="234.5615" x="1307.5" y="64.292">story_requests/authoring_plan.py</text></g><!--entity mod_thresholds--><g id="elem_mod_thresholds"><rect fill="#E1BEE7" height="78.8906" rx="4" ry="4" style="stroke:#555555;stroke-width:0.5;" width="308.3242" x="1603" y="7"/><rect fill="#E1BEE7" height="10" style="stroke:#555555;stroke-width:0.5;" width="15" x="1891.3242" y="12"/><rect fill="#E1BEE7" height="2" style="stroke:#555555;stroke-width:0.5;" width="4" x="1889.3242" y="14"/><rect fill="#E1BEE7" height="2" style="stroke:#555555;stroke-width:0.5;" width="4" x="1889.3242" y="18"/><text fill="#222222" font-family="Roboto" font-size="14" lengthAdjust="spacing" textLength="160.3438" x="1618" y="39.9951">Moderation Thresholds</text><text fill="#222222" font-family="Roboto" font-size="14" lengthAdjust="spacing" textLength="268.3242" x="1618" y="56.292">api/moderation_thresholds.py [admin]</text><text fill="#222222" font-family="Roboto" font-size="14" lengthAdjust="spacing" textLength="244.7402" x="1618" y="72.5889">[see component-moderation.puml]</text></g><!--entity assignments--><g id="elem_assignments"><rect fill="#DCEDC8" height="62.5938" rx="4" ry="4" style="stroke:#555555;stroke-width:0.5;" width="288.7803" x="1946.5" y="15"/><rect fill="#DCEDC8" height="10" style="stroke:#555555;stroke-width:0.5;" width="15" x="2215.2803" y="20"/><rect fill="#DCEDC8" height="2" style="stroke:#555555;stroke-width:0.5;" width="4" x="2213.2803" y="22"/><rect fill="#DCEDC8" height="2" style="stroke:#555555;stroke-width:0.5;" width="4" x="2213.2803" y="26"/><text fill="#222222" font-family="Roboto" font-size="14" lengthAdjust="spacing" textLength="89.7217" x="1961.5" y="47.9951">Assignments</text><text fill="#222222" font-family="Roboto" font-size="14" lengthAdjust="spacing" textLength="248.7803" x="1961.5" y="64.292">api/assignments.py [guardian-only]</text></g><!--entity ratings--><g id="elem_ratings"><rect fill="#DCEDC8" height="62.5938" rx="4" ry="4" style="stroke:#555555;stroke-width:0.5;" width="136.4619" x="2270" y="15"/><rect fill="#DCEDC8" height="10" style="stroke:#555555;stroke-width:0.5;" width="15" x="2386.4619" y="20"/><rect fill="#DCEDC8" height="2" style="stroke:#555555;stroke-width:0.5;" width="4" x="2384.4619" y="22"/><rect fill="#DCEDC8" height="2" style="stroke:#555555;stroke-width:0.5;" width="4" x="2384.4619" y="26"/><text fill="#222222" font-family="Roboto" font-size="14" lengthAdjust="spacing" textLength="52.7393" x="2285" y="47.9951">Ratings</text><text fill="#222222" font-family="Roboto" font-size="14" lengthAdjust="spacing" textLength="96.4619" x="2285" y="64.292">api/ratings.py</text></g><!--entity admin_users_ev--><g id="elem_admin_users_ev"><rect fill="#E1BEE7" height="78.8906" rx="4" ry="4" style="stroke:#555555;stroke-width:0.5;" width="311.3115" x="2441.5" y="7"/><rect fill="#E1BEE7" height="10" style="stroke:#555555;stroke-width:0.5;" width="15" x="2732.8115" y="12"/><rect fill="#E1BEE7" height="2" style="stroke:#555555;stroke-width:0.5;" width="4" x="2730.8115" y="14"/><rect fill="#E1BEE7" height="2" style="stroke:#555555;stroke-width:0.5;" width="4" x="2730.8115" y="18"/><text fill="#222222" font-family="Roboto" font-size="14" lengthAdjust="spacing" textLength="88.5186" x="2456.5" y="39.9951">Admin Users</text><text fill="#222222" font-family="Roboto" font-size="14" lengthAdjust="spacing" textLength="195.6309" x="2456.5" y="56.292">api/admin_users.py [admin]</text><text fill="#222222" font-family="Roboto" font-size="14" lengthAdjust="spacing" textLength="271.3115" x="2456.5" y="72.5889">[see component-api-persistence.puml]</text></g><!--entity families_ev--><g id="elem_families_ev"><rect fill="#E1BEE7" height="62.5938" rx="4" ry="4" style="stroke:#555555;stroke-width:0.5;" width="201.6563" x="2788" y="15"/><rect fill="#E1BEE7" height="10" style="stroke:#555555;stroke-width:0.5;" width="15" x="2969.6563" y="20"/><rect fill="#E1BEE7" height="2" style="stroke:#555555;stroke-width:0.5;" width="4" x="2967.6563" y="22"/><rect fill="#E1BEE7" height="2" style="stroke:#555555;stroke-width:0.5;" width="4" x="2967.6563" y="26"/><text fill="#222222" font-family="Roboto" font-size="14" lengthAdjust="spacing" textLength="57.8457" x="2803" y="47.9951">Families</text><text fill="#222222" font-family="Roboto" font-size="14" lengthAdjust="spacing" textLength="161.6563" x="2803" y="64.292">api/families.py [admin]</text></g><!--entity family_conn_ev--><g id="elem_family_conn_ev"><rect fill="#E1BEE7" height="62.5938" rx="4" ry="4" style="stroke:#555555;stroke-width:0.5;" width="281.5752" x="3025" y="15"/><rect fill="#E1BEE7" height="10" style="stroke:#555555;stroke-width:0.5;" width="15" x="3286.5752" y="20"/><rect fill="#E1BEE7" height="2" style="stroke:#555555;stroke-width:0.5;" width="4" x="3284.5752" y="22"/><rect fill="#E1BEE7" height="2" style="stroke:#555555;stroke-width:0.5;" width="4" x="3284.5752" y="26"/><text fill="#222222" font-family="Roboto" font-size="14" lengthAdjust="spacing" textLength="137.293" x="3040" y="47.9951">Family Connections</text><text fill="#222222" font-family="Roboto" font-size="14" lengthAdjust="spacing" textLength="241.5752" x="3040" y="64.292">api/family_connections.py [admin]</text></g><!--entity mod_dashboard--><g id="elem_mod_dashboard"><rect fill="#E1BEE7" height="78.8906" rx="4" ry="4" style="stroke:#555555;stroke-width:0.5;" width="309.0967" x="1463.5" y="1111.5"/><rect fill="#E1BEE7" height="10" style="stroke:#555555;stroke-width:0.5;" width="15" x="1752.5967" y="1116.5"/><rect fill="#E1BEE7" height="2" style="stroke:#555555;stroke-width:0.5;" width="4" x="1750.5967" y="1118.5"/><rect fill="#E1BEE7" height="2" style="stroke:#555555;stroke-width:0.5;" width="4" x="1750.5967" y="1122.5"/><text fill="#222222" font-family="Roboto" font-size="14" lengthAdjust="spacing" textLength="159.9473" x="1478.5" y="1144.4951">Moderation Dashboard</text><text fill="#222222" font-family="Roboto" font-size="14" lengthAdjust="spacing" textLength="269.0967" x="1478.5" y="1160.792">api/moderation_dashboard.py [admin]</text><text fill="#222222" font-family="Roboto" font-size="14" lengthAdjust="spacing" textLength="244.7402" x="1478.5" y="1177.0889">[see component-moderation.puml]</text></g><g id="elem_GMN38"><path d="M1616.5,212 L1616.5,421 L1574.1,425 L1616.5,429 L1616.5,637.7188 A4,4 0 0 0 1620.5,641.7188 L1883.1787,641.7188 A4,4 0 0 0 1887.1787,637.7188 L1887.1787,218 L1877.1787,208 L1620.5,208 A4,4 0 0 0 1616.5,212 " fill="#FEFFDD" style="stroke:#181818;stroke-width:0.5;"/><path d="M1877.1787,208 L1877.1787,216 A2,2 0 0 0 1879.1787,218 L1887.1787,218 L1877.1787,208 " fill="#FEFFDD" style="stroke:#181818;stroke-width:0.5;"/><text fill="#000000" font-family="Roboto" font-size="13" lengthAdjust="spacing" textLength="195.876" x="1622.5" y="225.0669">Spec decisions enforced here:</text><text fill="#000000" font-family="Roboto" font-size="13" lengthAdjust="spacing" textLength="4.1323" x="1622.5" y="240.1997">&#160;</text><text fill="#000000" font-family="Roboto" font-size="13" lengthAdjust="spacing" textLength="218.8862" x="1622.5" y="255.3325">D1: the row rides the caller's own</text><text fill="#000000" font-family="Roboto" font-size="13" lengthAdjust="spacing" textLength="218.0547" x="1622.5" y="270.4653">transaction -- record_event never</text><text fill="#000000" font-family="Roboto" font-size="13" lengthAdjust="spacing" textLength="248.9614" x="1622.5" y="285.5981">opens or commits its own transaction,</text><text fill="#000000" font-family="Roboto" font-size="13" lengthAdjust="spacing" textLength="237.2881" x="1622.5" y="300.731">so the event and the state change it</text><text fill="#000000" font-family="Roboto" font-size="13" lengthAdjust="spacing" textLength="192.5308" x="1622.5" y="315.8638">describes commit or roll back</text><text fill="#000000" font-family="Roboto" font-size="13" lengthAdjust="spacing" textLength="135.7002" x="1622.5" y="330.9966">together, atomically.</text><text fill="#000000" font-family="Roboto" font-size="13" lengthAdjust="spacing" textLength="4.1323" x="1622.5" y="346.1294">&#160;</text><text fill="#000000" font-family="Roboto" font-size="13" lengthAdjust="spacing" textLength="181.6699" x="1622.5" y="361.2622">D2: a system actor (worker,</text><text fill="#000000" font-family="Roboto" font-size="13" lengthAdjust="spacing" textLength="184.1772" x="1622.5" y="376.395">moderation pipeline) carries</text><text fill="#000000" font-family="Roboto" font-size="13" lengthAdjust="spacing" textLength="183.2886" x="1622.5" y="391.5278">actor_id=None; a user actor</text><text fill="#000000" font-family="Roboto" font-size="13" lengthAdjust="spacing" textLength="213.002" x="1622.5" y="406.6606">(HTTP caller) always carries one.</text><text fill="#000000" font-family="Roboto" font-size="13" lengthAdjust="spacing" textLength="143.4253" x="1622.5" y="421.7935">Enforced twice: Actor.</text><text fill="#000000" font-family="Roboto" font-size="13" lengthAdjust="spacing" text-decoration="underline" textLength="55.1357" x="1765.9253" y="421.7935">post_init</text><text fill="#000000" font-family="Roboto" font-size="13" lengthAdjust="spacing" textLength="179.1055" x="1622.5" y="436.9263">(construction-time) and the</text><text fill="#000000" font-family="Roboto" font-size="13" lengthAdjust="spacing" textLength="239.9858" x="1622.5" y="452.0591">ck_pipeline_event_system_actor_null</text><text fill="#000000" font-family="Roboto" font-size="13" lengthAdjust="spacing" textLength="249.6787" x="1622.5" y="467.1919">DB CHECK (backstop for any non-ORM</text><text fill="#000000" font-family="Roboto" font-size="13" lengthAdjust="spacing" textLength="47.2329" x="1622.5" y="482.3247">writer).</text><text fill="#000000" font-family="Roboto" font-size="13" lengthAdjust="spacing" textLength="4.1323" x="1622.5" y="497.4575">&#160;</text><text fill="#000000" font-family="Roboto" font-size="13" lengthAdjust="spacing" textLength="225.5894" x="1622.5" y="512.5903">D3: payload is PII-free by contract.</text><text fill="#000000" font-family="Roboto" font-size="13" lengthAdjust="spacing" textLength="220.27" x="1622.5" y="527.7231">_PAYLOAD_ALLOWLIST is a closed</text><text fill="#000000" font-family="Roboto" font-size="13" lengthAdjust="spacing" textLength="224.6309" x="1622.5" y="542.856">per-event-type key set; values are</text><text fill="#000000" font-family="Roboto" font-size="13" lengthAdjust="spacing" textLength="217.3057" x="1622.5" y="557.9888">restricted to None/bool/int/float/a</text><text fill="#000000" font-family="Roboto" font-size="13" lengthAdjust="spacing" textLength="226.002" x="1622.5" y="573.1216">bounded (&lt;=200 char) string, or a</text><text fill="#000000" font-family="Roboto" font-size="13" lengthAdjust="spacing" textLength="219.0259" x="1622.5" y="588.2544">str-&gt;int count mapping. Free text</text><text fill="#000000" font-family="Roboto" font-size="13" lengthAdjust="spacing" textLength="197.1899" x="1622.5" y="603.3872">(story prose, a child's name, a</text><text fill="#000000" font-family="Roboto" font-size="13" lengthAdjust="spacing" textLength="213.1416" x="1622.5" y="618.52">send-back reason) is structurally</text><text fill="#000000" font-family="Roboto" font-size="13" lengthAdjust="spacing" textLength="236.4819" x="1622.5" y="633.6528">rejected, never merely discouraged.</text></g><g id="elem_GMN41"><path d="M1807.5,1074.5 L1807.5,1227.8281 A4,4 0 0 0 1811.5,1231.8281 L2090.397,1231.8281 A4,4 0 0 0 2094.397,1227.8281 L2094.397,1080.5 L2084.397,1070.5 L1909.73,1070.5 L1825.4,929.06 L1901.73,1070.5 L1811.5,1070.5 A4,4 0 0 0 1807.5,1074.5 " fill="#FEFFDD" style="stroke:#181818;stroke-width:0.5;"/><path d="M2084.397,1070.5 L2084.397,1078.5 A2,2 0 0 0 2086.397,1080.5 L2094.397,1080.5 L2084.397,1070.5 " fill="#FEFFDD" style="stroke:#181818;stroke-width:0.5;"/><text fill="#000000" font-family="Roboto" font-size="13" lengthAdjust="spacing" textLength="247.9331" x="1813.5" y="1087.5669">Bold arrows mark the three workflows</text><text fill="#000000" font-family="Roboto" font-size="13" lengthAdjust="spacing" textLength="216.7915" x="1813.5" y="1102.6997">this diagram was scoped to trace</text><text fill="#000000" font-family="Roboto" font-size="13" lengthAdjust="spacing" textLength="243.915" x="1813.5" y="1117.8325">(generation, moderation, publishing);</text><text fill="#000000" font-family="Roboto" font-size="13" lengthAdjust="spacing" textLength="194.3145" x="1813.5" y="1132.9653">the remaining call sites (story</text><text fill="#000000" font-family="Roboto" font-size="13" lengthAdjust="spacing" textLength="265.897" x="1813.5" y="1148.0981">requests, threshold admin, assignments,</text><text fill="#000000" font-family="Roboto" font-size="13" lengthAdjust="spacing" textLength="245.4321" x="1813.5" y="1163.231">ratings, and the WS-J admin surfaces:</text><text fill="#000000" font-family="Roboto" font-size="13" lengthAdjust="spacing" textLength="227.0366" x="1813.5" y="1178.3638">user management, families, family</text><text fill="#000000" font-family="Roboto" font-size="13" lengthAdjust="spacing" textLength="203.3662" x="1813.5" y="1193.4966">connections) are the complete,</text><text fill="#000000" font-family="Roboto" font-size="13" lengthAdjust="spacing" textLength="203.9121" x="1813.5" y="1208.6294">grep-verified set of every other</text><text fill="#000000" font-family="Roboto" font-size="13" lengthAdjust="spacing" textLength="235.3774" x="1813.5" y="1223.7622">record_event() site in the codebase.</text></g><!--link gen_worker to record_event--><g id="link_gen_worker_record_event"><path d="M83.09,86.22 C73.75,94.81 65.46,104.76 60,116 C47.97,140.79 42.32,156.86 60,178 C215.02,363.35 958.2837,409.0399 1277.9737,420.2399 " fill="none" id="gen_worker-to-record_event" style="stroke:#181818;stroke-width:2.0;"/><polygon fill="#181818" points="1283.97,420.45,1275.1156,416.1373,1278.9731,420.2749,1274.8355,424.1324,1283.97,420.45" style="stroke:#181818;stroke-width:2.0;"/><text fill="#000000" font-family="Roboto" font-size="13" lengthAdjust="spacing" textLength="152.6675" x="61" y="144.0669">GENERATION_STARTED</text><text fill="#000000" font-family="Roboto" font-size="13" lengthAdjust="spacing" textLength="99.3218" x="87.6729" y="159.1997">(job dequeued)</text></g><!--link gen_worker to record_event--><g id="link_gen_worker_record_event"><path d="M187.9,86.27 C197.85,95.89 208.39,106.24 218,116 C244.48,142.89 243.15,159.43 276,178 C603.41,363.07 1048.8373,408.9039 1277.5673,420.2039 " fill="none" id="gen_worker-to-record_event-1" style="stroke:#181818;stroke-width:2.0;"/><polygon fill="#181818" points="1283.56,420.5,1274.7683,416.0608,1278.5661,420.2533,1274.3736,424.051,1283.56,420.5" style="stroke:#181818;stroke-width:2.0;"/><text fill="#000000" font-family="Roboto" font-size="13" lengthAdjust="spacing" textLength="153.5054" x="289.105" y="136.5669">GENERATION_FINISHED</text><text fill="#000000" font-family="Roboto" font-size="13" lengthAdjust="spacing" textLength="177.7153" x="277" y="151.6997">(outcome, provider, model,</text><text fill="#000000" font-family="Roboto" font-size="13" lengthAdjust="spacing" textLength="106.7485" x="312.4834" y="166.8325">prompt_version)</text></g><!--link mod_pipeline to record_event--><g id="link_mod_pipeline_record_event"><path d="M483.62,86.01 C466.78,113.95 452.35,151.37 473,178 C571.77,305.4 1035.6848,377.6683 1277.8948,407.4283 " fill="none" id="mod_pipeline-to-record_event" style="stroke:#181818;stroke-width:2.0;"/><polygon fill="#181818" points="1283.85,408.16,1275.405,403.0923,1278.8873,407.5502,1274.4294,411.0326,1283.85,408.16" style="stroke:#181818;stroke-width:2.0;"/><text fill="#000000" font-family="Roboto" font-size="13" lengthAdjust="spacing" textLength="107.2183" x="510.8354" y="129.0669">REPAIR_APPLIED</text><text fill="#000000" font-family="Roboto" font-size="13" lengthAdjust="spacing" textLength="125.6392" x="501.625" y="144.1997">(if a soft-flag repair</text><text fill="#000000" font-family="Roboto" font-size="13" lengthAdjust="spacing" textLength="128.6416" x="500.1238" y="159.3325">is adopted, BEFORE</text><text fill="#000000" font-family="Roboto" font-size="13" lengthAdjust="spacing" textLength="180.8892" x="474" y="174.4653">MODERATION_COMPLETED)</text></g><!--link mod_pipeline to record_event--><g id="link_mod_pipeline_record_event"><path d="M615.87,86.02 C631.34,94.46 646.32,104.41 659,116 C682.52,137.49 670.3,157.86 695,178 C867.51,318.67 1118.1179,379.3265 1277.7379,405.2965 " fill="none" id="mod_pipeline-to-record_event-1" style="stroke:#181818;stroke-width:2.0;"/><polygon fill="#181818" points="1283.66,406.26,1275.4192,400.8666,1278.7249,405.4571,1274.1345,408.7628,1283.66,406.26" style="stroke:#181818;stroke-width:2.0;"/><text fill="#000000" font-family="Roboto" font-size="13" lengthAdjust="spacing" textLength="175.8174" x="696" y="136.5669">MODERATION_COMPLETED</text><text fill="#000000" font-family="Roboto" font-size="13" lengthAdjust="spacing" textLength="158.1836" x="704.8169" y="151.6997">(always; overall_verdict,</text><text fill="#000000" font-family="Roboto" font-size="13" lengthAdjust="spacing" textLength="161.8018" x="703.0078" y="166.8325">repaired, PII-free counts)</text></g><!--link pub_service to record_event--><g id="link_pub_service_record_event"><path d="M870.14,86.13 C876.4,114.5 888.65,152.41 912,178 C1011.23,286.77 1162.989,350.2535 1278.089,385.9335 " fill="none" id="pub_service-to-record_event" style="stroke:#181818;stroke-width:2.0;"/><polygon fill="#181818" points="1283.82,387.71,1276.4079,381.2245,1279.0442,386.2295,1274.0392,388.8658,1283.82,387.71" style="stroke:#181818;stroke-width:2.0;"/><text fill="#000000" font-family="Roboto" font-size="13" lengthAdjust="spacing" textLength="68.0723" x="953.9583" y="136.5669">RELEASED</text><text fill="#000000" font-family="Roboto" font-size="13" lengthAdjust="spacing" textLength="149.9888" x="913" y="151.6997">(approve -&gt; published;</text><text fill="#000000" font-family="Roboto" font-size="13" lengthAdjust="spacing" textLength="114.4673" x="930.7607" y="166.8325">visibility payload)</text></g><!--link pub_service to record_event--><g id="link_pub_service_record_event"><path d="M1002.09,85.73 C1030.6,95.53 1055.47,106.09 1067,116 C1090.52,136.21 1078.94,154.35 1099,178 C1157.93,247.49 1234.9829,305.5045 1302.5429,349.5245 " fill="none" id="pub_service-to-record_event-1" style="stroke:#181818;stroke-width:2.0;"/><polygon fill="#181818" points="1307.57,352.8,1302.2131,344.5354,1303.3808,350.0704,1297.8458,351.2382,1307.57,352.8" style="stroke:#181818;stroke-width:2.0;"/><text fill="#000000" font-family="Roboto" font-size="13" lengthAdjust="spacing" textLength="76.0449" x="1157.9351" y="136.5669">SENT_BACK</text><text fill="#000000" font-family="Roboto" font-size="13" lengthAdjust="spacing" textLength="191.915" x="1100" y="151.6997">(in_review -&gt; needs_revision;</text><text fill="#000000" font-family="Roboto" font-size="13" lengthAdjust="spacing" textLength="129.1494" x="1131.3828" y="166.8325">empty payload, D3)</text></g><!--link story_req to record_event--><g id="link_story_req_record_event"><path d="M1257.28,84.5 C1272.92,93.1 1287.8,103.5 1300,116 C1308.83,125.05 1363.3324,259.2988 1398.5624,347.4088 " fill="none" id="story_req-to-record_event" style="stroke:#181818;stroke-width:1.0;"/><polygon fill="#181818" points="1400.79,352.98,1401.1627,343.1382,1398.9337,348.3374,1393.7345,346.1083,1400.79,352.98" style="stroke:#181818;stroke-width:1.0;"/><text fill="#000000" font-family="Roboto" font-size="13" lengthAdjust="spacing" textLength="129.2827" x="1333.7861" y="136.5669">REQUEST_CREATED</text><text fill="#000000" font-family="Roboto" font-size="13" lengthAdjust="spacing" textLength="138.855" x="1329" y="151.6997">REQUEST_APPROVED</text><text fill="#000000" font-family="Roboto" font-size="13" lengthAdjust="spacing" textLength="134.2275" x="1331.3137" y="166.8325">REQUEST_DECLINED</text></g><!--link authoring_plan to record_event--><g id="link_authoring_plan_record_event"><path d="M1458.78,78.24 C1467.32,89.3 1475.57,102.42 1480,116 C1505.71,194.84 1484.506,283.816 1461.646,347.186 " fill="none" id="authoring_plan-to-record_event" style="stroke:#181818;stroke-width:1.0;"/><polygon fill="#181818" points="1459.61,352.83,1466.4267,345.7213,1461.3067,348.1267,1458.9013,343.0067,1459.61,352.83" style="stroke:#181818;stroke-width:1.0;"/><text fill="#000000" font-family="Roboto" font-size="13" lengthAdjust="spacing" textLength="107.4531" x="1511.7095" y="144.0669">PLAN_ASSIGNED</text><text fill="#000000" font-family="Roboto" font-size="13" lengthAdjust="spacing" textLength="146.8721" x="1492" y="159.1997">(job_status, plan_kind)</text></g><!--link mod_thresholds to record_event--><g id="link_mod_thresholds_record_event"><path d="M1729.46,86.27 C1708.73,113.82 1678.56,150.62 1647,178 C1628,194.48 1617.72,191.2 1599,208 C1551.4,250.71 1510.5081,302.9798 1479.0481,347.7798 " fill="none" id="mod_thresholds-to-record_event" style="stroke:#181818;stroke-width:1.0;"/><polygon fill="#181818" points="1475.6,352.69,1484.0457,347.6234,1478.4734,348.5981,1477.4987,343.0259,1475.6,352.69" style="stroke:#181818;stroke-width:1.0;"/><text fill="#000000" font-family="Roboto" font-size="13" lengthAdjust="spacing" textLength="152.7437" x="1711.2495" y="136.5669">THRESHOLD_CHANGED</text><text fill="#000000" font-family="Roboto" font-size="13" lengthAdjust="spacing" textLength="105.4473" x="1734.8977" y="151.6997">(upsert / delete)</text><text fill="#000000" font-family="Roboto" font-size="13" lengthAdjust="spacing" textLength="163.2427" x="1706" y="166.8325">NOISE_FLOOR_CHANGED</text></g><!--link assignments to record_event--><g id="link_assignments_record_event"><path d="M2052.83,78.2 C2012.13,109.1 1944.5,155.34 1878,178 C1759.95,218.22 1708.11,147.6 1599,208 C1539.82,240.76 1497.0904,298.2974 1468.0304,347.7374 " fill="none" id="assignments-to-record_event" style="stroke:#181818;stroke-width:1.0;"/><polygon fill="#181818" points="1464.99,352.91,1472.999,347.178,1467.5237,348.5995,1466.1022,343.1241,1464.99,352.91" style="stroke:#181818;stroke-width:1.0;"/><text fill="#000000" font-family="Roboto" font-size="13" lengthAdjust="spacing" textLength="111.6616" x="2000" y="144.0669">BOOK_ASSIGNED</text><text fill="#000000" font-family="Roboto" font-size="13" lengthAdjust="spacing" textLength="107.2183" x="2002.2217" y="159.1997">(child_profile_id)</text></g><!--link ratings to record_event--><g id="link_ratings_record_event"><path d="M2299.8,78.28 C2258.31,109.73 2188.72,156.86 2120,178 C2009.16,212.1 1701.82,154.37 1599,208 C1538.71,239.45 1495.8543,297.6106 1467.0543,347.6206 " fill="none" id="ratings-to-record_event" style="stroke:#181818;stroke-width:1.0;"/><polygon fill="#181818" points="1464.06,352.82,1472.0177,347.017,1466.5552,348.4871,1465.0851,343.0246,1464.06,352.82" style="stroke:#181818;stroke-width:1.0;"/><text fill="#000000" font-family="Roboto" font-size="13" lengthAdjust="spacing" textLength="44.0908" x="2281.2578" y="144.0669">RATED</text><text fill="#000000" font-family="Roboto" font-size="13" lengthAdjust="spacing" textLength="116.6064" x="2245" y="159.1997">(value, is_update)</text></g><!--link admin_users_ev to record_event--><g id="link_admin_users_ev_record_event"><path d="M2546.62,86.08 C2502.64,117.3 2435.74,159.07 2370,178 C2287.61,201.72 1675.38,169.06 1599,208 C1538.31,238.94 1495.4175,297.3309 1466.7175,347.5409 " fill="none" id="admin_users_ev-to-record_event" style="stroke:#181818;stroke-width:1.0;"/><polygon fill="#181818" points="1463.74,352.75,1471.679,346.9214,1466.2213,348.4091,1464.7335,342.9514,1463.74,352.75" style="stroke:#181818;stroke-width:1.0;"/><text fill="#000000" font-family="Roboto" font-size="13" lengthAdjust="spacing" textLength="108.5386" x="2509.6643" y="144.0669">USER_MANAGED</text><text fill="#000000" font-family="Roboto" font-size="13" lengthAdjust="spacing" textLength="127.8672" x="2500" y="159.1997">(invite / deactivate)</text></g><!--link families_ev to record_event--><g id="link_families_ev_record_event"><path d="M2844.87,78.1 C2796.24,109.88 2714.48,157.75 2636,178 C2524.39,206.81 1701.96,156.16 1599,208 C1538.05,238.69 1495.1173,297.2751 1466.4673,347.6251 " fill="none" id="families_ev-to-record_event" style="stroke:#181818;stroke-width:1.0;"/><polygon fill="#181818" points="1463.5,352.84,1471.4276,346.9959,1465.9728,348.4943,1464.4744,343.0395,1463.5,352.84" style="stroke:#181818;stroke-width:1.0;"/><text fill="#000000" font-family="Roboto" font-size="13" lengthAdjust="spacing" textLength="120.1294" x="2785.519" y="144.0669">FAMILY_MANAGED</text><text fill="#000000" font-family="Roboto" font-size="13" lengthAdjust="spacing" textLength="133.1675" x="2779" y="159.1997">(create / deactivate)</text></g><!--link family_conn_ev to record_event--><g id="link_family_conn_ev_record_event"><path d="M3123.44,78.19 C3076.5,110.06 2997.46,157.98 2921,178 C2778.86,215.21 1730.43,142.33 1599,208 C1537.85,238.55 1494.8602,297.3311 1466.2502,347.7711 " fill="none" id="family_conn_ev-to-record_event" style="stroke:#181818;stroke-width:1.0;"/><polygon fill="#181818" points="1463.29,352.99,1471.2096,347.1351,1465.7568,348.6409,1464.251,343.1881,1463.29,352.99" style="stroke:#181818;stroke-width:1.0;"/><text fill="#000000" font-family="Roboto" font-size="13" lengthAdjust="spacing" textLength="213.1543" x="3060" y="144.0669">FAMILY_CONNECTION_CHANGED</text><text fill="#000000" font-family="Roboto" font-size="13" lengthAdjust="spacing" textLength="105.2949" x="3113.9297" y="159.1997">(create / delete)</text></g><!--link record_event to event_type--><g id="link_record_event_event_type"><path d="M1358.16,497.01 C1288.79,566.54 1186.5475,669.0123 1107.7075,748.0423 " fill="none" id="record_event-to-event_type" style="stroke:#181818;stroke-width:1.0;"/><polygon fill="#181818" points="1103.47,752.29,1112.6581,748.7434,1107.0013,748.7502,1106.9945,743.0934,1103.47,752.29" style="stroke:#181818;stroke-width:1.0;"/><text fill="#000000" font-family="Roboto" font-size="13" lengthAdjust="spacing" textLength="114.9434" x="1184" y="700.0669">coerce + validate</text></g><!--link record_event to actor--><g id="link_record_event_actor"><path d="M1425.53,497.01 C1421.64,576.68 1415.6632,699.1772 1411.7632,778.8972 " fill="none" id="record_event-to-actor" style="stroke:#181818;stroke-width:1.0;"/><polygon fill="#181818" points="1411.47,784.89,1415.905,776.0962,1411.7143,779.896,1407.9145,775.7053,1411.47,784.89" style="stroke:#181818;stroke-width:1.0;"/><text fill="#000000" font-family="Roboto" font-size="13" lengthAdjust="spacing" textLength="125.0552" x="1418" y="700.0669">actor_id, actor_role</text></g><!--link record_event to pipeline_event_table--><g id="link_record_event_pipeline_event_table"><path d="M1483.65,497.22 C1516.57,539.67 1559.61,594.38 1599,642 C1639.01,690.36 1681.3334,739.1282 1717.7234,780.4282 " fill="none" id="record_event-to-pipeline_event_table" style="stroke:#181818;stroke-width:1.0;"/><polygon fill="#181818" points="1721.69,784.93,1718.7413,775.5329,1718.3845,781.1785,1712.7389,780.8217,1721.69,784.93" style="stroke:#181818;stroke-width:1.0;"/><text fill="#000000" font-family="Roboto" font-size="13" lengthAdjust="spacing" textLength="86.8677" x="1661" y="685.0669">session.add()</text><text fill="#000000" font-family="Roboto" font-size="13" lengthAdjust="spacing" textLength="46.4648" x="1681.2014" y="700.1997">+ flush</text><text fill="#000000" font-family="Roboto" font-size="13" lengthAdjust="spacing" textLength="79.606" x="1664.6309" y="715.3325">(no commit)</text></g><!--link pipeline_event_table to mod_dashboard--><g id="link_pipeline_event_table_mod_dashboard"><path d="M1707.49,929.2 C1689.83,948.62 1672.59,970.65 1660,993.5 C1639.5,1030.7 1629.5622,1072.5526 1624.0422,1105.4726 " fill="none" id="pipeline_event_table-to-mod_dashboard" style="stroke:#181818;stroke-width:1.0;"/><polygon fill="#181818" points="1623.05,1111.39,1628.4833,1103.1754,1623.8769,1106.4588,1620.5934,1101.8524,1623.05,1111.39" style="stroke:#181818;stroke-width:1.0;"/><text fill="#000000" font-family="Roboto" font-size="13" lengthAdjust="spacing" textLength="194.9492" x="1661" y="1006.5669">read THRESHOLD_CHANGED /</text><text fill="#000000" font-family="Roboto" font-size="13" lengthAdjust="spacing" textLength="163.2427" x="1676.8533" y="1021.6997">NOISE_FLOOR_CHANGED</text><text fill="#000000" font-family="Roboto" font-size="13" lengthAdjust="spacing" textLength="136.3096" x="1690.3198" y="1036.8325">(recent_changes list)</text></g><!--SRC=[hLbjanet4lxEh-ZQV5Ys38ljFLToR9mh5WQRX8KDu7EvGcfAp0YOx23DZJIxeQxklr-tDAymR4mINAvQXDJgDtK_ZtG9x__2ft49VRcBfE12mo1WcvZjkl0GH3mC10VdYSR7SaFplaoXvzD04lF69OxCPH9x7DP1o5KNlmEesEjuU-coR5w7qn-givC-3zLrjCT9JIDriOzu5zvystvYOS9XhcD79BjR8-OhFprFoxWBQgyqtpMle0FhMExSA0w45qGiR5wT9Mxm5WBnnEA02Pr91KPxmFVj7q38SuGbYiSG-2tWOYtHIpum3PuKIiU9fmCfhbvss7CSQ1wd3ekv9sFVDJyrhxgWjnoca_4NCBCWOdfxbgNkG-_BUDeRkBtnUFfvF9el8E9nsyXlQmpCES8U-HvO6ChdC52w1G-ZKNiTSqx6wXZT1uERivHZlgz0IsEaXu9vVAb0SQNGQS24VuwiTPYeBLVGReD0ws9KQhSBj0BwBv_5ERBG6A6OYLqBLCGzyBaN6Aq6Rqv5qrzLKfy-pUnqsSCrdTs3PgkGtyBW3ZS9DXiUdwDNcc0AM1HnuRUb2FSjp5Ruz33eBPpEMKV06JiBnnmZcsIp-ojpr07w60fGc6uAckJAFLIpaiwEz1Yv1_-qqKFBLqpn5cnY7hLnKR0Ek7zrgbPikE2naT1vbl5ZblxPf_d1cJYptc8qdRZpHM-sS0QjSumhVqgYXgF9QFxH6S3lRqz5aKAOAXQbmQkerhoV3Z9n_Udz0pdnp-isSnvwevdRUtWOZvp1APsYP8K7RXk8JGTBpLFWyGDlpJ2MlJdg0NDdid3lUlsVJibIMEFsRip_at25jUT87ihw-PCpNxZzcTFxQwPPEMZRRFhllq7GmEcFHvFJNZgmZ2LwAx4zRDmeP88CR3wCUnEtDv-FFhmWXaN1WQWZPrSSz9AS8fbSlOsvsihGpyGr5nzdplpZT3nm-nzxamycA_-qaoRJqTnnX-FfT9Q9UqanXYLs8tRKVghMaM9tq-bFN-KcCariZYLOD_sHSvY_2uHBpRD6XqzpP-RUzoQzr2_mUTx-yILfQxOBme3NAjCSzkv7uo_dozkxsDa4DusWNDPJUVtfPEBqRIaeGfY9Di87s7aG1t2smnhAC1kwNvSkFbFRbMInd-tQDEw2VDo8KtysNOvph_CtPXx4ybbPv_hIKnqwWC9KBpfNxJ1OSs_lXRmTSvzJ8hRD4TtvqAHcsuKBsoyr-rqAkTjVPCSYwy8Ast1xS6DSFK3a494B8MHx7jEsVmabDzHZ82A6u1YtMxCar4D4DnEsut0naokfvKLfoefvZvjO9iBlon3HupV37lqhpKX_ZB7VmNUbSI_3udEz3paak_1je-vd-6y3u0wxBu_JBTwP3uwIOkdOM_Df_A_HY50Zja5bZv4zDCbVLnUevN3udVC6HQEKOgUB7AqlnI6ONuf3_DvTYeDIsCbgVIUhrQsbg1JT5XmtzivIP7sv1RNTbJOgzybIcsj1tlkMuYYhMtNPYHCh5Gv5zEmkvQBJWchHm9zFdleBO0gCmrn2rEHUftztS-1SGs7g79kJ6eIk5WoLAW7kY_WkvpbBSS1x2ALYZujboFzb97nSB1vIC7sx5APgj3TC8okXGOJNckqYotNCglUNPixbKWpUvbI8I92T4lWGA9YW3SPAov7g3Qo2nDpIdDvGW9n3ChCKBcPLuAE6RiJseMG-qPugHrcA2lE0LuPwABRcO5FIstBlSIcQWvkhMyigNkM4G1g4kXHzP43Eh20OdHBAXoRYUcDWsGYoS_3k7yC6dIlKa172nOCbbKQKE_zvR5P46_Z6UJtyTjWpHxNaa0hwNmgYYDBpaXZBdikGFsKUnXWNyI0QgGEzDwcKVp6JYXHhMVgBiTJujvRfNqkHkX2QFywdapiCGa4qkcNMWBugQ4CT5R2cfGQuwSx4NJ9ZoIUNc71j-6m2hBfGW7gJnsiC5qreb5poePZosQJwKjHHWQNuHHbUcIvi5vEk8ooLlnhrSD2rIqn5kt5UDqf3xz__K8qczfNZweEE-4skiDGZrakGi5oS8I8hMoX39XgLnLX4iNmAyF2sm9nm2WcwDT8kKYBAEjpWq6t5OJ_fjljYIfPKIr5FLOvSLqmhkGu7tMmHHlIxuJlddutAO9tjrJACPWThOA3aMhVN8TlW_8W565Ai6CoN4HQT5jmvm-dCMOgwoexE-CCzwzRXpYnyPdjr2nBzYeM1tEi7daP_MoLewzBzH8ALgCRr1RCwwVg7OihSaYKCQHqXEt9yCQlaU1nqqpMOj3VEk-6xHdcitkssnP7P4IKO1wpFgNZkOvb_GbYqGlohzv1M03JsZyJcJPG2AP3kF0NycIGBpdrblbF6edYE2PnBRW5MsMDNMcoNSYR8CHvWdT6bob0XsBc3Ce2tIZJO6mU9XIYc2fcmq7GkSo5nUBrm6AmvAG6pL8ayNYT9BnRUEhfd8fMFmZU3lZFe8tZBHzhjkYXLm521ZZ9KL8nay0YzM0O86ME51uJ3HreV4LhRa2kZkQe7mtNwLe2PBOEcZIGAgnWkSX6BKXgTg4EBdD1Q9vxakhyOVF7hrzUbOZbMfZTtZlDjus2upfmZy8Sc9H66MaC7otl8DSTsM8C73u9GC6Dhrm5L_cMJ8FiAc31jr2fTcb84e3HMfsu5WgAgtZO8iHB6agxOiTqVE7vcgRPLgU3T5hBOh_dMsVVQ9BMfsJImgONGpaqYmbur1vfeB5ZMgP9upUZUiMdkkdTC8CCWsn27fBox1IMgV7GkUqRC9-BwgLUhvFzKZk3KTaID4r6fe1ER9qf905gN9yh1S9qBoYZVLBudmgAK8uG5dr9db9GVfYPQpSiN3QdQHg5ilAnDUQnEbIh5e2n0LlyLokoXNpYxfDRHVSMHWdR6aOx5y0jg7XEVgiRcYELvD1AOHWABDwL2HI9jKM9Bk84dERqklOAC2bmShx3C0oVdgBb4Ochcrs9NN9wY_sja2KHIKfvWyR1zCYXiEBgzUG6N3RARcQDoMBdBERiQ5ZS-MSHgBIEJgzExnCYG2jJSzTJMGNG1Ef4aUbk6g5m1SIro1dPm3aWYjXhakf8To7VcvUSHLRo1OVlcNMA8WpVs5Ij6R1KZD5RLvnvwcgcyk129hKJJFEVW78di1USVlUnKdcjmdh8FIdOn4xxvPWWIMCjmOOCkavGN1olKnyeZoPXBeRdJ8PNaXXC8mJpJSXUGmljhOn3oP5PzD6nQma2xbz1y5gWhj3QEiGxWprdslYTAZLpLlXwQKVorMMBlLs0nRhOOYIo_nZbEvc7zZ22cQvz6hrqtGbhg1YBGhakIoW-GRHtiK8lK5qHI7zs3BBBck5OzaOGX6Ne7_OzE_oTeaaiGZaI0MwEOFGWKYZGH9rbwVsKzSzFDK2BT6kJuUxNFdmZ9WfetIM8Cu8LISHydLDc_UNPKNDzQieypOx81qG0oMuzkDhGqDnITbPHX9n2wWq2UwGx3MIkwViCfpU_VlttzcX807KiB4NHIn6aEVct_WCiiJy3s5aK4sc58kcl-EsLBqw0nedVqo8MwKh_6z1MCM9-HGjoQ74MrGY7J8wDi21AYA7kZys_SCxJ8lb7ky91WDVS3XLl7s5JzwmQA0JfnwRbRIOtfHmUlxjoRky7GHvVGdIkg7Z-QT2Umn7DEGucdjwYERv_zuPdmhOS7olYE0aEIcWLCRvNok5MYILUtHXIUPhvZ0Ltg5k1SfKuoTbhGse8SjTcEtIg39JekALXfvGUr1dPq6-aZUptmi1tCNBsK40WcIVeokOkeCz5c5V90AKLkBV4DetdbfPFiEdpZB8Ne_m00]--></g></svg>