<svg xmlns="http://www.w3.org/2000/svg" xmlns:xlink="http://www.w3.org/1999/xlink" contentStyleType="text/css" height="1197px" preserveAspectRatio="none" style="width:2255px;height:1197px;background:#FAFAFA;" version="1.1" viewBox="0 0 2255 1197" width="2255px" zoomAndPan="magnify"><defs><style type="text/css">@import url('https://fonts.googleapis.com/css?family=Roboto:400,100,100italic,300,300italic,400italic,500,500italic,700,700italic,900,900italic');</style></defs><g><rect fill="#FAFAFA" height="1197" style="stroke:none;stroke-width:1.0;" width="2255" x="0" y="0"/><!--cluster Pipeline Event Log (WS-D)--><g id="cluster_Pipeline Event Log (WS-D)"><path d="M470.88,319 L634.2071,319 A6,6 0 0 1 638.2071,323 L645.2071,341.4063 L1125.88,341.4063 A4,4 0 0 1 1129.88,345.4063 L1129.88,961.5 A4,4 0 0 1 1125.88,965.5 L470.88,965.5 A4,4 0 0 1 466.88,961.5 L466.88,323 A4,4 0 0 1 470.88,319 " fill="#FFF8E1" style="stroke:#000000;stroke-width:1.5;"/><line style="stroke:#000000;stroke-width:1.5;" x1="466.88" x2="645.2071" y1="341.4063" y2="341.4063"/><text fill="#000000" font-family="Roboto" font-size="14" font-weight="bold" lengthAdjust="spacing" textLength="165.3271" x="470.88" y="333.9883">Pipeline Event Log (WS-D)</text></g><!--cluster pg--><g id="cluster_pg"><path d="M1153.88,748 C1153.88,738 1303.88,738 1303.88,738 C1303.88,738 1453.88,738 1453.88,748 L1453.88,939 C1453.88,949 1303.88,949 1303.88,949 C1303.88,949 1153.88,949 1153.88,939 L1153.88,748 " fill="#E0F7FA" style="stroke:#181818;stroke-width:1.0;"/><path d="M1153.88,748 C1153.88,758 1303.88,758 1303.88,758 C1303.88,758 1453.88,758 1453.88,748 " fill="none" style="stroke:#181818;stroke-width:1.0;"/><text fill="#000000" font-family="Roboto" font-size="14" font-weight="bold" lengthAdjust="spacing" textLength="75.4209" x="1266.1696" y="772.9883">PostgreSQL</text></g><!--entity event_type--><g id="elem_event_type"><rect fill="#FFECB3" height="177.6563" rx="4" ry="4" style="stroke:#555555;stroke-width:0.5;" width="360.1816" x="482.88" y="771.5"/><rect fill="#FFECB3" height="10" style="stroke:#555555;stroke-width:0.5;" width="15" x="823.0616" y="776.5"/><rect fill="#FFECB3" height="2" style="stroke:#555555;stroke-width:0.5;" width="4" x="821.0616" y="778.5"/><rect fill="#FFECB3" height="2" style="stroke:#555555;stroke-width:0.5;" width="4" x="821.0616" y="782.5"/><text fill="#222222" font-family="Roboto" font-size="14" lengthAdjust="spacing" textLength="64.7363" x="497.88" y="804.4883">EventType</text><text fill="#222222" font-family="Roboto" font-size="14" lengthAdjust="spacing" textLength="111.3301" x="497.88" y="820.8945">events/models.py</text><text fill="#222222" font-family="Roboto" font-size="14" lengthAdjust="spacing" textLength="112.7314" x="497.88" y="837.3008">14-value StrEnum:</text><text fill="#222222" font-family="Roboto" font-size="14" lengthAdjust="spacing" textLength="276.7188" x="497.88" y="853.707">REQUEST_CREATED/APPROVED/DECLINED,</text><text fill="#222222" font-family="Roboto" font-size="14" lengthAdjust="spacing" textLength="271.2637" x="497.88" y="870.1133">PLAN_ASSIGNED, GENERATION_STARTED/</text><text fill="#222222" font-family="Roboto" font-size="14" lengthAdjust="spacing" textLength="245.417" x="497.88" y="886.5195">FINISHED, MODERATION_COMPLETED,</text><text fill="#222222" font-family="Roboto" font-size="14" lengthAdjust="spacing" textLength="267.1484" x="497.88" y="902.9258">REPAIR_APPLIED, SENT_BACK, RELEASED,</text><text fill="#222222" font-family="Roboto" font-size="14" lengthAdjust="spacing" textLength="320.1816" x="497.88" y="919.332">THRESHOLD_CHANGED, NOISE_FLOOR_CHANGED,</text><text fill="#222222" font-family="Roboto" font-size="14" lengthAdjust="spacing" textLength="158.8057" x="497.88" y="935.7383">BOOK_ASSIGNED, RATED</text></g><!--entity actor--><g id="elem_actor"><rect fill="#FFECB3" height="128.4375" rx="4" ry="4" style="stroke:#555555;stroke-width:0.5;" width="235.0977" x="878.38" y="796.5"/><rect fill="#FFECB3" height="10" style="stroke:#555555;stroke-width:0.5;" width="15" x="1093.4777" y="801.5"/><rect fill="#FFECB3" height="2" style="stroke:#555555;stroke-width:0.5;" width="4" x="1091.4777" y="803.5"/><rect fill="#FFECB3" height="2" style="stroke:#555555;stroke-width:0.5;" width="4" x="1091.4777" y="807.5"/><text fill="#222222" font-family="Roboto" font-size="14" lengthAdjust="spacing" textLength="33.7695" x="893.38" y="829.4883">Actor</text><text fill="#222222" font-family="Roboto" font-size="14" lengthAdjust="spacing" textLength="111.3301" x="893.38" y="845.8945">events/models.py</text><text fill="#222222" font-family="Roboto" font-size="14" lengthAdjust="spacing" textLength="192.3906" x="893.38" y="862.3008">system() -- worker/moderation,</text><text fill="#222222" font-family="Roboto" font-size="14" lengthAdjust="spacing" textLength="72.543" x="893.38" y="878.707">no principal</text><text fill="#222222" font-family="Roboto" font-size="14" lengthAdjust="spacing" textLength="186.8125" x="893.38" y="895.1133">from_principal() -- HTTP caller</text><text fill="#222222" font-family="Roboto" font-size="14" lengthAdjust="spacing" textLength="195.0977" x="893.38" y="911.5195">D2: system &lt;-&gt; actor_id is None</text></g><!--entity record_event--><g id="elem_record_event"><rect fill="#FFD54F" height="144.8438" rx="4" ry="4" style="stroke:#555555;stroke-width:0.5;" width="257.7861" x="855.88" y="354"/><rect fill="#FFD54F" height="10" style="stroke:#555555;stroke-width:0.5;" width="15" x="1093.6661" y="359"/><rect fill="#FFD54F" height="2" style="stroke:#555555;stroke-width:0.5;" width="4" x="1091.6661" y="361"/><rect fill="#FFD54F" height="2" style="stroke:#555555;stroke-width:0.5;" width="4" x="1091.6661" y="365"/><text fill="#222222" font-family="Roboto" font-size="14" lengthAdjust="spacing" textLength="90.043" x="870.88" y="386.9883">record_event()</text><text fill="#222222" font-family="Roboto" font-size="14" lengthAdjust="spacing" textLength="100.5361" x="870.88" y="403.3945">events/writer.py</text><text fill="#222222" font-family="Roboto" font-size="14" lengthAdjust="spacing" textLength="130.7236" x="870.88" y="419.8008">THE ONLY write path</text><text fill="#222222" font-family="Roboto" font-size="14" lengthAdjust="spacing" textLength="215.0791" x="870.88" y="436.207">_validate_payload(): per-event-type</text><text fill="#222222" font-family="Roboto" font-size="14" lengthAdjust="spacing" textLength="215.2705" x="870.88" y="452.6133">key allowlist + PII-safe value check</text><text fill="#222222" font-family="Roboto" font-size="14" lengthAdjust="spacing" textLength="166.626" x="870.88" y="469.0195">(D3); adds + flushes on the</text><text fill="#222222" font-family="Roboto" font-size="14" lengthAdjust="spacing" textLength="217.7861" x="870.88" y="485.4258">CALLER's session/transaction (D1)</text></g><!--entity pipeline_event_table--><g id="elem_pipeline_event_table"><rect fill="#E0F7FA" height="144.8438" rx="4" ry="4" style="stroke:#555555;stroke-width:0.5;" width="266.6113" x="1170.38" y="788"/><rect fill="#E0F7FA" height="10" style="stroke:#555555;stroke-width:0.5;" width="15" x="1416.9913" y="793"/><rect fill="#E0F7FA" height="2" style="stroke:#555555;stroke-width:0.5;" width="4" x="1414.9913" y="795"/><rect fill="#E0F7FA" height="2" style="stroke:#555555;stroke-width:0.5;" width="4" x="1414.9913" y="799"/><text fill="#222222" font-family="Roboto" font-size="14" lengthAdjust="spacing" textLength="83.959" x="1185.38" y="820.9883">PipelineEvent</text><text fill="#222222" font-family="Roboto" font-size="14" lengthAdjust="spacing" textLength="150.0557" x="1185.38" y="837.3945">id, occurred_at, actor_id,</text><text fill="#222222" font-family="Roboto" font-size="14" lengthAdjust="spacing" textLength="196.4443" x="1185.38" y="853.8008">actor_role, entity_type, entity_id,</text><text fill="#222222" font-family="Roboto" font-size="14" lengthAdjust="spacing" textLength="199.876" x="1185.38" y="870.207">event_type, from_state, to_state,</text><text fill="#222222" font-family="Roboto" font-size="14" lengthAdjust="spacing" textLength="106.5176" x="1185.38" y="886.6133">payload (JSONB)</text><text fill="#222222" font-family="Roboto" font-size="14" lengthAdjust="spacing" textLength="144.8672" x="1185.38" y="903.0195">DB trigger: append-only</text><text fill="#222222" font-family="Roboto" font-size="14" lengthAdjust="spacing" textLength="226.6113" x="1185.38" y="919.4258">(no UPDATE/DELETE from the ORM)</text></g><!--entity gen_worker--><g id="elem_gen_worker"><rect fill="#FFF3E0" height="79.2188" rx="4" ry="4" style="stroke:#555555;stroke-width:0.5;" width="249.1934" x="10.38" y="7"/><rect fill="#FFF3E0" height="10" style="stroke:#555555;stroke-width:0.5;" width="15" x="239.5734" y="12"/><rect fill="#FFF3E0" height="2" style="stroke:#555555;stroke-width:0.5;" width="4" x="237.5734" y="14"/><rect fill="#FFF3E0" height="2" style="stroke:#555555;stroke-width:0.5;" width="4" x="237.5734" y="18"/><text fill="#222222" font-family="Roboto" font-size="14" lengthAdjust="spacing" textLength="116.0605" x="25.38" y="39.9883">Generation Worker</text><text fill="#222222" font-family="Roboto" font-size="14" lengthAdjust="spacing" textLength="132.9658" x="25.38" y="56.3945">generation/worker.py</text><text fill="#222222" font-family="Roboto" font-size="14" lengthAdjust="spacing" textLength="209.1934" x="25.38" y="72.8008">[see component-generation.puml]</text></g><!--entity mod_pipeline--><g id="elem_mod_pipeline"><rect fill="#E8F5E9" height="79.2188" rx="4" ry="4" style="stroke:#555555;stroke-width:0.5;" width="254.334" x="339.88" y="7"/><rect fill="#E8F5E9" height="10" style="stroke:#555555;stroke-width:0.5;" width="15" x="574.214" y="12"/><rect fill="#E8F5E9" height="2" style="stroke:#555555;stroke-width:0.5;" width="4" x="572.214" y="14"/><rect fill="#E8F5E9" height="2" style="stroke:#555555;stroke-width:0.5;" width="4" x="572.214" y="18"/><text fill="#222222" font-family="Roboto" font-size="14" lengthAdjust="spacing" textLength="124.5439" x="354.88" y="39.9883">Moderation Pipeline</text><text fill="#222222" font-family="Roboto" font-size="14" lengthAdjust="spacing" textLength="144.1084" x="354.88" y="56.3945">moderation/pipeline.py</text><text fill="#222222" font-family="Roboto" font-size="14" lengthAdjust="spacing" textLength="214.334" x="354.88" y="72.8008">[see component-moderation.puml]</text></g><!--entity pub_service--><g id="elem_pub_service"><rect fill="#F3E5F5" height="79.2188" rx="4" ry="4" style="stroke:#555555;stroke-width:0.5;" width="246.876" x="705.38" y="7"/><rect fill="#F3E5F5" height="10" style="stroke:#555555;stroke-width:0.5;" width="15" x="932.256" y="12"/><rect fill="#F3E5F5" height="2" style="stroke:#555555;stroke-width:0.5;" width="4" x="930.256" y="14"/><rect fill="#F3E5F5" height="2" style="stroke:#555555;stroke-width:0.5;" width="4" x="930.256" y="18"/><text fill="#222222" font-family="Roboto" font-size="14" lengthAdjust="spacing" textLength="114.0439" x="720.38" y="39.9883">Publishing Service</text><text fill="#222222" font-family="Roboto" font-size="14" lengthAdjust="spacing" textLength="132.4668" x="720.38" y="56.3945">publishing/service.py</text><text fill="#222222" font-family="Roboto" font-size="14" lengthAdjust="spacing" textLength="206.876" x="720.38" y="72.8008">[see component-publishing.puml]</text></g><!--entity story_req--><g id="elem_story_req"><rect fill="#DCEDC8" height="79.2188" rx="4" ry="4" style="stroke:#555555;stroke-width:0.5;" width="200.0566" x="999.88" y="7"/><rect fill="#DCEDC8" height="10" style="stroke:#555555;stroke-width:0.5;" width="15" x="1179.9366" y="12"/><rect fill="#DCEDC8" height="2" style="stroke:#555555;stroke-width:0.5;" width="4" x="1177.9366" y="14"/><rect fill="#DCEDC8" height="2" style="stroke:#555555;stroke-width:0.5;" width="4" x="1177.9366" y="18"/><text fill="#222222" font-family="Roboto" font-size="14" lengthAdjust="spacing" textLength="135.5635" x="1014.88" y="39.9883">Story Request Service</text><text fill="#222222" font-family="Roboto" font-size="14" lengthAdjust="spacing" textLength="160.0566" x="1014.88" y="56.3945">story_requests/service.py</text><text fill="#222222" font-family="Roboto" font-size="14" lengthAdjust="spacing" textLength="134.6064" x="1014.88" y="72.8008">api/story_requests.py</text></g><!--entity authoring_plan--><g id="elem_authoring_plan"><rect fill="#DCEDC8" height="62.8125" rx="4" ry="4" style="stroke:#555555;stroke-width:0.5;" width="248.0039" x="1234.88" y="15"/><rect fill="#DCEDC8" height="10" style="stroke:#555555;stroke-width:0.5;" width="15" x="1462.8839" y="20"/><rect fill="#DCEDC8" height="2" style="stroke:#555555;stroke-width:0.5;" width="4" x="1460.8839" y="22"/><rect fill="#DCEDC8" height="2" style="stroke:#555555;stroke-width:0.5;" width="4" x="1460.8839" y="26"/><text fill="#222222" font-family="Roboto" font-size="14" lengthAdjust="spacing" textLength="91.9229" x="1249.88" y="47.9883">Authoring Plan</text><text fill="#222222" font-family="Roboto" font-size="14" lengthAdjust="spacing" textLength="208.0039" x="1249.88" y="64.3945">story_requests/authoring_plan.py</text></g><!--entity mod_thresholds--><g id="elem_mod_thresholds"><rect fill="#E1BEE7" height="79.2188" rx="4" ry="4" style="stroke:#555555;stroke-width:0.5;" width="276.5166" x="1518.38" y="7"/><rect fill="#E1BEE7" height="10" style="stroke:#555555;stroke-width:0.5;" width="15" x="1774.8966" y="12"/><rect fill="#E1BEE7" height="2" style="stroke:#555555;stroke-width:0.5;" width="4" x="1772.8966" y="14"/><rect fill="#E1BEE7" height="2" style="stroke:#555555;stroke-width:0.5;" width="4" x="1772.8966" y="18"/><text fill="#222222" font-family="Roboto" font-size="14" lengthAdjust="spacing" textLength="144.7373" x="1533.38" y="39.9883">Moderation Thresholds</text><text fill="#222222" font-family="Roboto" font-size="14" lengthAdjust="spacing" textLength="236.5166" x="1533.38" y="56.3945">api/moderation_thresholds.py [admin]</text><text fill="#222222" font-family="Roboto" font-size="14" lengthAdjust="spacing" textLength="214.334" x="1533.38" y="72.8008">[see component-moderation.puml]</text></g><!--entity assignments--><g id="elem_assignments"><rect fill="#DCEDC8" height="62.8125" rx="4" ry="4" style="stroke:#555555;stroke-width:0.5;" width="258.2305" x="1830.88" y="15"/><rect fill="#DCEDC8" height="10" style="stroke:#555555;stroke-width:0.5;" width="15" x="2069.1105" y="20"/><rect fill="#DCEDC8" height="2" style="stroke:#555555;stroke-width:0.5;" width="4" x="2067.1105" y="22"/><rect fill="#DCEDC8" height="2" style="stroke:#555555;stroke-width:0.5;" width="4" x="2067.1105" y="26"/><text fill="#222222" font-family="Roboto" font-size="14" lengthAdjust="spacing" textLength="81.8193" x="1845.88" y="47.9883">Assignments</text><text fill="#222222" font-family="Roboto" font-size="14" lengthAdjust="spacing" textLength="218.2305" x="1845.88" y="64.3945">api/assignments.py [guardian-only]</text></g><!--entity ratings--><g id="elem_ratings"><rect fill="#DCEDC8" height="62.8125" rx="4" ry="4" style="stroke:#555555;stroke-width:0.5;" width="125.9961" x="2123.88" y="15"/><rect fill="#DCEDC8" height="10" style="stroke:#555555;stroke-width:0.5;" width="15" x="2229.8761" y="20"/><rect fill="#DCEDC8" height="2" style="stroke:#555555;stroke-width:0.5;" width="4" x="2227.8761" y="22"/><rect fill="#DCEDC8" height="2" style="stroke:#555555;stroke-width:0.5;" width="4" x="2227.8761" y="26"/><text fill="#222222" font-family="Roboto" font-size="14" lengthAdjust="spacing" textLength="47.0449" x="2138.88" y="47.9883">Ratings</text><text fill="#222222" font-family="Roboto" font-size="14" lengthAdjust="spacing" textLength="85.9961" x="2138.88" y="64.3945">api/ratings.py</text></g><!--entity mod_dashboard--><g id="elem_mod_dashboard"><rect fill="#E1BEE7" height="79.2188" rx="4" ry="4" style="stroke:#555555;stroke-width:0.5;" width="277.1592" x="1014.38" y="1085"/><rect fill="#E1BEE7" height="10" style="stroke:#555555;stroke-width:0.5;" width="15" x="1271.5392" y="1090"/><rect fill="#E1BEE7" height="2" style="stroke:#555555;stroke-width:0.5;" width="4" x="1269.5392" y="1092"/><rect fill="#E1BEE7" height="2" style="stroke:#555555;stroke-width:0.5;" width="4" x="1269.5392" y="1096"/><text fill="#222222" font-family="Roboto" font-size="14" lengthAdjust="spacing" textLength="142.8984" x="1029.38" y="1117.9883">Moderation Dashboard</text><text fill="#222222" font-family="Roboto" font-size="14" lengthAdjust="spacing" textLength="237.1592" x="1029.38" y="1134.3945">api/moderation_dashboard.py [admin]</text><text fill="#222222" font-family="Roboto" font-size="14" lengthAdjust="spacing" textLength="214.334" x="1029.38" y="1150.8008">[see component-moderation.puml]</text></g><g id="elem_GMN32"><path d="M1148.88,212 L1148.88,422.5 L1113.92,426.5 L1148.88,430.5 L1148.88,640.5625 A4,4 0 0 0 1152.88,644.5625 L1388.6764,644.5625 A4,4 0 0 0 1392.6764,640.5625 L1392.6764,218 L1382.6764,208 L1152.88,208 A4,4 0 0 0 1148.88,212 " fill="#FEFFDD" style="stroke:#181818;stroke-width:0.5;"/><path d="M1382.6764,208 L1382.6764,216 A2,2 0 0 0 1384.6764,218 L1392.6764,218 L1382.6764,208 " fill="#FEFFDD" style="stroke:#181818;stroke-width:0.5;"/><text fill="#000000" font-family="Roboto" font-size="13" lengthAdjust="spacing" textLength="173.6973" x="1154.88" y="225.0605">Spec decisions enforced here:</text><text fill="#000000" font-family="Roboto" font-size="13" lengthAdjust="spacing" textLength="3.2246" x="1154.88" y="240.2949">&#160;</text><text fill="#000000" font-family="Roboto" font-size="13" lengthAdjust="spacing" textLength="189.8774" x="1154.88" y="255.5293">D1: the row rides the caller's own</text><text fill="#000000" font-family="Roboto" font-size="13" lengthAdjust="spacing" textLength="188.665" x="1154.88" y="270.7637">transaction -- record_event never</text><text fill="#000000" font-family="Roboto" font-size="13" lengthAdjust="spacing" textLength="221.127" x="1154.88" y="285.998">opens or commits its own transaction,</text><text fill="#000000" font-family="Roboto" font-size="13" lengthAdjust="spacing" textLength="205.4102" x="1154.88" y="301.2324">so the event and the state change it</text><text fill="#000000" font-family="Roboto" font-size="13" lengthAdjust="spacing" textLength="171.2661" x="1154.88" y="316.4668">describes commit or roll back</text><text fill="#000000" font-family="Roboto" font-size="13" lengthAdjust="spacing" textLength="117.4316" x="1154.88" y="331.7012">together, atomically.</text><text fill="#000000" font-family="Roboto" font-size="13" lengthAdjust="spacing" textLength="3.2246" x="1154.88" y="346.9355">&#160;</text><text fill="#000000" font-family="Roboto" font-size="13" lengthAdjust="spacing" textLength="157.5044" x="1154.88" y="362.1699">D2: a system actor (worker,</text><text fill="#000000" font-family="Roboto" font-size="13" lengthAdjust="spacing" textLength="161.9985" x="1154.88" y="377.4043">moderation pipeline) carries</text><text fill="#000000" font-family="Roboto" font-size="13" lengthAdjust="spacing" textLength="158.8184" x="1154.88" y="392.6387">actor_id=None; a user actor</text><text fill="#000000" font-family="Roboto" font-size="13" lengthAdjust="spacing" textLength="190.6582" x="1154.88" y="407.873">(HTTP caller) always carries one.</text><text fill="#000000" font-family="Roboto" font-size="13" lengthAdjust="spacing" textLength="127.2007" x="1154.88" y="423.1074">Enforced twice: Actor.</text><text fill="#000000" font-family="Roboto" font-size="13" lengthAdjust="spacing" text-decoration="underline" textLength="49.2959" x="1282.0807" y="423.1074">post_init</text><text fill="#000000" font-family="Roboto" font-size="13" lengthAdjust="spacing" textLength="157.3584" x="1154.88" y="438.3418">(construction-time) and the</text><text fill="#000000" font-family="Roboto" font-size="13" lengthAdjust="spacing" textLength="212.0181" x="1154.88" y="453.5762">ck_pipeline_event_system_actor_null</text><text fill="#000000" font-family="Roboto" font-size="13" lengthAdjust="spacing" textLength="222.7964" x="1154.88" y="468.8105">DB CHECK (backstop for any non-ORM</text><text fill="#000000" font-family="Roboto" font-size="13" lengthAdjust="spacing" textLength="40.8408" x="1154.88" y="484.0449">writer).</text><text fill="#000000" font-family="Roboto" font-size="13" lengthAdjust="spacing" textLength="3.2246" x="1154.88" y="499.2793">&#160;</text><text fill="#000000" font-family="Roboto" font-size="13" lengthAdjust="spacing" textLength="197.1201" x="1154.88" y="514.5137">D3: payload is PII-free by contract.</text><text fill="#000000" font-family="Roboto" font-size="13" lengthAdjust="spacing" textLength="203.0806" x="1154.88" y="529.748">_PAYLOAD_ALLOWLIST is a closed</text><text fill="#000000" font-family="Roboto" font-size="13" lengthAdjust="spacing" textLength="190.7026" x="1154.88" y="544.9824">per-event-type key set; values are</text><text fill="#000000" font-family="Roboto" font-size="13" lengthAdjust="spacing" textLength="198.8149" x="1154.88" y="560.2168">restricted to None/bool/int/float/a</text><text fill="#000000" font-family="Roboto" font-size="13" lengthAdjust="spacing" textLength="191.2739" x="1154.88" y="575.4512">bounded (&lt;=200 char) string, or a</text><text fill="#000000" font-family="Roboto" font-size="13" lengthAdjust="spacing" textLength="187.4336" x="1154.88" y="590.6855">str-&gt;int count mapping. Free text</text><text fill="#000000" font-family="Roboto" font-size="13" lengthAdjust="spacing" textLength="170.6313" x="1154.88" y="605.9199">(story prose, a child's name, a</text><text fill="#000000" font-family="Roboto" font-size="13" lengthAdjust="spacing" textLength="187.9224" x="1154.88" y="621.1543">send-back reason) is structurally</text><text fill="#000000" font-family="Roboto" font-size="13" lengthAdjust="spacing" textLength="204.4072" x="1154.88" y="636.3887">rejected, never merely discouraged.</text></g><g id="elem_GMN35"><path d="M1326.88,1062.5 L1326.88,1186.375 A4,4 0 0 0 1330.88,1190.375 L1576.8453,1190.375 A4,4 0 0 0 1580.8453,1186.375 L1580.8453,1068.5 L1570.8453,1058.5 L1420.54,1058.5 L1344.87,933.09 L1412.54,1058.5 L1330.88,1058.5 A4,4 0 0 0 1326.88,1062.5 " fill="#FEFFDD" style="stroke:#181818;stroke-width:0.5;"/><path d="M1570.8453,1058.5 L1570.8453,1066.5 A2,2 0 0 0 1572.8453,1068.5 L1580.8453,1068.5 L1570.8453,1058.5 " fill="#FEFFDD" style="stroke:#181818;stroke-width:0.5;"/><text fill="#000000" font-family="Roboto" font-size="13" lengthAdjust="spacing" textLength="219.0322" x="1332.88" y="1075.5605">Bold arrows mark the three workflows</text><text fill="#000000" font-family="Roboto" font-size="13" lengthAdjust="spacing" textLength="192.2451" x="1332.88" y="1090.7949">this diagram was scoped to trace</text><text fill="#000000" font-family="Roboto" font-size="13" lengthAdjust="spacing" textLength="211.1611" x="1332.88" y="1106.0293">(generation, moderation, publishing);</text><text fill="#000000" font-family="Roboto" font-size="13" lengthAdjust="spacing" textLength="170.2632" x="1332.88" y="1121.2637">the remaining call sites (story</text><text fill="#000000" font-family="Roboto" font-size="13" lengthAdjust="spacing" textLength="232.9653" x="1332.88" y="1136.498">requests, threshold admin, assignments,</text><text fill="#000000" font-family="Roboto" font-size="13" lengthAdjust="spacing" textLength="223.0122" x="1332.88" y="1151.7324">ratings) are the complete, grep-verified</text><text fill="#000000" font-family="Roboto" font-size="13" lengthAdjust="spacing" textLength="211.3071" x="1332.88" y="1166.9668">set of every other record_event() site</text><text fill="#000000" font-family="Roboto" font-size="13" lengthAdjust="spacing" textLength="214.0239" x="1332.88" y="1182.2012">in the codebase, shown for accuracy.</text></g><!--link gen_worker to record_event--><g id="link_gen_worker_record_event"><path d="M49.4,86.14 C38.79,94.48 29.4,104.37 22.88,116 C9.41,140.04 6,156.22 22.88,178 C124.58,309.18 611.3227,382.3056 849.4927,410.8656 " fill="none" id="gen_worker-to-record_event" style="stroke:#181818;stroke-width:2.0;"/><polygon fill="#181818" points="855.45,411.58,846.9903,406.5369,850.4856,410.9847,846.0378,414.48,855.45,411.58" style="stroke:#181818;stroke-width:2.0;"/><text fill="#000000" font-family="Roboto" font-size="13" lengthAdjust="spacing" textLength="140.4165" x="23.88" y="144.0605">GENERATION_STARTED</text><text fill="#000000" font-family="Roboto" font-size="13" lengthAdjust="spacing" textLength="87.0898" x="50.5433" y="159.2949">(job dequeued)</text></g><!--link gen_worker to record_event--><g id="link_gen_worker_record_event"><path d="M153.67,86.05 C169.68,115.15 195.26,154.03 227.88,178 C419.51,318.84 689.4396,381.1759 849.8296,407.5659 " fill="none" id="gen_worker-to-record_event-1" style="stroke:#181818;stroke-width:2.0;"/><polygon fill="#181818" points="855.75,408.54,847.5188,403.1319,850.8163,407.7282,846.22,411.0257,855.75,408.54" style="stroke:#181818;stroke-width:2.0;"/><text fill="#000000" font-family="Roboto" font-size="13" lengthAdjust="spacing" textLength="141.2163" x="234.9357" y="136.5605">GENERATION_FINISHED</text><text fill="#000000" font-family="Roboto" font-size="13" lengthAdjust="spacing" textLength="153.3276" x="228.88" y="151.7949">(outcome, provider, model,</text><text fill="#000000" font-family="Roboto" font-size="13" lengthAdjust="spacing" textLength="94.5229" x="258.2823" y="167.0293">prompt_version)</text></g><!--link mod_pipeline to record_event--><g id="link_mod_pipeline_record_event"><path d="M419.13,86.36 C411.28,95.21 404.28,105.22 399.88,116 C389.48,141.52 384.66,155.03 399.88,178 C500.86,330.36 710.387,388.222 849.747,410.762 " fill="none" id="mod_pipeline-to-record_event" style="stroke:#181818;stroke-width:2.0;"/><polygon fill="#181818" points="855.67,411.72,847.4241,406.3343,850.7341,410.9217,846.1468,414.2317,855.67,411.72" style="stroke:#181818;stroke-width:2.0;"/><text fill="#000000" font-family="Roboto" font-size="13" lengthAdjust="spacing" textLength="100.8325" x="434.2782" y="129.0605">REPAIR_APPLIED</text><text fill="#000000" font-family="Roboto" font-size="13" lengthAdjust="spacing" textLength="110.6523" x="429.3683" y="144.2949">(if a soft-flag repair</text><text fill="#000000" font-family="Roboto" font-size="13" lengthAdjust="spacing" textLength="113.4897" x="427.9496" y="159.5293">is adopted, BEFORE</text><text fill="#000000" font-family="Roboto" font-size="13" lengthAdjust="spacing" textLength="167.6289" x="400.88" y="174.7637">MODERATION_COMPLETED)</text></g><!--link mod_pipeline to record_event--><g id="link_mod_pipeline_record_event"><path d="M531.13,86.03 C545.26,95.32 559.89,105.59 572.88,116 C603.54,140.57 605.76,152.78 635.88,178 C712.19,241.9 799.2586,303.3755 869.6486,350.6355 " fill="none" id="mod_pipeline-to-record_event-1" style="stroke:#181818;stroke-width:2.0;"/><polygon fill="#181818" points="874.63,353.98,869.3876,345.6423,870.4788,351.1929,864.9282,352.2842,874.63,353.98" style="stroke:#181818;stroke-width:2.0;"/><text fill="#000000" font-family="Roboto" font-size="13" lengthAdjust="spacing" textLength="163.103" x="636.88" y="136.5605">MODERATION_COMPLETED</text><text fill="#000000" font-family="Roboto" font-size="13" lengthAdjust="spacing" textLength="136.3286" x="650.2672" y="151.7949">(always; overall_verdict,</text><text fill="#000000" font-family="Roboto" font-size="13" lengthAdjust="spacing" textLength="142.0986" x="647.3822" y="167.0293">repaired, PII-free counts)</text></g><!--link pub_service to record_event--><g id="link_pub_service_record_event"><path d="M816.21,86.26 C809.56,112.64 804.54,148.06 813.88,178 C834.4,243.81 875.3884,302.9511 913.9884,349.2611 " fill="none" id="pub_service-to-record_event" style="stroke:#181818;stroke-width:2.0;"/><polygon fill="#181818" points="917.83,353.87,915.1402,344.3956,914.6287,350.0292,908.995,349.5177,917.83,353.87" style="stroke:#181818;stroke-width:2.0;"/><text fill="#000000" font-family="Roboto" font-size="13" lengthAdjust="spacing" textLength="61.9087" x="847.3768" y="136.5605">RELEASED</text><text fill="#000000" font-family="Roboto" font-size="13" lengthAdjust="spacing" textLength="126.9023" x="814.88" y="151.7949">(approve -&gt; published;</text><text fill="#000000" font-family="Roboto" font-size="13" lengthAdjust="spacing" textLength="99.7661" x="828.4481" y="167.0293">visibility payload)</text></g><!--link pub_service to record_event--><g id="link_pub_service_record_event"><path d="M916.51,86.17 C927.89,94.52 938.23,104.41 945.88,116 C992.63,186.86 997.0925,280.9898 993.2625,347.9698 " fill="none" id="pub_service-to-record_event-1" style="stroke:#181818;stroke-width:2.0;"/><polygon fill="#181818" points="992.92,353.96,997.4273,345.203,993.2054,348.9682,989.4403,344.7463,992.92,353.96" style="stroke:#181818;stroke-width:2.0;"/><text fill="#000000" font-family="Roboto" font-size="13" lengthAdjust="spacing" textLength="71.2017" x="1022.1576" y="136.5605">SENT_BACK</text><text fill="#000000" font-family="Roboto" font-size="13" lengthAdjust="spacing" textLength="163.7568" x="975.88" y="151.7949">(in_review -&gt; needs_revision;</text><text fill="#000000" font-family="Roboto" font-size="13" lengthAdjust="spacing" textLength="110.8682" x="1002.3243" y="167.0293">empty payload, D3)</text></g><!--link story_req to record_event--><g id="link_story_req_record_event"><path d="M1135.33,86.35 C1141.71,95.47 1147.43,105.59 1150.88,116 C1159.55,142.16 1158.9,151.64 1150.88,178 C1150.78,178.32 1085.4039,275.7482 1036.4239,348.7182 " fill="none" id="story_req-to-record_event" style="stroke:#181818;stroke-width:1.0;"/><polygon fill="#181818" points="1033.08,353.7,1041.4171,348.4566,1035.8666,349.5485,1034.7747,343.998,1033.08,353.7" style="stroke:#181818;stroke-width:1.0;"/><text fill="#000000" font-family="Roboto" font-size="13" lengthAdjust="spacing" textLength="117.5205" x="1163.8883" y="136.5605">REQUEST_CREATED</text><text fill="#000000" font-family="Roboto" font-size="13" lengthAdjust="spacing" textLength="127.5371" x="1158.88" y="151.7949">REQUEST_APPROVED</text><text fill="#000000" font-family="Roboto" font-size="13" lengthAdjust="spacing" textLength="121.6147" x="1161.8412" y="167.0293">REQUEST_DECLINED</text></g><!--link authoring_plan to record_event--><g id="link_authoring_plan_record_event"><path d="M1352.29,78.23 C1344.13,108.47 1327.17,153.56 1294.88,178 C1235.8,222.72 1192.85,167.38 1130.88,208 C1077.54,242.97 1041.4742,299.519 1017.3742,348.379 " fill="none" id="authoring_plan-to-record_event" style="stroke:#181818;stroke-width:1.0;"/><polygon fill="#181818" points="1014.72,353.76,1022.2886,347.4579,1016.9318,349.2758,1015.1139,343.919,1014.72,353.76" style="stroke:#181818;stroke-width:1.0;"/><text fill="#000000" font-family="Roboto" font-size="13" lengthAdjust="spacing" textLength="100.3247" x="1354.4415" y="144.0605">PLAN_ASSIGNED</text><text fill="#000000" font-family="Roboto" font-size="13" lengthAdjust="spacing" textLength="129.4478" x="1339.88" y="159.2949">(job_status, plan_kind)</text></g><!--link mod_thresholds to record_event--><g id="link_mod_thresholds_record_event"><path d="M1617.68,86 C1583.73,116.73 1531.73,157.85 1477.88,178 C1405.39,205.13 1197.55,168.68 1130.88,208 C1075.35,240.75 1039.1252,298.496 1015.5452,348.356 " fill="none" id="mod_thresholds-to-record_event" style="stroke:#181818;stroke-width:1.0;"/><polygon fill="#181818" points="1012.98,353.78,1020.4437,347.3541,1015.1176,349.26,1013.2117,343.9339,1012.98,353.78" style="stroke:#181818;stroke-width:1.0;"/><text fill="#000000" font-family="Roboto" font-size="13" lengthAdjust="spacing" textLength="140.0293" x="1586.3361" y="136.5605">THRESHOLD_CHANGED</text><text fill="#000000" font-family="Roboto" font-size="13" lengthAdjust="spacing" textLength="92.9424" x="1609.8795" y="151.7949">(upsert / delete)</text><text fill="#000000" font-family="Roboto" font-size="13" lengthAdjust="spacing" textLength="148.9414" x="1581.88" y="167.0293">NOISE_FLOOR_CHANGED</text></g><!--link assignments to record_event--><g id="link_assignments_record_event"><path d="M1921.5,78.1 C1879.45,109.65 1808.66,157.07 1738.88,178 C1609.31,216.86 1248.65,141.44 1130.88,208 C1074.46,239.89 1038.1368,298.228 1014.7868,348.518 " fill="none" id="assignments-to-record_event" style="stroke:#181818;stroke-width:1.0;"/><polygon fill="#181818" points="1012.26,353.96,1019.6782,347.4815,1014.3656,349.425,1012.4221,344.1125,1012.26,353.96" style="stroke:#181818;stroke-width:1.0;"/><text fill="#000000" font-family="Roboto" font-size="13" lengthAdjust="spacing" textLength="101.5117" x="1864.88" y="144.0605">BOOK_ASSIGNED</text><text fill="#000000" font-family="Roboto" font-size="13" lengthAdjust="spacing" textLength="95.6719" x="1867.7999" y="159.2949">(child_profile_id)</text></g><!--link ratings to record_event--><g id="link_ratings_record_event"><path d="M2150.34,78.29 C2110.24,109.99 2042.52,157.55 1974.88,178 C1885.06,205.16 1212.89,162.39 1130.88,208 C1074.14,239.56 1037.7935,298.1018 1014.5235,348.5418 " fill="none" id="ratings-to-record_event" style="stroke:#181818;stroke-width:1.0;"/><polygon fill="#181818" points="1012.01,353.99,1019.4123,347.4934,1014.1045,349.4499,1012.1481,344.1421,1012.01,353.99" style="stroke:#181818;stroke-width:1.0;"/><text fill="#000000" font-family="Roboto" font-size="13" lengthAdjust="spacing" textLength="40.168" x="2127.3456" y="144.0605">RATED</text><text fill="#000000" font-family="Roboto" font-size="13" lengthAdjust="spacing" textLength="101.0991" x="2096.88" y="159.2949">(value, is_update)</text></g><!--link record_event to event_type--><g id="link_record_event_event_type"><path d="M931.35,499.32 C875.64,574.06 791.9253,686.359 732.1053,766.629 " fill="none" id="record_event-to-event_type" style="stroke:#181818;stroke-width:1.0;"/><polygon fill="#181818" points="728.52,771.44,737.1053,766.6137,731.5078,767.4308,730.6906,761.8333,728.52,771.44" style="stroke:#181818;stroke-width:1.0;"/><text fill="#000000" font-family="Roboto" font-size="13" lengthAdjust="spacing" textLength="98.2808" x="800.88" y="703.0605">coerce + validate</text></g><!--link record_event to actor--><g id="link_record_event_actor"><path d="M986.71,499.32 C988.82,582.21 992.1075,711.2519 994.1175,790.3019 " fill="none" id="record_event-to-actor" style="stroke:#181818;stroke-width:1.0;"/><polygon fill="#181818" points="994.27,796.3,998.0399,787.2012,994.1429,791.3016,990.0425,787.4046,994.27,796.3" style="stroke:#181818;stroke-width:1.0;"/><text fill="#000000" font-family="Roboto" font-size="13" lengthAdjust="spacing" textLength="109.7764" x="993.88" y="703.0605">actor_id, actor_role</text></g><!--link record_event to pipeline_event_table--><g id="link_record_event_pipeline_event_table"><path d="M1030.68,499.11 C1058.71,542.06 1095.81,597.4 1130.88,645 C1166.78,693.73 1205.6169,742.0458 1239.5969,783.1458 " fill="none" id="record_event-to-pipeline_event_table" style="stroke:#181818;stroke-width:1.0;"/><polygon fill="#181818" points="1243.42,787.77,1240.7681,778.2849,1240.234,783.9165,1234.6025,783.3824,1243.42,787.77" style="stroke:#181818;stroke-width:1.0;"/><text fill="#000000" font-family="Roboto" font-size="13" lengthAdjust="spacing" textLength="78.9141" x="1187.88" y="688.0605">session.add()</text><text fill="#000000" font-family="Roboto" font-size="13" lengthAdjust="spacing" textLength="39.3174" x="1207.6783" y="703.2949">+ flush</text><text fill="#000000" font-family="Roboto" font-size="13" lengthAdjust="spacing" textLength="71.2271" x="1191.7235" y="718.5293">(no commit)</text></g><!--link pipeline_event_table to mod_dashboard--><g id="link_pipeline_event_table_mod_dashboard"><path d="M1223.21,933.03 C1209.88,947.95 1197.34,964.38 1187.88,981.5 C1170.07,1013.72 1162.0647,1049.0626 1157.7347,1078.7926 " fill="none" id="pipeline_event_table-to-mod_dashboard" style="stroke:#181818;stroke-width:1.0;"/><polygon fill="#181818" points="1156.87,1084.73,1162.1254,1076.4005,1157.5906,1079.7822,1154.2089,1075.2475,1156.87,1084.73" style="stroke:#181818;stroke-width:1.0;"/><text fill="#000000" font-family="Roboto" font-size="13" lengthAdjust="spacing" textLength="177.5439" x="1188.88" y="994.5605">read THRESHOLD_CHANGED /</text><text fill="#000000" font-family="Roboto" font-size="13" lengthAdjust="spacing" textLength="148.9414" x="1203.1813" y="1009.7949">NOISE_FLOOR_CHANGED</text><text fill="#000000" font-family="Roboto" font-size="13" lengthAdjust="spacing" textLength="120.8975" x="1217.2032" y="1025.0293">(recent_changes list)</text></g><!--SRC=[hLd_Zzgu4l-TlsAq_Q6WmjBkNdLzxFKa5aANLmfxmBsgAgV890Po6-nSxEmMFRt__StO-GhPNhUzL9KsnXxFV6OyynddERpzWQVn70Po7qd1XOPXmBOns_VWDeXu60WEpZsDJ-IMvdsQGT-dWIJcZUSuif19x77O125NFNm7KB7NzGxIPTcyBgS_L7SlVHwgy-Y0avf6wl8GyHwy-gbppyA4mqB7ZaZsLqRCDpvzJyku1-gWDDytMz25JIptRXG7mWiY5ZPRJn8tl810tBCuO49dKe7H7l1BvrSGyYd24iLZ2FmsSB6HY98FJ8CdXT9nukb0YjRN0Nk80ytZ5B2OUpBsNVDJizK3lUCmcqu-WPa54TEx9rdgtlO_JMRzeTkVJ6OV9-F54Y8UTupyZaR7F4NO7Jy02qFv40PAj-5sFEviOix9M1qZV32yV99opFSLQ6cCz50mZvyhK5mf10sOy9yYQnCcQiSLT3eWqBeObThl0ws0_ii7yHHPQ8nGpFYk3IhY7lZS2unMmrUFUTDVLqAVdcPskkpXciq_W6Rha5_1y1et2RPR7Zz5hpJ05B0euiBlI14UsXYjyFljiBzqkayw0ix4MJhc6DaWctzecQCEC41NWC9mKz0aA0zGZKewEz9Z10_-QRs7bg-PuctOnZpguA9W4t2_zLYks7B1OoEX-o3ZkopyiwVvpfawy_voF9kwYsL_ldI6xQSOLtvAeaRZwNXnumpXoyLZNYGNfef5gVCggZK_p8QPkC7imos1-FswpPtR_dZkzczl9sDd-9XEKRB60xSBnBQBgUO-yFWHMdFqPN-1Ui32cIxTw_xW_MEo5EQuWnlplnAkCFUSo4DPl_tkB9RkOExqVymqAmTjcy_-ymy86Zg3oNZwE4f7bh54xoIMXwqRXKoGWStRIN_gzXUByRklY65HS2Jg1EmAG5-JKmIJgtSnLpiP-fcuvl9cxYnkPfEXExZfJz-PgFnkaAQpyS9nHvFPR9w9-vfY35FiLkof_5Ij8yMkPxFttmGJcIQsfn8iJ2auPlqG4p2MGyxsc4eOWjBxDjHyfdPhoM8_swF9_3scd7pSY5FVYzgf2xh_e0CWbW_AukTBJtKf3eKvn1HUdJ3OSE_WXRmJSv-JFpecKlS-DAdczE3CbWtDlaWXzuUpB3goOgIm6dM6bstukEWCiO161264xC1ZslQ7o693tGKYOiWHSRiDIq8zmY8_PNiEPtEvbbgUbQQicNUtZMKY_84CaKGz6_NfNsb6-cECQH_UbCQzZ98kz27aaEp3YqRTp_3V1i0r5Y4UfrkyDW-EacBfs8Lv6lzhD2BKY6rHsLE22qt2gtM6Mev6RvnNA1gb53kTvQHr9OuvxKeSqzZUIXnbX6wMyhfPocglH2NtjE6qldLN8YjFRQWjChHHkLoKidqRyXAm4YTHtQwBJfnOEUWeWfG_0wR0MEqIEoICdC7rvH52XexNePCJTAHXjh2NZZDkYLmbv-mhSSpXQTNDSdcRai6L65xax9nukM7eRk13e62AgXXbBMslrxFAMtA5SyPDO3d7_7ebNFHmu3FDtOWTGibyOk9LshmI5J8CBmmRLcp3mOQ7j-FUtKeqXvUjAqjqN-GSLHhIj1839ENElE2ytHBnX2PIJMDWsGYoS_Zwfr63OXmrP4IwCCYbqaYy5hzDp8fe2y-SbwEVHtrpR4g0L0ZfIb3N8ZqlYJ45kGmfVOOmkih-6SkGKsUZ0tqm4P6_c4b5fBHjHwOqmjP6Kf_-jH8fXD3yzs8slKOd5DotLoQoY5N1PElOgJKjDS1DToOwdHbBc3p76Eh0H-DWrOE2PvfmtA2xQ4AZ1CcxOif74x4hKSTEL-ApCgrEkh1JJ3gFC6tzOTJ3GTSkCTdbqddPA0szVVjhrPkOuqyp0GBnfrnZsaNwaI27Fdk2Y2o5e0oPQ5GMVH75yZx0CzW6Sr399GXhf5rawHHrkC4nRCMPVHIs3yMKBAXMefuzdq1NJ2j1XuDkjWWz-cRqslbNep9OPtir9QBPmGOOABdHdKt8jZW_OW6w53C6ysMaEKRyjJEQpPsLgCko2CRVxbct3dTcuGCxg2kGY2ic1eBN3poDU5ibQEjIovnW9gg1lY3xZq9_MqnPMFwEBgth4Kw0BsQLWCT1Drs3GNlfl1wzRfJ7wc6tvORCZYZ0E61-JiLp_sebxf6Yh8CGCmMa6G2D_JknUK4ZHmfauFS1Vo39WdDVcNUAM1JFCO1poMt0B7iAfULPAOs7d6y1vXbToWoLdYy7A2DRwqI3RO8b9gAOCcJ2GbEXJ8zytF4UEsj1Ii0yLIBtrwDz62RUkWx4U2eVXMV3WJCS897AHpgTEYzLY4d1L3A6KenaL0LHBDVvh8c2MwIc9rgVz5Ys85T6SrMFXklqhP0acmPD6KaKPZ5Sv28lf31w90yjynxBWlXe-_NPT15_V7jUAfPZPdfrxJW_Duw6wymv8M9eKXAXgpLqCRs7N7CiXpNSxCW9HRDcxJhgtZvl4-o40YPC6RLAbwOK3YYDrQbReOEeghSBGio4iQHRNoptHy3FRVTdLIfQGKjPx6k-TVPU6wGsD9k6DhMHshb9HDohED1ZWUTPuA6ZerLPJl9AP1MbUPBJHVKBo2ZSsUaAonXnSivse20xDVDhEGSkJrdRER8x8fSflxCynju-5ZQSTC1VgQV3hBiz2UDAF_paA2wwvYo8QoqZawlJUyIaaSBLzCkryOiG88WaqTinP5CAY2CJ69XvEI3vsscGcqee84zTb6zQLN6TZccNzuZP3r_P2t5ih548DitLcsEwvQrStb8_KV6ckHd6EH9P9yu_kIIktFpYF6NlfkrY9dppPeWjMCjmOOCQSkN5mHhriV98CiPIQFfYKabkEHKFZ3Cjzm4fV3Wt1c5_mwhV7vgMwD7k9HQMEQg5riPnm1N-d4NlMsg5iCUm7oBCAFxQB3LIBR3S95kC3GW_npbEXh1-mEBJirzPpbqtmdR23KIWNPSabRzbT7ImHorIBAYvk7EFeiYQurhrH1A6PEWr36wSmNje4YHOHYB0hL7C0GGAHNgFasnRrhB8NFQowaxTNiwRreVyQmDPKFDvWvWUUA5KtCS9rQxDVC5GN5_P9WrdncG3Pd7iI3nDI4ZJMNRNKeRTGEWk4Z2ckmndhUaA0wSqVtbxyV8b1G02ImkHB937QGw-Tdx5PPRVmHx94P4j697kcd-XQ6cQAagqdExBKLVAinY-WX5RDrAe9oAWA5SePEXab7L1GjJoO7J-atk6pjhF7Niy9E41_43XrZ7RSl-yWMA0JbnwxjPIO_ZHmQixz-P-9VGH4hgtGjNZEnFkLEHupaKfyFGErV7j5qHu85xYuO4os95ZI5Ape5VjKXotI_IsTML4uMdcUnRGnLX1gbGAah7JaeqsvDKMJE9hbuiS7PUqoBJ8gUb7YNr4HVQ8eXc0JVufyxgZJnoa1Kuy-Ro12c2QCB5BVJFp3YMO_my0]--></g></svg>
