<svg xmlns="http://www.w3.org/2000/svg" xmlns:xlink="http://www.w3.org/1999/xlink" contentStyleType="text/css" height="1091px" preserveAspectRatio="none" style="width:2356px;height:1091px;background:#FAFAFA;" version="1.1" viewBox="0 0 2356 1091" width="2356px" zoomAndPan="magnify"><defs><style type="text/css">@import url('https://fonts.googleapis.com/css?family=Roboto:400,100,100italic,300,300italic,400italic,500,500italic,700,700italic,900,900italic');</style></defs><g><rect fill="#FAFAFA" height="1091" style="stroke:none;stroke-width:1.0;" width="2356" x="0" y="0"/><!--cluster Validator Gate--><g id="cluster_Validator Gate"><path d="M10,250.5 L122.5635,250.5 A6,6 0 0 1 126.5635,254.5 L133.5635,272.7969 L1969,272.7969 A4,4 0 0 1 1973,276.7969 L1973,1080 A4,4 0 0 1 1969,1084 L10,1084 A4,4 0 0 1 6,1080 L6,254.5 A4,4 0 0 1 10,250.5 " fill="#E8F5E9" style="stroke:#000000;stroke-width:1.5;"/><line style="stroke:#000000;stroke-width:1.5;" x1="6" x2="133.5635" y1="272.7969" y2="272.7969"/><text fill="#000000" font-family="Roboto" font-size="14" font-weight="bold" lengthAdjust="spacing" textLength="114.5635" x="10" y="265.4951">Validator Gate</text></g><!--cluster Layer 1: Graph Structure--><g id="cluster_Layer 1: Graph Structure"><path d="M568,529 L762.6904,529 A6,6 0 0 1 766.6904,533 L773.6904,551.2969 L920,551.2969 A4,4 0 0 1 924,555.2969 L924,834 A4,4 0 0 1 920,838 L568,838 A4,4 0 0 1 564,834 L564,533 A4,4 0 0 1 568,529 " fill="#DCEDC8" style="stroke:#000000;stroke-width:1.5;"/><line style="stroke:#000000;stroke-width:1.5;" x1="564" x2="773.6904" y1="551.2969" y2="551.2969"/><text fill="#000000" font-family="Roboto" font-size="14" font-weight="bold" lengthAdjust="spacing" textLength="196.6904" x="568" y="543.9951">Layer 1: Graph Structure</text></g><!--cluster Policy Layer: age/scale invariants (ADR-011)--><g id="cluster_Policy Layer: age/scale invariants (ADR-011)"><path d="M34,569.5 L382.8887,569.5 A6,6 0 0 1 386.8887,573.5 L393.8887,591.7969 L536,591.7969 A4,4 0 0 1 540,595.7969 L540,1056 A4,4 0 0 1 536,1060 L34,1060 A4,4 0 0 1 30,1056 L30,573.5 A4,4 0 0 1 34,569.5 " fill="#A5D6A7" style="stroke:#000000;stroke-width:1.5;"/><line style="stroke:#000000;stroke-width:1.5;" x1="30" x2="393.8887" y1="591.7969" y2="591.7969"/><text fill="#000000" font-family="Roboto" font-size="14" font-weight="bold" lengthAdjust="spacing" textLength="350.8887" x="34" y="584.4951">Policy Layer: age/scale invariants (ADR-011)</text></g><!--cluster Layer 2: State-Space Walk (Tier-2 only)--><g id="cluster_Layer 2: State-Space Walk (Tier-2 only)"><path d="M1607,569.5 L1915.7754,569.5 A6,6 0 0 1 1919.7754,573.5 L1926.7754,591.7969 L1945,591.7969 A4,4 0 0 1 1949,595.7969 L1949,1039.5 A4,4 0 0 1 1945,1043.5 L1607,1043.5 A4,4 0 0 1 1603,1039.5 L1603,573.5 A4,4 0 0 1 1607,569.5 " fill="#C8E6C9" style="stroke:#000000;stroke-width:1.5;"/><line style="stroke:#000000;stroke-width:1.5;" x1="1603" x2="1926.7754" y1="591.7969" y2="591.7969"/><text fill="#000000" font-family="Roboto" font-size="14" font-weight="bold" lengthAdjust="spacing" textLength="310.7754" x="1607" y="584.4951">Layer 2: State-Space Walk (Tier-2 only)</text></g><!--cluster Advisory Checks--><g id="cluster_Advisory Checks"><path d="M952,610.5 L1079.3154,610.5 A6,6 0 0 1 1083.3154,614.5 L1090.3154,632.7969 L1575,632.7969 A4,4 0 0 1 1579,636.7969 L1579,752.5 A4,4 0 0 1 1575,756.5 L952,756.5 A4,4 0 0 1 948,752.5 L948,614.5 A4,4 0 0 1 952,610.5 " fill="#B2DFDB" style="stroke:#000000;stroke-width:1.5;"/><line style="stroke:#000000;stroke-width:1.5;" x1="948" x2="1090.3154" y1="632.7969" y2="632.7969"/><text fill="#000000" font-family="Roboto" font-size="14" font-weight="bold" lengthAdjust="spacing" textLength="129.3154" x="952" y="625.4951">Advisory Checks</text></g><!--cluster Caller--><g id="cluster_Caller"><path d="M1240,6 L1283.7188,6 A6,6 0 0 1 1287.7188,10 L1294.7188,28.2969 L1882,28.2969 A4,4 0 0 1 1886,32.2969 L1886,132 A4,4 0 0 1 1882,136 L1240,136 A4,4 0 0 1 1236,132 L1236,10 A4,4 0 0 1 1240,6 " fill="#F3F3F3" style="stroke:#000000;stroke-width:1.5;"/><line style="stroke:#000000;stroke-width:1.5;" x1="1236" x2="1294.7188" y1="28.2969" y2="28.2969"/><text fill="#000000" font-family="Roboto" font-size="14" font-weight="bold" lengthAdjust="spacing" textLength="45.7188" x="1240" y="20.9951">Caller</text></g><!--entity gate--><g id="elem_gate"><rect fill="#A5D6A7" height="78.8906" rx="4" ry="4" style="stroke:#555555;stroke-width:0.5;" width="247.6279" x="1315" y="285.5"/><rect fill="#A5D6A7" height="10" style="stroke:#555555;stroke-width:0.5;" width="15" x="1542.6279" y="290.5"/><rect fill="#A5D6A7" height="2" style="stroke:#555555;stroke-width:0.5;" width="4" x="1540.6279" y="292.5"/><rect fill="#A5D6A7" height="2" style="stroke:#555555;stroke-width:0.5;" width="4" x="1540.6279" y="296.5"/><text fill="#222222" font-family="Roboto" font-size="14" lengthAdjust="spacing" textLength="75.2295" x="1330" y="318.4951">Gate Entry</text><text fill="#222222" font-family="Roboto" font-size="14" lengthAdjust="spacing" textLength="119.8271" x="1330" y="334.792">validator/gate.py</text><text fill="#222222" font-family="Roboto" font-size="14" lengthAdjust="spacing" textLength="207.6279" x="1330" y="351.0889">run_gate(data) -&gt; GateResult</text></g><!--entity report--><g id="elem_report"><rect fill="#E8F5E9" height="111.4844" rx="4" ry="4" style="stroke:#555555;stroke-width:0.5;" width="310.0742" x="967" y="924.5"/><rect fill="#E8F5E9" height="10" style="stroke:#555555;stroke-width:0.5;" width="15" x="1257.0742" y="929.5"/><rect fill="#E8F5E9" height="2" style="stroke:#555555;stroke-width:0.5;" width="4" x="1255.0742" y="931.5"/><rect fill="#E8F5E9" height="2" style="stroke:#555555;stroke-width:0.5;" width="4" x="1255.0742" y="935.5"/><text fill="#222222" font-family="Roboto" font-size="14" lengthAdjust="spacing" textLength="117.2568" x="982" y="957.4951">ValidationReport</text><text fill="#222222" font-family="Roboto" font-size="14" lengthAdjust="spacing" textLength="131.3252" x="982" y="973.792">validator/report.py</text><text fill="#222222" font-family="Roboto" font-size="14" lengthAdjust="spacing" textLength="243.5166" x="982" y="990.0889">ValidationFinding(rule_id, severity,</text><text fill="#222222" font-family="Roboto" font-size="14" lengthAdjust="spacing" textLength="270.0742" x="982" y="1006.3857">story_id, message, node_id, choice_id)</text><text fill="#222222" font-family="Roboto" font-size="14" lengthAdjust="spacing" textLength="198.7207" x="982" y="1022.6826">Severity: ERROR | WARNING</text></g><!--entity layer1--><g id="elem_layer1"><rect fill="#DCEDC8" height="258.1563" rx="4" ry="4" style="stroke:#555555;stroke-width:0.5;" width="329.4541" x="579.5" y="564"/><rect fill="#DCEDC8" height="10" style="stroke:#555555;stroke-width:0.5;" width="15" x="888.9541" y="569"/><rect fill="#DCEDC8" height="2" style="stroke:#555555;stroke-width:0.5;" width="4" x="886.9541" y="571"/><rect fill="#DCEDC8" height="2" style="stroke:#555555;stroke-width:0.5;" width="4" x="886.9541" y="575"/><text fill="#222222" font-family="Roboto" font-size="14" lengthAdjust="spacing" textLength="118.166" x="594.5" y="596.9951">validate_layer1()</text><text fill="#222222" font-family="Roboto" font-size="14" lengthAdjust="spacing" textLength="132.2891" x="594.5" y="613.292">validator/layer1.py</text><text fill="#222222" font-family="Roboto" font-size="14" lengthAdjust="spacing" textLength="289.4541" x="594.5" y="629.5889">L1-1: schema conformance (jsonschema)</text><text fill="#222222" font-family="Roboto" font-size="14" lengthAdjust="spacing" textLength="270.3545" x="594.5" y="645.8857">L1-2: id uniqueness, start_node exists,</text><text fill="#222222" font-family="Roboto" font-size="14" lengthAdjust="spacing" textLength="253.3877" x="603.4004" y="662.1826">choice targets resolve (no dangling)</text><text fill="#222222" font-family="Roboto" font-size="14" lengthAdjust="spacing" textLength="218.7295" x="594.5" y="678.4795">L1-3: all nodes reachable (BFS)</text><text fill="#222222" font-family="Roboto" font-size="14" lengthAdjust="spacing" textLength="241.2949" x="594.5" y="694.7764">L1-4: termination well-formedness</text><text fill="#222222" font-family="Roboto" font-size="14" lengthAdjust="spacing" textLength="260.2031" x="603.4004" y="711.0732">(endings childless; non-endings have</text><text fill="#222222" font-family="Roboto" font-size="14" lengthAdjust="spacing" textLength="216.46" x="603.4004" y="727.3701">choices + a path to an ending)</text><text fill="#222222" font-family="Roboto" font-size="14" lengthAdjust="spacing" textLength="229.8926" x="594.5" y="743.667">L1-5: trap loops (every cycle can</text><text fill="#222222" font-family="Roboto" font-size="14" lengthAdjust="spacing" textLength="119.3555" x="603.4004" y="759.9639">reach an ending)</text><text fill="#222222" font-family="Roboto" font-size="14" lengthAdjust="spacing" textLength="274.0732" x="594.5" y="776.2607">L1-6: variable/condition/effect whitelist</text><text fill="#222222" font-family="Roboto" font-size="14" lengthAdjust="spacing" textLength="274.1484" x="594.5" y="792.5576">L1-7: ending_count + node-count band</text><text fill="#222222" font-family="Roboto" font-size="14" lengthAdjust="spacing" textLength="144.9971" x="603.4004" y="808.8545">+ max branch depth</text></g><!--entity policy--><g id="elem_policy"><rect fill="#A5D6A7" height="176.6719" rx="4" ry="4" style="stroke:#555555;stroke-width:0.5;" width="477.999" x="46" y="604.5"/><rect fill="#A5D6A7" height="10" style="stroke:#555555;stroke-width:0.5;" width="15" x="503.999" y="609.5"/><rect fill="#A5D6A7" height="2" style="stroke:#555555;stroke-width:0.5;" width="4" x="501.999" y="611.5"/><rect fill="#A5D6A7" height="2" style="stroke:#555555;stroke-width:0.5;" width="4" x="501.999" y="615.5"/><text fill="#222222" font-family="Roboto" font-size="14" lengthAdjust="spacing" textLength="115.3496" x="61" y="637.4951">validate_policy()</text><text fill="#222222" font-family="Roboto" font-size="14" lengthAdjust="spacing" textLength="129.4727" x="61" y="653.792">validator/policy.py</text><text fill="#222222" font-family="Roboto" font-size="14" lengthAdjust="spacing" textLength="276.917" x="61" y="670.0889">PL-15: forbidden ending kinds per band</text><text fill="#222222" font-family="Roboto" font-size="14" lengthAdjust="spacing" textLength="258.0771" x="61" y="686.3857">PL-16: content-flag ceilings per band</text><text fill="#222222" font-family="Roboto" font-size="14" lengthAdjust="spacing" textLength="269.5547" x="61" y="702.6826">PL-17: ending/decision floors per band</text><text fill="#222222" font-family="Roboto" font-size="14" lengthAdjust="spacing" textLength="205.2285" x="61" y="718.9795">PL-18: choice-graph topology</text><text fill="#222222" font-family="Roboto" font-size="14" lengthAdjust="spacing" textLength="437.999" x="61" y="735.2764">PL-19: words-per-node cap (blocking) + story-mean (advisory)</text><text fill="#222222" font-family="Roboto" font-size="14" lengthAdjust="spacing" textLength="201.4004" x="61" y="751.5732">PL-20: fastest-finish arc floor</text><text fill="#222222" font-family="Roboto" font-size="14" lengthAdjust="spacing" textLength="211.7637" x="61" y="767.8701">PL-21: off-matrix cell rejection</text></g><!--entity band_profile--><g id="elem_band_profile"><rect fill="#A5D6A7" height="127.7813" rx="4" ry="4" style="stroke:#555555;stroke-width:0.5;" width="329.8506" x="120" y="916"/><rect fill="#A5D6A7" height="10" style="stroke:#555555;stroke-width:0.5;" width="15" x="429.8506" y="921"/><rect fill="#A5D6A7" height="2" style="stroke:#555555;stroke-width:0.5;" width="4" x="427.8506" y="923"/><rect fill="#A5D6A7" height="2" style="stroke:#555555;stroke-width:0.5;" width="4" x="427.8506" y="927"/><text fill="#222222" font-family="Roboto" font-size="14" lengthAdjust="spacing" textLength="108.377" x="135" y="948.9951">band_profile.py</text><text fill="#222222" font-family="Roboto" font-size="14" lengthAdjust="spacing" textLength="182.6563" x="135" y="965.292">BandProfile per age band:</text><text fill="#222222" font-family="Roboto" font-size="14" lengthAdjust="spacing" textLength="168.2051" x="135" y="981.5889">3-5 | 5-8 | 8-11 | 10-13 |</text><text fill="#222222" font-family="Roboto" font-size="14" lengthAdjust="spacing" textLength="83.8428" x="135" y="997.8857">13-16 | 16+</text><text fill="#222222" font-family="Roboto" font-size="14" lengthAdjust="spacing" textLength="258.9248" x="135" y="1014.1826">node/depth budget, content ceilings,</text><text fill="#222222" font-family="Roboto" font-size="14" lengthAdjust="spacing" textLength="289.8506" x="135" y="1030.4795">forbidden endings, ending/decision floors</text></g><!--entity layer2--><g id="elem_layer2"><rect fill="#C8E6C9" height="176.6719" rx="4" ry="4" style="stroke:#555555;stroke-width:0.5;" width="313.7178" x="1619" y="604.5"/><rect fill="#C8E6C9" height="10" style="stroke:#555555;stroke-width:0.5;" width="15" x="1912.7178" y="609.5"/><rect fill="#C8E6C9" height="2" style="stroke:#555555;stroke-width:0.5;" width="4" x="1910.7178" y="611.5"/><rect fill="#C8E6C9" height="2" style="stroke:#555555;stroke-width:0.5;" width="4" x="1910.7178" y="615.5"/><text fill="#222222" font-family="Roboto" font-size="14" lengthAdjust="spacing" textLength="118.166" x="1634" y="637.4951">validate_layer2()</text><text fill="#222222" font-family="Roboto" font-size="14" lengthAdjust="spacing" textLength="132.2891" x="1634" y="653.792">validator/layer2.py</text><text fill="#222222" font-family="Roboto" font-size="14" lengthAdjust="spacing" textLength="250.5234" x="1634" y="670.0889">L2-9: stateful dead-ends (reachable</text><text fill="#222222" font-family="Roboto" font-size="14" lengthAdjust="spacing" textLength="264.7559" x="1642.9004" y="686.3857">non-ending config, no visible choices)</text><text fill="#222222" font-family="Roboto" font-size="14" lengthAdjust="spacing" textLength="254.0098" x="1634" y="702.6826">L2-10: loop escape (an ending stays</text><text fill="#222222" font-family="Roboto" font-size="14" lengthAdjust="spacing" textLength="203.5811" x="1642.9004" y="718.9795">reachable from every config)</text><text fill="#222222" font-family="Roboto" font-size="14" lengthAdjust="spacing" textLength="273.7178" x="1634" y="735.2764">L2-11: dead branch (conditional choice</text><text fill="#222222" font-family="Roboto" font-size="14" lengthAdjust="spacing" textLength="94.8008" x="1642.9004" y="751.5732">never visible)</text><text fill="#222222" font-family="Roboto" font-size="14" lengthAdjust="spacing" textLength="253.7842" x="1634" y="767.8701">L2-12: walk-cap ceiling (complexity)</text></g><!--entity walk_comp--><g id="elem_walk_comp"><rect fill="#C8E6C9" height="95.1875" rx="4" ry="4" style="stroke:#555555;stroke-width:0.5;" width="224.5635" x="1663.5" y="932.5"/><rect fill="#C8E6C9" height="10" style="stroke:#555555;stroke-width:0.5;" width="15" x="1868.0635" y="937.5"/><rect fill="#C8E6C9" height="2" style="stroke:#555555;stroke-width:0.5;" width="4" x="1866.0635" y="939.5"/><rect fill="#C8E6C9" height="2" style="stroke:#555555;stroke-width:0.5;" width="4" x="1866.0635" y="943.5"/><text fill="#222222" font-family="Roboto" font-size="14" lengthAdjust="spacing" textLength="150.1104" x="1678.5" y="965.4951">walk_configurations()</text><text fill="#222222" font-family="Roboto" font-size="14" lengthAdjust="spacing" textLength="120.2852" x="1678.5" y="981.792">validator/walk.py</text><text fill="#222222" font-family="Roboto" font-size="14" lengthAdjust="spacing" textLength="184.5635" x="1678.5" y="998.0889">BFS over (node, var-state)</text><text fill="#222222" font-family="Roboto" font-size="14" lengthAdjust="spacing" textLength="179.9766" x="1678.5" y="1014.3857">configurations (cap 100k)</text></g><!--entity reading_level--><g id="elem_reading_level"><rect fill="#B2DFDB" height="95.1875" rx="4" ry="4" style="stroke:#555555;stroke-width:0.5;" width="315.6182" x="964" y="645.5"/><rect fill="#B2DFDB" height="10" style="stroke:#555555;stroke-width:0.5;" width="15" x="1259.6182" y="650.5"/><rect fill="#B2DFDB" height="2" style="stroke:#555555;stroke-width:0.5;" width="4" x="1257.6182" y="652.5"/><rect fill="#B2DFDB" height="2" style="stroke:#555555;stroke-width:0.5;" width="4" x="1257.6182" y="656.5"/><text fill="#222222" font-family="Roboto" font-size="14" lengthAdjust="spacing" textLength="152.6875" x="979" y="678.4951">check_reading_level()</text><text fill="#222222" font-family="Roboto" font-size="14" lengthAdjust="spacing" textLength="182.0342" x="979" y="694.792">validator/reading_level.py</text><text fill="#222222" font-family="Roboto" font-size="14" lengthAdjust="spacing" textLength="195.2002" x="979" y="711.0889">RL-13: Flesch-Kincaid grade</text><text fill="#222222" font-family="Roboto" font-size="14" lengthAdjust="spacing" textLength="275.6182" x="979" y="727.3857">(textstat, WARNING only, never blocks)</text></g><!--entity safety--><g id="elem_safety"><rect fill="#B2DFDB" height="95.1875" rx="4" ry="4" style="stroke:#555555;stroke-width:0.5;" width="247.416" x="1315.5" y="645.5"/><rect fill="#B2DFDB" height="10" style="stroke:#555555;stroke-width:0.5;" width="15" x="1542.916" y="650.5"/><rect fill="#B2DFDB" height="2" style="stroke:#555555;stroke-width:0.5;" width="4" x="1540.916" y="652.5"/><rect fill="#B2DFDB" height="2" style="stroke:#555555;stroke-width:0.5;" width="4" x="1540.916" y="656.5"/><text fill="#222222" font-family="Roboto" font-size="14" lengthAdjust="spacing" textLength="102.1016" x="1330.5" y="678.4951">check_safety()</text><text fill="#222222" font-family="Roboto" font-size="14" lengthAdjust="spacing" textLength="131.4482" x="1330.5" y="694.792">validator/safety.py</text><text fill="#222222" font-family="Roboto" font-size="14" lengthAdjust="spacing" textLength="168.6357" x="1330.5" y="711.0889">SAFE-14: content safety</text><text fill="#222222" font-family="Roboto" font-size="14" lengthAdjust="spacing" textLength="207.416" x="1330.5" y="727.3857">(Phase 2 stub, always empty)</text></g><!--entity orch_caller--><g id="elem_orch_caller"><rect fill="#FFF3E0" height="62.5938" rx="4" ry="4" style="stroke:#555555;stroke-width:0.5;" width="228.9111" x="1252.5" y="49"/><rect fill="#FFF3E0" height="10" style="stroke:#555555;stroke-width:0.5;" width="15" x="1461.4111" y="54"/><rect fill="#FFF3E0" height="2" style="stroke:#555555;stroke-width:0.5;" width="4" x="1459.4111" y="56"/><rect fill="#FFF3E0" height="2" style="stroke:#555555;stroke-width:0.5;" width="4" x="1459.4111" y="60"/><text fill="#222222" font-family="Roboto" font-size="14" lengthAdjust="spacing" textLength="171.4385" x="1267.5" y="81.9951">Generation Orchestrator</text><text fill="#222222" font-family="Roboto" font-size="14" lengthAdjust="spacing" textLength="188.9111" x="1267.5" y="98.292">generation/orchestrator.py</text></g><!--entity api_caller--><g id="elem_api_caller"><rect fill="#E8F5E9" height="78.8906" rx="4" ry="4" style="stroke:#555555;stroke-width:0.5;" width="353.2158" x="1516.5" y="41"/><rect fill="#E8F5E9" height="10" style="stroke:#555555;stroke-width:0.5;" width="15" x="1849.7158" y="46"/><rect fill="#E8F5E9" height="2" style="stroke:#555555;stroke-width:0.5;" width="4" x="1847.7158" y="48"/><rect fill="#E8F5E9" height="2" style="stroke:#555555;stroke-width:0.5;" width="4" x="1847.7158" y="52"/><text fill="#222222" font-family="Roboto" font-size="14" lengthAdjust="spacing" textLength="124.2637" x="1531.5" y="73.9951">Validate Endpoint</text><text fill="#222222" font-family="Roboto" font-size="14" lengthAdjust="spacing" textLength="123.833" x="1531.5" y="90.292">api/generation.py</text><text fill="#222222" font-family="Roboto" font-size="14" lengthAdjust="spacing" textLength="313.2158" x="1531.5" y="106.5889">POST /storybooks/{id}/versions/{v}/validate</text></g><!--entity storybook_model--><g id="elem_storybook_model"><rect fill="#E3F2FD" height="78.8906" rx="4" ry="4" style="stroke:#555555;stroke-width:0.5;" width="290.7012" x="1988.5" y="653.5"/><rect fill="#E3F2FD" height="10" style="stroke:#555555;stroke-width:0.5;" width="15" x="2259.2012" y="658.5"/><rect fill="#E3F2FD" height="2" style="stroke:#555555;stroke-width:0.5;" width="4" x="2257.2012" y="660.5"/><rect fill="#E3F2FD" height="2" style="stroke:#555555;stroke-width:0.5;" width="4" x="2257.2012" y="664.5"/><text fill="#222222" font-family="Roboto" font-size="14" lengthAdjust="spacing" textLength="117.5918" x="2003.5" y="686.4951">Storybook Model</text><text fill="#222222" font-family="Roboto" font-size="14" lengthAdjust="spacing" textLength="146.7402" x="2003.5" y="702.792">storybook/models.py</text><text fill="#222222" font-family="Roboto" font-size="14" lengthAdjust="spacing" textLength="250.7012" x="2003.5" y="719.0889">(Pydantic v2, parsed after L1 clean)</text></g><g id="elem_GMN38"><path d="M1989,218 L1989,321 L1563.04,325 L1989,329 L1989,431.8594 A4,4 0 0 0 1993,435.8594 L2345.2632,435.8594 A4,4 0 0 0 2349.2632,431.8594 L2349.2632,224 L2339.2632,214 L1993,214 A4,4 0 0 0 1989,218 " fill="#FEFFDD" style="stroke:#181818;stroke-width:0.5;"/><path d="M2339.2632,214 L2339.2632,222 A2,2 0 0 0 2341.2632,224 L2349.2632,224 L2339.2632,214 " fill="#FEFFDD" style="stroke:#181818;stroke-width:0.5;"/><text fill="#000000" font-family="Roboto" font-size="13" lengthAdjust="spacing" textLength="339.2632" x="1995" y="231.0669">Rule application order (gate.py, validator-rules.md):</text><text fill="#000000" font-family="Roboto" font-size="13" lengthAdjust="spacing" textLength="270.8926" x="1995" y="246.1997">1. L1 (always): graph structure + schema</text><text fill="#000000" font-family="Roboto" font-size="13" lengthAdjust="spacing" textLength="211.4404" x="1995" y="261.3325">2. Early return on any L1 ERROR</text><text fill="#000000" font-family="Roboto" font-size="13" lengthAdjust="spacing" textLength="288.8438" x="1995" y="276.4653">3. Policy (PL-15..PL-21): age/scale invariants</text><text fill="#000000" font-family="Roboto" font-size="13" lengthAdjust="spacing" textLength="275.8501" x="2007.397" y="291.5981">on the parsed Storybook (ADR-011 band x</text><text fill="#000000" font-family="Roboto" font-size="13" lengthAdjust="spacing" textLength="93.6406" x="2007.397" y="306.731">length x style)</text><text fill="#000000" font-family="Roboto" font-size="13" lengthAdjust="spacing" textLength="233.9556" x="1995" y="321.8638">4. L2 (Tier-2 only): state-space walk</text><text fill="#000000" font-family="Roboto" font-size="13" lengthAdjust="spacing" textLength="285.6572" x="1995" y="336.9966">5. RL-13: advisory reading-level (WARNING)</text><text fill="#000000" font-family="Roboto" font-size="13" lengthAdjust="spacing" textLength="287.4282" x="1995" y="352.1294">6. SAFE-14: safety stub (always empty now)</text><text fill="#000000" font-family="Roboto" font-size="13" lengthAdjust="spacing" textLength="4.1323" x="1995" y="367.2622">&#160;</text><text fill="#000000" font-family="Roboto" font-size="13" lengthAdjust="spacing" textLength="277.3926" x="1995" y="382.395">blocked = any ERROR with rule_id starting</text><text fill="#000000" font-family="Roboto" font-size="13" lengthAdjust="spacing" textLength="147.6592" x="2003.2646" y="397.5278">with "L1", "L2", or "PL"</text><text fill="#000000" font-family="Roboto" font-size="13" lengthAdjust="spacing" textLength="219.1973" x="1995" y="412.6606">safety_flagged = any finding with</text><text fill="#000000" font-family="Roboto" font-size="13" lengthAdjust="spacing" textLength="139.6357" x="2003.2646" y="427.7935">rule_id == "SAFE-14"</text></g><!--link orch_caller to gate--><g id="link_orch_caller_gate"><path d="M1253.13,112.09 C1215.75,128.47 1187.89,151.99 1206,184 C1232.38,230.62 1275.7471,260.8314 1321.8971,282.9014 " fill="none" id="orch_caller-to-gate" style="stroke:#181818;stroke-width:1.0;"/><polygon fill="#181818" points="1327.31,285.49,1320.9164,277.9986,1322.7993,283.3329,1317.465,285.2157,1327.31,285.49" style="stroke:#181818;stroke-width:1.0;"/><text fill="#000000" font-family="Roboto" font-size="13" lengthAdjust="spacing" textLength="188.0493" x="1207" y="172.5669">run_gate(decoded JSON dict)</text></g><!--link gate to orch_caller--><g id="link_gate_orch_caller"><path d="M1432.71,285.43 C1426.37,250.13 1415.35,196.75 1400,152 C1395.4,138.58 1391.6482,129.7038 1385.7182,117.5338 " fill="none" id="gate-to-orch_caller" style="stroke:#181818;stroke-width:1.0;"/><polygon fill="#181818" points="1383.09,112.14,1383.4364,121.9828,1385.2802,116.6348,1390.6281,118.4785,1383.09,112.14" style="stroke:#181818;stroke-width:1.0;"/><text fill="#000000" font-family="Roboto" font-size="13" lengthAdjust="spacing" textLength="71.8872" x="1479.5161" y="165.0669">GateResult</text><text fill="#000000" font-family="Roboto" font-size="13" lengthAdjust="spacing" textLength="212.9194" x="1409" y="180.1997">(report, blocked, safety_flagged)</text></g><!--link api_caller to gate--><g id="link_api_caller_gate"><path d="M1673.75,120.45 C1662.64,140.71 1647.41,165.11 1630,184 C1593.22,223.9 1548.6295,256.6238 1509.1795,282.1138 " fill="none" id="api_caller-to-gate" style="stroke:#181818;stroke-width:1.0;"/><polygon fill="#181818" points="1504.14,285.37,1513.8701,283.8454,1508.3396,282.6565,1509.5285,277.126,1504.14,285.37" style="stroke:#181818;stroke-width:1.0;"/><text fill="#000000" font-family="Roboto" font-size="13" lengthAdjust="spacing" textLength="114.4482" x="1655" y="172.5669">run_gate(sv.blob)</text></g><!--link gate to layer1--><g id="link_gate_layer1"><path d="M1314.89,363.03 C1212.44,396.42 1065.37,450.99 948,521 C926.87,533.61 910.4705,544.731 890.1905,560.201 " fill="none" id="gate-to-layer1" style="stroke:#181818;stroke-width:1.0;"/><polygon fill="#181818" points="885.42,563.84,895.0017,561.5618,889.3954,560.8075,890.1497,555.2011,885.42,563.84" style="stroke:#181818;stroke-width:1.0;"/><text fill="#000000" font-family="Roboto" font-size="13" lengthAdjust="spacing" textLength="85.3125" x="1065.8691" y="486.5669">raw mapping</text><text fill="#000000" font-family="Roboto" font-size="13" lengthAdjust="spacing" textLength="117.0508" x="1050" y="501.6997">[always runs first]</text></g><!--link gate to layer1--><g id="link_gate_layer1"><path d="M1314.73,328.4 C1190.25,336.77 998.98,366.53 869,466 C836.15,491.14 813.5441,522.2003 794.4741,558.4403 " fill="none" id="gate-to-layer1-1" style="stroke:#181818;stroke-width:1.0;stroke-dasharray:7.0,7.0;"/><polygon fill="#181818" points="791.68,563.75,799.4109,557.6481,794.0084,559.3252,792.3313,553.9227,791.68,563.75" style="stroke:#181818;stroke-width:1.0;"/><text fill="#000000" font-family="Roboto" font-size="13" lengthAdjust="spacing" textLength="73.4678" x="879.877" y="486.5669">early exit if</text><text fill="#000000" font-family="Roboto" font-size="13" lengthAdjust="spacing" textLength="93.2217" x="870" y="501.6997">any L1 ERROR</text></g><!--link layer1 to report--><g id="link_layer1_report"><path d="M908.7,818.18 C958.04,855.38 1004.8292,890.6578 1044.9092,920.8778 " fill="none" id="layer1-to-report" style="stroke:#181818;stroke-width:1.0;"/><polygon fill="#181818" points="1049.7,924.49,1044.9219,915.8778,1045.7077,921.4798,1040.1056,922.2655,1049.7,924.49" style="stroke:#181818;stroke-width:1.0;"/><text fill="#000000" font-family="Roboto" font-size="13" lengthAdjust="spacing" textLength="71.2017" x="989" y="874.5669">L1 findings</text></g><!--link gate to storybook_model--><g id="link_gate_storybook_model"><path d="M1563.04,358.93 C1670.26,390.68 1826.79,445.12 1949,521 C2008.45,557.91 2061.8035,611.0499 2096.5035,649.0399 " fill="none" id="gate-to-storybook_model" style="stroke:#181818;stroke-width:1.0;"/><polygon fill="#181818" points="2100.55,653.47,2097.4337,644.1272,2097.1779,649.7782,2091.5269,649.5225,2100.55,653.47" style="stroke:#181818;stroke-width:1.0;"/><text fill="#000000" font-family="Roboto" font-size="13" lengthAdjust="spacing" textLength="109.3193" x="1924" y="486.5669">model_validate()</text><text fill="#000000" font-family="Roboto" font-size="13" lengthAdjust="spacing" textLength="99.8677" x="1928.7258" y="501.6997">[after L1 clean]</text></g><!--link storybook_model to gate--><g id="link_storybook_model_gate"><path d="M2129.21,653.32 C2120.81,602.56 2098.57,514.24 2042,466 C2005.64,434.99 1734.5877,380.5833 1568.9377,349.5933 " fill="none" id="storybook_model-to-gate" style="stroke:#181818;stroke-width:1.0;"/><polygon fill="#181818" points="1563.04,348.49,1571.151,354.0768,1567.9547,349.4095,1572.6221,346.2132,1563.04,348.49" style="stroke:#181818;stroke-width:1.0;"/><text fill="#000000" font-family="Roboto" font-size="13" lengthAdjust="spacing" textLength="66.0283" x="2080" y="494.0669">Storybook</text></g><!--link gate to policy--><g id="link_gate_policy"><path d="M1314.7,335.78 C1139.6,353.45 813.81,400.79 564,521 C513.96,545.08 466.5459,572.5167 420.7559,601.1767 " fill="none" id="gate-to-policy" style="stroke:#181818;stroke-width:1.0;"/><polygon fill="#181818" points="415.67,604.36,425.4211,602.9757,419.9083,601.7073,421.1767,596.1944,415.67,604.36" style="stroke:#181818;stroke-width:1.0;"/><text fill="#000000" font-family="Roboto" font-size="13" lengthAdjust="spacing" textLength="66.0283" x="692.9197" y="486.5669">Storybook</text><text fill="#000000" font-family="Roboto" font-size="13" lengthAdjust="spacing" textLength="99.8677" x="676" y="501.6997">[after L1 clean]</text></g><!--link policy to band_profile--><g id="link_policy_band_profile"><path d="M195.73,781.53 C178.65,803.44 163.24,828.14 154,854 C145.65,877.39 150.7807,893.8965 167.6107,911.5565 " fill="none" id="policy-to-band_profile" style="stroke:#181818;stroke-width:1.0;"/><polygon fill="#181818" points="171.75,915.9,168.4366,906.6252,168.3005,912.2804,162.6453,912.1443,171.75,915.9" style="stroke:#181818;stroke-width:1.0;"/><text fill="#000000" font-family="Roboto" font-size="13" lengthAdjust="spacing" textLength="139.293" x="155" y="874.5669">profile_for(age_band)</text></g><!--link policy to report--><g id="link_policy_report"><path d="M428.49,781.6 C471.02,804.95 518.42,828.51 564,846 C695.91,896.62 847.1039,930.868 960.9439,952.338 " fill="none" id="policy-to-report" style="stroke:#181818;stroke-width:1.0;"/><polygon fill="#181818" points="966.84,953.45,958.7372,947.8513,961.9266,952.5233,957.2546,955.7127,966.84,953.45" style="stroke:#181818;stroke-width:1.0;"/><text fill="#000000" font-family="Roboto" font-size="13" lengthAdjust="spacing" textLength="70.77" x="668" y="874.5669">PL findings</text></g><!--link gate to layer2--><g id="link_gate_layer2"><path d="M1474.75,364.82 C1526.84,421.39 1620.9557,523.6162 1691.0757,599.7662 " fill="none" id="gate-to-layer2" style="stroke:#181818;stroke-width:1.0;"/><polygon fill="#181818" points="1695.14,604.18,1691.9861,594.8498,1691.7531,600.5018,1686.101,600.2688,1695.14,604.18" style="stroke:#181818;stroke-width:1.0;"/><text fill="#000000" font-family="Roboto" font-size="13" lengthAdjust="spacing" textLength="66.0283" x="1641.0522" y="479.0669">Storybook</text><text fill="#000000" font-family="Roboto" font-size="13" lengthAdjust="spacing" textLength="78.9395" x="1634.5967" y="494.1997">[Tier-2 only;</text><text fill="#000000" font-family="Roboto" font-size="13" lengthAdjust="spacing" textLength="132.1328" x="1608" y="509.3325">Tier-1 short-circuits]</text></g><!--link layer2 to walk_comp--><g id="link_layer2_walk_comp"><path d="M1776,781.83 C1776,831.56 1776,885.74 1776,926.44 " fill="none" id="layer2-to-walk_comp" style="stroke:#181818;stroke-width:1.0;"/><polygon fill="#181818" points="1776,932.44,1780,923.44,1776,927.44,1772,923.44,1776,932.44" style="stroke:#181818;stroke-width:1.0;"/><text fill="#000000" font-family="Roboto" font-size="13" lengthAdjust="spacing" textLength="153.6133" x="1777" y="874.5669">state-space exploration</text></g><!--link layer2 to report--><g id="link_layer2_report"><path d="M1676.7,781.68 C1646.78,804.96 1612.85,828.47 1579,846 C1484.07,895.16 1374.2164,927.251 1282.9864,948.301 " fill="none" id="layer2-to-report" style="stroke:#181818;stroke-width:1.0;"/><polygon fill="#181818" points="1277.14,949.65,1286.8089,951.5241,1282.012,948.5259,1285.0103,943.729,1277.14,949.65" style="stroke:#181818;stroke-width:1.0;"/><text fill="#000000" font-family="Roboto" font-size="13" lengthAdjust="spacing" textLength="71.2017" x="1557" y="874.5669">L2 findings</text></g><!--link gate to reading_level--><g id="link_gate_reading_level"><path d="M1405.38,364.82 C1346.66,432.62 1229.5982,567.7647 1166.3882,640.7447 " fill="none" id="gate-to-reading_level" style="stroke:#181818;stroke-width:1.0;"/><polygon fill="#181818" points="1162.46,645.28,1171.3758,641.0958,1165.7335,641.5005,1165.3287,635.8582,1162.46,645.28" style="stroke:#181818;stroke-width:1.0;"/><text fill="#000000" font-family="Roboto" font-size="13" lengthAdjust="spacing" textLength="66.0283" x="1309" y="494.0669">Storybook</text></g><!--link reading_level to report--><g id="link_reading_level_report"><path d="M1122,740.74 C1122,791.12 1122,865.21 1122,918.43 " fill="none" id="reading_level-to-report" style="stroke:#181818;stroke-width:1.0;"/><polygon fill="#181818" points="1122,924.43,1126,915.43,1122,919.43,1118,915.43,1122,924.43" style="stroke:#181818;stroke-width:1.0;"/><text fill="#000000" font-family="Roboto" font-size="13" lengthAdjust="spacing" textLength="105.7773" x="1123" y="867.0669">RL-13 WARNING</text><text fill="#000000" font-family="Roboto" font-size="13" lengthAdjust="spacing" textLength="92.8154" x="1129.481" y="882.1997">(never blocks)</text></g><!--link gate to safety--><g id="link_gate_safety"><path d="M1439,364.82 C1439,432.62 1439,566.3 1439,639.28 " fill="none" id="gate-to-safety" style="stroke:#181818;stroke-width:1.0;"/><polygon fill="#181818" points="1439,645.28,1443,636.28,1439,640.28,1435,636.28,1439,645.28" style="stroke:#181818;stroke-width:1.0;"/><text fill="#000000" font-family="Roboto" font-size="13" lengthAdjust="spacing" textLength="66.0283" x="1440" y="494.0669">Storybook</text></g><!--link safety to report--><g id="link_safety_report"><path d="M1399.64,740.56 C1372.39,771.72 1334.58,812.93 1298,846 C1267.6,873.48 1236.7057,897.6681 1205.4057,920.6581 " fill="none" id="safety-to-report" style="stroke:#181818;stroke-width:1.0;"/><polygon fill="#181818" points="1200.57,924.21,1210.1915,922.106,1204.5998,921.2501,1205.4557,915.6584,1200.57,924.21" style="stroke:#181818;stroke-width:1.0;"/><text fill="#000000" font-family="Roboto" font-size="13" lengthAdjust="spacing" textLength="54.0693" x="1335.8035" y="867.0669">SAFE-14</text><text fill="#000000" font-family="Roboto" font-size="13" lengthAdjust="spacing" textLength="155.6763" x="1285" y="882.1997">(stub empty in Phase 2)</text></g><!--SRC=[fLXjRzj64lwkNp5GFfH2HCcKOyTXaGCSsmhkpaqCgRZYK1s4DRcIM5DBtYvbHsZpt_lCxf8YLTyvTwLXlUpEsyxBCxFwZjx_YQVt7LqLsx9GKbLqdOcr5jkO_Y7oB1LLeUcZg2JJ_FCpNQQF8DffVCVAlDZfHD8gowM9yPt8w6ISx8kbgEd6ZxMOyHfYHkMUcYVGExNarQ5LCPDcbrU35-NaOYzrr98Kt4PXD1hXzIt1zd93UWUBNfPK5dcMxDkIxcx3w6mqmjia8h6MOvE8N98ZV5dWlL3fijG5UyIA3JvWvSujK2arooIc6bfP_-DZiY-MsSHq6fuDwIoy6D9564N_bxJe98nEXnITXj4vtivVVwFh9ntNJy9tSFqaZ2PaAaGnDAL8vCkYj1HffjRBN3xAd2K6irjh3uWpK-XlyBOHArbrmZU_dDw4qPiXtMs4aSGcxUvV5lGayeTkPhQEGhpxBUSf2rsrZV45b1LgPlU6DCqKdtb8SnnQPvK_OreaPbpcGYbi7aI6Dej7s_GP8f5g_WzFeYWqeDs7Db735KfNFXNw0MmKSAxG5ygbMbSRV33LFhUX-LDeqJCFcIe5D54gLm8rEorKzGcAgJyhxekgwBT8xaNoiDR5JgLNHGumUJMzvByMXT_K2kLnqLfFQaoQizcqs-QJtdFRz6kFw4EXKwczYZFxO9KDysiJ-_I-zde8wWENOR-BS7rwTNCnFRjv1tbWFOZlyoxTg4hl5-eFSBPGDOe5M1S32l_IGhC-2KEyIQykpwxFBz-owCQ0MoudYcBwQ55hNkbTmca5KwwlRgwlBkpHEhPu_NBfK30Oj4rga76X619ZCib6RWNurQhGMw6GpS4lfb1kVM399Z5bAUrKzk-TLDAO8TUnhfQgI2N9Bvcfp72XOCIcoC2FlRMi36bfYlmHybH1gL3h76df19x69FASc9_9HB8HzuXVy64wTmHlOggatcRA5WSzoJmFsJwPidxM5KXRA0PAipn55PZl8K-5zV96FCg3JOPUau1NaUDLGKAH8tFApg0CtgMyA4e3mIYyFINx11ObGh4GQ-8nstbCZq9dRFaOxaipDdKiLokPLFIqoIgPmpEMz6tiEPS9Chc2CNpqq7tX4cGbhsah0DuQCTYWRCfgOrF3HQmEDuBzjPCWTxRlaCsJkDMFCcMDKuX3S7azOnWOzEiK-oz9u_fODscQ9hXGjll5X5ZSPsagQuyGQYurjdsvup0T70I_L90VhdAnfaHckOrDbwnnpZYLIMOutYk4GX_JNSG-cA7hu5K1kugrD-fTJ02rr8HW2crY9WXfS9yNoGE73EvrABYLY6FGj13BFJd1aOIff86fcSeCWgqJPuOZGAKKgrMu5PL6XqsGZqYANn1fc6l3v7pKhk6EVu_Q_aBzfwuVBnGQD_t6dHkltBhnPXin_RPGjXNpmldhXU9ZZcscqFqkHSqDQuStlaPT7iSAvVkyl-qvseOsfpbEEeTAW8MvRO9psmH_GXEauCSC_fzGeV8zvzlLnStvrRkNG6ho34XD74XXU8ZTsB3QvIWBaNA98waRsE3QELI-HR8C3HIWWn1dZ2iU0mPMN8HOSwMJHA6K09sch5dDtZJrRY5ffOijUKImWhqGv0FRKfThq020oBqwQnPprcPuJdYDnuMGqzD7YTctPGuahTXfTT5FQlSTEu_vbywSdRO8QReEzDCAicmwfu9j23XNXWnOeNKcoBi2O0CCYavE7fm5NiUsR1dHJO9BNq9qjP790xBdrOV9zVJwmn-3dJ31iZFETUqzdlGMoavwCKq1xCac_7kc4e4MXC9FuTYWabygFiQGVhgSVVhhfuystuRUtxRcZJj6Ht9jOUzv0zsmsBMi6I0Noa-E3QYHsuCvxL4Iqsd-X3GYkIthQ3h2HhjtP4l_yHpOzOsV6XVgGER7n83dlsMMeY7xSH7rRc7EBcxH5H6geUqsTiMb9ZxYaFM46TFDRFPv1b3nplIEOxNrmDFhJ4LNQDvI8-3JK_wp0MyFGnWIN5RHPmtN6dJNYe5qtMoCYzO6pcPLyjeoiR8XUZezlJbvraqyQQLbaIduIPJP-23MjQZFynzfRBrmNnGFPlnhbduTuwmCTVZs-BKUeALL2n6DLdzQ7BQbTbwBeX_Wnznxc1V6MrumLcrmjyUGKsK9FKw6g19jP4fYXJ66RYF2C26KpuQQUscveVHqEfbUzp1qXs58CvcxYjnac4Qmqclx9SJiQ8V5cFg7gL8ca9JIt-QVFr6Q9TMWtskTwbaUypX2dTo3icVtcCYF6amcdZ2Db2LoRA5-zXaDNeERl3RLl_ezJyjiFbN0XeEkN6QQlXCx6hN5Ig7pFK-C5MKh14_jsJSs_Ve7CuuT14RxOLc7ZKlqvwvhOT4nM_lOJGXRQdp7Rky-9zQJCKUdDuBFVroYmmOeZ2Nl3peS1zVStHwxfl7uvDY6LW_zVg7ijuZC1fB29DF9BgjC7O695NC0QqXgNqpbbn9N6vjF7OPMo2RFsTM5pQu3ktjTQHQsQnn1JNG1kHLYXuXTmNwnAz6ZBcGnkZfKnN1RNzyx-TikbDXTojmT2zpQNx2jBP8HqsfRycIwbXosdYeWHsVhJOLPpwOEu6S6X0L4b0YfWpHxYwJ0t-sufHvVnWSn-A8H9r7WIcSG-r-TJ7r_ut7Kth10EXdHZIqCBR453OhQbG6Aqn7vER_pyzFW-O7VTZUMKcra3KG73Ajl0-Ik_exu-FvFz0RsJxhZN4p7ltc0xcn4lbVN8tMTFA5BaC1d0miz7r7JHNsqRLI3Tiz4jteQS8FqeQBtrXskIJrbbVlj3ZtCtKAXoPx1xW21-aDEQhpYqewgwsEp6selpsUzvRC2QgdltpTPr-zXCYJEYzxl]--></g></svg>