<?plantuml 1.2026.2?><svg xmlns="http://www.w3.org/2000/svg" xmlns:xlink="http://www.w3.org/1999/xlink" contentStyleType="text/css" data-diagram-type="DESCRIPTION" height="1083px" preserveAspectRatio="none" style="width:1961px;height:1083px;background:#FAFAFA;" version="1.1" viewBox="0 0 1961 1083" width="1961px" zoomAndPan="magnify"><defs/><g><rect fill="#FAFAFA" height="1083" style="stroke:none;stroke-width:1;" width="1961" x="0" y="0"/><!--cluster devices--><g class="cluster" data-qualified-name="devices" data-source-line="21" id="ent0002"><polygon fill="#E3F2FD" points="225.9218,16,235.9218,6,452.9218,6,452.9218,163.19,442.9218,173.19,225.9218,173.19,225.9218,16" style="stroke:#181818;stroke-width:1;"/><line style="stroke:#181818;stroke-width:1;" x1="442.9218" x2="452.9218" y1="16" y2="6"/><line style="stroke:#181818;stroke-width:1;" x1="225.9218" x2="442.9218" y1="16" y2="16"/><line style="stroke:#181818;stroke-width:1;" x1="442.9218" x2="442.9218" y1="16" y2="173.19"/><text fill="#000000" font-family="'Roboto'" font-size="14" font-weight="bold" lengthAdjust="spacing" textLength="118.3643" x="276.2396" y="31.9951">Family Devices</text><text fill="#000000" font-family="'Roboto'" font-size="14" font-weight="bold" lengthAdjust="spacing" textLength="151.0127" x="259.9154" y="48.292">[browsers, tablets]</text></g><!--cluster homelab--><g class="cluster" data-qualified-name="homelab" data-source-line="28" id="ent0006"><polygon fill="#E8F5E9" points="497.9218,232.19,507.9218,222.19,1638.9218,222.19,1638.9218,1056.26,1628.9218,1066.26,497.9218,1066.26,497.9218,232.19" style="stroke:#181818;stroke-width:1;"/><line style="stroke:#181818;stroke-width:1;" x1="1628.9218" x2="1638.9218" y1="232.19" y2="222.19"/><line style="stroke:#181818;stroke-width:1;" x1="497.9218" x2="1628.9218" y1="232.19" y2="232.19"/><line style="stroke:#181818;stroke-width:1;" x1="1628.9218" x2="1628.9218" y1="232.19" y2="1066.26"/><text fill="#000000" font-family="'Roboto'" font-size="14" font-weight="bold" lengthAdjust="spacing" textLength="126.5674" x="1001.1381" y="248.1851">Homelab Server</text><text fill="#000000" font-family="'Roboto'" font-size="14" font-weight="bold" lengthAdjust="spacing" textLength="147.8887" x="990.4774" y="264.482">[Docker + Dockge]</text><text fill="#000000" font-family="'Roboto'" font-size="14" font-weight="bold" lengthAdjust="spacing" textLength="81.0674" x="1023.8881" y="280.7789">(ADR-004)</text></g><!--cluster pangolin--><g class="cluster" data-qualified-name="homelab.pangolin" data-source-line="30" id="ent0007"><polygon fill="#CCEECC" points="525.9218,312.19,535.9218,302.19,831.9218,302.19,831.9218,442.78,821.9218,452.78,525.9218,452.78,525.9218,312.19" style="stroke:#181818;stroke-width:1;"/><line style="stroke:#181818;stroke-width:1;" x1="821.9218" x2="831.9218" y1="312.19" y2="302.19"/><line style="stroke:#181818;stroke-width:1;" x1="525.9218" x2="821.9218" y1="312.19" y2="312.19"/><line style="stroke:#181818;stroke-width:1;" x1="821.9218" x2="821.9218" y1="312.19" y2="452.78"/><text fill="#000000" font-family="'Roboto'" font-size="14" font-weight="bold" lengthAdjust="spacing" textLength="68.8789" x="640.4823" y="328.1851">Pangolin</text><text fill="#000000" font-family="'Roboto'" font-size="14" font-weight="bold" lengthAdjust="spacing" textLength="201.168" x="574.3378" y="344.482">[Zero-trust reverse proxy</text><text fill="#000000" font-family="'Roboto'" font-size="14" font-weight="bold" lengthAdjust="spacing" textLength="230.2617" x="559.7909" y="360.7789">Tailscale / Cloudflare Tunnel]</text></g><!--cluster backend_container--><g class="cluster" data-qualified-name="homelab.backend_container" data-source-line="34" id="ent0009"><polygon fill="#B2DFDB" points="521.9218,559.88,531.9218,549.88,981.9218,549.88,981.9218,723.07,971.9218,733.07,521.9218,733.07,521.9218,559.88" style="stroke:#181818;stroke-width:1;"/><line style="stroke:#181818;stroke-width:1;" x1="971.9218" x2="981.9218" y1="559.88" y2="549.88"/><line style="stroke:#181818;stroke-width:1;" x1="521.9218" x2="971.9218" y1="559.88" y2="559.88"/><line style="stroke:#181818;stroke-width:1;" x1="971.9218" x2="971.9218" y1="559.88" y2="733.07"/><text fill="#000000" font-family="'Roboto'" font-size="14" font-weight="bold" lengthAdjust="spacing" textLength="99.415" x="698.2143" y="575.8751">cyo-backend</text><text fill="#000000" font-family="'Roboto'" font-size="14" font-weight="bold" lengthAdjust="spacing" textLength="141.709" x="677.0673" y="592.172">[Docker container</text><text fill="#000000" font-family="'Roboto'" font-size="14" font-weight="bold" lengthAdjust="spacing" textLength="156.8711" x="669.4862" y="608.4689">cyo-backend:latest]</text></g><!--cluster worker_container--><g class="cluster" data-qualified-name="homelab.worker_container" data-source-line="39" id="ent0012"><polygon fill="#FFF3E0" points="1056.9218,551.88,1066.9218,541.88,1314.9218,541.88,1314.9218,731.07,1304.9218,741.07,1056.9218,741.07,1056.9218,551.88" style="stroke:#181818;stroke-width:1;"/><line style="stroke:#181818;stroke-width:1;" x1="1304.9218" x2="1314.9218" y1="551.88" y2="541.88"/><line style="stroke:#181818;stroke-width:1;" x1="1056.9218" x2="1304.9218" y1="551.88" y2="551.88"/><line style="stroke:#181818;stroke-width:1;" x1="1304.9218" x2="1304.9218" y1="551.88" y2="741.07"/><text fill="#000000" font-family="'Roboto'" font-size="14" font-weight="bold" lengthAdjust="spacing" textLength="88.0195" x="1137.912" y="567.8751">cyo-worker</text><text fill="#000000" font-family="'Roboto'" font-size="14" font-weight="bold" lengthAdjust="spacing" textLength="141.709" x="1111.0673" y="584.172">[Docker container</text><text fill="#000000" font-family="'Roboto'" font-size="14" font-weight="bold" lengthAdjust="spacing" textLength="145.4756" x="1109.184" y="600.4689">cyo-worker:latest]</text></g><!--cluster postgres_container--><g class="cluster" data-qualified-name="homelab.postgres_container" data-source-line="43" id="ent0014"><polygon fill="#FFF8E1" points="1042.9218,854.07,1052.9218,844.07,1273.9218,844.07,1273.9218,1016.26,1263.9218,1026.26,1042.9218,1026.26,1042.9218,854.07" style="stroke:#181818;stroke-width:1;"/><line style="stroke:#181818;stroke-width:1;" x1="1263.9218" x2="1273.9218" y1="854.07" y2="844.07"/><line style="stroke:#181818;stroke-width:1;" x1="1042.9218" x2="1263.9218" y1="854.07" y2="854.07"/><line style="stroke:#181818;stroke-width:1;" x1="1263.9218" x2="1263.9218" y1="854.07" y2="1026.26"/><text fill="#000000" font-family="'Roboto'" font-size="14" font-weight="bold" lengthAdjust="spacing" textLength="102.2725" x="1103.2855" y="870.0651">cyo-postgres</text><text fill="#000000" font-family="'Roboto'" font-size="14" font-weight="bold" lengthAdjust="spacing" textLength="141.709" x="1083.5673" y="886.362">[Docker container</text><text fill="#000000" font-family="'Roboto'" font-size="14" font-weight="bold" lengthAdjust="spacing" textLength="155.2373" x="1076.8031" y="902.6589">postgres:16-alpine]</text></g><!--cluster redis_container--><g class="cluster" data-qualified-name="homelab.redis_container" data-source-line="47" id="ent0016"><polygon fill="#E0E0E0" points="788.9218,854.07,798.9218,844.07,1018.9218,844.07,1018.9218,1016.26,1008.9218,1026.26,788.9218,1026.26,788.9218,854.07" style="stroke:#181818;stroke-width:1;"/><line style="stroke:#181818;stroke-width:1;" x1="1008.9218" x2="1018.9218" y1="854.07" y2="844.07"/><line style="stroke:#181818;stroke-width:1;" x1="788.9218" x2="1008.9218" y1="854.07" y2="854.07"/><line style="stroke:#181818;stroke-width:1;" x1="1008.9218" x2="1008.9218" y1="854.07" y2="1026.26"/><text fill="#000000" font-family="'Roboto'" font-size="14" font-weight="bold" lengthAdjust="spacing" textLength="72.4063" x="863.7187" y="870.0651">cyo-redis</text><text fill="#000000" font-family="'Roboto'" font-size="14" font-weight="bold" lengthAdjust="spacing" textLength="141.709" x="829.0673" y="886.362">[Docker container</text><text fill="#000000" font-family="'Roboto'" font-size="14" font-weight="bold" lengthAdjust="spacing" textLength="115.6299" x="842.1068" y="902.6589">redis:7-alpine]</text></g><!--cluster ollama_container--><g class="cluster" data-qualified-name="homelab.ollama_container" data-source-line="51" id="ent0018"><polygon fill="#FFEBEE" points="521.9218,853.57,531.9218,843.57,764.9218,843.57,764.9218,1016.76,754.9218,1026.76,521.9218,1026.76,521.9218,853.57" style="stroke:#181818;stroke-width:1;"/><line style="stroke:#181818;stroke-width:1;" x1="754.9218" x2="764.9218" y1="853.57" y2="843.57"/><line style="stroke:#181818;stroke-width:1;" x1="521.9218" x2="754.9218" y1="853.57" y2="853.57"/><line style="stroke:#181818;stroke-width:1;" x1="754.9218" x2="754.9218" y1="853.57" y2="1026.76"/><text fill="#000000" font-family="'Roboto'" font-size="14" font-weight="bold" lengthAdjust="spacing" textLength="85.5518" x="596.6459" y="869.5651">cyo-ollama</text><text fill="#000000" font-family="'Roboto'" font-size="14" font-weight="bold" lengthAdjust="spacing" textLength="141.709" x="568.5673" y="885.862">[Docker container</text><text fill="#000000" font-family="'Roboto'" font-size="14" font-weight="bold" lengthAdjust="spacing" textLength="167.9658" x="555.4389" y="902.1589">ollama/ollama:latest]</text></g><!--cluster minio_container--><g class="cluster" data-qualified-name="homelab.minio_container" data-source-line="55" id="ent0020"><polygon fill="#E0E0E0" points="1305.9218,846.07,1315.9218,836.07,1606.9218,836.07,1606.9218,1024.26,1596.9218,1034.26,1305.9218,1034.26,1305.9218,846.07" style="stroke:#181818;stroke-width:1;"/><line style="stroke:#181818;stroke-width:1;" x1="1596.9218" x2="1606.9218" y1="846.07" y2="836.07"/><line style="stroke:#181818;stroke-width:1;" x1="1305.9218" x2="1596.9218" y1="846.07" y2="846.07"/><line style="stroke:#181818;stroke-width:1;" x1="1596.9218" x2="1596.9218" y1="846.07" y2="1034.26"/><text fill="#000000" font-family="'Roboto'" font-size="14" font-weight="bold" lengthAdjust="spacing" textLength="225.0049" x="1339.9193" y="862.0651">cyo-minio [planned Phase 5]</text><text fill="#000000" font-family="'Roboto'" font-size="14" font-weight="bold" lengthAdjust="spacing" textLength="141.709" x="1381.5673" y="878.362">[Docker container</text><text fill="#000000" font-family="'Roboto'" font-size="14" font-weight="bold" lengthAdjust="spacing" textLength="99.0527" x="1402.8954" y="894.6589">minio/minio]</text></g><!--entity pwa_client--><g class="entity" data-qualified-name="devices.pwa_client" data-source-line="22" id="ent0003"><rect fill="#DDEEFF" height="95.1875" rx="4" ry="4" style="stroke:#181818;stroke-width:0.5;" width="146.832" x="265.5118" y="62"/><rect fill="#DDEEFF" height="10" style="stroke:#181818;stroke-width:0.5;" width="15" x="392.3438" y="67"/><rect fill="#DDEEFF" height="2" style="stroke:#181818;stroke-width:0.5;" width="4" x="390.3438" y="69"/><rect fill="#DDEEFF" height="2" style="stroke:#181818;stroke-width:0.5;" width="4" x="390.3438" y="73"/><text fill="#000000" font-family="'Roboto'" font-size="14" lengthAdjust="spacing" textLength="31.8623" x="280.5118" y="94.9951">PWA</text><text fill="#000000" font-family="'Roboto'" font-size="14" lengthAdjust="spacing" textLength="104.6514" x="280.5118" y="111.292">(React 19 SPA)</text><text fill="#000000" font-family="'Roboto'" font-size="14" lengthAdjust="spacing" textLength="106.832" x="280.5118" y="127.5889">Service Worker</text><text fill="#000000" font-family="'Roboto'" font-size="14" lengthAdjust="spacing" textLength="92.8525" x="280.5118" y="143.8857">+ IndexedDB</text></g><!--entity tls--><g class="entity" data-qualified-name="homelab.pangolin.tls" data-source-line="31" id="ent0008"><rect fill="#CCEECC" height="62.5938" rx="4" ry="4" style="stroke:#181818;stroke-width:0.5;" width="205.1289" x="544.3618" y="374.19"/><rect fill="#CCEECC" height="10" style="stroke:#181818;stroke-width:0.5;" width="15" x="729.4907" y="379.19"/><rect fill="#CCEECC" height="2" style="stroke:#181818;stroke-width:0.5;" width="4" x="727.4907" y="381.19"/><rect fill="#CCEECC" height="2" style="stroke:#181818;stroke-width:0.5;" width="4" x="727.4907" y="385.19"/><text fill="#000000" font-family="'Roboto'" font-size="14" lengthAdjust="spacing" textLength="111.3438" x="559.3618" y="407.1851">TLS termination</text><text fill="#000000" font-family="'Roboto'" font-size="14" lengthAdjust="spacing" textLength="165.1289" x="559.3618" y="423.482">HTTPS -&gt; internal HTTP</text></g><!--entity fastapi_app--><g class="entity" data-qualified-name="homelab.backend_container.fastapi_app" data-source-line="35" id="ent0010"><rect fill="#B2DFDB" height="95.1875" rx="4" ry="4" style="stroke:#181818;stroke-width:0.5;" width="222.5742" x="537.6418" y="621.88"/><rect fill="#B2DFDB" height="10" style="stroke:#181818;stroke-width:0.5;" width="15" x="740.216" y="626.88"/><rect fill="#B2DFDB" height="2" style="stroke:#181818;stroke-width:0.5;" width="4" x="738.216" y="628.88"/><rect fill="#B2DFDB" height="2" style="stroke:#181818;stroke-width:0.5;" width="4" x="738.216" y="632.88"/><text fill="#000000" font-family="'Roboto'" font-size="14" lengthAdjust="spacing" textLength="82.3662" x="552.6418" y="654.8751">FastAPI app</text><text fill="#000000" font-family="'Roboto'" font-size="14" lengthAdjust="spacing" textLength="140.54" x="552.6418" y="671.172">(uvicorn, port 8000)</text><text fill="#000000" font-family="'Roboto'" font-size="14" lengthAdjust="spacing" textLength="133.6973" x="552.6418" y="687.4689">src/cyo_adventure/</text><text fill="#000000" font-family="'Roboto'" font-size="14" lengthAdjust="spacing" textLength="182.5742" x="552.6418" y="703.7657">correlation + security MW</text></g><!--entity static_assets--><g class="entity" data-qualified-name="homelab.backend_container.static_assets" data-source-line="36" id="ent0011"><rect fill="#B2DFDB" height="78.8906" rx="4" ry="4" style="stroke:#181818;stroke-width:0.5;" width="170.5459" x="795.6518" y="630.03"/><rect fill="#B2DFDB" height="10" style="stroke:#181818;stroke-width:0.5;" width="15" x="946.1977" y="635.03"/><rect fill="#B2DFDB" height="2" style="stroke:#181818;stroke-width:0.5;" width="4" x="944.1977" y="637.03"/><rect fill="#B2DFDB" height="2" style="stroke:#181818;stroke-width:0.5;" width="4" x="944.1977" y="641.03"/><text fill="#000000" font-family="'Roboto'" font-size="14" lengthAdjust="spacing" textLength="125.3574" x="810.6518" y="663.0251">Static PWA assets</text><text fill="#000000" font-family="'Roboto'" font-size="14" lengthAdjust="spacing" textLength="130.5459" x="810.6518" y="679.322">(served by FastAPI</text><text fill="#000000" font-family="'Roboto'" font-size="14" lengthAdjust="spacing" textLength="129.3018" x="810.6518" y="695.6189">or separate nginx)</text></g><!--entity rq_worker--><g class="entity" data-qualified-name="homelab.worker_container.rq_worker" data-source-line="40" id="ent0013"><rect fill="#FFF3E0" height="95.1875" rx="4" ry="4" style="stroke:#181818;stroke-width:0.5;" width="190.7256" x="1080.5618" y="621.88"/><rect fill="#FFF3E0" height="10" style="stroke:#181818;stroke-width:0.5;" width="15" x="1251.2874" y="626.88"/><rect fill="#FFF3E0" height="2" style="stroke:#181818;stroke-width:0.5;" width="4" x="1249.2874" y="628.88"/><rect fill="#FFF3E0" height="2" style="stroke:#181818;stroke-width:0.5;" width="4" x="1249.2874" y="632.88"/><text fill="#000000" font-family="'Roboto'" font-size="14" lengthAdjust="spacing" textLength="75.8379" x="1095.5618" y="654.8751">RQ Worker</text><text fill="#000000" font-family="'Roboto'" font-size="14" lengthAdjust="spacing" textLength="150.7256" x="1095.5618" y="671.172">generation/worker.py</text><text fill="#000000" font-family="'Roboto'" font-size="14" lengthAdjust="spacing" textLength="138.9199" x="1095.5618" y="687.4689">async, long-running</text><text fill="#000000" font-family="'Roboto'" font-size="14" lengthAdjust="spacing" textLength="119.2598" x="1095.5618" y="703.7657">no inbound HTTP</text></g><!--entity pg_db--><g class="entity" data-qualified-name="homelab.postgres_container.pg_db" data-source-line="44" id="ent0015"><path d="M1080.1718,926.07 C1080.1718,916.07 1157.9228,916.07 1157.9228,916.07 C1157.9228,916.07 1235.6737,916.07 1235.6737,926.07 L1235.6737,1000.2575 C1235.6737,1010.2575 1157.9228,1010.2575 1157.9228,1010.2575 C1157.9228,1010.2575 1080.1718,1010.2575 1080.1718,1000.2575 L1080.1718,926.07" fill="#FFF8E1" style="stroke:#181818;stroke-width:0.5;"/><path d="M1080.1718,926.07 C1080.1718,936.07 1157.9228,936.07 1157.9228,936.07 C1157.9228,936.07 1235.6737,936.07 1235.6737,926.07" fill="none" style="stroke:#181818;stroke-width:0.5;"/><text fill="#000000" font-family="'Roboto'" font-size="14" lengthAdjust="spacing" textLength="103.0176" x="1090.1718" y="953.0651">PostgreSQL 16</text><text fill="#000000" font-family="'Roboto'" font-size="14" lengthAdjust="spacing" textLength="68.7764" x="1090.1718" y="969.362">port 5432</text><text fill="#000000" font-family="'Roboto'" font-size="14" lengthAdjust="spacing" textLength="56.1094" x="1090.1718" y="985.6589">9 tables</text><text fill="#000000" font-family="'Roboto'" font-size="14" lengthAdjust="spacing" textLength="135.502" x="1090.1718" y="1001.9557">Alembic migrations</text></g><!--entity redis_db--><g class="entity" data-qualified-name="homelab.redis_container.redis_db" data-source-line="48" id="ent0017"><path d="M805.1518,926.07 C805.1518,916.07 903.9301,916.07 903.9301,916.07 C903.9301,916.07 1002.7084,916.07 1002.7084,926.07 L1002.7084,1000.2575 C1002.7084,1010.2575 903.9301,1010.2575 903.9301,1010.2575 C903.9301,1010.2575 805.1518,1010.2575 805.1518,1000.2575 L805.1518,926.07" fill="#E0E0E0" style="stroke:#181818;stroke-width:0.5;"/><path d="M805.1518,926.07 C805.1518,936.07 903.9301,936.07 903.9301,936.07 C903.9301,936.07 1002.7084,936.07 1002.7084,926.07" fill="none" style="stroke:#181818;stroke-width:0.5;"/><text fill="#000000" font-family="'Roboto'" font-size="14" lengthAdjust="spacing" textLength="51.7686" x="815.1518" y="953.0651">Redis 7</text><text fill="#000000" font-family="'Roboto'" font-size="14" lengthAdjust="spacing" textLength="68.7764" x="815.1518" y="969.362">port 6379</text><text fill="#000000" font-family="'Roboto'" font-size="14" lengthAdjust="spacing" textLength="94.8486" x="815.1518" y="985.6589">RQ job queue</text><text fill="#000000" font-family="'Roboto'" font-size="14" lengthAdjust="spacing" textLength="177.5566" x="815.1518" y="1001.9557">(no persistence required)</text></g><!--entity ollama_svc--><g class="entity" data-qualified-name="homelab.ollama_container.ollama_svc" data-source-line="52" id="ent0019"><rect fill="#FFEBEE" height="95.1875" rx="4" ry="4" style="stroke:#181818;stroke-width:0.5;" width="163.7578" x="576.0418" y="915.57"/><rect fill="#FFEBEE" height="10" style="stroke:#181818;stroke-width:0.5;" width="15" x="719.7996" y="920.57"/><rect fill="#FFEBEE" height="2" style="stroke:#181818;stroke-width:0.5;" width="4" x="717.7996" y="922.57"/><rect fill="#FFEBEE" height="2" style="stroke:#181818;stroke-width:0.5;" width="4" x="717.7996" y="926.57"/><text fill="#000000" font-family="'Roboto'" font-size="14" lengthAdjust="spacing" textLength="49.5947" x="591.0418" y="948.5651">Ollama</text><text fill="#000000" font-family="'Roboto'" font-size="14" lengthAdjust="spacing" textLength="77.6836" x="591.0418" y="964.862">port 11434</text><text fill="#000000" font-family="'Roboto'" font-size="14" lengthAdjust="spacing" textLength="123.7578" x="591.0418" y="981.1589">local LLM fallback</text><text fill="#000000" font-family="'Roboto'" font-size="14" lengthAdjust="spacing" textLength="121.3721" x="591.0418" y="997.4557">(GPU if available)</text></g><!--entity minio_db--><g class="entity" data-qualified-name="homelab.minio_container.minio_db" data-source-line="56" id="ent0021"><path d="M1330.2118,926.07 C1330.2118,916.07 1421.9217,916.07 1421.9217,916.07 C1421.9217,916.07 1513.6317,916.07 1513.6317,926.07 L1513.6317,1000.2575 C1513.6317,1010.2575 1421.9217,1010.2575 1421.9217,1010.2575 C1421.9217,1010.2575 1330.2118,1010.2575 1330.2118,1000.2575 L1330.2118,926.07" fill="#E0E0E0" style="stroke:#181818;stroke-width:0.5;"/><path d="M1330.2118,926.07 C1330.2118,936.07 1421.9217,936.07 1421.9217,936.07 C1421.9217,936.07 1513.6317,936.07 1513.6317,926.07" fill="none" style="stroke:#181818;stroke-width:0.5;"/><text fill="#000000" font-family="'Roboto'" font-size="14" lengthAdjust="spacing" textLength="39.9902" x="1340.2118" y="953.0651">MinIO</text><text fill="#000000" font-family="'Roboto'" font-size="14" lengthAdjust="spacing" textLength="100.9805" x="1340.2118" y="969.362">S3-compatible</text><text fill="#000000" font-family="'Roboto'" font-size="14" lengthAdjust="spacing" textLength="163.4199" x="1340.2118" y="985.6589">Storybook blob storage</text><text fill="#000000" font-family="'Roboto'" font-size="14" lengthAdjust="spacing" textLength="112.5127" x="1340.2118" y="1001.9557">blog_ref column</text></g><!--entity openrouter_cloud--><g class="entity" data-qualified-name="openrouter_cloud" data-source-line="25" id="ent0004"><path d="M315.9652,941.6203 C318.6902,935.1002 323.0359,935.203 327.4105,939.9437 C330.8734,935.2581 334.6574,933.9016 338.5316,939.4988 C342.0983,933.9798 347.2425,935.143 350.1808,940.1915 C353.074,935.4195 356.5777,935.1699 360.3621,939.1554 C363.9975,933.4862 369.054,932.2388 373.0193,938.8144 C375.8211,933.9142 380.8724,933.779 383.3163,939.1724 C386.7156,934.2478 391.3651,935.2525 394.1824,939.8374 C397.5479,933.5449 402.0437,932.601 406.5604,938.6863 C409.9778,934.4176 414.5064,933.6524 417.2402,939.4141 C421.9583,933.1196 426.3195,934.8103 429.8957,940.609 C432.7261,935.0328 437.8378,936.0639 440.4409,940.8406 C444.3503,935.5903 448.1474,935.4549 451.8911,941.0161 C455.3613,935.0569 460.0194,935.5564 463.2262,941.272 C466.3915,935.7389 471.6464,934.6997 475.3516,940.7045 C482.6676,943.2647 482.9694,947.41 477.9864,952.6769 C483.6057,955.3475 485.8594,960.6904 480.0566,965.2428 C484.1987,970.3368 482.8669,974.5241 476.588,976.3696 C480.1284,981.1558 480.4604,985.1995 473.6063,987.0964 C470.7273,992.1494 466.7689,992.5172 462.8654,988.2809 C459.7692,994.0779 454.1831,993.6697 451.2023,988.1619 C448.5151,994.0156 444.4228,995.3255 439.933,989.975 C436.7504,994.1656 433.0455,995.0778 430.0714,989.7588 C425.8235,996.8164 421.9467,996.1096 417.3641,990.0838 C414.1937,996.6257 409.9984,995.5278 405.7897,991.1882 C402.8815,996.074 398.4482,996.4388 395.7845,990.9523 C392.3114,997.1474 386.6448,996.91 383.4902,990.6382 C380.0195,997.0331 374.9895,996.1148 371.7212,990.4409 C368.3946,994.8317 363.4101,995.1535 361.3366,989.1849 C357.9796,995.5463 352.2815,995.4716 349.1229,988.9961 C345.3988,994.7589 341.1683,993.2676 338.1673,988.2605 C334.69,993.9806 331.0852,993.3779 327.1634,988.7323 C322.881,994.02 317.5865,993.4348 315.0279,986.9546 C309.0481,984.419 306.9441,980.5552 312.4312,975.4347 C306.0622,973.6791 304.1264,968.7809 308.2637,963.3901 C304.3496,958.3283 304.8675,954.446 310.8431,951.5362 C308.3199,946.1799 309.1209,942.1377 315.9652,941.6203" fill="#F3E5F5" style="stroke:#181818;stroke-width:0.5;"/><text fill="#000000" font-family="'Roboto'" font-size="14" lengthAdjust="spacing" textLength="111.0156" x="321.3818" y="959.8651">OpenRouter API</text><text fill="#000000" font-family="'Roboto'" font-size="14" lengthAdjust="spacing" textLength="145.0928" x="321.3818" y="976.162">https://openrouter.ai</text></g><!--entity supabase_cloud--><g class="entity" data-qualified-name="supabase_cloud" data-source-line="26" id="ent0005"><path d="M25.2038,934.0931 C30.0247,923.4933 35.6886,923.8207 43.1593,931.4885 C47.3115,923.6236 53.9029,924.1405 58.6857,930.815 C64.9658,920.9957 72.1492,922.1008 78.6337,930.5923 C82.0887,922.2092 89.6453,921.2601 94.5441,929.1836 C99.0719,922.0511 106.5598,922.0687 111.0904,929.1804 C116.1417,920.1881 123.5635,919.5033 129.6929,928.0361 C132.6433,919.0643 140.1871,917.9588 146.4809,924.3928 C151.2795,918.0798 157.2811,917.9639 161.1783,925.3593 C166.982,916.722 173.9014,916.9271 178.7967,926.2503 C186.1204,918.3306 192.2953,918.1823 197.8686,928.1198 C203.4896,922.0204 209.1598,922.7148 213.1395,929.9934 C219.0567,922.4037 228.3808,922.936 232.1907,932.3539 C236.7147,924.7299 241.4964,924.0161 246.9004,931.4969 C254.0908,922.8218 260.9977,924.1948 266.1115,933.6922 C273.8786,938.249 273.3556,942.6674 267.0799,948.1639 C275.8206,950.7062 276.8203,957.758 270.7022,963.7529 C278.5336,970.7913 275.7074,978.2248 266.4805,981.1156 C274.8248,986.0143 273.0339,993.2691 265.7579,997.4779 C260.3572,1005.6253 254.3354,1006.1892 248.4525,997.9883 C242.3839,1008.2711 234.8013,1006.518 229.3103,997.4179 C225.906,1005.1277 217.4883,1006.0743 212.4671,999.2978 C209.3298,1006.8438 202.2933,1009.1196 196.7145,1001.903 C192.2469,1010.3147 183.465,1011.0127 178.1804,1002.8147 C172.6984,1010.7141 166.0584,1011.498 161.0853,1002.3057 C157.7953,1009.1273 151.1588,1011.2867 146.3811,1003.8386 C141.8422,1012.3338 133.8116,1011.814 129.4379,1003.6704 C124.3757,1012.1752 116.4516,1012.0958 112.0385,1003.0276 C106.5235,1010.568 100.2092,1009.9985 95.4874,1002.1731 C88.0084,1008.6245 81.8512,1009.161 77.6769,998.6941 C73.4247,1005.2729 66.5621,1006.9194 61.8215,999.2371 C55.101,1009.9938 47.7231,1009.461 41.7091,998.5804 C35.5181,1005.1937 30.6664,1003.3343 26.5424,996.2856 C10.7678,989.87 6,973.981 22.8007,963.812 C9.3417,953.5861 8.2837,941.8625 25.2038,934.0931" fill="#E0F7FA" style="stroke:#181818;stroke-width:0.5;"/><text fill="#000000" font-family="'Roboto'" font-size="14" lengthAdjust="spacing" textLength="105.8613" x="31.5218" y="951.7151">Supabase Auth</text><text fill="#000000" font-family="'Roboto'" font-size="14" lengthAdjust="spacing" textLength="180.4756" x="31.5218" y="968.012">[OIDC provider, ADR-009]</text><text fill="#000000" font-family="'Roboto'" font-size="14" lengthAdjust="spacing" textLength="224.8066" x="31.5218" y="984.3089">Guardian sign-in (Apple/Google)</text></g><g class="entity" data-qualified-name="GMN34" data-source-line="76" id="ent0035"><path d="M1655.0218,623.08 L1655.0218,715.8769 A4,4 0 0 0 1659.0218,719.8769 L1950.8299,719.8769 A4,4 0 0 0 1954.8299,715.8769 L1954.8299,629.08 L1944.8299,619.08 L1659.0218,619.08 A4,4 0 0 0 1655.0218,623.08" fill="#FEFFDD" style="stroke:#181818;stroke-width:0.5;"/><path d="M1944.8299,619.08 L1944.8299,627.08 A2,2 0 0 0 1946.8299,629.08 L1954.8299,629.08 L1944.8299,619.08" fill="#FEFFDD" style="stroke:#181818;stroke-width:1;"/><text fill="#000000" font-family="'Roboto'" font-size="13" lengthAdjust="spacing" textLength="261.1807" x="1661.0218" y="636.1469">The worker runs in a separate container</text><text fill="#000000" font-family="'Roboto'" font-size="13" lengthAdjust="spacing" textLength="278.8081" x="1661.0218" y="651.2797">so long-running generation (30-120s) does</text><text fill="#000000" font-family="'Roboto'" font-size="13" lengthAdjust="spacing" textLength="187.2749" x="1661.0218" y="666.4125">not block the API event loop.</text><text fill="#000000" font-family="'Roboto'" font-size="13" lengthAdjust="spacing" textLength="250.3896" x="1661.0218" y="681.5453">Worker and API share the same image</text><text fill="#000000" font-family="'Roboto'" font-size="13" lengthAdjust="spacing" textLength="256.0835" x="1661.0218" y="696.6781">or a shared base; Dockge manages the</text><text fill="#000000" font-family="'Roboto'" font-size="13" lengthAdjust="spacing" textLength="101.5181" x="1661.0218" y="711.811">compose stack.</text></g><g class="entity" data-qualified-name="GMN37" data-source-line="85" id="ent0038"><path d="M1654.4318,931.9 L1654.4318,994.4313 A4,4 0 0 0 1658.4318,998.4313 L1913.4235,998.4313 A4,4 0 0 0 1917.4235,994.4313 L1917.4235,937.9 L1907.4235,927.9 L1658.4318,927.9 A4,4 0 0 0 1654.4318,931.9" fill="#FEFFDD" style="stroke:#181818;stroke-width:0.5;"/><path d="M1907.4235,927.9 L1907.4235,935.9 A2,2 0 0 0 1909.4235,937.9 L1917.4235,937.9 L1907.4235,927.9" fill="#FEFFDD" style="stroke:#181818;stroke-width:1;"/><text fill="#000000" font-family="'Roboto'" font-size="13" lengthAdjust="spacing" textLength="236.7612" x="1660.4318" y="944.9669">Phase 1: blob stored inline as JSONB</text><text fill="#000000" font-family="'Roboto'" font-size="13" lengthAdjust="spacing" textLength="175.3223" x="1660.4318" y="960.0997">on storybook_version.blob.</text><text fill="#000000" font-family="'Roboto'" font-size="13" lengthAdjust="spacing" textLength="211.8276" x="1660.4318" y="975.2325">Phase 5: MinIO container added;</text><text fill="#000000" font-family="'Roboto'" font-size="13" lengthAdjust="spacing" textLength="241.9917" x="1660.4318" y="990.3653">blob_ref column set to S3 object key.</text></g><g class="entity" data-qualified-name="GMN40" data-source-line="92" id="ent0041"><path d="M205.5818,359.09 L205.5818,451.8869 A4,4 0 0 0 209.5818,455.8869 L468.2742,455.8869 A4,4 0 0 0 472.2742,451.8869 L472.2742,365.09 L462.2742,355.09 L342.9218,355.09 L338.9218,157.49 L334.9218,355.09 L209.5818,355.09 A4,4 0 0 0 205.5818,359.09" fill="#FEFFDD" style="stroke:#181818;stroke-width:0.5;"/><path d="M462.2742,355.09 L462.2742,363.09 A2,2 0 0 0 464.2742,365.09 L472.2742,365.09 L462.2742,355.09" fill="#FEFFDD" style="stroke:#181818;stroke-width:0.5;"/><text fill="#000000" font-family="'Roboto'" font-size="13" lengthAdjust="spacing" textLength="245.6924" x="211.5818" y="372.1569">PWA assets cached by service worker</text><text fill="#000000" font-family="'Roboto'" font-size="13" lengthAdjust="spacing" textLength="200.2305" x="211.5818" y="387.2897">(Workbox via vite-plugin-pwa).</text><text fill="#000000" font-family="'Roboto'" font-size="13" lengthAdjust="spacing" textLength="228.1348" x="211.5818" y="402.4225">IndexedDB stores reading state for</text><text fill="#000000" font-family="'Roboto'" font-size="13" lengthAdjust="spacing" textLength="205.0103" x="211.5818" y="417.5553">offline play. Offline write queue</text><text fill="#000000" font-family="'Roboto'" font-size="13" lengthAdjust="spacing" textLength="228.4966" x="211.5818" y="432.6881">replays on reconnect with event_id</text><text fill="#000000" font-family="'Roboto'" font-size="13" lengthAdjust="spacing" textLength="89.0386" x="211.5818" y="447.821">idempotency.</text></g><!--link pwa_client to tls--><g class="link" data-entity-1="ent0003" data-entity-2="ent0008" data-link-type="dependency" data-source-line="62" id="lnk22"><path d="M412.6818,155.21 C438.3018,172.22 466.4718,192.73 489.9218,214.19 C544.9018,264.5 594.1926,329.4417 622.3626,369.0217" fill="none" id="pwa_client-to-tls" style="stroke:#181818;stroke-width:1;"/><polygon fill="#181818" points="625.8418,373.91,623.882,364.2581,622.9425,369.8364,617.3642,368.8969,625.8418,373.91" style="stroke:#181818;stroke-width:1;"/><text fill="#000000" font-family="'Roboto'" font-size="13" lengthAdjust="spacing" textLength="80.8374" x="479.8118" y="202.2569">HTTPS (443)</text></g><!--link tls to fastapi_app--><g class="link" data-entity-1="ent0008" data-entity-2="ent0010" data-link-type="dependency" data-source-line="63" id="lnk23"><path d="M647.1618,437.05 C647.5018,482.54 648.1157,562.4102 648.5257,615.7902" fill="none" id="tls-to-fastapi_app" style="stroke:#181818;stroke-width:1;"/><polygon fill="#181818" points="648.5718,621.79,652.5025,612.7595,648.5334,616.7901,644.5028,612.821,648.5718,621.79" style="stroke:#181818;stroke-width:1;"/><text fill="#000000" font-family="'Roboto'" font-size="13" lengthAdjust="spacing" textLength="80.8564" x="648.7418" y="506.4469">HTTP (8000)</text></g><!--link fastapi_app to pg_db--><g class="link" data-entity-1="ent0010" data-entity-2="ent0015" data-link-type="dependency" data-source-line="64" id="lnk24"><path d="M704.8118,717.5 C726.3218,732.93 751.9718,748.35 777.9218,757.07 C807.2518,766.93 890.0018,749.83 916.9218,765.07 C938.9118,777.53 927.2918,799.01 948.9218,812.07 C975.7318,828.26 990.8018,806.31 1018.9218,820.07 C1063.0918,841.69 1097.5056,878.5127 1122.5756,911.1327" fill="none" id="fastapi_app-to-pg_db" style="stroke:#181818;stroke-width:1;"/><polygon fill="#181818" points="1126.2318,915.89,1123.919,906.3165,1123.1849,911.9256,1117.5759,911.1915,1126.2318,915.89" style="stroke:#181818;stroke-width:1;"/><text fill="#000000" font-family="'Roboto'" font-size="13" lengthAdjust="spacing" textLength="123.9253" x="949.9218" y="785.6369">async SQLAlchemy</text><text fill="#000000" font-family="'Roboto'" font-size="13" lengthAdjust="spacing" textLength="33.084" x="995.3424" y="800.7697">5432</text></g><!--link fastapi_app to redis_db--><g class="link" data-entity-1="ent0010" data-entity-2="ent0017" data-link-type="dependency" data-source-line="65" id="lnk25"><path d="M670.7218,717.51 C688.2318,753.46 712.5218,799.02 728.9218,812.07 C738.7218,819.87 745.1018,813.78 755.9218,820.07 C798.7318,844.95 834.7037,880.2184 862.2837,911.3584" fill="none" id="fastapi_app-to-redis_db" style="stroke:#181818;stroke-width:1;"/><polygon fill="#181818" points="866.2618,915.85,863.289,906.4605,862.9467,912.107,857.3002,911.7647,866.2618,915.85" style="stroke:#181818;stroke-width:1;"/><text fill="#000000" font-family="'Roboto'" font-size="13" lengthAdjust="spacing" textLength="60.436" x="729.9218" y="785.6369">rq.Queue</text><text fill="#000000" font-family="'Roboto'" font-size="13" lengthAdjust="spacing" textLength="33.084" x="743.5978" y="800.7697">6379</text></g><!--link fastapi_app to ollama_svc--><g class="link" data-entity-1="ent0010" data-entity-2="ent0019" data-link-type="dependency" data-source-line="66" id="lnk26"><path d="M647.1518,717.14 C646.6518,732.41 646.1718,749.47 645.9218,765.07 C645.5918,785.96 645.0918,791.2 645.9218,812.07 C647.3018,846.68 649.9202,879.6954 652.6502,909.2654" fill="none" id="fastapi_app-to-ollama_svc" style="stroke:#181818;stroke-width:1;"/><polygon fill="#181818" points="653.2018,915.24,656.3574,905.9104,652.7421,910.2612,648.3913,906.6458,653.2018,915.24" style="stroke:#181818;stroke-width:1;"/><text fill="#000000" font-family="'Roboto'" font-size="13" lengthAdjust="spacing" textLength="33.4966" x="650.851" y="785.6369">HTTP</text><text fill="#000000" font-family="'Roboto'" font-size="13" lengthAdjust="spacing" textLength="41.355" x="646.9218" y="800.7697">11434</text></g><!--link rq_worker to redis_db--><g class="link" data-entity-1="ent0013" data-entity-2="ent0017" data-link-type="dependency" data-source-line="67" id="lnk27"><path d="M1145.1118,717.57 C1118.5518,758.04 1084.1218,810.22 1081.9218,812.07 C1075.2418,817.72 1071.2818,815.33 1063.9218,820.07 C1021.4518,847.43 983.2314,881.6147 952.7114,911.6047" fill="none" id="rq_worker-to-redis_db" style="stroke:#181818;stroke-width:1;"/><polygon fill="#181818" points="948.4318,915.81,957.6548,912.3551,951.9981,912.3056,952.0477,906.6489,948.4318,915.81" style="stroke:#181818;stroke-width:1;"/><text fill="#000000" font-family="'Roboto'" font-size="13" lengthAdjust="spacing" textLength="56.9766" x="1112.2918" y="785.6369">dequeue</text><text fill="#000000" font-family="'Roboto'" font-size="13" lengthAdjust="spacing" textLength="33.084" x="1124.2381" y="800.7697">6379</text></g><!--link rq_worker to pg_db--><g class="link" data-entity-1="ent0013" data-entity-2="ent0015" data-link-type="dependency" data-source-line="68" id="lnk28"><path d="M1178.2918,717.14 C1178.9618,732.41 1179.5918,749.46 1179.9218,765.07 C1180.3618,785.96 1181.4418,791.24 1179.9218,812.07 C1177.3818,847.01 1172.5463,880.2347 1167.5263,909.7947" fill="none" id="rq_worker-to-pg_db" style="stroke:#181818;stroke-width:1;"/><polygon fill="#181818" points="1166.5218,915.71,1171.9722,907.5067,1167.3589,910.7806,1164.0851,906.1673,1166.5218,915.71" style="stroke:#181818;stroke-width:1;"/><text fill="#000000" font-family="'Roboto'" font-size="13" lengthAdjust="spacing" textLength="69.7544" x="1181.7118" y="785.6369">update job</text><text fill="#000000" font-family="'Roboto'" font-size="13" lengthAdjust="spacing" textLength="33.084" x="1200.047" y="800.7697">5432</text></g><!--link rq_worker to openrouter_cloud--><g class="link" data-entity-1="ent0013" data-entity-2="ent0004" data-link-type="dependency" data-source-line="69" id="lnk29"><path d="M1090.6118,717.47 C1057.6618,733.2 1019.0118,748.83 981.9218,757.07 C957.2418,762.56 549.1418,753.01 526.9218,765.07 C460.7218,801.02 423.4185,880.262 406.2585,926.022" fill="none" id="rq_worker-to-openrouter_cloud" style="stroke:#181818;stroke-width:1;"/><polygon fill="#181818" points="404.1518,931.64,411.0572,924.6175,405.9074,926.9584,403.5666,921.8085,404.1518,931.64" style="stroke:#181818;stroke-width:1;"/><text fill="#000000" font-family="'Roboto'" font-size="13" lengthAdjust="spacing" textLength="41.7485" x="561.6151" y="778.1369">HTTPS</text><text fill="#000000" font-family="'Roboto'" font-size="13" lengthAdjust="spacing" textLength="109.1353" x="527.9218" y="793.2697">LLM completions</text><text fill="#000000" font-family="'Roboto'" font-size="13" lengthAdjust="spacing" textLength="61.02" x="551.9794" y="808.4025">(primary)</text></g><!--link rq_worker to ollama_svc--><g class="link" data-entity-1="ent0013" data-entity-2="ent0019" data-link-type="dependency" data-source-line="70" id="lnk30"><path d="M1089.0118,717.48 C1056.3618,732.91 1018.3218,748.33 981.9218,757.07 C948.3918,765.13 856.9918,748.17 826.9218,765.07 C804.9018,777.46 810.5918,792.25 794.9218,812.07 C766.3818,848.2 735.4701,882.1455 707.9701,911.0155" fill="none" id="rq_worker-to-ollama_svc" style="stroke:#181818;stroke-width:1;stroke-dasharray:7,7;"/><polygon fill="#181818" points="703.8318,915.36,712.9355,911.6022,707.2804,911.7396,707.1429,906.0844,703.8318,915.36" style="stroke:#181818;stroke-width:1;"/><text fill="#000000" font-family="'Roboto'" font-size="13" lengthAdjust="spacing" textLength="33.4966" x="851.4208" y="785.6369">HTTP</text><text fill="#000000" font-family="'Roboto'" font-size="13" lengthAdjust="spacing" textLength="80.4946" x="827.9218" y="800.7697">LLM fallback</text></g><!--link rq_worker to minio_db--><g class="link" data-entity-1="ent0013" data-entity-2="ent0021" data-link-type="dependency" data-source-line="71" id="lnk31"><path d="M1218.1518,717.32 C1231.6218,732.45 1246.5118,749.38 1259.9218,765.07 C1303.5118,816.09 1348.4788,871.0848 1380.9988,911.2948" fill="none" id="rq_worker-to-minio_db" style="stroke:#181818;stroke-width:1;stroke-dasharray:7,7;"/><polygon fill="#181818" points="1384.7718,915.96,1382.2224,906.4468,1381.6276,912.0723,1376.0021,911.4775,1384.7718,915.96" style="stroke:#181818;stroke-width:1;"/><text fill="#000000" font-family="'Roboto'" font-size="13" lengthAdjust="spacing" textLength="61.3628" x="1296.9918" y="785.6369">[Phase 5]</text><text fill="#000000" font-family="'Roboto'" font-size="13" lengthAdjust="spacing" textLength="41.2217" x="1307.0623" y="800.7697">S3 API</text></g><!--link pwa_client to supabase_cloud--><g class="link" data-entity-1="ent0003" data-entity-2="ent0005" data-link-type="dependency" data-source-line="72" id="lnk32"><path d="M265.1718,143.08 C235.9718,159.91 205.2818,183.46 187.9218,214.19 C52.7918,453.46 109.4913,801.2975 133.8713,917.6475" fill="none" id="pwa_client-to-supabase_cloud" style="stroke:#181818;stroke-width:1;"/><polygon fill="#181818" points="135.1018,923.52,137.171,913.891,134.0763,918.6263,129.341,915.5316,135.1018,923.52" style="stroke:#181818;stroke-width:1;"/><text fill="#000000" font-family="'Roboto'" font-size="13" lengthAdjust="spacing" textLength="97.7349" x="154.1383" y="498.9469">OIDC auth flow</text><text fill="#000000" font-family="'Roboto'" font-size="13" lengthAdjust="spacing" textLength="188.6079" x="108.7018" y="514.0797">(Apple/Google via Supabase)</text></g><!--link fastapi_app to supabase_cloud--><g class="link" data-entity-1="ent0010" data-entity-2="ent0005" data-link-type="dependency" data-source-line="73" id="lnk33"><path d="M537.2518,680.74 C420.2918,693.72 247.0218,720 198.9218,765.07 C155.1118,806.12 145.4098,872.8743 143.7098,917.5743" fill="none" id="fastapi_app-to-supabase_cloud" style="stroke:#181818;stroke-width:1;"/><polygon fill="#181818" points="143.4818,923.57,147.8209,914.7285,143.6718,918.5736,139.8267,914.4245,143.4818,923.57" style="stroke:#181818;stroke-width:1;"/><text fill="#000000" font-family="'Roboto'" font-size="13" lengthAdjust="spacing" textLength="142.2383" x="256.0351" y="785.6369">OIDC token validation</text><text fill="#000000" font-family="'Roboto'" font-size="13" lengthAdjust="spacing" textLength="254.4648" x="199.9218" y="800.7697">[non-local; local uses token-as-subject]</text></g><!--link worker_container to GMN34--><g class="link" data-entity-1="ent0012" data-entity-2="ent0035" data-link-type="association" data-source-line="76" id="lnk36"><path d="M1315.5533,669.48 C1316.4579,669.48 1317.3625,669.48 1318.2671,669.48 C1321.8856,669.48 1325.504,669.48 1329.1225,669.48 C1336.3595,669.48 1343.5964,669.48 1350.8335,669.48 C1365.3075,669.48 1379.7816,669.48 1394.2558,669.48 C1423.2043,669.48 1452.153,669.48 1481.1018,669.48 C1538.9993,669.48 1596.8968,669.48 1654.7918,669.48" fill="none" id="worker_container-GMN34" style="stroke:#181818;stroke-width:1;stroke-dasharray:7,7;"/></g><!--link minio_container to GMN37--><g class="link" data-entity-1="ent0020" data-entity-2="ent0038" data-link-type="association" data-source-line="85" id="lnk39"><path d="M1607.1125,963.17 C1607.1836,963.17 1607.2546,963.17 1607.3257,963.17 C1607.6099,963.17 1607.8941,963.17 1608.1783,963.17 C1608.7468,963.17 1609.3152,963.17 1609.8837,963.17 C1611.0205,963.17 1612.1574,963.17 1613.2943,963.17 C1617.8418,963.17 1622.3893,963.17 1626.9368,963.17 C1636.0318,963.17 1645.1268,963.17 1654.2218,963.17" fill="none" id="minio_container-GMN37" style="stroke:#181818;stroke-width:1;stroke-dasharray:7,7;"/></g><?plantuml-src fLTjJnj94lxkNr4o7y1QnZOn987eJdAmdML50i7iHNSuijepRTFBk7lexe7uJllVxwcU6NkmsTLAYtcRxdglUgfgzkaVV-EhiKy3cQLcjPJQqx-KV3wZdyrIfc8MpPLrdWOcVf2MaZKLMCx_VKNzv0aFkPMDVPoCJMvZINELIdU6PwB4nAwJfK9hfHSTaLZ-YRhTu-Y-BZ_Q26ulap_bF8rSdecPS3B2hPyRkmGB7OpBKxgw69oJXJmHIqVztDz3gdeWuKXa6LqarwrN57WPtqSkap4BeuCBFRV2UPl7x1mv6NjbTC5uVjd_TJ0CIekm7DArq0kJAat_bTP4O7F-CCHi8LiXCb-CbsVqMUcBAtBtvbcpEK6vX9X4pgMr-E_wdZquQRNNB6MOQdue1--yKCm9xqbfBwqMAUApX0NM8FXqq1_SSB1QDCivLs3IXbAZ5yWY974ezbqHAvMmOB-Yp9edFDWF5GM9Kciil7GGiyY5JPJGZfwKe2haXwLBCvcQPpRzRzLYmpqedGahbYYtkSXJFpBQVn5BISqRCpFUD6iaCu4WMvFhvDoaYCRUgC-V6aLvQJKyVzzeQ9D0q4WiLRf2rJyfLCb4tysiUNRIkaFoOfPAxxutEKL9GK1xmzxepMX0_siGnMQP6Sr8QLv_wq_qmOqKiQUZKnfVzriJFPQMcUYRiIYEYVw9BdGYVyXay378p9x5D4uL2zWR38R3qQZnUwCHfoPFg7cLINrZSgIK-jSN4ttlVUREEXs3SnlEsq85CPkJQS6xD-eDJqOdbQGr8BXqu678TPNYGoeBvFj4VogJIaujT8GIEkXdMIexdunPfB8Lb5MOgrGDkwDtY78PpR9N47lE7j-LxUAd4WDGKXRaSI6kgkgzuVlHoV0KOKLS2raLb23bFsimeU8X6Bx0_X-hYRuLAdMnI2Lrw9mjcgS2CBtDWQUqo5nMGNBl_7muF3yFgNkHlDlBCI5w08rWS4_qpxUtrsEA_hc65F59aEPJLmc2cDytviOh4t4DIfri_8vHi0nGXA9sVvOoYdnXNdasNPFItiStWz7WuwwT8pGYr0834d7CKLievaFAZFNqljljekISZJlGD1LLE-v0iq5BIODhI0GwM6uPv9-_1Vrp21MPcZBAIytRUiSUp36Xni7W00beTvpXX6OhAgsQQ83EIOQQbwGNIlyeAoPmJmlEcegjs3sN8Fc3q1NNBo9N7DK3DngXyhkxWRlvkiRWGe8onA9JyBSpb95mAnqVXhOOsJmCWeb6drHwnarZatxxE2tOAcMxZcJ6-OKDlMJNbUhoxEXj9D8CXsMHbkTRthmV7fNU9C8N86vU5wJZhvTqz9Ob8lidnxqt4trQj2nexgToEKFAbcfHEEiABOjfCgi4xrgEmQDUDplSdBrxON8ugzixxF9dnzuRfgDtfQLlU-zE9ne9-StCw36NkKGn8T8PKAsSbnhzqih7N45ygwQ7xIuKxDfjqbGinQk65rUTui-BwYcENiPx-74utAsUgr9yiF_ewBXtFD6fGTEXoylFm4-QCeRXngVhNqdDIJoXAN4YMdL5xYckLEnwWDQZ3DrLUq0v_R-_wbAWxOJVXIVXtx-GYB1qO2hr8dOEPG4JyUYDNSsCUQ1PYfGuF8e5pl6qc5evX-eqN-gQfkrKu7kVeYYYBz8pE6YEwU_uf56RS17QAJVFCqo9q5uFZezxhMQ3p_YkteTA6Ze8NQtPgDynRL77e0gu9K2XdyRtSWaaCn9s6TOr11xxsFvQr1tNuYvjBL-b7HCTijviRD2_BJIHZtMPBmdNvkPPmiqHfLyP-f9mPv9NmPfeBZLE6pOIXZEgBRDgAUogLHVIRhzkVxrGj-dNIGNrtQRonZtUEvhRAToQ_-09wmJlXo7lFE1hIyEBzV2LJFw1E6ym4-b9f2efH_ATDZeAgFj01VXoXtKi44R2uLrWzXjsy-zDNaKGOwiMzvxCV6TAe6PliTIM0K2pT-Zo93QZgqxfp8kPG9lfGGUzRdJqfkjQU7_0IinezWoX-24ipJod9SzW231P6_V512A1SSANxfuN5IPrlD4Ybmi9AWnHKTnXk28m7yhDYPP2Wy8nHxLw8bE8PlpGRc21OFros_cjrW368i57PnkqGv7Is8ya8_oNyTKN7ivmq5MDOSeR5rnkCqjxBUEaUetPT1wH93Bv00gch3KF1DSZLOIQCY5Dz21NErPZe_TcoMPlQewrhTSEYWLG7fOELwxMHHf1TS3XdPaVeU2UbEUNmXnBI0HPBJPwlNeNJlDS4GddbFSJoIzGxFPy7YA1HhngqrNvz8nzIHR32ZJXZNBbE4HMmdVD_Zmhr7_8zrGb8C9gZGJnEAlx-Ny0?></g></svg>
