<svg xmlns="http://www.w3.org/2000/svg" xmlns:xlink="http://www.w3.org/1999/xlink" contentStyleType="text/css" height="1202px" preserveAspectRatio="none" style="width:1660px;height:1202px;background:#FAFAFA;" version="1.1" viewBox="0 0 1660 1202" width="1660px" zoomAndPan="magnify"><defs><style type="text/css">@import url('https://fonts.googleapis.com/css?family=Roboto:400,100,100italic,300,300italic,400italic,500,500italic,700,700italic,900,900italic');</style></defs><g><rect fill="#FAFAFA" height="1202" style="stroke:none;stroke-width:1.0;" width="1660" x="0" y="0"/><!--class family--><g id="elem_family"><rect codeLine="17" fill="#E8F5E9" height="97.2188" id="family" rx="4" ry="4" style="stroke:#181818;stroke-width:0.5;" width="183.7939" x="1032" y="7"/><ellipse cx="1100.5508" cy="23" fill="#ADD1B2" rx="11" ry="11" style="stroke:#181818;stroke-width:1.0;"/><path d="M1104.6602,29 L1096.9414,29 L1096.9414,16.6094 L1104.6602,16.6094 L1104.6602,18.7656 L1099.3945,18.7656 L1099.3945,21.4375 L1104.1602,21.4375 L1104.1602,23.5938 L1099.3945,23.5938 L1099.3945,26.8438 L1104.6602,26.8438 L1104.6602,29 Z " fill="#000000"/><text fill="#000000" font-family="Roboto" font-size="14" lengthAdjust="spacing" textLength="38.1924" x="1121.0508" y="27.7852">family</text><line style="stroke:#181818;stroke-width:0.5;" x1="1033" x2="1214.7939" y1="39" y2="39"/><ellipse cx="1043" cy="52.7031" fill="#000000" rx="3" ry="3" style="stroke:#000000;stroke-width:1.0;"/><text fill="#000000" font-family="Roboto" font-size="14" lengthAdjust="spacing" textLength="87.0078" x="1052" y="55.9883">id : UUID &#171;PK&#187;</text><line style="stroke:#181818;stroke-width:1.0;" x1="1033" x2="1214.7939" y1="63.4063" y2="63.4063"/><text fill="#000000" font-family="Roboto" font-size="14" lengthAdjust="spacing" textLength="142.1875" x="1038" y="80.3945">name : VARCHAR(200)</text><text fill="#000000" font-family="Roboto" font-size="14" lengthAdjust="spacing" textLength="171.7939" x="1038" y="96.8008">created_at : TIMESTAMPTZ</text></g><!--class user_t--><g id="elem_user_t"><rect codeLine="24" fill="#E3F2FD" height="146.4375" id="user_t" rx="4" ry="4" style="stroke:#181818;stroke-width:0.5;" width="328.5654" x="1163.5" y="196"/><ellipse cx="1309.9771" cy="212" fill="#ADD1B2" rx="11" ry="11" style="stroke:#181818;stroke-width:1.0;"/><path d="M1314.0864,218 L1306.3677,218 L1306.3677,205.6094 L1314.0864,205.6094 L1314.0864,207.7656 L1308.8208,207.7656 L1308.8208,210.4375 L1313.5864,210.4375 L1313.5864,212.5938 L1308.8208,212.5938 L1308.8208,215.8438 L1314.0864,215.8438 L1314.0864,218 Z " fill="#000000"/><text fill="#000000" font-family="Roboto" font-size="14" lengthAdjust="spacing" textLength="27.1113" x="1330.4771" y="216.7852">user</text><line style="stroke:#181818;stroke-width:0.5;" x1="1164.5" x2="1491.0654" y1="228" y2="228"/><ellipse cx="1174.5" cy="241.7031" fill="#000000" rx="3" ry="3" style="stroke:#000000;stroke-width:1.0;"/><text fill="#000000" font-family="Roboto" font-size="14" lengthAdjust="spacing" textLength="87.0078" x="1183.5" y="244.9883">id : UUID &#171;PK&#187;</text><line style="stroke:#181818;stroke-width:1.0;" x1="1164.5" x2="1491.0654" y1="252.4063" y2="252.4063"/><ellipse cx="1174.5" cy="266.1094" fill="#000000" rx="3" ry="3" style="stroke:#000000;stroke-width:1.0;"/><text fill="#000000" font-family="Roboto" font-size="14" lengthAdjust="spacing" textLength="187.0791" x="1183.5" y="269.3945">family_id : UUID &#171;FK family.id&#187;</text><text fill="#000000" font-family="Roboto" font-size="14" lengthAdjust="spacing" textLength="228.416" x="1183.5" y="285.8008">role : VARCHAR(16) [guardian | child]</text><text fill="#000000" font-family="Roboto" font-size="14" lengthAdjust="spacing" textLength="260.4424" x="1183.5" y="302.207">authn_subject : VARCHAR(255) &#171;UNIQUE&#187;</text><text fill="#000000" font-family="Roboto" font-size="14" lengthAdjust="spacing" textLength="302.5654" x="1183.5" y="318.6133">child_profile_id : UUID &#171;FK child_profile.id, NULL&#187;</text><text fill="#000000" font-family="Roboto" font-size="14" lengthAdjust="spacing" textLength="171.7939" x="1183.5" y="335.0195">created_at : TIMESTAMPTZ</text></g><!--class child_profile--><g id="elem_child_profile"><rect codeLine="34" fill="#FFF3E0" height="195.6563" id="child_profile" rx="4" ry="4" style="stroke:#181818;stroke-width:0.5;" width="315.3721" x="1317.5" y="473.5"/><ellipse cx="1433.0615" cy="489.5" fill="#ADD1B2" rx="11" ry="11" style="stroke:#181818;stroke-width:1.0;"/><path d="M1437.1709,495.5 L1429.4521,495.5 L1429.4521,483.1094 L1437.1709,483.1094 L1437.1709,485.2656 L1431.9053,485.2656 L1431.9053,487.9375 L1436.6709,487.9375 L1436.6709,490.0938 L1431.9053,490.0938 L1431.9053,493.3438 L1437.1709,493.3438 L1437.1709,495.5 Z " fill="#000000"/><text fill="#000000" font-family="Roboto" font-size="14" lengthAdjust="spacing" textLength="75.749" x="1453.5615" y="494.2852">child_profile</text><line style="stroke:#181818;stroke-width:0.5;" x1="1318.5" x2="1631.8721" y1="505.5" y2="505.5"/><ellipse cx="1328.5" cy="519.2031" fill="#000000" rx="3" ry="3" style="stroke:#000000;stroke-width:1.0;"/><text fill="#000000" font-family="Roboto" font-size="14" lengthAdjust="spacing" textLength="87.0078" x="1337.5" y="522.4883">id : UUID &#171;PK&#187;</text><line style="stroke:#181818;stroke-width:1.0;" x1="1318.5" x2="1631.8721" y1="529.9063" y2="529.9063"/><ellipse cx="1328.5" cy="543.6094" fill="#000000" rx="3" ry="3" style="stroke:#000000;stroke-width:1.0;"/><text fill="#000000" font-family="Roboto" font-size="14" lengthAdjust="spacing" textLength="187.0791" x="1337.5" y="546.8945">family_id : UUID &#171;FK family.id&#187;</text><text fill="#000000" font-family="Roboto" font-size="14" lengthAdjust="spacing" textLength="192.5342" x="1337.5" y="563.3008">display_name : VARCHAR(120)</text><text fill="#000000" font-family="Roboto" font-size="14" lengthAdjust="spacing" textLength="289.3721" x="1337.5" y="579.707">age_band : VARCHAR(16) [8-11 | 10-13 | 13-16]</text><text fill="#000000" font-family="Roboto" font-size="14" lengthAdjust="spacing" textLength="248.4521" x="1337.5" y="596.1133">reading_level_cap : FLOAT [default 99.0]</text><text fill="#000000" font-family="Roboto" font-size="14" lengthAdjust="spacing" textLength="193.9287" x="1337.5" y="612.5195">allowed_content_flags : JSONB</text><text fill="#000000" font-family="Roboto" font-size="14" lengthAdjust="spacing" textLength="144.9971" x="1337.5" y="628.9258">tts_enabled : BOOLEAN</text><text fill="#000000" font-family="Roboto" font-size="14" lengthAdjust="spacing" textLength="183.709" x="1337.5" y="645.332">avatar : VARCHAR(255) NULL</text><text fill="#000000" font-family="Roboto" font-size="14" lengthAdjust="spacing" textLength="171.7939" x="1337.5" y="661.7383">created_at : TIMESTAMPTZ</text></g><!--class storybook--><g id="elem_storybook"><rect codeLine="47" fill="#F3E5F5" height="146.4375" id="storybook" rx="4" ry="4" style="stroke:#181818;stroke-width:0.5;" width="688.2588" x="440" y="196"/><ellipse cx="748.8374" cy="212" fill="#ADD1B2" rx="11" ry="11" style="stroke:#181818;stroke-width:1.0;"/><path d="M752.9468,218 L745.228,218 L745.228,205.6094 L752.9468,205.6094 L752.9468,207.7656 L747.6812,207.7656 L747.6812,210.4375 L752.4468,210.4375 L752.4468,212.5938 L747.6812,212.5938 L747.6812,215.8438 L752.9468,215.8438 L752.9468,218 Z " fill="#000000"/><text fill="#000000" font-family="Roboto" font-size="14" lengthAdjust="spacing" textLength="62.084" x="769.3374" y="216.7852">storybook</text><line style="stroke:#181818;stroke-width:0.5;" x1="441" x2="1127.2588" y1="228" y2="228"/><ellipse cx="451" cy="241.7031" fill="#000000" rx="3" ry="3" style="stroke:#000000;stroke-width:1.0;"/><text fill="#000000" font-family="Roboto" font-size="14" lengthAdjust="spacing" textLength="152.6602" x="460" y="244.9883">id : VARCHAR(120) &#171;PK&#187;</text><line style="stroke:#181818;stroke-width:1.0;" x1="441" x2="1127.2588" y1="252.4063" y2="252.4063"/><ellipse cx="451" cy="266.1094" fill="#000000" rx="3" ry="3" style="stroke:#000000;stroke-width:1.0;"/><text fill="#000000" font-family="Roboto" font-size="14" lengthAdjust="spacing" textLength="187.0791" x="460" y="269.3945">family_id : UUID &#171;FK family.id&#187;</text><text fill="#000000" font-family="Roboto" font-size="14" lengthAdjust="spacing" textLength="232.8047" x="460" y="285.8008">current_published_version : INT NULL</text><text fill="#000000" font-family="Roboto" font-size="14" lengthAdjust="spacing" textLength="662.2588" x="460" y="302.207">status : VARCHAR(20) [draft|generating|auto_check|in_review|approved|published|archived|needs_revision]</text><text fill="#000000" font-family="Roboto" font-size="14" lengthAdjust="spacing" textLength="228.375" x="460" y="318.6133">created_by : UUID &#171;FK user.id, NULL&#187;</text><text fill="#000000" font-family="Roboto" font-size="14" lengthAdjust="spacing" textLength="171.7939" x="460" y="335.0195">created_at : TIMESTAMPTZ</text></g><!--class storybook_version--><g id="elem_storybook_version"><rect codeLine="57" fill="#F3E5F5" height="228.4688" id="storybook_version" rx="4" ry="4" style="stroke:#181818;stroke-width:0.5;" width="350.3584" x="932" y="457.5"/><ellipse cx="1046.0815" cy="473.5" fill="#ADD1B2" rx="11" ry="11" style="stroke:#181818;stroke-width:1.0;"/><path d="M1050.1909,479.5 L1042.4722,479.5 L1042.4722,467.1094 L1050.1909,467.1094 L1050.1909,469.2656 L1044.9253,469.2656 L1044.9253,471.9375 L1049.6909,471.9375 L1049.6909,474.0938 L1044.9253,474.0938 L1044.9253,477.3438 L1050.1909,477.3438 L1050.1909,479.5 Z " fill="#000000"/><text fill="#000000" font-family="Roboto" font-size="14" lengthAdjust="spacing" textLength="113.6953" x="1066.5815" y="478.2852">storybook_version</text><line style="stroke:#181818;stroke-width:0.5;" x1="933" x2="1281.3584" y1="489.5" y2="489.5"/><ellipse cx="943" cy="503.2031" fill="#000000" rx="3" ry="3" style="stroke:#000000;stroke-width:1.0;"/><text fill="#000000" font-family="Roboto" font-size="14" lengthAdjust="spacing" textLength="324.3584" x="952" y="506.4883">storybook_id : VARCHAR(120) &#171;PK, FK storybook.id&#187;</text><ellipse cx="943" cy="519.6094" fill="#000000" rx="3" ry="3" style="stroke:#000000;stroke-width:1.0;"/><text fill="#000000" font-family="Roboto" font-size="14" lengthAdjust="spacing" textLength="112" x="952" y="522.8945">version : INT &#171;PK&#187;</text><line style="stroke:#181818;stroke-width:1.0;" x1="933" x2="1281.3584" y1="530.3125" y2="530.3125"/><text fill="#000000" font-family="Roboto" font-size="14" lengthAdjust="spacing" textLength="245.8545" x="938" y="547.3008">blob : JSONB [Storybook JSON content]</text><text fill="#000000" font-family="Roboto" font-size="14" lengthAdjust="spacing" textLength="323.9072" x="938" y="563.707">blob_ref : VARCHAR(512) NULL [MinIO key, Phase 5]</text><text fill="#000000" font-family="Roboto" font-size="14" lengthAdjust="spacing" textLength="196.4033" x="938" y="580.1133">validation_report : JSONB NULL</text><text fill="#000000" font-family="Roboto" font-size="14" lengthAdjust="spacing" textLength="207.6279" x="938" y="596.5195">moderation_report : JSONB NULL</text><text fill="#000000" font-family="Roboto" font-size="14" lengthAdjust="spacing" textLength="239.5313" x="938" y="612.9258">approved_by : UUID &#171;FK user.id, NULL&#187;</text><text fill="#000000" font-family="Roboto" font-size="14" lengthAdjust="spacing" textLength="222.9063" x="938" y="629.332">published_at : TIMESTAMPTZ NULL</text><text fill="#000000" font-family="Roboto" font-size="14" lengthAdjust="spacing" textLength="279.1729" x="938" y="645.7383">model : VARCHAR(120) NULL [LLM model id]</text><text fill="#000000" font-family="Roboto" font-size="14" lengthAdjust="spacing" textLength="241.6777" x="938" y="662.1445">prompt_version : VARCHAR(120) NULL</text><text fill="#000000" font-family="Roboto" font-size="14" lengthAdjust="spacing" textLength="171.7939" x="938" y="678.5508">created_at : TIMESTAMPTZ</text></g><!--class reading_state--><g id="elem_reading_state"><rect codeLine="72" fill="#E0F7FA" height="277.6875" id="reading_state" rx="4" ry="4" style="stroke:#181818;stroke-width:0.5;" width="386.7393" x="778.5" y="786"/><ellipse cx="925.4111" cy="802" fill="#ADD1B2" rx="11" ry="11" style="stroke:#181818;stroke-width:1.0;"/><path d="M929.5205,808 L921.8018,808 L921.8018,795.6094 L929.5205,795.6094 L929.5205,797.7656 L924.2549,797.7656 L924.2549,800.4375 L929.0205,800.4375 L929.0205,802.5938 L924.2549,802.5938 L924.2549,805.8438 L929.5205,805.8438 L929.5205,808 Z " fill="#000000"/><text fill="#000000" font-family="Roboto" font-size="14" lengthAdjust="spacing" textLength="84.417" x="945.9111" y="806.7852">reading_state</text><line style="stroke:#181818;stroke-width:0.5;" x1="779.5" x2="1164.2393" y1="818" y2="818"/><ellipse cx="789.5" cy="831.7031" fill="#000000" rx="3" ry="3" style="stroke:#000000;stroke-width:1.0;"/><text fill="#000000" font-family="Roboto" font-size="14" lengthAdjust="spacing" textLength="286.0361" x="798.5" y="834.9883">child_profile_id : UUID &#171;PK, FK child_profile.id&#187;</text><ellipse cx="789.5" cy="848.1094" fill="#000000" rx="3" ry="3" style="stroke:#000000;stroke-width:1.0;"/><text fill="#000000" font-family="Roboto" font-size="14" lengthAdjust="spacing" textLength="324.3584" x="798.5" y="851.3945">storybook_id : VARCHAR(120) &#171;PK, FK storybook.id&#187;</text><line style="stroke:#181818;stroke-width:1.0;" x1="779.5" x2="1164.2393" y1="858.8125" y2="858.8125"/><text fill="#000000" font-family="Roboto" font-size="14" lengthAdjust="spacing" textLength="374.7393" x="784.5" y="875.8008">version : INT [pinned to storybook_version via composite FK]</text><text fill="#000000" font-family="Roboto" font-size="14" lengthAdjust="spacing" textLength="188.7607" x="784.5" y="892.207">current_node : VARCHAR(120)</text><text fill="#000000" font-family="Roboto" font-size="14" lengthAdjust="spacing" textLength="111.5967" x="784.5" y="908.6133">var_state : JSONB</text><text fill="#000000" font-family="Roboto" font-size="14" lengthAdjust="spacing" textLength="82.4824" x="784.5" y="925.0195">path : JSONB</text><text fill="#000000" font-family="Roboto" font-size="14" lengthAdjust="spacing" textLength="263.0127" x="784.5" y="941.4258">visit_set : JSONB [drives once:true effects]</text><text fill="#000000" font-family="Roboto" font-size="14" lengthAdjust="spacing" textLength="120.4971" x="784.5" y="957.832">save_slots : JSONB</text><text fill="#000000" font-family="Roboto" font-size="14" lengthAdjust="spacing" textLength="295.9004" x="784.5" y="974.2383">state_revision : INT [server-owned OCC counter]</text><text fill="#000000" font-family="Roboto" font-size="14" lengthAdjust="spacing" textLength="333.6348" x="784.5" y="990.6445">last_event_id : VARCHAR(64) NULL [idempotency key]</text><text fill="#000000" font-family="Roboto" font-size="14" lengthAdjust="spacing" textLength="272.8701" x="784.5" y="1007.0508">updated_by_device_id : VARCHAR(64) NULL</text><text fill="#000000" font-family="Roboto" font-size="14" lengthAdjust="spacing" textLength="235.7715" x="784.5" y="1023.457">last_synced_at : TIMESTAMPTZ NULL</text><text fill="#000000" font-family="Roboto" font-size="14" lengthAdjust="spacing" textLength="171.7939" x="784.5" y="1039.8633">created_at : TIMESTAMPTZ</text><text fill="#000000" font-family="Roboto" font-size="14" lengthAdjust="spacing" textLength="175.7725" x="784.5" y="1056.2695">updated_at : TIMESTAMPTZ</text></g><!--class completion--><g id="elem_completion"><rect codeLine="90" fill="#DCEDC8" height="130.0313" id="completion" rx="4" ry="4" style="stroke:#181818;stroke-width:0.5;" width="312.0361" x="1260" y="860"/><ellipse cx="1376.7783" cy="876" fill="#ADD1B2" rx="11" ry="11" style="stroke:#181818;stroke-width:1.0;"/><path d="M1380.8877,882 L1373.1689,882 L1373.1689,869.6094 L1380.8877,869.6094 L1380.8877,871.7656 L1375.6221,871.7656 L1375.6221,874.4375 L1380.3877,874.4375 L1380.3877,876.5938 L1375.6221,876.5938 L1375.6221,879.8438 L1380.8877,879.8438 L1380.8877,882 Z " fill="#000000"/><text fill="#000000" font-family="Roboto" font-size="14" lengthAdjust="spacing" textLength="69.9795" x="1397.2783" y="880.7852">completion</text><line style="stroke:#181818;stroke-width:0.5;" x1="1261" x2="1571.0361" y1="892" y2="892"/><ellipse cx="1271" cy="905.7031" fill="#000000" rx="3" ry="3" style="stroke:#000000;stroke-width:1.0;"/><text fill="#000000" font-family="Roboto" font-size="14" lengthAdjust="spacing" textLength="286.0361" x="1280" y="908.9883">child_profile_id : UUID &#171;PK, FK child_profile.id&#187;</text><ellipse cx="1271" cy="922.1094" fill="#000000" rx="3" ry="3" style="stroke:#000000;stroke-width:1.0;"/><text fill="#000000" font-family="Roboto" font-size="14" lengthAdjust="spacing" textLength="221.0605" x="1280" y="925.3945">storybook_id : VARCHAR(120) &#171;PK&#187;</text><ellipse cx="1271" cy="938.5156" fill="#000000" rx="3" ry="3" style="stroke:#000000;stroke-width:1.0;"/><text fill="#000000" font-family="Roboto" font-size="14" lengthAdjust="spacing" textLength="112" x="1280" y="941.8008">version : INT &#171;PK&#187;</text><ellipse cx="1271" cy="954.9219" fill="#000000" rx="3" ry="3" style="stroke:#000000;stroke-width:1.0;"/><text fill="#000000" font-family="Roboto" font-size="14" lengthAdjust="spacing" textLength="201.0244" x="1280" y="958.207">ending_id : VARCHAR(120) &#171;PK&#187;</text><line style="stroke:#181818;stroke-width:1.0;" x1="1261" x2="1571.0361" y1="965.625" y2="965.625"/><text fill="#000000" font-family="Roboto" font-size="14" lengthAdjust="spacing" textLength="160.9795" x="1266" y="982.6133">found_at : TIMESTAMPTZ</text></g><!--class concept--><g id="elem_concept"><rect codeLine="99" fill="#FFF8E1" height="130.0313" id="concept" rx="4" ry="4" style="stroke:#181818;stroke-width:0.5;" width="254.375" x="139" y="204"/><ellipse cx="236.8188" cy="220" fill="#ADD1B2" rx="11" ry="11" style="stroke:#181818;stroke-width:1.0;"/><path d="M240.9282,226 L233.2095,226 L233.2095,213.6094 L240.9282,213.6094 L240.9282,215.7656 L235.6626,215.7656 L235.6626,218.4375 L240.4282,218.4375 L240.4282,220.5938 L235.6626,220.5938 L235.6626,223.8438 L240.9282,223.8438 L240.9282,226 Z " fill="#000000"/><text fill="#000000" font-family="Roboto" font-size="14" lengthAdjust="spacing" textLength="50.2373" x="257.3188" y="224.7852">concept</text><line style="stroke:#181818;stroke-width:0.5;" x1="140" x2="392.375" y1="236" y2="236"/><ellipse cx="150" cy="249.7031" fill="#000000" rx="3" ry="3" style="stroke:#000000;stroke-width:1.0;"/><text fill="#000000" font-family="Roboto" font-size="14" lengthAdjust="spacing" textLength="87.0078" x="159" y="252.9883">id : UUID &#171;PK&#187;</text><line style="stroke:#181818;stroke-width:1.0;" x1="140" x2="392.375" y1="260.4063" y2="260.4063"/><ellipse cx="150" cy="274.1094" fill="#000000" rx="3" ry="3" style="stroke:#000000;stroke-width:1.0;"/><text fill="#000000" font-family="Roboto" font-size="14" lengthAdjust="spacing" textLength="187.0791" x="159" y="277.3945">family_id : UUID &#171;FK family.id&#187;</text><text fill="#000000" font-family="Roboto" font-size="14" lengthAdjust="spacing" textLength="227.5684" x="159" y="293.8008">brief : JSONB [ConceptBrief payload]</text><text fill="#000000" font-family="Roboto" font-size="14" lengthAdjust="spacing" textLength="228.375" x="159" y="310.207">created_by : UUID &#171;FK user.id, NULL&#187;</text><text fill="#000000" font-family="Roboto" font-size="14" lengthAdjust="spacing" textLength="171.7939" x="159" y="326.6133">created_at : TIMESTAMPTZ</text></g><!--class generation_job--><g id="elem_generation_job"><rect codeLine="108" fill="#FFEBEE" height="244.875" id="generation_job" rx="4" ry="4" style="stroke:#181818;stroke-width:0.5;" width="446.0137" x="7" y="449"/><ellipse cx="179.751" cy="465" fill="#ADD1B2" rx="11" ry="11" style="stroke:#181818;stroke-width:1.0;"/><path d="M183.8604,471 L176.1416,471 L176.1416,458.6094 L183.8604,458.6094 L183.8604,460.7656 L178.5947,460.7656 L178.5947,463.4375 L183.3604,463.4375 L183.3604,465.5938 L178.5947,465.5938 L178.5947,468.8438 L183.8604,468.8438 L183.8604,471 Z " fill="#000000"/><text fill="#000000" font-family="Roboto" font-size="14" lengthAdjust="spacing" textLength="92.0117" x="200.251" y="469.7852">generation_job</text><line style="stroke:#181818;stroke-width:0.5;" x1="8" x2="452.0137" y1="481" y2="481"/><ellipse cx="18" cy="494.7031" fill="#000000" rx="3" ry="3" style="stroke:#000000;stroke-width:1.0;"/><text fill="#000000" font-family="Roboto" font-size="14" lengthAdjust="spacing" textLength="87.0078" x="27" y="497.9883">id : UUID &#171;PK&#187;</text><line style="stroke:#181818;stroke-width:1.0;" x1="8" x2="452.0137" y1="505.4063" y2="505.4063"/><ellipse cx="18" cy="519.1094" fill="#000000" rx="3" ry="3" style="stroke:#000000;stroke-width:1.0;"/><text fill="#000000" font-family="Roboto" font-size="14" lengthAdjust="spacing" textLength="211.1689" x="27" y="522.3945">concept_id : UUID &#171;FK concept.id&#187;</text><text fill="#000000" font-family="Roboto" font-size="14" lengthAdjust="spacing" textLength="420.0137" x="27" y="538.8008">status : VARCHAR(20) [queued|running|passed|needs_review|failed]</text><text fill="#000000" font-family="Roboto" font-size="14" lengthAdjust="spacing" textLength="183.7432" x="27" y="555.207">model : VARCHAR(120) NULL</text><text fill="#000000" font-family="Roboto" font-size="14" lengthAdjust="spacing" textLength="195.5967" x="27" y="571.6133">provider : VARCHAR(120) NULL</text><text fill="#000000" font-family="Roboto" font-size="14" lengthAdjust="spacing" textLength="241.6777" x="27" y="588.0195">prompt_version : VARCHAR(120) NULL</text><text fill="#000000" font-family="Roboto" font-size="14" lengthAdjust="spacing" textLength="304.8145" x="27" y="604.4258">report : JSONB NULL [GenerationOutcome JSON]</text><text fill="#000000" font-family="Roboto" font-size="14" lengthAdjust="spacing" textLength="342.8154" x="27" y="620.832">storybook_id : VARCHAR(120) NULL [NOT FK, see note]</text><text fill="#000000" font-family="Roboto" font-size="14" lengthAdjust="spacing" textLength="115.3975" x="27" y="637.2383">version : INT NULL</text><text fill="#000000" font-family="Roboto" font-size="14" lengthAdjust="spacing" textLength="174.3984" x="27" y="653.6445">error : VARCHAR(512) NULL</text><text fill="#000000" font-family="Roboto" font-size="14" lengthAdjust="spacing" textLength="171.7939" x="27" y="670.0508">created_at : TIMESTAMPTZ</text><text fill="#000000" font-family="Roboto" font-size="14" lengthAdjust="spacing" textLength="175.7725" x="27" y="686.457">updated_at : TIMESTAMPTZ</text></g><g id="elem_GMN23"><path d="M488.5,517 L488.5,567.5 L453.18,571.5 L488.5,575.5 L488.5,625.6406 A4,4 0 0 0 492.5,629.6406 L709.1646,629.6406 A4,4 0 0 0 713.1646,625.6406 L713.1646,523 L703.1646,513 L492.5,513 A4,4 0 0 0 488.5,517 " fill="#FEFFDD" style="stroke:#181818;stroke-width:0.5;"/><path d="M703.1646,513 L703.1646,521 A2,2 0 0 0 705.1646,523 L713.1646,523 L703.1646,513 " fill="#FEFFDD" style="stroke:#181818;stroke-width:0.5;"/><text fill="#000000" font-family="Roboto" font-size="13" lengthAdjust="spacing" textLength="196.9805" x="494.5" y="530.0605">storybook_id is NOT a foreign key.</text><text fill="#000000" font-family="Roboto" font-size="13" lengthAdjust="spacing" textLength="203.6646" x="494.5" y="545.2949">A job may fail before any storybook</text><text fill="#000000" font-family="Roboto" font-size="13" lengthAdjust="spacing" textLength="192.353" x="494.5" y="560.5293">row exists; a hard FK would block</text><text fill="#000000" font-family="Roboto" font-size="13" lengthAdjust="spacing" textLength="155.2827" x="494.5" y="575.7637">inserting the failure record.</text><text fill="#000000" font-family="Roboto" font-size="13" lengthAdjust="spacing" textLength="162.9888" x="494.5" y="590.998">Application layer verifies the</text><text fill="#000000" font-family="Roboto" font-size="13" lengthAdjust="spacing" textLength="200.6558" x="494.5" y="606.2324">storybook row exists when reading</text><text fill="#000000" font-family="Roboto" font-size="13" lengthAdjust="spacing" textLength="53.0029" x="494.5" y="621.4668">this field.</text></g><g id="elem_GMN26"><path d="M853.5,1129 L853.5,1191.9375 A4,4 0 0 0 857.5,1195.9375 L1086.1235,1195.9375 A4,4 0 0 0 1090.1235,1191.9375 L1090.1235,1135 L1080.1235,1125 L976,1125 L972,1064.19 L968,1125 L857.5,1125 A4,4 0 0 0 853.5,1129 " fill="#FEFFDD" style="stroke:#181818;stroke-width:0.5;"/><path d="M1080.1235,1125 L1080.1235,1133 A2,2 0 0 0 1082.1235,1135 L1090.1235,1135 L1080.1235,1125 " fill="#FEFFDD" style="stroke:#181818;stroke-width:0.5;"/><text fill="#000000" font-family="Roboto" font-size="13" lengthAdjust="spacing" textLength="215.6235" x="859.5" y="1142.0605">Composite FK (storybook_id, version)</text><text fill="#000000" font-family="Roboto" font-size="13" lengthAdjust="spacing" textLength="199.9131" x="859.5" y="1157.2949">references storybook_version (pk).</text><text fill="#000000" font-family="Roboto" font-size="13" lengthAdjust="spacing" textLength="199.3228" x="859.5" y="1172.5293">Prevents saving state for a version</text><text fill="#000000" font-family="Roboto" font-size="13" lengthAdjust="spacing" textLength="110.5" x="859.5" y="1187.7637">that does not exist.</text></g><!--link family to user_t--><g id="link_family_user_t"><path codeLine="125" d="M1175.5927,109.9892 C1201.6727,137.0392 1216.7953,152.703 1245.9853,182.973 " fill="none" id="family-user_t" style="stroke:#181818;stroke-width:1.0;"/><line style="stroke:#181818;stroke-width:1.0;" x1="1169.9367" x2="1175.6959" y1="109.8859" y2="104.3333"/><line style="stroke:#181818;stroke-width:1.0;" x1="1172.019" x2="1177.7782" y1="112.0456" y2="106.493"/><line style="stroke:#181818;stroke-width:1.0;" x1="1175.5927" x2="1170.04" y1="109.9892" y2="104.23"/><line style="stroke:#181818;stroke-width:1.0;" x1="1252.9268" x2="1262.799" y1="190.1713" y2="191.7651"/><line style="stroke:#181818;stroke-width:1.0;" x1="1252.9268" x2="1254.161" y1="190.1713" y2="200.0949"/><line style="stroke:#181818;stroke-width:1.0;" x1="1252.9268" x2="1258.48" y1="190.1713" y2="195.93"/><ellipse cx="1248.7619" cy="185.8524" fill="none" rx="4" ry="4" style="stroke:#181818;stroke-width:1.0;"/><text fill="#000000" font-family="Roboto" font-size="13" lengthAdjust="spacing" textLength="45.9951" x="1249.5405" y="147.0605">1 family</text><text fill="#000000" font-family="Roboto" font-size="13" lengthAdjust="spacing" textLength="91.0762" x="1227" y="162.2949">has many users</text></g><!--link family to child_profile--><g id="link_family_child_profile"><path codeLine="126" d="M1224.0474,63.6785 C1314.1174,75.0085 1439.72,106 1510,196 C1570.89,273.97 1553.4769,373.859 1524.1969,456.259 " fill="none" id="family-child_profile" style="stroke:#181818;stroke-width:1.0;"/><line style="stroke:#181818;stroke-width:1.0;" x1="1219.5795" x2="1220.578" y1="67.148" y2="59.2105"/><line style="stroke:#181818;stroke-width:1.0;" x1="1222.556" x2="1223.5545" y1="67.5224" y2="59.5849"/><line style="stroke:#181818;stroke-width:1.0;" x1="1224.0474" x2="1216.11" y1="63.6785" y2="62.68"/><line style="stroke:#181818;stroke-width:1.0;" x1="1520.8486" x2="1523.8237" y1="465.6818" y2="475.229"/><line style="stroke:#181818;stroke-width:1.0;" x1="1520.8486" x2="1512.5163" y1="465.6818" y2="471.211"/><line style="stroke:#181818;stroke-width:1.0;" x1="1520.8486" x2="1518.17" y1="465.6818" y2="473.22"/><ellipse cx="1522.8576" cy="460.0281" fill="none" rx="4" ry="4" style="stroke:#181818;stroke-width:1.0;"/><text fill="#000000" font-family="Roboto" font-size="13" lengthAdjust="spacing" textLength="45.9951" x="1578.3804" y="266.0605">1 family</text><text fill="#000000" font-family="Roboto" font-size="13" lengthAdjust="spacing" textLength="102.7559" x="1550" y="281.2949">has many profiles</text></g><!--link family to storybook--><g id="link_family_storybook"><path codeLine="127" d="M1040.4773,108.4559 C996.9973,135.5059 963.8041,156.1522 915.1441,186.4222 " fill="none" id="family-storybook" style="stroke:#181818;stroke-width:1.0;"/><line style="stroke:#181818;stroke-width:1.0;" x1="1041.7607" x2="1045.9866" y1="102.9466" y2="109.7393"/><line style="stroke:#181818;stroke-width:1.0;" x1="1039.2134" x2="1043.4393" y1="104.5313" y2="111.3241"/><line style="stroke:#181818;stroke-width:1.0;" x1="1040.4773" x2="1047.27" y1="108.4559" y2="104.23"/><line style="stroke:#181818;stroke-width:1.0;" x1="906.6529" x2="903.0293" y1="191.7043" y2="201.0247"/><line style="stroke:#181818;stroke-width:1.0;" x1="906.6529" x2="896.6907" y1="191.7043" y2="190.8353"/><line style="stroke:#181818;stroke-width:1.0;" x1="906.6529" x2="899.86" y1="191.7043" y2="195.93"/><ellipse cx="911.7476" cy="188.5351" fill="none" rx="4" ry="4" style="stroke:#181818;stroke-width:1.0;"/><text fill="#000000" font-family="Roboto" font-size="13" lengthAdjust="spacing" textLength="45.9951" x="1034.7778" y="147.0605">1 family</text><text fill="#000000" font-family="Roboto" font-size="13" lengthAdjust="spacing" textLength="123.5508" x="996" y="162.2949">has many storybooks</text></g><!--link family to concept--><g id="link_family_concept"><path codeLine="128" d="M1024.0004,68.7888 C888.1504,86.9288 635,126.76 422,196 C412.5,199.09 419.5724,196.0408 409.9124,199.8208 " fill="none" id="family-concept" style="stroke:#181818;stroke-width:1.0;"/><line style="stroke:#181818;stroke-width:1.0;" x1="1027.4358" x2="1028.4946" y1="64.2946" y2="72.2242"/><line style="stroke:#181818;stroke-width:1.0;" x1="1024.4622" x2="1025.521" y1="64.6917" y2="72.6213"/><line style="stroke:#181818;stroke-width:1.0;" x1="1024.0004" x2="1031.93" y1="68.7888" y2="67.73"/><line style="stroke:#181818;stroke-width:1.0;" x1="400.5999" x2="395.3364" y1="203.4648" y2="211.9675"/><line style="stroke:#181818;stroke-width:1.0;" x1="400.5999" x2="390.9636" y1="203.4648" y2="200.7925"/><line style="stroke:#181818;stroke-width:1.0;" x1="400.5999" x2="393.15" y1="203.4648" y2="206.38"/><ellipse cx="406.1874" cy="201.2784" fill="none" rx="4" ry="4" style="stroke:#181818;stroke-width:1.0;"/><text fill="#000000" font-family="Roboto" font-size="13" lengthAdjust="spacing" textLength="45.9951" x="684.2776" y="147.0605">1 family</text><text fill="#000000" font-family="Roboto" font-size="13" lengthAdjust="spacing" textLength="112.5503" x="651" y="162.2949">has many concepts</text></g><!--link user_t to child_profile--><g id="link_user_t_child_profile"><path codeLine="129" d="M1371.3081,358.5298 C1390.5481,397.8698 1400.1071,417.4065 1420.9571,460.0165 " fill="none" id="user_t-child_profile" style="stroke:#181818;stroke-width:1.0;"/><line style="stroke:#181818;stroke-width:1.0;" x1="1366.9147" x2="1358.0101" y1="349.5466" y2="344.996"/><line style="stroke:#181818;stroke-width:1.0;" x1="1366.9147" x2="1368.7899" y1="349.5466" y2="339.724"/><line style="stroke:#181818;stroke-width:1.0;" x1="1366.9147" x2="1363.4" y1="349.5466" y2="342.36"/><ellipse cx="1369.5508" cy="354.9365" fill="none" rx="4" ry="4" style="stroke:#181818;stroke-width:1.0;"/><line style="stroke:#181818;stroke-width:1.0;" x1="1422.7152" x2="1427.55" y1="463.6095" y2="473.49"/><ellipse cx="1422.7152" cy="463.6095" fill="none" rx="4" ry="4" style="stroke:#181818;stroke-width:1.0;"/><line style="stroke:#181818;stroke-width:1.0;" x1="1429.3848" x2="1422.199" y1="468.139" y2="471.6552"/><text fill="#000000" font-family="Roboto" font-size="13" lengthAdjust="spacing" textLength="56.0181" x="1431.4238" y="385.0605">child user</text><text fill="#000000" font-family="Roboto" font-size="13" lengthAdjust="spacing" textLength="117.8569" x="1400.5044" y="400.2949">assigned to 1 profile</text><text fill="#000000" font-family="Roboto" font-size="13" lengthAdjust="spacing" textLength="120.8657" x="1399" y="415.5293">(NULL for guardians)</text></g><!--link storybook to storybook_version--><g id="link_storybook_storybook_version"><path codeLine="130" d="M867.6371,347.8092 C904.6871,382.2792 938.1526,413.4211 979.5926,451.9711 " fill="none" id="storybook-storybook_version" style="stroke:#181818;stroke-width:1.0;"/><line style="stroke:#181818;stroke-width:1.0;" x1="861.9839" x2="867.4332" y1="348.0132" y2="342.1561"/><line style="stroke:#181818;stroke-width:1.0;" x1="864.1803" x2="869.6296" y1="350.0566" y2="344.1995"/><line style="stroke:#181818;stroke-width:1.0;" x1="867.6371" x2="861.78" y1="347.8092" y2="342.36"/><line style="stroke:#181818;stroke-width:1.0;" x1="979.5926" x2="989.5367" y1="451.9711" y2="453.0269"/><line style="stroke:#181818;stroke-width:1.0;" x1="979.5926" x2="981.3633" y1="451.9711" y2="461.8131"/><line style="stroke:#181818;stroke-width:1.0;" x1="979.5926" x2="985.45" y1="451.9711" y2="457.42"/><line style="stroke:#181818;stroke-width:1.0;" x1="980.8527" x2="975.4038" y1="447.6801" y2="453.5376"/><text fill="#000000" font-family="Roboto" font-size="13" lengthAdjust="spacing" textLength="68.1802" x="937" y="392.5605">1 storybook</text><text fill="#000000" font-family="Roboto" font-size="13" lengthAdjust="spacing" textLength="66.6758" x="937.7522" y="407.7949">1+ versions</text></g><!--link child_profile to reading_state--><g id="link_child_profile_reading_state"><path codeLine="131" d="M1373.8118,675.1502 C1342.4918,704.6002 1312.43,730.41 1277,756 C1242.33,781.04 1219.1562,796.1532 1181.1562,817.8232 " fill="none" id="child_profile-reading_state" style="stroke:#181818;stroke-width:1.0;"/><line style="stroke:#181818;stroke-width:1.0;" x1="1373.9858" x2="1379.466" y1="669.496" y2="675.3242"/><line style="stroke:#181818;stroke-width:1.0;" x1="1371.8003" x2="1377.2804" y1="671.5511" y2="677.3792"/><line style="stroke:#181818;stroke-width:1.0;" x1="1373.8118" x2="1379.64" y1="675.1502" y2="669.67"/><line style="stroke:#181818;stroke-width:1.0;" x1="1172.4694" x2="1168.4923" y1="822.777" y2="831.9521"/><line style="stroke:#181818;stroke-width:1.0;" x1="1172.4694" x2="1162.5477" y1="822.777" y2="821.5279"/><line style="stroke:#181818;stroke-width:1.0;" x1="1172.4694" x2="1165.52" y1="822.777" y2="826.74"/><ellipse cx="1177.6815" cy="819.8047" fill="none" rx="4" ry="4" style="stroke:#181818;stroke-width:1.0;"/><text fill="#000000" font-family="Roboto" font-size="13" lengthAdjust="spacing" textLength="47.3853" x="1354.0486" y="737.0605">1 profile</text><text fill="#000000" font-family="Roboto" font-size="13" lengthAdjust="spacing" textLength="117.4824" x="1319" y="752.2949">many reading states</text></g><!--link storybook to reading_state--><g id="link_storybook_reading_state"><path codeLine="132" d="M773.4464,350.1485 C764.6164,436.5185 759.39,576.26 801,694 C812.32,726.02 819.6328,742.4223 839.1228,771.1023 " fill="none" id="storybook-reading_state" style="stroke:#181818;stroke-width:1.0;"/><line style="stroke:#181818;stroke-width:1.0;" x1="769.8739" x2="777.8324" y1="345.7624" y2="346.5761"/><line style="stroke:#181818;stroke-width:1.0;" x1="769.5688" x2="777.5273" y1="348.7469" y2="349.5605"/><line style="stroke:#181818;stroke-width:1.0;" x1="773.4464" x2="774.26" y1="350.1485" y2="342.19"/><line style="stroke:#181818;stroke-width:1.0;" x1="844.7435" x2="854.2026" y1="779.3733" y2="782.6176"/><line style="stroke:#181818;stroke-width:1.0;" x1="844.7435" x2="844.2774" y1="779.3733" y2="789.3624"/><line style="stroke:#181818;stroke-width:1.0;" x1="844.7435" x2="849.24" y1="779.3733" y2="785.99"/><ellipse cx="841.3711" cy="774.4107" fill="none" rx="4" ry="4" style="stroke:#181818;stroke-width:1.0;"/><text fill="#000000" font-family="Roboto" font-size="13" lengthAdjust="spacing" textLength="39.4634" x="837.8389" y="568.5605">1 story</text><text fill="#000000" font-family="Roboto" font-size="13" lengthAdjust="spacing" textLength="111.1411" x="802" y="583.7949">many reader states</text></g><!--link storybook_version to reading_state--><g id="link_storybook_version_reading_state"><path codeLine="133" d="M984.6445,692.4108 C976.6545,704.6008 974.14,710.73 969,724 C961.48,743.43 958.8844,746.7824 957.4244,768.0224 " fill="none" id="storybook_version-reading_state" style="stroke:#181818;stroke-width:1.0;"/><line style="stroke:#181818;stroke-width:1.0;" x1="983.4918" x2="990.1826" y1="686.8726" y2="691.2582"/><line style="stroke:#181818;stroke-width:1.0;" x1="981.8472" x2="988.5381" y1="689.3817" y2="693.7672"/><line style="stroke:#181818;stroke-width:1.0;" x1="984.6445" x2="989.03" y1="692.4108" y2="685.72"/><line style="stroke:#181818;stroke-width:1.0;" x1="956.7386" x2="962.1759" y1="777.9988" y2="786.3915"/><line style="stroke:#181818;stroke-width:1.0;" x1="956.7386" x2="950.2041" y1="777.9988" y2="785.5685"/><line style="stroke:#181818;stroke-width:1.0;" x1="956.7386" x2="956.19" y1="777.9988" y2="785.98"/><ellipse cx="957.1501" cy="772.013" fill="none" rx="4" ry="4" style="stroke:#181818;stroke-width:1.0;"/><text fill="#000000" font-family="Roboto" font-size="13" lengthAdjust="spacing" textLength="130.8252" x="970" y="737.0605">(storybook_id, version)</text><text fill="#000000" font-family="Roboto" font-size="13" lengthAdjust="spacing" textLength="79.917" x="995.4541" y="752.2949">composite FK</text></g><!--link child_profile to completion--><g id="link_child_profile_completion"><path codeLine="134" d="M1457.3155,677.8396 C1447.1355,738.4796 1438.6403,789.1284 1429.7303,842.1984 " fill="none" id="child_profile-completion" style="stroke:#181818;stroke-width:1.0;"/><line style="stroke:#181818;stroke-width:1.0;" x1="1454.033" x2="1461.9226" y1="673.2326" y2="674.557"/><line style="stroke:#181818;stroke-width:1.0;" x1="1453.5363" x2="1461.4259" y1="676.1912" y2="677.5156"/><line style="stroke:#181818;stroke-width:1.0;" x1="1457.3155" x2="1458.64" y1="677.8396" y2="669.95"/><line style="stroke:#181818;stroke-width:1.0;" x1="1428.0746" x2="1432.6672" y1="852.0604" y2="860.9434"/><line style="stroke:#181818;stroke-width:1.0;" x1="1428.0746" x2="1420.8328" y1="852.0604" y2="858.9566"/><line style="stroke:#181818;stroke-width:1.0;" x1="1428.0746" x2="1426.75" y1="852.0604" y2="859.95"/><ellipse cx="1429.068" cy="846.1432" fill="none" rx="4" ry="4" style="stroke:#181818;stroke-width:1.0;"/><text fill="#000000" font-family="Roboto" font-size="13" lengthAdjust="spacing" textLength="47.3853" x="1480.6658" y="737.0605">1 profile</text><text fill="#000000" font-family="Roboto" font-size="13" lengthAdjust="spacing" textLength="106.7168" x="1451" y="752.2949">many completions</text></g><!--link storybook_version to completion--><g id="link_storybook_version_completion"><path codeLine="135" d="M1114.4311,693.3856 C1119.6911,718.1656 1126.76,735.32 1141,756 C1146.69,764.27 1216.918,806.885 1291.158,850.805 " fill="none" id="storybook_version-completion" style="stroke:#181818;stroke-width:1.0;"/><line style="stroke:#181818;stroke-width:1.0;" x1="1109.6877" x2="1117.5134" y1="690.3034" y2="688.6423"/><line style="stroke:#181818;stroke-width:1.0;" x1="1110.3107" x2="1118.1363" y1="693.238" y2="691.5769"/><line style="stroke:#181818;stroke-width:1.0;" x1="1114.4311" x2="1112.77" y1="693.3856" y2="685.56"/><line style="stroke:#181818;stroke-width:1.0;" x1="1299.7647" x2="1309.705" y1="855.8967" y2="854.806"/><line style="stroke:#181818;stroke-width:1.0;" x1="1299.7647" x2="1303.595" y1="855.8967" y2="865.134"/><line style="stroke:#181818;stroke-width:1.0;" x1="1299.7647" x2="1306.65" y1="855.8967" y2="859.97"/><ellipse cx="1294.6006" cy="852.8417" fill="none" rx="4" ry="4" style="stroke:#181818;stroke-width:1.0;"/><text fill="#000000" font-family="Roboto" font-size="13" lengthAdjust="spacing" textLength="130.8252" x="1142" y="737.0605">(storybook_id, version)</text><text fill="#000000" font-family="Roboto" font-size="13" lengthAdjust="spacing" textLength="79.917" x="1167.4541" y="752.2949">composite FK</text></g><!--link concept to generation_job--><g id="link_concept_generation_job"><path codeLine="136" d="M257.3698,342.0434 C253.3698,375.4834 251.4209,391.7078 246.7109,431.0278 " fill="none" id="concept-generation_job" style="stroke:#181818;stroke-width:1.0;"/><line style="stroke:#181818;stroke-width:1.0;" x1="253.8732" x2="261.8166" y1="337.5966" y2="338.5468"/><line style="stroke:#181818;stroke-width:1.0;" x1="253.5169" x2="261.4603" y1="340.5754" y2="341.5255"/><line style="stroke:#181818;stroke-width:1.0;" x1="257.3698" x2="258.32" y1="342.0434" y2="334.1"/><line style="stroke:#181818;stroke-width:1.0;" x1="245.5215" x2="250.5274" y1="440.9568" y2="449.6136"/><line style="stroke:#181818;stroke-width:1.0;" x1="245.5215" x2="238.6126" y1="440.9568" y2="448.1864"/><line style="stroke:#181818;stroke-width:1.0;" x1="245.5215" x2="244.57" y1="440.9568" y2="448.9"/><ellipse cx="246.2351" cy="434.9994" fill="none" rx="4" ry="4" style="stroke:#181818;stroke-width:1.0;"/><text fill="#000000" font-family="Roboto" font-size="13" lengthAdjust="spacing" textLength="57.1797" x="280.5144" y="392.5605">1 concept</text><text fill="#000000" font-family="Roboto" font-size="13" lengthAdjust="spacing" textLength="108.2085" x="255" y="407.7949">many job attempts</text></g><!--SRC=[jLXjKnit4FxkNx7ZV01JJ32K59oqCyRO3GLi0gQT1fWRtPriAzn9LqbdwiRvxrt9EllEBq2JbCoGEqdxzkopkpesuETl-2bjG8jhfiVLAneHpGHNGvR02IC3IU8w747twW9wn8-emhFDFxlG24UKwrJIqWQkN8jK1XJwBA9rV0LGCdWTZ8L7icElG_zrB48QgPra3B1v_U6y4GL36e-DxcqWKGJQ6jY6G4HfpF6XVQOgLdz7Q5gVdc4nLPh4YG8YAVHEBrhNlSR59VnnsdjlN-5ZjzE2JNFm7y5fbJpYmSgEZJ6DC-MmAKL4jm5rwHHDaG7rVCB3YbMhj90q1ABmIJ8-mEEAnKb4eH7Hs6S1QeiPWcEnUWiZ4h6GQ2EYGGyfa2I9M62tmHSf3uaSMn- -AKqbzS1uGZ0d4D8-IIFT5bntI4oXV2LyeKKvTyGdmSD06kDD4Ga9hzeDyoztmcrAJYKSbahKSW3AVHApQ5msuKyVuLNhi7tGEeBF9O0jO27KuURcz0JUlRiy- -KNNAnMyHStZjJXzyPLyttZQdDlTxU2gu6a1XaFaQdFyzNxMFeojvWgAgqzy-1fjBVVtckVF6DloxddvG-qpzpg3WljKPFdd5UrDnMu7QH4Xenmc40mP55uZ-T8geVSKwd_YGOw7yR1GGNrtdHEFzoqh4OhuYLI6Bul6YzieW_RqBavFv_AlG29WhY5fB22IMotzrkxtmMPaAaa8cDl8M-rFPkth28MiJkircg8MsstMjit_-zNQsyCVXXSYANYHNH48oyW2GgspxkD7jmwiiBHqSwkXJgAn2C24I1xCN2l7n4iiJhyTjtj7EE-rigZt7G3O_susprlDJf6RaGqaOkvCVY-45rJrsDVY8VojBRT6wAwtpfe7-HHpQFnLUW6gPGck2Jr8wQ6wDc8IcKQGXrEExtCxMa3AfGDWXnAqjUJ0SNAn2R21nDaf_2mNmOF4yOzIKUCFawmoqWnek5aPcD29FB5B75AGsKF6fltEO3ySS5hKtB_dQSpxBAeYeZEOYqYEzzVZR5f-VD36P9RK4Ikc0q_4dx67RYzdkNKB81ZsBqxXtZqStOFQdjJ-i3j1UEdNNYWussu7195uS38kBwEfb4o4LBF3BdicP4cdpgGfUXvrESyMSGzRonQX6tg_ldvXTjcjfcXqJZHESOjoRmmprbL6vfE-r5X1JlrRlkdTiFbTtrdTBbTx8uklr_72vl-8ZLk4yOvTWqjLd1nn0WI8aw4OkXv- -m-LwKSmLlkWICYNPppvfGGFSozclhIdgBpp6FnOWKg43oWTIrJ2hJVnvcYZ3r5HjHJaT3vVcTDp6er2mKPWfvNnQC9gDjiekyfibaQDH5HsgFcRbL4xCsF6IDOI35I97ymDhGsGcaIkWRWXMWheAjbC_LgZ06iP-DQzimDFJdeXBbFwQnpp5_XrKcpTT8y_9yfzNHdsGBABSkVcmLzSuLw9b24CT4kIljif_XXg_PTfhWlcMrgZdpDgObZkvgGSIH8-DsxVpQOiErz4huDhRXa8cmTjrhFHkWGMRf5JPUp65SFoRzIckAaaoddPaGcHAd2uCC9sIT82Xl_skOvxPOZh1UvVllvPhgY_SFjhpDGkgb6YbExQ_l04_ISodQwFQGtVg5G2XmB-NwfsJdBL4eXLqsrho_I3KnF5V8VWygibDpdm6HIhOhFsMMz3kMQu-GTnza9CU5ZkwdA2nB5k-ngGRUx93k_hQsMc-qlMtLLjrhExQAKY-UBGAd9igzsmSPrnv5gRE06JIrp-OvlsjJrCHtP5uQgu2VPp7FZqEJpYj5aNPijt_7Q3rckqQ-Y9oweuXYsyZCtR5pkm7Iug4KlLckmPtBoM19BuZEVrwdPp7DxEukZSiVpitTDLBani2Aa-UvJ3XLrlDGRnn6dOw6RML_S4UUBMIPQuv0rr2cP2WN91aCDehyWlbZkJ84fRcA8Gf56PZxluA66LHgJCPYs1Jur-r3WjlsUVGJwDrDQlKKLGwIPcOAF8aLouXqtC6SOHvQQxmRxnmYZBKLDaWP2XjPIxiyJ-0M8QKPSM9_XhGK5ylxcpC7ZaF8itUOhROY1e4o4Ad5QsYRbWF25rY8sI1JOWKBD7Egm9ZUsc_Oftii2kkgROZDvg9WeBgMz0IbpgPentLOVoNHPDx73XG8reMlJK7B-_Wi0]--></g></svg>
