<?plantuml 1.2026.2?><svg xmlns="http://www.w3.org/2000/svg" xmlns:xlink="http://www.w3.org/1999/xlink" contentStyleType="text/css" data-diagram-type="CLASS" height="1198px" preserveAspectRatio="none" style="width:1945px;height:1198px;background:#FAFAFA;" version="1.1" viewBox="0 0 1945 1198" width="1945px" zoomAndPan="magnify"><defs/><g><rect fill="#FAFAFA" height="1198" style="stroke:none;stroke-width:1;" width="1945" x="0" y="0"/><!--class family--><g class="entity" data-qualified-name="family" data-source-line="17" id="ent0002"><rect fill="#E8F5E9" height="96.8906" rx="4" ry="4" style="stroke:#181818;stroke-width:0.5;" width="199.6055" x="1159.75" y="7"/><ellipse cx="1233.6978" cy="23" fill="#ADD1B2" rx="11" ry="11" style="stroke:#181818;stroke-width:1;"/><path d="M1237.8071,29 L1230.0884,29 L1230.0884,16.6094 L1237.8071,16.6094 L1237.8071,18.7656 L1232.5415,18.7656 L1232.5415,21.4375 L1237.3071,21.4375 L1237.3071,23.5938 L1232.5415,23.5938 L1232.5415,26.8438 L1237.8071,26.8438 L1237.8071,29 Z " fill="#000000"/><text fill="#000000" font-family="'Roboto'" font-size="14" lengthAdjust="spacing" textLength="43.21" x="1254.1978" y="27.8467">family</text><line style="stroke:#181818;stroke-width:0.5;" x1="1160.75" x2="1358.3555" y1="39" y2="39"/><g data-visibility-modifier="IE_MANDATORY"><ellipse cx="1170.75" cy="52.6484" fill="#000000" rx="3" ry="3" style="stroke:#000000;stroke-width:1;"/></g><text fill="#000000" font-family="'Roboto'" font-size="14" lengthAdjust="spacing" textLength="101.001" x="1179.75" y="55.9951">id : UUID &#171;PK&#187;</text><line style="stroke:#181818;stroke-width:1;" x1="1160.75" x2="1358.3555" y1="63.2969" y2="63.2969"/><text fill="#000000" font-family="'Roboto'" font-size="14" lengthAdjust="spacing" textLength="159.4551" x="1165.75" y="80.292">name : VARCHAR(200)</text><text fill="#000000" font-family="'Roboto'" font-size="14" lengthAdjust="spacing" textLength="187.6055" x="1165.75" y="96.5889">created_at : TIMESTAMPTZ</text></g><!--class user_t--><g class="entity" data-qualified-name="user_t" data-source-line="24" id="ent0003"><rect fill="#E3F2FD" height="145.7813" rx="4" ry="4" style="stroke:#181818;stroke-width:0.5;" width="370.0391" x="1259.53" y="195.89"/><ellipse cx="1425.0315" cy="211.89" fill="#ADD1B2" rx="11" ry="11" style="stroke:#181818;stroke-width:1;"/><path d="M1429.1408,217.89 L1421.4221,217.89 L1421.4221,205.4994 L1429.1408,205.4994 L1429.1408,207.6556 L1423.8752,207.6556 L1423.8752,210.3275 L1428.6408,210.3275 L1428.6408,212.4838 L1423.8752,212.4838 L1423.8752,215.7338 L1429.1408,215.7338 L1429.1408,217.89 Z " fill="#000000"/><text fill="#000000" font-family="'Roboto'" font-size="14" lengthAdjust="spacing" textLength="30.5361" x="1445.5315" y="216.7367">user</text><line style="stroke:#181818;stroke-width:0.5;" x1="1260.53" x2="1628.5691" y1="227.89" y2="227.89"/><g data-visibility-modifier="IE_MANDATORY"><ellipse cx="1270.53" cy="241.5384" fill="#000000" rx="3" ry="3" style="stroke:#000000;stroke-width:1;"/></g><text fill="#000000" font-family="'Roboto'" font-size="14" lengthAdjust="spacing" textLength="101.001" x="1279.53" y="244.8851">id : UUID &#171;PK&#187;</text><line style="stroke:#181818;stroke-width:1;" x1="1260.53" x2="1628.5691" y1="252.1869" y2="252.1869"/><g data-visibility-modifier="IE_MANDATORY"><ellipse cx="1270.53" cy="265.8353" fill="#000000" rx="3" ry="3" style="stroke:#000000;stroke-width:1;"/></g><text fill="#000000" font-family="'Roboto'" font-size="14" lengthAdjust="spacing" textLength="215.708" x="1279.53" y="269.182">family_id : UUID &#171;FK family.id&#187;</text><text fill="#000000" font-family="'Roboto'" font-size="14" lengthAdjust="spacing" textLength="319.7031" x="1279.53" y="285.4789">role : VARCHAR(16) [guardian | child | admin]</text><text fill="#000000" font-family="'Roboto'" font-size="14" lengthAdjust="spacing" textLength="294.7246" x="1279.53" y="301.7757">authn_subject : VARCHAR(255) &#171;UNIQUE&#187;</text><text fill="#000000" font-family="'Roboto'" font-size="14" lengthAdjust="spacing" textLength="344.0391" x="1279.53" y="318.0726">child_profile_id : UUID &#171;FK child_profile.id, NULL&#187;</text><text fill="#000000" font-family="'Roboto'" font-size="14" lengthAdjust="spacing" textLength="187.6055" x="1279.53" y="334.3695">created_at : TIMESTAMPTZ</text></g><!--class child_profile--><g class="entity" data-qualified-name="child_profile" data-source-line="34" id="ent0004"><rect fill="#FFF3E0" height="194.6719" rx="4" ry="4" style="stroke:#181818;stroke-width:0.5;" width="477.0215" x="1461.04" y="473.12"/><ellipse cx="1652.9179" cy="489.12" fill="#ADD1B2" rx="11" ry="11" style="stroke:#181818;stroke-width:1;"/><path d="M1657.0273,495.12 L1649.3086,495.12 L1649.3086,482.7294 L1657.0273,482.7294 L1657.0273,484.8856 L1651.7617,484.8856 L1651.7617,487.5575 L1656.5273,487.5575 L1656.5273,489.7138 L1651.7617,489.7138 L1651.7617,492.9638 L1657.0273,492.9638 L1657.0273,495.12 Z " fill="#000000"/><text fill="#000000" font-family="'Roboto'" font-size="14" lengthAdjust="spacing" textLength="84.7656" x="1673.4179" y="493.9667">child_profile</text><line style="stroke:#181818;stroke-width:0.5;" x1="1462.04" x2="1937.0615" y1="505.12" y2="505.12"/><g data-visibility-modifier="IE_MANDATORY"><ellipse cx="1472.04" cy="518.7684" fill="#000000" rx="3" ry="3" style="stroke:#000000;stroke-width:1;"/></g><text fill="#000000" font-family="'Roboto'" font-size="14" lengthAdjust="spacing" textLength="101.001" x="1481.04" y="522.1151">id : UUID &#171;PK&#187;</text><line style="stroke:#181818;stroke-width:1;" x1="1462.04" x2="1937.0615" y1="529.4169" y2="529.4169"/><g data-visibility-modifier="IE_MANDATORY"><ellipse cx="1472.04" cy="543.0653" fill="#000000" rx="3" ry="3" style="stroke:#000000;stroke-width:1;"/></g><text fill="#000000" font-family="'Roboto'" font-size="14" lengthAdjust="spacing" textLength="215.708" x="1481.04" y="546.412">family_id : UUID &#171;FK family.id&#187;</text><text fill="#000000" font-family="'Roboto'" font-size="14" lengthAdjust="spacing" textLength="216.166" x="1481.04" y="562.7089">display_name : VARCHAR(120)</text><text fill="#000000" font-family="'Roboto'" font-size="14" lengthAdjust="spacing" textLength="451.0215" x="1481.04" y="579.0057">age_band : VARCHAR(16) [3-5 | 5-8 | 8-11 | 10-13 | 13-16 | 16+]</text><text fill="#000000" font-family="'Roboto'" font-size="14" lengthAdjust="spacing" textLength="284.8125" x="1481.04" y="595.3026">reading_level_cap : FLOAT [default 99.0]</text><text fill="#000000" font-family="'Roboto'" font-size="14" lengthAdjust="spacing" textLength="212.7822" x="1481.04" y="611.5995">allowed_content_flags : JSONB</text><text fill="#000000" font-family="'Roboto'" font-size="14" lengthAdjust="spacing" textLength="163.5703" x="1481.04" y="627.8964">tts_enabled : BOOLEAN</text><text fill="#000000" font-family="'Roboto'" font-size="14" lengthAdjust="spacing" textLength="205.7891" x="1481.04" y="644.1932">avatar : VARCHAR(255) NULL</text><text fill="#000000" font-family="'Roboto'" font-size="14" lengthAdjust="spacing" textLength="187.6055" x="1481.04" y="660.4901">created_at : TIMESTAMPTZ</text></g><!--class storybook--><g class="entity" data-qualified-name="storybook" data-source-line="47" id="ent0005"><rect fill="#F3E5F5" height="145.7813" rx="4" ry="4" style="stroke:#181818;stroke-width:0.5;" width="547.2334" x="676.94" y="195.89"/><ellipse cx="911.5494" cy="211.89" fill="#ADD1B2" rx="11" ry="11" style="stroke:#181818;stroke-width:1;"/><path d="M915.6588,217.89 L907.94,217.89 L907.94,205.4994 L915.6588,205.4994 L915.6588,207.6556 L910.3931,207.6556 L910.3931,210.3275 L915.1588,210.3275 L915.1588,212.4838 L910.3931,212.4838 L910.3931,215.7338 L915.6588,215.7338 L915.6588,217.89 Z " fill="#000000"/><text fill="#000000" font-family="'Roboto'" font-size="14" lengthAdjust="spacing" textLength="69.5146" x="932.0494" y="216.7367">storybook</text><line style="stroke:#181818;stroke-width:0.5;" x1="677.94" x2="1223.1734" y1="227.89" y2="227.89"/><g data-visibility-modifier="IE_MANDATORY"><ellipse cx="687.94" cy="241.5384" fill="#000000" rx="3" ry="3" style="stroke:#000000;stroke-width:1;"/></g><text fill="#000000" font-family="'Roboto'" font-size="14" lengthAdjust="spacing" textLength="171.7324" x="696.94" y="244.8851">id : VARCHAR(120) &#171;PK&#187;</text><line style="stroke:#181818;stroke-width:1;" x1="677.94" x2="1223.1734" y1="252.1869" y2="252.1869"/><g data-visibility-modifier="IE_MANDATORY"><ellipse cx="687.94" cy="265.8353" fill="#000000" rx="3" ry="3" style="stroke:#000000;stroke-width:1;"/></g><text fill="#000000" font-family="'Roboto'" font-size="14" lengthAdjust="spacing" textLength="215.708" x="696.94" y="269.182">family_id : UUID &#171;FK family.id&#187;</text><text fill="#000000" font-family="'Roboto'" font-size="14" lengthAdjust="spacing" textLength="261.9668" x="696.94" y="285.4789">current_published_version : INT NULL</text><text fill="#000000" font-family="'Roboto'" font-size="14" lengthAdjust="spacing" textLength="521.2334" x="696.94" y="301.7757">status : VARCHAR(20) [draft|in_review|needs_revision|published|archived]</text><text fill="#000000" font-family="'Roboto'" font-size="14" lengthAdjust="spacing" textLength="263.0742" x="696.94" y="318.0726">created_by : UUID &#171;FK user.id, NULL&#187;</text><text fill="#000000" font-family="'Roboto'" font-size="14" lengthAdjust="spacing" textLength="187.6055" x="696.94" y="334.3695">created_at : TIMESTAMPTZ</text></g><!--class storybook_version--><g class="entity" data-qualified-name="storybook_version" data-source-line="57" id="ent0006"><rect fill="#F3E5F5" height="227.2656" rx="4" ry="4" style="stroke:#181818;stroke-width:0.5;" width="391.5723" x="1034.77" y="456.82"/><ellipse cx="1162.4106" cy="472.82" fill="#ADD1B2" rx="11" ry="11" style="stroke:#181818;stroke-width:1;"/><path d="M1166.52,478.82 L1158.8013,478.82 L1158.8013,466.4294 L1166.52,466.4294 L1166.52,468.5856 L1161.2544,468.5856 L1161.2544,471.2575 L1166.02,471.2575 L1166.02,473.4138 L1161.2544,473.4138 L1161.2544,476.6638 L1166.52,476.6638 L1166.52,478.82 Z " fill="#000000"/><text fill="#000000" font-family="'Roboto'" font-size="14" lengthAdjust="spacing" textLength="127.791" x="1182.9106" y="477.6667">storybook_version</text><line style="stroke:#181818;stroke-width:0.5;" x1="1035.77" x2="1425.3423" y1="488.82" y2="488.82"/><g data-visibility-modifier="IE_MANDATORY"><ellipse cx="1045.77" cy="502.4684" fill="#000000" rx="3" ry="3" style="stroke:#000000;stroke-width:1;"/></g><text fill="#000000" font-family="'Roboto'" font-size="14" lengthAdjust="spacing" textLength="365.5723" x="1054.77" y="505.8151">storybook_id : VARCHAR(120) &#171;PK, FK storybook.id&#187;</text><g data-visibility-modifier="IE_MANDATORY"><ellipse cx="1045.77" cy="518.7653" fill="#000000" rx="3" ry="3" style="stroke:#000000;stroke-width:1;"/></g><text fill="#000000" font-family="'Roboto'" font-size="14" lengthAdjust="spacing" textLength="127.251" x="1054.77" y="522.112">version : INT &#171;PK&#187;</text><line style="stroke:#181818;stroke-width:1;" x1="1035.77" x2="1425.3423" y1="529.4138" y2="529.4138"/><text fill="#000000" font-family="'Roboto'" font-size="14" lengthAdjust="spacing" textLength="271.4482" x="1040.77" y="546.4089">blob : JSONB [Storybook JSON content]</text><text fill="#000000" font-family="'Roboto'" font-size="14" lengthAdjust="spacing" textLength="365.9277" x="1040.77" y="562.7057">blob_ref : VARCHAR(512) NULL [MinIO key, Phase 5]</text><text fill="#000000" font-family="'Roboto'" font-size="14" lengthAdjust="spacing" textLength="217.4922" x="1040.77" y="579.0026">validation_report : JSONB NULL</text><text fill="#000000" font-family="'Roboto'" font-size="14" lengthAdjust="spacing" textLength="229.4209" x="1040.77" y="595.2995">moderation_report : JSONB NULL</text><text fill="#000000" font-family="'Roboto'" font-size="14" lengthAdjust="spacing" textLength="275.8984" x="1040.77" y="611.5964">approved_by : UUID &#171;FK user.id, NULL&#187;</text><text fill="#000000" font-family="'Roboto'" font-size="14" lengthAdjust="spacing" textLength="242.833" x="1040.77" y="627.8932">published_at : TIMESTAMPTZ NULL</text><text fill="#000000" font-family="'Roboto'" font-size="14" lengthAdjust="spacing" textLength="312.4365" x="1040.77" y="644.1901">model : VARCHAR(120) NULL [LLM model id]</text><text fill="#000000" font-family="'Roboto'" font-size="14" lengthAdjust="spacing" textLength="270.0195" x="1040.77" y="660.487">prompt_version : VARCHAR(120) NULL</text><text fill="#000000" font-family="'Roboto'" font-size="14" lengthAdjust="spacing" textLength="187.6055" x="1040.77" y="676.7839">created_at : TIMESTAMPTZ</text></g><!--class reading_state--><g class="entity" data-qualified-name="reading_state" data-source-line="72" id="ent0007"><rect fill="#E0F7FA" height="276.1563" rx="4" ry="4" style="stroke:#181818;stroke-width:0.5;" width="438.166" x="924.47" y="784.23"/><ellipse cx="1091.3284" cy="800.23" fill="#ADD1B2" rx="11" ry="11" style="stroke:#181818;stroke-width:1;"/><path d="M1095.4378,806.23 L1087.719,806.23 L1087.719,793.8394 L1095.4378,793.8394 L1095.4378,795.9956 L1090.1721,795.9956 L1090.1721,798.6675 L1094.9378,798.6675 L1094.9378,800.8238 L1090.1721,800.8238 L1090.1721,804.0738 L1095.4378,804.0738 L1095.4378,806.23 Z " fill="#000000"/><text fill="#000000" font-family="'Roboto'" font-size="14" lengthAdjust="spacing" textLength="95.9492" x="1111.8284" y="805.0767">reading_state</text><line style="stroke:#181818;stroke-width:0.5;" x1="925.47" x2="1361.636" y1="816.23" y2="816.23"/><g data-visibility-modifier="IE_MANDATORY"><ellipse cx="935.47" cy="829.8784" fill="#000000" rx="3" ry="3" style="stroke:#000000;stroke-width:1;"/></g><text fill="#000000" font-family="'Roboto'" font-size="14" lengthAdjust="spacing" textLength="325.3428" x="944.47" y="833.2251">child_profile_id : UUID &#171;PK, FK child_profile.id&#187;</text><g data-visibility-modifier="IE_MANDATORY"><ellipse cx="935.47" cy="846.1753" fill="#000000" rx="3" ry="3" style="stroke:#000000;stroke-width:1;"/></g><text fill="#000000" font-family="'Roboto'" font-size="14" lengthAdjust="spacing" textLength="365.5723" x="944.47" y="849.522">storybook_id : VARCHAR(120) &#171;PK, FK storybook.id&#187;</text><line style="stroke:#181818;stroke-width:1;" x1="925.47" x2="1361.636" y1="856.8238" y2="856.8238"/><text fill="#000000" font-family="'Roboto'" font-size="14" lengthAdjust="spacing" textLength="426.166" x="930.47" y="873.8189">version : INT [pinned to storybook_version via composite FK]</text><text fill="#000000" font-family="'Roboto'" font-size="14" lengthAdjust="spacing" textLength="212.748" x="930.47" y="890.1157">current_node : VARCHAR(120)</text><text fill="#000000" font-family="'Roboto'" font-size="14" lengthAdjust="spacing" textLength="122.8145" x="930.47" y="906.4126">var_state : JSONB</text><text fill="#000000" font-family="'Roboto'" font-size="14" lengthAdjust="spacing" textLength="89.5576" x="930.47" y="922.7095">path : JSONB</text><text fill="#000000" font-family="'Roboto'" font-size="14" lengthAdjust="spacing" textLength="296.7344" x="930.47" y="939.0064">visit_set : JSONB [drives once:true effects]</text><text fill="#000000" font-family="'Roboto'" font-size="14" lengthAdjust="spacing" textLength="130.0332" x="930.47" y="955.3032">save_slots : JSONB</text><text fill="#000000" font-family="'Roboto'" font-size="14" lengthAdjust="spacing" textLength="338.8711" x="930.47" y="971.6001">state_revision : INT [server-owned OCC counter]</text><text fill="#000000" font-family="'Roboto'" font-size="14" lengthAdjust="spacing" textLength="379.7842" x="930.47" y="987.897">last_event_id : VARCHAR(64) NULL [idempotency key]</text><text fill="#000000" font-family="'Roboto'" font-size="14" lengthAdjust="spacing" textLength="306.7627" x="930.47" y="1004.1939">updated_by_device_id : VARCHAR(64) NULL</text><text fill="#000000" font-family="'Roboto'" font-size="14" lengthAdjust="spacing" textLength="256.6416" x="930.47" y="1020.4907">last_synced_at : TIMESTAMPTZ NULL</text><text fill="#000000" font-family="'Roboto'" font-size="14" lengthAdjust="spacing" textLength="187.6055" x="930.47" y="1036.7876">created_at : TIMESTAMPTZ</text><text fill="#000000" font-family="'Roboto'" font-size="14" lengthAdjust="spacing" textLength="192.1855" x="930.47" y="1053.0845">updated_at : TIMESTAMPTZ</text></g><!--class completion--><g class="entity" data-qualified-name="completion" data-source-line="90" id="ent0008"><rect fill="#DCEDC8" height="129.4844" rx="4" ry="4" style="stroke:#181818;stroke-width:0.5;" width="351.3428" x="1460.88" y="857.57"/><ellipse cx="1593.2477" cy="873.57" fill="#ADD1B2" rx="11" ry="11" style="stroke:#181818;stroke-width:1;"/><path d="M1597.3571,879.57 L1589.6383,879.57 L1589.6383,867.1794 L1597.3571,867.1794 L1597.3571,869.3356 L1592.0914,869.3356 L1592.0914,872.0075 L1596.8571,872.0075 L1596.8571,874.1638 L1592.0914,874.1638 L1592.0914,877.4138 L1597.3571,877.4138 L1597.3571,879.57 Z " fill="#000000"/><text fill="#000000" font-family="'Roboto'" font-size="14" lengthAdjust="spacing" textLength="78.1074" x="1613.7477" y="878.4167">completion</text><line style="stroke:#181818;stroke-width:0.5;" x1="1461.88" x2="1811.2228" y1="889.57" y2="889.57"/><g data-visibility-modifier="IE_MANDATORY"><ellipse cx="1471.88" cy="903.2184" fill="#000000" rx="3" ry="3" style="stroke:#000000;stroke-width:1;"/></g><text fill="#000000" font-family="'Roboto'" font-size="14" lengthAdjust="spacing" textLength="325.3428" x="1480.88" y="906.5651">child_profile_id : UUID &#171;PK, FK child_profile.id&#187;</text><g data-visibility-modifier="IE_MANDATORY"><ellipse cx="1471.88" cy="919.5153" fill="#000000" rx="3" ry="3" style="stroke:#000000;stroke-width:1;"/></g><text fill="#000000" font-family="'Roboto'" font-size="14" lengthAdjust="spacing" textLength="248.2471" x="1480.88" y="922.862">storybook_id : VARCHAR(120) &#171;PK&#187;</text><g data-visibility-modifier="IE_MANDATORY"><ellipse cx="1471.88" cy="935.8122" fill="#000000" rx="3" ry="3" style="stroke:#000000;stroke-width:1;"/></g><text fill="#000000" font-family="'Roboto'" font-size="14" lengthAdjust="spacing" textLength="127.251" x="1480.88" y="939.1589">version : INT &#171;PK&#187;</text><g data-visibility-modifier="IE_MANDATORY"><ellipse cx="1471.88" cy="952.1091" fill="#000000" rx="3" ry="3" style="stroke:#000000;stroke-width:1;"/></g><text fill="#000000" font-family="'Roboto'" font-size="14" lengthAdjust="spacing" textLength="226.7549" x="1480.88" y="955.4557">ending_id : VARCHAR(120) &#171;PK&#187;</text><line style="stroke:#181818;stroke-width:1;" x1="1461.88" x2="1811.2228" y1="962.7575" y2="962.7575"/><text fill="#000000" font-family="'Roboto'" font-size="14" lengthAdjust="spacing" textLength="174.0977" x="1466.88" y="979.7526">found_at : TIMESTAMPTZ</text></g><!--class concept--><g class="entity" data-qualified-name="concept" data-source-line="99" id="ent0009"><rect fill="#FFF8E1" height="129.4844" rx="4" ry="4" style="stroke:#181818;stroke-width:0.5;" width="289.0742" x="294.01" y="204.04"/><ellipse cx="406.386" cy="220.04" fill="#ADD1B2" rx="11" ry="11" style="stroke:#181818;stroke-width:1;"/><path d="M410.4954,226.04 L402.7766,226.04 L402.7766,213.6494 L410.4954,213.6494 L410.4954,215.8056 L405.2297,215.8056 L405.2297,218.4775 L409.9954,218.4775 L409.9954,220.6338 L405.2297,220.6338 L405.2297,223.8838 L410.4954,223.8838 L410.4954,226.04 Z " fill="#000000"/><text fill="#000000" font-family="'Roboto'" font-size="14" lengthAdjust="spacing" textLength="55.8223" x="426.886" y="224.8867">concept</text><line style="stroke:#181818;stroke-width:0.5;" x1="295.01" x2="582.0842" y1="236.04" y2="236.04"/><g data-visibility-modifier="IE_MANDATORY"><ellipse cx="305.01" cy="249.6884" fill="#000000" rx="3" ry="3" style="stroke:#000000;stroke-width:1;"/></g><text fill="#000000" font-family="'Roboto'" font-size="14" lengthAdjust="spacing" textLength="101.001" x="314.01" y="253.0351">id : UUID &#171;PK&#187;</text><line style="stroke:#181818;stroke-width:1;" x1="295.01" x2="582.0842" y1="260.3369" y2="260.3369"/><g data-visibility-modifier="IE_MANDATORY"><ellipse cx="305.01" cy="273.9853" fill="#000000" rx="3" ry="3" style="stroke:#000000;stroke-width:1;"/></g><text fill="#000000" font-family="'Roboto'" font-size="14" lengthAdjust="spacing" textLength="215.708" x="314.01" y="277.332">family_id : UUID &#171;FK family.id&#187;</text><text fill="#000000" font-family="'Roboto'" font-size="14" lengthAdjust="spacing" textLength="255.9922" x="314.01" y="293.6289">brief : JSONB [ConceptBrief payload]</text><text fill="#000000" font-family="'Roboto'" font-size="14" lengthAdjust="spacing" textLength="263.0742" x="314.01" y="309.9257">created_by : UUID &#171;FK user.id, NULL&#187;</text><text fill="#000000" font-family="'Roboto'" font-size="14" lengthAdjust="spacing" textLength="187.6055" x="314.01" y="326.2226">created_at : TIMESTAMPTZ</text></g><!--class generation_job--><g class="entity" data-qualified-name="generation_job" data-source-line="108" id="ent0010"><rect fill="#FFEBEE" height="243.5625" rx="4" ry="4" style="stroke:#181818;stroke-width:0.5;" width="505.1035" x="7" y="448.67"/><ellipse cx="203.0615" cy="464.67" fill="#ADD1B2" rx="11" ry="11" style="stroke:#181818;stroke-width:1;"/><path d="M207.1709,470.67 L199.4521,470.67 L199.4521,458.2794 L207.1709,458.2794 L207.1709,460.4356 L201.9053,460.4356 L201.9053,463.1075 L206.6709,463.1075 L206.6709,465.2638 L201.9053,465.2638 L201.9053,468.5138 L207.1709,468.5138 L207.1709,470.67 Z " fill="#000000"/><text fill="#000000" font-family="'Roboto'" font-size="14" lengthAdjust="spacing" textLength="104.4805" x="223.5615" y="469.5167">generation_job</text><line style="stroke:#181818;stroke-width:0.5;" x1="8" x2="511.1035" y1="480.67" y2="480.67"/><g data-visibility-modifier="IE_MANDATORY"><ellipse cx="18" cy="494.3184" fill="#000000" rx="3" ry="3" style="stroke:#000000;stroke-width:1;"/></g><text fill="#000000" font-family="'Roboto'" font-size="14" lengthAdjust="spacing" textLength="101.001" x="27" y="497.6651">id : UUID &#171;PK&#187;</text><line style="stroke:#181818;stroke-width:1;" x1="8" x2="511.1035" y1="504.9669" y2="504.9669"/><g data-visibility-modifier="IE_MANDATORY"><ellipse cx="18" cy="518.6153" fill="#000000" rx="3" ry="3" style="stroke:#000000;stroke-width:1;"/></g><text fill="#000000" font-family="'Roboto'" font-size="14" lengthAdjust="spacing" textLength="240.9326" x="27" y="521.962">concept_id : UUID &#171;FK concept.id&#187;</text><text fill="#000000" font-family="'Roboto'" font-size="14" lengthAdjust="spacing" textLength="479.1035" x="27" y="538.2589">status : VARCHAR(20) [queued|running|passed|needs_review|failed]</text><text fill="#000000" font-family="'Roboto'" font-size="14" lengthAdjust="spacing" textLength="204.1143" x="27" y="554.5557">model : VARCHAR(120) NULL</text><text fill="#000000" font-family="'Roboto'" font-size="14" lengthAdjust="spacing" textLength="219.1602" x="27" y="570.8526">provider : VARCHAR(120) NULL</text><text fill="#000000" font-family="'Roboto'" font-size="14" lengthAdjust="spacing" textLength="270.0195" x="27" y="587.1495">prompt_version : VARCHAR(120) NULL</text><text fill="#000000" font-family="'Roboto'" font-size="14" lengthAdjust="spacing" textLength="337.8936" x="27" y="603.4464">report : JSONB NULL [GenerationOutcome JSON]</text><text fill="#000000" font-family="'Roboto'" font-size="14" lengthAdjust="spacing" textLength="386.3262" x="27" y="619.7432">storybook_id : VARCHAR(120) NULL [NOT FK, see note]</text><text fill="#000000" font-family="'Roboto'" font-size="14" lengthAdjust="spacing" textLength="128.8164" x="27" y="636.0401">version : INT NULL</text><text fill="#000000" font-family="'Roboto'" font-size="14" lengthAdjust="spacing" textLength="194.9678" x="27" y="652.337">error : VARCHAR(512) NULL</text><text fill="#000000" font-family="'Roboto'" font-size="14" lengthAdjust="spacing" textLength="187.6055" x="27" y="668.6339">created_at : TIMESTAMPTZ</text><text fill="#000000" font-family="'Roboto'" font-size="14" lengthAdjust="spacing" textLength="192.1855" x="27" y="684.9307">updated_at : TIMESTAMPTZ</text></g><g class="entity" data-qualified-name="GMN23" data-source-line="139" id="ent0024"><path d="M546.97,516.49 L546.97,566.45 L512.24,570.45 L546.97,574.45 L546.97,624.4197 A4,4 0 0 0 550.97,628.4197 L796.1355,628.4197 A4,4 0 0 0 800.1355,624.4197 L800.1355,522.49 L790.1355,512.49 L550.97,512.49 A4,4 0 0 0 546.97,516.49" fill="#FEFFDD" style="stroke:#181818;stroke-width:0.5;"/><path d="M790.1355,512.49 L790.1355,520.49 A2,2 0 0 0 792.1355,522.49 L800.1355,522.49 L790.1355,512.49" fill="#FEFFDD" style="stroke:#181818;stroke-width:0.5;"/><text fill="#000000" font-family="'Roboto'" font-size="13" lengthAdjust="spacing" textLength="223.1519" x="552.97" y="529.5569">storybook_id is NOT a foreign key.</text><text fill="#000000" font-family="'Roboto'" font-size="13" lengthAdjust="spacing" textLength="232.1655" x="552.97" y="544.6897">A job may fail before any storybook</text><text fill="#000000" font-family="'Roboto'" font-size="13" lengthAdjust="spacing" textLength="218.0039" x="552.97" y="559.8225">row exists; a hard FK would block</text><text fill="#000000" font-family="'Roboto'" font-size="13" lengthAdjust="spacing" textLength="178.4199" x="552.97" y="574.9553">inserting the failure record.</text><text fill="#000000" font-family="'Roboto'" font-size="13" lengthAdjust="spacing" textLength="186.5894" x="552.97" y="590.0881">Application layer verifies the</text><text fill="#000000" font-family="'Roboto'" font-size="13" lengthAdjust="spacing" textLength="227.7285" x="552.97" y="605.221">storybook row exists when reading</text><text fill="#000000" font-family="'Roboto'" font-size="13" lengthAdjust="spacing" textLength="60.0361" x="552.97" y="620.3538">this field.</text></g><g class="entity" data-qualified-name="GMN26" data-source-line="149" id="ent0027"><path d="M1011.76,1125.39 L1011.76,1187.9213 A4,4 0 0 0 1015.76,1191.9213 L1271.342,1191.9213 A4,4 0 0 0 1275.342,1187.9213 L1275.342,1131.39 L1265.342,1121.39 L1147.55,1121.39 L1143.55,1060.82 L1139.55,1121.39 L1015.76,1121.39 A4,4 0 0 0 1011.76,1125.39" fill="#FEFFDD" style="stroke:#181818;stroke-width:0.5;"/><path d="M1265.342,1121.39 L1265.342,1129.39 A2,2 0 0 0 1267.342,1131.39 L1275.342,1131.39 L1265.342,1121.39" fill="#FEFFDD" style="stroke:#181818;stroke-width:0.5;"/><text fill="#000000" font-family="'Roboto'" font-size="13" lengthAdjust="spacing" textLength="242.582" x="1017.76" y="1138.4569">Composite FK (storybook_id, version)</text><text fill="#000000" font-family="'Roboto'" font-size="13" lengthAdjust="spacing" textLength="226.4019" x="1017.76" y="1153.5897">references storybook_version (pk).</text><text fill="#000000" font-family="'Roboto'" font-size="13" lengthAdjust="spacing" textLength="226.5669" x="1017.76" y="1168.7225">Prevents saving state for a version</text><text fill="#000000" font-family="'Roboto'" font-size="13" lengthAdjust="spacing" textLength="126.3691" x="1017.76" y="1183.8553">that does not exist.</text></g><!--link family to user_t--><g class="link" data-entity-1="ent0002" data-entity-2="ent0003" data-link-type="crowfoot" data-source-line="125" id="lnk11"><path codeLine="125" d="M1306.5691,110.1496 C1330.2291,137.1796 1343.1718,151.9781 1369.6518,182.2181" fill="none" id="family-user_t" style="stroke:#181818;stroke-width:1;"/><line style="stroke:#181818;stroke-width:1;" x1="1300.9247" x2="1306.9444" y1="109.7744" y2="104.5053"/><line style="stroke:#181818;stroke-width:1;" x1="1302.9007" x2="1308.9203" y1="112.0318" y2="106.7626"/><line style="stroke:#181818;stroke-width:1;" x1="1306.5691" x2="1301.3" y1="110.1496" y2="104.13"/><line style="stroke:#181818;stroke-width:1;" x1="1376.2397" x2="1386.024" y1="189.7414" y2="191.8073"/><line style="stroke:#181818;stroke-width:1;" x1="1376.2397" x2="1376.996" y1="189.7414" y2="199.7127"/><line style="stroke:#181818;stroke-width:1;" x1="1376.2397" x2="1381.51" y1="189.7414" y2="195.76"/><ellipse cx="1372.287" cy="185.2274" fill="none" rx="4" ry="4" style="stroke:#181818;stroke-width:1;"/><text fill="#000000" font-family="'Roboto'" font-size="13" lengthAdjust="spacing" textLength="52.5269" x="1378.2534" y="146.9569">1 family</text><text fill="#000000" font-family="'Roboto'" font-size="13" lengthAdjust="spacing" textLength="102.9336" x="1353.05" y="162.0897">has many users</text></g><!--link family to child_profile--><g class="link" data-entity-1="ent0002" data-entity-2="ent0004" data-link-type="crowfoot" data-source-line="126" id="lnk12"><path codeLine="126" d="M1367.7271,65.8684 C1457.0071,78.8184 1576.3,110.85 1647.55,195.89 C1711.58,272.3 1719.0199,371.9987 1713.5799,454.8087" fill="none" id="family-child_profile" style="stroke:#181818;stroke-width:1;"/><line style="stroke:#181818;stroke-width:1;" x1="1363.1944" x2="1364.3428" y1="69.2528" y2="61.3356"/><line style="stroke:#181818;stroke-width:1;" x1="1366.1633" x2="1367.3117" y1="69.6834" y2="61.7663"/><line style="stroke:#181818;stroke-width:1;" x1="1367.7271" x2="1359.81" y1="65.8684" y2="64.72"/><line style="stroke:#181818;stroke-width:1;" x1="1712.9244" x2="1718.3871" y1="464.7872" y2="473.1633"/><line style="stroke:#181818;stroke-width:1;" x1="1712.9244" x2="1706.4129" y1="464.7872" y2="472.3767"/><line style="stroke:#181818;stroke-width:1;" x1="1712.9244" x2="1712.4" y1="464.7872" y2="472.77"/><ellipse cx="1713.3177" cy="458.8001" fill="none" rx="4" ry="4" style="stroke:#181818;stroke-width:1;"/><text fill="#000000" font-family="'Roboto'" font-size="13" lengthAdjust="spacing" textLength="52.5269" x="1739.9002" y="265.8469">1 family</text><text fill="#000000" font-family="'Roboto'" font-size="13" lengthAdjust="spacing" textLength="115.9272" x="1708.2" y="280.9797">has many profiles</text></g><!--link family to storybook--><g class="link" data-entity-1="ent0002" data-entity-2="ent0005" data-link-type="crowfoot" data-source-line="127" id="lnk13"><path codeLine="127" d="M1183.2169,108.6465 C1143.7869,135.6165 1115.1568,155.1975 1071.0068,185.3975" fill="none" id="family-storybook" style="stroke:#181818;stroke-width:1;"/><line style="stroke:#181818;stroke-width:1;" x1="1184.2602" x2="1188.7767" y1="103.0867" y2="109.6898"/><line style="stroke:#181818;stroke-width:1;" x1="1181.784" x2="1186.3005" y1="104.7804" y2="111.3835"/><line style="stroke:#181818;stroke-width:1;" x1="1183.2169" x2="1189.82" y1="108.6465" y2="104.13"/><line style="stroke:#181818;stroke-width:1;" x1="1062.753" x2="1059.5375" y1="191.0433" y2="200.5123"/><line style="stroke:#181818;stroke-width:1;" x1="1062.753" x2="1052.7625" y1="191.0433" y2="190.6077"/><line style="stroke:#181818;stroke-width:1;" x1="1062.753" x2="1056.15" y1="191.0433" y2="195.56"/><ellipse cx="1067.7053" cy="187.6558" fill="none" rx="4" ry="4" style="stroke:#181818;stroke-width:1;"/><text fill="#000000" font-family="'Roboto'" font-size="13" lengthAdjust="spacing" textLength="52.5269" x="1186.1205" y="146.9569">1 family</text><text fill="#000000" font-family="'Roboto'" font-size="13" lengthAdjust="spacing" textLength="139.1279" x="1142.82" y="162.0897">has many storybooks</text></g><!--link family to concept--><g class="link" data-entity-1="ent0002" data-entity-2="ent0009" data-link-type="crowfoot" data-source-line="128" id="lnk14"><path codeLine="128" d="M1151.531,78.6152 C1031.851,103.7652 833.8,147.4 659.55,195.89 C634.77,202.78 625.7899,205.265 600.4999,213.275" fill="none" id="family-concept" style="stroke:#181818;stroke-width:1;"/><line style="stroke:#181818;stroke-width:1;" x1="1154.6229" x2="1156.2681" y1="73.8781" y2="81.7071"/><line style="stroke:#181818;stroke-width:1;" x1="1151.687" x2="1153.3322" y1="74.4951" y2="82.3241"/><line style="stroke:#181818;stroke-width:1;" x1="1151.531" x2="1159.36" y1="78.6152" y2="76.97"/><line style="stroke:#181818;stroke-width:1;" x1="590.9666" x2="585.1517" y1="216.2945" y2="224.43"/><line style="stroke:#181818;stroke-width:1;" x1="590.9666" x2="581.5283" y1="216.2945" y2="212.99"/><line style="stroke:#181818;stroke-width:1;" x1="590.9666" x2="583.34" y1="216.2945" y2="218.71"/><ellipse cx="596.6866" cy="214.4828" fill="none" rx="4" ry="4" style="stroke:#181818;stroke-width:1;"/><text fill="#000000" font-family="'Roboto'" font-size="13" lengthAdjust="spacing" textLength="52.5269" x="927.1234" y="146.9569">1 family</text><text fill="#000000" font-family="'Roboto'" font-size="13" lengthAdjust="spacing" textLength="126.4136" x="890.18" y="162.0897">has many concepts</text></g><!--link user_t to child_profile--><g class="link" data-entity-1="ent0003" data-entity-2="ent0004" data-link-type="crowfoot" data-source-line="129" id="lnk15"><path codeLine="129" d="M1493.7756,357.4719 C1509.0356,382.7019 1518.16,395.16 1537.55,418.67 C1552.83,437.19 1559.5949,445.163 1577.2849,462.493" fill="none" id="user_t-child_profile" style="stroke:#181818;stroke-width:1;"/><line style="stroke:#181818;stroke-width:1;" x1="1488.6003" x2="1479.326" y1="348.9153" y2="345.1752"/><line style="stroke:#181818;stroke-width:1;" x1="1488.6003" x2="1489.594" y1="348.9153" y2="338.9648"/><line style="stroke:#181818;stroke-width:1;" x1="1488.6003" x2="1484.46" y1="348.9153" y2="342.07"/><ellipse cx="1491.7055" cy="354.0493" fill="none" rx="4" ry="4" style="stroke:#181818;stroke-width:1;"/><line style="stroke:#181818;stroke-width:1;" x1="1580.1423" x2="1588" y1="465.2922" y2="472.99"/><ellipse cx="1580.1423" cy="465.2922" fill="none" rx="4" ry="4" style="stroke:#181818;stroke-width:1;"/><line style="stroke:#181818;stroke-width:1;" x1="1587.9419" x2="1582.3434" y1="467.3334" y2="473.0481"/><text fill="#000000" font-family="'Roboto'" font-size="13" lengthAdjust="spacing" textLength="63.3496" x="1574.2016" y="384.7369">child user</text><text fill="#000000" font-family="'Roboto'" font-size="13" lengthAdjust="spacing" textLength="132.9326" x="1539.4101" y="399.8697">assigned to 1 profile</text><text fill="#000000" font-family="'Roboto'" font-size="13" lengthAdjust="spacing" textLength="134.6528" x="1538.55" y="415.0025">(NULL for guardians)</text></g><!--link storybook to storybook_version--><g class="link" data-entity-1="ent0005" data-entity-2="ent0006" data-link-type="crowfoot" data-source-line="130" id="lnk16"><path codeLine="130" d="M1023.4418,347.7854 C1055.4818,382.0754 1083.6092,412.1737 1119.4492,450.5437" fill="none" id="storybook-storybook_version" style="stroke:#181818;stroke-width:1;"/><line style="stroke:#181818;stroke-width:1;" x1="1017.7882" x2="1023.6336" y1="347.5936" y2="342.1318"/><line style="stroke:#181818;stroke-width:1;" x1="1019.8364" x2="1025.6818" y1="349.7856" y2="344.3238"/><line style="stroke:#181818;stroke-width:1;" x1="1023.4418" x2="1017.98" y1="347.7854" y2="341.94"/><line style="stroke:#181818;stroke-width:1;" x1="1119.4492" x2="1129.2947" y1="450.5437" y2="452.2944"/><line style="stroke:#181818;stroke-width:1;" x1="1119.4492" x2="1120.5253" y1="450.5437" y2="460.4856"/><line style="stroke:#181818;stroke-width:1;" x1="1119.4492" x2="1124.91" y1="450.5437" y2="456.39"/><line style="stroke:#181818;stroke-width:1;" x1="1121.0071" x2="1115.1608" y1="446.3517" y2="451.8125"/><text fill="#000000" font-family="'Roboto'" font-size="13" lengthAdjust="spacing" textLength="76.9526" x="1083.525" y="392.2369">1 storybook</text><text fill="#000000" font-family="'Roboto'" font-size="13" lengthAdjust="spacing" textLength="77.6826" x="1083.16" y="407.3697">1+ versions</text></g><!--link child_profile to reading_state--><g class="link" data-entity-1="ent0004" data-entity-2="ent0007" data-link-type="crowfoot" data-source-line="131" id="lnk17"><path codeLine="131" d="M1580.8108,673.4503 C1532.0508,715.1603 1490.69,750.21 1484.55,754.23 C1446.64,779.07 1420.5254,794.4233 1379.1554,815.5833" fill="none" id="child_profile-reading_state" style="stroke:#181818;stroke-width:1;"/><line style="stroke:#181818;stroke-width:1;" x1="1581.2502" x2="1586.4505" y1="667.8105" y2="673.8898"/><line style="stroke:#181818;stroke-width:1;" x1="1578.9705" x2="1584.1708" y1="669.7606" y2="675.8399"/><line style="stroke:#181818;stroke-width:1;" x1="1580.8108" x2="1586.89" y1="673.4503" y2="668.25"/><line style="stroke:#181818;stroke-width:1;" x1="1370.2524" x2="1365.8622" y1="820.137" y2="829.1218"/><line style="stroke:#181818;stroke-width:1;" x1="1370.2524" x2="1360.3978" y1="820.137" y2="818.4382"/><line style="stroke:#181818;stroke-width:1;" x1="1370.2524" x2="1363.13" y1="820.137" y2="823.78"/><ellipse cx="1375.5942" cy="817.4048" fill="none" rx="4" ry="4" style="stroke:#181818;stroke-width:1;"/><text fill="#000000" font-family="'Roboto'" font-size="13" lengthAdjust="spacing" textLength="53.752" x="1562.4319" y="735.2969">1 profile</text><text fill="#000000" font-family="'Roboto'" font-size="13" lengthAdjust="spacing" textLength="134.1958" x="1522.21" y="750.4297">many reading states</text></g><!--link storybook to reading_state--><g class="link" data-entity-1="ent0005" data-entity-2="ent0007" data-link-type="crowfoot" data-source-line="132" id="lnk18"><path codeLine="132" d="M913.8631,349.2152 C878.3831,436.0152 837.23,577.14 888.55,692.23 C903.52,725.8 913.7675,743.3786 939.4175,770.6486" fill="none" id="storybook-reading_state" style="stroke:#181818;stroke-width:1;"/><line style="stroke:#181818;stroke-width:1;" x1="911.6739" x2="919.0792" y1="343.9992" y2="347.0261"/><line style="stroke:#181818;stroke-width:1;" x1="910.5388" x2="917.9441" y1="346.7761" y2="349.8031"/><line style="stroke:#181818;stroke-width:1;" x1="913.8631" x2="916.89" y1="349.2152" y2="341.81"/><line style="stroke:#181818;stroke-width:1;" x1="946.2689" x2="956.1205" y1="777.9327" y2="779.6492"/><line style="stroke:#181818;stroke-width:1;" x1="946.2689" x2="947.3795" y1="777.9327" y2="787.8708"/><line style="stroke:#181818;stroke-width:1;" x1="946.2689" x2="951.75" y1="777.9327" y2="783.76"/><ellipse cx="942.158" cy="773.5622" fill="none" rx="4" ry="4" style="stroke:#181818;stroke-width:1;"/><text fill="#000000" font-family="'Roboto'" font-size="13" lengthAdjust="spacing" textLength="45.2651" x="930.6352" y="567.5169">1 story</text><text fill="#000000" font-family="'Roboto'" font-size="13" lengthAdjust="spacing" textLength="127.4355" x="889.55" y="582.6497">many reader states</text></g><!--link storybook_version to reading_state--><g class="link" data-entity-1="ent0006" data-entity-2="ent0007" data-link-type="crowfoot" data-source-line="133" id="lnk19"><path codeLine="133" d="M1151.3912,691.4908 C1145.6412,703.9208 1144.08,709.45 1140.55,722.23 C1135.15,741.81 1133.2953,744.9128 1132.2453,765.7628" fill="none" id="storybook_version-reading_state" style="stroke:#181818;stroke-width:1;"/><line style="stroke:#181818;stroke-width:1;" x1="1149.4402" x2="1156.701" y1="686.181" y2="689.5398"/><line style="stroke:#181818;stroke-width:1;" x1="1148.1807" x2="1155.4415" y1="688.9038" y2="692.2626"/><line style="stroke:#181818;stroke-width:1;" x1="1151.3912" x2="1154.75" y1="691.4908" y2="684.23"/><line style="stroke:#181818;stroke-width:1;" x1="1131.7424" x2="1137.3324" y1="775.7501" y2="784.0418"/><line style="stroke:#181818;stroke-width:1;" x1="1131.7424" x2="1125.3476" y1="775.7501" y2="783.4382"/><line style="stroke:#181818;stroke-width:1;" x1="1131.7424" x2="1131.34" y1="775.7501" y2="783.74"/><ellipse cx="1132.0441" cy="769.7577" fill="none" rx="4" ry="4" style="stroke:#181818;stroke-width:1;"/><text fill="#000000" font-family="'Roboto'" font-size="13" lengthAdjust="spacing" textLength="148.9351" x="1141.55" y="735.2969">(storybook_id, version)</text><text fill="#000000" font-family="'Roboto'" font-size="13" lengthAdjust="spacing" textLength="87.585" x="1172.225" y="750.4297">composite FK</text></g><!--link child_profile to completion--><g class="link" data-entity-1="ent0004" data-entity-2="ent0008" data-link-type="crowfoot" data-source-line="134" id="lnk20"><path codeLine="134" d="M1680.7526,675.8534 C1669.9026,736.1234 1660.8284,786.4646 1651.2984,839.4146" fill="none" id="child_profile-completion" style="stroke:#181818;stroke-width:1;"/><line style="stroke:#181818;stroke-width:1;" x1="1677.5246" x2="1685.398" y1="671.208" y2="672.6254"/><line style="stroke:#181818;stroke-width:1;" x1="1676.9931" x2="1684.8665" y1="674.1606" y2="675.578"/><line style="stroke:#181818;stroke-width:1;" x1="1680.7526" x2="1682.17" y1="675.8534" y2="667.98"/><line style="stroke:#181818;stroke-width:1;" x1="1649.5271" x2="1654.0151" y1="849.2565" y2="858.1928"/><line style="stroke:#181818;stroke-width:1;" x1="1649.5271" x2="1642.2049" y1="849.2565" y2="856.0672"/><line style="stroke:#181818;stroke-width:1;" x1="1649.5271" x2="1648.11" y1="849.2565" y2="857.13"/><ellipse cx="1650.5899" cy="843.3514" fill="none" rx="4" ry="4" style="stroke:#181818;stroke-width:1;"/><text fill="#000000" font-family="'Roboto'" font-size="13" lengthAdjust="spacing" textLength="53.752" x="1705.9421" y="735.2969">1 profile</text><text fill="#000000" font-family="'Roboto'" font-size="13" lengthAdjust="spacing" textLength="119.9961" x="1672.82" y="750.4297">many completions</text></g><!--link storybook_version to completion--><g class="link" data-entity-1="ent0006" data-entity-2="ent0008" data-link-type="crowfoot" data-source-line="135" id="lnk21"><path codeLine="135" d="M1283.0878,691.2281 C1297.2378,716.1681 1310.47,734.16 1330.55,754.23 C1338.22,761.89 1417.2375,804.8297 1499.3475,848.6197" fill="none" id="storybook_version-completion" style="stroke:#181818;stroke-width:1;"/><line style="stroke:#181818;stroke-width:1;" x1="1277.6348" x2="1284.5929" y1="689.7229" y2="685.7752"/><line style="stroke:#181818;stroke-width:1;" x1="1279.1152" x2="1286.0733" y1="692.3322" y2="688.3845"/><line style="stroke:#181818;stroke-width:1;" x1="1283.0878" x2="1279.14" y1="691.2281" y2="684.27"/><line style="stroke:#181818;stroke-width:1;" x1="1508.1711" x2="1518.0534" y1="853.3254" y2="851.7958"/><line style="stroke:#181818;stroke-width:1;" x1="1508.1711" x2="1512.4066" y1="853.3254" y2="862.3842"/><line style="stroke:#181818;stroke-width:1;" x1="1508.1711" x2="1515.23" y1="853.3254" y2="857.09"/><ellipse cx="1502.8769" cy="850.502" fill="none" rx="4" ry="4" style="stroke:#181818;stroke-width:1;"/><text fill="#000000" font-family="'Roboto'" font-size="13" lengthAdjust="spacing" textLength="148.9351" x="1331.55" y="735.2969">(storybook_id, version)</text><text fill="#000000" font-family="'Roboto'" font-size="13" lengthAdjust="spacing" textLength="87.585" x="1362.225" y="750.4297">composite FK</text></g><!--link concept to generation_job--><g class="link" data-entity-1="ent0009" data-entity-2="ent0010" data-link-type="crowfoot" data-source-line="136" id="lnk22"><path codeLine="136" d="M396.2677,340.5681 C376.3477,373.9181 364.6402,393.5167 341.2202,432.7267" fill="none" id="concept-generation_job" style="stroke:#181818;stroke-width:1;"/><line style="stroke:#181818;stroke-width:1;" x1="394.8848" x2="401.7529" y1="335.0829" y2="339.1852"/><line style="stroke:#181818;stroke-width:1;" x1="393.3464" x2="400.2145" y1="337.6584" y2="341.7608"/><line style="stroke:#181818;stroke-width:1;" x1="396.2677" x2="400.37" y1="340.5681" y2="333.7"/><line style="stroke:#181818;stroke-width:1;" x1="336.0923" x2="337.1411" y1="441.3119" y2="451.2567"/><line style="stroke:#181818;stroke-width:1;" x1="336.0923" x2="326.8389" y1="441.3119" y2="445.1033"/><line style="stroke:#181818;stroke-width:1;" x1="336.0923" x2="331.99" y1="441.3119" y2="448.18"/><ellipse cx="339.169" cy="436.1608" fill="none" rx="4" ry="4" style="stroke:#181818;stroke-width:1;"/><text fill="#000000" font-family="'Roboto'" font-size="13" lengthAdjust="spacing" textLength="64.2383" x="406.2153" y="392.2369">1 concept</text><text fill="#000000" font-family="'Roboto'" font-size="13" lengthAdjust="spacing" textLength="123.5889" x="376.54" y="407.3697">many job attempts</text></g><?plantuml-src jLXjKnit4FxkNx53Fe099XXg2awQ6MFiXW8s0TDE0yoDxaws5UwagwGpTUFyzwvadNrdcvScASnWdwHzU_RPNHthyCjt_9JMeSKrq-FA9Os8PeAh8KlWc961974T3g5xUGuzuaTKuTdcdrreX2FATIffQHrNhaGg0mfz5j4wFW8e6Rm9ni8ZsR4teVyc5Y6Dr7Oo1jYu-dZMY88XZST6znQGA09j3Mn18A8qvlYbVQhALdz7Q5gVdc4nLPh4YG8YAVHEpbjNlSRv1VnnqljW7-5JjzE23NFm7y5fXJpWmVAsZJ6DC-Mm8KL4jm1rwHHDaG7rVCB3ibMhj90q1ABmcsHyWCSLYvE8GYEYiSy2r1Op1CTYzHP6968XqKP4WnvI84aIiS1kWozI7X8vjZvyLvfAwfxnX61E8AHzaaQwBRZka9Z2sgNmXHPhkIC-2Uu7qXXlYaX8UDLkcD_S2RSfEPLmK2fHom5OwvEOHUCr4_xqAxng7RHhhKFuKWBO11P27QwlJuxXtRkBq_VlSR5ImJ_SE5A7tnkNpG-DoutTdPqohWQI6cGyHAO-prVlK-dht6AggBJsp1TFexszzcxx-1bxcyuzBt-WVUfMjrbeZveyvxogxfVXPf0I6JB2OGB1a4KXVf8mPlmEpvDK3xcdKlyp3NG-d5gjZFglEoSVhrjMinNr4YaCxnUTA6oYBrlGkJuxcygz0962k8Mci8B9RBVtMZi_1A6GgIGYOsyXVzLTcx-iCXOntAlK4BPQvG3_7bIgLVoexbIgU-PphrBTDv_xhmsY66w8HUH5T4GZBo09gcgVTHizk74qXiF3xHqBVXI91uGcG5uZ55u_8bXyTVZjgjivmdsjbKUvwHF6dwDkzwpLw1Yv4T54BcRB8Fv2l4t5ZtqXxjUcLU-U4EUzLgrTo-ESn-URy0vIAKrmIUf7J0tHin6LohIAEfnqUfdRqzPKA2Y4FPIahoUCUvAE67sOS4f3PH-CXibCvuH8PCo8XdSv1FnnmIrJRV-TcZDmChUBaCs2AK8ttryDekdsyqCPL9jGXAO8jny9FoC7t5pDacOMm57epfr3YFevkxNgxfGVS7FE-4aNxkbu2ow6H56e6HdNqj4qIYP2wfaXbnuppUHJ1t06I35w2Ufp8YpYdZSMBS8sTV_ixDnjCvjhD1edEaUf9PaNvZahMyF3QGigh62Jtcd_t6wu_3xU35rk5nkYo--tySAclqYDcuHnZcr1YnLS7362X8WJeHXwtZwzovKXH_2Mszw8I1VdlFiaH0zpZwRajAVeFFDOdLXo2WGFQ5tBb0Bjzt6CA6DFaH7rL2Hqlg5P4xFopK91Xg3d5V5W0kesc-XxYcoMHar4bFQekLOL4Tl_AMC42ob6YkGFneRMHYXDGjS0l11j1NIrRAPUZJ60nzduA7lcXfwSRS9SfNJMEUQFyEgusJfk7lpFb7gwism2vPRbppNxlhazFHCemfXe5wNzRWVtGQlwGmQtBvbjQevypQc98xkQa74ao8_l_WFAixRtMVWsjEAIYR1rr6ez6w53PEdYD5tEObmz1VzAQOepJgQSOwec2L4A7-Up40TZdo0fRFoFDizfjnnXlSZ7jvzlfYlQFzpyEWEbcsgaEBMxjWyyGS-fRAVRGthZomcbmB6GxvQQdRDCfHHorLJxzY9Tn_HK8FyUgCnAoRq9J2QLYlYItTFhi5PrdBpbE3iX9dniDzNQWaJn-hfQqEqkoSwlOwlbPllBLbtLhPPpkoZbulagK6goxElq9S4SkkL8DJPmWwQQkNpBDspg-fYExEL2bV5jREQvSMZoPSLeigxDbczvzNMMQ_Ihw8aBgZY6hVpC3HkNEp0TBchHYzKQx9cSF9R4alZCvyVKREIvlPN5KRxb-TdxI5IvCR0YfFdkKmuLTRpK6ySHfsEXcrbVt17dYracMkEGDTGfcGe5oGP33QA_8BvOxao1AMvYY4AHHcO-R-EXXbKQap6OjWK-DVjGuBPzbNq0-ZTJMhr55KEacPc23o95Sk8TDp1d64UMQfDzyty8eor5JP86GeRMKku_4_ZIXsb6N5YVuQq51VB-vip1mv3oBDtcDMo8WQ1CX2fnMjecvO3mXTOYDaWKs852pHpgy4XkR3VjKxoN1NJLEyL6SbysKLn8UmDIvb8rOxgjFfBficvYXmi5QaBNfg7a_FqN?></g></svg>
