<svg xmlns="http://www.w3.org/2000/svg" xmlns:xlink="http://www.w3.org/1999/xlink" contentStyleType="text/css" height="1930px" preserveAspectRatio="none" style="width:1967px;height:1930px;background:#FAFAFA;" version="1.1" viewBox="0 0 1967 1930" width="1967px" zoomAndPan="magnify"><title>Target-State End-to-End User Journey</title><defs><style type="text/css">@import url('https://fonts.googleapis.com/css?family=Roboto:400,100,100italic,300,300italic,400italic,500,500italic,700,700italic,900,900italic');</style><filter height="1" id="bx02p7fodduke0" width="1" x="0" y="0"><feFlood flood-color="#FFFDF8" result="flood"/><feComposite in="SourceGraphic" in2="flood" operator="over"/></filter><filter height="1" id="bx02p7fodduke1" width="1" x="0" y="0"><feFlood flood-color="#F3D9D4" result="flood"/><feComposite in="SourceGraphic" in2="flood" operator="over"/></filter></defs><g><rect fill="#FAFAFA" height="1930" style="stroke:none;stroke-width:1.0;" width="1967" x="0" y="0"/><text fill="#000000" font-family="Roboto" font-size="14" font-weight="bold" lengthAdjust="spacing" textLength="241.582" x="861.3293" y="32.9883">Target-State End-to-End User Journey</text><text fill="#000000" font-family="Roboto" font-size="14" font-weight="bold" lengthAdjust="spacing" textLength="278.9268" x="842.657" y="49.3945">(child-initiated; rose = planned, not yet built)</text><rect fill="none" height="21.0938" style="stroke:none;stroke-width:1.0;" width="1938.2407" x="11" y="66.707"/><rect fill="#F0D9B8" height="1681.877" style="stroke:#F0D9B8;stroke-width:1.0;" width="542.2612" x="28" y="66.707"/><path d="M293.0386,341.5898 L293.0386,350.207 L273.0386,354.207 L293.0386,358.207 L293.0386,366.8242 A0,0 0 0 0 293.0386,366.8242 L475.0024,366.8242 A0,0 0 0 0 475.0024,366.8242 L475.0024,351.5898 L465.0024,341.5898 L293.0386,341.5898 A0,0 0 0 0 293.0386,341.5898 " fill="#F1E9D8" style="stroke:#C9B48F;stroke-width:0.5;"/><path d="M465.0024,341.5898 L465.0024,351.5898 L475.0024,351.5898 L465.0024,341.5898 " fill="#F1E9D8" style="stroke:#C9B48F;stroke-width:0.5;"/><text fill="#000000" font-family="Roboto" font-size="13" lengthAdjust="spacing" textLength="160.9639" x="299.0386" y="358.6504">/  (Profile Picker)  &#8226;  shipped</text><rect fill="#FFFDF8" height="34.0625" rx="5" ry="5" style="stroke:#8C6F56;stroke-width:1.0;" width="168.9102" x="104.1284" y="337.1758"/><text fill="#000000" font-family="Roboto" font-size="12" lengthAdjust="spacing" textLength="148.9102" x="114.1284" y="358.3086">Open the app, tap my avatar</text><path d="M282.3833,402.6836 L282.3833,411.3008 L262.3833,415.3008 L282.3833,419.3008 L282.3833,427.918 A0,0 0 0 0 282.3833,427.918 L349.499,427.918 A0,0 0 0 0 349.499,427.918 L349.499,412.6836 L339.499,402.6836 L282.3833,402.6836 A0,0 0 0 0 282.3833,402.6836 " fill="#F1E9D8" style="stroke:#C9B48F;stroke-width:0.5;"/><path d="M339.499,402.6836 L339.499,412.6836 L349.499,412.6836 L339.499,402.6836 " fill="#F1E9D8" style="stroke:#C9B48F;stroke-width:0.5;"/><text fill="#000000" font-family="Roboto" font-size="13" lengthAdjust="spacing" textLength="46.1157" x="288.3833" y="419.7441">planned</text><rect fill="#F3D9D4" height="48.125" rx="5" ry="5" style="stroke:#8C6F56;stroke-width:1.0;" width="147.5996" x="114.7837" y="391.2383"/><text fill="#000000" font-family="Roboto" font-size="12" lengthAdjust="spacing" textLength="127.5996" x="124.7837" y="412.3711">Tap "I want a new story"</text><text fill="#000000" font-family="Roboto" font-size="12" lengthAdjust="spacing" textLength="122.0918" x="124.7837" y="426.4336">and say what it's about</text><path d="M266.0093,1157.9336 L266.0093,1166.5508 L246.0093,1170.5508 L266.0093,1174.5508 L266.0093,1183.168 A0,0 0 0 0 266.0093,1183.168 L447.1924,1183.168 A0,0 0 0 0 447.1924,1183.168 L447.1924,1167.9336 L437.1924,1157.9336 L266.0093,1157.9336 A0,0 0 0 0 266.0093,1157.9336 " fill="#F1E9D8" style="stroke:#C9B48F;stroke-width:0.5;"/><path d="M437.1924,1157.9336 L437.1924,1167.9336 L447.1924,1167.9336 L437.1924,1157.9336 " fill="#F1E9D8" style="stroke:#C9B48F;stroke-width:0.5;"/><text fill="#000000" font-family="Roboto" font-size="13" lengthAdjust="spacing" textLength="160.1831" x="272.0093" y="1174.9941">Profile Picker pill  &#8226;  shipped</text><rect fill="#FFFDF8" height="48.125" rx="5" ry="5" style="stroke:#8C6F56;stroke-width:1.0;" width="114.8516" x="131.1577" y="1146.4883"/><text fill="#000000" font-family="Roboto" font-size="12" lengthAdjust="spacing" textLength="90.3516" x="141.1577" y="1167.6211">My avatar shows</text><text fill="#000000" font-family="Roboto" font-size="12" lengthAdjust="spacing" textLength="94.8516" x="141.1577" y="1181.6836">"new story ready!"</text><path d="M289.2563,1226.0586 L289.2563,1234.6758 L269.2563,1238.6758 L289.2563,1242.6758 L289.2563,1251.293 A0,0 0 0 0 289.2563,1251.293 L470.6489,1251.293 A0,0 0 0 0 470.6489,1251.293 L470.6489,1236.0586 L460.6489,1226.0586 L289.2563,1226.0586 A0,0 0 0 0 289.2563,1226.0586 " fill="#F1E9D8" style="stroke:#C9B48F;stroke-width:0.5;"/><path d="M460.6489,1226.0586 L460.6489,1236.0586 L470.6489,1236.0586 L460.6489,1226.0586 " fill="#F1E9D8" style="stroke:#C9B48F;stroke-width:0.5;"/><text fill="#000000" font-family="Roboto" font-size="13" lengthAdjust="spacing" textLength="160.3926" x="295.2563" y="1243.1191">/library/:profileId  &#8226;  shipped</text><rect fill="#FFFDF8" height="48.125" rx="5" ry="5" style="stroke:#8C6F56;stroke-width:1.0;" width="161.3457" x="107.9106" y="1214.6133"/><text fill="#000000" font-family="Roboto" font-size="12" lengthAdjust="spacing" textLength="86.5957" x="117.9106" y="1235.7461">Open my Library</text><text fill="#000000" font-family="Roboto" font-size="12" lengthAdjust="spacing" textLength="141.3457" x="117.9106" y="1249.8086">(Continue Reading + shelf)</text><path d="M260.5161,1294.1836 L260.5161,1302.8008 L240.5161,1306.8008 L260.5161,1310.8008 L260.5161,1319.418 A0,0 0 0 0 260.5161,1319.418 L447.3994,1319.418 A0,0 0 0 0 447.3994,1319.418 L447.3994,1304.1836 L437.3994,1294.1836 L260.5161,1294.1836 A0,0 0 0 0 260.5161,1294.1836 " fill="#F1E9D8" style="stroke:#C9B48F;stroke-width:0.5;"/><path d="M437.3994,1294.1836 L437.3994,1304.1836 L447.3994,1304.1836 L437.3994,1294.1836 " fill="#F1E9D8" style="stroke:#C9B48F;stroke-width:0.5;"/><text fill="#000000" font-family="Roboto" font-size="13" lengthAdjust="spacing" textLength="165.8833" x="266.5161" y="1311.2441">/read/...  (Reader)  &#8226;  shipped</text><rect fill="#FFFDF8" height="48.125" rx="5" ry="5" style="stroke:#8C6F56;stroke-width:1.0;" width="103.8652" x="136.6509" y="1282.7383"/><text fill="#000000" font-family="Roboto" font-size="12" lengthAdjust="spacing" textLength="83.8652" x="146.6509" y="1303.8711">Read passages,</text><text fill="#000000" font-family="Roboto" font-size="12" lengthAdjust="spacing" textLength="73.9629" x="146.6509" y="1317.9336">make choices</text><polygon fill="#F8F3E8" points="170.5339,1350.8633,206.6331,1350.8633,218.6331,1362.8633,206.6331,1374.8633,170.5339,1374.8633,158.5339,1362.8633,170.5339,1350.8633" style="stroke:#8C6F56;stroke-width:1.0;"/><text fill="#000000" font-family="Roboto" font-size="11" lengthAdjust="spacing" textLength="36.0991" x="170.5339" y="1366.623">Online?</text><text fill="#5A3E28" font-family="Roboto" font-size="11" lengthAdjust="spacing" textLength="16.7148" x="141.8191" y="1360.1777">yes</text><text fill="#5A3E28" font-family="Roboto" font-size="11" lengthAdjust="spacing" textLength="31.1792" x="218.6331" y="1360.1777">offline</text><rect fill="#FFFDF8" height="34.0625" rx="5" ry="5" style="stroke:#8C6F56;stroke-width:1.0;" width="140.5977" x="34" y="1384.8633"/><text fill="#000000" font-family="Roboto" font-size="12" lengthAdjust="spacing" textLength="120.5977" x="44" y="1405.9961">Progress saves as I go</text><path d="M371.1387,1396.3086 L371.1387,1404.9258 L351.1387,1408.9258 L371.1387,1412.9258 L371.1387,1421.543 A0,0 0 0 0 371.1387,1421.543 L518.7681,1421.543 A0,0 0 0 0 518.7681,1421.543 L518.7681,1406.3086 L508.7681,1396.3086 L371.1387,1396.3086 A0,0 0 0 0 371.1387,1396.3086 " fill="#F1E9D8" style="stroke:#C9B48F;stroke-width:0.5;"/><path d="M508.7681,1396.3086 L508.7681,1406.3086 L518.7681,1406.3086 L508.7681,1396.3086 " fill="#F1E9D8" style="stroke:#C9B48F;stroke-width:0.5;"/><text fill="#000000" font-family="Roboto" font-size="13" lengthAdjust="spacing" textLength="126.6294" x="377.1387" y="1413.3691">offline-first  &#8226;  shipped</text><rect fill="#FFFDF8" height="48.125" rx="5" ry="5" style="stroke:#8C6F56;stroke-width:1.0;" width="156.541" x="194.5977" y="1384.8633"/><text fill="#000000" font-family="Roboto" font-size="12" lengthAdjust="spacing" textLength="93.0352" x="204.5977" y="1405.9961">Read from cache,</text><text fill="#000000" font-family="Roboto" font-size="12" lengthAdjust="spacing" textLength="136.541" x="204.5977" y="1420.0586">progress waits in a queue</text><path d="M363.3164,1464.4336 L363.3164,1473.0508 L343.3164,1477.0508 L363.3164,1481.0508 L363.3164,1489.668 A0,0 0 0 0 363.3164,1489.668 L558.2612,1489.668 A0,0 0 0 0 558.2612,1489.668 L558.2612,1474.4336 L548.2612,1464.4336 L363.3164,1464.4336 A0,0 0 0 0 363.3164,1464.4336 " fill="#F1E9D8" style="stroke:#C9B48F;stroke-width:0.5;"/><path d="M548.2612,1464.4336 L548.2612,1474.4336 L558.2612,1474.4336 L548.2612,1464.4336 " fill="#F1E9D8" style="stroke:#C9B48F;stroke-width:0.5;"/><text fill="#000000" font-family="Roboto" font-size="13" lengthAdjust="spacing" textLength="173.9448" x="369.3164" y="1481.4941">seq-offline / seq-reading-state</text><rect fill="#FFFDF8" height="48.125" rx="5" ry="5" style="stroke:#8C6F56;stroke-width:1.0;" width="140.8965" x="202.4199" y="1452.9883"/><text fill="#000000" font-family="Roboto" font-size="12" lengthAdjust="spacing" textLength="115.0078" x="212.4199" y="1474.1211">On reconnect it syncs</text><text fill="#000000" font-family="Roboto" font-size="12" lengthAdjust="spacing" textLength="120.8965" x="212.4199" y="1488.1836">(reconcile if it clashes)</text><polygon fill="#F8F3E8" points="188.5835,1507.1133,200.5835,1519.1133,188.5835,1531.1133,176.5835,1519.1133,188.5835,1507.1133" style="stroke:#8C6F56;stroke-width:1.0;"/><rect fill="#FFFDF8" height="34.0625" rx="5" ry="5" style="stroke:#8C6F56;stroke-width:1.0;" width="108.3242" x="134.4214" y="1551.1133"/><text fill="#000000" font-family="Roboto" font-size="12" lengthAdjust="spacing" textLength="88.3242" x="144.4214" y="1572.2461">Reach an ending</text><path d="M255.4683,1595.1758 L255.4683,1619.0273 L235.4683,1623.0273 L255.4683,1627.0273 L255.4683,1650.8789 A0,0 0 0 0 255.4683,1650.8789 L415.1646,1650.8789 A0,0 0 0 0 415.1646,1650.8789 L415.1646,1605.1758 L405.1646,1595.1758 L255.4683,1595.1758 A0,0 0 0 0 255.4683,1595.1758 " fill="#F1E9D8" style="stroke:#C9B48F;stroke-width:0.5;"/><path d="M405.1646,1595.1758 L405.1646,1605.1758 L415.1646,1605.1758 L405.1646,1595.1758 " fill="#F1E9D8" style="stroke:#C9B48F;stroke-width:0.5;"/><text fill="#000000" font-family="Roboto" font-size="13" lengthAdjust="spacing" textLength="46.1157" x="261.4683" y="1612.2363">planned</text><text fill="#000000" font-family="Roboto" font-size="13" lengthAdjust="spacing" textLength="138.6963" x="261.4683" y="1627.4707">(completion + rating not</text><text fill="#000000" font-family="Roboto" font-size="13" lengthAdjust="spacing" textLength="129.9238" x="261.4683" y="1642.7051">yet recorded by the UI)</text><rect fill="#F3D9D4" height="34.0625" rx="5" ry="5" style="stroke:#8C6F56;stroke-width:1.0;" width="93.7695" x="141.6987" y="1605.9961"/><text fill="#000000" font-family="Roboto" font-size="12" lengthAdjust="spacing" textLength="73.7695" x="151.6987" y="1627.1289">Rate the story</text><polygon fill="#F8F3E8" points="139.532,1670.8789,237.635,1670.8789,249.635,1682.8789,237.635,1694.8789,139.532,1694.8789,127.532,1682.8789,139.532,1670.8789" style="stroke:#8C6F56;stroke-width:1.0;"/><text fill="#5A3E28" font-family="Roboto" font-size="11" lengthAdjust="spacing" textLength="12.3481" x="192.5835" y="1705.084">no</text><text fill="#000000" font-family="Roboto" font-size="11" lengthAdjust="spacing" textLength="98.103" x="139.532" y="1686.6387">Want another story?</text><text fill="#5A3E28" font-family="Roboto" font-size="11" lengthAdjust="spacing" textLength="16.7148" x="249.635" y="1680.1934">yes</text><ellipse cx="188.5835" cy="1737.584" fill="none" rx="11" ry="11" style="stroke:#222222;stroke-width:1.0;"/><ellipse cx="188.5835" cy="1737.584" fill="#222222" rx="6" ry="6" style="stroke:#222222;stroke-width:1.0;"/><line style="stroke:#000000;stroke-width:1.5;" x1="28" x2="28" y1="66.707" y2="1748.584"/><rect fill="#CDDCEC" height="1681.877" style="stroke:#CDDCEC;stroke-width:1.0;" width="494.5327" x="585.2612" y="66.707"/><ellipse cx="683.3862" cy="102.8008" fill="#222222" rx="10" ry="10" style="stroke:#222222;stroke-width:1.0;"/><path d="M781.5044,151.2773 L781.5044,159.8945 L761.5044,163.8945 L781.5044,167.8945 L781.5044,176.5117 A0,0 0 0 0 781.5044,176.5117 L955.2734,176.5117 A0,0 0 0 0 955.2734,176.5117 L955.2734,161.2773 L945.2734,151.2773 L781.5044,151.2773 A0,0 0 0 0 781.5044,151.2773 " fill="#F1E9D8" style="stroke:#C9B48F;stroke-width:0.5;"/><path d="M945.2734,151.2773 L945.2734,161.2773 L955.2734,161.2773 L945.2734,151.2773 " fill="#F1E9D8" style="stroke:#C9B48F;stroke-width:0.5;"/><text fill="#000000" font-family="Roboto" font-size="13" lengthAdjust="spacing" textLength="152.769" x="787.5044" y="168.3379">/guardian/login  &#8226;  shipped</text><rect fill="#FFFDF8" height="62.1875" rx="5" ry="5" style="stroke:#8C6F56;stroke-width:1.0;" width="156.2363" x="605.2681" y="132.8008"/><text fill="#000000" font-family="Roboto" font-size="12" lengthAdjust="spacing" textLength="35.9297" x="615.2681" y="153.9336">Sign in</text><text fill="#000000" font-family="Roboto" font-size="12" lengthAdjust="spacing" textLength="136.2363" x="615.2681" y="167.9961">(email/password, Google,</text><text fill="#000000" font-family="Roboto" font-size="12" lengthAdjust="spacing" textLength="103.998" x="615.2681" y="182.0586">or Apple if enabled)</text><path d="M782.1724,226.4336 L782.1724,235.0508 L762.1724,239.0508 L782.1724,243.0508 L782.1724,251.668 A0,0 0 0 0 782.1724,251.668 L971.29,251.668 A0,0 0 0 0 971.29,251.668 L971.29,236.4336 L961.29,226.4336 L782.1724,226.4336 A0,0 0 0 0 782.1724,226.4336 " fill="#F1E9D8" style="stroke:#C9B48F;stroke-width:0.5;"/><path d="M961.29,226.4336 L961.29,236.4336 L971.29,236.4336 L961.29,226.4336 " fill="#F1E9D8" style="stroke:#C9B48F;stroke-width:0.5;"/><text fill="#000000" font-family="Roboto" font-size="13" lengthAdjust="spacing" textLength="168.1177" x="788.1724" y="243.4941">/guardian/profiles  &#8226;  shipped</text><rect fill="#FFFDF8" height="48.125" rx="5" ry="5" style="stroke:#8C6F56;stroke-width:1.0;" width="157.5723" x="604.6001" y="214.9883"/><text fill="#000000" font-family="Roboto" font-size="12" lengthAdjust="spacing" textLength="137.5723" x="614.6001" y="236.1211">Create each child's profile</text><text fill="#000000" font-family="Roboto" font-size="12" lengthAdjust="spacing" textLength="121.1016" x="614.6001" y="250.1836">(name + preset avatar)</text><path d="M774.1245,470.8086 L774.1245,479.4258 L754.1245,483.4258 L774.1245,487.4258 L774.1245,496.043 A0,0 0 0 0 774.1245,496.043 L950.7627,496.043 A0,0 0 0 0 950.7627,496.043 L950.7627,480.8086 L940.7627,470.8086 L774.1245,470.8086 A0,0 0 0 0 774.1245,470.8086 " fill="#F1E9D8" style="stroke:#C9B48F;stroke-width:0.5;"/><path d="M940.7627,470.8086 L940.7627,480.8086 L950.7627,480.8086 L940.7627,470.8086 " fill="#F1E9D8" style="stroke:#C9B48F;stroke-width:0.5;"/><text fill="#000000" font-family="Roboto" font-size="13" lengthAdjust="spacing" textLength="155.6382" x="780.1245" y="487.8691">planned (request-approval)</text><rect fill="#F3D9D4" height="48.125" rx="5" ry="5" style="stroke:#8C6F56;stroke-width:1.0;" width="141.4766" x="612.6479" y="459.3633"/><text fill="#000000" font-family="Roboto" font-size="12" lengthAdjust="spacing" textLength="121.4766" x="622.6479" y="480.4961">See my child's request,</text><text fill="#000000" font-family="Roboto" font-size="12" lengthAdjust="spacing" textLength="101.6895" x="622.6479" y="494.5586">approve or tweak it</text><path d="M770.647,675.1836 L770.647,683.8008 L750.647,687.8008 L770.647,691.8008 L770.647,700.418 A0,0 0 0 0 770.647,700.418 L951.3477,700.418 A0,0 0 0 0 951.3477,700.418 L951.3477,685.1836 L941.3477,675.1836 L770.647,675.1836 A0,0 0 0 0 770.647,675.1836 " fill="#F1E9D8" style="stroke:#C9B48F;stroke-width:0.5;"/><path d="M941.3477,675.1836 L941.3477,685.1836 L951.3477,685.1836 L941.3477,675.1836 " fill="#F1E9D8" style="stroke:#C9B48F;stroke-width:0.5;"/><text fill="#000000" font-family="Roboto" font-size="13" lengthAdjust="spacing" textLength="159.7007" x="776.647" y="692.2441">/guardian/intake  &#8226;  shipped</text><rect fill="#FFFDF8" height="48.125" rx="5" ry="5" style="stroke:#8C6F56;stroke-width:1.0;" width="134.5215" x="616.1255" y="663.7383"/><text fill="#000000" font-family="Roboto" font-size="12" lengthAdjust="spacing" textLength="114.5215" x="626.1255" y="684.8711">"My Requests" shows</text><text fill="#000000" font-family="Roboto" font-size="12" lengthAdjust="spacing" textLength="75.5098" x="626.1255" y="698.9336">"Generating..."</text><path d="M795.5112,1089.8086 L795.5112,1098.4258 L775.5112,1102.4258 L795.5112,1106.4258 L795.5112,1115.043 A0,0 0 0 0 795.5112,1115.043 L964.7417,1115.043 A0,0 0 0 0 964.7417,1115.043 L964.7417,1099.8086 L954.7417,1089.8086 L795.5112,1089.8086 A0,0 0 0 0 795.5112,1089.8086 " fill="#F1E9D8" style="stroke:#C9B48F;stroke-width:0.5;"/><path d="M954.7417,1089.8086 L954.7417,1099.8086 L964.7417,1099.8086 L954.7417,1089.8086 " fill="#F1E9D8" style="stroke:#C9B48F;stroke-width:0.5;"/><text fill="#000000" font-family="Roboto" font-size="13" lengthAdjust="spacing" textLength="148.2305" x="801.5112" y="1106.8691">intake / assign  &#8226;  shipped</text><rect fill="#FFFDF8" height="48.125" rx="5" ry="5" style="stroke:#8C6F56;stroke-width:1.0;" width="184.25" x="591.2612" y="1078.3633"/><text fill="#000000" font-family="Roboto" font-size="12" lengthAdjust="spacing" textLength="108.4102" x="601.2612" y="1099.4961">Assign it to the child</text><text fill="#000000" font-family="Roboto" font-size="12" lengthAdjust="spacing" textLength="164.25" x="601.2612" y="1113.5586">("Assign more" to add siblings)</text><rect fill="#FFFDF8" height="34.0625" rx="5" ry="5" style="stroke:#8C6F56;stroke-width:1.0;" width="135.4883" x="615.6421" y="283.1133"/><text fill="#000000" font-family="Roboto" font-size="12" lengthAdjust="spacing" textLength="115.4883" x="625.6421" y="304.2461">a new story is wanted</text><line style="stroke:#000000;stroke-width:1.5;" x1="585.2612" x2="585.2612" y1="66.707" y2="1748.584"/><rect fill="#C5D9CC" height="1681.877" style="stroke:#C5D9CC;stroke-width:1.0;" width="564.0366" x="986.29" y="66.707"/><path d="M1179.9551,804.4023 L1179.9551,813.0195 L1159.9551,817.0195 L1179.9551,821.0195 L1179.9551,829.6367 A0,0 0 0 0 1179.9551,829.6367 L1382.8027,829.6367 A0,0 0 0 0 1382.8027,829.6367 L1382.8027,814.4023 L1372.8027,804.4023 L1179.9551,804.4023 A0,0 0 0 0 1179.9551,804.4023 " fill="#F1E9D8" style="stroke:#C9B48F;stroke-width:0.5;"/><path d="M1372.8027,804.4023 L1372.8027,814.4023 L1382.8027,814.4023 L1372.8027,804.4023 " fill="#F1E9D8" style="stroke:#C9B48F;stroke-width:0.5;"/><text fill="#000000" font-family="Roboto" font-size="13" lengthAdjust="spacing" textLength="181.8477" x="1185.9551" y="821.4629">/guardian  (Console)  &#8226;  shipped</text><rect fill="#FFFDF8" height="62.1875" rx="5" ry="5" style="stroke:#8C6F56;stroke-width:1.0;" width="141.1309" x="1018.8242" y="785.9258"/><text fill="#000000" font-family="Roboto" font-size="12" lengthAdjust="spacing" textLength="121.1309" x="1028.8242" y="807.0586">Open the review queue</text><text fill="#000000" font-family="Roboto" font-size="12" lengthAdjust="spacing" textLength="113.7246" x="1028.8242" y="821.1211">(Flagged, then Ready,</text><text fill="#000000" font-family="Roboto" font-size="12" lengthAdjust="spacing" textLength="112.4238" x="1028.8242" y="835.1836">then Still processing)</text><path d="M1192.8604,894.5586 L1192.8604,903.1758 L1172.8604,907.1758 L1192.8604,911.1758 L1192.8604,919.793 A0,0 0 0 0 1192.8604,919.793 L1394.8384,919.793 A0,0 0 0 0 1394.8384,919.793 L1394.8384,904.5586 L1384.8384,894.5586 L1192.8604,894.5586 A0,0 0 0 0 1192.8604,894.5586 " fill="#F1E9D8" style="stroke:#C9B48F;stroke-width:0.5;"/><path d="M1384.8384,894.5586 L1384.8384,904.5586 L1394.8384,904.5586 L1384.8384,894.5586 " fill="#F1E9D8" style="stroke:#C9B48F;stroke-width:0.5;"/><text fill="#000000" font-family="Roboto" font-size="13" lengthAdjust="spacing" textLength="180.978" x="1198.8604" y="911.6191">/guardian/review/:id  &#8226;  shipped</text><rect fill="#FFFDF8" height="48.125" rx="5" ry="5" style="stroke:#8C6F56;stroke-width:1.0;" width="166.9414" x="1005.9189" y="883.1133"/><text fill="#000000" font-family="Roboto" font-size="12" lengthAdjust="spacing" textLength="146.9414" x="1015.9189" y="904.2461">Read the flagged passages,</text><text fill="#000000" font-family="Roboto" font-size="12" lengthAdjust="spacing" textLength="92.6836" x="1015.9189" y="918.3086">then the full story</text><rect fill="#FFFDF8" height="34.0625" rx="5" ry="5" style="stroke:#8C6F56;stroke-width:1.0;" width="109.9648" x="1034.4072" y="731.8633"/><text fill="#000000" font-family="Roboto" font-size="12" lengthAdjust="spacing" textLength="89.9648" x="1044.4072" y="752.9961">take the top item</text><polygon fill="#F8F3E8" points="1050.0222,951.2383,1128.7571,951.2383,1140.7571,963.2383,1128.7571,975.2383,1050.0222,975.2383,1038.0222,963.2383,1050.0222,951.2383" style="stroke:#8C6F56;stroke-width:1.0;"/><text fill="#5A3E28" font-family="Roboto" font-size="11" lengthAdjust="spacing" textLength="70.4634" x="1093.3896" y="985.4434">yes -&gt; approve</text><text fill="#000000" font-family="Roboto" font-size="11" lengthAdjust="spacing" textLength="78.7349" x="1050.0222" y="966.998">Safe for a child?</text><text fill="#5A3E28" font-family="Roboto" font-size="11" lengthAdjust="spacing" textLength="12.3481" x="1140.7571" y="960.5527">no</text><rect fill="#FFFDF8" height="48.125" rx="5" ry="5" style="stroke:#8C6F56;stroke-width:1.0;" width="141.4883" x="1404.8384" y="829.4883"/><text fill="#000000" font-family="Roboto" font-size="12" lengthAdjust="spacing" textLength="117.1758" x="1414.8384" y="850.6211">Send back with a note</text><text fill="#000000" font-family="Roboto" font-size="12" lengthAdjust="spacing" textLength="121.4883" x="1414.8384" y="864.6836">-&gt; the story is rewritten</text><rect fill="#FFFDF8" height="48.125" rx="5" ry="5" style="stroke:#8C6F56;stroke-width:1.0;" width="194.1992" x="992.29" y="1010.2383"/><text fill="#000000" font-family="Roboto" font-size="12" lengthAdjust="spacing" textLength="44.3906" x="1002.29" y="1031.3711">Approve</text><text fill="#000000" font-family="Roboto" font-size="12" lengthAdjust="spacing" textLength="174.1992" x="1002.29" y="1045.4336">(recorded human gate, ADR-005)</text><line style="stroke:#000000;stroke-width:1.5;" x1="986.29" x2="986.29" y1="66.707" y2="1748.584"/><rect fill="#E4E4E4" height="1681.877" style="stroke:#E4E4E4;stroke-width:1.0;" width="369.9141" x="1565.3267" y="66.707"/><path d="M1729.0767,531.3164 L1729.0767,547.5508 L1709.0767,551.5508 L1729.0767,555.5508 L1729.0767,571.7852 A0,0 0 0 0 1729.0767,571.7852 L1923.2407,571.7852 A0,0 0 0 0 1923.2407,571.7852 L1923.2407,541.3164 L1913.2407,531.3164 L1729.0767,531.3164 A0,0 0 0 0 1729.0767,531.3164 " fill="#F1E9D8" style="stroke:#C9B48F;stroke-width:0.5;"/><path d="M1913.2407,531.3164 L1913.2407,541.3164 L1923.2407,541.3164 L1913.2407,531.3164 " fill="#F1E9D8" style="stroke:#C9B48F;stroke-width:0.5;"/><text fill="#000000" font-family="Roboto" font-size="13" lengthAdjust="spacing" textLength="173.1641" x="1735.0767" y="548.377">generation pipeline  &#8226;  shipped</text><text fill="#000000" font-family="Roboto" font-size="13" lengthAdjust="spacing" textLength="124.5791" x="1735.0767" y="563.6113">detail: seq-generation</text><rect fill="#FFFDF8" height="48.125" rx="5" ry="5" style="stroke:#8C6F56;stroke-width:1.0;" width="137.75" x="1571.3267" y="527.4883"/><text fill="#000000" font-family="Roboto" font-size="12" lengthAdjust="spacing" textLength="77.4785" x="1581.3267" y="548.6211">Write the story</text><text fill="#000000" font-family="Roboto" font-size="12" lengthAdjust="spacing" textLength="117.75" x="1581.3267" y="562.6836">(staged, with fallback)</text><path d="M1728.8013,607.0586 L1728.8013,615.6758 L1708.8013,619.6758 L1728.8013,623.6758 L1728.8013,632.293 A0,0 0 0 0 1728.8013,632.293 L1891.8491,632.293 A0,0 0 0 0 1891.8491,632.293 L1891.8491,617.0586 L1881.8491,607.0586 L1728.8013,607.0586 A0,0 0 0 0 1728.8013,607.0586 " fill="#F1E9D8" style="stroke:#C9B48F;stroke-width:0.5;"/><path d="M1881.8491,607.0586 L1881.8491,617.0586 L1891.8491,617.0586 L1881.8491,607.0586 " fill="#F1E9D8" style="stroke:#C9B48F;stroke-width:0.5;"/><text fill="#000000" font-family="Roboto" font-size="13" lengthAdjust="spacing" textLength="142.0479" x="1734.8013" y="624.1191">validator gate  &#8226;  shipped</text><rect fill="#FFFDF8" height="48.125" rx="5" ry="5" style="stroke:#8C6F56;stroke-width:1.0;" width="137.1992" x="1571.6021" y="595.6133"/><text fill="#000000" font-family="Roboto" font-size="12" lengthAdjust="spacing" textLength="68.3848" x="1581.6021" y="616.7461">Safety check</text><text fill="#000000" font-family="Roboto" font-size="12" lengthAdjust="spacing" textLength="117.1992" x="1581.6021" y="630.8086">(flags risky passages)</text><line style="stroke:#000000;stroke-width:1.5;" x1="1565.3267" x2="1565.3267" y1="66.707" y2="1748.584"/><line style="stroke:#000000;stroke-width:1.5;" x1="1950.2407" x2="1950.2407" y1="66.707" y2="1748.584"/><line style="stroke:#5A3E28;stroke-width:1.0;" x1="188.5835" x2="188.5835" y1="371.2383" y2="391.2383"/><polygon fill="#5A3E28" points="184.5835,381.2383,188.5835,391.2383,192.5835,381.2383,188.5835,385.2383" style="stroke:#5A3E28;stroke-width:1.0;"/><line style="stroke:#5A3E28;stroke-width:1.0;" x1="188.5835" x2="188.5835" y1="1194.6133" y2="1214.6133"/><polygon fill="#5A3E28" points="184.5835,1204.6133,188.5835,1214.6133,192.5835,1204.6133,188.5835,1208.6133" style="stroke:#5A3E28;stroke-width:1.0;"/><line style="stroke:#5A3E28;stroke-width:1.0;" x1="188.5835" x2="188.5835" y1="1262.7383" y2="1282.7383"/><polygon fill="#5A3E28" points="184.5835,1272.7383,188.5835,1282.7383,192.5835,1272.7383,188.5835,1276.7383" style="stroke:#5A3E28;stroke-width:1.0;"/><line style="stroke:#5A3E28;stroke-width:1.0;" x1="272.8682" x2="272.8682" y1="1432.9883" y2="1452.9883"/><polygon fill="#5A3E28" points="268.8682,1442.9883,272.8682,1452.9883,276.8682,1442.9883,272.8682,1446.9883" style="stroke:#5A3E28;stroke-width:1.0;"/><line style="stroke:#5A3E28;stroke-width:1.0;" x1="158.5339" x2="104.2988" y1="1362.8633" y2="1362.8633"/><line style="stroke:#5A3E28;stroke-width:1.0;" x1="104.2988" x2="104.2988" y1="1362.8633" y2="1384.8633"/><polygon fill="#5A3E28" points="100.2988,1374.8633,104.2988,1384.8633,108.2988,1374.8633,104.2988,1378.8633" style="stroke:#5A3E28;stroke-width:1.0;"/><line style="stroke:#5A3E28;stroke-width:1.0;" x1="218.6331" x2="272.8682" y1="1362.8633" y2="1362.8633"/><line style="stroke:#5A3E28;stroke-width:1.0;" x1="272.8682" x2="272.8682" y1="1362.8633" y2="1384.8633"/><polygon fill="#5A3E28" points="268.8682,1374.8633,272.8682,1384.8633,276.8682,1374.8633,272.8682,1378.8633" style="stroke:#5A3E28;stroke-width:1.0;"/><line style="stroke:#5A3E28;stroke-width:1.0;" x1="104.2988" x2="104.2988" y1="1418.9258" y2="1519.1133"/><line style="stroke:#5A3E28;stroke-width:1.0;" x1="104.2988" x2="176.5835" y1="1519.1133" y2="1519.1133"/><polygon fill="#5A3E28" points="166.5835,1515.1133,176.5835,1519.1133,166.5835,1523.1133,170.5835,1519.1133" style="stroke:#5A3E28;stroke-width:1.0;"/><line style="stroke:#5A3E28;stroke-width:1.0;" x1="272.8682" x2="272.8682" y1="1501.1133" y2="1519.1133"/><line style="stroke:#5A3E28;stroke-width:1.0;" x1="272.8682" x2="200.5835" y1="1519.1133" y2="1519.1133"/><polygon fill="#5A3E28" points="210.5835,1515.1133,200.5835,1519.1133,210.5835,1523.1133,206.5835,1519.1133" style="stroke:#5A3E28;stroke-width:1.0;"/><line style="stroke:#5A3E28;stroke-width:1.0;" x1="188.5835" x2="188.5835" y1="1330.8633" y2="1350.8633"/><polygon fill="#5A3E28" points="184.5835,1340.8633,188.5835,1350.8633,192.5835,1340.8633,188.5835,1344.8633" style="stroke:#5A3E28;stroke-width:1.0;"/><line style="stroke:#5A3E28;stroke-width:1.0;" x1="188.5835" x2="188.5835" y1="1531.1133" y2="1551.1133"/><polygon fill="#5A3E28" points="184.5835,1541.1133,188.5835,1551.1133,192.5835,1541.1133,188.5835,1545.1133" style="stroke:#5A3E28;stroke-width:1.0;"/><line style="stroke:#5A3E28;stroke-width:1.0;" x1="188.5835" x2="188.5835" y1="1585.1758" y2="1605.9961"/><polygon fill="#5A3E28" points="184.5835,1595.9961,188.5835,1605.9961,192.5835,1595.9961,188.5835,1599.9961" style="stroke:#5A3E28;stroke-width:1.0;"/><line style="stroke:#5A3E28;stroke-width:1.0;" x1="188.5835" x2="188.5835" y1="1640.0586" y2="1670.8789"/><polygon fill="#5A3E28" points="184.5835,1660.8789,188.5835,1670.8789,192.5835,1660.8789,188.5835,1664.8789" style="stroke:#5A3E28;stroke-width:1.0;"/><line style="stroke:#5A3E28;stroke-width:1.0;" x1="188.5835" x2="188.5835" y1="1694.8789" y2="1726.584"/><polygon fill="#5A3E28" points="184.5835,1716.584,188.5835,1726.584,192.5835,1716.584,188.5835,1720.584" style="stroke:#5A3E28;stroke-width:1.0;"/><line style="stroke:#5A3E28;stroke-width:1.0;" x1="683.3862" x2="683.3862" y1="112.8008" y2="132.8008"/><polygon fill="#5A3E28" points="679.3862,122.8008,683.3862,132.8008,687.3862,122.8008,683.3862,126.8008" style="stroke:#5A3E28;stroke-width:1.0;"/><line style="stroke:#5A3E28;stroke-width:1.0;" x1="683.3862" x2="683.3862" y1="194.9883" y2="214.9883"/><polygon fill="#5A3E28" points="679.3862,204.9883,683.3862,214.9883,687.3862,204.9883,683.3862,208.9883" style="stroke:#5A3E28;stroke-width:1.0;"/><line style="stroke:#5A3E28;stroke-width:1.0;" x1="683.3862" x2="683.3862" y1="263.1133" y2="283.1133"/><polygon fill="#5A3E28" points="679.3862,273.1133,683.3862,283.1133,687.3862,273.1133,683.3862,277.1133" style="stroke:#5A3E28;stroke-width:1.0;"/><line style="stroke:#5A3E28;stroke-width:1.0;" x1="1089.3896" x2="1089.3896" y1="848.1133" y2="883.1133"/><polygon fill="#5A3E28" points="1085.3896,873.1133,1089.3896,883.1133,1093.3896,873.1133,1089.3896,877.1133" style="stroke:#5A3E28;stroke-width:1.0;"/><line style="stroke:#5A3E28;stroke-width:1.0;" x1="1089.3896" x2="1089.3896" y1="765.9258" y2="785.9258"/><polygon fill="#5A3E28" points="1085.3896,775.9258,1089.3896,785.9258,1093.3896,775.9258,1089.3896,779.9258" style="stroke:#5A3E28;stroke-width:1.0;"/><line style="stroke:#5A3E28;stroke-width:1.0;" x1="1140.7571" x2="1475.5825" y1="963.2383" y2="963.2383"/><line style="stroke:#5A3E28;stroke-width:1.0;" x1="1475.5825" x2="1475.5825" y1="877.6133" y2="963.2383"/><polygon fill="#5A3E28" points="1471.5825,887.6133,1475.5825,877.6133,1479.5825,887.6133,1475.5825,883.6133" style="stroke:#5A3E28;stroke-width:1.0;"/><line style="stroke:#5A3E28;stroke-width:1.0;" x1="1475.5825" x2="1475.5825" y1="748.8945" y2="829.4883"/><line style="stroke:#5A3E28;stroke-width:1.0;" x1="1475.5825" x2="1144.3721" y1="748.8945" y2="748.8945"/><polygon fill="#5A3E28" points="1154.3721,744.8945,1144.3721,748.8945,1154.3721,752.8945,1150.3721,748.8945" style="stroke:#5A3E28;stroke-width:1.0;"/><line style="stroke:#5A3E28;stroke-width:1.0;" x1="1089.3896" x2="1089.3896" y1="931.2383" y2="951.2383"/><polygon fill="#5A3E28" points="1085.3896,941.2383,1089.3896,951.2383,1093.3896,941.2383,1089.3896,945.2383" style="stroke:#5A3E28;stroke-width:1.0;"/><line style="stroke:#5A3E28;stroke-width:1.0;" x1="1089.3896" x2="1089.3896" y1="975.2383" y2="1010.2383"/><polygon fill="#5A3E28" points="1085.3896,1000.2383,1089.3896,1010.2383,1093.3896,1000.2383,1089.3896,1004.2383" style="stroke:#5A3E28;stroke-width:1.0;"/><line style="stroke:#5A3E28;stroke-width:1.0;" x1="1640.2017" x2="1640.2017" y1="575.6133" y2="595.6133"/><polygon fill="#5A3E28" points="1636.2017,585.6133,1640.2017,595.6133,1644.2017,585.6133,1640.2017,589.6133" style="stroke:#5A3E28;stroke-width:1.0;"/><line style="stroke:#5A3E28;stroke-width:1.0;" x1="188.5835" x2="188.5835" y1="439.3633" y2="444.3633"/><line style="stroke:#5A3E28;stroke-width:1.0;" x1="188.5835" x2="683.3862" y1="444.3633" y2="444.3633"/><line style="stroke:#5A3E28;stroke-width:1.0;" x1="683.3862" x2="683.3862" y1="444.3633" y2="459.3633"/><polygon fill="#5A3E28" points="679.3862,449.3633,683.3862,459.3633,687.3862,449.3633,683.3862,453.3633" style="stroke:#5A3E28;stroke-width:1.0;"/><line style="stroke:#5A3E28;stroke-width:1.0;" x1="683.3862" x2="683.3862" y1="507.4883" y2="512.4883"/><line style="stroke:#5A3E28;stroke-width:1.0;" x1="683.3862" x2="1640.2017" y1="512.4883" y2="512.4883"/><line style="stroke:#5A3E28;stroke-width:1.0;" x1="1640.2017" x2="1640.2017" y1="512.4883" y2="527.4883"/><polygon fill="#5A3E28" points="1636.2017,517.4883,1640.2017,527.4883,1644.2017,517.4883,1640.2017,521.4883" style="stroke:#5A3E28;stroke-width:1.0;"/><line style="stroke:#5A3E28;stroke-width:1.0;" x1="1640.2017" x2="1640.2017" y1="643.7383" y2="648.7383"/><line style="stroke:#5A3E28;stroke-width:1.0;" x1="1640.2017" x2="683.3862" y1="648.7383" y2="648.7383"/><line style="stroke:#5A3E28;stroke-width:1.0;" x1="683.3862" x2="683.3862" y1="648.7383" y2="663.7383"/><polygon fill="#5A3E28" points="679.3862,653.7383,683.3862,663.7383,687.3862,653.7383,683.3862,657.7383" style="stroke:#5A3E28;stroke-width:1.0;"/><line style="stroke:#5A3E28;stroke-width:1.0;" x1="683.3862" x2="683.3862" y1="711.8633" y2="716.8633"/><line style="stroke:#5A3E28;stroke-width:1.0;" x1="683.3862" x2="1089.3896" y1="716.8633" y2="716.8633"/><line style="stroke:#5A3E28;stroke-width:1.0;" x1="1089.3896" x2="1089.3896" y1="716.8633" y2="731.8633"/><polygon fill="#5A3E28" points="1085.3896,721.8633,1089.3896,731.8633,1093.3896,721.8633,1089.3896,725.8633" style="stroke:#5A3E28;stroke-width:1.0;"/><line style="stroke:#5A3E28;stroke-width:1.0;" x1="1089.3896" x2="1089.3896" y1="1058.3633" y2="1063.3633"/><line style="stroke:#5A3E28;stroke-width:1.0;" x1="1089.3896" x2="683.3862" y1="1063.3633" y2="1063.3633"/><line style="stroke:#5A3E28;stroke-width:1.0;" x1="683.3862" x2="683.3862" y1="1063.3633" y2="1078.3633"/><polygon fill="#5A3E28" points="679.3862,1068.3633,683.3862,1078.3633,687.3862,1068.3633,683.3862,1072.3633" style="stroke:#5A3E28;stroke-width:1.0;"/><line style="stroke:#5A3E28;stroke-width:1.0;" x1="683.3862" x2="683.3862" y1="1126.4883" y2="1131.4883"/><line style="stroke:#5A3E28;stroke-width:1.0;" x1="683.3862" x2="188.5835" y1="1131.4883" y2="1131.4883"/><line style="stroke:#5A3E28;stroke-width:1.0;" x1="188.5835" x2="188.5835" y1="1131.4883" y2="1146.4883"/><polygon fill="#5A3E28" points="184.5835,1136.4883,188.5835,1146.4883,192.5835,1136.4883,188.5835,1140.4883" style="stroke:#5A3E28;stroke-width:1.0;"/><line style="stroke:#5A3E28;stroke-width:1.0;" x1="683.3862" x2="683.3862" y1="317.1758" y2="322.1758"/><line style="stroke:#5A3E28;stroke-width:1.0;" x1="683.3862" x2="188.5835" y1="322.1758" y2="322.1758"/><line style="stroke:#5A3E28;stroke-width:1.0;" x1="188.5835" x2="188.5835" y1="322.1758" y2="337.1758"/><polygon fill="#5A3E28" points="184.5835,327.1758,188.5835,337.1758,192.5835,327.1758,188.5835,331.1758" style="stroke:#5A3E28;stroke-width:1.0;"/><line style="stroke:#5A3E28;stroke-width:1.0;" x1="127.532" x2="518.3438" y1="1682.8789" y2="1682.8789"/><polygon fill="#5A3E28" points="514.3438,993.5117,518.3438,983.5117,522.3438,993.5117,518.3438,989.5117" style="stroke:#5A3E28;stroke-width:1.0;"/><line style="stroke:#5A3E28;stroke-width:1.0;" x1="518.3438" x2="518.3438" y1="300.1445" y2="1682.8789"/><line style="stroke:#5A3E28;stroke-width:1.0;" x1="518.3438" x2="615.6421" y1="300.1445" y2="300.1445"/><polygon fill="#5A3E28" points="625.6421,296.1445,615.6421,300.1445,625.6421,304.1445,621.6421,300.1445" style="stroke:#5A3E28;stroke-width:1.0;"/><text fill="#000000" font-family="Roboto" font-size="18" lengthAdjust="spacing" textLength="40.5352" x="275.363" y="83.4063">Child</text><text fill="#000000" font-family="Roboto" font-size="18" lengthAdjust="spacing" textLength="72.334" x="744.6086" y="83.4063">Guardian</text><text fill="#000000" font-family="Roboto" font-size="18" lengthAdjust="spacing" textLength="51.9961" x="1242.3103" y="83.4063">Admin</text><text fill="#000000" font-family="Roboto" font-size="18" lengthAdjust="spacing" textLength="59.7129" x="1716.9272" y="83.4063">System</text><rect fill="none" height="145.25" id="_legend" rx="5" ry="5" style="stroke:#000000;stroke-width:1.0;" width="495.3516" x="734.4446" y="1760.584"/><line style="stroke:#000000;stroke-width:1.0;" x1="734.4446" x2="917.2507" y1="1773.7871" y2="1773.7871"/><line style="stroke:#000000;stroke-width:1.0;" x1="734.4446" x2="917.2507" y1="1775.7871" y2="1775.7871"/><text fill="#000000" font-family="Roboto" font-size="14" lengthAdjust="spacing" textLength="122.7939" x="920.7234" y="1778.0723">Reading the journey</text><line style="stroke:#000000;stroke-width:1.0;" x1="1046.99" x2="1229.7961" y1="1773.7871" y2="1773.7871"/><line style="stroke:#000000;stroke-width:1.0;" x1="1046.99" x2="1229.7961" y1="1775.7871" y2="1775.7871"/><text fill="#000000" font-family="Roboto" font-size="14" lengthAdjust="spacing" textLength="155.7842" x="739.4446" y="1794.9785">Columns = who is acting:</text><text fill="#000000" font-family="Roboto" font-size="14" font-weight="bold" lengthAdjust="spacing" textLength="32.3271" x="898.7014" y="1794.9785">Child</text><text fill="#000000" font-family="Roboto" font-size="14" lengthAdjust="spacing" textLength="2.7549" x="931.0286" y="1794.9785">,</text><text fill="#000000" font-family="Roboto" font-size="14" font-weight="bold" lengthAdjust="spacing" textLength="56.9502" x="937.2561" y="1794.9785">Guardian</text><text fill="#000000" font-family="Roboto" font-size="14" lengthAdjust="spacing" textLength="2.7549" x="994.2063" y="1794.9785">,</text><text fill="#000000" font-family="Roboto" font-size="14" font-weight="bold" lengthAdjust="spacing" textLength="40.9951" x="1000.4338" y="1794.9785">Admin</text><text fill="#000000" font-family="Roboto" font-size="14" lengthAdjust="spacing" textLength="2.7549" x="1041.429" y="1794.9785">,</text><text fill="#000000" font-family="Roboto" font-size="14" font-weight="bold" lengthAdjust="spacing" textLength="47.2637" x="1047.6565" y="1794.9785">System</text><text fill="#000000" font-family="Roboto" font-size="14" lengthAdjust="spacing" textLength="126.4033" x="1098.3928" y="1794.9785">(behind the scenes).</text><text fill="#000000" font-family="Roboto" font-size="14" font-weight="bold" lengthAdjust="spacing" textLength="33.2705" x="742.9309" y="1813.3848">Node</text><text fill="#000000" font-family="Roboto" font-size="14" font-weight="bold" lengthAdjust="spacing" textLength="54.7285" x="790.4612" y="1813.3848">Meaning</text><text fill="#000000" filter="url(#bx02p7fodduke0)" font-family="Roboto" font-size="14" lengthAdjust="spacing" textLength="33.6396" x="746.3899" y="1829.791">white</text><text fill="#000000" font-family="Roboto" font-size="14" lengthAdjust="spacing" textLength="153.248" x="790.4475" y="1829.791">Shipped in the app today</text><text fill="#000000" filter="url(#bx02p7fodduke1)" font-family="Roboto" font-size="14" lengthAdjust="spacing" textLength="27.3779" x="746.3899" y="1846.1973">rose</text><text fill="#000000" font-family="Roboto" font-size="14" lengthAdjust="spacing" textLength="235.833" x="790.4475" y="1846.1973">Planned target-state step, not yet built</text><line style="stroke:#000000;stroke-width:1.0;" x1="739.4446" x2="1029.7532" y1="1800.3965" y2="1800.3965"/><line style="stroke:#000000;stroke-width:1.0;" x1="739.4446" x2="1029.7532" y1="1816.8027" y2="1816.8027"/><line style="stroke:#000000;stroke-width:1.0;" x1="739.4446" x2="1029.7532" y1="1833.209" y2="1833.209"/><line style="stroke:#000000;stroke-width:1.0;" x1="739.4446" x2="1029.7532" y1="1849.6152" y2="1849.6152"/><line style="stroke:#000000;stroke-width:1.0;" x1="739.4446" x2="739.4446" y1="1800.3965" y2="1849.6152"/><line style="stroke:#000000;stroke-width:1.0;" x1="786.9749" x2="786.9749" y1="1800.3965" y2="1849.6152"/><line style="stroke:#000000;stroke-width:1.0;" x1="1029.7532" x2="1029.7532" y1="1800.3965" y2="1849.6152"/><text fill="#000000" font-family="Roboto" font-size="14" lengthAdjust="spacing" textLength="441.3691" x="739.4446" y="1864.6035">The child-initiated request (Act 2) is the target-state entry point; today a</text><text fill="#000000" font-family="Roboto" font-size="14" lengthAdjust="spacing" textLength="478.3037" x="739.4446" y="1881.0098">guardian starts requests from the Intake page. Approval (ADR-005) is the one</text><text fill="#000000" font-family="Roboto" font-size="14" lengthAdjust="spacing" textLength="302.8115" x="739.4446" y="1897.416">mandatory gate before any story reaches a child.</text><!--SRC=[fLVRRkCu4dtNLzIuWMqR7Tb9vu94wSuY7IUzMKnF1qaQFG_zGakqpR54QaWw7WD-s6_PJzilsLEKv8kI30OO1u4jaImMgqwTKtnB7__69tfBtvoqyVKVfRHAwbJIJMuM2JqAEv4-Vl32IxhMMUnDZ2_wjvbRBPVHMwoyioQRftxmxTSupOLLVaaYzyhFCqbTRJm9JPTtj-JaxtCstUlJbSddXNOah2G_bJ0odHT23qPogdYJgOnTAhLqP4qktJbf0sDZbUTK23jpvAQgB6L6JuxAN6YDdyxKfeGhbHLU6IrooeqfAJFp4SnWX0HDH0aZPR_sNS7WaahXfwGSfLELPx7IoYkSEAEk3m4Wnm60u_V6oPZzm1Zxj7s4KbZlo8pnA7orCPz-YUMZkSezZ5cHph1IQLv2zmUKoJ8toq9gJrO-ARdeLNuz8Bv8Wakjb8ZJ01DJvN0abs2KQ6oDzb9d0sVJWJLpBstVkp_ejKztfZ9wHvEvi9b2Fi8Iyh3kUi5WPb8tS7EalpGBQV6xb7ZpVl_zIRn_4X_kn-LKuEn78YxCIEKodgjueQmSMr585oCKQgBxHRQn5XAZz6GWCil_yVx-SOmiPy8Rkun3ncDHbjOyYHmhuMNpX2GXt1jJmY8nNgP-RkK01vXWKxWeVuydG4cLx7uvBtBOU8wXJ7gXyhzapep7kTAojiM1gzyWFO8ZQ6Lg0BVK_oLpl0WHY0DyAgDTjzHfPIPLkGgkiws_LRuHoYsNhrOhrtPJiZzqjmNoSw31IVhOLDBUBcnxKUHcIWFTea0ensAU-nkWxnVadJhtPcIywMnD6G7Z4-1BPwXoO-dDpIN_RSse1-6DfOFzhG4t5PbP860q5hcJMoENrff5RUzO7Chtf-r1TkdL2QbNJ-2bJyzSkxaPthmuqzXCsdhMQNeoFZvvTTRZLAKpuCpHmGjpXaeKHcVFjXwVZW_bwPyi-5CFVZ5UFZ_DmVNPyBGzQzjEUZOwEXrlHtoX2cHTVbSP2D0XfH6pJ_sMqi3Jv9K6itsanTGmIGfuYXnr7TVno9WPg2-NtiizycO6lkgd3hIoUdEpFppxTBgwOhojy7mr75vTNwq-romKNXqFpwwkLfTPeSBpzH7_hHwMpijY5RKAWuD41mar5iZeaU6Vx8vXRTcP7crjXHAqFaeUm5BWtwWh2t32e1JEBH2XFVfip2INUn72T5cMA2Or9ga5T2FhdKUe2520canzGeE6HGUvcO3AwN__-IyrYXGbLoXwJ9OYdLPoyXOQPGr4GqPTpKNp3i_IeRx4au1NhvglLxdM3ksOF4wPdKhioc48IQdKPoSKrGnA16cvg6SXbmkXcGBOQ8nF2F3xXEvPgnqagos8vPPWziAIgCblyhMKbR21nW45rjbbVSRM4S6hTzNXw0x58sslTSOtDuV3i-5HyWWZdTlW9MrvteaW8u3h4f34ePH7ZCK8chQxJqresp1e33z8oTur2RBLUVUYIe4a0GP-8SKCjb-qITrwoLh1UZinF4peKn2Y491QYAfmDTXElgDNajKu7of2GOa9y-z2eHX1WJbpQGiU6y6ZKfKoQDDEx7xeIkyIsjL7O5-CfUSpotGMTSUvcE3WoiqucyvXQzVQ2wTIGQs37hTIj1NKfFDbsK36TJ33B5pK-LnlhIVzVh_p6iX1BM8cdqDy7ScZXFx5hGBjD0VKlHpUSqVHWB1ca0RcmIY7rgCG4ERYF2BQ8BHgjWWUpoK6kZS8HWWz1ZME8hBb7jw7fmVFVIVsJi7nE4sFJRru61YwGek6bhMDP-pDHiFUusglTT3N6uN1EVOAS7Xrbq7b_211IxUx2yDbWKb0Du37JnMKH30KnHSRi77jMxa00j56dZTXMqov9BiC51eZxQ8ga7_sU3fw-Lve3RfBnl95dH3qQSbbzIlgSby3lScgVZvaQe-QJEsop752buwRnZg1Mt2gtokFx0MNWnTHjrCF5CRA3e-932oWHYY2IHkxDQu6QFh3cXPu6yxwqZ1KWzeDEtBpjlof1TnTsa898bslO_Sa2LYYVv1bpBv0b-2WdzN82Yv_O0VLCfTX3NFvEnYL-RWj47crO93K0d7Rna65jGs-2ev4EZKA26xPuaCEK9-0BYzwpiIGmUvNpJG350IOSlfxZ6Z4OcAvxt7YgRfTtTB4d4SIlTkwSUwjiOyxIq4fP54ouijcyK8eD1VGKL6LOnltjHtSkYm4wLbPVTMRdfmHm-sruv9kMkoWv1Z0tHJHTC-gTwlj1rgUTUqHIacDGqWXwC0qF-l9-Lf9xiKsYRye5jnpcm9DHQ3jTrIn8dlnGtEVlQwQqJ9O-dOBCTajoUz10R5Y2jI5dUgYv6HKLOdoN8CBCyeeokKa487ntXGuDfg51bgypM_LZG2lCTPSoLjTNa8VHXV1w8V1w6AFdvf2NRy8rBj-gkID7vkxs9O4udfBjFg8pXJtUNn_aOAlYBJYrn-OiPAwARyWFZgh3apX_SMA7kfBlrft6U2034t0pkgG5QmEbvgjrNUrS5St-YgvYAGiM_UTOEsn8PsjriSsFL7eaKBqWy1isyD5dfiZ0_OvhvqJCBSMYD25hjiDLzK4MxcjwAf4mVRfib6wZSZLcndDShM-H5TIE9BWQiH3BpVCXIfp3Ntt6SCL5gB_0m00]--></g></svg>
