<svg xmlns="http://www.w3.org/2000/svg" xmlns:xlink="http://www.w3.org/1999/xlink" contentStyleType="text/css" height="2110px" preserveAspectRatio="none" style="width:1418px;height:2110px;background:#FAFAFA;" version="1.1" viewBox="0 0 1418 2110" width="1418px" zoomAndPan="magnify"><title>Kid-Surface Journey</title><defs><style type="text/css">@import url('https://fonts.googleapis.com/css?family=Roboto:400,100,100italic,300,300italic,400italic,500,500italic,700,700italic,900,900italic');</style><filter height="1" id="bgm4rzt4rfn9h0" width="1" x="0" y="0"><feFlood flood-color="#FFFDF8" result="flood"/><feComposite in="SourceGraphic" in2="flood" operator="over"/></filter><filter height="1" id="bgm4rzt4rfn9h1" width="1" x="0" y="0"><feFlood flood-color="#F3D9D4" result="flood"/><feComposite in="SourceGraphic" in2="flood" operator="over"/></filter></defs><g><rect fill="#FAFAFA" height="2110" style="stroke:none;stroke-width:1.0;" width="1418" x="0" y="0"/><text fill="#000000" font-family="Roboto" font-size="14" font-weight="bold" lengthAdjust="spacing" textLength="156.9258" x="629.5304" y="32.9951">Kid-Surface Journey</text><text fill="#000000" font-family="Roboto" font-size="14" font-weight="bold" lengthAdjust="spacing" textLength="401.8848" x="507.0509" y="49.292">(child-facing app "/"; rose = planned, not yet built)</text><ellipse cx="709.5269" cy="73.5938" fill="#222222" rx="10" ry="10" style="stroke:#222222;stroke-width:1.0;"/><rect fill="#FFFDF8" height="47.9375" rx="5" ry="5" style="stroke:#8C6F56;stroke-width:0.5;" width="132.4824" x="643.2856" y="103.5938"/><text fill="#000000" font-family="Roboto" font-size="12" lengthAdjust="spacing" textLength="81.9609" x="653.2856" y="124.7324">Open the app</text><text fill="#000000" font-family="Roboto" font-size="12" lengthAdjust="spacing" textLength="112.4824" x="653.2856" y="138.7012">(tap the Kids door)</text><path d="M805.4038,244.4604 L805.4038,275.7261 L785.4038,279.7261 L805.4038,283.7261 L805.4038,314.9917 A0,0 0 0 0 805.4038,314.9917 L1165.0195,314.9917 A0,0 0 0 0 1165.0195,314.9917 L1165.0195,254.4604 L1155.0195,244.4604 L805.4038,244.4604 A0,0 0 0 0 805.4038,244.4604 " fill="#F1E9D8" style="stroke:#C9B48F;stroke-width:0.5;"/><path d="M1155.0195,244.4604 L1155.0195,254.4604 L1165.0195,254.4604 L1155.0195,244.4604 " fill="#F1E9D8" style="stroke:#C9B48F;stroke-width:0.5;"/><text fill="#000000" font-family="Roboto" font-size="13" lengthAdjust="spacing" textLength="338.6157" x="811.4038" y="261.5273">/guardian/login?intent=authorize-device  &#8226;  shipped</text><text fill="#000000" font-family="Roboto" font-size="13" lengthAdjust="spacing" textLength="296.5498" x="811.4038" y="276.6602">ADR-014 -- mints a 90-day device grant, then</text><text fill="#000000" font-family="Roboto" font-size="13" lengthAdjust="spacing" textLength="306.7822" x="811.4038" y="291.793">drops back here; a returning authorized device</text><text fill="#000000" font-family="Roboto" font-size="13" lengthAdjust="spacing" textLength="171.2217" x="811.4038" y="306.9258">never sees this step again</text><rect fill="#FFFDF8" height="47.9375" rx="5" ry="5" style="stroke:#8C6F56;stroke-width:0.5;" width="151.7539" x="633.6499" y="255.7573"/><text fill="#000000" font-family="Roboto" font-size="12" lengthAdjust="spacing" textLength="131.1211" x="643.6499" y="276.896">Guardian signs in and</text><text fill="#000000" font-family="Roboto" font-size="12" lengthAdjust="spacing" textLength="131.7539" x="643.6499" y="290.8647">authorizes this device</text><polygon fill="#F8F3E8" points="622.252,171.5313,796.8018,171.5313,808.8018,197.1406,796.8018,222.75,622.252,222.75,610.252,197.1406,622.252,171.5313" style="stroke:#8C6F56;stroke-width:0.5;"/><text fill="#5A3E28" font-family="Roboto" font-size="11" lengthAdjust="spacing" textLength="13.7017" x="713.5269" y="232.9604">no</text><text fill="#000000" font-family="Roboto" font-size="11" lengthAdjust="spacing" textLength="140.3359" x="622.252" y="181.7417">Is this device authorized?</text><text fill="#000000" font-family="Roboto" font-size="11" lengthAdjust="spacing" textLength="142.248" x="622.252" y="194.5464">(local device-grant check,</text><text fill="#000000" font-family="Roboto" font-size="11" lengthAdjust="spacing" textLength="174.5498" x="622.252" y="207.3511">no guardian login, no Supabase</text><text fill="#000000" font-family="Roboto" font-size="11" lengthAdjust="spacing" textLength="59.313" x="622.252" y="220.1558">round-trip)</text><text fill="#5A3E28" font-family="Roboto" font-size="11" lengthAdjust="spacing" textLength="19.0083" x="808.8018" y="194.5464">yes</text><polygon fill="#F8F3E8" points="709.5269,334.9917,721.5269,346.9917,709.5269,358.9917,697.5269,346.9917,709.5269,334.9917" style="stroke:#8C6F56;stroke-width:0.5;"/><path d="M804.3403,397.3784 L804.3403,405.9448 L784.3403,409.9448 L804.3403,413.9448 L804.3403,422.5112 A0,0 0 0 0 804.3403,422.5112 L1034.4067,422.5112 A0,0 0 0 0 1034.4067,422.5112 L1034.4067,407.3784 L1024.4067,397.3784 L804.3403,397.3784 A0,0 0 0 0 804.3403,397.3784 " fill="#F1E9D8" style="stroke:#C9B48F;stroke-width:0.5;"/><path d="M1024.4067,397.3784 L1024.4067,407.3784 L1034.4067,407.3784 L1024.4067,397.3784 " fill="#F1E9D8" style="stroke:#C9B48F;stroke-width:0.5;"/><text fill="#000000" font-family="Roboto" font-size="13" lengthAdjust="spacing" textLength="209.0664" x="810.3403" y="414.4453">/kids  (Profile Picker)  &#8226;  shipped</text><rect fill="#FFFDF8" height="61.9063" rx="5" ry="5" style="stroke:#8C6F56;stroke-width:0.5;" width="149.627" x="634.7134" y="378.9917"/><text fill="#000000" font-family="Roboto" font-size="12" lengthAdjust="spacing" textLength="87.5215" x="644.7134" y="400.1304">Tap my avatar</text><text fill="#000000" font-family="Roboto" font-size="12" lengthAdjust="spacing" textLength="105.2637" x="644.7134" y="414.0991">(2-column picker,</text><text fill="#000000" font-family="Roboto" font-size="12" lengthAdjust="spacing" textLength="129.627" x="644.7134" y="428.0679">dashed circle if none)</text><path d="M809.1274,472.3003 L809.1274,480.8667 L789.1274,484.8667 L809.1274,488.8667 L809.1274,497.4331 A0,0 0 0 0 809.1274,497.4331 L968.8682,497.4331 A0,0 0 0 0 968.8682,497.4331 L968.8682,482.3003 L958.8682,472.3003 L809.1274,472.3003 A0,0 0 0 0 809.1274,472.3003 " fill="#F1E9D8" style="stroke:#C9B48F;stroke-width:0.5;"/><path d="M958.8682,472.3003 L958.8682,482.3003 L968.8682,482.3003 L958.8682,472.3003 " fill="#F1E9D8" style="stroke:#C9B48F;stroke-width:0.5;"/><text fill="#000000" font-family="Roboto" font-size="13" lengthAdjust="spacing" textLength="138.7407" x="815.1274" y="489.3672">status pill  &#8226;  shipped</text><rect fill="#FFFDF8" height="47.9375" rx="5" ry="5" style="stroke:#8C6F56;stroke-width:0.5;" width="159.2012" x="629.9263" y="460.8979"/><text fill="#000000" font-family="Roboto" font-size="12" lengthAdjust="spacing" textLength="139.2012" x="639.9263" y="482.0366">See "new story ready!"</text><text fill="#000000" font-family="Roboto" font-size="12" lengthAdjust="spacing" textLength="80.168" x="639.9263" y="496.0054">on my avatar</text><path d="M818.1187,547.2222 L818.1187,555.7886 L798.1187,559.7886 L818.1187,563.7886 L818.1187,572.355 A0,0 0 0 0 818.1187,572.355 L1023.0928,572.355 A0,0 0 0 0 1023.0928,572.355 L1023.0928,557.2222 L1013.0928,547.2222 L818.1187,547.2222 A0,0 0 0 0 818.1187,547.2222 " fill="#F1E9D8" style="stroke:#C9B48F;stroke-width:0.5;"/><path d="M1013.0928,547.2222 L1013.0928,557.2222 L1023.0928,557.2222 L1013.0928,547.2222 " fill="#F1E9D8" style="stroke:#C9B48F;stroke-width:0.5;"/><text fill="#000000" font-family="Roboto" font-size="13" lengthAdjust="spacing" textLength="183.9741" x="824.1187" y="564.2891">/library/:profileId  &#8226;  shipped</text><rect fill="#FFFDF8" height="61.9063" rx="5" ry="5" style="stroke:#8C6F56;stroke-width:0.5;" width="177.1836" x="620.9351" y="528.8354"/><text fill="#000000" font-family="Roboto" font-size="12" lengthAdjust="spacing" textLength="100.4297" x="630.9351" y="549.9741">Open my Library</text><text fill="#000000" font-family="Roboto" font-size="12" lengthAdjust="spacing" textLength="142.7813" x="630.9351" y="563.9429">(Continue Reading hero</text><text fill="#000000" font-family="Roboto" font-size="12" lengthAdjust="spacing" textLength="157.1836" x="630.9351" y="577.9116">+ "More to Explore" shelf)</text><path d="M819.8853,620.98 L819.8853,644.6792 L799.8853,648.6792 L819.8853,652.6792 L819.8853,676.3784 A0,0 0 0 0 819.8853,676.3784 L1175.2988,676.3784 A0,0 0 0 0 1175.2988,676.3784 L1175.2988,630.98 L1165.2988,620.98 L819.8853,620.98 A0,0 0 0 0 819.8853,620.98 " fill="#F1E9D8" style="stroke:#C9B48F;stroke-width:0.5;"/><path d="M1165.2988,620.98 L1165.2988,630.98 L1175.2988,630.98 L1165.2988,620.98 " fill="#F1E9D8" style="stroke:#C9B48F;stroke-width:0.5;"/><text fill="#000000" font-family="Roboto" font-size="13" lengthAdjust="spacing" textLength="291.6558" x="825.8853" y="638.0469">RequestStory on the library page  &#8226;  shipped</text><text fill="#000000" font-family="Roboto" font-size="13" lengthAdjust="spacing" textLength="334.4136" x="825.8853" y="653.1797">surfaces to a guardian/admin to approve or decline</text><text fill="#000000" font-family="Roboto" font-size="13" lengthAdjust="spacing" textLength="302.999" x="825.8853" y="668.3125">(no moderation detail ever shown to the child)</text><rect fill="#FFFDF8" height="75.875" rx="5" ry="5" style="stroke:#8C6F56;stroke-width:0.5;" width="180.7168" x="619.1685" y="610.7417"/><text fill="#000000" font-family="Roboto" font-size="12" lengthAdjust="spacing" textLength="131.7539" x="629.1685" y="631.8804">Tap "Request a story"</text><text fill="#000000" font-family="Roboto" font-size="12" lengthAdjust="spacing" textLength="140.2324" x="629.1685" y="645.8491">and say what it's about</text><text fill="#000000" font-family="Roboto" font-size="12" lengthAdjust="spacing" textLength="160.7168" x="629.1685" y="659.8179">(or "Ask for the next book"</text><text fill="#000000" font-family="Roboto" font-size="12" lengthAdjust="spacing" textLength="103.2129" x="629.1685" y="673.7866">on a series book)</text><path d="M830.9155,725.0034 L830.9155,733.5698 L810.9155,737.5698 L830.9155,741.5698 L830.9155,750.1362 A0,0 0 0 0 830.9155,750.1362 L1042.1929,750.1362 A0,0 0 0 0 1042.1929,750.1362 L1042.1929,735.0034 L1032.1929,725.0034 L830.9155,725.0034 A0,0 0 0 0 830.9155,725.0034 " fill="#F1E9D8" style="stroke:#C9B48F;stroke-width:0.5;"/><path d="M1032.1929,725.0034 L1032.1929,735.0034 L1042.1929,735.0034 L1032.1929,725.0034 " fill="#F1E9D8" style="stroke:#C9B48F;stroke-width:0.5;"/><text fill="#000000" font-family="Roboto" font-size="13" lengthAdjust="spacing" textLength="190.2773" x="836.9155" y="742.0703">shipped  &#8226;  "My requests" list</text><rect fill="#FFFDF8" height="61.9063" rx="5" ry="5" style="stroke:#8C6F56;stroke-width:0.5;" width="202.7773" x="608.1382" y="706.6167"/><text fill="#000000" font-family="Roboto" font-size="12" lengthAdjust="spacing" textLength="132.8086" x="618.1382" y="727.7554">See my own requests'</text><text fill="#000000" font-family="Roboto" font-size="12" lengthAdjust="spacing" textLength="86.2207" x="618.1382" y="741.7241">friendly status</text><text fill="#000000" font-family="Roboto" font-size="12" lengthAdjust="spacing" textLength="182.7773" x="618.1382" y="755.6929">(Waiting / Yay! / Not this time)</text><rect fill="#FFFDF8" height="33.9688" rx="5" ry="5" style="stroke:#8C6F56;stroke-width:0.5;" width="88.3496" x="665.3521" y="788.5229"/><text fill="#000000" font-family="Roboto" font-size="12" lengthAdjust="spacing" textLength="68.3496" x="675.3521" y="809.6616">Pick a book</text><polygon fill="#F8F3E8" points="32,842.4917,152.812,842.4917,164.812,854.4917,152.812,866.4917,32,866.4917,20,854.4917,32,842.4917" style="stroke:#8C6F56;stroke-width:0.5;"/><text fill="#5A3E28" font-family="Roboto" font-size="11" lengthAdjust="spacing" textLength="19.0083" x="96.406" y="876.7021">yes</text><text fill="#000000" font-family="Roboto" font-size="11" lengthAdjust="spacing" textLength="120.812" x="32" y="858.2998">Is the story available?</text><path d="M192.7449,903.7144 L192.7449,912.2808 L172.7449,916.2808 L192.7449,920.2808 L192.7449,928.8472 A0,0 0 0 0 192.7449,928.8472 L527.2239,928.8472 A0,0 0 0 0 527.2239,928.8472 L527.2239,913.7144 L517.2239,903.7144 L192.7449,903.7144 A0,0 0 0 0 192.7449,903.7144 " fill="#F1E9D8" style="stroke:#C9B48F;stroke-width:0.5;"/><path d="M517.2239,903.7144 L517.2239,913.7144 L527.2239,913.7144 L517.2239,903.7144 " fill="#F1E9D8" style="stroke:#C9B48F;stroke-width:0.5;"/><text fill="#000000" font-family="Roboto" font-size="13" lengthAdjust="spacing" textLength="313.479" x="198.7449" y="920.7813">/read/:profileId/:storybookId/:version  &#8226;  shipped</text><rect fill="#FFFDF8" height="33.9688" rx="5" ry="5" style="stroke:#8C6F56;stroke-width:0.5;" width="160.6777" x="12.0671" y="899.2964"/><text fill="#000000" font-family="Roboto" font-size="12" lengthAdjust="spacing" textLength="140.6777" x="22.0671" y="920.4351">Reader opens the story</text><polygon fill="#F8F3E8" points="566.0808,842.4917,661.4177,842.4917,673.4177,854.4917,661.4177,866.4917,566.0808,866.4917,554.0808,854.4917,566.0808,842.4917" style="stroke:#8C6F56;stroke-width:0.5;"/><text fill="#000000" font-family="Roboto" font-size="11" lengthAdjust="spacing" textLength="95.3369" x="566.0808" y="858.2998">link is malformed</text><text fill="#5A3E28" font-family="Roboto" font-size="11" lengthAdjust="spacing" textLength="85.8301" x="673.4177" y="851.8975">story is missing</text><path d="M700.2747,897.894 L700.2747,906.4604 L680.2747,910.4604 L700.2747,914.4604 L700.2747,923.0269 A0,0 0 0 0 700.2747,923.0269 L970.801,923.0269 A0,0 0 0 0 970.801,923.0269 L970.801,907.894 L960.801,897.894 L700.2747,897.894 A0,0 0 0 0 700.2747,897.894 " fill="#F1E9D8" style="stroke:#C9B48F;stroke-width:0.5;"/><path d="M960.801,897.894 L960.801,907.894 L970.801,907.894 L960.801,897.894 " fill="#F1E9D8" style="stroke:#C9B48F;stroke-width:0.5;"/><text fill="#000000" font-family="Roboto" font-size="13" lengthAdjust="spacing" textLength="249.5264" x="706.2747" y="914.9609">shipped (reader.spec: malformed link)</text><rect fill="#FFFDF8" height="47.9375" rx="5" ry="5" style="stroke:#8C6F56;stroke-width:0.5;" width="133.0508" x="547.2239" y="886.4917"/><text fill="#000000" font-family="Roboto" font-size="12" lengthAdjust="spacing" textLength="113.0508" x="557.2239" y="907.6304">See a friendly exit,</text><text fill="#000000" font-family="Roboto" font-size="12" lengthAdjust="spacing" textLength="91.0254" x="557.2239" y="921.5991">not a dead end</text><ellipse cx="613.7493" cy="968.4292" fill="none" rx="11" ry="11" style="stroke:#222222;stroke-width:1.0;"/><ellipse cx="613.7493" cy="968.4292" fill="#222222" rx="6" ry="6" style="stroke:#222222;stroke-width:1.0;"/><path d="M1147.6956,900.894 L1147.6956,909.4604 L1127.6956,913.4604 L1147.6956,917.4604 L1147.6956,926.0269 A0,0 0 0 0 1147.6956,926.0269 L1406.9866,926.0269 A0,0 0 0 0 1406.9866,926.0269 L1406.9866,910.894 L1396.9866,900.894 L1147.6956,900.894 A0,0 0 0 0 1147.6956,900.894 " fill="#F1E9D8" style="stroke:#C9B48F;stroke-width:0.5;"/><path d="M1396.9866,900.894 L1396.9866,910.894 L1406.9866,910.894 L1396.9866,900.894 " fill="#F1E9D8" style="stroke:#C9B48F;stroke-width:0.5;"/><text fill="#000000" font-family="Roboto" font-size="13" lengthAdjust="spacing" textLength="238.291" x="1153.6956" y="917.9609">shipped (reader.spec: missing story)</text><rect fill="#FFFDF8" height="47.9375" rx="5" ry="5" style="stroke:#8C6F56;stroke-width:0.5;" width="136.8945" x="990.801" y="889.4917"/><text fill="#000000" font-family="Roboto" font-size="12" lengthAdjust="spacing" textLength="98.9121" x="1000.801" y="910.6304">See "not found",</text><text fill="#000000" font-family="Roboto" font-size="12" lengthAdjust="spacing" textLength="116.8945" x="1000.801" y="924.5991">not the offline copy</text><ellipse cx="1059.2483" cy="971.4292" fill="none" rx="11" ry="11" style="stroke:#222222;stroke-width:1.0;"/><ellipse cx="1059.2483" cy="971.4292" fill="#222222" rx="6" ry="6" style="stroke:#222222;stroke-width:1.0;"/><rect fill="#FFFDF8" height="47.9375" rx="5" ry="5" style="stroke:#8C6F56;stroke-width:0.5;" width="169.4316" x="624.811" y="1076.3979"/><text fill="#000000" font-family="Roboto" font-size="12" lengthAdjust="spacing" textLength="107.8418" x="634.811" y="1097.5366">Read the passage</text><text fill="#000000" font-family="Roboto" font-size="12" lengthAdjust="spacing" textLength="149.4316" x="634.811" y="1111.5054">(serif, generous spacing)</text><path d="M821.9741,1162.7222 L821.9741,1171.2886 L801.9741,1175.2886 L821.9741,1179.2886 L821.9741,1187.855 A0,0 0 0 0 821.9741,1187.855 L1051.4375,1187.855 A0,0 0 0 0 1051.4375,1187.855 L1051.4375,1172.7222 L1041.4375,1162.7222 L821.9741,1162.7222 A0,0 0 0 0 821.9741,1162.7222 " fill="#F1E9D8" style="stroke:#C9B48F;stroke-width:0.5;"/><path d="M1041.4375,1162.7222 L1041.4375,1172.7222 L1051.4375,1172.7222 L1041.4375,1162.7222 " fill="#F1E9D8" style="stroke:#C9B48F;stroke-width:0.5;"/><text fill="#000000" font-family="Roboto" font-size="13" lengthAdjust="spacing" textLength="208.4634" x="827.9741" y="1179.7891">state-gated visibility  &#8226;  shipped</text><rect fill="#FFFDF8" height="61.9063" rx="5" ry="5" style="stroke:#8C6F56;stroke-width:0.5;" width="184.8945" x="617.0796" y="1144.3354"/><text fill="#000000" font-family="Roboto" font-size="12" lengthAdjust="spacing" textLength="85.8809" x="627.0796" y="1165.4741">Make a choice</text><text fill="#000000" font-family="Roboto" font-size="12" lengthAdjust="spacing" textLength="160.4766" x="627.0796" y="1179.4429">(some choices stay hidden</text><text fill="#000000" font-family="Roboto" font-size="12" lengthAdjust="spacing" textLength="164.8945" x="627.0796" y="1193.4116">until the story-state allows)</text><polygon fill="#F8F3E8" points="675.5923,1226.2417,743.4614,1226.2417,755.4614,1238.2417,743.4614,1250.2417,675.5923,1250.2417,663.5923,1238.2417,675.5923,1226.2417" style="stroke:#8C6F56;stroke-width:0.5;"/><text fill="#000000" font-family="Roboto" font-size="11" lengthAdjust="spacing" textLength="67.8691" x="675.5923" y="1242.0498">Am I online?</text><text fill="#5A3E28" font-family="Roboto" font-size="11" lengthAdjust="spacing" textLength="19.0083" x="644.584" y="1235.6475">yes</text><text fill="#5A3E28" font-family="Roboto" font-size="11" lengthAdjust="spacing" textLength="34.3267" x="755.4614" y="1235.6475">offline</text><rect fill="#FFFDF8" height="33.9688" rx="5" ry="5" style="stroke:#8C6F56;stroke-width:0.5;" width="175.3027" x="510.9932" y="1260.2417"/><text fill="#000000" font-family="Roboto" font-size="12" lengthAdjust="spacing" textLength="155.3027" x="520.9932" y="1281.3804">My progress saves as I go</text><path d="M933.1377,1278.6284 L933.1377,1287.1948 L913.1377,1291.1948 L933.1377,1295.1948 L933.1377,1303.7612 A0,0 0 0 0 933.1377,1303.7612 L1100.375,1303.7612 A0,0 0 0 0 1100.375,1303.7612 L1100.375,1288.6284 L1090.375,1278.6284 L933.1377,1278.6284 A0,0 0 0 0 933.1377,1278.6284 " fill="#F1E9D8" style="stroke:#C9B48F;stroke-width:0.5;"/><path d="M1090.375,1278.6284 L1090.375,1288.6284 L1100.375,1288.6284 L1090.375,1278.6284 " fill="#F1E9D8" style="stroke:#C9B48F;stroke-width:0.5;"/><text fill="#000000" font-family="Roboto" font-size="13" lengthAdjust="spacing" textLength="146.2373" x="939.1377" y="1295.6953">offline-first  &#8226;  shipped</text><rect fill="#FFFDF8" height="61.9063" rx="5" ry="5" style="stroke:#8C6F56;stroke-width:0.5;" width="185.457" x="727.6807" y="1260.2417"/><text fill="#000000" font-family="Roboto" font-size="12" lengthAdjust="spacing" textLength="135.4219" x="737.6807" y="1281.3804">Keep reading from the</text><text fill="#000000" font-family="Roboto" font-size="12" lengthAdjust="spacing" textLength="165.457" x="737.6807" y="1295.3491">downloaded copy, progress</text><text fill="#000000" font-family="Roboto" font-size="12" lengthAdjust="spacing" textLength="98.7891" x="737.6807" y="1309.3179">waits in a queue</text><rect fill="#FFFDF8" height="33.9688" rx="5" ry="5" style="stroke:#8C6F56;stroke-width:0.5;" width="150.4941" x="745.1621" y="1351.9409"/><text fill="#000000" font-family="Roboto" font-size="12" lengthAdjust="spacing" textLength="130.4941" x="755.1621" y="1373.0796">On reconnect it syncs</text><path d="M944.5225,1467.3237 L944.5225,1475.8901 L924.5225,1479.8901 L944.5225,1483.8901 L944.5225,1492.4565 A0,0 0 0 0 944.5225,1492.4565 L1131.8184,1492.4565 A0,0 0 0 0 1131.8184,1492.4565 L1131.8184,1477.3237 L1121.8184,1467.3237 L944.5225,1467.3237 A0,0 0 0 0 944.5225,1467.3237 " fill="#F1E9D8" style="stroke:#C9B48F;stroke-width:0.5;"/><path d="M1121.8184,1467.3237 L1121.8184,1477.3237 L1131.8184,1477.3237 L1121.8184,1467.3237 " fill="#F1E9D8" style="stroke:#C9B48F;stroke-width:0.5;"/><text fill="#000000" font-family="Roboto" font-size="13" lengthAdjust="spacing" textLength="166.2959" x="950.5225" y="1484.3906">ConflictDialog  &#8226;  shipped</text><rect fill="#FFFDF8" height="47.9375" rx="5" ry="5" style="stroke:#8C6F56;stroke-width:0.5;" width="208.2266" x="716.2959" y="1455.9214"/><text fill="#000000" font-family="Roboto" font-size="12" lengthAdjust="spacing" textLength="188.2266" x="726.2959" y="1477.0601">Choose which progress to keep</text><text fill="#000000" font-family="Roboto" font-size="12" lengthAdjust="spacing" textLength="137.8184" x="726.2959" y="1491.0288">(mine / the newer one)</text><polygon fill="#F8F3E8" points="768.084,1405.9097,872.7344,1405.9097,884.7344,1418.7144,872.7344,1431.519,768.084,1431.519,756.084,1418.7144,768.084,1405.9097" style="stroke:#8C6F56;stroke-width:0.5;"/><text fill="#5A3E28" font-family="Roboto" font-size="11" lengthAdjust="spacing" textLength="54.5488" x="824.4092" y="1441.7295">yes, clash</text><text fill="#000000" font-family="Roboto" font-size="11" lengthAdjust="spacing" textLength="104.6504" x="768.084" y="1416.1201">Did another device</text><text fill="#000000" font-family="Roboto" font-size="11" lengthAdjust="spacing" textLength="78.4556" x="782.0703" y="1428.9248">change it too?</text><text fill="#5A3E28" font-family="Roboto" font-size="11" lengthAdjust="spacing" textLength="13.7017" x="884.7344" y="1416.1201">no</text><polygon fill="#F8F3E8" points="820.4092,1523.8589,832.4092,1535.8589,820.4092,1547.8589,808.4092,1535.8589,820.4092,1523.8589" style="stroke:#8C6F56;stroke-width:0.5;"/><polygon fill="#F8F3E8" points="709.5269,1553.8589,721.5269,1565.8589,709.5269,1577.8589,697.5269,1565.8589,709.5269,1553.8589" style="stroke:#8C6F56;stroke-width:0.5;"/><rect fill="#FFFDF8" height="33.9688" rx="5" ry="5" style="stroke:#8C6F56;stroke-width:0.5;" width="112.0977" x="653.478" y="1022.4292"/><text fill="#000000" font-family="Roboto" font-size="12" lengthAdjust="spacing" textLength="92.0977" x="663.478" y="1043.5679">read a passage</text><polygon fill="#F8F3E8" points="655.6763,1597.8589,763.3774,1597.8589,775.3774,1609.8589,763.3774,1621.8589,655.6763,1621.8589,643.6763,1609.8589,655.6763,1597.8589" style="stroke:#8C6F56;stroke-width:0.5;"/><text fill="#5A3E28" font-family="Roboto" font-size="11" lengthAdjust="spacing" textLength="103.2378" x="713.5269" y="1632.0693">reached an ending</text><text fill="#000000" font-family="Roboto" font-size="11" lengthAdjust="spacing" textLength="107.7012" x="655.6763" y="1613.667">More story to read?</text><text fill="#5A3E28" font-family="Roboto" font-size="11" lengthAdjust="spacing" textLength="19.0083" x="775.3774" y="1607.2646">yes</text><path d="M834.8706,1657.4053 L834.8706,1673.5381 L814.8706,1677.5381 L834.8706,1681.5381 L834.8706,1697.6709 A0,0 0 0 0 834.8706,1697.6709 L1123.6401,1697.6709 A0,0 0 0 0 1123.6401,1697.6709 L1123.6401,1667.4053 L1113.6401,1657.4053 L834.8706,1657.4053 A0,0 0 0 0 834.8706,1657.4053 " fill="#F1E9D8" style="stroke:#C9B48F;stroke-width:0.5;"/><path d="M1113.6401,1657.4053 L1113.6401,1667.4053 L1123.6401,1667.4053 L1113.6401,1657.4053 " fill="#F1E9D8" style="stroke:#C9B48F;stroke-width:0.5;"/><text fill="#000000" font-family="Roboto" font-size="13" lengthAdjust="spacing" textLength="167.8003" x="840.8706" y="1674.4722">ending screen  &#8226;  shipped</text><text fill="#000000" font-family="Roboto" font-size="13" lengthAdjust="spacing" textLength="267.7695" x="840.8706" y="1689.605">(restart + back to library, no rating here)</text><rect fill="#FFFDF8" height="47.9375" rx="5" ry="5" style="stroke:#8C6F56;stroke-width:0.5;" width="210.6875" x="604.1831" y="1653.5693"/><text fill="#000000" font-family="Roboto" font-size="12" lengthAdjust="spacing" textLength="134.8359" x="614.1831" y="1674.708">See the ending screen</text><text fill="#000000" font-family="Roboto" font-size="12" lengthAdjust="spacing" textLength="190.6875" x="614.1831" y="1688.6768">(restart, or "back to my books")</text><rect fill="#FFFDF8" height="33.9688" rx="5" ry="5" style="stroke:#8C6F56;stroke-width:0.5;" width="153.2129" x="632.9204" y="1721.5068"/><text fill="#000000" font-family="Roboto" font-size="12" lengthAdjust="spacing" textLength="133.2129" x="642.9204" y="1742.6455">Go back to my Library</text><path d="M835.3394,1779.3115 L835.3394,1795.4443 L815.3394,1799.4443 L835.3394,1803.4443 L835.3394,1819.5771 A0,0 0 0 0 835.3394,1819.5771 L1128.2793,1819.5771 A0,0 0 0 0 1128.2793,1819.5771 L1128.2793,1789.3115 L1118.2793,1779.3115 L835.3394,1779.3115 A0,0 0 0 0 835.3394,1779.3115 " fill="#F1E9D8" style="stroke:#C9B48F;stroke-width:0.5;"/><path d="M1118.2793,1779.3115 L1118.2793,1789.3115 L1128.2793,1789.3115 L1118.2793,1779.3115 " fill="#F1E9D8" style="stroke:#C9B48F;stroke-width:0.5;"/><text fill="#000000" font-family="Roboto" font-size="13" lengthAdjust="spacing" textLength="231.8862" x="841.3394" y="1796.3784">StarRating on BookCard  &#8226;  shipped</text><text fill="#000000" font-family="Roboto" font-size="13" lengthAdjust="spacing" textLength="271.9399" x="841.3394" y="1811.5112">(rating lives in the library, not the reader)</text><rect fill="#FFFDF8" height="47.9375" rx="5" ry="5" style="stroke:#8C6F56;stroke-width:0.5;" width="211.625" x="603.7144" y="1775.4756"/><text fill="#000000" font-family="Roboto" font-size="12" lengthAdjust="spacing" textLength="191.625" x="613.7144" y="1796.6143">Rate a book by tapping its stars</text><text fill="#000000" font-family="Roboto" font-size="12" lengthAdjust="spacing" textLength="71.0684" x="613.7144" y="1810.583">on the shelf</text><ellipse cx="709.5269" cy="1854.4131" fill="none" rx="11" ry="11" style="stroke:#222222;stroke-width:1.0;"/><ellipse cx="709.5269" cy="1854.4131" fill="#222222" rx="6" ry="6" style="stroke:#222222;stroke-width:1.0;"/><line style="stroke:#5A3E28;stroke-width:1.0;" x1="709.5269" x2="709.5269" y1="83.5938" y2="103.5938"/><polygon fill="#5A3E28" points="705.5269,93.5938,709.5269,103.5938,713.5269,93.5938,709.5269,97.5938" style="stroke:#5A3E28;stroke-width:1.0;"/><line style="stroke:#5A3E28;stroke-width:1.0;" x1="709.5269" x2="709.5269" y1="222.75" y2="255.7573"/><polygon fill="#5A3E28" points="705.5269,245.7573,709.5269,255.7573,713.5269,245.7573,709.5269,249.7573" style="stroke:#5A3E28;stroke-width:1.0;"/><line style="stroke:#5A3E28;stroke-width:1.0;" x1="808.8018" x2="1175.0195" y1="197.1406" y2="197.1406"/><polygon fill="#5A3E28" points="1171.0195,262.9214,1175.0195,272.9214,1179.0195,262.9214,1175.0195,266.9214" style="stroke:#5A3E28;stroke-width:1.0;"/><line style="stroke:#5A3E28;stroke-width:1.0;" x1="1175.0195" x2="1175.0195" y1="197.1406" y2="346.9917"/><line style="stroke:#5A3E28;stroke-width:1.0;" x1="1175.0195" x2="721.5269" y1="346.9917" y2="346.9917"/><polygon fill="#5A3E28" points="731.5269,342.9917,721.5269,346.9917,731.5269,350.9917,727.5269,346.9917" style="stroke:#5A3E28;stroke-width:1.0;"/><line style="stroke:#5A3E28;stroke-width:1.0;" x1="709.5269" x2="709.5269" y1="303.6948" y2="334.9917"/><polygon fill="#5A3E28" points="705.5269,324.9917,709.5269,334.9917,713.5269,324.9917,709.5269,328.9917" style="stroke:#5A3E28;stroke-width:1.0;"/><line style="stroke:#5A3E28;stroke-width:1.0;" x1="709.5269" x2="709.5269" y1="151.5313" y2="171.5313"/><polygon fill="#5A3E28" points="705.5269,161.5313,709.5269,171.5313,713.5269,161.5313,709.5269,165.5313" style="stroke:#5A3E28;stroke-width:1.0;"/><line style="stroke:#5A3E28;stroke-width:1.0;" x1="709.5269" x2="709.5269" y1="358.9917" y2="378.9917"/><polygon fill="#5A3E28" points="705.5269,368.9917,709.5269,378.9917,713.5269,368.9917,709.5269,372.9917" style="stroke:#5A3E28;stroke-width:1.0;"/><line style="stroke:#5A3E28;stroke-width:1.0;" x1="709.5269" x2="709.5269" y1="440.8979" y2="460.8979"/><polygon fill="#5A3E28" points="705.5269,450.8979,709.5269,460.8979,713.5269,450.8979,709.5269,454.8979" style="stroke:#5A3E28;stroke-width:1.0;"/><line style="stroke:#5A3E28;stroke-width:1.0;" x1="709.5269" x2="709.5269" y1="508.8354" y2="528.8354"/><polygon fill="#5A3E28" points="705.5269,518.8354,709.5269,528.8354,713.5269,518.8354,709.5269,522.8354" style="stroke:#5A3E28;stroke-width:1.0;"/><line style="stroke:#5A3E28;stroke-width:1.0;" x1="709.5269" x2="709.5269" y1="590.7417" y2="610.7417"/><polygon fill="#5A3E28" points="705.5269,600.7417,709.5269,610.7417,713.5269,600.7417,709.5269,604.7417" style="stroke:#5A3E28;stroke-width:1.0;"/><line style="stroke:#5A3E28;stroke-width:1.0;" x1="709.5269" x2="709.5269" y1="686.6167" y2="706.6167"/><polygon fill="#5A3E28" points="705.5269,696.6167,709.5269,706.6167,713.5269,696.6167,709.5269,700.6167" style="stroke:#5A3E28;stroke-width:1.0;"/><line style="stroke:#5A3E28;stroke-width:1.0;" x1="709.5269" x2="709.5269" y1="768.5229" y2="788.5229"/><polygon fill="#5A3E28" points="705.5269,778.5229,709.5269,788.5229,713.5269,778.5229,709.5269,782.5229" style="stroke:#5A3E28;stroke-width:1.0;"/><line style="stroke:#5A3E28;stroke-width:1.0;" x1="613.7493" x2="613.7493" y1="934.4292" y2="957.4292"/><polygon fill="#5A3E28" points="609.7493,947.4292,613.7493,957.4292,617.7493,947.4292,613.7493,951.4292" style="stroke:#5A3E28;stroke-width:1.0;"/><line style="stroke:#5A3E28;stroke-width:1.0;" x1="1059.2483" x2="1059.2483" y1="937.4292" y2="960.4292"/><polygon fill="#5A3E28" points="1055.2483,950.4292,1059.2483,960.4292,1063.2483,950.4292,1059.2483,954.4292" style="stroke:#5A3E28;stroke-width:1.0;"/><line style="stroke:#5A3E28;stroke-width:1.0;" x1="92.406" x2="92.406" y1="866.4917" y2="899.2964"/><polygon fill="#5A3E28" points="88.406,889.2964,92.406,899.2964,96.406,889.2964,92.406,893.2964" style="stroke:#5A3E28;stroke-width:1.0;"/><line style="stroke:#5A3E28;stroke-width:1.0;" x1="92.406" x2="92.406" y1="933.2651" y2="1002.4292"/><polygon fill="#5A3E28" points="88.406,992.4292,92.406,1002.4292,96.406,992.4292,92.406,996.4292" style="stroke:#5A3E28;stroke-width:1.0;"/><line style="stroke:#5A3E28;stroke-width:1.0;" x1="613.7493" x2="613.7493" y1="866.4917" y2="886.4917"/><polygon fill="#5A3E28" points="609.7493,876.4917,613.7493,886.4917,617.7493,876.4917,613.7493,880.4917" style="stroke:#5A3E28;stroke-width:1.0;"/><line style="stroke:#5A3E28;stroke-width:1.0;" x1="164.812" x2="554.0808" y1="854.4917" y2="854.4917"/><polygon fill="#5A3E28" points="544.0808,850.4917,554.0808,854.4917,544.0808,858.4917,548.0808,854.4917" style="stroke:#5A3E28;stroke-width:1.0;"/><line style="stroke:#5A3E28;stroke-width:1.0;" x1="709.5269" x2="709.5269" y1="822.4917" y2="827.4917"/><line style="stroke:#5A3E28;stroke-width:1.0;" x1="709.5269" x2="92.406" y1="827.4917" y2="827.4917"/><line style="stroke:#5A3E28;stroke-width:1.0;" x1="92.406" x2="92.406" y1="827.4917" y2="842.4917"/><polygon fill="#5A3E28" points="88.406,832.4917,92.406,842.4917,96.406,832.4917,92.406,836.4917" style="stroke:#5A3E28;stroke-width:1.0;"/><line style="stroke:#5A3E28;stroke-width:1.0;" x1="673.4177" x2="1059.2483" y1="854.4917" y2="854.4917"/><line style="stroke:#5A3E28;stroke-width:1.0;" x1="1059.2483" x2="1059.2483" y1="854.4917" y2="889.4917"/><polygon fill="#5A3E28" points="1055.2483,879.4917,1059.2483,889.4917,1063.2483,879.4917,1059.2483,883.4917" style="stroke:#5A3E28;stroke-width:1.0;"/><line style="stroke:#5A3E28;stroke-width:1.0;" x1="92.406" x2="709.5269" y1="1002.4292" y2="1002.4292"/><line style="stroke:#5A3E28;stroke-width:1.0;" x1="709.5269" x2="709.5269" y1="1124.3354" y2="1144.3354"/><polygon fill="#5A3E28" points="705.5269,1134.3354,709.5269,1144.3354,713.5269,1134.3354,709.5269,1138.3354" style="stroke:#5A3E28;stroke-width:1.0;"/><line style="stroke:#5A3E28;stroke-width:1.0;" x1="820.4092" x2="820.4092" y1="1322.1479" y2="1351.9409"/><polygon fill="#5A3E28" points="816.4092,1341.9409,820.4092,1351.9409,824.4092,1341.9409,820.4092,1345.9409" style="stroke:#5A3E28;stroke-width:1.0;"/><line style="stroke:#5A3E28;stroke-width:1.0;" x1="820.4092" x2="820.4092" y1="1431.519" y2="1455.9214"/><polygon fill="#5A3E28" points="816.4092,1445.9214,820.4092,1455.9214,824.4092,1445.9214,820.4092,1449.9214" style="stroke:#5A3E28;stroke-width:1.0;"/><line style="stroke:#5A3E28;stroke-width:1.0;" x1="884.7344" x2="1141.8184" y1="1418.7144" y2="1418.7144"/><polygon fill="#5A3E28" points="1137.8184,1469.4878,1141.8184,1479.4878,1145.8184,1469.4878,1141.8184,1473.4878" style="stroke:#5A3E28;stroke-width:1.0;"/><line style="stroke:#5A3E28;stroke-width:1.0;" x1="1141.8184" x2="1141.8184" y1="1418.7144" y2="1535.8589"/><line style="stroke:#5A3E28;stroke-width:1.0;" x1="1141.8184" x2="832.4092" y1="1535.8589" y2="1535.8589"/><polygon fill="#5A3E28" points="842.4092,1531.8589,832.4092,1535.8589,842.4092,1539.8589,838.4092,1535.8589" style="stroke:#5A3E28;stroke-width:1.0;"/><line style="stroke:#5A3E28;stroke-width:1.0;" x1="820.4092" x2="820.4092" y1="1503.8589" y2="1523.8589"/><polygon fill="#5A3E28" points="816.4092,1513.8589,820.4092,1523.8589,824.4092,1513.8589,820.4092,1517.8589" style="stroke:#5A3E28;stroke-width:1.0;"/><line style="stroke:#5A3E28;stroke-width:1.0;" x1="820.4092" x2="820.4092" y1="1385.9097" y2="1405.9097"/><polygon fill="#5A3E28" points="816.4092,1395.9097,820.4092,1405.9097,824.4092,1395.9097,820.4092,1399.9097" style="stroke:#5A3E28;stroke-width:1.0;"/><line style="stroke:#5A3E28;stroke-width:1.0;" x1="663.5923" x2="598.6445" y1="1238.2417" y2="1238.2417"/><line style="stroke:#5A3E28;stroke-width:1.0;" x1="598.6445" x2="598.6445" y1="1238.2417" y2="1260.2417"/><polygon fill="#5A3E28" points="594.6445,1250.2417,598.6445,1260.2417,602.6445,1250.2417,598.6445,1254.2417" style="stroke:#5A3E28;stroke-width:1.0;"/><line style="stroke:#5A3E28;stroke-width:1.0;" x1="755.4614" x2="820.4092" y1="1238.2417" y2="1238.2417"/><line style="stroke:#5A3E28;stroke-width:1.0;" x1="820.4092" x2="820.4092" y1="1238.2417" y2="1260.2417"/><polygon fill="#5A3E28" points="816.4092,1250.2417,820.4092,1260.2417,824.4092,1250.2417,820.4092,1254.2417" style="stroke:#5A3E28;stroke-width:1.0;"/><line style="stroke:#5A3E28;stroke-width:1.0;" x1="598.6445" x2="598.6445" y1="1294.2104" y2="1565.8589"/><line style="stroke:#5A3E28;stroke-width:1.0;" x1="598.6445" x2="697.5269" y1="1565.8589" y2="1565.8589"/><polygon fill="#5A3E28" points="687.5269,1561.8589,697.5269,1565.8589,687.5269,1569.8589,691.5269,1565.8589" style="stroke:#5A3E28;stroke-width:1.0;"/><line style="stroke:#5A3E28;stroke-width:1.0;" x1="820.4092" x2="820.4092" y1="1547.8589" y2="1565.8589"/><line style="stroke:#5A3E28;stroke-width:1.0;" x1="820.4092" x2="721.5269" y1="1565.8589" y2="1565.8589"/><polygon fill="#5A3E28" points="731.5269,1561.8589,721.5269,1565.8589,731.5269,1569.8589,727.5269,1565.8589" style="stroke:#5A3E28;stroke-width:1.0;"/><line style="stroke:#5A3E28;stroke-width:1.0;" x1="709.5269" x2="709.5269" y1="1206.2417" y2="1226.2417"/><polygon fill="#5A3E28" points="705.5269,1216.2417,709.5269,1226.2417,713.5269,1216.2417,709.5269,1220.2417" style="stroke:#5A3E28;stroke-width:1.0;"/><line style="stroke:#5A3E28;stroke-width:1.0;" x1="709.5269" x2="709.5269" y1="1056.3979" y2="1076.3979"/><polygon fill="#5A3E28" points="705.5269,1066.3979,709.5269,1076.3979,713.5269,1066.3979,709.5269,1070.3979" style="stroke:#5A3E28;stroke-width:1.0;"/><line style="stroke:#5A3E28;stroke-width:1.0;" x1="775.3774" x2="1175.8184" y1="1609.8589" y2="1609.8589"/><polygon fill="#5A3E28" points="1171.8184,1331.9409,1175.8184,1321.9409,1179.8184,1331.9409,1175.8184,1327.9409" style="stroke:#5A3E28;stroke-width:1.0;"/><line style="stroke:#5A3E28;stroke-width:1.0;" x1="1175.8184" x2="1175.8184" y1="1039.4136" y2="1609.8589"/><line style="stroke:#5A3E28;stroke-width:1.0;" x1="1175.8184" x2="765.5757" y1="1039.4136" y2="1039.4136"/><polygon fill="#5A3E28" points="775.5757,1035.4136,765.5757,1039.4136,775.5757,1043.4136,771.5757,1039.4136" style="stroke:#5A3E28;stroke-width:1.0;"/><line style="stroke:#5A3E28;stroke-width:1.0;" x1="709.5269" x2="709.5269" y1="1577.8589" y2="1597.8589"/><polygon fill="#5A3E28" points="705.5269,1587.8589,709.5269,1597.8589,713.5269,1587.8589,709.5269,1591.8589" style="stroke:#5A3E28;stroke-width:1.0;"/><line style="stroke:#5A3E28;stroke-width:1.0;" x1="709.5269" x2="709.5269" y1="1002.4292" y2="1022.4292"/><polygon fill="#5A3E28" points="705.5269,1012.4292,709.5269,1022.4292,713.5269,1012.4292,709.5269,1016.4292" style="stroke:#5A3E28;stroke-width:1.0;"/><line style="stroke:#5A3E28;stroke-width:1.0;" x1="709.5269" x2="709.5269" y1="1621.8589" y2="1653.5693"/><polygon fill="#5A3E28" points="705.5269,1643.5693,709.5269,1653.5693,713.5269,1643.5693,709.5269,1647.5693" style="stroke:#5A3E28;stroke-width:1.0;"/><line style="stroke:#5A3E28;stroke-width:1.0;" x1="709.5269" x2="709.5269" y1="1701.5068" y2="1721.5068"/><polygon fill="#5A3E28" points="705.5269,1711.5068,709.5269,1721.5068,713.5269,1711.5068,709.5269,1715.5068" style="stroke:#5A3E28;stroke-width:1.0;"/><line style="stroke:#5A3E28;stroke-width:1.0;" x1="709.5269" x2="709.5269" y1="1755.4756" y2="1775.4756"/><polygon fill="#5A3E28" points="705.5269,1765.4756,709.5269,1775.4756,713.5269,1765.4756,709.5269,1769.4756" style="stroke:#5A3E28;stroke-width:1.0;"/><line style="stroke:#5A3E28;stroke-width:1.0;" x1="709.5269" x2="709.5269" y1="1823.4131" y2="1843.4131"/><polygon fill="#5A3E28" points="705.5269,1833.4131,709.5269,1843.4131,713.5269,1833.4131,709.5269,1837.4131" style="stroke:#5A3E28;stroke-width:1.0;"/><rect fill="none" height="209.5625" id="_legend" rx="5" ry="5" style="stroke:#000000;stroke-width:1.0;" width="606.0117" x="404.9874" y="1876.4131"/><text fill="#000000" font-family="Roboto" font-size="14" font-weight="bold" lengthAdjust="spacing" textLength="40.8516" x="414.8615" y="1896.4082">Node</text><text fill="#000000" font-family="Roboto" font-size="14" font-weight="bold" lengthAdjust="spacing" textLength="67.6279" x="470.9777" y="1896.4082">Meaning</text><text fill="#000000" filter="url(#bgm4rzt4rfn9h0)" font-family="Roboto" font-size="14" lengthAdjust="spacing" textLength="38.3154" x="418.8878" y="1912.7051">white</text><text fill="#000000" font-family="Roboto" font-size="14" lengthAdjust="spacing" textLength="201.9541" x="470.5538" y="1912.7051">Shipped in the kid app today</text><text fill="#000000" filter="url(#bgm4rzt4rfn9h1)" font-family="Roboto" font-size="14" lengthAdjust="spacing" textLength="30.2285" x="418.8878" y="1929.002">rose</text><text fill="#000000" font-family="Roboto" font-size="14" lengthAdjust="spacing" textLength="150.3018" x="470.5538" y="1929.002">Planned, not yet built</text><line style="stroke:#000000;stroke-width:1.0;" x1="409.9874" x2="676.9581" y1="1883.4131" y2="1883.4131"/><line style="stroke:#000000;stroke-width:1.0;" x1="409.9874" x2="676.9581" y1="1899.71" y2="1899.71"/><line style="stroke:#000000;stroke-width:1.0;" x1="409.9874" x2="676.9581" y1="1916.0068" y2="1916.0068"/><line style="stroke:#000000;stroke-width:1.0;" x1="409.9874" x2="676.9581" y1="1932.3037" y2="1932.3037"/><line style="stroke:#000000;stroke-width:1.0;" x1="409.9874" x2="409.9874" y1="1883.4131" y2="1932.3037"/><line style="stroke:#000000;stroke-width:1.0;" x1="466.1036" x2="466.1036" y1="1883.4131" y2="1932.3037"/><line style="stroke:#000000;stroke-width:1.0;" x1="676.9581" x2="676.9581" y1="1883.4131" y2="1932.3037"/><text fill="#000000" font-family="Roboto" font-size="14" lengthAdjust="spacing" textLength="548.29" x="409.9874" y="1947.2988">The kid surface is a separate route tree from the guardian console and shares</text><text fill="#000000" font-family="Roboto" font-size="14" lengthAdjust="spacing" textLength="546.9639" x="409.9874" y="1963.5957">no navigation. ADR-014: the whole tree sits behind a local device-grant check</text><text fill="#000000" font-family="Roboto" font-size="14" lengthAdjust="spacing" textLength="511.6357" x="409.9874" y="1979.8926">(DeviceAuthorizedRoute), not a per-page gate, and stays Supabase-free.</text><text fill="#000000" font-family="Roboto" font-size="14" lengthAdjust="spacing" textLength="582.7773" x="409.9874" y="1996.1895">Newer kid-facing additions (#270) not drawn above: recommendation chips on the</text><text fill="#000000" font-family="Roboto" font-size="14" lengthAdjust="spacing" textLength="526.709" x="409.9874" y="2012.4863">library (ADR-016 ring-1/2 cross-family recs) and a flag-a-passage control in</text><text fill="#000000" font-family="Roboto" font-size="14" lengthAdjust="spacing" textLength="440.3164" x="409.9874" y="2028.7832">the reader (files a kid_flag -&gt; KID_FLAGGED for admin review).</text><text fill="#000000" font-family="Roboto" font-size="14" lengthAdjust="spacing" textLength="549.7256" x="409.9874" y="2045.0801">See journey-guardian for the parent side, seq-device-grant for the mint/verify/</text><text fill="#000000" font-family="Roboto" font-size="14" lengthAdjust="spacing" textLength="596.0117" x="409.9874" y="2061.377">revoke mechanics, journey-end-to-end for the whole loop, and journey-dev-coverage</text><text fill="#000000" font-family="Roboto" font-size="14" lengthAdjust="spacing" textLength="124.4824" x="409.9874" y="2077.6738">for test coverage.</text><!--SRC=[fLZRRXiv4dtlhwXH7YnXr9Rjt6nvai29uy2RonZs1BEx213GtMmrnosoXwIiQE67_PRzjFsIFKMoTRCJB339GrjiibZtSwftwCLV-9Vjq3-DcSgIFZjfyxVVMccLr8MaiyRCn_HUbNGrivKePBQ3pHVMbBF2Zpx_FIyQOPLVa6YyyhDIKcKi-LfIKQkcp754wGc9jYMZcmNrhPbvITvAIRrHRx0BQPyC7rDDCwPvhV3s1RbQjItKyQOKYo5PutYrROJMMErhusaXFLtFLEDP1gHScPc5mgw0QEt6M26ghD5UwdBaR34ADzjTxxuHzMzWqKgLCOsmu8OqQjIr5NOn6hVMG2LvNcBHIb6ETdTtZuDGebDvgmfvClEriUfVihmCWkPMj2wOFgzD4mKFwUJqCj_RVpAuhu_0-T63ebZ78ONtPNZ_pWhjiKhz96wSD6bC8HgAc_89xuBVPN4pHBXQSIsSp2keyS3jS6M9o8m-nEU5cCZacYJDUU5bBkR2Iew_ez8O-u0WE6vq4PrreOeRQJjH3zoPdFiXFhkDGtfjpCqROSluwyeBUoayjFgnc4lvvqmwV-MDNIJTOz8fhRo2zWXnt3Aatw_orrtuKd8DQMfccdSP7SAMv58BlIZFoI57HQj6ZY_ucaIvtNRnW1SuHQI5Ilo8PiI_rmBwnkYgKOK_LQ8nAzikQeI9dWYeSmqdqkTpcYihAokcg2A3AcmzkLOMrB-uf4TFdWyx2uw3sYucVcaAccdScAp4RpToCrHoQ-RIuc-8S2EQ2mUtUDnG4lv4lGXVr0GrsvadleuKCcrkx0rDfPt8SX3gws3lu5c-zppVVpeEr-wwsqaGLYE3yfQ5TALfvKHgQJa20vGmJSCDlbOkARlZWfAz4tUpx1TQVaD18n5wr8XhsQ1LI2su9y7HK-h1UqY9cKnoE2QzmPYqYKv4FllF7p_WRlQ1jDI67iND9va6Lphb434F__ga3wVjZYFv3M-mDyXgn097WctYLYXeWwWepX61G4Zd51Ac7zgPq6IQ4dr8bmqqFTZRFw8_X1ro2t0oI4ktbwgg40MIsimcDOihrHID2h8G6h_WXi6Uka7EKJLhckX5_9ZEYZf8qaOv1SjO52iJizPecKU75LYQSFGGl5d3oTzQwM3lO1V9s8KaY89pa1Wm87X2K36pbXspT6E8XeU6qKsb4kWkKonBT081qQ9PzrMycflvNuAX31ZIX7QJ9xYXlo5Xj5nyqVrxW0ByEDw2XY5jGaEMkHkbMy6wbx8IiyQV8Oy-SMdrBisryQQtjkLQ53SJm88ktvW6UVdex8J_h-r8Bw6IfVszjHUk5gMPisgLQ13wrPiJQyqyoNig7ik3m-sNhD9tDnHUtG9WNzzJxUpizEp1dSQY0jAkm-9PzVJP0xlGXAP6b_V4LeVLOtduWmC_bFx9U7bVq_stHwU7sxlMvHH7rqyEgooxUtIsTthq-l3k3SVwBWC6MP-DVsrbp7L4FUjxqOOVAr0wpbH5_NENSZNWLu3FYAcla3pV1SelMXkQp00-2WM5lgmq9z4IFx_eO4hkhMe70xuOjR-GRf19X9dxtI0Z6h_h93WrqOxB6rqHBvPQR2Xtd74rWpDODQazs4Udm2Wey4eniFWNoyDvied- - -__BF7hYqvaWB5gYYDSc4TxEHXJvuDWw30e_KMNg7aNKfngTCZZKCOUrHNgQUcjT1P-aRT8Se2WwrgkR4bCXD8PUgogil5lYCHqmKqISShw1tbXcjbKKnjum30hXMDCA9Gjk8DMi5bBH6l3T2PUGEv48IXoYC6cgLaslcB2gEKyTdvkGENYfrw6JhpKO5CmyvUPWovefTl2GaBXN28YMNy9BWpQx0zuo6G_K- -ZiQ4nWn8ZKsKFGcHJRTjmdpNUkv9zrKkC1PwF-9KXISWXNdE65kM1HE8Q_JJheog-WuviCiupGNTXPKkPTLRq8BFPIY8N6wrZAyMo4aQYd3Ba6QuvQsw1Cm0UMJHA8pMGzM0h9UC9Os4fFM2IOhxKPXxEBMU0GGmUtCrlEXgrarKyOfJ0e1YfhF-xK8p1DA9_YCLFUA1FnDHZ8DeoiviGeZMzZukbPF07W3bSpga4azX7nncWIQBNMePwhXI4bK4CnO4pa0C2KxjL7v4fpvO4uDL6xQFY8xqZuAXUEt2liiFiiCgBqJXiOvtu1pmMsCHcjd1dOKtWx1k2-LFH80-cWKr11xwTFGgUqBcGZHh6gx5SuauGZN9RcSvd_SXMTvaHZbVIYUzZsw1YczfRz0BheC1xz6JGNTxZgofkZRtkui16gefJ16IhNVoVrqV1qNshsqE7oK1X92fZp2TWM2kSGmeVT_uFLwP5hFMvAgeX1QfZKFok3MnX40vyZDogg0tQMzXjc627dzpTK8QrAilWNym5IEXbLECmX1aNqx0RtBChJ4gJC73SWgA1nVD4l1bJulxNFvdIEG_2SD5sGh662oPc4v0sw2DkeHKew3bD3DyOuv7ycmwybsZ9DhMiG9CXCeliVwuR0pUN8HJ3fU3mTYwu1XYa23Kp2mxTj2dTarVAebzjcuAhV-LI1gNMik3EHMwX2nVbiA6dcAy51DRCLmEWX5ShYkgDMVV0a8e6Q17jWlWtjM5YDwyL9eUbKz1MRc1osjIVSgQDKd-SSp46U8blrwtPdBmUC6SToubYydNFb8DG1V3K3u0GgmBQiEzX1keZX36K0QTtc8N01cGOhWS9lrZHk98-KsJO6pZEaDjhBs0pJm6BqBHSRwldRPpTxkETAFgPEZcfxGS-OyD07P0V3VcTeRNB4WmUP-FBaERXThg6XMZ-V8gpXOMxB05AGC5DvLPJEwDEDz7Vrp9kQHIdjzg0f-6oYyG6CSX2AyWQdbqmP1dlpHHXkNiHFndX-L6AG5_kUFaNDccSYF5BIX-Jw9SHhx-yewlKVzAj_0c8nuZmZMbJmkFJezCda126YpK95mzE6U7iRqbYWbDE2KPf9hpiezLNhwvCLwIJ1rF-O1J8G0raSg71a1QtQX8GThVxZ3JU-hu4kedGNCjQQUwFtsEvtEqU_D8q62R8m3IO1tR0RMmOLK57T9lVaNOXw5EeD9Yw7CNAKh6Ig8571y_tOX6KLW3iGMPkvJWqYYc6tJBI1R024D6OIH3OaPFqRUiP4afFyltH0HNmlyCrKzKml1SeC17ih1enoKMUEZyxq5lJ8B0GjyeVwZFcSXoWxLS-G_bBUdz- -lNimycxTszF0xkAHCV2Et8-O0EvKl-8KsU-Z577mn1FdfETAk4b9__CDvpTxM8sFhfbC5gC81723R1dAhdzgGBDhfClUR8m_5YUZS5jZ6bZ6Bgjk0Zy6a8ZreNjp2MxjLt6p5WgsVy0]--></g></svg>