<svg xmlns="http://www.w3.org/2000/svg" xmlns:xlink="http://www.w3.org/1999/xlink" contentStyleType="text/css" height="1545px" preserveAspectRatio="none" style="width:1563px;height:1545px;background:#FAFAFA;" version="1.1" viewBox="0 0 1563 1545" width="1563px" zoomAndPan="magnify"><title>Guardian + Admin Surface Journey</title><defs><style type="text/css">@import url('https://fonts.googleapis.com/css?family=Roboto:400,100,100italic,300,300italic,400italic,500,500italic,700,700italic,900,900italic');</style><filter height="1" id="b1ktvx4qa4iskz0" width="1" x="0" y="0"><feFlood flood-color="#FFFDF8" result="flood"/><feComposite in="SourceGraphic" in2="flood" operator="over"/></filter><filter height="1" id="b1ktvx4qa4iskz1" width="1" x="0" y="0"><feFlood flood-color="#F3D9D4" result="flood"/><feComposite in="SourceGraphic" in2="flood" operator="over"/></filter></defs><g><rect fill="#FAFAFA" height="1545" style="stroke:none;stroke-width:1.0;" width="1563" x="0" y="0"/><text fill="#000000" font-family="Roboto" font-size="14" font-weight="bold" lengthAdjust="spacing" textLength="219.625" x="670.2427" y="32.9883">Guardian + Admin Surface Journey</text><text fill="#000000" font-family="Roboto" font-size="14" font-weight="bold" lengthAdjust="spacing" textLength="392.9092" x="583.6006" y="49.3945">("/guardian"; rose = planned. Approve is admin-only, ADR-005)</text><rect fill="none" height="21.0938" style="stroke:none;stroke-width:1.0;" width="1534.1104" x="11" y="66.707"/><rect fill="#CDDCEC" height="1329.3691" style="stroke:#CDDCEC;stroke-width:1.0;" width="553.937" x="28" y="66.707"/><ellipse cx="133.4873" cy="102.8008" fill="#222222" rx="10" ry="10" style="stroke:#222222;stroke-width:1.0;"/><path d="M237.3682,151.2773 L237.3682,159.8945 L217.3682,163.8945 L237.3682,167.8945 L237.3682,176.5117 A0,0 0 0 0 237.3682,176.5117 L411.1372,176.5117 A0,0 0 0 0 411.1372,176.5117 L411.1372,161.2773 L401.1372,151.2773 L237.3682,151.2773 A0,0 0 0 0 237.3682,151.2773 " fill="#F1E9D8" style="stroke:#C9B48F;stroke-width:0.5;"/><path d="M401.1372,151.2773 L401.1372,161.2773 L411.1372,161.2773 L401.1372,151.2773 " fill="#F1E9D8" style="stroke:#C9B48F;stroke-width:0.5;"/><text fill="#000000" font-family="Roboto" font-size="13" lengthAdjust="spacing" textLength="152.769" x="243.3682" y="168.3379">/guardian/login  &#8226;  shipped</text><rect fill="#FFFDF8" height="62.1875" rx="5" ry="5" style="stroke:#8C6F56;stroke-width:0.5;" width="167.7617" x="49.6064" y="132.8008"/><text fill="#000000" font-family="Roboto" font-size="12" lengthAdjust="spacing" textLength="35.9297" x="59.6064" y="153.9336">Sign in</text><text fill="#000000" font-family="Roboto" font-size="12" lengthAdjust="spacing" textLength="147.7617" x="59.6064" y="167.9961">(email/password or Google,</text><text fill="#000000" font-family="Roboto" font-size="12" lengthAdjust="spacing" textLength="116.5723" x="59.6064" y="182.0586">Apple if the flag is on)</text><rect fill="#FFFDF8" height="34.0625" rx="5" ry="5" style="stroke:#8C6F56;stroke-width:0.5;" width="129.2832" x="68.8457" y="214.9883"/><text fill="#000000" font-family="Roboto" font-size="12" lengthAdjust="spacing" textLength="109.2832" x="78.8457" y="236.1211">Land on the Console</text><path d="M234.2188,280.4961 L234.2188,289.1133 L214.2188,293.1133 L234.2188,297.1133 L234.2188,305.7305 A0,0 0 0 0 234.2188,305.7305 L423.3364,305.7305 A0,0 0 0 0 423.3364,305.7305 L423.3364,290.4961 L413.3364,280.4961 L234.2188,280.4961 A0,0 0 0 0 234.2188,280.4961 " fill="#F1E9D8" style="stroke:#C9B48F;stroke-width:0.5;"/><path d="M413.3364,280.4961 L413.3364,290.4961 L423.3364,290.4961 L413.3364,280.4961 " fill="#F1E9D8" style="stroke:#C9B48F;stroke-width:0.5;"/><text fill="#000000" font-family="Roboto" font-size="13" lengthAdjust="spacing" textLength="168.1177" x="240.2188" y="297.5566">/guardian/profiles  &#8226;  shipped</text><rect fill="#FFFDF8" height="48.125" rx="5" ry="5" style="stroke:#8C6F56;stroke-width:0.5;" width="161.4629" x="52.7559" y="269.0508"/><text fill="#000000" font-family="Roboto" font-size="12" lengthAdjust="spacing" textLength="141.4629" x="62.7559" y="290.1836">Add or edit a child's profile</text><text fill="#000000" font-family="Roboto" font-size="12" lengthAdjust="spacing" textLength="121.1016" x="62.7559" y="304.2461">(name + preset avatar)</text><path d="M223.3701,340.418 L223.3701,364.2695 L203.3701,368.2695 L223.3701,372.2695 L223.3701,396.1211 A0,0 0 0 0 223.3701,396.1211 L522.9497,396.1211 A0,0 0 0 0 522.9497,396.1211 L522.9497,350.418 L512.9497,340.418 L223.3701,340.418 A0,0 0 0 0 223.3701,340.418 " fill="#F1E9D8" style="stroke:#C9B48F;stroke-width:0.5;"/><path d="M512.9497,340.418 L512.9497,350.418 L522.9497,350.418 L512.9497,340.418 " fill="#F1E9D8" style="stroke:#C9B48F;stroke-width:0.5;"/><text fill="#000000" font-family="Roboto" font-size="13" lengthAdjust="spacing" textLength="174.9731" x="229.3701" y="357.4785">/guardian/requests  &#8226;  shipped</text><text fill="#000000" font-family="Roboto" font-size="13" lengthAdjust="spacing" textLength="218.3086" x="229.3701" y="372.7129">(guardian-own-family or admin-global;</text><text fill="#000000" font-family="Roboto" font-size="13" lengthAdjust="spacing" textLength="278.5796" x="229.3701" y="387.9473">NOT admin-only, unlike the approval gate below)</text><rect fill="#FFFDF8" height="62.1875" rx="5" ry="5" style="stroke:#8C6F56;stroke-width:0.5;" width="139.7656" x="63.6045" y="337.1758"/><text fill="#000000" font-family="Roboto" font-size="12" lengthAdjust="spacing" textLength="110.4785" x="73.6045" y="358.3086">Open Story requests,</text><text fill="#000000" font-family="Roboto" font-size="12" lengthAdjust="spacing" textLength="116.0332" x="73.6045" y="372.3711">review my child's idea</text><text fill="#000000" font-family="Roboto" font-size="12" lengthAdjust="spacing" textLength="119.7656" x="73.6045" y="386.4336">(screened text + flags)</text><path d="M227.0381,430.2227 L227.0381,446.457 L207.0381,450.457 L227.0381,454.457 L227.0381,470.6914 A0,0 0 0 0 227.0381,470.6914 L457.7393,470.6914 A0,0 0 0 0 457.7393,470.6914 L457.7393,440.2227 L447.7393,430.2227 L227.0381,430.2227 A0,0 0 0 0 227.0381,430.2227 " fill="#F1E9D8" style="stroke:#C9B48F;stroke-width:0.5;"/><path d="M447.7393,430.2227 L447.7393,440.2227 L457.7393,440.2227 L447.7393,430.2227 " fill="#F1E9D8" style="stroke:#C9B48F;stroke-width:0.5;"/><text fill="#000000" font-family="Roboto" font-size="13" lengthAdjust="spacing" textLength="209.7012" x="233.0381" y="447.2832">shipped  &#8226;  approve builds a Concept</text><text fill="#000000" font-family="Roboto" font-size="13" lengthAdjust="spacing" textLength="146.0723" x="233.0381" y="462.5176">and enqueues generation</text><rect fill="#FFFDF8" height="62.1875" rx="5" ry="5" style="stroke:#8C6F56;stroke-width:0.5;" width="147.1016" x="59.9365" y="419.3633"/><text fill="#000000" font-family="Roboto" font-size="12" lengthAdjust="spacing" textLength="110.5371" x="69.9365" y="440.4961">Set age band, length,</text><text fill="#000000" font-family="Roboto" font-size="12" lengthAdjust="spacing" textLength="103.8047" x="69.9365" y="454.5586">optional series title,</text><text fill="#000000" font-family="Roboto" font-size="12" lengthAdjust="spacing" textLength="127.1016" x="69.9365" y="468.6211">then Approve or Decline</text><path d="M237.0928,512.9961 L237.0928,521.6133 L217.0928,525.6133 L237.0928,529.6133 L237.0928,538.2305 A0,0 0 0 0 237.0928,538.2305 L417.7935,538.2305 A0,0 0 0 0 417.7935,538.2305 L417.7935,522.9961 L407.7935,512.9961 L237.0928,512.9961 A0,0 0 0 0 237.0928,512.9961 " fill="#F1E9D8" style="stroke:#C9B48F;stroke-width:0.5;"/><path d="M407.7935,512.9961 L407.7935,522.9961 L417.7935,522.9961 L407.7935,512.9961 " fill="#F1E9D8" style="stroke:#C9B48F;stroke-width:0.5;"/><text fill="#000000" font-family="Roboto" font-size="13" lengthAdjust="spacing" textLength="159.7007" x="243.0928" y="530.0566">/guardian/intake  &#8226;  shipped</text><rect fill="#FFFDF8" height="48.125" rx="5" ry="5" style="stroke:#8C6F56;stroke-width:0.5;" width="167.2109" x="49.8818" y="501.5508"/><text fill="#000000" font-family="Roboto" font-size="12" lengthAdjust="spacing" textLength="147.2109" x="59.8818" y="522.6836">Request a story from Intake</text><text fill="#000000" font-family="Roboto" font-size="12" lengthAdjust="spacing" textLength="143.0566" x="59.8818" y="536.7461">("Who's it for?", topic, tone)</text><path d="M220.3145,581.1211 L220.3145,589.7383 L200.3145,593.7383 L220.3145,597.7383 L220.3145,606.3555 A0,0 0 0 0 220.3145,606.3555 L400.0376,606.3555 A0,0 0 0 0 400.0376,606.3555 L400.0376,591.1211 L390.0376,581.1211 L220.3145,581.1211 A0,0 0 0 0 220.3145,581.1211 " fill="#F1E9D8" style="stroke:#C9B48F;stroke-width:0.5;"/><path d="M390.0376,581.1211 L390.0376,591.1211 L400.0376,591.1211 L390.0376,581.1211 " fill="#F1E9D8" style="stroke:#C9B48F;stroke-width:0.5;"/><text fill="#000000" font-family="Roboto" font-size="13" lengthAdjust="spacing" textLength="158.7231" x="226.3145" y="598.1816">intake job status  &#8226;  shipped</text><rect fill="#FFFDF8" height="48.125" rx="5" ry="5" style="stroke:#8C6F56;stroke-width:0.5;" width="133.6543" x="66.6602" y="569.6758"/><text fill="#000000" font-family="Roboto" font-size="12" lengthAdjust="spacing" textLength="113.6543" x="76.6602" y="590.8086">Watch "My Requests"</text><text fill="#000000" font-family="Roboto" font-size="12" lengthAdjust="spacing" textLength="107.1504" x="76.6602" y="604.8711">show "Generating..."</text><path d="M232.9326,1088.7012 L232.9326,1097.3184 L212.9326,1101.3184 L232.9326,1105.3184 L232.9326,1113.9355 A0,0 0 0 0 232.9326,1113.9355 L355.2031,1113.9355 A0,0 0 0 0 355.2031,1113.9355 L355.2031,1098.7012 L345.2031,1088.7012 L232.9326,1088.7012 A0,0 0 0 0 232.9326,1088.7012 " fill="#F1E9D8" style="stroke:#C9B48F;stroke-width:0.5;"/><path d="M345.2031,1088.7012 L345.2031,1098.7012 L355.2031,1098.7012 L345.2031,1088.7012 " fill="#F1E9D8" style="stroke:#C9B48F;stroke-width:0.5;"/><text fill="#000000" font-family="Roboto" font-size="13" lengthAdjust="spacing" textLength="101.2705" x="238.9326" y="1105.7617">assign  &#8226;  shipped</text><rect fill="#FFFDF8" height="48.125" rx="5" ry="5" style="stroke:#8C6F56;stroke-width:0.5;" width="158.8906" x="54.042" y="1077.2559"/><text fill="#000000" font-family="Roboto" font-size="12" lengthAdjust="spacing" textLength="138.8906" x="64.042" y="1098.3887">Assign the approved story</text><text fill="#000000" font-family="Roboto" font-size="12" lengthAdjust="spacing" textLength="111.709" x="64.042" y="1112.4512">to the child it was for</text><path d="M252.9746,1205.2715 L252.9746,1213.8887 L232.9746,1217.8887 L252.9746,1221.8887 L252.9746,1230.5059 A0,0 0 0 0 252.9746,1230.5059 L461.0464,1230.5059 A0,0 0 0 0 461.0464,1230.5059 L461.0464,1215.2715 L451.0464,1205.2715 L252.9746,1205.2715 A0,0 0 0 0 252.9746,1205.2715 " fill="#F1E9D8" style="stroke:#C9B48F;stroke-width:0.5;"/><path d="M451.0464,1205.2715 L451.0464,1215.2715 L461.0464,1215.2715 L451.0464,1205.2715 " fill="#F1E9D8" style="stroke:#C9B48F;stroke-width:0.5;"/><text fill="#000000" font-family="Roboto" font-size="13" lengthAdjust="spacing" textLength="187.0718" x="258.9746" y="1222.332">AssignChildrenDialog  &#8226;  shipped</text><rect fill="#FFFDF8" height="48.125" rx="5" ry="5" style="stroke:#8C6F56;stroke-width:0.5;" width="198.9746" x="34" y="1193.8262"/><text fill="#000000" font-family="Roboto" font-size="12" lengthAdjust="spacing" textLength="143.2969" x="44" y="1214.959">"Assign more" -&gt; pick more</text><text fill="#000000" font-family="Roboto" font-size="12" lengthAdjust="spacing" textLength="178.9746" x="44" y="1229.0215">children (adds only the new ones)</text><polygon fill="#F8F3E8" points="79.7173,1145.3809,187.2573,1145.3809,199.2573,1157.3809,187.2573,1169.3809,79.7173,1169.3809,67.7173,1157.3809,79.7173,1145.3809" style="stroke:#8C6F56;stroke-width:0.5;"/><text fill="#5A3E28" font-family="Roboto" font-size="11" lengthAdjust="spacing" textLength="16.7148" x="137.4873" y="1179.5859">yes</text><text fill="#000000" font-family="Roboto" font-size="11" lengthAdjust="spacing" textLength="107.54" x="79.7173" y="1161.1406">Give it to siblings too?</text><text fill="#5A3E28" font-family="Roboto" font-size="11" lengthAdjust="spacing" textLength="12.3481" x="199.2573" y="1154.6953">no</text><polygon fill="#F8F3E8" points="133.4873,1261.9512,145.4873,1273.9512,133.4873,1285.9512,121.4873,1273.9512,133.4873,1261.9512" style="stroke:#8C6F56;stroke-width:0.5;"/><path d="M241.7656,1317.3965 L241.7656,1326.0137 L221.7656,1330.0137 L241.7656,1334.0137 L241.7656,1342.6309 A0,0 0 0 0 241.7656,1342.6309 L411.9355,1342.6309 A0,0 0 0 0 411.9355,1342.6309 L411.9355,1327.3965 L401.9355,1317.3965 L241.7656,1317.3965 A0,0 0 0 0 241.7656,1317.3965 " fill="#F1E9D8" style="stroke:#C9B48F;stroke-width:0.5;"/><path d="M401.9355,1317.3965 L401.9355,1327.3965 L411.9355,1327.3965 L401.9355,1317.3965 " fill="#F1E9D8" style="stroke:#C9B48F;stroke-width:0.5;"/><text fill="#000000" font-family="Roboto" font-size="13" lengthAdjust="spacing" textLength="149.1699" x="247.7656" y="1334.457">crosses to the kid surface</text><rect fill="#FFFDF8" height="48.125" rx="5" ry="5" style="stroke:#8C6F56;stroke-width:0.5;" width="176.5566" x="45.209" y="1305.9512"/><text fill="#000000" font-family="Roboto" font-size="12" lengthAdjust="spacing" textLength="156.5566" x="55.209" y="1327.084">The child's avatar now shows</text><text fill="#000000" font-family="Roboto" font-size="12" lengthAdjust="spacing" textLength="94.8516" x="55.209" y="1341.1465">"new story ready!"</text><ellipse cx="133.4873" cy="1385.0762" fill="none" rx="11" ry="11" style="stroke:#222222;stroke-width:1.0;"/><ellipse cx="133.4873" cy="1385.0762" fill="#222222" rx="6" ry="6" style="stroke:#222222;stroke-width:1.0;"/><line style="stroke:#000000;stroke-width:1.5;" x1="28" x2="28" y1="66.707" y2="1396.0762"/><rect fill="#C5D9CC" height="1329.3691" style="stroke:#C5D9CC;stroke-width:1.0;" width="573.9243" x="537.9497" y="66.707"/><path d="M731.1079,778.4648 L731.1079,787.082 L711.1079,791.082 L731.1079,795.082 L731.1079,803.6992 A0,0 0 0 0 731.1079,803.6992 L933.9556,803.6992 A0,0 0 0 0 933.9556,803.6992 L933.9556,788.4648 L923.9556,778.4648 L731.1079,778.4648 A0,0 0 0 0 731.1079,778.4648 " fill="#F1E9D8" style="stroke:#C9B48F;stroke-width:0.5;"/><path d="M923.9556,778.4648 L923.9556,788.4648 L933.9556,788.4648 L923.9556,778.4648 " fill="#F1E9D8" style="stroke:#C9B48F;stroke-width:0.5;"/><text fill="#000000" font-family="Roboto" font-size="13" lengthAdjust="spacing" textLength="181.8477" x="737.1079" y="795.5254">/guardian  (Console)  &#8226;  shipped</text><rect fill="#FFFDF8" height="62.1875" rx="5" ry="5" style="stroke:#8C6F56;stroke-width:0.5;" width="141.1309" x="569.9771" y="759.9883"/><text fill="#000000" font-family="Roboto" font-size="12" lengthAdjust="spacing" textLength="121.1309" x="579.9771" y="781.1211">Open the review queue</text><text fill="#000000" font-family="Roboto" font-size="12" lengthAdjust="spacing" textLength="113.7246" x="579.9771" y="795.1836">(Flagged, then Ready,</text><text fill="#000000" font-family="Roboto" font-size="12" lengthAdjust="spacing" textLength="112.4238" x="579.9771" y="809.2461">then Still processing)</text><path d="M754.4077,875.6523 L754.4077,884.2695 L734.4077,888.2695 L754.4077,892.2695 L754.4077,900.8867 A0,0 0 0 0 754.4077,900.8867 L956.3857,900.8867 A0,0 0 0 0 956.3857,900.8867 L956.3857,885.6523 L946.3857,875.6523 L754.4077,875.6523 A0,0 0 0 0 754.4077,875.6523 " fill="#F1E9D8" style="stroke:#C9B48F;stroke-width:0.5;"/><path d="M946.3857,875.6523 L946.3857,885.6523 L956.3857,885.6523 L946.3857,875.6523 " fill="#F1E9D8" style="stroke:#C9B48F;stroke-width:0.5;"/><text fill="#000000" font-family="Roboto" font-size="13" lengthAdjust="spacing" textLength="180.978" x="760.4077" y="892.7129">/guardian/review/:id  &#8226;  shipped</text><rect fill="#FFFDF8" height="62.1875" rx="5" ry="5" style="stroke:#8C6F56;stroke-width:0.5;" width="187.7305" x="546.6772" y="857.1758"/><text fill="#000000" font-family="Roboto" font-size="12" lengthAdjust="spacing" textLength="167.7305" x="556.6772" y="878.3086">Open a story: flagged passages</text><text fill="#000000" font-family="Roboto" font-size="12" lengthAdjust="spacing" textLength="112.7578" x="556.6772" y="892.3711">first, then the full text</text><text fill="#000000" font-family="Roboto" font-size="12" lengthAdjust="spacing" textLength="145.4355" x="556.6772" y="906.4336">with flags highlighted inline</text><rect fill="#FFFDF8" height="34.0625" rx="5" ry="5" style="stroke:#8C6F56;stroke-width:0.5;" width="152" x="564.5425" y="705.9258"/><text fill="#000000" font-family="Roboto" font-size="12" lengthAdjust="spacing" textLength="132" x="574.5425" y="727.0586">pick the top of the queue</text><polygon fill="#F8F3E8" points="601.175,939.3633,679.9099,939.3633,691.9099,951.3633,679.9099,963.3633,601.175,963.3633,589.175,951.3633,601.175,939.3633" style="stroke:#8C6F56;stroke-width:0.5;"/><text fill="#5A3E28" font-family="Roboto" font-size="11" lengthAdjust="spacing" textLength="70.4634" x="644.5425" y="973.5684">yes -&gt; approve</text><text fill="#000000" font-family="Roboto" font-size="11" lengthAdjust="spacing" textLength="78.7349" x="601.175" y="955.123">Safe for a child?</text><text fill="#5A3E28" font-family="Roboto" font-size="11" lengthAdjust="spacing" textLength="12.3481" x="691.9099" y="948.6777">no</text><rect fill="#FFFDF8" height="48.125" rx="5" ry="5" style="stroke:#8C6F56;stroke-width:0.5;" width="141.4883" x="966.3857" y="810.582"/><text fill="#000000" font-family="Roboto" font-size="12" lengthAdjust="spacing" textLength="117.1758" x="976.3857" y="831.7148">Send back with a note</text><text fill="#000000" font-family="Roboto" font-size="12" lengthAdjust="spacing" textLength="121.4883" x="976.3857" y="845.7773">-&gt; the story is rewritten</text><rect fill="#FFFDF8" height="62.1875" rx="5" ry="5" style="stroke:#8C6F56;stroke-width:0.5;" width="193.1855" x="543.9497" y="995.0684"/><text fill="#000000" font-family="Roboto" font-size="12" lengthAdjust="spacing" textLength="44.3906" x="553.9497" y="1016.2012">Approve</text><text fill="#000000" font-family="Roboto" font-size="12" lengthAdjust="spacing" textLength="173.1855" x="553.9497" y="1030.2637">(recorded human gate, ADR-005.</text><text fill="#000000" font-family="Roboto" font-size="12" lengthAdjust="spacing" textLength="128.1855" x="553.9497" y="1044.3262">Guardians get 403 here)</text><line style="stroke:#000000;stroke-width:1.5;" x1="537.9497" x2="537.9497" y1="66.707" y2="1396.0762"/><rect fill="#E4E4E4" height="1329.3691" style="stroke:#E4E4E4;stroke-width:1.0;" width="404.2363" x="1126.874" y="66.707"/><path d="M1280.4873,641.6289 L1280.4873,657.8633 L1260.4873,661.8633 L1280.4873,665.8633 L1280.4873,682.0977 A0,0 0 0 0 1280.4873,682.0977 L1519.1104,682.0977 A0,0 0 0 0 1519.1104,682.0977 L1519.1104,651.6289 L1509.1104,641.6289 L1280.4873,641.6289 A0,0 0 0 0 1280.4873,641.6289 " fill="#F1E9D8" style="stroke:#C9B48F;stroke-width:0.5;"/><path d="M1509.1104,641.6289 L1509.1104,651.6289 L1519.1104,651.6289 L1509.1104,641.6289 " fill="#F1E9D8" style="stroke:#C9B48F;stroke-width:0.5;"/><text fill="#000000" font-family="Roboto" font-size="13" lengthAdjust="spacing" textLength="217.623" x="1286.4873" y="658.6895">generation + validator gate  &#8226;  shipped</text><text fill="#000000" font-family="Roboto" font-size="13" lengthAdjust="spacing" textLength="124.5791" x="1286.4873" y="673.9238">detail: seq-generation</text><rect fill="#FFFDF8" height="48.125" rx="5" ry="5" style="stroke:#8C6F56;stroke-width:0.5;" width="127.6133" x="1132.874" y="637.8008"/><text fill="#000000" font-family="Roboto" font-size="12" lengthAdjust="spacing" textLength="106.3418" x="1142.874" y="658.9336">Write the story, then</text><text fill="#000000" font-family="Roboto" font-size="12" lengthAdjust="spacing" textLength="107.6133" x="1142.874" y="672.9961">run the safety check</text><line style="stroke:#000000;stroke-width:1.5;" x1="1126.874" x2="1126.874" y1="66.707" y2="1396.0762"/><line style="stroke:#000000;stroke-width:1.5;" x1="1546.1104" x2="1546.1104" y1="66.707" y2="1396.0762"/><line style="stroke:#5A3E28;stroke-width:1.0;" x1="133.4873" x2="133.4873" y1="112.8008" y2="132.8008"/><polygon fill="#5A3E28" points="129.4873,122.8008,133.4873,132.8008,137.4873,122.8008,133.4873,126.8008" style="stroke:#5A3E28;stroke-width:1.0;"/><line style="stroke:#5A3E28;stroke-width:1.0;" x1="133.4873" x2="133.4873" y1="194.9883" y2="214.9883"/><polygon fill="#5A3E28" points="129.4873,204.9883,133.4873,214.9883,137.4873,204.9883,133.4873,208.9883" style="stroke:#5A3E28;stroke-width:1.0;"/><line style="stroke:#5A3E28;stroke-width:1.0;" x1="133.4873" x2="133.4873" y1="249.0508" y2="269.0508"/><polygon fill="#5A3E28" points="129.4873,259.0508,133.4873,269.0508,137.4873,259.0508,133.4873,263.0508" style="stroke:#5A3E28;stroke-width:1.0;"/><line style="stroke:#5A3E28;stroke-width:1.0;" x1="133.4873" x2="133.4873" y1="317.1758" y2="337.1758"/><polygon fill="#5A3E28" points="129.4873,327.1758,133.4873,337.1758,137.4873,327.1758,133.4873,331.1758" style="stroke:#5A3E28;stroke-width:1.0;"/><line style="stroke:#5A3E28;stroke-width:1.0;" x1="133.4873" x2="133.4873" y1="399.3633" y2="419.3633"/><polygon fill="#5A3E28" points="129.4873,409.3633,133.4873,419.3633,137.4873,409.3633,133.4873,413.3633" style="stroke:#5A3E28;stroke-width:1.0;"/><line style="stroke:#5A3E28;stroke-width:1.0;" x1="133.4873" x2="133.4873" y1="481.5508" y2="501.5508"/><polygon fill="#5A3E28" points="129.4873,491.5508,133.4873,501.5508,137.4873,491.5508,133.4873,495.5508" style="stroke:#5A3E28;stroke-width:1.0;"/><line style="stroke:#5A3E28;stroke-width:1.0;" x1="133.4873" x2="133.4873" y1="549.6758" y2="569.6758"/><polygon fill="#5A3E28" points="129.4873,559.6758,133.4873,569.6758,137.4873,559.6758,133.4873,563.6758" style="stroke:#5A3E28;stroke-width:1.0;"/><line style="stroke:#5A3E28;stroke-width:1.0;" x1="133.4873" x2="133.4873" y1="1169.3809" y2="1193.8262"/><polygon fill="#5A3E28" points="129.4873,1183.8262,133.4873,1193.8262,137.4873,1183.8262,133.4873,1187.8262" style="stroke:#5A3E28;stroke-width:1.0;"/><line style="stroke:#5A3E28;stroke-width:1.0;" x1="199.2573" x2="471.0464" y1="1157.3809" y2="1157.3809"/><polygon fill="#5A3E28" points="467.0464,1207.8887,471.0464,1217.8887,475.0464,1207.8887,471.0464,1211.8887" style="stroke:#5A3E28;stroke-width:1.0;"/><line style="stroke:#5A3E28;stroke-width:1.0;" x1="471.0464" x2="471.0464" y1="1157.3809" y2="1273.9512"/><line style="stroke:#5A3E28;stroke-width:1.0;" x1="471.0464" x2="145.4873" y1="1273.9512" y2="1273.9512"/><polygon fill="#5A3E28" points="155.4873,1269.9512,145.4873,1273.9512,155.4873,1277.9512,151.4873,1273.9512" style="stroke:#5A3E28;stroke-width:1.0;"/><line style="stroke:#5A3E28;stroke-width:1.0;" x1="133.4873" x2="133.4873" y1="1241.9512" y2="1261.9512"/><polygon fill="#5A3E28" points="129.4873,1251.9512,133.4873,1261.9512,137.4873,1251.9512,133.4873,1255.9512" style="stroke:#5A3E28;stroke-width:1.0;"/><line style="stroke:#5A3E28;stroke-width:1.0;" x1="133.4873" x2="133.4873" y1="1125.3809" y2="1145.3809"/><polygon fill="#5A3E28" points="129.4873,1135.3809,133.4873,1145.3809,137.4873,1135.3809,133.4873,1139.3809" style="stroke:#5A3E28;stroke-width:1.0;"/><line style="stroke:#5A3E28;stroke-width:1.0;" x1="133.4873" x2="133.4873" y1="1285.9512" y2="1305.9512"/><polygon fill="#5A3E28" points="129.4873,1295.9512,133.4873,1305.9512,137.4873,1295.9512,133.4873,1299.9512" style="stroke:#5A3E28;stroke-width:1.0;"/><line style="stroke:#5A3E28;stroke-width:1.0;" x1="133.4873" x2="133.4873" y1="1354.0762" y2="1374.0762"/><polygon fill="#5A3E28" points="129.4873,1364.0762,133.4873,1374.0762,137.4873,1364.0762,133.4873,1368.0762" style="stroke:#5A3E28;stroke-width:1.0;"/><line style="stroke:#5A3E28;stroke-width:1.0;" x1="640.5425" x2="640.5425" y1="822.1758" y2="857.1758"/><polygon fill="#5A3E28" points="636.5425,847.1758,640.5425,857.1758,644.5425,847.1758,640.5425,851.1758" style="stroke:#5A3E28;stroke-width:1.0;"/><line style="stroke:#5A3E28;stroke-width:1.0;" x1="640.5425" x2="640.5425" y1="739.9883" y2="759.9883"/><polygon fill="#5A3E28" points="636.5425,749.9883,640.5425,759.9883,644.5425,749.9883,640.5425,753.9883" style="stroke:#5A3E28;stroke-width:1.0;"/><line style="stroke:#5A3E28;stroke-width:1.0;" x1="691.9099" x2="1037.1299" y1="951.3633" y2="951.3633"/><line style="stroke:#5A3E28;stroke-width:1.0;" x1="1037.1299" x2="1037.1299" y1="858.707" y2="951.3633"/><polygon fill="#5A3E28" points="1033.1299,868.707,1037.1299,858.707,1041.1299,868.707,1037.1299,864.707" style="stroke:#5A3E28;stroke-width:1.0;"/><line style="stroke:#5A3E28;stroke-width:1.0;" x1="1037.1299" x2="1037.1299" y1="722.957" y2="810.582"/><line style="stroke:#5A3E28;stroke-width:1.0;" x1="1037.1299" x2="716.5425" y1="722.957" y2="722.957"/><polygon fill="#5A3E28" points="726.5425,718.957,716.5425,722.957,726.5425,726.957,722.5425,722.957" style="stroke:#5A3E28;stroke-width:1.0;"/><line style="stroke:#5A3E28;stroke-width:1.0;" x1="640.5425" x2="640.5425" y1="919.3633" y2="939.3633"/><polygon fill="#5A3E28" points="636.5425,929.3633,640.5425,939.3633,644.5425,929.3633,640.5425,933.3633" style="stroke:#5A3E28;stroke-width:1.0;"/><line style="stroke:#5A3E28;stroke-width:1.0;" x1="640.5425" x2="640.5425" y1="963.3633" y2="995.0684"/><polygon fill="#5A3E28" points="636.5425,985.0684,640.5425,995.0684,644.5425,985.0684,640.5425,989.0684" style="stroke:#5A3E28;stroke-width:1.0;"/><line style="stroke:#5A3E28;stroke-width:1.0;" x1="133.4873" x2="133.4873" y1="617.8008" y2="622.8008"/><line style="stroke:#5A3E28;stroke-width:1.0;" x1="133.4873" x2="1196.6807" y1="622.8008" y2="622.8008"/><line style="stroke:#5A3E28;stroke-width:1.0;" x1="1196.6807" x2="1196.6807" y1="622.8008" y2="637.8008"/><polygon fill="#5A3E28" points="1192.6807,627.8008,1196.6807,637.8008,1200.6807,627.8008,1196.6807,631.8008" style="stroke:#5A3E28;stroke-width:1.0;"/><line style="stroke:#5A3E28;stroke-width:1.0;" x1="1196.6807" x2="1196.6807" y1="685.9258" y2="690.9258"/><line style="stroke:#5A3E28;stroke-width:1.0;" x1="1196.6807" x2="640.5425" y1="690.9258" y2="690.9258"/><line style="stroke:#5A3E28;stroke-width:1.0;" x1="640.5425" x2="640.5425" y1="690.9258" y2="705.9258"/><polygon fill="#5A3E28" points="636.5425,695.9258,640.5425,705.9258,644.5425,695.9258,640.5425,699.9258" style="stroke:#5A3E28;stroke-width:1.0;"/><line style="stroke:#5A3E28;stroke-width:1.0;" x1="640.5425" x2="640.5425" y1="1057.2559" y2="1062.2559"/><line style="stroke:#5A3E28;stroke-width:1.0;" x1="640.5425" x2="133.4873" y1="1062.2559" y2="1062.2559"/><line style="stroke:#5A3E28;stroke-width:1.0;" x1="133.4873" x2="133.4873" y1="1062.2559" y2="1077.2559"/><polygon fill="#5A3E28" points="129.4873,1067.2559,133.4873,1077.2559,137.4873,1067.2559,133.4873,1071.2559" style="stroke:#5A3E28;stroke-width:1.0;"/><text fill="#000000" font-family="Roboto" font-size="18" lengthAdjust="spacing" textLength="72.334" x="241.8079" y="83.4063">Guardian</text><text fill="#000000" font-family="Roboto" font-size="18" lengthAdjust="spacing" textLength="51.9961" x="798.9138" y="83.4063">Admin</text><text fill="#000000" font-family="Roboto" font-size="18" lengthAdjust="spacing" textLength="59.7129" x="1295.6357" y="83.4063">System</text><rect fill="none" height="112.4375" id="_legend" rx="5" ry="5" style="stroke:#000000;stroke-width:1.0;" width="460.1738" x="549.9683" y="1408.0762"/><text fill="#000000" font-family="Roboto" font-size="14" font-weight="bold" lengthAdjust="spacing" textLength="33.2705" x="558.4546" y="1428.0645">Node</text><text fill="#000000" font-family="Roboto" font-size="14" font-weight="bold" lengthAdjust="spacing" textLength="54.7285" x="605.9849" y="1428.0645">Meaning</text><text fill="#000000" filter="url(#b1ktvx4qa4iskz0)" font-family="Roboto" font-size="14" lengthAdjust="spacing" textLength="33.6396" x="561.9136" y="1444.4707">white</text><text fill="#000000" font-family="Roboto" font-size="14" lengthAdjust="spacing" textLength="237.0498" x="605.9712" y="1444.4707">Shipped in the guardian console today</text><text fill="#000000" filter="url(#b1ktvx4qa4iskz1)" font-family="Roboto" font-size="14" lengthAdjust="spacing" textLength="27.3779" x="561.9136" y="1460.877">rose</text><text fill="#000000" font-family="Roboto" font-size="14" lengthAdjust="spacing" textLength="129.6982" x="605.9712" y="1460.877">Planned, not yet built</text><line style="stroke:#000000;stroke-width:1.0;" x1="554.9683" x2="846.4937" y1="1415.0762" y2="1415.0762"/><line style="stroke:#000000;stroke-width:1.0;" x1="554.9683" x2="846.4937" y1="1431.4824" y2="1431.4824"/><line style="stroke:#000000;stroke-width:1.0;" x1="554.9683" x2="846.4937" y1="1447.8887" y2="1447.8887"/><line style="stroke:#000000;stroke-width:1.0;" x1="554.9683" x2="846.4937" y1="1464.2949" y2="1464.2949"/><line style="stroke:#000000;stroke-width:1.0;" x1="554.9683" x2="554.9683" y1="1415.0762" y2="1464.2949"/><line style="stroke:#000000;stroke-width:1.0;" x1="602.4985" x2="602.4985" y1="1415.0762" y2="1464.2949"/><line style="stroke:#000000;stroke-width:1.0;" x1="846.4937" x2="846.4937" y1="1415.0762" y2="1464.2949"/><text fill="#000000" font-family="Roboto" font-size="14" lengthAdjust="spacing" textLength="58.8438" x="554.9683" y="1479.2832">Columns:</text><text fill="#000000" font-family="Roboto" font-size="14" font-weight="bold" lengthAdjust="spacing" textLength="56.9502" x="617.2847" y="1479.2832">Guardian</text><text fill="#000000" font-family="Roboto" font-size="14" lengthAdjust="spacing" textLength="179.04" x="677.7075" y="1479.2832">(request + assign + monitor),</text><text fill="#000000" font-family="Roboto" font-size="14" font-weight="bold" lengthAdjust="spacing" textLength="40.9951" x="860.2202" y="1479.2832">Admin</text><text fill="#000000" font-family="Roboto" font-size="14" lengthAdjust="spacing" textLength="82.4004" x="904.688" y="1479.2832">(the ADR-005</text><text fill="#000000" font-family="Roboto" font-size="14" lengthAdjust="spacing" textLength="92.4492" x="554.9683" y="1495.6895">approval gate),</text><text fill="#000000" font-family="Roboto" font-size="14" font-weight="bold" lengthAdjust="spacing" textLength="47.2637" x="650.8901" y="1495.6895">System</text><text fill="#000000" font-family="Roboto" font-size="14" lengthAdjust="spacing" textLength="278.9883" x="701.6265" y="1495.6895">(generation + safety, behind the scenes). See</text><text fill="#000000" font-family="Roboto" font-size="14" lengthAdjust="spacing" textLength="450.1738" x="554.9683" y="1512.0957">journey-kid for the child side and journey-dev-coverage for test coverage.</text><!--SRC=[fLVRSjiu4dtdL_Gg3v76f9JPEBEEb7XAiMnNfcOoBYifRstb1I8X2cCAu02W5LNfORzbFss_P4-3f6wsimyJLyecqEZhwOF6Ith_5_v5B-bVnYnbHb-SjCdbjr9Q9NKgwQemgo5TLy9cIcWweN6sL9gcbPsBL4OlSVB6cgnA_U3BFvEq45RvDOd2ArzbakR6abz8AeMLsYSuetHEgT7E59AwrbHUahSIcgWpo1ipdLwVFXa-hefYIAk5WjHxSWjLbZABoHh7tsKXj8RFNMqyhQMdMQKAt-j3rsVO56LfpGD-fruPJSgHODyJeuirTSUJs-JLgpUz4RLM7QM8S6cqyl1wLdaIqDJkyYRRSRAO9wtgxlZc8rdfAulJfwzUissScPhA8dSkHM3Q3R52DBT6UwcpWRFf8CHj-zvz8-fkBUooCQHjBWO_z1wVtsx-QdAbRqGkMLTC5tLYTmktya79rKHweOfszJlgFcelxlUEexGeWNIxbR5pAjSN2rLagEX4YSBa_qVfhVopaivlbI3atQPjDeTjkGQPJ0kbPL1892XbMoyTELHbJOryJ7VJvCEeXGGboRPGYLbf06sfK6LZMpMXydbXPgA8wTFld_UnKAXx6L3QOA8sDJFcld5A59GBBxzNY0-GVZf2reFmKk4vLpIpPWNqdhIEXNo6S2v7Up6mNrey4Bh6hcl3cKdT860UFJGGcUN_x6-o53eJx7EogF1tqdhTNsRXvCr2mEIf0BXdA2Tz-KWhPUNSYgNaPanb2M2NCgNkpIszEFr7t2Ps5FBYQZp30Qfq9jka1eTS1QuepKfQ_0qLRa0huRWfO253VDm6mgSB0hfBD1MR8-KThOozfwMqkSmumB_4Nn7u1e4znrFq2oBGSlrLT_TOPdH497qQDtrzm1LnYujU5BbxfS5bOacPd8kgy5S0moTEO-VMp8mtdJsHcKZlSpIrpYvC0KfvSJNcdps9PXEkMVhnrTw6MuZCh9Whvw9mSczdR06WHjyRyLh-_UnuarrwLW1S-026_l38jQkhoTMJaiQYuetKMVhJ_CrFJqY1242SsIEryxFvQtdsdGFVrVx9UFdOqnyltqxEZgNszQHlPwTdy_rihjGI9PPtAlCBSYXN56rUN4mc5vSNcnOp6rvwCtbxSR49sE7lorF-sKpNpilb1eTsmiuBwwFX5DrBIaTTkGJ53ahqCt2TWNdesfYya744K06QQXvQQLw8dE5bT6yKuJwHP5M-yFk4Np2d4_ttt_-XjWsZuQzeSHmAEXgM7qNecWJCDyK5L0wfRCYQrwBXE0jEo4pvFH9jPAAkPioUu5iwN9pY0Unad_Leg_dGgSPym- -mKbDqCFzxAT5z-vJjuiY6suYMwwq_AfCYwjON9TZ2osyUNd6ItBFUjFeElK5hFtq3773_wAi-9FyOZBRb_mEsfvd4xDD3YJb1ERvHWfWAgNE_Y2DJybG1MSUZagD0G744DNfB8p0-gM-pmrZQMwiEe1qcU7h9G3nSNsRahvfhBZMYHRoK8qCWKXYDek5npd4fBQc-lQDkvsvXEBUUnw-VEp5vKwgKVsdvR5PLE7mCkxl0t9tVrcsL7GXkOLRKkMxSqNc_t-ySQcrq_M5cS4_uwX5mjXqrlBCysuLBXWE9-KyTsQf6kXDpwHajChq_DB7B1l22agbm0TQ5Ey955gOVP5t-cUmdiKRl-A3ctQTeFo2w9GKhIoay3P7H- -0ZaakcRkvGgL54LCEVbnh8XnriTAy0xPnds02KMocoTOpry3Nr67UvHLE9gK3dFLRrPBMWg261tb5gMziDC8QXbs2Gc9c0OWU9kR8yGGMRWPCgcENMmzvAWI53_z42HWisZDDAroX-nfz17UPWgB8ZV_WEN448NGGmyrTjGWH5KNA-gptJefKh00BZrQXDD8P_VYbCWOJmccYuxESUYsFoxx4YwgwPzyxRNaBNDZqOTQrC-NB8ACn6eSpRqlQZw-tmdwFDCSBJGbhkaXOUOJwh4R0Z_s6pl2CDw0z1HDw4rU0ajo0FG_3x4Btrr7UKAjmGtMl5quS7gCYf6NAEEdXZ46se5eVPunft6WUMnieE1nxWo5_OJPlfdD6SyLK37cIVD8082d2FSFNKK7_adCGK4j8TeOvg7Wq_jq62QUhh0ofNnEJWeWwRQWTsGFnlHmIHOl1oJ9friku16zUyA76gZA92vW4lndkpXBURz_M34Bz_au87ODhmyZj6rB2PNiwfUIhIkm6ldszesZ2jgckrUymrBr1lCh4-LFLwydPo2bLXDjnJTLCFYJ4Tl3R3MSmTrH8FFNetEsz1WdFdUE0sF7tIbloaVM3sOfOEf5ABxZr08ZfwU0JPcZDhuGFwgraoneMrK4XQQAXKSg7xc0qO4N_Kus_2YMwVv3L27MvWudkc5SdaGv82pvQll23B_hShVIv_NPpeVm00]--></g></svg>
