<svg xmlns="http://www.w3.org/2000/svg" xmlns:xlink="http://www.w3.org/1999/xlink" contentStyleType="text/css" height="1685px" preserveAspectRatio="none" style="width:1278px;height:1685px;background:#FAFAFA;" version="1.1" viewBox="0 0 1278 1685" width="1278px" zoomAndPan="magnify"><title>Kid-Surface Journey</title><defs><style type="text/css">@import url('https://fonts.googleapis.com/css?family=Roboto:400,100,100italic,300,300italic,400italic,500,500italic,700,700italic,900,900italic');</style><filter height="1" id="bgps60gty3ntr0" width="1" x="0" y="0"><feFlood flood-color="#FFFDF8" result="flood"/><feComposite in="SourceGraphic" in2="flood" operator="over"/></filter><filter height="1" id="bgps60gty3ntr1" width="1" x="0" y="0"><feFlood flood-color="#F3D9D4" result="flood"/><feComposite in="SourceGraphic" in2="flood" operator="over"/></filter></defs><g><rect fill="#FAFAFA" height="1685" style="stroke:none;stroke-width:1.0;" width="1278" x="0" y="0"/><text fill="#000000" font-family="Roboto" font-size="14" font-weight="bold" lengthAdjust="spacing" textLength="129.5137" x="572.7625" y="32.9883">Kid-Surface Journey</text><text fill="#000000" font-family="Roboto" font-size="14" font-weight="bold" lengthAdjust="spacing" textLength="311.3633" x="481.8376" y="49.3945">(child-facing app "/"; rose = planned, not yet built)</text><ellipse cx="639.658" cy="73.8125" fill="#222222" rx="10" ry="10" style="stroke:#222222;stroke-width:1.0;"/><rect fill="#FFFDF8" height="34.0625" rx="5" ry="5" style="stroke:#8C6F56;stroke-width:0.5;" width="90.8398" x="594.238" y="103.8125"/><text fill="#000000" font-family="Roboto" font-size="12" lengthAdjust="spacing" textLength="70.8398" x="604.238" y="124.9453">Open the app</text><path d="M727.0154,176.3516 L727.0154,184.9688 L707.0154,188.9688 L727.0154,192.9688 L727.0154,201.5859 A0,0 0 0 0 727.0154,201.5859 L908.9792,201.5859 A0,0 0 0 0 908.9792,201.5859 L908.9792,186.3516 L898.9792,176.3516 L727.0154,176.3516 A0,0 0 0 0 727.0154,176.3516 " fill="#F1E9D8" style="stroke:#C9B48F;stroke-width:0.5;"/><path d="M898.9792,176.3516 L898.9792,186.3516 L908.9792,186.3516 L898.9792,176.3516 " fill="#F1E9D8" style="stroke:#C9B48F;stroke-width:0.5;"/><text fill="#000000" font-family="Roboto" font-size="13" lengthAdjust="spacing" textLength="160.9639" x="733.0154" y="193.4121">/  (Profile Picker)  &#8226;  shipped</text><rect fill="#FFFDF8" height="62.1875" rx="5" ry="5" style="stroke:#8C6F56;stroke-width:0.5;" width="134.7148" x="572.3005" y="157.875"/><text fill="#000000" font-family="Roboto" font-size="12" lengthAdjust="spacing" textLength="75.9668" x="582.3005" y="179.0078">Tap my avatar</text><text fill="#000000" font-family="Roboto" font-size="12" lengthAdjust="spacing" textLength="91.7637" x="582.3005" y="193.0703">(2-column picker,</text><text fill="#000000" font-family="Roboto" font-size="12" lengthAdjust="spacing" textLength="114.7148" x="582.3005" y="207.1328">dashed circle if none)</text><path d="M733.4578,243.8906 L733.4578,260.125 L713.4578,264.125 L733.4578,268.125 L733.4578,284.3594 A0,0 0 0 0 733.4578,284.3594 L948.6326,284.3594 A0,0 0 0 0 948.6326,284.3594 L948.6326,253.8906 L938.6326,243.8906 L733.4578,243.8906 A0,0 0 0 0 733.4578,243.8906 " fill="#F1E9D8" style="stroke:#C9B48F;stroke-width:0.5;"/><path d="M938.6326,243.8906 L938.6326,253.8906 L948.6326,253.8906 L938.6326,243.8906 " fill="#F1E9D8" style="stroke:#C9B48F;stroke-width:0.5;"/><text fill="#000000" font-family="Roboto" font-size="13" lengthAdjust="spacing" textLength="182.9268" x="739.4578" y="260.9512">planned (child-initiated request)</text><text fill="#000000" font-family="Roboto" font-size="13" lengthAdjust="spacing" textLength="194.1748" x="739.4578" y="276.1855">surfaces to a guardian to approve</text><rect fill="#F3D9D4" height="48.125" rx="5" ry="5" style="stroke:#8C6F56;stroke-width:0.5;" width="147.5996" x="565.8582" y="240.0625"/><text fill="#000000" font-family="Roboto" font-size="12" lengthAdjust="spacing" textLength="127.5996" x="575.8582" y="261.1953">Tap "I want a new story"</text><text fill="#000000" font-family="Roboto" font-size="12" lengthAdjust="spacing" textLength="122.0918" x="575.8582" y="275.2578">and say what it's about</text><path d="M728.4978,319.6328 L728.4978,328.25 L708.4978,332.25 L728.4978,336.25 L728.4978,344.8672 A0,0 0 0 0 728.4978,344.8672 L868.8083,344.8672 A0,0 0 0 0 868.8083,344.8672 L868.8083,329.6328 L858.8083,319.6328 L728.4978,319.6328 A0,0 0 0 0 728.4978,319.6328 " fill="#F1E9D8" style="stroke:#C9B48F;stroke-width:0.5;"/><path d="M858.8083,319.6328 L858.8083,329.6328 L868.8083,329.6328 L858.8083,319.6328 " fill="#F1E9D8" style="stroke:#C9B48F;stroke-width:0.5;"/><text fill="#000000" font-family="Roboto" font-size="13" lengthAdjust="spacing" textLength="119.3105" x="734.4978" y="336.6934">status pill  &#8226;  shipped</text><rect fill="#FFFDF8" height="48.125" rx="5" ry="5" style="stroke:#8C6F56;stroke-width:0.5;" width="137.6797" x="570.8181" y="308.1875"/><text fill="#000000" font-family="Roboto" font-size="12" lengthAdjust="spacing" textLength="117.6797" x="580.8181" y="329.3203">See "new story ready!"</text><text fill="#000000" font-family="Roboto" font-size="12" lengthAdjust="spacing" textLength="69.0117" x="580.8181" y="343.3828">on my avatar</text><path d="M737.1873,394.7891 L737.1873,403.4063 L717.1873,407.4063 L737.1873,411.4063 L737.1873,420.0234 A0,0 0 0 0 737.1873,420.0234 L918.5798,420.0234 A0,0 0 0 0 918.5798,420.0234 L918.5798,404.7891 L908.5798,394.7891 L737.1873,394.7891 A0,0 0 0 0 737.1873,394.7891 " fill="#F1E9D8" style="stroke:#C9B48F;stroke-width:0.5;"/><path d="M908.5798,394.7891 L908.5798,404.7891 L918.5798,404.7891 L908.5798,394.7891 " fill="#F1E9D8" style="stroke:#C9B48F;stroke-width:0.5;"/><text fill="#000000" font-family="Roboto" font-size="13" lengthAdjust="spacing" textLength="160.3926" x="743.1873" y="411.8496">/library/:profileId  &#8226;  shipped</text><rect fill="#FFFDF8" height="62.1875" rx="5" ry="5" style="stroke:#8C6F56;stroke-width:0.5;" width="155.0586" x="562.1287" y="376.3125"/><text fill="#000000" font-family="Roboto" font-size="12" lengthAdjust="spacing" textLength="86.5957" x="572.1287" y="397.4453">Open my Library</text><text fill="#000000" font-family="Roboto" font-size="12" lengthAdjust="spacing" textLength="125.0098" x="572.1287" y="411.5078">(Continue Reading hero</text><text fill="#000000" font-family="Roboto" font-size="12" lengthAdjust="spacing" textLength="135.0586" x="572.1287" y="425.5703">+ "More to Explore" shelf)</text><rect fill="#FFFDF8" height="34.0625" rx="5" ry="5" style="stroke:#8C6F56;stroke-width:0.5;" width="81.8398" x="598.738" y="458.5"/><text fill="#000000" font-family="Roboto" font-size="12" lengthAdjust="spacing" textLength="61.8398" x="608.738" y="479.6328">Pick a book</text><polygon fill="#F8F3E8" points="32,512.5625,137.3379,512.5625,149.3379,524.5625,137.3379,536.5625,32,536.5625,20,524.5625,32,512.5625" style="stroke:#8C6F56;stroke-width:0.5;"/><text fill="#5A3E28" font-family="Roboto" font-size="11" lengthAdjust="spacing" textLength="16.7148" x="88.6689" y="546.7676">yes</text><text fill="#000000" font-family="Roboto" font-size="11" lengthAdjust="spacing" textLength="105.3379" x="32" y="528.3223">Is the story available?</text><path d="M176.0605,573.8672 L176.0605,582.4844 L156.0605,586.4844 L176.0605,590.4844 L176.0605,599.1016 A0,0 0 0 0 176.0605,599.1016 L475.1006,599.1016 A0,0 0 0 0 475.1006,599.1016 L475.1006,583.8672 L465.1006,573.8672 L176.0605,573.8672 A0,0 0 0 0 176.0605,573.8672 " fill="#F1E9D8" style="stroke:#C9B48F;stroke-width:0.5;"/><path d="M465.1006,573.8672 L465.1006,583.8672 L475.1006,583.8672 L465.1006,573.8672 " fill="#F1E9D8" style="stroke:#C9B48F;stroke-width:0.5;"/><text fill="#000000" font-family="Roboto" font-size="13" lengthAdjust="spacing" textLength="278.04" x="182.0605" y="590.9277">/read/:profileId/:storybookId/:version  &#8226;  shipped</text><rect fill="#FFFDF8" height="34.0625" rx="5" ry="5" style="stroke:#8C6F56;stroke-width:0.5;" width="142.7832" x="13.2773" y="569.4531"/><text fill="#000000" font-family="Roboto" font-size="12" lengthAdjust="spacing" textLength="122.7832" x="23.2773" y="590.5859">Reader opens the story</text><polygon fill="#F8F3E8" points="510.9597,512.5625,595.5813,512.5625,607.5813,524.5625,595.5813,536.5625,510.9597,536.5625,498.9597,524.5625,510.9597,512.5625" style="stroke:#8C6F56;stroke-width:0.5;"/><text fill="#000000" font-family="Roboto" font-size="11" lengthAdjust="spacing" textLength="84.6216" x="510.9597" y="528.3223">link is malformed</text><text fill="#5A3E28" font-family="Roboto" font-size="11" lengthAdjust="spacing" textLength="76.8926" x="607.5813" y="521.877">story is missing</text><path d="M631.4404,568.0078 L631.4404,576.625 L611.4404,580.625 L631.4404,584.625 L631.4404,593.2422 A0,0 0 0 0 631.4404,593.2422 L871.917,593.2422 A0,0 0 0 0 871.917,593.2422 L871.917,578.0078 L861.917,568.0078 L631.4404,568.0078 A0,0 0 0 0 631.4404,568.0078 " fill="#F1E9D8" style="stroke:#C9B48F;stroke-width:0.5;"/><path d="M861.917,568.0078 L861.917,578.0078 L871.917,578.0078 L861.917,568.0078 " fill="#F1E9D8" style="stroke:#C9B48F;stroke-width:0.5;"/><text fill="#000000" font-family="Roboto" font-size="13" lengthAdjust="spacing" textLength="219.4766" x="637.4404" y="585.0684">shipped (reader.spec: malformed link)</text><rect fill="#FFFDF8" height="48.125" rx="5" ry="5" style="stroke:#8C6F56;stroke-width:0.5;" width="116.3398" x="495.1006" y="556.5625"/><text fill="#000000" font-family="Roboto" font-size="12" lengthAdjust="spacing" textLength="96.3398" x="505.1006" y="577.6953">See a friendly exit,</text><text fill="#000000" font-family="Roboto" font-size="12" lengthAdjust="spacing" textLength="79.0371" x="505.1006" y="591.7578">not a dead end</text><ellipse cx="553.2705" cy="638.6875" fill="none" rx="11" ry="11" style="stroke:#222222;stroke-width:1.0;"/><ellipse cx="553.2705" cy="638.6875" fill="#222222" rx="6" ry="6" style="stroke:#222222;stroke-width:1.0;"/><path d="M1034.6963,571.0078 L1034.6963,579.625 L1014.6963,583.625 L1034.6963,587.625 L1034.6963,596.2422 A0,0 0 0 0 1034.6963,596.2422 L1266.0386,596.2422 A0,0 0 0 0 1266.0386,596.2422 L1266.0386,581.0078 L1256.0386,571.0078 L1034.6963,571.0078 A0,0 0 0 0 1034.6963,571.0078 " fill="#F1E9D8" style="stroke:#C9B48F;stroke-width:0.5;"/><path d="M1256.0386,571.0078 L1256.0386,581.0078 L1266.0386,581.0078 L1256.0386,571.0078 " fill="#F1E9D8" style="stroke:#C9B48F;stroke-width:0.5;"/><text fill="#000000" font-family="Roboto" font-size="13" lengthAdjust="spacing" textLength="210.3423" x="1040.6963" y="588.0684">shipped (reader.spec: missing story)</text><rect fill="#FFFDF8" height="48.125" rx="5" ry="5" style="stroke:#8C6F56;stroke-width:0.5;" width="122.7793" x="891.917" y="559.5625"/><text fill="#000000" font-family="Roboto" font-size="12" lengthAdjust="spacing" textLength="84.2754" x="901.917" y="580.6953">See "not found",</text><text fill="#000000" font-family="Roboto" font-size="12" lengthAdjust="spacing" textLength="102.7793" x="901.917" y="594.7578">not the offline copy</text><ellipse cx="953.3066" cy="641.6875" fill="none" rx="11" ry="11" style="stroke:#222222;stroke-width:1.0;"/><ellipse cx="953.3066" cy="641.6875" fill="#222222" rx="6" ry="6" style="stroke:#222222;stroke-width:1.0;"/><rect fill="#FFFDF8" height="48.125" rx="5" ry="5" style="stroke:#8C6F56;stroke-width:0.5;" width="152.1465" x="563.5847" y="746.75"/><text fill="#000000" font-family="Roboto" font-size="12" lengthAdjust="spacing" textLength="95.1855" x="573.5847" y="767.8828">Read the passage</text><text fill="#000000" font-family="Roboto" font-size="12" lengthAdjust="spacing" textLength="132.1465" x="573.5847" y="781.9453">(serif, generous spacing)</text><path d="M741.8513,833.3516 L741.8513,841.9688 L721.8513,845.9688 L741.8513,849.9688 L741.8513,858.5859 A0,0 0 0 0 741.8513,858.5859 L941.3538,858.5859 A0,0 0 0 0 941.3538,858.5859 L941.3538,843.3516 L931.3538,833.3516 L741.8513,833.3516 A0,0 0 0 0 741.8513,833.3516 " fill="#F1E9D8" style="stroke:#C9B48F;stroke-width:0.5;"/><path d="M931.3538,833.3516 L931.3538,843.3516 L941.3538,843.3516 L931.3538,833.3516 " fill="#F1E9D8" style="stroke:#C9B48F;stroke-width:0.5;"/><text fill="#000000" font-family="Roboto" font-size="13" lengthAdjust="spacing" textLength="178.5024" x="747.8513" y="850.4121">state-gated visibility  &#8226;  shipped</text><rect fill="#FFFDF8" height="62.1875" rx="5" ry="5" style="stroke:#8C6F56;stroke-width:0.5;" width="164.3867" x="557.4646" y="814.875"/><text fill="#000000" font-family="Roboto" font-size="12" lengthAdjust="spacing" textLength="77.2266" x="567.4646" y="836.0078">Make a choice</text><text fill="#000000" font-family="Roboto" font-size="12" lengthAdjust="spacing" textLength="142.8281" x="567.4646" y="850.0703">(some choices stay hidden</text><text fill="#000000" font-family="Roboto" font-size="12" lengthAdjust="spacing" textLength="144.3867" x="567.4646" y="864.1328">until the story-state allows)</text><polygon fill="#F8F3E8" points="609.6201,897.0625,669.6958,897.0625,681.6958,909.0625,669.6958,921.0625,609.6201,921.0625,597.6201,909.0625,609.6201,897.0625" style="stroke:#8C6F56;stroke-width:0.5;"/><text fill="#000000" font-family="Roboto" font-size="11" lengthAdjust="spacing" textLength="60.0757" x="609.6201" y="912.8223">Am I online?</text><text fill="#5A3E28" font-family="Roboto" font-size="11" lengthAdjust="spacing" textLength="16.7148" x="580.9053" y="906.377">yes</text><text fill="#5A3E28" font-family="Roboto" font-size="11" lengthAdjust="spacing" textLength="31.1792" x="681.6958" y="906.377">offline</text><rect fill="#FFFDF8" height="34.0625" rx="5" ry="5" style="stroke:#8C6F56;stroke-width:0.5;" width="158.8965" x="458.6042" y="931.0625"/><text fill="#000000" font-family="Roboto" font-size="12" lengthAdjust="spacing" textLength="138.8965" x="468.6042" y="952.1953">My progress saves as I go</text><path d="M844.5144,949.5391 L844.5144,958.1563 L824.5144,962.1563 L844.5144,966.1563 L844.5144,974.7734 A0,0 0 0 0 844.5144,974.7734 L992.1438,974.7734 A0,0 0 0 0 992.1438,974.7734 L992.1438,959.5391 L982.1438,949.5391 L844.5144,949.5391 A0,0 0 0 0 844.5144,949.5391 " fill="#F1E9D8" style="stroke:#C9B48F;stroke-width:0.5;"/><path d="M982.1438,949.5391 L982.1438,959.5391 L992.1438,959.5391 L982.1438,949.5391 " fill="#F1E9D8" style="stroke:#C9B48F;stroke-width:0.5;"/><text fill="#000000" font-family="Roboto" font-size="13" lengthAdjust="spacing" textLength="126.6294" x="850.5144" y="966.5996">offline-first  &#8226;  shipped</text><rect fill="#FFFDF8" height="62.1875" rx="5" ry="5" style="stroke:#8C6F56;stroke-width:0.5;" width="166.502" x="658.0125" y="931.0625"/><text fill="#000000" font-family="Roboto" font-size="12" lengthAdjust="spacing" textLength="118.4355" x="668.0125" y="952.1953">Keep reading from the</text><text fill="#000000" font-family="Roboto" font-size="12" lengthAdjust="spacing" textLength="146.502" x="668.0125" y="966.2578">downloaded copy, progress</text><text fill="#000000" font-family="Roboto" font-size="12" lengthAdjust="spacing" textLength="86.3613" x="668.0125" y="980.3203">waits in a queue</text><rect fill="#FFFDF8" height="34.0625" rx="5" ry="5" style="stroke:#8C6F56;stroke-width:0.5;" width="135.0078" x="673.7595" y="1022.9141"/><text fill="#000000" font-family="Roboto" font-size="12" lengthAdjust="spacing" textLength="115.0078" x="683.7595" y="1044.0469">On reconnect it syncs</text><path d="M855.0261,1138.6484 L855.0261,1147.2656 L835.0261,1151.2656 L855.0261,1155.2656 L855.0261,1163.8828 A0,0 0 0 0 855.0261,1163.8828 L1020.759,1163.8828 A0,0 0 0 0 1020.759,1163.8828 L1020.759,1148.6484 L1010.759,1138.6484 L855.0261,1138.6484 A0,0 0 0 0 855.0261,1138.6484 " fill="#F1E9D8" style="stroke:#C9B48F;stroke-width:0.5;"/><path d="M1010.759,1138.6484 L1010.759,1148.6484 L1020.759,1148.6484 L1010.759,1138.6484 " fill="#F1E9D8" style="stroke:#C9B48F;stroke-width:0.5;"/><text fill="#000000" font-family="Roboto" font-size="13" lengthAdjust="spacing" textLength="144.7329" x="861.0261" y="1155.709">ConflictDialog  &#8226;  shipped</text><rect fill="#FFFDF8" height="48.125" rx="5" ry="5" style="stroke:#8C6F56;stroke-width:0.5;" width="187.5254" x="647.5007" y="1127.2031"/><text fill="#000000" font-family="Roboto" font-size="12" lengthAdjust="spacing" textLength="167.5254" x="657.5007" y="1148.3359">Choose which progress to keep</text><text fill="#000000" font-family="Roboto" font-size="12" lengthAdjust="spacing" textLength="120.7441" x="657.5007" y="1162.3984">(mine / the newer one)</text><polygon fill="#F8F3E8" points="695.8965,1076.9766,786.6304,1076.9766,798.6304,1089.8672,786.6304,1102.7578,695.8965,1102.7578,683.8965,1089.8672,695.8965,1076.9766" style="stroke:#8C6F56;stroke-width:0.5;"/><text fill="#5A3E28" font-family="Roboto" font-size="11" lengthAdjust="spacing" textLength="47.7598" x="745.2634" y="1112.9629">yes, clash</text><text fill="#000000" font-family="Roboto" font-size="11" lengthAdjust="spacing" textLength="90.7339" x="695.8965" y="1087.1816">Did another device</text><text fill="#000000" font-family="Roboto" font-size="11" lengthAdjust="spacing" textLength="68.9595" x="706.8105" y="1100.0723">change it too?</text><text fill="#5A3E28" font-family="Roboto" font-size="11" lengthAdjust="spacing" textLength="12.3481" x="798.6304" y="1087.1816">no</text><polygon fill="#F8F3E8" points="741.2634,1195.3281,753.2634,1207.3281,741.2634,1219.3281,729.2634,1207.3281,741.2634,1195.3281" style="stroke:#8C6F56;stroke-width:0.5;"/><polygon fill="#F8F3E8" points="639.658,1225.3281,651.658,1237.3281,639.658,1249.3281,627.658,1237.3281,639.658,1225.3281" style="stroke:#8C6F56;stroke-width:0.5;"/><rect fill="#FFFDF8" height="34.0625" rx="5" ry="5" style="stroke:#8C6F56;stroke-width:0.5;" width="101.4863" x="588.9148" y="692.6875"/><text fill="#000000" font-family="Roboto" font-size="12" lengthAdjust="spacing" textLength="81.4863" x="598.9148" y="713.8203">read a passage</text><polygon fill="#F8F3E8" points="592.1963,1269.3281,687.1196,1269.3281,699.1196,1281.3281,687.1196,1293.3281,592.1963,1293.3281,580.1963,1281.3281,592.1963,1269.3281" style="stroke:#8C6F56;stroke-width:0.5;"/><text fill="#5A3E28" font-family="Roboto" font-size="11" lengthAdjust="spacing" textLength="89.9497" x="643.658" y="1303.5332">reached an ending</text><text fill="#000000" font-family="Roboto" font-size="11" lengthAdjust="spacing" textLength="94.9233" x="592.1963" y="1285.0879">More story to read?</text><text fill="#5A3E28" font-family="Roboto" font-size="11" lengthAdjust="spacing" textLength="16.7148" x="699.1196" y="1278.6426">yes</text><path d="M751.906,1328.8613 L751.906,1345.0957 L731.906,1349.0957 L751.906,1353.0957 L751.906,1369.3301 A0,0 0 0 0 751.906,1369.3301 L1000.7805,1369.3301 A0,0 0 0 0 1000.7805,1369.3301 L1000.7805,1338.8613 L990.7805,1328.8613 L751.906,1328.8613 A0,0 0 0 0 751.906,1328.8613 " fill="#F1E9D8" style="stroke:#C9B48F;stroke-width:0.5;"/><path d="M990.7805,1328.8613 L990.7805,1338.8613 L1000.7805,1338.8613 L990.7805,1328.8613 " fill="#F1E9D8" style="stroke:#C9B48F;stroke-width:0.5;"/><text fill="#000000" font-family="Roboto" font-size="13" lengthAdjust="spacing" textLength="144.2949" x="757.906" y="1345.9219">ending screen  &#8226;  shipped</text><text fill="#000000" font-family="Roboto" font-size="13" lengthAdjust="spacing" textLength="227.8745" x="757.906" y="1361.1563">(restart + back to library, no rating here)</text><rect fill="#FFFDF8" height="48.125" rx="5" ry="5" style="stroke:#8C6F56;stroke-width:0.5;" width="184.4961" x="547.4099" y="1325.0332"/><text fill="#000000" font-family="Roboto" font-size="12" lengthAdjust="spacing" textLength="117.6152" x="557.4099" y="1346.166">See the ending screen</text><text fill="#000000" font-family="Roboto" font-size="12" lengthAdjust="spacing" textLength="164.4961" x="557.4099" y="1360.2285">(restart, or "back to my books")</text><rect fill="#FFFDF8" height="34.0625" rx="5" ry="5" style="stroke:#8C6F56;stroke-width:0.5;" width="135.9805" x="571.6677" y="1393.1582"/><text fill="#000000" font-family="Roboto" font-size="12" lengthAdjust="spacing" textLength="115.9805" x="581.6677" y="1414.291">Go back to my Library</text><path d="M753.4968,1451.0488 L753.4968,1467.2832 L733.4968,1471.2832 L753.4968,1475.2832 L753.4968,1491.5176 A0,0 0 0 0 753.4968,1491.5176 L1006.6497,1491.5176 A0,0 0 0 0 1006.6497,1491.5176 L1006.6497,1461.0488 L996.6497,1451.0488 L753.4968,1451.0488 A0,0 0 0 0 753.4968,1451.0488 " fill="#F1E9D8" style="stroke:#C9B48F;stroke-width:0.5;"/><path d="M996.6497,1451.0488 L996.6497,1461.0488 L1006.6497,1461.0488 L996.6497,1451.0488 " fill="#F1E9D8" style="stroke:#C9B48F;stroke-width:0.5;"/><text fill="#000000" font-family="Roboto" font-size="13" lengthAdjust="spacing" textLength="201.3921" x="759.4968" y="1468.1094">StarRating on BookCard  &#8226;  shipped</text><text fill="#000000" font-family="Roboto" font-size="13" lengthAdjust="spacing" textLength="232.1528" x="759.4968" y="1483.3438">(rating lives in the library, not the reader)</text><rect fill="#FFFDF8" height="48.125" rx="5" ry="5" style="stroke:#8C6F56;stroke-width:0.5;" width="187.6777" x="545.8191" y="1447.2207"/><text fill="#000000" font-family="Roboto" font-size="12" lengthAdjust="spacing" textLength="167.6777" x="555.8191" y="1468.3535">Rate a book by tapping its stars</text><text fill="#000000" font-family="Roboto" font-size="12" lengthAdjust="spacing" textLength="62.5781" x="555.8191" y="1482.416">on the shelf</text><ellipse cx="639.658" cy="1526.3457" fill="none" rx="11" ry="11" style="stroke:#222222;stroke-width:1.0;"/><ellipse cx="639.658" cy="1526.3457" fill="#222222" rx="6" ry="6" style="stroke:#222222;stroke-width:1.0;"/><line style="stroke:#5A3E28;stroke-width:1.0;" x1="639.658" x2="639.658" y1="83.8125" y2="103.8125"/><polygon fill="#5A3E28" points="635.658,93.8125,639.658,103.8125,643.658,93.8125,639.658,97.8125" style="stroke:#5A3E28;stroke-width:1.0;"/><line style="stroke:#5A3E28;stroke-width:1.0;" x1="639.658" x2="639.658" y1="137.875" y2="157.875"/><polygon fill="#5A3E28" points="635.658,147.875,639.658,157.875,643.658,147.875,639.658,151.875" style="stroke:#5A3E28;stroke-width:1.0;"/><line style="stroke:#5A3E28;stroke-width:1.0;" x1="639.658" x2="639.658" y1="220.0625" y2="240.0625"/><polygon fill="#5A3E28" points="635.658,230.0625,639.658,240.0625,643.658,230.0625,639.658,234.0625" style="stroke:#5A3E28;stroke-width:1.0;"/><line style="stroke:#5A3E28;stroke-width:1.0;" x1="639.658" x2="639.658" y1="288.1875" y2="308.1875"/><polygon fill="#5A3E28" points="635.658,298.1875,639.658,308.1875,643.658,298.1875,639.658,302.1875" style="stroke:#5A3E28;stroke-width:1.0;"/><line style="stroke:#5A3E28;stroke-width:1.0;" x1="639.658" x2="639.658" y1="356.3125" y2="376.3125"/><polygon fill="#5A3E28" points="635.658,366.3125,639.658,376.3125,643.658,366.3125,639.658,370.3125" style="stroke:#5A3E28;stroke-width:1.0;"/><line style="stroke:#5A3E28;stroke-width:1.0;" x1="639.658" x2="639.658" y1="438.5" y2="458.5"/><polygon fill="#5A3E28" points="635.658,448.5,639.658,458.5,643.658,448.5,639.658,452.5" style="stroke:#5A3E28;stroke-width:1.0;"/><line style="stroke:#5A3E28;stroke-width:1.0;" x1="553.2705" x2="553.2705" y1="604.6875" y2="627.6875"/><polygon fill="#5A3E28" points="549.2705,617.6875,553.2705,627.6875,557.2705,617.6875,553.2705,621.6875" style="stroke:#5A3E28;stroke-width:1.0;"/><line style="stroke:#5A3E28;stroke-width:1.0;" x1="953.3066" x2="953.3066" y1="607.6875" y2="630.6875"/><polygon fill="#5A3E28" points="949.3066,620.6875,953.3066,630.6875,957.3066,620.6875,953.3066,624.6875" style="stroke:#5A3E28;stroke-width:1.0;"/><line style="stroke:#5A3E28;stroke-width:1.0;" x1="84.6689" x2="84.6689" y1="536.5625" y2="569.4531"/><polygon fill="#5A3E28" points="80.6689,559.4531,84.6689,569.4531,88.6689,559.4531,84.6689,563.4531" style="stroke:#5A3E28;stroke-width:1.0;"/><line style="stroke:#5A3E28;stroke-width:1.0;" x1="84.6689" x2="84.6689" y1="603.5156" y2="672.6875"/><polygon fill="#5A3E28" points="80.6689,662.6875,84.6689,672.6875,88.6689,662.6875,84.6689,666.6875" style="stroke:#5A3E28;stroke-width:1.0;"/><line style="stroke:#5A3E28;stroke-width:1.0;" x1="553.2705" x2="553.2705" y1="536.5625" y2="556.5625"/><polygon fill="#5A3E28" points="549.2705,546.5625,553.2705,556.5625,557.2705,546.5625,553.2705,550.5625" style="stroke:#5A3E28;stroke-width:1.0;"/><line style="stroke:#5A3E28;stroke-width:1.0;" x1="149.3379" x2="498.9597" y1="524.5625" y2="524.5625"/><polygon fill="#5A3E28" points="488.9597,520.5625,498.9597,524.5625,488.9597,528.5625,492.9597,524.5625" style="stroke:#5A3E28;stroke-width:1.0;"/><line style="stroke:#5A3E28;stroke-width:1.0;" x1="639.658" x2="639.658" y1="492.5625" y2="497.5625"/><line style="stroke:#5A3E28;stroke-width:1.0;" x1="639.658" x2="84.6689" y1="497.5625" y2="497.5625"/><line style="stroke:#5A3E28;stroke-width:1.0;" x1="84.6689" x2="84.6689" y1="497.5625" y2="512.5625"/><polygon fill="#5A3E28" points="80.6689,502.5625,84.6689,512.5625,88.6689,502.5625,84.6689,506.5625" style="stroke:#5A3E28;stroke-width:1.0;"/><line style="stroke:#5A3E28;stroke-width:1.0;" x1="607.5813" x2="953.3066" y1="524.5625" y2="524.5625"/><line style="stroke:#5A3E28;stroke-width:1.0;" x1="953.3066" x2="953.3066" y1="524.5625" y2="559.5625"/><polygon fill="#5A3E28" points="949.3066,549.5625,953.3066,559.5625,957.3066,549.5625,953.3066,553.5625" style="stroke:#5A3E28;stroke-width:1.0;"/><line style="stroke:#5A3E28;stroke-width:1.0;" x1="84.6689" x2="639.658" y1="672.6875" y2="672.6875"/><line style="stroke:#5A3E28;stroke-width:1.0;" x1="639.658" x2="639.658" y1="794.875" y2="814.875"/><polygon fill="#5A3E28" points="635.658,804.875,639.658,814.875,643.658,804.875,639.658,808.875" style="stroke:#5A3E28;stroke-width:1.0;"/><line style="stroke:#5A3E28;stroke-width:1.0;" x1="741.2634" x2="741.2634" y1="993.25" y2="1022.9141"/><polygon fill="#5A3E28" points="737.2634,1012.9141,741.2634,1022.9141,745.2634,1012.9141,741.2634,1016.9141" style="stroke:#5A3E28;stroke-width:1.0;"/><line style="stroke:#5A3E28;stroke-width:1.0;" x1="741.2634" x2="741.2634" y1="1102.7578" y2="1127.2031"/><polygon fill="#5A3E28" points="737.2634,1117.2031,741.2634,1127.2031,745.2634,1117.2031,741.2634,1121.2031" style="stroke:#5A3E28;stroke-width:1.0;"/><line style="stroke:#5A3E28;stroke-width:1.0;" x1="798.6304" x2="1030.759" y1="1089.8672" y2="1089.8672"/><polygon fill="#5A3E28" points="1026.759,1140.8203,1030.759,1150.8203,1034.759,1140.8203,1030.759,1144.8203" style="stroke:#5A3E28;stroke-width:1.0;"/><line style="stroke:#5A3E28;stroke-width:1.0;" x1="1030.759" x2="1030.759" y1="1089.8672" y2="1207.3281"/><line style="stroke:#5A3E28;stroke-width:1.0;" x1="1030.759" x2="753.2634" y1="1207.3281" y2="1207.3281"/><polygon fill="#5A3E28" points="763.2634,1203.3281,753.2634,1207.3281,763.2634,1211.3281,759.2634,1207.3281" style="stroke:#5A3E28;stroke-width:1.0;"/><line style="stroke:#5A3E28;stroke-width:1.0;" x1="741.2634" x2="741.2634" y1="1175.3281" y2="1195.3281"/><polygon fill="#5A3E28" points="737.2634,1185.3281,741.2634,1195.3281,745.2634,1185.3281,741.2634,1189.3281" style="stroke:#5A3E28;stroke-width:1.0;"/><line style="stroke:#5A3E28;stroke-width:1.0;" x1="741.2634" x2="741.2634" y1="1056.9766" y2="1076.9766"/><polygon fill="#5A3E28" points="737.2634,1066.9766,741.2634,1076.9766,745.2634,1066.9766,741.2634,1070.9766" style="stroke:#5A3E28;stroke-width:1.0;"/><line style="stroke:#5A3E28;stroke-width:1.0;" x1="597.6201" x2="538.0525" y1="909.0625" y2="909.0625"/><line style="stroke:#5A3E28;stroke-width:1.0;" x1="538.0525" x2="538.0525" y1="909.0625" y2="931.0625"/><polygon fill="#5A3E28" points="534.0525,921.0625,538.0525,931.0625,542.0525,921.0625,538.0525,925.0625" style="stroke:#5A3E28;stroke-width:1.0;"/><line style="stroke:#5A3E28;stroke-width:1.0;" x1="681.6958" x2="741.2634" y1="909.0625" y2="909.0625"/><line style="stroke:#5A3E28;stroke-width:1.0;" x1="741.2634" x2="741.2634" y1="909.0625" y2="931.0625"/><polygon fill="#5A3E28" points="737.2634,921.0625,741.2634,931.0625,745.2634,921.0625,741.2634,925.0625" style="stroke:#5A3E28;stroke-width:1.0;"/><line style="stroke:#5A3E28;stroke-width:1.0;" x1="538.0525" x2="538.0525" y1="965.125" y2="1237.3281"/><line style="stroke:#5A3E28;stroke-width:1.0;" x1="538.0525" x2="627.658" y1="1237.3281" y2="1237.3281"/><polygon fill="#5A3E28" points="617.658,1233.3281,627.658,1237.3281,617.658,1241.3281,621.658,1237.3281" style="stroke:#5A3E28;stroke-width:1.0;"/><line style="stroke:#5A3E28;stroke-width:1.0;" x1="741.2634" x2="741.2634" y1="1219.3281" y2="1237.3281"/><line style="stroke:#5A3E28;stroke-width:1.0;" x1="741.2634" x2="651.658" y1="1237.3281" y2="1237.3281"/><polygon fill="#5A3E28" points="661.658,1233.3281,651.658,1237.3281,661.658,1241.3281,657.658,1237.3281" style="stroke:#5A3E28;stroke-width:1.0;"/><line style="stroke:#5A3E28;stroke-width:1.0;" x1="639.658" x2="639.658" y1="877.0625" y2="897.0625"/><polygon fill="#5A3E28" points="635.658,887.0625,639.658,897.0625,643.658,887.0625,639.658,891.0625" style="stroke:#5A3E28;stroke-width:1.0;"/><line style="stroke:#5A3E28;stroke-width:1.0;" x1="639.658" x2="639.658" y1="726.75" y2="746.75"/><polygon fill="#5A3E28" points="635.658,736.75,639.658,746.75,643.658,736.75,639.658,740.75" style="stroke:#5A3E28;stroke-width:1.0;"/><line style="stroke:#5A3E28;stroke-width:1.0;" x1="699.1196" x2="1064.759" y1="1281.3281" y2="1281.3281"/><polygon fill="#5A3E28" points="1060.759,1002.9141,1064.759,992.9141,1068.759,1002.9141,1064.759,998.9141" style="stroke:#5A3E28;stroke-width:1.0;"/><line style="stroke:#5A3E28;stroke-width:1.0;" x1="1064.759" x2="1064.759" y1="709.7188" y2="1281.3281"/><line style="stroke:#5A3E28;stroke-width:1.0;" x1="1064.759" x2="690.4011" y1="709.7188" y2="709.7188"/><polygon fill="#5A3E28" points="700.4011,705.7188,690.4011,709.7188,700.4011,713.7188,696.4011,709.7188" style="stroke:#5A3E28;stroke-width:1.0;"/><line style="stroke:#5A3E28;stroke-width:1.0;" x1="639.658" x2="639.658" y1="1249.3281" y2="1269.3281"/><polygon fill="#5A3E28" points="635.658,1259.3281,639.658,1269.3281,643.658,1259.3281,639.658,1263.3281" style="stroke:#5A3E28;stroke-width:1.0;"/><line style="stroke:#5A3E28;stroke-width:1.0;" x1="639.658" x2="639.658" y1="672.6875" y2="692.6875"/><polygon fill="#5A3E28" points="635.658,682.6875,639.658,692.6875,643.658,682.6875,639.658,686.6875" style="stroke:#5A3E28;stroke-width:1.0;"/><line style="stroke:#5A3E28;stroke-width:1.0;" x1="639.658" x2="639.658" y1="1293.3281" y2="1325.0332"/><polygon fill="#5A3E28" points="635.658,1315.0332,639.658,1325.0332,643.658,1315.0332,639.658,1319.0332" style="stroke:#5A3E28;stroke-width:1.0;"/><line style="stroke:#5A3E28;stroke-width:1.0;" x1="639.658" x2="639.658" y1="1373.1582" y2="1393.1582"/><polygon fill="#5A3E28" points="635.658,1383.1582,639.658,1393.1582,643.658,1383.1582,639.658,1387.1582" style="stroke:#5A3E28;stroke-width:1.0;"/><line style="stroke:#5A3E28;stroke-width:1.0;" x1="639.658" x2="639.658" y1="1427.2207" y2="1447.2207"/><polygon fill="#5A3E28" points="635.658,1437.2207,639.658,1447.2207,643.658,1437.2207,639.658,1441.2207" style="stroke:#5A3E28;stroke-width:1.0;"/><line style="stroke:#5A3E28;stroke-width:1.0;" x1="639.658" x2="639.658" y1="1495.3457" y2="1515.3457"/><polygon fill="#5A3E28" points="635.658,1505.3457,639.658,1515.3457,643.658,1505.3457,639.658,1509.3457" style="stroke:#5A3E28;stroke-width:1.0;"/><rect fill="none" height="112.4375" id="_legend" rx="5" ry="5" style="stroke:#000000;stroke-width:1.0;" width="491.749" x="391.6448" y="1548.3457"/><text fill="#000000" font-family="Roboto" font-size="14" font-weight="bold" lengthAdjust="spacing" textLength="33.2705" x="400.1311" y="1568.334">Node</text><text fill="#000000" font-family="Roboto" font-size="14" font-weight="bold" lengthAdjust="spacing" textLength="54.7285" x="447.6614" y="1568.334">Meaning</text><text fill="#000000" filter="url(#bgps60gty3ntr0)" font-family="Roboto" font-size="14" lengthAdjust="spacing" textLength="33.6396" x="403.5901" y="1584.7402">white</text><text fill="#000000" font-family="Roboto" font-size="14" lengthAdjust="spacing" textLength="175.1162" x="447.6477" y="1584.7402">Shipped in the kid app today</text><text fill="#000000" filter="url(#bgps60gty3ntr1)" font-family="Roboto" font-size="14" lengthAdjust="spacing" textLength="27.3779" x="403.5901" y="1601.1465">rose</text><text fill="#000000" font-family="Roboto" font-size="14" lengthAdjust="spacing" textLength="129.6982" x="447.6477" y="1601.1465">Planned, not yet built</text><line style="stroke:#000000;stroke-width:1.0;" x1="396.6448" x2="626.2366" y1="1555.3457" y2="1555.3457"/><line style="stroke:#000000;stroke-width:1.0;" x1="396.6448" x2="626.2366" y1="1571.752" y2="1571.752"/><line style="stroke:#000000;stroke-width:1.0;" x1="396.6448" x2="626.2366" y1="1588.1582" y2="1588.1582"/><line style="stroke:#000000;stroke-width:1.0;" x1="396.6448" x2="626.2366" y1="1604.5645" y2="1604.5645"/><line style="stroke:#000000;stroke-width:1.0;" x1="396.6448" x2="396.6448" y1="1555.3457" y2="1604.5645"/><line style="stroke:#000000;stroke-width:1.0;" x1="444.175" x2="444.175" y1="1555.3457" y2="1604.5645"/><line style="stroke:#000000;stroke-width:1.0;" x1="626.2366" x2="626.2366" y1="1555.3457" y2="1604.5645"/><text fill="#000000" font-family="Roboto" font-size="14" lengthAdjust="spacing" textLength="481.749" x="396.6448" y="1619.5527">The kid surface is a separate route tree from the guardian console and shares</text><text fill="#000000" font-family="Roboto" font-size="14" lengthAdjust="spacing" textLength="460.9063" x="396.6448" y="1635.959">no navigation. See journey-guardian for the parent side, journey-end-to-end</text><text fill="#000000" font-family="Roboto" font-size="14" lengthAdjust="spacing" textLength="390.2021" x="396.6448" y="1652.3652">for the whole loop, and journey-dev-coverage for test coverage.</text><!--SRC=[fLVRRXit47tVhvWg3vOGhUJQYM7BIOh4ZWetJMBO2L0KUQ5skLhMAt9BSgK8y4E_fP_MB-aPScNTtA10x0TPv72kPywC3-ZbT_ma1_IxCJEPqsSdRVhsQosjaZgJDAxCOaJlL4wtZIr49fC325zRapUP7tx-BSqgOPLVagYyyaqkgJ2MV2afArMLftYYz9H4NPFHrPAwrZHUahTIKcVOwGsWxOFXPwggHhGe5MvVaYjLNSCTRtAnx9CrZa_hIcYDqwusdfRIqwHHbMSTq79h6Wk7NGRLsermGbHOextK-T3PR1Wisu5tNucwTuXexSg8XdqQLcfYXLqEHxKrS4TUvJYqKkJ3mM3GsrS87SFhA7gjiZjfhyLKilvzqPNgN-FdIh1FRuovkn0sZzzklR0tmYDZZwjXPwGTteIF-2J-VSEXn8CBeujAPVvIYSgizUGcSqFNeB2rMKYBlsk9awF3evFqy2GzFaphKZYPFXFfp4mGKjgeTA6iBAoOIPVcqgcf7inoQFikg2N0IIKPKcaBAVe5fTDo-KLtzq03Z9plbBzFs-LF4dUdT2tW9-Mo44tbnyZP1xXDdHipCTvqDaGc8hkRelGwlp0LiFfa_9f_DoJQIxXawSV3ZGjNYjmisBL2L4vktBosrYnQVS_5iJmwtRrab_vJ8FDgZYPwi-VQU7mvVbJIM5IzbJhDJehd9uz80G8pe_CzjSLfSInFl_7Wcze_62_tFVtnxTdbwQxKffxiRFBij4YI-oVZmykpDwVt5rph-yG1ypuPVQob3ho1gfydeq-YfXbOPIvmdNIFqinKpKnJ7Hgjd-J2bM22JDaCO585CA5bxpm1D2HPDIqzUXfztlOdnGRj4Vtprz-qefSaUJ8-lZoxV1RCTQve8RGdGLeko7bZbvr4w9oSM8AOX2Vb3no92Nfjsz03BqNuAgsy4Xu7LlxPIETxNxIBK7TWD1YODcXv9NJuLeDkvZ99HhVCYG-sYPjz-KCdCNgTYMsxI9rl779ILRk1nNpYNSiuIHUy069fP60Cnd0fhKcUKkUziP8T0UkZKB839R8gTdEvJuux9aUSOiGs0QET9s092TXRab-LHz9W0l5KVVB81p9J2r-w17NhNhbGzXWpebILc5JofnwVQkekfUibHAF8SsGGriQ3SrnjkHdeUktZS1J4s2V-CWVnAUHpstE9NcPFAgNlI3cQYGf33DCm-i3MkJG2N8oXc6EASL3zQ1h7EMmIBdQTMGsnRgJj0JFkQAsTs1x71XVhu0HrOnRO1-KSYjHR6U-mgO8RhhCop4am1RXUOzYQUla_pKV5CNrhwpfNw4qhQmcSZ_W50gk5SvXKvwly1vFj8Swws1LKqQUf15CQ0D7LWRXxuS5xSSSvoqgZiYYD1QFzwXYwIofLdeVyDe1cjQvgoi36umhBX-ljnSMNwJGqs5mvXM752yXsJOaveVjwHbUyTo15ku1Y3vS4e4ojTF17pE6LS92V6hOOwz7cjttmJiewj6KO0TRCM6MumbZGbK6Qyr2A_eFYSBiGt0DA8ntWWoOaT3kcravQAElyNYWm_L73S6P0Cndp4BcbpbpKmu5UOfqHK8YU1XpdCUE4R0izbIplZTdCG9-mjxaonWNr5wNX6OlrAolNIG4ft27aLgWxOwGDGvd0KjoCWNBZxMOqsol88-74v6eJxKVmhJvR3C8Lq7Ota5Fi2dZ3kKSOw8zGnj063E-CPm7eb3LmqqGkPKVZIRiL9f0DuwPFOAOERmAi5Ip91E4wEvotzNOx2gmghIfwIYizBKNoVa8sR77CiG3Fw6T36yPQIiQKkmam3zPfWWWn2_WLeuMLE-R-q1NCoDlEhLT5bE5XZTptCefKYk6jehODFoEBH8Be9O4AaagYeNCuvRsPeIptB-E6Zi_tKcXMTy_7BpYaKRkZlA9sTwSNGpv_TK-tBV-qLddZveqkhFJR6i8CXeQmvsrek7vquGjlFxKQsxdAa13a9EyUdAFrFnchDbtFN7IHCy1M6Eqb9fCB14DQp1LO1VDXG0oVF-9McZuyNFrd0oCIUu9JkUm_I25bgJVy0MqhoKN9XYfZwdumjn96YsAXmJG2aKPXW8bM9mEcurY5v5y0]--></g></svg>
