<svg xmlns="http://www.w3.org/2000/svg" xmlns:xlink="http://www.w3.org/1999/xlink" contentStyleType="text/css" height="1639px" preserveAspectRatio="none" style="width:1759px;height:1639px;background:#FAFAFA;" version="1.1" viewBox="0 0 1759 1639" width="1759px" zoomAndPan="magnify"><title>Guardian + Admin Surface Journey</title><defs><style type="text/css">@import url('https://fonts.googleapis.com/css?family=Roboto:400,100,100italic,300,300italic,400italic,500,500italic,700,700italic,900,900italic');</style><filter height="1" id="b1tsh7ty4tafyh0" width="1" x="0" y="0"><feFlood flood-color="#FFFDF8" result="flood"/><feComposite in="SourceGraphic" in2="flood" operator="over"/></filter><filter height="1" id="b1tsh7ty4tafyh1" width="1" x="0" y="0"><feFlood flood-color="#F3D9D4" result="flood"/><feComposite in="SourceGraphic" in2="flood" operator="over"/></filter></defs><g><rect fill="#FAFAFA" height="1639" style="stroke:none;stroke-width:1.0;" width="1759" x="0" y="0"/><text fill="#000000" font-family="Roboto" font-size="14" font-weight="bold" lengthAdjust="spacing" textLength="219.625" x="768.3845" y="32.9883">Guardian + Admin Surface Journey</text><text fill="#000000" font-family="Roboto" font-size="14" font-weight="bold" lengthAdjust="spacing" textLength="392.9092" x="681.7424" y="49.3945">("/guardian"; rose = planned. Approve is admin-only, ADR-005)</text><rect fill="none" height="21.0938" style="stroke:none;stroke-width:1.0;" width="1726.394" x="15" y="66.707"/><rect fill="#CDDCEC" height="1357.416" style="stroke:#CDDCEC;stroke-width:1.0;" width="696.2334" x="15" y="66.707"/><ellipse cx="230.8076" cy="102.8008" fill="#222222" rx="10" ry="10" style="stroke:#222222;stroke-width:1.0;"/><path d="M334.6885,122.8008 L334.6885,161.8867 L314.6885,165.8867 L334.6885,169.8867 L334.6885,208.9727 A0,0 0 0 0 334.6885,208.9727 L633.7031,208.9727 A0,0 0 0 0 633.7031,208.9727 L633.7031,132.8008 L623.7031,122.8008 L334.6885,122.8008 A0,0 0 0 0 334.6885,122.8008 " fill="#F1E9D8" style="stroke:#C9B48F;stroke-width:0.5;"/><path d="M623.7031,122.8008 L623.7031,132.8008 L633.7031,132.8008 L623.7031,122.8008 " fill="#F1E9D8" style="stroke:#C9B48F;stroke-width:0.5;"/><text fill="#000000" font-family="Roboto" font-size="13" lengthAdjust="spacing" textLength="152.769" x="340.6885" y="139.8613">/guardian/login  &#8226;  shipped</text><text fill="#000000" font-family="Roboto" font-size="13" lengthAdjust="spacing" textLength="256.5024" x="340.6885" y="155.0957">ADR-014 -- conditional now: only a cold entry</text><text fill="#000000" font-family="Roboto" font-size="13" lengthAdjust="spacing" textLength="278.0146" x="340.6885" y="170.3301">or a step-up crossing UP from kid mode reaches</text><text fill="#000000" font-family="Roboto" font-size="13" lengthAdjust="spacing" textLength="277.5894" x="340.6885" y="185.5645">this (or the "Grown-ups only" password re-entry);</text><text fill="#000000" font-family="Roboto" font-size="13" lengthAdjust="spacing" textLength="244.6958" x="340.6885" y="200.7988">adult&lt;-&gt;adult navigation is free once warm</text><rect fill="#FFFDF8" height="62.1875" rx="5" ry="5" style="stroke:#8C6F56;stroke-width:0.5;" width="167.7617" x="146.9268" y="134.793"/><text fill="#000000" font-family="Roboto" font-size="12" lengthAdjust="spacing" textLength="35.9297" x="156.9268" y="155.9258">Sign in</text><text fill="#000000" font-family="Roboto" font-size="12" lengthAdjust="spacing" textLength="147.7617" x="156.9268" y="169.9883">(email/password or Google,</text><text fill="#000000" font-family="Roboto" font-size="12" lengthAdjust="spacing" textLength="116.5723" x="156.9268" y="184.0508">Apple if the flag is on)</text><path d="M460.6152,240.418 L460.6152,249.0352 L440.6152,253.0352 L460.6152,257.0352 L460.6152,265.6523 A0,0 0 0 0 460.6152,265.6523 L706.2334,265.6523 A0,0 0 0 0 706.2334,265.6523 L706.2334,250.418 L696.2334,240.418 L460.6152,240.418 A0,0 0 0 0 460.6152,240.418 " fill="#F1E9D8" style="stroke:#C9B48F;stroke-width:0.5;"/><path d="M696.2334,240.418 L696.2334,250.418 L706.2334,250.418 L696.2334,240.418 " fill="#F1E9D8" style="stroke:#C9B48F;stroke-width:0.5;"/><text fill="#000000" font-family="Roboto" font-size="13" lengthAdjust="spacing" textLength="224.6182" x="466.6152" y="257.4785">AdultGate + ProtectedRoute  &#8226;  shipped</text><rect fill="#FFFDF8" height="48.125" rx="5" ry="5" style="stroke:#8C6F56;stroke-width:0.5;" width="419.6152" x="21" y="228.9727"/><text fill="#000000" font-family="Roboto" font-size="12" lengthAdjust="spacing" textLength="109.2832" x="31" y="250.1055">Land on the Console</text><text fill="#000000" font-family="Roboto" font-size="12" lengthAdjust="spacing" textLength="399.6152" x="31" y="264.168">(role-based: admin-only -&gt; /admin;\nguardian-only or dual-role -&gt; /guardian)</text><path d="M331.5391,308.543 L331.5391,317.1602 L311.5391,321.1602 L331.5391,325.1602 L331.5391,333.7773 A0,0 0 0 0 331.5391,333.7773 L520.6567,333.7773 A0,0 0 0 0 520.6567,333.7773 L520.6567,318.543 L510.6567,308.543 L331.5391,308.543 A0,0 0 0 0 331.5391,308.543 " fill="#F1E9D8" style="stroke:#C9B48F;stroke-width:0.5;"/><path d="M510.6567,308.543 L510.6567,318.543 L520.6567,318.543 L510.6567,308.543 " fill="#F1E9D8" style="stroke:#C9B48F;stroke-width:0.5;"/><text fill="#000000" font-family="Roboto" font-size="13" lengthAdjust="spacing" textLength="168.1177" x="337.5391" y="325.6035">/guardian/profiles  &#8226;  shipped</text><rect fill="#FFFDF8" height="48.125" rx="5" ry="5" style="stroke:#8C6F56;stroke-width:0.5;" width="161.4629" x="150.0762" y="297.0977"/><text fill="#000000" font-family="Roboto" font-size="12" lengthAdjust="spacing" textLength="141.4629" x="160.0762" y="318.2305">Add or edit a child's profile</text><text fill="#000000" font-family="Roboto" font-size="12" lengthAdjust="spacing" textLength="121.1016" x="160.0762" y="332.293">(name + preset avatar)</text><path d="M320.6904,368.4648 L320.6904,392.3164 L300.6904,396.3164 L320.6904,400.3164 L320.6904,424.168 A0,0 0 0 0 320.6904,424.168 L620.27,424.168 A0,0 0 0 0 620.27,424.168 L620.27,378.4648 L610.27,368.4648 L320.6904,368.4648 A0,0 0 0 0 320.6904,368.4648 " fill="#F1E9D8" style="stroke:#C9B48F;stroke-width:0.5;"/><path d="M610.27,368.4648 L610.27,378.4648 L620.27,378.4648 L610.27,368.4648 " fill="#F1E9D8" style="stroke:#C9B48F;stroke-width:0.5;"/><text fill="#000000" font-family="Roboto" font-size="13" lengthAdjust="spacing" textLength="174.9731" x="326.6904" y="385.5254">/guardian/requests  &#8226;  shipped</text><text fill="#000000" font-family="Roboto" font-size="13" lengthAdjust="spacing" textLength="218.3086" x="326.6904" y="400.7598">(guardian-own-family or admin-global;</text><text fill="#000000" font-family="Roboto" font-size="13" lengthAdjust="spacing" textLength="278.5796" x="326.6904" y="415.9941">NOT admin-only, unlike the approval gate below)</text><rect fill="#FFFDF8" height="62.1875" rx="5" ry="5" style="stroke:#8C6F56;stroke-width:0.5;" width="139.7656" x="160.9248" y="365.2227"/><text fill="#000000" font-family="Roboto" font-size="12" lengthAdjust="spacing" textLength="110.4785" x="170.9248" y="386.3555">Open Story requests,</text><text fill="#000000" font-family="Roboto" font-size="12" lengthAdjust="spacing" textLength="116.0332" x="170.9248" y="400.418">review my child's idea</text><text fill="#000000" font-family="Roboto" font-size="12" lengthAdjust="spacing" textLength="119.7656" x="170.9248" y="414.4805">(screened text + flags)</text><path d="M324.3584,458.2695 L324.3584,474.5039 L304.3584,478.5039 L324.3584,482.5039 L324.3584,498.7383 A0,0 0 0 0 324.3584,498.7383 L555.0596,498.7383 A0,0 0 0 0 555.0596,498.7383 L555.0596,468.2695 L545.0596,458.2695 L324.3584,458.2695 A0,0 0 0 0 324.3584,458.2695 " fill="#F1E9D8" style="stroke:#C9B48F;stroke-width:0.5;"/><path d="M545.0596,458.2695 L545.0596,468.2695 L555.0596,468.2695 L545.0596,458.2695 " fill="#F1E9D8" style="stroke:#C9B48F;stroke-width:0.5;"/><text fill="#000000" font-family="Roboto" font-size="13" lengthAdjust="spacing" textLength="209.7012" x="330.3584" y="475.3301">shipped  &#8226;  approve builds a Concept</text><text fill="#000000" font-family="Roboto" font-size="13" lengthAdjust="spacing" textLength="146.0723" x="330.3584" y="490.5645">and enqueues generation</text><rect fill="#FFFDF8" height="62.1875" rx="5" ry="5" style="stroke:#8C6F56;stroke-width:0.5;" width="147.1016" x="157.2568" y="447.4102"/><text fill="#000000" font-family="Roboto" font-size="12" lengthAdjust="spacing" textLength="110.5371" x="167.2568" y="468.543">Set age band, length,</text><text fill="#000000" font-family="Roboto" font-size="12" lengthAdjust="spacing" textLength="103.8047" x="167.2568" y="482.6055">optional series title,</text><text fill="#000000" font-family="Roboto" font-size="12" lengthAdjust="spacing" textLength="127.1016" x="167.2568" y="496.668">then Approve or Decline</text><path d="M334.4131,541.043 L334.4131,549.6602 L314.4131,553.6602 L334.4131,557.6602 L334.4131,566.2773 A0,0 0 0 0 334.4131,566.2773 L515.1138,566.2773 A0,0 0 0 0 515.1138,566.2773 L515.1138,551.043 L505.1138,541.043 L334.4131,541.043 A0,0 0 0 0 334.4131,541.043 " fill="#F1E9D8" style="stroke:#C9B48F;stroke-width:0.5;"/><path d="M505.1138,541.043 L505.1138,551.043 L515.1138,551.043 L505.1138,541.043 " fill="#F1E9D8" style="stroke:#C9B48F;stroke-width:0.5;"/><text fill="#000000" font-family="Roboto" font-size="13" lengthAdjust="spacing" textLength="159.7007" x="340.4131" y="558.1035">/guardian/intake  &#8226;  shipped</text><rect fill="#FFFDF8" height="48.125" rx="5" ry="5" style="stroke:#8C6F56;stroke-width:0.5;" width="167.2109" x="147.2021" y="529.5977"/><text fill="#000000" font-family="Roboto" font-size="12" lengthAdjust="spacing" textLength="147.2109" x="157.2021" y="550.7305">Request a story from Intake</text><text fill="#000000" font-family="Roboto" font-size="12" lengthAdjust="spacing" textLength="143.0566" x="157.2021" y="564.793">("Who's it for?", topic, tone)</text><path d="M317.6348,609.168 L317.6348,617.7852 L297.6348,621.7852 L317.6348,625.7852 L317.6348,634.4023 A0,0 0 0 0 317.6348,634.4023 L497.3579,634.4023 A0,0 0 0 0 497.3579,634.4023 L497.3579,619.168 L487.3579,609.168 L317.6348,609.168 A0,0 0 0 0 317.6348,609.168 " fill="#F1E9D8" style="stroke:#C9B48F;stroke-width:0.5;"/><path d="M487.3579,609.168 L487.3579,619.168 L497.3579,619.168 L487.3579,609.168 " fill="#F1E9D8" style="stroke:#C9B48F;stroke-width:0.5;"/><text fill="#000000" font-family="Roboto" font-size="13" lengthAdjust="spacing" textLength="158.7231" x="323.6348" y="626.2285">intake job status  &#8226;  shipped</text><rect fill="#FFFDF8" height="48.125" rx="5" ry="5" style="stroke:#8C6F56;stroke-width:0.5;" width="133.6543" x="163.9805" y="597.7227"/><text fill="#000000" font-family="Roboto" font-size="12" lengthAdjust="spacing" textLength="113.6543" x="173.9805" y="618.8555">Watch "My Requests"</text><text fill="#000000" font-family="Roboto" font-size="12" lengthAdjust="spacing" textLength="107.1504" x="173.9805" y="632.918">show "Generating..."</text><path d="M330.2529,1116.748 L330.2529,1125.3652 L310.2529,1129.3652 L330.2529,1133.3652 L330.2529,1141.9824 A0,0 0 0 0 330.2529,1141.9824 L452.5234,1141.9824 A0,0 0 0 0 452.5234,1141.9824 L452.5234,1126.748 L442.5234,1116.748 L330.2529,1116.748 A0,0 0 0 0 330.2529,1116.748 " fill="#F1E9D8" style="stroke:#C9B48F;stroke-width:0.5;"/><path d="M442.5234,1116.748 L442.5234,1126.748 L452.5234,1126.748 L442.5234,1116.748 " fill="#F1E9D8" style="stroke:#C9B48F;stroke-width:0.5;"/><text fill="#000000" font-family="Roboto" font-size="13" lengthAdjust="spacing" textLength="101.2705" x="336.2529" y="1133.8086">assign  &#8226;  shipped</text><rect fill="#FFFDF8" height="48.125" rx="5" ry="5" style="stroke:#8C6F56;stroke-width:0.5;" width="158.8906" x="151.3623" y="1105.3027"/><text fill="#000000" font-family="Roboto" font-size="12" lengthAdjust="spacing" textLength="138.8906" x="161.3623" y="1126.4355">Assign the approved story</text><text fill="#000000" font-family="Roboto" font-size="12" lengthAdjust="spacing" textLength="111.709" x="161.3623" y="1140.498">to the child it was for</text><path d="M350.2949,1233.3184 L350.2949,1241.9355 L330.2949,1245.9355 L350.2949,1249.9355 L350.2949,1258.5527 A0,0 0 0 0 350.2949,1258.5527 L558.3667,1258.5527 A0,0 0 0 0 558.3667,1258.5527 L558.3667,1243.3184 L548.3667,1233.3184 L350.2949,1233.3184 A0,0 0 0 0 350.2949,1233.3184 " fill="#F1E9D8" style="stroke:#C9B48F;stroke-width:0.5;"/><path d="M548.3667,1233.3184 L548.3667,1243.3184 L558.3667,1243.3184 L548.3667,1233.3184 " fill="#F1E9D8" style="stroke:#C9B48F;stroke-width:0.5;"/><text fill="#000000" font-family="Roboto" font-size="13" lengthAdjust="spacing" textLength="187.0718" x="356.2949" y="1250.3789">AssignChildrenDialog  &#8226;  shipped</text><rect fill="#FFFDF8" height="48.125" rx="5" ry="5" style="stroke:#8C6F56;stroke-width:0.5;" width="198.9746" x="131.3203" y="1221.873"/><text fill="#000000" font-family="Roboto" font-size="12" lengthAdjust="spacing" textLength="143.2969" x="141.3203" y="1243.0059">"Assign more" -&gt; pick more</text><text fill="#000000" font-family="Roboto" font-size="12" lengthAdjust="spacing" textLength="178.9746" x="141.3203" y="1257.0684">children (adds only the new ones)</text><polygon fill="#F8F3E8" points="177.0376,1173.4277,284.5776,1173.4277,296.5776,1185.4277,284.5776,1197.4277,177.0376,1197.4277,165.0376,1185.4277,177.0376,1173.4277" style="stroke:#8C6F56;stroke-width:0.5;"/><text fill="#5A3E28" font-family="Roboto" font-size="11" lengthAdjust="spacing" textLength="16.7148" x="234.8076" y="1207.6328">yes</text><text fill="#000000" font-family="Roboto" font-size="11" lengthAdjust="spacing" textLength="107.54" x="177.0376" y="1189.1875">Give it to siblings too?</text><text fill="#5A3E28" font-family="Roboto" font-size="11" lengthAdjust="spacing" textLength="12.3481" x="296.5776" y="1182.7422">no</text><polygon fill="#F8F3E8" points="230.8076,1289.998,242.8076,1301.998,230.8076,1313.998,218.8076,1301.998,230.8076,1289.998" style="stroke:#8C6F56;stroke-width:0.5;"/><path d="M339.0859,1345.4434 L339.0859,1354.0605 L319.0859,1358.0605 L339.0859,1362.0605 L339.0859,1370.6777 A0,0 0 0 0 339.0859,1370.6777 L509.2559,1370.6777 A0,0 0 0 0 509.2559,1370.6777 L509.2559,1355.4434 L499.2559,1345.4434 L339.0859,1345.4434 A0,0 0 0 0 339.0859,1345.4434 " fill="#F1E9D8" style="stroke:#C9B48F;stroke-width:0.5;"/><path d="M499.2559,1345.4434 L499.2559,1355.4434 L509.2559,1355.4434 L499.2559,1345.4434 " fill="#F1E9D8" style="stroke:#C9B48F;stroke-width:0.5;"/><text fill="#000000" font-family="Roboto" font-size="13" lengthAdjust="spacing" textLength="149.1699" x="345.0859" y="1362.5039">crosses to the kid surface</text><rect fill="#FFFDF8" height="48.125" rx="5" ry="5" style="stroke:#8C6F56;stroke-width:0.5;" width="176.5566" x="142.5293" y="1333.998"/><text fill="#000000" font-family="Roboto" font-size="12" lengthAdjust="spacing" textLength="156.5566" x="152.5293" y="1355.1309">The child's avatar now shows</text><text fill="#000000" font-family="Roboto" font-size="12" lengthAdjust="spacing" textLength="94.8516" x="152.5293" y="1369.1934">"new story ready!"</text><ellipse cx="230.8076" cy="1413.123" fill="none" rx="11" ry="11" style="stroke:#222222;stroke-width:1.0;"/><ellipse cx="230.8076" cy="1413.123" fill="#222222" rx="6" ry="6" style="stroke:#222222;stroke-width:1.0;"/><line style="stroke:#000000;stroke-width:1.5;" x1="15" x2="15" y1="66.707" y2="1424.123"/><rect fill="#C5D9CC" height="1357.416" style="stroke:#C5D9CC;stroke-width:1.0;" width="581.9243" x="726.2334" y="66.707"/><path d="M919.3916,806.5117 L919.3916,815.1289 L899.3916,819.1289 L919.3916,823.1289 L919.3916,831.7461 A0,0 0 0 0 919.3916,831.7461 L1122.2393,831.7461 A0,0 0 0 0 1122.2393,831.7461 L1122.2393,816.5117 L1112.2393,806.5117 L919.3916,806.5117 A0,0 0 0 0 919.3916,806.5117 " fill="#F1E9D8" style="stroke:#C9B48F;stroke-width:0.5;"/><path d="M1112.2393,806.5117 L1112.2393,816.5117 L1122.2393,816.5117 L1112.2393,806.5117 " fill="#F1E9D8" style="stroke:#C9B48F;stroke-width:0.5;"/><text fill="#000000" font-family="Roboto" font-size="13" lengthAdjust="spacing" textLength="181.8477" x="925.3916" y="823.5723">/guardian  (Console)  &#8226;  shipped</text><rect fill="#FFFDF8" height="62.1875" rx="5" ry="5" style="stroke:#8C6F56;stroke-width:0.5;" width="141.1309" x="758.2607" y="788.0352"/><text fill="#000000" font-family="Roboto" font-size="12" lengthAdjust="spacing" textLength="121.1309" x="768.2607" y="809.168">Open the review queue</text><text fill="#000000" font-family="Roboto" font-size="12" lengthAdjust="spacing" textLength="113.7246" x="768.2607" y="823.2305">(Flagged, then Ready,</text><text fill="#000000" font-family="Roboto" font-size="12" lengthAdjust="spacing" textLength="112.4238" x="768.2607" y="837.293">then Still processing)</text><path d="M942.6914,903.6992 L942.6914,912.3164 L922.6914,916.3164 L942.6914,920.3164 L942.6914,928.9336 A0,0 0 0 0 942.6914,928.9336 L1144.6694,928.9336 A0,0 0 0 0 1144.6694,928.9336 L1144.6694,913.6992 L1134.6694,903.6992 L942.6914,903.6992 A0,0 0 0 0 942.6914,903.6992 " fill="#F1E9D8" style="stroke:#C9B48F;stroke-width:0.5;"/><path d="M1134.6694,903.6992 L1134.6694,913.6992 L1144.6694,913.6992 L1134.6694,903.6992 " fill="#F1E9D8" style="stroke:#C9B48F;stroke-width:0.5;"/><text fill="#000000" font-family="Roboto" font-size="13" lengthAdjust="spacing" textLength="180.978" x="948.6914" y="920.7598">/guardian/review/:id  &#8226;  shipped</text><rect fill="#FFFDF8" height="62.1875" rx="5" ry="5" style="stroke:#8C6F56;stroke-width:0.5;" width="187.7305" x="734.9609" y="885.2227"/><text fill="#000000" font-family="Roboto" font-size="12" lengthAdjust="spacing" textLength="167.7305" x="744.9609" y="906.3555">Open a story: flagged passages</text><text fill="#000000" font-family="Roboto" font-size="12" lengthAdjust="spacing" textLength="112.7578" x="744.9609" y="920.418">first, then the full text</text><text fill="#000000" font-family="Roboto" font-size="12" lengthAdjust="spacing" textLength="145.4355" x="744.9609" y="934.4805">with flags highlighted inline</text><rect fill="#FFFDF8" height="34.0625" rx="5" ry="5" style="stroke:#8C6F56;stroke-width:0.5;" width="152" x="752.8262" y="733.9727"/><text fill="#000000" font-family="Roboto" font-size="12" lengthAdjust="spacing" textLength="132" x="762.8262" y="755.1055">pick the top of the queue</text><polygon fill="#F8F3E8" points="789.4587,967.4102,868.1936,967.4102,880.1936,979.4102,868.1936,991.4102,789.4587,991.4102,777.4587,979.4102,789.4587,967.4102" style="stroke:#8C6F56;stroke-width:0.5;"/><text fill="#5A3E28" font-family="Roboto" font-size="11" lengthAdjust="spacing" textLength="70.4634" x="832.8262" y="1001.6152">yes -&gt; approve</text><text fill="#000000" font-family="Roboto" font-size="11" lengthAdjust="spacing" textLength="78.7349" x="789.4587" y="983.1699">Safe for a child?</text><text fill="#5A3E28" font-family="Roboto" font-size="11" lengthAdjust="spacing" textLength="12.3481" x="880.1936" y="976.7246">no</text><rect fill="#FFFDF8" height="48.125" rx="5" ry="5" style="stroke:#8C6F56;stroke-width:0.5;" width="141.4883" x="1154.6694" y="838.6289"/><text fill="#000000" font-family="Roboto" font-size="12" lengthAdjust="spacing" textLength="117.1758" x="1164.6694" y="859.7617">Send back with a note</text><text fill="#000000" font-family="Roboto" font-size="12" lengthAdjust="spacing" textLength="121.4883" x="1164.6694" y="873.8242">-&gt; the story is rewritten</text><rect fill="#FFFDF8" height="62.1875" rx="5" ry="5" style="stroke:#8C6F56;stroke-width:0.5;" width="193.1855" x="732.2334" y="1023.1152"/><text fill="#000000" font-family="Roboto" font-size="12" lengthAdjust="spacing" textLength="44.3906" x="742.2334" y="1044.248">Approve</text><text fill="#000000" font-family="Roboto" font-size="12" lengthAdjust="spacing" textLength="173.1855" x="742.2334" y="1058.3105">(recorded human gate, ADR-005.</text><text fill="#000000" font-family="Roboto" font-size="12" lengthAdjust="spacing" textLength="128.1855" x="742.2334" y="1072.373">Guardians get 403 here)</text><line style="stroke:#000000;stroke-width:1.5;" x1="726.2334" x2="726.2334" y1="66.707" y2="1424.123"/><rect fill="#E4E4E4" height="1357.416" style="stroke:#E4E4E4;stroke-width:1.0;" width="404.2363" x="1323.1577" y="66.707"/><path d="M1476.771,669.6758 L1476.771,685.9102 L1456.771,689.9102 L1476.771,693.9102 L1476.771,710.1445 A0,0 0 0 0 1476.771,710.1445 L1715.394,710.1445 A0,0 0 0 0 1715.394,710.1445 L1715.394,679.6758 L1705.394,669.6758 L1476.771,669.6758 A0,0 0 0 0 1476.771,669.6758 " fill="#F1E9D8" style="stroke:#C9B48F;stroke-width:0.5;"/><path d="M1705.394,669.6758 L1705.394,679.6758 L1715.394,679.6758 L1705.394,669.6758 " fill="#F1E9D8" style="stroke:#C9B48F;stroke-width:0.5;"/><text fill="#000000" font-family="Roboto" font-size="13" lengthAdjust="spacing" textLength="217.623" x="1482.771" y="686.7363">generation + validator gate  &#8226;  shipped</text><text fill="#000000" font-family="Roboto" font-size="13" lengthAdjust="spacing" textLength="124.5791" x="1482.771" y="701.9707">detail: seq-generation</text><rect fill="#FFFDF8" height="48.125" rx="5" ry="5" style="stroke:#8C6F56;stroke-width:0.5;" width="127.6133" x="1329.1577" y="665.8477"/><text fill="#000000" font-family="Roboto" font-size="12" lengthAdjust="spacing" textLength="106.3418" x="1339.1577" y="686.9805">Write the story, then</text><text fill="#000000" font-family="Roboto" font-size="12" lengthAdjust="spacing" textLength="107.6133" x="1339.1577" y="701.043">run the safety check</text><line style="stroke:#000000;stroke-width:1.5;" x1="1323.1577" x2="1323.1577" y1="66.707" y2="1424.123"/><line style="stroke:#000000;stroke-width:1.5;" x1="1742.394" x2="1742.394" y1="66.707" y2="1424.123"/><line style="stroke:#5A3E28;stroke-width:1.0;" x1="230.8076" x2="230.8076" y1="112.8008" y2="134.793"/><polygon fill="#5A3E28" points="226.8076,124.793,230.8076,134.793,234.8076,124.793,230.8076,128.793" style="stroke:#5A3E28;stroke-width:1.0;"/><line style="stroke:#5A3E28;stroke-width:1.0;" x1="230.8076" x2="230.8076" y1="196.9805" y2="228.9727"/><polygon fill="#5A3E28" points="226.8076,218.9727,230.8076,228.9727,234.8076,218.9727,230.8076,222.9727" style="stroke:#5A3E28;stroke-width:1.0;"/><line style="stroke:#5A3E28;stroke-width:1.0;" x1="230.8076" x2="230.8076" y1="277.0977" y2="297.0977"/><polygon fill="#5A3E28" points="226.8076,287.0977,230.8076,297.0977,234.8076,287.0977,230.8076,291.0977" style="stroke:#5A3E28;stroke-width:1.0;"/><line style="stroke:#5A3E28;stroke-width:1.0;" x1="230.8076" x2="230.8076" y1="345.2227" y2="365.2227"/><polygon fill="#5A3E28" points="226.8076,355.2227,230.8076,365.2227,234.8076,355.2227,230.8076,359.2227" style="stroke:#5A3E28;stroke-width:1.0;"/><line style="stroke:#5A3E28;stroke-width:1.0;" x1="230.8076" x2="230.8076" y1="427.4102" y2="447.4102"/><polygon fill="#5A3E28" points="226.8076,437.4102,230.8076,447.4102,234.8076,437.4102,230.8076,441.4102" style="stroke:#5A3E28;stroke-width:1.0;"/><line style="stroke:#5A3E28;stroke-width:1.0;" x1="230.8076" x2="230.8076" y1="509.5977" y2="529.5977"/><polygon fill="#5A3E28" points="226.8076,519.5977,230.8076,529.5977,234.8076,519.5977,230.8076,523.5977" style="stroke:#5A3E28;stroke-width:1.0;"/><line style="stroke:#5A3E28;stroke-width:1.0;" x1="230.8076" x2="230.8076" y1="577.7227" y2="597.7227"/><polygon fill="#5A3E28" points="226.8076,587.7227,230.8076,597.7227,234.8076,587.7227,230.8076,591.7227" style="stroke:#5A3E28;stroke-width:1.0;"/><line style="stroke:#5A3E28;stroke-width:1.0;" x1="230.8076" x2="230.8076" y1="1197.4277" y2="1221.873"/><polygon fill="#5A3E28" points="226.8076,1211.873,230.8076,1221.873,234.8076,1211.873,230.8076,1215.873" style="stroke:#5A3E28;stroke-width:1.0;"/><line style="stroke:#5A3E28;stroke-width:1.0;" x1="296.5776" x2="568.3667" y1="1185.4277" y2="1185.4277"/><polygon fill="#5A3E28" points="564.3667,1235.9355,568.3667,1245.9355,572.3667,1235.9355,568.3667,1239.9355" style="stroke:#5A3E28;stroke-width:1.0;"/><line style="stroke:#5A3E28;stroke-width:1.0;" x1="568.3667" x2="568.3667" y1="1185.4277" y2="1301.998"/><line style="stroke:#5A3E28;stroke-width:1.0;" x1="568.3667" x2="242.8076" y1="1301.998" y2="1301.998"/><polygon fill="#5A3E28" points="252.8076,1297.998,242.8076,1301.998,252.8076,1305.998,248.8076,1301.998" style="stroke:#5A3E28;stroke-width:1.0;"/><line style="stroke:#5A3E28;stroke-width:1.0;" x1="230.8076" x2="230.8076" y1="1269.998" y2="1289.998"/><polygon fill="#5A3E28" points="226.8076,1279.998,230.8076,1289.998,234.8076,1279.998,230.8076,1283.998" style="stroke:#5A3E28;stroke-width:1.0;"/><line style="stroke:#5A3E28;stroke-width:1.0;" x1="230.8076" x2="230.8076" y1="1153.4277" y2="1173.4277"/><polygon fill="#5A3E28" points="226.8076,1163.4277,230.8076,1173.4277,234.8076,1163.4277,230.8076,1167.4277" style="stroke:#5A3E28;stroke-width:1.0;"/><line style="stroke:#5A3E28;stroke-width:1.0;" x1="230.8076" x2="230.8076" y1="1313.998" y2="1333.998"/><polygon fill="#5A3E28" points="226.8076,1323.998,230.8076,1333.998,234.8076,1323.998,230.8076,1327.998" style="stroke:#5A3E28;stroke-width:1.0;"/><line style="stroke:#5A3E28;stroke-width:1.0;" x1="230.8076" x2="230.8076" y1="1382.123" y2="1402.123"/><polygon fill="#5A3E28" points="226.8076,1392.123,230.8076,1402.123,234.8076,1392.123,230.8076,1396.123" style="stroke:#5A3E28;stroke-width:1.0;"/><line style="stroke:#5A3E28;stroke-width:1.0;" x1="828.8262" x2="828.8262" y1="850.2227" y2="885.2227"/><polygon fill="#5A3E28" points="824.8262,875.2227,828.8262,885.2227,832.8262,875.2227,828.8262,879.2227" style="stroke:#5A3E28;stroke-width:1.0;"/><line style="stroke:#5A3E28;stroke-width:1.0;" x1="828.8262" x2="828.8262" y1="768.0352" y2="788.0352"/><polygon fill="#5A3E28" points="824.8262,778.0352,828.8262,788.0352,832.8262,778.0352,828.8262,782.0352" style="stroke:#5A3E28;stroke-width:1.0;"/><line style="stroke:#5A3E28;stroke-width:1.0;" x1="880.1936" x2="1225.4136" y1="979.4102" y2="979.4102"/><line style="stroke:#5A3E28;stroke-width:1.0;" x1="1225.4136" x2="1225.4136" y1="886.7539" y2="979.4102"/><polygon fill="#5A3E28" points="1221.4136,896.7539,1225.4136,886.7539,1229.4136,896.7539,1225.4136,892.7539" style="stroke:#5A3E28;stroke-width:1.0;"/><line style="stroke:#5A3E28;stroke-width:1.0;" x1="1225.4136" x2="1225.4136" y1="751.0039" y2="838.6289"/><line style="stroke:#5A3E28;stroke-width:1.0;" x1="1225.4136" x2="904.8262" y1="751.0039" y2="751.0039"/><polygon fill="#5A3E28" points="914.8262,747.0039,904.8262,751.0039,914.8262,755.0039,910.8262,751.0039" style="stroke:#5A3E28;stroke-width:1.0;"/><line style="stroke:#5A3E28;stroke-width:1.0;" x1="828.8262" x2="828.8262" y1="947.4102" y2="967.4102"/><polygon fill="#5A3E28" points="824.8262,957.4102,828.8262,967.4102,832.8262,957.4102,828.8262,961.4102" style="stroke:#5A3E28;stroke-width:1.0;"/><line style="stroke:#5A3E28;stroke-width:1.0;" x1="828.8262" x2="828.8262" y1="991.4102" y2="1023.1152"/><polygon fill="#5A3E28" points="824.8262,1013.1152,828.8262,1023.1152,832.8262,1013.1152,828.8262,1017.1152" style="stroke:#5A3E28;stroke-width:1.0;"/><line style="stroke:#5A3E28;stroke-width:1.0;" x1="230.8076" x2="230.8076" y1="645.8477" y2="650.8477"/><line style="stroke:#5A3E28;stroke-width:1.0;" x1="230.8076" x2="1392.9644" y1="650.8477" y2="650.8477"/><line style="stroke:#5A3E28;stroke-width:1.0;" x1="1392.9644" x2="1392.9644" y1="650.8477" y2="665.8477"/><polygon fill="#5A3E28" points="1388.9644,655.8477,1392.9644,665.8477,1396.9644,655.8477,1392.9644,659.8477" style="stroke:#5A3E28;stroke-width:1.0;"/><line style="stroke:#5A3E28;stroke-width:1.0;" x1="1392.9644" x2="1392.9644" y1="713.9727" y2="718.9727"/><line style="stroke:#5A3E28;stroke-width:1.0;" x1="1392.9644" x2="828.8262" y1="718.9727" y2="718.9727"/><line style="stroke:#5A3E28;stroke-width:1.0;" x1="828.8262" x2="828.8262" y1="718.9727" y2="733.9727"/><polygon fill="#5A3E28" points="824.8262,723.9727,828.8262,733.9727,832.8262,723.9727,828.8262,727.9727" style="stroke:#5A3E28;stroke-width:1.0;"/><line style="stroke:#5A3E28;stroke-width:1.0;" x1="828.8262" x2="828.8262" y1="1085.3027" y2="1090.3027"/><line style="stroke:#5A3E28;stroke-width:1.0;" x1="828.8262" x2="230.8076" y1="1090.3027" y2="1090.3027"/><line style="stroke:#5A3E28;stroke-width:1.0;" x1="230.8076" x2="230.8076" y1="1090.3027" y2="1105.3027"/><polygon fill="#5A3E28" points="226.8076,1095.3027,230.8076,1105.3027,234.8076,1095.3027,230.8076,1099.3027" style="stroke:#5A3E28;stroke-width:1.0;"/><text fill="#000000" font-family="Roboto" font-size="18" lengthAdjust="spacing" textLength="72.334" x="326.9497" y="83.4063">Guardian</text><text fill="#000000" font-family="Roboto" font-size="18" lengthAdjust="spacing" textLength="51.9961" x="987.1975" y="83.4063">Admin</text><text fill="#000000" font-family="Roboto" font-size="18" lengthAdjust="spacing" textLength="59.7129" x="1491.9194" y="83.4063">System</text><rect fill="none" height="178.0625" id="_legend" rx="5" ry="5" style="stroke:#000000;stroke-width:1.0;" width="494.709" x="630.8425" y="1436.123"/><text fill="#000000" font-family="Roboto" font-size="14" font-weight="bold" lengthAdjust="spacing" textLength="33.2705" x="639.3289" y="1456.1113">Node</text><text fill="#000000" font-family="Roboto" font-size="14" font-weight="bold" lengthAdjust="spacing" textLength="54.7285" x="686.8591" y="1456.1113">Meaning</text><text fill="#000000" filter="url(#b1tsh7ty4tafyh0)" font-family="Roboto" font-size="14" lengthAdjust="spacing" textLength="33.6396" x="642.7878" y="1472.5176">white</text><text fill="#000000" font-family="Roboto" font-size="14" lengthAdjust="spacing" textLength="237.0498" x="686.8455" y="1472.5176">Shipped in the guardian console today</text><text fill="#000000" filter="url(#b1tsh7ty4tafyh1)" font-family="Roboto" font-size="14" lengthAdjust="spacing" textLength="27.3779" x="642.7878" y="1488.9238">rose</text><text fill="#000000" font-family="Roboto" font-size="14" lengthAdjust="spacing" textLength="129.6982" x="686.8455" y="1488.9238">Planned, not yet built</text><line style="stroke:#000000;stroke-width:1.0;" x1="635.8425" x2="927.3679" y1="1443.123" y2="1443.123"/><line style="stroke:#000000;stroke-width:1.0;" x1="635.8425" x2="927.3679" y1="1459.5293" y2="1459.5293"/><line style="stroke:#000000;stroke-width:1.0;" x1="635.8425" x2="927.3679" y1="1475.9355" y2="1475.9355"/><line style="stroke:#000000;stroke-width:1.0;" x1="635.8425" x2="927.3679" y1="1492.3418" y2="1492.3418"/><line style="stroke:#000000;stroke-width:1.0;" x1="635.8425" x2="635.8425" y1="1443.123" y2="1492.3418"/><line style="stroke:#000000;stroke-width:1.0;" x1="683.3728" x2="683.3728" y1="1443.123" y2="1492.3418"/><line style="stroke:#000000;stroke-width:1.0;" x1="927.3679" x2="927.3679" y1="1443.123" y2="1492.3418"/><text fill="#000000" font-family="Roboto" font-size="14" lengthAdjust="spacing" textLength="58.8438" x="635.8425" y="1507.3301">Columns:</text><text fill="#000000" font-family="Roboto" font-size="14" font-weight="bold" lengthAdjust="spacing" textLength="56.9502" x="698.1589" y="1507.3301">Guardian</text><text fill="#000000" font-family="Roboto" font-size="14" lengthAdjust="spacing" textLength="179.04" x="758.5818" y="1507.3301">(request + assign + monitor),</text><text fill="#000000" font-family="Roboto" font-size="14" font-weight="bold" lengthAdjust="spacing" textLength="40.9951" x="941.0945" y="1507.3301">Admin</text><text fill="#000000" font-family="Roboto" font-size="14" lengthAdjust="spacing" textLength="82.4004" x="985.5623" y="1507.3301">(the ADR-005</text><text fill="#000000" font-family="Roboto" font-size="14" lengthAdjust="spacing" textLength="92.4492" x="635.8425" y="1523.7363">approval gate),</text><text fill="#000000" font-family="Roboto" font-size="14" font-weight="bold" lengthAdjust="spacing" textLength="47.2637" x="731.7644" y="1523.7363">System</text><text fill="#000000" font-family="Roboto" font-size="14" lengthAdjust="spacing" textLength="252.3555" x="782.5007" y="1523.7363">(generation + safety, behind the scenes).</text><text fill="#000000" font-family="Roboto" font-size="14" lengthAdjust="spacing" textLength="480.3477" x="635.8425" y="1540.1426">ADR-014: one AdultGate at the root of the whole adult subtree (not a per-page</text><text fill="#000000" font-family="Roboto" font-size="14" lengthAdjust="spacing" textLength="470.2305" x="635.8425" y="1556.5488">gate) is the single kid-to-adult boundary; step-up fires only crossing UP from</text><text fill="#000000" font-family="Roboto" font-size="14" lengthAdjust="spacing" textLength="484.709" x="635.8425" y="1572.9551">kid mode, never guardian&lt;-&gt;guardian, guardian&lt;-&gt;admin, or admin&lt;-&gt;guardian.</text><text fill="#000000" font-family="Roboto" font-size="14" lengthAdjust="spacing" textLength="435.1143" x="635.8425" y="1589.3613">See journey-kid for the child side, seq-device-grant for the device-grant</text><text fill="#000000" font-family="Roboto" font-size="14" lengthAdjust="spacing" textLength="346.2402" x="635.8425" y="1605.7676">mechanics, and journey-dev-coverage for test coverage.</text><!--SRC=[fLZRSjiu4dtdL_Gg3v4cf9Hid5b7IZpbMB4hKvcCoqegMrjvWKY8n9e2E01eHLj-s6_PJzilsTCWgPlbxCF4bPA4ItUZ-_Jf1fxIsp_nBtfA_p1cAJFwugHDtd-lf5LIfv8kIxCQqrKjRAQ4fcTqdYsLfbbj5oALqLFilBOcgrC_-lBt92s5LNvDelJArvcaXR7a2qcLi5Bx17kKpYarsfbIKj-QsaloLa8IzKPvgwOt6D8dmzjLMOvfLIYiUakkK5KbivYiSVoxAeNMiBclZQUrz3IlLUa7GyZw39sYggovmsVgbT6a70csFJ6wN5F_V7gJF7_-QZ2XJgkZ52TS6gqyh9xNdWGaTRCyoNgSB1T99xf_Vls1hFIrnUwJvozPD_RCJ6tXEvVYODgDCKAqi4PxgREHi-aedDiElVjErDzes7fZJ1jVZ7wQa207jy5XvrbT-YlXPH19jBAYSi71gu8TAdYUN3rd8PGaD3U-sCeYeJCQ1I_mP731YvF1G_j4xOlHHbbhPxjyJ4PBkbLPuatIA9oRMcV2hYb5PDZKkBDFs2Kv3na4bKvYqkWPt2jo6TEhX0tv_FbZpFYuHIGH9i04s0D8e071oEGHypQ- -MXofQyXZ4sCwQB1rNRWHjufkPfABrJPZVv0t0VjnUtETY0R29HkEtAE4-Jweb1b1a1FbIXD_d-4tiW_QkdyHWWykPsqxUIuG-ieascfT1TWGIdhUkhWHGC7j-jZ-ZfBtaswZE1WTY8JizB8iwK2o8tjn0JWvwMPYpAcJxz_tas5KjtAWA4s9HfLSsDkMwD4IJb2-AD0lCFguoTaEJXUAZpxYkRMh92ypph3WZ_3STvFTix0TcbnnsYmwqPnPb8t2YaFT034bl-plSaIi1PiSrBK-9vqLW-NsOzslZX9Ck0ZbGd3tLZrBvabZ6kHfa0gTbF_aRph03z1pfOocGk785J6-QHaH29CcR8ozOtbrmNcwKG0pdF0YRvye1Mc5rOi9NDXAYiaRILJwb_Vq9EJlyLTO2SXBgwX4no3e5PsGGt7SZMekZ8hQV4T8jm8IUUOaw0XWt-PXOHF2mAvLE0qLaVAErePUqjBQNEPiPb_gdn4e7iSxB4oGR_Y15gkl-d-3ibF3dXyIESjhUvHTTpXSX15xbPfK8LOKYON0Z6v11W_iHjxDmPSPtexI-OYlSqjH-h2b63q9vVd_BUpefs4QPPUFD-PS8N8p8fPQ25A9tTcpYq0tCfx9LxAlvuUJh99Zov0ARf3WNptmBJBo-dbqPN68kBjgjFqvyMhdu-i0X6XRcKFn2vE5o_bwGys_53w9-FbGqjVl7yzFJrSjIidVJq_ELtiUdEbbWYn_AeoL2E7S4NH_PEBwVJY_SLzXvbx7derVNrnSH-mmx_Vd_3V_Mpjl5pUOzDsCOgAzT5u1lP0QOdwSWcA7rNW4-0QXSJIbJ58tJW2g01DjGYfj2X5pl0oUZ29KCubMPKNVhVUDXbC__ttVwXBms-whNrCj4ZOJ7570LhKt1m5iW9Hcp9h-EgRXdhKR2-hfAusHP6-N3DxBZUL3LagqaAwRzeNiAdVzagzAyiSNbSkYExHvbHM9WqXJhxfK7dV96TD1GPNAd1qs-SikFg7HES278q_Sjt754jlQsJKtpBNUBSQ96TjXm0T-tmCyx9Qb0bl3CkwwGDNRiWID80Awi63Chi9lSsULoEmJWA7pj0_LMEgscBBOz7uF0j118_wdIBOhedwcdF-6NvBXxvFtA6ws4SZkf5yL7rRdqF0kCG6zRzN4korMt9T7DdGJT1olR57PL94_QRF0zjw-Tt3AWQPUzIQJjuXnFh7A_XUxKPCzejtZ8gmgTzxrPhc4gtx02d23ihn6o28gPGwzqKScQg5iEDE7pqa4tWSGOpUq32KJvjkPFyiNTVH7A3hXRdvpa3SZ32kQ82eveJ0QN5Uok4X6n0QHUD3duUqQBglgD_xMXZshUVRmo-zcBofLCeVMZxgLHKs7qHu_3LKljvlwoxA3WMYC2laM6kEpeV3OMzVQYlhdsOUUjVw0N0sZ3J-Qlbg4eeq7oJchpgoTPDhJYoaPxJ8z7PVnTORm0j2fa83qmJk01TPw5xXTVb7ikl41htdUp7l7okR0T4TgLfPIU5f38_U1XlXN38DEOP8JIAY1luyr48-p62YVmbevtm52q2vaI9RnnWFlsOUjpLEKUwUuDW1YpeQBGXgQMXmuDfETmkCSSYbd9ihS21GxB1YeIntm45duFGQQZdrCBTIg30X_wY0qf8LOxVI3OeViMVK77CqLjc1FTn3W4CpP170pByQ5I88Yi22czWpyLgv0Y3G7aywH-FkoXVT6P0GBiCjb_qouEMuk0vO4FNNp7jdNIuXQziS14tBb8jhHg6t3M7UX7OONMtkhZdI73TGAgJbBEdW4Vhh1W7RuZbkXxUa0VdX494tOJGOoId8pIJitaTlqxKVk0eLjd-bk7lp01Lkh7Fu777mnk2q8Lfyp077kDSQi3HMzlZW0Oxy2xDfUxjYD6TD3GmsQG0H5E0UuEhOfUp0E8akBhWxGXpL8Xf_xWu9fcdA1nTpOd9mKOzLTHSkGFml1mGHAZgJPkCihkUkVH31hYgAIfa7l1ZlpHBMthzjtZFm-PiKV0sXUnv-muWQjztV6RKl7VHcnEDdzpHhcLOriTg-HRGFADvaOhqlwkNqzVG4ea9llIFgkccoOzfxB0bxqRVLIurBsflvMGSIx3kZVbkhm55jo9zrxoE3c5S7KccMxbmW8pguE8Qr3MSsY_Vehs7960MhK71QIAXKSg27aBJtwh1jBP1QWPyCJjFIrx4daF0q90XtfAG2VK1UC8YJB-XfhdT77pCccmOEX2DR71xsSX3OTNFmhBp3HQ8B4dgpxckyEnWeEjvKzfrbVDoPvC8JRajy5zqye3K9wHJhuKhGtbnpAxJVBDeTXAobJ0k0BNLnUFZfn69LaYBb-H6csSeXxaQ6d24DVgF_0G00]--></g></svg>
