<svg xmlns="http://www.w3.org/2000/svg" xmlns:xlink="http://www.w3.org/1999/xlink" contentStyleType="text/css" height="1796px" preserveAspectRatio="none" style="width:1278px;height:1796px;background:#FAFAFA;" version="1.1" viewBox="0 0 1278 1796" width="1278px" zoomAndPan="magnify"><title>Kid-Surface Journey</title><defs><style type="text/css">@import url('https://fonts.googleapis.com/css?family=Roboto:400,100,100italic,300,300italic,400italic,500,500italic,700,700italic,900,900italic');</style><filter height="1" id="b1kpwcqeu1c7hr0" width="1" x="0" y="0"><feFlood flood-color="#FFFDF8" result="flood"/><feComposite in="SourceGraphic" in2="flood" operator="over"/></filter><filter height="1" id="b1kpwcqeu1c7hr1" width="1" x="0" y="0"><feFlood flood-color="#F3D9D4" result="flood"/><feComposite in="SourceGraphic" in2="flood" operator="over"/></filter></defs><g><rect fill="#FAFAFA" height="1796" style="stroke:none;stroke-width:1.0;" width="1278" x="0" y="0"/><text fill="#000000" font-family="Roboto" font-size="14" font-weight="bold" lengthAdjust="spacing" textLength="129.5137" x="572.7625" y="32.9883">Kid-Surface Journey</text><text fill="#000000" font-family="Roboto" font-size="14" font-weight="bold" lengthAdjust="spacing" textLength="311.3633" x="481.8376" y="49.3945">(child-facing app "/"; rose = planned, not yet built)</text><ellipse cx="639.658" cy="73.8125" fill="#222222" rx="10" ry="10" style="stroke:#222222;stroke-width:1.0;"/><rect fill="#FFFDF8" height="34.0625" rx="5" ry="5" style="stroke:#8C6F56;stroke-width:0.5;" width="90.8398" x="594.238" y="103.8125"/><text fill="#000000" font-family="Roboto" font-size="12" lengthAdjust="spacing" textLength="70.8398" x="604.238" y="124.9453">Open the app</text><path d="M727.0154,176.3516 L727.0154,184.9688 L707.0154,188.9688 L727.0154,192.9688 L727.0154,201.5859 A0,0 0 0 0 727.0154,201.5859 L908.9792,201.5859 A0,0 0 0 0 908.9792,201.5859 L908.9792,186.3516 L898.9792,176.3516 L727.0154,176.3516 A0,0 0 0 0 727.0154,176.3516 " fill="#F1E9D8" style="stroke:#C9B48F;stroke-width:0.5;"/><path d="M898.9792,176.3516 L898.9792,186.3516 L908.9792,186.3516 L898.9792,176.3516 " fill="#F1E9D8" style="stroke:#C9B48F;stroke-width:0.5;"/><text fill="#000000" font-family="Roboto" font-size="13" lengthAdjust="spacing" textLength="160.9639" x="733.0154" y="193.4121">/  (Profile Picker)  &#8226;  shipped</text><rect fill="#FFFDF8" height="62.1875" rx="5" ry="5" style="stroke:#8C6F56;stroke-width:0.5;" width="134.7148" x="572.3005" y="157.875"/><text fill="#000000" font-family="Roboto" font-size="12" lengthAdjust="spacing" textLength="75.9668" x="582.3005" y="179.0078">Tap my avatar</text><text fill="#000000" font-family="Roboto" font-size="12" lengthAdjust="spacing" textLength="91.7637" x="582.3005" y="193.0703">(2-column picker,</text><text fill="#000000" font-family="Roboto" font-size="12" lengthAdjust="spacing" textLength="114.7148" x="582.3005" y="207.1328">dashed circle if none)</text><path d="M728.4978,251.5078 L728.4978,260.125 L708.4978,264.125 L728.4978,268.125 L728.4978,276.7422 A0,0 0 0 0 728.4978,276.7422 L868.8083,276.7422 A0,0 0 0 0 868.8083,276.7422 L868.8083,261.5078 L858.8083,251.5078 L728.4978,251.5078 A0,0 0 0 0 728.4978,251.5078 " fill="#F1E9D8" style="stroke:#C9B48F;stroke-width:0.5;"/><path d="M858.8083,251.5078 L858.8083,261.5078 L868.8083,261.5078 L858.8083,251.5078 " fill="#F1E9D8" style="stroke:#C9B48F;stroke-width:0.5;"/><text fill="#000000" font-family="Roboto" font-size="13" lengthAdjust="spacing" textLength="119.3105" x="734.4978" y="268.5684">status pill  &#8226;  shipped</text><rect fill="#FFFDF8" height="48.125" rx="5" ry="5" style="stroke:#8C6F56;stroke-width:0.5;" width="137.6797" x="570.8181" y="240.0625"/><text fill="#000000" font-family="Roboto" font-size="12" lengthAdjust="spacing" textLength="117.6797" x="580.8181" y="261.1953">See "new story ready!"</text><text fill="#000000" font-family="Roboto" font-size="12" lengthAdjust="spacing" textLength="69.0117" x="580.8181" y="275.2578">on my avatar</text><path d="M737.1873,326.6641 L737.1873,335.2813 L717.1873,339.2813 L737.1873,343.2813 L737.1873,351.8984 A0,0 0 0 0 737.1873,351.8984 L918.5798,351.8984 A0,0 0 0 0 918.5798,351.8984 L918.5798,336.6641 L908.5798,326.6641 L737.1873,326.6641 A0,0 0 0 0 737.1873,326.6641 " fill="#F1E9D8" style="stroke:#C9B48F;stroke-width:0.5;"/><path d="M908.5798,326.6641 L908.5798,336.6641 L918.5798,336.6641 L908.5798,326.6641 " fill="#F1E9D8" style="stroke:#C9B48F;stroke-width:0.5;"/><text fill="#000000" font-family="Roboto" font-size="13" lengthAdjust="spacing" textLength="160.3926" x="743.1873" y="343.7246">/library/:profileId  &#8226;  shipped</text><rect fill="#FFFDF8" height="62.1875" rx="5" ry="5" style="stroke:#8C6F56;stroke-width:0.5;" width="155.0586" x="562.1287" y="308.1875"/><text fill="#000000" font-family="Roboto" font-size="12" lengthAdjust="spacing" textLength="86.5957" x="572.1287" y="329.3203">Open my Library</text><text fill="#000000" font-family="Roboto" font-size="12" lengthAdjust="spacing" textLength="125.0098" x="572.1287" y="343.3828">(Continue Reading hero</text><text fill="#000000" font-family="Roboto" font-size="12" lengthAdjust="spacing" textLength="135.0586" x="572.1287" y="357.4453">+ "More to Explore" shelf)</text><path d="M732.5173,400.6484 L732.5173,424.5 L712.5173,428.5 L732.5173,432.5 L732.5173,456.3516 A0,0 0 0 0 732.5173,456.3516 L1048.8928,456.3516 A0,0 0 0 0 1048.8928,456.3516 L1048.8928,410.6484 L1038.8928,400.6484 L732.5173,400.6484 A0,0 0 0 0 732.5173,400.6484 " fill="#F1E9D8" style="stroke:#C9B48F;stroke-width:0.5;"/><path d="M1038.8928,400.6484 L1038.8928,410.6484 L1048.8928,410.6484 L1038.8928,400.6484 " fill="#F1E9D8" style="stroke:#C9B48F;stroke-width:0.5;"/><text fill="#000000" font-family="Roboto" font-size="13" lengthAdjust="spacing" textLength="250.415" x="738.5173" y="417.709">RequestStory on the library page  &#8226;  shipped</text><text fill="#000000" font-family="Roboto" font-size="13" lengthAdjust="spacing" textLength="295.3755" x="738.5173" y="432.9434">surfaces to a guardian/admin to approve or decline</text><text fill="#000000" font-family="Roboto" font-size="13" lengthAdjust="spacing" textLength="264.8496" x="738.5173" y="448.1777">(no moderation detail ever shown to the child)</text><rect fill="#FFFDF8" height="76.25" rx="5" ry="5" style="stroke:#8C6F56;stroke-width:0.5;" width="145.7188" x="566.7986" y="390.375"/><text fill="#000000" font-family="Roboto" font-size="12" lengthAdjust="spacing" textLength="113.9531" x="576.7986" y="411.5078">Tap "Request a story"</text><text fill="#000000" font-family="Roboto" font-size="12" lengthAdjust="spacing" textLength="122.0918" x="576.7986" y="425.5703">and say what it's about</text><text fill="#000000" font-family="Roboto" font-size="12" lengthAdjust="spacing" textLength="125.7188" x="576.7986" y="439.6328">(or "Continue this story"</text><text fill="#000000" font-family="Roboto" font-size="12" lengthAdjust="spacing" textLength="91.7109" x="576.7986" y="453.6953">on a series book)</text><path d="M750.4382,505.1016 L750.4382,513.7188 L730.4382,517.7188 L750.4382,521.7188 L750.4382,530.3359 A0,0 0 0 0 750.4382,530.3359 L934.5603,530.3359 A0,0 0 0 0 934.5603,530.3359 L934.5603,515.1016 L924.5603,505.1016 L750.4382,505.1016 A0,0 0 0 0 750.4382,505.1016 " fill="#F1E9D8" style="stroke:#C9B48F;stroke-width:0.5;"/><path d="M924.5603,505.1016 L924.5603,515.1016 L934.5603,515.1016 L924.5603,505.1016 " fill="#F1E9D8" style="stroke:#C9B48F;stroke-width:0.5;"/><text fill="#000000" font-family="Roboto" font-size="13" lengthAdjust="spacing" textLength="163.1221" x="756.4382" y="522.1621">shipped  &#8226;  "My requests" list</text><rect fill="#FFFDF8" height="62.1875" rx="5" ry="5" style="stroke:#8C6F56;stroke-width:0.5;" width="181.5605" x="548.8777" y="486.625"/><text fill="#000000" font-family="Roboto" font-size="12" lengthAdjust="spacing" textLength="116.1094" x="558.8777" y="507.7578">See my own requests'</text><text fill="#000000" font-family="Roboto" font-size="12" lengthAdjust="spacing" textLength="75.8672" x="558.8777" y="521.8203">friendly status</text><text fill="#000000" font-family="Roboto" font-size="12" lengthAdjust="spacing" textLength="161.5605" x="558.8777" y="535.8828">(Waiting / Yay! / Not this time)</text><rect fill="#FFFDF8" height="34.0625" rx="5" ry="5" style="stroke:#8C6F56;stroke-width:0.5;" width="81.8398" x="598.738" y="568.8125"/><text fill="#000000" font-family="Roboto" font-size="12" lengthAdjust="spacing" textLength="61.8398" x="608.738" y="589.9453">Pick a book</text><polygon fill="#F8F3E8" points="32,622.875,137.3379,622.875,149.3379,634.875,137.3379,646.875,32,646.875,20,634.875,32,622.875" style="stroke:#8C6F56;stroke-width:0.5;"/><text fill="#5A3E28" font-family="Roboto" font-size="11" lengthAdjust="spacing" textLength="16.7148" x="88.6689" y="657.0801">yes</text><text fill="#000000" font-family="Roboto" font-size="11" lengthAdjust="spacing" textLength="105.3379" x="32" y="638.6348">Is the story available?</text><path d="M176.0605,684.1797 L176.0605,692.7969 L156.0605,696.7969 L176.0605,700.7969 L176.0605,709.4141 A0,0 0 0 0 176.0605,709.4141 L475.1006,709.4141 A0,0 0 0 0 475.1006,709.4141 L475.1006,694.1797 L465.1006,684.1797 L176.0605,684.1797 A0,0 0 0 0 176.0605,684.1797 " fill="#F1E9D8" style="stroke:#C9B48F;stroke-width:0.5;"/><path d="M465.1006,684.1797 L465.1006,694.1797 L475.1006,694.1797 L465.1006,684.1797 " fill="#F1E9D8" style="stroke:#C9B48F;stroke-width:0.5;"/><text fill="#000000" font-family="Roboto" font-size="13" lengthAdjust="spacing" textLength="278.04" x="182.0605" y="701.2402">/read/:profileId/:storybookId/:version  &#8226;  shipped</text><rect fill="#FFFDF8" height="34.0625" rx="5" ry="5" style="stroke:#8C6F56;stroke-width:0.5;" width="142.7832" x="13.2773" y="679.7656"/><text fill="#000000" font-family="Roboto" font-size="12" lengthAdjust="spacing" textLength="122.7832" x="23.2773" y="700.8984">Reader opens the story</text><polygon fill="#F8F3E8" points="510.9597,622.875,595.5813,622.875,607.5813,634.875,595.5813,646.875,510.9597,646.875,498.9597,634.875,510.9597,622.875" style="stroke:#8C6F56;stroke-width:0.5;"/><text fill="#000000" font-family="Roboto" font-size="11" lengthAdjust="spacing" textLength="84.6216" x="510.9597" y="638.6348">link is malformed</text><text fill="#5A3E28" font-family="Roboto" font-size="11" lengthAdjust="spacing" textLength="76.8926" x="607.5813" y="632.1895">story is missing</text><path d="M631.4404,678.3203 L631.4404,686.9375 L611.4404,690.9375 L631.4404,694.9375 L631.4404,703.5547 A0,0 0 0 0 631.4404,703.5547 L871.917,703.5547 A0,0 0 0 0 871.917,703.5547 L871.917,688.3203 L861.917,678.3203 L631.4404,678.3203 A0,0 0 0 0 631.4404,678.3203 " fill="#F1E9D8" style="stroke:#C9B48F;stroke-width:0.5;"/><path d="M861.917,678.3203 L861.917,688.3203 L871.917,688.3203 L861.917,678.3203 " fill="#F1E9D8" style="stroke:#C9B48F;stroke-width:0.5;"/><text fill="#000000" font-family="Roboto" font-size="13" lengthAdjust="spacing" textLength="219.4766" x="637.4404" y="695.3809">shipped (reader.spec: malformed link)</text><rect fill="#FFFDF8" height="48.125" rx="5" ry="5" style="stroke:#8C6F56;stroke-width:0.5;" width="116.3398" x="495.1006" y="666.875"/><text fill="#000000" font-family="Roboto" font-size="12" lengthAdjust="spacing" textLength="96.3398" x="505.1006" y="688.0078">See a friendly exit,</text><text fill="#000000" font-family="Roboto" font-size="12" lengthAdjust="spacing" textLength="79.0371" x="505.1006" y="702.0703">not a dead end</text><ellipse cx="553.2705" cy="749" fill="none" rx="11" ry="11" style="stroke:#222222;stroke-width:1.0;"/><ellipse cx="553.2705" cy="749" fill="#222222" rx="6" ry="6" style="stroke:#222222;stroke-width:1.0;"/><path d="M1034.6963,681.3203 L1034.6963,689.9375 L1014.6963,693.9375 L1034.6963,697.9375 L1034.6963,706.5547 A0,0 0 0 0 1034.6963,706.5547 L1266.0386,706.5547 A0,0 0 0 0 1266.0386,706.5547 L1266.0386,691.3203 L1256.0386,681.3203 L1034.6963,681.3203 A0,0 0 0 0 1034.6963,681.3203 " fill="#F1E9D8" style="stroke:#C9B48F;stroke-width:0.5;"/><path d="M1256.0386,681.3203 L1256.0386,691.3203 L1266.0386,691.3203 L1256.0386,681.3203 " fill="#F1E9D8" style="stroke:#C9B48F;stroke-width:0.5;"/><text fill="#000000" font-family="Roboto" font-size="13" lengthAdjust="spacing" textLength="210.3423" x="1040.6963" y="698.3809">shipped (reader.spec: missing story)</text><rect fill="#FFFDF8" height="48.125" rx="5" ry="5" style="stroke:#8C6F56;stroke-width:0.5;" width="122.7793" x="891.917" y="669.875"/><text fill="#000000" font-family="Roboto" font-size="12" lengthAdjust="spacing" textLength="84.2754" x="901.917" y="691.0078">See "not found",</text><text fill="#000000" font-family="Roboto" font-size="12" lengthAdjust="spacing" textLength="102.7793" x="901.917" y="705.0703">not the offline copy</text><ellipse cx="953.3066" cy="752" fill="none" rx="11" ry="11" style="stroke:#222222;stroke-width:1.0;"/><ellipse cx="953.3066" cy="752" fill="#222222" rx="6" ry="6" style="stroke:#222222;stroke-width:1.0;"/><rect fill="#FFFDF8" height="48.125" rx="5" ry="5" style="stroke:#8C6F56;stroke-width:0.5;" width="152.1465" x="563.5847" y="857.0625"/><text fill="#000000" font-family="Roboto" font-size="12" lengthAdjust="spacing" textLength="95.1855" x="573.5847" y="878.1953">Read the passage</text><text fill="#000000" font-family="Roboto" font-size="12" lengthAdjust="spacing" textLength="132.1465" x="573.5847" y="892.2578">(serif, generous spacing)</text><path d="M741.8513,943.6641 L741.8513,952.2813 L721.8513,956.2813 L741.8513,960.2813 L741.8513,968.8984 A0,0 0 0 0 741.8513,968.8984 L941.3538,968.8984 A0,0 0 0 0 941.3538,968.8984 L941.3538,953.6641 L931.3538,943.6641 L741.8513,943.6641 A0,0 0 0 0 741.8513,943.6641 " fill="#F1E9D8" style="stroke:#C9B48F;stroke-width:0.5;"/><path d="M931.3538,943.6641 L931.3538,953.6641 L941.3538,953.6641 L931.3538,943.6641 " fill="#F1E9D8" style="stroke:#C9B48F;stroke-width:0.5;"/><text fill="#000000" font-family="Roboto" font-size="13" lengthAdjust="spacing" textLength="178.5024" x="747.8513" y="960.7246">state-gated visibility  &#8226;  shipped</text><rect fill="#FFFDF8" height="62.1875" rx="5" ry="5" style="stroke:#8C6F56;stroke-width:0.5;" width="164.3867" x="557.4646" y="925.1875"/><text fill="#000000" font-family="Roboto" font-size="12" lengthAdjust="spacing" textLength="77.2266" x="567.4646" y="946.3203">Make a choice</text><text fill="#000000" font-family="Roboto" font-size="12" lengthAdjust="spacing" textLength="142.8281" x="567.4646" y="960.3828">(some choices stay hidden</text><text fill="#000000" font-family="Roboto" font-size="12" lengthAdjust="spacing" textLength="144.3867" x="567.4646" y="974.4453">until the story-state allows)</text><polygon fill="#F8F3E8" points="609.6201,1007.375,669.6958,1007.375,681.6958,1019.375,669.6958,1031.375,609.6201,1031.375,597.6201,1019.375,609.6201,1007.375" style="stroke:#8C6F56;stroke-width:0.5;"/><text fill="#000000" font-family="Roboto" font-size="11" lengthAdjust="spacing" textLength="60.0757" x="609.6201" y="1023.1348">Am I online?</text><text fill="#5A3E28" font-family="Roboto" font-size="11" lengthAdjust="spacing" textLength="16.7148" x="580.9053" y="1016.6895">yes</text><text fill="#5A3E28" font-family="Roboto" font-size="11" lengthAdjust="spacing" textLength="31.1792" x="681.6958" y="1016.6895">offline</text><rect fill="#FFFDF8" height="34.0625" rx="5" ry="5" style="stroke:#8C6F56;stroke-width:0.5;" width="158.8965" x="458.6042" y="1041.375"/><text fill="#000000" font-family="Roboto" font-size="12" lengthAdjust="spacing" textLength="138.8965" x="468.6042" y="1062.5078">My progress saves as I go</text><path d="M844.5144,1059.8516 L844.5144,1068.4688 L824.5144,1072.4688 L844.5144,1076.4688 L844.5144,1085.0859 A0,0 0 0 0 844.5144,1085.0859 L992.1438,1085.0859 A0,0 0 0 0 992.1438,1085.0859 L992.1438,1069.8516 L982.1438,1059.8516 L844.5144,1059.8516 A0,0 0 0 0 844.5144,1059.8516 " fill="#F1E9D8" style="stroke:#C9B48F;stroke-width:0.5;"/><path d="M982.1438,1059.8516 L982.1438,1069.8516 L992.1438,1069.8516 L982.1438,1059.8516 " fill="#F1E9D8" style="stroke:#C9B48F;stroke-width:0.5;"/><text fill="#000000" font-family="Roboto" font-size="13" lengthAdjust="spacing" textLength="126.6294" x="850.5144" y="1076.9121">offline-first  &#8226;  shipped</text><rect fill="#FFFDF8" height="62.1875" rx="5" ry="5" style="stroke:#8C6F56;stroke-width:0.5;" width="166.502" x="658.0125" y="1041.375"/><text fill="#000000" font-family="Roboto" font-size="12" lengthAdjust="spacing" textLength="118.4355" x="668.0125" y="1062.5078">Keep reading from the</text><text fill="#000000" font-family="Roboto" font-size="12" lengthAdjust="spacing" textLength="146.502" x="668.0125" y="1076.5703">downloaded copy, progress</text><text fill="#000000" font-family="Roboto" font-size="12" lengthAdjust="spacing" textLength="86.3613" x="668.0125" y="1090.6328">waits in a queue</text><rect fill="#FFFDF8" height="34.0625" rx="5" ry="5" style="stroke:#8C6F56;stroke-width:0.5;" width="135.0078" x="673.7595" y="1133.2266"/><text fill="#000000" font-family="Roboto" font-size="12" lengthAdjust="spacing" textLength="115.0078" x="683.7595" y="1154.3594">On reconnect it syncs</text><path d="M855.0261,1248.9609 L855.0261,1257.5781 L835.0261,1261.5781 L855.0261,1265.5781 L855.0261,1274.1953 A0,0 0 0 0 855.0261,1274.1953 L1020.759,1274.1953 A0,0 0 0 0 1020.759,1274.1953 L1020.759,1258.9609 L1010.759,1248.9609 L855.0261,1248.9609 A0,0 0 0 0 855.0261,1248.9609 " fill="#F1E9D8" style="stroke:#C9B48F;stroke-width:0.5;"/><path d="M1010.759,1248.9609 L1010.759,1258.9609 L1020.759,1258.9609 L1010.759,1248.9609 " fill="#F1E9D8" style="stroke:#C9B48F;stroke-width:0.5;"/><text fill="#000000" font-family="Roboto" font-size="13" lengthAdjust="spacing" textLength="144.7329" x="861.0261" y="1266.0215">ConflictDialog  &#8226;  shipped</text><rect fill="#FFFDF8" height="48.125" rx="5" ry="5" style="stroke:#8C6F56;stroke-width:0.5;" width="187.5254" x="647.5007" y="1237.5156"/><text fill="#000000" font-family="Roboto" font-size="12" lengthAdjust="spacing" textLength="167.5254" x="657.5007" y="1258.6484">Choose which progress to keep</text><text fill="#000000" font-family="Roboto" font-size="12" lengthAdjust="spacing" textLength="120.7441" x="657.5007" y="1272.7109">(mine / the newer one)</text><polygon fill="#F8F3E8" points="695.8965,1187.2891,786.6304,1187.2891,798.6304,1200.1797,786.6304,1213.0703,695.8965,1213.0703,683.8965,1200.1797,695.8965,1187.2891" style="stroke:#8C6F56;stroke-width:0.5;"/><text fill="#5A3E28" font-family="Roboto" font-size="11" lengthAdjust="spacing" textLength="47.7598" x="745.2634" y="1223.2754">yes, clash</text><text fill="#000000" font-family="Roboto" font-size="11" lengthAdjust="spacing" textLength="90.7339" x="695.8965" y="1197.4941">Did another device</text><text fill="#000000" font-family="Roboto" font-size="11" lengthAdjust="spacing" textLength="68.9595" x="706.8105" y="1210.3848">change it too?</text><text fill="#5A3E28" font-family="Roboto" font-size="11" lengthAdjust="spacing" textLength="12.3481" x="798.6304" y="1197.4941">no</text><polygon fill="#F8F3E8" points="741.2634,1305.6406,753.2634,1317.6406,741.2634,1329.6406,729.2634,1317.6406,741.2634,1305.6406" style="stroke:#8C6F56;stroke-width:0.5;"/><polygon fill="#F8F3E8" points="639.658,1335.6406,651.658,1347.6406,639.658,1359.6406,627.658,1347.6406,639.658,1335.6406" style="stroke:#8C6F56;stroke-width:0.5;"/><rect fill="#FFFDF8" height="34.0625" rx="5" ry="5" style="stroke:#8C6F56;stroke-width:0.5;" width="101.4863" x="588.9148" y="803"/><text fill="#000000" font-family="Roboto" font-size="12" lengthAdjust="spacing" textLength="81.4863" x="598.9148" y="824.1328">read a passage</text><polygon fill="#F8F3E8" points="592.1963,1379.6406,687.1196,1379.6406,699.1196,1391.6406,687.1196,1403.6406,592.1963,1403.6406,580.1963,1391.6406,592.1963,1379.6406" style="stroke:#8C6F56;stroke-width:0.5;"/><text fill="#5A3E28" font-family="Roboto" font-size="11" lengthAdjust="spacing" textLength="89.9497" x="643.658" y="1413.8457">reached an ending</text><text fill="#000000" font-family="Roboto" font-size="11" lengthAdjust="spacing" textLength="94.9233" x="592.1963" y="1395.4004">More story to read?</text><text fill="#5A3E28" font-family="Roboto" font-size="11" lengthAdjust="spacing" textLength="16.7148" x="699.1196" y="1388.9551">yes</text><path d="M751.906,1439.1738 L751.906,1455.4082 L731.906,1459.4082 L751.906,1463.4082 L751.906,1479.6426 A0,0 0 0 0 751.906,1479.6426 L1000.7805,1479.6426 A0,0 0 0 0 1000.7805,1479.6426 L1000.7805,1449.1738 L990.7805,1439.1738 L751.906,1439.1738 A0,0 0 0 0 751.906,1439.1738 " fill="#F1E9D8" style="stroke:#C9B48F;stroke-width:0.5;"/><path d="M990.7805,1439.1738 L990.7805,1449.1738 L1000.7805,1449.1738 L990.7805,1439.1738 " fill="#F1E9D8" style="stroke:#C9B48F;stroke-width:0.5;"/><text fill="#000000" font-family="Roboto" font-size="13" lengthAdjust="spacing" textLength="144.2949" x="757.906" y="1456.2344">ending screen  &#8226;  shipped</text><text fill="#000000" font-family="Roboto" font-size="13" lengthAdjust="spacing" textLength="227.8745" x="757.906" y="1471.4688">(restart + back to library, no rating here)</text><rect fill="#FFFDF8" height="48.125" rx="5" ry="5" style="stroke:#8C6F56;stroke-width:0.5;" width="184.4961" x="547.4099" y="1435.3457"/><text fill="#000000" font-family="Roboto" font-size="12" lengthAdjust="spacing" textLength="117.6152" x="557.4099" y="1456.4785">See the ending screen</text><text fill="#000000" font-family="Roboto" font-size="12" lengthAdjust="spacing" textLength="164.4961" x="557.4099" y="1470.541">(restart, or "back to my books")</text><rect fill="#FFFDF8" height="34.0625" rx="5" ry="5" style="stroke:#8C6F56;stroke-width:0.5;" width="135.9805" x="571.6677" y="1503.4707"/><text fill="#000000" font-family="Roboto" font-size="12" lengthAdjust="spacing" textLength="115.9805" x="581.6677" y="1524.6035">Go back to my Library</text><path d="M753.4968,1561.3613 L753.4968,1577.5957 L733.4968,1581.5957 L753.4968,1585.5957 L753.4968,1601.8301 A0,0 0 0 0 753.4968,1601.8301 L1006.6497,1601.8301 A0,0 0 0 0 1006.6497,1601.8301 L1006.6497,1571.3613 L996.6497,1561.3613 L753.4968,1561.3613 A0,0 0 0 0 753.4968,1561.3613 " fill="#F1E9D8" style="stroke:#C9B48F;stroke-width:0.5;"/><path d="M996.6497,1561.3613 L996.6497,1571.3613 L1006.6497,1571.3613 L996.6497,1561.3613 " fill="#F1E9D8" style="stroke:#C9B48F;stroke-width:0.5;"/><text fill="#000000" font-family="Roboto" font-size="13" lengthAdjust="spacing" textLength="201.3921" x="759.4968" y="1578.4219">StarRating on BookCard  &#8226;  shipped</text><text fill="#000000" font-family="Roboto" font-size="13" lengthAdjust="spacing" textLength="232.1528" x="759.4968" y="1593.6563">(rating lives in the library, not the reader)</text><rect fill="#FFFDF8" height="48.125" rx="5" ry="5" style="stroke:#8C6F56;stroke-width:0.5;" width="187.6777" x="545.8191" y="1557.5332"/><text fill="#000000" font-family="Roboto" font-size="12" lengthAdjust="spacing" textLength="167.6777" x="555.8191" y="1578.666">Rate a book by tapping its stars</text><text fill="#000000" font-family="Roboto" font-size="12" lengthAdjust="spacing" textLength="62.5781" x="555.8191" y="1592.7285">on the shelf</text><ellipse cx="639.658" cy="1636.6582" fill="none" rx="11" ry="11" style="stroke:#222222;stroke-width:1.0;"/><ellipse cx="639.658" cy="1636.6582" fill="#222222" rx="6" ry="6" style="stroke:#222222;stroke-width:1.0;"/><line style="stroke:#5A3E28;stroke-width:1.0;" x1="639.658" x2="639.658" y1="83.8125" y2="103.8125"/><polygon fill="#5A3E28" points="635.658,93.8125,639.658,103.8125,643.658,93.8125,639.658,97.8125" style="stroke:#5A3E28;stroke-width:1.0;"/><line style="stroke:#5A3E28;stroke-width:1.0;" x1="639.658" x2="639.658" y1="137.875" y2="157.875"/><polygon fill="#5A3E28" points="635.658,147.875,639.658,157.875,643.658,147.875,639.658,151.875" style="stroke:#5A3E28;stroke-width:1.0;"/><line style="stroke:#5A3E28;stroke-width:1.0;" x1="639.658" x2="639.658" y1="220.0625" y2="240.0625"/><polygon fill="#5A3E28" points="635.658,230.0625,639.658,240.0625,643.658,230.0625,639.658,234.0625" style="stroke:#5A3E28;stroke-width:1.0;"/><line style="stroke:#5A3E28;stroke-width:1.0;" x1="639.658" x2="639.658" y1="288.1875" y2="308.1875"/><polygon fill="#5A3E28" points="635.658,298.1875,639.658,308.1875,643.658,298.1875,639.658,302.1875" style="stroke:#5A3E28;stroke-width:1.0;"/><line style="stroke:#5A3E28;stroke-width:1.0;" x1="639.658" x2="639.658" y1="370.375" y2="390.375"/><polygon fill="#5A3E28" points="635.658,380.375,639.658,390.375,643.658,380.375,639.658,384.375" style="stroke:#5A3E28;stroke-width:1.0;"/><line style="stroke:#5A3E28;stroke-width:1.0;" x1="639.658" x2="639.658" y1="466.625" y2="486.625"/><polygon fill="#5A3E28" points="635.658,476.625,639.658,486.625,643.658,476.625,639.658,480.625" style="stroke:#5A3E28;stroke-width:1.0;"/><line style="stroke:#5A3E28;stroke-width:1.0;" x1="639.658" x2="639.658" y1="548.8125" y2="568.8125"/><polygon fill="#5A3E28" points="635.658,558.8125,639.658,568.8125,643.658,558.8125,639.658,562.8125" style="stroke:#5A3E28;stroke-width:1.0;"/><line style="stroke:#5A3E28;stroke-width:1.0;" x1="553.2705" x2="553.2705" y1="715" y2="738"/><polygon fill="#5A3E28" points="549.2705,728,553.2705,738,557.2705,728,553.2705,732" style="stroke:#5A3E28;stroke-width:1.0;"/><line style="stroke:#5A3E28;stroke-width:1.0;" x1="953.3066" x2="953.3066" y1="718" y2="741"/><polygon fill="#5A3E28" points="949.3066,731,953.3066,741,957.3066,731,953.3066,735" style="stroke:#5A3E28;stroke-width:1.0;"/><line style="stroke:#5A3E28;stroke-width:1.0;" x1="84.6689" x2="84.6689" y1="646.875" y2="679.7656"/><polygon fill="#5A3E28" points="80.6689,669.7656,84.6689,679.7656,88.6689,669.7656,84.6689,673.7656" style="stroke:#5A3E28;stroke-width:1.0;"/><line style="stroke:#5A3E28;stroke-width:1.0;" x1="84.6689" x2="84.6689" y1="713.8281" y2="783"/><polygon fill="#5A3E28" points="80.6689,773,84.6689,783,88.6689,773,84.6689,777" style="stroke:#5A3E28;stroke-width:1.0;"/><line style="stroke:#5A3E28;stroke-width:1.0;" x1="553.2705" x2="553.2705" y1="646.875" y2="666.875"/><polygon fill="#5A3E28" points="549.2705,656.875,553.2705,666.875,557.2705,656.875,553.2705,660.875" style="stroke:#5A3E28;stroke-width:1.0;"/><line style="stroke:#5A3E28;stroke-width:1.0;" x1="149.3379" x2="498.9597" y1="634.875" y2="634.875"/><polygon fill="#5A3E28" points="488.9597,630.875,498.9597,634.875,488.9597,638.875,492.9597,634.875" style="stroke:#5A3E28;stroke-width:1.0;"/><line style="stroke:#5A3E28;stroke-width:1.0;" x1="639.658" x2="639.658" y1="602.875" y2="607.875"/><line style="stroke:#5A3E28;stroke-width:1.0;" x1="639.658" x2="84.6689" y1="607.875" y2="607.875"/><line style="stroke:#5A3E28;stroke-width:1.0;" x1="84.6689" x2="84.6689" y1="607.875" y2="622.875"/><polygon fill="#5A3E28" points="80.6689,612.875,84.6689,622.875,88.6689,612.875,84.6689,616.875" style="stroke:#5A3E28;stroke-width:1.0;"/><line style="stroke:#5A3E28;stroke-width:1.0;" x1="607.5813" x2="953.3066" y1="634.875" y2="634.875"/><line style="stroke:#5A3E28;stroke-width:1.0;" x1="953.3066" x2="953.3066" y1="634.875" y2="669.875"/><polygon fill="#5A3E28" points="949.3066,659.875,953.3066,669.875,957.3066,659.875,953.3066,663.875" style="stroke:#5A3E28;stroke-width:1.0;"/><line style="stroke:#5A3E28;stroke-width:1.0;" x1="84.6689" x2="639.658" y1="783" y2="783"/><line style="stroke:#5A3E28;stroke-width:1.0;" x1="639.658" x2="639.658" y1="905.1875" y2="925.1875"/><polygon fill="#5A3E28" points="635.658,915.1875,639.658,925.1875,643.658,915.1875,639.658,919.1875" style="stroke:#5A3E28;stroke-width:1.0;"/><line style="stroke:#5A3E28;stroke-width:1.0;" x1="741.2634" x2="741.2634" y1="1103.5625" y2="1133.2266"/><polygon fill="#5A3E28" points="737.2634,1123.2266,741.2634,1133.2266,745.2634,1123.2266,741.2634,1127.2266" style="stroke:#5A3E28;stroke-width:1.0;"/><line style="stroke:#5A3E28;stroke-width:1.0;" x1="741.2634" x2="741.2634" y1="1213.0703" y2="1237.5156"/><polygon fill="#5A3E28" points="737.2634,1227.5156,741.2634,1237.5156,745.2634,1227.5156,741.2634,1231.5156" style="stroke:#5A3E28;stroke-width:1.0;"/><line style="stroke:#5A3E28;stroke-width:1.0;" x1="798.6304" x2="1030.759" y1="1200.1797" y2="1200.1797"/><polygon fill="#5A3E28" points="1026.759,1251.1328,1030.759,1261.1328,1034.759,1251.1328,1030.759,1255.1328" style="stroke:#5A3E28;stroke-width:1.0;"/><line style="stroke:#5A3E28;stroke-width:1.0;" x1="1030.759" x2="1030.759" y1="1200.1797" y2="1317.6406"/><line style="stroke:#5A3E28;stroke-width:1.0;" x1="1030.759" x2="753.2634" y1="1317.6406" y2="1317.6406"/><polygon fill="#5A3E28" points="763.2634,1313.6406,753.2634,1317.6406,763.2634,1321.6406,759.2634,1317.6406" style="stroke:#5A3E28;stroke-width:1.0;"/><line style="stroke:#5A3E28;stroke-width:1.0;" x1="741.2634" x2="741.2634" y1="1285.6406" y2="1305.6406"/><polygon fill="#5A3E28" points="737.2634,1295.6406,741.2634,1305.6406,745.2634,1295.6406,741.2634,1299.6406" style="stroke:#5A3E28;stroke-width:1.0;"/><line style="stroke:#5A3E28;stroke-width:1.0;" x1="741.2634" x2="741.2634" y1="1167.2891" y2="1187.2891"/><polygon fill="#5A3E28" points="737.2634,1177.2891,741.2634,1187.2891,745.2634,1177.2891,741.2634,1181.2891" style="stroke:#5A3E28;stroke-width:1.0;"/><line style="stroke:#5A3E28;stroke-width:1.0;" x1="597.6201" x2="538.0525" y1="1019.375" y2="1019.375"/><line style="stroke:#5A3E28;stroke-width:1.0;" x1="538.0525" x2="538.0525" y1="1019.375" y2="1041.375"/><polygon fill="#5A3E28" points="534.0525,1031.375,538.0525,1041.375,542.0525,1031.375,538.0525,1035.375" style="stroke:#5A3E28;stroke-width:1.0;"/><line style="stroke:#5A3E28;stroke-width:1.0;" x1="681.6958" x2="741.2634" y1="1019.375" y2="1019.375"/><line style="stroke:#5A3E28;stroke-width:1.0;" x1="741.2634" x2="741.2634" y1="1019.375" y2="1041.375"/><polygon fill="#5A3E28" points="737.2634,1031.375,741.2634,1041.375,745.2634,1031.375,741.2634,1035.375" style="stroke:#5A3E28;stroke-width:1.0;"/><line style="stroke:#5A3E28;stroke-width:1.0;" x1="538.0525" x2="538.0525" y1="1075.4375" y2="1347.6406"/><line style="stroke:#5A3E28;stroke-width:1.0;" x1="538.0525" x2="627.658" y1="1347.6406" y2="1347.6406"/><polygon fill="#5A3E28" points="617.658,1343.6406,627.658,1347.6406,617.658,1351.6406,621.658,1347.6406" style="stroke:#5A3E28;stroke-width:1.0;"/><line style="stroke:#5A3E28;stroke-width:1.0;" x1="741.2634" x2="741.2634" y1="1329.6406" y2="1347.6406"/><line style="stroke:#5A3E28;stroke-width:1.0;" x1="741.2634" x2="651.658" y1="1347.6406" y2="1347.6406"/><polygon fill="#5A3E28" points="661.658,1343.6406,651.658,1347.6406,661.658,1351.6406,657.658,1347.6406" style="stroke:#5A3E28;stroke-width:1.0;"/><line style="stroke:#5A3E28;stroke-width:1.0;" x1="639.658" x2="639.658" y1="987.375" y2="1007.375"/><polygon fill="#5A3E28" points="635.658,997.375,639.658,1007.375,643.658,997.375,639.658,1001.375" style="stroke:#5A3E28;stroke-width:1.0;"/><line style="stroke:#5A3E28;stroke-width:1.0;" x1="639.658" x2="639.658" y1="837.0625" y2="857.0625"/><polygon fill="#5A3E28" points="635.658,847.0625,639.658,857.0625,643.658,847.0625,639.658,851.0625" style="stroke:#5A3E28;stroke-width:1.0;"/><line style="stroke:#5A3E28;stroke-width:1.0;" x1="699.1196" x2="1064.759" y1="1391.6406" y2="1391.6406"/><polygon fill="#5A3E28" points="1060.759,1113.2266,1064.759,1103.2266,1068.759,1113.2266,1064.759,1109.2266" style="stroke:#5A3E28;stroke-width:1.0;"/><line style="stroke:#5A3E28;stroke-width:1.0;" x1="1064.759" x2="1064.759" y1="820.0313" y2="1391.6406"/><line style="stroke:#5A3E28;stroke-width:1.0;" x1="1064.759" x2="690.4011" y1="820.0313" y2="820.0313"/><polygon fill="#5A3E28" points="700.4011,816.0313,690.4011,820.0313,700.4011,824.0313,696.4011,820.0313" style="stroke:#5A3E28;stroke-width:1.0;"/><line style="stroke:#5A3E28;stroke-width:1.0;" x1="639.658" x2="639.658" y1="1359.6406" y2="1379.6406"/><polygon fill="#5A3E28" points="635.658,1369.6406,639.658,1379.6406,643.658,1369.6406,639.658,1373.6406" style="stroke:#5A3E28;stroke-width:1.0;"/><line style="stroke:#5A3E28;stroke-width:1.0;" x1="639.658" x2="639.658" y1="783" y2="803"/><polygon fill="#5A3E28" points="635.658,793,639.658,803,643.658,793,639.658,797" style="stroke:#5A3E28;stroke-width:1.0;"/><line style="stroke:#5A3E28;stroke-width:1.0;" x1="639.658" x2="639.658" y1="1403.6406" y2="1435.3457"/><polygon fill="#5A3E28" points="635.658,1425.3457,639.658,1435.3457,643.658,1425.3457,639.658,1429.3457" style="stroke:#5A3E28;stroke-width:1.0;"/><line style="stroke:#5A3E28;stroke-width:1.0;" x1="639.658" x2="639.658" y1="1483.4707" y2="1503.4707"/><polygon fill="#5A3E28" points="635.658,1493.4707,639.658,1503.4707,643.658,1493.4707,639.658,1497.4707" style="stroke:#5A3E28;stroke-width:1.0;"/><line style="stroke:#5A3E28;stroke-width:1.0;" x1="639.658" x2="639.658" y1="1537.5332" y2="1557.5332"/><polygon fill="#5A3E28" points="635.658,1547.5332,639.658,1557.5332,643.658,1547.5332,639.658,1551.5332" style="stroke:#5A3E28;stroke-width:1.0;"/><line style="stroke:#5A3E28;stroke-width:1.0;" x1="639.658" x2="639.658" y1="1605.6582" y2="1625.6582"/><polygon fill="#5A3E28" points="635.658,1615.6582,639.658,1625.6582,643.658,1615.6582,639.658,1619.6582" style="stroke:#5A3E28;stroke-width:1.0;"/><rect fill="none" height="112.4375" id="_legend" rx="5" ry="5" style="stroke:#000000;stroke-width:1.0;" width="491.749" x="391.6448" y="1658.6582"/><text fill="#000000" font-family="Roboto" font-size="14" font-weight="bold" lengthAdjust="spacing" textLength="33.2705" x="400.1311" y="1678.6465">Node</text><text fill="#000000" font-family="Roboto" font-size="14" font-weight="bold" lengthAdjust="spacing" textLength="54.7285" x="447.6614" y="1678.6465">Meaning</text><text fill="#000000" filter="url(#b1kpwcqeu1c7hr0)" font-family="Roboto" font-size="14" lengthAdjust="spacing" textLength="33.6396" x="403.5901" y="1695.0527">white</text><text fill="#000000" font-family="Roboto" font-size="14" lengthAdjust="spacing" textLength="175.1162" x="447.6477" y="1695.0527">Shipped in the kid app today</text><text fill="#000000" filter="url(#b1kpwcqeu1c7hr1)" font-family="Roboto" font-size="14" lengthAdjust="spacing" textLength="27.3779" x="403.5901" y="1711.459">rose</text><text fill="#000000" font-family="Roboto" font-size="14" lengthAdjust="spacing" textLength="129.6982" x="447.6477" y="1711.459">Planned, not yet built</text><line style="stroke:#000000;stroke-width:1.0;" x1="396.6448" x2="626.2366" y1="1665.6582" y2="1665.6582"/><line style="stroke:#000000;stroke-width:1.0;" x1="396.6448" x2="626.2366" y1="1682.0645" y2="1682.0645"/><line style="stroke:#000000;stroke-width:1.0;" x1="396.6448" x2="626.2366" y1="1698.4707" y2="1698.4707"/><line style="stroke:#000000;stroke-width:1.0;" x1="396.6448" x2="626.2366" y1="1714.877" y2="1714.877"/><line style="stroke:#000000;stroke-width:1.0;" x1="396.6448" x2="396.6448" y1="1665.6582" y2="1714.877"/><line style="stroke:#000000;stroke-width:1.0;" x1="444.175" x2="444.175" y1="1665.6582" y2="1714.877"/><line style="stroke:#000000;stroke-width:1.0;" x1="626.2366" x2="626.2366" y1="1665.6582" y2="1714.877"/><text fill="#000000" font-family="Roboto" font-size="14" lengthAdjust="spacing" textLength="481.749" x="396.6448" y="1729.8652">The kid surface is a separate route tree from the guardian console and shares</text><text fill="#000000" font-family="Roboto" font-size="14" lengthAdjust="spacing" textLength="460.9063" x="396.6448" y="1746.2715">no navigation. See journey-guardian for the parent side, journey-end-to-end</text><text fill="#000000" font-family="Roboto" font-size="14" lengthAdjust="spacing" textLength="390.2021" x="396.6448" y="1762.6777">for the whole loop, and journey-dev-coverage for test coverage.</text><!--SRC=[fLVTRjis5BxNKvow5x5HoqwJDaYSjaEJD4FNfGsI5js60WCjKHONcTH8Egw1NEnPzcXxads7b1p_PCM09XUooCFpn-zyvsY7Ndx7Nx93lnapbJbzSjAcRxxMqYgfCqddbPcFw9tAwNfc2v79P0V2bzRaiymFF_sIPfMmoYz8L5xvMIwfC9PyAIahLPMdEABqX4HTaz7LWhhMpBmaRwMaph3J6q3RUyF7L5MDQ5ugxBuaLwgwXZlUv6BH9siShzQLq1ghNMqyBQIdyKnLddL0oxMPMJZiCgZMReGLei8QxQNEXyvcms3P3hpxIjIzGKJthenesATXfSPMsCLmL5i3T-JR78jMYdmu60nwsmgXOtWPHIzLTYFjfPX8rhyjsgh-EJvRmJwT67DpAcmUtwwzi5V28sFVLdCb_vn9vw-ziOice9XkfPLNmYD7DehqwVDrUd8SL56RrZvDpKopbD7XhXgzLCClIbDok1rHgw5Z0xytgjoWNZoG1KwGj7297p6C-FkAqniNJeqkAfNvCoKgSnzRRZ8tT3E0hJPpQV6xbbZPszqxI7SFqltTj2w5a-apaKxD66bEPogTAoiBAwRIfRbqQg87qnpQlWl-2R1RIOPvsi2SVWASj5nyqTqj80EtnnkGxDCw99F4tIXT2_X9kIp4hFBdoDbxk4sTApCstdHMHCOYkva0ZZe_DHNgv_7vQ_vVaMWsuPAbfxih6wuKkPcpQuMed5pPUMsjcJVwdejzkNUukSak_QT0vjKj2ljaoxNpyxFp1oMDnQqtKeVPGV7yu04fG61gTBwbjZWizkNXDmvyK_jxu-Msfq_V79qTRagjwicEniyEYoIvUto-UtPqSdXtodTzbpZKeKz67sePwmEtVfoCFegQfc2wMu7jfBkNPgQQJJNLeVZxIIvSYPhAbCq09bK04rhsZXD0Gv9LazA3Pr2g3MTG98qUqJz__RsipIGPNJCtQZcdK7x41RPur4bGgqlhwqhXhfyv-55LMyf233ZNC4_IHIs2O6OoL2dZffJM94-eSs4isD0Gs1_9aHqeaLMnwVysIMwPv3nr6eeY4QFe94BdvCG252yyAR_ZI8p144aN5z5PEkLBvTeJ21YdkHCv6eCdDrnP9S47YMpDho_QnSfs7AEWoGoiguGUYdogT5Yh4TAj9FYJownIMgBujG5N0Z0WPPZ8fHUg8dcBAdIbcOTposRNYrU7PFDEovexIS6zD4VpY_UKT3yBnHmFCFmg5e_m031Zv5vDDn7Jji8OJUTYiTJSGRZE8-4C98J4EJfEm8KInMr9VbKUISQb0a5LdppEG4yjVEaIeBFxrWNV8yg0ArM9SIL_wF6gfkv2kbv2D8fiJWP0MZbmZAqrO8H6UO-AuIY8iK_yWemvpk0wLYGOYpr1icy8uKz5XV41SqZqWQrpHWKjKyX1zQDfBEUmITZOTARDMJSsfm7tbT6zTc9x71jSh8CJr8rPO1-KSxYSNckymwOAffLEQvYJO8g28KAPgHV_qtnK7DDtRrtd2WnaPIrH5oC-WS1guHmWVDpcFvXi5h7MvQee-ZIHw0S6fU_gq9vwuS25kE6SPQLHMPJ6QDUySd6X24kLvo6_60C0wEMjfWnH7AumzhdULboycKx2V76hd49Bvj5l_Kw9cQ_xUaflUU93YZO1nHwYGgsPMEdWZxY5Ly91VcBOOhoF9h_DWNTIre48GwEpPiegmnQQdwuCqfo7g-Wl5OVTkU0QK4mag9bPIEXwJ8sTj50MRBKP2an_u5BE3Bfynhn5Rg4p5_Lme6SO90KKWaK1nzkOSKAsXGO5GTuRivg1Fc5YTcMC2-fFIyEJ10RVhBnF2cZb1Y4tGjqf8sqOhWbzWOinD9QuknhD-g3rG3WnkTf4-n5yxRF185n1S-g6TX2h0jvmxX46wYDSOoW3XdV67K_ee86B9b8WEnfNcdayWMnegdscrmxFEwmLLCa4uJeRdBTsTfF7MrNqX5ez3Utp54OspC_SrG2UqO-6LemrJH2z_2h0F5YdCI84-VCfHWihTqdJK48FN7VkVaZdhjCEyDjUHf5ACRpLMdlgBraa4aGl2LIGL185dSCfxyqKrtBtCduRuNaXXMPrTxpyWaCQDPFOAsg-ckZ5aDTVtT5rmp-DLVxMuRarV4ojQzW_Epfx1WrXcbtHSFdWM1lEVcmqDksK8S5TcYSipj7zvrrRfijMYmBLpW1ROHGeqPbS81ZIubPDGeST4CFdZpXxfyk3xJSbZ4YD4bIvx2-baBBK6tv0MoivBzbGPKpT3-PQOPGenZPq8nuGWZ0FAUtAWEautaBoBm00]--></g></svg>
