<svg xmlns="http://www.w3.org/2000/svg" xmlns:xlink="http://www.w3.org/1999/xlink" contentStyleType="text/css" height="1666px" preserveAspectRatio="none" style="width:2126px;height:1666px;background:#FAFAFA;" version="1.1" viewBox="0 0 2126 1666" width="2126px" zoomAndPan="magnify"><title>Guardian + Admin Surface Journey</title><defs><style type="text/css">@import url('https://fonts.googleapis.com/css?family=Roboto:400,100,100italic,300,300italic,400italic,500,500italic,700,700italic,900,900italic');</style><filter height="1" id="b1ets1t15gwuog0" width="1" x="0" y="0"><feFlood flood-color="#FFFDF8" result="flood"/><feComposite in="SourceGraphic" in2="flood" operator="over"/></filter><filter height="1" id="b1ets1t15gwuog1" width="1" x="0" y="0"><feFlood flood-color="#F3D9D4" result="flood"/><feComposite in="SourceGraphic" in2="flood" operator="over"/></filter></defs><g><rect fill="#FAFAFA" height="1666" style="stroke:none;stroke-width:1.0;" width="2126" x="0" y="0"/><text fill="#000000" font-family="Roboto" font-size="14" font-weight="bold" lengthAdjust="spacing" textLength="274.0527" x="924.8352" y="32.9951">Guardian + Admin Surface Journey</text><text fill="#000000" font-family="Roboto" font-size="14" font-weight="bold" lengthAdjust="spacing" textLength="498.791" x="812.4661" y="49.292">("/guardian"; rose = planned. Approve is admin-only, ADR-005)</text><rect fill="none" height="20.9531" style="stroke:none;stroke-width:1.0;" width="2097.7231" x="11" y="66.3389"/><rect fill="#CDDCEC" height="1353.73" style="stroke:#CDDCEC;stroke-width:1.0;" width="811.2715" x="18.5452" y="66.3389"/><ellipse cx="266.1311" cy="102.292" fill="#222222" rx="10" ry="10" style="stroke:#222222;stroke-width:1.0;"/><path d="M378.6487,122.292 L378.6487,161.124 L358.6487,165.124 L378.6487,169.124 L378.6487,207.9561 A0,0 0 0 0 378.6487,207.9561 L721.3289,207.9561 A0,0 0 0 0 721.3289,207.9561 L721.3289,132.292 L711.3289,122.292 L378.6487,122.292 A0,0 0 0 0 378.6487,122.292 " fill="#F1E9D8" style="stroke:#C9B48F;stroke-width:0.5;"/><path d="M711.3289,122.292 L711.3289,132.292 L721.3289,132.292 L711.3289,122.292 " fill="#F1E9D8" style="stroke:#C9B48F;stroke-width:0.5;"/><text fill="#000000" font-family="Roboto" font-size="13" lengthAdjust="spacing" textLength="173.875" x="384.6487" y="139.3589">/guardian/login  &#8226;  shipped</text><text fill="#000000" font-family="Roboto" font-size="13" lengthAdjust="spacing" textLength="295.439" x="384.6487" y="154.4917">ADR-014 -- conditional now: only a cold entry</text><text fill="#000000" font-family="Roboto" font-size="13" lengthAdjust="spacing" textLength="313.3394" x="384.6487" y="169.6245">or a step-up crossing UP from kid mode reaches</text><text fill="#000000" font-family="Roboto" font-size="13" lengthAdjust="spacing" textLength="321.6802" x="384.6487" y="184.7573">this (or the "Grown-ups only" password re-entry);</text><text fill="#000000" font-family="Roboto" font-size="13" lengthAdjust="spacing" textLength="286.3491" x="384.6487" y="199.8901">adult&lt;-&gt;adult navigation is free once warm</text><rect fill="#FFFDF8" height="61.9063" rx="5" ry="5" style="stroke:#8C6F56;stroke-width:0.5;" width="185.0352" x="173.6135" y="134.1709"/><text fill="#000000" font-family="Roboto" font-size="12" lengthAdjust="spacing" textLength="40.9277" x="183.6135" y="155.3096">Sign in</text><text fill="#000000" font-family="Roboto" font-size="12" lengthAdjust="spacing" textLength="165.0352" x="183.6135" y="169.2783">(email/password or Google,</text><text fill="#000000" font-family="Roboto" font-size="12" lengthAdjust="spacing" textLength="132.2285" x="183.6135" y="183.2471">Apple if the flag is on)</text><path d="M527.717,239.3584 L527.717,247.9248 L507.717,251.9248 L527.717,255.9248 L527.717,264.4912 A0,0 0 0 0 527.717,264.4912 L809.7263,264.4912 A0,0 0 0 0 809.7263,264.4912 L809.7263,249.3584 L799.7263,239.3584 L527.717,239.3584 A0,0 0 0 0 527.717,239.3584 " fill="#F1E9D8" style="stroke:#C9B48F;stroke-width:0.5;"/><path d="M799.7263,239.3584 L799.7263,249.3584 L809.7263,249.3584 L799.7263,239.3584 " fill="#F1E9D8" style="stroke:#C9B48F;stroke-width:0.5;"/><text fill="#000000" font-family="Roboto" font-size="13" lengthAdjust="spacing" textLength="261.0093" x="533.717" y="256.4253">AdultGate + ProtectedRoute  &#8226;  shipped</text><rect fill="#FFFDF8" height="47.9375" rx="5" ry="5" style="stroke:#8C6F56;stroke-width:0.5;" width="483.1719" x="24.5452" y="227.9561"/><text fill="#000000" font-family="Roboto" font-size="12" lengthAdjust="spacing" textLength="122.9824" x="34.5452" y="249.0947">Land on the Console</text><text fill="#000000" font-family="Roboto" font-size="12" lengthAdjust="spacing" textLength="463.1719" x="34.5452" y="263.0635">(role-based: admin-only -&gt; /admin;\nguardian-only or dual-role -&gt; /guardian)</text><path d="M376.8264,307.2959 L376.8264,315.8623 L356.8264,319.8623 L376.8264,323.8623 L376.8264,332.4287 A0,0 0 0 0 376.8264,332.4287 L588.1545,332.4287 A0,0 0 0 0 588.1545,332.4287 L588.1545,317.2959 L578.1545,307.2959 L376.8264,307.2959 A0,0 0 0 0 376.8264,307.2959 " fill="#F1E9D8" style="stroke:#C9B48F;stroke-width:0.5;"/><path d="M578.1545,307.2959 L578.1545,317.2959 L588.1545,317.2959 L578.1545,307.2959 " fill="#F1E9D8" style="stroke:#C9B48F;stroke-width:0.5;"/><text fill="#000000" font-family="Roboto" font-size="13" lengthAdjust="spacing" textLength="190.3281" x="382.8264" y="324.3628">/guardian/profiles  &#8226;  shipped</text><rect fill="#FFFDF8" height="47.9375" rx="5" ry="5" style="stroke:#8C6F56;stroke-width:0.5;" width="181.3906" x="175.4358" y="295.8936"/><text fill="#000000" font-family="Roboto" font-size="12" lengthAdjust="spacing" textLength="161.3906" x="185.4358" y="317.0322">Add or edit a child's profile</text><text fill="#000000" font-family="Roboto" font-size="12" lengthAdjust="spacing" textLength="141.9668" x="185.4358" y="331.001">(name + preset avatar)</text><path d="M365.4768,367.085 L365.4768,390.7842 L345.4768,394.7842 L365.4768,398.7842 L365.4768,422.4834 A0,0 0 0 0 365.4768,422.4834 L706.6589,422.4834 A0,0 0 0 0 706.6589,422.4834 L706.6589,377.085 L696.6589,367.085 L365.4768,367.085 A0,0 0 0 0 365.4768,367.085 " fill="#F1E9D8" style="stroke:#C9B48F;stroke-width:0.5;"/><path d="M696.6589,367.085 L696.6589,377.085 L706.6589,377.085 L696.6589,367.085 " fill="#F1E9D8" style="stroke:#C9B48F;stroke-width:0.5;"/><text fill="#000000" font-family="Roboto" font-size="13" lengthAdjust="spacing" textLength="198.6816" x="371.4768" y="384.1519">/guardian/requests  &#8226;  shipped</text><text fill="#000000" font-family="Roboto" font-size="13" lengthAdjust="spacing" textLength="250.2881" x="371.4768" y="399.2847">(guardian-own-family or admin-global;</text><text fill="#000000" font-family="Roboto" font-size="13" lengthAdjust="spacing" textLength="320.1821" x="371.4768" y="414.4175">NOT admin-only, unlike the approval gate below)</text><rect fill="#FFFDF8" height="61.9063" rx="5" ry="5" style="stroke:#8C6F56;stroke-width:0.5;" width="158.6914" x="186.7854" y="363.8311"/><text fill="#000000" font-family="Roboto" font-size="12" lengthAdjust="spacing" textLength="127.3242" x="196.7854" y="384.9697">Open Story requests,</text><text fill="#000000" font-family="Roboto" font-size="12" lengthAdjust="spacing" textLength="133.9102" x="196.7854" y="398.9385">review my child's idea</text><text fill="#000000" font-family="Roboto" font-size="12" lengthAdjust="spacing" textLength="138.6914" x="196.7854" y="412.9072">(screened text + flags)</text><path d="M369.1799,456.5576 L369.1799,472.6904 L349.1799,476.6904 L369.1799,480.6904 L369.1799,496.8232 A0,0 0 0 0 369.1799,496.8232 L632.0828,496.8232 A0,0 0 0 0 632.0828,496.8232 L632.0828,466.5576 L622.0828,456.5576 L369.1799,456.5576 A0,0 0 0 0 369.1799,456.5576 " fill="#F1E9D8" style="stroke:#C9B48F;stroke-width:0.5;"/><path d="M622.0828,456.5576 L622.0828,466.5576 L632.0828,466.5576 L622.0828,456.5576 " fill="#F1E9D8" style="stroke:#C9B48F;stroke-width:0.5;"/><text fill="#000000" font-family="Roboto" font-size="13" lengthAdjust="spacing" textLength="241.9028" x="375.1799" y="473.6245">shipped  &#8226;  approve builds a Concept</text><text fill="#000000" font-family="Roboto" font-size="13" lengthAdjust="spacing" textLength="167.1592" x="375.1799" y="488.7573">and enqueues generation</text><rect fill="#FFFDF8" height="61.9063" rx="5" ry="5" style="stroke:#8C6F56;stroke-width:0.5;" width="166.0977" x="183.0823" y="445.7373"/><text fill="#000000" font-family="Roboto" font-size="12" lengthAdjust="spacing" textLength="129.5742" x="193.0823" y="466.876">Set age band, length,</text><text fill="#000000" font-family="Roboto" font-size="12" lengthAdjust="spacing" textLength="119.0742" x="193.0823" y="480.8447">optional series title,</text><text fill="#000000" font-family="Roboto" font-size="12" lengthAdjust="spacing" textLength="146.0977" x="193.0823" y="494.8135">then Approve or Decline</text><path d="M380.1077,539.0459 L380.1077,547.6123 L360.1077,551.6123 L380.1077,555.6123 L380.1077,564.1787 A0,0 0 0 0 380.1077,564.1787 L583.7551,564.1787 A0,0 0 0 0 583.7551,564.1787 L583.7551,549.0459 L573.7551,539.0459 L380.1077,539.0459 A0,0 0 0 0 380.1077,539.0459 " fill="#F1E9D8" style="stroke:#C9B48F;stroke-width:0.5;"/><path d="M573.7551,539.0459 L573.7551,549.0459 L583.7551,549.0459 L573.7551,539.0459 " fill="#F1E9D8" style="stroke:#C9B48F;stroke-width:0.5;"/><text fill="#000000" font-family="Roboto" font-size="13" lengthAdjust="spacing" textLength="182.6475" x="386.1077" y="556.1128">/guardian/intake  &#8226;  shipped</text><rect fill="#FFFDF8" height="47.9375" rx="5" ry="5" style="stroke:#8C6F56;stroke-width:0.5;" width="187.9531" x="172.1545" y="527.6436"/><text fill="#000000" font-family="Roboto" font-size="12" lengthAdjust="spacing" textLength="167.9531" x="182.1545" y="548.7822">Request a story from Intake</text><text fill="#000000" font-family="Roboto" font-size="12" lengthAdjust="spacing" textLength="167.1914" x="182.1545" y="562.751">("Who's it for?", topic, tone)</text><path d="M361.0237,606.9834 L361.0237,615.5498 L341.0237,619.5498 L361.0237,623.5498 L361.0237,632.1162 A0,0 0 0 0 361.0237,632.1162 L566.0676,632.1162 A0,0 0 0 0 566.0676,632.1162 L566.0676,616.9834 L556.0676,606.9834 L361.0237,606.9834 A0,0 0 0 0 361.0237,606.9834 " fill="#F1E9D8" style="stroke:#C9B48F;stroke-width:0.5;"/><path d="M556.0676,606.9834 L556.0676,616.9834 L566.0676,616.9834 L556.0676,606.9834 " fill="#F1E9D8" style="stroke:#C9B48F;stroke-width:0.5;"/><text fill="#000000" font-family="Roboto" font-size="13" lengthAdjust="spacing" textLength="184.0439" x="367.0237" y="624.0503">intake job status  &#8226;  shipped</text><rect fill="#FFFDF8" height="47.9375" rx="5" ry="5" style="stroke:#8C6F56;stroke-width:0.5;" width="149.7852" x="191.2385" y="595.5811"/><text fill="#000000" font-family="Roboto" font-size="12" lengthAdjust="spacing" textLength="129.7852" x="201.2385" y="616.7197">Watch "My Requests"</text><text fill="#000000" font-family="Roboto" font-size="12" lengthAdjust="spacing" textLength="124.5293" x="201.2385" y="630.6885">show "Generating..."</text><path d="M374.9836,1113.2563 L374.9836,1121.8228 L354.9836,1125.8228 L374.9836,1129.8228 L374.9836,1138.3892 A0,0 0 0 0 374.9836,1138.3892 L513.1741,1138.3892 A0,0 0 0 0 513.1741,1138.3892 L513.1741,1123.2563 L503.1741,1113.2563 L374.9836,1113.2563 A0,0 0 0 0 374.9836,1113.2563 " fill="#F1E9D8" style="stroke:#C9B48F;stroke-width:0.5;"/><path d="M503.1741,1113.2563 L503.1741,1123.2563 L513.1741,1123.2563 L503.1741,1113.2563 " fill="#F1E9D8" style="stroke:#C9B48F;stroke-width:0.5;"/><text fill="#000000" font-family="Roboto" font-size="13" lengthAdjust="spacing" textLength="117.1904" x="380.9836" y="1130.3232">assign  &#8226;  shipped</text><rect fill="#FFFDF8" height="47.9375" rx="5" ry="5" style="stroke:#8C6F56;stroke-width:0.5;" width="177.7051" x="177.2786" y="1101.854"/><text fill="#000000" font-family="Roboto" font-size="12" lengthAdjust="spacing" textLength="157.7051" x="187.2786" y="1122.9927">Assign the approved story</text><text fill="#000000" font-family="Roboto" font-size="12" lengthAdjust="spacing" textLength="127.2598" x="187.2786" y="1136.9614">to the child it was for</text><path d="M398.2043,1229.5962 L398.2043,1238.1626 L378.2043,1242.1626 L398.2043,1246.1626 L398.2043,1254.729 A0,0 0 0 0 398.2043,1254.729 L633.1013,1254.729 A0,0 0 0 0 633.1013,1254.729 L633.1013,1239.5962 L623.1013,1229.5962 L398.2043,1229.5962 A0,0 0 0 0 398.2043,1229.5962 " fill="#F1E9D8" style="stroke:#C9B48F;stroke-width:0.5;"/><path d="M623.1013,1229.5962 L623.1013,1239.5962 L633.1013,1239.5962 L623.1013,1229.5962 " fill="#F1E9D8" style="stroke:#C9B48F;stroke-width:0.5;"/><text fill="#000000" font-family="Roboto" font-size="13" lengthAdjust="spacing" textLength="213.897" x="404.2043" y="1246.6631">AssignChildrenDialog  &#8226;  shipped</text><rect fill="#FFFDF8" height="47.9375" rx="5" ry="5" style="stroke:#8C6F56;stroke-width:0.5;" width="224.1465" x="154.0579" y="1218.1938"/><text fill="#000000" font-family="Roboto" font-size="12" lengthAdjust="spacing" textLength="167.1445" x="164.0579" y="1239.3325">"Assign more" -&gt; pick more</text><text fill="#000000" font-family="Roboto" font-size="12" lengthAdjust="spacing" textLength="204.1465" x="164.0579" y="1253.3013">children (adds only the new ones)</text><polygon fill="#F8F3E8" points="204.9141,1169.7915,327.3481,1169.7915,339.3481,1181.7915,327.3481,1193.7915,204.9141,1193.7915,192.9141,1181.7915,204.9141,1169.7915" style="stroke:#8C6F56;stroke-width:0.5;"/><text fill="#5A3E28" font-family="Roboto" font-size="11" lengthAdjust="spacing" textLength="19.0083" x="270.1311" y="1204.002">yes</text><text fill="#000000" font-family="Roboto" font-size="11" lengthAdjust="spacing" textLength="122.4341" x="204.9141" y="1185.5996">Give it to siblings too?</text><text fill="#5A3E28" font-family="Roboto" font-size="11" lengthAdjust="spacing" textLength="13.7017" x="339.3481" y="1179.1973">no</text><polygon fill="#F8F3E8" points="266.1311,1286.1313,278.1311,1298.1313,266.1311,1310.1313,254.1311,1298.1313,266.1311,1286.1313" style="stroke:#8C6F56;stroke-width:0.5;"/><path d="M384.3528,1341.5337 L384.3528,1350.1001 L364.3528,1354.1001 L384.3528,1358.1001 L384.3528,1366.6665 A0,0 0 0 0 384.3528,1366.6665 L572.4675,1366.6665 A0,0 0 0 0 572.4675,1366.6665 L572.4675,1351.5337 L562.4675,1341.5337 L384.3528,1341.5337 A0,0 0 0 0 384.3528,1341.5337 " fill="#F1E9D8" style="stroke:#C9B48F;stroke-width:0.5;"/><path d="M562.4675,1341.5337 L562.4675,1351.5337 L572.4675,1351.5337 L562.4675,1341.5337 " fill="#F1E9D8" style="stroke:#C9B48F;stroke-width:0.5;"/><text fill="#000000" font-family="Roboto" font-size="13" lengthAdjust="spacing" textLength="167.1147" x="390.3528" y="1358.6006">crosses to the kid surface</text><rect fill="#FFFDF8" height="47.9375" rx="5" ry="5" style="stroke:#8C6F56;stroke-width:0.5;" width="196.4434" x="167.9094" y="1330.1313"/><text fill="#000000" font-family="Roboto" font-size="12" lengthAdjust="spacing" textLength="176.4434" x="177.9094" y="1351.27">The child's avatar now shows</text><text fill="#000000" font-family="Roboto" font-size="12" lengthAdjust="spacing" textLength="113.0039" x="177.9094" y="1365.2388">"new story ready!"</text><ellipse cx="266.1311" cy="1409.0688" fill="none" rx="11" ry="11" style="stroke:#222222;stroke-width:1.0;"/><ellipse cx="266.1311" cy="1409.0688" fill="#222222" rx="6" ry="6" style="stroke:#222222;stroke-width:1.0;"/><line style="stroke:#000000;stroke-width:1.5;" x1="18.5452" x2="18.5452" y1="66.3389" y2="1420.0688"/><rect fill="#C5D9CC" height="1353.73" style="stroke:#C5D9CC;stroke-width:1.0;" width="797.2715" x="822.2715" y="66.3389"/><path d="M1038.3867,796.2451 L1038.3867,812.3779 L1018.3867,816.3779 L1038.3867,820.3779 L1038.3867,836.5107 A0,0 0 0 0 1038.3867,836.5107 L1441.4902,836.5107 A0,0 0 0 0 1441.4902,836.5107 L1441.4902,806.2451 L1431.4902,796.2451 L1038.3867,796.2451 A0,0 0 0 0 1038.3867,796.2451 " fill="#F1E9D8" style="stroke:#C9B48F;stroke-width:0.5;"/><path d="M1431.4902,796.2451 L1431.4902,806.2451 L1441.4902,806.2451 L1431.4902,796.2451 " fill="#F1E9D8" style="stroke:#C9B48F;stroke-width:0.5;"/><text fill="#000000" font-family="Roboto" font-size="13" lengthAdjust="spacing" textLength="230.9214" x="1044.3867" y="813.312">/admin  (Review queue)  &#8226;  shipped</text><text fill="#000000" font-family="Roboto" font-size="13" lengthAdjust="spacing" textLength="382.1035" x="1044.3867" y="828.4448">(the review queue moved here from the guardian console)</text><rect fill="#FFFDF8" height="61.9063" rx="5" ry="5" style="stroke:#8C6F56;stroke-width:0.5;" width="160.7305" x="857.6563" y="785.4248"/><text fill="#000000" font-family="Roboto" font-size="12" lengthAdjust="spacing" textLength="140.7305" x="867.6563" y="806.5635">Open the review queue</text><text fill="#000000" font-family="Roboto" font-size="12" lengthAdjust="spacing" textLength="132.8555" x="867.6563" y="820.5322">(Flagged, then Ready,</text><text fill="#000000" font-family="Roboto" font-size="12" lengthAdjust="spacing" textLength="126.8672" x="867.6563" y="834.501">then Still processing)</text><path d="M1063.1543,900.7178 L1063.1543,909.2842 L1043.1543,913.2842 L1063.1543,917.2842 L1063.1543,925.8506 A0,0 0 0 0 1063.1543,925.8506 L1337.8955,925.8506 A0,0 0 0 0 1337.8955,925.8506 L1337.8955,910.7178 L1327.8955,900.7178 L1063.1543,900.7178 A0,0 0 0 0 1063.1543,900.7178 " fill="#F1E9D8" style="stroke:#C9B48F;stroke-width:0.5;"/><path d="M1327.8955,900.7178 L1327.8955,910.7178 L1337.8955,910.7178 L1327.8955,900.7178 " fill="#F1E9D8" style="stroke:#C9B48F;stroke-width:0.5;"/><text fill="#000000" font-family="Roboto" font-size="13" lengthAdjust="spacing" textLength="253.7412" x="1069.1543" y="917.7847">/admin/review/:storybookId  &#8226;  shipped</text><rect fill="#FFFDF8" height="61.9063" rx="5" ry="5" style="stroke:#8C6F56;stroke-width:0.5;" width="210.2656" x="832.8887" y="882.3311"/><text fill="#000000" font-family="Roboto" font-size="12" lengthAdjust="spacing" textLength="190.2656" x="842.8887" y="903.4697">Open a story: flagged passages</text><text fill="#000000" font-family="Roboto" font-size="12" lengthAdjust="spacing" textLength="131.9063" x="842.8887" y="917.4385">first, then the full text</text><text fill="#000000" font-family="Roboto" font-size="12" lengthAdjust="spacing" textLength="166.0371" x="842.8887" y="931.4072">with flags highlighted inline</text><rect fill="#FFFDF8" height="33.9688" rx="5" ry="5" style="stroke:#8C6F56;stroke-width:0.5;" width="171.7813" x="852.1309" y="731.4561"/><text fill="#000000" font-family="Roboto" font-size="12" lengthAdjust="spacing" textLength="151.7813" x="862.1309" y="752.5947">pick the top of the queue</text><polygon fill="#F8F3E8" points="893.6858,964.2373,982.3572,964.2373,994.3572,976.2373,982.3572,988.2373,893.6858,988.2373,881.6858,976.2373,893.6858,964.2373" style="stroke:#8C6F56;stroke-width:0.5;"/><text fill="#5A3E28" font-family="Roboto" font-size="11" lengthAdjust="spacing" textLength="84.4229" x="942.0215" y="998.4478">yes -&gt; approve</text><text fill="#000000" font-family="Roboto" font-size="11" lengthAdjust="spacing" textLength="88.6714" x="893.6858" y="980.0454">Safe for a child?</text><text fill="#5A3E28" font-family="Roboto" font-size="11" lengthAdjust="spacing" textLength="13.7017" x="994.3572" y="973.6431">no</text><rect fill="#FFFDF8" height="47.9375" rx="5" ry="5" style="stroke:#8C6F56;stroke-width:0.5;" width="164.0527" x="1451.4902" y="835.8779"/><text fill="#000000" font-family="Roboto" font-size="12" lengthAdjust="spacing" textLength="133.8457" x="1461.4902" y="857.0166">Send back with a note</text><text fill="#000000" font-family="Roboto" font-size="12" lengthAdjust="spacing" textLength="144.0527" x="1461.4902" y="870.9854">-&gt; the story is rewritten</text><rect fill="#FFFDF8" height="61.9063" rx="5" ry="5" style="stroke:#8C6F56;stroke-width:0.5;" width="219.5" x="828.2715" y="1019.9478"/><text fill="#000000" font-family="Roboto" font-size="12" lengthAdjust="spacing" textLength="50.2031" x="838.2715" y="1041.0864">Approve</text><text fill="#000000" font-family="Roboto" font-size="12" lengthAdjust="spacing" textLength="199.5" x="838.2715" y="1055.0552">(recorded human gate, ADR-005.</text><text fill="#000000" font-family="Roboto" font-size="12" lengthAdjust="spacing" textLength="147.3926" x="838.2715" y="1069.0239">Guardians get 403 here)</text><line style="stroke:#000000;stroke-width:1.5;" x1="822.2715" x2="822.2715" y1="66.3389" y2="1420.0688"/><rect fill="#E4E4E4" height="1353.73" style="stroke:#E4E4E4;stroke-width:1.0;" width="460.1802" x="1634.543" y="66.3389"/><path d="M1805.3477,667.3545 L1805.3477,683.4873 L1785.3477,687.4873 L1805.3477,691.4873 L1805.3477,707.6201 A0,0 0 0 0 1805.3477,707.6201 L2082.7231,707.6201 A0,0 0 0 0 2082.7231,707.6201 L2082.7231,677.3545 L2072.7231,667.3545 L1805.3477,667.3545 A0,0 0 0 0 1805.3477,667.3545 " fill="#F1E9D8" style="stroke:#C9B48F;stroke-width:0.5;"/><path d="M2072.7231,667.3545 L2072.7231,677.3545 L2082.7231,677.3545 L2072.7231,667.3545 " fill="#F1E9D8" style="stroke:#C9B48F;stroke-width:0.5;"/><text fill="#000000" font-family="Roboto" font-size="13" lengthAdjust="spacing" textLength="256.3755" x="1811.3477" y="684.4214">generation + validator gate  &#8226;  shipped</text><text fill="#000000" font-family="Roboto" font-size="13" lengthAdjust="spacing" textLength="143.4634" x="1811.3477" y="699.5542">detail: seq-generation</text><rect fill="#FFFDF8" height="47.9375" rx="5" ry="5" style="stroke:#8C6F56;stroke-width:0.5;" width="144.8047" x="1640.543" y="663.5186"/><text fill="#000000" font-family="Roboto" font-size="12" lengthAdjust="spacing" textLength="124.8047" x="1650.543" y="684.6572">Write the story, then</text><text fill="#000000" font-family="Roboto" font-size="12" lengthAdjust="spacing" textLength="123.4336" x="1650.543" y="698.626">run the safety check</text><line style="stroke:#000000;stroke-width:1.5;" x1="1634.543" x2="1634.543" y1="66.3389" y2="1420.0688"/><line style="stroke:#000000;stroke-width:1.5;" x1="2109.7231" x2="2109.7231" y1="66.3389" y2="1420.0688"/><line style="stroke:#5A3E28;stroke-width:1.0;" x1="266.1311" x2="266.1311" y1="112.292" y2="134.1709"/><polygon fill="#5A3E28" points="262.1311,124.1709,266.1311,134.1709,270.1311,124.1709,266.1311,128.1709" style="stroke:#5A3E28;stroke-width:1.0;"/><line style="stroke:#5A3E28;stroke-width:1.0;" x1="266.1311" x2="266.1311" y1="196.0771" y2="227.9561"/><polygon fill="#5A3E28" points="262.1311,217.9561,266.1311,227.9561,270.1311,217.9561,266.1311,221.9561" style="stroke:#5A3E28;stroke-width:1.0;"/><line style="stroke:#5A3E28;stroke-width:1.0;" x1="266.1311" x2="266.1311" y1="275.8936" y2="295.8936"/><polygon fill="#5A3E28" points="262.1311,285.8936,266.1311,295.8936,270.1311,285.8936,266.1311,289.8936" style="stroke:#5A3E28;stroke-width:1.0;"/><line style="stroke:#5A3E28;stroke-width:1.0;" x1="266.1311" x2="266.1311" y1="343.8311" y2="363.8311"/><polygon fill="#5A3E28" points="262.1311,353.8311,266.1311,363.8311,270.1311,353.8311,266.1311,357.8311" style="stroke:#5A3E28;stroke-width:1.0;"/><line style="stroke:#5A3E28;stroke-width:1.0;" x1="266.1311" x2="266.1311" y1="425.7373" y2="445.7373"/><polygon fill="#5A3E28" points="262.1311,435.7373,266.1311,445.7373,270.1311,435.7373,266.1311,439.7373" style="stroke:#5A3E28;stroke-width:1.0;"/><line style="stroke:#5A3E28;stroke-width:1.0;" x1="266.1311" x2="266.1311" y1="507.6436" y2="527.6436"/><polygon fill="#5A3E28" points="262.1311,517.6436,266.1311,527.6436,270.1311,517.6436,266.1311,521.6436" style="stroke:#5A3E28;stroke-width:1.0;"/><line style="stroke:#5A3E28;stroke-width:1.0;" x1="266.1311" x2="266.1311" y1="575.5811" y2="595.5811"/><polygon fill="#5A3E28" points="262.1311,585.5811,266.1311,595.5811,270.1311,585.5811,266.1311,589.5811" style="stroke:#5A3E28;stroke-width:1.0;"/><line style="stroke:#5A3E28;stroke-width:1.0;" x1="266.1311" x2="266.1311" y1="1193.7915" y2="1218.1938"/><polygon fill="#5A3E28" points="262.1311,1208.1938,266.1311,1218.1938,270.1311,1208.1938,266.1311,1212.1938" style="stroke:#5A3E28;stroke-width:1.0;"/><line style="stroke:#5A3E28;stroke-width:1.0;" x1="339.3481" x2="643.1013" y1="1181.7915" y2="1181.7915"/><polygon fill="#5A3E28" points="639.1013,1232.1626,643.1013,1242.1626,647.1013,1232.1626,643.1013,1236.1626" style="stroke:#5A3E28;stroke-width:1.0;"/><line style="stroke:#5A3E28;stroke-width:1.0;" x1="643.1013" x2="643.1013" y1="1181.7915" y2="1298.1313"/><line style="stroke:#5A3E28;stroke-width:1.0;" x1="643.1013" x2="278.1311" y1="1298.1313" y2="1298.1313"/><polygon fill="#5A3E28" points="288.1311,1294.1313,278.1311,1298.1313,288.1311,1302.1313,284.1311,1298.1313" style="stroke:#5A3E28;stroke-width:1.0;"/><line style="stroke:#5A3E28;stroke-width:1.0;" x1="266.1311" x2="266.1311" y1="1266.1313" y2="1286.1313"/><polygon fill="#5A3E28" points="262.1311,1276.1313,266.1311,1286.1313,270.1311,1276.1313,266.1311,1280.1313" style="stroke:#5A3E28;stroke-width:1.0;"/><line style="stroke:#5A3E28;stroke-width:1.0;" x1="266.1311" x2="266.1311" y1="1149.7915" y2="1169.7915"/><polygon fill="#5A3E28" points="262.1311,1159.7915,266.1311,1169.7915,270.1311,1159.7915,266.1311,1163.7915" style="stroke:#5A3E28;stroke-width:1.0;"/><line style="stroke:#5A3E28;stroke-width:1.0;" x1="266.1311" x2="266.1311" y1="1310.1313" y2="1330.1313"/><polygon fill="#5A3E28" points="262.1311,1320.1313,266.1311,1330.1313,270.1311,1320.1313,266.1311,1324.1313" style="stroke:#5A3E28;stroke-width:1.0;"/><line style="stroke:#5A3E28;stroke-width:1.0;" x1="266.1311" x2="266.1311" y1="1378.0688" y2="1398.0688"/><polygon fill="#5A3E28" points="262.1311,1388.0688,266.1311,1398.0688,270.1311,1388.0688,266.1311,1392.0688" style="stroke:#5A3E28;stroke-width:1.0;"/><line style="stroke:#5A3E28;stroke-width:1.0;" x1="938.0215" x2="938.0215" y1="847.3311" y2="882.3311"/><polygon fill="#5A3E28" points="934.0215,872.3311,938.0215,882.3311,942.0215,872.3311,938.0215,876.3311" style="stroke:#5A3E28;stroke-width:1.0;"/><line style="stroke:#5A3E28;stroke-width:1.0;" x1="938.0215" x2="938.0215" y1="765.4248" y2="785.4248"/><polygon fill="#5A3E28" points="934.0215,775.4248,938.0215,785.4248,942.0215,775.4248,938.0215,779.4248" style="stroke:#5A3E28;stroke-width:1.0;"/><line style="stroke:#5A3E28;stroke-width:1.0;" x1="994.3572" x2="1533.5166" y1="976.2373" y2="976.2373"/><line style="stroke:#5A3E28;stroke-width:1.0;" x1="1533.5166" x2="1533.5166" y1="883.8154" y2="976.2373"/><polygon fill="#5A3E28" points="1529.5166,893.8154,1533.5166,883.8154,1537.5166,893.8154,1533.5166,889.8154" style="stroke:#5A3E28;stroke-width:1.0;"/><line style="stroke:#5A3E28;stroke-width:1.0;" x1="1533.5166" x2="1533.5166" y1="748.4404" y2="835.8779"/><line style="stroke:#5A3E28;stroke-width:1.0;" x1="1533.5166" x2="1023.9121" y1="748.4404" y2="748.4404"/><polygon fill="#5A3E28" points="1033.9121,744.4404,1023.9121,748.4404,1033.9121,752.4404,1029.9121,748.4404" style="stroke:#5A3E28;stroke-width:1.0;"/><line style="stroke:#5A3E28;stroke-width:1.0;" x1="938.0215" x2="938.0215" y1="944.2373" y2="964.2373"/><polygon fill="#5A3E28" points="934.0215,954.2373,938.0215,964.2373,942.0215,954.2373,938.0215,958.2373" style="stroke:#5A3E28;stroke-width:1.0;"/><line style="stroke:#5A3E28;stroke-width:1.0;" x1="938.0215" x2="938.0215" y1="988.2373" y2="1019.9478"/><polygon fill="#5A3E28" points="934.0215,1009.9478,938.0215,1019.9478,942.0215,1009.9478,938.0215,1013.9478" style="stroke:#5A3E28;stroke-width:1.0;"/><line style="stroke:#5A3E28;stroke-width:1.0;" x1="266.1311" x2="266.1311" y1="643.5186" y2="648.5186"/><line style="stroke:#5A3E28;stroke-width:1.0;" x1="266.1311" x2="1712.9453" y1="648.5186" y2="648.5186"/><line style="stroke:#5A3E28;stroke-width:1.0;" x1="1712.9453" x2="1712.9453" y1="648.5186" y2="663.5186"/><polygon fill="#5A3E28" points="1708.9453,653.5186,1712.9453,663.5186,1716.9453,653.5186,1712.9453,657.5186" style="stroke:#5A3E28;stroke-width:1.0;"/><line style="stroke:#5A3E28;stroke-width:1.0;" x1="1712.9453" x2="1712.9453" y1="711.4561" y2="716.4561"/><line style="stroke:#5A3E28;stroke-width:1.0;" x1="1712.9453" x2="938.0215" y1="716.4561" y2="716.4561"/><line style="stroke:#5A3E28;stroke-width:1.0;" x1="938.0215" x2="938.0215" y1="716.4561" y2="731.4561"/><polygon fill="#5A3E28" points="934.0215,721.4561,938.0215,731.4561,942.0215,721.4561,938.0215,725.4561" style="stroke:#5A3E28;stroke-width:1.0;"/><line style="stroke:#5A3E28;stroke-width:1.0;" x1="938.0215" x2="938.0215" y1="1081.854" y2="1086.854"/><line style="stroke:#5A3E28;stroke-width:1.0;" x1="938.0215" x2="266.1311" y1="1086.854" y2="1086.854"/><line style="stroke:#5A3E28;stroke-width:1.0;" x1="266.1311" x2="266.1311" y1="1086.854" y2="1101.854"/><polygon fill="#5A3E28" points="262.1311,1091.854,266.1311,1101.854,270.1311,1091.854,266.1311,1095.854" style="stroke:#5A3E28;stroke-width:1.0;"/><text fill="#000000" font-family="Roboto" font-size="18" lengthAdjust="spacing" textLength="82.6523" x="375.3096" y="83.0469">Guardian</text><text fill="#000000" font-family="Roboto" font-size="18" lengthAdjust="spacing" textLength="57.6826" x="1192.0659" y="83.0469">Admin</text><text fill="#000000" font-family="Roboto" font-size="18" lengthAdjust="spacing" textLength="67.1221" x="1827.572" y="83.0469">System</text><rect fill="none" height="209.5625" id="_legend" rx="5" ry="5" style="stroke:#000000;stroke-width:1.0;" width="592.1143" x="765.8044" y="1432.0688"/><text fill="#000000" font-family="Roboto" font-size="14" font-weight="bold" lengthAdjust="spacing" textLength="40.8516" x="775.6785" y="1452.064">Node</text><text fill="#000000" font-family="Roboto" font-size="14" font-weight="bold" lengthAdjust="spacing" textLength="67.6279" x="831.7947" y="1452.064">Meaning</text><text fill="#000000" filter="url(#b1ets1t15gwuog0)" font-family="Roboto" font-size="14" lengthAdjust="spacing" textLength="38.3154" x="779.7048" y="1468.3608">white</text><text fill="#000000" font-family="Roboto" font-size="14" lengthAdjust="spacing" textLength="270.5391" x="831.3708" y="1468.3608">Shipped in the guardian console today</text><text fill="#000000" filter="url(#b1ets1t15gwuog1)" font-family="Roboto" font-size="14" lengthAdjust="spacing" textLength="30.2285" x="779.7048" y="1484.6577">rose</text><text fill="#000000" font-family="Roboto" font-size="14" lengthAdjust="spacing" textLength="150.3018" x="831.3708" y="1484.6577">Planned, not yet built</text><line style="stroke:#000000;stroke-width:1.0;" x1="770.8044" x2="1106.3601" y1="1439.0688" y2="1439.0688"/><line style="stroke:#000000;stroke-width:1.0;" x1="770.8044" x2="1106.3601" y1="1455.3657" y2="1455.3657"/><line style="stroke:#000000;stroke-width:1.0;" x1="770.8044" x2="1106.3601" y1="1471.6626" y2="1471.6626"/><line style="stroke:#000000;stroke-width:1.0;" x1="770.8044" x2="1106.3601" y1="1487.9595" y2="1487.9595"/><line style="stroke:#000000;stroke-width:1.0;" x1="770.8044" x2="770.8044" y1="1439.0688" y2="1487.9595"/><line style="stroke:#000000;stroke-width:1.0;" x1="826.9207" x2="826.9207" y1="1439.0688" y2="1487.9595"/><line style="stroke:#000000;stroke-width:1.0;" x1="1106.3601" x2="1106.3601" y1="1439.0688" y2="1487.9595"/><text fill="#000000" font-family="Roboto" font-size="14" lengthAdjust="spacing" textLength="65.625" x="770.8044" y="1502.9546">Columns:</text><text fill="#000000" font-family="Roboto" font-size="14" font-weight="bold" lengthAdjust="spacing" textLength="72.0439" x="840.8796" y="1502.9546">Guardian</text><text fill="#000000" font-family="Roboto" font-size="14" lengthAdjust="spacing" textLength="209.7539" x="917.3738" y="1502.9546">(request + assign + monitor),</text><text fill="#000000" font-family="Roboto" font-size="14" font-weight="bold" lengthAdjust="spacing" textLength="50.21" x="1131.5779" y="1502.9546">Admin</text><text fill="#000000" font-family="Roboto" font-size="14" lengthAdjust="spacing" textLength="94.7461" x="1186.238" y="1502.9546">(the ADR-005</text><text fill="#000000" font-family="Roboto" font-size="14" lengthAdjust="spacing" textLength="547.9209" x="770.8044" y="1519.2515">approval gate; the admin console also holds user management, the authoring</text><text fill="#000000" font-family="Roboto" font-size="14" lengthAdjust="spacing" textLength="519.7432" x="770.8044" y="1535.5483">queue, the moderation dashboard/thresholds, and the provider allowlist --</text><text fill="#000000" font-family="Roboto" font-size="14" lengthAdjust="spacing" textLength="167.8428" x="770.8044" y="1551.8452">see sitemap-and-flows),</text><text fill="#000000" font-family="Roboto" font-size="14" font-weight="bold" lengthAdjust="spacing" textLength="58.3174" x="943.0974" y="1551.8452">System</text><text fill="#000000" font-family="Roboto" font-size="14" lengthAdjust="spacing" textLength="292.5166" x="1005.865" y="1551.8452">(generation + safety, behind the scenes).</text><text fill="#000000" font-family="Roboto" font-size="14" lengthAdjust="spacing" textLength="553.4922" x="770.8044" y="1568.1421">ADR-014: one AdultGate at the root of the whole adult subtree (not a per-page</text><text fill="#000000" font-family="Roboto" font-size="14" lengthAdjust="spacing" textLength="536.792" x="770.8044" y="1584.439">gate) is the single kid-to-adult boundary; step-up fires only crossing UP from</text><text fill="#000000" font-family="Roboto" font-size="14" lengthAdjust="spacing" textLength="582.1143" x="770.8044" y="1600.7358">kid mode, never guardian&lt;-&gt;guardian, guardian&lt;-&gt;admin, or admin&lt;-&gt;guardian.</text><text fill="#000000" font-family="Roboto" font-size="14" lengthAdjust="spacing" textLength="502.8652" x="770.8044" y="1617.0327">See journey-kid for the child side, seq-device-grant for the device-grant</text><text fill="#000000" font-family="Roboto" font-size="14" lengthAdjust="spacing" textLength="397.5166" x="770.8044" y="1633.3296">mechanics, and journey-dev-coverage for test coverage.</text><!--SRC=[fLZRSXkv4NsVh-ZG3wRMCwGTonkPjBKbIvRAMrwlIhJBgPHVm1cGWsW8p08OqKpf8T-IJykNv3Gmmvievs6jSf74fT7eFdsw6q_fxP_ubpobVnYpa0LzST9cxx_NqYgfSqcNbLcEwAeHjb12qpCwAnPAqwInCv7Bv2bsNbjJDBaVVlbxbbV2AhyYKNdbcqBIp5ZofQHQMAbzXZrApoatsfbAKj-QnaloLa8IzORpzfZUqO0-6Twkgcf4or9XrLjofQfhMQHaZUFVTIMqXivzRJojfATfeof_D82ippXJrBKrT_ZClJAQb2F1kcT6LolgdrtSPC-VlpeQKtUgenmtN1YjFBIUDfu497MpFCddE5dDiavq_-pw0rdf6ulTnyzVyjdOCp6DXUrSZejfDy88qSmQxQKkXixcmt1lE_3kEr5_VSB66YDQssBuqvW4EPWD1ZihcifV2I-3IAAb5RKB1bwMR531y-IQAGkXBAEfyUL65WbTq31OWIU32LuS7ptKJpI-7AuFQ_Libu_8Q4ctgiYyoUA1KzFeGjWLvV0Cgvfs-Wcx8ESXWt2aavWqUWBpYhbCwLN6Ydp-_35bVDp2at0JO0Bi0IGu0Suev07rrhRvQEPANqCOgvZIUSHLDq3zcLWeEBl5sw6BiYs60TCFDbjvf-II_cXa8u_I29xXJHYya5wegblw0mK_Q2zkvKP3n0emBTrcv0mscUlpKbK5GkH2YShC_u_G6mcTd5yBWMysaxQT77Nu7nOohvJk82CevxEUElZ5m6Nj-fI-Jh9tuox661wToCmiTTPQqjXEJ0YbUMMceahfq- -VjuEhKhSoeB8DidZKr9ZRLYbHqHoW-95hts7ruHko75ml5vvjHLDhbg23PvrYmPxXEk_7MtTWlRIuOtpPLJouCBaR1X81tW05o_zPtso1G16iSrOs-9vrMWyMnOzslZZE2k0Zbna7aB7gNxB8E594dWFxs4tzHoAv2w4nMA2IsLGuEA4spcSLOnnkAfILkO-QNvUOfsE109a2JlJb0oqnFRDY8HdjkQn10xNCgNzzGq-E_vPsZXq7lxX8KBW6uLZPEJLSopKW_zeifSLtY713XB5ZbiC91UpBl2PyNXBegWPByd6alAEbiRUqa7Ok2rRpJoMa10a45tiiyT2lk86Mgs-wlvKsndkPOK1dBL7la7_QuV8eITojqY0ViQ12pWHySWamVc8pzcuCsDFqjfPCHNuxj-ofSrCXHpovFEE_hHNj95IpzEBvreGhHM6Mp6ipKJcvDNDc0U1MtYlnKlxrP7-ILNfq0PBR7LBkkmUgNLvUN1vSQImytguwoN-UlVhvm2eG4J9XyK3ix6JsKfxyOCCFfNyoNZxKzCNxrnSd-wksvUIlfySdisrhBjK2BfPVLO7yvk2k9Bb_SdvnSVx-_Bx3p3qFlRfuVNv-7x33lzyVyz_zPEMyNDnZqsOnqfJroMW2za2oIlfo0OeVrk0Ju1gfoTALCGZTD06e04qr2w4qgyISuMNqqJX1WI39gddfjpDuZ63wxx__GrqOVjDjDcMYHS0MYciKqABcSYkG5OZQL4NagsyQnwCAyBBEcdgTPkdBDRFdOfqh4QKYBwNxfdq9dVfjzTMxiipXJUs2w1wjRsLb5Wbn_4s7NFucEuqv7LofmD5jvJJZUY84EgVqPFIHAmbCiVGsSIRz3NEDjhD1TjhM73XZbu-XNj68AkEDOLatlMVADLc21f11FNXG5ZUXMjgnQWBMoM3G2IgoUaHrcsnvB1cT5S69u56_bGJRDKbVSym_ms_fK4cAEsGN-wX7rv8F7j_cv-0mJh7X-Dzh2VRQJhakJTeIOx5QwwCAAP9-h1p1jbv-zz2AGUOUrQQJjm-n_k4ClfExuPFTv9qY8wppzqwsfgb4Ct244643pV4R84YfadhkopGnTGjXnxq3gb8cy3I16BscOHn-4QkHtRjqLKUyG5TTSpbVWBWPOPpH057D0H4gCaTpMCW6X2R9QD_c8InYzPNqUrzBmxRrt8_yqal9crhb_A7berPLOVEUXqTVG-Rh_RRglEoG84gpH8orwkZvO33exKfjPVtJJ4Crt3m0pfgHHbyjDpiXIVD5Klwg4zl4M7DY9ZsZHUQtkqTih06ym6Kg533HSNkuA4Br2glBFx9j8qRqdktul7yeRGP4TwHgPIs5fn4iUXjqX779H78CdXedH17-FBHTLMEYVmbepxcf2q2vaQ9OfHWFloOU_H-7A5TFCEmHYzhnLknbg7-pNQi_Y8FzSy6LTq1RAQsCGE45cqQlwnOwjLjCZK8Ophak0tqY01nMp9JbuZce6z910uqvQZ6tL4XE8NIfXBuLwupTIiS0E7ILOLHpE5fNp1-AFQnm4G8IBX26Y0R-5GyIGLm26bs3XvdRoYKGXVfwt7aAxJJttXD0AVJdBHd-SiJBqKiViI3ghvWuJxjWHDYtGGoUbpbdPnYGY-E0apKs1idLkfsUWoVG50SxmtKTlaA17Y6qoRwZTdZ3Ef0VBf5u4qQ3aXp3N8r2xrtunx9_prH8qVqhnUMV1ohHH4zXUNZ36uFR1f_nDOEdUwq22sDbZoyUyCo_C9ktxHc7Gn6JQD190r7W4FS0c8UwkZtb9Ch0OEu4VbIpPFIvkoIeAkOVhWQ8sSKbFJwgwzWG8t_POvXG4Z3hHcDnGU3QDnhigfEaalE05-EzMK3R-xVnYGMVlqd1VGpTy_0RHjIeBHzFgNryeJT37Z-zfqbBrKeVZ1eeK8ZLhgYN5wylZY4g5ETRegvZbPxIpljDs8l2hrbeT7blfgSTIB3lbBloIFJFEfS_wvviqADZTM2bk7Ih0qreDvV5DYYoHwSvwd93fU6Kqo274R2D85-WFahZwjZJwJc41Hg9mrntjSHR25TE3RGT-X9rH92LXaUNy0Q6uv7U4N0LycYbS0d40021qih1o0jHPrYRpJ3hucLYLeYtsI7uc0TIfEHIjU9TBXc90qZSUQdP54-8_S241kPk2VhGir5uJXE4BZ2hOG382xqwiqCu9pQm1n-0nkiI5Rmesq3PhrOXiAjNuNfv1ujqA4BrsNrDjmU3ez9rxRArZAyxaPnQGp_8tVRwqJ4oXbDy3kUwjZUVMw7zUj7s86GjP5uY6lBMRvrOhCfoS18_NCMjZC5kPC0X70Ci-Hy0]--></g></svg>