<svg xmlns="http://www.w3.org/2000/svg" xmlns:xlink="http://www.w3.org/1999/xlink" contentStyleType="text/css" height="2686px" preserveAspectRatio="none" style="width:1926px;height:2686px;background:#FAFAFA;" version="1.1" viewBox="0 0 1926 2686" width="1926px" zoomAndPan="magnify"><defs><style type="text/css">@import url('https://fonts.googleapis.com/css?family=Roboto:400,100,100italic,300,300italic,400italic,500,500italic,700,700italic,900,900italic');</style></defs><g><rect fill="#FAFAFA" height="2686" style="stroke:none;stroke-width:1.0;" width="1926" x="0" y="0"/><rect fill="none" height="481.2578" rx="4" ry="4" style="stroke:#000000;stroke-width:1.5;" width="1290.6987" x="629.3623" y="1509.5313"/><rect fill="none" height="264.3281" rx="4" ry="4" style="stroke:#000000;stroke-width:1.5;" width="1740.1958" x="10" y="2293.7813"/><line style="stroke:#181818;stroke-width:0.5;stroke-dasharray:5.0,5.0;" x1="67" x2="67" y1="99.8906" y2="2575.1094"/><line style="stroke:#181818;stroke-width:0.5;stroke-dasharray:5.0,5.0;" x1="319.5659" x2="319.5659" y1="99.8906" y2="2575.1094"/><line style="stroke:#181818;stroke-width:0.5;stroke-dasharray:5.0,5.0;" x1="698.3623" x2="698.3623" y1="99.8906" y2="2575.1094"/><line style="stroke:#181818;stroke-width:0.5;stroke-dasharray:5.0,5.0;" x1="1030.4116" x2="1030.4116" y1="99.8906" y2="2575.1094"/><line style="stroke:#181818;stroke-width:0.5;stroke-dasharray:5.0,5.0;" x1="1194.3569" x2="1194.3569" y1="99.8906" y2="2575.1094"/><line style="stroke:#181818;stroke-width:0.5;stroke-dasharray:5.0,5.0;" x1="1674.8208" x2="1674.8208" y1="99.8906" y2="2575.1094"/><text fill="#000000" font-family="Roboto" font-size="14" lengthAdjust="spacing" textLength="89.9404" x="20" y="96.5889">Child Reader</text><ellipse cx="67.9702" cy="32.0938" fill="#E2E2F0" rx="8" ry="8" style="stroke:#181818;stroke-width:0.5;"/><path d="M67.9702,40.0938 L67.9702,67.0938 M54.9702,48.0938 L80.9702,48.0938 M67.9702,67.0938 L54.9702,82.0938 M67.9702,67.0938 L80.9702,82.0938 " fill="none" style="stroke:#181818;stroke-width:0.5;"/><text fill="#000000" font-family="Roboto" font-size="14" lengthAdjust="spacing" textLength="89.9404" x="20" y="2587.1045">Child Reader</text><ellipse cx="67.9702" cy="2598.9063" fill="#E2E2F0" rx="8" ry="8" style="stroke:#181818;stroke-width:0.5;"/><path d="M67.9702,2606.9063 L67.9702,2633.9063 M54.9702,2614.9063 L80.9702,2614.9063 M67.9702,2633.9063 L54.9702,2648.9063 M67.9702,2633.9063 L80.9702,2648.9063 " fill="none" style="stroke:#181818;stroke-width:0.5;"/><rect fill="#E2E2F0" height="62.8906" rx="4" ry="4" style="stroke:#181818;stroke-width:0.5;" width="349.5352" x="145.5659" y="36"/><text fill="#000000" font-family="Roboto" font-size="14" lengthAdjust="spacing" textLength="131.0381" x="254.8145" y="55.9951">Reader UI + hooks</text><text fill="#000000" font-family="Roboto" font-size="14" lengthAdjust="spacing" textLength="269.8896" x="185.3887" y="72.292">reader/ReaderPage.tsx (saveProgress)</text><text fill="#000000" font-family="Roboto" font-size="14" lengthAdjust="spacing" textLength="335.5352" x="152.5659" y="88.5889">hooks/useReplayOnReconnect.ts (replayQueue)</text><rect fill="#E2E2F0" height="62.8906" rx="4" ry="4" style="stroke:#181818;stroke-width:0.5;" width="349.5352" x="145.5659" y="2574.1094"/><text fill="#000000" font-family="Roboto" font-size="14" lengthAdjust="spacing" textLength="131.0381" x="254.8145" y="2594.1045">Reader UI + hooks</text><text fill="#000000" font-family="Roboto" font-size="14" lengthAdjust="spacing" textLength="269.8896" x="185.3887" y="2610.4014">reader/ReaderPage.tsx (saveProgress)</text><text fill="#000000" font-family="Roboto" font-size="14" lengthAdjust="spacing" textLength="335.5352" x="152.5659" y="2626.6982">hooks/useReplayOnReconnect.ts (replayQueue)</text><rect fill="#E2E2F0" height="62.8906" rx="4" ry="4" style="stroke:#181818;stroke-width:0.5;" width="118.3027" x="639.3623" y="36"/><text fill="#000000" font-family="Roboto" font-size="14" lengthAdjust="spacing" textLength="77.2256" x="659.9009" y="55.9951">Sync Layer</text><text fill="#000000" font-family="Roboto" font-size="14" lengthAdjust="spacing" textLength="97.7881" x="649.6196" y="72.292">offline/sync.ts</text><text fill="#000000" font-family="Roboto" font-size="14" lengthAdjust="spacing" textLength="104.3027" x="646.3623" y="88.5889">saveProgress()</text><rect fill="#E2E2F0" height="62.8906" rx="4" ry="4" style="stroke:#181818;stroke-width:0.5;" width="118.3027" x="639.3623" y="2574.1094"/><text fill="#000000" font-family="Roboto" font-size="14" lengthAdjust="spacing" textLength="77.2256" x="659.9009" y="2594.1045">Sync Layer</text><text fill="#000000" font-family="Roboto" font-size="14" lengthAdjust="spacing" textLength="97.7881" x="649.6196" y="2610.4014">offline/sync.ts</text><text fill="#000000" font-family="Roboto" font-size="14" lengthAdjust="spacing" textLength="104.3027" x="646.3623" y="2626.6982">saveProgress()</text><text fill="#000000" font-family="Roboto" font-size="14" lengthAdjust="spacing" textLength="76.6719" x="990.0483" y="63.9951">IndexedDB</text><text fill="#000000" font-family="Roboto" font-size="14" lengthAdjust="spacing" textLength="83.4121" x="986.6782" y="80.292">offline/db.ts</text><text fill="#000000" font-family="Roboto" font-size="14" lengthAdjust="spacing" textLength="153.9453" x="951.4116" y="96.5889">(local cache + queue)</text><path d="M1013.3843,15 C1013.3843,5 1031.3843,5 1031.3843,5 C1031.3843,5 1049.3843,5 1049.3843,15 L1049.3843,41 C1049.3843,51 1031.3843,51 1031.3843,51 C1031.3843,51 1013.3843,51 1013.3843,41 L1013.3843,15 " fill="#E2E2F0" style="stroke:#181818;stroke-width:1.5;"/><path d="M1013.3843,15 C1013.3843,25 1031.3843,25 1031.3843,25 C1031.3843,25 1049.3843,25 1049.3843,15 " fill="none" style="stroke:#181818;stroke-width:1.5;"/><text fill="#000000" font-family="Roboto" font-size="14" lengthAdjust="spacing" textLength="76.6719" x="990.0483" y="2587.1045">IndexedDB</text><text fill="#000000" font-family="Roboto" font-size="14" lengthAdjust="spacing" textLength="83.4121" x="986.6782" y="2603.4014">offline/db.ts</text><text fill="#000000" font-family="Roboto" font-size="14" lengthAdjust="spacing" textLength="153.9453" x="951.4116" y="2619.6982">(local cache + queue)</text><path d="M1013.3843,2633 C1013.3843,2623 1031.3843,2623 1031.3843,2623 C1031.3843,2623 1049.3843,2623 1049.3843,2633 L1049.3843,2659 C1049.3843,2669 1031.3843,2669 1031.3843,2669 C1031.3843,2669 1013.3843,2669 1013.3843,2659 L1013.3843,2633 " fill="#E2E2F0" style="stroke:#181818;stroke-width:1.5;"/><path d="M1013.3843,2633 C1013.3843,2643 1031.3843,2643 1031.3843,2643 C1031.3843,2643 1049.3843,2643 1049.3843,2633 " fill="none" style="stroke:#181818;stroke-width:1.5;"/><rect fill="#E2E2F0" height="62.8906" rx="4" ry="4" style="stroke:#181818;stroke-width:0.5;" width="147.335" x="1121.3569" y="36"/><text fill="#000000" font-family="Roboto" font-size="14" lengthAdjust="spacing" textLength="56.0957" x="1166.9766" y="55.9951">SyncApi</text><text fill="#000000" font-family="Roboto" font-size="14" lengthAdjust="spacing" textLength="130.1768" x="1129.936" y="72.292">(Generated Client)</text><text fill="#000000" font-family="Roboto" font-size="14" lengthAdjust="spacing" textLength="133.335" x="1128.3569" y="88.5889">frontend/src/client/</text><rect fill="#E2E2F0" height="62.8906" rx="4" ry="4" style="stroke:#181818;stroke-width:0.5;" width="147.335" x="1121.3569" y="2574.1094"/><text fill="#000000" font-family="Roboto" font-size="14" lengthAdjust="spacing" textLength="56.0957" x="1166.9766" y="2594.1045">SyncApi</text><text fill="#000000" font-family="Roboto" font-size="14" lengthAdjust="spacing" textLength="130.1768" x="1129.936" y="2610.4014">(Generated Client)</text><text fill="#000000" font-family="Roboto" font-size="14" lengthAdjust="spacing" textLength="133.335" x="1128.3569" y="2626.6982">frontend/src/client/</text><rect fill="#E2E2F0" height="46.5938" rx="4" ry="4" style="stroke:#181818;stroke-width:0.5;" width="130.375" x="1609.8208" y="52.2969"/><text fill="#000000" font-family="Roboto" font-size="14" lengthAdjust="spacing" textLength="116.375" x="1616.8208" y="72.292">FastAPI Backend</text><text fill="#000000" font-family="Roboto" font-size="14" lengthAdjust="spacing" textLength="75.1064" x="1637.4551" y="88.5889">reading.py</text><rect fill="#E2E2F0" height="46.5938" rx="4" ry="4" style="stroke:#181818;stroke-width:0.5;" width="130.375" x="1609.8208" y="2574.1094"/><text fill="#000000" font-family="Roboto" font-size="14" lengthAdjust="spacing" textLength="116.375" x="1616.8208" y="2594.1045">FastAPI Backend</text><text fill="#000000" font-family="Roboto" font-size="14" lengthAdjust="spacing" textLength="75.1064" x="1637.4551" y="2610.4014">reading.py</text><path d="M13,118.8906 L13,135.8906 A4,4 0 0 0 17,139.8906 L1724,139.8906 A4,4 0 0 0 1728,135.8906 L1728,124.8906 L1718,114.8906 L17,114.8906 A4,4 0 0 0 13,118.8906 " fill="#FEFFDD" style="stroke:#181818;stroke-width:0.5;"/><path d="M1718,114.8906 L1718,122.8906 A2,2 0 0 0 1720,124.8906 L1728,124.8906 L1718,114.8906 " fill="#FEFFDD" style="stroke:#181818;stroke-width:0.5;"/><text fill="#000000" font-family="Roboto" font-size="13" lengthAdjust="spacing" textLength="303.1577" x="714.519" y="131.9575">Online play - save reaches server immediately</text><polygon fill="#181818" points="308.3335,162.1563,318.3335,166.1563,308.3335,170.1563,312.3335,166.1563" style="stroke:#181818;stroke-width:1.0;"/><line style="stroke:#181818;stroke-width:1.0;" x1="67.9702" x2="314.3335" y1="166.1563" y2="166.1563"/><text fill="#000000" font-family="Roboto" font-size="13" lengthAdjust="spacing" textLength="216.7661" x="85.7688" y="161.0903">"choose path / trigger auto-save"</text><polygon fill="#181818" points="686.5137,206.4219,696.5137,210.4219,686.5137,214.4219,690.5137,210.4219" style="stroke:#181818;stroke-width:1.0;"/><line style="stroke:#181818;stroke-width:1.0;" x1="320.3335" x2="692.5137" y1="210.4219" y2="210.4219"/><text fill="#000000" font-family="Roboto" font-size="13" lengthAdjust="spacing" textLength="309.5181" x="354.6646" y="190.2231">"saveProgress(api, profileId, storybookId, state,</text><text fill="#000000" font-family="Roboto" font-size="13" lengthAdjust="spacing" textLength="258.5972" x="380.125" y="205.356">{deviceId:'dev-A', eventId:undefined})"</text><line style="stroke:#181818;stroke-width:1.0;" x1="698.5137" x2="740.5137" y1="239.5547" y2="239.5547"/><line style="stroke:#181818;stroke-width:1.0;" x1="740.5137" x2="740.5137" y1="239.5547" y2="252.5547"/><line style="stroke:#181818;stroke-width:1.0;" x1="699.5137" x2="740.5137" y1="252.5547" y2="252.5547"/><polygon fill="#181818" points="709.5137,248.5547,699.5137,252.5547,709.5137,256.5547,705.5137,252.5547" style="stroke:#181818;stroke-width:1.0;"/><text fill="#000000" font-family="Roboto" font-size="13" lengthAdjust="spacing" textLength="299.8569" x="705.5137" y="234.4888">"eventId = crypto.randomUUID() -&gt; 'uuid-42'"</text><polygon fill="#181818" points="1019.3843,292.8203,1029.3843,296.8203,1019.3843,300.8203,1023.3843,296.8203" style="stroke:#181818;stroke-width:1.0;"/><line style="stroke:#181818;stroke-width:1.0;" x1="698.5137" x2="1025.3843" y1="296.8203" y2="296.8203"/><text fill="#000000" font-family="Roboto" font-size="13" lengthAdjust="spacing" textLength="305.0049" x="712.4465" y="276.6216">"putReadingState(profileId, storybookId, state)</text><text fill="#000000" font-family="Roboto" font-size="13" lengthAdjust="spacing" textLength="168.5176" x="780.6902" y="291.7544">[update local cache first]"</text><polygon fill="#181818" points="709.5137,321.9531,699.5137,325.9531,709.5137,329.9531,705.5137,325.9531" style="stroke:#181818;stroke-width:1.0;"/><line style="stroke:#181818;stroke-width:1.0;stroke-dasharray:2.0,2.0;" x1="703.5137" x2="1030.3843" y1="325.9531" y2="325.9531"/><text fill="#000000" font-family="Roboto" font-size="13" lengthAdjust="spacing" textLength="30.7163" x="849.5908" y="320.8872">"OK"</text><polygon fill="#181818" points="1183.0244,366.2188,1193.0244,370.2188,1183.0244,374.2188,1187.0244,370.2188" style="stroke:#181818;stroke-width:1.0;"/><line style="stroke:#181818;stroke-width:1.0;" x1="698.5137" x2="1189.0244" y1="370.2188" y2="370.2188"/><text fill="#000000" font-family="Roboto" font-size="13" lengthAdjust="spacing" textLength="262.8691" x="815.3345" y="350.02">"putReadingState(profileId, storybookId,</text><text fill="#000000" font-family="Roboto" font-size="13" lengthAdjust="spacing" textLength="316.0625" x="788.7378" y="365.1528">{...state, device_id:'dev-A', event_id:'uuid-42'})"</text><polygon fill="#181818" points="1663.0083,410.4844,1673.0083,414.4844,1663.0083,418.4844,1667.0083,414.4844" style="stroke:#181818;stroke-width:1.0;"/><line style="stroke:#181818;stroke-width:1.0;" x1="1195.0244" x2="1669.0083" y1="414.4844" y2="414.4844"/><text fill="#000000" font-family="Roboto" font-size="13" lengthAdjust="spacing" textLength="287.6821" x="1291.1753" y="394.2856">"PUT /api/v1/reading-state/{profile}/{story}</text><text fill="#000000" font-family="Roboto" font-size="13" lengthAdjust="spacing" textLength="265.4717" x="1302.2805" y="409.4185">body includes event_id + state_revision"</text><polygon fill="#181818" points="1206.0244,439.6172,1196.0244,443.6172,1206.0244,447.6172,1202.0244,443.6172" style="stroke:#181818;stroke-width:1.0;"/><line style="stroke:#181818;stroke-width:1.0;stroke-dasharray:2.0,2.0;" x1="1200.0244" x2="1674.0083" y1="443.6172" y2="443.6172"/><text fill="#000000" font-family="Roboto" font-size="13" lengthAdjust="spacing" textLength="208.3936" x="1330.8196" y="438.5513">"200 OK {state_revision: N+1}"</text><polygon fill="#181818" points="709.5137,468.75,699.5137,472.75,709.5137,476.75,705.5137,472.75" style="stroke:#181818;stroke-width:1.0;"/><line style="stroke:#181818;stroke-width:1.0;stroke-dasharray:2.0,2.0;" x1="703.5137" x2="1194.0244" y1="472.75" y2="472.75"/><text fill="#000000" font-family="Roboto" font-size="13" lengthAdjust="spacing" textLength="226.1099" x="833.7141" y="467.6841">"{status:200, row: ReadingState}"</text><polygon fill="#181818" points="331.3335,497.8828,321.3335,501.8828,331.3335,505.8828,327.3335,501.8828" style="stroke:#181818;stroke-width:1.0;"/><line style="stroke:#181818;stroke-width:1.0;stroke-dasharray:2.0,2.0;" x1="325.3335" x2="697.5137" y1="501.8828" y2="501.8828"/><text fill="#000000" font-family="Roboto" font-size="13" lengthAdjust="spacing" textLength="138.5376" x="440.1548" y="496.8169">"{kind:'saved', row}"</text><path d="M13,518.8828 L13,535.8828 A4,4 0 0 0 17,539.8828 L1724,539.8828 A4,4 0 0 0 1728,535.8828 L1728,524.8828 L1718,514.8828 L17,514.8828 A4,4 0 0 0 13,518.8828 " fill="#FEFFDD" style="stroke:#181818;stroke-width:0.5;"/><path d="M1718,514.8828 L1718,522.8828 A2,2 0 0 0 1720,524.8828 L1728,524.8828 L1718,514.8828 " fill="#FEFFDD" style="stroke:#181818;stroke-width:0.5;"/><text fill="#000000" font-family="Roboto" font-size="13" lengthAdjust="spacing" textLength="322.6704" x="704.7627" y="531.9497">Network goes offline - writes queue in IndexedDB</text><polygon fill="#181818" points="308.3335,562.1484,318.3335,566.1484,308.3335,570.1484,312.3335,566.1484" style="stroke:#181818;stroke-width:1.0;"/><line style="stroke:#181818;stroke-width:1.0;" x1="67.9702" x2="314.3335" y1="566.1484" y2="566.1484"/><text fill="#000000" font-family="Roboto" font-size="13" lengthAdjust="spacing" textLength="146.6816" x="120.811" y="561.0825">"choose another path"</text><polygon fill="#181818" points="686.5137,606.4141,696.5137,610.4141,686.5137,614.4141,690.5137,610.4141" style="stroke:#181818;stroke-width:1.0;"/><line style="stroke:#181818;stroke-width:1.0;" x1="320.3335" x2="692.5137" y1="610.4141" y2="610.4141"/><text fill="#000000" font-family="Roboto" font-size="13" lengthAdjust="spacing" textLength="317.7891" x="350.5291" y="590.2153">"saveProgress(api, profileId, storybookId, state2,</text><text fill="#000000" font-family="Roboto" font-size="13" lengthAdjust="spacing" textLength="131.4346" x="443.7063" y="605.3481">{deviceId:'dev-A'})"</text><line style="stroke:#181818;stroke-width:1.0;" x1="698.5137" x2="740.5137" y1="639.5469" y2="639.5469"/><line style="stroke:#181818;stroke-width:1.0;" x1="740.5137" x2="740.5137" y1="639.5469" y2="652.5469"/><line style="stroke:#181818;stroke-width:1.0;" x1="699.5137" x2="740.5137" y1="652.5469" y2="652.5469"/><polygon fill="#181818" points="709.5137,648.5469,699.5137,652.5469,709.5137,656.5469,705.5137,652.5469" style="stroke:#181818;stroke-width:1.0;"/><text fill="#000000" font-family="Roboto" font-size="13" lengthAdjust="spacing" textLength="136.9507" x="705.5137" y="634.481">"eventId = 'uuid-43'"</text><polygon fill="#181818" points="1019.3843,677.6797,1029.3843,681.6797,1019.3843,685.6797,1023.3843,681.6797" style="stroke:#181818;stroke-width:1.0;"/><line style="stroke:#181818;stroke-width:1.0;" x1="698.5137" x2="1025.3843" y1="681.6797" y2="681.6797"/><text fill="#000000" font-family="Roboto" font-size="13" lengthAdjust="spacing" textLength="268.5884" x="730.6548" y="676.6138">"putReadingState() [update local cache]"</text><polygon fill="#181818" points="709.5137,706.8125,699.5137,710.8125,709.5137,714.8125,705.5137,710.8125" style="stroke:#181818;stroke-width:1.0;"/><line style="stroke:#181818;stroke-width:1.0;stroke-dasharray:2.0,2.0;" x1="703.5137" x2="1030.3843" y1="710.8125" y2="710.8125"/><text fill="#000000" font-family="Roboto" font-size="13" lengthAdjust="spacing" textLength="30.7163" x="849.5908" y="705.7466">"OK"</text><polygon fill="#181818" points="1183.0244,735.9453,1193.0244,739.9453,1183.0244,743.9453,1187.0244,739.9453" style="stroke:#181818;stroke-width:1.0;"/><line style="stroke:#181818;stroke-width:1.0;" x1="698.5137" x2="1189.0244" y1="739.9453" y2="739.9453"/><text fill="#000000" font-family="Roboto" font-size="13" lengthAdjust="spacing" textLength="268.6074" x="812.4653" y="734.8794">"putReadingState(..., event_id:'uuid-43')"</text><polygon fill="#181818" points="1663.0083,765.0781,1673.0083,769.0781,1663.0083,773.0781,1667.0083,769.0781" style="stroke:#181818;stroke-width:1.0;"/><line style="stroke:#181818;stroke-width:1.0;" x1="1195.0244" x2="1669.0083" y1="769.0781" y2="769.0781"/><text fill="#000000" font-family="Roboto" font-size="13" lengthAdjust="spacing" textLength="194.3843" x="1337.8242" y="764.0122">"PUT /api/v1/reading-state/..."</text><path d="M1680,786.0781 L1680,818.0781 A4,4 0 0 0 1684,822.0781 L1909,822.0781 A4,4 0 0 0 1913,818.0781 L1913,792.0781 L1903,782.0781 L1684,782.0781 A4,4 0 0 0 1680,786.0781 " fill="#FEFFDD" style="stroke:#181818;stroke-width:0.5;"/><path d="M1903,782.0781 L1903,790.0781 A2,2 0 0 0 1905,792.0781 L1913,792.0781 L1903,782.0781 " fill="#FEFFDD" style="stroke:#181818;stroke-width:0.5;"/><text fill="#000000" font-family="Roboto" font-size="13" lengthAdjust="spacing" textLength="143.7935" x="1686" y="799.145">Network unreachable;</text><text fill="#000000" font-family="Roboto" font-size="13" lengthAdjust="spacing" textLength="212.7925" x="1686" y="814.2778">fetch throws (no HTTP response)</text><polygon fill="#181818" points="1206.0244,844.4766,1196.0244,848.4766,1206.0244,852.4766,1202.0244,848.4766" style="stroke:#181818;stroke-width:1.0;"/><line style="stroke:#181818;stroke-width:1.0;stroke-dasharray:2.0,2.0;" x1="1200.0244" x2="1674.0083" y1="848.4766" y2="848.4766"/><text fill="#000000" font-family="Roboto" font-size="13" lengthAdjust="spacing" textLength="237.7451" x="1316.1438" y="843.4106">"[OfflineError: network unavailable]"</text><polygon fill="#181818" points="709.5137,873.6094,699.5137,877.6094,709.5137,881.6094,705.5137,877.6094" style="stroke:#181818;stroke-width:1.0;"/><line style="stroke:#181818;stroke-width:1.0;stroke-dasharray:2.0,2.0;" x1="703.5137" x2="1194.0244" y1="877.6094" y2="877.6094"/><text fill="#000000" font-family="Roboto" font-size="13" lengthAdjust="spacing" textLength="146.7896" x="873.3743" y="872.5435">"[OfflineError thrown]"</text><polygon fill="#181818" points="1019.3843,917.875,1029.3843,921.875,1019.3843,925.875,1023.3843,921.875" style="stroke:#181818;stroke-width:1.0;"/><line style="stroke:#181818;stroke-width:1.0;" x1="698.5137" x2="1025.3843" y1="921.875" y2="921.875"/><text fill="#000000" font-family="Roboto" font-size="13" lengthAdjust="spacing" textLength="253.6587" x="738.1196" y="901.6763">"enqueueWrite({profileId, storybookId,</text><text fill="#000000" font-family="Roboto" font-size="13" lengthAdjust="spacing" textLength="250.7515" x="739.5732" y="916.8091">body:{...state2, event_id:'uuid-43'}})"</text><polygon fill="#181818" points="709.5137,947.0078,699.5137,951.0078,709.5137,955.0078,705.5137,951.0078" style="stroke:#181818;stroke-width:1.0;"/><line style="stroke:#181818;stroke-width:1.0;stroke-dasharray:2.0,2.0;" x1="703.5137" x2="1030.3843" y1="951.0078" y2="951.0078"/><text fill="#000000" font-family="Roboto" font-size="13" lengthAdjust="spacing" textLength="30.7163" x="849.5908" y="945.9419">"OK"</text><polygon fill="#181818" points="331.3335,976.1406,321.3335,980.1406,331.3335,984.1406,327.3335,980.1406" style="stroke:#181818;stroke-width:1.0;"/><line style="stroke:#181818;stroke-width:1.0;stroke-dasharray:2.0,2.0;" x1="325.3335" x2="697.5137" y1="980.1406" y2="980.1406"/><text fill="#000000" font-family="Roboto" font-size="13" lengthAdjust="spacing" textLength="235.1172" x="391.865" y="975.0747">"{kind:'queued', eventId:'uuid-43'}"</text><line style="stroke:#181818;stroke-width:1.0;" x1="320.3335" x2="362.3335" y1="1024.4063" y2="1024.4063"/><line style="stroke:#181818;stroke-width:1.0;" x1="362.3335" x2="362.3335" y1="1024.4063" y2="1037.4063"/><line style="stroke:#181818;stroke-width:1.0;" x1="321.3335" x2="362.3335" y1="1037.4063" y2="1037.4063"/><polygon fill="#181818" points="331.3335,1033.4063,321.3335,1037.4063,331.3335,1041.4063,327.3335,1037.4063" style="stroke:#181818;stroke-width:1.0;"/><text fill="#000000" font-family="Roboto" font-size="13" lengthAdjust="spacing" textLength="145.1455" x="375.6804" y="1004.2075">"local state continues;</text><text fill="#000000" font-family="Roboto" font-size="13" lengthAdjust="spacing" textLength="241.8394" x="327.3335" y="1019.3403">player works from IndexedDB cache"</text><polygon fill="#181818" points="308.3335,1062.5391,318.3335,1066.5391,308.3335,1070.5391,312.3335,1066.5391" style="stroke:#181818;stroke-width:1.0;"/><line style="stroke:#181818;stroke-width:1.0;" x1="67.9702" x2="314.3335" y1="1066.5391" y2="1066.5391"/><text fill="#000000" font-family="Roboto" font-size="13" lengthAdjust="spacing" textLength="228.3633" x="79.9702" y="1061.4731">"choose another path (still offline)"</text><polygon fill="#181818" points="686.5137,1091.6719,696.5137,1095.6719,686.5137,1099.6719,690.5137,1095.6719" style="stroke:#181818;stroke-width:1.0;"/><line style="stroke:#181818;stroke-width:1.0;" x1="320.3335" x2="692.5137" y1="1095.6719" y2="1095.6719"/><text fill="#000000" font-family="Roboto" font-size="13" lengthAdjust="spacing" textLength="198.7705" x="410.0383" y="1090.606">"saveProgress(api, ..., state3)"</text><line style="stroke:#181818;stroke-width:1.0;" x1="698.5137" x2="740.5137" y1="1124.8047" y2="1124.8047"/><line style="stroke:#181818;stroke-width:1.0;" x1="740.5137" x2="740.5137" y1="1124.8047" y2="1137.8047"/><line style="stroke:#181818;stroke-width:1.0;" x1="699.5137" x2="740.5137" y1="1137.8047" y2="1137.8047"/><polygon fill="#181818" points="709.5137,1133.8047,699.5137,1137.8047,709.5137,1141.8047,705.5137,1137.8047" style="stroke:#181818;stroke-width:1.0;"/><text fill="#000000" font-family="Roboto" font-size="13" lengthAdjust="spacing" textLength="136.9507" x="705.5137" y="1119.7388">"eventId = 'uuid-44'"</text><polygon fill="#181818" points="1019.3843,1162.9375,1029.3843,1166.9375,1019.3843,1170.9375,1023.3843,1166.9375" style="stroke:#181818;stroke-width:1.0;"/><line style="stroke:#181818;stroke-width:1.0;" x1="698.5137" x2="1025.3843" y1="1166.9375" y2="1166.9375"/><text fill="#000000" font-family="Roboto" font-size="13" lengthAdjust="spacing" textLength="268.5884" x="730.6548" y="1161.8716">"putReadingState() [update local cache]"</text><polygon fill="#181818" points="709.5137,1192.0703,699.5137,1196.0703,709.5137,1200.0703,705.5137,1196.0703" style="stroke:#181818;stroke-width:1.0;"/><line style="stroke:#181818;stroke-width:1.0;stroke-dasharray:2.0,2.0;" x1="703.5137" x2="1030.3843" y1="1196.0703" y2="1196.0703"/><text fill="#000000" font-family="Roboto" font-size="13" lengthAdjust="spacing" textLength="30.7163" x="849.5908" y="1191.0044">"OK"</text><polygon fill="#181818" points="1183.0244,1221.2031,1193.0244,1225.2031,1183.0244,1229.2031,1187.0244,1225.2031" style="stroke:#181818;stroke-width:1.0;"/><line style="stroke:#181818;stroke-width:1.0;" x1="698.5137" x2="1189.0244" y1="1225.2031" y2="1225.2031"/><text fill="#000000" font-family="Roboto" font-size="13" lengthAdjust="spacing" textLength="137.3188" x="878.1096" y="1220.1372">"[OfflineError again]"</text><polygon fill="#181818" points="709.5137,1250.3359,699.5137,1254.3359,709.5137,1258.3359,705.5137,1254.3359" style="stroke:#181818;stroke-width:1.0;"/><line style="stroke:#181818;stroke-width:1.0;stroke-dasharray:2.0,2.0;" x1="703.5137" x2="1194.0244" y1="1254.3359" y2="1254.3359"/><text fill="#000000" font-family="Roboto" font-size="13" lengthAdjust="spacing" textLength="97.1509" x="898.1936" y="1249.27">"[OfflineError]"</text><polygon fill="#181818" points="1019.3843,1279.4688,1029.3843,1283.4688,1019.3843,1287.4688,1023.3843,1283.4688" style="stroke:#181818;stroke-width:1.0;"/><line style="stroke:#181818;stroke-width:1.0;" x1="698.5137" x2="1025.3843" y1="1283.4688" y2="1283.4688"/><text fill="#000000" font-family="Roboto" font-size="13" lengthAdjust="spacing" textLength="308.8706" x="710.5137" y="1278.4028">"enqueueWrite({...state3, event_id:'uuid-44'})"</text><polygon fill="#181818" points="709.5137,1308.6016,699.5137,1312.6016,709.5137,1316.6016,705.5137,1312.6016" style="stroke:#181818;stroke-width:1.0;"/><line style="stroke:#181818;stroke-width:1.0;stroke-dasharray:2.0,2.0;" x1="703.5137" x2="1030.3843" y1="1312.6016" y2="1312.6016"/><text fill="#000000" font-family="Roboto" font-size="13" lengthAdjust="spacing" textLength="30.7163" x="849.5908" y="1307.5356">"OK"</text><polygon fill="#181818" points="331.3335,1337.7344,321.3335,1341.7344,331.3335,1345.7344,327.3335,1341.7344" style="stroke:#181818;stroke-width:1.0;"/><line style="stroke:#181818;stroke-width:1.0;stroke-dasharray:2.0,2.0;" x1="325.3335" x2="697.5137" y1="1341.7344" y2="1341.7344"/><text fill="#000000" font-family="Roboto" font-size="13" lengthAdjust="spacing" textLength="235.1172" x="391.865" y="1336.6685">"{kind:'queued', eventId:'uuid-44'}"</text><path d="M13,1358.7344 L13,1375.7344 A4,4 0 0 0 17,1379.7344 L1724,1379.7344 A4,4 0 0 0 1728,1375.7344 L1728,1364.7344 L1718,1354.7344 L17,1354.7344 A4,4 0 0 0 13,1358.7344 " fill="#FEFFDD" style="stroke:#181818;stroke-width:0.5;"/><path d="M1718,1354.7344 L1718,1362.7344 A2,2 0 0 0 1720,1364.7344 L1728,1364.7344 L1718,1354.7344 " fill="#FEFFDD" style="stroke:#181818;stroke-width:0.5;"/><text fill="#000000" font-family="Roboto" font-size="13" lengthAdjust="spacing" textLength="318.7031" x="706.7463" y="1371.8013">Network restored - replay queued writes in order</text><polygon fill="#181818" points="686.5137,1417.1328,696.5137,1421.1328,686.5137,1425.1328,690.5137,1421.1328" style="stroke:#181818;stroke-width:1.0;"/><line style="stroke:#181818;stroke-width:1.0;" x1="320.3335" x2="692.5137" y1="1421.1328" y2="1421.1328"/><text fill="#000000" font-family="Roboto" font-size="13" lengthAdjust="spacing" textLength="119.5264" x="449.6604" y="1400.9341">"replayQueue(api)</text><text fill="#000000" font-family="Roboto" font-size="13" lengthAdjust="spacing" textLength="280.8076" x="369.0198" y="1416.0669">(replays ALL queued writes, not per-story)"</text><polygon fill="#181818" points="1019.3843,1446.2656,1029.3843,1450.2656,1019.3843,1454.2656,1023.3843,1450.2656" style="stroke:#181818;stroke-width:1.0;"/><line style="stroke:#181818;stroke-width:1.0;" x1="698.5137" x2="1025.3843" y1="1450.2656" y2="1450.2656"/><text fill="#000000" font-family="Roboto" font-size="13" lengthAdjust="spacing" textLength="222.7456" x="753.5762" y="1445.1997">"listQueue()  (entire queue, FIFO)"</text><polygon fill="#181818" points="709.5137,1490.5313,699.5137,1494.5313,709.5137,1498.5313,705.5137,1494.5313" style="stroke:#181818;stroke-width:1.0;"/><line style="stroke:#181818;stroke-width:1.0;stroke-dasharray:2.0,2.0;" x1="703.5137" x2="1030.3843" y1="1494.5313" y2="1494.5313"/><text fill="#000000" font-family="Roboto" font-size="13" lengthAdjust="spacing" textLength="210.082" x="759.908" y="1474.3325">"[{event_id:'uuid-43', ...state2},</text><text fill="#000000" font-family="Roboto" font-size="13" lengthAdjust="spacing" textLength="205.9497" x="764.0403" y="1489.4653">{event_id:'uuid-44', ...state3}]"</text><path d="M633.3623,1509.5313 L705.9863,1509.5313 L705.9863,1516.6641 L695.9863,1526.6641 L629.3623,1526.6641 L629.3623,1513.5313 A4,4 0 0 1 633.3623,1509.5313 " fill="#EEEEEE" style="stroke:#000000;stroke-width:1.5;"/><rect fill="none" height="481.2578" rx="4" ry="4" style="stroke:#000000;stroke-width:1.5;" width="1290.6987" x="629.3623" y="1509.5313"/><text fill="#000000" font-family="Roboto" font-size="13" font-weight="bold" lengthAdjust="spacing" textLength="31.624" x="644.3623" y="1522.5981">loop</text><text fill="#000000" font-family="Roboto" font-size="11" font-weight="bold" lengthAdjust="spacing" textLength="203.543" x="720.9863" y="1521.7417">["for each write in queue order"]</text><polygon fill="#181818" points="1183.0244,1543.7969,1193.0244,1547.7969,1183.0244,1551.7969,1187.0244,1547.7969" style="stroke:#181818;stroke-width:1.0;"/><line style="stroke:#181818;stroke-width:1.0;" x1="698.5137" x2="1189.0244" y1="1547.7969" y2="1547.7969"/><text fill="#000000" font-family="Roboto" font-size="13" lengthAdjust="spacing" textLength="297.4131" x="798.0625" y="1542.731">"putReadingState(event_id:'uuid-43', state2)"</text><polygon fill="#181818" points="1663.0083,1572.9297,1673.0083,1576.9297,1663.0083,1580.9297,1667.0083,1576.9297" style="stroke:#181818;stroke-width:1.0;"/><line style="stroke:#181818;stroke-width:1.0;" x1="1195.0244" x2="1669.0083" y1="1576.9297" y2="1576.9297"/><text fill="#000000" font-family="Roboto" font-size="13" lengthAdjust="spacing" textLength="194.3843" x="1337.8242" y="1571.8638">"PUT /api/v1/reading-state/..."</text><line style="stroke:#181818;stroke-width:1.0;" x1="1675.0083" x2="1717.0083" y1="1636.3281" y2="1636.3281"/><line style="stroke:#181818;stroke-width:1.0;" x1="1717.0083" x2="1717.0083" y1="1636.3281" y2="1649.3281"/><line style="stroke:#181818;stroke-width:1.0;" x1="1676.0083" x2="1717.0083" y1="1649.3281" y2="1649.3281"/><polygon fill="#181818" points="1686.0083,1645.3281,1676.0083,1649.3281,1686.0083,1653.3281,1682.0083,1649.3281" style="stroke:#181818;stroke-width:1.0;"/><text fill="#000000" font-family="Roboto" font-size="13" lengthAdjust="spacing" textLength="107.9419" x="1741.0637" y="1600.9966">"event_id check:</text><text fill="#000000" font-family="Roboto" font-size="13" lengthAdjust="spacing" textLength="226.0527" x="1682.0083" y="1616.1294">'uuid-43' != last_event_id -&gt; apply</text><text fill="#000000" font-family="Roboto" font-size="13" lengthAdjust="spacing" textLength="172.7451" x="1708.6621" y="1631.2622">row.state_revision = N+2"</text><polygon fill="#181818" points="1206.0244,1674.4609,1196.0244,1678.4609,1206.0244,1682.4609,1202.0244,1678.4609" style="stroke:#181818;stroke-width:1.0;"/><line style="stroke:#181818;stroke-width:1.0;stroke-dasharray:2.0,2.0;" x1="1200.0244" x2="1674.0083" y1="1678.4609" y2="1678.4609"/><text fill="#000000" font-family="Roboto" font-size="13" lengthAdjust="spacing" textLength="208.3936" x="1330.8196" y="1673.395">"200 OK {state_revision: N+2}"</text><polygon fill="#181818" points="709.5137,1703.5938,699.5137,1707.5938,709.5137,1711.5938,705.5137,1707.5938" style="stroke:#181818;stroke-width:1.0;"/><line style="stroke:#181818;stroke-width:1.0;stroke-dasharray:2.0,2.0;" x1="703.5137" x2="1194.0244" y1="1707.5938" y2="1707.5938"/><text fill="#000000" font-family="Roboto" font-size="13" lengthAdjust="spacing" textLength="129.835" x="881.8516" y="1702.5278">"{status:200, row}"</text><polygon fill="#181818" points="1019.3843,1732.7266,1029.3843,1736.7266,1019.3843,1740.7266,1023.3843,1736.7266" style="stroke:#181818;stroke-width:1.0;"/><line style="stroke:#181818;stroke-width:1.0;" x1="698.5137" x2="1025.3843" y1="1736.7266" y2="1736.7266"/><text fill="#000000" font-family="Roboto" font-size="13" lengthAdjust="spacing" textLength="128.6543" x="800.6218" y="1731.6606">"dequeue(uuid-43)"</text><polygon fill="#181818" points="709.5137,1761.8594,699.5137,1765.8594,709.5137,1769.8594,705.5137,1765.8594" style="stroke:#181818;stroke-width:1.0;"/><line style="stroke:#181818;stroke-width:1.0;stroke-dasharray:2.0,2.0;" x1="703.5137" x2="1030.3843" y1="1765.8594" y2="1765.8594"/><text fill="#000000" font-family="Roboto" font-size="13" lengthAdjust="spacing" textLength="30.7163" x="849.5908" y="1760.7935">"OK"</text><polygon fill="#181818" points="1183.0244,1790.9922,1193.0244,1794.9922,1183.0244,1798.9922,1187.0244,1794.9922" style="stroke:#181818;stroke-width:1.0;"/><line style="stroke:#181818;stroke-width:1.0;" x1="698.5137" x2="1189.0244" y1="1794.9922" y2="1794.9922"/><text fill="#000000" font-family="Roboto" font-size="13" lengthAdjust="spacing" textLength="297.4131" x="798.0625" y="1789.9263">"putReadingState(event_id:'uuid-44', state3)"</text><polygon fill="#181818" points="1663.0083,1820.125,1673.0083,1824.125,1663.0083,1828.125,1667.0083,1824.125" style="stroke:#181818;stroke-width:1.0;"/><line style="stroke:#181818;stroke-width:1.0;" x1="1195.0244" x2="1669.0083" y1="1824.125" y2="1824.125"/><text fill="#000000" font-family="Roboto" font-size="13" lengthAdjust="spacing" textLength="194.3843" x="1337.8242" y="1819.0591">"PUT /api/v1/reading-state/..."</text><line style="stroke:#181818;stroke-width:1.0;" x1="1675.0083" x2="1717.0083" y1="1853.2578" y2="1853.2578"/><line style="stroke:#181818;stroke-width:1.0;" x1="1717.0083" x2="1717.0083" y1="1853.2578" y2="1866.2578"/><line style="stroke:#181818;stroke-width:1.0;" x1="1676.0083" x2="1717.0083" y1="1866.2578" y2="1866.2578"/><polygon fill="#181818" points="1686.0083,1862.2578,1676.0083,1866.2578,1686.0083,1870.2578,1682.0083,1866.2578" style="stroke:#181818;stroke-width:1.0;"/><text fill="#000000" font-family="Roboto" font-size="13" lengthAdjust="spacing" textLength="194.9492" x="1682.0083" y="1848.1919">"apply; state_revision = N+3"</text><polygon fill="#181818" points="1206.0244,1891.3906,1196.0244,1895.3906,1206.0244,1899.3906,1202.0244,1895.3906" style="stroke:#181818;stroke-width:1.0;"/><line style="stroke:#181818;stroke-width:1.0;stroke-dasharray:2.0,2.0;" x1="1200.0244" x2="1674.0083" y1="1895.3906" y2="1895.3906"/><text fill="#000000" font-family="Roboto" font-size="13" lengthAdjust="spacing" textLength="208.3936" x="1330.8196" y="1890.3247">"200 OK {state_revision: N+3}"</text><polygon fill="#181818" points="709.5137,1920.5234,699.5137,1924.5234,709.5137,1928.5234,705.5137,1924.5234" style="stroke:#181818;stroke-width:1.0;"/><line style="stroke:#181818;stroke-width:1.0;stroke-dasharray:2.0,2.0;" x1="703.5137" x2="1194.0244" y1="1924.5234" y2="1924.5234"/><text fill="#000000" font-family="Roboto" font-size="13" lengthAdjust="spacing" textLength="129.835" x="881.8516" y="1919.4575">"{status:200, row}"</text><polygon fill="#181818" points="1019.3843,1949.6563,1029.3843,1953.6563,1019.3843,1957.6563,1023.3843,1953.6563" style="stroke:#181818;stroke-width:1.0;"/><line style="stroke:#181818;stroke-width:1.0;" x1="698.5137" x2="1025.3843" y1="1953.6563" y2="1953.6563"/><text fill="#000000" font-family="Roboto" font-size="13" lengthAdjust="spacing" textLength="128.6543" x="800.6218" y="1948.5903">"dequeue(uuid-44)"</text><polygon fill="#181818" points="709.5137,1978.7891,699.5137,1982.7891,709.5137,1986.7891,705.5137,1982.7891" style="stroke:#181818;stroke-width:1.0;"/><line style="stroke:#181818;stroke-width:1.0;stroke-dasharray:2.0,2.0;" x1="703.5137" x2="1030.3843" y1="1982.7891" y2="1982.7891"/><text fill="#000000" font-family="Roboto" font-size="13" lengthAdjust="spacing" textLength="30.7163" x="849.5908" y="1977.7231">"OK"</text><polygon fill="#181818" points="331.3335,2030.0547,321.3335,2034.0547,331.3335,2038.0547,327.3335,2034.0547" style="stroke:#181818;stroke-width:1.0;"/><line style="stroke:#181818;stroke-width:1.0;stroke-dasharray:2.0,2.0;" x1="325.3335" x2="697.5137" y1="2034.0547" y2="2034.0547"/><text fill="#000000" font-family="Roboto" font-size="13" lengthAdjust="spacing" textLength="109.8652" x="454.491" y="2013.856">"ReplayOutcome</text><text fill="#000000" font-family="Roboto" font-size="13" lengthAdjust="spacing" textLength="240.4048" x="389.2212" y="2028.9888">{replayed: n, conflicts: [], failed: []}"</text><path d="M638,2051.0547 L638,2242.0547 A4,4 0 0 0 642,2246.0547 L1729,2246.0547 A4,4 0 0 0 1733,2242.0547 L1733,2057.0547 L1723,2047.0547 L642,2047.0547 A4,4 0 0 0 638,2051.0547 " fill="#FEFFDD" style="stroke:#181818;stroke-width:0.5;"/><path d="M1723,2047.0547 L1723,2055.0547 A2,2 0 0 0 1725,2057.0547 L1733,2057.0547 L1723,2047.0547 " fill="#FEFFDD" style="stroke:#181818;stroke-width:0.5;"/><text fill="#000000" font-family="Roboto" font-size="13" lengthAdjust="spacing" textLength="160.7417" x="1010.8298" y="2064.1216">Idempotency guarantee:</text><text fill="#000000" font-family="Roboto" font-size="13" lengthAdjust="spacing" textLength="260.9141" x="1010.8298" y="2079.2544">If any queued write was already applied</text><text fill="#000000" font-family="Roboto" font-size="13" lengthAdjust="spacing" textLength="273.7808" x="1010.8298" y="2094.3872">(e.g., the connection dropped after server</text><text fill="#000000" font-family="Roboto" font-size="13" lengthAdjust="spacing" textLength="272.4097" x="1010.8298" y="2109.52">wrote but before client got the response),</text><text fill="#000000" font-family="Roboto" font-size="13" lengthAdjust="spacing" textLength="341.1738" x="1010.8298" y="2124.6528">the replay finds body.event_id == row.last_event_id</text><text fill="#000000" font-family="Roboto" font-size="13" lengthAdjust="spacing" textLength="315.8784" x="1010.8298" y="2139.7856">and returns the current row without re-applying.</text><text fill="#000000" font-family="Roboto" font-size="13" lengthAdjust="spacing" textLength="272.0098" x="1010.8298" y="2154.9185">The queue entry is then safely dequeued.</text><line style="stroke:#181818;stroke-width:1.0;" x1="639" x2="999.1738" y1="2157.9844" y2="2157.9844"/><text fill="#000000" font-family="Roboto" font-size="13" lengthAdjust="spacing" textLength="335.5244" x="1010.8298" y="2174.0513">replayQueue() returns a ReplayOutcome with three</text><text fill="#000000" font-family="Roboto" font-size="13" lengthAdjust="spacing" textLength="325.6919" x="1010.8298" y="2189.1841">buckets: replayed (applied + dequeued), conflicts</text><text fill="#000000" font-family="Roboto" font-size="13" lengthAdjust="spacing" textLength="322.7212" x="1010.8298" y="2204.3169">(a 409 latches that write and every later write for</text><text fill="#000000" font-family="Roboto" font-size="13" lengthAdjust="spacing" textLength="322.626" x="1010.8298" y="2219.4497">the same story), and failed (a non-offline 4xx/5xx</text><text fill="#000000" font-family="Roboto" font-size="13" lengthAdjust="spacing" textLength="297.1719" x="1010.8298" y="2234.5825">write is dropped from the queue, not retried).</text><path d="M13,2260.6484 L13,2277.6484 A4,4 0 0 0 17,2281.6484 L1724,2281.6484 A4,4 0 0 0 1728,2277.6484 L1728,2266.6484 L1718,2256.6484 L17,2256.6484 A4,4 0 0 0 13,2260.6484 " fill="#FEFFDD" style="stroke:#181818;stroke-width:0.5;"/><path d="M1718,2256.6484 L1718,2264.6484 A2,2 0 0 0 1720,2266.6484 L1728,2266.6484 L1718,2256.6484 " fill="#FEFFDD" style="stroke:#181818;stroke-width:0.5;"/><text fill="#000000" font-family="Roboto" font-size="13" lengthAdjust="spacing" textLength="402.9048" x="664.6455" y="2273.7153">Conflict during replay (another device advanced while offline)</text><path d="M14,2293.7813 L74.4429,2293.7813 L74.4429,2300.9141 L64.4429,2310.9141 L10,2310.9141 L10,2297.7813 A4,4 0 0 1 14,2293.7813 " fill="#EEEEEE" style="stroke:#000000;stroke-width:1.5;"/><rect fill="none" height="264.3281" rx="4" ry="4" style="stroke:#000000;stroke-width:1.5;" width="1740.1958" x="10" y="2293.7813"/><text fill="#000000" font-family="Roboto" font-size="13" font-weight="bold" lengthAdjust="spacing" textLength="19.4429" x="25" y="2306.8481">alt</text><text fill="#000000" font-family="Roboto" font-size="11" font-weight="bold" lengthAdjust="spacing" textLength="191.4043" x="89.4429" y="2305.9917">["a queued write returns 409"]</text><polygon fill="#181818" points="1183.0244,2328.0469,1193.0244,2332.0469,1183.0244,2336.0469,1187.0244,2332.0469" style="stroke:#181818;stroke-width:1.0;"/><line style="stroke:#181818;stroke-width:1.0;" x1="698.5137" x2="1189.0244" y1="2332.0469" y2="2332.0469"/><text fill="#000000" font-family="Roboto" font-size="13" lengthAdjust="spacing" textLength="367.4849" x="763.0266" y="2326.981">"putReadingState(event_id:'uuid-43', state_revision=N)"</text><polygon fill="#181818" points="1663.0083,2357.1797,1673.0083,2361.1797,1663.0083,2365.1797,1667.0083,2361.1797" style="stroke:#181818;stroke-width:1.0;"/><line style="stroke:#181818;stroke-width:1.0;" x1="1195.0244" x2="1669.0083" y1="2361.1797" y2="2361.1797"/><text fill="#000000" font-family="Roboto" font-size="13" lengthAdjust="spacing" textLength="53.7837" x="1408.1245" y="2356.1138">"PUT ..."</text><polygon fill="#181818" points="1206.0244,2386.3125,1196.0244,2390.3125,1206.0244,2394.3125,1202.0244,2390.3125" style="stroke:#181818;stroke-width:1.0;"/><line style="stroke:#181818;stroke-width:1.0;stroke-dasharray:2.0,2.0;" x1="1200.0244" x2="1674.0083" y1="2390.3125" y2="2390.3125"/><text fill="#000000" font-family="Roboto" font-size="13" lengthAdjust="spacing" textLength="455.9839" x="1207.0244" y="2385.2466">"409 {detail:'revision mismatch', current_row:{state_revision:N+5}}"</text><polygon fill="#181818" points="709.5137,2415.4453,699.5137,2419.4453,709.5137,2423.4453,705.5137,2419.4453" style="stroke:#181818;stroke-width:1.0;"/><line style="stroke:#181818;stroke-width:1.0;stroke-dasharray:2.0,2.0;" x1="703.5137" x2="1194.0244" y1="2419.4453" y2="2419.4453"/><text fill="#000000" font-family="Roboto" font-size="13" lengthAdjust="spacing" textLength="180.9336" x="856.3022" y="2414.3794">"{status:409, currentRow}"</text><line style="stroke:#181818;stroke-width:1.0;" x1="698.5137" x2="740.5137" y1="2463.7109" y2="2463.7109"/><line style="stroke:#181818;stroke-width:1.0;" x1="740.5137" x2="740.5137" y1="2463.7109" y2="2476.7109"/><line style="stroke:#181818;stroke-width:1.0;" x1="699.5137" x2="740.5137" y1="2476.7109" y2="2476.7109"/><polygon fill="#181818" points="709.5137,2472.7109,699.5137,2476.7109,709.5137,2480.7109,705.5137,2476.7109" style="stroke:#181818;stroke-width:1.0;"/><text fill="#000000" font-family="Roboto" font-size="13" lengthAdjust="spacing" textLength="258.813" x="723.4553" y="2443.5122">"latch: this write and every LATER write</text><text fill="#000000" font-family="Roboto" font-size="13" lengthAdjust="spacing" textLength="294.6963" x="705.5137" y="2458.645">for the same story go into outcome.conflicts"</text><polygon fill="#181818" points="331.3335,2501.8438,321.3335,2505.8438,331.3335,2509.8438,327.3335,2505.8438" style="stroke:#181818;stroke-width:1.0;"/><line style="stroke:#181818;stroke-width:1.0;stroke-dasharray:2.0,2.0;" x1="325.3335" x2="697.5137" y1="2505.8438" y2="2505.8438"/><text fill="#000000" font-family="Roboto" font-size="13" lengthAdjust="spacing" textLength="354.1802" x="332.3335" y="2500.7778">"ReplayOutcome {replayed, conflicts:[...], failed:[...]}"</text><polygon fill="#181818" points="78.9702,2546.1094,68.9702,2550.1094,78.9702,2554.1094,74.9702,2550.1094" style="stroke:#181818;stroke-width:1.0;"/><line style="stroke:#181818;stroke-width:1.0;" x1="72.9702" x2="319.3335" y1="2550.1094" y2="2550.1094"/><text fill="#000000" font-family="Roboto" font-size="13" lengthAdjust="spacing" textLength="113.6484" x="137.3276" y="2529.9106">"show conflict UX</text><text fill="#000000" font-family="Roboto" font-size="13" lengthAdjust="spacing" textLength="206.4512" x="90.9263" y="2545.0435">(offline-conflict-ux.md options)"</text><!--SRC=[lLXTRziu5dtNhxZhVR2DM7OdoG2x7dI1J3lT3QQJPDC4kq0I1BH4sqHaKaDIIOp0_tqFIKcMR2TDss0xGAUMxWTvpxc7b-hI-n_u4tNf2_-pu3BXz56mcMQBCPrEfvcGdCuojYGcKphdYPAI9nRcnpBbZppz-2ibB9dp0QdI6b4AJfhdpkj1s3dnUoxjhKX9f7oHAuiiowZhKgf28-5KPDoCyPjegfN4-tHaT38g8uxCKYP3Q_2wPzWzFzDgfhanWpB9lrt2GRNQtxHMklzyi7GIGY5OlOKnvOKzvomLSlR5CejeNFfz_4SBzolb_jUEi1fUN8_E_V_Es8mZ-YFrh1Qp6TU6cWic9IcPAsNuY1LMnUxTZf2mk3EZml1plxrJMPVThNmTkh5x5rbNLY5agX8pIhaHCrdjFOO1_f7Ok7WSBjAr6U98YRsFB4_ciSbvWjSeq1z5PaMSydi1b1mAf0j0vHBy4DaYSoTapa0oL7RAaEKJzd_25fmwvsgYhEeqJ2OikPjfLSZqWygKfhz-EdB_DIpAbrfoJNzhF3SbfVz0yG7DKOPYK08oSXr5BB48rlam5vbZjiElGym08Jo84C2AHEHCMgp9lwNBOzeZZywrV0Rt9jpzQ_aLA1i8zdtk1Le9GBMpVt65_yoMN5_BZPQubis4lH34lOjIPjc46HIqPldQs_V0jUnbAc5Pw5_ixC_rEaGwsLx3KIxWyq-EAgD5KlgG2PGIksonD_5FHpuCoyLj-DsEzeaPUtHsJBy2MVY5Qe9_mtpf_IRXUTJY6PrAho-kP6FVLw2yMpfspFKzy6amJ49bIBc77iv16N7S34BnpYXYiU2fm0wpPHHvRuh_KI53O-g45gQSGTf6LBOZrHtTYIfRkFccWKyB9fHbGBbMJlUEqm4P474v0LN23wS_r_8fjDrnEkxYN_5HTn1q50z0TZv5WdJLHv-u38rCfH6zfqGlSwk66igj5fUNnnzxVMVOBGgHneVxtRKlu7Qk6oBOUt69mFsgo44pJaqQJOKszgOJkP1nOrcdlw_JhMdn3LbHaU5m6Af3eJOuKZQAuvzK-tFLQQH2uf85BklPvGMDy7Pq_zEeP5_iWu-UoWMiHay-_-fQJbIw926Jh82Whe-plL29MutL6A5a9weIn5kxt7_tZav_fwUsnvXEzdvQjPVPA9gtBimOpZZirCEOcfLQLHLjq_C9yeSgECQbNUy6murEAe_gq4eFxemBtP- -geTEk7rG-evc2jMeZlqun37b-I_aUa9uiOqOqioHmxNJMxJE_gxUURbHIiOSVBqZ-hI3yp_4Td1wcxi7tU-ZBe9r0cmGfRa5DhG5MY6zth59nd-1T7ERpCdEmHASHrBHloukpg289bVIO3Xvdj1NpNbhJB8Ep-wPo5pucsTvtV8DsUNDLl6R8rZlwLbPSCqvhhLXVrSrLmx_vp7QsJ-X7nggkuxMecd3Ct32BuDmp5iX2svGPDTcOBYhZt6Ztc9pUEwykaCmOLYHPLNNzL_PCPvbVc47h-c4m_z79xH9m6PCo5SovcjKgRXmiCs5m-uRKk6mkwMizNmt9gKn6K9HovlGjmWhW0F5uHjNtgKwbn8BSVNHerteDuPA1pxEwNBED7Jq-NCxqe2m5igvZdrFzRSAcmbZGwW-xWFOlT3bKJ6WJyUVJdSKy-ffkm4z0qD_hj2ozBIDozhaO0M0eqofd3fJKCF9LNb8OUFXUF7RxqH4hrFPNIiAo-cx8DyhjLJRjjtg2G4zaToDhsMTblxodZ9ClxUrYLzxdYqn1Ak7ONiyG4UUxEstydp3OB6_sjpR2wF5gbdC4lporjih5-zBjQjrlXk6msv3bTuU1b_NNsX7JG- -jwO7RrlJmsThwgy_kpIfl4aMDb4BZb4dz3Q7UiW1LHTyCwQhcm5DSHAxDrStJgZMikFYLgg3_CVhpp8qAt1pncsEZzsBAGwVjlZGWxlNPGw5fIUku2v4ZmzdE69mJb4fWAxKgLPv3aysjIwhlr_1-46xbKmAInEE1eTBgEKCMkGYrEF70CRXWHT1t7bIN0vntW_hze7ckhvfzPH3I3hXjOMM9YogqDgbWAt_9gMGNFFOCyHTFE5oCQ- -NS5GOzxtdX9tn2ckWjKdeDIPnZ7-Qkfilqx6g0LG-0262OTpnxW29NVWLA1HhomXxX9LWdu3HbTPHeVl_WxHiFwIQkVCbaYuFMBBM2fUkld2FqL1owePzpqbwFh06mSwk8XIoRWQt0yV7qS_FpvwNBp6cXetFwlOUQtuxh30HZKMt1ywYhedVEi8z60j1S-0LhMLLvr_7ohZjD10fSAzLqr0vPSebjupcJX6mftNir0KiSoYwzjyhO114T_WlAZ5uFt9roLhKvosqZfWSLUnm6NShGLg8Sp2eOsS9MrltTrlKurEzdvUlKQDaAGETBuXIfMjPzSOK0FyJN9zFhhuxJmynNt1p-jDRg5hSInRHIemVbYJTvte1GMZMi2QwdM5qgtro__owswCEs5WTjFk73rTq-polvXtTd_l99KxLJBzeAx_0m00]--></g></svg>