<svg xmlns="http://www.w3.org/2000/svg" xmlns:xlink="http://www.w3.org/1999/xlink" contentStyleType="text/css" height="2420px" preserveAspectRatio="none" style="width:1837px;height:2420px;background:#FAFAFA;" version="1.1" viewBox="0 0 1837 2420" width="1837px" zoomAndPan="magnify"><defs><style type="text/css">@import url('https://fonts.googleapis.com/css?family=Roboto:400,100,100italic,300,300italic,400italic,500,500italic,700,700italic,900,900italic');</style></defs><g><rect fill="#FAFAFA" height="2420" style="stroke:none;stroke-width:1.0;" width="1837" x="0" y="0"/><rect fill="none" height="293.2344" rx="4" ry="4" style="stroke:#000000;stroke-width:1.5;" width="416.6631" x="1192.9194" y="570.0313"/><rect fill="none" height="466.4063" rx="4" ry="4" style="stroke:#000000;stroke-width:1.5;" width="1050.4209" x="671.9468" y="1022.4375"/><rect fill="none" height="350.8125" rx="4" ry="4" style="stroke:#000000;stroke-width:1.5;" width="1050.4209" x="671.9468" y="1502.8438"/><rect fill="none" height="311.0156" rx="4" ry="4" style="stroke:#000000;stroke-width:1.5;" width="1483.2769" x="346.8359" y="1909.8906"/><line style="stroke:#181818;stroke-width:0.5;stroke-dasharray:5.0,5.0;" x1="36" x2="36" y1="83.8125" y2="2325.6094"/><line style="stroke:#181818;stroke-width:0.5;stroke-dasharray:5.0,5.0;" x1="239.4302" x2="239.4302" y1="83.8125" y2="2325.6094"/><line style="stroke:#181818;stroke-width:0.5;stroke-dasharray:5.0,5.0;" x1="396.8359" x2="396.8359" y1="83.8125" y2="2325.6094"/><line style="stroke:#181818;stroke-width:0.5;stroke-dasharray:5.0,5.0;" x1="735.9468" x2="735.9468" y1="83.8125" y2="2325.6094"/><line style="stroke:#181818;stroke-width:0.5;stroke-dasharray:5.0,5.0;" x1="1057.4263" x2="1057.4263" y1="83.8125" y2="2325.6094"/><line style="stroke:#181818;stroke-width:0.5;stroke-dasharray:5.0,5.0;" x1="1156.4907" x2="1156.4907" y1="83.8125" y2="2325.6094"/><line style="stroke:#181818;stroke-width:0.5;stroke-dasharray:5.0,5.0;" x1="1260.9194" x2="1260.9194" y1="83.8125" y2="2325.6094"/><line style="stroke:#181818;stroke-width:0.5;stroke-dasharray:5.0,5.0;" x1="1450.9487" x2="1450.9487" y1="83.8125" y2="2325.6094"/><line style="stroke:#181818;stroke-width:0.5;stroke-dasharray:5.0,5.0;" x1="1552.8052" x2="1552.8052" y1="83.8125" y2="2325.6094"/><line style="stroke:#181818;stroke-width:0.5;stroke-dasharray:5.0,5.0;" x1="1660.5825" x2="1660.5825" y1="83.8125" y2="2325.6094"/><line style="stroke:#181818;stroke-width:0.5;stroke-dasharray:5.0,5.0;" x1="1770.3677" x2="1770.3677" y1="83.8125" y2="2325.6094"/><text fill="#000000" font-family="Roboto" font-size="14" lengthAdjust="spacing" textLength="56.2598" x="5" y="80.3945">Guardian</text><ellipse cx="36.1299" cy="15.9063" fill="#E2E2F0" rx="8" ry="8" style="stroke:#181818;stroke-width:0.5;"/><path d="M36.1299,23.9063 L36.1299,50.9063 M23.1299,31.9063 L49.1299,31.9063 M36.1299,50.9063 L23.1299,65.9063 M36.1299,50.9063 L49.1299,65.9063 " fill="none" style="stroke:#181818;stroke-width:0.5;"/><text fill="#000000" font-family="Roboto" font-size="14" lengthAdjust="spacing" textLength="56.2598" x="5" y="2337.5977">Guardian</text><ellipse cx="36.1299" cy="2349.5156" fill="#E2E2F0" rx="8" ry="8" style="stroke:#181818;stroke-width:0.5;"/><path d="M36.1299,2357.5156 L36.1299,2384.5156 M23.1299,2365.5156 L49.1299,2365.5156 M36.1299,2384.5156 L23.1299,2399.5156 M36.1299,2384.5156 L49.1299,2399.5156 " fill="none" style="stroke:#181818;stroke-width:0.5;"/><rect fill="#E2E2F0" height="46.8125" rx="4" ry="4" style="stroke:#181818;stroke-width:0.5;" width="98.6768" x="190.4302" y="36"/><text fill="#000000" font-family="Roboto" font-size="14" lengthAdjust="spacing" textLength="21.7725" x="228.8823" y="55.9883">API</text><text fill="#000000" font-family="Roboto" font-size="14" lengthAdjust="spacing" textLength="84.6768" x="197.4302" y="72.3945">generation.py</text><rect fill="#E2E2F0" height="46.8125" rx="4" ry="4" style="stroke:#181818;stroke-width:0.5;" width="98.6768" x="190.4302" y="2324.6094"/><text fill="#000000" font-family="Roboto" font-size="14" lengthAdjust="spacing" textLength="21.7725" x="228.8823" y="2344.5977">API</text><text fill="#000000" font-family="Roboto" font-size="14" lengthAdjust="spacing" textLength="84.6768" x="197.4302" y="2361.0039">generation.py</text><rect fill="#E2E2F0" height="46.8125" rx="4" ry="4" style="stroke:#181818;stroke-width:0.5;" width="80.1445" x="356.8359" y="36"/><text fill="#000000" font-family="Roboto" font-size="14" lengthAdjust="spacing" textLength="66.1445" x="363.8359" y="55.9883">RQ Worker</text><text fill="#000000" font-family="Roboto" font-size="14" lengthAdjust="spacing" textLength="60.6895" x="366.5635" y="72.3945">worker.py</text><rect fill="#E2E2F0" height="46.8125" rx="4" ry="4" style="stroke:#181818;stroke-width:0.5;" width="80.1445" x="356.8359" y="2324.6094"/><text fill="#000000" font-family="Roboto" font-size="14" lengthAdjust="spacing" textLength="66.1445" x="363.8359" y="2344.5977">RQ Worker</text><text fill="#000000" font-family="Roboto" font-size="14" lengthAdjust="spacing" textLength="60.6895" x="366.5635" y="2361.0039">worker.py</text><rect fill="#E2E2F0" height="46.8125" rx="4" ry="4" style="stroke:#181818;stroke-width:0.5;" width="108.8418" x="681.9468" y="36"/><text fill="#000000" font-family="Roboto" font-size="14" lengthAdjust="spacing" textLength="78.3125" x="697.2114" y="55.9883">Orchestrator</text><text fill="#000000" font-family="Roboto" font-size="14" lengthAdjust="spacing" textLength="94.8418" x="688.9468" y="72.3945">orchestrator.py</text><rect fill="#E2E2F0" height="46.8125" rx="4" ry="4" style="stroke:#181818;stroke-width:0.5;" width="108.8418" x="681.9468" y="2324.6094"/><text fill="#000000" font-family="Roboto" font-size="14" lengthAdjust="spacing" textLength="78.3125" x="697.2114" y="2344.5977">Orchestrator</text><text fill="#000000" font-family="Roboto" font-size="14" lengthAdjust="spacing" textLength="94.8418" x="688.9468" y="2361.0039">orchestrator.py</text><rect fill="#E2E2F0" height="46.8125" rx="4" ry="4" style="stroke:#181818;stroke-width:0.5;" width="107.0645" x="1004.4263" y="36"/><text fill="#000000" font-family="Roboto" font-size="14" lengthAdjust="spacing" textLength="93.0645" x="1011.4263" y="55.9883">Prompt Builder</text><text fill="#000000" font-family="Roboto" font-size="14" lengthAdjust="spacing" textLength="70.7109" x="1022.603" y="72.3945">prompts.py</text><rect fill="#E2E2F0" height="46.8125" rx="4" ry="4" style="stroke:#181818;stroke-width:0.5;" width="107.0645" x="1004.4263" y="2324.6094"/><text fill="#000000" font-family="Roboto" font-size="14" lengthAdjust="spacing" textLength="93.0645" x="1011.4263" y="2344.5977">Prompt Builder</text><text fill="#000000" font-family="Roboto" font-size="14" lengthAdjust="spacing" textLength="70.7109" x="1022.603" y="2361.0039">prompts.py</text><rect fill="#E2E2F0" height="46.8125" rx="4" ry="4" style="stroke:#181818;stroke-width:0.5;" width="71.4287" x="1121.4907" y="36"/><text fill="#000000" font-family="Roboto" font-size="14" lengthAdjust="spacing" textLength="57.4287" x="1128.4907" y="55.9883">PII Guard</text><text fill="#000000" font-family="Roboto" font-size="14" lengthAdjust="spacing" textLength="32.8467" x="1140.7817" y="72.3945">pii.py</text><rect fill="#E2E2F0" height="46.8125" rx="4" ry="4" style="stroke:#181818;stroke-width:0.5;" width="71.4287" x="1121.4907" y="2324.6094"/><text fill="#000000" font-family="Roboto" font-size="14" lengthAdjust="spacing" textLength="57.4287" x="1128.4907" y="2344.5977">PII Guard</text><text fill="#000000" font-family="Roboto" font-size="14" lengthAdjust="spacing" textLength="32.8467" x="1140.7817" y="2361.0039">pii.py</text><rect fill="#E2E2F0" height="46.8125" rx="4" ry="4" style="stroke:#181818;stroke-width:0.5;" width="117.8721" x="1202.9194" y="36"/><text fill="#000000" font-family="Roboto" font-size="14" lengthAdjust="spacing" textLength="103.8721" x="1209.9194" y="55.9883">FallbackProvider</text><text fill="#000000" font-family="Roboto" font-size="14" lengthAdjust="spacing" textLength="67.3682" x="1228.1714" y="72.3945">fallback.py</text><rect fill="#E2E2F0" height="46.8125" rx="4" ry="4" style="stroke:#181818;stroke-width:0.5;" width="117.8721" x="1202.9194" y="2324.6094"/><text fill="#000000" font-family="Roboto" font-size="14" lengthAdjust="spacing" textLength="103.8721" x="1209.9194" y="2344.5977">FallbackProvider</text><text fill="#000000" font-family="Roboto" font-size="14" lengthAdjust="spacing" textLength="67.3682" x="1228.1714" y="2361.0039">fallback.py</text><rect fill="#E2E2F0" height="46.8125" rx="4" ry="4" style="stroke:#181818;stroke-width:0.5;" width="90.8564" x="1405.9487" y="36"/><text fill="#000000" font-family="Roboto" font-size="14" lengthAdjust="spacing" textLength="73.7256" x="1414.5142" y="55.9883">OpenRouter</text><text fill="#000000" font-family="Roboto" font-size="14" lengthAdjust="spacing" textLength="76.8564" x="1412.9487" y="72.3945">[primary leg]</text><rect fill="#E2E2F0" height="46.8125" rx="4" ry="4" style="stroke:#181818;stroke-width:0.5;" width="90.8564" x="1405.9487" y="2324.6094"/><text fill="#000000" font-family="Roboto" font-size="14" lengthAdjust="spacing" textLength="73.7256" x="1414.5142" y="2344.5977">OpenRouter</text><text fill="#000000" font-family="Roboto" font-size="14" lengthAdjust="spacing" textLength="76.8564" x="1412.9487" y="2361.0039">[primary leg]</text><rect fill="#E2E2F0" height="46.8125" rx="4" ry="4" style="stroke:#181818;stroke-width:0.5;" width="92.7773" x="1506.8052" y="36"/><text fill="#000000" font-family="Roboto" font-size="14" lengthAdjust="spacing" textLength="43.9482" x="1531.2197" y="55.9883">Ollama</text><text fill="#000000" font-family="Roboto" font-size="14" lengthAdjust="spacing" textLength="78.7773" x="1513.8052" y="72.3945">[fallback leg]</text><rect fill="#E2E2F0" height="46.8125" rx="4" ry="4" style="stroke:#181818;stroke-width:0.5;" width="92.7773" x="1506.8052" y="2324.6094"/><text fill="#000000" font-family="Roboto" font-size="14" lengthAdjust="spacing" textLength="43.9482" x="1531.2197" y="2344.5977">Ollama</text><text fill="#000000" font-family="Roboto" font-size="14" lengthAdjust="spacing" textLength="78.7773" x="1513.8052" y="2361.0039">[fallback leg]</text><rect fill="#E2E2F0" height="46.8125" rx="4" ry="4" style="stroke:#181818;stroke-width:0.5;" width="102.7852" x="1609.5825" y="36"/><text fill="#000000" font-family="Roboto" font-size="14" lengthAdjust="spacing" textLength="88.7852" x="1616.5825" y="55.9883">Validator Gate</text><text fill="#000000" font-family="Roboto" font-size="14" lengthAdjust="spacing" textLength="45.6572" x="1638.1465" y="72.3945">gate.py</text><rect fill="#E2E2F0" height="46.8125" rx="4" ry="4" style="stroke:#181818;stroke-width:0.5;" width="102.7852" x="1609.5825" y="2324.6094"/><text fill="#000000" font-family="Roboto" font-size="14" lengthAdjust="spacing" textLength="88.7852" x="1616.5825" y="2344.5977">Validator Gate</text><text fill="#000000" font-family="Roboto" font-size="14" lengthAdjust="spacing" textLength="45.6572" x="1638.1465" y="2361.0039">gate.py</text><text fill="#000000" font-family="Roboto" font-size="14" lengthAdjust="spacing" textLength="74.1357" x="1731.1724" y="63.9883">PostgreSQL</text><text fill="#000000" font-family="Roboto" font-size="14" lengthAdjust="spacing" textLength="91.7451" x="1722.3677" y="80.3945">GenerationJob</text><path d="M1753.2402,15 C1753.2402,5 1771.2402,5 1771.2402,5 C1771.2402,5 1789.2402,5 1789.2402,15 L1789.2402,41 C1789.2402,51 1771.2402,51 1771.2402,51 C1771.2402,51 1753.2402,51 1753.2402,41 L1753.2402,15 " fill="#E2E2F0" style="stroke:#181818;stroke-width:1.5;"/><path d="M1753.2402,15 C1753.2402,25 1771.2402,25 1771.2402,25 C1771.2402,25 1789.2402,25 1789.2402,15 " fill="none" style="stroke:#181818;stroke-width:1.5;"/><text fill="#000000" font-family="Roboto" font-size="14" lengthAdjust="spacing" textLength="74.1357" x="1731.1724" y="2337.5977">PostgreSQL</text><text fill="#000000" font-family="Roboto" font-size="14" lengthAdjust="spacing" textLength="91.7451" x="1722.3677" y="2354.0039">GenerationJob</text><path d="M1753.2402,2367.4219 C1753.2402,2357.4219 1771.2402,2357.4219 1771.2402,2357.4219 C1771.2402,2357.4219 1789.2402,2357.4219 1789.2402,2367.4219 L1789.2402,2393.4219 C1789.2402,2403.4219 1771.2402,2403.4219 1771.2402,2403.4219 C1771.2402,2403.4219 1753.2402,2403.4219 1753.2402,2393.4219 L1753.2402,2367.4219 " fill="#E2E2F0" style="stroke:#181818;stroke-width:1.5;"/><path d="M1753.2402,2367.4219 C1753.2402,2377.4219 1771.2402,2377.4219 1771.2402,2377.4219 C1771.2402,2377.4219 1789.2402,2377.4219 1789.2402,2367.4219 " fill="none" style="stroke:#181818;stroke-width:1.5;"/><polygon fill="#181818" points="227.7686,126.2813,237.7686,130.2813,227.7686,134.2813,231.7686,130.2813" style="stroke:#181818;stroke-width:1.0;"/><line style="stroke:#181818;stroke-width:1.0;" x1="36.1299" x2="233.7686" y1="130.2813" y2="130.2813"/><text fill="#000000" font-family="Roboto" font-size="13" lengthAdjust="spacing" textLength="179.6387" x="48.1299" y="109.873">"POST /concepts/{id}/generate</text><text fill="#000000" font-family="Roboto" font-size="13" lengthAdjust="spacing" textLength="85.6616" x="95.1184" y="125.1074">(bearer token)"</text><polygon fill="#181818" points="1759.2402,170.75,1769.2402,174.75,1759.2402,178.75,1763.2402,174.75" style="stroke:#181818;stroke-width:1.0;"/><line style="stroke:#181818;stroke-width:1.0;" x1="239.7686" x2="1765.2402" y1="174.75" y2="174.75"/><text fill="#000000" font-family="Roboto" font-size="13" lengthAdjust="spacing" textLength="136.2651" x="937.3718" y="154.3418">"INSERT GenerationJob</text><text fill="#000000" font-family="Roboto" font-size="13" lengthAdjust="spacing" textLength="94.8467" x="958.0811" y="169.5762">status='queued'"</text><line style="stroke:#181818;stroke-width:1.0;" x1="239.7686" x2="281.7686" y1="219.2188" y2="219.2188"/><line style="stroke:#181818;stroke-width:1.0;" x1="281.7686" x2="281.7686" y1="219.2188" y2="232.2188"/><line style="stroke:#181818;stroke-width:1.0;" x1="240.7686" x2="281.7686" y1="232.2188" y2="232.2188"/><polygon fill="#181818" points="250.7686,228.2188,240.7686,232.2188,250.7686,236.2188,246.7686,232.2188" style="stroke:#181818;stroke-width:1.0;"/><text fill="#000000" font-family="Roboto" font-size="13" lengthAdjust="spacing" textLength="104.7998" x="265.9385" y="198.8105">"BackgroundTask:</text><text fill="#000000" font-family="Roboto" font-size="13" lengthAdjust="spacing" textLength="143.1396" x="246.7686" y="214.0449">_enqueue_safely(job_id)"</text><polygon fill="#181818" points="47.1299,272.6875,37.1299,276.6875,47.1299,280.6875,43.1299,276.6875" style="stroke:#181818;stroke-width:1.0;"/><line style="stroke:#181818;stroke-width:1.0;stroke-dasharray:2.0,2.0;" x1="41.1299" x2="238.7686" y1="276.6875" y2="276.6875"/><text fill="#000000" font-family="Roboto" font-size="13" lengthAdjust="spacing" textLength="84.0684" x="95.915" y="256.2793">"202 Accepted</text><text fill="#000000" font-family="Roboto" font-size="13" lengthAdjust="spacing" textLength="139.623" x="68.1377" y="271.5137">{job_id, status:'queued'}"</text><polygon fill="#181818" points="384.9082,301.9219,394.9082,305.9219,384.9082,309.9219,388.9082,305.9219" style="stroke:#181818;stroke-width:1.0;"/><line style="stroke:#181818;stroke-width:1.0;" x1="239.7686" x2="390.9082" y1="305.9219" y2="305.9219"/><text fill="#000000" font-family="Roboto" font-size="13" lengthAdjust="spacing" textLength="122.3892" x="257.1438" y="300.748">"[RQ] enqueue job_id"</text><polygon fill="#181818" points="1759.2402,331.1563,1769.2402,335.1563,1759.2402,339.1563,1763.2402,335.1563" style="stroke:#181818;stroke-width:1.0;"/><line style="stroke:#181818;stroke-width:1.0;" x1="396.9082" x2="1765.2402" y1="335.1563" y2="335.1563"/><text fill="#000000" font-family="Roboto" font-size="13" lengthAdjust="spacing" textLength="151.7534" x="1008.1975" y="329.9824">"UPDATE status='running'"</text><polygon fill="#181818" points="724.3677,360.3906,734.3677,364.3906,724.3677,368.3906,728.3677,364.3906" style="stroke:#181818;stroke-width:1.0;"/><line style="stroke:#181818;stroke-width:1.0;" x1="396.9082" x2="730.3677" y1="364.3906" y2="364.3906"/><text fill="#000000" font-family="Roboto" font-size="13" lengthAdjust="spacing" textLength="254.4775" x="439.3992" y="359.2168">"generate_story(brief, provider=fallback, pii)"</text><polygon fill="#181818" points="1045.9585,389.625,1055.9585,393.625,1045.9585,397.625,1049.9585,393.625" style="stroke:#181818;stroke-width:1.0;"/><line style="stroke:#181818;stroke-width:1.0;" x1="736.3677" x2="1051.9585" y1="393.625" y2="393.625"/><text fill="#000000" font-family="Roboto" font-size="13" lengthAdjust="spacing" textLength="177.563" x="808.3816" y="388.4512">"build_structure_prompt(brief)"</text><polygon fill="#181818" points="747.3677,418.8594,737.3677,422.8594,747.3677,426.8594,743.3677,422.8594" style="stroke:#181818;stroke-width:1.0;"/><line style="stroke:#181818;stroke-width:1.0;stroke-dasharray:2.0,2.0;" x1="741.3677" x2="1056.9585" y1="422.8594" y2="422.8594"/><text fill="#000000" font-family="Roboto" font-size="13" lengthAdjust="spacing" textLength="177.855" x="808.2356" y="417.6855">"StagePrompt (system + user)"</text><polygon fill="#181818" points="1145.2051,463.3281,1155.2051,467.3281,1145.2051,471.3281,1149.2051,467.3281" style="stroke:#181818;stroke-width:1.0;"/><line style="stroke:#181818;stroke-width:1.0;" x1="736.3677" x2="1151.2051" y1="467.3281" y2="467.3281"/><text fill="#000000" font-family="Roboto" font-size="13" lengthAdjust="spacing" textLength="189.7822" x="851.8953" y="446.9199">"assert_prompt_pii_safe(system)</text><text fill="#000000" font-family="Roboto" font-size="13" lengthAdjust="spacing" textLength="172.8403" x="860.3662" y="462.1543">assert_prompt_pii_safe(user)"</text><polygon fill="#181818" points="747.3677,492.5625,737.3677,496.5625,747.3677,500.5625,743.3677,496.5625" style="stroke:#181818;stroke-width:1.0;"/><line style="stroke:#181818;stroke-width:1.0;stroke-dasharray:2.0,2.0;" x1="741.3677" x2="1156.2051" y1="496.5625" y2="496.5625"/><text fill="#000000" font-family="Roboto" font-size="13" lengthAdjust="spacing" textLength="224.231" x="834.6709" y="491.3887">"OK (or raises ValidationError -&gt; abort)"</text><polygon fill="#181818" points="1249.8555,521.7969,1259.8555,525.7969,1249.8555,529.7969,1253.8555,525.7969" style="stroke:#181818;stroke-width:1.0;"/><line style="stroke:#181818;stroke-width:1.0;" x1="736.3677" x2="1255.8555" y1="525.7969" y2="525.7969"/><text fill="#000000" font-family="Roboto" font-size="13" lengthAdjust="spacing" textLength="314.4058" x="841.9087" y="520.623">"provider.complete(system, user, max_tokens=16384)"</text><polygon fill="#181818" points="1439.377,551.0313,1449.377,555.0313,1439.377,559.0313,1443.377,555.0313" style="stroke:#181818;stroke-width:1.0;"/><line style="stroke:#181818;stroke-width:1.0;" x1="1261.8555" x2="1445.377" y1="555.0313" y2="555.0313"/><text fill="#000000" font-family="Roboto" font-size="13" lengthAdjust="spacing" textLength="165.5215" x="1273.8555" y="549.8574">"attempt leg 0 (OpenRouter)"</text><path d="M1196.9194,570.0313 L1252.7285,570.0313 L1252.7285,577.2656 L1242.7285,587.2656 L1192.9194,587.2656 L1192.9194,574.0313 A4,4 0 0 1 1196.9194,570.0313 " fill="#EEEEEE" style="stroke:#000000;stroke-width:1.5;"/><rect fill="none" height="293.2344" rx="4" ry="4" style="stroke:#000000;stroke-width:1.5;" width="416.6631" x="1192.9194" y="570.0313"/><text fill="#000000" font-family="Roboto" font-size="13" font-weight="bold" lengthAdjust="spacing" textLength="14.8091" x="1207.9194" y="583.0918">alt</text><text fill="#000000" font-family="Roboto" font-size="11" font-weight="bold" lengthAdjust="spacing" textLength="135.894" x="1267.7285" y="582.2363">[transient failure (429/5xx)]</text><polygon fill="#181818" points="1272.8555,604.5,1262.8555,608.5,1272.8555,612.5,1268.8555,608.5" style="stroke:#181818;stroke-width:1.0;"/><line style="stroke:#181818;stroke-width:1.0;stroke-dasharray:2.0,2.0;" x1="1266.8555" x2="1450.377" y1="608.5" y2="608.5"/><text fill="#000000" font-family="Roboto" font-size="13" lengthAdjust="spacing" textLength="138.436" x="1287.3982" y="603.3262">"httpx error / HTTP 429"</text><line style="stroke:#181818;stroke-width:1.0;" x1="1261.8555" x2="1303.8555" y1="652.9688" y2="652.9688"/><line style="stroke:#181818;stroke-width:1.0;" x1="1303.8555" x2="1303.8555" y1="652.9688" y2="665.9688"/><line style="stroke:#181818;stroke-width:1.0;" x1="1262.8555" x2="1303.8555" y1="665.9688" y2="665.9688"/><polygon fill="#181818" points="1272.8555,661.9688,1262.8555,665.9688,1272.8555,669.9688,1268.8555,665.9688" style="stroke:#181818;stroke-width:1.0;"/><text fill="#000000" font-family="Roboto" font-size="13" lengthAdjust="spacing" textLength="86.1504" x="1268.8555" y="632.5605">"retry same leg</text><text fill="#000000" font-family="Roboto" font-size="13" lengthAdjust="spacing" textLength="84.6523" x="1269.6045" y="647.7949">(exp. backoff)"</text><polygon fill="#181818" points="1272.8555,691.2031,1262.8555,695.2031,1272.8555,699.2031,1268.8555,695.2031" style="stroke:#181818;stroke-width:1.0;"/><line style="stroke:#181818;stroke-width:1.0;stroke-dasharray:2.0,2.0;" x1="1266.8555" x2="1450.377" y1="695.2031" y2="695.2031"/><text fill="#000000" font-family="Roboto" font-size="13" lengthAdjust="spacing" textLength="115.8257" x="1298.7034" y="690.0293">"success after retry"</text><line style="stroke:#000000;stroke-width:1.0;stroke-dasharray:2.0,2.0;" x1="1192.9194" x2="1609.5825" y1="704.2031" y2="704.2031"/><text fill="#000000" font-family="Roboto" font-size="11" font-weight="bold" lengthAdjust="spacing" textLength="134.9058" x="1197.9194" y="714.4082">[leg-fatal failure (401/400)]</text><polygon fill="#181818" points="1272.8555,735.3281,1262.8555,739.3281,1272.8555,743.3281,1268.8555,739.3281" style="stroke:#181818;stroke-width:1.0;"/><line style="stroke:#181818;stroke-width:1.0;stroke-dasharray:2.0,2.0;" x1="1266.8555" x2="1450.377" y1="739.3281" y2="739.3281"/><text fill="#000000" font-family="Roboto" font-size="13" lengthAdjust="spacing" textLength="93.7422" x="1309.7451" y="734.1543">"HTTP 401/400"</text><line style="stroke:#181818;stroke-width:1.0;" x1="1261.8555" x2="1303.8555" y1="783.7969" y2="783.7969"/><line style="stroke:#181818;stroke-width:1.0;" x1="1303.8555" x2="1303.8555" y1="783.7969" y2="796.7969"/><line style="stroke:#181818;stroke-width:1.0;" x1="1262.8555" x2="1303.8555" y1="796.7969" y2="796.7969"/><polygon fill="#181818" points="1272.8555,792.7969,1262.8555,796.7969,1272.8555,800.7969,1268.8555,796.7969" style="stroke:#181818;stroke-width:1.0;"/><text fill="#000000" font-family="Roboto" font-size="13" lengthAdjust="spacing" textLength="96.5923" x="1268.8555" y="763.3887">"mark leg 0 dead</text><text fill="#000000" font-family="Roboto" font-size="13" lengthAdjust="spacing" textLength="96.313" x="1268.9951" y="778.623">fail over to leg 1"</text><polygon fill="#181818" points="1541.1938,822.0313,1551.1938,826.0313,1541.1938,830.0313,1545.1938,826.0313" style="stroke:#181818;stroke-width:1.0;"/><line style="stroke:#181818;stroke-width:1.0;" x1="1261.8555" x2="1547.1938" y1="826.0313" y2="826.0313"/><text fill="#000000" font-family="Roboto" font-size="13" lengthAdjust="spacing" textLength="137.8711" x="1338.5891" y="820.8574">"attempt leg 1 (Ollama)"</text><polygon fill="#181818" points="1272.8555,851.2656,1262.8555,855.2656,1272.8555,859.2656,1268.8555,855.2656" style="stroke:#181818;stroke-width:1.0;"/><line style="stroke:#181818;stroke-width:1.0;stroke-dasharray:2.0,2.0;" x1="1266.8555" x2="1552.1938" y1="855.2656" y2="855.2656"/><text fill="#000000" font-family="Roboto" font-size="13" lengthAdjust="spacing" textLength="54.647" x="1380.2012" y="850.0918">"raw text"</text><polygon fill="#181818" points="747.3677,887.5,737.3677,891.5,747.3677,895.5,743.3677,891.5" style="stroke:#181818;stroke-width:1.0;"/><line style="stroke:#181818;stroke-width:1.0;stroke-dasharray:2.0,2.0;" x1="741.3677" x2="1260.8555" y1="891.5" y2="891.5"/><text fill="#000000" font-family="Roboto" font-size="13" lengthAdjust="spacing" textLength="54.647" x="971.7881" y="886.3262">"raw text"</text><line style="stroke:#181818;stroke-width:1.0;" x1="736.3677" x2="778.3677" y1="935.9688" y2="935.9688"/><line style="stroke:#181818;stroke-width:1.0;" x1="778.3677" x2="778.3677" y1="935.9688" y2="948.9688"/><line style="stroke:#181818;stroke-width:1.0;" x1="737.3677" x2="778.3677" y1="948.9688" y2="948.9688"/><polygon fill="#181818" points="747.3677,944.9688,737.3677,948.9688,747.3677,952.9688,743.3677,948.9688" style="stroke:#181818;stroke-width:1.0;"/><text fill="#000000" font-family="Roboto" font-size="13" lengthAdjust="spacing" textLength="93.9136" x="806.9363" y="915.5605">"json.loads(raw)</text><text fill="#000000" font-family="Roboto" font-size="13" lengthAdjust="spacing" textLength="221.0508" x="743.3677" y="930.7949">[parse error -&gt; synthetic blocked gate]"</text><polygon fill="#181818" points="1648.9751,974.2031,1658.9751,978.2031,1648.9751,982.2031,1652.9751,978.2031" style="stroke:#181818;stroke-width:1.0;"/><line style="stroke:#181818;stroke-width:1.0;" x1="736.3677" x2="1654.9751" y1="978.2031" y2="978.2031"/><text fill="#000000" font-family="Roboto" font-size="13" lengthAdjust="spacing" textLength="134.564" x="1131.3894" y="973.0293">"run_gate(parsed_doc)"</text><polygon fill="#181818" points="747.3677,1003.4375,737.3677,1007.4375,747.3677,1011.4375,743.3677,1007.4375" style="stroke:#181818;stroke-width:1.0;"/><line style="stroke:#181818;stroke-width:1.0;stroke-dasharray:2.0,2.0;" x1="741.3677" x2="1659.9751" y1="1007.4375" y2="1007.4375"/><text fill="#000000" font-family="Roboto" font-size="13" lengthAdjust="spacing" textLength="216.8867" x="1090.228" y="1002.2637">"GateResult(blocked, safety_flagged)"</text><path d="M675.9468,1022.4375 L731.7559,1022.4375 L731.7559,1029.6719 L721.7559,1039.6719 L671.9468,1039.6719 L671.9468,1026.4375 A4,4 0 0 1 675.9468,1022.4375 " fill="#EEEEEE" style="stroke:#000000;stroke-width:1.5;"/><rect fill="none" height="466.4063" rx="4" ry="4" style="stroke:#000000;stroke-width:1.5;" width="1050.4209" x="671.9468" y="1022.4375"/><text fill="#000000" font-family="Roboto" font-size="13" font-weight="bold" lengthAdjust="spacing" textLength="14.8091" x="686.9468" y="1035.498">alt</text><text fill="#000000" font-family="Roboto" font-size="11" font-weight="bold" lengthAdjust="spacing" textLength="86.7109" x="746.7559" y="1034.6426">[Stage A blocked]</text><line style="stroke:#181818;stroke-width:1.0;" x1="736.3677" x2="778.3677" y1="1076.1406" y2="1076.1406"/><line style="stroke:#181818;stroke-width:1.0;" x1="778.3677" x2="778.3677" y1="1076.1406" y2="1089.1406"/><line style="stroke:#181818;stroke-width:1.0;" x1="737.3677" x2="778.3677" y1="1089.1406" y2="1089.1406"/><polygon fill="#181818" points="747.3677,1085.1406,737.3677,1089.1406,747.3677,1093.1406,743.3677,1089.1406" style="stroke:#181818;stroke-width:1.0;"/><text fill="#000000" font-family="Roboto" font-size="13" lengthAdjust="spacing" textLength="164.855" x="743.3677" y="1055.7324">"stage_log: 'stage_a:blocked'</text><text fill="#000000" font-family="Roboto" font-size="13" lengthAdjust="spacing" textLength="147.5576" x="752.0164" y="1070.9668">skip Stage B, go to repair"</text><line style="stroke:#000000;stroke-width:1.0;stroke-dasharray:2.0,2.0;" x1="671.9468" x2="1722.3677" y1="1098.1406" y2="1098.1406"/><text fill="#000000" font-family="Roboto" font-size="11" font-weight="bold" lengthAdjust="spacing" textLength="74.2769" x="676.9468" y="1108.3457">[Stage A clean]</text><line style="stroke:#181818;stroke-width:1.0;" x1="736.3677" x2="778.3677" y1="1133.2656" y2="1133.2656"/><line style="stroke:#181818;stroke-width:1.0;" x1="778.3677" x2="778.3677" y1="1133.2656" y2="1146.2656"/><line style="stroke:#181818;stroke-width:1.0;" x1="737.3677" x2="778.3677" y1="1146.2656" y2="1146.2656"/><polygon fill="#181818" points="747.3677,1142.2656,737.3677,1146.2656,747.3677,1150.2656,743.3677,1146.2656" style="stroke:#181818;stroke-width:1.0;"/><text fill="#000000" font-family="Roboto" font-size="13" lengthAdjust="spacing" textLength="168.9111" x="743.3677" y="1128.0918">"stage_log: 'stage_a:gate_ok'"</text><polygon fill="#181818" points="1045.9585,1171.5,1055.9585,1175.5,1045.9585,1179.5,1049.9585,1175.5" style="stroke:#181818;stroke-width:1.0;"/><line style="stroke:#181818;stroke-width:1.0;" x1="736.3677" x2="1051.9585" y1="1175.5" y2="1175.5"/><text fill="#000000" font-family="Roboto" font-size="13" lengthAdjust="spacing" textLength="243.3818" x="775.4722" y="1170.3262">"build_prose_prompt(skeleton_json, brief)"</text><polygon fill="#181818" points="747.3677,1200.7344,737.3677,1204.7344,747.3677,1208.7344,743.3677,1204.7344" style="stroke:#181818;stroke-width:1.0;"/><line style="stroke:#181818;stroke-width:1.0;stroke-dasharray:2.0,2.0;" x1="741.3677" x2="1056.9585" y1="1204.7344" y2="1204.7344"/><text fill="#000000" font-family="Roboto" font-size="13" lengthAdjust="spacing" textLength="84.5381" x="854.894" y="1199.5605">"StagePrompt"</text><polygon fill="#181818" points="1145.2051,1229.9688,1155.2051,1233.9688,1145.2051,1237.9688,1149.2051,1233.9688" style="stroke:#181818;stroke-width:1.0;"/><line style="stroke:#181818;stroke-width:1.0;" x1="736.3677" x2="1151.2051" y1="1233.9688" y2="1233.9688"/><text fill="#000000" font-family="Roboto" font-size="13" lengthAdjust="spacing" textLength="219.1592" x="837.2068" y="1228.7949">"assert_prompt_pii_safe(both blocks)"</text><polygon fill="#181818" points="747.3677,1259.2031,737.3677,1263.2031,747.3677,1267.2031,743.3677,1263.2031" style="stroke:#181818;stroke-width:1.0;"/><line style="stroke:#181818;stroke-width:1.0;stroke-dasharray:2.0,2.0;" x1="741.3677" x2="1156.2051" y1="1263.2031" y2="1263.2031"/><text fill="#000000" font-family="Roboto" font-size="13" lengthAdjust="spacing" textLength="25.4287" x="934.072" y="1258.0293">"OK"</text><polygon fill="#181818" points="1249.8555,1288.4375,1259.8555,1292.4375,1249.8555,1296.4375,1253.8555,1292.4375" style="stroke:#181818;stroke-width:1.0;"/><line style="stroke:#181818;stroke-width:1.0;" x1="736.3677" x2="1255.8555" y1="1292.4375" y2="1292.4375"/><text fill="#000000" font-family="Roboto" font-size="13" lengthAdjust="spacing" textLength="235.5488" x="881.3372" y="1287.2637">"provider.complete(max_tokens=32000)"</text><polygon fill="#181818" points="1439.377,1317.6719,1449.377,1321.6719,1439.377,1325.6719,1443.377,1321.6719" style="stroke:#181818;stroke-width:1.0;"/><line style="stroke:#181818;stroke-width:1.0;" x1="1261.8555" x2="1445.377" y1="1321.6719" y2="1321.6719"/><text fill="#000000" font-family="Roboto" font-size="13" lengthAdjust="spacing" textLength="149.0874" x="1282.0725" y="1316.498">"attempt (or next live leg)"</text><polygon fill="#181818" points="1272.8555,1346.9063,1262.8555,1350.9063,1272.8555,1354.9063,1268.8555,1350.9063" style="stroke:#181818;stroke-width:1.0;"/><line style="stroke:#181818;stroke-width:1.0;stroke-dasharray:2.0,2.0;" x1="1266.8555" x2="1450.377" y1="1350.9063" y2="1350.9063"/><text fill="#000000" font-family="Roboto" font-size="13" lengthAdjust="spacing" textLength="54.647" x="1329.2927" y="1345.7324">"raw text"</text><polygon fill="#181818" points="747.3677,1376.1406,737.3677,1380.1406,747.3677,1384.1406,743.3677,1380.1406" style="stroke:#181818;stroke-width:1.0;"/><line style="stroke:#181818;stroke-width:1.0;stroke-dasharray:2.0,2.0;" x1="741.3677" x2="1260.8555" y1="1380.1406" y2="1380.1406"/><text fill="#000000" font-family="Roboto" font-size="13" lengthAdjust="spacing" textLength="54.647" x="971.7881" y="1374.9668">"raw text"</text><polygon fill="#181818" points="1648.9751,1405.375,1658.9751,1409.375,1648.9751,1413.375,1652.9751,1409.375" style="stroke:#181818;stroke-width:1.0;"/><line style="stroke:#181818;stroke-width:1.0;" x1="736.3677" x2="1654.9751" y1="1409.375" y2="1409.375"/><text fill="#000000" font-family="Roboto" font-size="13" lengthAdjust="spacing" textLength="134.564" x="1131.3894" y="1404.2012">"run_gate(parsed_doc)"</text><polygon fill="#181818" points="747.3677,1434.6094,737.3677,1438.6094,747.3677,1442.6094,743.3677,1438.6094" style="stroke:#181818;stroke-width:1.0;"/><line style="stroke:#181818;stroke-width:1.0;stroke-dasharray:2.0,2.0;" x1="741.3677" x2="1659.9751" y1="1438.6094" y2="1438.6094"/><text fill="#000000" font-family="Roboto" font-size="13" lengthAdjust="spacing" textLength="71.5952" x="1162.8738" y="1433.4355">"GateResult"</text><line style="stroke:#181818;stroke-width:1.0;" x1="736.3677" x2="778.3677" y1="1467.8438" y2="1467.8438"/><line style="stroke:#181818;stroke-width:1.0;" x1="778.3677" x2="778.3677" y1="1467.8438" y2="1480.8438"/><line style="stroke:#181818;stroke-width:1.0;" x1="737.3677" x2="778.3677" y1="1480.8438" y2="1480.8438"/><polygon fill="#181818" points="747.3677,1476.8438,737.3677,1480.8438,747.3677,1484.8438,743.3677,1480.8438" style="stroke:#181818;stroke-width:1.0;"/><text fill="#000000" font-family="Roboto" font-size="13" lengthAdjust="spacing" textLength="217.8071" x="743.3677" y="1462.6699">"stage_log: 'stage_b:gate_ok|blocked'"</text><path d="M675.9468,1502.8438 L1123.4253,1502.8438 L1123.4253,1510.0781 L1113.4253,1520.0781 L671.9468,1520.0781 L671.9468,1506.8438 A4,4 0 0 1 675.9468,1502.8438 " fill="#EEEEEE" style="stroke:#000000;stroke-width:1.5;"/><rect fill="none" height="350.8125" rx="4" ry="4" style="stroke:#000000;stroke-width:1.5;" width="1050.4209" x="671.9468" y="1502.8438"/><text fill="#000000" font-family="Roboto" font-size="13" font-weight="bold" lengthAdjust="spacing" textLength="406.4785" x="686.9468" y="1515.9043">"Stage C: Repair Loop [while blocked AND attempts &lt; max_repairs=3]"</text><polygon fill="#181818" points="1045.9585,1537.3125,1055.9585,1541.3125,1045.9585,1545.3125,1049.9585,1541.3125" style="stroke:#181818;stroke-width:1.0;"/><line style="stroke:#181818;stroke-width:1.0;" x1="736.3677" x2="1051.9585" y1="1541.3125" y2="1541.3125"/><text fill="#000000" font-family="Roboto" font-size="13" lengthAdjust="spacing" textLength="297.5908" x="748.3677" y="1536.1387">"build_repair_prompt(current_json, failing_findings)"</text><polygon fill="#181818" points="747.3677,1566.5469,737.3677,1570.5469,747.3677,1574.5469,743.3677,1570.5469" style="stroke:#181818;stroke-width:1.0;"/><line style="stroke:#181818;stroke-width:1.0;stroke-dasharray:2.0,2.0;" x1="741.3677" x2="1056.9585" y1="1570.5469" y2="1570.5469"/><text fill="#000000" font-family="Roboto" font-size="13" lengthAdjust="spacing" textLength="84.5381" x="854.894" y="1565.373">"StagePrompt"</text><polygon fill="#181818" points="1145.2051,1595.7813,1155.2051,1599.7813,1145.2051,1603.7813,1149.2051,1599.7813" style="stroke:#181818;stroke-width:1.0;"/><line style="stroke:#181818;stroke-width:1.0;" x1="736.3677" x2="1151.2051" y1="1599.7813" y2="1599.7813"/><text fill="#000000" font-family="Roboto" font-size="13" lengthAdjust="spacing" textLength="151.8296" x="870.8716" y="1594.6074">"assert_prompt_pii_safe()"</text><polygon fill="#181818" points="747.3677,1625.0156,737.3677,1629.0156,747.3677,1633.0156,743.3677,1629.0156" style="stroke:#181818;stroke-width:1.0;"/><line style="stroke:#181818;stroke-width:1.0;stroke-dasharray:2.0,2.0;" x1="741.3677" x2="1156.2051" y1="1629.0156" y2="1629.0156"/><text fill="#000000" font-family="Roboto" font-size="13" lengthAdjust="spacing" textLength="25.4287" x="934.072" y="1623.8418">"OK"</text><polygon fill="#181818" points="1249.8555,1654.25,1259.8555,1658.25,1249.8555,1662.25,1253.8555,1658.25" style="stroke:#181818;stroke-width:1.0;"/><line style="stroke:#181818;stroke-width:1.0;" x1="736.3677" x2="1255.8555" y1="1658.25" y2="1658.25"/><text fill="#000000" font-family="Roboto" font-size="13" lengthAdjust="spacing" textLength="235.5488" x="881.3372" y="1653.0762">"provider.complete(max_tokens=32000)"</text><polygon fill="#181818" points="747.3677,1683.4844,737.3677,1687.4844,747.3677,1691.4844,743.3677,1687.4844" style="stroke:#181818;stroke-width:1.0;"/><line style="stroke:#181818;stroke-width:1.0;stroke-dasharray:2.0,2.0;" x1="741.3677" x2="1260.8555" y1="1687.4844" y2="1687.4844"/><text fill="#000000" font-family="Roboto" font-size="13" lengthAdjust="spacing" textLength="54.647" x="971.7881" y="1682.3105">"raw text"</text><polygon fill="#181818" points="1648.9751,1712.7188,1658.9751,1716.7188,1648.9751,1720.7188,1652.9751,1716.7188" style="stroke:#181818;stroke-width:1.0;"/><line style="stroke:#181818;stroke-width:1.0;" x1="736.3677" x2="1654.9751" y1="1716.7188" y2="1716.7188"/><text fill="#000000" font-family="Roboto" font-size="13" lengthAdjust="spacing" textLength="118.6948" x="1139.324" y="1711.5449">"run_gate(new_doc)"</text><polygon fill="#181818" points="747.3677,1741.9531,737.3677,1745.9531,747.3677,1749.9531,743.3677,1745.9531" style="stroke:#181818;stroke-width:1.0;"/><line style="stroke:#181818;stroke-width:1.0;stroke-dasharray:2.0,2.0;" x1="741.3677" x2="1659.9751" y1="1745.9531" y2="1745.9531"/><text fill="#000000" font-family="Roboto" font-size="13" lengthAdjust="spacing" textLength="71.5952" x="1162.8738" y="1740.7793">"GateResult"</text><line style="stroke:#181818;stroke-width:1.0;" x1="736.3677" x2="778.3677" y1="1790.4219" y2="1790.4219"/><line style="stroke:#181818;stroke-width:1.0;" x1="778.3677" x2="778.3677" y1="1790.4219" y2="1803.4219"/><line style="stroke:#181818;stroke-width:1.0;" x1="737.3677" x2="778.3677" y1="1803.4219" y2="1803.4219"/><polygon fill="#181818" points="747.3677,1799.4219,737.3677,1803.4219,747.3677,1807.4219,743.3677,1803.4219" style="stroke:#181818;stroke-width:1.0;"/><text fill="#000000" font-family="Roboto" font-size="13" lengthAdjust="spacing" textLength="168.3271" x="781.3362" y="1770.0137">"check no-progress signature</text><text fill="#000000" font-family="Roboto" font-size="13" lengthAdjust="spacing" textLength="244.2642" x="743.3677" y="1785.248">(same findings + same doc hash -&gt; abort)"</text><line style="stroke:#181818;stroke-width:1.0;" x1="736.3677" x2="778.3677" y1="1832.6563" y2="1832.6563"/><line style="stroke:#181818;stroke-width:1.0;" x1="778.3677" x2="778.3677" y1="1832.6563" y2="1845.6563"/><line style="stroke:#181818;stroke-width:1.0;" x1="737.3677" x2="778.3677" y1="1845.6563" y2="1845.6563"/><polygon fill="#181818" points="747.3677,1841.6563,737.3677,1845.6563,747.3677,1849.6563,743.3677,1845.6563" style="stroke:#181818;stroke-width:1.0;"/><text fill="#000000" font-family="Roboto" font-size="13" lengthAdjust="spacing" textLength="287.9741" x="743.3677" y="1827.4824">"stage_log: 'repair:N' or 'repair:no_progress_abort'"</text><line style="stroke:#181818;stroke-width:1.0;" x1="736.3677" x2="778.3677" y1="1881.8906" y2="1881.8906"/><line style="stroke:#181818;stroke-width:1.0;" x1="778.3677" x2="778.3677" y1="1881.8906" y2="1894.8906"/><line style="stroke:#181818;stroke-width:1.0;" x1="737.3677" x2="778.3677" y1="1894.8906" y2="1894.8906"/><polygon fill="#181818" points="747.3677,1890.8906,737.3677,1894.8906,747.3677,1898.8906,743.3677,1894.8906" style="stroke:#181818;stroke-width:1.0;"/><text fill="#000000" font-family="Roboto" font-size="13" lengthAdjust="spacing" textLength="257.7212" x="743.3677" y="1876.7168">"_build_outcome(gate_result, doc, attempts)"</text><path d="M350.8359,1909.8906 L406.645,1909.8906 L406.645,1917.125 L396.645,1927.125 L346.8359,1927.125 L346.8359,1913.8906 A4,4 0 0 1 350.8359,1909.8906 " fill="#EEEEEE" style="stroke:#000000;stroke-width:1.5;"/><rect fill="none" height="311.0156" rx="4" ry="4" style="stroke:#000000;stroke-width:1.5;" width="1483.2769" x="346.8359" y="1909.8906"/><text fill="#000000" font-family="Roboto" font-size="13" font-weight="bold" lengthAdjust="spacing" textLength="14.8091" x="361.8359" y="1922.9512">alt</text><text fill="#000000" font-family="Roboto" font-size="11" font-weight="bold" lengthAdjust="spacing" textLength="196.1201" x="421.645" y="1922.0957">[passed: gate clean, not safety_flagged]</text><polygon fill="#181818" points="407.9082,1944.3594,397.9082,1948.3594,407.9082,1952.3594,403.9082,1948.3594" style="stroke:#181818;stroke-width:1.0;"/><line style="stroke:#181818;stroke-width:1.0;stroke-dasharray:2.0,2.0;" x1="401.9082" x2="735.3677" y1="1948.3594" y2="1948.3594"/><text fill="#000000" font-family="Roboto" font-size="13" lengthAdjust="spacing" textLength="315.4595" x="408.9082" y="1943.1855">"GenerationOutcome(status='passed', storybook=doc)"</text><polygon fill="#181818" points="1759.2402,1988.8281,1769.2402,1992.8281,1759.2402,1996.8281,1763.2402,1992.8281" style="stroke:#181818;stroke-width:1.0;"/><line style="stroke:#181818;stroke-width:1.0;" x1="396.9082" x2="1765.2402" y1="1992.8281" y2="1992.8281"/><text fill="#000000" font-family="Roboto" font-size="13" lengthAdjust="spacing" textLength="146.0342" x="1011.0571" y="1972.4199">"UPDATE status='passed'</text><text fill="#000000" font-family="Roboto" font-size="13" lengthAdjust="spacing" textLength="166.4673" x="1000.8406" y="1987.6543">storybook_id, version, report"</text><line style="stroke:#000000;stroke-width:1.0;stroke-dasharray:2.0,2.0;" x1="346.8359" x2="1830.1128" y1="2001.8281" y2="2001.8281"/><text fill="#000000" font-family="Roboto" font-size="11" font-weight="bold" lengthAdjust="spacing" textLength="225.1455" x="351.8359" y="2012.0332">[needs_review: gate clean but safety_flagged]</text><polygon fill="#181818" points="407.9082,2032.9531,397.9082,2036.9531,407.9082,2040.9531,403.9082,2036.9531" style="stroke:#181818;stroke-width:1.0;"/><line style="stroke:#181818;stroke-width:1.0;stroke-dasharray:2.0,2.0;" x1="401.9082" x2="735.3677" y1="2036.9531" y2="2036.9531"/><text fill="#000000" font-family="Roboto" font-size="13" lengthAdjust="spacing" textLength="259.6191" x="436.8284" y="2031.7793">"GenerationOutcome(status='needs_review')"</text><polygon fill="#181818" points="1759.2402,2062.1875,1769.2402,2066.1875,1759.2402,2070.1875,1763.2402,2066.1875" style="stroke:#181818;stroke-width:1.0;"/><line style="stroke:#181818;stroke-width:1.0;" x1="396.9082" x2="1765.2402" y1="2066.1875" y2="2066.1875"/><text fill="#000000" font-family="Roboto" font-size="13" lengthAdjust="spacing" textLength="186.4751" x="990.8367" y="2061.0137">"UPDATE status='needs_review'"</text><line style="stroke:#000000;stroke-width:1.0;stroke-dasharray:2.0,2.0;" x1="346.8359" x2="1830.1128" y1="2075.1875" y2="2075.1875"/><text fill="#000000" font-family="Roboto" font-size="11" font-weight="bold" lengthAdjust="spacing" textLength="308.2847" x="351.8359" y="2085.3926">[needs_review: blocked after exhausting repairs (doc present)]</text><polygon fill="#181818" points="407.9082,2106.3125,397.9082,2110.3125,407.9082,2114.3125,403.9082,2110.3125" style="stroke:#181818;stroke-width:1.0;"/><line style="stroke:#181818;stroke-width:1.0;stroke-dasharray:2.0,2.0;" x1="401.9082" x2="735.3677" y1="2110.3125" y2="2110.3125"/><text fill="#000000" font-family="Roboto" font-size="13" lengthAdjust="spacing" textLength="259.6191" x="436.8284" y="2105.1387">"GenerationOutcome(status='needs_review')"</text><polygon fill="#181818" points="1759.2402,2135.5469,1769.2402,2139.5469,1759.2402,2143.5469,1763.2402,2139.5469" style="stroke:#181818;stroke-width:1.0;"/><line style="stroke:#181818;stroke-width:1.0;" x1="396.9082" x2="1765.2402" y1="2139.5469" y2="2139.5469"/><text fill="#000000" font-family="Roboto" font-size="13" lengthAdjust="spacing" textLength="186.4751" x="990.8367" y="2134.373">"UPDATE status='needs_review'"</text><line style="stroke:#000000;stroke-width:1.0;stroke-dasharray:2.0,2.0;" x1="346.8359" x2="1830.1128" y1="2148.5469" y2="2148.5469"/><text fill="#000000" font-family="Roboto" font-size="11" font-weight="bold" lengthAdjust="spacing" textLength="218.4316" x="351.8359" y="2158.752">[failed: blocked, no parseable doc produced]</text><polygon fill="#181818" points="407.9082,2179.6719,397.9082,2183.6719,407.9082,2187.6719,403.9082,2183.6719" style="stroke:#181818;stroke-width:1.0;"/><line style="stroke:#181818;stroke-width:1.0;stroke-dasharray:2.0,2.0;" x1="401.9082" x2="735.3677" y1="2183.6719" y2="2183.6719"/><text fill="#000000" font-family="Roboto" font-size="13" lengthAdjust="spacing" textLength="213.4653" x="459.9053" y="2178.498">"GenerationOutcome(status='failed')"</text><polygon fill="#181818" points="1759.2402,2208.9063,1769.2402,2212.9063,1759.2402,2216.9063,1763.2402,2212.9063" style="stroke:#181818;stroke-width:1.0;"/><line style="stroke:#181818;stroke-width:1.0;" x1="396.9082" x2="1765.2402" y1="2212.9063" y2="2212.9063"/><text fill="#000000" font-family="Roboto" font-size="13" lengthAdjust="spacing" textLength="191.0454" x="988.5515" y="2207.7324">"UPDATE status='failed', error=..."</text><polygon fill="#181818" points="227.7686,2245.1406,237.7686,2249.1406,227.7686,2253.1406,231.7686,2249.1406" style="stroke:#181818;stroke-width:1.0;"/><line style="stroke:#181818;stroke-width:1.0;" x1="36.1299" x2="233.7686" y1="2249.1406" y2="2249.1406"/><text fill="#000000" font-family="Roboto" font-size="13" lengthAdjust="spacing" textLength="179.1372" x="48.3806" y="2243.9668">"GET /generation-jobs/{job_id}"</text><polygon fill="#181818" points="1759.2402,2274.375,1769.2402,2278.375,1759.2402,2282.375,1763.2402,2278.375" style="stroke:#181818;stroke-width:1.0;"/><line style="stroke:#181818;stroke-width:1.0;" x1="239.7686" x2="1765.2402" y1="2278.375" y2="2278.375"/><text fill="#000000" font-family="Roboto" font-size="13" lengthAdjust="spacing" textLength="142.4604" x="934.2742" y="2273.2012">"SELECT GenerationJob"</text><polygon fill="#181818" points="47.1299,2303.6094,37.1299,2307.6094,47.1299,2311.6094,43.1299,2307.6094" style="stroke:#181818;stroke-width:1.0;"/><line style="stroke:#181818;stroke-width:1.0;stroke-dasharray:2.0,2.0;" x1="41.1299" x2="238.7686" y1="2307.6094" y2="2307.6094"/><text fill="#000000" font-family="Roboto" font-size="13" lengthAdjust="spacing" textLength="173.5322" x="51.1831" y="2302.4355">"{status, report, storybook_id}"</text><!--SRC=[nLXjKnit4Fv-lsB7_M0pjR59qaxgAPq1GYXj2WxGz4FCtCXtybcnB5qb7U19yz-xUZkV7J2aQQTa67o-VTzd7wtIXlsl-4dQS4d_hAZ8ABnYf51aCOHBGmgQmmaLL173f80HAobdWbfnewhCL8f2xoSOAQdTXmjQ4gRWbfaPb4hUi9mgc1BE9oIRGqPqHdAhJKGEDuIptDijYA4WAvF91TL9svgNbS9OfenJFSHd0AsoVhQKASblgB2E-qKTM5-gR4QrmIUfTiibG6SXyufJo6M6NpDHmBSGv6cgKMgvyxZLc87knnIyxTVXQHGp38aznIHZQED9hXUbqG_BXkf9rRV5UvBDMwdcL4LHMvb-oOaGM9q-oPNzxGq6ptjJ9OLXLFKuN_HM-hkB71M_2cM9dZDH4aGNv7HAAcvUewipig3Gkf0JQMIh8M9BN2XPYVn8SgdWczS7zbz38hnK62AyR7ol0vP_ereZXWyuAmHaM16gaeHaM3LedLH4vOo85X0DHNX8KD-mZ9L466WTZ4x7eb60Skc4ISdMvIxUmX-kjcDHrzX9-gTruVC6LCTY0xXEotwthZDoQ833Yl7SUbcXmoc4nmsTqrDmEQAu0vqNPHknRs9vB1fOTohnUIEDaeeB75chyRvKR47K4ZWjhaCAQHoU3JNEoOAWIaqAAnt-WCwx27KuGQXZHppWVUFmSu8loOGW0xL6Kfj2qSktRyPYnLk_o8bFlaYIs6dBLjX86ABI-UKLz3E9WC4gzZ-o_5CS6_JMcL2Y45z6pgdOQILM2NNBmggUdbqUNrp1cgknq8QOIk-t4OGLpTkrJl1tMEFwYkZvS2nIAfnegicKycNdWvoaB8- -KB4E6hMV3Px1GMP3fTZQZrws2zxdCFhyL3lr6BIQxo_UNaDm1LwlbIJXVPtIxwDN1rV747DGbIC8J68bQ05gHTS9jJDHZ4wxDU_lnnPtBUem6sIFNg_dZnKui9yJPycwzWYsHYSMv6Wn72-fV-MDev4esMl4uIo66UdefJPqWNHVQQfGeNR1NF69ngzDi9hYbwxeGMjdB1vu7unP8qtFvxz21t6f2DDKmxlwH3jMIhfIaObKfX553NjKZeNQnMElvDJ4ABekz2uio5tgKAVtzxv__l85cgdLNGprlBZ43AfY0N2UO02TrNpQoXDk04b6Q8OaY44mRa_kpejdF_I_kxlRIM3DMcyZq9anvHrGbrCVVhww6W5gjb2h6KzJGr63TA0jiMCyE4JqhjnrX2wdjelR_UaAyQsHQASOFZXRhOHoxOprfZZjl973OA__OZ1uB0SVjPVT5Zdos3pKCASajtJ8ECWRnm3knTwcUeEuDXknXurmZETpvW_7fyWj67fdC56H9ur6Dz2saebmYcy-Q3oUk2Ivxg3GZgLaeh1UDE9GBuMPKUHKc72PpN6jiynvlRBaLZ3henAf_Tnn1l8KrmICtRrjXcAP-89gFC4xmI1I40wAMQPJJWhS6oFiuhW7CTUczU2rbKYvB8RGzf_9C4YtaKpdh0n63hjGIDi6vTRCW8de8ECK3_2dcRVvf7AEh8OAJLewTBIqCl8PCPLsrOsafESKvrQArDQ_2v6Z01vXgLRJmrPUmfrevakdlU7F2AXfQpkxDFZa-RC1ZindGBwVKIp32OGTS7RZHl3H0Lu1jUdWNYIlWj-EG80j66mzgUsJsFQ_8hh2i3K1S0ITS8dXKfPTm6XmZvjH4G6yun1Yp-yoz1IEXl7YymPruFtj3AyjzQ0TdBs2K4eDFpfMz_Z5Dbotjc7DYqMmPPLIoDu1QvQMy5nEfqpa-5V_kx3xhx7sfL0GzFQVuW3tQ_GeP0-3nDKGZnMDjm5YTmiybzmH5Mk8IuDxHaym8thMFC2t0yntQdZMnhVrav1fz9awC-juE_VtNGH4MTeBQdCVYZvI3uHmDUuu_2gNQjT6sQs15Tcsj0tDXxv8ZX6xcBlPuEOwcxNzSBN5Xj0wSGdqLjjsoyH5RoBbV3zsuv7rCMZQdJXekcqLZrFDB8onL5YOmEI2qbnZVZUCtZPJW4drjHaqJRUV4lYQmhtnnVdsMmgzcv5A6zl8CDtGiJWgiLqujJl_Iy2M92mQwYDQI72iIYR-_qOiO-HLzkNrz9QV55WGxVfbP7ztTpUCmJrNiPDZl8cjRjmzlANWXSpVLJvjtBqkZzyS7stSlUw_CdtqeKIqDM3ipVuD]--></g></svg>
