<svg xmlns="http://www.w3.org/2000/svg" xmlns:xlink="http://www.w3.org/1999/xlink" contentStyleType="text/css" height="2523px" preserveAspectRatio="none" style="width:1657px;height:2523px;background:#FAFAFA;" version="1.1" viewBox="0 0 1657 2523" width="1657px" zoomAndPan="magnify"><defs><style type="text/css">@import url('https://fonts.googleapis.com/css?family=Roboto:400,100,100italic,300,300italic,400italic,500,500italic,700,700italic,900,900italic');</style></defs><g><rect fill="#FAFAFA" height="2523" style="stroke:none;stroke-width:1.0;" width="1657" x="0" y="0"/><rect fill="none" height="482.9844" rx="4" ry="4" style="stroke:#000000;stroke-width:1.5;" width="1114.9585" x="523.8271" y="1499.7031"/><rect fill="none" height="207.875" rx="4" ry="4" style="stroke:#000000;stroke-width:1.5;" width="1492.6255" x="10" y="2187.7969"/><line style="stroke:#181818;stroke-width:0.5;stroke-dasharray:5.0,5.0;" x1="62" x2="62" y1="100.2188" y2="2412.6719"/><line style="stroke:#181818;stroke-width:0.5;stroke-dasharray:5.0,5.0;" x1="286.1987" x2="286.1987" y1="100.2188" y2="2412.6719"/><line style="stroke:#181818;stroke-width:0.5;stroke-dasharray:5.0,5.0;" x1="587.8271" x2="587.8271" y1="100.2188" y2="2412.6719"/><line style="stroke:#181818;stroke-width:0.5;stroke-dasharray:5.0,5.0;" x1="877.478" x2="877.478" y1="100.2188" y2="2412.6719"/><line style="stroke:#181818;stroke-width:0.5;stroke-dasharray:5.0,5.0;" x1="1025.8882" x2="1025.8882" y1="100.2188" y2="2412.6719"/><line style="stroke:#181818;stroke-width:0.5;stroke-dasharray:5.0,5.0;" x1="1432.4087" x2="1432.4087" y1="100.2188" y2="2412.6719"/><text fill="#000000" font-family="Roboto" font-size="14" lengthAdjust="spacing" textLength="78.7295" x="20" y="96.8008">Child Reader</text><ellipse cx="62.3647" cy="32.3125" fill="#E2E2F0" rx="8" ry="8" style="stroke:#181818;stroke-width:0.5;"/><path d="M62.3647,40.3125 L62.3647,67.3125 M49.3647,48.3125 L75.3647,48.3125 M62.3647,67.3125 L49.3647,82.3125 M62.3647,67.3125 L75.3647,82.3125 " fill="none" style="stroke:#181818;stroke-width:0.5;"/><text fill="#000000" font-family="Roboto" font-size="14" lengthAdjust="spacing" textLength="78.7295" x="20" y="2424.6602">Child Reader</text><ellipse cx="62.3647" cy="2436.5781" fill="#E2E2F0" rx="8" ry="8" style="stroke:#181818;stroke-width:0.5;"/><path d="M62.3647,2444.5781 L62.3647,2471.5781 M49.3647,2452.5781 L75.3647,2452.5781 M62.3647,2471.5781 L49.3647,2486.5781 M62.3647,2471.5781 L75.3647,2486.5781 " fill="none" style="stroke:#181818;stroke-width:0.5;"/><rect fill="#E2E2F0" height="46.8125" rx="4" ry="4" style="stroke:#181818;stroke-width:0.5;" width="126.4375" x="223.1987" y="52.4063"/><text fill="#000000" font-family="Roboto" font-size="14" lengthAdjust="spacing" textLength="98.1982" x="237.3184" y="72.3945">XState Machine</text><text fill="#000000" font-family="Roboto" font-size="14" lengthAdjust="spacing" textLength="112.4375" x="230.1987" y="88.8008">player/machine.ts</text><rect fill="#E2E2F0" height="46.8125" rx="4" ry="4" style="stroke:#181818;stroke-width:0.5;" width="126.4375" x="223.1987" y="2411.6719"/><text fill="#000000" font-family="Roboto" font-size="14" lengthAdjust="spacing" textLength="98.1982" x="237.3184" y="2431.6602">XState Machine</text><text fill="#000000" font-family="Roboto" font-size="14" lengthAdjust="spacing" textLength="112.4375" x="230.1987" y="2448.0664">player/machine.ts</text><rect fill="#E2E2F0" height="63.2188" rx="4" ry="4" style="stroke:#181818;stroke-width:0.5;" width="108.7529" x="533.8271" y="36"/><text fill="#000000" font-family="Roboto" font-size="14" lengthAdjust="spacing" textLength="67.416" x="554.4956" y="55.9883">Sync Layer</text><text fill="#000000" font-family="Roboto" font-size="14" lengthAdjust="spacing" textLength="89.8652" x="543.271" y="72.3945">offline/sync.ts</text><text fill="#000000" font-family="Roboto" font-size="14" lengthAdjust="spacing" textLength="94.7529" x="540.8271" y="88.8008">saveProgress()</text><rect fill="#E2E2F0" height="63.2188" rx="4" ry="4" style="stroke:#181818;stroke-width:0.5;" width="108.7529" x="533.8271" y="2411.6719"/><text fill="#000000" font-family="Roboto" font-size="14" lengthAdjust="spacing" textLength="67.416" x="554.4956" y="2431.6602">Sync Layer</text><text fill="#000000" font-family="Roboto" font-size="14" lengthAdjust="spacing" textLength="89.8652" x="543.271" y="2448.0664">offline/sync.ts</text><text fill="#000000" font-family="Roboto" font-size="14" lengthAdjust="spacing" textLength="94.7529" x="540.8271" y="2464.4727">saveProgress()</text><text fill="#000000" font-family="Roboto" font-size="14" lengthAdjust="spacing" textLength="67.0332" x="841.6665" y="63.9883">IndexedDB</text><text fill="#000000" font-family="Roboto" font-size="14" lengthAdjust="spacing" textLength="76.7129" x="836.8267" y="80.3945">offline/db.ts</text><text fill="#000000" font-family="Roboto" font-size="14" lengthAdjust="spacing" textLength="133.4102" x="808.478" y="96.8008">(local cache + queue)</text><path d="M860.1831,15 C860.1831,5 878.1831,5 878.1831,5 C878.1831,5 896.1831,5 896.1831,15 L896.1831,41 C896.1831,51 878.1831,51 878.1831,51 C878.1831,51 860.1831,51 860.1831,41 L860.1831,15 " fill="#E2E2F0" style="stroke:#181818;stroke-width:1.5;"/><path d="M860.1831,15 C860.1831,25 878.1831,25 878.1831,25 C878.1831,25 896.1831,25 896.1831,15 " fill="none" style="stroke:#181818;stroke-width:1.5;"/><text fill="#000000" font-family="Roboto" font-size="14" lengthAdjust="spacing" textLength="67.0332" x="841.6665" y="2424.6602">IndexedDB</text><text fill="#000000" font-family="Roboto" font-size="14" lengthAdjust="spacing" textLength="76.7129" x="836.8267" y="2441.0664">offline/db.ts</text><text fill="#000000" font-family="Roboto" font-size="14" lengthAdjust="spacing" textLength="133.4102" x="808.478" y="2457.4727">(local cache + queue)</text><path d="M860.1831,2470.8906 C860.1831,2460.8906 878.1831,2460.8906 878.1831,2460.8906 C878.1831,2460.8906 896.1831,2460.8906 896.1831,2470.8906 L896.1831,2496.8906 C896.1831,2506.8906 878.1831,2506.8906 878.1831,2506.8906 C878.1831,2506.8906 860.1831,2506.8906 860.1831,2496.8906 L860.1831,2470.8906 " fill="#E2E2F0" style="stroke:#181818;stroke-width:1.5;"/><path d="M860.1831,2470.8906 C860.1831,2480.8906 878.1831,2480.8906 878.1831,2480.8906 C878.1831,2480.8906 896.1831,2480.8906 896.1831,2470.8906 " fill="none" style="stroke:#181818;stroke-width:1.5;"/><rect fill="#E2E2F0" height="63.2188" rx="4" ry="4" style="stroke:#181818;stroke-width:0.5;" width="137.457" x="957.8882" y="36"/><text fill="#000000" font-family="Roboto" font-size="14" lengthAdjust="spacing" textLength="50.3945" x="1001.4194" y="55.9883">SyncApi</text><text fill="#000000" font-family="Roboto" font-size="14" lengthAdjust="spacing" textLength="113.1689" x="970.0322" y="72.3945">(Generated Client)</text><text fill="#000000" font-family="Roboto" font-size="14" lengthAdjust="spacing" textLength="123.457" x="964.8882" y="88.8008">frontend/src/client/</text><rect fill="#E2E2F0" height="63.2188" rx="4" ry="4" style="stroke:#181818;stroke-width:0.5;" width="137.457" x="957.8882" y="2411.6719"/><text fill="#000000" font-family="Roboto" font-size="14" lengthAdjust="spacing" textLength="50.3945" x="1001.4194" y="2431.6602">SyncApi</text><text fill="#000000" font-family="Roboto" font-size="14" lengthAdjust="spacing" textLength="113.1689" x="970.0322" y="2448.0664">(Generated Client)</text><text fill="#000000" font-family="Roboto" font-size="14" lengthAdjust="spacing" textLength="123.457" x="964.8882" y="2464.4727">frontend/src/client/</text><rect fill="#E2E2F0" height="46.8125" rx="4" ry="4" style="stroke:#181818;stroke-width:0.5;" width="120.2168" x="1372.4087" y="52.4063"/><text fill="#000000" font-family="Roboto" font-size="14" lengthAdjust="spacing" textLength="106.2168" x="1379.4087" y="72.3945">FastAPI Backend</text><text fill="#000000" font-family="Roboto" font-size="14" lengthAdjust="spacing" textLength="64.8525" x="1400.0908" y="88.8008">reading.py</text><rect fill="#E2E2F0" height="46.8125" rx="4" ry="4" style="stroke:#181818;stroke-width:0.5;" width="120.2168" x="1372.4087" y="2411.6719"/><text fill="#000000" font-family="Roboto" font-size="14" lengthAdjust="spacing" textLength="106.2168" x="1379.4087" y="2431.6602">FastAPI Backend</text><text fill="#000000" font-family="Roboto" font-size="14" lengthAdjust="spacing" textLength="64.8525" x="1400.0908" y="2448.0664">reading.py</text><path d="M13,119.2188 L13,136.2188 A4,4 0 0 0 17,140.2188 L1476,140.2188 A4,4 0 0 0 1480,136.2188 L1480,125.2188 L1470,115.2188 L17,115.2188 A4,4 0 0 0 13,119.2188 " fill="#FEFFDD" style="stroke:#181818;stroke-width:0.5;"/><path d="M1470,115.2188 L1470,123.2188 A2,2 0 0 0 1472,125.2188 L1480,125.2188 L1470,115.2188 " fill="#FEFFDD" style="stroke:#181818;stroke-width:0.5;"/><text fill="#000000" font-family="Roboto" font-size="13" lengthAdjust="spacing" textLength="262.5327" x="611.0464" y="132.2793">Online play - save reaches server immediately</text><polygon fill="#181818" points="274.4175,162.6875,284.4175,166.6875,274.4175,170.6875,278.4175,166.6875" style="stroke:#181818;stroke-width:1.0;"/><line style="stroke:#181818;stroke-width:1.0;" x1="62.3647" x2="280.4175" y1="166.6875" y2="166.6875"/><text fill="#000000" font-family="Roboto" font-size="13" lengthAdjust="spacing" textLength="188.957" x="79.9126" y="161.5137">"choose path / trigger auto-save"</text><polygon fill="#181818" points="576.2036,207.1563,586.2036,211.1563,576.2036,215.1563,580.2036,211.1563" style="stroke:#181818;stroke-width:1.0;"/><line style="stroke:#181818;stroke-width:1.0;" x1="286.4175" x2="582.2036" y1="211.1563" y2="211.1563"/><text fill="#000000" font-family="Roboto" font-size="13" lengthAdjust="spacing" textLength="270.48" x="302.0706" y="190.748">"saveProgress(api, profileId, storybookId, state,</text><text fill="#000000" font-family="Roboto" font-size="13" lengthAdjust="spacing" textLength="214.9951" x="329.813" y="205.9824">{deviceId:'dev-A', eventId:undefined})"</text><line style="stroke:#181818;stroke-width:1.0;" x1="588.2036" x2="630.2036" y1="240.3906" y2="240.3906"/><line style="stroke:#181818;stroke-width:1.0;" x1="630.2036" x2="630.2036" y1="240.3906" y2="253.3906"/><line style="stroke:#181818;stroke-width:1.0;" x1="589.2036" x2="630.2036" y1="253.3906" y2="253.3906"/><polygon fill="#181818" points="599.2036,249.3906,589.2036,253.3906,599.2036,257.3906,595.2036,253.3906" style="stroke:#181818;stroke-width:1.0;"/><text fill="#000000" font-family="Roboto" font-size="13" lengthAdjust="spacing" textLength="251.1704" x="595.2036" y="235.2168">"eventId = crypto.randomUUID() -&gt; 'uuid-42'"</text><polygon fill="#181818" points="866.1831,293.8594,876.1831,297.8594,866.1831,301.8594,870.1831,297.8594" style="stroke:#181818;stroke-width:1.0;"/><line style="stroke:#181818;stroke-width:1.0;" x1="588.2036" x2="872.1831" y1="297.8594" y2="297.8594"/><text fill="#000000" font-family="Roboto" font-size="13" lengthAdjust="spacing" textLength="265.9795" x="600.2036" y="277.4512">"putReadingState(profileId, storybookId, state)</text><text fill="#000000" font-family="Roboto" font-size="13" lengthAdjust="spacing" textLength="146.1421" x="660.1223" y="292.6855">[update local cache first]"</text><polygon fill="#181818" points="599.2036,323.0938,589.2036,327.0938,599.2036,331.0938,595.2036,327.0938" style="stroke:#181818;stroke-width:1.0;"/><line style="stroke:#181818;stroke-width:1.0;stroke-dasharray:2.0,2.0;" x1="593.2036" x2="877.1831" y1="327.0938" y2="327.0938"/><text fill="#000000" font-family="Roboto" font-size="13" lengthAdjust="spacing" textLength="25.4287" x="720.479" y="321.9199">"OK"</text><polygon fill="#181818" points="1014.6167,367.5625,1024.6167,371.5625,1014.6167,375.5625,1018.6167,371.5625" style="stroke:#181818;stroke-width:1.0;"/><line style="stroke:#181818;stroke-width:1.0;" x1="588.2036" x2="1020.6167" y1="371.5625" y2="371.5625"/><text fill="#000000" font-family="Roboto" font-size="13" lengthAdjust="spacing" textLength="229.0488" x="692.8857" y="351.1543">"putReadingState(profileId, storybookId,</text><text fill="#000000" font-family="Roboto" font-size="13" lengthAdjust="spacing" textLength="261.1426" x="676.8389" y="366.3887">{...state, device_id:'dev-A', event_id:'uuid-42'})"</text><polygon fill="#181818" points="1420.5171,412.0313,1430.5171,416.0313,1420.5171,420.0313,1424.5171,416.0313" style="stroke:#181818;stroke-width:1.0;"/><line style="stroke:#181818;stroke-width:1.0;" x1="1026.6167" x2="1426.5171" y1="416.0313" y2="416.0313"/><text fill="#000000" font-family="Roboto" font-size="13" lengthAdjust="spacing" textLength="249.228" x="1104.9529" y="395.623">"PUT /api/v1/reading-state/{profile}/{story}</text><text fill="#000000" font-family="Roboto" font-size="13" lengthAdjust="spacing" textLength="229.1821" x="1114.9758" y="410.8574">body includes event_id + state_revision"</text><polygon fill="#181818" points="1037.6167,441.2656,1027.6167,445.2656,1037.6167,449.2656,1033.6167,445.2656" style="stroke:#181818;stroke-width:1.0;"/><line style="stroke:#181818;stroke-width:1.0;stroke-dasharray:2.0,2.0;" x1="1031.6167" x2="1431.5171" y1="445.2656" y2="445.2656"/><text fill="#000000" font-family="Roboto" font-size="13" lengthAdjust="spacing" textLength="173.1895" x="1142.9722" y="440.0918">"200 OK {state_revision: N+1}"</text><polygon fill="#181818" points="599.2036,470.5,589.2036,474.5,599.2036,478.5,595.2036,474.5" style="stroke:#181818;stroke-width:1.0;"/><line style="stroke:#181818;stroke-width:1.0;stroke-dasharray:2.0,2.0;" x1="593.2036" x2="1025.6167" y1="474.5" y2="474.5"/><text fill="#000000" font-family="Roboto" font-size="13" lengthAdjust="spacing" textLength="189.2363" x="712.792" y="469.3262">"{status:200, row: ReadingState}"</text><polygon fill="#181818" points="297.4175,499.7344,287.4175,503.7344,297.4175,507.7344,293.4175,503.7344" style="stroke:#181818;stroke-width:1.0;"/><line style="stroke:#181818;stroke-width:1.0;stroke-dasharray:2.0,2.0;" x1="291.4175" x2="587.2036" y1="503.7344" y2="503.7344"/><text fill="#000000" font-family="Roboto" font-size="13" lengthAdjust="spacing" textLength="110.7539" x="381.9336" y="498.5605">"{kind:'saved', row}"</text><path d="M13,520.7344 L13,537.7344 A4,4 0 0 0 17,541.7344 L1476,541.7344 A4,4 0 0 0 1480,537.7344 L1480,526.7344 L1470,516.7344 L17,516.7344 A4,4 0 0 0 13,520.7344 " fill="#FEFFDD" style="stroke:#181818;stroke-width:0.5;"/><path d="M1470,516.7344 L1470,524.7344 A2,2 0 0 0 1472,526.7344 L1480,526.7344 L1470,516.7344 " fill="#FEFFDD" style="stroke:#181818;stroke-width:0.5;"/><text fill="#000000" font-family="Roboto" font-size="13" lengthAdjust="spacing" textLength="283.2134" x="600.7061" y="533.7949">Network goes offline - writes queue in IndexedDB</text><polygon fill="#181818" points="274.4175,564.2031,284.4175,568.2031,274.4175,572.2031,278.4175,568.2031" style="stroke:#181818;stroke-width:1.0;"/><line style="stroke:#181818;stroke-width:1.0;" x1="62.3647" x2="280.4175" y1="568.2031" y2="568.2031"/><text fill="#000000" font-family="Roboto" font-size="13" lengthAdjust="spacing" textLength="127.334" x="110.7241" y="563.0293">"choose another path"</text><polygon fill="#181818" points="576.2036,608.6719,586.2036,612.6719,576.2036,616.6719,580.2036,612.6719" style="stroke:#181818;stroke-width:1.0;"/><line style="stroke:#181818;stroke-width:1.0;" x1="286.4175" x2="582.2036" y1="612.6719" y2="612.6719"/><text fill="#000000" font-family="Roboto" font-size="13" lengthAdjust="spacing" textLength="277.7861" x="298.4175" y="592.2637">"saveProgress(api, profileId, storybookId, state2,</text><text fill="#000000" font-family="Roboto" font-size="13" lengthAdjust="spacing" textLength="106.0249" x="384.2981" y="607.498">{deviceId:'dev-A'})"</text><line style="stroke:#181818;stroke-width:1.0;" x1="588.2036" x2="630.2036" y1="641.9063" y2="641.9063"/><line style="stroke:#181818;stroke-width:1.0;" x1="630.2036" x2="630.2036" y1="641.9063" y2="654.9063"/><line style="stroke:#181818;stroke-width:1.0;" x1="589.2036" x2="630.2036" y1="654.9063" y2="654.9063"/><polygon fill="#181818" points="599.2036,650.9063,589.2036,654.9063,599.2036,658.9063,595.2036,654.9063" style="stroke:#181818;stroke-width:1.0;"/><text fill="#000000" font-family="Roboto" font-size="13" lengthAdjust="spacing" textLength="111.8711" x="595.2036" y="636.7324">"eventId = 'uuid-43'"</text><polygon fill="#181818" points="866.1831,680.1406,876.1831,684.1406,866.1831,688.1406,870.1831,684.1406" style="stroke:#181818;stroke-width:1.0;"/><line style="stroke:#181818;stroke-width:1.0;" x1="588.2036" x2="872.1831" y1="684.1406" y2="684.1406"/><text fill="#000000" font-family="Roboto" font-size="13" lengthAdjust="spacing" textLength="232.0894" x="617.1487" y="678.9668">"putReadingState() [update local cache]"</text><polygon fill="#181818" points="599.2036,709.375,589.2036,713.375,599.2036,717.375,595.2036,713.375" style="stroke:#181818;stroke-width:1.0;"/><line style="stroke:#181818;stroke-width:1.0;stroke-dasharray:2.0,2.0;" x1="593.2036" x2="877.1831" y1="713.375" y2="713.375"/><text fill="#000000" font-family="Roboto" font-size="13" lengthAdjust="spacing" textLength="25.4287" x="720.479" y="708.2012">"OK"</text><polygon fill="#181818" points="1014.6167,738.6094,1024.6167,742.6094,1014.6167,746.6094,1018.6167,742.6094" style="stroke:#181818;stroke-width:1.0;"/><line style="stroke:#181818;stroke-width:1.0;" x1="588.2036" x2="1020.6167" y1="742.6094" y2="742.6094"/><text fill="#000000" font-family="Roboto" font-size="13" lengthAdjust="spacing" textLength="227.8237" x="693.4983" y="737.4355">"putReadingState(..., event_id:'uuid-43')"</text><polygon fill="#181818" points="1420.5171,767.8438,1430.5171,771.8438,1420.5171,775.8438,1424.5171,771.8438" style="stroke:#181818;stroke-width:1.0;"/><line style="stroke:#181818;stroke-width:1.0;" x1="1026.6167" x2="1426.5171" y1="771.8438" y2="771.8438"/><text fill="#000000" font-family="Roboto" font-size="13" lengthAdjust="spacing" textLength="174.9287" x="1142.1025" y="766.6699">"PUT /api/v1/reading-state/..."</text><path d="M1437,788.8438 L1437,820.8438 A4,4 0 0 0 1441,824.8438 L1646,824.8438 A4,4 0 0 0 1650,820.8438 L1650,794.8438 L1640,784.8438 L1441,784.8438 A4,4 0 0 0 1437,788.8438 " fill="#FEFFDD" style="stroke:#181818;stroke-width:0.5;"/><path d="M1640,784.8438 L1640,792.8438 A2,2 0 0 0 1642,794.8438 L1650,794.8438 L1640,784.8438 " fill="#FEFFDD" style="stroke:#181818;stroke-width:0.5;"/><text fill="#000000" font-family="Roboto" font-size="13" lengthAdjust="spacing" textLength="125.6772" x="1443" y="801.9043">Network unreachable;</text><text fill="#000000" font-family="Roboto" font-size="13" lengthAdjust="spacing" textLength="192.3022" x="1443" y="817.1387">fetch throws (no HTTP response)</text><polygon fill="#181818" points="1037.6167,847.5469,1027.6167,851.5469,1037.6167,855.5469,1033.6167,851.5469" style="stroke:#181818;stroke-width:1.0;"/><line style="stroke:#181818;stroke-width:1.0;stroke-dasharray:2.0,2.0;" x1="1031.6167" x2="1431.5171" y1="851.5469" y2="851.5469"/><text fill="#000000" font-family="Roboto" font-size="13" lengthAdjust="spacing" textLength="203.252" x="1127.9409" y="846.373">"[OfflineError: network unavailable]"</text><polygon fill="#181818" points="599.2036,876.7813,589.2036,880.7813,599.2036,884.7813,595.2036,880.7813" style="stroke:#181818;stroke-width:1.0;"/><line style="stroke:#181818;stroke-width:1.0;stroke-dasharray:2.0,2.0;" x1="593.2036" x2="1025.6167" y1="880.7813" y2="880.7813"/><text fill="#000000" font-family="Roboto" font-size="13" lengthAdjust="spacing" textLength="125.0234" x="744.8984" y="875.6074">"[OfflineError thrown]"</text><polygon fill="#181818" points="866.1831,921.25,876.1831,925.25,866.1831,929.25,870.1831,925.25" style="stroke:#181818;stroke-width:1.0;"/><line style="stroke:#181818;stroke-width:1.0;" x1="588.2036" x2="872.1831" y1="925.25" y2="925.25"/><text fill="#000000" font-family="Roboto" font-size="13" lengthAdjust="spacing" textLength="217.4199" x="624.4834" y="904.8418">"enqueueWrite({profileId, storybookId,</text><text fill="#000000" font-family="Roboto" font-size="13" lengthAdjust="spacing" textLength="204.3818" x="631.0024" y="920.0762">body:{...state2, event_id:'uuid-43'}})"</text><polygon fill="#181818" points="599.2036,950.4844,589.2036,954.4844,599.2036,958.4844,595.2036,954.4844" style="stroke:#181818;stroke-width:1.0;"/><line style="stroke:#181818;stroke-width:1.0;stroke-dasharray:2.0,2.0;" x1="593.2036" x2="877.1831" y1="954.4844" y2="954.4844"/><text fill="#000000" font-family="Roboto" font-size="13" lengthAdjust="spacing" textLength="25.4287" x="720.479" y="949.3105">"OK"</text><polygon fill="#181818" points="297.4175,979.7188,287.4175,983.7188,297.4175,987.7188,293.4175,983.7188" style="stroke:#181818;stroke-width:1.0;"/><line style="stroke:#181818;stroke-width:1.0;stroke-dasharray:2.0,2.0;" x1="291.4175" x2="587.2036" y1="983.7188" y2="983.7188"/><text fill="#000000" font-family="Roboto" font-size="13" lengthAdjust="spacing" textLength="190.8105" x="341.9053" y="978.5449">"{kind:'queued', eventId:'uuid-43'}"</text><line style="stroke:#181818;stroke-width:1.0;" x1="286.4175" x2="328.4175" y1="1028.1875" y2="1028.1875"/><line style="stroke:#181818;stroke-width:1.0;" x1="328.4175" x2="328.4175" y1="1028.1875" y2="1041.1875"/><line style="stroke:#181818;stroke-width:1.0;" x1="287.4175" x2="328.4175" y1="1041.1875" y2="1041.1875"/><polygon fill="#181818" points="297.4175,1037.1875,287.4175,1041.1875,297.4175,1045.1875,293.4175,1041.1875" style="stroke:#181818;stroke-width:1.0;"/><text fill="#000000" font-family="Roboto" font-size="13" lengthAdjust="spacing" textLength="126.915" x="335.7849" y="1007.7793">"local state continues;</text><text fill="#000000" font-family="Roboto" font-size="13" lengthAdjust="spacing" textLength="211.6499" x="293.4175" y="1023.0137">player works from IndexedDB cache"</text><polygon fill="#181818" points="274.4175,1066.4219,284.4175,1070.4219,274.4175,1074.4219,278.4175,1070.4219" style="stroke:#181818;stroke-width:1.0;"/><line style="stroke:#181818;stroke-width:1.0;" x1="62.3647" x2="280.4175" y1="1070.4219" y2="1070.4219"/><text fill="#000000" font-family="Roboto" font-size="13" lengthAdjust="spacing" textLength="200.0527" x="74.3647" y="1065.248">"choose another path (still offline)"</text><polygon fill="#181818" points="576.2036,1095.6563,586.2036,1099.6563,576.2036,1103.6563,580.2036,1099.6563" style="stroke:#181818;stroke-width:1.0;"/><line style="stroke:#181818;stroke-width:1.0;" x1="286.4175" x2="582.2036" y1="1099.6563" y2="1099.6563"/><text fill="#000000" font-family="Roboto" font-size="13" lengthAdjust="spacing" textLength="172.1802" x="351.2205" y="1094.4824">"saveProgress(api, ..., state3)"</text><line style="stroke:#181818;stroke-width:1.0;" x1="588.2036" x2="630.2036" y1="1128.8906" y2="1128.8906"/><line style="stroke:#181818;stroke-width:1.0;" x1="630.2036" x2="630.2036" y1="1128.8906" y2="1141.8906"/><line style="stroke:#181818;stroke-width:1.0;" x1="589.2036" x2="630.2036" y1="1141.8906" y2="1141.8906"/><polygon fill="#181818" points="599.2036,1137.8906,589.2036,1141.8906,599.2036,1145.8906,595.2036,1141.8906" style="stroke:#181818;stroke-width:1.0;"/><text fill="#000000" font-family="Roboto" font-size="13" lengthAdjust="spacing" textLength="111.8711" x="595.2036" y="1123.7168">"eventId = 'uuid-44'"</text><polygon fill="#181818" points="866.1831,1167.125,876.1831,1171.125,866.1831,1175.125,870.1831,1171.125" style="stroke:#181818;stroke-width:1.0;"/><line style="stroke:#181818;stroke-width:1.0;" x1="588.2036" x2="872.1831" y1="1171.125" y2="1171.125"/><text fill="#000000" font-family="Roboto" font-size="13" lengthAdjust="spacing" textLength="232.0894" x="617.1487" y="1165.9512">"putReadingState() [update local cache]"</text><polygon fill="#181818" points="599.2036,1196.3594,589.2036,1200.3594,599.2036,1204.3594,595.2036,1200.3594" style="stroke:#181818;stroke-width:1.0;"/><line style="stroke:#181818;stroke-width:1.0;stroke-dasharray:2.0,2.0;" x1="593.2036" x2="877.1831" y1="1200.3594" y2="1200.3594"/><text fill="#000000" font-family="Roboto" font-size="13" lengthAdjust="spacing" textLength="25.4287" x="720.479" y="1195.1855">"OK"</text><polygon fill="#181818" points="1014.6167,1225.5938,1024.6167,1229.5938,1014.6167,1233.5938,1018.6167,1229.5938" style="stroke:#181818;stroke-width:1.0;"/><line style="stroke:#181818;stroke-width:1.0;" x1="588.2036" x2="1020.6167" y1="1229.5938" y2="1229.5938"/><text fill="#000000" font-family="Roboto" font-size="13" lengthAdjust="spacing" textLength="116.6255" x="749.0974" y="1224.4199">"[OfflineError again]"</text><polygon fill="#181818" points="599.2036,1254.8281,589.2036,1258.8281,599.2036,1262.8281,595.2036,1258.8281" style="stroke:#181818;stroke-width:1.0;"/><line style="stroke:#181818;stroke-width:1.0;stroke-dasharray:2.0,2.0;" x1="593.2036" x2="1025.6167" y1="1258.8281" y2="1258.8281"/><text fill="#000000" font-family="Roboto" font-size="13" lengthAdjust="spacing" textLength="81.6182" x="766.6011" y="1253.6543">"[OfflineError]"</text><polygon fill="#181818" points="866.1831,1284.0625,876.1831,1288.0625,866.1831,1292.0625,870.1831,1288.0625" style="stroke:#181818;stroke-width:1.0;"/><line style="stroke:#181818;stroke-width:1.0;" x1="588.2036" x2="872.1831" y1="1288.0625" y2="1288.0625"/><text fill="#000000" font-family="Roboto" font-size="13" lengthAdjust="spacing" textLength="257.0801" x="604.6533" y="1282.8887">"enqueueWrite({...state3, event_id:'uuid-44'})"</text><polygon fill="#181818" points="599.2036,1313.2969,589.2036,1317.2969,599.2036,1321.2969,595.2036,1317.2969" style="stroke:#181818;stroke-width:1.0;"/><line style="stroke:#181818;stroke-width:1.0;stroke-dasharray:2.0,2.0;" x1="593.2036" x2="877.1831" y1="1317.2969" y2="1317.2969"/><text fill="#000000" font-family="Roboto" font-size="13" lengthAdjust="spacing" textLength="25.4287" x="720.479" y="1312.123">"OK"</text><polygon fill="#181818" points="297.4175,1342.5313,287.4175,1346.5313,297.4175,1350.5313,293.4175,1346.5313" style="stroke:#181818;stroke-width:1.0;"/><line style="stroke:#181818;stroke-width:1.0;stroke-dasharray:2.0,2.0;" x1="291.4175" x2="587.2036" y1="1346.5313" y2="1346.5313"/><text fill="#000000" font-family="Roboto" font-size="13" lengthAdjust="spacing" textLength="190.8105" x="341.9053" y="1341.3574">"{kind:'queued', eventId:'uuid-44'}"</text><path d="M13,1363.5313 L13,1380.5313 A4,4 0 0 0 17,1384.5313 L1476,1384.5313 A4,4 0 0 0 1480,1380.5313 L1480,1369.5313 L1470,1359.5313 L17,1359.5313 A4,4 0 0 0 13,1363.5313 " fill="#FEFFDD" style="stroke:#181818;stroke-width:0.5;"/><path d="M1470,1359.5313 L1470,1367.5313 A2,2 0 0 0 1472,1369.5313 L1480,1369.5313 L1470,1359.5313 " fill="#FEFFDD" style="stroke:#181818;stroke-width:0.5;"/><text fill="#000000" font-family="Roboto" font-size="13" lengthAdjust="spacing" textLength="276.8721" x="603.8767" y="1376.5918">Network restored - replay queued writes in order</text><polygon fill="#181818" points="576.2036,1407,586.2036,1411,576.2036,1415,580.2036,1411" style="stroke:#181818;stroke-width:1.0;"/><line style="stroke:#181818;stroke-width:1.0;" x1="286.4175" x2="582.2036" y1="1411" y2="1411"/><text fill="#000000" font-family="Roboto" font-size="13" lengthAdjust="spacing" textLength="234.6855" x="319.9678" y="1405.8262">"replayQueue(api, profileId, storybookId)"</text><polygon fill="#181818" points="866.1831,1436.2344,876.1831,1440.2344,866.1831,1444.2344,870.1831,1440.2344" style="stroke:#181818;stroke-width:1.0;"/><line style="stroke:#181818;stroke-width:1.0;" x1="588.2036" x2="872.1831" y1="1440.2344" y2="1440.2344"/><text fill="#000000" font-family="Roboto" font-size="13" lengthAdjust="spacing" textLength="193.6733" x="636.3567" y="1435.0605">"listQueue(profileId, storybookId)"</text><polygon fill="#181818" points="599.2036,1480.7031,589.2036,1484.7031,599.2036,1488.7031,595.2036,1484.7031" style="stroke:#181818;stroke-width:1.0;"/><line style="stroke:#181818;stroke-width:1.0;stroke-dasharray:2.0,2.0;" x1="593.2036" x2="877.1831" y1="1484.7031" y2="1484.7031"/><text fill="#000000" font-family="Roboto" font-size="13" lengthAdjust="spacing" textLength="170.1172" x="648.1348" y="1464.2949">"[{event_id:'uuid-43', ...state2},</text><text fill="#000000" font-family="Roboto" font-size="13" lengthAdjust="spacing" textLength="167.5591" x="651.0261" y="1479.5293">{event_id:'uuid-44', ...state3}]"</text><path d="M527.8271,1499.7031 L594.2939,1499.7031 L594.2939,1506.9375 L584.2939,1516.9375 L523.8271,1516.9375 L523.8271,1503.7031 A4,4 0 0 1 527.8271,1499.7031 " fill="#EEEEEE" style="stroke:#000000;stroke-width:1.5;"/><rect fill="none" height="482.9844" rx="4" ry="4" style="stroke:#000000;stroke-width:1.5;" width="1114.9585" x="523.8271" y="1499.7031"/><text fill="#000000" font-family="Roboto" font-size="13" font-weight="bold" lengthAdjust="spacing" textLength="25.4668" x="538.8271" y="1512.7637">loop</text><text fill="#000000" font-family="Roboto" font-size="11" font-weight="bold" lengthAdjust="spacing" textLength="155.3911" x="609.2939" y="1511.9082">["for each write in queue order"]</text><polygon fill="#181818" points="1014.6167,1534.1719,1024.6167,1538.1719,1014.6167,1542.1719,1018.6167,1538.1719" style="stroke:#181818;stroke-width:1.0;"/><line style="stroke:#181818;stroke-width:1.0;" x1="588.2036" x2="1020.6167" y1="1538.1719" y2="1538.1719"/><text fill="#000000" font-family="Roboto" font-size="13" lengthAdjust="spacing" textLength="254.0269" x="680.3967" y="1532.998">"putReadingState(event_id:'uuid-43', state2)"</text><polygon fill="#181818" points="1420.5171,1563.4063,1430.5171,1567.4063,1420.5171,1571.4063,1424.5171,1567.4063" style="stroke:#181818;stroke-width:1.0;"/><line style="stroke:#181818;stroke-width:1.0;" x1="1026.6167" x2="1426.5171" y1="1567.4063" y2="1567.4063"/><text fill="#000000" font-family="Roboto" font-size="13" lengthAdjust="spacing" textLength="174.9287" x="1142.1025" y="1562.2324">"PUT /api/v1/reading-state/..."</text><line style="stroke:#181818;stroke-width:1.0;" x1="1432.5171" x2="1474.5171" y1="1627.1094" y2="1627.1094"/><line style="stroke:#181818;stroke-width:1.0;" x1="1474.5171" x2="1474.5171" y1="1627.1094" y2="1640.1094"/><line style="stroke:#181818;stroke-width:1.0;" x1="1433.5171" x2="1474.5171" y1="1640.1094" y2="1640.1094"/><polygon fill="#181818" points="1443.5171,1636.1094,1433.5171,1640.1094,1443.5171,1644.1094,1439.5171,1640.1094" style="stroke:#181818;stroke-width:1.0;"/><text fill="#000000" font-family="Roboto" font-size="13" lengthAdjust="spacing" textLength="92.6631" x="1486.8198" y="1591.4668">"event_id check:</text><text fill="#000000" font-family="Roboto" font-size="13" lengthAdjust="spacing" textLength="187.2686" x="1439.5171" y="1606.7012">'uuid-43' != last_event_id -&gt; apply</text><text fill="#000000" font-family="Roboto" font-size="13" lengthAdjust="spacing" textLength="146.9863" x="1459.6582" y="1621.9355">row.state_revision = N+2"</text><polygon fill="#181818" points="1037.6167,1665.3438,1027.6167,1669.3438,1037.6167,1673.3438,1033.6167,1669.3438" style="stroke:#181818;stroke-width:1.0;"/><line style="stroke:#181818;stroke-width:1.0;stroke-dasharray:2.0,2.0;" x1="1031.6167" x2="1431.5171" y1="1669.3438" y2="1669.3438"/><text fill="#000000" font-family="Roboto" font-size="13" lengthAdjust="spacing" textLength="173.1895" x="1142.9722" y="1664.1699">"200 OK {state_revision: N+2}"</text><polygon fill="#181818" points="599.2036,1694.5781,589.2036,1698.5781,599.2036,1702.5781,595.2036,1698.5781" style="stroke:#181818;stroke-width:1.0;"/><line style="stroke:#181818;stroke-width:1.0;stroke-dasharray:2.0,2.0;" x1="593.2036" x2="1025.6167" y1="1698.5781" y2="1698.5781"/><text fill="#000000" font-family="Roboto" font-size="13" lengthAdjust="spacing" textLength="105.7266" x="754.5469" y="1693.4043">"{status:200, row}"</text><polygon fill="#181818" points="866.1831,1723.8125,876.1831,1727.8125,866.1831,1731.8125,870.1831,1727.8125" style="stroke:#181818;stroke-width:1.0;"/><line style="stroke:#181818;stroke-width:1.0;" x1="588.2036" x2="872.1831" y1="1727.8125" y2="1727.8125"/><text fill="#000000" font-family="Roboto" font-size="13" lengthAdjust="spacing" textLength="110.0684" x="678.1592" y="1722.6387">"dequeue(uuid-43)"</text><polygon fill="#181818" points="599.2036,1753.0469,589.2036,1757.0469,599.2036,1761.0469,595.2036,1757.0469" style="stroke:#181818;stroke-width:1.0;"/><line style="stroke:#181818;stroke-width:1.0;stroke-dasharray:2.0,2.0;" x1="593.2036" x2="877.1831" y1="1757.0469" y2="1757.0469"/><text fill="#000000" font-family="Roboto" font-size="13" lengthAdjust="spacing" textLength="25.4287" x="720.479" y="1751.873">"OK"</text><polygon fill="#181818" points="1014.6167,1782.2813,1024.6167,1786.2813,1014.6167,1790.2813,1018.6167,1786.2813" style="stroke:#181818;stroke-width:1.0;"/><line style="stroke:#181818;stroke-width:1.0;" x1="588.2036" x2="1020.6167" y1="1786.2813" y2="1786.2813"/><text fill="#000000" font-family="Roboto" font-size="13" lengthAdjust="spacing" textLength="254.0269" x="680.3967" y="1781.1074">"putReadingState(event_id:'uuid-44', state3)"</text><polygon fill="#181818" points="1420.5171,1811.5156,1430.5171,1815.5156,1420.5171,1819.5156,1424.5171,1815.5156" style="stroke:#181818;stroke-width:1.0;"/><line style="stroke:#181818;stroke-width:1.0;" x1="1026.6167" x2="1426.5171" y1="1815.5156" y2="1815.5156"/><text fill="#000000" font-family="Roboto" font-size="13" lengthAdjust="spacing" textLength="174.9287" x="1142.1025" y="1810.3418">"PUT /api/v1/reading-state/..."</text><line style="stroke:#181818;stroke-width:1.0;" x1="1432.5171" x2="1474.5171" y1="1844.75" y2="1844.75"/><line style="stroke:#181818;stroke-width:1.0;" x1="1474.5171" x2="1474.5171" y1="1844.75" y2="1857.75"/><line style="stroke:#181818;stroke-width:1.0;" x1="1433.5171" x2="1474.5171" y1="1857.75" y2="1857.75"/><polygon fill="#181818" points="1443.5171,1853.75,1433.5171,1857.75,1443.5171,1861.75,1439.5171,1857.75" style="stroke:#181818;stroke-width:1.0;"/><text fill="#000000" font-family="Roboto" font-size="13" lengthAdjust="spacing" textLength="163.0903" x="1439.5171" y="1839.5762">"apply; state_revision = N+3"</text><polygon fill="#181818" points="1037.6167,1882.9844,1027.6167,1886.9844,1037.6167,1890.9844,1033.6167,1886.9844" style="stroke:#181818;stroke-width:1.0;"/><line style="stroke:#181818;stroke-width:1.0;stroke-dasharray:2.0,2.0;" x1="1031.6167" x2="1431.5171" y1="1886.9844" y2="1886.9844"/><text fill="#000000" font-family="Roboto" font-size="13" lengthAdjust="spacing" textLength="173.1895" x="1142.9722" y="1881.8105">"200 OK {state_revision: N+3}"</text><polygon fill="#181818" points="599.2036,1912.2188,589.2036,1916.2188,599.2036,1920.2188,595.2036,1916.2188" style="stroke:#181818;stroke-width:1.0;"/><line style="stroke:#181818;stroke-width:1.0;stroke-dasharray:2.0,2.0;" x1="593.2036" x2="1025.6167" y1="1916.2188" y2="1916.2188"/><text fill="#000000" font-family="Roboto" font-size="13" lengthAdjust="spacing" textLength="105.7266" x="754.5469" y="1911.0449">"{status:200, row}"</text><polygon fill="#181818" points="866.1831,1941.4531,876.1831,1945.4531,866.1831,1949.4531,870.1831,1945.4531" style="stroke:#181818;stroke-width:1.0;"/><line style="stroke:#181818;stroke-width:1.0;" x1="588.2036" x2="872.1831" y1="1945.4531" y2="1945.4531"/><text fill="#000000" font-family="Roboto" font-size="13" lengthAdjust="spacing" textLength="110.0684" x="678.1592" y="1940.2793">"dequeue(uuid-44)"</text><polygon fill="#181818" points="599.2036,1970.6875,589.2036,1974.6875,599.2036,1978.6875,595.2036,1974.6875" style="stroke:#181818;stroke-width:1.0;"/><line style="stroke:#181818;stroke-width:1.0;stroke-dasharray:2.0,2.0;" x1="593.2036" x2="877.1831" y1="1974.6875" y2="1974.6875"/><text fill="#000000" font-family="Roboto" font-size="13" lengthAdjust="spacing" textLength="25.4287" x="720.479" y="1969.5137">"OK"</text><polygon fill="#181818" points="297.4175,2006.9219,287.4175,2010.9219,297.4175,2014.9219,293.4175,2010.9219" style="stroke:#181818;stroke-width:1.0;"/><line style="stroke:#181818;stroke-width:1.0;stroke-dasharray:2.0,2.0;" x1="291.4175" x2="587.2036" y1="2010.9219" y2="2010.9219"/><text fill="#000000" font-family="Roboto" font-size="13" lengthAdjust="spacing" textLength="180.4512" x="347.085" y="2005.748">"{kind:'saved', row} (final state)"</text><path d="M533,2027.9219 L533,2135.9219 A4,4 0 0 0 537,2139.9219 L1482,2139.9219 A4,4 0 0 0 1486,2135.9219 L1486,2033.9219 L1476,2023.9219 L537,2023.9219 A4,4 0 0 0 533,2027.9219 " fill="#FEFFDD" style="stroke:#181818;stroke-width:0.5;"/><path d="M1476,2023.9219 L1476,2031.9219 A2,2 0 0 0 1478,2033.9219 L1486,2033.9219 L1476,2023.9219 " fill="#FEFFDD" style="stroke:#181818;stroke-width:0.5;"/><text fill="#000000" font-family="Roboto" font-size="13" lengthAdjust="spacing" textLength="139.7627" x="859.384" y="2040.9824">Idempotency guarantee:</text><text fill="#000000" font-family="Roboto" font-size="13" lengthAdjust="spacing" textLength="226.9795" x="859.384" y="2056.2168">If any queued write was already applied</text><text fill="#000000" font-family="Roboto" font-size="13" lengthAdjust="spacing" textLength="237.4912" x="859.384" y="2071.4512">(e.g., the connection dropped after server</text><text fill="#000000" font-family="Roboto" font-size="13" lengthAdjust="spacing" textLength="237.542" x="859.384" y="2086.6855">wrote but before client got the response),</text><text fill="#000000" font-family="Roboto" font-size="13" lengthAdjust="spacing" textLength="292.0303" x="859.384" y="2101.9199">the replay finds body.event_id == row.last_event_id</text><text fill="#000000" font-family="Roboto" font-size="13" lengthAdjust="spacing" textLength="273.0635" x="859.384" y="2117.1543">and returns the current row without re-applying.</text><text fill="#000000" font-family="Roboto" font-size="13" lengthAdjust="spacing" textLength="235.9043" x="859.384" y="2132.3887">The queue entry is then safely dequeued.</text><path d="M13,2154.5625 L13,2171.5625 A4,4 0 0 0 17,2175.5625 L1476,2175.5625 A4,4 0 0 0 1480,2171.5625 L1480,2160.5625 L1470,2150.5625 L17,2150.5625 A4,4 0 0 0 13,2154.5625 " fill="#FEFFDD" style="stroke:#181818;stroke-width:0.5;"/><path d="M1470,2150.5625 L1470,2158.5625 A2,2 0 0 0 1472,2160.5625 L1480,2160.5625 L1470,2150.5625 " fill="#FEFFDD" style="stroke:#181818;stroke-width:0.5;"/><text fill="#000000" font-family="Roboto" font-size="13" lengthAdjust="spacing" textLength="352.7583" x="565.9336" y="2167.623">Conflict during replay (another device advanced while offline)</text><path d="M14,2187.7969 L69.8091,2187.7969 L69.8091,2195.0313 L59.8091,2205.0313 L10,2205.0313 L10,2191.7969 A4,4 0 0 1 14,2187.7969 " fill="#EEEEEE" style="stroke:#000000;stroke-width:1.5;"/><rect fill="none" height="207.875" rx="4" ry="4" style="stroke:#000000;stroke-width:1.5;" width="1492.6255" x="10" y="2187.7969"/><text fill="#000000" font-family="Roboto" font-size="13" font-weight="bold" lengthAdjust="spacing" textLength="14.8091" x="25" y="2200.8574">alt</text><text fill="#000000" font-family="Roboto" font-size="11" font-weight="bold" lengthAdjust="spacing" textLength="103.7695" x="84.8091" y="2200.002">["replay returns 409"]</text><polygon fill="#181818" points="1014.6167,2222.2656,1024.6167,2226.2656,1014.6167,2230.2656,1018.6167,2226.2656" style="stroke:#181818;stroke-width:1.0;"/><line style="stroke:#181818;stroke-width:1.0;" x1="588.2036" x2="1020.6167" y1="2226.2656" y2="2226.2656"/><text fill="#000000" font-family="Roboto" font-size="13" lengthAdjust="spacing" textLength="314.2153" x="650.3025" y="2221.0918">"putReadingState(event_id:'uuid-43', state_revision=N)"</text><polygon fill="#181818" points="1420.5171,2251.5,1430.5171,2255.5,1420.5171,2259.5,1424.5171,2255.5" style="stroke:#181818;stroke-width:1.0;"/><line style="stroke:#181818;stroke-width:1.0;" x1="1026.6167" x2="1426.5171" y1="2255.5" y2="2255.5"/><text fill="#000000" font-family="Roboto" font-size="13" lengthAdjust="spacing" textLength="46.2236" x="1206.4551" y="2250.3262">"PUT ..."</text><polygon fill="#181818" points="1037.6167,2280.7344,1027.6167,2284.7344,1037.6167,2288.7344,1033.6167,2284.7344" style="stroke:#181818;stroke-width:1.0;"/><line style="stroke:#181818;stroke-width:1.0;stroke-dasharray:2.0,2.0;" x1="1031.6167" x2="1431.5171" y1="2284.7344" y2="2284.7344"/><text fill="#000000" font-family="Roboto" font-size="13" lengthAdjust="spacing" textLength="381.9004" x="1038.6167" y="2279.5605">"409 {detail:'revision mismatch', current_row:{state_revision:N+5}}"</text><polygon fill="#181818" points="599.2036,2309.9688,589.2036,2313.9688,599.2036,2317.9688,595.2036,2313.9688" style="stroke:#181818;stroke-width:1.0;"/><line style="stroke:#181818;stroke-width:1.0;stroke-dasharray:2.0,2.0;" x1="593.2036" x2="1025.6167" y1="2313.9688" y2="2313.9688"/><text fill="#000000" font-family="Roboto" font-size="13" lengthAdjust="spacing" textLength="150.4395" x="732.1904" y="2308.7949">"{status:409, currentRow}"</text><polygon fill="#181818" points="297.4175,2339.2031,287.4175,2343.2031,297.4175,2347.2031,293.4175,2343.2031" style="stroke:#181818;stroke-width:1.0;"/><line style="stroke:#181818;stroke-width:1.0;stroke-dasharray:2.0,2.0;" x1="291.4175" x2="587.2036" y1="2343.2031" y2="2343.2031"/><text fill="#000000" font-family="Roboto" font-size="13" lengthAdjust="spacing" textLength="164.4614" x="355.0798" y="2338.0293">"{kind:'conflict', currentRow}"</text><polygon fill="#181818" points="73.3647,2383.6719,63.3647,2387.6719,73.3647,2391.6719,69.3647,2387.6719" style="stroke:#181818;stroke-width:1.0;"/><line style="stroke:#181818;stroke-width:1.0;" x1="67.3647" x2="285.4175" y1="2387.6719" y2="2387.6719"/><text fill="#000000" font-family="Roboto" font-size="13" lengthAdjust="spacing" textLength="101.5435" x="123.6194" y="2367.2637">"show conflict UX</text><text fill="#000000" font-family="Roboto" font-size="13" lengthAdjust="spacing" textLength="182.9014" x="82.9404" y="2382.498">(offline-conflict-ux.md options)"</text><!--SRC=[lLXhRzis5FskNt7dVR2D-D4b6R2fo82qNRUWQvAb2LQWBW9Qf6qYCgbHL58Zy7_V8VMmP3kfcmPhlyGIxuFdddDvgJOTVSU_e4qVnB-PK96WDv9D3Pk7T3QPn589Ee_PWfZYT24YhPI8B9QVA2w-2Fxc5KKiceaUwM8rl6I2Z4YSrPsqCnAtGjbhoKboCK-qHPH5q7OXTMOGS29ZaORuJJGnMk4z7wOc6XOUX-b2HGERudKdPRVYtEYf4MdQAuByxGBsocn_DqQRxiFE-3Xt1MVL5a9ACdiX69Tg-i4o2sz2-NtyOwJxnON_jSMjIq2OuHmOmBjptVdeNL3ng4VMoEbKc9JgoUUkk8xI8HUfdAeomJuWnX-HxMTV1dE-MeP8IY71eHNHh9yc8i9hxE9z5blPv-9M0ae75PaCUBe0tyM88BsHAc5W0hO_OOZo5li-PND1hGizrbQtQal6BBgP6fqf_bh7sj2FRu_T_zgAugLHmj0ljUTfmRltG8LDnN4CC2W2OuG90XPPE6kzdidOqOznOLh4KehSWm0Eh8namfIbLW7x-npsaTgeZ3SiVZPDFpZK_dBBHsgDT2DLhrgdwvsuTm5dberP2ZGg7gsiFSj6gXFhYCMvGcWlbqRkGlBnPWx7YOJD7m8GOIkSNiSIE7H7ga6vo3yTUZSiaTVvxwQtjoorn-Sdz0fbWTr8cPpTWsJXxSRvyw114ZfJNi4EkT2p5GfpgMF7mjoYRZLwAEYOj7leQz4hF8Pr9zJVwaNEvu9Bx31U186tflvlPMKef5Oqqnh09WpDOrZgXrXcTT_vQmNbMfXvniEcKIR0qgF4QDTPJdYFKh1eCTRw9l_X53vIzxbcJdZOnb_zutOlxrHu0AQA2GBmPHSaTn5gaOf5T4IHMIHM3mnwevvVNPsywNJTmdQMITu_t6-lR55kPxhMPZgFfeYwVyeIxaXTfz54cjH-RWNEPR-MrjcxLRWLBRuXAX0P30OvEfHZWwQz1ev_KkxFeLCBXS052rpKywjB6kBjyFQdOS6-ldS-l2yIM0xlVVpbI8qrNv1KKPoX6wuEZBqSYMk3R5AfLIie0_GtThd_uWMTlQFxfaL8fti_BPjfra3pgxCqX36E4tqNKXsfPObeavxtw5r0mJ6EjxqP5gufgJWCSodTkLCaLp_VIKEdmjvfSqDJ3JJAWxMV-qcB4rQgrHdyg8mOmimGmydfEQIplqqxZmkbOCp1rnNHfIsS_owsWzERt3reFuswSDRAouQcDBEe3MqKBLE-tx5nB5wYTGiRpSZEm1BC1ahJdvUNv-Y8QQ9LYedYOK9_gayq8QdAFRjbCdRkFp_8wuPj7brztW2_FkHqxXzi2qwSOTKRzhUXkNJrVxX6M_MJww7MTLVU6ZIjMUQSy6aGvYGhLIRIb-LPJmwVrCrdy_NnjBMpGZ1ZMXd7fUgwEoh6iymdTh2B4Wx_3oKqIS2cJAeT6VCrgfHSEDZamc7x6QbmsDxehDKT92HjC0wYenPtZMzfh2WSA0xRVcbTTEUYnQAvUk_1jkhNhXsFjSlk1eYnJ6rkzg35Ed2VxZV5vjcMQt49UTBzPWrMImwMA6OGQvrGQm8QkDPK74ZOP7wK-Ass0gBTEkgsZF9qkix9KzigLMkRPjKq0Fv7D-58LM7fXoEACUbULqjyxacymC2hxmRDKG3gEztRRyJvXY5YVxc-jqV6Y6KTpABunHsoKoJleTecaoUNuR1Twq3FNmQFwqlQWkd1Kp4zU5vC3n_4r5zrTXpbg8F9lpnbuB7MJ9o7ifSWqidgSmPDCrncSKSJeNinmP7IR2bqvsvhiSDxuIagXNFH4OCf3WwSFbIqDGSgDpf9OCacraNrjoOilZCkat5cQImWPPZag4srzHwgeQA7nVa3tzgm7uuh7qxnGIKKT5Ada8PwN2sKQwSsCohDaygCSI6mrd_BqGXkHDzpmLqdON8vAx_vOA715Eyj5Mv-4rpmoaydVE2AG0xBZORkarn84IFBykl7JjtyTRcOPmRPbFljbETvyL64yLkc8bS9c8lgP0y25jkocrUxFdpnwpDqmehcHwTV5-Ewx3R28YV2n6qnzeNjIdfpcSuPXal4BCfqxMumwpextVjvkOlE4AHoTD6GsrR9b8LgRnZLJinyvd83qmm4gcfxzN6aEjk_Tv5Ed0JIRYxQ_m00]--></g></svg>
