<svg xmlns="http://www.w3.org/2000/svg" xmlns:xlink="http://www.w3.org/1999/xlink" contentStyleType="text/css" height="2306px" preserveAspectRatio="none" style="width:1065px;height:2306px;background:#FAFAFA;" version="1.1" viewBox="0 0 1065 2306" width="1065px" zoomAndPan="magnify"><defs><style type="text/css">@import url('https://fonts.googleapis.com/css?family=Roboto:400,100,100italic,300,300italic,400italic,500,500italic,700,700italic,900,900italic');</style></defs><g><rect fill="#FAFAFA" height="2306" style="stroke:none;stroke-width:1.0;" width="1065" x="0" y="0"/><line style="stroke:#181818;stroke-width:0.5;stroke-dasharray:5.0,5.0;" x1="69" x2="69" y1="97.8125" y2="2209.2031"/><line style="stroke:#181818;stroke-width:0.5;stroke-dasharray:5.0,5.0;" x1="154.5146" x2="154.5146" y1="97.8125" y2="2209.2031"/><line style="stroke:#181818;stroke-width:0.5;stroke-dasharray:5.0,5.0;" x1="511.6597" x2="511.6597" y1="97.8125" y2="2209.2031"/><line style="stroke:#181818;stroke-width:0.5;stroke-dasharray:5.0,5.0;" x1="934.0376" x2="934.0376" y1="97.8125" y2="2209.2031"/><line style="stroke:#181818;stroke-width:0.5;stroke-dasharray:5.0,5.0;" x1="1019.6206" x2="1019.6206" y1="97.8125" y2="2209.2031"/><text fill="#000000" font-family="Roboto" font-size="14" lengthAdjust="spacing" textLength="69.5146" x="32" y="77.9883">PWA Client</text><text fill="#000000" font-family="Roboto" font-size="14" lengthAdjust="spacing" textLength="63.8203" x="34.8472" y="94.3945">(Device A)</text><ellipse cx="69.7573" cy="13.5" fill="#E2E2F0" rx="8" ry="8" style="stroke:#181818;stroke-width:0.5;"/><path d="M69.7573,21.5 L69.7573,48.5 M56.7573,29.5 L82.7573,29.5 M69.7573,48.5 L56.7573,63.5 M69.7573,48.5 L82.7573,63.5 " fill="none" style="stroke:#181818;stroke-width:0.5;"/><text fill="#000000" font-family="Roboto" font-size="14" lengthAdjust="spacing" textLength="69.5146" x="32" y="2221.1914">PWA Client</text><text fill="#000000" font-family="Roboto" font-size="14" lengthAdjust="spacing" textLength="63.8203" x="34.8472" y="2237.5977">(Device A)</text><ellipse cx="69.7573" cy="2249.5156" fill="#E2E2F0" rx="8" ry="8" style="stroke:#181818;stroke-width:0.5;"/><path d="M69.7573,2257.5156 L69.7573,2284.5156 M56.7573,2265.5156 L82.7573,2265.5156 M69.7573,2284.5156 L56.7573,2299.5156 M69.7573,2284.5156 L82.7573,2299.5156 " fill="none" style="stroke:#181818;stroke-width:0.5;"/><text fill="#000000" font-family="Roboto" font-size="14" lengthAdjust="spacing" textLength="69.5146" x="117.5146" y="77.9883">PWA Client</text><text fill="#000000" font-family="Roboto" font-size="14" lengthAdjust="spacing" textLength="63.4102" x="120.5669" y="94.3945">(Device B)</text><ellipse cx="155.272" cy="13.5" fill="#E2E2F0" rx="8" ry="8" style="stroke:#181818;stroke-width:0.5;"/><path d="M155.272,21.5 L155.272,48.5 M142.272,29.5 L168.272,29.5 M155.272,48.5 L142.272,63.5 M155.272,48.5 L168.272,63.5 " fill="none" style="stroke:#181818;stroke-width:0.5;"/><text fill="#000000" font-family="Roboto" font-size="14" lengthAdjust="spacing" textLength="69.5146" x="117.5146" y="2221.1914">PWA Client</text><text fill="#000000" font-family="Roboto" font-size="14" lengthAdjust="spacing" textLength="63.4102" x="120.5669" y="2237.5977">(Device B)</text><ellipse cx="155.272" cy="2249.5156" fill="#E2E2F0" rx="8" ry="8" style="stroke:#181818;stroke-width:0.5;"/><path d="M155.272,2257.5156 L155.272,2284.5156 M142.272,2265.5156 L168.272,2265.5156 M155.272,2284.5156 L142.272,2299.5156 M155.272,2284.5156 L168.272,2299.5156 " fill="none" style="stroke:#181818;stroke-width:0.5;"/><rect fill="#E2E2F0" height="46.8125" rx="4" ry="4" style="stroke:#181818;stroke-width:0.5;" width="78.8525" x="472.6597" y="50"/><text fill="#000000" font-family="Roboto" font-size="14" lengthAdjust="spacing" textLength="48.9316" x="487.6201" y="69.9883">FastAPI</text><text fill="#000000" font-family="Roboto" font-size="14" lengthAdjust="spacing" textLength="64.8525" x="479.6597" y="86.3945">reading.py</text><rect fill="#E2E2F0" height="46.8125" rx="4" ry="4" style="stroke:#181818;stroke-width:0.5;" width="78.8525" x="472.6597" y="2208.2031"/><text fill="#000000" font-family="Roboto" font-size="14" lengthAdjust="spacing" textLength="48.9316" x="487.6201" y="2228.1914">FastAPI</text><text fill="#000000" font-family="Roboto" font-size="14" lengthAdjust="spacing" textLength="64.8525" x="479.6597" y="2244.5977">reading.py</text><rect fill="#E2E2F0" height="46.8125" rx="4" ry="4" style="stroke:#181818;stroke-width:0.5;" width="62.583" x="903.0376" y="50"/><text fill="#000000" font-family="Roboto" font-size="14" lengthAdjust="spacing" textLength="29.1416" x="919.7583" y="69.9883">Auth</text><text fill="#000000" font-family="Roboto" font-size="14" lengthAdjust="spacing" textLength="48.583" x="910.0376" y="86.3945">deps.py</text><rect fill="#E2E2F0" height="46.8125" rx="4" ry="4" style="stroke:#181818;stroke-width:0.5;" width="62.583" x="903.0376" y="2208.2031"/><text fill="#000000" font-family="Roboto" font-size="14" lengthAdjust="spacing" textLength="29.1416" x="919.7583" y="2228.1914">Auth</text><text fill="#000000" font-family="Roboto" font-size="14" lengthAdjust="spacing" textLength="48.583" x="910.0376" y="2244.5977">deps.py</text><text fill="#000000" font-family="Roboto" font-size="14" lengthAdjust="spacing" textLength="74.1357" x="980.0879" y="77.9883">PostgreSQL</text><text fill="#000000" font-family="Roboto" font-size="14" lengthAdjust="spacing" textLength="83.0703" x="975.6206" y="94.3945">ReadingState</text><path d="M1002.1558,29 C1002.1558,19 1020.1558,19 1020.1558,19 C1020.1558,19 1038.1558,19 1038.1558,29 L1038.1558,55 C1038.1558,65 1020.1558,65 1020.1558,65 C1020.1558,65 1002.1558,65 1002.1558,55 L1002.1558,29 " fill="#E2E2F0" style="stroke:#181818;stroke-width:1.5;"/><path d="M1002.1558,29 C1002.1558,39 1020.1558,39 1020.1558,39 C1020.1558,39 1038.1558,39 1038.1558,29 " fill="none" style="stroke:#181818;stroke-width:1.5;"/><text fill="#000000" font-family="Roboto" font-size="14" lengthAdjust="spacing" textLength="74.1357" x="980.0879" y="2221.1914">PostgreSQL</text><text fill="#000000" font-family="Roboto" font-size="14" lengthAdjust="spacing" textLength="83.0703" x="975.6206" y="2237.5977">ReadingState</text><path d="M1002.1558,2251.0156 C1002.1558,2241.0156 1020.1558,2241.0156 1020.1558,2241.0156 C1020.1558,2241.0156 1038.1558,2241.0156 1038.1558,2251.0156 L1038.1558,2277.0156 C1038.1558,2287.0156 1020.1558,2287.0156 1020.1558,2287.0156 C1020.1558,2287.0156 1002.1558,2287.0156 1002.1558,2277.0156 L1002.1558,2251.0156 " fill="#E2E2F0" style="stroke:#181818;stroke-width:1.5;"/><path d="M1002.1558,2251.0156 C1002.1558,2261.0156 1020.1558,2261.0156 1020.1558,2261.0156 C1020.1558,2261.0156 1038.1558,2261.0156 1038.1558,2251.0156 " fill="none" style="stroke:#181818;stroke-width:1.5;"/><path d="M31,116.8125 L31,133.8125 A4,4 0 0 0 35,137.8125 L1054,137.8125 A4,4 0 0 0 1058,133.8125 L1058,122.8125 L1048,112.8125 L35,112.8125 A4,4 0 0 0 31,116.8125 " fill="#FEFFDD" style="stroke:#181818;stroke-width:0.5;"/><path d="M1048,112.8125 L1048,120.8125 A2,2 0 0 0 1050,122.8125 L1058,122.8125 L1048,112.8125 " fill="#FEFFDD" style="stroke:#181818;stroke-width:0.5;"/><text fill="#000000" font-family="Roboto" font-size="13" lengthAdjust="spacing" textLength="246.3208" x="417.1851" y="129.873">Happy path: creating the first reading state</text><polygon fill="#181818" points="500.0859,190.75,510.0859,194.75,500.0859,198.75,504.0859,194.75" style="stroke:#181818;stroke-width:1.0;"/><line style="stroke:#181818;stroke-width:1.0;" x1="69.7573" x2="506.0859" y1="194.75" y2="194.75"/><text fill="#000000" font-family="Roboto" font-size="13" lengthAdjust="spacing" textLength="207.3652" x="187.239" y="159.1074">"PUT /reading-state/{profile}/{story}</text><text fill="#000000" font-family="Roboto" font-size="13" lengthAdjust="spacing" textLength="276.4087" x="152.7173" y="174.3418">body: {current_node, var_state, state_revision=0,</text><text fill="#000000" font-family="Roboto" font-size="13" lengthAdjust="spacing" textLength="269.9214" x="155.9609" y="189.5762">event_id='uuid-1', version=3, device_id='dev-A'}"</text><polygon fill="#181818" points="922.3291,219.9844,932.3291,223.9844,922.3291,227.9844,926.3291,223.9844" style="stroke:#181818;stroke-width:1.0;"/><line style="stroke:#181818;stroke-width:1.0;" x1="512.0859" x2="928.3291" y1="223.9844" y2="223.9844"/><text fill="#000000" font-family="Roboto" font-size="13" lengthAdjust="spacing" textLength="188.4937" x="628.9607" y="218.8105">"resolve Principal (bearer token)"</text><polygon fill="#181818" points="523.0859,249.2188,513.0859,253.2188,523.0859,257.2188,519.0859,253.2188" style="stroke:#181818;stroke-width:1.0;"/><line style="stroke:#181818;stroke-width:1.0;stroke-dasharray:2.0,2.0;" x1="517.0859" x2="933.3291" y1="253.2188" y2="253.2188"/><text fill="#000000" font-family="Roboto" font-size="13" lengthAdjust="spacing" textLength="212.9321" x="616.7415" y="248.0449">"Principal(role, family_id, profile_ids)"</text><line style="stroke:#181818;stroke-width:1.0;" x1="512.0859" x2="554.0859" y1="297.6875" y2="297.6875"/><line style="stroke:#181818;stroke-width:1.0;" x1="554.0859" x2="554.0859" y1="297.6875" y2="310.6875"/><line style="stroke:#181818;stroke-width:1.0;" x1="513.0859" x2="554.0859" y1="310.6875" y2="310.6875"/><polygon fill="#181818" points="523.0859,306.6875,513.0859,310.6875,523.0859,314.6875,519.0859,310.6875" style="stroke:#181818;stroke-width:1.0;"/><text fill="#000000" font-family="Roboto" font-size="13" lengthAdjust="spacing" textLength="143.7744" x="519.0859" y="277.2793">"authorize_profile() -&gt; OK</text><text fill="#000000" font-family="Roboto" font-size="13" lengthAdjust="spacing" textLength="142.3843" x="519.781" y="292.5137">authorize_family() -&gt; OK"</text><polygon fill="#181818" points="1008.1558,351.1563,1018.1558,355.1563,1008.1558,359.1563,1012.1558,355.1563" style="stroke:#181818;stroke-width:1.0;"/><line style="stroke:#181818;stroke-width:1.0;" x1="512.0859" x2="1014.1558" y1="355.1563" y2="355.1563"/><text fill="#000000" font-family="Roboto" font-size="13" lengthAdjust="spacing" textLength="206.6987" x="662.7715" y="334.748">"SELECT ... WHERE pk FOR UPDATE</text><text fill="#000000" font-family="Roboto" font-size="13" lengthAdjust="spacing" textLength="98.7949" x="716.7234" y="349.9824">[no existing row]"</text><polygon fill="#181818" points="523.0859,380.3906,513.0859,384.3906,523.0859,388.3906,519.0859,384.3906" style="stroke:#181818;stroke-width:1.0;"/><line style="stroke:#181818;stroke-width:1.0;stroke-dasharray:2.0,2.0;" x1="517.0859" x2="1019.1558" y1="384.3906" y2="384.3906"/><text fill="#000000" font-family="Roboto" font-size="13" lengthAdjust="spacing" textLength="39.0889" x="746.5764" y="379.2168">"None"</text><line style="stroke:#181818;stroke-width:1.0;" x1="512.0859" x2="554.0859" y1="444.0938" y2="444.0938"/><line style="stroke:#181818;stroke-width:1.0;" x1="554.0859" x2="554.0859" y1="444.0938" y2="457.0938"/><line style="stroke:#181818;stroke-width:1.0;" x1="513.0859" x2="554.0859" y1="457.0938" y2="457.0938"/><polygon fill="#181818" points="523.0859,453.0938,513.0859,457.0938,523.0859,461.0938,519.0859,457.0938" style="stroke:#181818;stroke-width:1.0;"/><text fill="#000000" font-family="Roboto" font-size="13" lengthAdjust="spacing" textLength="139.5786" x="538.7097" y="408.4512">"_create_reading_state()</text><text fill="#000000" font-family="Roboto" font-size="13" lengthAdjust="spacing" textLength="156.7554" x="530.1213" y="423.6855">validate state_revision == 0</text><text fill="#000000" font-family="Roboto" font-size="13" lengthAdjust="spacing" textLength="178.8262" x="519.0859" y="438.9199">(server owns revision counter)"</text><polygon fill="#181818" points="1008.1558,512.7969,1018.1558,516.7969,1008.1558,520.7969,1012.1558,516.7969" style="stroke:#181818;stroke-width:1.0;"/><line style="stroke:#181818;stroke-width:1.0;" x1="512.0859" x2="1014.1558" y1="516.7969" y2="516.7969"/><text fill="#000000" font-family="Roboto" font-size="13" lengthAdjust="spacing" textLength="128.21" x="702.0159" y="481.1543">"INSERT ReadingState</text><text fill="#000000" font-family="Roboto" font-size="13" lengthAdjust="spacing" textLength="94.707" x="718.7673" y="496.3887">state_revision=1</text><text fill="#000000" font-family="Roboto" font-size="13" lengthAdjust="spacing" textLength="126.5024" x="702.8696" y="511.623">last_event_id='uuid-1'"</text><polygon fill="#181818" points="523.0859,542.0313,513.0859,546.0313,523.0859,550.0313,519.0859,546.0313" style="stroke:#181818;stroke-width:1.0;"/><line style="stroke:#181818;stroke-width:1.0;stroke-dasharray:2.0,2.0;" x1="517.0859" x2="1019.1558" y1="546.0313" y2="546.0313"/><text fill="#000000" font-family="Roboto" font-size="13" lengthAdjust="spacing" textLength="76.7939" x="727.7239" y="540.8574">"row created"</text><polygon fill="#181818" points="80.7573,586.5,70.7573,590.5,80.7573,594.5,76.7573,590.5" style="stroke:#181818;stroke-width:1.0;"/><line style="stroke:#181818;stroke-width:1.0;stroke-dasharray:2.0,2.0;" x1="74.7573" x2="511.0859" y1="590.5" y2="590.5"/><text fill="#000000" font-family="Roboto" font-size="13" lengthAdjust="spacing" textLength="46.4077" x="267.7178" y="570.0918">"200 OK</text><text fill="#000000" font-family="Roboto" font-size="13" lengthAdjust="spacing" textLength="205.3086" x="188.2673" y="585.3262">{current_node, state_revision=1, ...}"</text><path d="M31,607.5 L31,624.5 A4,4 0 0 0 35,628.5 L1054,628.5 A4,4 0 0 0 1058,624.5 L1058,613.5 L1048,603.5 L35,603.5 A4,4 0 0 0 31,607.5 " fill="#FEFFDD" style="stroke:#181818;stroke-width:0.5;"/><path d="M1048,603.5 L1048,611.5 A2,2 0 0 0 1050,613.5 L1058,613.5 L1048,603.5 " fill="#FEFFDD" style="stroke:#181818;stroke-width:0.5;"/><text fill="#000000" font-family="Roboto" font-size="13" lengthAdjust="spacing" textLength="285.6509" x="397.52" y="620.5605">Device A updates progress (state_revision=1 -&gt; 2)</text><polygon fill="#181818" points="500.0859,681.4375,510.0859,685.4375,500.0859,689.4375,504.0859,685.4375" style="stroke:#181818;stroke-width:1.0;"/><line style="stroke:#181818;stroke-width:1.0;" x1="69.7573" x2="506.0859" y1="685.4375" y2="685.4375"/><text fill="#000000" font-family="Roboto" font-size="13" lengthAdjust="spacing" textLength="207.3652" x="187.239" y="649.7949">"PUT /reading-state/{profile}/{story}</text><text fill="#000000" font-family="Roboto" font-size="13" lengthAdjust="spacing" textLength="269.2041" x="156.3196" y="665.0293">body: {current_node='node-5', state_revision=1,</text><text fill="#000000" font-family="Roboto" font-size="13" lengthAdjust="spacing" textLength="166.1245" x="207.8594" y="680.2637">event_id='uuid-2', version=3}"</text><polygon fill="#181818" points="1008.1558,725.9063,1018.1558,729.9063,1008.1558,733.9063,1012.1558,729.9063" style="stroke:#181818;stroke-width:1.0;"/><line style="stroke:#181818;stroke-width:1.0;" x1="512.0859" x2="1014.1558" y1="729.9063" y2="729.9063"/><text fill="#000000" font-family="Roboto" font-size="13" lengthAdjust="spacing" textLength="142.7651" x="694.7383" y="709.498">"SELECT ... FOR UPDATE</text><text fill="#000000" font-family="Roboto" font-size="13" lengthAdjust="spacing" textLength="170.5361" x="680.8528" y="724.7324">[row exists, state_revision=1]"</text><polygon fill="#181818" points="523.0859,755.1406,513.0859,759.1406,523.0859,763.1406,519.0859,759.1406" style="stroke:#181818;stroke-width:1.0;"/><line style="stroke:#181818;stroke-width:1.0;stroke-dasharray:2.0,2.0;" x1="517.0859" x2="1019.1558" y1="759.1406" y2="759.1406"/><text fill="#000000" font-family="Roboto" font-size="13" lengthAdjust="spacing" textLength="189.1475" x="671.5471" y="753.9668">"ReadingState(state_revision=1)"</text><line style="stroke:#181818;stroke-width:1.0;" x1="512.0859" x2="554.0859" y1="818.8438" y2="818.8438"/><line style="stroke:#181818;stroke-width:1.0;" x1="554.0859" x2="554.0859" y1="818.8438" y2="831.8438"/><line style="stroke:#181818;stroke-width:1.0;" x1="513.0859" x2="554.0859" y1="831.8438" y2="831.8438"/><polygon fill="#181818" points="523.0859,827.8438,513.0859,831.8438,523.0859,835.8438,519.0859,831.8438" style="stroke:#181818;stroke-width:1.0;"/><text fill="#000000" font-family="Roboto" font-size="13" lengthAdjust="spacing" textLength="119.5708" x="609.9622" y="783.2012">"idempotency check:</text><text fill="#000000" font-family="Roboto" font-size="13" lengthAdjust="spacing" textLength="301.3232" x="519.0859" y="798.4355">body.event_id ('uuid-2') != row.last_event_id ('uuid-1')</text><text fill="#000000" font-family="Roboto" font-size="13" lengthAdjust="spacing" textLength="85.1284" x="627.1833" y="813.6699">-&gt; not a replay"</text><line style="stroke:#181818;stroke-width:1.0;" x1="512.0859" x2="554.0859" y1="861.0781" y2="861.0781"/><line style="stroke:#181818;stroke-width:1.0;" x1="554.0859" x2="554.0859" y1="861.0781" y2="874.0781"/><line style="stroke:#181818;stroke-width:1.0;" x1="513.0859" x2="554.0859" y1="874.0781" y2="874.0781"/><polygon fill="#181818" points="523.0859,870.0781,513.0859,874.0781,523.0859,878.0781,519.0859,874.0781" style="stroke:#181818;stroke-width:1.0;"/><text fill="#000000" font-family="Roboto" font-size="13" lengthAdjust="spacing" textLength="328.6689" x="519.0859" y="855.9043">"version check: body.version (3) == row.version (3) -&gt; OK"</text><line style="stroke:#181818;stroke-width:1.0;" x1="512.0859" x2="554.0859" y1="903.3125" y2="903.3125"/><line style="stroke:#181818;stroke-width:1.0;" x1="554.0859" x2="554.0859" y1="903.3125" y2="916.3125"/><line style="stroke:#181818;stroke-width:1.0;" x1="513.0859" x2="554.0859" y1="916.3125" y2="916.3125"/><polygon fill="#181818" points="523.0859,912.3125,513.0859,916.3125,523.0859,920.3125,519.0859,916.3125" style="stroke:#181818;stroke-width:1.0;"/><text fill="#000000" font-family="Roboto" font-size="13" lengthAdjust="spacing" textLength="408.2432" x="519.0859" y="898.1387">"revision check: body.state_revision (1) == row.state_revision (1) -&gt; OK"</text><line style="stroke:#181818;stroke-width:1.0;" x1="512.0859" x2="554.0859" y1="960.7813" y2="960.7813"/><line style="stroke:#181818;stroke-width:1.0;" x1="554.0859" x2="554.0859" y1="960.7813" y2="973.7813"/><line style="stroke:#181818;stroke-width:1.0;" x1="513.0859" x2="554.0859" y1="973.7813" y2="973.7813"/><polygon fill="#181818" points="523.0859,969.7813,513.0859,973.7813,523.0859,977.7813,519.0859,973.7813" style="stroke:#181818;stroke-width:1.0;"/><text fill="#000000" font-family="Roboto" font-size="13" lengthAdjust="spacing" textLength="258.6162" x="519.0859" y="940.373">"_apply_body(): row.state_revision = 1 + 1 = 2</text><text fill="#000000" font-family="Roboto" font-size="13" lengthAdjust="spacing" textLength="132.9517" x="581.9182" y="955.6074">last_event_id = 'uuid-2'"</text><polygon fill="#181818" points="1008.1558,999.0156,1018.1558,1003.0156,1008.1558,1007.0156,1012.1558,1003.0156" style="stroke:#181818;stroke-width:1.0;"/><line style="stroke:#181818;stroke-width:1.0;" x1="512.0859" x2="1014.1558" y1="1003.0156" y2="1003.0156"/><text fill="#000000" font-family="Roboto" font-size="13" lengthAdjust="spacing" textLength="282.6167" x="624.8125" y="997.8418">"UPDATE (implicit, SQLAlchemy tracks changes)"</text><polygon fill="#181818" points="80.7573,1043.4844,70.7573,1047.4844,80.7573,1051.4844,76.7573,1047.4844" style="stroke:#181818;stroke-width:1.0;"/><line style="stroke:#181818;stroke-width:1.0;stroke-dasharray:2.0,2.0;" x1="74.7573" x2="511.0859" y1="1047.4844" y2="1047.4844"/><text fill="#000000" font-family="Roboto" font-size="13" lengthAdjust="spacing" textLength="46.4077" x="267.7178" y="1027.0762">"200 OK</text><text fill="#000000" font-family="Roboto" font-size="13" lengthAdjust="spacing" textLength="240.6396" x="170.6018" y="1042.3105">{current_node='node-5', state_revision=2}"</text><path d="M31,1064.4844 L31,1081.4844 A4,4 0 0 0 35,1085.4844 L1054,1085.4844 A4,4 0 0 0 1058,1081.4844 L1058,1070.4844 L1048,1060.4844 L35,1060.4844 A4,4 0 0 0 31,1064.4844 " fill="#FEFFDD" style="stroke:#181818;stroke-width:0.5;"/><path d="M1048,1060.4844 L1048,1068.4844 A2,2 0 0 0 1050,1070.4844 L1058,1070.4844 L1048,1060.4844 " fill="#FEFFDD" style="stroke:#181818;stroke-width:0.5;"/><text fill="#000000" font-family="Roboto" font-size="13" lengthAdjust="spacing" textLength="319.2173" x="380.7368" y="1077.5449">Offline queue replay: same event replayed (idempotent)</text><polygon fill="#181818" points="500.0859,1123.1875,510.0859,1127.1875,500.0859,1131.1875,504.0859,1127.1875" style="stroke:#181818;stroke-width:1.0;"/><line style="stroke:#181818;stroke-width:1.0;" x1="69.7573" x2="506.0859" y1="1127.1875" y2="1127.1875"/><text fill="#000000" font-family="Roboto" font-size="13" lengthAdjust="spacing" textLength="207.3652" x="187.239" y="1106.7793">"PUT /reading-state/{profile}/{story}</text><text fill="#000000" font-family="Roboto" font-size="13" lengthAdjust="spacing" textLength="259.3652" x="161.239" y="1122.0137">body: {event_id='uuid-2', state_revision=1, ...}"</text><polygon fill="#181818" points="1008.1558,1167.6563,1018.1558,1171.6563,1008.1558,1175.6563,1012.1558,1171.6563" style="stroke:#181818;stroke-width:1.0;"/><line style="stroke:#181818;stroke-width:1.0;" x1="512.0859" x2="1014.1558" y1="1171.6563" y2="1171.6563"/><text fill="#000000" font-family="Roboto" font-size="13" lengthAdjust="spacing" textLength="142.7651" x="694.7383" y="1151.248">"SELECT ... FOR UPDATE</text><text fill="#000000" font-family="Roboto" font-size="13" lengthAdjust="spacing" textLength="261.2568" x="635.4924" y="1166.4824">[row, state_revision=2, last_event_id='uuid-2']"</text><polygon fill="#181818" points="523.0859,1196.8906,513.0859,1200.8906,523.0859,1204.8906,519.0859,1200.8906" style="stroke:#181818;stroke-width:1.0;"/><line style="stroke:#181818;stroke-width:1.0;stroke-dasharray:2.0,2.0;" x1="517.0859" x2="1019.1558" y1="1200.8906" y2="1200.8906"/><text fill="#000000" font-family="Roboto" font-size="13" lengthAdjust="spacing" textLength="317.2686" x="607.4866" y="1195.7168">"ReadingState(state_revision=2, last_event_id='uuid-2')"</text><line style="stroke:#181818;stroke-width:1.0;" x1="512.0859" x2="554.0859" y1="1260.5938" y2="1260.5938"/><line style="stroke:#181818;stroke-width:1.0;" x1="554.0859" x2="554.0859" y1="1260.5938" y2="1273.5938"/><line style="stroke:#181818;stroke-width:1.0;" x1="513.0859" x2="554.0859" y1="1273.5938" y2="1273.5938"/><polygon fill="#181818" points="523.0859,1269.5938,513.0859,1273.5938,523.0859,1277.5938,519.0859,1273.5938" style="stroke:#181818;stroke-width:1.0;"/><text fill="#000000" font-family="Roboto" font-size="13" lengthAdjust="spacing" textLength="119.5708" x="611.8538" y="1224.9512">"idempotency check:</text><text fill="#000000" font-family="Roboto" font-size="13" lengthAdjust="spacing" textLength="305.1064" x="519.0859" y="1240.1855">body.event_id ('uuid-2') == row.last_event_id ('uuid-2')</text><text fill="#000000" font-family="Roboto" font-size="13" lengthAdjust="spacing" textLength="215.8711" x="563.7036" y="1255.4199">-&gt; replay detected, return current row"</text><polygon fill="#181818" points="80.7573,1314.0625,70.7573,1318.0625,80.7573,1322.0625,76.7573,1318.0625" style="stroke:#181818;stroke-width:1.0;"/><line style="stroke:#181818;stroke-width:1.0;stroke-dasharray:2.0,2.0;" x1="74.7573" x2="511.0859" y1="1318.0625" y2="1318.0625"/><text fill="#000000" font-family="Roboto" font-size="13" lengthAdjust="spacing" textLength="176.6108" x="202.6162" y="1297.6543">"200 OK (current row, no write)</text><text fill="#000000" font-family="Roboto" font-size="13" lengthAdjust="spacing" textLength="107.6689" x="237.0872" y="1312.8887">{state_revision=2}"</text><path d="M31,1335.0625 L31,1352.0625 A4,4 0 0 0 35,1356.0625 L1054,1356.0625 A4,4 0 0 0 1058,1352.0625 L1058,1341.0625 L1048,1331.0625 L35,1331.0625 A4,4 0 0 0 31,1335.0625 " fill="#FEFFDD" style="stroke:#181818;stroke-width:0.5;"/><path d="M1048,1331.0625 L1048,1339.0625 A2,2 0 0 0 1050,1341.0625 L1058,1341.0625 L1048,1331.0625 " fill="#FEFFDD" style="stroke:#181818;stroke-width:0.5;"/><text fill="#000000" font-family="Roboto" font-size="13" lengthAdjust="spacing" textLength="218.4482" x="431.1213" y="1348.123">Conflict scenario: two devices diverge</text><polygon fill="#181818" points="500.0859,1393.7656,510.0859,1397.7656,500.0859,1401.7656,504.0859,1397.7656" style="stroke:#181818;stroke-width:1.0;"/><line style="stroke:#181818;stroke-width:1.0;" x1="155.272" x2="506.0859" y1="1397.7656" y2="1397.7656"/><text fill="#000000" font-family="Roboto" font-size="13" lengthAdjust="spacing" textLength="207.3652" x="229.9963" y="1377.3574">"PUT /reading-state/{profile}/{story}</text><text fill="#000000" font-family="Roboto" font-size="13" lengthAdjust="spacing" textLength="305.5825" x="180.8877" y="1392.5918">body: {state_revision=1, event_id='uuid-3', version=3}"</text><path d="M160,1414.7656 L160,1461.7656 A4,4 0 0 0 164,1465.7656 L328,1465.7656 A4,4 0 0 0 332,1461.7656 L332,1420.7656 L322,1410.7656 L164,1410.7656 A4,4 0 0 0 160,1414.7656 " fill="#FEFFDD" style="stroke:#181818;stroke-width:0.5;"/><path d="M322,1410.7656 L322,1418.7656 A2,2 0 0 0 324,1420.7656 L332,1420.7656 L322,1410.7656 " fill="#FEFFDD" style="stroke:#181818;stroke-width:0.5;"/><text fill="#000000" font-family="Roboto" font-size="13" lengthAdjust="spacing" textLength="107.999" x="166" y="1427.8262">Device B is behind;</text><text fill="#000000" font-family="Roboto" font-size="13" lengthAdjust="spacing" textLength="151.5059" x="166" y="1443.0605">it still has revision=1 while</text><text fill="#000000" font-family="Roboto" font-size="13" lengthAdjust="spacing" textLength="126.1343" x="166" y="1458.2949">server is at revision=2</text><polygon fill="#181818" points="1008.1558,1503.9375,1018.1558,1507.9375,1008.1558,1511.9375,1012.1558,1507.9375" style="stroke:#181818;stroke-width:1.0;"/><line style="stroke:#181818;stroke-width:1.0;" x1="512.0859" x2="1014.1558" y1="1507.9375" y2="1507.9375"/><text fill="#000000" font-family="Roboto" font-size="13" lengthAdjust="spacing" textLength="142.7651" x="694.7383" y="1487.5293">"SELECT ... FOR UPDATE</text><text fill="#000000" font-family="Roboto" font-size="13" lengthAdjust="spacing" textLength="133.1357" x="699.553" y="1502.7637">[row, state_revision=2]"</text><polygon fill="#181818" points="523.0859,1533.1719,513.0859,1537.1719,523.0859,1541.1719,519.0859,1537.1719" style="stroke:#181818;stroke-width:1.0;"/><line style="stroke:#181818;stroke-width:1.0;stroke-dasharray:2.0,2.0;" x1="517.0859" x2="1019.1558" y1="1537.1719" y2="1537.1719"/><text fill="#000000" font-family="Roboto" font-size="13" lengthAdjust="spacing" textLength="189.1475" x="671.5471" y="1531.998">"ReadingState(state_revision=2)"</text><line style="stroke:#181818;stroke-width:1.0;" x1="512.0859" x2="554.0859" y1="1596.875" y2="1596.875"/><line style="stroke:#181818;stroke-width:1.0;" x1="554.0859" x2="554.0859" y1="1596.875" y2="1609.875"/><line style="stroke:#181818;stroke-width:1.0;" x1="513.0859" x2="554.0859" y1="1609.875" y2="1609.875"/><polygon fill="#181818" points="523.0859,1605.875,513.0859,1609.875,523.0859,1613.875,519.0859,1609.875" style="stroke:#181818;stroke-width:1.0;"/><text fill="#000000" font-family="Roboto" font-size="13" lengthAdjust="spacing" textLength="90.0098" x="610.6414" y="1561.2324">"revision check:</text><text fill="#000000" font-family="Roboto" font-size="13" lengthAdjust="spacing" textLength="273.1206" x="519.0859" y="1576.4668">body.state_revision (1) != row.state_revision (2)</text><text fill="#000000" font-family="Roboto" font-size="13" lengthAdjust="spacing" textLength="78.3999" x="616.4463" y="1591.7012">-&gt; CONFLICT"</text><polygon fill="#181818" points="166.272,1665.5781,156.272,1669.5781,166.272,1673.5781,162.272,1669.5781" style="stroke:#181818;stroke-width:1.0;"/><line style="stroke:#181818;stroke-width:1.0;stroke-dasharray:2.0,2.0;" x1="160.272" x2="511.0859" y1="1669.5781" y2="1669.5781"/><text fill="#000000" font-family="Roboto" font-size="13" lengthAdjust="spacing" textLength="74.2612" x="296.5483" y="1633.9355">"409 Conflict</text><text fill="#000000" font-family="Roboto" font-size="13" lengthAdjust="spacing" textLength="234.5396" x="216.4092" y="1649.1699">{detail:'reading_state revision mismatch',</text><text fill="#000000" font-family="Roboto" font-size="13" lengthAdjust="spacing" textLength="332.814" x="167.272" y="1664.4043">current_row:{state_revision=2, current_node='node-5', ...}}"</text><path d="M5,1686.5781 L5,1748.5781 A4,4 0 0 0 9,1752.5781 L301,1752.5781 A4,4 0 0 0 305,1748.5781 L305,1692.5781 L295,1682.5781 L9,1682.5781 A4,4 0 0 0 5,1686.5781 " fill="#FEFFDD" style="stroke:#181818;stroke-width:0.5;"/><path d="M295,1682.5781 L295,1690.5781 A2,2 0 0 0 297,1692.5781 L305,1692.5781 L295,1682.5781 " fill="#FEFFDD" style="stroke:#181818;stroke-width:0.5;"/><text fill="#000000" font-family="Roboto" font-size="13" lengthAdjust="spacing" textLength="151.7852" x="11" y="1699.6387">Client now has two states:</text><text fill="#000000" font-family="Roboto" font-size="13" lengthAdjust="spacing" textLength="230.8071" x="11" y="1714.873">- its local progress (node-12, revision=1)</text><text fill="#000000" font-family="Roboto" font-size="13" lengthAdjust="spacing" textLength="213.0972" x="11" y="1730.1074">- server's current (node-5, revision=2)</text><text fill="#000000" font-family="Roboto" font-size="13" lengthAdjust="spacing" textLength="279.627" x="11" y="1745.3418">Reconciliation options per offline-conflict-ux.md:</text><line style="stroke:#181818;stroke-width:1.0;" x1="155.272" x2="197.272" y1="1871.1563" y2="1871.1563"/><line style="stroke:#181818;stroke-width:1.0;" x1="197.272" x2="197.272" y1="1871.1563" y2="1884.1563"/><line style="stroke:#181818;stroke-width:1.0;" x1="156.272" x2="197.272" y1="1884.1563" y2="1884.1563"/><polygon fill="#181818" points="166.272,1880.1563,156.272,1884.1563,166.272,1888.1563,162.272,1884.1563" style="stroke:#181818;stroke-width:1.0;"/><text fill="#000000" font-family="Roboto" font-size="13" lengthAdjust="spacing" textLength="104.6919" x="216.957" y="1774.5762">"show conflict UX:</text><text fill="#000000" font-family="Roboto" font-size="13" lengthAdjust="spacing" textLength="158.5962" x="190.0049" y="1789.8105">'continue_from_this_device'</text><text fill="#000000" font-family="Roboto" font-size="13" lengthAdjust="spacing" textLength="207.6064" x="165.4998" y="1805.0449">-&gt; send PUT with server's revision=2</text><text fill="#000000" font-family="Roboto" font-size="13" lengthAdjust="spacing" textLength="214.062" x="162.272" y="1820.2793">(overwrite server with local progress)</text><text fill="#000000" font-family="Roboto" font-size="13" lengthAdjust="spacing" textLength="3.2246" x="267.6907" y="1835.5137">&#160;</text><text fill="#000000" font-family="Roboto" font-size="13" lengthAdjust="spacing" textLength="123.3223" x="207.6418" y="1850.748">'use_newer_progress'</text><text fill="#000000" font-family="Roboto" font-size="13" lengthAdjust="spacing" textLength="171.4819" x="183.562" y="1865.9824">-&gt; discard local, follow server"</text><path d="M31,1901.1563 L31,1918.1563 A4,4 0 0 0 35,1922.1563 L1054,1922.1563 A4,4 0 0 0 1058,1918.1563 L1058,1907.1563 L1048,1897.1563 L35,1897.1563 A4,4 0 0 0 31,1901.1563 " fill="#FEFFDD" style="stroke:#181818;stroke-width:0.5;"/><path d="M1048,1897.1563 L1048,1905.1563 A2,2 0 0 0 1050,1907.1563 L1058,1907.1563 L1048,1897.1563 " fill="#FEFFDD" style="stroke:#181818;stroke-width:0.5;"/><text fill="#000000" font-family="Roboto" font-size="13" lengthAdjust="spacing" textLength="378.1616" x="351.2646" y="1914.2168">Story republished: version mismatch (new story version available)</text><polygon fill="#181818" points="500.0859,1970.4766,510.0859,1974.4766,500.0859,1978.4766,504.0859,1974.4766" style="stroke:#181818;stroke-width:1.0;"/><line style="stroke:#181818;stroke-width:1.0;" x1="69.7573" x2="506.0859" y1="1974.4766" y2="1974.4766"/><text fill="#000000" font-family="Roboto" font-size="13" lengthAdjust="spacing" textLength="207.3652" x="187.239" y="1954.0684">"PUT /reading-state/{profile}/{story}</text><text fill="#000000" font-family="Roboto" font-size="13" lengthAdjust="spacing" textLength="220.5874" x="180.6279" y="1969.3027">body: {version=3, state_revision=2, ...}"</text><path d="M517,1936.3906 L517,1983.3906 A4,4 0 0 0 521,1987.3906 L661,1987.3906 A4,4 0 0 0 665,1983.3906 L665,1942.3906 L655,1932.3906 L521,1932.3906 A4,4 0 0 0 517,1936.3906 " fill="#FEFFDD" style="stroke:#181818;stroke-width:0.5;"/><path d="M655,1932.3906 L655,1940.3906 A2,2 0 0 0 657,1942.3906 L665,1942.3906 L655,1932.3906 " fill="#FEFFDD" style="stroke:#181818;stroke-width:0.5;"/><text fill="#000000" font-family="Roboto" font-size="13" lengthAdjust="spacing" textLength="126.7944" x="523" y="1949.4512">Server upgraded story</text><text fill="#000000" font-family="Roboto" font-size="13" lengthAdjust="spacing" textLength="122.3193" x="523" y="1964.6855">to version=4 in a new</text><text fill="#000000" font-family="Roboto" font-size="13" lengthAdjust="spacing" textLength="127.5117" x="523" y="1979.9199">StorybookVersion row</text><polygon fill="#181818" points="1008.1558,2025.5625,1018.1558,2029.5625,1008.1558,2033.5625,1012.1558,2029.5625" style="stroke:#181818;stroke-width:1.0;"/><line style="stroke:#181818;stroke-width:1.0;" x1="512.0859" x2="1014.1558" y1="2029.5625" y2="2029.5625"/><text fill="#000000" font-family="Roboto" font-size="13" lengthAdjust="spacing" textLength="142.7651" x="694.7383" y="2009.1543">"SELECT ... FOR UPDATE</text><text fill="#000000" font-family="Roboto" font-size="13" lengthAdjust="spacing" textLength="94.9292" x="718.6563" y="2024.3887">[row, version=4]"</text><polygon fill="#181818" points="523.0859,2054.7969,513.0859,2058.7969,523.0859,2062.7969,519.0859,2058.7969" style="stroke:#181818;stroke-width:1.0;"/><line style="stroke:#181818;stroke-width:1.0;stroke-dasharray:2.0,2.0;" x1="517.0859" x2="1019.1558" y1="2058.7969" y2="2058.7969"/><text fill="#000000" font-family="Roboto" font-size="13" lengthAdjust="spacing" textLength="251.4307" x="640.4055" y="2053.623">"ReadingState(version=4, state_revision=3)"</text><line style="stroke:#181818;stroke-width:1.0;" x1="512.0859" x2="554.0859" y1="2118.5" y2="2118.5"/><line style="stroke:#181818;stroke-width:1.0;" x1="554.0859" x2="554.0859" y1="2118.5" y2="2131.5"/><line style="stroke:#181818;stroke-width:1.0;" x1="513.0859" x2="554.0859" y1="2131.5" y2="2131.5"/><polygon fill="#181818" points="523.0859,2127.5,513.0859,2131.5,523.0859,2135.5,519.0859,2131.5" style="stroke:#181818;stroke-width:1.0;"/><text fill="#000000" font-family="Roboto" font-size="13" lengthAdjust="spacing" textLength="86.8486" x="574.0154" y="2082.8574">"version check:</text><text fill="#000000" font-family="Roboto" font-size="13" lengthAdjust="spacing" textLength="196.7075" x="519.0859" y="2098.0918">body.version (3) != row.version (4)</text><text fill="#000000" font-family="Roboto" font-size="13" lengthAdjust="spacing" textLength="78.3999" x="578.2397" y="2113.3262">-&gt; CONFLICT"</text><polygon fill="#181818" points="80.7573,2187.2031,70.7573,2191.2031,80.7573,2195.2031,76.7573,2191.2031" style="stroke:#181818;stroke-width:1.0;"/><line style="stroke:#181818;stroke-width:1.0;stroke-dasharray:2.0,2.0;" x1="74.7573" x2="511.0859" y1="2191.2031" y2="2191.2031"/><text fill="#000000" font-family="Roboto" font-size="13" lengthAdjust="spacing" textLength="74.2612" x="253.791" y="2155.5605">"409 Conflict</text><text fill="#000000" font-family="Roboto" font-size="13" lengthAdjust="spacing" textLength="231.3784" x="175.2324" y="2170.7949">{detail:'reading_state version mismatch',</text><text fill="#000000" font-family="Roboto" font-size="13" lengthAdjust="spacing" textLength="161.6367" x="210.1033" y="2186.0293">current_row:{version=4, ...}}"</text><!--SRC=[hLThRzis5FtkNt6RVR2C-P4uBR1fo00tJT1WRP8bQJTW7WHQOcmYCgcHL5mlo7_VeLwMPUUrr05YcRoyl8zpxhrgqy4hFgqsNV9_KYv3JXy4csesz-c2iqZ8QU_ICilf_CiLBOITqLbYnLmOAq8wL39CjSQn9JHSS9jgQUZjxi_q8saUObV4WbcX9Ad4VHd28zQlOn7QLjjTgrADIwz5p8sFtqH6XuDmgG8MtN89ZNp04Z7GkJ7zP4dvnqjI6nIhWN4cTYaeLNSUqMJ26PypKzDKE9hv-Lv5owvpBDFpLV35GxgYoM2k8XxND3LqzJEpOEIjC72-Ip4pDk1EGI2YN6-aGZD8OYObJWqi3sSza_2mFu-e_l4-fx4LlGYg42spb27f526hAOcu4LCvKDUmNF9U6OfU-WtA8FOgVBJCZP090oueujSCnXmhQK_PdDFEXPeegtPg8XCMtaorIcLqg6AbwOVZaVkhIHIRMd9DFzNMJO72pzmODkMZ62vHY81ntMgnq4BPplaV8pgC1HR7qlkGHsJKsI5cACoM0_QOwFirqKaB5mFB8c7IqiunCZGwFndB5TuoQG1dNN2KsjbOHZmnbGXMMX6pRC8CedAkZ9rgVldxfx6iWoAJJQQjjOpGHvO0HGcpCnzSqCQIORUSl11sMDwfYRQa0XlLBG9NUjjDflwQXkmKBYGxuuMwmX_A8DbgbKUfzwlpZNmO38ANDEjbOeExH2l7pFl1dK4yb_TZEG4_VBhBQMy32GPqwPRfaeBha3_OxOvb2VY3TfgAgBVNnW6ki-tzBkMGphRns1krxtTQpY9d62BgBDFSg1ZHEDT2klZ7v4ququY0LJTSTd30IVPglfIIdbOnhBfcSn4lSKcN2fVmR3ghc_9ZJetIubyU559Un-sU_JQMgwrSLxbJgKYcJiFbqQUZmolgz_lqnyUZYoDARkZux8A-d7yONHsDvLzI4V_cgYToeTNYxvqM3jOiFrMIDyqASXIiLpklCvQtB1QHAyxhKGTQQ1U0DrmxcAW5wcwr5u9vO5EdOVZ9wUNHnHNLaJgMZMJkZULQ1QiIsdG2ZkKOv55n3VOgo45WkBkRHRM1e-PzNHT8uE5XhgH9vl_Jz2ZhH772E1o0diQGrxpL1MNO-RuSEMYx_xrtxIrERZ1aM6V8_SC8MmEMYtc6BBDvnGRAwcdUy7-35YBYymHXHPidDC_mnizzx9TsarSQtg4t1mxN_JMWbFjxRO0MUf4ZOe0a-jwoULdXU74HPVUKQzw-guIP_lhIEX5B35Q0hobgyCJRg_HjsTcgDW3uK4cSDg_ZRpjwG7iOV_RmFMpm1Kjbd1f9pRD8dfWdwDd2TWbzOnIxIML9LgETec7Dc9pogcWzXr4FeswumQgJCicsICmpI7MMpng4dftoufYFpeMf8FEvME80G8KX-nsOjOKl3vMEvt9dCqADSQswwqLaUb3BwqXsy0Z9XWN9YYn674Cb2d4N2su-fm8WJi5ZKCBiiHBiWhAqq0AZ223s99RAyTbVjHsyCSoP3MVFG5LvcWm6FwQ5yiakL34e68e4JanNCypa_w9e4pADBEqtwd1chnRJcILrNGsGLMzvJyBGXC-4Z7uPIm7xhOXZch5LzqLpMSnW35fhtfjnWjdLzl0LU7qPBZjFrCi2V5lAuflj1NEOe-xmxFJuqydXrGQq9kuIzsfOfXT00ZQPYFtssc2pYPasMcHPrd2rVxT9iWUgdgi13fqRI4FMylS207kHfSX1BDDhu7kFX3KKgn2pvcfGoDJk3RkrT3gdASzbsrJKoYNVrGHTT2wsln4dRaJR-jBchq6y7aSpSnDMoPClVyBaDdvYgamne6er3-nCc22dJ3jBZE4oMht4LoQlBCJ0w2AKiRpOpsNNmm17S5bgU23vWkkWNCzlYOG9cOxoCvYxLHp3qbnRiqfyBLhu2qh3fMEmgspf91PcnYE_9EXAYmUxAADwjSTk0JCsYVbtw3srLvTD6EOzPrKdO74Uo3IPQXQX4MRQnjAgghAy9G4B2LQFPURVHAcRCZQ0-mjAGgNoyLfGYMsuiDzvV1mhga9z-7hJcCVUFb47sBFhG3Ep6sMWvaT1zFy0]--></g></svg>
