<svg xmlns="http://www.w3.org/2000/svg" xmlns:xlink="http://www.w3.org/1999/xlink" contentStyleType="text/css" height="2285px" preserveAspectRatio="none" style="width:2062px;height:2285px;background:#FAFAFA;" version="1.1" viewBox="0 0 2062 2285" width="2062px" zoomAndPan="magnify"><defs><style type="text/css">@import url('https://fonts.googleapis.com/css?family=Roboto:400,100,100italic,300,300italic,400italic,500,500italic,700,700italic,900,900italic');</style></defs><g><rect fill="#FAFAFA" height="2285" style="stroke:none;stroke-width:1.0;" width="2062" x="0" y="0"/><ellipse cx="213.16" cy="16" fill="#222222" rx="10" ry="10" style="stroke:#222222;stroke-width:1.0;"/><g id="n_start"><rect fill="#BBDEFB" height="50.4688" rx="4" ry="4" style="stroke:#181818;stroke-width:0.5;" width="81.4297" x="172.66" y="87"/><line style="stroke:#181818;stroke-width:0.5;" x1="172.66" x2="254.0897" y1="113.4063" y2="113.4063"/><text fill="#000000" font-family="Roboto" font-size="14" lengthAdjust="spacing" textLength="42.793" x="191.9784" y="104.9883">n_start</text><text fill="#000000" font-family="Roboto" font-size="12" lengthAdjust="spacing" textLength="61.4297" x="177.66" y="129.5391">setup &#183; 42w</text></g><g id="n_kitchen"><rect fill="#BBDEFB" height="50.4688" rx="4" ry="4" style="stroke:#181818;stroke-width:0.5;" width="81.4297" x="172.66" y="214"/><line style="stroke:#181818;stroke-width:0.5;" x1="172.66" x2="254.0897" y1="240.4063" y2="240.4063"/><text fill="#000000" font-family="Roboto" font-size="14" lengthAdjust="spacing" textLength="59.3223" x="183.7137" y="231.9883">n_kitchen</text><text fill="#000000" font-family="Roboto" font-size="12" lengthAdjust="spacing" textLength="61.4297" x="177.66" y="256.5391">setup &#183; 40w</text></g><g id="n_bowls"><rect fill="#FFF9C4" height="50.4688" rx="4" ry="4" style="stroke:#181818;stroke-width:0.5;" width="86.8906" x="169.66" y="341"/><line style="stroke:#181818;stroke-width:0.5;" x1="169.66" x2="256.5506" y1="367.4063" y2="367.4063"/><text fill="#000000" font-family="Roboto" font-size="14" lengthAdjust="spacing" textLength="51.0439" x="187.5833" y="358.9883">n_bowls</text><text fill="#000000" font-family="Roboto" font-size="12" lengthAdjust="spacing" textLength="66.8906" x="174.66" y="383.5391">choice &#183; 42w</text></g><g id="n_bowl_oops"><rect fill="#D1C4E9" height="50.4688" rx="4" ry="4" style="stroke:#181818;stroke-width:0.5;" width="101.1904" x="71.66" y="468"/><line style="stroke:#181818;stroke-width:0.5;" x1="71.66" x2="172.8504" y1="494.4063" y2="494.4063"/><text fill="#000000" font-family="Roboto" font-size="14" lengthAdjust="spacing" textLength="81.1904" x="81.66" y="485.9883">n_bowl_oops</text><text fill="#000000" font-family="Roboto" font-size="12" lengthAdjust="spacing" textLength="61.0547" x="76.66" y="510.5391">rising &#183; 40w</text></g><g id="n_bowl_ok"><rect fill="#D1C4E9" height="50.4688" rx="4" ry="4" style="stroke:#181818;stroke-width:0.5;" width="85.2148" x="449.66" y="468"/><line style="stroke:#181818;stroke-width:0.5;" x1="449.66" x2="534.8748" y1="494.4063" y2="494.4063"/><text fill="#000000" font-family="Roboto" font-size="14" lengthAdjust="spacing" textLength="65.2148" x="459.66" y="485.9883">n_bowl_ok</text><text fill="#000000" font-family="Roboto" font-size="12" lengthAdjust="spacing" textLength="61.0547" x="454.66" y="510.5391">rising &#183; 36w</text></g><g id="n_flour"><rect fill="#FFF9C4" height="50.4688" rx="4" ry="4" style="stroke:#181818;stroke-width:0.5;" width="86.8906" x="448.66" y="595"/><line style="stroke:#181818;stroke-width:0.5;" x1="448.66" x2="535.5506" y1="621.4063" y2="621.4063"/><text fill="#000000" font-family="Roboto" font-size="14" lengthAdjust="spacing" textLength="42.7656" x="470.7225" y="612.9883">n_flour</text><text fill="#000000" font-family="Roboto" font-size="12" lengthAdjust="spacing" textLength="66.8906" x="453.66" y="637.5391">choice &#183; 42w</text></g><g id="n_flour_oops"><rect fill="#D1C4E9" height="50.4688" rx="4" ry="4" style="stroke:#181818;stroke-width:0.5;" width="100.1377" x="347.16" y="722"/><line style="stroke:#181818;stroke-width:0.5;" x1="347.16" x2="447.2977" y1="748.4063" y2="748.4063"/><text fill="#000000" font-family="Roboto" font-size="14" lengthAdjust="spacing" textLength="80.1377" x="357.16" y="739.9883">n_flour_oops</text><text fill="#000000" font-family="Roboto" font-size="12" lengthAdjust="spacing" textLength="61.0547" x="352.16" y="764.5391">rising &#183; 40w</text></g><g id="n_flour_ok"><rect fill="#D1C4E9" height="50.4688" rx="4" ry="4" style="stroke:#181818;stroke-width:0.5;" width="84.1621" x="690.16" y="722"/><line style="stroke:#181818;stroke-width:0.5;" x1="690.16" x2="774.3221" y1="748.4063" y2="748.4063"/><text fill="#000000" font-family="Roboto" font-size="14" lengthAdjust="spacing" textLength="64.1621" x="700.16" y="739.9883">n_flour_ok</text><text fill="#000000" font-family="Roboto" font-size="12" lengthAdjust="spacing" textLength="61.0547" x="695.16" y="764.5391">rising &#183; 36w</text></g><g id="n_seeds"><rect fill="#FFF9C4" height="50.4688" rx="4" ry="4" style="stroke:#181818;stroke-width:0.5;" width="86.8906" x="688.66" y="849"/><line style="stroke:#181818;stroke-width:0.5;" x1="688.66" x2="775.5506" y1="875.4063" y2="875.4063"/><text fill="#000000" font-family="Roboto" font-size="14" lengthAdjust="spacing" textLength="51.2422" x="706.4842" y="866.9883">n_seeds</text><text fill="#000000" font-family="Roboto" font-size="12" lengthAdjust="spacing" textLength="66.8906" x="693.66" y="891.5391">choice &#183; 44w</text></g><g id="n_acorn_chase"><rect fill="#D1C4E9" height="50.4688" rx="4" ry="4" style="stroke:#181818;stroke-width:0.5;" width="113.0713" x="507.66" y="976"/><line style="stroke:#181818;stroke-width:0.5;" x1="507.66" x2="620.7313" y1="1002.4063" y2="1002.4063"/><text fill="#000000" font-family="Roboto" font-size="14" lengthAdjust="spacing" textLength="93.0713" x="517.66" y="993.9883">n_acorn_chase</text><text fill="#000000" font-family="Roboto" font-size="12" lengthAdjust="spacing" textLength="61.0547" x="512.66" y="1018.5391">rising &#183; 40w</text></g><g id="n_acorn_back"><rect fill="#D1C4E9" height="50.4688" rx="4" ry="4" style="stroke:#181818;stroke-width:0.5;" width="105.668" x="609.16" y="1103"/><line style="stroke:#181818;stroke-width:0.5;" x1="609.16" x2="714.828" y1="1129.4063" y2="1129.4063"/><text fill="#000000" font-family="Roboto" font-size="14" lengthAdjust="spacing" textLength="85.668" x="619.16" y="1120.9883">n_acorn_back</text><text fill="#000000" font-family="Roboto" font-size="12" lengthAdjust="spacing" textLength="61.0547" x="614.16" y="1145.5391">rising &#183; 38w</text></g><g id="n_seeds_ok"><rect fill="#D1C4E9" height="50.4688" rx="4" ry="4" style="stroke:#181818;stroke-width:0.5;" width="92.6387" x="934.66" y="976"/><line style="stroke:#181818;stroke-width:0.5;" x1="934.66" x2="1027.2987" y1="1002.4063" y2="1002.4063"/><text fill="#000000" font-family="Roboto" font-size="14" lengthAdjust="spacing" textLength="72.6387" x="944.66" y="993.9883">n_seeds_ok</text><text fill="#000000" font-family="Roboto" font-size="12" lengthAdjust="spacing" textLength="61.0547" x="939.66" y="1018.5391">rising &#183; 36w</text></g><g id="n_honey"><rect fill="#D1C4E9" height="50.4688" rx="4" ry="4" style="stroke:#181818;stroke-width:0.5;" width="81.0547" x="940.66" y="1103"/><line style="stroke:#181818;stroke-width:0.5;" x1="940.66" x2="1021.7147" y1="1129.4063" y2="1129.4063"/><text fill="#000000" font-family="Roboto" font-size="14" lengthAdjust="spacing" textLength="51.5225" x="955.4261" y="1120.9883">n_honey</text><text fill="#000000" font-family="Roboto" font-size="12" lengthAdjust="spacing" textLength="61.0547" x="945.66" y="1145.5391">rising &#183; 38w</text></g><g id="n_mix"><rect fill="#D1C4E9" height="50.4688" rx="4" ry="4" style="stroke:#181818;stroke-width:0.5;" width="81.0547" x="940.66" y="1230"/><line style="stroke:#181818;stroke-width:0.5;" x1="940.66" x2="1021.7147" y1="1256.4063" y2="1256.4063"/><text fill="#000000" font-family="Roboto" font-size="14" lengthAdjust="spacing" textLength="36.6748" x="962.8499" y="1247.9883">n_mix</text><text fill="#000000" font-family="Roboto" font-size="12" lengthAdjust="spacing" textLength="61.0547" x="945.66" y="1272.5391">rising &#183; 38w</text></g><g id="n_rest"><rect fill="#D1C4E9" height="50.4688" rx="4" ry="4" style="stroke:#181818;stroke-width:0.5;" width="81.0547" x="940.66" y="1357"/><line style="stroke:#181818;stroke-width:0.5;" x1="940.66" x2="1021.7147" y1="1383.4063" y2="1383.4063"/><text fill="#000000" font-family="Roboto" font-size="14" lengthAdjust="spacing" textLength="38.0215" x="962.1766" y="1374.9883">n_rest</text><text fill="#000000" font-family="Roboto" font-size="12" lengthAdjust="spacing" textLength="61.0547" x="945.66" y="1399.5391">rising &#183; 40w</text></g><g id="n_shape"><rect fill="#FFF9C4" height="50.4688" rx="4" ry="4" style="stroke:#181818;stroke-width:0.5;" width="86.8906" x="937.66" y="1484"/><line style="stroke:#181818;stroke-width:0.5;" x1="937.66" x2="1024.5506" y1="1510.4063" y2="1510.4063"/><text fill="#000000" font-family="Roboto" font-size="14" lengthAdjust="spacing" textLength="51.8848" x="955.1629" y="1501.9883">n_shape</text><text fill="#000000" font-family="Roboto" font-size="12" lengthAdjust="spacing" textLength="66.8906" x="942.66" y="1526.5391">choice &#183; 42w</text></g><g id="n_tray_neat"><rect fill="#D1C4E9" height="50.4688" rx="4" ry="4" style="stroke:#181818;stroke-width:0.5;" width="91.2783" x="795.66" y="1611"/><line style="stroke:#181818;stroke-width:0.5;" x1="795.66" x2="886.9383" y1="1637.4063" y2="1637.4063"/><text fill="#000000" font-family="Roboto" font-size="14" lengthAdjust="spacing" textLength="71.2783" x="805.66" y="1628.9883">n_tray_neat</text><text fill="#000000" font-family="Roboto" font-size="12" lengthAdjust="spacing" textLength="61.0547" x="800.66" y="1653.5391">rising &#183; 38w</text></g><g id="n_tray_funny"><rect fill="#D1C4E9" height="50.4688" rx="4" ry="4" style="stroke:#181818;stroke-width:0.5;" width="98.5996" x="1118.66" y="1611"/><line style="stroke:#181818;stroke-width:0.5;" x1="1118.66" x2="1217.2596" y1="1637.4063" y2="1637.4063"/><text fill="#000000" font-family="Roboto" font-size="14" lengthAdjust="spacing" textLength="78.5996" x="1128.66" y="1628.9883">n_tray_funny</text><text fill="#000000" font-family="Roboto" font-size="12" lengthAdjust="spacing" textLength="61.0547" x="1123.66" y="1653.5391">rising &#183; 38w</text></g><g id="n_oven"><rect fill="#FFF9C4" height="50.4688" rx="4" ry="4" style="stroke:#181818;stroke-width:0.5;" width="86.8906" x="698.66" y="1738"/><line style="stroke:#181818;stroke-width:0.5;" x1="698.66" x2="785.5506" y1="1764.4063" y2="1764.4063"/><text fill="#000000" font-family="Roboto" font-size="14" lengthAdjust="spacing" textLength="43.9688" x="720.1209" y="1755.9883">n_oven</text><text fill="#000000" font-family="Roboto" font-size="12" lengthAdjust="spacing" textLength="66.8906" x="703.66" y="1780.5391">choice &#183; 40w</text></g><g id="n_peek_oops"><rect fill="#D1C4E9" height="50.4688" rx="4" ry="4" style="stroke:#181818;stroke-width:0.5;" width="101.2246" x="585.66" y="1865"/><line style="stroke:#181818;stroke-width:0.5;" x1="585.66" x2="686.8846" y1="1891.4063" y2="1891.4063"/><text fill="#000000" font-family="Roboto" font-size="14" lengthAdjust="spacing" textLength="81.2246" x="595.66" y="1882.9883">n_peek_oops</text><text fill="#000000" font-family="Roboto" font-size="12" lengthAdjust="spacing" textLength="61.0547" x="590.66" y="1907.5391">rising &#183; 38w</text></g><g id="n_golden"><rect fill="#FFF9C4" height="50.4688" rx="4" ry="4" style="stroke:#181818;stroke-width:0.5;" width="86.8906" x="841.66" y="1865"/><line style="stroke:#181818;stroke-width:0.5;" x1="841.66" x2="928.5506" y1="1891.4063" y2="1891.4063"/><text fill="#000000" font-family="Roboto" font-size="14" lengthAdjust="spacing" textLength="56.3486" x="856.931" y="1882.9883">n_golden</text><text fill="#000000" font-family="Roboto" font-size="12" lengthAdjust="spacing" textLength="66.8906" x="846.66" y="1907.5391">choice &#183; 42w</text></g><g id="n_oven_funny"><rect fill="#FFF9C4" height="50.4688" rx="4" ry="4" style="stroke:#181818;stroke-width:0.5;" width="104.957" x="1196.66" y="1738"/><line style="stroke:#181818;stroke-width:0.5;" x1="1196.66" x2="1301.617" y1="1764.4063" y2="1764.4063"/><text fill="#000000" font-family="Roboto" font-size="14" lengthAdjust="spacing" textLength="84.957" x="1206.66" y="1755.9883">n_oven_funny</text><text fill="#000000" font-family="Roboto" font-size="12" lengthAdjust="spacing" textLength="66.8906" x="1201.66" y="1780.5391">choice &#183; 40w</text></g><g id="n_funny_peek"><rect fill="#D1C4E9" height="50.4688" rx="4" ry="4" style="stroke:#181818;stroke-width:0.5;" width="104.8408" x="1196.66" y="1865"/><line style="stroke:#181818;stroke-width:0.5;" x1="1196.66" x2="1301.5008" y1="1891.4063" y2="1891.4063"/><text fill="#000000" font-family="Roboto" font-size="14" lengthAdjust="spacing" textLength="84.8408" x="1206.66" y="1882.9883">n_funny_peek</text><text fill="#000000" font-family="Roboto" font-size="12" lengthAdjust="spacing" textLength="61.0547" x="1201.66" y="1907.5391">rising &#183; 38w</text></g><g id="n_funny_out"><rect fill="#FFF9C4" height="50.4688" rx="4" ry="4" style="stroke:#181818;stroke-width:0.5;" width="95.3184" x="1533.66" y="1865"/><line style="stroke:#181818;stroke-width:0.5;" x1="1533.66" x2="1628.9784" y1="1891.4063" y2="1891.4063"/><text fill="#000000" font-family="Roboto" font-size="14" lengthAdjust="spacing" textLength="75.3184" x="1543.66" y="1882.9883">n_funny_out</text><text fill="#000000" font-family="Roboto" font-size="12" lengthAdjust="spacing" textLength="66.8906" x="1538.66" y="1907.5391">choice &#183; 42w</text></g><g id="e_teatime"><rect fill="#C8E6C9" height="64.5313" rx="4" ry="4" style="stroke:#181818;stroke-width:0.5;" width="132.957" x="643.66" y="1992"/><line style="stroke:#181818;stroke-width:0.5;" x1="643.66" x2="776.617" y1="2018.4063" y2="2018.4063"/><text fill="#000000" font-family="Roboto" font-size="14" lengthAdjust="spacing" textLength="61.0449" x="679.6161" y="2009.9883">e_teatime</text><text fill="#000000" font-family="Roboto" font-size="12" lengthAdjust="spacing" textLength="112.957" x="648.66" y="2034.5391">completion (positive)</text><text fill="#000000" font-family="Roboto" font-size="12" lengthAdjust="spacing" textLength="68.0332" x="648.66" y="2048.6016">"{A_PRIZE1}"</text></g><g id="e_neighbors"><rect fill="#C8E6C9" height="64.5313" rx="4" ry="4" style="stroke:#181818;stroke-width:0.5;" width="117.0957" x="863.66" y="1992"/><line style="stroke:#181818;stroke-width:0.5;" x1="863.66" x2="980.7557" y1="2018.4063" y2="2018.4063"/><text fill="#000000" font-family="Roboto" font-size="14" lengthAdjust="spacing" textLength="75.6875" x="884.3641" y="2009.9883">e_neighbors</text><text fill="#000000" font-family="Roboto" font-size="12" lengthAdjust="spacing" textLength="97.0957" x="868.66" y="2034.5391">success (positive)</text><text fill="#000000" font-family="Roboto" font-size="12" lengthAdjust="spacing" textLength="68.0332" x="868.66" y="2048.6016">"{A_PRIZE2}"</text></g><g id="e_perfect"><rect fill="#C8E6C9" height="64.5313" rx="4" ry="4" style="stroke:#181818;stroke-width:0.5;" width="117.0957" x="1087.66" y="1992"/><line style="stroke:#181818;stroke-width:0.5;" x1="1087.66" x2="1204.7557" y1="2018.4063" y2="2018.4063"/><text fill="#000000" font-family="Roboto" font-size="14" lengthAdjust="spacing" textLength="57.9688" x="1117.2235" y="2009.9883">e_perfect</text><text fill="#000000" font-family="Roboto" font-size="12" lengthAdjust="spacing" textLength="97.0957" x="1092.66" y="2034.5391">success (positive)</text><text fill="#000000" font-family="Roboto" font-size="12" lengthAdjust="spacing" textLength="68.0332" x="1092.66" y="2048.6016">"{A_PRIZE3}"</text></g><g id="e_funny"><rect fill="#C8E6C9" height="64.5313" rx="4" ry="4" style="stroke:#181818;stroke-width:0.5;" width="132.957" x="1283.66" y="1992"/><line style="stroke:#181818;stroke-width:0.5;" x1="1283.66" x2="1416.617" y1="2018.4063" y2="2018.4063"/><text fill="#000000" font-family="Roboto" font-size="14" lengthAdjust="spacing" textLength="48.4121" x="1325.9325" y="2009.9883">e_funny</text><text fill="#000000" font-family="Roboto" font-size="12" lengthAdjust="spacing" textLength="112.957" x="1288.66" y="2034.5391">completion (positive)</text><text fill="#000000" font-family="Roboto" font-size="12" lengthAdjust="spacing" textLength="67.6816" x="1288.66" y="2048.6016">"{B_PRIZE1}"</text></g><g id="e_recipe"><rect fill="#C8E6C9" height="64.5313" rx="4" ry="4" style="stroke:#181818;stroke-width:0.5;" width="123.8984" x="1500.16" y="1992"/><line style="stroke:#181818;stroke-width:0.5;" x1="1500.16" x2="1624.0584" y1="2018.4063" y2="2018.4063"/><text fill="#000000" font-family="Roboto" font-size="14" lengthAdjust="spacing" textLength="51.9258" x="1536.1463" y="2009.9883">e_recipe</text><text fill="#000000" font-family="Roboto" font-size="12" lengthAdjust="spacing" textLength="103.8984" x="1505.16" y="2034.5391">discovery (positive)</text><text fill="#000000" font-family="Roboto" font-size="12" lengthAdjust="spacing" textLength="67.6816" x="1505.16" y="2048.6016">"{B_PRIZE2}"</text></g><g id="e_silly"><rect fill="#C8E6C9" height="64.5313" rx="4" ry="4" style="stroke:#181818;stroke-width:0.5;" width="117.0957" x="1745.66" y="1992"/><line style="stroke:#181818;stroke-width:0.5;" x1="1745.66" x2="1862.7557" y1="2018.4063" y2="2018.4063"/><text fill="#000000" font-family="Roboto" font-size="14" lengthAdjust="spacing" textLength="37.8027" x="1785.3065" y="2009.9883">e_silly</text><text fill="#000000" font-family="Roboto" font-size="12" lengthAdjust="spacing" textLength="97.0957" x="1750.66" y="2034.5391">success (positive)</text><text fill="#000000" font-family="Roboto" font-size="12" lengthAdjust="spacing" textLength="67.6816" x="1750.66" y="2048.6016">"{B_PRIZE3}"</text></g><ellipse cx="1248.16" cy="2129" fill="none" rx="11" ry="11" style="stroke:#222222;stroke-width:1.0;"/><ellipse cx="1248.16" cy="2129" fill="#222222" rx="6" ry="6" style="stroke:#222222;stroke-width:1.0;"/><!--link *start* to n_start--><g id="link_*start*_n_start"><path d="M213.16,26.01 C213.16,39.89 213.16,60.97 213.16,80.84 " fill="none" id="*start*-to-n_start" style="stroke:#181818;stroke-width:1.0;"/><polygon fill="#181818" points="213.16,86.84,217.16,77.84,213.16,81.84,209.16,77.84,213.16,86.84" style="stroke:#181818;stroke-width:1.0;"/></g><!--link n_start to n_kitchen--><g id="link_n_start_n_kitchen"><path d="M213.16,137.1 C213.16,159.24 213.16,185.86 213.16,207.97 " fill="none" id="n_start-to-n_kitchen" style="stroke:#181818;stroke-width:1.0;"/><polygon fill="#181818" points="213.16,213.97,217.16,204.97,213.16,208.97,209.16,204.97,213.16,213.97" style="stroke:#181818;stroke-width:1.0;"/><text fill="#000000" font-family="Roboto" font-size="13" lengthAdjust="spacing" textLength="180.394" x="214.16" y="180.0605">Scamper to the burrow kitchen.</text></g><!--link n_kitchen to n_bowls--><g id="link_n_kitchen_n_bowls"><path d="M213.16,264.1 C213.16,286.24 213.16,312.86 213.16,334.97 " fill="none" id="n_kitchen-to-n_bowls" style="stroke:#181818;stroke-width:1.0;"/><polygon fill="#181818" points="213.16,340.97,217.16,331.97,213.16,335.97,209.16,331.97,213.16,340.97" style="stroke:#181818;stroke-width:1.0;"/><text fill="#000000" font-family="Roboto" font-size="13" lengthAdjust="spacing" textLength="154.0449" x="214.16" y="307.0605">Go get the big brown bowl.</text></g><!--link n_bowls to n_bowl_ok--><g id="link_n_bowls_n_bowl_ok"><path d="M256.79,369.66 C303.57,374.25 378.48,386.79 433.16,421 C451.77,432.65 464.0208,447.1751 474.4908,462.8051 " fill="none" id="n_bowls-to-n_bowl_ok" style="stroke:#181818;stroke-width:1.0;"/><polygon fill="#181818" points="477.83,467.79,476.1444,458.0865,475.0473,463.6359,469.4979,462.5388,477.83,467.79" style="stroke:#181818;stroke-width:1.0;"/><text fill="#000000" font-family="Roboto" font-size="13" lengthAdjust="spacing" textLength="201.8301" x="454.16" y="434.0605">Lift the top bowls off one at a time.</text></g><!--link n_bowls to n_bowl_oops--><g id="link_n_bowls_n_bowl_oops"><path d="M201.82,391.3 C194.73,405.47 184.91,423.39 174.16,438 C166.44,448.48 161.0435,454.7583 152.1835,463.6983 " fill="none" id="n_bowls-to-n_bowl_oops" style="stroke:#181818;stroke-width:1.0;"/><polygon fill="#181818" points="147.96,467.96,157.1364,464.3832,151.4796,464.4086,151.4542,458.7518,147.96,467.96" style="stroke:#181818;stroke-width:1.0;"/><text fill="#000000" font-family="Roboto" font-size="13" lengthAdjust="spacing" textLength="237.7959" x="187.16" y="434.0605">Slide {STEP1_ITEM} out from the bottom.</text></g><!--link n_bowl_oops to n_bowls--><g id="link_n_bowl_oops_n_bowls"><path d="M71.5,476.86 C38.99,464.46 6,445.07 24.16,421 C41.63,397.84 113.3201,382.607 163.4901,374.327 " fill="none" id="n_bowl_oops-to-n_bowls" style="stroke:#181818;stroke-width:1.0;"/><polygon fill="#181818" points="169.41,373.35,159.8788,370.8689,164.4767,374.1642,161.1815,378.7621,169.41,373.35" style="stroke:#181818;stroke-width:1.0;"/><text fill="#000000" font-family="Roboto" font-size="13" lengthAdjust="spacing" textLength="140.8164" x="25.16" y="434.0605">Try the bowl shelf again.</text></g><!--link n_bowl_ok to n_flour--><g id="link_n_bowl_ok_n_flour"><path d="M492.16,518.1 C492.16,540.24 492.16,566.86 492.16,588.97 " fill="none" id="n_bowl_ok-to-n_flour" style="stroke:#181818;stroke-width:1.0;"/><polygon fill="#181818" points="492.16,594.97,496.16,585.97,492.16,589.97,488.16,585.97,492.16,594.97" style="stroke:#181818;stroke-width:1.0;"/><text fill="#000000" font-family="Roboto" font-size="13" lengthAdjust="spacing" textLength="122.3892" x="493.16" y="561.0605">Fetch the flour crock.</text></g><!--link n_flour to n_flour_ok--><g id="link_n_flour_n_flour_ok"><path d="M535.77,626.7 C574.45,633.37 631.16,647.26 673.16,675 C691.35,687.01 703.475,701.346 714.025,716.786 " fill="none" id="n_flour-to-n_flour_ok" style="stroke:#181818;stroke-width:1.0;"/><polygon fill="#181818" points="717.41,721.74,715.6351,712.0524,714.5892,717.6117,709.0299,716.5657,717.41,721.74" style="stroke:#181818;stroke-width:1.0;"/><text fill="#000000" font-family="Roboto" font-size="13" lengthAdjust="spacing" textLength="205.2896" x="694.16" y="688.0605">Scoop small scoops, nice and slow.</text></g><!--link n_flour to n_flour_oops--><g id="link_n_flour_n_flour_oops"><path d="M481.19,645.11 C474.15,659.4 464.26,677.48 453.16,692 C445.03,702.62 439.2036,709.0031 429.7236,717.8631 " fill="none" id="n_flour-to-n_flour_oops" style="stroke:#181818;stroke-width:1.0;"/><polygon fill="#181818" points="425.34,721.96,434.6466,718.7371,428.993,718.5459,429.1841,712.8923,425.34,721.96" style="stroke:#181818;stroke-width:1.0;"/><text fill="#000000" font-family="Roboto" font-size="13" lengthAdjust="spacing" textLength="198.853" x="466.16" y="688.0605">Tip {STEP2_ITEM} over all at once.</text></g><!--link n_flour_oops to n_flour--><g id="link_n_flour_oops_n_flour"><path d="M346.97,732.06 C312.41,719.89 275.92,700.22 295.16,675 C313.65,650.75 390.2879,635.61 442.4879,627.69 " fill="none" id="n_flour_oops-to-n_flour" style="stroke:#181818;stroke-width:1.0;"/><polygon fill="#181818" points="448.42,626.79,438.9218,624.1853,443.4766,627.54,440.1219,632.0948,448.42,626.79" style="stroke:#181818;stroke-width:1.0;"/><text fill="#000000" font-family="Roboto" font-size="13" lengthAdjust="spacing" textLength="148.4463" x="296.16" y="688.0605">Dust off and scoop again.</text></g><!--link n_flour_ok to n_seeds--><g id="link_n_flour_ok_n_seeds"><path d="M732.16,772.1 C732.16,794.24 732.16,820.86 732.16,842.97 " fill="none" id="n_flour_ok-to-n_seeds" style="stroke:#181818;stroke-width:1.0;"/><polygon fill="#181818" points="732.16,848.97,736.16,839.97,732.16,843.97,728.16,839.97,732.16,848.97" style="stroke:#181818;stroke-width:1.0;"/><text fill="#000000" font-family="Roboto" font-size="13" lengthAdjust="spacing" textLength="104.1396" x="733.16" y="815.0605">Open the seed jar.</text></g><!--link n_seeds to n_seeds_ok--><g id="link_n_seeds_n_seeds_ok"><path d="M775.81,896.92 C820.31,919.25 883.7077,951.0782 929.2277,973.9282 " fill="none" id="n_seeds-to-n_seeds_ok" style="stroke:#181818;stroke-width:1.0;"/><polygon fill="#181818" points="934.59,976.62,928.341,969.0075,930.1214,974.3769,924.752,976.1572,934.59,976.62" style="stroke:#181818;stroke-width:1.0;"/><text fill="#000000" font-family="Roboto" font-size="13" lengthAdjust="spacing" textLength="196.6313" x="873.16" y="942.0605">Pour the seeds in a gentle stream.</text></g><!--link n_seeds to n_acorn_chase--><g id="link_n_seeds_n_acorn_chase"><path d="M688.52,879.85 C632.65,887.07 540.61,902.69 520.16,929 C508.68,943.77 515.7185,957.4163 529.7185,971.5563 " fill="none" id="n_seeds-to-n_acorn_chase" style="stroke:#181818;stroke-width:1.0;"/><polygon fill="#181818" points="533.94,975.82,530.4502,966.6101,530.4221,972.2669,524.7653,972.2388,533.94,975.82" style="stroke:#181818;stroke-width:1.0;"/><text fill="#000000" font-family="Roboto" font-size="13" lengthAdjust="spacing" textLength="184.1011" x="521.16" y="942.0605">Shake the jar hard upside down.</text></g><!--link n_acorn_chase to n_acorn_back--><g id="link_n_acorn_chase_n_acorn_back"><path d="M580.17,1026.16 C589.67,1040.13 602.17,1057.88 614.16,1073 C622.1,1083.03 627.3227,1089.1834 635.5527,1098.3134 " fill="none" id="n_acorn_chase-to-n_acorn_back" style="stroke:#181818;stroke-width:1.0;"/><polygon fill="#181818" points="639.57,1102.77,636.5151,1093.4069,636.2223,1099.0562,630.573,1098.7633,639.57,1102.77" style="stroke:#181818;stroke-width:1.0;"/><text fill="#000000" font-family="Roboto" font-size="13" lengthAdjust="spacing" textLength="90.6445" x="615.16" y="1069.0605">Catch {TOKEN}!</text></g><!--link n_acorn_back to n_seeds--><g id="link_n_acorn_back_n_seeds"><path d="M689.23,1102.98 C697.29,1094.35 705.26,1084 710.16,1073 C736.1,1014.7 736.3972,943.5816 734.3572,905.0516 " fill="none" id="n_acorn_back-to-n_seeds" style="stroke:#181818;stroke-width:1.0;"/><polygon fill="#181818" points="734.04,899.06,730.5214,908.2589,734.3044,904.053,738.5103,907.8359,734.04,899.06" style="stroke:#181818;stroke-width:1.0;"/><text fill="#000000" font-family="Roboto" font-size="13" lengthAdjust="spacing" textLength="165.6357" x="734.16" y="1005.5605">Pour the seeds again, gently.</text></g><!--link n_seeds_ok to n_honey--><g id="link_n_seeds_ok_n_honey"><path d="M981.16,1026.1 C981.16,1048.24 981.16,1074.86 981.16,1096.97 " fill="none" id="n_seeds_ok-to-n_honey" style="stroke:#181818;stroke-width:1.0;"/><polygon fill="#181818" points="981.16,1102.97,985.16,1093.97,981.16,1097.97,977.16,1093.97,981.16,1102.97" style="stroke:#181818;stroke-width:1.0;"/><text fill="#000000" font-family="Roboto" font-size="13" lengthAdjust="spacing" textLength="88.2832" x="982.16" y="1069.0605">Bring {HONEY}.</text></g><!--link n_honey to n_mix--><g id="link_n_honey_n_mix"><path d="M981.16,1153.1 C981.16,1175.24 981.16,1201.86 981.16,1223.97 " fill="none" id="n_honey-to-n_mix" style="stroke:#181818;stroke-width:1.0;"/><polygon fill="#181818" points="981.16,1229.97,985.16,1220.97,981.16,1224.97,977.16,1220.97,981.16,1229.97" style="stroke:#181818;stroke-width:1.0;"/><text fill="#000000" font-family="Roboto" font-size="13" lengthAdjust="spacing" textLength="102.0195" x="982.16" y="1196.0605">Stir it all together.</text></g><!--link n_mix to n_rest--><g id="link_n_mix_n_rest"><path d="M981.16,1280.1 C981.16,1302.24 981.16,1328.86 981.16,1350.97 " fill="none" id="n_mix-to-n_rest" style="stroke:#181818;stroke-width:1.0;"/><polygon fill="#181818" points="981.16,1356.97,985.16,1347.97,981.16,1351.97,977.16,1347.97,981.16,1356.97" style="stroke:#181818;stroke-width:1.0;"/><text fill="#000000" font-family="Roboto" font-size="13" lengthAdjust="spacing" textLength="176.5283" x="982.16" y="1323.0605">Let the dough have a little nap.</text></g><!--link n_rest to n_shape--><g id="link_n_rest_n_shape"><path d="M981.16,1407.1 C981.16,1429.24 981.16,1455.86 981.16,1477.97 " fill="none" id="n_rest-to-n_shape" style="stroke:#181818;stroke-width:1.0;"/><polygon fill="#181818" points="981.16,1483.97,985.16,1474.97,981.16,1478.97,977.16,1474.97,981.16,1483.97" style="stroke:#181818;stroke-width:1.0;"/><text fill="#000000" font-family="Roboto" font-size="13" lengthAdjust="spacing" textLength="198.7197" x="982.16" y="1450.0605">Shape the {GOAL} with {MENTOR}.</text></g><!--link n_shape to n_tray_neat--><g id="link_n_shape_n_tray_neat"><path d="M937.5,1517.28 C909.14,1524.35 873.74,1538 853.16,1564 C842.76,1577.14 840.0842,1589.9713 839.7742,1604.9413 " fill="none" id="n_shape-to-n_tray_neat" style="stroke:#181818;stroke-width:1.0;"/><polygon fill="#181818" points="839.65,1610.94,843.8355,1602.0247,839.7535,1605.9411,835.8372,1601.8591,839.65,1610.94" style="stroke:#181818;stroke-width:1.0;"/><text fill="#000000" font-family="Roboto" font-size="13" lengthAdjust="spacing" textLength="218.8545" x="854.16" y="1577.0605">Roll neat round buns like {MENTOR}'s.</text></g><!--link n_shape to n_tray_funny--><g id="link_n_shape_n_tray_funny"><path d="M1024.99,1532.85 C1041.66,1542 1060.6,1552.98 1077.16,1564 C1098.84,1578.44 1117.3241,1592.7232 1134.8341,1607.0332 " fill="none" id="n_shape-to-n_tray_funny" style="stroke:#181818;stroke-width:1.0;"/><polygon fill="#181818" points="1139.48,1610.83,1135.0424,1602.0375,1135.6084,1607.666,1129.98,1608.232,1139.48,1610.83" style="stroke:#181818;stroke-width:1.0;"/><text fill="#000000" font-family="Roboto" font-size="13" lengthAdjust="spacing" textLength="233.6128" x="1102.16" y="1577.0605">Squish fun shapes, {ROUTE_B_SHAPES}.</text></g><!--link n_tray_neat to n_oven--><g id="link_n_tray_neat_n_oven"><path d="M822.07,1661.1 C804.54,1683.24 782.425,1711.1564 764.915,1733.2664 " fill="none" id="n_tray_neat-to-n_oven" style="stroke:#181818;stroke-width:1.0;"/><polygon fill="#181818" points="761.19,1737.97,769.9133,1733.3979,764.2942,1734.0503,763.6418,1728.4312,761.19,1737.97" style="stroke:#181818;stroke-width:1.0;"/><text fill="#000000" font-family="Roboto" font-size="13" lengthAdjust="spacing" textLength="155.1177" x="799.16" y="1704.0605">Watch and wait by {OVEN}.</text></g><!--link n_tray_funny to n_oven_funny--><g id="link_n_tray_funny_n_oven_funny"><path d="M1183.77,1661.1 C1198.12,1683.24 1215.9967,1710.825 1230.3267,1732.935 " fill="none" id="n_tray_funny-to-n_oven_funny" style="stroke:#181818;stroke-width:1.0;"/><polygon fill="#181818" points="1233.59,1737.97,1232.0517,1728.242,1230.8706,1733.7742,1225.3384,1732.5931,1233.59,1737.97" style="stroke:#181818;stroke-width:1.0;"/><text fill="#000000" font-family="Roboto" font-size="13" lengthAdjust="spacing" textLength="155.1177" x="1214.16" y="1704.0605">Watch and wait by {OVEN}.</text></g><!--link n_oven to n_golden--><g id="link_n_oven_n_golden"><path d="M785.88,1777.93 C807.67,1786.64 833.14,1799.74 851.16,1818 C864.02,1831.04 870.701,1844.2335 876.091,1859.2335 " fill="none" id="n_oven-to-n_golden" style="stroke:#181818;stroke-width:1.0;"/><polygon fill="#181818" points="878.12,1864.88,878.8409,1855.0576,876.4292,1860.1746,871.3122,1857.7629,878.12,1864.88" style="stroke:#181818;stroke-width:1.0;"/><text fill="#000000" font-family="Roboto" font-size="13" lengthAdjust="spacing" textLength="90.5239" x="865.16" y="1831.0605">Wait for {BELL}.</text></g><!--link n_oven to n_peek_oops--><g id="link_n_oven_n_peek_oops"><path d="M698.39,1768.7 C641.8,1775.79 547.99,1791.29 527.16,1818 C506.19,1844.89 542.1528,1862.9714 579.8728,1874.7514 " fill="none" id="n_oven-to-n_peek_oops" style="stroke:#181818;stroke-width:1.0;"/><polygon fill="#181818" points="585.6,1876.54,578.2016,1870.0389,580.8273,1875.0495,575.8168,1877.6752,585.6,1876.54" style="stroke:#181818;stroke-width:1.0;"/><text fill="#000000" font-family="Roboto" font-size="13" lengthAdjust="spacing" textLength="169.7935" x="528.16" y="1831.0605">Open the door for a tiny peek.</text></g><!--link n_peek_oops to n_oven--><g id="link_n_peek_oops_n_oven"><path d="M670.56,1864.83 C681.44,1856.19 693.01,1845.88 702.16,1835 C714.08,1820.81 721.6296,1807.9329 728.7396,1793.4929 " fill="none" id="n_peek_oops-to-n_oven" style="stroke:#181818;stroke-width:1.0;"/><polygon fill="#181818" points="731.39,1788.11,723.8258,1794.4173,729.1813,1792.5957,731.0029,1797.9512,731.39,1788.11" style="stroke:#181818;stroke-width:1.0;"/><text fill="#000000" font-family="Roboto" font-size="13" lengthAdjust="spacing" textLength="127.0356" x="715.16" y="1831.0605">Wait by {OVEN} again.</text></g><!--link n_golden to e_teatime--><g id="link_n_golden_e_teatime"><path d="M841.39,1897.43 C773.21,1907.88 648.07,1929 635.16,1945 C622.14,1961.13 629.4032,1974.2301 647.3432,1988.1001 " fill="none" id="n_golden-to-e_teatime" style="stroke:#181818;stroke-width:1.0;"/><polygon fill="#181818" points="652.09,1991.77,647.4164,1983.1006,648.1344,1988.7118,642.5232,1989.4297,652.09,1991.77" style="stroke:#181818;stroke-width:1.0;"/><text fill="#000000" font-family="Roboto" font-size="13" lengthAdjust="spacing" textLength="222.7393" x="636.16" y="1958.0605">Have a {DRINK} picnic with {MENTOR}.</text></g><!--link n_golden to e_neighbors--><g id="link_n_golden_e_neighbors"><path d="M872.93,1915.13 C867.53,1929.09 863.53,1946.84 869.16,1962 C873.18,1972.83 876.1964,1978.4579 883.6864,1987.3179 " fill="none" id="n_golden-to-e_neighbors" style="stroke:#181818;stroke-width:1.0;"/><polygon fill="#181818" points="887.56,1991.9,884.8044,1982.4445,884.332,1988.0816,878.6949,1987.6093,887.56,1991.9" style="stroke:#181818;stroke-width:1.0;"/><text fill="#000000" font-family="Roboto" font-size="13" lengthAdjust="spacing" textLength="210.082" x="870.16" y="1958.0605">Take warm {GOAL} to the neighbors.</text></g><!--link n_golden to e_perfect--><g id="link_n_golden_e_perfect"><path d="M929.03,1894.74 C971.92,1900.17 1037.54,1913.33 1085.16,1945 C1102.98,1956.85 1114.5698,1970.616 1125.1598,1986.836 " fill="none" id="n_golden-to-e_perfect" style="stroke:#181818;stroke-width:1.0;"/><polygon fill="#181818" points="1128.44,1991.86,1126.8691,1982.1372,1125.7065,1987.6733,1120.1704,1986.5108,1128.44,1991.86" style="stroke:#181818;stroke-width:1.0;"/><text fill="#000000" font-family="Roboto" font-size="13" lengthAdjust="spacing" textLength="206.0894" x="1105.16" y="1958.0605">Line up the batch on the windowsill.</text></g><!--link n_oven_funny to n_funny_out--><g id="link_n_oven_funny_n_funny_out"><path d="M1301.99,1773.94 C1344.34,1782.82 1404.78,1797.6 1455.16,1818 C1486.58,1830.72 1514.7999,1846.6095 1539.2799,1861.7795 " fill="none" id="n_oven_funny-to-n_funny_out" style="stroke:#181818;stroke-width:1.0;"/><polygon fill="#181818" points="1544.38,1864.94,1538.8368,1856.7992,1540.1299,1862.3063,1534.6228,1863.5993,1544.38,1864.94" style="stroke:#181818;stroke-width:1.0;"/><text fill="#000000" font-family="Roboto" font-size="13" lengthAdjust="spacing" textLength="90.5239" x="1491.16" y="1831.0605">Wait for {BELL}.</text></g><!--link n_oven_funny to n_funny_peek--><g id="link_n_oven_funny_n_funny_peek"><path d="M1196.57,1776.74 C1161.23,1788.09 1123.99,1807.23 1141.16,1835 C1153.45,1854.88 1169.9238,1865.5261 1190.9238,1873.6461 " fill="none" id="n_oven_funny-to-n_funny_peek" style="stroke:#181818;stroke-width:1.0;"/><polygon fill="#181818" points="1196.52,1875.81,1189.5683,1868.8334,1191.8565,1874.0068,1186.6831,1876.295,1196.52,1875.81" style="stroke:#181818;stroke-width:1.0;"/><text fill="#000000" font-family="Roboto" font-size="13" lengthAdjust="spacing" textLength="169.7935" x="1142.16" y="1831.0605">Open the door for a tiny peek.</text></g><!--link n_funny_peek to n_oven_funny--><g id="link_n_funny_peek_n_oven_funny"><path d="M1294.53,1864.76 C1311.46,1852.26 1324.71,1835.89 1316.16,1818 C1310.55,1806.28 1305.7024,1800.0191 1295.5624,1791.9391 " fill="none" id="n_funny_peek-to-n_oven_funny" style="stroke:#181818;stroke-width:1.0;"/><polygon fill="#181818" points="1290.87,1788.2,1295.4159,1796.937,1294.7804,1791.3159,1300.4014,1790.6804,1290.87,1788.2" style="stroke:#181818;stroke-width:1.0;"/><text fill="#000000" font-family="Roboto" font-size="13" lengthAdjust="spacing" textLength="127.0356" x="1319.16" y="1831.0605">Wait by {OVEN} again.</text></g><!--link n_funny_out to e_funny--><g id="link_n_funny_out_e_funny"><path d="M1533.41,1893.1 C1490.35,1897.35 1427.61,1909.7 1386.16,1945 C1372.12,1956.96 1365.1764,1969.8643 1359.7564,1985.9443 " fill="none" id="n_funny_out-to-e_funny" style="stroke:#181818;stroke-width:1.0;"/><polygon fill="#181818" points="1357.84,1991.63,1364.5051,1984.3791,1359.437,1986.8919,1356.9242,1981.8238,1357.84,1991.63" style="stroke:#181818;stroke-width:1.0;"/><text fill="#000000" font-family="Roboto" font-size="13" lengthAdjust="spacing" textLength="174.5161" x="1387.16" y="1958.0605">Taste the wiggly star bun first.</text></g><!--link n_funny_out to e_recipe--><g id="link_n_funny_out_e_recipe"><path d="M1577.67,1915.3 C1574.59,1936.82 1570.9096,1962.4205 1567.5496,1985.9105 " fill="none" id="n_funny_out-to-e_recipe" style="stroke:#181818;stroke-width:1.0;"/><polygon fill="#181818" points="1566.7,1991.85,1571.9341,1983.5071,1567.408,1986.9004,1564.0147,1982.3743,1566.7,1991.85" style="stroke:#181818;stroke-width:1.0;"/><text fill="#000000" font-family="Roboto" font-size="13" lengthAdjust="spacing" textLength="239.2813" x="1574.16" y="1958.0605">Draw the new {GOAL} on {RECIPE_CARD}.</text></g><!--link n_funny_out to e_silly--><g id="link_n_funny_out_e_silly"><path d="M1628.8,1894.77 C1692.01,1900.86 1798.41,1915.34 1822.16,1945 C1832.64,1958.1 1831.6612,1970.623 1825.1912,1986.123 " fill="none" id="n_funny_out-to-e_silly" style="stroke:#181818;stroke-width:1.0;"/><polygon fill="#181818" points="1822.88,1991.66,1830.0382,1984.8954,1824.806,1987.0458,1822.6555,1981.8137,1822.88,1991.66" style="stroke:#181818;stroke-width:1.0;"/><text fill="#000000" font-family="Roboto" font-size="13" lengthAdjust="spacing" textLength="225.0625" x="1829.16" y="1958.0605">Show the silly {GOAL} to the neighbors.</text></g><!--link e_teatime to *end*--><g id="link_e_teatime_*end*"><path d="M776.76,2041.66 C798.79,2046.82 823.48,2052.37 846.16,2057 C1000.67,2088.51 1184.3433,2117.945 1231.3133,2125.355 " fill="none" id="e_teatime-to-*end*" style="stroke:#181818;stroke-width:1.0;"/><polygon fill="#181818" points="1237.24,2126.29,1228.9733,2120.9364,1232.3011,2125.5108,1227.7266,2128.8386,1237.24,2126.29" style="stroke:#181818;stroke-width:1.0;"/></g><!--link e_neighbors to *end*--><g id="link_e_neighbors_*end*"><path d="M980.82,2043.94 C1060.92,2069.13 1193.3161,2110.7608 1232.0661,2122.9408 " fill="none" id="e_neighbors-to-*end*" style="stroke:#181818;stroke-width:1.0;"/><polygon fill="#181818" points="1237.79,2124.74,1230.4036,2118.2253,1233.0201,2123.2407,1228.0047,2125.8572,1237.79,2124.74" style="stroke:#181818;stroke-width:1.0;"/></g><!--link e_perfect to *end*--><g id="link_e_perfect_*end*"><path d="M1177.59,2057.09 C1199.6,2079.21 1223.1086,2102.8261 1236.2886,2116.0761 " fill="none" id="e_perfect-to-*end*" style="stroke:#181818;stroke-width:1.0;"/><polygon fill="#181818" points="1240.52,2120.33,1237.0088,2111.1283,1236.9938,2116.7851,1231.337,2116.7701,1240.52,2120.33" style="stroke:#181818;stroke-width:1.0;"/></g><!--link e_funny to *end*--><g id="link_e_funny_*end*"><path d="M1318.72,2057.09 C1296.71,2079.21 1273.2014,2102.8261 1260.0214,2116.0761 " fill="none" id="e_funny-to-*end*" style="stroke:#181818;stroke-width:1.0;"/><polygon fill="#181818" points="1255.79,2120.33,1264.973,2116.7701,1259.3162,2116.7851,1259.3012,2111.1283,1255.79,2120.33" style="stroke:#181818;stroke-width:1.0;"/></g><!--link e_recipe to *end*--><g id="link_e_recipe_*end*"><path d="M1500.12,2045.75 C1422.55,2071.07 1301.1536,2110.6974 1264.2236,2122.7574 " fill="none" id="e_recipe-to-*end*" style="stroke:#181818;stroke-width:1.0;"/><polygon fill="#181818" points="1258.52,2124.62,1268.3171,2125.6285,1263.273,2123.0678,1265.8336,2118.0237,1258.52,2124.62" style="stroke:#181818;stroke-width:1.0;"/></g><!--link e_silly to *end*--><g id="link_e_silly_*end*"><path d="M1745.33,2037.14 C1714.6,2043.17 1676.37,2050.59 1642.16,2057 C1490.15,2085.47 1310.6601,2117.0554 1264.7301,2125.0954 " fill="none" id="e_silly-to-*end*" style="stroke:#181818;stroke-width:1.0;"/><polygon fill="#181818" points="1258.82,2126.13,1268.3749,2128.5182,1263.7451,2125.2679,1266.9955,2120.6381,1258.82,2126.13" style="stroke:#181818;stroke-width:1.0;"/></g><rect fill="none" height="108.4375" id="_legend" rx="4" ry="4" style="stroke:#000000;stroke-width:1.0;" width="220.417" x="1815.8055" y="2157"/><text fill="#000000" font-family="Roboto" font-size="14" lengthAdjust="spacing" textLength="191.1055" x="1820.8055" y="2174.9883">Baking Day with Grandma Vole</text><text fill="#000000" font-family="Roboto" font-size="14" lengthAdjust="spacing" textLength="155.791" x="1820.8055" y="2191.3945">Band 3-5 &#183; Tier 1 &#183; ~4 min</text><text fill="#000000" font-family="Roboto" font-size="14" lengthAdjust="spacing" textLength="159.1406" x="1820.8055" y="2207.8008">Topology: loop_and_grow</text><text fill="#000000" font-family="Roboto" font-size="14" lengthAdjust="spacing" textLength="210.417" x="1820.8055" y="2224.207">30 nodes &#183; 6 endings (6+ / 0n / 0-)</text><text fill="#000000" font-family="Roboto" font-size="14" lengthAdjust="spacing" textLength="116.2588" x="1820.8055" y="2240.6133">Production-eligible</text><text fill="#000000" font-family="Roboto" font-size="14" lengthAdjust="spacing" textLength="137.7852" x="1820.8055" y="2257.0195">Scale: medium &#183; prose</text><!--SRC=[XLTRRzis57xthpXB7xfkZTeqMT1cm83uaZHh6WUsrs8R1e6MQ8cpH6eaLSymlB-rz_so7PAwK8wreK1g7fxlN4b-Hy_Xbd8gYQOnhAJ8GQrfHhNWyEDy-W3BBQX8iaAhLvBocCgmtWzZHX99SXKKss3m7CO2kD10OwODAYKy_XuaFPKb1vrII9mR8OE1MZDU4CH2J5UapFIDuFg1v1HEPc8fj3ZnL9OaMYTIb3mUYKn8U7PpRVvv6jMcHFlmTf2oc0BD2xr5wovs9lXWyEitly7fwG_0GwM9r0FygsczWcV3uNXoCnpKwojGL9S5_FCtNBpPDCfhfgEKSa-zblY0rorWAJQPmfXlRjwDBWRr-WgYLB287fetkw4G1IB6PwEBoRk1Bxi2oHJZoJ4VeLW_mQmxYFFB5h7AH2czgDowBogxUnYM9-oBgr9PFqNrHwOeZVrwkNKdiejMcqJOzJ1AYQAU4r_Q5vlJCMVh2T0AE_6zFOYlcrCZwiif5PnkFO1Rztd8sP-UhbdrQKggjATgbttvgfGKrA-hNVTrN4ko3JabllbMrXUFrLYLd6yFOKxOXnDVp8rgGhFBJcHU7WMbwyEZsChwF2GYYpi-Aa5V_YQ4EfDEN4qcnwEpkpOU_yotmhxud8eejNyd6zdnA6ceiHaC7yrdexUJoz6xGIj1XCWBVARnvOEl2w6OPb_eYux6oUuwV9pT_J8vsvyq9ZbbIReKKdb6Mnc-SMKKKQMwDds5nkeRpsf1vOf6shDPIteijjkDlNFFNjMPnbhJb9waw_sJtV1fof96hF2BM0ck86OgmgRBRTTQiz-OytDLBClysDow9yzwix5aigmfo95Loo_pYEHO6D32ykcob59ieDeFF2fom9ffRWLIhtOGbi0IGHpCPj3GKGjmpzWzMpc05WKu5R5Q0JvRWDUVW3b1nz7k4iupmy6x-MBoU1RUBIOVzs3EiHqlR1n2Qv477NBh1ht0eZlDJGOgfTaAI48O3pnoSuYQkcue9cynJX994Qs3XjiyPPVZF4Ate7AIeGFpMxq4RYuPpYsWCh7fmReC5wnm-RsfyyDp0iOM5aZmY0PTYkp6EYxnfJOLjRvi84rsJOZLh5BntxIWRemo0lYToA0XHq_HfVPelDIw2XZ7bk7qfJEKQ4b9VeZj4kOy9MjgyUW6vpWPGraeqz4OZqvmGB2-XOevHyIqOhUOVfWyxB_gycetguD8RH5UkbYtWK-j3bOJvr2QDtJtVlem-NaVD8pgb1nZpZMJW9EeQOaMU05IQajcTfrUHPVtrTs8HPcacEqNF06GCMsgnKaHrCHQ1LxHvjp-Rt2xs-dr_HusJ6FA7oSFY-dCXkGq7Sgdpfd0YEnlExRYDUOA_M75Q_HpTHHVFsBpFqgcKi0bM1qyjxlPzAV591o6y_VNZvEvzT_wT3OgLlriUsFEtOQuGNqt_OHj2hfKtM8Ql_-5jCOTfc7MpqPhXGFxRZYvlpzKypcxETknG7K3CKyCEZLAGOVW3tBnusYlK1M2qVK9xxthxMuyktlui8U2HNZVdpQkW_QfRM6knOR8lEvvzH0tEa_GBOtTCtmxyUl0lccsaCAbl64SRvNXWQ0xObGlXZS4z1JqY7urQ_nlNJtjemq_Njus9fTbhRyWIjCggIH1NZCqPiuth9XK-XYqeTAn99kgc9kwl5YXtMmokdkSXAFhsNX_p41DeFDKEBmJz3QeFGy6Zv-4dV6bbTMTQoLjbTsw2hqLEC_rUf1HVCPYdFUIL0y0XcHjtgmnsReJToln9kK4FecCsctKFJ_zpenu2uPKScP-_NK1EUEulH05Vlicsol8y1g4g1pY9_46TyvVurStVkSQzKj0Z-W5XupBR-4LlERcp-aBL7kK8YuZCncTqembR6czuaIHqIl8yPkzp8s5GWf51sZ5HVyl]--></g></svg>