<svg xmlns="http://www.w3.org/2000/svg" xmlns:xlink="http://www.w3.org/1999/xlink" contentStyleType="text/css" height="1444px" preserveAspectRatio="none" style="width:781px;height:1444px;background:#FAFAFA;" version="1.1" viewBox="0 0 781 1444" width="781px" zoomAndPan="magnify"><defs><style type="text/css">@import url('https://fonts.googleapis.com/css?family=Roboto:400,100,100italic,300,300italic,400italic,500,500italic,700,700italic,900,900italic');</style></defs><g><rect fill="#FAFAFA" height="1444" style="stroke:none;stroke-width:1.0;" width="781" x="0" y="0"/><ellipse cx="397" cy="16" fill="#222222" rx="10" ry="10" style="stroke:#222222;stroke-width:1.0;"/><g id="n_window"><rect fill="#BBDEFB" height="50.4688" rx="4" ry="4" style="stroke:#181818;stroke-width:0.5;" width="82.1045" x="356" y="87"/><line style="stroke:#181818;stroke-width:0.5;" x1="356" x2="438.1045" y1="113.4063" y2="113.4063"/><text fill="#000000" font-family="Roboto" font-size="14" lengthAdjust="spacing" textLength="62.1045" x="366" y="104.9883">n_window</text><text fill="#000000" font-family="Roboto" font-size="12" lengthAdjust="spacing" textLength="61.4297" x="361" y="129.5391">setup &#183; 42w</text></g><g id="n_door"><rect fill="#BBDEFB" height="50.4688" rx="4" ry="4" style="stroke:#181818;stroke-width:0.5;" width="81.4297" x="356.5" y="214"/><line style="stroke:#181818;stroke-width:0.5;" x1="356.5" x2="437.9297" y1="240.4063" y2="240.4063"/><text fill="#000000" font-family="Roboto" font-size="14" lengthAdjust="spacing" textLength="42.6563" x="375.8867" y="231.9883">n_door</text><text fill="#000000" font-family="Roboto" font-size="12" lengthAdjust="spacing" textLength="61.4297" x="361.5" y="256.5391">setup &#183; 40w</text></g><g id="n_gate"><rect fill="#BBDEFB" height="50.4688" rx="4" ry="4" style="stroke:#181818;stroke-width:0.5;" width="81.4297" x="356.5" y="341"/><line style="stroke:#181818;stroke-width:0.5;" x1="356.5" x2="437.9297" y1="367.4063" y2="367.4063"/><text fill="#000000" font-family="Roboto" font-size="14" lengthAdjust="spacing" textLength="41.5283" x="376.4507" y="358.9883">n_gate</text><text fill="#000000" font-family="Roboto" font-size="12" lengthAdjust="spacing" textLength="61.4297" x="361.5" y="383.5391">setup &#183; 38w</text></g><g id="n_corner"><rect fill="#FFF9C4" height="50.4688" rx="4" ry="4" style="stroke:#181818;stroke-width:0.5;" width="86.8906" x="353.5" y="468"/><line style="stroke:#181818;stroke-width:0.5;" x1="353.5" x2="440.3906" y1="494.4063" y2="494.4063"/><text fill="#000000" font-family="Roboto" font-size="14" lengthAdjust="spacing" textLength="54.0039" x="369.9434" y="485.9883">n_corner</text><text fill="#000000" font-family="Roboto" font-size="12" lengthAdjust="spacing" textLength="66.8906" x="358.5" y="510.5391">choice &#183; 44w</text></g><g id="n_lane"><rect fill="#D1C4E9" height="50.4688" rx="4" ry="4" style="stroke:#181818;stroke-width:0.5;" width="81.0547" x="257.5" y="595"/><line style="stroke:#181818;stroke-width:0.5;" x1="257.5" x2="338.5547" y1="621.4063" y2="621.4063"/><text fill="#000000" font-family="Roboto" font-size="14" lengthAdjust="spacing" textLength="40.2227" x="277.916" y="612.9883">n_lane</text><text fill="#000000" font-family="Roboto" font-size="12" lengthAdjust="spacing" textLength="61.0547" x="262.5" y="637.5391">rising &#183; 40w</text></g><g id="n_wiggle"><rect fill="#FFF9C4" height="50.4688" rx="4" ry="4" style="stroke:#181818;stroke-width:0.5;" width="86.8906" x="233.5" y="722"/><line style="stroke:#181818;stroke-width:0.5;" x1="233.5" x2="320.3906" y1="748.4063" y2="748.4063"/><text fill="#000000" font-family="Roboto" font-size="14" lengthAdjust="spacing" textLength="54.5234" x="249.6836" y="739.9883">n_wiggle</text><text fill="#000000" font-family="Roboto" font-size="12" lengthAdjust="spacing" textLength="66.8906" x="238.5" y="764.5391">choice &#183; 44w</text></g><g id="n_worm_carry"><rect fill="#D1C4E9" height="50.4688" rx="4" ry="4" style="stroke:#181818;stroke-width:0.5;" width="106.9463" x="22.5" y="849"/><line style="stroke:#181818;stroke-width:0.5;" x1="22.5" x2="129.4463" y1="875.4063" y2="875.4063"/><text fill="#000000" font-family="Roboto" font-size="14" lengthAdjust="spacing" textLength="86.9463" x="32.5" y="866.9883">n_worm_carry</text><text fill="#000000" font-family="Roboto" font-size="12" lengthAdjust="spacing" textLength="61.0547" x="27.5" y="891.5391">rising &#183; 38w</text></g><g id="n_worm_end"><rect fill="#C8E6C9" height="64.5313" rx="4" ry="4" style="stroke:#181818;stroke-width:0.5;" width="152.1641" x="7" y="1056"/><line style="stroke:#181818;stroke-width:0.5;" x1="7" x2="159.1641" y1="1082.4063" y2="1082.4063"/><text fill="#000000" font-family="Roboto" font-size="14" lengthAdjust="spacing" textLength="78.9414" x="43.6113" y="1073.9883">n_worm_end</text><text fill="#000000" font-family="Roboto" font-size="12" lengthAdjust="spacing" textLength="112.957" x="12" y="1098.5391">completion (positive)</text><text fill="#000000" font-family="Roboto" font-size="12" lengthAdjust="spacing" textLength="132.1641" x="12" y="1112.6016">"A Home for {A1_PRIZE}"</text></g><g id="n_mirror"><rect fill="#D1C4E9" height="50.4688" rx="4" ry="4" style="stroke:#181818;stroke-width:0.5;" width="81.0547" x="253.5" y="849"/><line style="stroke:#181818;stroke-width:0.5;" x1="253.5" x2="334.5547" y1="875.4063" y2="875.4063"/><text fill="#000000" font-family="Roboto" font-size="14" lengthAdjust="spacing" textLength="51.9463" x="268.0542" y="866.9883">n_mirror</text><text fill="#000000" font-family="Roboto" font-size="12" lengthAdjust="spacing" textLength="61.0547" x="258.5" y="891.5391">rising &#183; 38w</text></g><g id="n_mirror_climax"><rect fill="#D1C4E9" height="50.4688" rx="4" ry="4" style="stroke:#181818;stroke-width:0.5;" width="119.2373" x="198.5" y="976"/><line style="stroke:#181818;stroke-width:0.5;" x1="198.5" x2="317.7373" y1="1002.4063" y2="1002.4063"/><text fill="#000000" font-family="Roboto" font-size="14" lengthAdjust="spacing" textLength="99.2373" x="208.5" y="993.9883">n_mirror_climax</text><text fill="#000000" font-family="Roboto" font-size="12" lengthAdjust="spacing" textLength="61.0547" x="203.5" y="1018.5391">rising &#183; 36w</text></g><g id="n_splash_end"><rect fill="#C8E6C9" height="64.5313" rx="4" ry="4" style="stroke:#181818;stroke-width:0.5;" width="154.4727" x="170" y="1151"/><line style="stroke:#181818;stroke-width:0.5;" x1="170" x2="324.4727" y1="1177.4063" y2="1177.4063"/><text fill="#000000" font-family="Roboto" font-size="14" lengthAdjust="spacing" textLength="84.458" x="205.0073" y="1168.9883">n_splash_end</text><text fill="#000000" font-family="Roboto" font-size="12" lengthAdjust="spacing" textLength="97.0957" x="175" y="1193.5391">success (positive)</text><text fill="#000000" font-family="Roboto" font-size="12" lengthAdjust="spacing" textLength="134.4727" x="175" y="1207.6016">"The Biggest {A2_PRIZE}"</text></g><g id="n_hill"><rect fill="#D1C4E9" height="50.4688" rx="4" ry="4" style="stroke:#181818;stroke-width:0.5;" width="81.0547" x="453.5" y="595"/><line style="stroke:#181818;stroke-width:0.5;" x1="453.5" x2="534.5547" y1="621.4063" y2="621.4063"/><text fill="#000000" font-family="Roboto" font-size="14" lengthAdjust="spacing" textLength="31.9717" x="478.0415" y="612.9883">n_hill</text><text fill="#000000" font-family="Roboto" font-size="12" lengthAdjust="spacing" textLength="61.0547" x="458.5" y="637.5391">rising &#183; 40w</text></g><g id="n_stream_fork"><rect fill="#FFF9C4" height="50.4688" rx="4" ry="4" style="stroke:#181818;stroke-width:0.5;" width="108.9219" x="442.5" y="722"/><line style="stroke:#181818;stroke-width:0.5;" x1="442.5" x2="551.4219" y1="748.4063" y2="748.4063"/><text fill="#000000" font-family="Roboto" font-size="14" lengthAdjust="spacing" textLength="88.9219" x="452.5" y="739.9883">n_stream_fork</text><text fill="#000000" font-family="Roboto" font-size="12" lengthAdjust="spacing" textLength="66.8906" x="447.5" y="764.5391">choice &#183; 44w</text></g><g id="n_race"><rect fill="#D1C4E9" height="50.4688" rx="4" ry="4" style="stroke:#181818;stroke-width:0.5;" width="81.0547" x="442.5" y="849"/><line style="stroke:#181818;stroke-width:0.5;" x1="442.5" x2="523.5547" y1="875.4063" y2="875.4063"/><text fill="#000000" font-family="Roboto" font-size="14" lengthAdjust="spacing" textLength="41.1592" x="462.4478" y="866.9883">n_race</text><text fill="#000000" font-family="Roboto" font-size="12" lengthAdjust="spacing" textLength="61.0547" x="447.5" y="891.5391">rising &#183; 38w</text></g><g id="n_race_finish"><rect fill="#D1C4E9" height="50.4688" rx="4" ry="4" style="stroke:#181818;stroke-width:0.5;" width="101.8193" x="429" y="976"/><line style="stroke:#181818;stroke-width:0.5;" x1="429" x2="530.8193" y1="1002.4063" y2="1002.4063"/><text fill="#000000" font-family="Roboto" font-size="14" lengthAdjust="spacing" textLength="81.8193" x="439" y="993.9883">n_race_finish</text><text fill="#000000" font-family="Roboto" font-size="12" lengthAdjust="spacing" textLength="61.0547" x="434" y="1018.5391">rising &#183; 36w</text></g><g id="n_race_end"><rect fill="#C8E6C9" height="64.5313" rx="4" ry="4" style="stroke:#181818;stroke-width:0.5;" width="145.2559" x="368.5" y="1151"/><line style="stroke:#181818;stroke-width:0.5;" x1="368.5" x2="513.7559" y1="1177.4063" y2="1177.4063"/><text fill="#000000" font-family="Roboto" font-size="14" lengthAdjust="spacing" textLength="70.5264" x="405.8647" y="1168.9883">n_race_end</text><text fill="#000000" font-family="Roboto" font-size="12" lengthAdjust="spacing" textLength="97.0957" x="373.5" y="1193.5391">success (positive)</text><text fill="#000000" font-family="Roboto" font-size="12" lengthAdjust="spacing" textLength="125.2559" x="373.5" y="1207.6016">"Champion {B1_PRIZE}"</text></g><g id="n_downhill"><rect fill="#D1C4E9" height="50.4688" rx="4" ry="4" style="stroke:#181818;stroke-width:0.5;" width="86.1035" x="591" y="849"/><line style="stroke:#181818;stroke-width:0.5;" x1="591" x2="677.1035" y1="875.4063" y2="875.4063"/><text fill="#000000" font-family="Roboto" font-size="14" lengthAdjust="spacing" textLength="66.1035" x="601" y="866.9883">n_downhill</text><text fill="#000000" font-family="Roboto" font-size="12" lengthAdjust="spacing" textLength="61.0547" x="596" y="891.5391">rising &#183; 38w</text></g><g id="n_sky"><rect fill="#D1C4E9" height="50.4688" rx="4" ry="4" style="stroke:#181818;stroke-width:0.5;" width="81.0547" x="597.5" y="976"/><line style="stroke:#181818;stroke-width:0.5;" x1="597.5" x2="678.5547" y1="1002.4063" y2="1002.4063"/><text fill="#000000" font-family="Roboto" font-size="14" lengthAdjust="spacing" textLength="34.9932" x="620.5308" y="993.9883">n_sky</text><text fill="#000000" font-family="Roboto" font-size="12" lengthAdjust="spacing" textLength="61.0547" x="602.5" y="1018.5391">rising &#183; 34w</text></g><g id="n_rainbow_end"><rect fill="#C8E6C9" height="64.5313" rx="4" ry="4" style="stroke:#181818;stroke-width:0.5;" width="157.8535" x="553" y="1151"/><line style="stroke:#181818;stroke-width:0.5;" x1="553" x2="710.8535" y1="1177.4063" y2="1177.4063"/><text fill="#000000" font-family="Roboto" font-size="14" lengthAdjust="spacing" textLength="93.2764" x="585.2886" y="1168.9883">n_rainbow_end</text><text fill="#000000" font-family="Roboto" font-size="12" lengthAdjust="spacing" textLength="103.8984" x="558" y="1193.5391">discovery (positive)</text><text fill="#000000" font-family="Roboto" font-size="12" lengthAdjust="spacing" textLength="137.8535" x="558" y="1207.6016">"The {B2_PRIZE} Surprise"</text></g><ellipse cx="343" cy="1288" fill="none" rx="11" ry="11" style="stroke:#222222;stroke-width:1.0;"/><ellipse cx="343" cy="1288" fill="#222222" rx="6" ry="6" style="stroke:#222222;stroke-width:1.0;"/><!--link *start* to n_window--><g id="link_*start*_n_window"><path d="M397,26.01 C397,39.89 397,60.97 397,80.84 " fill="none" id="*start*-to-n_window" style="stroke:#181818;stroke-width:1.0;"/><polygon fill="#181818" points="397,86.84,401,77.84,397,81.84,393,77.84,397,86.84" style="stroke:#181818;stroke-width:1.0;"/></g><!--link n_window to n_door--><g id="link_n_window_n_door"><path d="M397,137.1 C397,159.24 397,185.86 397,207.97 " fill="none" id="n_window-to-n_door" style="stroke:#181818;stroke-width:1.0;"/><polygon fill="#181818" points="397,213.97,401,204.97,397,208.97,393,204.97,397,213.97" style="stroke:#181818;stroke-width:1.0;"/><text fill="#000000" font-family="Roboto" font-size="13" lengthAdjust="spacing" textLength="131.7075" x="398" y="180.0605">Put on {READY_GEAR}.</text></g><!--link n_door to n_gate--><g id="link_n_door_n_gate"><path d="M397,264.1 C397,286.24 397,312.86 397,334.97 " fill="none" id="n_door-to-n_gate" style="stroke:#181818;stroke-width:1.0;"/><polygon fill="#181818" points="397,340.97,401,331.97,397,335.97,393,331.97,397,340.97" style="stroke:#181818;stroke-width:1.0;"/><text fill="#000000" font-family="Roboto" font-size="13" lengthAdjust="spacing" textLength="191.8008" x="398" y="307.0605">Step outside with {COMPANION}.</text></g><!--link n_gate to n_corner--><g id="link_n_gate_n_corner"><path d="M397,391.1 C397,413.24 397,439.86 397,461.97 " fill="none" id="n_gate-to-n_corner" style="stroke:#181818;stroke-width:1.0;"/><polygon fill="#181818" points="397,467.97,401,458.97,397,462.97,393,458.97,397,467.97" style="stroke:#181818;stroke-width:1.0;"/><text fill="#000000" font-family="Roboto" font-size="13" lengthAdjust="spacing" textLength="108.5322" x="398" y="434.0605">Walk to the corner.</text></g><!--link n_corner to n_lane--><g id="link_n_corner_n_lane"><path d="M353.26,510.28 C336.11,518.88 317.95,531.21 307,548 C298.04,561.73 295.8954,574.1801 295.9554,588.8301 " fill="none" id="n_corner-to-n_lane" style="stroke:#181818;stroke-width:1.0;"/><polygon fill="#181818" points="295.98,594.83,299.9431,585.8137,295.9595,589.83,291.9432,585.8465,295.98,594.83" style="stroke:#181818;stroke-width:1.0;"/><text fill="#000000" font-family="Roboto" font-size="13" lengthAdjust="spacing" textLength="135.332" x="308" y="561.0605">Take {ROUTE_A_LURE}.</text></g><!--link n_corner to n_hill--><g id="link_n_corner_n_hill"><path d="M424.47,518.25 C433.76,527.13 443.83,537.57 452,548 C463.48,562.66 471.2761,575.4622 478.9761,589.7022 " fill="none" id="n_corner-to-n_hill" style="stroke:#181818;stroke-width:1.0;"/><polygon fill="#181818" points="481.83,594.98,481.0677,585.1607,479.4518,590.5818,474.0306,588.9659,481.83,594.98" style="stroke:#181818;stroke-width:1.0;"/><text fill="#000000" font-family="Roboto" font-size="13" lengthAdjust="spacing" textLength="134.9512" x="465" y="561.0605">Take {ROUTE_B_LURE}.</text></g><!--link n_lane to n_wiggle--><g id="link_n_lane_n_wiggle"><path d="M293.95,645.1 C290.23,667.24 285.7429,693.9427 282.0329,716.0527 " fill="none" id="n_lane-to-n_wiggle" style="stroke:#181818;stroke-width:1.0;"/><polygon fill="#181818" points="281.04,721.97,286.4742,713.756,281.8674,717.0389,278.5845,712.4322,281.04,721.97" style="stroke:#181818;stroke-width:1.0;"/><text fill="#000000" font-family="Roboto" font-size="13" lengthAdjust="spacing" textLength="178.9214" x="290" y="688.0605">Look closer at {A_FORK_SIGN}.</text></g><!--link n_wiggle to n_worm_carry--><g id="link_n_wiggle_n_worm_carry"><path d="M233.21,752.97 C197.07,759.09 146.32,772.57 112,802 C97.73,814.24 90.4966,827.8662 84.9466,843.2462 " fill="none" id="n_wiggle-to-n_worm_carry" style="stroke:#181818;stroke-width:1.0;"/><polygon fill="#181818" points="82.91,848.89,89.7274,841.7821,84.6072,844.1869,82.2024,839.0666,82.91,848.89" style="stroke:#181818;stroke-width:1.0;"/><text fill="#000000" font-family="Roboto" font-size="13" lengthAdjust="spacing" textLength="163.7505" x="113" y="815.0605">Help {A1_CREATURE} home.</text></g><!--link n_wiggle to n_mirror--><g id="link_n_wiggle_n_mirror"><path d="M280.28,772.1 C283.29,794.24 286.9233,820.9145 289.9233,843.0245 " fill="none" id="n_wiggle-to-n_mirror" style="stroke:#181818;stroke-width:1.0;"/><polygon fill="#181818" points="290.73,848.97,293.4836,839.5139,290.0577,844.0154,285.5562,840.5895,290.73,848.97" style="stroke:#181818;stroke-width:1.0;"/><text fill="#000000" font-family="Roboto" font-size="13" lengthAdjust="spacing" textLength="158.0566" x="288" y="815.0605">Tiptoe to {A2_LANDMARK}.</text></g><!--link n_worm_carry to n_worm_end--><g id="link_n_worm_carry_n_worm_end"><path d="M73.83,899.17 C73.09,908.49 72.36,919.23 72,929 C70.37,973.1 74.3692,1018.0311 78.1292,1050.0011 " fill="none" id="n_worm_carry-to-n_worm_end" style="stroke:#181818;stroke-width:1.0;"/><polygon fill="#181818" points="78.83,1055.96,81.7514,1046.5544,78.246,1050.9942,73.8061,1047.4888,78.83,1055.96" style="stroke:#181818;stroke-width:1.0;"/><text fill="#000000" font-family="Roboto" font-size="13" lengthAdjust="spacing" textLength="192.9751" x="73" y="942.0605">Set {A1_CREATURE} down gently.</text></g><!--link n_mirror to n_mirror_climax--><g id="link_n_mirror_n_mirror_climax"><path d="M287.06,899.1 C280.68,921.24 272.9511,948.0945 266.5811,970.2045 " fill="none" id="n_mirror-to-n_mirror_climax" style="stroke:#181818;stroke-width:1.0;"/><polygon fill="#181818" points="264.92,975.97,271.2553,968.4291,266.3042,971.1654,263.5679,966.2144,264.92,975.97" style="stroke:#181818;stroke-width:1.0;"/><text fill="#000000" font-family="Roboto" font-size="13" lengthAdjust="spacing" textLength="125.144" x="280" y="942.0605">Count one, two, three!</text></g><!--link n_mirror_climax to n_splash_end--><g id="link_n_mirror_climax_n_splash_end"><path d="M229.7,1026.26 C221.77,1034.77 214.19,1044.98 210,1056 C199.73,1083 202.27,1093.16 210,1121 C212.87,1131.33 214.8815,1136.512 220.4115,1145.682 " fill="none" id="n_mirror_climax-to-n_splash_end" style="stroke:#181818;stroke-width:1.0;"/><polygon fill="#181818" points="223.51,1150.82,222.2876,1141.0473,220.9279,1146.5383,215.4369,1145.1786,223.51,1150.82" style="stroke:#181818;stroke-width:1.0;"/><text fill="#000000" font-family="Roboto" font-size="13" lengthAdjust="spacing" textLength="233.1113" x="211" y="1093.0605">Come down with a great big {A2_PRIZE}.</text></g><!--link n_hill to n_stream_fork--><g id="link_n_hill_n_stream_fork"><path d="M494.58,645.1 C495.11,667.24 495.7462,693.8617 496.2762,715.9717 " fill="none" id="n_hill-to-n_stream_fork" style="stroke:#181818;stroke-width:1.0;"/><polygon fill="#181818" points="496.42,721.97,500.2032,712.8767,496.3002,716.9714,492.2055,713.0684,496.42,721.97" style="stroke:#181818;stroke-width:1.0;"/><text fill="#000000" font-family="Roboto" font-size="13" lengthAdjust="spacing" textLength="137.5728" x="496" y="688.0605">Follow the busy stream.</text></g><!--link n_stream_fork to n_race--><g id="link_n_stream_fork_n_race"><path d="M491.25,772.06 C489.25,781.36 487.21,792.12 486,802 C484.1,817.55 483.4719,829.1512 483.1919,842.9312 " fill="none" id="n_stream_fork-to-n_race" style="stroke:#181818;stroke-width:1.0;"/><polygon fill="#181818" points="483.07,848.93,487.252,840.0131,483.1716,843.931,479.2537,839.8506,483.07,848.93" style="stroke:#181818;stroke-width:1.0;"/><text fill="#000000" font-family="Roboto" font-size="13" lengthAdjust="spacing" textLength="98.7822" x="487" y="815.0605">Race {B1_BOAT}.</text></g><!--link n_stream_fork to n_downhill--><g id="link_n_stream_fork_n_downhill"><path d="M548.88,772.17 C563.21,780.37 578.08,790.42 590,802 C603.83,815.44 612.4022,828.7565 620.1022,843.5665 " fill="none" id="n_stream_fork-to-n_downhill" style="stroke:#181818;stroke-width:1.0;"/><polygon fill="#181818" points="622.87,848.89,622.2673,839.0596,620.5635,844.4538,615.1693,842.75,622.87,848.89" style="stroke:#181818;stroke-width:1.0;"/><text fill="#000000" font-family="Roboto" font-size="13" lengthAdjust="spacing" textLength="139.1279" x="604" y="815.0605">Follow {B2_SIGN} down.</text></g><!--link n_race to n_race_finish--><g id="link_n_race_n_race_finish"><path d="M478.65,899.11 C477.18,908.42 475.72,919.17 475,929 C473.86,944.53 474.3931,956.0061 475.9031,969.7161 " fill="none" id="n_race-to-n_race_finish" style="stroke:#181818;stroke-width:1.0;"/><polygon fill="#181818" points="476.56,975.68,479.5507,966.2962,476.0126,970.7101,471.5988,967.172,476.56,975.68" style="stroke:#181818;stroke-width:1.0;"/><text fill="#000000" font-family="Roboto" font-size="13" lengthAdjust="spacing" textLength="120.9419" x="476" y="942.0605">Run to the finish line.</text></g><!--link n_race_finish to n_race_end--><g id="link_n_race_finish_n_race_end"><path d="M474.74,1026.34 C467.78,1058.58 456.7474,1109.6154 449.0774,1145.1054 " fill="none" id="n_race_finish-to-n_race_end" style="stroke:#181818;stroke-width:1.0;"/><polygon fill="#181818" points="447.81,1150.97,453.6209,1143.0181,448.8662,1146.0828,445.8014,1141.3281,447.81,1150.97" style="stroke:#181818;stroke-width:1.0;"/><text fill="#000000" font-family="Roboto" font-size="13" lengthAdjust="spacing" textLength="103.7524" x="469" y="1093.0605">Catch {B1_BOAT}.</text></g><!--link n_downhill to n_sky--><g id="link_n_downhill_n_sky"><path d="M634.77,899.1 C635.48,921.24 636.3274,947.8631 637.0374,969.9731 " fill="none" id="n_downhill-to-n_sky" style="stroke:#181818;stroke-width:1.0;"/><polygon fill="#181818" points="637.23,975.97,640.9391,966.8463,637.0695,970.9726,632.9432,967.103,637.23,975.97" style="stroke:#181818;stroke-width:1.0;"/><text fill="#000000" font-family="Roboto" font-size="13" lengthAdjust="spacing" textLength="108.291" x="637" y="942.0605">Look up at the sky.</text></g><!--link n_sky to n_rainbow_end--><g id="link_n_sky_n_rainbow_end"><path d="M637.19,1026.34 C636.12,1058.58 634.4294,1109.4833 633.2494,1144.9733 " fill="none" id="n_sky-to-n_rainbow_end" style="stroke:#181818;stroke-width:1.0;"/><polygon fill="#181818" points="633.05,1150.97,637.3469,1142.1079,633.2162,1145.9728,629.3513,1141.842,633.05,1150.97" style="stroke:#181818;stroke-width:1.0;"/><text fill="#000000" font-family="Roboto" font-size="13" lengthAdjust="spacing" textLength="136.5381" x="637" y="1093.0605">See what the sky made.</text></g><!--link n_worm_end to *end*--><g id="link_n_worm_end_*end*"><path d="M93.06,1121.18 C103.58,1149.6 122.69,1190.62 152,1216 C208.16,1264.63 294.7681,1280.4168 326.2181,1284.8268 " fill="none" id="n_worm_end-to-*end*" style="stroke:#181818;stroke-width:1.0;"/><polygon fill="#181818" points="332.16,1285.66,323.8027,1280.449,327.2084,1284.9657,322.6917,1288.3715,332.16,1285.66" style="stroke:#181818;stroke-width:1.0;"/></g><!--link n_splash_end to *end*--><g id="link_n_splash_end_*end*"><path d="M276.59,1216.09 C297.3,1238.21 319.3084,1261.7008 331.7184,1274.9508 " fill="none" id="n_splash_end-to-*end*" style="stroke:#181818;stroke-width:1.0;"/><polygon fill="#181818" points="335.82,1279.33,332.5871,1270.0269,332.402,1275.6807,326.7482,1275.4956,335.82,1279.33" style="stroke:#181818;stroke-width:1.0;"/></g><!--link n_race_end to *end*--><g id="link_n_race_end_*end*"><path d="M410.8,1216.09 C389.65,1238.21 367.1467,1261.7435 354.4767,1274.9935 " fill="none" id="n_race_end-to-*end*" style="stroke:#181818;stroke-width:1.0;"/><polygon fill="#181818" points="350.33,1279.33,359.441,1275.5897,353.7856,1275.7163,353.659,1270.0608,350.33,1279.33" style="stroke:#181818;stroke-width:1.0;"/></g><!--link n_rainbow_end to *end*--><g id="link_n_rainbow_end_*end*"><path d="M552.65,1212.64 C481.8,1237.77 390.1748,1270.2642 358.8248,1281.3842 " fill="none" id="n_rainbow_end-to-*end*" style="stroke:#181818;stroke-width:1.0;"/><polygon fill="#181818" points="353.17,1283.39,362.9894,1284.1512,357.8823,1281.7185,360.315,1276.6114,353.17,1283.39" style="stroke:#181818;stroke-width:1.0;"/></g><rect fill="none" height="108.4375" id="_legend" rx="4" ry="4" style="stroke:#000000;stroke-width:1.0;" width="220.417" x="535.1211" y="1316"/><text fill="#000000" font-family="Roboto" font-size="14" lengthAdjust="spacing" textLength="128.1191" x="540.1211" y="1333.9883">Puddle Jumping Day</text><text fill="#000000" font-family="Roboto" font-size="14" lengthAdjust="spacing" textLength="155.791" x="540.1211" y="1350.3945">Band 3-5 &#183; Tier 1 &#183; ~3 min</text><text fill="#000000" font-family="Roboto" font-size="14" lengthAdjust="spacing" textLength="128.0713" x="540.1211" y="1366.8008">Topology: time_cave</text><text fill="#000000" font-family="Roboto" font-size="14" lengthAdjust="spacing" textLength="210.417" x="540.1211" y="1383.207">19 nodes &#183; 4 endings (4+ / 0n / 0-)</text><text fill="#000000" font-family="Roboto" font-size="14" lengthAdjust="spacing" textLength="116.2588" x="540.1211" y="1399.6133">Production-eligible</text><text fill="#000000" font-family="Roboto" font-size="14" lengthAdjust="spacing" textLength="119.0342" x="540.1211" y="1416.0195">Scale: short &#183; prose</text><!--SRC=[TLPRRzis57xNhpXp7hfkizeqRf5um03vbgPDxK1sCMp38D0I8n6MH86auXf1zhVslb_MG-f6sJCCsERXTouybuzy1RSqfu8e6i6Zu1d87KsfuZbyMg-Mi3s030Khb7mZQ1vH4JJxGSH8B4WctUBWEgzWnY7d2cZ4bDPAI1xz2e8EHPc3IYZ4bHikN4VkM5uGr8M8Ff8oLGkUgoN9A0nylkMA3op8beIxMF0oZwOyvG8k5fx-M8XwKw1zk7OI5b6WMQ4EQBsAdV7SSVxwwMyO3d-3FDYpFE9xHoeyTBk4YybaDbzCd5Om1abLMS1__yBeNGUFk0wY1Pkb3NtRGMFzqq7Dqe9UNNVGi0h_Oh5Ot4n7JYiOGvXm5b9ZUjJXKvAZwTdbT3I_SUhb60IJB8-FmzYpE4wfPRiMdBEzvo8BGYB4mV9W2Mq_zXaC19i4BgRNym_JLakBq1VF2cmSh0NyM73957kYh_kGWGSVENR18wRqsRiC7loxF-SlWzP1neJGoM-3gWNd0ggsWp1b6VbsejR8UzeVEcrPf4GcHmUoX5Z9CWofbFtpz1233NR-1DDDfS8ZlJivKiBIr8hCBC_LKIf1IHPWTdPMCMtfkOeA4jhTOfRdagOtWqUMCvaSgJJISmapc7wwMj6PP5dxWsb2iaAtn_FajFGuaFbHhbhHkPF8dTt0UjL3zlB3yYtVdmJVISSGCHdo9uhzVtG26sJg_JnfwWphKXJeaWuwMgaugAQDXrA1Fh4_zsP_1BTpptzn6rAfW3Lfh1KjW9TAQdRRCvN0ytJrvS5RtgsMHiNWAfMMEdudwGuKD_HR2TsEMIfiJHmRiiEu_TNNpJpmWlkl_lpb15hdsePEEgWnrF1hJI_tdEyWJBb46qJtVx1O-P-3zTrj5NCDhBLiWlb8qy9Gm1Gpiz4-845cE55g2M23DC-fFgoUidjlEVlY-PyhBvrXorDLhpLLHsvqL-cxIgK7jsCOsrl76rEyU7Jzw2-WzXo_4a7f3oS4KodtU66gQSwuChKa4ECGuxt9Oeibt8OGQWEzGL_mDCLkqgNTbX9lQRFh7X52fLdFkwz_z71DLjxcvV-Xrb3L7dGtcugPUDs6FZhB7Itu-gglsgsMfIodxX5zM9frCeWAatvWRHZrqSticdR2gnCJfLsWqAtdkZ5fZ-AQug0a7HOo4b7Nld2q5huA-fpT2Ti8RL7deP4wAOtrMh0uKGxWI4SHzkUd4iaCcMP63YYSu6i8heRlDV5i68x3fVxtpnLaBCVj3I_mRHCVng1OHh5PdoXABs_mHOLl6CFcW3xG7lBdw6Tu0szp_JLyhHqA7fMXlbY7D6KnswPQUHsIb2Bh9bmeRQ0GE8OE6gd2_Gu0]--></g></svg>