<svg xmlns="http://www.w3.org/2000/svg" xmlns:xlink="http://www.w3.org/1999/xlink" contentStyleType="text/css" height="1822px" preserveAspectRatio="none" style="width:1321px;height:1822px;background:#FAFAFA;" version="1.1" viewBox="0 0 1321 1822" width="1321px" zoomAndPan="magnify"><defs><style type="text/css">@import url('https://fonts.googleapis.com/css?family=Roboto:400,100,100italic,300,300italic,400italic,500,500italic,700,700italic,900,900italic');</style></defs><g><rect fill="#FAFAFA" height="1822" style="stroke:none;stroke-width:1.0;" width="1321" x="0" y="0"/><ellipse cx="808" cy="16" fill="#222222" rx="10" ry="10" style="stroke:#222222;stroke-width:1.0;"/><g id="n_park"><rect fill="#BBDEFB" height="50.2656" rx="4" ry="4" style="stroke:#181818;stroke-width:0.5;" width="90.0898" x="763" y="87"/><line style="stroke:#181818;stroke-width:0.5;" x1="763" x2="853.0898" y1="113.2969" y2="113.2969"/><text fill="#000000" font-family="Roboto" font-size="14" lengthAdjust="spacing" textLength="47.2021" x="784.4438" y="104.9951">n_park</text><text fill="#000000" font-family="Roboto" font-size="12" lengthAdjust="spacing" textLength="70.0898" x="768" y="129.4355">setup &#183; 44w</text></g><g id="n_slip"><rect fill="#BBDEFB" height="50.2656" rx="4" ry="4" style="stroke:#181818;stroke-width:0.5;" width="90.0898" x="763" y="214"/><line style="stroke:#181818;stroke-width:0.5;" x1="763" x2="853.0898" y1="240.2969" y2="240.2969"/><text fill="#000000" font-family="Roboto" font-size="14" lengthAdjust="spacing" textLength="39.833" x="788.1284" y="231.9951">n_slip</text><text fill="#000000" font-family="Roboto" font-size="12" lengthAdjust="spacing" textLength="70.0898" x="768" y="256.4355">setup &#183; 42w</text></g><g id="n_run"><rect fill="#BBDEFB" height="50.2656" rx="4" ry="4" style="stroke:#181818;stroke-width:0.5;" width="90.0898" x="763" y="341"/><line style="stroke:#181818;stroke-width:0.5;" x1="763" x2="853.0898" y1="367.2969" y2="367.2969"/><text fill="#000000" font-family="Roboto" font-size="14" lengthAdjust="spacing" textLength="39.375" x="788.3574" y="358.9951">n_run</text><text fill="#000000" font-family="Roboto" font-size="12" lengthAdjust="spacing" textLength="70.0898" x="768" y="383.4355">setup &#183; 38w</text></g><g id="n_fork"><rect fill="#FFF9C4" height="50.2656" rx="4" ry="4" style="stroke:#181818;stroke-width:0.5;" width="95.3867" x="760.5" y="468"/><line style="stroke:#181818;stroke-width:0.5;" x1="760.5" x2="855.8867" y1="494.2969" y2="494.2969"/><text fill="#000000" font-family="Roboto" font-size="14" lengthAdjust="spacing" textLength="43.2305" x="786.5781" y="485.9951">n_fork</text><text fill="#000000" font-family="Roboto" font-size="12" lengthAdjust="spacing" textLength="75.3867" x="765.5" y="510.4355">choice &#183; 44w</text></g><g id="n_pond"><rect fill="#D1C4E9" height="50.2656" rx="4" ry="4" style="stroke:#181818;stroke-width:0.5;" width="89.6035" x="630" y="595"/><line style="stroke:#181818;stroke-width:0.5;" x1="630" x2="719.6035" y1="621.2969" y2="621.2969"/><text fill="#000000" font-family="Roboto" font-size="14" lengthAdjust="spacing" textLength="51.085" x="649.2593" y="612.9951">n_pond</text><text fill="#000000" font-family="Roboto" font-size="12" lengthAdjust="spacing" textLength="69.6035" x="635" y="637.4355">rising &#183; 40w</text></g><g id="n_ducks"><rect fill="#D1C4E9" height="50.2656" rx="4" ry="4" style="stroke:#181818;stroke-width:0.5;" width="89.6035" x="591" y="722"/><line style="stroke:#181818;stroke-width:0.5;" x1="591" x2="680.6035" y1="748.2969" y2="748.2969"/><text fill="#000000" font-family="Roboto" font-size="14" lengthAdjust="spacing" textLength="56.7314" x="607.436" y="739.9951">n_ducks</text><text fill="#000000" font-family="Roboto" font-size="12" lengthAdjust="spacing" textLength="69.6035" x="596" y="764.4355">rising &#183; 36w</text></g><g id="n_reeds"><rect fill="#FFF9C4" height="50.2656" rx="4" ry="4" style="stroke:#181818;stroke-width:0.5;" width="95.3867" x="435.5" y="849"/><line style="stroke:#181818;stroke-width:0.5;" x1="435.5" x2="530.8867" y1="875.2969" y2="875.2969"/><text fill="#000000" font-family="Roboto" font-size="14" lengthAdjust="spacing" textLength="55.0361" x="455.6753" y="866.9951">n_reeds</text><text fill="#000000" font-family="Roboto" font-size="12" lengthAdjust="spacing" textLength="75.3867" x="440.5" y="891.4355">choice &#183; 44w</text></g><g id="n_stones"><rect fill="#D1C4E9" height="50.2656" rx="4" ry="4" style="stroke:#181818;stroke-width:0.5;" width="89.6035" x="172" y="976"/><line style="stroke:#181818;stroke-width:0.5;" x1="172" x2="261.6035" y1="1002.2969" y2="1002.2969"/><text fill="#000000" font-family="Roboto" font-size="14" lengthAdjust="spacing" textLength="62.002" x="185.8008" y="993.9951">n_stones</text><text fill="#000000" font-family="Roboto" font-size="12" lengthAdjust="spacing" textLength="69.6035" x="177" y="1018.4355">rising &#183; 38w</text></g><g id="n_willow"><rect fill="#FFF9C4" height="50.2656" rx="4" ry="4" style="stroke:#181818;stroke-width:0.5;" width="95.3867" x="169.5" y="1103"/><line style="stroke:#181818;stroke-width:0.5;" x1="169.5" x2="264.8867" y1="1129.2969" y2="1129.2969"/><text fill="#000000" font-family="Roboto" font-size="14" lengthAdjust="spacing" textLength="59.0078" x="187.6895" y="1120.9951">n_willow</text><text fill="#000000" font-family="Roboto" font-size="12" lengthAdjust="spacing" textLength="75.3867" x="174.5" y="1145.4355">choice &#183; 42w</text></g><g id="n_stick"><rect fill="#D1C4E9" height="50.2656" rx="4" ry="4" style="stroke:#181818;stroke-width:0.5;" width="89.6035" x="7" y="1230"/><line style="stroke:#181818;stroke-width:0.5;" x1="7" x2="96.6035" y1="1256.2969" y2="1256.2969"/><text fill="#000000" font-family="Roboto" font-size="14" lengthAdjust="spacing" textLength="48.3506" x="27.6265" y="1247.9951">n_stick</text><text fill="#000000" font-family="Roboto" font-size="12" lengthAdjust="spacing" textLength="69.6035" x="12" y="1272.4355">rising &#183; 36w</text></g><g id="n_catch_end"><rect fill="#C8E6C9" height="64.2344" rx="4" ry="4" style="stroke:#181818;stroke-width:0.5;" width="180.7871" x="26.5" y="1437"/><line style="stroke:#181818;stroke-width:0.5;" x1="26.5" x2="207.2871" y1="1463.2969" y2="1463.2969"/><text fill="#000000" font-family="Roboto" font-size="14" lengthAdjust="spacing" textLength="87.582" x="73.1025" y="1454.9951">n_catch_end</text><text fill="#000000" font-family="Roboto" font-size="12" lengthAdjust="spacing" textLength="107.1855" x="31.5" y="1479.4355">success (positive)</text><text fill="#000000" font-family="Roboto" font-size="12" lengthAdjust="spacing" textLength="160.7871" x="31.5" y="1493.4043">"Caught Under the Willow"</text></g><g id="n_breeze"><rect fill="#D1C4E9" height="50.2656" rx="4" ry="4" style="stroke:#181818;stroke-width:0.5;" width="89.6035" x="217" y="1230"/><line style="stroke:#181818;stroke-width:0.5;" x1="217" x2="306.6035" y1="1256.2969" y2="1256.2969"/><text fill="#000000" font-family="Roboto" font-size="14" lengthAdjust="spacing" textLength="63.7041" x="229.9497" y="1247.9951">n_breeze</text><text fill="#000000" font-family="Roboto" font-size="12" lengthAdjust="spacing" textLength="69.6035" x="222" y="1272.4355">rising &#183; 38w</text></g><g id="n_drift"><rect fill="#D1C4E9" height="50.2656" rx="4" ry="4" style="stroke:#181818;stroke-width:0.5;" width="89.6035" x="224" y="1357"/><line style="stroke:#181818;stroke-width:0.5;" x1="224" x2="313.6035" y1="1383.2969" y2="1383.2969"/><text fill="#000000" font-family="Roboto" font-size="14" lengthAdjust="spacing" textLength="44.8232" x="246.3901" y="1374.9951">n_drift</text><text fill="#000000" font-family="Roboto" font-size="12" lengthAdjust="spacing" textLength="69.6035" x="229" y="1399.4355">rising &#183; 36w</text></g><g id="n_parade_end"><rect fill="#C8E6C9" height="64.2344" rx="4" ry="4" style="stroke:#181818;stroke-width:0.5;" width="191.1816" x="271.5" y="1531"/><line style="stroke:#181818;stroke-width:0.5;" x1="271.5" x2="462.6816" y1="1557.2969" y2="1557.2969"/><text fill="#000000" font-family="Roboto" font-size="14" lengthAdjust="spacing" textLength="98.5469" x="317.8174" y="1548.9951">n_parade_end</text><text fill="#000000" font-family="Roboto" font-size="12" lengthAdjust="spacing" textLength="117.9082" x="276.5" y="1573.4355">discovery (positive)</text><text fill="#000000" font-family="Roboto" font-size="12" lengthAdjust="spacing" textLength="171.1816" x="276.5" y="1587.4043">"Leader of the Duck Parade"</text></g><g id="n_boat"><rect fill="#D1C4E9" height="50.2656" rx="4" ry="4" style="stroke:#181818;stroke-width:0.5;" width="89.6035" x="438" y="976"/><line style="stroke:#181818;stroke-width:0.5;" x1="438" x2="527.6035" y1="1002.2969" y2="1002.2969"/><text fill="#000000" font-family="Roboto" font-size="14" lengthAdjust="spacing" textLength="47.3936" x="459.105" y="993.9951">n_boat</text><text fill="#000000" font-family="Roboto" font-size="12" lengthAdjust="spacing" textLength="69.6035" x="443" y="1018.4355">rising &#183; 40w</text></g><g id="n_pedal"><rect fill="#D1C4E9" height="50.2656" rx="4" ry="4" style="stroke:#181818;stroke-width:0.5;" width="89.6035" x="438" y="1103"/><line style="stroke:#181818;stroke-width:0.5;" x1="438" x2="527.6035" y1="1129.2969" y2="1129.2969"/><text fill="#000000" font-family="Roboto" font-size="14" lengthAdjust="spacing" textLength="54.7285" x="455.4375" y="1120.9951">n_pedal</text><text fill="#000000" font-family="Roboto" font-size="12" lengthAdjust="spacing" textLength="69.6035" x="443" y="1145.4355">rising &#183; 36w</text></g><g id="n_fountain"><rect fill="#D1C4E9" height="50.2656" rx="4" ry="4" style="stroke:#181818;stroke-width:0.5;" width="93.9443" x="443" y="1230"/><line style="stroke:#181818;stroke-width:0.5;" x1="443" x2="536.9443" y1="1256.2969" y2="1256.2969"/><text fill="#000000" font-family="Roboto" font-size="14" lengthAdjust="spacing" textLength="73.9443" x="453" y="1247.9951">n_fountain</text><text fill="#000000" font-family="Roboto" font-size="12" lengthAdjust="spacing" textLength="69.6035" x="448" y="1272.4355">rising &#183; 38w</text></g><g id="n_boat_end"><rect fill="#C8E6C9" height="64.2344" rx="4" ry="4" style="stroke:#181818;stroke-width:0.5;" width="148.0801" x="450" y="1437"/><line style="stroke:#181818;stroke-width:0.5;" x1="450" x2="598.0801" y1="1463.2969" y2="1463.2969"/><text fill="#000000" font-family="Roboto" font-size="14" lengthAdjust="spacing" textLength="80.7666" x="483.6567" y="1454.9951">n_boat_end</text><text fill="#000000" font-family="Roboto" font-size="12" lengthAdjust="spacing" textLength="107.1855" x="455" y="1479.4355">success (positive)</text><text fill="#000000" font-family="Roboto" font-size="12" lengthAdjust="spacing" textLength="128.0801" x="455" y="1493.4043">"The Fountain Catch"</text></g><g id="n_hill"><rect fill="#D1C4E9" height="50.2656" rx="4" ry="4" style="stroke:#181818;stroke-width:0.5;" width="89.6035" x="893" y="595"/><line style="stroke:#181818;stroke-width:0.5;" x1="893" x2="982.6035" y1="621.2969" y2="621.2969"/><text fill="#000000" font-family="Roboto" font-size="14" lengthAdjust="spacing" textLength="36.415" x="919.5942" y="612.9951">n_hill</text><text fill="#000000" font-family="Roboto" font-size="12" lengthAdjust="spacing" textLength="69.6035" x="898" y="637.4355">rising &#183; 40w</text></g><g id="n_bell"><rect fill="#D1C4E9" height="50.2656" rx="4" ry="4" style="stroke:#181818;stroke-width:0.5;" width="89.6035" x="895" y="722"/><line style="stroke:#181818;stroke-width:0.5;" x1="895" x2="984.6035" y1="748.2969" y2="748.2969"/><text fill="#000000" font-family="Roboto" font-size="14" lengthAdjust="spacing" textLength="41.1523" x="919.2256" y="739.9951">n_bell</text><text fill="#000000" font-family="Roboto" font-size="12" lengthAdjust="spacing" textLength="69.6035" x="900" y="764.4355">rising &#183; 36w</text></g><g id="n_hillside"><rect fill="#FFF9C4" height="50.2656" rx="4" ry="4" style="stroke:#181818;stroke-width:0.5;" width="95.3867" x="893.5" y="849"/><line style="stroke:#181818;stroke-width:0.5;" x1="893.5" x2="988.8867" y1="875.2969" y2="875.2969"/><text fill="#000000" font-family="Roboto" font-size="14" lengthAdjust="spacing" textLength="65.0986" x="908.644" y="866.9951">n_hillside</text><text fill="#000000" font-family="Roboto" font-size="12" lengthAdjust="spacing" textLength="75.3867" x="898.5" y="891.4355">choice &#183; 44w</text></g><g id="n_cart"><rect fill="#D1C4E9" height="50.2656" rx="4" ry="4" style="stroke:#181818;stroke-width:0.5;" width="89.6035" x="896" y="976"/><line style="stroke:#181818;stroke-width:0.5;" x1="896" x2="985.6035" y1="1002.2969" y2="1002.2969"/><text fill="#000000" font-family="Roboto" font-size="14" lengthAdjust="spacing" textLength="43.3945" x="919.1045" y="993.9951">n_cart</text><text fill="#000000" font-family="Roboto" font-size="12" lengthAdjust="spacing" textLength="69.6035" x="901" y="1018.4355">rising &#183; 40w</text></g><g id="n_umbrella"><rect fill="#FFF9C4" height="50.2656" rx="4" ry="4" style="stroke:#181818;stroke-width:0.5;" width="97.998" x="892" y="1103"/><line style="stroke:#181818;stroke-width:0.5;" x1="892" x2="989.998" y1="1129.2969" y2="1129.2969"/><text fill="#000000" font-family="Roboto" font-size="14" lengthAdjust="spacing" textLength="77.998" x="902" y="1120.9951">n_umbrella</text><text fill="#000000" font-family="Roboto" font-size="12" lengthAdjust="spacing" textLength="75.3867" x="897" y="1145.4355">choice &#183; 42w</text></g><g id="n_reachup"><rect fill="#D1C4E9" height="50.2656" rx="4" ry="4" style="stroke:#181818;stroke-width:0.5;" width="93.1514" x="635.5" y="1230"/><line style="stroke:#181818;stroke-width:0.5;" x1="635.5" x2="728.6514" y1="1256.2969" y2="1256.2969"/><text fill="#000000" font-family="Roboto" font-size="14" lengthAdjust="spacing" textLength="73.1514" x="645.5" y="1247.9951">n_reachup</text><text fill="#000000" font-family="Roboto" font-size="12" lengthAdjust="spacing" textLength="69.6035" x="640.5" y="1272.4355">rising &#183; 36w</text></g><g id="n_sundae_end"><rect fill="#C8E6C9" height="64.2344" rx="4" ry="4" style="stroke:#181818;stroke-width:0.5;" width="154.6777" x="604.5" y="1437"/><line style="stroke:#181818;stroke-width:0.5;" x1="604.5" x2="759.1777" y1="1463.2969" y2="1463.2969"/><text fill="#000000" font-family="Roboto" font-size="14" lengthAdjust="spacing" textLength="100.3652" x="631.6563" y="1454.9951">n_sundae_end</text><text fill="#000000" font-family="Roboto" font-size="12" lengthAdjust="spacing" textLength="127.1953" x="609.5" y="1479.4355">completion (positive)</text><text fill="#000000" font-family="Roboto" font-size="12" lengthAdjust="spacing" textLength="134.6777" x="609.5" y="1493.4043">"The Fanciest Rescue"</text></g><g id="n_stool"><rect fill="#D1C4E9" height="50.2656" rx="4" ry="4" style="stroke:#181818;stroke-width:0.5;" width="89.6035" x="887" y="1230"/><line style="stroke:#181818;stroke-width:0.5;" x1="887" x2="976.6035" y1="1256.2969" y2="1256.2969"/><text fill="#000000" font-family="Roboto" font-size="14" lengthAdjust="spacing" textLength="49.6768" x="906.9634" y="1247.9951">n_stool</text><text fill="#000000" font-family="Roboto" font-size="12" lengthAdjust="spacing" textLength="69.6035" x="892" y="1272.4355">rising &#183; 38w</text></g><g id="n_gust"><rect fill="#D1C4E9" height="50.2656" rx="4" ry="4" style="stroke:#181818;stroke-width:0.5;" width="89.6035" x="840" y="1357"/><line style="stroke:#181818;stroke-width:0.5;" x1="840" x2="929.6035" y1="1383.2969" y2="1383.2969"/><text fill="#000000" font-family="Roboto" font-size="14" lengthAdjust="spacing" textLength="46.416" x="861.5938" y="1374.9951">n_gust</text><text fill="#000000" font-family="Roboto" font-size="12" lengthAdjust="spacing" textLength="69.6035" x="845" y="1399.4355">rising &#183; 38w</text></g><g id="n_goodbye_end"><rect fill="#E0E0E0" height="64.2344" rx="4" ry="4" style="stroke:#181818;stroke-width:0.5;" width="181.0801" x="747.5" y="1531"/><line style="stroke:#181818;stroke-width:0.5;" x1="747.5" x2="928.5801" y1="1557.2969" y2="1557.2969"/><text fill="#000000" font-family="Roboto" font-size="14" lengthAdjust="spacing" textLength="109.9355" x="783.0723" y="1548.9951">n_goodbye_end</text><text fill="#000000" font-family="Roboto" font-size="12" lengthAdjust="spacing" textLength="102.9551" x="752.5" y="1573.4355">setback (neutral)</text><text fill="#000000" font-family="Roboto" font-size="12" lengthAdjust="spacing" textLength="161.0801" x="752.5" y="1587.4043">"The Strawberry Goodbye"</text></g><g id="n_top"><rect fill="#D1C4E9" height="50.2656" rx="4" ry="4" style="stroke:#181818;stroke-width:0.5;" width="89.6035" x="1125" y="976"/><line style="stroke:#181818;stroke-width:0.5;" x1="1125" x2="1214.6035" y1="1002.2969" y2="1002.2969"/><text fill="#000000" font-family="Roboto" font-size="14" lengthAdjust="spacing" textLength="38.8145" x="1150.3945" y="993.9951">n_top</text><text fill="#000000" font-family="Roboto" font-size="12" lengthAdjust="spacing" textLength="69.6035" x="1130" y="1018.4355">rising &#183; 40w</text></g><g id="n_kites"><rect fill="#D1C4E9" height="50.2656" rx="4" ry="4" style="stroke:#181818;stroke-width:0.5;" width="89.6035" x="1131" y="1103"/><line style="stroke:#181818;stroke-width:0.5;" x1="1131" x2="1220.6035" y1="1129.2969" y2="1129.2969"/><text fill="#000000" font-family="Roboto" font-size="14" lengthAdjust="spacing" textLength="49.2666" x="1151.1685" y="1120.9951">n_kites</text><text fill="#000000" font-family="Roboto" font-size="12" lengthAdjust="spacing" textLength="69.6035" x="1136" y="1145.4355">rising &#183; 38w</text></g><g id="n_reel"><rect fill="#D1C4E9" height="50.2656" rx="4" ry="4" style="stroke:#181818;stroke-width:0.5;" width="89.6035" x="1109" y="1230"/><line style="stroke:#181818;stroke-width:0.5;" x1="1109" x2="1198.6035" y1="1256.2969" y2="1256.2969"/><text fill="#000000" font-family="Roboto" font-size="14" lengthAdjust="spacing" textLength="42.7451" x="1132.4292" y="1247.9951">n_reel</text><text fill="#000000" font-family="Roboto" font-size="12" lengthAdjust="spacing" textLength="69.6035" x="1114" y="1272.4355">rising &#183; 36w</text></g><g id="n_kite_end"><rect fill="#C8E6C9" height="64.2344" rx="4" ry="4" style="stroke:#181818;stroke-width:0.5;" width="129.043" x="1024.5" y="1531"/><line style="stroke:#181818;stroke-width:0.5;" x1="1024.5" x2="1153.543" y1="1557.2969" y2="1557.2969"/><text fill="#000000" font-family="Roboto" font-size="14" lengthAdjust="spacing" textLength="75.3457" x="1051.3486" y="1548.9951">n_kite_end</text><text fill="#000000" font-family="Roboto" font-size="12" lengthAdjust="spacing" textLength="107.1855" x="1029.5" y="1573.4355">success (positive)</text><text fill="#000000" font-family="Roboto" font-size="12" lengthAdjust="spacing" textLength="109.043" x="1029.5" y="1587.4043">"The Kindest Kite"</text></g><ellipse cx="600" cy="1667" fill="none" rx="11" ry="11" style="stroke:#222222;stroke-width:1.0;"/><ellipse cx="600" cy="1667" fill="#222222" rx="6" ry="6" style="stroke:#222222;stroke-width:1.0;"/><!--link *start* to n_park--><g id="link_*start*_n_park"><path d="M808,26.01 C808,39.89 808,60.97 808,80.84 " fill="none" id="*start*-to-n_park" style="stroke:#181818;stroke-width:1.0;"/><polygon fill="#181818" points="808,86.84,812,77.84,808,81.84,804,77.84,808,86.84" style="stroke:#181818;stroke-width:1.0;"/></g><!--link n_park to n_slip--><g id="link_n_park_n_slip"><path d="M808,137.1 C808,159.24 808,185.86 808,207.97 " fill="none" id="n_park-to-n_slip" style="stroke:#181818;stroke-width:1.0;"/><polygon fill="#181818" points="808,213.97,812,204.97,808,208.97,804,204.97,808,213.97" style="stroke:#181818;stroke-width:1.0;"/><text fill="#000000" font-family="Roboto" font-size="13" lengthAdjust="spacing" textLength="163.3633" x="809" y="180.0669">Skip down the park path.</text></g><!--link n_slip to n_run--><g id="link_n_slip_n_run"><path d="M808,264.1 C808,286.24 808,312.86 808,334.97 " fill="none" id="n_slip-to-n_run" style="stroke:#181818;stroke-width:1.0;"/><polygon fill="#181818" points="808,340.97,812,331.97,808,335.97,804,331.97,808,340.97" style="stroke:#181818;stroke-width:1.0;"/><text fill="#000000" font-family="Roboto" font-size="13" lengthAdjust="spacing" textLength="172.4277" x="809" y="307.0669">Chase the big red balloon!</text></g><!--link n_run to n_fork--><g id="link_n_run_n_fork"><path d="M808,391.1 C808,413.24 808,439.86 808,461.97 " fill="none" id="n_run-to-n_fork" style="stroke:#181818;stroke-width:1.0;"/><polygon fill="#181818" points="808,467.97,812,458.97,808,462.97,804,458.97,808,467.97" style="stroke:#181818;stroke-width:1.0;"/><text fill="#000000" font-family="Roboto" font-size="13" lengthAdjust="spacing" textLength="188.5762" x="809" y="434.0669">Run to where the path splits.</text></g><!--link n_fork to n_pond--><g id="link_n_fork_n_pond"><path d="M760.18,500.54 C731,507.24 695.79,520.77 677,548 C667.69,561.5 666.7139,574.1931 668.6939,588.9831 " fill="none" id="n_fork-to-n_pond" style="stroke:#181818;stroke-width:1.0;"/><polygon fill="#181818" points="669.49,594.93,672.2604,585.4788,668.8265,589.9742,664.3312,586.5403,669.49,594.93" style="stroke:#181818;stroke-width:1.0;"/><text fill="#000000" font-family="Roboto" font-size="13" lengthAdjust="spacing" textLength="212.2021" x="678" y="561.0669">Follow it down to the duck pond.</text></g><!--link n_fork to n_hill--><g id="link_n_fork_n_hill"><path d="M855.84,516.06 C870.88,524.56 886.74,535.32 899,548 C912,561.44 919.5684,574.6037 926.1984,589.4137 " fill="none" id="n_fork-to-n_hill" style="stroke:#181818;stroke-width:1.0;"/><polygon fill="#181818" points="928.65,594.89,928.6235,585.0412,926.607,590.3264,921.3218,588.3099,928.65,594.89" style="stroke:#181818;stroke-width:1.0;"/><text fill="#000000" font-family="Roboto" font-size="13" lengthAdjust="spacing" textLength="130.4126" x="913" y="561.0669">Follow it up kite hill.</text></g><!--link n_pond to n_ducks--><g id="link_n_pond_n_ducks"><path d="M667.48,645.1 C660.57,667.24 652.1874,694.1324 645.2874,716.2424 " fill="none" id="n_pond-to-n_ducks" style="stroke:#181818;stroke-width:1.0;"/><polygon fill="#181818" points="643.5,721.97,649.9995,714.5703,644.9895,717.197,642.3628,712.187,643.5,721.97" style="stroke:#181818;stroke-width:1.0;"/><text fill="#000000" font-family="Roboto" font-size="13" lengthAdjust="spacing" textLength="152.9531" x="659" y="688.0669">Hurry around the pond.</text></g><!--link n_ducks to n_reeds--><g id="link_n_ducks_n_reeds"><path d="M606.5,772.1 C579.41,794.24 544.1163,823.0637 517.0563,845.1737 " fill="none" id="n_ducks-to-n_reeds" style="stroke:#181818;stroke-width:1.0;"/><polygon fill="#181818" points="512.41,848.97,521.9103,846.373,516.2819,845.8064,516.8485,840.178,512.41,848.97" style="stroke:#181818;stroke-width:1.0;"/><text fill="#000000" font-family="Roboto" font-size="13" lengthAdjust="spacing" textLength="195.0381" x="570" y="815.0669">Go to the reeds by the willow.</text></g><!--link n_reeds to n_stones--><g id="link_n_reeds_n_stones"><path d="M435.24,880.95 C375.35,889.27 277.08,905.96 249,929 C234.68,940.75 228.1805,954.4944 223.6905,970.0844 " fill="none" id="n_reeds-to-n_stones" style="stroke:#181818;stroke-width:1.0;"/><polygon fill="#181818" points="222.03,975.85,228.3646,968.3086,223.4138,971.0453,220.677,966.0945,222.03,975.85" style="stroke:#181818;stroke-width:1.0;"/><text fill="#000000" font-family="Roboto" font-size="13" lengthAdjust="spacing" textLength="224.1167" x="250" y="942.0669">Tiptoe across the stepping stones.</text></g><!--link n_reeds to n_boat--><g id="link_n_reeds_n_boat"><path d="M483,899.1 C483,921.24 483,947.86 483,969.97 " fill="none" id="n_reeds-to-n_boat" style="stroke:#181818;stroke-width:1.0;"/><polygon fill="#181818" points="483,975.97,487,966.97,483,970.97,479,966.97,483,975.97" style="stroke:#181818;stroke-width:1.0;"/><text fill="#000000" font-family="Roboto" font-size="13" lengthAdjust="spacing" textLength="197.374" x="484" y="942.0669">Wave to the paddle-boat lady.</text></g><!--link n_stones to n_willow--><g id="link_n_stones_n_willow"><path d="M217,1026.1 C217,1048.24 217,1074.86 217,1096.97 " fill="none" id="n_stones-to-n_willow" style="stroke:#181818;stroke-width:1.0;"/><polygon fill="#181818" points="217,1102.97,221,1093.97,217,1097.97,213,1093.97,217,1102.97" style="stroke:#181818;stroke-width:1.0;"/><text fill="#000000" font-family="Roboto" font-size="13" lengthAdjust="spacing" textLength="145.5454" x="218" y="1069.0669">Stop under the willow.</text></g><!--link n_willow to n_stick--><g id="link_n_willow_n_stick"><path d="M169.26,1128.84 C127.4,1131.55 68.72,1142.92 39,1183 C29.07,1196.39 30.7087,1209.4724 36.7387,1224.2924 " fill="none" id="n_willow-to-n_stick" style="stroke:#181818;stroke-width:1.0;"/><polygon fill="#181818" points="39,1229.85,39.3131,1220.0061,37.1156,1225.2187,31.903,1223.0212,39,1229.85" style="stroke:#181818;stroke-width:1.0;"/><text fill="#000000" font-family="Roboto" font-size="13" lengthAdjust="spacing" textLength="188.7983" x="40" y="1196.0669">Reach up with the long stick.</text></g><!--link n_willow to n_breeze--><g id="link_n_willow_n_breeze"><path d="M225.68,1153.1 C233.64,1175.24 243.3576,1202.2147 251.3176,1224.3247 " fill="none" id="n_willow-to-n_breeze" style="stroke:#181818;stroke-width:1.0;"/><polygon fill="#181818" points="253.35,1229.97,254.0649,1220.1471,251.6563,1225.2656,246.5379,1222.857,253.35,1229.97" style="stroke:#181818;stroke-width:1.0;"/><text fill="#000000" font-family="Roboto" font-size="13" lengthAdjust="spacing" textLength="179.0991" x="244" y="1196.0669">Wait for the breeze to help.</text></g><!--link n_stick to n_catch_end--><g id="link_n_stick_n_catch_end"><path d="M59.46,1280.32 C71.29,1318.93 92.6203,1388.4938 105.6703,1431.0338 " fill="none" id="n_stick-to-n_catch_end" style="stroke:#181818;stroke-width:1.0;"/><polygon fill="#181818" points="107.43,1436.77,108.6146,1426.9926,105.9636,1431.9899,100.9664,1429.3389,107.43,1436.77" style="stroke:#181818;stroke-width:1.0;"/><text fill="#000000" font-family="Roboto" font-size="13" lengthAdjust="spacing" textLength="109.6558" x="75" y="1323.0669">Catch the string!</text></g><!--link n_breeze to n_drift--><g id="link_n_breeze_n_drift"><path d="M263.35,1280.1 C264.59,1302.24 266.0867,1328.8693 267.3167,1350.9793 " fill="none" id="n_breeze-to-n_drift" style="stroke:#181818;stroke-width:1.0;"/><polygon fill="#181818" points="267.65,1356.97,271.1439,1347.7617,267.3723,1351.9777,263.1563,1348.2061,267.65,1356.97" style="stroke:#181818;stroke-width:1.0;"/><text fill="#000000" font-family="Roboto" font-size="13" lengthAdjust="spacing" textLength="137.7314" x="267" y="1323.0669">Watch where it goes.</text></g><!--link n_drift to n_parade_end--><g id="link_n_drift_n_parade_end"><path d="M260.15,1407.39 C252.62,1432.59 245.42,1472.19 262,1501 C268.89,1512.97 274.2178,1519.3646 285.6378,1527.3746 " fill="none" id="n_drift-to-n_parade_end" style="stroke:#181818;stroke-width:1.0;"/><polygon fill="#181818" points="290.55,1530.82,285.4787,1522.3771,286.4565,1527.9488,280.8848,1528.9267,290.55,1530.82" style="stroke:#181818;stroke-width:1.0;"/><text fill="#000000" font-family="Roboto" font-size="13" lengthAdjust="spacing" textLength="168.5049" x="263" y="1473.5669">Wave to the duck parade.</text></g><!--link n_boat to n_pedal--><g id="link_n_boat_n_pedal"><path d="M483,1026.1 C483,1048.24 483,1074.86 483,1096.97 " fill="none" id="n_boat-to-n_pedal" style="stroke:#181818;stroke-width:1.0;"/><polygon fill="#181818" points="483,1102.97,487,1093.97,483,1097.97,479,1093.97,483,1102.97" style="stroke:#181818;stroke-width:1.0;"/><text fill="#000000" font-family="Roboto" font-size="13" lengthAdjust="spacing" textLength="152.1025" x="484" y="1069.0669">Pedal after the balloon.</text></g><!--link n_pedal to n_fountain--><g id="link_n_pedal_n_fountain"><path d="M480.39,1153.03 C479.29,1166.8 478.57,1184.4 480,1200 C480.91,1209.87 481.5655,1214.7541 483.4055,1224.0541 " fill="none" id="n_pedal-to-n_fountain" style="stroke:#181818;stroke-width:1.0;"/><polygon fill="#181818" points="484.57,1229.94,486.7472,1220.3348,483.5996,1225.0351,478.8993,1221.8875,484.57,1229.94" style="stroke:#181818;stroke-width:1.0;"/><text fill="#000000" font-family="Roboto" font-size="13" lengthAdjust="spacing" textLength="158.9199" x="481" y="1196.0669">Follow it to the fountain.</text></g><!--link n_fountain to n_boat_end--><g id="link_n_fountain_n_boat_end"><path d="M493.9,1280.32 C500.09,1318.93 511.2202,1388.3057 518.0402,1430.8457 " fill="none" id="n_fountain-to-n_boat_end" style="stroke:#181818;stroke-width:1.0;"/><polygon fill="#181818" points="518.99,1436.77,521.5149,1427.2503,518.1985,1431.833,513.6158,1428.5167,518.99,1436.77" style="stroke:#181818;stroke-width:1.0;"/><text fill="#000000" font-family="Roboto" font-size="13" lengthAdjust="spacing" textLength="136.4238" x="503" y="1323.0669">Hold out both hands.</text></g><!--link n_hill to n_bell--><g id="link_n_hill_n_bell"><path d="M938.39,645.1 C938.74,667.24 939.1623,693.8608 939.5223,715.9708 " fill="none" id="n_hill-to-n_bell" style="stroke:#181818;stroke-width:1.0;"/><polygon fill="#181818" points="939.62,721.97,943.4729,712.9061,939.5386,716.9707,935.474,713.0363,939.62,721.97" style="stroke:#181818;stroke-width:1.0;"/><text fill="#000000" font-family="Roboto" font-size="13" lengthAdjust="spacing" textLength="221.6348" x="940" y="688.0669">Keep climbing toward the sounds.</text></g><!--link n_bell to n_hillside--><g id="link_n_bell_n_hillside"><path d="M940.19,772.1 C940.37,794.24 940.5812,820.8602 940.7612,842.9702 " fill="none" id="n_bell-to-n_hillside" style="stroke:#181818;stroke-width:1.0;"/><polygon fill="#181818" points="940.81,848.97,944.7366,839.9377,940.7693,843.9702,936.7369,840.0029,940.81,848.97" style="stroke:#181818;stroke-width:1.0;"/><text fill="#000000" font-family="Roboto" font-size="13" lengthAdjust="spacing" textLength="185.0215" x="941" y="815.0669">See where the balloon goes.</text></g><!--link n_hillside to n_cart--><g id="link_n_hillside_n_cart"><path d="M941,899.1 C941,921.24 941,947.86 941,969.97 " fill="none" id="n_hillside-to-n_cart" style="stroke:#181818;stroke-width:1.0;"/><polygon fill="#181818" points="941,975.97,945,966.97,941,970.97,937,966.97,941,975.97" style="stroke:#181818;stroke-width:1.0;"/><text fill="#000000" font-family="Roboto" font-size="13" lengthAdjust="spacing" textLength="170.6821" x="942" y="942.0669">Run to the ice-cream cart.</text></g><!--link n_hillside to n_top--><g id="link_n_hillside_n_top"><path d="M988.84,880.49 C1027.53,886.89 1081.83,900.49 1121,929 C1137.47,940.99 1147.4093,954.9959 1155.7893,970.4459 " fill="none" id="n_hillside-to-n_top" style="stroke:#181818;stroke-width:1.0;"/><polygon fill="#181818" points="1158.65,975.72,1157.8751,965.9017,1156.2661,971.3249,1150.8429,969.7159,1158.65,975.72" style="stroke:#181818;stroke-width:1.0;"/><text fill="#000000" font-family="Roboto" font-size="13" lengthAdjust="spacing" textLength="163.2871" x="1139" y="942.0669">Climb up to the kite kids.</text></g><!--link n_cart to n_umbrella--><g id="link_n_cart_n_umbrella"><path d="M939.13,1026.31 C938.29,1040.02 937.57,1057.46 938,1073 C938.27,1082.76 938.4665,1087.5104 939.0165,1096.8304 " fill="none" id="n_cart-to-n_umbrella" style="stroke:#181818;stroke-width:1.0;"/><polygon fill="#181818" points="939.37,1102.82,942.8329,1093.6,939.0754,1097.8287,934.8468,1094.0713,939.37,1102.82" style="stroke:#181818;stroke-width:1.0;"/><text fill="#000000" font-family="Roboto" font-size="13" lengthAdjust="spacing" textLength="193.0957" x="939" y="1069.0669">Look up at the tangled string.</text></g><!--link n_umbrella to n_reachup--><g id="link_n_umbrella_n_reachup"><path d="M891.95,1134.05 C829.91,1141.43 727.91,1157.15 701,1183 C688.49,1195.02 684.4955,1208.3396 682.9555,1223.7796 " fill="none" id="n_umbrella-to-n_reachup" style="stroke:#181818;stroke-width:1.0;"/><polygon fill="#181818" points="682.36,1229.75,687.2335,1221.1914,682.8562,1224.7747,679.273,1220.3974,682.36,1229.75" style="stroke:#181818;stroke-width:1.0;"/><text fill="#000000" font-family="Roboto" font-size="13" lengthAdjust="spacing" textLength="225.3481" x="702" y="1196.0669">Ask the ice-cream man to reach it.</text></g><!--link n_umbrella to n_stool--><g id="link_n_umbrella_n_stool"><path d="M939.26,1153.1 C937.67,1175.24 935.7504,1201.8755 934.1604,1223.9855 " fill="none" id="n_umbrella-to-n_stool" style="stroke:#181818;stroke-width:1.0;"/><polygon fill="#181818" points="933.73,1229.97,938.3652,1221.2801,934.0886,1224.9829,930.3859,1220.7063,933.73,1229.97" style="stroke:#181818;stroke-width:1.0;"/><text fill="#000000" font-family="Roboto" font-size="13" lengthAdjust="spacing" textLength="185.4468" x="938" y="1196.0669">Climb the step stool and try.</text></g><!--link n_reachup to n_sundae_end--><g id="link_n_reachup_n_sundae_end"><path d="M682,1280.32 C682,1318.93 682,1388.23 682,1430.77 " fill="none" id="n_reachup-to-n_sundae_end" style="stroke:#181818;stroke-width:1.0;"/><polygon fill="#181818" points="682,1436.77,686,1427.77,682,1431.77,678,1427.77,682,1436.77" style="stroke:#181818;stroke-width:1.0;"/><text fill="#000000" font-family="Roboto" font-size="13" lengthAdjust="spacing" textLength="147.7798" x="683" y="1323.0669">Take the balloon back.</text></g><!--link n_stool to n_gust--><g id="link_n_stool_n_gust"><path d="M922.94,1280.1 C914.62,1302.24 904.4631,1329.2444 896.1431,1351.3544 " fill="none" id="n_stool-to-n_gust" style="stroke:#181818;stroke-width:1.0;"/><polygon fill="#181818" points="894.03,1356.97,900.9434,1349.9554,895.791,1352.2904,893.456,1347.1379,894.03,1356.97" style="stroke:#181818;stroke-width:1.0;"/><text fill="#000000" font-family="Roboto" font-size="13" lengthAdjust="spacing" textLength="142.3018" x="913" y="1323.0669">Reach one more inch.</text></g><!--link n_gust to n_goodbye_end--><g id="link_n_gust_n_goodbye_end"><path d="M878.66,1407.14 C870.27,1439.11 856.9734,1489.7366 847.7334,1524.9366 " fill="none" id="n_gust-to-n_goodbye_end" style="stroke:#181818;stroke-width:1.0;"/><polygon fill="#181818" points="846.21,1530.74,852.364,1523.0505,847.4795,1525.9038,844.6262,1521.0193,846.21,1530.74" style="stroke:#181818;stroke-width:1.0;"/><text fill="#000000" font-family="Roboto" font-size="13" lengthAdjust="spacing" textLength="78.6157" x="871" y="1473.5669">Watch it go.</text></g><!--link n_top to n_kites--><g id="link_n_top_n_kites"><path d="M1171.16,1026.1 C1172.22,1048.24 1173.5027,1074.8669 1174.5627,1096.9769 " fill="none" id="n_top-to-n_kites" style="stroke:#181818;stroke-width:1.0;"/><polygon fill="#181818" points="1174.85,1102.97,1178.4144,1093.7888,1174.6106,1097.9757,1170.4236,1094.1719,1174.85,1102.97" style="stroke:#181818;stroke-width:1.0;"/><text fill="#000000" font-family="Roboto" font-size="13" lengthAdjust="spacing" textLength="82.6973" x="1174" y="1069.0669">Ask Jo to try.</text></g><!--link n_kites to n_reel--><g id="link_n_kites_n_reel"><path d="M1171.76,1153.1 C1167.86,1175.24 1163.1597,1201.9508 1159.2697,1224.0608 " fill="none" id="n_kites-to-n_reel" style="stroke:#181818;stroke-width:1.0;"/><polygon fill="#181818" points="1158.23,1229.97,1163.729,1221.7993,1159.0964,1225.0456,1155.85,1220.413,1158.23,1229.97" style="stroke:#181818;stroke-width:1.0;"/><text fill="#000000" font-family="Roboto" font-size="13" lengthAdjust="spacing" textLength="146.999" x="1167" y="1196.0669">Reel them in together.</text></g><!--link n_reel to n_kite_end--><g id="link_n_reel_n_kite_end"><path d="M1148.9,1280.01 C1137.23,1334.96 1109.8268,1463.941 1096.8368,1525.091 " fill="none" id="n_reel-to-n_kite_end" style="stroke:#181818;stroke-width:1.0;"/><polygon fill="#181818" points="1095.59,1530.96,1101.3728,1522.9876,1096.629,1526.0691,1093.5474,1521.3253,1095.59,1530.96" style="stroke:#181818;stroke-width:1.0;"/><text fill="#000000" font-family="Roboto" font-size="13" lengthAdjust="spacing" textLength="151.3345" x="1133" y="1386.5669">Take hold of the string.</text></g><!--link n_catch_end to *end*--><g id="link_n_catch_end_*end*"><path d="M142.17,1501.06 C167.37,1529.98 208.81,1571.99 254,1595 C374.49,1656.36 538.1119,1664.5385 582.8419,1665.6685 " fill="none" id="n_catch_end-to-*end*" style="stroke:#181818;stroke-width:1.0;"/><polygon fill="#181818" points="588.84,1665.82,579.9439,1661.594,583.8416,1665.6937,579.7419,1669.5914,588.84,1665.82" style="stroke:#181818;stroke-width:1.0;"/></g><!--link n_parade_end to *end*--><g id="link_n_parade_end_*end*"><path d="M437.86,1595.02 C493.02,1619.17 558.9043,1648.0023 584.6743,1659.2923 " fill="none" id="n_parade_end-to-*end*" style="stroke:#181818;stroke-width:1.0;"/><polygon fill="#181818" points="590.17,1661.7,583.5316,1654.4246,585.5902,1659.6936,580.3213,1661.7522,590.17,1661.7" style="stroke:#181818;stroke-width:1.0;"/></g><!--link n_boat_end to *end*--><g id="link_n_boat_end_*end*"><path d="M536.04,1501.06 C553.62,1546.39 583.2314,1622.7456 594.0814,1650.7356 " fill="none" id="n_boat_end-to-*end*" style="stroke:#181818;stroke-width:1.0;"/><polygon fill="#181818" points="596.25,1656.33,596.7267,1646.4927,594.4428,1651.668,589.2675,1649.3842,596.25,1656.33" style="stroke:#181818;stroke-width:1.0;"/></g><!--link n_sundae_end to *end*--><g id="link_n_sundae_end_*end*"><path d="M669.01,1501.06 C650.04,1546.39 618.064,1622.8042 606.364,1650.7942 " fill="none" id="n_sundae_end-to-*end*" style="stroke:#181818;stroke-width:1.0;"/><polygon fill="#181818" points="604.05,1656.33,611.2116,1649.5689,605.9783,1651.7168,603.8305,1646.4836,604.05,1656.33" style="stroke:#181818;stroke-width:1.0;"/></g><!--link n_goodbye_end to *end*--><g id="link_n_goodbye_end_*end*"><path d="M765.62,1595.02 C709.28,1619.17 641.8844,1648.0455 615.5544,1659.3355 " fill="none" id="n_goodbye_end-to-*end*" style="stroke:#181818;stroke-width:1.0;"/><polygon fill="#181818" points="610.04,1661.7,619.888,1661.8295,614.6354,1659.7296,616.7353,1654.4769,610.04,1661.7" style="stroke:#181818;stroke-width:1.0;"/></g><!--link n_kite_end to *end*--><g id="link_n_kite_end_*end*"><path d="M1024.25,1578.2 C999.75,1583.53 971.6,1589.6 946,1595 C814,1622.85 659.2323,1654.0875 616.6523,1662.6475 " fill="none" id="n_kite_end-to-*end*" style="stroke:#181818;stroke-width:1.0;"/><polygon fill="#181818" points="610.77,1663.83,620.3818,1665.9777,615.6719,1662.8445,618.8051,1658.1346,610.77,1663.83" style="stroke:#181818;stroke-width:1.0;"/></g><rect fill="none" height="107.7813" id="_legend" rx="4" ry="4" style="stroke:#000000;stroke-width:1.0;" width="251.5068" x="1044.4922" y="1695"/><text fill="#000000" font-family="Roboto" font-size="14" lengthAdjust="spacing" textLength="140.9639" x="1049.4922" y="1712.9951">The Big Red Balloon</text><text fill="#000000" font-family="Roboto" font-size="14" lengthAdjust="spacing" textLength="181.6172" x="1049.4922" y="1729.292">Band 3-5 &#183; Tier 1 &#183; ~4 min</text><text fill="#000000" font-family="Roboto" font-size="14" lengthAdjust="spacing" textLength="145.168" x="1049.4922" y="1745.5889">Topology: time_cave</text><text fill="#000000" font-family="Roboto" font-size="14" lengthAdjust="spacing" textLength="241.5068" x="1049.4922" y="1761.8857">32 nodes &#183; 6 endings (5+ / 1n / 0-)</text><text fill="#000000" font-family="Roboto" font-size="14" lengthAdjust="spacing" textLength="130.6484" x="1049.4922" y="1778.1826">Production-eligible</text><text fill="#000000" font-family="Roboto" font-size="14" lengthAdjust="spacing" textLength="156.8369" x="1049.4922" y="1794.4795">Scale: medium &#183; prose</text></g></svg>