<svg xmlns="http://www.w3.org/2000/svg" xmlns:xlink="http://www.w3.org/1999/xlink" contentStyleType="text/css" height="1126px" preserveAspectRatio="none" style="width:1134px;height:1126px;background:#FAFAFA;" version="1.1" viewBox="0 0 1134 1126" width="1134px" zoomAndPan="magnify"><defs><style type="text/css">@import url('https://fonts.googleapis.com/css?family=Roboto:400,100,100italic,300,300italic,400italic,500,500italic,700,700italic,900,900italic');</style></defs><g><rect fill="#FAFAFA" height="1126" style="stroke:none;stroke-width:1.0;" width="1134" x="0" y="0"/><ellipse cx="534" cy="16" fill="#222222" rx="10" ry="10" style="stroke:#222222;stroke-width:1.0;"/><g id="n_start"><rect fill="#BBDEFB" height="50.4688" rx="4" ry="4" style="stroke:#181818;stroke-width:0.5;" width="81.4297" x="493.5" y="87"/><line style="stroke:#181818;stroke-width:0.5;" x1="493.5" x2="574.9297" y1="113.4063" y2="113.4063"/><text fill="#000000" font-family="Roboto" font-size="14" lengthAdjust="spacing" textLength="42.793" x="512.8184" y="104.9883">n_start</text><text fill="#000000" font-family="Roboto" font-size="12" lengthAdjust="spacing" textLength="61.4297" x="498.5" y="129.5391">setup &#183; 45w</text></g><g id="n_daisies"><rect fill="#FFF9C4" height="50.4688" rx="4" ry="4" style="stroke:#181818;stroke-width:0.5;" width="86.8906" x="248.5" y="214"/><line style="stroke:#181818;stroke-width:0.5;" x1="248.5" x2="335.3906" y1="240.4063" y2="240.4063"/><text fill="#000000" font-family="Roboto" font-size="14" lengthAdjust="spacing" textLength="58.2422" x="262.8242" y="231.9883">n_daisies</text><text fill="#000000" font-family="Roboto" font-size="12" lengthAdjust="spacing" textLength="66.8906" x="253.5" y="256.5391">choice &#183; 40w</text></g><g id="n_bee_end"><rect fill="#FFCDD2" height="64.5313" rx="4" ry="4" style="stroke:#181818;stroke-width:0.5;" width="139.8359" x="7" y="421"/><line style="stroke:#181818;stroke-width:0.5;" x1="7" x2="146.8359" y1="447.4063" y2="447.4063"/><text fill="#000000" font-family="Roboto" font-size="14" lengthAdjust="spacing" textLength="66.124" x="43.856" y="438.9883">n_bee_end</text><text fill="#000000" font-family="Roboto" font-size="12" lengthAdjust="spacing" textLength="98.6484" x="12" y="463.5391">setback (negative)</text><text fill="#000000" font-family="Roboto" font-size="12" lengthAdjust="spacing" textLength="119.8359" x="12" y="477.6016">"The Busy Bumblebee"</text></g><g id="n_birdbath"><rect fill="#D1C4E9" height="50.4688" rx="4" ry="4" style="stroke:#181818;stroke-width:0.5;" width="85.7207" x="213" y="341"/><line style="stroke:#181818;stroke-width:0.5;" x1="213" x2="298.7207" y1="367.4063" y2="367.4063"/><text fill="#000000" font-family="Roboto" font-size="14" lengthAdjust="spacing" textLength="65.7207" x="223" y="358.9883">n_birdbath</text><text fill="#000000" font-family="Roboto" font-size="12" lengthAdjust="spacing" textLength="61.0547" x="218" y="383.5391">rising &#183; 38w</text></g><g id="n_strawberries"><rect fill="#D1C4E9" height="50.4688" rx="4" ry="4" style="stroke:#181818;stroke-width:0.5;" width="111.5605" x="165" y="516"/><line style="stroke:#181818;stroke-width:0.5;" x1="165" x2="276.5605" y1="542.4063" y2="542.4063"/><text fill="#000000" font-family="Roboto" font-size="14" lengthAdjust="spacing" textLength="91.5605" x="175" y="533.9883">n_strawberries</text><text fill="#000000" font-family="Roboto" font-size="12" lengthAdjust="spacing" textLength="61.0547" x="170" y="558.5391">rising &#183; 38w</text></g><g id="n_meadow"><rect fill="#FFF9C4" height="50.4688" rx="4" ry="4" style="stroke:#181818;stroke-width:0.5;" width="87.7646" x="177" y="691"/><line style="stroke:#181818;stroke-width:0.5;" x1="177" x2="264.7646" y1="717.4063" y2="717.4063"/><text fill="#000000" font-family="Roboto" font-size="14" lengthAdjust="spacing" textLength="67.7646" x="187" y="708.9883">n_meadow</text><text fill="#000000" font-family="Roboto" font-size="12" lengthAdjust="spacing" textLength="66.8906" x="182" y="733.5391">choice &#183; 40w</text></g><g id="n_nose_end"><rect fill="#C8E6C9" height="64.5313" rx="4" ry="4" style="stroke:#181818;stroke-width:0.5;" width="132.957" x="136.5" y="866"/><line style="stroke:#181818;stroke-width:0.5;" x1="136.5" x2="269.457" y1="892.4063" y2="892.4063"/><text fill="#000000" font-family="Roboto" font-size="14" lengthAdjust="spacing" textLength="73.7803" x="166.0884" y="883.9883">n_nose_end</text><text fill="#000000" font-family="Roboto" font-size="12" lengthAdjust="spacing" textLength="112.957" x="141.5" y="908.5391">completion (positive)</text><text fill="#000000" font-family="Roboto" font-size="12" lengthAdjust="spacing" textLength="96.4922" x="141.5" y="922.6016">"On Clovers Nose"</text></g><g id="n_crown_end"><rect fill="#C8E6C9" height="64.5313" rx="4" ry="4" style="stroke:#181818;stroke-width:0.5;" width="117.3301" x="306.5" y="866"/><line style="stroke:#181818;stroke-width:0.5;" x1="306.5" x2="423.8301" y1="892.4063" y2="892.4063"/><text fill="#000000" font-family="Roboto" font-size="14" lengthAdjust="spacing" textLength="81.7236" x="324.3032" y="883.9883">n_crown_end</text><text fill="#000000" font-family="Roboto" font-size="12" lengthAdjust="spacing" textLength="97.0957" x="311.5" y="908.5391">success (positive)</text><text fill="#000000" font-family="Roboto" font-size="12" lengthAdjust="spacing" textLength="97.3301" x="311.5" y="922.6016">"The Daisy Crown"</text></g><g id="n_pond"><rect fill="#FFF9C4" height="50.4688" rx="4" ry="4" style="stroke:#181818;stroke-width:0.5;" width="86.8906" x="490.5" y="214"/><line style="stroke:#181818;stroke-width:0.5;" x1="490.5" x2="577.3906" y1="240.4063" y2="240.4063"/><text fill="#000000" font-family="Roboto" font-size="14" lengthAdjust="spacing" textLength="45.5205" x="511.1851" y="231.9883">n_pond</text><text fill="#000000" font-family="Roboto" font-size="12" lengthAdjust="spacing" textLength="66.8906" x="495.5" y="256.5391">choice &#183; 40w</text></g><g id="n_frog_end"><rect fill="#FFCDD2" height="64.5313" rx="4" ry="4" style="stroke:#181818;stroke-width:0.5;" width="118.6484" x="418.5" y="596"/><line style="stroke:#181818;stroke-width:0.5;" x1="418.5" x2="537.1484" y1="622.4063" y2="622.4063"/><text fill="#000000" font-family="Roboto" font-size="14" lengthAdjust="spacing" textLength="68.8721" x="443.3882" y="613.9883">n_frog_end</text><text fill="#000000" font-family="Roboto" font-size="12" lengthAdjust="spacing" textLength="98.6484" x="423.5" y="638.5391">setback (negative)</text><text fill="#000000" font-family="Roboto" font-size="12" lengthAdjust="spacing" textLength="88.2773" x="423.5" y="652.6016">"Peekaboo Frog"</text></g><g id="n_reeds"><rect fill="#D1C4E9" height="50.4688" rx="4" ry="4" style="stroke:#181818;stroke-width:0.5;" width="81.0547" x="679.5" y="341"/><line style="stroke:#181818;stroke-width:0.5;" x1="679.5" x2="760.5547" y1="367.4063" y2="367.4063"/><text fill="#000000" font-family="Roboto" font-size="14" lengthAdjust="spacing" textLength="48.7607" x="695.647" y="358.9883">n_reeds</text><text fill="#000000" font-family="Roboto" font-size="12" lengthAdjust="spacing" textLength="61.0547" x="684.5" y="383.5391">rising &#183; 38w</text></g><g id="n_hedgehog"><rect fill="#D1C4E9" height="50.4688" rx="4" ry="4" style="stroke:#181818;stroke-width:0.5;" width="95.9199" x="541" y="516"/><line style="stroke:#181818;stroke-width:0.5;" x1="541" x2="636.9199" y1="542.4063" y2="542.4063"/><text fill="#000000" font-family="Roboto" font-size="14" lengthAdjust="spacing" textLength="75.9199" x="551" y="533.9883">n_hedgehog</text><text fill="#000000" font-family="Roboto" font-size="12" lengthAdjust="spacing" textLength="61.0547" x="546" y="558.5391">rising &#183; 38w</text></g><g id="n_friend"><rect fill="#D1C4E9" height="50.4688" rx="4" ry="4" style="stroke:#181818;stroke-width:0.5;" width="81.0547" x="534.5" y="691"/><line style="stroke:#181818;stroke-width:0.5;" x1="534.5" x2="615.5547" y1="717.4063" y2="717.4063"/><text fill="#000000" font-family="Roboto" font-size="14" lengthAdjust="spacing" textLength="50.1143" x="549.9702" y="708.9883">n_friend</text><text fill="#000000" font-family="Roboto" font-size="12" lengthAdjust="spacing" textLength="61.0547" x="539.5" y="733.5391">rising &#183; 38w</text></g><g id="n_share_end"><rect fill="#C8E6C9" height="64.5313" rx="4" ry="4" style="stroke:#181818;stroke-width:0.5;" width="132.957" x="531.5" y="866"/><line style="stroke:#181818;stroke-width:0.5;" x1="531.5" x2="664.457" y1="892.4063" y2="892.4063"/><text fill="#000000" font-family="Roboto" font-size="14" lengthAdjust="spacing" textLength="78.1348" x="558.9111" y="883.9883">n_share_end</text><text fill="#000000" font-family="Roboto" font-size="12" lengthAdjust="spacing" textLength="112.957" x="536.5" y="908.5391">completion (positive)</text><text fill="#000000" font-family="Roboto" font-size="12" lengthAdjust="spacing" textLength="92.5488" x="536.5" y="922.6016">"Berries to Share"</text></g><g id="n_grass"><rect fill="#FFF9C4" height="50.4688" rx="4" ry="4" style="stroke:#181818;stroke-width:0.5;" width="86.8906" x="770.5" y="214"/><line style="stroke:#181818;stroke-width:0.5;" x1="770.5" x2="857.3906" y1="240.4063" y2="240.4063"/><text fill="#000000" font-family="Roboto" font-size="14" lengthAdjust="spacing" textLength="48.7197" x="789.5854" y="231.9883">n_grass</text><text fill="#000000" font-family="Roboto" font-size="12" lengthAdjust="spacing" textLength="66.8906" x="775.5" y="256.5391">choice &#183; 40w</text></g><g id="n_lost_end"><rect fill="#FFCDD2" height="64.5313" rx="4" ry="4" style="stroke:#181818;stroke-width:0.5;" width="118.6484" x="763.5" y="771"/><line style="stroke:#181818;stroke-width:0.5;" x1="763.5" x2="882.1484" y1="797.4063" y2="797.4063"/><text fill="#000000" font-family="Roboto" font-size="14" lengthAdjust="spacing" textLength="66.6094" x="789.5195" y="788.9883">n_lost_end</text><text fill="#000000" font-family="Roboto" font-size="12" lengthAdjust="spacing" textLength="98.6484" x="768.5" y="813.5391">setback (negative)</text><text fill="#000000" font-family="Roboto" font-size="12" lengthAdjust="spacing" textLength="57.8848" x="768.5" y="827.6016">"Too Fast!"</text></g><g id="n_sunflower"><rect fill="#D1C4E9" height="50.4688" rx="4" ry="4" style="stroke:#181818;stroke-width:0.5;" width="95.667" x="887" y="341"/><line style="stroke:#181818;stroke-width:0.5;" x1="887" x2="982.667" y1="367.4063" y2="367.4063"/><text fill="#000000" font-family="Roboto" font-size="14" lengthAdjust="spacing" textLength="75.667" x="897" y="358.9883">n_sunflower</text><text fill="#000000" font-family="Roboto" font-size="12" lengthAdjust="spacing" textLength="61.0547" x="892" y="383.5391">rising &#183; 38w</text></g><g id="n_gate"><rect fill="#D1C4E9" height="50.4688" rx="4" ry="4" style="stroke:#181818;stroke-width:0.5;" width="81.0547" x="912.5" y="516"/><line style="stroke:#181818;stroke-width:0.5;" x1="912.5" x2="993.5547" y1="542.4063" y2="542.4063"/><text fill="#000000" font-family="Roboto" font-size="14" lengthAdjust="spacing" textLength="41.5283" x="932.2632" y="533.9883">n_gate</text><text fill="#000000" font-family="Roboto" font-size="12" lengthAdjust="spacing" textLength="61.0547" x="917.5" y="558.5391">rising &#183; 38w</text></g><g id="n_arch"><rect fill="#D1C4E9" height="50.4688" rx="4" ry="4" style="stroke:#181818;stroke-width:0.5;" width="81.0547" x="892.5" y="691"/><line style="stroke:#181818;stroke-width:0.5;" x1="892.5" x2="973.5547" y1="717.4063" y2="717.4063"/><text fill="#000000" font-family="Roboto" font-size="14" lengthAdjust="spacing" textLength="41.4463" x="912.3042" y="708.9883">n_arch</text><text fill="#000000" font-family="Roboto" font-size="12" lengthAdjust="spacing" textLength="61.0547" x="897.5" y="733.5391">rising &#183; 38w</text></g><g id="n_perch_end"><rect fill="#C8E6C9" height="64.5313" rx="4" ry="4" style="stroke:#181818;stroke-width:0.5;" width="145.748" x="836" y="866"/><line style="stroke:#181818;stroke-width:0.5;" x1="836" x2="981.748" y1="892.4063" y2="892.4063"/><text fill="#000000" font-family="Roboto" font-size="14" lengthAdjust="spacing" textLength="78.4834" x="869.6323" y="883.9883">n_perch_end</text><text fill="#000000" font-family="Roboto" font-size="12" lengthAdjust="spacing" textLength="97.0957" x="841" y="908.5391">success (positive)</text><text fill="#000000" font-family="Roboto" font-size="12" lengthAdjust="spacing" textLength="125.748" x="841" y="922.6016">"Under the Flower Arch"</text></g><ellipse cx="478" cy="1003" fill="none" rx="11" ry="11" style="stroke:#222222;stroke-width:1.0;"/><ellipse cx="478" cy="1003" fill="#222222" rx="6" ry="6" style="stroke:#222222;stroke-width:1.0;"/><!--link *start* to n_start--><g id="link_*start*_n_start"><path d="M534,26.01 C534,39.89 534,60.97 534,80.84 " fill="none" id="*start*-to-n_start" style="stroke:#181818;stroke-width:1.0;"/><polygon fill="#181818" points="534,86.84,538,77.84,534,81.84,530,77.84,534,86.84" style="stroke:#181818;stroke-width:1.0;"/></g><!--link n_start to n_daisies--><g id="link_n_start_n_daisies"><path d="M493.5,120.61 C458.06,128.48 406.12,143.07 366,167 C345.36,179.31 329.9283,193.9243 316.1483,209.2043 " fill="none" id="n_start-to-n_daisies" style="stroke:#181818;stroke-width:1.0;"/><polygon fill="#181818" points="312.13,213.66,321.1279,209.6553,315.4786,209.9469,315.187,204.2976,312.13,213.66" style="stroke:#181818;stroke-width:1.0;"/><text fill="#000000" font-family="Roboto" font-size="13" lengthAdjust="spacing" textLength="158.0566" x="367" y="180.0605">Follow it to the daisy patch.</text></g><!--link n_start to n_pond--><g id="link_n_start_n_pond"><path d="M534,137.1 C534,159.24 534,185.86 534,207.97 " fill="none" id="n_start-to-n_pond" style="stroke:#181818;stroke-width:1.0;"/><polygon fill="#181818" points="534,213.97,538,204.97,534,208.97,530,204.97,534,213.97" style="stroke:#181818;stroke-width:1.0;"/><text fill="#000000" font-family="Roboto" font-size="13" lengthAdjust="spacing" textLength="149.1509" x="535" y="180.0605">Follow it to the little pond.</text></g><!--link n_start to n_grass--><g id="link_n_start_n_grass"><path d="M574.73,124.34 C607.39,134.01 654.03,149.17 693,167 C722.46,180.48 748.8948,195.9096 772.3648,210.7096 " fill="none" id="n_start-to-n_grass" style="stroke:#181818;stroke-width:1.0;"/><polygon fill="#181818" points="777.44,213.91,771.9608,205.726,773.2107,211.243,767.6936,212.4929,777.44,213.91" style="stroke:#181818;stroke-width:1.0;"/><text fill="#000000" font-family="Roboto" font-size="13" lengthAdjust="spacing" textLength="144.8853" x="724" y="180.0605">Follow it to the tall grass.</text></g><!--link n_daisies to n_bee_end--><g id="link_n_daisies_n_bee_end"><path d="M248.44,244.91 C192.65,252.19 100.7,267.88 80,294 C51.62,329.81 57.3662,379.9914 65.9062,414.9514 " fill="none" id="n_daisies-to-n_bee_end" style="stroke:#181818;stroke-width:1.0;"/><polygon fill="#181818" points="67.33,420.78,69.08,411.0879,66.1435,415.9228,61.3085,412.9863,67.33,420.78" style="stroke:#181818;stroke-width:1.0;"/><text fill="#000000" font-family="Roboto" font-size="13" lengthAdjust="spacing" textLength="182.2666" x="81" y="307.0605">Stop and watch the bumblebee.</text></g><!--link n_daisies to n_birdbath--><g id="link_n_daisies_n_birdbath"><path d="M285.06,264.1 C278.68,286.24 270.9511,313.0945 264.5811,335.2045 " fill="none" id="n_daisies-to-n_birdbath" style="stroke:#181818;stroke-width:1.0;"/><polygon fill="#181818" points="262.92,340.97,269.2553,333.4291,264.3042,336.1654,261.5679,331.2144,262.92,340.97" style="stroke:#181818;stroke-width:1.0;"/><text fill="#000000" font-family="Roboto" font-size="13" lengthAdjust="spacing" textLength="161.8335" x="278" y="307.0605">Keep following the butterfly.</text></g><!--link n_birdbath to n_strawberries--><g id="link_n_birdbath_n_strawberries"><path d="M234.32,391.08 C227.75,399.87 221.39,410.29 218,421 C208.02,452.52 210.6887,485.2141 214.8387,509.7341 " fill="none" id="n_birdbath-to-n_strawberries" style="stroke:#181818;stroke-width:1.0;"/><polygon fill="#181818" points="215.84,515.65,218.282,506.1087,215.0056,510.7201,210.3942,507.4437,215.84,515.65" style="stroke:#181818;stroke-width:1.0;"/><text fill="#000000" font-family="Roboto" font-size="13" lengthAdjust="spacing" textLength="232.8701" x="219" y="458.0605">Follow the butterfly to the strawberries...</text></g><!--link n_strawberries to n_meadow--><g id="link_n_strawberries_n_meadow"><path d="M221,566.05 C221,599.01 221,651.87 221,684.87 " fill="none" id="n_strawberries-to-n_meadow" style="stroke:#181818;stroke-width:1.0;"/><polygon fill="#181818" points="221,690.87,225,681.87,221,685.87,217,681.87,221,690.87" style="stroke:#181818;stroke-width:1.0;"/><text fill="#000000" font-family="Roboto" font-size="13" lengthAdjust="spacing" textLength="143.4316" x="222" y="633.0605">Tiptoe after the butterfly.</text></g><!--link n_meadow to n_nose_end--><g id="link_n_meadow_n_nose_end"><path d="M176.97,736.61 C163.23,745.08 149.68,756.45 142,771 C128.52,796.55 131,809.29 142,836 C146.52,846.99 149.9162,852.7108 158.1862,861.3708 " fill="none" id="n_meadow-to-n_nose_end" style="stroke:#181818;stroke-width:1.0;"/><polygon fill="#181818" points="162.33,865.71,159.0071,856.4386,158.8768,862.094,153.2215,861.9637,162.33,865.71" style="stroke:#181818;stroke-width:1.0;"/><text fill="#000000" font-family="Roboto" font-size="13" lengthAdjust="spacing" textLength="106.5645" x="143" y="808.0605">Hold still and wait.</text></g><!--link n_meadow to n_crown_end--><g id="link_n_meadow_n_crown_end"><path d="M236.01,741.06 C241.73,750.36 248.25,761.12 254,771 C270.61,799.54 268.85,810.63 290,836 C298.95,846.74 305.3546,853.1483 316.1746,862.0883 " fill="none" id="n_meadow-to-n_crown_end" style="stroke:#181818;stroke-width:1.0;"/><polygon fill="#181818" points="320.8,865.91,316.4097,857.0938,316.9455,862.7252,311.3141,863.261,320.8,865.91" style="stroke:#181818;stroke-width:1.0;"/><text fill="#000000" font-family="Roboto" font-size="13" lengthAdjust="spacing" textLength="160.8496" x="291" y="808.0605">Peek at the little flower ring.</text></g><!--link n_pond to n_frog_end--><g id="link_n_pond_n_frog_end"><path d="M522.52,264.29 C513.61,284.37 501.82,313.89 496,341 C476.51,431.88 475.7373,536.4013 476.8273,589.7113 " fill="none" id="n_pond-to-n_frog_end" style="stroke:#181818;stroke-width:1.0;"/><polygon fill="#181818" points="476.95,595.71,480.7652,586.6301,476.8478,590.711,472.7669,586.7936,476.95,595.71" style="stroke:#181818;stroke-width:1.0;"/><text fill="#000000" font-family="Roboto" font-size="13" lengthAdjust="spacing" textLength="164.0742" x="497" y="370.5605">Play peekaboo with the frog.</text></g><!--link n_pond to n_reeds--><g id="link_n_pond_n_reeds"><path d="M552.2,264.05 C564.45,279.02 581.68,297.85 600,311 C624.22,328.38 649.3228,339.9347 673.6128,349.1847 " fill="none" id="n_pond-to-n_reeds" style="stroke:#181818;stroke-width:1.0;"/><polygon fill="#181818" points="679.22,351.32,672.2328,344.3789,674.5473,349.5406,669.3857,351.8552,679.22,351.32" style="stroke:#181818;stroke-width:1.0;"/><text fill="#000000" font-family="Roboto" font-size="13" lengthAdjust="spacing" textLength="186.272" x="601" y="307.0605">Follow the butterfly to the reeds.</text></g><!--link n_reeds to n_hedgehog--><g id="link_n_reeds_n_hedgehog"><path d="M679.41,383.57 C653.68,394.86 623.65,409.75 615,421 C593.86,448.49 589.2946,483.602 588.6246,509.592 " fill="none" id="n_reeds-to-n_hedgehog" style="stroke:#181818;stroke-width:1.0;"/><polygon fill="#181818" points="588.47,515.59,592.7006,506.6961,588.5989,510.5917,584.7033,506.4899,588.47,515.59" style="stroke:#181818;stroke-width:1.0;"/><text fill="#000000" font-family="Roboto" font-size="13" lengthAdjust="spacing" textLength="154.3306" x="616" y="458.0605">Follow past the mossy log.</text></g><!--link n_hedgehog to n_friend--><g id="link_n_hedgehog_n_friend"><path d="M587.05,566.05 C584.39,599.01 580.1039,651.8895 577.4339,684.8895 " fill="none" id="n_hedgehog-to-n_friend" style="stroke:#181818;stroke-width:1.0;"/><polygon fill="#181818" points="576.95,690.87,581.6628,682.2219,577.3532,685.8863,573.6888,681.5767,576.95,690.87" style="stroke:#181818;stroke-width:1.0;"/><text fill="#000000" font-family="Roboto" font-size="13" lengthAdjust="spacing" textLength="164.9438" x="585" y="633.0605">Tiptoe into the shady corner.</text></g><!--link n_friend to n_share_end--><g id="link_n_friend_n_share_end"><path d="M564.5,741.27 C561.07,750.41 557.71,761.01 556,771 C551.14,799.48 547.47,808.4 556,836 C559.24,846.5 561.5766,851.8549 567.7766,860.9349 " fill="none" id="n_friend-to-n_share_end" style="stroke:#181818;stroke-width:1.0;"/><polygon fill="#181818" points="571.16,865.89,569.3883,856.2018,568.3405,861.7608,562.7815,860.713,571.16,865.89" style="stroke:#181818;stroke-width:1.0;"/><text fill="#000000" font-family="Roboto" font-size="13" lengthAdjust="spacing" textLength="188.3984" x="557" y="808.0605">Share the sweet berries with Pip.</text></g><!--link n_grass to n_lost_end--><g id="link_n_grass_n_lost_end"><path d="M814,264.43 C814,289.63 814,330.06 814,365 C814,365 814,365 814,629.5 C814,678.97 817.2626,730.3175 819.9126,764.9775 " fill="none" id="n_grass-to-n_lost_end" style="stroke:#181818;stroke-width:1.0;"/><polygon fill="#181818" points="820.37,770.96,823.6722,761.6813,819.9888,765.9746,815.6955,762.2911,820.37,770.96" style="stroke:#181818;stroke-width:1.0;"/><text fill="#000000" font-family="Roboto" font-size="13" lengthAdjust="spacing" textLength="99.6074" x="815" y="458.0605">Dash after it fast!</text></g><!--link n_grass to n_sunflower--><g id="link_n_grass_n_sunflower"><path d="M837.33,264.1 C858.76,286.24 886.1671,314.5487 907.5671,336.6587 " fill="none" id="n_grass-to-n_sunflower" style="stroke:#181818;stroke-width:1.0;"/><polygon fill="#181818" points="911.74,340.97,908.3549,331.7212,908.2626,337.3773,902.6065,337.285,911.74,340.97" style="stroke:#181818;stroke-width:1.0;"/><text fill="#000000" font-family="Roboto" font-size="13" lengthAdjust="spacing" textLength="127.3784" x="882" y="307.0605">Tiptoe slow and quiet.</text></g><!--link n_sunflower to n_gate--><g id="link_n_sunflower_n_gate"><path d="M937.5,391.05 C940.93,424.01 946.4397,476.9021 949.8697,509.9021 " fill="none" id="n_sunflower-to-n_gate" style="stroke:#181818;stroke-width:1.0;"/><polygon fill="#181818" points="950.49,515.87,953.5381,506.5047,949.9731,510.8968,945.581,507.3318,950.49,515.87" style="stroke:#181818;stroke-width:1.0;"/><text fill="#000000" font-family="Roboto" font-size="13" lengthAdjust="spacing" textLength="178.6802" x="948" y="458.0605">Follow toward the garden gate.</text></g><!--link n_gate to n_arch--><g id="link_n_gate_n_arch"><path d="M950.22,566.05 C946.41,599.01 940.2882,651.9096 936.4782,684.9096 " fill="none" id="n_gate-to-n_arch" style="stroke:#181818;stroke-width:1.0;"/><polygon fill="#181818" points="935.79,690.87,940.7958,682.3882,936.3635,685.903,932.8486,681.4706,935.79,690.87" style="stroke:#181818;stroke-width:1.0;"/><text fill="#000000" font-family="Roboto" font-size="13" lengthAdjust="spacing" textLength="168.0098" x="947" y="633.0605">Follow into the flower corner.</text></g><!--link n_arch to n_perch_end--><g id="link_n_arch_n_perch_end"><path d="M929.76,741.34 C925.48,773.58 918.701,824.5324 913.981,860.0224 " fill="none" id="n_arch-to-n_perch_end" style="stroke:#181818;stroke-width:1.0;"/><polygon fill="#181818" points="913.19,865.97,918.3416,857.5759,913.8492,861.0136,910.4114,856.5212,913.19,865.97" style="stroke:#181818;stroke-width:1.0;"/><text fill="#000000" font-family="Roboto" font-size="13" lengthAdjust="spacing" textLength="160.1323" x="926" y="808.0605">Sit quietly beneath the arch.</text></g><!--link n_bee_end to *end*--><g id="link_n_bee_end_*end*"><path d="M77.58,486.07 C78.17,520.75 79,578.09 79,627.5 C79,627.5 79,627.5 79,899.5 C79,981.93 396.4748,998.779 460.9148,1001.369 " fill="none" id="n_bee_end-to-*end*" style="stroke:#181818;stroke-width:1.0;"/><polygon fill="#181818" points="466.91,1001.61,458.0779,997.2518,461.914,1001.4092,457.7566,1005.2453,466.91,1001.61" style="stroke:#181818;stroke-width:1.0;"/></g><!--link n_nose_end to *end*--><g id="link_n_nose_end_*end*"><path d="M269.57,924.31 C336.97,949.43 430.0576,984.1352 461.9976,996.0352 " fill="none" id="n_nose_end-to-*end*" style="stroke:#181818;stroke-width:1.0;"/><polygon fill="#181818" points="467.62,998.13,460.5828,991.2395,462.9346,996.3844,457.7898,998.7361,467.62,998.13" style="stroke:#181818;stroke-width:1.0;"/></g><!--link n_crown_end to *end*--><g id="link_n_crown_end_*end*"><path d="M399.83,931.09 C424.47,953.44 451.1458,977.649 465.5558,990.719 " fill="none" id="n_crown_end-to-*end*" style="stroke:#181818;stroke-width:1.0;"/><polygon fill="#181818" points="470,994.75,466.0209,985.7407,466.2965,991.3909,460.6463,991.6664,470,994.75" style="stroke:#181818;stroke-width:1.0;"/></g><!--link n_frog_end to *end*--><g id="link_n_frog_end_*end*"><path d="M478,661.26 C478,740.43 478,937.65 478,985.7 " fill="none" id="n_frog_end-to-*end*" style="stroke:#181818;stroke-width:1.0;"/><polygon fill="#181818" points="478,991.7,482,982.7,478,986.7,474,982.7,478,991.7" style="stroke:#181818;stroke-width:1.0;"/></g><!--link n_share_end to *end*--><g id="link_n_share_end_*end*"><path d="M561.02,931.09 C534.57,953.68 505.6621,978.373 490.5721,991.263 " fill="none" id="n_share_end-to-*end*" style="stroke:#181818;stroke-width:1.0;"/><polygon fill="#181818" points="486.01,995.16,495.4512,992.3559,489.8118,991.9125,490.2552,986.273,486.01,995.16" style="stroke:#181818;stroke-width:1.0;"/></g><!--link n_lost_end to *end*--><g id="link_n_lost_end_*end*"><path d="M794.72,836.21 C768.06,864.45 725.76,905.18 682,931 C614.18,971.02 526.2205,991.92 494.6905,998.58 " fill="none" id="n_lost_end-to-*end*" style="stroke:#181818;stroke-width:1.0;"/><polygon fill="#181818" points="488.82,999.82,498.4524,1001.8736,493.7121,998.7867,496.799,994.0463,488.82,999.82" style="stroke:#181818;stroke-width:1.0;"/></g><!--link n_perch_end to *end*--><g id="link_n_perch_end_*end*"><path d="M857.24,931.02 C836.15,942.52 811.09,954.52 787,962 C674.38,996.97 535.4895,1001.3101 494.9595,1001.8501 " fill="none" id="n_perch_end-to-*end*" style="stroke:#181818;stroke-width:1.0;"/><polygon fill="#181818" points="488.96,1001.93,498.0125,1005.8097,493.9596,1001.8634,497.9059,997.8105,488.96,1001.93" style="stroke:#181818;stroke-width:1.0;"/></g><rect fill="none" height="75.625" id="_legend" rx="4" ry="4" style="stroke:#000000;stroke-width:1.0;" width="220.417" x="888.2632" y="1031"/><text fill="#000000" font-family="Roboto" font-size="14" lengthAdjust="spacing" textLength="145.4893" x="893.2632" y="1048.9883">Clover and the Butterfly</text><text fill="#000000" font-family="Roboto" font-size="14" lengthAdjust="spacing" textLength="155.791" x="893.2632" y="1065.3945">Band 3-5 &#183; Tier 1 &#183; ~3 min</text><text fill="#000000" font-family="Roboto" font-size="14" lengthAdjust="spacing" textLength="128.0713" x="893.2632" y="1081.8008">Topology: time_cave</text><text fill="#000000" font-family="Roboto" font-size="14" lengthAdjust="spacing" textLength="210.417" x="893.2632" y="1098.207">20 nodes &#183; 7 endings (4+ / 0n / 3-)</text><!--SRC=[VLPTRzis57tNhxXp7jfki9eswPPcm83QZZTqG1eitjCm6BHrBH6HI8sa8_XbVsll_MMx_918AzCGG37FlOUy7-GXNy7FA50nWmKSb6n0Fs6DHWhu_FZb7dOdq7l5MwFVAXG5gcrltnQSbOerEczFUVOALXA4D805DvPLCL7y20hdwYZ0L0YbNqQgFDDFNBICk53WWHrhivR2tBC6OVQRt4aZPudBZksVIYMFebZAMYguM7-oVub7C2gQ7swoYXS8sBJcHBFxsBaKMVR7jt_2VFuJYAqsJ9cClWRx4Lmi5gkxzIBhnxUWqHnR-FeFN7_e1kU2SSrHKn3hzSVbTHQHMzXNak_HCIuZOuUufS9PndArUfz5n2rXiuFN0ajc-3E-EJFFDbIsnL6VwDFiQYJBBCxBLR5ZfeABrRlbzTt7B85kGL5GehInNDrqIQgATJjKogKmyCxWAMw3h91TadW0fl8MKeV4bpTtto_jEWD47Dcqj8keCV2wbPhtoISkioy2bhLyHgNXdk2O-bx9JepcZXYLzRZVezRdCwSEhh0hQjm9bXQEKxVIjohaw8PJ6T9fAKUj7Q29tYRssGFY4zj92Mi2OmGAiKYRuyTJNQcmAB6IPK8Oe2dEWVfienuO0PZSDHLJurP6RBgNgSzi4RQNaV1eyPWmQOXE3vGVJnMzbjgCYZv04qLFxBEDhJVJvfkulZwAGoqxqexaH0pOL55A-oyIt73AbwbzUapTSCgtHRAEYXsnYRsTEin-johj57VjK_X4njaWR5u2esgjPKrkGA9DhR6imfsBbfbzbOzOuJYyeDJSc1h1ciUKlfilE8RLDJXhdgYe9qK9V3Io1Rf9eBFnEEAkryB_u4K1_1MnXODRr5RP4ur1TQXFUQgL_PLm9e4XsZDM7tZgckVvM3_zV8CuRkZwaGZiO49Jpg88RfwJQDyliYve8Kubyibpyy8z5JIh9S1CseomVnLbd_TAvec923tKZ5hT2r77ZI-nzHYHUXdwlyeudtpGB4zCv2XmMpf_ph-HcdPQxTSQ_FeWWoQ50dBHbxzYnOaqnzxsUHIlqCP4SfpCU4g7I6-Iq22NvGDlyq5hF3UHYHNJLMWPRTY3rOkHSoeG8K9jSxFT-kl8qRKhEeMpu4MYBw7ic2hyquX-e01hptinyPIW5VtfwOiGferLS7xXa2PYy4ZXkt2eIJjwVx7GOEkU9syDowJtKNe1HoXkj8WDUoX2iVOH6seQeHXUZsKrbdQiU5cP3CAbxqfft0CeR3CoBInuDVzWLNF3oUcT_VNt5JHSa7aZMteYbgTRCBp1xPuz8w7lB-bXIaz1w_e3q4fq94X0hx-3jt0fw7CrVvCHxCFu5m00]--></g></svg>
