<svg xmlns="http://www.w3.org/2000/svg" xmlns:xlink="http://www.w3.org/1999/xlink" contentStyleType="text/css" height="1476px" preserveAspectRatio="none" style="width:2703px;height:1476px;background:#FAFAFA;" version="1.1" viewBox="0 0 2703 1476" width="2703px" zoomAndPan="magnify"><defs><style type="text/css">@import url('https://fonts.googleapis.com/css?family=Roboto:400,100,100italic,300,300italic,400italic,500,500italic,700,700italic,900,900italic');</style></defs><g><rect fill="#FAFAFA" height="1476" style="stroke:none;stroke-width:1.0;" width="2703" x="0" y="0"/><ellipse cx="1232" cy="16" fill="#222222" rx="10" ry="10" style="stroke:#222222;stroke-width:1.0;"/><g id="n_start"><rect fill="#BBDEFB" height="50.4688" rx="4" ry="4" style="stroke:#181818;stroke-width:0.5;" width="81.4297" x="1191.5" y="87"/><line style="stroke:#181818;stroke-width:0.5;" x1="1191.5" x2="1272.9297" y1="113.4063" y2="113.4063"/><text fill="#000000" font-family="Roboto" font-size="14" lengthAdjust="spacing" textLength="42.793" x="1210.8184" y="104.9883">n_start</text><text fill="#000000" font-family="Roboto" font-size="12" lengthAdjust="spacing" textLength="61.4297" x="1196.5" y="129.5391">setup &#183; 46w</text></g><g id="n_honey1"><rect fill="#FFF9C4" height="50.4688" rx="4" ry="4" style="stroke:#181818;stroke-width:0.5;" width="86.8906" x="770.5" y="214"/><line style="stroke:#181818;stroke-width:0.5;" x1="770.5" x2="857.3906" y1="240.4063" y2="240.4063"/><text fill="#000000" font-family="Roboto" font-size="14" lengthAdjust="spacing" textLength="59.3906" x="784.25" y="231.9883">n_honey1</text><text fill="#000000" font-family="Roboto" font-size="12" lengthAdjust="spacing" textLength="66.8906" x="775.5" y="256.5391">choice &#183; 42w</text></g><g id="n_honey2"><rect fill="#D1C4E9" height="50.4688" rx="4" ry="4" style="stroke:#181818;stroke-width:0.5;" width="81.0547" x="1276.5" y="341"/><line style="stroke:#181818;stroke-width:0.5;" x1="1276.5" x2="1357.5547" y1="367.4063" y2="367.4063"/><text fill="#000000" font-family="Roboto" font-size="14" lengthAdjust="spacing" textLength="59.3906" x="1287.332" y="358.9883">n_honey2</text><text fill="#000000" font-family="Roboto" font-size="12" lengthAdjust="spacing" textLength="61.0547" x="1281.5" y="383.5391">rising &#183; 40w</text></g><g id="e_honey_oops"><rect fill="#FFCDD2" height="64.5313" rx="4" ry="4" style="stroke:#181818;stroke-width:0.5;" width="122.1055" x="416" y="421"/><line style="stroke:#181818;stroke-width:0.5;" x1="416" x2="538.1055" y1="447.4063" y2="447.4063"/><text fill="#000000" font-family="Roboto" font-size="14" lengthAdjust="spacing" textLength="88.5869" x="432.7593" y="438.9883">e_honey_oops</text><text fill="#000000" font-family="Roboto" font-size="12" lengthAdjust="spacing" textLength="98.6484" x="421" y="463.5391">setback (negative)</text><text fill="#000000" font-family="Roboto" font-size="12" lengthAdjust="spacing" textLength="102.1055" x="421" y="477.6016">"Oops, Buzzy Bees"</text></g><g id="n_berry1"><rect fill="#FFF9C4" height="50.4688" rx="4" ry="4" style="stroke:#181818;stroke-width:0.5;" width="86.8906" x="892.5" y="214"/><line style="stroke:#181818;stroke-width:0.5;" x1="892.5" x2="979.3906" y1="240.4063" y2="240.4063"/><text fill="#000000" font-family="Roboto" font-size="14" lengthAdjust="spacing" textLength="53.3135" x="909.2886" y="231.9883">n_berry1</text><text fill="#000000" font-family="Roboto" font-size="12" lengthAdjust="spacing" textLength="66.8906" x="897.5" y="256.5391">choice &#183; 42w</text></g><g id="n_berry2"><rect fill="#D1C4E9" height="50.4688" rx="4" ry="4" style="stroke:#181818;stroke-width:0.5;" width="81.0547" x="1780.5" y="341"/><line style="stroke:#181818;stroke-width:0.5;" x1="1780.5" x2="1861.5547" y1="367.4063" y2="367.4063"/><text fill="#000000" font-family="Roboto" font-size="14" lengthAdjust="spacing" textLength="53.3135" x="1794.3706" y="358.9883">n_berry2</text><text fill="#000000" font-family="Roboto" font-size="12" lengthAdjust="spacing" textLength="61.0547" x="1785.5" y="383.5391">rising &#183; 40w</text></g><g id="e_berry_oops"><rect fill="#FFCDD2" height="64.5313" rx="4" ry="4" style="stroke:#181818;stroke-width:0.5;" width="151.7188" x="689" y="596"/><line style="stroke:#181818;stroke-width:0.5;" x1="689" x2="840.7188" y1="622.4063" y2="622.4063"/><text fill="#000000" font-family="Roboto" font-size="14" lengthAdjust="spacing" textLength="82.5098" x="723.6045" y="613.9883">e_berry_oops</text><text fill="#000000" font-family="Roboto" font-size="12" lengthAdjust="spacing" textLength="98.6484" x="694" y="638.5391">setback (negative)</text><text fill="#000000" font-family="Roboto" font-size="12" lengthAdjust="spacing" textLength="131.7188" x="694" y="652.6016">"Oops, Tumbling Berries"</text></g><g id="n_ball1"><rect fill="#FFF9C4" height="50.4688" rx="4" ry="4" style="stroke:#181818;stroke-width:0.5;" width="86.8906" x="339.5" y="214"/><line style="stroke:#181818;stroke-width:0.5;" x1="339.5" x2="426.3906" y1="240.4063" y2="240.4063"/><text fill="#000000" font-family="Roboto" font-size="14" lengthAdjust="spacing" textLength="44.2012" x="360.8447" y="231.9883">n_ball1</text><text fill="#000000" font-family="Roboto" font-size="12" lengthAdjust="spacing" textLength="66.8906" x="344.5" y="256.5391">choice &#183; 40w</text></g><g id="n_ball2"><rect fill="#D1C4E9" height="50.4688" rx="4" ry="4" style="stroke:#181818;stroke-width:0.5;" width="81.0547" x="1017.5" y="341"/><line style="stroke:#181818;stroke-width:0.5;" x1="1017.5" x2="1098.5547" y1="367.4063" y2="367.4063"/><text fill="#000000" font-family="Roboto" font-size="14" lengthAdjust="spacing" textLength="44.2012" x="1035.9268" y="358.9883">n_ball2</text><text fill="#000000" font-family="Roboto" font-size="12" lengthAdjust="spacing" textLength="61.0547" x="1022.5" y="383.5391">rising &#183; 38w</text></g><g id="e_ball_oops"><rect fill="#FFCDD2" height="64.5313" rx="4" ry="4" style="stroke:#181818;stroke-width:0.5;" width="153.9277" x="207" y="771"/><line style="stroke:#181818;stroke-width:0.5;" x1="207" x2="360.9277" y1="797.4063" y2="797.4063"/><text fill="#000000" font-family="Roboto" font-size="14" lengthAdjust="spacing" textLength="73.3975" x="247.2651" y="788.9883">e_ball_oops</text><text fill="#000000" font-family="Roboto" font-size="12" lengthAdjust="spacing" textLength="98.6484" x="212" y="813.5391">setback (negative)</text><text fill="#000000" font-family="Roboto" font-size="12" lengthAdjust="spacing" textLength="133.9277" x="212" y="827.6016">"Oops, a Ticklish Hopper"</text></g><g id="n_kite1"><rect fill="#FFF9C4" height="50.4688" rx="4" ry="4" style="stroke:#181818;stroke-width:0.5;" width="86.8906" x="126.5" y="214"/><line style="stroke:#181818;stroke-width:0.5;" x1="126.5" x2="213.3906" y1="240.4063" y2="240.4063"/><text fill="#000000" font-family="Roboto" font-size="14" lengthAdjust="spacing" textLength="44.4199" x="147.7354" y="231.9883">n_kite1</text><text fill="#000000" font-family="Roboto" font-size="12" lengthAdjust="spacing" textLength="66.8906" x="131.5" y="256.5391">choice &#183; 42w</text></g><g id="n_kite2"><rect fill="#D1C4E9" height="50.4688" rx="4" ry="4" style="stroke:#181818;stroke-width:0.5;" width="81.0547" x="501.5" y="341"/><line style="stroke:#181818;stroke-width:0.5;" x1="501.5" x2="582.5547" y1="367.4063" y2="367.4063"/><text fill="#000000" font-family="Roboto" font-size="14" lengthAdjust="spacing" textLength="44.4199" x="519.8174" y="358.9883">n_kite2</text><text fill="#000000" font-family="Roboto" font-size="12" lengthAdjust="spacing" textLength="61.0547" x="506.5" y="383.5391">rising &#183; 38w</text></g><g id="e_kite_oops"><rect fill="#FFCDD2" height="64.5313" rx="4" ry="4" style="stroke:#181818;stroke-width:0.5;" width="146.082" x="28" y="946"/><line style="stroke:#181818;stroke-width:0.5;" x1="28" x2="174.082" y1="972.4063" y2="972.4063"/><text fill="#000000" font-family="Roboto" font-size="14" lengthAdjust="spacing" textLength="73.6162" x="64.2329" y="963.9883">e_kite_oops</text><text fill="#000000" font-family="Roboto" font-size="12" lengthAdjust="spacing" textLength="98.6484" x="33" y="988.5391">setback (negative)</text><text fill="#000000" font-family="Roboto" font-size="12" lengthAdjust="spacing" textLength="126.082" x="33" y="1002.6016">"Oops, a Windy Muddle"</text></g><g id="n_owl1"><rect fill="#FFF9C4" height="50.4688" rx="4" ry="4" style="stroke:#181818;stroke-width:0.5;" width="86.8906" x="2498.5" y="214"/><line style="stroke:#181818;stroke-width:0.5;" x1="2498.5" x2="2585.3906" y1="240.4063" y2="240.4063"/><text fill="#000000" font-family="Roboto" font-size="14" lengthAdjust="spacing" textLength="43.8252" x="2520.0327" y="231.9883">n_owl1</text><text fill="#000000" font-family="Roboto" font-size="12" lengthAdjust="spacing" textLength="66.8906" x="2503.5" y="256.5391">choice &#183; 44w</text></g><g id="n_owl2"><rect fill="#D1C4E9" height="50.4688" rx="4" ry="4" style="stroke:#181818;stroke-width:0.5;" width="81.0547" x="2251.5" y="341"/><line style="stroke:#181818;stroke-width:0.5;" x1="2251.5" x2="2332.5547" y1="367.4063" y2="367.4063"/><text fill="#000000" font-family="Roboto" font-size="14" lengthAdjust="spacing" textLength="43.8252" x="2270.1147" y="358.9883">n_owl2</text><text fill="#000000" font-family="Roboto" font-size="12" lengthAdjust="spacing" textLength="61.0547" x="2256.5" y="383.5391">rising &#183; 40w</text></g><g id="e_owl_oops"><rect fill="#FFCDD2" height="64.5313" rx="4" ry="4" style="stroke:#181818;stroke-width:0.5;" width="145.0215" x="2362.5" y="1121"/><line style="stroke:#181818;stroke-width:0.5;" x1="2362.5" x2="2507.5215" y1="1147.4063" y2="1147.4063"/><text fill="#000000" font-family="Roboto" font-size="14" lengthAdjust="spacing" textLength="73.0215" x="2398.5" y="1138.9883">e_owl_oops</text><text fill="#000000" font-family="Roboto" font-size="12" lengthAdjust="spacing" textLength="98.6484" x="2367.5" y="1163.5391">setback (negative)</text><text fill="#000000" font-family="Roboto" font-size="12" lengthAdjust="spacing" textLength="125.0215" x="2367.5" y="1177.6016">"Oops, a Pile of Leaves"</text></g><g id="n_music1"><rect fill="#FFF9C4" height="50.4688" rx="4" ry="4" style="stroke:#181818;stroke-width:0.5;" width="86.8906" x="1851.5" y="214"/><line style="stroke:#181818;stroke-width:0.5;" x1="1851.5" x2="1938.3906" y1="240.4063" y2="240.4063"/><text fill="#000000" font-family="Roboto" font-size="14" lengthAdjust="spacing" textLength="59.8691" x="1865.0107" y="231.9883">n_music1</text><text fill="#000000" font-family="Roboto" font-size="12" lengthAdjust="spacing" textLength="66.8906" x="1856.5" y="256.5391">choice &#183; 42w</text></g><g id="n_music2"><rect fill="#D1C4E9" height="50.4688" rx="4" ry="4" style="stroke:#181818;stroke-width:0.5;" width="81.0547" x="1506.5" y="341"/><line style="stroke:#181818;stroke-width:0.5;" x1="1506.5" x2="1587.5547" y1="367.4063" y2="367.4063"/><text fill="#000000" font-family="Roboto" font-size="14" lengthAdjust="spacing" textLength="59.8691" x="1517.0928" y="358.9883">n_music2</text><text fill="#000000" font-family="Roboto" font-size="12" lengthAdjust="spacing" textLength="61.0547" x="1511.5" y="383.5391">rising &#183; 38w</text></g><g id="e_music_oops"><rect fill="#FFCDD2" height="64.5313" rx="4" ry="4" style="stroke:#181818;stroke-width:0.5;" width="146.8496" x="1990.5" y="421"/><line style="stroke:#181818;stroke-width:0.5;" x1="1990.5" x2="2137.3496" y1="447.4063" y2="447.4063"/><text fill="#000000" font-family="Roboto" font-size="14" lengthAdjust="spacing" textLength="89.0654" x="2019.3921" y="438.9883">e_music_oops</text><text fill="#000000" font-family="Roboto" font-size="12" lengthAdjust="spacing" textLength="98.6484" x="1995.5" y="463.5391">setback (negative)</text><text fill="#000000" font-family="Roboto" font-size="12" lengthAdjust="spacing" textLength="126.8496" x="1995.5" y="477.6016">"Oops, a Jumbled Tune"</text></g><g id="n_gather"><rect fill="#D1C4E9" height="50.4688" rx="4" ry="4" style="stroke:#181818;stroke-width:0.5;" width="81.0547" x="1317.5" y="516"/><line style="stroke:#181818;stroke-width:0.5;" x1="1317.5" x2="1398.5547" y1="542.4063" y2="542.4063"/><text fill="#000000" font-family="Roboto" font-size="14" lengthAdjust="spacing" textLength="53.9834" x="1331.0356" y="533.9883">n_gather</text><text fill="#000000" font-family="Roboto" font-size="12" lengthAdjust="spacing" textLength="61.0547" x="1322.5" y="558.5391">rising &#183; 40w</text></g><g id="n_welcome"><rect fill="#D1C4E9" height="50.4688" rx="4" ry="4" style="stroke:#181818;stroke-width:0.5;" width="90.4102" x="1313" y="691"/><line style="stroke:#181818;stroke-width:0.5;" x1="1313" x2="1403.4102" y1="717.4063" y2="717.4063"/><text fill="#000000" font-family="Roboto" font-size="14" lengthAdjust="spacing" textLength="70.4102" x="1323" y="708.9883">n_welcome</text><text fill="#000000" font-family="Roboto" font-size="12" lengthAdjust="spacing" textLength="61.0547" x="1318" y="733.5391">rising &#183; 40w</text></g><g id="n_arrange"><rect fill="#FFF9C4" height="50.4688" rx="4" ry="4" style="stroke:#181818;stroke-width:0.5;" width="86.8906" x="1314.5" y="866"/><line style="stroke:#181818;stroke-width:0.5;" x1="1314.5" x2="1401.3906" y1="892.4063" y2="892.4063"/><text fill="#000000" font-family="Roboto" font-size="14" lengthAdjust="spacing" textLength="61.7832" x="1327.0537" y="883.9883">n_arrange</text><text fill="#000000" font-family="Roboto" font-size="12" lengthAdjust="spacing" textLength="66.8906" x="1319.5" y="908.5391">choice &#183; 40w</text></g><g id="n_share"><rect fill="#FFF9C4" height="50.4688" rx="4" ry="4" style="stroke:#181818;stroke-width:0.5;" width="86.8906" x="999.5" y="1041"/><line style="stroke:#181818;stroke-width:0.5;" x1="999.5" x2="1086.3906" y1="1067.4063" y2="1067.4063"/><text fill="#000000" font-family="Roboto" font-size="14" lengthAdjust="spacing" textLength="48.7676" x="1018.5615" y="1058.9883">n_share</text><text fill="#000000" font-family="Roboto" font-size="12" lengthAdjust="spacing" textLength="66.8906" x="1004.5" y="1083.5391">choice &#183; 40w</text></g><g id="n_game"><rect fill="#FFF9C4" height="50.4688" rx="4" ry="4" style="stroke:#181818;stroke-width:0.5;" width="86.8906" x="1409.5" y="1041"/><line style="stroke:#181818;stroke-width:0.5;" x1="1409.5" x2="1496.3906" y1="1067.4063" y2="1067.4063"/><text fill="#000000" font-family="Roboto" font-size="14" lengthAdjust="spacing" textLength="49.2256" x="1428.3325" y="1058.9883">n_game</text><text fill="#000000" font-family="Roboto" font-size="12" lengthAdjust="spacing" textLength="66.8906" x="1414.5" y="1083.5391">choice &#183; 36w</text></g><g id="e_song"><rect fill="#C8E6C9" height="64.5313" rx="4" ry="4" style="stroke:#181818;stroke-width:0.5;" width="132.957" x="753.5" y="1216"/><line style="stroke:#181818;stroke-width:0.5;" x1="753.5" x2="886.457" y1="1242.4063" y2="1242.4063"/><text fill="#000000" font-family="Roboto" font-size="14" lengthAdjust="spacing" textLength="44.543" x="797.707" y="1233.9883">e_song</text><text fill="#000000" font-family="Roboto" font-size="12" lengthAdjust="spacing" textLength="112.957" x="758.5" y="1258.5391">completion (positive)</text><text fill="#000000" font-family="Roboto" font-size="12" lengthAdjust="spacing" textLength="93.7031" x="758.5" y="1272.6016">"The Picnic Song"</text></g><g id="e_music_finale"><rect fill="#C8E6C9" height="64.5313" rx="4" ry="4" style="stroke:#181818;stroke-width:0.5;" width="130.5195" x="923.5" y="1216"/><line style="stroke:#181818;stroke-width:0.5;" x1="923.5" x2="1054.0195" y1="1242.4063" y2="1242.4063"/><text fill="#000000" font-family="Roboto" font-size="14" lengthAdjust="spacing" textLength="92.4561" x="942.5317" y="1233.9883">e_music_finale</text><text fill="#000000" font-family="Roboto" font-size="12" lengthAdjust="spacing" textLength="97.0957" x="928.5" y="1258.5391">success (positive)</text><text fill="#000000" font-family="Roboto" font-size="12" lengthAdjust="spacing" textLength="110.5195" x="928.5" y="1272.6016">"A Sweet Little Tune"</text></g><g id="e_nap"><rect fill="#C8E6C9" height="64.5313" rx="4" ry="4" style="stroke:#181818;stroke-width:0.5;" width="132.957" x="1123.5" y="1216"/><line style="stroke:#181818;stroke-width:0.5;" x1="1123.5" x2="1256.457" y1="1242.4063" y2="1242.4063"/><text fill="#000000" font-family="Roboto" font-size="14" lengthAdjust="spacing" textLength="36.9482" x="1171.5044" y="1233.9883">e_nap</text><text fill="#000000" font-family="Roboto" font-size="12" lengthAdjust="spacing" textLength="112.957" x="1128.5" y="1258.5391">completion (positive)</text><text fill="#000000" font-family="Roboto" font-size="12" lengthAdjust="spacing" textLength="105.2285" x="1128.5" y="1272.6016">"A Cozy Sunny Nap"</text></g><g id="e_ball_game"><rect fill="#C8E6C9" height="64.5313" rx="4" ry="4" style="stroke:#181818;stroke-width:0.5;" width="133.4727" x="1339.5" y="1216"/><line style="stroke:#181818;stroke-width:0.5;" x1="1339.5" x2="1472.9727" y1="1242.4063" y2="1242.4063"/><text fill="#000000" font-family="Roboto" font-size="14" lengthAdjust="spacing" textLength="77.5195" x="1367.4766" y="1233.9883">e_ball_game</text><text fill="#000000" font-family="Roboto" font-size="12" lengthAdjust="spacing" textLength="97.0957" x="1344.5" y="1258.5391">success (positive)</text><text fill="#000000" font-family="Roboto" font-size="12" lengthAdjust="spacing" textLength="113.4727" x="1344.5" y="1272.6016">"The Rolling Red Ball"</text></g><g id="e_kite_game"><rect fill="#C8E6C9" height="64.5313" rx="4" ry="4" style="stroke:#181818;stroke-width:0.5;" width="134.0469" x="1570" y="1216"/><line style="stroke:#181818;stroke-width:0.5;" x1="1570" x2="1704.0469" y1="1242.4063" y2="1242.4063"/><text fill="#000000" font-family="Roboto" font-size="14" lengthAdjust="spacing" textLength="77.7383" x="1598.1543" y="1233.9883">e_kite_game</text><text fill="#000000" font-family="Roboto" font-size="12" lengthAdjust="spacing" textLength="97.0957" x="1575" y="1258.5391">success (positive)</text><text fill="#000000" font-family="Roboto" font-size="12" lengthAdjust="spacing" textLength="114.0469" x="1575" y="1272.6016">"The High Bright Kite"</text></g><ellipse cx="989" cy="1353" fill="none" rx="11" ry="11" style="stroke:#222222;stroke-width:1.0;"/><ellipse cx="989" cy="1353" fill="#222222" rx="6" ry="6" style="stroke:#222222;stroke-width:1.0;"/><!--link *start* to n_start--><g id="link_*start*_n_start"><path d="M1232,26.01 C1232,39.89 1232,60.97 1232,80.84 " fill="none" id="*start*-to-n_start" style="stroke:#181818;stroke-width:1.0;"/><polygon fill="#181818" points="1232,86.84,1236,77.84,1232,81.84,1228,77.84,1232,86.84" style="stroke:#181818;stroke-width:1.0;"/></g><!--link n_start to n_honey1--><g id="link_n_start_n_honey1"><path d="M1191.32,114.65 C1082.55,119.46 791.33,135.22 763,167 C749.97,181.61 758.5101,195.5727 774.6701,209.7527 " fill="none" id="n_start-to-n_honey1" style="stroke:#181818;stroke-width:1.0;"/><polygon fill="#181818" points="779.18,213.71,775.0533,204.7674,775.4217,210.4122,769.7769,210.7806,779.18,213.71" style="stroke:#181818;stroke-width:1.0;"/><text fill="#000000" font-family="Roboto" font-size="13" lengthAdjust="spacing" textLength="153.4292" x="764" y="180.0605">Go ask the bees for honey.</text></g><!--link n_start to n_berry1--><g id="link_n_start_n_berry1"><path d="M1191.37,114.15 C1117.42,117.2 965.47,128.14 933,167 C922.32,179.78 922.3056,193.004 926.0356,208.154 " fill="none" id="n_start-to-n_berry1" style="stroke:#181818;stroke-width:1.0;"/><polygon fill="#181818" points="927.47,213.98,929.2024,204.2847,926.2747,209.125,921.4344,206.1972,927.47,213.98" style="stroke:#181818;stroke-width:1.0;"/><text fill="#000000" font-family="Roboto" font-size="13" lengthAdjust="spacing" textLength="198.4595" x="934" y="180.0605">Go pick red berries at the bramble.</text></g><!--link n_start to n_ball1--><g id="link_n_start_n_ball1"><path d="M1191.28,114.05 C1025.4,118.51 408.08,137.08 380,167 C368.52,179.23 368.5733,192.7023 372.5633,208.0823 " fill="none" id="n_start-to-n_ball1" style="stroke:#181818;stroke-width:1.0;"/><polygon fill="#181818" points="374.07,213.89,375.6818,204.1739,372.8144,209.0502,367.9381,206.1828,374.07,213.89" style="stroke:#181818;stroke-width:1.0;"/><text fill="#000000" font-family="Roboto" font-size="13" lengthAdjust="spacing" textLength="133.4023" x="381" y="180.0605">Go find the big red ball.</text></g><!--link n_start to n_kite1--><g id="link_n_start_n_kite1"><path d="M1191.4,113.82 C1004.24,117.75 232.11,135.8 192,167 C177.84,178.01 173.2641,192.0403 171.4041,208.0103 " fill="none" id="n_start-to-n_kite1" style="stroke:#181818;stroke-width:1.0;"/><polygon fill="#181818" points="170.71,213.97,175.7243,205.4932,171.2884,209.0036,167.778,204.5677,170.71,213.97" style="stroke:#181818;stroke-width:1.0;"/><text fill="#000000" font-family="Roboto" font-size="13" lengthAdjust="spacing" textLength="171.2026" x="193" y="180.0605">Go fetch the bright paper kite.</text></g><!--link n_start to n_owl1--><g id="link_n_start_n_owl1"><path d="M1272.59,113.67 C1444.24,116.72 2111.27,130.69 2318,167 C2382.29,178.29 2448.1188,201.0491 2492.6488,218.1491 " fill="none" id="n_start-to-n_owl1" style="stroke:#181818;stroke-width:1.0;"/><polygon fill="#181818" points="2498.25,220.3,2491.2821,213.3395,2493.5823,218.5076,2488.4142,220.8078,2498.25,220.3" style="stroke:#181818;stroke-width:1.0;"/><text fill="#000000" font-family="Roboto" font-size="13" lengthAdjust="spacing" textLength="178.0708" x="2388" y="180.0605">Go wake sleepy Owl in the oak.</text></g><!--link n_start to n_music1--><g id="link_n_start_n_music1"><path d="M1272.75,116.99 C1345.62,124.45 1502.91,142.06 1634,167 C1719.46,183.26 1740.5,189.61 1824,214 C1832.87,216.59 1836.586,217.6983 1845.556,220.6783 " fill="none" id="n_start-to-n_music1" style="stroke:#181818;stroke-width:1.0;"/><polygon fill="#181818" points="1851.25,222.57,1843.9701,215.9365,1846.505,220.9936,1841.4479,223.5285,1851.25,222.57" style="stroke:#181818;stroke-width:1.0;"/><text fill="#000000" font-family="Roboto" font-size="13" lengthAdjust="spacing" textLength="157.606" x="1715" y="180.0605">Go find the little music box.</text></g><!--link n_honey1 to n_honey2--><g id="link_n_honey1_n_honey2"><path d="M857.64,258.32 C863.42,260.4 869.31,262.36 875,264 C944.53,284 964.33,278.49 1035,294 C1121.3,312.94 1215.5956,337.6028 1270.2956,352.3028 " fill="none" id="n_honey1-to-n_honey2" style="stroke:#181818;stroke-width:1.0;"/><polygon fill="#181818" points="1276.09,353.86,1268.4365,347.6613,1271.2613,352.5623,1266.3603,355.3872,1276.09,353.86" style="stroke:#181818;stroke-width:1.0;"/><text fill="#000000" font-family="Roboto" font-size="13" lengthAdjust="spacing" textLength="166.6196" x="1106" y="307.0605">Ask the bees nicely and wait.</text></g><!--link n_honey1 to e_honey_oops--><g id="link_n_honey1_e_honey_oops"><path d="M770.19,255.23 C761.22,258.23 751.83,261.28 743,264 C695.38,278.65 671.53,260.13 635,294 C601.39,325.16 630.45,356.75 600,391 C583.5,409.56 565.604,420.7783 543.644,430.4183 " fill="none" id="n_honey1-to-e_honey_oops" style="stroke:#181818;stroke-width:1.0;"/><polygon fill="#181818" points="538.15,432.83,547.9988,432.875,542.7283,430.8202,544.7831,425.5498,538.15,432.83" style="stroke:#181818;stroke-width:1.0;"/><text fill="#000000" font-family="Roboto" font-size="13" lengthAdjust="spacing" textLength="128.1973" x="636" y="307.0605">Poke the hive to hurry.</text></g><!--link n_honey2 to n_start--><g id="link_n_honey2_n_start"><path d="M1357.6,356.51 C1437.12,338 1601.04,289.53 1546,214 C1482.42,126.77 1348.2293,113.3323 1278.7193,112.2623 " fill="none" id="n_honey2-to-n_start" style="stroke:#181818;stroke-width:1.0;"/><polygon fill="#181818" points="1272.72,112.17,1281.6574,116.3081,1277.7194,112.247,1281.7805,108.309,1272.72,112.17" style="stroke:#181818;stroke-width:1.0;"/><text fill="#000000" font-family="Roboto" font-size="13" lengthAdjust="spacing" textLength="206.5591" x="1559" y="243.5605">Carry the honey back to the blanket.</text></g><!--link n_honey2 to n_gather--><g id="link_n_honey2_n_gather"><path d="M1311.46,391.05 C1306.91,415.67 1302.85,454.65 1314,486 C1317.89,496.94 1321.1353,502.723 1328.5653,511.353 " fill="none" id="n_honey2-to-n_gather" style="stroke:#181818;stroke-width:1.0;"/><polygon fill="#181818" points="1332.48,515.9,1329.6392,506.4697,1329.2177,512.1109,1323.5766,511.6894,1332.48,515.9" style="stroke:#181818;stroke-width:1.0;"/><text fill="#000000" font-family="Roboto" font-size="13" lengthAdjust="spacing" textLength="188.2397" x="1315" y="458.0605">Ring the bell and start the picnic.</text></g><!--link n_berry1 to n_berry2--><g id="link_n_berry1_n_berry2"><path d="M979.79,256.98 C988.68,259.81 998.04,262.35 1007,264 C1091.75,279.63 1708.7,248.69 1782,294 C1798.75,304.35 1806.8487,318.9601 1812.5587,335.1901 " fill="none" id="n_berry1-to-n_berry2" style="stroke:#181818;stroke-width:1.0;"/><polygon fill="#181818" points="1814.55,340.85,1815.3364,331.0326,1812.8906,336.1334,1807.7898,333.6876,1814.55,340.85" style="stroke:#181818;stroke-width:1.0;"/><text fill="#000000" font-family="Roboto" font-size="13" lengthAdjust="spacing" textLength="146.3262" x="1800" y="307.0605">Pick the easy low berries.</text></g><!--link n_berry1 to e_berry_oops--><g id="link_n_berry1_e_berry_oops"><path d="M892.24,258.03 C857.98,272.34 815.66,290.5 813,294 C777.2,341.09 768.1959,515.9329 765.9059,589.8029 " fill="none" id="n_berry1-to-e_berry_oops" style="stroke:#181818;stroke-width:1.0;"/><polygon fill="#181818" points="765.72,595.8,769.9969,586.9283,765.8749,590.8024,762.0008,586.6804,765.72,595.8" style="stroke:#181818;stroke-width:1.0;"/><text fill="#000000" font-family="Roboto" font-size="13" lengthAdjust="spacing" textLength="189.7568" x="795" y="370.5605">Stretch for the wobbly high ones.</text></g><!--link n_berry2 to n_start--><g id="link_n_berry2_n_start"><path d="M1861.79,360.47 C1892.97,354.64 1934.04,341.34 1955,311 C1979.5,275.53 1976.88,251.72 1956,214 C1936.95,179.58 1918.32,179.43 1881,167 C1767.29,129.14 1402.8282,117.0985 1278.8482,114.0285 " fill="none" id="n_berry2-to-n_start" style="stroke:#181818;stroke-width:1.0;"/><polygon fill="#181818" points="1272.85,113.88,1281.7482,118.1016,1277.8485,114.0038,1281.9463,110.104,1272.85,113.88" style="stroke:#181818;stroke-width:1.0;"/><text fill="#000000" font-family="Roboto" font-size="13" lengthAdjust="spacing" textLength="211.5293" x="1973" y="243.5605">Carry the berries back to the blanket.</text></g><!--link n_berry2 to n_gather--><g id="link_n_berry2_n_gather"><path d="M1803.94,391.17 C1797.37,400.48 1789.82,411.22 1783,421 C1762.89,449.81 1767.9,467.54 1738,486 C1681.8,520.7 1490.7427,533.744 1404.7027,537.994 " fill="none" id="n_berry2-to-n_gather" style="stroke:#181818;stroke-width:1.0;"/><polygon fill="#181818" points="1398.71,538.29,1407.8964,541.8411,1403.7039,538.0433,1407.5017,533.8509,1398.71,538.29" style="stroke:#181818;stroke-width:1.0;"/><text fill="#000000" font-family="Roboto" font-size="13" lengthAdjust="spacing" textLength="188.2397" x="1784" y="458.0605">Ring the bell and start the picnic.</text></g><!--link n_ball1 to n_ball2--><g id="link_n_ball1_n_ball2"><path d="M426.5,250.13 C447.94,254.85 474.23,260.24 498,264 C620.31,283.34 652.98,272.87 775,294 C806.97,299.54 814.34,303.91 846,311 C909.8,325.28 927.04,323.42 990,341 C998.92,343.49 1002.7005,344.586 1011.6205,347.676 " fill="none" id="n_ball1-to-n_ball2" style="stroke:#181818;stroke-width:1.0;"/><polygon fill="#181818" points="1017.29,349.64,1010.0951,342.9144,1012.5654,348.0034,1007.4765,350.4737,1017.29,349.64" style="stroke:#181818;stroke-width:1.0;"/><text fill="#000000" font-family="Roboto" font-size="13" lengthAdjust="spacing" textLength="176.5537" x="847" y="307.0605">Follow the little bounce marks.</text></g><!--link n_ball1 to e_ball_oops--><g id="link_n_ball1_e_ball_oops"><path d="M339.37,252.17 C316.7,260.55 290.21,273.87 273,294 C251.53,319.11 251,331.96 251,365 C251,365 251,365 251,629.5 C251,679.65 262.9063,730.7667 272.6463,765.1867 " fill="none" id="n_ball1-to-e_ball_oops" style="stroke:#181818;stroke-width:1.0;"/><polygon fill="#181818" points="274.28,770.96,275.6783,761.2109,272.9186,766.1489,267.9806,763.3892,274.28,770.96" style="stroke:#181818;stroke-width:1.0;"/><text fill="#000000" font-family="Roboto" font-size="13" lengthAdjust="spacing" textLength="131.3647" x="252" y="458.0605">Dive into the tall grass.</text></g><!--link n_ball2 to n_start--><g id="link_n_ball2_n_start"><path d="M1054.51,340.82 C1051.22,308.77 1050.2,251.84 1077,214 C1094.23,189.67 1111.63,199.65 1137,184 C1159.96,169.84 1179.5933,155.3011 1197.8833,140.8411 " fill="none" id="n_ball2-to-n_start" style="stroke:#181818;stroke-width:1.0;"/><polygon fill="#181818" points="1202.59,137.12,1193.0492,139.5639,1198.6677,140.2209,1198.0107,145.8395,1202.59,137.12" style="stroke:#181818;stroke-width:1.0;"/><text fill="#000000" font-family="Roboto" font-size="13" lengthAdjust="spacing" textLength="183.7075" x="1078" y="243.5605">Roll the ball back to the blanket.</text></g><!--link n_ball2 to n_gather--><g id="link_n_ball2_n_gather"><path d="M1061.71,391.49 C1067.16,418.75 1080.04,462.11 1109,486 C1140.39,511.9 1249.3306,527.7629 1311.4806,535.0329 " fill="none" id="n_ball2-to-n_gather" style="stroke:#181818;stroke-width:1.0;"/><polygon fill="#181818" points="1317.44,535.73,1308.9657,530.7114,1312.4739,535.1491,1308.0362,538.6573,1317.44,535.73" style="stroke:#181818;stroke-width:1.0;"/><text fill="#000000" font-family="Roboto" font-size="13" lengthAdjust="spacing" textLength="188.2397" x="1110" y="458.0605">Ring the bell and start the picnic.</text></g><!--link n_kite1 to n_kite2--><g id="link_n_kite1_n_kite2"><path d="M209.52,264.09 C236.02,279.36 272.14,298.52 306,311 C372.45,335.49 447.7492,350.1581 495.5092,357.9981 " fill="none" id="n_kite1-to-n_kite2" style="stroke:#181818;stroke-width:1.0;"/><polygon fill="#181818" points="501.43,358.97,493.1968,353.565,496.496,358.1601,491.9009,361.4593,501.43,358.97" style="stroke:#181818;stroke-width:1.0;"/><text fill="#000000" font-family="Roboto" font-size="13" lengthAdjust="spacing" textLength="208.3999" x="307" y="307.0605">Carry the kite gently under your arm.</text></g><!--link n_kite1 to e_kite_oops--><g id="link_n_kite1_e_kite_oops"><path d="M126.48,252.39 C77.9,269.19 6,304.32 6,365 C6,365 6,365 6,804.5 C6,859.32 39.2206,908.6314 67.0506,941.3214 " fill="none" id="n_kite1-to-e_kite_oops" style="stroke:#181818;stroke-width:1.0;"/><polygon fill="#181818" points="70.94,945.89,68.1516,936.4441,67.6988,942.0828,62.0601,941.63,70.94,945.89" style="stroke:#181818;stroke-width:1.0;"/><text fill="#000000" font-family="Roboto" font-size="13" lengthAdjust="spacing" textLength="190.2773" x="7" y="545.5605">Let the kite flap open in the wind.</text></g><!--link n_kite2 to n_start--><g id="link_n_kite2_n_start"><path d="M537.05,340.76 C531.85,307.84 528.18,249.08 559,214 C642.63,118.8 1052.6,112.2133 1185.27,112.5833 " fill="none" id="n_kite2-to-n_start" style="stroke:#181818;stroke-width:1.0;"/><polygon fill="#181818" points="1191.27,112.6,1182.2812,108.5749,1186.27,112.5861,1182.2589,116.5749,1191.27,112.6" style="stroke:#181818;stroke-width:1.0;"/><text fill="#000000" font-family="Roboto" font-size="13" lengthAdjust="spacing" textLength="192.3086" x="560" y="243.5605">Bring the kite back to the blanket.</text></g><!--link n_kite2 to n_gather--><g id="link_n_kite2_n_gather"><path d="M582.73,385.23 C644.12,411.89 764.63,461.04 872,486 C1034.28,523.72 1227.3648,535.0997 1311.4548,538.4697 " fill="none" id="n_kite2-to-n_gather" style="stroke:#181818;stroke-width:1.0;"/><polygon fill="#181818" points="1317.45,538.71,1308.6174,534.3528,1312.454,538.5098,1308.297,542.3464,1317.45,538.71" style="stroke:#181818;stroke-width:1.0;"/><text fill="#000000" font-family="Roboto" font-size="13" lengthAdjust="spacing" textLength="188.2397" x="873" y="458.0605">Ring the bell and start the picnic.</text></g><!--link n_owl1 to n_owl2--><g id="link_n_owl1_n_owl2"><path d="M2498.26,255.46 C2489.29,258.44 2479.87,261.43 2471,264 C2416.53,279.76 2394.6,263.19 2347,294 C2329.07,305.61 2317.7202,320.0174 2308.1202,335.6474 " fill="none" id="n_owl1-to-n_owl2" style="stroke:#181818;stroke-width:1.0;"/><polygon fill="#181818" points="2304.98,340.76,2313.0987,335.1845,2307.5968,336.4995,2306.2819,330.9976,2304.98,340.76" style="stroke:#181818;stroke-width:1.0;"/><text fill="#000000" font-family="Roboto" font-size="13" lengthAdjust="spacing" textLength="178.915" x="2348" y="307.0605">Hoot softly to wake Owl gently.</text></g><!--link n_owl1 to e_owl_oops--><g id="link_n_owl1_e_owl_oops"><path d="M2545.42,264.38 C2548.65,289.53 2553,329.93 2553,365 C2553,365 2553,365 2553,979.5 C2553,1036.76 2512.7472,1084.9786 2478.3672,1116.7386 " fill="none" id="n_owl1-to-e_owl_oops" style="stroke:#181818;stroke-width:1.0;"/><polygon fill="#181818" points="2473.96,1120.81,2483.2851,1117.6411,2477.6327,1117.4172,2477.8566,1111.7648,2473.96,1120.81" style="stroke:#181818;stroke-width:1.0;"/><text fill="#000000" font-family="Roboto" font-size="13" lengthAdjust="spacing" textLength="141.1592" x="2554" y="633.0605">Shake the whole branch.</text></g><!--link n_owl2 to n_start--><g id="link_n_owl2_n_start"><path d="M2283.34,340.91 C2269.73,306.77 2239.95,245.01 2193,214 C2038.4,111.9 1441.1997,110.7402 1278.5797,112.3602 " fill="none" id="n_owl2-to-n_start" style="stroke:#181818;stroke-width:1.0;"/><polygon fill="#181818" points="1272.58,112.42,1281.6194,116.3301,1277.5798,112.3702,1281.5397,108.3305,1272.58,112.42" style="stroke:#181818;stroke-width:1.0;"/><text fill="#000000" font-family="Roboto" font-size="13" lengthAdjust="spacing" textLength="169.9648" x="2243" y="243.5605">Walk Owl back to the blanket.</text></g><!--link n_owl2 to n_gather--><g id="link_n_owl2_n_gather"><path d="M2272.98,391.1 C2248.94,419.53 2204.65,465.51 2155,486 C2084.81,514.97 1557.447,533.6988 1404.737,538.5688 " fill="none" id="n_owl2-to-n_gather" style="stroke:#181818;stroke-width:1.0;"/><polygon fill="#181818" points="1398.74,538.76,1407.8629,542.4711,1403.7375,538.6006,1407.6079,534.4752,1398.74,538.76" style="stroke:#181818;stroke-width:1.0;"/><text fill="#000000" font-family="Roboto" font-size="13" lengthAdjust="spacing" textLength="188.2397" x="2246" y="458.0605">Ring the bell and start the picnic.</text></g><!--link n_music1 to n_music2--><g id="link_n_music1_n_music2"><path d="M1851.36,255.83 C1842.38,258.78 1832.94,261.67 1824,264 C1753.57,282.37 1730.95,267.9 1663,294 C1646.74,300.24 1615.7326,319.5777 1588.1126,337.6277 " fill="none" id="n_music1-to-n_music2" style="stroke:#181818;stroke-width:1.0;"/><polygon fill="#181818" points="1583.09,340.91,1592.8121,339.3349,1587.2755,338.1747,1588.4357,332.6381,1583.09,340.91" style="stroke:#181818;stroke-width:1.0;"/><text fill="#000000" font-family="Roboto" font-size="13" lengthAdjust="spacing" textLength="113.3311" x="1664" y="307.0605">Lift the lid carefully.</text></g><!--link n_music1 to e_music_oops--><g id="link_n_music1_e_music_oops"><path d="M1924.7,264.25 C1934.8,273.13 1945.85,283.57 1955,294 C1990.79,334.79 2021.9332,382.5392 2042.1932,415.7192 " fill="none" id="n_music1-to-e_music_oops" style="stroke:#181818;stroke-width:1.0;"/><polygon fill="#181818" points="2045.32,420.84,2044.0436,411.0742,2042.7143,416.5726,2037.2159,415.2433,2045.32,420.84" style="stroke:#181818;stroke-width:1.0;"/><text fill="#000000" font-family="Roboto" font-size="13" lengthAdjust="spacing" textLength="179.9116" x="1968" y="307.0605">Give the handle a big fast wind.</text></g><!--link n_music2 to n_start--><g id="link_n_music2_n_start"><path d="M1506.13,357.31 C1453.65,345.54 1362.53,318.45 1305,264 C1267.57,228.57 1248.6085,175.7304 1239.4785,142.9204 " fill="none" id="n_music2-to-n_start" style="stroke:#181818;stroke-width:1.0;"/><polygon fill="#181818" points="1237.87,137.14,1236.4292,146.8829,1239.2104,141.957,1244.1363,144.7382,1237.87,137.14" style="stroke:#181818;stroke-width:1.0;"/><text fill="#000000" font-family="Roboto" font-size="13" lengthAdjust="spacing" textLength="231.3911" x="1306" y="243.5605">Carry the music box back to the blanket.</text></g><!--link n_music2 to n_gather--><g id="link_n_music2_n_gather"><path d="M1545.25,391.18 C1542.08,417.76 1533.15,460.12 1508,486 C1478.97,515.88 1438.1371,528.2384 1404.5471,534.2184 " fill="none" id="n_music2-to-n_gather" style="stroke:#181818;stroke-width:1.0;"/><polygon fill="#181818" points="1398.64,535.27,1408.2018,537.6306,1403.5626,534.3936,1406.7996,529.7545,1398.64,535.27" style="stroke:#181818;stroke-width:1.0;"/><text fill="#000000" font-family="Roboto" font-size="13" lengthAdjust="spacing" textLength="188.2397" x="1541" y="458.0605">Ring the bell and start the picnic.</text></g><!--link n_gather to n_welcome--><g id="link_n_gather_n_welcome"><path d="M1358,566.05 C1358,599.01 1358,651.87 1358,684.87 " fill="none" id="n_gather-to-n_welcome" style="stroke:#181818;stroke-width:1.0;"/><polygon fill="#181818" points="1358,690.87,1362,681.87,1358,685.87,1354,681.87,1358,690.87" style="stroke:#181818;stroke-width:1.0;"/><text fill="#000000" font-family="Roboto" font-size="13" lengthAdjust="spacing" textLength="163.4141" x="1359" y="633.0605">Welcome the teddy bears in.</text></g><!--link n_welcome to n_arrange--><g id="link_n_welcome_n_arrange"><path d="M1358,741.05 C1358,774.01 1358,826.87 1358,859.87 " fill="none" id="n_welcome-to-n_arrange" style="stroke:#181818;stroke-width:1.0;"/><polygon fill="#181818" points="1358,865.87,1362,856.87,1358,860.87,1354,856.87,1358,865.87" style="stroke:#181818;stroke-width:1.0;"/><text fill="#000000" font-family="Roboto" font-size="13" lengthAdjust="spacing" textLength="158.3042" x="1359" y="808.0605">Lay out all the picnic treats.</text></g><!--link n_arrange to n_share--><g id="link_n_arrange_n_share"><path d="M1314.26,905.42 C1285.32,915.04 1246.96,929.23 1215,946 C1162.11,973.75 1110.9003,1011.2789 1077.6703,1037.2089 " fill="none" id="n_arrange-to-n_share" style="stroke:#181818;stroke-width:1.0;"/><polygon fill="#181818" points="1072.94,1040.9,1082.4962,1038.5168,1076.8819,1037.8241,1077.5747,1032.2098,1072.94,1040.9" style="stroke:#181818;stroke-width:1.0;"/><text fill="#000000" font-family="Roboto" font-size="13" lengthAdjust="spacing" textLength="164.0298" x="1216" y="983.0605">Share the honey and berries.</text></g><!--link n_arrange to n_game--><g id="link_n_arrange_n_game"><path d="M1371.21,916.05 C1389.31,949.01 1418.7422,1002.6107 1436.8622,1035.6107 " fill="none" id="n_arrange-to-n_game" style="stroke:#181818;stroke-width:1.0;"/><polygon fill="#181818" points="1439.75,1040.87,1438.9244,1031.0558,1437.3435,1036.4872,1431.912,1034.9063,1439.75,1040.87" style="stroke:#181818;stroke-width:1.0;"/><text fill="#000000" font-family="Roboto" font-size="13" lengthAdjust="spacing" textLength="114.9497" x="1424" y="983.0605">Start a picnic game.</text></g><!--link n_share to e_song--><g id="link_n_share_e_song"><path d="M999.29,1069.3 C930.73,1073.92 802.85,1086.98 775,1121 C752.41,1148.6 769.3599,1183.5457 789.4999,1211.1057 " fill="none" id="n_share-to-e_song" style="stroke:#181818;stroke-width:1.0;"/><polygon fill="#181818" points="793.04,1215.95,790.9594,1206.3234,790.0899,1211.913,784.5003,1211.0435,793.04,1215.95" style="stroke:#181818;stroke-width:1.0;"/><text fill="#000000" font-family="Roboto" font-size="13" lengthAdjust="spacing" textLength="192.8418" x="776" y="1158.0605">Sing the teddy bears' picnic song.</text></g><!--link n_share to e_music_finale--><g id="link_n_share_e_music_finale"><path d="M1008.6,1091.18 C999.52,1099.49 990.9,1109.6 986,1121 C972.98,1151.27 975.1492,1183.6018 980.0892,1210.0718 " fill="none" id="n_share-to-e_music_finale" style="stroke:#181818;stroke-width:1.0;"/><polygon fill="#181818" points="981.19,1215.97,983.471,1206.3889,980.2727,1211.0549,975.6068,1207.8566,981.19,1215.97" style="stroke:#181818;stroke-width:1.0;"/><text fill="#000000" font-family="Roboto" font-size="13" lengthAdjust="spacing" textLength="192.4419" x="987" y="1158.0605">Wind up the music box and sway.</text></g><!--link n_share to e_nap--><g id="link_n_share_e_nap"><path d="M1086.64,1071.22 C1119.16,1076.88 1161.65,1090.1 1184,1121 C1203.72,1148.26 1202.9881,1182.2003 1198.4181,1209.8603 " fill="none" id="n_share-to-e_nap" style="stroke:#181818;stroke-width:1.0;"/><polygon fill="#181818" points="1197.44,1215.78,1202.8536,1207.5524,1198.2551,1210.8469,1194.9606,1206.2483,1197.44,1215.78" style="stroke:#181818;stroke-width:1.0;"/><text fill="#000000" font-family="Roboto" font-size="13" lengthAdjust="spacing" textLength="188.3667" x="1202" y="1158.0605">Curl up for a cozy nap in the sun.</text></g><!--link n_game to e_ball_game--><g id="link_n_game_e_ball_game"><path d="M1446.66,1091.34 C1438.27,1123.58 1424.9617,1174.6736 1415.7217,1210.1636 " fill="none" id="n_game-to-e_ball_game" style="stroke:#181818;stroke-width:1.0;"/><polygon fill="#181818" points="1414.21,1215.97,1420.3486,1208.2682,1415.4698,1211.1313,1412.6066,1206.2525,1414.21,1215.97" style="stroke:#181818;stroke-width:1.0;"/><text fill="#000000" font-family="Roboto" font-size="13" lengthAdjust="spacing" textLength="204.0581" x="1439" y="1158.0605">Roll the big red ball around the ring.</text></g><!--link n_game to e_kite_game--><g id="link_n_game_e_kite_game"><path d="M1496.72,1072.66 C1549.41,1080.48 1633.24,1096.47 1652,1121 C1672.62,1147.97 1665.3119,1182.4847 1654.4019,1210.2847 " fill="none" id="n_game-to-e_kite_game" style="stroke:#181818;stroke-width:1.0;"/><polygon fill="#181818" points="1652.21,1215.87,1659.2214,1208.9533,1654.0366,1211.2156,1651.7744,1206.0308,1652.21,1215.87" style="stroke:#181818;stroke-width:1.0;"/><text fill="#000000" font-family="Roboto" font-size="13" lengthAdjust="spacing" textLength="179.5371" x="1666" y="1158.0605">Fly the bright kite in the breeze.</text></g><!--link e_honey_oops to *end*--><g id="link_e_honey_oops_*end*"><path d="M507.38,486.05 C535.5,518.7 573,572.54 573,627.5 C573,627.5 573,627.5 573,1249.5 C573,1335.41 905.7227,1349.5605 971.8727,1351.5405 " fill="none" id="e_honey_oops-to-*end*" style="stroke:#181818;stroke-width:1.0;"/><polygon fill="#181818" points="977.87,1351.72,968.9937,1347.4525,972.8722,1351.5704,968.7544,1355.4489,977.87,1351.72" style="stroke:#181818;stroke-width:1.0;"/></g><!--link e_berry_oops to *end*--><g id="link_e_berry_oops_*end*"><path d="M744.23,661.2 C724.23,694.83 697,750.22 697,802.5 C697,802.5 697,802.5 697,1249.5 C697,1310.21 918.621,1342.8293 971.961,1349.8293 " fill="none" id="e_berry_oops-to-*end*" style="stroke:#181818;stroke-width:1.0;"/><polygon fill="#181818" points="977.91,1350.61,969.507,1345.4729,972.9525,1349.9594,968.466,1353.4049,977.91,1350.61" style="stroke:#181818;stroke-width:1.0;"/></g><!--link e_ball_oops to *end*--><g id="link_e_ball_oops_*end*"><path d="M294.02,836.02 C304.05,870.42 318,927.3 318,977.5 C318,977.5 318,977.5 318,1249.5 C318,1319.18 884.6761,1347.32 971.9161,1351.25 " fill="none" id="e_ball_oops-to-*end*" style="stroke:#181818;stroke-width:1.0;"/><polygon fill="#181818" points="977.91,1351.52,969.0991,1347.119,972.9151,1351.295,968.7391,1355.1109,977.91,1351.52" style="stroke:#181818;stroke-width:1.0;"/></g><!--link e_kite_oops to *end*--><g id="link_e_kite_oops_*end*"><path d="M108.43,1011.26 C126.4,1080.08 179.29,1242.38 292,1312 C352.84,1349.58 887.85,1351.8614 972.02,1351.9814 " fill="none" id="e_kite_oops-to-*end*" style="stroke:#181818;stroke-width:1.0;"/><polygon fill="#181818" points="978.02,1351.99,969.0257,1347.9772,973.02,1351.9829,969.0143,1355.9772,978.02,1351.99" style="stroke:#181818;stroke-width:1.0;"/></g><!--link e_owl_oops to *end*--><g id="link_e_owl_oops_*end*"><path d="M2374.14,1186.07 C2297.58,1223.98 2160.99,1285.74 2036,1312 C1823.71,1356.6 1104.2298,1352.8646 1006.0298,1352.1346 " fill="none" id="e_owl_oops-to-*end*" style="stroke:#181818;stroke-width:1.0;"/><polygon fill="#181818" points="1000.03,1352.09,1009,1356.1568,1005.0299,1352.1272,1009.0595,1348.157,1000.03,1352.09" style="stroke:#181818;stroke-width:1.0;"/></g><!--link e_music_oops to *end*--><g id="link_e_music_oops_*end*"><path d="M2047.8,486.1 C2031.89,520.1 2010,576.21 2010,627.5 C2010,627.5 2010,627.5 2010,1249.5 C2010,1356.5 1116.7698,1352.9855 1006.1198,1352.1455 " fill="none" id="e_music_oops-to-*end*" style="stroke:#181818;stroke-width:1.0;"/><polygon fill="#181818" points="1000.12,1352.1,1009.0894,1356.1682,1005.1199,1352.138,1009.1501,1348.1684,1000.12,1352.1" style="stroke:#181818;stroke-width:1.0;"/></g><!--link e_song to *end*--><g id="link_e_song_*end*"><path d="M872.08,1281.09 C910.68,1304.5 954.7903,1331.2478 974.8003,1343.3878 " fill="none" id="e_song-to-*end*" style="stroke:#181818;stroke-width:1.0;"/><polygon fill="#181818" points="979.93,1346.5,974.3102,1338.4119,975.6552,1343.9065,970.1606,1345.2515,979.93,1346.5" style="stroke:#181818;stroke-width:1.0;"/></g><!--link e_music_finale to *end*--><g id="link_e_music_finale_*end*"><path d="M989,1281.09 C989,1301.8 989,1321.55 989,1335.62 " fill="none" id="e_music_finale-to-*end*" style="stroke:#181818;stroke-width:1.0;"/><polygon fill="#181818" points="989,1341.62,993,1332.62,989,1336.62,985,1332.62,989,1341.62" style="stroke:#181818;stroke-width:1.0;"/></g><!--link e_nap to *end*--><g id="link_e_nap_*end*"><path d="M1128.05,1281.09 C1081.22,1304.97 1026.5758,1332.8456 1003.7358,1344.4856 " fill="none" id="e_nap-to-*end*" style="stroke:#181818;stroke-width:1.0;"/><polygon fill="#181818" points="998.39,1347.21,1008.225,1346.6873,1002.8448,1344.9397,1004.5924,1339.5595,998.39,1347.21" style="stroke:#181818;stroke-width:1.0;"/></g><!--link e_ball_game to *end*--><g id="link_e_ball_game_*end*"><path d="M1339.46,1265.85 C1236.68,1291.12 1052.0665,1336.4977 1005.3665,1347.9777 " fill="none" id="e_ball_game-to-*end*" style="stroke:#181818;stroke-width:1.0;"/><polygon fill="#181818" points="999.54,1349.41,1009.2347,1351.1459,1004.3954,1348.2164,1007.3249,1343.3772,999.54,1349.41" style="stroke:#181818;stroke-width:1.0;"/></g><!--link e_kite_game to *end*--><g id="link_e_kite_game_*end*"><path d="M1569.87,1264.92 C1544.87,1270.39 1516.21,1276.34 1490,1281 C1294.53,1315.75 1059.6897,1343.786 1005.9297,1350.046 " fill="none" id="e_kite_game-to-*end*" style="stroke:#181818;stroke-width:1.0;"/><polygon fill="#181818" points="999.97,1350.74,1009.3722,1353.6722,1004.9364,1350.1617,1008.4469,1345.7259,999.97,1350.74" style="stroke:#181818;stroke-width:1.0;"/></g><rect fill="none" height="75.625" id="_legend" rx="4" ry="4" style="stroke:#000000;stroke-width:1.0;" width="228.2852" x="2448.874" y="1381"/><text fill="#000000" font-family="Roboto" font-size="14" lengthAdjust="spacing" textLength="148.3057" x="2453.874" y="1398.9883">The Teddy Bears' Picnic</text><text fill="#000000" font-family="Roboto" font-size="14" lengthAdjust="spacing" textLength="155.791" x="2453.874" y="1415.3945">Band 3-5 &#183; Tier 1 &#183; ~5 min</text><text fill="#000000" font-family="Roboto" font-size="14" lengthAdjust="spacing" textLength="159.1406" x="2453.874" y="1431.8008">Topology: loop_and_grow</text><text fill="#000000" font-family="Roboto" font-size="14" lengthAdjust="spacing" textLength="218.2852" x="2453.874" y="1448.207">29 nodes &#183; 11 endings (5+ / 0n / 6-)</text><!--SRC=[bLVDRjms4BxlKmpMXwG_tiIEOyGkK22xZXEaRc9u3UHG50kkn5qHooK5Yegg7FfQlVV9EaDI4gbK1yE0RSuF-NqpdE7e6RpdYXjcUGuxeuzG7RZaLYlukFxy2ROjL9aHfQrU6AvoRZQTVfCBjZViM2tATZ5x1ZSQbBR0Ss79gs0g_mKCFpMr0bjmsFjZj5dCgeDG9KDVoFcErTBUQcK_iIE7-OFUQgldaScMPOUzqRNALrfg0oUtR-adiWXAW_l3craXSWxyMDeMT_VOXLQpsHy__Wcdfx-2sbIM6Jl3tvPtApXPBc_UtIvdtVeQAcxh4lxz1oukczwuq8gtPuZXzlPgTJ7h1TUG5LfatDcVZ-pFuUJcR7NnxchM2wx1Y4gelRD_sTbphzveNLPqnkhcvdoM21qiYWWyLtpFhFZAVnXRp3_ZtvzXMN_xriAIyshUmzboOnBuGJ05twbZ-44m1T-fn_0ZuGJyn2B0VwoFMqb7B54f4X9CoeI3MoSKNZQ9TSB0hMC2hzv4153x7VvUDWK_CWZe6JoAx215LS07NPRS3F0Fml8OlbzFPO2qCNo_de9FsZ7yGJO1FpReuNyHAc_XzphF9H-mwoQ9l5ico2-Qs3O6xfPJzmQLOzYzQ09rfEz1tml9GU_WZhElyOqvrfN8Ok11C1Lqfux11y5Ks9rwJ20IJb18B7eI7-dYOpD-h5KKUVGgiBqDa8BW_oEgDWsNcSQ6EZXqaYaFPWnJUnv5gPDCbLPLC1FR-_MKzPxw-s3ibh7jgyiXe9L6V2UhD-ykLrUpi4HRVIpnwS5k3izBNOakZa4zVyHNvbvaIcImHj5yb9-TK0plnx1j8iOSrLd6gohTUsGpVmlhXdCBTy9QbCH9uXl5ocXxMas3zbhSRwMnJQzhfLhunCfvsefyqFej1za4tDZ0nUD1IzT57_16BL4vJtl5QFz1Dh5_RE3s_o3s1ImD_hRm6ohd_Glgtzh-VNolWLK7DmbiyKs27JxbJhaOUVHF4dgKs4HnXiXXwny1ODRlWCy-5ibthk4bG4_CMEvDnTxlWBgnVTTwoPxRh0XxEp8bmwuDP37s2bqFdHfsu519piiMFZSIX9zqD3kCVVg64qEJ_Wuv7MprNujXdeY2HstdRHmvlDzSje3p5G8GTkGr6WRkDK8arm8p25P3KMDu5yCa4er4QBx2cc-zFQdTy4LUxd39r87RxtpxJlH05yt3bDBXyzkIg7HrkHX6ZYZPnF2UCas6d5KjIDrqAH-vZ8Q5jJKkSNIRoBlHsot6fg1RYHW7xscYtTMQe9fuFvMgku_3tIIYjrYGo2xA_nR7Lso1HsOELUgLZXOtb46X0aIB6i3vk-fznXIfz3r6CfsY5pa-aPsldg6IpfEmaeHcVelfgEd30LfT6s3ccFgcyySTjuFtJcAFr2LNNM4rM3cBVWXAsM8F2g2TxmJTsFE9T5tPzns0o7xG-BrJwHrHjA4RK1lmh1EVP5vP5omKPLDewRgPoef5DoIblBumUN2xJZ2AN9v8AFIag44HgJkni-5svf3XWxwhfISJsOzcb_Ukjr3JmBEG47DTTySgswSix3zLX7qFdAAP-3-HQ33tliCOz2Nyvwg9vpZkRZap5LwsHJGkUQzX5BfZBUZQ0Wl5vOy1x4FCkbBiJ0FLC1EjtT-XiHBMgCEbJk61NJikh3k2f8j-pF9f2AFFkej3nEDPvqSsOx_HM4FJFk3NRfeA5y-6jMDdFxgiQYF9Xrelmp47fnXIX5AjQhNefhoebGLcGskANcVi3VGXx-HKp2F_UFIubMtyLhkA3mTl3UVVC4x9EqWxuFT_-gaP2VikEyY6hZJ8-XeUH54T34ANbR5D2FOWfcYDCFHq8mo9R2OvTfSS7EyP08rWZoxdIvzpF_-YPadPUtNwcaRhHu7N_up- -_ir78KYHrrggVVjDRwrkjoWyMPlT8EQyojGEiS74StFpW1FmrpW6FZw9tW1BnN-kZp5KP0AdQ3y1m00]--></g></svg>
