<?plantuml 1.2026.2?><svg xmlns="http://www.w3.org/2000/svg" xmlns:xlink="http://www.w3.org/1999/xlink" contentStyleType="text/css" data-diagram-type="STATE" height="1060px" preserveAspectRatio="none" style="width:1191px;height:1060px;background:#FAFAFA;" version="1.1" viewBox="0 0 1191 1060" width="1191px" zoomAndPan="magnify"><defs/><g><rect fill="#FAFAFA" height="1060" style="stroke:none;stroke-width:1;" width="1191" x="0" y="0"/><g class="entity" data-qualified-name="n_start" id="ent0002"><rect fill="#BBDEFB" height="50.2656" rx="4" ry="4" style="stroke:#181818;stroke-width:0.5;" width="90.0898" x="550.98" y="87"/><line style="stroke:#181818;stroke-width:0.5;" x1="550.98" x2="641.0698" y1="113.2969" y2="113.2969"/><text fill="#000000" font-family="'Roboto'" font-size="14" lengthAdjust="spacing" textLength="48.4805" x="571.7847" y="104.9951">n_start</text><text fill="#000000" font-family="'Roboto'" font-size="12" lengthAdjust="spacing" textLength="70.0898" x="555.98" y="129.4355">setup &#183; 85w</text></g><g class="entity" data-qualified-name="n_pine" id="ent0003"><rect fill="#D1C4E9" height="50.2656" rx="4" ry="4" style="stroke:#181818;stroke-width:0.5;" width="89.6035" x="250.22" y="214.27"/><line style="stroke:#181818;stroke-width:0.5;" x1="250.22" x2="339.8235" y1="240.5669" y2="240.5669"/><text fill="#000000" font-family="'Roboto'" font-size="14" lengthAdjust="spacing" textLength="46.1357" x="271.9539" y="232.2651">n_pine</text><text fill="#000000" font-family="'Roboto'" font-size="12" lengthAdjust="spacing" textLength="69.6035" x="255.22" y="256.7055">rising &#183; 80w</text></g><g class="entity" data-qualified-name="n_rabbit" id="ent0004"><rect fill="#D1C4E9" height="50.2656" rx="4" ry="4" style="stroke:#181818;stroke-width:0.5;" width="89.6035" x="589.22" y="214.27"/><line style="stroke:#181818;stroke-width:0.5;" x1="589.22" x2="678.8235" y1="240.5669" y2="240.5669"/><text fill="#000000" font-family="'Roboto'" font-size="14" lengthAdjust="spacing" textLength="57.3604" x="605.3416" y="232.2651">n_rabbit</text><text fill="#000000" font-family="'Roboto'" font-size="12" lengthAdjust="spacing" textLength="69.6035" x="594.22" y="256.7055">rising &#183; 80w</text></g><g class="entity" data-qualified-name="n_sled" id="ent0005"><rect fill="#D1C4E9" height="50.2656" rx="4" ry="4" style="stroke:#181818;stroke-width:0.5;" width="89.6035" x="828.22" y="214.27"/><line style="stroke:#181818;stroke-width:0.5;" x1="828.22" x2="917.8235" y1="240.5669" y2="240.5669"/><text fill="#000000" font-family="'Roboto'" font-size="14" lengthAdjust="spacing" textLength="44.5566" x="850.7434" y="232.2651">n_sled</text><text fill="#000000" font-family="'Roboto'" font-size="12" lengthAdjust="spacing" textLength="69.6035" x="833.22" y="256.7055">rising &#183; 80w</text></g><g class="entity" data-qualified-name="n_creek" id="ent0006"><rect fill="#FFF9C4" height="50.2656" rx="4" ry="4" style="stroke:#181818;stroke-width:0.5;" width="95.3867" x="586.33" y="341.54"/><line style="stroke:#181818;stroke-width:0.5;" x1="586.33" x2="681.7167" y1="367.8369" y2="367.8369"/><text fill="#000000" font-family="'Roboto'" font-size="14" lengthAdjust="spacing" textLength="54.6602" x="606.6933" y="359.5351">n_creek</text><text fill="#000000" font-family="'Roboto'" font-size="12" lengthAdjust="spacing" textLength="75.3867" x="591.33" y="383.9755">choice &#183; 85w</text></g><g class="entity" data-qualified-name="n_birds" id="ent0007"><rect fill="#D1C4E9" height="50.2656" rx="4" ry="4" style="stroke:#181818;stroke-width:0.5;" width="89.6035" x="589.22" y="468.8"/><line style="stroke:#181818;stroke-width:0.5;" x1="589.22" x2="678.8235" y1="495.0969" y2="495.0969"/><text fill="#000000" font-family="'Roboto'" font-size="14" lengthAdjust="spacing" textLength="50.5859" x="608.7288" y="486.7951">n_birds</text><text fill="#000000" font-family="'Roboto'" font-size="12" lengthAdjust="spacing" textLength="69.6035" x="594.22" y="511.2355">rising &#183; 80w</text></g><g class="entity" data-qualified-name="n_help" id="ent0008"><rect fill="#D1C4E9" height="50.2656" rx="4" ry="4" style="stroke:#181818;stroke-width:0.5;" width="89.6035" x="420.22" y="603.05"/><line style="stroke:#181818;stroke-width:0.5;" x1="420.22" x2="509.8235" y1="629.3469" y2="629.3469"/><text fill="#000000" font-family="'Roboto'" font-size="14" lengthAdjust="spacing" textLength="46.1357" x="441.9539" y="621.0451">n_help</text><text fill="#000000" font-family="'Roboto'" font-size="12" lengthAdjust="spacing" textLength="69.6035" x="425.22" y="645.4855">rising &#183; 80w</text></g><g class="entity" data-qualified-name="n_cocoa" id="ent0009"><rect fill="#D1C4E9" height="50.2656" rx="4" ry="4" style="stroke:#181818;stroke-width:0.5;" width="89.6035" x="274.22" y="468.8"/><line style="stroke:#181818;stroke-width:0.5;" x1="274.22" x2="363.8235" y1="495.0969" y2="495.0969"/><text fill="#000000" font-family="'Roboto'" font-size="14" lengthAdjust="spacing" textLength="56.9775" x="290.533" y="486.7951">n_cocoa</text><text fill="#000000" font-family="'Roboto'" font-size="12" lengthAdjust="spacing" textLength="69.6035" x="279.22" y="511.2355">rising &#183; 80w</text></g><g class="entity" data-qualified-name="n_found" id="ent0010"><rect fill="#C8E6C9" height="64.2344" rx="4" ry="4" style="stroke:#181818;stroke-width:0.5;" width="147.1953" x="593.42" y="596.07"/><line style="stroke:#181818;stroke-width:0.5;" x1="593.42" x2="740.6153" y1="622.3669" y2="622.3669"/><text fill="#000000" font-family="'Roboto'" font-size="14" lengthAdjust="spacing" textLength="56" x="639.0177" y="614.0651">n_found</text><text fill="#000000" font-family="'Roboto'" font-size="12" lengthAdjust="spacing" textLength="127.1953" x="598.42" y="638.5055">completion (positive)</text><text fill="#000000" font-family="'Roboto'" font-size="12" lengthAdjust="spacing" textLength="102.4102" x="598.42" y="652.4743">"The Red Mitten"</text></g><g class="entity" data-qualified-name="n_together" id="ent0011"><rect fill="#C8E6C9" height="64.2344" rx="4" ry="4" style="stroke:#181818;stroke-width:0.5;" width="147.1953" x="391.42" y="784.54"/><line style="stroke:#181818;stroke-width:0.5;" x1="391.42" x2="538.6153" y1="810.8369" y2="810.8369"/><text fill="#000000" font-family="'Roboto'" font-size="14" lengthAdjust="spacing" textLength="76.1592" x="426.9381" y="802.5351">n_together</text><text fill="#000000" font-family="'Roboto'" font-size="12" lengthAdjust="spacing" textLength="127.1953" x="396.42" y="826.9755">completion (positive)</text><text fill="#000000" font-family="'Roboto'" font-size="12" lengthAdjust="spacing" textLength="106.2246" x="396.42" y="840.9443">"Found Together"</text></g><g class="entity" data-qualified-name="n_surprise" id="ent0012"><rect fill="#C8E6C9" height="64.2344" rx="4" ry="4" style="stroke:#181818;stroke-width:0.5;" width="127.1855" x="196.43" y="690.3"/><line style="stroke:#181818;stroke-width:0.5;" x1="196.43" x2="323.6155" y1="716.5969" y2="716.5969"/><text fill="#000000" font-family="'Roboto'" font-size="14" lengthAdjust="spacing" textLength="72.2354" x="223.9051" y="708.2951">n_surprise</text><text fill="#000000" font-family="'Roboto'" font-size="12" lengthAdjust="spacing" textLength="107.1855" x="201.43" y="732.7355">success (positive)</text><text fill="#000000" font-family="'Roboto'" font-size="12" lengthAdjust="spacing" textLength="105.6738" x="201.43" y="746.7043">"A Cozy Surprise"</text></g><g class="start_entity" data-qualified-name=".start." data-source-line="8" id="ent0002"><ellipse cx="596.02" cy="16" fill="#222222" rx="10" ry="10" style="stroke:#222222;stroke-width:1;"/></g><g class="end_entity" data-qualified-name=".end." data-source-line="50" id="ent0020"><ellipse cx="465.02" cy="920.77" fill="none" rx="11" ry="11" style="stroke:#222222;stroke-width:1;"/><ellipse cx="465.02" cy="920.77" fill="#222222" rx="6" ry="6" style="stroke:#222222;stroke-width:1;"/></g><!--link *start* to n_start--><g class="link" data-entity-1="ent0002" data-entity-2="ent0002" data-link-type="dependency" data-source-line="8" id="lnk3"><path d="M596.02,26.37 C596.02,40.33 596.02,61.03 596.02,80.75" fill="none" id="*start*-to-n_start" style="stroke:#181818;stroke-width:1;"/><polygon fill="#181818" points="596.02,86.75,600.02,77.75,596.02,81.75,592.02,77.75,596.02,86.75" style="stroke:#181818;stroke-width:1;"/></g><!--link n_start to n_pine--><g class="link" data-entity-1="ent0002" data-entity-2="ent0003" data-link-type="dependency" data-source-line="34" id="lnk4"><path d="M550.53,114.32 C427.21,118 93.61,131.21 61.02,167.27 C6,228.14 161.3904,237.5772 243.8204,238.5772" fill="none" id="n_start-to-n_pine" style="stroke:#181818;stroke-width:1;"/><polygon fill="#181818" points="249.82,238.65,240.8692,234.5411,244.8204,238.5893,240.7721,242.5405,249.82,238.65" style="stroke:#181818;stroke-width:1;"/><text fill="#000000" font-family="'Roboto'" font-size="13" lengthAdjust="spacing" textLength="189.5347" x="62.02" y="180.3369">Look under the big pine tree.</text></g><!--link n_pine to n_start--><g class="link" data-entity-1="ent0003" data-entity-2="ent0002" data-link-type="dependency" data-source-line="38" id="lnk8"><path d="M297.48,213.84 C300.35,198.27 306.56,178.92 320.02,167.27 C353.95,137.92 475.3938,123.3444 544.6138,117.1544" fill="none" id="n_pine-to-n_start" style="stroke:#181818;stroke-width:1;"/><polygon fill="#181818" points="550.59,116.62,541.2695,113.4375,545.6099,117.0653,541.982,121.4057,550.59,116.62" style="stroke:#181818;stroke-width:1;"/><text fill="#000000" font-family="'Roboto'" font-size="13" lengthAdjust="spacing" textLength="168.4668" x="321.02" y="180.3369">Go back to the snowy hill.</text></g><!--link n_start to n_rabbit--><g class="link" data-entity-1="ent0002" data-entity-2="ent0004" data-link-type="dependency" data-source-line="35" id="lnk5"><path d="M550.62,127.13 C518.97,139.41 485.21,159.2 502.02,184.27 C521.27,212.97 552.8687,225.2237 582.9787,231.5637" fill="none" id="n_start-to-n_rabbit" style="stroke:#181818;stroke-width:1;"/><polygon fill="#181818" points="588.85,232.8,580.8673,227.0314,583.9573,231.7698,579.2189,234.8598,588.85,232.8" style="stroke:#181818;stroke-width:1;"/><text fill="#000000" font-family="'Roboto'" font-size="13" lengthAdjust="spacing" textLength="141.5083" x="503.02" y="180.3369">Ask Hoppy the rabbit.</text></g><!--link n_rabbit to n_start--><g class="link" data-entity-1="ent0004" data-entity-2="ent0002" data-link-type="dependency" data-source-line="40" id="lnk10"><path d="M646.1,214.05 C651.38,200.01 655.13,182.23 649.02,167.27 C644.45,156.07 640.6001,150.1249 632.0601,141.7349" fill="none" id="n_rabbit-to-n_start" style="stroke:#181818;stroke-width:1;"/><polygon fill="#181818" points="627.78,137.53,631.3968,146.6907,631.3467,141.0341,637.0034,140.984,627.78,137.53" style="stroke:#181818;stroke-width:1;"/><text fill="#000000" font-family="'Roboto'" font-size="13" lengthAdjust="spacing" textLength="143.9775" x="653.17" y="180.3369">Look again on the hill.</text></g><!--link n_start to n_sled--><g class="link" data-entity-1="ent0002" data-entity-2="ent0005" data-link-type="dependency" data-source-line="36" id="lnk6"><path d="M641.16,117.57 C685.45,123.53 753.62,137.11 805.02,167.27 C825.06,179.03 839.2555,193.6818 851.6755,209.2318" fill="none" id="n_start-to-n_sled" style="stroke:#181818;stroke-width:1;"/><polygon fill="#181818" points="855.42,213.92,852.9287,204.3914,852.2996,210.0132,846.6778,209.3841,855.42,213.92" style="stroke:#181818;stroke-width:1;"/><text fill="#000000" font-family="'Roboto'" font-size="13" lengthAdjust="spacing" textLength="165.9277" x="827.58" y="180.3369">Check the sledding track.</text></g><!--link n_sled to n_start--><g class="link" data-entity-1="ent0005" data-entity-2="ent0002" data-link-type="dependency" data-source-line="42" id="lnk12"><path d="M918.31,230.43 C965.92,220.13 1030.32,199.6 1002.02,167.27 C978.51,140.42 748.1975,122.7775 647.2975,116.2475" fill="none" id="n_sled-to-n_start" style="stroke:#181818;stroke-width:1;"/><polygon fill="#181818" points="641.31,115.86,650.0329,120.4329,646.2996,116.1829,650.5495,112.4496,641.31,115.86" style="stroke:#181818;stroke-width:1;"/><text fill="#000000" font-family="'Roboto'" font-size="13" lengthAdjust="spacing" textLength="173.7036" x="1009.92" y="180.3369">Try the hill one more time.</text></g><!--link n_pine to n_creek--><g class="link" data-entity-1="ent0003" data-entity-2="ent0006" data-link-type="dependency" data-source-line="37" id="lnk7"><path d="M326.26,265 C347.2,280.4 375.98,299.52 404.02,311.54 C464.17,337.3 532.7212,351.0483 580.3212,358.4483" fill="none" id="n_pine-to-n_creek" style="stroke:#181818;stroke-width:1;"/><polygon fill="#181818" points="586.25,359.37,577.9713,354.0349,581.3093,358.6019,576.7424,361.94,586.25,359.37" style="stroke:#181818;stroke-width:1;"/><text fill="#000000" font-family="'Roboto'" font-size="13" lengthAdjust="spacing" textLength="220.6699" x="405.02" y="307.6069">Follow the footprints to the creek.</text></g><!--link n_rabbit to n_creek--><g class="link" data-entity-1="ent0004" data-entity-2="ent0006" data-link-type="dependency" data-source-line="39" id="lnk9"><path d="M634.02,264.85 C634.02,286.92 634.02,313.23 634.02,335.28" fill="none" id="n_rabbit-to-n_creek" style="stroke:#181818;stroke-width:1;"/><polygon fill="#181818" points="634.02,341.28,638.02,332.28,634.02,336.28,630.02,332.28,634.02,341.28" style="stroke:#181818;stroke-width:1;"/><text fill="#000000" font-family="'Roboto'" font-size="13" lengthAdjust="spacing" textLength="152.1216" x="635.02" y="307.6069">Hop down to the creek.</text></g><!--link n_sled to n_creek--><g class="link" data-entity-1="ent0005" data-entity-2="ent0006" data-link-type="dependency" data-source-line="41" id="lnk11"><path d="M851.53,265.01 C837.13,280.21 817.01,299.12 796.02,311.54 C760.42,332.6 721.3241,345.2978 687.8241,353.8378" fill="none" id="n_sled-to-n_creek" style="stroke:#181818;stroke-width:1;"/><polygon fill="#181818" points="682.01,355.32,691.7192,356.9728,686.855,354.0849,689.743,349.2207,682.01,355.32" style="stroke:#181818;stroke-width:1;"/><text fill="#000000" font-family="'Roboto'" font-size="13" lengthAdjust="spacing" textLength="226.3955" x="820.43" y="307.6069">Follow the red thread to the creek.</text></g><!--link n_creek to n_found--><g class="link" data-entity-1="ent0006" data-entity-2="ent0010" data-link-type="dependency" data-source-line="43" id="lnk13"><path d="M681.76,373.98 C734.96,382.08 816.03,398 835.02,421.8 C875.04,471.95 877.07,513.69 840.02,566.07 C817.49,597.92 782.7897,612.0946 746.5897,619.4546" fill="none" id="n_creek-to-n_found" style="stroke:#181818;stroke-width:1;"/><polygon fill="#181818" points="740.71,620.65,750.3265,622.7767,745.6098,619.6538,748.7326,614.937,740.71,620.65" style="stroke:#181818;stroke-width:1;"/><text fill="#000000" font-family="'Roboto'" font-size="13" lengthAdjust="spacing" textLength="234.4697" x="867.48" y="498.4969">Reach for the red thing in the snow.</text></g><!--link n_creek to n_birds--><g class="link" data-entity-1="ent0006" data-entity-2="ent0007" data-link-type="dependency" data-source-line="44" id="lnk14"><path d="M634.02,392.12 C634.02,414.19 634.02,440.49 634.02,462.55" fill="none" id="n_creek-to-n_birds" style="stroke:#181818;stroke-width:1;"/><polygon fill="#181818" points="634.02,468.55,638.02,459.55,634.02,463.55,630.02,459.55,634.02,468.55" style="stroke:#181818;stroke-width:1;"/><text fill="#000000" font-family="'Roboto'" font-size="13" lengthAdjust="spacing" textLength="191.293" x="635.02" y="434.8669">Look up at the chirping birds.</text></g><!--link n_creek to n_cocoa--><g class="link" data-entity-1="ent0006" data-entity-2="ent0009" data-link-type="dependency" data-source-line="45" id="lnk15"><path d="M586.06,373.94 C540.42,381.18 470.65,395.61 415.02,421.8 C389.5,433.82 368.5809,449.265 350.2809,464.745" fill="none" id="n_creek-to-n_cocoa" style="stroke:#181818;stroke-width:1;"/><polygon fill="#181818" points="345.7,468.62,355.1547,465.8615,349.5174,465.3908,349.988,459.7536,345.7,468.62" style="stroke:#181818;stroke-width:1;"/><text fill="#000000" font-family="'Roboto'" font-size="13" lengthAdjust="spacing" textLength="209.5806" x="416.02" y="434.8669">Follow the smell of cocoa home.</text></g><!--link n_birds to n_found--><g class="link" data-entity-1="ent0007" data-entity-2="ent0010" data-link-type="dependency" data-source-line="46" id="lnk16"><path d="M640.15,519.5 C645.52,541.01 651.896,566.5789 657.726,589.9189" fill="none" id="n_birds-to-n_found" style="stroke:#181818;stroke-width:1;"/><polygon fill="#181818" points="659.18,595.74,660.8797,586.0389,657.9683,590.889,653.1182,587.9776,659.18,595.74" style="stroke:#181818;stroke-width:1;"/><text fill="#000000" font-family="'Roboto'" font-size="13" lengthAdjust="spacing" textLength="179.3911" x="652.51" y="562.1369">Gently lift the mitten down.</text></g><!--link n_birds to n_help--><g class="link" data-entity-1="ent0007" data-entity-2="ent0008" data-link-type="dependency" data-source-line="47" id="lnk17"><path d="M588.76,498.39 C553.25,503.61 505.38,516.64 478.02,549.07 C465.61,563.78 462.8616,579.7601 462.9416,596.6601" fill="none" id="n_birds-to-n_help" style="stroke:#181818;stroke-width:1;"/><polygon fill="#181818" points="462.97,602.66,466.9274,593.6412,462.9463,597.6601,458.9274,593.679,462.97,602.66" style="stroke:#181818;stroke-width:1;"/><text fill="#000000" font-family="'Roboto'" font-size="13" lengthAdjust="spacing" textLength="160.1069" x="479.02" y="562.1369">Call your friends to help.</text></g><!--link n_help to n_together--><g class="link" data-entity-1="ent0008" data-entity-2="ent0011" data-link-type="dependency" data-source-line="48" id="lnk18"><path d="M464.04,653.57 C463.64,664.76 463.22,678.2 463.02,690.3 C462.56,718.85 462.56,725.99 463.02,754.54 C463.18,764.2 463.2789,768.7134 463.5989,778.2534" fill="none" id="n_help-to-n_together" style="stroke:#181818;stroke-width:1;"/><polygon fill="#181818" points="463.8,784.25,467.496,775.121,463.6324,779.2528,459.5005,775.3892,463.8,784.25" style="stroke:#181818;stroke-width:1;"/><text fill="#000000" font-family="'Roboto'" font-size="13" lengthAdjust="spacing" textLength="176.9346" x="464.02" y="726.9869">Reach the mitten together.</text></g><!--link n_cocoa to n_surprise--><g class="link" data-entity-1="ent0009" data-entity-2="ent0012" data-link-type="dependency" data-source-line="49" id="lnk19"><path d="M290.52,519.33 C282.46,527.86 274.63,538.08 270.02,549.07 C250.74,595.09 251.7324,648.1879 255.1824,683.8579" fill="none" id="n_cocoa-to-n_surprise" style="stroke:#181818;stroke-width:1;"/><polygon fill="#181818" points="255.76,689.83,258.875,680.4867,255.2786,684.8532,250.9121,681.2569,255.76,689.83" style="stroke:#181818;stroke-width:1;"/><text fill="#000000" font-family="'Roboto'" font-size="13" lengthAdjust="spacing" textLength="189.3188" x="271.02" y="562.1369">See what fell out of the boot.</text></g><!--link n_found to *end*--><g class="link" data-entity-1="ent0010" data-entity-2="ent0020" data-link-type="dependency" data-source-line="50" id="lnk21"><path d="M666.48,660.63 C664.89,686.97 659.89,724.92 645.02,754.54 C604.1,836.04 510.1633,894.2199 479.4633,911.7099" fill="none" id="n_found-to-*end*" style="stroke:#181818;stroke-width:1;"/><polygon fill="#181818" points="474.25,914.68,484.05,913.7005,478.5944,912.2049,480.0899,906.7494,474.25,914.68" style="stroke:#181818;stroke-width:1;"/></g><!--link n_together to *end*--><g class="link" data-entity-1="ent0011" data-entity-2="ent0020" data-link-type="dependency" data-source-line="51" id="lnk22"><path d="M465.02,849.12 C465.02,869.75 465.02,889.41 465.02,903.43" fill="none" id="n_together-to-*end*" style="stroke:#181818;stroke-width:1;"/><polygon fill="#181818" points="465.02,909.43,469.02,900.43,465.02,904.43,461.02,900.43,465.02,909.43" style="stroke:#181818;stroke-width:1;"/></g><!--link n_surprise to *end*--><g class="link" data-entity-1="ent0012" data-entity-2="ent0020" data-link-type="dependency" data-source-line="52" id="lnk23"><path d="M286.05,754.93 C308.31,781.14 341.77,818.87 374.02,848.77 C402.23,874.93 434.4116,898.3392 451.1816,910.1292" fill="none" id="n_surprise-to-*end*" style="stroke:#181818;stroke-width:1;"/><polygon fill="#181818" points="456.09,913.58,451.028,905.1316,451.9997,910.7043,446.4269,911.6761,456.09,913.58" style="stroke:#181818;stroke-width:1;"/></g><g class="legend" data-source-line="54"><rect fill="none" height="91.4844" rx="4" ry="4" style="stroke:#000000;stroke-width:1;" width="276.8066" x="888.817" y="948.77"/><text fill="#000000" font-family="'Roboto'" font-size="14" lengthAdjust="spacing" textLength="108.5205" x="893.817" y="966.7651">The Lost Mitten</text><text fill="#000000" font-family="'Roboto'" font-size="14" lengthAdjust="spacing" textLength="181.6172" x="893.817" y="983.062">Band 3-5 &#183; Tier 1 &#183; ~5 min</text><text fill="#000000" font-family="'Roboto'" font-size="14" lengthAdjust="spacing" textLength="178.2676" x="893.817" y="999.3589">Topology: loop_and_grow</text><text fill="#000000" font-family="'Roboto'" font-size="14" lengthAdjust="spacing" textLength="241.5068" x="893.817" y="1015.6557">11 nodes &#183; 3 endings (3+ / 0n / 0-)</text><text fill="#000000" font-family="'Roboto'" font-size="14" lengthAdjust="spacing" textLength="266.8066" x="893.817" y="1031.9526">MVP/Test tier (not production-eligible)</text></g><?plantuml-src TLLHR-Cs37xtho3IXzxT4FUANeUs0mQqQNF3S7SRsc0lmn0eDcCBiKL1aXTu3_jRztw_x2Z9SjmSWW16I7xyI54aTGuVKQ4H3alO6ch1xh11Hmf-V_dZ2snwi8MHsjaBWwf4iqxsTIb5PKHhSztdsJay4YXoWALqtgiMglm53CvDfy3L25KCGoRFx4ugBTWNIjoAhd5BKkwBQ15cpxGXHxC9P2EANMMeK-M26Z9mjhptlmbYC1hcXvkibYK2jjhrp1vpbwIoxEzt_y1y_YkejNN2k8o_3fC4PmyFZq_BXop9Ts3HTHg-VOMRw_q8rb8Xd3rUBZuytMQ3U0T6MgcgW7r_m1gnsN0j3kX1SGfl6xw20pg8fx25GTnnAPRBsyM7BCbtKDGa2ppEUYDDQIVKKJx5NMEZ9-0Wdio32X8JS9HFeRV-ek1iSVFqyyAZeynPKwkvf_YQu8qcAvty5zzExBCLzyypb-EpT0xLR2HqL27tbfbmZghJj1F8R1b2h0RDWTbsHlCXSC8yghWtkg90Qr_JJkopUrZGVpsy3AhPs5Un0uU--KIqWyvFLPYGZQmWM1pVPdxaCZRFlTt1RwHr7toY-XWyzCwYnc8NO5vH-XjnXiSfJwqRqQbvbjGqj0_uBP7Zp9Mpu2Xe0kZ8COtAHmfJcg1MqPuNW6oQ_D3rhqFn0Q2alVg1_HKwyOSwYKf81HINII8F1prv2iD6LniKvGzn9eufoihq8pV7GMZ9y5t8Djn5f8yUgI-VKHGrryfCelaYIpNMuTWrZLwyUWt2nRngQRHt3VPZfpHLawFP5dsMMuYsccAMaVvrbhpVNTD38xSnLXk6A9J_s6MOzOLWxfuwmo-2vAqVci3RyhGF8dmoIB4K4_faoyUjC5JxC2KlYB2lkGBRS9RE-VE4GU3koyVvztwylAU3Ur2DT4cLDSWlJSaRgAfT1k1NnoUoRjWTh7dWbmckvjT-EwqairtwV_zVS-RUl2BDxqpLtq53fDSCNlFpisVBvIM_SFocUFWLS12-CDu1Lp_11RnN_ZD_ox3FV_rviKAEw3pv6_yeQaDbL_XDDCT6LdBJyCPWWfZhTm00?></g></svg>
