<svg xmlns="http://www.w3.org/2000/svg" xmlns:xlink="http://www.w3.org/1999/xlink" contentStyleType="text/css" height="1509px" preserveAspectRatio="none" style="width:2696px;height:1509px;background:#FAFAFA;" version="1.1" viewBox="0 0 2696 1509" width="2696px" zoomAndPan="magnify"><defs><style type="text/css">@import url('https://fonts.googleapis.com/css?family=Roboto:400,100,100italic,300,300italic,400italic,500,500italic,700,700italic,900,900italic');</style></defs><g><rect fill="#FAFAFA" height="1509" style="stroke:none;stroke-width:1.0;" width="2696" x="0" y="0"/><ellipse cx="1225" cy="16" fill="#222222" rx="10" ry="10" style="stroke:#222222;stroke-width:1.0;"/><g id="n_start"><rect fill="#BBDEFB" height="50.4688" rx="4" ry="4" style="stroke:#181818;stroke-width:0.5;" width="81.4297" x="1184.5" y="87"/><line style="stroke:#181818;stroke-width:0.5;" x1="1184.5" x2="1265.9297" y1="113.4063" y2="113.4063"/><text fill="#000000" font-family="Roboto" font-size="14" lengthAdjust="spacing" textLength="42.793" x="1203.8184" y="104.9883">n_start</text><text fill="#000000" font-family="Roboto" font-size="12" lengthAdjust="spacing" textLength="61.4297" x="1189.5" y="129.5391">setup &#183; 46w</text></g><g id="n_honey1"><rect fill="#FFF9C4" height="50.4688" rx="4" ry="4" style="stroke:#181818;stroke-width:0.5;" width="86.8906" x="763.5" y="214"/><line style="stroke:#181818;stroke-width:0.5;" x1="763.5" x2="850.3906" y1="240.4063" y2="240.4063"/><text fill="#000000" font-family="Roboto" font-size="14" lengthAdjust="spacing" textLength="59.3906" x="777.25" y="231.9883">n_honey1</text><text fill="#000000" font-family="Roboto" font-size="12" lengthAdjust="spacing" textLength="66.8906" x="768.5" y="256.5391">choice &#183; 42w</text></g><g id="n_honey2"><rect fill="#D1C4E9" height="50.4688" rx="4" ry="4" style="stroke:#181818;stroke-width:0.5;" width="81.0547" x="1269.5" y="341"/><line style="stroke:#181818;stroke-width:0.5;" x1="1269.5" x2="1350.5547" y1="367.4063" y2="367.4063"/><text fill="#000000" font-family="Roboto" font-size="14" lengthAdjust="spacing" textLength="59.3906" x="1280.332" y="358.9883">n_honey2</text><text fill="#000000" font-family="Roboto" font-size="12" lengthAdjust="spacing" textLength="61.0547" x="1274.5" y="383.5391">rising &#183; 40w</text></g><g id="e_honey_oops"><rect fill="#FFCDD2" height="64.5313" rx="4" ry="4" style="stroke:#181818;stroke-width:0.5;" width="122.1055" x="409" y="421"/><line style="stroke:#181818;stroke-width:0.5;" x1="409" x2="531.1055" y1="447.4063" y2="447.4063"/><text fill="#000000" font-family="Roboto" font-size="14" lengthAdjust="spacing" textLength="88.5869" x="425.7593" y="438.9883">e_honey_oops</text><text fill="#000000" font-family="Roboto" font-size="12" lengthAdjust="spacing" textLength="98.6484" x="414" y="463.5391">setback (negative)</text><text fill="#000000" font-family="Roboto" font-size="12" lengthAdjust="spacing" textLength="102.1055" x="414" y="477.6016">"Oops, Buzzy Bees"</text></g><g id="n_berry1"><rect fill="#FFF9C4" height="50.4688" rx="4" ry="4" style="stroke:#181818;stroke-width:0.5;" width="86.8906" x="885.5" y="214"/><line style="stroke:#181818;stroke-width:0.5;" x1="885.5" x2="972.3906" y1="240.4063" y2="240.4063"/><text fill="#000000" font-family="Roboto" font-size="14" lengthAdjust="spacing" textLength="53.3135" x="902.2886" y="231.9883">n_berry1</text><text fill="#000000" font-family="Roboto" font-size="12" lengthAdjust="spacing" textLength="66.8906" x="890.5" y="256.5391">choice &#183; 42w</text></g><g id="n_berry2"><rect fill="#D1C4E9" height="50.4688" rx="4" ry="4" style="stroke:#181818;stroke-width:0.5;" width="81.0547" x="1773.5" y="341"/><line style="stroke:#181818;stroke-width:0.5;" x1="1773.5" x2="1854.5547" y1="367.4063" y2="367.4063"/><text fill="#000000" font-family="Roboto" font-size="14" lengthAdjust="spacing" textLength="53.3135" x="1787.3706" y="358.9883">n_berry2</text><text fill="#000000" font-family="Roboto" font-size="12" lengthAdjust="spacing" textLength="61.0547" x="1778.5" y="383.5391">rising &#183; 40w</text></g><g id="e_berry_oops"><rect fill="#FFCDD2" height="64.5313" rx="4" ry="4" style="stroke:#181818;stroke-width:0.5;" width="151.7188" x="681" y="596"/><line style="stroke:#181818;stroke-width:0.5;" x1="681" x2="832.7188" y1="622.4063" y2="622.4063"/><text fill="#000000" font-family="Roboto" font-size="14" lengthAdjust="spacing" textLength="82.5098" x="715.6045" y="613.9883">e_berry_oops</text><text fill="#000000" font-family="Roboto" font-size="12" lengthAdjust="spacing" textLength="98.6484" x="686" y="638.5391">setback (negative)</text><text fill="#000000" font-family="Roboto" font-size="12" lengthAdjust="spacing" textLength="131.7188" x="686" y="652.6016">"Oops, Tumbling Berries"</text></g><g id="n_ball1"><rect fill="#FFF9C4" height="50.4688" rx="4" ry="4" style="stroke:#181818;stroke-width:0.5;" width="86.8906" x="332.5" y="214"/><line style="stroke:#181818;stroke-width:0.5;" x1="332.5" x2="419.3906" y1="240.4063" y2="240.4063"/><text fill="#000000" font-family="Roboto" font-size="14" lengthAdjust="spacing" textLength="44.2012" x="353.8447" y="231.9883">n_ball1</text><text fill="#000000" font-family="Roboto" font-size="12" lengthAdjust="spacing" textLength="66.8906" x="337.5" y="256.5391">choice &#183; 40w</text></g><g id="n_ball2"><rect fill="#D1C4E9" height="50.4688" rx="4" ry="4" style="stroke:#181818;stroke-width:0.5;" width="81.0547" x="1010.5" y="341"/><line style="stroke:#181818;stroke-width:0.5;" x1="1010.5" x2="1091.5547" y1="367.4063" y2="367.4063"/><text fill="#000000" font-family="Roboto" font-size="14" lengthAdjust="spacing" textLength="44.2012" x="1028.9268" y="358.9883">n_ball2</text><text fill="#000000" font-family="Roboto" font-size="12" lengthAdjust="spacing" textLength="61.0547" x="1015.5" y="383.5391">rising &#183; 38w</text></g><g id="e_ball_oops"><rect fill="#FFCDD2" height="64.5313" rx="4" ry="4" style="stroke:#181818;stroke-width:0.5;" width="153.9277" x="206" y="771"/><line style="stroke:#181818;stroke-width:0.5;" x1="206" x2="359.9277" y1="797.4063" y2="797.4063"/><text fill="#000000" font-family="Roboto" font-size="14" lengthAdjust="spacing" textLength="73.3975" x="246.2651" y="788.9883">e_ball_oops</text><text fill="#000000" font-family="Roboto" font-size="12" lengthAdjust="spacing" textLength="98.6484" x="211" y="813.5391">setback (negative)</text><text fill="#000000" font-family="Roboto" font-size="12" lengthAdjust="spacing" textLength="133.9277" x="211" y="827.6016">"Oops, a Ticklish Hopper"</text></g><g id="n_kite1"><rect fill="#FFF9C4" height="50.4688" rx="4" ry="4" style="stroke:#181818;stroke-width:0.5;" width="86.8906" x="119.5" y="214"/><line style="stroke:#181818;stroke-width:0.5;" x1="119.5" x2="206.3906" y1="240.4063" y2="240.4063"/><text fill="#000000" font-family="Roboto" font-size="14" lengthAdjust="spacing" textLength="44.4199" x="140.7354" y="231.9883">n_kite1</text><text fill="#000000" font-family="Roboto" font-size="12" lengthAdjust="spacing" textLength="66.8906" x="124.5" y="256.5391">choice &#183; 42w</text></g><g id="n_kite2"><rect fill="#D1C4E9" height="50.4688" rx="4" ry="4" style="stroke:#181818;stroke-width:0.5;" width="81.0547" x="494.5" y="341"/><line style="stroke:#181818;stroke-width:0.5;" x1="494.5" x2="575.5547" y1="367.4063" y2="367.4063"/><text fill="#000000" font-family="Roboto" font-size="14" lengthAdjust="spacing" textLength="44.4199" x="512.8174" y="358.9883">n_kite2</text><text fill="#000000" font-family="Roboto" font-size="12" lengthAdjust="spacing" textLength="61.0547" x="499.5" y="383.5391">rising &#183; 38w</text></g><g id="e_kite_oops"><rect fill="#FFCDD2" height="64.5313" rx="4" ry="4" style="stroke:#181818;stroke-width:0.5;" width="146.082" x="27" y="946"/><line style="stroke:#181818;stroke-width:0.5;" x1="27" x2="173.082" y1="972.4063" y2="972.4063"/><text fill="#000000" font-family="Roboto" font-size="14" lengthAdjust="spacing" textLength="73.6162" x="63.2329" y="963.9883">e_kite_oops</text><text fill="#000000" font-family="Roboto" font-size="12" lengthAdjust="spacing" textLength="98.6484" x="32" y="988.5391">setback (negative)</text><text fill="#000000" font-family="Roboto" font-size="12" lengthAdjust="spacing" textLength="126.082" x="32" y="1002.6016">"Oops, a Windy Muddle"</text></g><g id="n_owl1"><rect fill="#FFF9C4" height="50.4688" rx="4" ry="4" style="stroke:#181818;stroke-width:0.5;" width="86.8906" x="2491.5" y="214"/><line style="stroke:#181818;stroke-width:0.5;" x1="2491.5" x2="2578.3906" y1="240.4063" y2="240.4063"/><text fill="#000000" font-family="Roboto" font-size="14" lengthAdjust="spacing" textLength="43.8252" x="2513.0327" y="231.9883">n_owl1</text><text fill="#000000" font-family="Roboto" font-size="12" lengthAdjust="spacing" textLength="66.8906" x="2496.5" y="256.5391">choice &#183; 44w</text></g><g id="n_owl2"><rect fill="#D1C4E9" height="50.4688" rx="4" ry="4" style="stroke:#181818;stroke-width:0.5;" width="81.0547" x="2244.5" y="341"/><line style="stroke:#181818;stroke-width:0.5;" x1="2244.5" x2="2325.5547" y1="367.4063" y2="367.4063"/><text fill="#000000" font-family="Roboto" font-size="14" lengthAdjust="spacing" textLength="43.8252" x="2263.1147" y="358.9883">n_owl2</text><text fill="#000000" font-family="Roboto" font-size="12" lengthAdjust="spacing" textLength="61.0547" x="2249.5" y="383.5391">rising &#183; 40w</text></g><g id="e_owl_oops"><rect fill="#FFCDD2" height="64.5313" rx="4" ry="4" style="stroke:#181818;stroke-width:0.5;" width="145.0215" x="2355.5" y="1121"/><line style="stroke:#181818;stroke-width:0.5;" x1="2355.5" x2="2500.5215" y1="1147.4063" y2="1147.4063"/><text fill="#000000" font-family="Roboto" font-size="14" lengthAdjust="spacing" textLength="73.0215" x="2391.5" y="1138.9883">e_owl_oops</text><text fill="#000000" font-family="Roboto" font-size="12" lengthAdjust="spacing" textLength="98.6484" x="2360.5" y="1163.5391">setback (negative)</text><text fill="#000000" font-family="Roboto" font-size="12" lengthAdjust="spacing" textLength="125.0215" x="2360.5" y="1177.6016">"Oops, a Pile of Leaves"</text></g><g id="n_music1"><rect fill="#FFF9C4" height="50.4688" rx="4" ry="4" style="stroke:#181818;stroke-width:0.5;" width="86.8906" x="1844.5" y="214"/><line style="stroke:#181818;stroke-width:0.5;" x1="1844.5" x2="1931.3906" y1="240.4063" y2="240.4063"/><text fill="#000000" font-family="Roboto" font-size="14" lengthAdjust="spacing" textLength="59.8691" x="1858.0107" y="231.9883">n_music1</text><text fill="#000000" font-family="Roboto" font-size="12" lengthAdjust="spacing" textLength="66.8906" x="1849.5" y="256.5391">choice &#183; 42w</text></g><g id="n_music2"><rect fill="#D1C4E9" height="50.4688" rx="4" ry="4" style="stroke:#181818;stroke-width:0.5;" width="81.0547" x="1499.5" y="341"/><line style="stroke:#181818;stroke-width:0.5;" x1="1499.5" x2="1580.5547" y1="367.4063" y2="367.4063"/><text fill="#000000" font-family="Roboto" font-size="14" lengthAdjust="spacing" textLength="59.8691" x="1510.0928" y="358.9883">n_music2</text><text fill="#000000" font-family="Roboto" font-size="12" lengthAdjust="spacing" textLength="61.0547" x="1504.5" y="383.5391">rising &#183; 38w</text></g><g id="e_music_oops"><rect fill="#FFCDD2" height="64.5313" rx="4" ry="4" style="stroke:#181818;stroke-width:0.5;" width="146.8496" x="1983.5" y="421"/><line style="stroke:#181818;stroke-width:0.5;" x1="1983.5" x2="2130.3496" y1="447.4063" y2="447.4063"/><text fill="#000000" font-family="Roboto" font-size="14" lengthAdjust="spacing" textLength="89.0654" x="2012.3921" y="438.9883">e_music_oops</text><text fill="#000000" font-family="Roboto" font-size="12" lengthAdjust="spacing" textLength="98.6484" x="1988.5" y="463.5391">setback (negative)</text><text fill="#000000" font-family="Roboto" font-size="12" lengthAdjust="spacing" textLength="126.8496" x="1988.5" y="477.6016">"Oops, a Jumbled Tune"</text></g><g id="n_gather"><rect fill="#D1C4E9" height="50.4688" rx="4" ry="4" style="stroke:#181818;stroke-width:0.5;" width="81.0547" x="1310.5" y="516"/><line style="stroke:#181818;stroke-width:0.5;" x1="1310.5" x2="1391.5547" y1="542.4063" y2="542.4063"/><text fill="#000000" font-family="Roboto" font-size="14" lengthAdjust="spacing" textLength="53.9834" x="1324.0356" y="533.9883">n_gather</text><text fill="#000000" font-family="Roboto" font-size="12" lengthAdjust="spacing" textLength="61.0547" x="1315.5" y="558.5391">rising &#183; 40w</text></g><g id="n_welcome"><rect fill="#D1C4E9" height="50.4688" rx="4" ry="4" style="stroke:#181818;stroke-width:0.5;" width="90.4102" x="1306" y="691"/><line style="stroke:#181818;stroke-width:0.5;" x1="1306" x2="1396.4102" y1="717.4063" y2="717.4063"/><text fill="#000000" font-family="Roboto" font-size="14" lengthAdjust="spacing" textLength="70.4102" x="1316" y="708.9883">n_welcome</text><text fill="#000000" font-family="Roboto" font-size="12" lengthAdjust="spacing" textLength="61.0547" x="1311" y="733.5391">rising &#183; 40w</text></g><g id="n_arrange"><rect fill="#FFF9C4" height="50.4688" rx="4" ry="4" style="stroke:#181818;stroke-width:0.5;" width="86.8906" x="1307.5" y="866"/><line style="stroke:#181818;stroke-width:0.5;" x1="1307.5" x2="1394.3906" y1="892.4063" y2="892.4063"/><text fill="#000000" font-family="Roboto" font-size="14" lengthAdjust="spacing" textLength="61.7832" x="1320.0537" y="883.9883">n_arrange</text><text fill="#000000" font-family="Roboto" font-size="12" lengthAdjust="spacing" textLength="66.8906" x="1312.5" y="908.5391">choice &#183; 40w</text></g><g id="n_share"><rect fill="#FFF9C4" height="50.4688" rx="4" ry="4" style="stroke:#181818;stroke-width:0.5;" width="86.8906" x="993.5" y="1041"/><line style="stroke:#181818;stroke-width:0.5;" x1="993.5" x2="1080.3906" y1="1067.4063" y2="1067.4063"/><text fill="#000000" font-family="Roboto" font-size="14" lengthAdjust="spacing" textLength="48.7676" x="1012.5615" y="1058.9883">n_share</text><text fill="#000000" font-family="Roboto" font-size="12" lengthAdjust="spacing" textLength="66.8906" x="998.5" y="1083.5391">choice &#183; 40w</text></g><g id="n_game"><rect fill="#FFF9C4" height="50.4688" rx="4" ry="4" style="stroke:#181818;stroke-width:0.5;" width="86.8906" x="1403.5" y="1041"/><line style="stroke:#181818;stroke-width:0.5;" x1="1403.5" x2="1490.3906" y1="1067.4063" y2="1067.4063"/><text fill="#000000" font-family="Roboto" font-size="14" lengthAdjust="spacing" textLength="49.2256" x="1422.3325" y="1058.9883">n_game</text><text fill="#000000" font-family="Roboto" font-size="12" lengthAdjust="spacing" textLength="66.8906" x="1408.5" y="1083.5391">choice &#183; 36w</text></g><g id="e_song"><rect fill="#C8E6C9" height="64.5313" rx="4" ry="4" style="stroke:#181818;stroke-width:0.5;" width="132.957" x="747.5" y="1216"/><line style="stroke:#181818;stroke-width:0.5;" x1="747.5" x2="880.457" y1="1242.4063" y2="1242.4063"/><text fill="#000000" font-family="Roboto" font-size="14" lengthAdjust="spacing" textLength="44.543" x="791.707" y="1233.9883">e_song</text><text fill="#000000" font-family="Roboto" font-size="12" lengthAdjust="spacing" textLength="112.957" x="752.5" y="1258.5391">completion (positive)</text><text fill="#000000" font-family="Roboto" font-size="12" lengthAdjust="spacing" textLength="93.7031" x="752.5" y="1272.6016">"The Picnic Song"</text></g><g id="e_music_finale"><rect fill="#C8E6C9" height="64.5313" rx="4" ry="4" style="stroke:#181818;stroke-width:0.5;" width="130.5195" x="917.5" y="1216"/><line style="stroke:#181818;stroke-width:0.5;" x1="917.5" x2="1048.0195" y1="1242.4063" y2="1242.4063"/><text fill="#000000" font-family="Roboto" font-size="14" lengthAdjust="spacing" textLength="92.4561" x="936.5317" y="1233.9883">e_music_finale</text><text fill="#000000" font-family="Roboto" font-size="12" lengthAdjust="spacing" textLength="97.0957" x="922.5" y="1258.5391">success (positive)</text><text fill="#000000" font-family="Roboto" font-size="12" lengthAdjust="spacing" textLength="110.5195" x="922.5" y="1272.6016">"A Sweet Little Tune"</text></g><g id="e_nap"><rect fill="#C8E6C9" height="64.5313" rx="4" ry="4" style="stroke:#181818;stroke-width:0.5;" width="132.957" x="1117.5" y="1216"/><line style="stroke:#181818;stroke-width:0.5;" x1="1117.5" x2="1250.457" y1="1242.4063" y2="1242.4063"/><text fill="#000000" font-family="Roboto" font-size="14" lengthAdjust="spacing" textLength="36.9482" x="1165.5044" y="1233.9883">e_nap</text><text fill="#000000" font-family="Roboto" font-size="12" lengthAdjust="spacing" textLength="112.957" x="1122.5" y="1258.5391">completion (positive)</text><text fill="#000000" font-family="Roboto" font-size="12" lengthAdjust="spacing" textLength="105.2285" x="1122.5" y="1272.6016">"A Cozy Sunny Nap"</text></g><g id="e_ball_game"><rect fill="#C8E6C9" height="64.5313" rx="4" ry="4" style="stroke:#181818;stroke-width:0.5;" width="133.4727" x="1333.5" y="1216"/><line style="stroke:#181818;stroke-width:0.5;" x1="1333.5" x2="1466.9727" y1="1242.4063" y2="1242.4063"/><text fill="#000000" font-family="Roboto" font-size="14" lengthAdjust="spacing" textLength="77.5195" x="1361.4766" y="1233.9883">e_ball_game</text><text fill="#000000" font-family="Roboto" font-size="12" lengthAdjust="spacing" textLength="97.0957" x="1338.5" y="1258.5391">success (positive)</text><text fill="#000000" font-family="Roboto" font-size="12" lengthAdjust="spacing" textLength="113.4727" x="1338.5" y="1272.6016">"The Rolling Red Ball"</text></g><g id="e_kite_game"><rect fill="#C8E6C9" height="64.5313" rx="4" ry="4" style="stroke:#181818;stroke-width:0.5;" width="134.0469" x="1564" y="1216"/><line style="stroke:#181818;stroke-width:0.5;" x1="1564" x2="1698.0469" y1="1242.4063" y2="1242.4063"/><text fill="#000000" font-family="Roboto" font-size="14" lengthAdjust="spacing" textLength="77.7383" x="1592.1543" y="1233.9883">e_kite_game</text><text fill="#000000" font-family="Roboto" font-size="12" lengthAdjust="spacing" textLength="97.0957" x="1569" y="1258.5391">success (positive)</text><text fill="#000000" font-family="Roboto" font-size="12" lengthAdjust="spacing" textLength="114.0469" x="1569" y="1272.6016">"The High Bright Kite"</text></g><ellipse cx="983" cy="1353" fill="none" rx="11" ry="11" style="stroke:#222222;stroke-width:1.0;"/><ellipse cx="983" cy="1353" fill="#222222" rx="6" ry="6" style="stroke:#222222;stroke-width:1.0;"/><!--link *start* to n_start--><g id="link_*start*_n_start"><path d="M1225,26.01 C1225,39.89 1225,60.97 1225,80.84 " fill="none" id="*start*-to-n_start" style="stroke:#181818;stroke-width:1.0;"/><polygon fill="#181818" points="1225,86.84,1229,77.84,1225,81.84,1221,77.84,1225,86.84" style="stroke:#181818;stroke-width:1.0;"/></g><!--link n_start to n_honey1--><g id="link_n_start_n_honey1"><path d="M1184.32,114.65 C1075.55,119.46 784.33,135.22 756,167 C742.97,181.61 751.5101,195.5727 767.6701,209.7527 " fill="none" id="n_start-to-n_honey1" style="stroke:#181818;stroke-width:1.0;"/><polygon fill="#181818" points="772.18,213.71,768.0533,204.7674,768.4217,210.4122,762.7769,210.7806,772.18,213.71" style="stroke:#181818;stroke-width:1.0;"/><text fill="#000000" font-family="Roboto" font-size="13" lengthAdjust="spacing" textLength="153.4292" x="757" y="180.0605">Go ask the bees for honey.</text></g><!--link n_start to n_berry1--><g id="link_n_start_n_berry1"><path d="M1184.37,114.15 C1110.42,117.2 958.47,128.14 926,167 C915.32,179.78 915.3056,193.004 919.0356,208.154 " fill="none" id="n_start-to-n_berry1" style="stroke:#181818;stroke-width:1.0;"/><polygon fill="#181818" points="920.47,213.98,922.2024,204.2847,919.2747,209.125,914.4344,206.1972,920.47,213.98" style="stroke:#181818;stroke-width:1.0;"/><text fill="#000000" font-family="Roboto" font-size="13" lengthAdjust="spacing" textLength="198.4595" x="927" y="180.0605">Go pick red berries at the bramble.</text></g><!--link n_start to n_ball1--><g id="link_n_start_n_ball1"><path d="M1184.28,114.05 C1018.4,118.51 401.08,137.08 373,167 C361.52,179.23 361.5733,192.7023 365.5633,208.0823 " fill="none" id="n_start-to-n_ball1" style="stroke:#181818;stroke-width:1.0;"/><polygon fill="#181818" points="367.07,213.89,368.6818,204.1739,365.8144,209.0502,360.9381,206.1828,367.07,213.89" style="stroke:#181818;stroke-width:1.0;"/><text fill="#000000" font-family="Roboto" font-size="13" lengthAdjust="spacing" textLength="133.4023" x="374" y="180.0605">Go find the big red ball.</text></g><!--link n_start to n_kite1--><g id="link_n_start_n_kite1"><path d="M1184.4,113.82 C997.24,117.75 225.11,135.8 185,167 C170.84,178.01 166.2641,192.0403 164.4041,208.0103 " fill="none" id="n_start-to-n_kite1" style="stroke:#181818;stroke-width:1.0;"/><polygon fill="#181818" points="163.71,213.97,168.7243,205.4932,164.2884,209.0036,160.778,204.5677,163.71,213.97" style="stroke:#181818;stroke-width:1.0;"/><text fill="#000000" font-family="Roboto" font-size="13" lengthAdjust="spacing" textLength="171.2026" x="186" y="180.0605">Go fetch the bright paper kite.</text></g><!--link n_start to n_owl1--><g id="link_n_start_n_owl1"><path d="M1265.59,113.67 C1437.24,116.72 2104.27,130.69 2311,167 C2375.29,178.29 2441.1188,201.0491 2485.6488,218.1491 " fill="none" id="n_start-to-n_owl1" style="stroke:#181818;stroke-width:1.0;"/><polygon fill="#181818" points="2491.25,220.3,2484.2821,213.3395,2486.5823,218.5076,2481.4142,220.8078,2491.25,220.3" style="stroke:#181818;stroke-width:1.0;"/><text fill="#000000" font-family="Roboto" font-size="13" lengthAdjust="spacing" textLength="178.0708" x="2381" y="180.0605">Go wake sleepy Owl in the oak.</text></g><!--link n_start to n_music1--><g id="link_n_start_n_music1"><path d="M1265.75,116.99 C1338.62,124.45 1495.91,142.06 1627,167 C1712.46,183.26 1733.5,189.61 1817,214 C1825.87,216.59 1829.586,217.6983 1838.556,220.6783 " fill="none" id="n_start-to-n_music1" style="stroke:#181818;stroke-width:1.0;"/><polygon fill="#181818" points="1844.25,222.57,1836.9701,215.9365,1839.505,220.9936,1834.4479,223.5285,1844.25,222.57" style="stroke:#181818;stroke-width:1.0;"/><text fill="#000000" font-family="Roboto" font-size="13" lengthAdjust="spacing" textLength="157.606" x="1708" y="180.0605">Go find the little music box.</text></g><!--link n_honey1 to n_honey2--><g id="link_n_honey1_n_honey2"><path d="M850.64,258.32 C856.42,260.4 862.31,262.36 868,264 C937.53,284 957.33,278.49 1028,294 C1114.3,312.94 1208.5956,337.6028 1263.2956,352.3028 " fill="none" id="n_honey1-to-n_honey2" style="stroke:#181818;stroke-width:1.0;"/><polygon fill="#181818" points="1269.09,353.86,1261.4365,347.6613,1264.2613,352.5623,1259.3603,355.3872,1269.09,353.86" style="stroke:#181818;stroke-width:1.0;"/><text fill="#000000" font-family="Roboto" font-size="13" lengthAdjust="spacing" textLength="166.6196" x="1099" y="307.0605">Ask the bees nicely and wait.</text></g><!--link n_honey1 to e_honey_oops--><g id="link_n_honey1_e_honey_oops"><path d="M763.19,255.23 C754.22,258.23 744.83,261.28 736,264 C688.38,278.65 664.53,260.13 628,294 C594.39,325.16 623.45,356.75 593,391 C576.5,409.56 558.604,420.7783 536.644,430.4183 " fill="none" id="n_honey1-to-e_honey_oops" style="stroke:#181818;stroke-width:1.0;"/><polygon fill="#181818" points="531.15,432.83,540.9988,432.875,535.7283,430.8202,537.7831,425.5498,531.15,432.83" style="stroke:#181818;stroke-width:1.0;"/><text fill="#000000" font-family="Roboto" font-size="13" lengthAdjust="spacing" textLength="128.1973" x="629" y="307.0605">Poke the hive to hurry.</text></g><!--link n_honey2 to n_start--><g id="link_n_honey2_n_start"><path d="M1350.6,356.51 C1430.12,338 1594.04,289.53 1539,214 C1475.42,126.77 1341.2293,113.3323 1271.7193,112.2623 " fill="none" id="n_honey2-to-n_start" style="stroke:#181818;stroke-width:1.0;"/><polygon fill="#181818" points="1265.72,112.17,1274.6574,116.3081,1270.7194,112.247,1274.7805,108.309,1265.72,112.17" style="stroke:#181818;stroke-width:1.0;"/><text fill="#000000" font-family="Roboto" font-size="13" lengthAdjust="spacing" textLength="206.5591" x="1552" y="243.5605">Carry the honey back to the blanket.</text></g><!--link n_honey2 to n_gather--><g id="link_n_honey2_n_gather"><path d="M1304.46,391.05 C1299.91,415.67 1295.85,454.65 1307,486 C1310.89,496.94 1314.1353,502.723 1321.5653,511.353 " fill="none" id="n_honey2-to-n_gather" style="stroke:#181818;stroke-width:1.0;"/><polygon fill="#181818" points="1325.48,515.9,1322.6392,506.4697,1322.2177,512.1109,1316.5766,511.6894,1325.48,515.9" style="stroke:#181818;stroke-width:1.0;"/><text fill="#000000" font-family="Roboto" font-size="13" lengthAdjust="spacing" textLength="188.2397" x="1308" y="458.0605">Ring the bell and start the picnic.</text></g><!--link n_berry1 to n_berry2--><g id="link_n_berry1_n_berry2"><path d="M972.79,256.98 C981.68,259.81 991.04,262.35 1000,264 C1084.75,279.63 1701.7,248.69 1775,294 C1791.75,304.35 1799.8487,318.9601 1805.5587,335.1901 " fill="none" id="n_berry1-to-n_berry2" style="stroke:#181818;stroke-width:1.0;"/><polygon fill="#181818" points="1807.55,340.85,1808.3364,331.0326,1805.8906,336.1334,1800.7898,333.6876,1807.55,340.85" style="stroke:#181818;stroke-width:1.0;"/><text fill="#000000" font-family="Roboto" font-size="13" lengthAdjust="spacing" textLength="146.3262" x="1793" y="307.0605">Pick the easy low berries.</text></g><!--link n_berry1 to e_berry_oops--><g id="link_n_berry1_e_berry_oops"><path d="M885.24,258.03 C850.98,272.34 808.67,290.5 806,294 C770.12,341.06 760.5546,515.9235 758.0346,589.7935 " fill="none" id="n_berry1-to-e_berry_oops" style="stroke:#181818;stroke-width:1.0;"/><polygon fill="#181818" points="757.83,595.79,762.1345,586.9316,758.0005,590.7929,754.1392,586.6589,757.83,595.79" style="stroke:#181818;stroke-width:1.0;"/><text fill="#000000" font-family="Roboto" font-size="13" lengthAdjust="spacing" textLength="189.7568" x="788" y="370.5605">Stretch for the wobbly high ones.</text></g><!--link n_berry2 to n_start--><g id="link_n_berry2_n_start"><path d="M1854.79,360.47 C1885.97,354.64 1927.04,341.34 1948,311 C1972.5,275.53 1969.88,251.72 1949,214 C1929.95,179.58 1911.32,179.43 1874,167 C1760.29,129.14 1395.8282,117.0985 1271.8482,114.0285 " fill="none" id="n_berry2-to-n_start" style="stroke:#181818;stroke-width:1.0;"/><polygon fill="#181818" points="1265.85,113.88,1274.7482,118.1016,1270.8485,114.0038,1274.9463,110.104,1265.85,113.88" style="stroke:#181818;stroke-width:1.0;"/><text fill="#000000" font-family="Roboto" font-size="13" lengthAdjust="spacing" textLength="211.5293" x="1966" y="243.5605">Carry the berries back to the blanket.</text></g><!--link n_berry2 to n_gather--><g id="link_n_berry2_n_gather"><path d="M1796.94,391.17 C1790.37,400.48 1782.82,411.22 1776,421 C1755.89,449.81 1760.9,467.54 1731,486 C1674.8,520.7 1483.7427,533.744 1397.7027,537.994 " fill="none" id="n_berry2-to-n_gather" style="stroke:#181818;stroke-width:1.0;"/><polygon fill="#181818" points="1391.71,538.29,1400.8964,541.8411,1396.7039,538.0433,1400.5017,533.8509,1391.71,538.29" style="stroke:#181818;stroke-width:1.0;"/><text fill="#000000" font-family="Roboto" font-size="13" lengthAdjust="spacing" textLength="188.2397" x="1777" y="458.0605">Ring the bell and start the picnic.</text></g><!--link n_ball1 to n_ball2--><g id="link_n_ball1_n_ball2"><path d="M419.5,250.13 C440.94,254.85 467.23,260.24 491,264 C613.31,283.34 645.98,272.87 768,294 C799.97,299.54 807.34,303.91 839,311 C902.8,325.28 920.04,323.42 983,341 C991.92,343.49 995.7005,344.586 1004.6205,347.676 " fill="none" id="n_ball1-to-n_ball2" style="stroke:#181818;stroke-width:1.0;"/><polygon fill="#181818" points="1010.29,349.64,1003.0951,342.9144,1005.5654,348.0034,1000.4765,350.4737,1010.29,349.64" style="stroke:#181818;stroke-width:1.0;"/><text fill="#000000" font-family="Roboto" font-size="13" lengthAdjust="spacing" textLength="176.5537" x="840" y="307.0605">Follow the little bounce marks.</text></g><!--link n_ball1 to e_ball_oops--><g id="link_n_ball1_e_ball_oops"><path d="M332.28,253.98 C311.71,262.57 288.37,275.53 273,294 C251.86,319.39 251,331.96 251,365 C251,365 251,365 251,629.5 C251,679.59 262.5439,730.7134 271.9839,765.1534 " fill="none" id="n_ball1-to-e_ball_oops" style="stroke:#181818;stroke-width:1.0;"/><polygon fill="#181818" points="273.57,770.94,275.0486,761.2028,272.2483,766.1179,267.3331,763.3176,273.57,770.94" style="stroke:#181818;stroke-width:1.0;"/><text fill="#000000" font-family="Roboto" font-size="13" lengthAdjust="spacing" textLength="131.3647" x="252" y="458.0605">Dive into the tall grass.</text></g><!--link n_ball2 to n_start--><g id="link_n_ball2_n_start"><path d="M1047.51,340.82 C1044.22,308.77 1043.2,251.84 1070,214 C1087.23,189.67 1104.63,199.65 1130,184 C1152.96,169.84 1172.5933,155.3011 1190.8833,140.8411 " fill="none" id="n_ball2-to-n_start" style="stroke:#181818;stroke-width:1.0;"/><polygon fill="#181818" points="1195.59,137.12,1186.0492,139.5639,1191.6677,140.2209,1191.0107,145.8395,1195.59,137.12" style="stroke:#181818;stroke-width:1.0;"/><text fill="#000000" font-family="Roboto" font-size="13" lengthAdjust="spacing" textLength="183.7075" x="1071" y="243.5605">Roll the ball back to the blanket.</text></g><!--link n_ball2 to n_gather--><g id="link_n_ball2_n_gather"><path d="M1054.71,391.49 C1060.16,418.75 1073.04,462.11 1102,486 C1133.39,511.9 1242.3306,527.7629 1304.4806,535.0329 " fill="none" id="n_ball2-to-n_gather" style="stroke:#181818;stroke-width:1.0;"/><polygon fill="#181818" points="1310.44,535.73,1301.9657,530.7114,1305.4739,535.1491,1301.0362,538.6573,1310.44,535.73" style="stroke:#181818;stroke-width:1.0;"/><text fill="#000000" font-family="Roboto" font-size="13" lengthAdjust="spacing" textLength="188.2397" x="1103" y="458.0605">Ring the bell and start the picnic.</text></g><!--link n_kite1 to n_kite2--><g id="link_n_kite1_n_kite2"><path d="M205.05,264.08 C232.96,279.25 270.8,298.3 306,311 C370.17,334.15 442.1633,349.0162 488.5733,357.2962 " fill="none" id="n_kite1-to-n_kite2" style="stroke:#181818;stroke-width:1.0;"/><polygon fill="#181818" points="494.48,358.35,486.3224,352.8315,489.5577,357.4718,484.9174,360.7071,494.48,358.35" style="stroke:#181818;stroke-width:1.0;"/><text fill="#000000" font-family="Roboto" font-size="13" lengthAdjust="spacing" textLength="201.7222" x="307" y="307.0605">Carry the kite gently under her arm.</text></g><!--link n_kite1 to e_kite_oops--><g id="link_n_kite1_e_kite_oops"><path d="M119.27,253.72 C72.81,271.35 6,306.82 6,365 C6,365 6,365 6,804.5 C6,859.19 38.857,908.509 66.397,941.239 " fill="none" id="n_kite1-to-e_kite_oops" style="stroke:#181818;stroke-width:1.0;"/><polygon fill="#181818" points="70.26,945.83,67.5262,936.3682,67.0408,942.0042,61.4048,941.5188,70.26,945.83" style="stroke:#181818;stroke-width:1.0;"/><text fill="#000000" font-family="Roboto" font-size="13" lengthAdjust="spacing" textLength="190.2773" x="7" y="545.5605">Let the kite flap open in the wind.</text></g><!--link n_kite2 to n_start--><g id="link_n_kite2_n_start"><path d="M530.05,340.76 C524.85,307.84 521.18,249.08 552,214 C635.63,118.8 1045.6,112.2133 1178.27,112.5833 " fill="none" id="n_kite2-to-n_start" style="stroke:#181818;stroke-width:1.0;"/><polygon fill="#181818" points="1184.27,112.6,1175.2812,108.5749,1179.27,112.5861,1175.2589,116.5749,1184.27,112.6" style="stroke:#181818;stroke-width:1.0;"/><text fill="#000000" font-family="Roboto" font-size="13" lengthAdjust="spacing" textLength="192.3086" x="553" y="243.5605">Bring the kite back to the blanket.</text></g><!--link n_kite2 to n_gather--><g id="link_n_kite2_n_gather"><path d="M575.73,385.23 C637.12,411.89 757.63,461.04 865,486 C1027.28,523.72 1220.3648,535.0997 1304.4548,538.4697 " fill="none" id="n_kite2-to-n_gather" style="stroke:#181818;stroke-width:1.0;"/><polygon fill="#181818" points="1310.45,538.71,1301.6174,534.3528,1305.454,538.5098,1301.297,542.3464,1310.45,538.71" style="stroke:#181818;stroke-width:1.0;"/><text fill="#000000" font-family="Roboto" font-size="13" lengthAdjust="spacing" textLength="188.2397" x="866" y="458.0605">Ring the bell and start the picnic.</text></g><!--link n_owl1 to n_owl2--><g id="link_n_owl1_n_owl2"><path d="M2491.26,255.46 C2482.29,258.44 2472.87,261.43 2464,264 C2409.53,279.76 2387.6,263.19 2340,294 C2322.07,305.61 2310.7202,320.0174 2301.1202,335.6474 " fill="none" id="n_owl1-to-n_owl2" style="stroke:#181818;stroke-width:1.0;"/><polygon fill="#181818" points="2297.98,340.76,2306.0987,335.1845,2300.5968,336.4995,2299.2819,330.9976,2297.98,340.76" style="stroke:#181818;stroke-width:1.0;"/><text fill="#000000" font-family="Roboto" font-size="13" lengthAdjust="spacing" textLength="178.915" x="2341" y="307.0605">Hoot softly to wake Owl gently.</text></g><!--link n_owl1 to e_owl_oops--><g id="link_n_owl1_e_owl_oops"><path d="M2538.42,264.38 C2541.65,289.53 2546,329.93 2546,365 C2546,365 2546,365 2546,979.5 C2546,1036.76 2505.7472,1084.9786 2471.3672,1116.7386 " fill="none" id="n_owl1-to-e_owl_oops" style="stroke:#181818;stroke-width:1.0;"/><polygon fill="#181818" points="2466.96,1120.81,2476.2851,1117.6411,2470.6327,1117.4172,2470.8566,1111.7648,2466.96,1120.81" style="stroke:#181818;stroke-width:1.0;"/><text fill="#000000" font-family="Roboto" font-size="13" lengthAdjust="spacing" textLength="141.1592" x="2547" y="633.0605">Shake the whole branch.</text></g><!--link n_owl2 to n_start--><g id="link_n_owl2_n_start"><path d="M2276.34,340.91 C2262.73,306.77 2232.95,245.01 2186,214 C2031.4,111.9 1434.1997,110.7402 1271.5797,112.3602 " fill="none" id="n_owl2-to-n_start" style="stroke:#181818;stroke-width:1.0;"/><polygon fill="#181818" points="1265.58,112.42,1274.6194,116.3301,1270.5798,112.3702,1274.5397,108.3305,1265.58,112.42" style="stroke:#181818;stroke-width:1.0;"/><text fill="#000000" font-family="Roboto" font-size="13" lengthAdjust="spacing" textLength="169.9648" x="2236" y="243.5605">Walk Owl back to the blanket.</text></g><!--link n_owl2 to n_gather--><g id="link_n_owl2_n_gather"><path d="M2265.98,391.1 C2241.94,419.53 2197.65,465.51 2148,486 C2077.81,514.97 1550.447,533.6988 1397.737,538.5688 " fill="none" id="n_owl2-to-n_gather" style="stroke:#181818;stroke-width:1.0;"/><polygon fill="#181818" points="1391.74,538.76,1400.8629,542.4711,1396.7375,538.6006,1400.6079,534.4752,1391.74,538.76" style="stroke:#181818;stroke-width:1.0;"/><text fill="#000000" font-family="Roboto" font-size="13" lengthAdjust="spacing" textLength="188.2397" x="2239" y="458.0605">Ring the bell and start the picnic.</text></g><!--link n_music1 to n_music2--><g id="link_n_music1_n_music2"><path d="M1844.36,255.83 C1835.38,258.78 1825.94,261.67 1817,264 C1746.57,282.37 1723.95,267.9 1656,294 C1639.74,300.24 1608.7326,319.5777 1581.1126,337.6277 " fill="none" id="n_music1-to-n_music2" style="stroke:#181818;stroke-width:1.0;"/><polygon fill="#181818" points="1576.09,340.91,1585.8121,339.3349,1580.2755,338.1747,1581.4357,332.6381,1576.09,340.91" style="stroke:#181818;stroke-width:1.0;"/><text fill="#000000" font-family="Roboto" font-size="13" lengthAdjust="spacing" textLength="113.3311" x="1657" y="307.0605">Lift the lid carefully.</text></g><!--link n_music1 to e_music_oops--><g id="link_n_music1_e_music_oops"><path d="M1917.7,264.25 C1927.8,273.13 1938.85,283.57 1948,294 C1983.79,334.79 2014.9332,382.5392 2035.1932,415.7192 " fill="none" id="n_music1-to-e_music_oops" style="stroke:#181818;stroke-width:1.0;"/><polygon fill="#181818" points="2038.32,420.84,2037.0436,411.0742,2035.7143,416.5726,2030.2159,415.2433,2038.32,420.84" style="stroke:#181818;stroke-width:1.0;"/><text fill="#000000" font-family="Roboto" font-size="13" lengthAdjust="spacing" textLength="179.9116" x="1961" y="307.0605">Give the handle a big fast wind.</text></g><!--link n_music2 to n_start--><g id="link_n_music2_n_start"><path d="M1499.13,357.31 C1446.65,345.54 1355.53,318.45 1298,264 C1260.57,228.57 1241.6085,175.7304 1232.4785,142.9204 " fill="none" id="n_music2-to-n_start" style="stroke:#181818;stroke-width:1.0;"/><polygon fill="#181818" points="1230.87,137.14,1229.4292,146.8829,1232.2104,141.957,1237.1363,144.7382,1230.87,137.14" style="stroke:#181818;stroke-width:1.0;"/><text fill="#000000" font-family="Roboto" font-size="13" lengthAdjust="spacing" textLength="231.3911" x="1299" y="243.5605">Carry the music box back to the blanket.</text></g><!--link n_music2 to n_gather--><g id="link_n_music2_n_gather"><path d="M1538.25,391.18 C1535.08,417.76 1526.15,460.12 1501,486 C1471.97,515.88 1431.1371,528.2384 1397.5471,534.2184 " fill="none" id="n_music2-to-n_gather" style="stroke:#181818;stroke-width:1.0;"/><polygon fill="#181818" points="1391.64,535.27,1401.2018,537.6306,1396.5626,534.3936,1399.7996,529.7545,1391.64,535.27" style="stroke:#181818;stroke-width:1.0;"/><text fill="#000000" font-family="Roboto" font-size="13" lengthAdjust="spacing" textLength="188.2397" x="1534" y="458.0605">Ring the bell and start the picnic.</text></g><!--link n_gather to n_welcome--><g id="link_n_gather_n_welcome"><path d="M1351,566.05 C1351,599.01 1351,651.87 1351,684.87 " fill="none" id="n_gather-to-n_welcome" style="stroke:#181818;stroke-width:1.0;"/><polygon fill="#181818" points="1351,690.87,1355,681.87,1351,685.87,1347,681.87,1351,690.87" style="stroke:#181818;stroke-width:1.0;"/><text fill="#000000" font-family="Roboto" font-size="13" lengthAdjust="spacing" textLength="163.4141" x="1352" y="633.0605">Welcome the teddy bears in.</text></g><!--link n_welcome to n_arrange--><g id="link_n_welcome_n_arrange"><path d="M1351,741.05 C1351,774.01 1351,826.87 1351,859.87 " fill="none" id="n_welcome-to-n_arrange" style="stroke:#181818;stroke-width:1.0;"/><polygon fill="#181818" points="1351,865.87,1355,856.87,1351,860.87,1347,856.87,1351,865.87" style="stroke:#181818;stroke-width:1.0;"/><text fill="#000000" font-family="Roboto" font-size="13" lengthAdjust="spacing" textLength="158.3042" x="1352" y="808.0605">Lay out all the picnic treats.</text></g><!--link n_arrange to n_share--><g id="link_n_arrange_n_share"><path d="M1307.26,905.57 C1278.56,915.21 1240.63,929.36 1209,946 C1156.14,973.81 1104.9229,1011.3322 1071.6829,1037.2322 " fill="none" id="n_arrange-to-n_share" style="stroke:#181818;stroke-width:1.0;"/><polygon fill="#181818" points="1066.95,1040.92,1076.5079,1038.5436,1070.8941,1037.8468,1071.5908,1032.2331,1066.95,1040.92" style="stroke:#181818;stroke-width:1.0;"/><text fill="#000000" font-family="Roboto" font-size="13" lengthAdjust="spacing" textLength="164.0298" x="1210" y="983.0605">Share the honey and berries.</text></g><!--link n_arrange to n_game--><g id="link_n_arrange_n_game"><path d="M1364.35,916.05 C1382.64,949.01 1412.389,1002.6235 1430.699,1035.6235 " fill="none" id="n_arrange-to-n_game" style="stroke:#181818;stroke-width:1.0;"/><polygon fill="#181818" points="1433.61,1040.87,1432.7411,1031.0595,1431.1841,1036.4979,1425.7458,1034.9409,1433.61,1040.87" style="stroke:#181818;stroke-width:1.0;"/><text fill="#000000" font-family="Roboto" font-size="13" lengthAdjust="spacing" textLength="114.9497" x="1417" y="983.0605">Start a picnic game.</text></g><!--link n_share to e_song--><g id="link_n_share_e_song"><path d="M993.29,1069.3 C924.73,1073.92 796.85,1086.98 769,1121 C746.41,1148.6 763.3599,1183.5457 783.4999,1211.1057 " fill="none" id="n_share-to-e_song" style="stroke:#181818;stroke-width:1.0;"/><polygon fill="#181818" points="787.04,1215.95,784.9594,1206.3234,784.0899,1211.913,778.5003,1211.0435,787.04,1215.95" style="stroke:#181818;stroke-width:1.0;"/><text fill="#000000" font-family="Roboto" font-size="13" lengthAdjust="spacing" textLength="192.8418" x="770" y="1158.0605">Sing the teddy bears' picnic song.</text></g><!--link n_share to e_music_finale--><g id="link_n_share_e_music_finale"><path d="M1002.6,1091.18 C993.52,1099.49 984.9,1109.6 980,1121 C966.98,1151.27 969.1492,1183.6018 974.0892,1210.0718 " fill="none" id="n_share-to-e_music_finale" style="stroke:#181818;stroke-width:1.0;"/><polygon fill="#181818" points="975.19,1215.97,977.471,1206.3889,974.2727,1211.0549,969.6068,1207.8566,975.19,1215.97" style="stroke:#181818;stroke-width:1.0;"/><text fill="#000000" font-family="Roboto" font-size="13" lengthAdjust="spacing" textLength="192.4419" x="981" y="1158.0605">Wind up the music box and sway.</text></g><!--link n_share to e_nap--><g id="link_n_share_e_nap"><path d="M1080.64,1071.22 C1113.16,1076.88 1155.65,1090.1 1178,1121 C1197.72,1148.26 1196.9881,1182.2003 1192.4181,1209.8603 " fill="none" id="n_share-to-e_nap" style="stroke:#181818;stroke-width:1.0;"/><polygon fill="#181818" points="1191.44,1215.78,1196.8536,1207.5524,1192.2551,1210.8469,1188.9606,1206.2483,1191.44,1215.78" style="stroke:#181818;stroke-width:1.0;"/><text fill="#000000" font-family="Roboto" font-size="13" lengthAdjust="spacing" textLength="188.3667" x="1196" y="1158.0605">Curl up for a cozy nap in the sun.</text></g><!--link n_game to e_ball_game--><g id="link_n_game_e_ball_game"><path d="M1440.66,1091.34 C1432.27,1123.58 1418.9617,1174.6736 1409.7217,1210.1636 " fill="none" id="n_game-to-e_ball_game" style="stroke:#181818;stroke-width:1.0;"/><polygon fill="#181818" points="1408.21,1215.97,1414.3486,1208.2682,1409.4698,1211.1313,1406.6066,1206.2525,1408.21,1215.97" style="stroke:#181818;stroke-width:1.0;"/><text fill="#000000" font-family="Roboto" font-size="13" lengthAdjust="spacing" textLength="204.0581" x="1433" y="1158.0605">Roll the big red ball around the ring.</text></g><!--link n_game to e_kite_game--><g id="link_n_game_e_kite_game"><path d="M1490.72,1072.66 C1543.41,1080.48 1627.24,1096.47 1646,1121 C1666.62,1147.97 1659.3119,1182.4847 1648.4019,1210.2847 " fill="none" id="n_game-to-e_kite_game" style="stroke:#181818;stroke-width:1.0;"/><polygon fill="#181818" points="1646.21,1215.87,1653.2214,1208.9533,1648.0366,1211.2156,1645.7744,1206.0308,1646.21,1215.87" style="stroke:#181818;stroke-width:1.0;"/><text fill="#000000" font-family="Roboto" font-size="13" lengthAdjust="spacing" textLength="179.5371" x="1660" y="1158.0605">Fly the bright kite in the breeze.</text></g><!--link e_honey_oops to *end*--><g id="link_e_honey_oops_*end*"><path d="M500.96,486.3 C529.35,518.94 567,572.58 567,627.5 C567,627.5 567,627.5 567,1249.5 C567,1335.41 899.7227,1349.5605 965.8727,1351.5405 " fill="none" id="e_honey_oops-to-*end*" style="stroke:#181818;stroke-width:1.0;"/><polygon fill="#181818" points="971.87,1351.72,962.9937,1347.4525,966.8722,1351.5704,962.7544,1355.4489,971.87,1351.72" style="stroke:#181818;stroke-width:1.0;"/></g><!--link e_berry_oops to *end*--><g id="link_e_berry_oops_*end*"><path d="M736.84,661.28 C717.43,694.98 691,750.42 691,802.5 C691,802.5 691,802.5 691,1249.5 C691,1310.21 912.621,1342.8293 965.961,1349.8293 " fill="none" id="e_berry_oops-to-*end*" style="stroke:#181818;stroke-width:1.0;"/><polygon fill="#181818" points="971.91,1350.61,963.507,1345.4729,966.9525,1349.9594,962.466,1353.4049,971.91,1350.61" style="stroke:#181818;stroke-width:1.0;"/></g><!--link e_ball_oops to *end*--><g id="link_e_ball_oops_*end*"><path d="M292.72,836.04 C302.46,870.46 316,927.35 316,977.5 C316,977.5 316,977.5 316,1249.5 C316,1318.77 879.2663,1347.2549 965.9863,1351.2349 " fill="none" id="e_ball_oops-to-*end*" style="stroke:#181818;stroke-width:1.0;"/><polygon fill="#181818" points="971.98,1351.51,963.1728,1347.1016,966.9853,1351.2808,962.8061,1355.0932,971.98,1351.51" style="stroke:#181818;stroke-width:1.0;"/></g><!--link e_kite_oops to *end*--><g id="link_e_kite_oops_*end*"><path d="M107.34,1011.25 C125.11,1080.05 177.53,1242.32 290,1312 C350.38,1349.41 881.25,1351.8294 965.81,1351.9794 " fill="none" id="e_kite_oops-to-*end*" style="stroke:#181818;stroke-width:1.0;"/><polygon fill="#181818" points="971.81,1351.99,962.8171,1347.974,966.81,1351.9811,962.8029,1355.974,971.81,1351.99" style="stroke:#181818;stroke-width:1.0;"/></g><!--link e_owl_oops to *end*--><g id="link_e_owl_oops_*end*"><path d="M2367.14,1186.07 C2290.58,1223.98 2153.99,1285.74 2029,1312 C1816.92,1356.56 1098.1198,1352.854 1000.0198,1352.134 " fill="none" id="e_owl_oops-to-*end*" style="stroke:#181818;stroke-width:1.0;"/><polygon fill="#181818" points="994.02,1352.09,1002.9904,1356.1559,999.0199,1352.1267,1003.0491,1348.1562,994.02,1352.09" style="stroke:#181818;stroke-width:1.0;"/></g><!--link e_music_oops to *end*--><g id="link_e_music_oops_*end*"><path d="M2040.8,486.1 C2024.89,520.1 2003,576.21 2003,627.5 C2003,627.5 2003,627.5 2003,1249.5 C2003,1356.4 1110.6498,1352.9751 1000.1098,1352.1451 " fill="none" id="e_music_oops-to-*end*" style="stroke:#181818;stroke-width:1.0;"/><polygon fill="#181818" points="994.11,1352.1,1003.0797,1356.1675,999.1099,1352.1375,1003.1398,1348.1677,994.11,1352.1" style="stroke:#181818;stroke-width:1.0;"/></g><!--link e_song to *end*--><g id="link_e_song_*end*"><path d="M866.08,1281.09 C904.68,1304.5 948.7903,1331.2478 968.8003,1343.3878 " fill="none" id="e_song-to-*end*" style="stroke:#181818;stroke-width:1.0;"/><polygon fill="#181818" points="973.93,1346.5,968.3102,1338.4119,969.6552,1343.9065,964.1606,1345.2515,973.93,1346.5" style="stroke:#181818;stroke-width:1.0;"/></g><!--link e_music_finale to *end*--><g id="link_e_music_finale_*end*"><path d="M983,1281.09 C983,1301.8 983,1321.55 983,1335.62 " fill="none" id="e_music_finale-to-*end*" style="stroke:#181818;stroke-width:1.0;"/><polygon fill="#181818" points="983,1341.62,987,1332.62,983,1336.62,979,1332.62,983,1341.62" style="stroke:#181818;stroke-width:1.0;"/></g><!--link e_nap to *end*--><g id="link_e_nap_*end*"><path d="M1122.05,1281.09 C1075.22,1304.97 1020.5758,1332.8456 997.7358,1344.4856 " fill="none" id="e_nap-to-*end*" style="stroke:#181818;stroke-width:1.0;"/><polygon fill="#181818" points="992.39,1347.21,1002.225,1346.6873,996.8448,1344.9397,998.5924,1339.5595,992.39,1347.21" style="stroke:#181818;stroke-width:1.0;"/></g><!--link e_ball_game to *end*--><g id="link_e_ball_game_*end*"><path d="M1333.46,1265.85 C1230.68,1291.12 1046.0665,1336.4977 999.3665,1347.9777 " fill="none" id="e_ball_game-to-*end*" style="stroke:#181818;stroke-width:1.0;"/><polygon fill="#181818" points="993.54,1349.41,1003.2347,1351.1459,998.3954,1348.2164,1001.3249,1343.3772,993.54,1349.41" style="stroke:#181818;stroke-width:1.0;"/></g><!--link e_kite_game to *end*--><g id="link_e_kite_game_*end*"><path d="M1563.87,1264.92 C1538.87,1270.39 1510.21,1276.34 1484,1281 C1288.53,1315.75 1053.6897,1343.786 999.9297,1350.046 " fill="none" id="e_kite_game-to-*end*" style="stroke:#181818;stroke-width:1.0;"/><polygon fill="#181818" points="993.97,1350.74,1003.3722,1353.6722,998.9364,1350.1617,1002.4469,1345.7259,993.97,1350.74" style="stroke:#181818;stroke-width:1.0;"/></g><rect fill="none" height="108.4375" id="_legend" rx="4" ry="4" style="stroke:#000000;stroke-width:1.0;" width="228.2852" x="2441.874" y="1381"/><text fill="#000000" font-family="Roboto" font-size="14" lengthAdjust="spacing" textLength="148.3057" x="2446.874" y="1398.9883">The Teddy Bears' Picnic</text><text fill="#000000" font-family="Roboto" font-size="14" lengthAdjust="spacing" textLength="155.791" x="2446.874" y="1415.3945">Band 3-5 &#183; Tier 1 &#183; ~5 min</text><text fill="#000000" font-family="Roboto" font-size="14" lengthAdjust="spacing" textLength="159.1406" x="2446.874" y="1431.8008">Topology: loop_and_grow</text><text fill="#000000" font-family="Roboto" font-size="14" lengthAdjust="spacing" textLength="218.2852" x="2446.874" y="1448.207">29 nodes &#183; 11 endings (5+ / 0n / 6-)</text><text fill="#000000" font-family="Roboto" font-size="14" lengthAdjust="spacing" textLength="116.2588" x="2446.874" y="1464.6133">Production-eligible</text><text fill="#000000" font-family="Roboto" font-size="14" lengthAdjust="spacing" textLength="137.7852" x="2446.874" y="1481.0195">Scale: medium &#183; prose</text><!--SRC=[bLVDRjms4BxlKmpMXwG_tiIEOyGkK22xZXEaRc9u3UHG50kkn5qHooK5Yegg7FfQlVV9EaDI4gbK1yE0RSuF-NqpdE7e6RpdYXjcUGuxeuzG7RZaLYlukFxy2ROjL9aHfQrU6AvoRZQTVfCBjZViM2tATZ5x1ZSQbBR0Ss79gs0g_mKCFpMr0bjmsFjZj5dCgeDG9KDVoFcErTBUQcK_iIE7-OFUQgldaScMPOUzqRNALrfg0oUtR-adiWXAW_l3craXSWxyMDeMT_VOXLQpsHy__Wcdfx-2sbIM6Jl3tvPtApXPBc_UtIvdtVeQAcxh4lxz1oukczwuq8gtPuZXzlPgTJ7h1TUG5LfatDcVZ-pFuUJcR7NnxchM2wx1Y4gelRD_sTbphzveNLPqnkhcvdoM21qiYWWyLtpFhFZAVnXRp3_ZtvzXMN_xriAIyshUmzboOnBuGJ05twbZ-44m1T-fn_0ZuGJyn2B0VwoFMqb7B54f4X9CoeI3MoSKNZQ9TSB0hMC2hzv4153x7VvUDWK_CWZe6JoAx215LS07NPRS3F0Fml8OlbzFPO2qCNo_de9FsZ7yGJO1FpReuNyHAc_XzphF9H-mwoQ9l5ico2-Qs3O6xfPJzmQLOzYzQ09rfEz1tml9GU_WZhElyOqvrfN8Ok11C1Lqfux11y5Ks9rwJ20IJb18B7eI7-dYOpD-h5KKUVGgiBqDa8BW_oEgDWsNcSQ6EZXqaYaFPWnJUnv5gPDCbLPLC1FR-_MKzPxw-s3ibh7jgyiXe9L6V2UhD-ykLrUpi4HRVIpnwS5k3izBNOakZa4zVyHNvbvaIcImHj5yb9-TK0plnx1j8iOSrLd6gohTUsGpVmlhXdCBTy9QbCH9uXl5ocXxMas3zbhSRwMnJQzhfLhunCfvsefyqFej1za4tDZ0nUD1IzT57_16BL4vJtl5QFz1Dh5_RE3s_o3s1ImD_hRm6ohd_Glgtzh-VNolWLK7DmbiyKs27JxbJhaOUVHF4dgKs4HnXiXXwny1ODRlWCy-5ibthk4bG4_CMEvDnTxlWBgnVTTwoPxRh0XxEp8bmwuDP37s2bqFdHfsu519piiMFZSIX9zqD3kCVVg64qEJ_Wuv7MprNujXdeY2HstdRHmvlDzSje3p5G8GTkGr6WRkDK8arm8p25P3KMDu5yCa4er4QBx2cc-zFQdTy4LUxd39r87RxtpxJlH05yt3bDBXyzkIg7HrkHX6ZYZPnF2UCas6d5KjIDrqAH-vZ8Q5jJKkSNIRoBlHsot6fg1RYHW7xscYtTMQe9fuFvMgku_3tIIYjrYGo2xA_nR7Lso1HsOELUgLZXOtb46X0aIB6i3vk-fznXIfz3r6CfsY5pa-aPsldg6IpfEmaeHcVelfgEd30MXlPewfQpf-t74xEEyajaXTSjNLLOE5i-Xde9Gijg20sVbEi8qzdyZMLNtV08Zh1usVEvNU4KCRcW5r0KywyKd6bNN1GaqsXPQkcQciM7GpKihh2vC7j-i4eyZbYOH2Iuhw4v6w4piRBcSE6RxdkrfwCf7zQ7HvxreBzGmy2manrtHthB9zoiB-KpNOjy0fced_4ua6S-yxJ45Vmd-kc7YEq-wMCrFXPLj4qvBt6YQXEzQ2hYsmK5l-6C0snAohnCuqK0qZqThz7VegOOqQNEeKtjUruyAw8qYwwASiduOm-QoxE4GyddL-P3Fs6qqrDEm3VkocgN3nR5WxTlQJowesadoeypASSd288KKerQfMYsx8YpfPO3PqfkXnnjv0t_5EJiKyyeydZrlPna-rg_XmyDPm_WtZb3o3j0D-_gTVcf6mRxA3REXAWwoluK4KrS4WT5aPsuHW3sAArWX3JpV2aCXcacDtoS7ndW7G1FReShxqEVVZBsgMbBrNfwzfiduKUFtFwB-_NyDHA7BKfPPwtrxZKwlB3HflzaOtg3c_0gLpV0_H_EmCy3JC1Kw1ht-25_1IuQ_Bqn_GxjxelCvehZtbKkm5ZcCeNMT8yXgEF1VraROeZQxuZ5DV8EJ_0G00]--></g></svg>
