<svg xmlns="http://www.w3.org/2000/svg" xmlns:xlink="http://www.w3.org/1999/xlink" contentStyleType="text/css" height="1396px" preserveAspectRatio="none" style="width:1413px;height:1396px;background:#FAFAFA;" version="1.1" viewBox="0 0 1413 1396" width="1413px" zoomAndPan="magnify"><defs><style type="text/css">@import url('https://fonts.googleapis.com/css?family=Roboto:400,100,100italic,300,300italic,400italic,500,500italic,700,700italic,900,900italic');</style></defs><g><rect fill="#FAFAFA" height="1396" style="stroke:none;stroke-width:1.0;" width="1413" x="0" y="0"/><ellipse cx="840.5" cy="16" fill="#222222" rx="10" ry="10" style="stroke:#222222;stroke-width:1.0;"/><g id="n_start"><rect fill="#BBDEFB" height="50.4688" rx="4" ry="4" style="stroke:#181818;stroke-width:0.5;" width="81.4297" x="800" y="87"/><line style="stroke:#181818;stroke-width:0.5;" x1="800" x2="881.4297" y1="113.4063" y2="113.4063"/><text fill="#000000" font-family="Roboto" font-size="14" lengthAdjust="spacing" textLength="42.793" x="819.3184" y="104.9883">n_start</text><text fill="#000000" font-family="Roboto" font-size="12" lengthAdjust="spacing" textLength="61.4297" x="805" y="129.5391">setup &#183; 42w</text></g><g id="n_moon"><rect fill="#BBDEFB" height="50.4688" rx="4" ry="4" style="stroke:#181818;stroke-width:0.5;" width="81.4297" x="800" y="214"/><line style="stroke:#181818;stroke-width:0.5;" x1="800" x2="881.4297" y1="240.4063" y2="240.4063"/><text fill="#000000" font-family="Roboto" font-size="14" lengthAdjust="spacing" textLength="50.0254" x="815.7021" y="231.9883">n_moon</text><text fill="#000000" font-family="Roboto" font-size="12" lengthAdjust="spacing" textLength="61.4297" x="805" y="256.5391">setup &#183; 40w</text></g><g id="n_ready"><rect fill="#FFF9C4" height="50.4688" rx="4" ry="4" style="stroke:#181818;stroke-width:0.5;" width="86.8906" x="797" y="341"/><line style="stroke:#181818;stroke-width:0.5;" x1="797" x2="883.8906" y1="367.4063" y2="367.4063"/><text fill="#000000" font-family="Roboto" font-size="14" lengthAdjust="spacing" textLength="48.3506" x="816.27" y="358.9883">n_ready</text><text fill="#000000" font-family="Roboto" font-size="12" lengthAdjust="spacing" textLength="66.8906" x="802" y="383.5391">choice &#183; 40w</text></g><g id="n_cloud"><rect fill="#FFF9C4" height="50.4688" rx="4" ry="4" style="stroke:#181818;stroke-width:0.5;" width="86.8906" x="308" y="468"/><line style="stroke:#181818;stroke-width:0.5;" x1="308" x2="394.8906" y1="494.4063" y2="494.4063"/><text fill="#000000" font-family="Roboto" font-size="14" lengthAdjust="spacing" textLength="48.3779" x="327.2563" y="485.9883">n_cloud</text><text fill="#000000" font-family="Roboto" font-size="12" lengthAdjust="spacing" textLength="66.8906" x="313" y="510.5391">choice &#183; 40w</text></g><g id="n_cozy_retry"><rect fill="#D1C4E9" height="50.4688" rx="4" ry="4" style="stroke:#181818;stroke-width:0.5;" width="97.3623" x="7" y="595"/><line style="stroke:#181818;stroke-width:0.5;" x1="7" x2="104.3623" y1="621.4063" y2="621.4063"/><text fill="#000000" font-family="Roboto" font-size="14" lengthAdjust="spacing" textLength="77.3623" x="17" y="612.9883">n_cozy_retry</text><text fill="#000000" font-family="Roboto" font-size="12" lengthAdjust="spacing" textLength="61.0547" x="12" y="637.5391">rising &#183; 38w</text></g><g id="n_peek"><rect fill="#D1C4E9" height="50.4688" rx="4" ry="4" style="stroke:#181818;stroke-width:0.5;" width="81.0547" x="312" y="595"/><line style="stroke:#181818;stroke-width:0.5;" x1="312" x2="393.0547" y1="621.4063" y2="621.4063"/><text fill="#000000" font-family="Roboto" font-size="14" lengthAdjust="spacing" textLength="43.8525" x="330.6011" y="612.9883">n_peek</text><text fill="#000000" font-family="Roboto" font-size="12" lengthAdjust="spacing" textLength="61.0547" x="317" y="637.5391">rising &#183; 38w</text></g><g id="n_wiggle"><rect fill="#FFF9C4" height="50.4688" rx="4" ry="4" style="stroke:#181818;stroke-width:0.5;" width="86.8906" x="722" y="468"/><line style="stroke:#181818;stroke-width:0.5;" x1="722" x2="808.8906" y1="494.4063" y2="494.4063"/><text fill="#000000" font-family="Roboto" font-size="14" lengthAdjust="spacing" textLength="54.5234" x="738.1836" y="485.9883">n_wiggle</text><text fill="#000000" font-family="Roboto" font-size="12" lengthAdjust="spacing" textLength="66.8906" x="727" y="510.5391">choice &#183; 40w</text></g><g id="n_giggle_retry"><rect fill="#D1C4E9" height="50.4688" rx="4" ry="4" style="stroke:#181818;stroke-width:0.5;" width="106.2969" x="784.5" y="595"/><line style="stroke:#181818;stroke-width:0.5;" x1="784.5" x2="890.7969" y1="621.4063" y2="621.4063"/><text fill="#000000" font-family="Roboto" font-size="14" lengthAdjust="spacing" textLength="86.2969" x="794.5" y="612.9883">n_giggle_retry</text><text fill="#000000" font-family="Roboto" font-size="12" lengthAdjust="spacing" textLength="61.0547" x="789.5" y="637.5391">rising &#183; 38w</text></g><g id="n_sway"><rect fill="#D1C4E9" height="50.4688" rx="4" ry="4" style="stroke:#181818;stroke-width:0.5;" width="81.0547" x="501" y="595"/><line style="stroke:#181818;stroke-width:0.5;" x1="501" x2="582.0547" y1="621.4063" y2="621.4063"/><text fill="#000000" font-family="Roboto" font-size="14" lengthAdjust="spacing" textLength="46.0332" x="518.5107" y="612.9883">n_sway</text><text fill="#000000" font-family="Roboto" font-size="12" lengthAdjust="spacing" textLength="61.0547" x="506" y="637.5391">rising &#183; 36w</text></g><g id="n_slide"><rect fill="#FFF9C4" height="50.4688" rx="4" ry="4" style="stroke:#181818;stroke-width:0.5;" width="86.8906" x="1094" y="468"/><line style="stroke:#181818;stroke-width:0.5;" x1="1094" x2="1180.8906" y1="494.4063" y2="494.4063"/><text fill="#000000" font-family="Roboto" font-size="14" lengthAdjust="spacing" textLength="43.4014" x="1115.7446" y="485.9883">n_slide</text><text fill="#000000" font-family="Roboto" font-size="12" lengthAdjust="spacing" textLength="66.8906" x="1099" y="510.5391">choice &#183; 40w</text></g><g id="n_low"><rect fill="#D1C4E9" height="50.4688" rx="4" ry="4" style="stroke:#181818;stroke-width:0.5;" width="81.0547" x="1040" y="595"/><line style="stroke:#181818;stroke-width:0.5;" x1="1040" x2="1121.0547" y1="621.4063" y2="621.4063"/><text fill="#000000" font-family="Roboto" font-size="14" lengthAdjust="spacing" textLength="35.957" x="1062.5488" y="612.9883">n_low</text><text fill="#000000" font-family="Roboto" font-size="12" lengthAdjust="spacing" textLength="61.0547" x="1045" y="637.5391">rising &#183; 40w</text></g><g id="n_almost"><rect fill="#FFF9C4" height="50.4688" rx="4" ry="4" style="stroke:#181818;stroke-width:0.5;" width="86.8906" x="498" y="722"/><line style="stroke:#181818;stroke-width:0.5;" x1="498" x2="584.8906" y1="748.4063" y2="748.4063"/><text fill="#000000" font-family="Roboto" font-size="14" lengthAdjust="spacing" textLength="57.1348" x="512.8779" y="739.9883">n_almost</text><text fill="#000000" font-family="Roboto" font-size="12" lengthAdjust="spacing" textLength="66.8906" x="503" y="764.5391">choice &#183; 40w</text></g><g id="n_first_sparkle"><rect fill="#D1C4E9" height="50.4688" rx="4" ry="4" style="stroke:#181818;stroke-width:0.5;" width="110.5557" x="796" y="849"/><line style="stroke:#181818;stroke-width:0.5;" x1="796" x2="906.5557" y1="875.4063" y2="875.4063"/><text fill="#000000" font-family="Roboto" font-size="14" lengthAdjust="spacing" textLength="90.5557" x="806" y="866.9883">n_first_sparkle</text><text fill="#000000" font-family="Roboto" font-size="12" lengthAdjust="spacing" textLength="61.0547" x="801" y="891.5391">rising &#183; 36w</text></g><g id="n_shine"><rect fill="#FFF9C4" height="50.4688" rx="4" ry="4" style="stroke:#181818;stroke-width:0.5;" width="86.8906" x="498" y="976"/><line style="stroke:#181818;stroke-width:0.5;" x1="498" x2="584.8906" y1="1002.4063" y2="1002.4063"/><text fill="#000000" font-family="Roboto" font-size="14" lengthAdjust="spacing" textLength="47.5439" x="517.6733" y="993.9883">n_shine</text><text fill="#000000" font-family="Roboto" font-size="12" lengthAdjust="spacing" textLength="66.8906" x="503" y="1018.5391">choice &#183; 42w</text></g><g id="e_goodnight"><rect fill="#C8E6C9" height="64.5313" rx="4" ry="4" style="stroke:#181818;stroke-width:0.5;" width="202.5254" x="216" y="1103"/><line style="stroke:#181818;stroke-width:0.5;" x1="216" x2="418.5254" y1="1129.4063" y2="1129.4063"/><text fill="#000000" font-family="Roboto" font-size="14" lengthAdjust="spacing" textLength="76.7539" x="278.8857" y="1120.9883">e_goodnight</text><text fill="#000000" font-family="Roboto" font-size="12" lengthAdjust="spacing" textLength="112.957" x="221" y="1145.5391">completion (positive)</text><text fill="#000000" font-family="Roboto" font-size="12" lengthAdjust="spacing" textLength="182.5254" x="221" y="1159.6016">"Goodnight, {GOODNIGHT_PRIZE}"</text></g><g id="e_lullaby"><rect fill="#C8E6C9" height="64.5313" rx="4" ry="4" style="stroke:#181818;stroke-width:0.5;" width="188.3809" x="454.5" y="1103"/><line style="stroke:#181818;stroke-width:0.5;" x1="454.5" x2="642.8809" y1="1129.4063" y2="1129.4063"/><text fill="#000000" font-family="Roboto" font-size="14" lengthAdjust="spacing" textLength="53.7715" x="521.8047" y="1120.9883">e_lullaby</text><text fill="#000000" font-family="Roboto" font-size="12" lengthAdjust="spacing" textLength="97.0957" x="459.5" y="1145.5391">success (positive)</text><text fill="#000000" font-family="Roboto" font-size="12" lengthAdjust="spacing" textLength="168.3809" x="459.5" y="1159.6016">"The {HERO} {LULLABY_PRIZE}"</text></g><g id="e_friends"><rect fill="#C8E6C9" height="64.5313" rx="4" ry="4" style="stroke:#181818;stroke-width:0.5;" width="121.1328" x="726" y="1103"/><line style="stroke:#181818;stroke-width:0.5;" x1="726" x2="847.1328" y1="1129.4063" y2="1129.4063"/><text fill="#000000" font-family="Roboto" font-size="14" lengthAdjust="spacing" textLength="57.0322" x="758.0503" y="1120.9883">e_friends</text><text fill="#000000" font-family="Roboto" font-size="12" lengthAdjust="spacing" textLength="97.0957" x="731" y="1145.5391">success (positive)</text><text fill="#000000" font-family="Roboto" font-size="12" lengthAdjust="spacing" textLength="101.1328" x="731" y="1159.6016">"{FRIENDS_PRIZE}"</text></g><ellipse cx="548.5" cy="1240" fill="none" rx="11" ry="11" style="stroke:#222222;stroke-width:1.0;"/><ellipse cx="548.5" cy="1240" fill="#222222" rx="6" ry="6" style="stroke:#222222;stroke-width:1.0;"/><!--link *start* to n_start--><g id="link_*start*_n_start"><path d="M840.5,26.01 C840.5,39.89 840.5,60.97 840.5,80.84 " fill="none" id="*start*-to-n_start" style="stroke:#181818;stroke-width:1.0;"/><polygon fill="#181818" points="840.5,86.84,844.5,77.84,840.5,81.84,836.5,77.84,840.5,86.84" style="stroke:#181818;stroke-width:1.0;"/></g><!--link n_start to n_moon--><g id="link_n_start_n_moon"><path d="M840.5,137.1 C840.5,159.24 840.5,185.86 840.5,207.97 " fill="none" id="n_start-to-n_moon" style="stroke:#181818;stroke-width:1.0;"/><polygon fill="#181818" points="840.5,213.97,844.5,204.97,840.5,208.97,836.5,204.97,840.5,213.97" style="stroke:#181818;stroke-width:1.0;"/><text fill="#000000" font-family="Roboto" font-size="13" lengthAdjust="spacing" textLength="154.5337" x="841.5" y="180.0605">Peek out at {THRESHOLD}.</text></g><!--link n_moon to n_ready--><g id="link_n_moon_n_ready"><path d="M840.5,264.1 C840.5,286.24 840.5,312.86 840.5,334.97 " fill="none" id="n_moon-to-n_ready" style="stroke:#181818;stroke-width:1.0;"/><polygon fill="#181818" points="840.5,340.97,844.5,331.97,840.5,335.97,836.5,331.97,840.5,340.97" style="stroke:#181818;stroke-width:1.0;"/><text fill="#000000" font-family="Roboto" font-size="13" lengthAdjust="spacing" textLength="141.0767" x="841.5" y="307.0605">Take a big, brave breath.</text></g><!--link n_ready to n_cloud--><g id="link_n_ready_n_cloud"><path d="M796.79,374.01 C742.75,383.06 648.14,400.15 568.5,421 C507.53,436.96 444.2407,458.4726 400.7407,474.0026 " fill="none" id="n_ready-to-n_cloud" style="stroke:#181818;stroke-width:1.0;"/><polygon fill="#181818" points="395.09,476.02,404.9109,476.7611,399.7989,474.3389,402.2211,469.2268,395.09,476.02" style="stroke:#181818;stroke-width:1.0;"/><text fill="#000000" font-family="Roboto" font-size="13" lengthAdjust="spacing" textLength="179.3276" x="569.5" y="434.0605">Hide behind {ROUTE_A_CHAR}.</text></g><!--link n_ready to n_wiggle--><g id="link_n_ready_n_wiggle"><path d="M796.6,386.98 C783.18,395.44 769.99,406.7 762.5,421 C755,435.32 754.8439,447.6747 757.5739,462.0947 " fill="none" id="n_ready-to-n_wiggle" style="stroke:#181818;stroke-width:1.0;"/><polygon fill="#181818" points="758.69,467.99,760.946,458.403,757.7599,463.0773,753.0857,459.8911,758.69,467.99" style="stroke:#181818;stroke-width:1.0;"/><text fill="#000000" font-family="Roboto" font-size="13" lengthAdjust="spacing" textLength="125.9819" x="763.5" y="434.0605">Do {ROUTE_B_CHAR}.</text></g><!--link n_ready to n_slide--><g id="link_n_ready_n_slide"><path d="M882.63,391.18 C913.64,408.75 953.28,430.69 970.5,438 C1011.65,455.46 1023.99,454.18 1066.5,468 C1075.41,470.9 1079.2342,472.1439 1088.3142,475.2039 " fill="none" id="n_ready-to-n_slide" style="stroke:#181818;stroke-width:1.0;"/><polygon fill="#181818" points="1094,477.12,1086.7487,470.4552,1089.2618,475.5232,1084.1939,478.0363,1094,477.12" style="stroke:#181818;stroke-width:1.0;"/><text fill="#000000" font-family="Roboto" font-size="13" lengthAdjust="spacing" textLength="239.2622" x="971.5" y="434.0605">Scoot down to peek at {ROUTE_C_CHAR}.</text></g><!--link n_slide to n_ready--><g id="link_n_slide_n_ready"><path d="M1181.09,473.56 C1207.21,459.93 1232.35,440.45 1215.5,421 C1173.08,372.03 979.88,366.448 890.31,366.478 " fill="none" id="n_slide-to-n_ready" style="stroke:#181818;stroke-width:1.0;"/><polygon fill="#181818" points="884.31,366.48,893.31,370.48,889.31,366.48,893.31,362.48,884.31,366.48" style="stroke:#181818;stroke-width:1.0;"/><text fill="#000000" font-family="Roboto" font-size="13" lengthAdjust="spacing" textLength="184.0059" x="1221.5" y="434.0605">Climb the {CLIMB_AID} back up.</text></g><!--link n_cloud to n_cozy_retry--><g id="link_n_cloud_n_cozy_retry"><path d="M307.92,495.47 C257.6,498.98 174.02,510.52 113.5,548 C94.96,559.48 82.9277,573.9844 72.7077,589.6544 " fill="none" id="n_cloud-to-n_cozy_retry" style="stroke:#181818;stroke-width:1.0;"/><polygon fill="#181818" points="69.43,594.68,77.697,589.3267,72.1614,590.492,70.9962,584.9565,69.43,594.68" style="stroke:#181818;stroke-width:1.0;"/><text fill="#000000" font-family="Roboto" font-size="13" lengthAdjust="spacing" textLength="225.3101" x="114.5" y="561.0605">Snuggle deeper into {ROUTE_A_CHAR}.</text></g><!--link n_cloud to n_peek--><g id="link_n_cloud_n_peek"><path d="M349.52,518.31 C348.64,532.02 347.93,549.47 348.5,565 C348.86,574.77 349.1151,579.5288 349.8551,588.8488 " fill="none" id="n_cloud-to-n_peek" style="stroke:#181818;stroke-width:1.0;"/><polygon fill="#181818" points="350.33,594.83,353.6051,585.5416,349.9342,589.8457,345.6302,586.1748,350.33,594.83" style="stroke:#181818;stroke-width:1.0;"/><text fill="#000000" font-family="Roboto" font-size="13" lengthAdjust="spacing" textLength="148.0972" x="349.5" y="561.0605">Peek out one tiny sparkle.</text></g><!--link n_cozy_retry to n_ready--><g id="link_n_cozy_retry_n_ready"><path d="M62.23,594.97 C73.45,560 99.62,496.19 147.5,468 C258.83,402.47 656.8383,376.4555 790.9283,369.3955 " fill="none" id="n_cozy_retry-to-n_ready" style="stroke:#181818;stroke-width:1.0;"/><polygon fill="#181818" points="796.92,369.08,787.7221,365.5587,791.9269,369.3429,788.1428,373.5477,796.92,369.08" style="stroke:#181818;stroke-width:1.0;"/><text fill="#000000" font-family="Roboto" font-size="13" lengthAdjust="spacing" textLength="141.3496" x="148.5" y="497.5605">Float back and try again.</text></g><!--link n_peek to n_almost--><g id="link_n_peek_n_almost"><path d="M358.78,645.01 C363.92,660.35 372.65,679.61 386.5,692 C417.62,719.83 457.9907,732.3427 491.8707,738.9427 " fill="none" id="n_peek-to-n_almost" style="stroke:#181818;stroke-width:1.0;"/><polygon fill="#181818" points="497.76,740.09,489.6909,734.4429,492.8523,739.1339,488.1612,742.2953,497.76,740.09" style="stroke:#181818;stroke-width:1.0;"/><text fill="#000000" font-family="Roboto" font-size="13" lengthAdjust="spacing" textLength="145.6724" x="387.5" y="688.0605">Let the glow grow bigger.</text></g><!--link n_wiggle to n_giggle_retry--><g id="link_n_wiggle_n_giggle_retry"><path d="M765.67,518.32 C766.7,532.67 769.67,550.76 777.5,565 C783.71,576.3 788.6835,582.5116 798.3035,590.8816 " fill="none" id="n_wiggle-to-n_giggle_retry" style="stroke:#181818;stroke-width:1.0;"/><polygon fill="#181818" points="802.83,594.82,798.6658,585.8948,799.0579,591.538,793.4147,591.9301,802.83,594.82" style="stroke:#181818;stroke-width:1.0;"/><text fill="#000000" font-family="Roboto" font-size="13" lengthAdjust="spacing" textLength="110.2651" x="778.5" y="561.0605">Wiggle even faster!</text></g><!--link n_wiggle to n_sway--><g id="link_n_wiggle_n_sway"><path d="M721.68,494.16 C676.58,496.69 607.06,507.55 564.5,548 C551.73,560.14 547.0021,573.4993 544.4721,588.9093 " fill="none" id="n_wiggle-to-n_sway" style="stroke:#181818;stroke-width:1.0;"/><polygon fill="#181818" points="543.5,594.83,548.9052,586.5969,544.3101,589.8961,541.0109,585.3009,543.5,594.83" style="stroke:#181818;stroke-width:1.0;"/><text fill="#000000" font-family="Roboto" font-size="13" lengthAdjust="spacing" textLength="197.8628" x="565.5" y="561.0605">Slow down and sway like a lullaby.</text></g><!--link n_giggle_retry to n_ready--><g id="link_n_giggle_retry_n_ready"><path d="M871.02,594.99 C880.04,586.63 888.64,576.44 893.5,565 C918.53,506.1 917.72,480.24 893.5,421 C888.88,409.69 884.9145,403.6601 876.2745,395.2301 " fill="none" id="n_giggle_retry-to-n_ready" style="stroke:#181818;stroke-width:1.0;"/><polygon fill="#181818" points="871.98,391.04,875.6283,400.1882,875.5588,394.5318,881.2152,394.4622,871.98,391.04" style="stroke:#181818;stroke-width:1.0;"/><text fill="#000000" font-family="Roboto" font-size="13" lengthAdjust="spacing" textLength="141.3496" x="913.5" y="497.5605">Float back and try again.</text></g><!--link n_sway to n_almost--><g id="link_n_sway_n_almost"><path d="M541.5,645.1 C541.5,667.24 541.5,693.86 541.5,715.97 " fill="none" id="n_sway-to-n_almost" style="stroke:#181818;stroke-width:1.0;"/><polygon fill="#181818" points="541.5,721.97,545.5,712.97,541.5,716.97,537.5,712.97,541.5,721.97" style="stroke:#181818;stroke-width:1.0;"/><text fill="#000000" font-family="Roboto" font-size="13" lengthAdjust="spacing" textLength="125.7788" x="542.5" y="688.0605">Glide to {ENTRANCE}.</text></g><!--link n_slide to n_low--><g id="link_n_slide_n_low"><path d="M1126.51,518.1 C1116.42,540.24 1104.029,567.4006 1093.949,589.5106 " fill="none" id="n_slide-to-n_low" style="stroke:#181818;stroke-width:1.0;"/><polygon fill="#181818" points="1091.46,594.97,1098.833,588.4402,1093.5341,590.4205,1091.5538,585.1216,1091.46,594.97" style="stroke:#181818;stroke-width:1.0;"/><text fill="#000000" font-family="Roboto" font-size="13" lengthAdjust="spacing" textLength="162.3857" x="1112.5" y="561.0605">Take a peek from down low.</text></g><!--link n_low to n_almost--><g id="link_n_low_n_almost"><path d="M1039.99,630.4 C940.96,653.36 693.1049,710.8446 590.9449,734.5346 " fill="none" id="n_low-to-n_almost" style="stroke:#181818;stroke-width:1.0;"/><polygon fill="#181818" points="585.1,735.89,594.7709,737.7535,589.9708,734.7605,592.9638,729.9603,585.1,735.89" style="stroke:#181818;stroke-width:1.0;"/><text fill="#000000" font-family="Roboto" font-size="13" lengthAdjust="spacing" textLength="143.1523" x="844.5" y="688.0605">Float up to {ENTRANCE}.</text></g><!--link n_almost to n_first_sparkle--><g id="link_n_almost_n_first_sparkle"><path d="M585.26,765.64 C640.5,787.92 730.0255,824.0159 790.3555,848.3459 " fill="none" id="n_almost-to-n_first_sparkle" style="stroke:#181818;stroke-width:1.0;"/><polygon fill="#181818" points="795.92,850.59,789.0692,843.5142,791.2829,848.7199,786.0771,850.9336,795.92,850.59" style="stroke:#181818;stroke-width:1.0;"/><text fill="#000000" font-family="Roboto" font-size="13" lengthAdjust="spacing" textLength="165.6929" x="716.5" y="815.0605">Try one tiny practice sparkle.</text></g><!--link n_almost to n_shine--><g id="link_n_almost_n_shine"><path d="M538.14,772.02 C535.46,792.45 531.93,822.58 530.5,849 C529.3,871.19 529.3,876.81 530.5,899 C531.93,925.42 534.6796,949.601 537.3596,970.031 " fill="none" id="n_almost-to-n_shine" style="stroke:#181818;stroke-width:1.0;"/><polygon fill="#181818" points="538.14,975.98,540.9354,966.5362,537.4897,971.0225,533.0034,967.5767,538.14,975.98" style="stroke:#181818;stroke-width:1.0;"/><text fill="#000000" font-family="Roboto" font-size="13" lengthAdjust="spacing" textLength="246.4604" x="531.5" y="878.5605">Hold a {CLIMB_AID} and shine all at once...</text></g><!--link n_first_sparkle to n_shine--><g id="link_n_first_sparkle_n_shine"><path d="M795.72,897.49 C735.41,921.81 646.0748,957.8365 590.8848,980.0865 " fill="none" id="n_first_sparkle-to-n_shine" style="stroke:#181818;stroke-width:1.0;"/><polygon fill="#181818" points="585.32,982.33,595.1628,982.6747,589.9573,980.4604,592.1715,975.2549,585.32,982.33" style="stroke:#181818;stroke-width:1.0;"/><text fill="#000000" font-family="Roboto" font-size="13" lengthAdjust="spacing" textLength="129.6699" x="716.5" y="942.0605">Shine with all her light.</text></g><!--link n_shine to e_goodnight--><g id="link_n_shine_e_goodnight"><path d="M497.66,1003 C454.11,1006.3 388,1017.84 346.5,1056 C333.35,1068.1 327.5696,1080.8628 323.6296,1096.9228 " fill="none" id="n_shine-to-e_goodnight" style="stroke:#181818;stroke-width:1.0;"/><polygon fill="#181818" points="322.2,1102.75,328.2292,1094.9623,323.3913,1097.894,320.4596,1093.0561,322.2,1102.75" style="stroke:#181818;stroke-width:1.0;"/><text fill="#000000" font-family="Roboto" font-size="13" lengthAdjust="spacing" textLength="182.019" x="347.5" y="1069.0605">Wink goodnight to {CHILDREN}.</text></g><!--link n_shine to e_lullaby--><g id="link_n_shine_e_lullaby"><path d="M539.87,1026.18 C539.32,1035.5 538.77,1046.24 538.5,1056 C538.29,1063.55 537.89,1065.47 538.5,1073 C539.28,1082.7 539.7666,1087.2711 541.3466,1096.7811 " fill="none" id="n_shine-to-e_lullaby" style="stroke:#181818;stroke-width:1.0;"/><polygon fill="#181818" points="542.33,1102.7,544.8009,1093.1661,541.5105,1097.7676,536.909,1094.4773,542.33,1102.7" style="stroke:#181818;stroke-width:1.0;"/><text fill="#000000" font-family="Roboto" font-size="13" lengthAdjust="spacing" textLength="251.3418" x="539.5" y="1069.0605">Sing {LULLABY_SONG} with {COMPANION}.</text></g><!--link n_shine to e_friends--><g id="link_n_shine_e_friends"><path d="M585.08,1004.83 C650.58,1010.08 769.51,1023.9 795.5,1056 C805.95,1068.9 806.1432,1081.3666 801.7132,1097.0266 " fill="none" id="n_shine-to-e_friends" style="stroke:#181818;stroke-width:1.0;"/><polygon fill="#181818" points="800.08,1102.8,806.3788,1095.2287,801.441,1097.9888,798.6809,1093.051,800.08,1102.8" style="stroke:#181818;stroke-width:1.0;"/><text fill="#000000" font-family="Roboto" font-size="13" lengthAdjust="spacing" textLength="133.6943" x="804.5" y="1069.0605">Invite {OTHER_STARS}.</text></g><!--link e_goodnight to *end*--><g id="link_e_goodnight_*end*"><path d="M388.69,1168.09 C443.31,1192.32 508.0265,1221.0346 533.3565,1232.2846 " fill="none" id="e_goodnight-to-*end*" style="stroke:#181818;stroke-width:1.0;"/><polygon fill="#181818" points="538.84,1234.72,532.2384,1227.4112,534.2704,1232.6905,528.9911,1234.7225,538.84,1234.72" style="stroke:#181818;stroke-width:1.0;"/></g><!--link e_lullaby to *end*--><g id="link_e_lullaby_*end*"><path d="M548.5,1168.09 C548.5,1188.8 548.5,1208.55 548.5,1222.62 " fill="none" id="e_lullaby-to-*end*" style="stroke:#181818;stroke-width:1.0;"/><polygon fill="#181818" points="548.5,1228.62,552.5,1219.62,548.5,1223.62,544.5,1219.62,548.5,1228.62" style="stroke:#181818;stroke-width:1.0;"/></g><!--link e_friends to *end*--><g id="link_e_friends_*end*"><path d="M725.83,1162.63 C668.26,1187.42 592.0109,1220.2672 563.9309,1232.3572 " fill="none" id="e_friends-to-*end*" style="stroke:#181818;stroke-width:1.0;"/><polygon fill="#181818" points="558.42,1234.73,568.2682,1234.8448,563.0124,1232.7527,565.1045,1227.4969,558.42,1234.73" style="stroke:#181818;stroke-width:1.0;"/></g><rect fill="none" height="108.4375" id="_legend" rx="4" ry="4" style="stroke:#000000;stroke-width:1.0;" width="220.417" x="1167.0889" y="1268"/><text fill="#000000" font-family="Roboto" font-size="14" lengthAdjust="spacing" textLength="131.1406" x="1172.0889" y="1285.9883">The Sleepy Little Star</text><text fill="#000000" font-family="Roboto" font-size="14" lengthAdjust="spacing" textLength="155.791" x="1172.0889" y="1302.3945">Band 3-5 &#183; Tier 1 &#183; ~3 min</text><text fill="#000000" font-family="Roboto" font-size="14" lengthAdjust="spacing" textLength="159.1406" x="1172.0889" y="1318.8008">Topology: loop_and_grow</text><text fill="#000000" font-family="Roboto" font-size="14" lengthAdjust="spacing" textLength="210.417" x="1172.0889" y="1335.207">17 nodes &#183; 3 endings (3+ / 0n / 0-)</text><text fill="#000000" font-family="Roboto" font-size="14" lengthAdjust="spacing" textLength="116.2588" x="1172.0889" y="1351.6133">Production-eligible</text><text fill="#000000" font-family="Roboto" font-size="14" lengthAdjust="spacing" textLength="119.0342" x="1172.0889" y="1368.0195">Scale: short &#183; prose</text><!--SRC=[ZLRRZjis47tNLqoTXpHjh6IxstIp1GhOidmf77jXEGZQeX1eYIiJfac1ejPm3VUt-julwv2wUsEWM43h6PwvS3XpoDSmeO8gecaCJqhk8TjHJhKKy6kmNC3c25caMAgpTugAcAgmMWzZHX95zfcR7btdDOma2Ac1namRgoqHyS-WQ5_b0lIMGbA4aSfriXqJAK5RYEaJoRaUIw4NP4-Xjv8RgMMl1TcGQ9SecOlOarmgU3KUcByMebnKw1_kdIsBAT1zge_elSYTIU4uVtpt9_Jxlu08CqsKTl2hQIN1g-5mv8-7JYK_G4PrdiA__y3T3uSQl9TOc0PhnJRqVGDLbCH7p7Oy_kZTEPNy0D5MieXUeYCkyxY5BkIhQFdN4HrgXG56DzwT_z7fA1z0iOo9nDZTtZTsAQMxbeKLhs4FB4auRQLKAgxbbDZb5rbrrDTYPGVIjh5Y1_kXXUNcW9kq2lbQLbmUMewDrFRRHXA-bvbkEIuLrpm_CPNfCCCMt9aorJ6w-gkxs3BHsOMLEx7gjgDX8cKiMBB5zBnx_uFtqMdhq4hkKnnAx7FuDfKPq-oPlhd0z2QLy1PEa-Loj9XDfklmSJNxtJ_twb0yvvpW_3Q1AWtsUHv5DCkwCPhbtXh7_3JrLyipdEQVv_F1yBSN_fyKGnx9MluhpHN_pNBlD5xD_CKeg9rMqrhCTJcDZwQhPQw1Q3Yjfoi_c2xdexDRpMi1hiPnJNOK26nOyXOsYZnJ_5AYjsuziWM-6iYfwRODnUEAuRHQVbxxuI3qfeFL-TAYdXTanX8v_3goQk4WaiYWiJmWOqgmqsdsKDXwZMsHIvbNU-e3aTkOCQKfaY4JMduboRPvIG5rpIHseMO2MRzeOBTBBDtQZRd4_0n10x8z601921DknIq5l1waETN5LM3c43dzOCgUKEKsx59ON936bsADFbC1JoJJL7rpQL5IHc0ysmAQXAoICtl0PPkwbvJq_tTalLtiQ69FpbJPNwnNWuNdsmeN1zfrxN6stzZjdxpvxDCm7Cn6vo9KdbuQ5KHLzgOjfRsRxSvmpIsvx2AR8dkyYbuaL48A_2L3hN6NzRcdYaJQK52h0JhM5LDD9OynkVPcRCtjCk7SjAuK4NLTzmKhTZq5zl-1wQsrssBdSiDJRisB1jzbiozCxA1Hc0rxqzbyjF8NvqkxXg42myGrDU7xPd8kufwyvQV7mMAsV6dTyCzCF3FaiDDoZHmN1kl1Aa1qEozZWU-C5YiscifFfN4unITHZFS3MZe0XZm3ZeDxX3dJ6giK8BVXmj2KzRR_exaKrWoBSsD-_NqBUoQCdKpnNPGS7x0nP1eYE3IZXIitF-6B3Dz0zku1Z8MxHtAz_HxUmNjXFlqt27jKCiuZStdqATQTRJX5RH0HJf6IjnBv5HsaIcRKGIT5sly1]--></g></svg>