<svg xmlns="http://www.w3.org/2000/svg" xmlns:xlink="http://www.w3.org/1999/xlink" contentStyleType="text/css" height="1509px" preserveAspectRatio="none" style="width:3192px;height:1509px;background:#FAFAFA;" version="1.1" viewBox="0 0 3192 1509" width="3192px" zoomAndPan="magnify"><defs><style type="text/css">@import url('https://fonts.googleapis.com/css?family=Roboto:400,100,100italic,300,300italic,400italic,500,500italic,700,700italic,900,900italic');</style></defs><g><rect fill="#FAFAFA" height="1509" style="stroke:none;stroke-width:1.0;" width="3192" x="0" y="0"/><ellipse cx="1484" cy="16" fill="#222222" rx="10" ry="10" style="stroke:#222222;stroke-width:1.0;"/><g id="n_start"><rect fill="#BBDEFB" height="50.4688" rx="4" ry="4" style="stroke:#181818;stroke-width:0.5;" width="81.4297" x="1443.5" y="87"/><line style="stroke:#181818;stroke-width:0.5;" x1="1443.5" x2="1524.9297" y1="113.4063" y2="113.4063"/><text fill="#000000" font-family="Roboto" font-size="14" lengthAdjust="spacing" textLength="42.793" x="1462.8184" y="104.9883">n_start</text><text fill="#000000" font-family="Roboto" font-size="12" lengthAdjust="spacing" textLength="61.4297" x="1448.5" y="129.5391">setup &#183; 46w</text></g><g id="n_honey1"><rect fill="#FFF9C4" height="50.4688" rx="4" ry="4" style="stroke:#181818;stroke-width:0.5;" width="86.8906" x="948.5" y="214"/><line style="stroke:#181818;stroke-width:0.5;" x1="948.5" x2="1035.3906" y1="240.4063" y2="240.4063"/><text fill="#000000" font-family="Roboto" font-size="14" lengthAdjust="spacing" textLength="59.3906" x="962.25" y="231.9883">n_honey1</text><text fill="#000000" font-family="Roboto" font-size="12" lengthAdjust="spacing" textLength="66.8906" x="953.5" y="256.5391">choice &#183; 42w</text></g><g id="n_honey2"><rect fill="#D1C4E9" height="50.4688" rx="4" ry="4" style="stroke:#181818;stroke-width:0.5;" width="81.0547" x="1487.5" y="341"/><line style="stroke:#181818;stroke-width:0.5;" x1="1487.5" x2="1568.5547" y1="367.4063" y2="367.4063"/><text fill="#000000" font-family="Roboto" font-size="14" lengthAdjust="spacing" textLength="59.3906" x="1498.332" y="358.9883">n_honey2</text><text fill="#000000" font-family="Roboto" font-size="12" lengthAdjust="spacing" textLength="61.0547" x="1492.5" y="383.5391">rising &#183; 40w</text></g><g id="e_honey_oops"><rect fill="#FFCDD2" height="64.5313" rx="4" ry="4" style="stroke:#181818;stroke-width:0.5;" width="170.0703" x="527" y="421"/><line style="stroke:#181818;stroke-width:0.5;" x1="527" x2="697.0703" y1="447.4063" y2="447.4063"/><text fill="#000000" font-family="Roboto" font-size="14" lengthAdjust="spacing" textLength="88.5869" x="567.7417" y="438.9883">e_honey_oops</text><text fill="#000000" font-family="Roboto" font-size="12" lengthAdjust="spacing" textLength="98.6484" x="532" y="463.5391">setback (negative)</text><text fill="#000000" font-family="Roboto" font-size="12" lengthAdjust="spacing" textLength="150.0703" x="532" y="477.6016">"Oops, {ROUTE_A_MISHAP}"</text></g><g id="n_berry1"><rect fill="#FFF9C4" height="50.4688" rx="4" ry="4" style="stroke:#181818;stroke-width:0.5;" width="86.8906" x="1070.5" y="214"/><line style="stroke:#181818;stroke-width:0.5;" x1="1070.5" x2="1157.3906" y1="240.4063" y2="240.4063"/><text fill="#000000" font-family="Roboto" font-size="14" lengthAdjust="spacing" textLength="53.3135" x="1087.2886" y="231.9883">n_berry1</text><text fill="#000000" font-family="Roboto" font-size="12" lengthAdjust="spacing" textLength="66.8906" x="1075.5" y="256.5391">choice &#183; 42w</text></g><g id="n_berry2"><rect fill="#D1C4E9" height="50.4688" rx="4" ry="4" style="stroke:#181818;stroke-width:0.5;" width="81.0547" x="2056.5" y="341"/><line style="stroke:#181818;stroke-width:0.5;" x1="2056.5" x2="2137.5547" y1="367.4063" y2="367.4063"/><text fill="#000000" font-family="Roboto" font-size="14" lengthAdjust="spacing" textLength="53.3135" x="2070.3706" y="358.9883">n_berry2</text><text fill="#000000" font-family="Roboto" font-size="12" lengthAdjust="spacing" textLength="61.0547" x="2061.5" y="383.5391">rising &#183; 40w</text></g><g id="e_berry_oops"><rect fill="#FFCDD2" height="64.5313" rx="4" ry="4" style="stroke:#181818;stroke-width:0.5;" width="169.7188" x="867" y="596"/><line style="stroke:#181818;stroke-width:0.5;" x1="867" x2="1036.7188" y1="622.4063" y2="622.4063"/><text fill="#000000" font-family="Roboto" font-size="14" lengthAdjust="spacing" textLength="82.5098" x="910.6045" y="613.9883">e_berry_oops</text><text fill="#000000" font-family="Roboto" font-size="12" lengthAdjust="spacing" textLength="98.6484" x="872" y="638.5391">setback (negative)</text><text fill="#000000" font-family="Roboto" font-size="12" lengthAdjust="spacing" textLength="149.7188" x="872" y="652.6016">"Oops, {ROUTE_B_MISHAP}"</text></g><g id="n_ball1"><rect fill="#FFF9C4" height="50.4688" rx="4" ry="4" style="stroke:#181818;stroke-width:0.5;" width="86.8906" x="433.5" y="214"/><line style="stroke:#181818;stroke-width:0.5;" x1="433.5" x2="520.3906" y1="240.4063" y2="240.4063"/><text fill="#000000" font-family="Roboto" font-size="14" lengthAdjust="spacing" textLength="44.2012" x="454.8447" y="231.9883">n_ball1</text><text fill="#000000" font-family="Roboto" font-size="12" lengthAdjust="spacing" textLength="66.8906" x="438.5" y="256.5391">choice &#183; 40w</text></g><g id="n_ball2"><rect fill="#D1C4E9" height="50.4688" rx="4" ry="4" style="stroke:#181818;stroke-width:0.5;" width="81.0547" x="1195.5" y="341"/><line style="stroke:#181818;stroke-width:0.5;" x1="1195.5" x2="1276.5547" y1="367.4063" y2="367.4063"/><text fill="#000000" font-family="Roboto" font-size="14" lengthAdjust="spacing" textLength="44.2012" x="1213.9268" y="358.9883">n_ball2</text><text fill="#000000" font-family="Roboto" font-size="12" lengthAdjust="spacing" textLength="61.0547" x="1200.5" y="383.5391">rising &#183; 38w</text></g><g id="e_ball_oops"><rect fill="#FFCDD2" height="64.5313" rx="4" ry="4" style="stroke:#181818;stroke-width:0.5;" width="170.0527" x="349" y="771"/><line style="stroke:#181818;stroke-width:0.5;" x1="349" x2="519.0527" y1="797.4063" y2="797.4063"/><text fill="#000000" font-family="Roboto" font-size="14" lengthAdjust="spacing" textLength="73.3975" x="397.3276" y="788.9883">e_ball_oops</text><text fill="#000000" font-family="Roboto" font-size="12" lengthAdjust="spacing" textLength="98.6484" x="354" y="813.5391">setback (negative)</text><text fill="#000000" font-family="Roboto" font-size="12" lengthAdjust="spacing" textLength="150.0527" x="354" y="827.6016">"Oops, {ROUTE_C_MISHAP}"</text></g><g id="n_kite1"><rect fill="#FFF9C4" height="50.4688" rx="4" ry="4" style="stroke:#181818;stroke-width:0.5;" width="86.8906" x="235.5" y="214"/><line style="stroke:#181818;stroke-width:0.5;" x1="235.5" x2="322.3906" y1="240.4063" y2="240.4063"/><text fill="#000000" font-family="Roboto" font-size="14" lengthAdjust="spacing" textLength="44.4199" x="256.7354" y="231.9883">n_kite1</text><text fill="#000000" font-family="Roboto" font-size="12" lengthAdjust="spacing" textLength="66.8906" x="240.5" y="256.5391">choice &#183; 42w</text></g><g id="n_kite2"><rect fill="#D1C4E9" height="50.4688" rx="4" ry="4" style="stroke:#181818;stroke-width:0.5;" width="81.0547" x="613.5" y="341"/><line style="stroke:#181818;stroke-width:0.5;" x1="613.5" x2="694.5547" y1="367.4063" y2="367.4063"/><text fill="#000000" font-family="Roboto" font-size="14" lengthAdjust="spacing" textLength="44.4199" x="631.8174" y="358.9883">n_kite2</text><text fill="#000000" font-family="Roboto" font-size="12" lengthAdjust="spacing" textLength="61.0547" x="618.5" y="383.5391">rising &#183; 38w</text></g><g id="e_kite_oops"><rect fill="#FFCDD2" height="64.5313" rx="4" ry="4" style="stroke:#181818;stroke-width:0.5;" width="170.1172" x="73" y="946"/><line style="stroke:#181818;stroke-width:0.5;" x1="73" x2="243.1172" y1="972.4063" y2="972.4063"/><text fill="#000000" font-family="Roboto" font-size="14" lengthAdjust="spacing" textLength="73.6162" x="121.2505" y="963.9883">e_kite_oops</text><text fill="#000000" font-family="Roboto" font-size="12" lengthAdjust="spacing" textLength="98.6484" x="78" y="988.5391">setback (negative)</text><text fill="#000000" font-family="Roboto" font-size="12" lengthAdjust="spacing" textLength="150.1172" x="78" y="1002.6016">"Oops, {ROUTE_D_MISHAP}"</text></g><g id="n_owl1"><rect fill="#FFF9C4" height="50.4688" rx="4" ry="4" style="stroke:#181818;stroke-width:0.5;" width="86.8906" x="2997.5" y="214"/><line style="stroke:#181818;stroke-width:0.5;" x1="2997.5" x2="3084.3906" y1="240.4063" y2="240.4063"/><text fill="#000000" font-family="Roboto" font-size="14" lengthAdjust="spacing" textLength="43.8252" x="3019.0327" y="231.9883">n_owl1</text><text fill="#000000" font-family="Roboto" font-size="12" lengthAdjust="spacing" textLength="66.8906" x="3002.5" y="256.5391">choice &#183; 44w</text></g><g id="n_owl2"><rect fill="#D1C4E9" height="50.4688" rx="4" ry="4" style="stroke:#181818;stroke-width:0.5;" width="81.0547" x="2661.5" y="341"/><line style="stroke:#181818;stroke-width:0.5;" x1="2661.5" x2="2742.5547" y1="367.4063" y2="367.4063"/><text fill="#000000" font-family="Roboto" font-size="14" lengthAdjust="spacing" textLength="43.8252" x="2680.1147" y="358.9883">n_owl2</text><text fill="#000000" font-family="Roboto" font-size="12" lengthAdjust="spacing" textLength="61.0547" x="2666.5" y="383.5391">rising &#183; 40w</text></g><g id="e_owl_oops"><rect fill="#FFCDD2" height="64.5313" rx="4" ry="4" style="stroke:#181818;stroke-width:0.5;" width="169.0625" x="2772.5" y="1121"/><line style="stroke:#181818;stroke-width:0.5;" x1="2772.5" x2="2941.5625" y1="1147.4063" y2="1147.4063"/><text fill="#000000" font-family="Roboto" font-size="14" lengthAdjust="spacing" textLength="73.0215" x="2820.5205" y="1138.9883">e_owl_oops</text><text fill="#000000" font-family="Roboto" font-size="12" lengthAdjust="spacing" textLength="98.6484" x="2777.5" y="1163.5391">setback (negative)</text><text fill="#000000" font-family="Roboto" font-size="12" lengthAdjust="spacing" textLength="149.0625" x="2777.5" y="1177.6016">"Oops, {ROUTE_E_MISHAP}"</text></g><g id="n_music1"><rect fill="#FFF9C4" height="50.4688" rx="4" ry="4" style="stroke:#181818;stroke-width:0.5;" width="86.8906" x="2197.5" y="214"/><line style="stroke:#181818;stroke-width:0.5;" x1="2197.5" x2="2284.3906" y1="240.4063" y2="240.4063"/><text fill="#000000" font-family="Roboto" font-size="14" lengthAdjust="spacing" textLength="59.8691" x="2211.0107" y="231.9883">n_music1</text><text fill="#000000" font-family="Roboto" font-size="12" lengthAdjust="spacing" textLength="66.8906" x="2202.5" y="256.5391">choice &#183; 42w</text></g><g id="n_music2"><rect fill="#D1C4E9" height="50.4688" rx="4" ry="4" style="stroke:#181818;stroke-width:0.5;" width="81.0547" x="1736.5" y="341"/><line style="stroke:#181818;stroke-width:0.5;" x1="1736.5" x2="1817.5547" y1="367.4063" y2="367.4063"/><text fill="#000000" font-family="Roboto" font-size="14" lengthAdjust="spacing" textLength="59.8691" x="1747.0928" y="358.9883">n_music2</text><text fill="#000000" font-family="Roboto" font-size="12" lengthAdjust="spacing" textLength="61.0547" x="1741.5" y="383.5391">rising &#183; 38w</text></g><g id="e_music_oops"><rect fill="#FFCDD2" height="64.5313" rx="4" ry="4" style="stroke:#181818;stroke-width:0.5;" width="168.875" x="2291.5" y="421"/><line style="stroke:#181818;stroke-width:0.5;" x1="2291.5" x2="2460.375" y1="447.4063" y2="447.4063"/><text fill="#000000" font-family="Roboto" font-size="14" lengthAdjust="spacing" textLength="89.0654" x="2331.4048" y="438.9883">e_music_oops</text><text fill="#000000" font-family="Roboto" font-size="12" lengthAdjust="spacing" textLength="98.6484" x="2296.5" y="463.5391">setback (negative)</text><text fill="#000000" font-family="Roboto" font-size="12" lengthAdjust="spacing" textLength="148.875" x="2296.5" y="477.6016">"Oops, {ROUTE_F_MISHAP}"</text></g><g id="n_gather"><rect fill="#D1C4E9" height="50.4688" rx="4" ry="4" style="stroke:#181818;stroke-width:0.5;" width="81.0547" x="1522.5" y="516"/><line style="stroke:#181818;stroke-width:0.5;" x1="1522.5" x2="1603.5547" y1="542.4063" y2="542.4063"/><text fill="#000000" font-family="Roboto" font-size="14" lengthAdjust="spacing" textLength="53.9834" x="1536.0356" y="533.9883">n_gather</text><text fill="#000000" font-family="Roboto" font-size="12" lengthAdjust="spacing" textLength="61.0547" x="1527.5" y="558.5391">rising &#183; 40w</text></g><g id="n_welcome"><rect fill="#D1C4E9" height="50.4688" rx="4" ry="4" style="stroke:#181818;stroke-width:0.5;" width="90.4102" x="1518" y="691"/><line style="stroke:#181818;stroke-width:0.5;" x1="1518" x2="1608.4102" y1="717.4063" y2="717.4063"/><text fill="#000000" font-family="Roboto" font-size="14" lengthAdjust="spacing" textLength="70.4102" x="1528" y="708.9883">n_welcome</text><text fill="#000000" font-family="Roboto" font-size="12" lengthAdjust="spacing" textLength="61.0547" x="1523" y="733.5391">rising &#183; 40w</text></g><g id="n_arrange"><rect fill="#FFF9C4" height="50.4688" rx="4" ry="4" style="stroke:#181818;stroke-width:0.5;" width="86.8906" x="1519.5" y="866"/><line style="stroke:#181818;stroke-width:0.5;" x1="1519.5" x2="1606.3906" y1="892.4063" y2="892.4063"/><text fill="#000000" font-family="Roboto" font-size="14" lengthAdjust="spacing" textLength="61.7832" x="1532.0537" y="883.9883">n_arrange</text><text fill="#000000" font-family="Roboto" font-size="12" lengthAdjust="spacing" textLength="66.8906" x="1524.5" y="908.5391">choice &#183; 40w</text></g><g id="n_share"><rect fill="#FFF9C4" height="50.4688" rx="4" ry="4" style="stroke:#181818;stroke-width:0.5;" width="86.8906" x="1112.5" y="1041"/><line style="stroke:#181818;stroke-width:0.5;" x1="1112.5" x2="1199.3906" y1="1067.4063" y2="1067.4063"/><text fill="#000000" font-family="Roboto" font-size="14" lengthAdjust="spacing" textLength="48.7676" x="1131.5615" y="1058.9883">n_share</text><text fill="#000000" font-family="Roboto" font-size="12" lengthAdjust="spacing" textLength="66.8906" x="1117.5" y="1083.5391">choice &#183; 40w</text></g><g id="n_game"><rect fill="#FFF9C4" height="50.4688" rx="4" ry="4" style="stroke:#181818;stroke-width:0.5;" width="86.8906" x="1562.5" y="1041"/><line style="stroke:#181818;stroke-width:0.5;" x1="1562.5" x2="1649.3906" y1="1067.4063" y2="1067.4063"/><text fill="#000000" font-family="Roboto" font-size="14" lengthAdjust="spacing" textLength="49.2256" x="1581.3325" y="1058.9883">n_game</text><text fill="#000000" font-family="Roboto" font-size="12" lengthAdjust="spacing" textLength="66.8906" x="1567.5" y="1083.5391">choice &#183; 36w</text></g><g id="e_song"><rect fill="#C8E6C9" height="64.5313" rx="4" ry="4" style="stroke:#181818;stroke-width:0.5;" width="132.957" x="961.5" y="1216"/><line style="stroke:#181818;stroke-width:0.5;" x1="961.5" x2="1094.457" y1="1242.4063" y2="1242.4063"/><text fill="#000000" font-family="Roboto" font-size="14" lengthAdjust="spacing" textLength="44.543" x="1005.707" y="1233.9883">e_song</text><text fill="#000000" font-family="Roboto" font-size="12" lengthAdjust="spacing" textLength="112.957" x="966.5" y="1258.5391">completion (positive)</text><text fill="#000000" font-family="Roboto" font-size="12" lengthAdjust="spacing" textLength="85.5762" x="966.5" y="1272.6016">"{SONG_PRIZE}"</text></g><g id="e_music_finale"><rect fill="#C8E6C9" height="64.5313" rx="4" ry="4" style="stroke:#181818;stroke-width:0.5;" width="122.9199" x="1129.5" y="1216"/><line style="stroke:#181818;stroke-width:0.5;" x1="1129.5" x2="1252.4199" y1="1242.4063" y2="1242.4063"/><text fill="#000000" font-family="Roboto" font-size="14" lengthAdjust="spacing" textLength="92.4561" x="1144.7319" y="1233.9883">e_music_finale</text><text fill="#000000" font-family="Roboto" font-size="12" lengthAdjust="spacing" textLength="97.0957" x="1134.5" y="1258.5391">success (positive)</text><text fill="#000000" font-family="Roboto" font-size="12" lengthAdjust="spacing" textLength="102.9199" x="1134.5" y="1272.6016">"{ROUTE_F_PRIZE}"</text></g><g id="e_nap"><rect fill="#C8E6C9" height="64.5313" rx="4" ry="4" style="stroke:#181818;stroke-width:0.5;" width="132.957" x="1298.5" y="1216"/><line style="stroke:#181818;stroke-width:0.5;" x1="1298.5" x2="1431.457" y1="1242.4063" y2="1242.4063"/><text fill="#000000" font-family="Roboto" font-size="14" lengthAdjust="spacing" textLength="36.9482" x="1346.5044" y="1233.9883">e_nap</text><text fill="#000000" font-family="Roboto" font-size="12" lengthAdjust="spacing" textLength="112.957" x="1303.5" y="1258.5391">completion (positive)</text><text fill="#000000" font-family="Roboto" font-size="12" lengthAdjust="spacing" textLength="77.4199" x="1303.5" y="1272.6016">"{NAP_PRIZE}"</text></g><g id="e_ball_game"><rect fill="#C8E6C9" height="64.5313" rx="4" ry="4" style="stroke:#181818;stroke-width:0.5;" width="124.0977" x="1506" y="1216"/><line style="stroke:#181818;stroke-width:0.5;" x1="1506" x2="1630.0977" y1="1242.4063" y2="1242.4063"/><text fill="#000000" font-family="Roboto" font-size="14" lengthAdjust="spacing" textLength="77.5195" x="1529.2891" y="1233.9883">e_ball_game</text><text fill="#000000" font-family="Roboto" font-size="12" lengthAdjust="spacing" textLength="97.0957" x="1511" y="1258.5391">success (positive)</text><text fill="#000000" font-family="Roboto" font-size="12" lengthAdjust="spacing" textLength="104.0977" x="1511" y="1272.6016">"{ROUTE_C_PRIZE}"</text></g><g id="e_kite_game"><rect fill="#C8E6C9" height="64.5313" rx="4" ry="4" style="stroke:#181818;stroke-width:0.5;" width="124.1621" x="1735" y="1216"/><line style="stroke:#181818;stroke-width:0.5;" x1="1735" x2="1859.1621" y1="1242.4063" y2="1242.4063"/><text fill="#000000" font-family="Roboto" font-size="14" lengthAdjust="spacing" textLength="77.7383" x="1758.2119" y="1233.9883">e_kite_game</text><text fill="#000000" font-family="Roboto" font-size="12" lengthAdjust="spacing" textLength="97.0957" x="1740" y="1258.5391">success (positive)</text><text fill="#000000" font-family="Roboto" font-size="12" lengthAdjust="spacing" textLength="104.1621" x="1740" y="1272.6016">"{ROUTE_D_PRIZE}"</text></g><ellipse cx="1191" cy="1353" fill="none" rx="11" ry="11" style="stroke:#222222;stroke-width:1.0;"/><ellipse cx="1191" cy="1353" fill="#222222" rx="6" ry="6" style="stroke:#222222;stroke-width:1.0;"/><!--link *start* to n_start--><g id="link_*start*_n_start"><path d="M1484,26.01 C1484,39.89 1484,60.97 1484,80.84 " fill="none" id="*start*-to-n_start" style="stroke:#181818;stroke-width:1.0;"/><polygon fill="#181818" points="1484,86.84,1488,77.84,1484,81.84,1480,77.84,1484,86.84" style="stroke:#181818;stroke-width:1.0;"/></g><!--link n_start to n_honey1--><g id="link_n_start_n_honey1"><path d="M1443.17,113.15 C1304.34,114.08 856.73,120.69 814,167 C761.79,223.58 729.68,154.89 921,214 C929.83,216.73 933.5304,217.885 942.4904,220.885 " fill="none" id="n_start-to-n_honey1" style="stroke:#181818;stroke-width:1.0;"/><polygon fill="#181818" points="948.18,222.79,940.9157,216.1395,943.4387,221.2025,938.3757,223.7256,948.18,222.79" style="stroke:#181818;stroke-width:1.0;"/><text fill="#000000" font-family="Roboto" font-size="13" lengthAdjust="spacing" textLength="280.3823" x="815" y="180.0605">Go ask {ROUTE_A_LURE} for {ROUTE_A_OFFER...</text></g><!--link n_start to n_berry1--><g id="link_n_start_n_berry1"><path d="M1443.43,112.52 C1355.87,112.44 1153.66,117.71 1111,167 C1100.1,179.59 1100.0784,192.8282 1103.8684,208.0282 " fill="none" id="n_start-to-n_berry1" style="stroke:#181818;stroke-width:1.0;"/><polygon fill="#181818" points="1105.32,213.85,1107.0238,204.1496,1104.1103,208.9985,1099.2614,206.0851,1105.32,213.85" style="stroke:#181818;stroke-width:1.0;"/><text fill="#000000" font-family="Roboto" font-size="13" lengthAdjust="spacing" textLength="278.002" x="1112" y="180.0605">Go pick {ROUTE_B_LURE} at {ROUTE_B_CHAR}...</text></g><!--link n_start to n_ball1--><g id="link_n_start_n_ball1"><path d="M1443.43,113.63 C1259.08,116.67 507.9,131.24 474,167 C462.46,179.18 462.5081,192.6436 466.5181,208.0436 " fill="none" id="n_start-to-n_ball1" style="stroke:#181818;stroke-width:1.0;"/><polygon fill="#181818" points="468.03,213.85,469.633,204.1325,466.7701,209.0113,461.8912,206.1484,468.03,213.85" style="stroke:#181818;stroke-width:1.0;"/><text fill="#000000" font-family="Roboto" font-size="13" lengthAdjust="spacing" textLength="148.6875" x="475" y="180.0605">Go find {ROUTE_C_LURE}.</text></g><!--link n_start to n_kite1--><g id="link_n_start_n_kite1"><path d="M1443.3,113.54 C1240.37,116.4 345.94,131.02 300,167 C285.93,178.02 281.5518,192.0303 279.9418,208.0003 " fill="none" id="n_start-to-n_kite1" style="stroke:#181818;stroke-width:1.0;"/><polygon fill="#181818" points="279.34,213.97,284.2226,205.4166,279.8415,208.9952,276.2629,204.6142,279.34,213.97" style="stroke:#181818;stroke-width:1.0;"/><text fill="#000000" font-family="Roboto" font-size="13" lengthAdjust="spacing" textLength="156.1968" x="301" y="180.0605">Go fetch {ROUTE_D_LURE}.</text></g><!--link n_start to n_owl1--><g id="link_n_start_n_owl1"><path d="M1524.72,112.58 C1681.05,111.42 2257.58,111.42 2728,167 C2836.81,179.86 2864.09,185.95 2970,214 C2978.93,216.37 2982.6716,217.3817 2991.6516,220.3417 " fill="none" id="n_start-to-n_owl1" style="stroke:#181818;stroke-width:1.0;"/><polygon fill="#181818" points="2997.35,222.22,2990.0546,215.6036,2992.6013,220.6547,2987.5502,223.2015,2997.35,222.22" style="stroke:#181818;stroke-width:1.0;"/><text fill="#000000" font-family="Roboto" font-size="13" lengthAdjust="spacing" textLength="282.0645" x="2842" y="180.0605">Go wake {ROUTE_E_LURE} in {ROUTE_E_CHAR}...</text></g><!--link n_start to n_music1--><g id="link_n_start_n_music1"><path d="M1524.8,115.97 C1632,124.41 1929.87,152.07 2170,214 C2178.95,216.31 2182.6897,217.3074 2191.6697,220.2574 " fill="none" id="n_start-to-n_music1" style="stroke:#181818;stroke-width:1.0;"/><polygon fill="#181818" points="2197.37,222.13,2190.0679,215.5209,2192.6198,220.5695,2187.5712,223.1213,2197.37,222.13" style="stroke:#181818;stroke-width:1.0;"/><text fill="#000000" font-family="Roboto" font-size="13" lengthAdjust="spacing" textLength="147.4116" x="2022" y="180.0605">Go find {ROUTE_F_LURE}.</text></g><!--link n_honey1 to n_honey2--><g id="link_n_honey1_n_honey2"><path d="M1035.64,258.32 C1041.42,260.4 1047.31,262.36 1053,264 C1122.53,284 1142.14,279.38 1213,294 C1311.82,314.4 1421.5702,339.8329 1481.4902,353.9629 " fill="none" id="n_honey1-to-n_honey2" style="stroke:#181818;stroke-width:1.0;"/><polygon fill="#181818" points="1487.33,355.34,1479.4883,349.3811,1482.4635,354.1924,1477.6522,357.1675,1487.33,355.34" style="stroke:#181818;stroke-width:1.0;"/><text fill="#000000" font-family="Roboto" font-size="13" lengthAdjust="spacing" textLength="217.6611" x="1292" y="307.0605">Ask {ROUTE_A_LURE} nicely and wait.</text></g><!--link n_honey1 to e_honey_oops--><g id="link_n_honey1_e_honey_oops"><path d="M948.37,255.87 C939.39,258.82 929.95,261.69 921,264 C848.4,282.72 813.94,247.67 755,294 C717.93,323.14 743.04,355.5 712,391 C702.01,402.43 694.3874,409.145 681.4774,417.555 " fill="none" id="n_honey1-to-e_honey_oops" style="stroke:#181818;stroke-width:1.0;"/><polygon fill="#181818" points="676.45,420.83,686.1744,419.2691,680.6395,418.1008,681.8077,412.5659,676.45,420.83" style="stroke:#181818;stroke-width:1.0;"/><text fill="#000000" font-family="Roboto" font-size="13" lengthAdjust="spacing" textLength="186.9194" x="756" y="307.0605">Poke {ROUTE_A_CHAR} to hurry.</text></g><!--link n_honey2 to n_start--><g id="link_n_honey2_n_start"><path d="M1568.82,360.37 C1664.83,347.83 1891.75,307.64 1822,214 C1786.1,165.8 1612.5347,133.0977 1530.7047,120.0077 " fill="none" id="n_honey2-to-n_start" style="stroke:#181818;stroke-width:1.0;"/><polygon fill="#181818" points="1524.78,119.06,1533.0352,124.4314,1529.7172,119.8498,1534.2988,116.5318,1524.78,119.06" style="stroke:#181818;stroke-width:1.0;"/><text fill="#000000" font-family="Roboto" font-size="13" lengthAdjust="spacing" textLength="276.1929" x="1837" y="243.5605">Carry {ROUTE_A_OFFER} back to {ENTRANCE}...</text></g><!--link n_honey2 to n_gather--><g id="link_n_honey2_n_gather"><path d="M1522.84,391.35 C1518.69,415.87 1515.02,454.48 1525,486 C1528.39,496.71 1531.1579,502.3241 1537.7279,511.1141 " fill="none" id="n_honey2-to-n_gather" style="stroke:#181818;stroke-width:1.0;"/><polygon fill="#181818" points="1541.32,515.92,1539.1357,506.3164,1538.3266,511.9151,1532.7279,511.1059,1541.32,515.92" style="stroke:#181818;stroke-width:1.0;"/><text fill="#000000" font-family="Roboto" font-size="13" lengthAdjust="spacing" textLength="207.5239" x="1526" y="458.0605">Ring {SIGNAL} and start the {GOAL}.</text></g><!--link n_berry1 to n_berry2--><g id="link_n_berry1_n_berry2"><path d="M1157.79,257.01 C1166.67,259.83 1176.04,262.37 1185,264 C1280.49,281.39 1975.33,243.15 2058,294 C2074.77,304.32 2082.874,318.9182 2088.574,335.1682 " fill="none" id="n_berry1-to-n_berry2" style="stroke:#181818;stroke-width:1.0;"/><polygon fill="#181818" points="2090.56,340.83,2091.3556,331.0133,2088.905,336.1118,2083.8065,333.6613,2090.56,340.83" style="stroke:#181818;stroke-width:1.0;"/><text fill="#000000" font-family="Roboto" font-size="13" lengthAdjust="spacing" textLength="206.5464" x="2076" y="307.0605">Pick the easy low {ROUTE_B_LURE}.</text></g><!--link n_berry1 to e_berry_oops--><g id="link_n_berry1_e_berry_oops"><path d="M1070.22,258.01 C1035.94,272.31 993.62,290.46 991,294 C955.95,341.4 951.9514,516.06 951.8114,589.84 " fill="none" id="n_berry1-to-e_berry_oops" style="stroke:#181818;stroke-width:1.0;"/><polygon fill="#181818" points="951.8,595.84,955.8171,586.8476,951.8095,590.84,947.8171,586.8324,951.8,595.84" style="stroke:#181818;stroke-width:1.0;"/><text fill="#000000" font-family="Roboto" font-size="13" lengthAdjust="spacing" textLength="189.7568" x="974" y="370.5605">Stretch for the wobbly high ones.</text></g><!--link n_berry2 to n_start--><g id="link_n_berry2_n_start"><path d="M2137.58,365.18 C2181.6,363.09 2250.95,352.76 2291,311 C2321.04,279.69 2326.65,249.7 2302,214 C2268.52,165.5 2235.52,179.86 2178,167 C2052.1,138.85 1659.4946,120.3435 1530.6146,114.8935 " fill="none" id="n_berry2-to-n_start" style="stroke:#181818;stroke-width:1.0;"/><polygon fill="#181818" points="1524.62,114.64,1533.443,119.0167,1529.6155,114.8512,1533.781,111.0238,1524.62,114.64" style="stroke:#181818;stroke-width:1.0;"/><text fill="#000000" font-family="Roboto" font-size="13" lengthAdjust="spacing" textLength="275.812" x="2318" y="243.5605">Carry {ROUTE_B_OFFER} back to {ENTRANCE}...</text></g><!--link n_berry2 to n_gather--><g id="link_n_berry2_n_gather"><path d="M2082.36,391.35 C2064.08,419.34 2030.05,464.23 1988,486 C1921.46,520.46 1702.3537,533.8556 1609.5337,538.1056 " fill="none" id="n_berry2-to-n_gather" style="stroke:#181818;stroke-width:1.0;"/><polygon fill="#181818" points="1603.54,538.38,1612.7135,541.9642,1608.5348,538.1513,1612.3476,533.9725,1603.54,538.38" style="stroke:#181818;stroke-width:1.0;"/><text fill="#000000" font-family="Roboto" font-size="13" lengthAdjust="spacing" textLength="207.5239" x="2060" y="458.0605">Ring {SIGNAL} and start the {GOAL}.</text></g><!--link n_ball1 to n_ball2--><g id="link_n_ball1_n_ball2"><path d="M520.76,249.15 C545.9,254.13 578.12,260.07 607,264 C757.31,284.46 797.07,270.93 947,294 C981.64,299.33 989.73,303.65 1024,311 C1087.92,324.71 1105.04,323.42 1168,341 C1176.92,343.49 1180.7005,344.586 1189.6205,347.676 " fill="none" id="n_ball1-to-n_ball2" style="stroke:#181818;stroke-width:1.0;"/><polygon fill="#181818" points="1195.29,349.64,1188.0951,342.9144,1190.5654,348.0034,1185.4765,350.4737,1195.29,349.64" style="stroke:#181818;stroke-width:1.0;"/><text fill="#000000" font-family="Roboto" font-size="13" lengthAdjust="spacing" textLength="176.5537" x="1025" y="307.0605">Follow the little bounce marks.</text></g><!--link n_ball1 to e_ball_oops--><g id="link_n_ball1_e_ball_oops"><path d="M433.45,246.66 C402.81,253.53 362.98,267.21 338,294 C315.47,318.16 316,331.96 316,365 C316,365 316,365 316,629.5 C316,686.76 356.2528,734.9786 390.6328,766.7386 " fill="none" id="n_ball1-to-e_ball_oops" style="stroke:#181818;stroke-width:1.0;"/><polygon fill="#181818" points="395.04,770.81,391.1434,761.7648,391.3673,767.4172,385.7149,767.6411,395.04,770.81" style="stroke:#181818;stroke-width:1.0;"/><text fill="#000000" font-family="Roboto" font-size="13" lengthAdjust="spacing" textLength="160.5132" x="317" y="458.0605">Dive into {ROUTE_C_CHAR}.</text></g><!--link n_ball2 to n_start--><g id="link_n_ball2_n_start"><path d="M1231.32,340.86 C1226.42,307.79 1223.29,248.56 1255,214 C1298.02,167.11 1337.49,211.23 1395,184 C1419.47,172.41 1438.8472,156.977 1455.6572,141.337 " fill="none" id="n_ball2-to-n_start" style="stroke:#181818;stroke-width:1.0;"/><polygon fill="#181818" points="1460.05,137.25,1450.7362,140.452,1456.3894,140.6558,1456.1855,146.309,1460.05,137.25" style="stroke:#181818;stroke-width:1.0;"/><text fill="#000000" font-family="Roboto" font-size="13" lengthAdjust="spacing" textLength="252.6875" x="1256" y="243.5605">Roll {ROUTE_C_LURE} back to {ENTRANCE}.</text></g><!--link n_ball2 to n_gather--><g id="link_n_ball2_n_gather"><path d="M1242.7,391.18 C1251.6,418.58 1270.03,462.48 1302,486 C1336.57,511.43 1452.1193,527.6741 1516.4293,535.0741 " fill="none" id="n_ball2-to-n_gather" style="stroke:#181818;stroke-width:1.0;"/><polygon fill="#181818" points="1522.39,535.76,1513.9063,530.7574,1517.4228,535.1884,1512.9917,538.705,1522.39,535.76" style="stroke:#181818;stroke-width:1.0;"/><text fill="#000000" font-family="Roboto" font-size="13" lengthAdjust="spacing" textLength="207.5239" x="1303" y="458.0605">Ring {SIGNAL} and start the {GOAL}.</text></g><!--link n_kite1 to n_kite2--><g id="link_n_kite1_n_kite2"><path d="M303.44,264.06 C320.86,279.83 345.61,299.57 371,311 C451.96,347.44 550.7138,358.903 607.3438,362.753 " fill="none" id="n_kite1-to-n_kite2" style="stroke:#181818;stroke-width:1.0;"/><polygon fill="#181818" points="613.33,363.16,604.622,358.5588,608.3415,362.8209,604.0794,366.5403,613.33,363.16" style="stroke:#181818;stroke-width:1.0;"/><text fill="#000000" font-family="Roboto" font-size="13" lengthAdjust="spacing" textLength="255.1694" x="372" y="307.0605">Carry {ROUTE_D_LURE} gently under her ar...</text></g><!--link n_kite1 to e_kite_oops--><g id="link_n_kite1_e_kite_oops"><path d="M235.44,240.81 C158.37,244.8 6,265.31 6,365 C6,365 6,365 6,804.5 C6,865.67 55.3549,912.1076 99.0449,942.3176 " fill="none" id="n_kite1-to-e_kite_oops" style="stroke:#181818;stroke-width:1.0;"/><polygon fill="#181818" points="103.98,945.73,98.8523,937.3213,99.8674,942.8863,94.3024,943.9014,103.98,945.73" style="stroke:#181818;stroke-width:1.0;"/><text fill="#000000" font-family="Roboto" font-size="13" lengthAdjust="spacing" textLength="255.125" x="7" y="545.5605">Let {ROUTE_D_LURE} flap open in the wind...</text></g><!--link n_kite2 to n_start--><g id="link_n_kite2_n_start"><path d="M649.07,340.81 C643.94,308.49 640.09,250.99 668,214 C702.75,167.95 732.75,179.82 789,167 C914.96,138.3 1308.2251,120.1566 1437.3151,114.8466 " fill="none" id="n_kite2-to-n_start" style="stroke:#181818;stroke-width:1.0;"/><polygon fill="#181818" points="1443.31,114.6,1434.1532,110.9733,1438.3142,114.8055,1434.482,118.9665,1443.31,114.6" style="stroke:#181818;stroke-width:1.0;"/><text fill="#000000" font-family="Roboto" font-size="13" lengthAdjust="spacing" textLength="261.1553" x="669" y="243.5605">Bring {ROUTE_D_LURE} back to {ENTRANCE}.</text></g><!--link n_kite2 to n_gather--><g id="link_n_kite2_n_gather"><path d="M694.5,382.48 C763.78,408.28 909.95,459.84 1038,486 C1216.2,522.4 1427.7053,534.5673 1516.4153,538.3073 " fill="none" id="n_kite2-to-n_gather" style="stroke:#181818;stroke-width:1.0;"/><polygon fill="#181818" points="1522.41,538.56,1513.5865,534.1844,1517.4144,538.3494,1513.2495,542.1773,1522.41,538.56" style="stroke:#181818;stroke-width:1.0;"/><text fill="#000000" font-family="Roboto" font-size="13" lengthAdjust="spacing" textLength="207.5239" x="1039" y="458.0605">Ring {SIGNAL} and start the {GOAL}.</text></g><!--link n_owl1 to n_owl2--><g id="link_n_owl1_n_owl2"><path d="M2997.44,256.14 C2988.45,259.07 2978.99,261.87 2970,264 C2876.98,286.07 2839.69,246.02 2757,294 C2738.25,304.88 2726.6965,319.711 2717.2665,335.711 " fill="none" id="n_owl1-to-n_owl2" style="stroke:#181818;stroke-width:1.0;"/><polygon fill="#181818" points="2714.22,340.88,2722.2358,335.1575,2716.7587,336.5725,2715.3437,331.0955,2714.22,340.88" style="stroke:#181818;stroke-width:1.0;"/><text fill="#000000" font-family="Roboto" font-size="13" lengthAdjust="spacing" textLength="257.0229" x="2758" y="307.0605">Hoot softly to wake {ROUTE_E_LURE} gentl...</text></g><!--link n_owl1 to e_owl_oops--><g id="link_n_owl1_e_owl_oops"><path d="M3041.31,264.43 C3041.6,289.63 3042,330.06 3042,365 C3042,365 3042,365 3042,979.5 C3042,1044.58 2985.43,1089.3434 2933.26,1117.9734 " fill="none" id="n_owl1-to-e_owl_oops" style="stroke:#181818;stroke-width:1.0;"/><polygon fill="#181818" points="2928,1120.86,2937.8144,1120.0368,2932.3833,1118.4545,2933.9656,1113.0234,2928,1120.86" style="stroke:#181818;stroke-width:1.0;"/><text fill="#000000" font-family="Roboto" font-size="13" lengthAdjust="spacing" textLength="141.1592" x="3043" y="633.0605">Shake the whole branch.</text></g><!--link n_owl2 to n_start--><g id="link_n_owl2_n_start"><path d="M2693.48,340.91 C2679.93,306.48 2649.98,244.02 2602,214 C2509.02,155.82 1720.9755,122.0917 1530.8055,114.7417 " fill="none" id="n_owl2-to-n_start" style="stroke:#181818;stroke-width:1.0;"/><polygon fill="#181818" points="1524.81,114.51,1533.6488,118.8546,1529.8063,114.7031,1533.9578,110.8606,1524.81,114.51" style="stroke:#181818;stroke-width:1.0;"/><text fill="#000000" font-family="Roboto" font-size="13" lengthAdjust="spacing" textLength="258.2227" x="2653" y="243.5605">Walk {ROUTE_E_LURE} back to {ENTRANCE}.</text></g><!--link n_owl2 to n_gather--><g id="link_n_owl2_n_gather"><path d="M2667.92,391.17 C2625.65,419.66 2550.29,465.71 2478,486 C2309.95,533.17 1763.9999,539.1209 1609.5099,539.8709 " fill="none" id="n_owl2-to-n_gather" style="stroke:#181818;stroke-width:1.0;"/><polygon fill="#181818" points="1603.51,539.9,1612.5293,543.8563,1608.5099,539.8757,1612.4905,535.8564,1603.51,539.9" style="stroke:#181818;stroke-width:1.0;"/><text fill="#000000" font-family="Roboto" font-size="13" lengthAdjust="spacing" textLength="207.5239" x="2621" y="458.0605">Ring {SIGNAL} and start the {GOAL}.</text></g><!--link n_music1 to n_music2--><g id="link_n_music1_n_music2"><path d="M2197.45,256.22 C2188.47,259.14 2179,261.92 2170,264 C2069.14,287.36 2038.35,264.88 1939,294 C1922.02,298.98 1919.13,303.74 1903,311 C1874.68,323.75 1848.0175,335.1962 1823.2675,345.6462 " fill="none" id="n_music1-to-n_music2" style="stroke:#181818;stroke-width:1.0;"/><polygon fill="#181818" points="1817.74,347.98,1827.5871,348.1642,1822.3462,346.0351,1824.4754,340.7943,1817.74,347.98" style="stroke:#181818;stroke-width:1.0;"/><text fill="#000000" font-family="Roboto" font-size="13" lengthAdjust="spacing" textLength="113.3311" x="1940" y="307.0605">Lift the lid carefully.</text></g><!--link n_music1 to e_music_oops--><g id="link_n_music1_e_music_oops"><path d="M2265.81,264.13 C2274.33,273.08 2283.58,283.6 2291,294 C2320.37,335.18 2344.0868,382.2664 2359.3968,415.2964 " fill="none" id="n_music1-to-e_music_oops" style="stroke:#181818;stroke-width:1.0;"/><polygon fill="#181818" points="2361.92,420.74,2361.7643,410.8924,2359.8173,416.2036,2354.5061,414.2567,2361.92,420.74" style="stroke:#181818;stroke-width:1.0;"/><text fill="#000000" font-family="Roboto" font-size="13" lengthAdjust="spacing" textLength="179.9116" x="2301" y="307.0605">Give the handle a big fast wind.</text></g><!--link n_music2 to n_start--><g id="link_n_music2_n_start"><path d="M1736.19,356.1 C1686.79,343.42 1603.8,315.74 1552,264 C1516.1,228.14 1498.8352,175.7709 1490.6652,143.0909 " fill="none" id="n_music2-to-n_start" style="stroke:#181818;stroke-width:1.0;"/><polygon fill="#181818" points="1489.21,137.27,1487.5123,146.9714,1490.4227,142.1207,1495.2734,145.0311,1489.21,137.27" style="stroke:#181818;stroke-width:1.0;"/><text fill="#000000" font-family="Roboto" font-size="13" lengthAdjust="spacing" textLength="260.1587" x="1553" y="243.5605">Carry {ROUTE_F_LURE} back to {ENTRANCE}.</text></g><!--link n_music2 to n_gather--><g id="link_n_music2_n_gather"><path d="M1775.47,391.4 C1772.5,418.18 1763.74,460.7 1738,486 C1701.94,521.44 1649.1361,533.0435 1609.7661,537.2435 " fill="none" id="n_music2-to-n_gather" style="stroke:#181818;stroke-width:1.0;"/><polygon fill="#181818" points="1603.8,537.88,1613.1735,540.9027,1608.7718,537.3496,1612.3249,532.9479,1603.8,537.88" style="stroke:#181818;stroke-width:1.0;"/><text fill="#000000" font-family="Roboto" font-size="13" lengthAdjust="spacing" textLength="207.5239" x="1772" y="458.0605">Ring {SIGNAL} and start the {GOAL}.</text></g><!--link n_gather to n_welcome--><g id="link_n_gather_n_welcome"><path d="M1563,566.05 C1563,599.01 1563,651.87 1563,684.87 " fill="none" id="n_gather-to-n_welcome" style="stroke:#181818;stroke-width:1.0;"/><polygon fill="#181818" points="1563,690.87,1567,681.87,1563,685.87,1559,681.87,1563,690.87" style="stroke:#181818;stroke-width:1.0;"/><text fill="#000000" font-family="Roboto" font-size="13" lengthAdjust="spacing" textLength="130.9839" x="1564" y="633.0605">Welcome {GUESTS} in.</text></g><!--link n_welcome to n_arrange--><g id="link_n_welcome_n_arrange"><path d="M1563,741.05 C1563,774.01 1563,826.87 1563,859.87 " fill="none" id="n_welcome-to-n_arrange" style="stroke:#181818;stroke-width:1.0;"/><polygon fill="#181818" points="1563,865.87,1567,856.87,1563,860.87,1559,856.87,1563,865.87" style="stroke:#181818;stroke-width:1.0;"/><text fill="#000000" font-family="Roboto" font-size="13" lengthAdjust="spacing" textLength="165.9722" x="1564" y="808.0605">Lay out all the {GOAL} treats.</text></g><!--link n_arrange to n_share--><g id="link_n_arrange_n_share"><path d="M1519.47,892.81 C1461.87,895.52 1358.58,906.1 1281,946 C1236.24,969.02 1200.1436,1008.3991 1178.0436,1035.9591 " fill="none" id="n_arrange-to-n_share" style="stroke:#181818;stroke-width:1.0;"/><polygon fill="#181818" points="1174.29,1040.64,1183.0409,1036.121,1177.418,1036.7392,1176.7997,1031.1163,1174.29,1040.64" style="stroke:#181818;stroke-width:1.0;"/><text fill="#000000" font-family="Roboto" font-size="13" lengthAdjust="spacing" textLength="286.5142" x="1282" y="983.0605">Share {ROUTE_A_OFFER} and {ROUTE_B_OFFER...</text></g><!--link n_arrange to n_game--><g id="link_n_arrange_n_game"><path d="M1568.98,916.05 C1577.17,949.01 1590.3531,1002.0471 1598.5531,1035.0471 " fill="none" id="n_arrange-to-n_game" style="stroke:#181818;stroke-width:1.0;"/><polygon fill="#181818" points="1600,1040.87,1601.7116,1031.171,1598.7942,1036.0176,1593.9477,1033.1002,1600,1040.87" style="stroke:#181818;stroke-width:1.0;"/><text fill="#000000" font-family="Roboto" font-size="13" lengthAdjust="spacing" textLength="122.6177" x="1594" y="983.0605">Start a {GOAL} game.</text></g><!--link n_share to e_song--><g id="link_n_share_e_song"><path d="M1112.39,1067.57 C1072.74,1070.7 1016.24,1082.26 988,1121 C967.38,1149.29 982.0326,1183.5739 1000.0426,1210.8339 " fill="none" id="n_share-to-e_song" style="stroke:#181818;stroke-width:1.0;"/><polygon fill="#181818" points="1003.35,1215.84,1001.7263,1206.1259,1000.5938,1211.6682,995.0515,1210.5358,1003.35,1215.84" style="stroke:#181818;stroke-width:1.0;"/><text fill="#000000" font-family="Roboto" font-size="13" lengthAdjust="spacing" textLength="116.3906" x="989" y="1158.0605">Sing {SONG_PRIZE}.</text></g><!--link n_share to e_music_finale--><g id="link_n_share_e_music_finale"><path d="M1136.19,1091.05 C1130.08,1099.92 1124.14,1110.39 1121,1121 C1112.81,1148.7 1109.09,1159.68 1121,1186 C1126.14,1197.35 1130.1151,1203.3453 1139.3251,1211.9053 " fill="none" id="n_share-to-e_music_finale" style="stroke:#181818;stroke-width:1.0;"/><polygon fill="#181818" points="1143.72,1215.99,1139.8508,1206.933,1140.0576,1212.5861,1134.4045,1212.7928,1143.72,1215.99" style="stroke:#181818;stroke-width:1.0;"/><text fill="#000000" font-family="Roboto" font-size="13" lengthAdjust="spacing" textLength="210.355" x="1122" y="1158.0605">Wind up {ROUTE_F_LURE} and sway.</text></g><!--link n_share to e_nap--><g id="link_n_share_e_nap"><path d="M1199.75,1068 C1241.03,1071.39 1301.71,1083.07 1337,1121 C1360.75,1146.53 1365.9048,1181.5208 1366.3548,1209.8908 " fill="none" id="n_share-to-e_nap" style="stroke:#181818;stroke-width:1.0;"/><polygon fill="#181818" points="1366.45,1215.89,1370.3068,1206.8277,1366.3707,1210.8906,1362.3078,1206.9546,1366.45,1215.89" style="stroke:#181818;stroke-width:1.0;"/><text fill="#000000" font-family="Roboto" font-size="13" lengthAdjust="spacing" textLength="188.3667" x="1365" y="1158.0605">Curl up for a cozy nap in the sun.</text></g><!--link n_game to e_ball_game--><g id="link_n_game_e_ball_game"><path d="M1600.88,1091.34 C1594.09,1123.58 1583.3458,1174.6086 1575.8758,1210.0986 " fill="none" id="n_game-to-e_ball_game" style="stroke:#181818;stroke-width:1.0;"/><polygon fill="#181818" points="1574.64,1215.97,1580.408,1207.9868,1575.6698,1211.0772,1572.5795,1206.3391,1574.64,1215.97" style="stroke:#181818;stroke-width:1.0;"/><text fill="#000000" font-family="Roboto" font-size="13" lengthAdjust="spacing" textLength="219.3433" x="1595" y="1158.0605">Roll {ROUTE_C_LURE} around the ring.</text></g><!--link n_game to e_kite_game--><g id="link_n_game_e_kite_game"><path d="M1649.68,1071.58 C1706.75,1078.57 1801.9,1094.01 1823,1121 C1844.19,1148.12 1833.3623,1182.8534 1819.1023,1210.6034 " fill="none" id="n_game-to-e_kite_game" style="stroke:#181818;stroke-width:1.0;"/><polygon fill="#181818" points="1816.36,1215.94,1824.0313,1209.7633,1818.6453,1211.4928,1816.9158,1206.1068,1816.36,1215.94" style="stroke:#181818;stroke-width:1.0;"/><text fill="#000000" font-family="Roboto" font-size="13" lengthAdjust="spacing" textLength="200.7256" x="1835" y="1158.0605">Fly {ROUTE_D_LURE} in the breeze.</text></g><!--link e_honey_oops to *end*--><g id="link_e_honey_oops_*end*"><path d="M680.69,486.1 C731.89,514.91 793,562.84 793,627.5 C793,627.5 793,627.5 793,1249.5 C793,1331.73 1109.665,1348.7356 1173.945,1351.3556 " fill="none" id="e_honey_oops-to-*end*" style="stroke:#181818;stroke-width:1.0;"/><polygon fill="#181818" points="1179.94,1351.6,1171.1104,1347.2368,1174.9441,1351.3964,1170.7846,1355.2302,1179.94,1351.6" style="stroke:#181818;stroke-width:1.0;"/></g><!--link e_berry_oops to *end*--><g id="link_e_berry_oops_*end*"><path d="M938.92,661.09 C925.95,695.32 908,751.83 908,802.5 C908,802.5 908,802.5 908,1249.5 C908,1308.55 1122.6193,1342.3787 1174.3093,1349.6987 " fill="none" id="e_berry_oops-to-*end*" style="stroke:#181818;stroke-width:1.0;"/><polygon fill="#181818" points="1180.25,1350.54,1171.8998,1345.3176,1175.2994,1349.8389,1170.7781,1353.2386,1180.25,1350.54" style="stroke:#181818;stroke-width:1.0;"/></g><!--link e_ball_oops to *end*--><g id="link_e_ball_oops_*end*"><path d="M449.3,836.2 C464.32,870.28 485,926.46 485,977.5 C485,977.5 485,977.5 485,1249.5 C485,1322.88 1084.0942,1348.0157 1173.9142,1351.3757 " fill="none" id="e_ball_oops-to-*end*" style="stroke:#181818;stroke-width:1.0;"/><polygon fill="#181818" points="1179.91,1351.6,1171.0658,1347.2664,1174.9135,1351.4131,1170.7668,1355.2608,1179.91,1351.6" style="stroke:#181818;stroke-width:1.0;"/></g><!--link e_kite_oops to *end*--><g id="link_e_kite_oops_*end*"><path d="M175.02,1011.17 C214.31,1080.57 318.78,1245.15 459,1312 C526.86,1344.35 1086.8803,1351.002 1173.8103,1351.842 " fill="none" id="e_kite_oops-to-*end*" style="stroke:#181818;stroke-width:1.0;"/><polygon fill="#181818" points="1179.81,1351.9,1170.8491,1347.8132,1174.8102,1351.8517,1170.7718,1355.8129,1179.81,1351.9" style="stroke:#181818;stroke-width:1.0;"/></g><!--link e_owl_oops to *end*--><g id="link_e_owl_oops_*end*"><path d="M2772.21,1183.89 C2659.71,1221.36 2454.18,1284.58 2273,1312 C2051.13,1345.58 1307.9999,1351.2828 1208.0499,1351.9028 " fill="none" id="e_owl_oops-to-*end*" style="stroke:#181818;stroke-width:1.0;"/><polygon fill="#181818" points="1202.05,1351.94,1211.0746,1355.8841,1207.0499,1351.909,1211.025,1347.8843,1202.05,1351.94" style="stroke:#181818;stroke-width:1.0;"/></g><!--link e_music_oops to *end*--><g id="link_e_music_oops_*end*"><path d="M2332.69,486.02 C2295.21,517.27 2247,568.87 2247,627.5 C2247,627.5 2247,627.5 2247,1249.5 C2247,1360.25 1320.9996,1353.4354 1208.1396,1352.2054 " fill="none" id="e_music_oops-to-*end*" style="stroke:#181818;stroke-width:1.0;"/><polygon fill="#181818" points="1202.14,1352.14,1211.0959,1356.2378,1207.1397,1352.1945,1211.1831,1348.2383,1202.14,1352.14" style="stroke:#181818;stroke-width:1.0;"/></g><!--link e_song to *end*--><g id="link_e_song_*end*"><path d="M1078.24,1281.09 C1115.28,1304.38 1157.402,1330.8641 1176.882,1343.1241 " fill="none" id="e_song-to-*end*" style="stroke:#181818;stroke-width:1.0;"/><polygon fill="#181818" points="1181.96,1346.32,1176.4736,1338.1408,1177.7283,1343.6567,1172.2124,1344.9115,1181.96,1346.32" style="stroke:#181818;stroke-width:1.0;"/></g><!--link e_music_finale to *end*--><g id="link_e_music_finale_*end*"><path d="M1191,1281.09 C1191,1301.8 1191,1321.55 1191,1335.62 " fill="none" id="e_music_finale-to-*end*" style="stroke:#181818;stroke-width:1.0;"/><polygon fill="#181818" points="1191,1341.62,1195,1332.62,1191,1336.62,1187,1332.62,1191,1341.62" style="stroke:#181818;stroke-width:1.0;"/></g><!--link e_nap to *end*--><g id="link_e_nap_*end*"><path d="M1311.37,1281.09 C1271.43,1304.62 1225.5994,1331.6141 1205.1994,1343.6341 " fill="none" id="e_nap-to-*end*" style="stroke:#181818;stroke-width:1.0;"/><polygon fill="#181818" points="1200.03,1346.68,1209.8147,1345.5574,1204.3378,1344.1418,1205.7535,1338.6649,1200.03,1346.68" style="stroke:#181818;stroke-width:1.0;"/></g><!--link e_ball_game to *end*--><g id="link_e_ball_game_*end*"><path d="M1505.75,1266.43 C1413.1,1291.62 1250.9399,1335.706 1207.3499,1347.556 " fill="none" id="e_ball_game-to-*end*" style="stroke:#181818;stroke-width:1.0;"/><polygon fill="#181818" points="1201.56,1349.13,1211.2941,1350.6289,1206.3849,1347.8183,1209.1955,1342.9091,1201.56,1349.13" style="stroke:#181818;stroke-width:1.0;"/></g><!--link e_kite_game to *end*--><g id="link_e_kite_game_*end*"><path d="M1734.75,1263.34 C1707.83,1269.12 1675.92,1275.71 1647,1281 C1470.06,1313.33 1258.7146,1342.7466 1207.9246,1349.6966 " fill="none" id="e_kite_game-to-*end*" style="stroke:#181818;stroke-width:1.0;"/><polygon fill="#181818" points="1201.98,1350.51,1211.4392,1353.2529,1206.9338,1349.8321,1210.3546,1345.3268,1201.98,1350.51" style="stroke:#181818;stroke-width:1.0;"/></g><rect fill="none" height="108.4375" id="_legend" rx="4" ry="4" style="stroke:#000000;stroke-width:1.0;" width="228.2852" x="2937.874" y="1381"/><text fill="#000000" font-family="Roboto" font-size="14" lengthAdjust="spacing" textLength="148.3057" x="2942.874" y="1398.9883">The Teddy Bears' Picnic</text><text fill="#000000" font-family="Roboto" font-size="14" lengthAdjust="spacing" textLength="155.791" x="2942.874" y="1415.3945">Band 3-5 &#183; Tier 1 &#183; ~5 min</text><text fill="#000000" font-family="Roboto" font-size="14" lengthAdjust="spacing" textLength="159.1406" x="2942.874" y="1431.8008">Topology: loop_and_grow</text><text fill="#000000" font-family="Roboto" font-size="14" lengthAdjust="spacing" textLength="218.2852" x="2942.874" y="1448.207">29 nodes &#183; 11 endings (5+ / 0n / 6-)</text><text fill="#000000" font-family="Roboto" font-size="14" lengthAdjust="spacing" textLength="116.2588" x="2942.874" y="1464.6133">Production-eligible</text><text fill="#000000" font-family="Roboto" font-size="14" lengthAdjust="spacing" textLength="137.7852" x="2942.874" y="1481.0195">Scale: medium &#183; prose</text><!--SRC=[bLZRRjiu47tNLmoSXrvsepPf6YHPO07VsqKs2Um41ROe35gYBS6oA51K3TN8_jQ-xvVjaBhmOgkBe40I3iyCpncImr5VmPIcb1D1GrXnjeLyGnCgM0f_pE_lO5b27l0u4_axJjEGyaKplmXZikPac_jPwNklOCGWPG9e60lf5P4q_0quFUL52YAYiAwMOTptyasSPWHz8QGhKYHYmb9nHxOKUZEsP8Br3CYI19irPqKQ3bd2E9nC-lAVWQWdESQ7Ao-AGmfqcuaIerVSOvPwtjUtt-3qz7T85xaWN7ZuKz1c12U3mMWy6NZD-0PoAeeC_lq7BYvtBJXYAItFaCDaSZsyy5h33GGHYmEgyESE_XnEHcV3Y_6rrnfkWCTvdAuL_ds3fzNqWh4ibsiCHwDppp8gMZ8Zy3gbQoBYx_IDY-ZTu-zVOJ-xVteSB_gBFp_FF_KVddijgINbt19H6xf4g6bJH6te4g6cNH66iKE4XR1538w884bYQL1ZIyBxdOMs5AYnAU33bI40Pm_ujxOk-WR0PZyyPB-91JNPL-Ek3P2p9ljgtCLUphhijQs3lGcmsOyEsRETbNerjBXVx4oiILqDkmuEJhh4MrC7RsFUfZq-fBqjyZWmYTU6hhIhQPDyRUXAl9fs1HZ63WaMmXOnEHI1VX7MEKsgDXpFQRhOqIHWM5crGsFfyY2SatHDZJmrbgxRbKU4c_Xgt8LUoqAlmMfeOZzSwfJc3FcT3A_6byDhhnuYbcqpV8EmhCFhZELnaybwkhV7bskwU9Xz_clSPgx9yofEIKADc9OPjwW80fhdTc07qsktnrqZ9PaHMewwsLQplVrT_-4WZYecLQBQQDhMmT84zDhQuuPMDzq9hMqTeKr0hoqCJUZcqQoUr_P9d38W-KO_HBTFi_4phF0DRqttaybuvlk-4w9za3145WSR_GvKCOZGbk6d_kpvI8ZwFS08k6-XhiKgWejkwgz4Kn54klWTXTSL3z4xig6wv5JiubHREjYrbSUXDz7hrMaqSYehJ_ymeIdUcwG4xBUGJImSNwSvU62QRxzY1u91L632VTsV68qIEWsn09JEfZshnapwxiTtZxF-tN1SwxH2jDLf9YlDVlvvUjU_VLPag-YoDTnFxz7ewqx4E0LIz8Cy0X98ILv2mdREUN0ydLPYBhZQKddmP90TMounNr6yZW2fvhxkQ7uYU_1_igqGBvMj3gi-k5BqX2LIgGGciH1OU9ROvsA9t1A-oMqlk_iOuQN5GoWvDeU-EePjusFhdE5AplqufjBnVg74weRfstRk9hY-Ql8xGU3s5F9Z0-GAX5S9rX7iTkMM2ZV6Ai7QoZAQohkezXplc8xY9c30bGGxnl4CcEulp80g6ctzaFe_CVnWojbAwXN7QudAHiMyzRUwddaalPJ6YCb3Wazr4FbDgsKB_KAIZRl2SPs6ymjbrgNDg7DIwcsy4lLP3Y70zc1L94dfu9rUQ2hFiVIHtv8eZS0oNiEAvABQJzsH_UJUJdugq_9_eT0QNldgfkfB_TT- -ZIUFyxbS-0RNLS5rntLBIc15GBmPXdn0MiM4UgMDz1QOzrQpTLljoGJ_P8CpBVLZb6_utEbYJGhIglVDc_LTjGDrRpAXswgN9pJ7tsHBnf-F3jRe1Av8wNhNJL2mu8dqacMQO9DquyIv4HzWVCYzPjcqQXujPHZ5Ooe_nPGpl9wEzvcGpD93efGlUgIK_e3is8zeZB0rxVVx2zMmzXMOctJvKhRsZkiJSRfrqQr1owcJhKsorGv75gr1WVBvYKKoqk8wLb7mWDuHCMFD0nB6532yrVotSNc0cS6Ski-d7wKxVbZZ8V-JFxrzqVOngbqP1bBsBgymRUPPGi4BzQSxN3c_1fI5j9Smi_E05V3hS3UykCly0xUf_ZZylGDuXuu2uj0ziYdD8dNyJAXQ9q7AF86jZICYwqCaN6MKu_AQY2P_mS0]--></g></svg>