<svg xmlns="http://www.w3.org/2000/svg" xmlns:xlink="http://www.w3.org/1999/xlink" contentStyleType="text/css" height="1159px" preserveAspectRatio="none" style="width:1216px;height:1159px;background:#FAFAFA;" version="1.1" viewBox="0 0 1216 1159" width="1216px" zoomAndPan="magnify"><defs><style type="text/css">@import url('https://fonts.googleapis.com/css?family=Roboto:400,100,100italic,300,300italic,400italic,500,500italic,700,700italic,900,900italic');</style></defs><g><rect fill="#FAFAFA" height="1159" style="stroke:none;stroke-width:1.0;" width="1216" x="0" y="0"/><ellipse cx="541.5" cy="16" fill="#222222" rx="10" ry="10" style="stroke:#222222;stroke-width:1.0;"/><g id="n_start"><rect fill="#BBDEFB" height="50.4688" rx="4" ry="4" style="stroke:#181818;stroke-width:0.5;" width="81.4297" x="501" y="87"/><line style="stroke:#181818;stroke-width:0.5;" x1="501" x2="582.4297" y1="113.4063" y2="113.4063"/><text fill="#000000" font-family="Roboto" font-size="14" lengthAdjust="spacing" textLength="42.793" x="520.3184" y="104.9883">n_start</text><text fill="#000000" font-family="Roboto" font-size="12" lengthAdjust="spacing" textLength="61.4297" x="506" y="129.5391">setup &#183; 45w</text></g><g id="n_daisies"><rect fill="#FFF9C4" height="50.4688" rx="4" ry="4" style="stroke:#181818;stroke-width:0.5;" width="86.8906" x="244" y="214"/><line style="stroke:#181818;stroke-width:0.5;" x1="244" x2="330.8906" y1="240.4063" y2="240.4063"/><text fill="#000000" font-family="Roboto" font-size="14" lengthAdjust="spacing" textLength="58.2422" x="258.3242" y="231.9883">n_daisies</text><text fill="#000000" font-family="Roboto" font-size="12" lengthAdjust="spacing" textLength="66.8906" x="249" y="256.5391">choice &#183; 40w</text></g><g id="n_bee_end"><rect fill="#FFCDD2" height="64.5313" rx="4" ry="4" style="stroke:#181818;stroke-width:0.5;" width="118.6484" x="7" y="421"/><line style="stroke:#181818;stroke-width:0.5;" x1="7" x2="125.6484" y1="447.4063" y2="447.4063"/><text fill="#000000" font-family="Roboto" font-size="14" lengthAdjust="spacing" textLength="66.124" x="33.2622" y="438.9883">n_bee_end</text><text fill="#000000" font-family="Roboto" font-size="12" lengthAdjust="spacing" textLength="98.6484" x="12" y="463.5391">setback (negative)</text><text fill="#000000" font-family="Roboto" font-size="12" lengthAdjust="spacing" textLength="87.5449" x="12" y="477.6016">"{A1_SETBACK}"</text></g><g id="n_birdbath"><rect fill="#D1C4E9" height="50.4688" rx="4" ry="4" style="stroke:#181818;stroke-width:0.5;" width="85.7207" x="221.5" y="341"/><line style="stroke:#181818;stroke-width:0.5;" x1="221.5" x2="307.2207" y1="367.4063" y2="367.4063"/><text fill="#000000" font-family="Roboto" font-size="14" lengthAdjust="spacing" textLength="65.7207" x="231.5" y="358.9883">n_birdbath</text><text fill="#000000" font-family="Roboto" font-size="12" lengthAdjust="spacing" textLength="61.0547" x="226.5" y="383.5391">rising &#183; 38w</text></g><g id="n_strawberries"><rect fill="#D1C4E9" height="50.4688" rx="4" ry="4" style="stroke:#181818;stroke-width:0.5;" width="111.5605" x="188.5" y="516"/><line style="stroke:#181818;stroke-width:0.5;" x1="188.5" x2="300.0605" y1="542.4063" y2="542.4063"/><text fill="#000000" font-family="Roboto" font-size="14" lengthAdjust="spacing" textLength="91.5605" x="198.5" y="533.9883">n_strawberries</text><text fill="#000000" font-family="Roboto" font-size="12" lengthAdjust="spacing" textLength="61.0547" x="193.5" y="558.5391">rising &#183; 38w</text></g><g id="n_meadow"><rect fill="#FFF9C4" height="50.4688" rx="4" ry="4" style="stroke:#181818;stroke-width:0.5;" width="87.7646" x="200.5" y="691"/><line style="stroke:#181818;stroke-width:0.5;" x1="200.5" x2="288.2646" y1="717.4063" y2="717.4063"/><text fill="#000000" font-family="Roboto" font-size="14" lengthAdjust="spacing" textLength="67.7646" x="210.5" y="708.9883">n_meadow</text><text fill="#000000" font-family="Roboto" font-size="12" lengthAdjust="spacing" textLength="66.8906" x="205.5" y="733.5391">choice &#183; 40w</text></g><g id="n_nose_end"><rect fill="#C8E6C9" height="64.5313" rx="4" ry="4" style="stroke:#181818;stroke-width:0.5;" width="163.0566" x="120" y="866"/><line style="stroke:#181818;stroke-width:0.5;" x1="120" x2="283.0566" y1="892.4063" y2="892.4063"/><text fill="#000000" font-family="Roboto" font-size="14" lengthAdjust="spacing" textLength="73.7803" x="164.6382" y="883.9883">n_nose_end</text><text fill="#000000" font-family="Roboto" font-size="12" lengthAdjust="spacing" textLength="112.957" x="125" y="908.5391">completion (positive)</text><text fill="#000000" font-family="Roboto" font-size="12" lengthAdjust="spacing" textLength="143.0566" x="125" y="922.6016">"On {HERO}'s {A2_PRIZE1}"</text></g><g id="n_crown_end"><rect fill="#C8E6C9" height="64.5313" rx="4" ry="4" style="stroke:#181818;stroke-width:0.5;" width="117.0957" x="318" y="866"/><line style="stroke:#181818;stroke-width:0.5;" x1="318" x2="435.0957" y1="892.4063" y2="892.4063"/><text fill="#000000" font-family="Roboto" font-size="14" lengthAdjust="spacing" textLength="81.7236" x="335.686" y="883.9883">n_crown_end</text><text fill="#000000" font-family="Roboto" font-size="12" lengthAdjust="spacing" textLength="97.0957" x="323" y="908.5391">success (positive)</text><text fill="#000000" font-family="Roboto" font-size="12" lengthAdjust="spacing" textLength="74.7773" x="323" y="922.6016">"{A2_PRIZE2}"</text></g><g id="n_pond"><rect fill="#FFF9C4" height="50.4688" rx="4" ry="4" style="stroke:#181818;stroke-width:0.5;" width="86.8906" x="498" y="214"/><line style="stroke:#181818;stroke-width:0.5;" x1="498" x2="584.8906" y1="240.4063" y2="240.4063"/><text fill="#000000" font-family="Roboto" font-size="14" lengthAdjust="spacing" textLength="45.5205" x="518.6851" y="231.9883">n_pond</text><text fill="#000000" font-family="Roboto" font-size="12" lengthAdjust="spacing" textLength="66.8906" x="503" y="256.5391">choice &#183; 40w</text></g><g id="n_frog_end"><rect fill="#FFCDD2" height="64.5313" rx="4" ry="4" style="stroke:#181818;stroke-width:0.5;" width="118.6484" x="423" y="596"/><line style="stroke:#181818;stroke-width:0.5;" x1="423" x2="541.6484" y1="622.4063" y2="622.4063"/><text fill="#000000" font-family="Roboto" font-size="14" lengthAdjust="spacing" textLength="68.8721" x="447.8882" y="613.9883">n_frog_end</text><text fill="#000000" font-family="Roboto" font-size="12" lengthAdjust="spacing" textLength="98.6484" x="428" y="638.5391">setback (negative)</text><text fill="#000000" font-family="Roboto" font-size="12" lengthAdjust="spacing" textLength="87.1934" x="428" y="652.6016">"{B1_SETBACK}"</text></g><g id="n_reeds"><rect fill="#D1C4E9" height="50.4688" rx="4" ry="4" style="stroke:#181818;stroke-width:0.5;" width="81.0547" x="719" y="341"/><line style="stroke:#181818;stroke-width:0.5;" x1="719" x2="800.0547" y1="367.4063" y2="367.4063"/><text fill="#000000" font-family="Roboto" font-size="14" lengthAdjust="spacing" textLength="48.7607" x="735.147" y="358.9883">n_reeds</text><text fill="#000000" font-family="Roboto" font-size="12" lengthAdjust="spacing" textLength="61.0547" x="724" y="383.5391">rising &#183; 38w</text></g><g id="n_hedgehog"><rect fill="#D1C4E9" height="50.4688" rx="4" ry="4" style="stroke:#181818;stroke-width:0.5;" width="95.9199" x="547.5" y="516"/><line style="stroke:#181818;stroke-width:0.5;" x1="547.5" x2="643.4199" y1="542.4063" y2="542.4063"/><text fill="#000000" font-family="Roboto" font-size="14" lengthAdjust="spacing" textLength="75.9199" x="557.5" y="533.9883">n_hedgehog</text><text fill="#000000" font-family="Roboto" font-size="12" lengthAdjust="spacing" textLength="61.0547" x="552.5" y="558.5391">rising &#183; 38w</text></g><g id="n_friend"><rect fill="#D1C4E9" height="50.4688" rx="4" ry="4" style="stroke:#181818;stroke-width:0.5;" width="81.0547" x="546" y="691"/><line style="stroke:#181818;stroke-width:0.5;" x1="546" x2="627.0547" y1="717.4063" y2="717.4063"/><text fill="#000000" font-family="Roboto" font-size="14" lengthAdjust="spacing" textLength="50.1143" x="561.4702" y="708.9883">n_friend</text><text fill="#000000" font-family="Roboto" font-size="12" lengthAdjust="spacing" textLength="61.0547" x="551" y="733.5391">rising &#183; 38w</text></g><g id="n_share_end"><rect fill="#C8E6C9" height="64.5313" rx="4" ry="4" style="stroke:#181818;stroke-width:0.5;" width="132.957" x="542" y="866"/><line style="stroke:#181818;stroke-width:0.5;" x1="542" x2="674.957" y1="892.4063" y2="892.4063"/><text fill="#000000" font-family="Roboto" font-size="14" lengthAdjust="spacing" textLength="78.1348" x="569.4111" y="883.9883">n_share_end</text><text fill="#000000" font-family="Roboto" font-size="12" lengthAdjust="spacing" textLength="112.957" x="547" y="908.5391">completion (positive)</text><text fill="#000000" font-family="Roboto" font-size="12" lengthAdjust="spacing" textLength="67.6816" x="547" y="922.6016">"{B2_PRIZE}"</text></g><g id="n_grass"><rect fill="#FFF9C4" height="50.4688" rx="4" ry="4" style="stroke:#181818;stroke-width:0.5;" width="86.8906" x="810" y="214"/><line style="stroke:#181818;stroke-width:0.5;" x1="810" x2="896.8906" y1="240.4063" y2="240.4063"/><text fill="#000000" font-family="Roboto" font-size="14" lengthAdjust="spacing" textLength="48.7197" x="829.0854" y="231.9883">n_grass</text><text fill="#000000" font-family="Roboto" font-size="12" lengthAdjust="spacing" textLength="66.8906" x="815" y="256.5391">choice &#183; 40w</text></g><g id="n_lost_end"><rect fill="#FFCDD2" height="64.5313" rx="4" ry="4" style="stroke:#181818;stroke-width:0.5;" width="118.6484" x="814" y="771"/><line style="stroke:#181818;stroke-width:0.5;" x1="814" x2="932.6484" y1="797.4063" y2="797.4063"/><text fill="#000000" font-family="Roboto" font-size="14" lengthAdjust="spacing" textLength="66.6094" x="840.0195" y="788.9883">n_lost_end</text><text fill="#000000" font-family="Roboto" font-size="12" lengthAdjust="spacing" textLength="98.6484" x="819" y="813.5391">setback (negative)</text><text fill="#000000" font-family="Roboto" font-size="12" lengthAdjust="spacing" textLength="57.8848" x="819" y="827.6016">"Too Fast!"</text></g><g id="n_sunflower"><rect fill="#D1C4E9" height="50.4688" rx="4" ry="4" style="stroke:#181818;stroke-width:0.5;" width="95.667" x="926.5" y="341"/><line style="stroke:#181818;stroke-width:0.5;" x1="926.5" x2="1022.167" y1="367.4063" y2="367.4063"/><text fill="#000000" font-family="Roboto" font-size="14" lengthAdjust="spacing" textLength="75.667" x="936.5" y="358.9883">n_sunflower</text><text fill="#000000" font-family="Roboto" font-size="12" lengthAdjust="spacing" textLength="61.0547" x="931.5" y="383.5391">rising &#183; 38w</text></g><g id="n_gate"><rect fill="#D1C4E9" height="50.4688" rx="4" ry="4" style="stroke:#181818;stroke-width:0.5;" width="81.0547" x="953" y="516"/><line style="stroke:#181818;stroke-width:0.5;" x1="953" x2="1034.0547" y1="542.4063" y2="542.4063"/><text fill="#000000" font-family="Roboto" font-size="14" lengthAdjust="spacing" textLength="41.5283" x="972.7632" y="533.9883">n_gate</text><text fill="#000000" font-family="Roboto" font-size="12" lengthAdjust="spacing" textLength="61.0547" x="958" y="558.5391">rising &#183; 38w</text></g><g id="n_arch"><rect fill="#D1C4E9" height="50.4688" rx="4" ry="4" style="stroke:#181818;stroke-width:0.5;" width="81.0547" x="937" y="691"/><line style="stroke:#181818;stroke-width:0.5;" x1="937" x2="1018.0547" y1="717.4063" y2="717.4063"/><text fill="#000000" font-family="Roboto" font-size="14" lengthAdjust="spacing" textLength="41.4463" x="956.8042" y="708.9883">n_arch</text><text fill="#000000" font-family="Roboto" font-size="12" lengthAdjust="spacing" textLength="61.0547" x="942" y="733.5391">rising &#183; 38w</text></g><g id="n_perch_end"><rect fill="#C8E6C9" height="64.5313" rx="4" ry="4" style="stroke:#181818;stroke-width:0.5;" width="117.0957" x="884" y="866"/><line style="stroke:#181818;stroke-width:0.5;" x1="884" x2="1001.0957" y1="892.4063" y2="892.4063"/><text fill="#000000" font-family="Roboto" font-size="14" lengthAdjust="spacing" textLength="78.4834" x="903.3062" y="883.9883">n_perch_end</text><text fill="#000000" font-family="Roboto" font-size="12" lengthAdjust="spacing" textLength="97.0957" x="889" y="908.5391">success (positive)</text><text fill="#000000" font-family="Roboto" font-size="12" lengthAdjust="spacing" textLength="68.0156" x="889" y="922.6016">"{C2_PRIZE}"</text></g><ellipse cx="488.5" cy="1003" fill="none" rx="11" ry="11" style="stroke:#222222;stroke-width:1.0;"/><ellipse cx="488.5" cy="1003" fill="#222222" rx="6" ry="6" style="stroke:#222222;stroke-width:1.0;"/><!--link *start* to n_start--><g id="link_*start*_n_start"><path d="M541.5,26.01 C541.5,39.89 541.5,60.97 541.5,80.84 " fill="none" id="*start*-to-n_start" style="stroke:#181818;stroke-width:1.0;"/><polygon fill="#181818" points="541.5,86.84,545.5,77.84,541.5,81.84,537.5,77.84,541.5,86.84" style="stroke:#181818;stroke-width:1.0;"/></g><!--link n_start to n_daisies--><g id="link_n_start_n_daisies"><path d="M500.99,118.99 C462.28,126.05 403.35,140.35 358.5,167 C338.12,179.11 323.2364,193.8188 310.1264,209.2388 " fill="none" id="n_start-to-n_daisies" style="stroke:#181818;stroke-width:1.0;"/><polygon fill="#181818" points="306.24,213.81,315.1171,209.5441,309.4787,210.0007,309.0221,204.3623,306.24,213.81" style="stroke:#181818;stroke-width:1.0;"/><text fill="#000000" font-family="Roboto" font-size="13" lengthAdjust="spacing" textLength="173.2212" x="359.5" y="180.0605">Follow it to {ROUTE_A_ZONE}.</text></g><!--link n_start to n_pond--><g id="link_n_start_n_pond"><path d="M541.5,137.1 C541.5,159.24 541.5,185.86 541.5,207.97 " fill="none" id="n_start-to-n_pond" style="stroke:#181818;stroke-width:1.0;"/><polygon fill="#181818" points="541.5,213.97,545.5,204.97,541.5,208.97,537.5,204.97,541.5,213.97" style="stroke:#181818;stroke-width:1.0;"/><text fill="#000000" font-family="Roboto" font-size="13" lengthAdjust="spacing" textLength="172.8403" x="542.5" y="180.0605">Follow it to {ROUTE_B_ZONE}.</text></g><!--link n_start to n_grass--><g id="link_n_start_n_grass"><path d="M582.11,122.42 C619.56,131.72 676.33,147.38 723.5,167 C755.2,180.18 784.0224,195.881 809.2924,210.791 " fill="none" id="n_start-to-n_grass" style="stroke:#181818;stroke-width:1.0;"/><polygon fill="#181818" points="814.46,213.84,808.7413,205.8215,810.1537,211.2992,804.676,212.7115,814.46,213.84" style="stroke:#181818;stroke-width:1.0;"/><text fill="#000000" font-family="Roboto" font-size="13" lengthAdjust="spacing" textLength="173.2021" x="757.5" y="180.0605">Follow it to {ROUTE_C_ZONE}.</text></g><!--link n_daisies to n_bee_end--><g id="link_n_daisies_n_bee_end"><path d="M243.83,245.99 C191.12,254.16 106.98,270.51 86.5,294 C56.16,328.81 56.1144,379.4316 60.2944,414.7316 " fill="none" id="n_daisies-to-n_bee_end" style="stroke:#181818;stroke-width:1.0;"/><polygon fill="#181818" points="61,420.69,63.9139,411.2821,60.412,415.7247,55.9694,412.2228,61,420.69" style="stroke:#181818;stroke-width:1.0;"/><text fill="#000000" font-family="Roboto" font-size="13" lengthAdjust="spacing" textLength="179.2388" x="87.5" y="307.0605">Stop and watch the {A1_LURE}.</text></g><!--link n_daisies to n_birdbath--><g id="link_n_daisies_n_birdbath"><path d="M283.07,264.1 C278.99,286.24 274.0762,312.9591 270.0062,335.0691 " fill="none" id="n_daisies-to-n_birdbath" style="stroke:#181818;stroke-width:1.0;"/><polygon fill="#181818" points="268.92,340.97,274.4832,332.8429,269.8252,336.0526,266.6154,331.3946,268.92,340.97" style="stroke:#181818;stroke-width:1.0;"/><text fill="#000000" font-family="Roboto" font-size="13" lengthAdjust="spacing" textLength="134.2783" x="278.5" y="307.0605">Keep following {GOAL}.</text></g><!--link n_birdbath to n_strawberries--><g id="link_n_birdbath_n_strawberries"><path d="M251.8,391.06 C247.65,400.17 243.58,410.82 241.5,421 C234.93,453.2 236.9388,485.346 239.9588,509.606 " fill="none" id="n_birdbath-to-n_strawberries" style="stroke:#181818;stroke-width:1.0;"/><polygon fill="#181818" points="240.7,515.56,243.5576,506.1348,240.0823,510.5983,235.6189,507.1231,240.7,515.56" style="stroke:#181818;stroke-width:1.0;"/><text fill="#000000" font-family="Roboto" font-size="13" lengthAdjust="spacing" textLength="211.9927" x="242.5" y="458.0605">Follow {GOAL} to {A2_LANDMARK2}.</text></g><!--link n_strawberries to n_meadow--><g id="link_n_strawberries_n_meadow"><path d="M244.5,566.05 C244.5,599.01 244.5,651.87 244.5,684.87 " fill="none" id="n_strawberries-to-n_meadow" style="stroke:#181818;stroke-width:1.0;"/><polygon fill="#181818" points="244.5,690.87,248.5,681.87,244.5,685.87,240.5,681.87,244.5,690.87" style="stroke:#181818;stroke-width:1.0;"/><text fill="#000000" font-family="Roboto" font-size="13" lengthAdjust="spacing" textLength="115.8765" x="245.5" y="633.0605">Tiptoe after {GOAL}.</text></g><!--link n_meadow to n_nose_end--><g id="link_n_meadow_n_nose_end"><path d="M209.5,741.07 C200.27,749.38 191.5,759.52 186.5,771 C173.3,801.32 178.826,833.6408 187.206,860.0608 " fill="none" id="n_meadow-to-n_nose_end" style="stroke:#181818;stroke-width:1.0;"/><polygon fill="#181818" points="189.02,865.78,190.1117,855.9918,187.5083,861.014,182.4861,858.4106,189.02,865.78" style="stroke:#181818;stroke-width:1.0;"/><text fill="#000000" font-family="Roboto" font-size="13" lengthAdjust="spacing" textLength="106.5645" x="187.5" y="808.0605">Hold still and wait.</text></g><!--link n_meadow to n_crown_end--><g id="link_n_meadow_n_crown_end"><path d="M271.61,741.19 C280.74,750.06 290.6,760.52 298.5,771 C318.37,797.38 317.17,807.89 334.5,836 C340.61,845.91 344.2148,851.503 350.7348,861.003 " fill="none" id="n_meadow-to-n_crown_end" style="stroke:#181818;stroke-width:1.0;"/><polygon fill="#181818" points="354.13,865.95,352.3352,856.2661,351.3007,861.8275,345.7392,860.793,354.13,865.95" style="stroke:#181818;stroke-width:1.0;"/><text fill="#000000" font-family="Roboto" font-size="13" lengthAdjust="spacing" textLength="126.2485" x="335.5" y="808.0605">Peek at {A2_OFFER1}.</text></g><!--link n_pond to n_frog_end--><g id="link_n_pond_n_frog_end"><path d="M528.42,264.09 C518.28,284.07 504.91,313.53 498.5,341 C477.4,431.48 478.3054,536.185 480.4854,589.625 " fill="none" id="n_pond-to-n_frog_end" style="stroke:#181818;stroke-width:1.0;"/><polygon fill="#181818" points="480.73,595.62,484.3598,586.4644,480.5262,590.6242,476.3665,586.7905,480.73,595.62" style="stroke:#181818;stroke-width:1.0;"/><text fill="#000000" font-family="Roboto" font-size="13" lengthAdjust="spacing" textLength="201.335" x="499.5" y="370.5605">Play peekaboo with the {B1_LURE}.</text></g><!--link n_pond to n_reeds--><g id="link_n_pond_n_reeds"><path d="M561.49,264.04 C575.13,279.19 594.33,298.24 614.5,311 C619.17,313.95 672.0695,333.3644 713.3195,348.3244 " fill="none" id="n_pond-to-n_reeds" style="stroke:#181818;stroke-width:1.0;"/><polygon fill="#181818" points="718.96,350.37,711.863,343.5412,714.2596,348.6653,709.1355,351.0619,718.96,350.37" style="stroke:#181818;stroke-width:1.0;"/><text fill="#000000" font-family="Roboto" font-size="13" lengthAdjust="spacing" textLength="211.6118" x="615.5" y="307.0605">Follow {GOAL} to {B2_LANDMARK1}.</text></g><!--link n_reeds to n_hedgehog--><g id="link_n_reeds_n_hedgehog"><path d="M718.85,381.37 C673.9,397.27 607.73,420.71 607.5,421 C586.36,447.96 586.7022,483.6519 590.1722,509.8519 " fill="none" id="n_reeds-to-n_hedgehog" style="stroke:#181818;stroke-width:1.0;"/><polygon fill="#181818" points="590.96,515.8,593.7437,506.3527,590.3035,510.8433,585.813,507.4031,590.96,515.8" style="stroke:#181818;stroke-width:1.0;"/><text fill="#000000" font-family="Roboto" font-size="13" lengthAdjust="spacing" textLength="201.5063" x="608.5" y="458.0605">Follow past the {B2_LANDMARK2}.</text></g><!--link n_hedgehog to n_friend--><g id="link_n_hedgehog_n_friend"><path d="M594.25,566.05 C592.53,599.01 589.7805,651.878 588.0705,684.878 " fill="none" id="n_hedgehog-to-n_friend" style="stroke:#181818;stroke-width:1.0;"/><polygon fill="#181818" points="587.76,690.87,592.2204,682.0891,588.0187,685.8767,584.2311,681.6751,587.76,690.87" style="stroke:#181818;stroke-width:1.0;"/><text fill="#000000" font-family="Roboto" font-size="13" lengthAdjust="spacing" textLength="132.1265" x="593.5" y="633.0605">Tiptoe into {B2_ZONE}.</text></g><!--link n_friend to n_share_end--><g id="link_n_friend_n_share_end"><path d="M560.98,741.1 C553.55,749.73 546.39,760.06 542.5,771 C532.82,798.22 530.98,809.51 542.5,836 C547.37,847.2 551.1066,853.0988 559.9266,861.7088 " fill="none" id="n_friend-to-n_share_end" style="stroke:#181818;stroke-width:1.0;"/><polygon fill="#181818" points="564.22,865.9,560.574,856.7509,560.6421,862.4073,554.9857,862.4755,564.22,865.9" style="stroke:#181818;stroke-width:1.0;"/><text fill="#000000" font-family="Roboto" font-size="13" lengthAdjust="spacing" textLength="252.6812" x="543.5" y="808.0605">Share the sweet berries with {B2_OFFER1}...</text></g><!--link n_grass to n_lost_end--><g id="link_n_grass_n_lost_end"><path d="M853.5,264.43 C853.5,289.63 853.5,330.06 853.5,365 C853.5,365 853.5,365 853.5,629.5 C853.5,679.09 860.7014,730.2254 866.6014,764.8254 " fill="none" id="n_grass-to-n_lost_end" style="stroke:#181818;stroke-width:1.0;"/><polygon fill="#181818" points="867.61,770.74,870.0402,761.1957,866.7695,765.8111,862.1541,762.5404,867.61,770.74" style="stroke:#181818;stroke-width:1.0;"/><text fill="#000000" font-family="Roboto" font-size="13" lengthAdjust="spacing" textLength="99.6074" x="854.5" y="458.0605">Dash after it fast!</text></g><!--link n_grass to n_sunflower--><g id="link_n_grass_n_sunflower"><path d="M876.83,264.1 C898.26,286.24 925.6671,314.5487 947.0671,336.6587 " fill="none" id="n_grass-to-n_sunflower" style="stroke:#181818;stroke-width:1.0;"/><polygon fill="#181818" points="951.24,340.97,947.8549,331.7212,947.7626,337.3773,942.1065,337.285,951.24,340.97" style="stroke:#181818;stroke-width:1.0;"/><text fill="#000000" font-family="Roboto" font-size="13" lengthAdjust="spacing" textLength="127.3784" x="921.5" y="307.0605">Tiptoe slow and quiet.</text></g><!--link n_sunflower to n_gate--><g id="link_n_sunflower_n_gate"><path d="M977.14,391.05 C980.76,424.01 986.5757,476.9058 990.1957,509.9058 " fill="none" id="n_sunflower-to-n_gate" style="stroke:#181818;stroke-width:1.0;"/><polygon fill="#181818" points="990.85,515.87,993.8448,506.4875,990.3048,510.8998,985.8925,507.3598,990.85,515.87" style="stroke:#181818;stroke-width:1.0;"/><text fill="#000000" font-family="Roboto" font-size="13" lengthAdjust="spacing" textLength="195.2476" x="987.5" y="458.0605">Follow toward {C2_LANDMARK2}.</text></g><!--link n_gate to n_arch--><g id="link_n_gate_n_arch"><path d="M991.28,566.05 C988.23,599.01 983.3322,651.8955 980.2822,684.8955 " fill="none" id="n_gate-to-n_arch" style="stroke:#181818;stroke-width:1.0;"/><polygon fill="#181818" points="979.73,690.87,984.5413,682.2763,980.1902,685.8912,976.5753,681.5401,979.73,690.87" style="stroke:#181818;stroke-width:1.0;"/><text fill="#000000" font-family="Roboto" font-size="13" lengthAdjust="spacing" textLength="133.8149" x="988.5" y="633.0605">Follow into {C2_ZONE}.</text></g><!--link n_arch to n_perch_end--><g id="link_n_arch_n_perch_end"><path d="M972.78,741.34 C966.53,773.58 956.6319,824.5897 949.7519,860.0797 " fill="none" id="n_arch-to-n_perch_end" style="stroke:#181818;stroke-width:1.0;"/><polygon fill="#181818" points="948.61,865.97,954.2497,857.8957,949.5616,861.0614,946.3959,856.3732,948.61,865.97" style="stroke:#181818;stroke-width:1.0;"/><text fill="#000000" font-family="Roboto" font-size="13" lengthAdjust="spacing" textLength="241.7124" x="966.5" y="808.0605">Sit quietly beneath the {C2_LANDMARK3}.</text></g><!--link n_bee_end to *end*--><g id="link_n_bee_end_*end*"><path d="M66.5,486.07 C66.5,520.75 66.5,578.09 66.5,627.5 C66.5,627.5 66.5,627.5 66.5,899.5 C66.5,986.58 404.1021,999.8109 471.2121,1001.5909 " fill="none" id="n_bee_end-to-*end*" style="stroke:#181818;stroke-width:1.0;"/><polygon fill="#181818" points="477.21,1001.75,468.3192,997.5128,472.2118,1001.6174,468.1071,1005.51,477.21,1001.75" style="stroke:#181818;stroke-width:1.0;"/></g><!--link n_nose_end to *end*--><g id="link_n_nose_end_*end*"><path d="M283.36,928.74 C353.28,953.71 441.6494,985.2723 472.5394,996.3023 " fill="none" id="n_nose_end-to-*end*" style="stroke:#181818;stroke-width:1.0;"/><polygon fill="#181818" points="478.19,998.32,471.0593,991.5264,473.4812,996.6386,468.369,999.0605,478.19,998.32" style="stroke:#181818;stroke-width:1.0;"/></g><!--link n_crown_end to *end*--><g id="link_n_crown_end_*end*"><path d="M411.02,931.09 C435.44,953.44 461.8626,977.6306 476.1526,990.7006 " fill="none" id="n_crown_end-to-*end*" style="stroke:#181818;stroke-width:1.0;"/><polygon fill="#181818" points="480.58,994.75,476.6385,985.7242,476.8905,991.3755,471.2392,991.6275,480.58,994.75" style="stroke:#181818;stroke-width:1.0;"/></g><!--link n_frog_end to *end*--><g id="link_n_frog_end_*end*"><path d="M483.01,661.26 C484.29,740.43 487.4639,937.6508 488.2339,985.7008 " fill="none" id="n_frog_end-to-*end*" style="stroke:#181818;stroke-width:1.0;"/><polygon fill="#181818" points="488.33,991.7,492.1853,982.6371,488.2499,986.7006,484.1863,982.7652,488.33,991.7" style="stroke:#181818;stroke-width:1.0;"/></g><!--link n_share_end to *end*--><g id="link_n_share_end_*end*"><path d="M571.52,931.09 C545.07,953.68 516.1621,978.373 501.0721,991.263 " fill="none" id="n_share_end-to-*end*" style="stroke:#181818;stroke-width:1.0;"/><polygon fill="#181818" points="496.51,995.16,505.9512,992.3559,500.3118,991.9125,500.7552,986.273,496.51,995.16" style="stroke:#181818;stroke-width:1.0;"/></g><!--link n_lost_end to *end*--><g id="link_n_lost_end_*end*"><path d="M834.89,836.22 C799.54,864.07 744.9,904.22 692.5,931 C622.38,966.84 535.8496,990.1999 504.9196,997.9599 " fill="none" id="n_lost_end-to-*end*" style="stroke:#181818;stroke-width:1.0;"/><polygon fill="#181818" points="499.1,999.42,508.8028,1001.1096,503.9497,998.2033,506.8561,993.3501,499.1,999.42" style="stroke:#181818;stroke-width:1.0;"/></g><!--link n_perch_end to *end*--><g id="link_n_perch_end_*end*"><path d="M891.69,931.16 C870.95,942.67 846.29,954.65 822.5,962 C700.02,999.84 548.03,1002.2141 505.46,1002.1141 " fill="none" id="n_perch_end-to-*end*" style="stroke:#181818;stroke-width:1.0;"/><polygon fill="#181818" points="499.46,1002.1,508.4506,1006.1211,504.46,1002.1117,508.4694,998.1212,499.46,1002.1" style="stroke:#181818;stroke-width:1.0;"/></g><rect fill="none" height="108.4375" id="_legend" rx="4" ry="4" style="stroke:#000000;stroke-width:1.0;" width="220.417" x="969.7954" y="1031"/><text fill="#000000" font-family="Roboto" font-size="14" lengthAdjust="spacing" textLength="145.4893" x="974.7954" y="1048.9883">Clover and the Butterfly</text><text fill="#000000" font-family="Roboto" font-size="14" lengthAdjust="spacing" textLength="155.791" x="974.7954" y="1065.3945">Band 3-5 &#183; Tier 1 &#183; ~3 min</text><text fill="#000000" font-family="Roboto" font-size="14" lengthAdjust="spacing" textLength="128.0713" x="974.7954" y="1081.8008">Topology: time_cave</text><text fill="#000000" font-family="Roboto" font-size="14" lengthAdjust="spacing" textLength="210.417" x="974.7954" y="1098.207">20 nodes &#183; 7 endings (4+ / 0n / 3-)</text><text fill="#000000" font-family="Roboto" font-size="14" lengthAdjust="spacing" textLength="116.2588" x="974.7954" y="1114.6133">Production-eligible</text><text fill="#000000" font-family="Roboto" font-size="14" lengthAdjust="spacing" textLength="119.0342" x="974.7954" y="1131.0195">Scale: short &#183; prose</text><!--SRC=[TLPHRzis47xNhxWv3sats8sJT4ipO80js-sMB0vizwN3OD3IMI8YYof9np2Cz6_rVRziHuaI6TU20TiytiUx-uxtIUVm4NEKJ6CCQoase9umGoro-6i-VO3L7bGaUQ7LEubvZ79PxozZpXB9DgfNx7l1EOm4v483nbmRLCho-7UGs9NR77IAa5HXXEm5wedd1ICinBXcsqnFHAuVs0QXCnCheKN7Srcnw2cHOfl7eSY4XBF9m7my3xifwNou2L8U8-2cq7iwlSgTYpm8_ldvN-Xs_u1ygJIJEg1lZVKApeR3qNWo3EhrBIZKsmB- -mxNxtUDSyouugWeYSdaGtWTECijHAdW4PQ82uTO8Iw9E8C8HwFBm5dA4AOwU9DZmZH_nhUljZk7GNyv7o-6W_3kfUDEv39UCPt2sQWVNey_19xf5YIbaoScYwkRdLUaPBiLIbact-1UcTkm6sIns7abMqDRnRbGjkJmPlnhQE8q9iA8JK7tXre2RmgXU5ssvzAPvd3uD9vDNyuL70QNoyVPdr_6VO-2I8fTVXJ3sOZORHIXKgyZ-0wTvjXBxzX2L8soTPRBjYffLfAZnZQcbivw-vt3y5Hh9MBizwTQjpKcnJZ1L2GUe36rOTRKQfDqWx26rekJCddSJMThRwVlGyLQihrIIJgKFqVLketjJ2Xzn7PZQc7Rs-yiX809K_ed5rzjytKcTYGPtZWqjZOw4lFZ0EMopPV9o9_HSjdcMo3j7j7iR2qNsdVe74B7SIrYbTmvXPg8ZCe34cWju32RVbwCbuFbb-d3-ALt1B9t_nHYU1fHD_0K97IGEfiAvCHkhaK1zCo07TD4b7bY6Fcx_pmxYNE2TuTOmBeCQeWzV9mExaj4urEh_YkjisbMxcMgf0ZtWuVHtuFPtQMjpaDKXpJIjw37Ya1WQqstnSMq-vMp9scVH1Q3qZpBR8rS_-3kwzCZuXCmNIOrdKp6itvvVDcLojiJayUCxQ4W15lHFTznRUaRUlHvo5fKVcHWw1YeubMk5SoJ5eiiQA9if6Fg6kSwMIiobZQUst3DjR0UjbMUUCpD_pAAsY7IguNjHrccEQAcfzThLAGwnHE04LEfxHNToxLHWYDdV_HjaihKQBhrTSknR9TpibU-6dzBXnOx9cCmW_YQZDAjGbWHg6Uaf27qQ2ZtxGHwqpsdhCiiiZqHa2EhM-p5kgeklHqeSmQzyVWFLcToDytPcllaJAuDpjQGwamkqTeMP9YOjUH9gWE0C1FFH9hXqcGzt6hgn3hRqzRG6A-wxuqWBZWvzSs_RrUmuJbjBqH1Btt9_XOqt-0oOiz8riiBUjMabplZ-XjG91fyqiRhN-0TNEJqTTLzIswFKiJRo3oRkfZnXAyo0vv7B4DIr5IGTD41XII20ZgaIlf_]--></g></svg>