<svg xmlns="http://www.w3.org/2000/svg" xmlns:xlink="http://www.w3.org/1999/xlink" contentStyleType="text/css" height="1681px" preserveAspectRatio="none" style="width:2247px;height:1681px;background:#FAFAFA;" version="1.1" viewBox="0 0 2247 1681" width="2247px" zoomAndPan="magnify"><defs><style type="text/css">@import url('https://fonts.googleapis.com/css?family=Roboto:400,100,100italic,300,300italic,400italic,500,500italic,700,700italic,900,900italic');</style></defs><g><rect fill="#FAFAFA" height="1681" style="stroke:none;stroke-width:1.0;" width="2247" x="0" y="0"/><ellipse cx="1056.5" cy="16" fill="#222222" rx="10" ry="10" style="stroke:#222222;stroke-width:1.0;"/><g id="n_start"><rect fill="#BBDEFB" height="50.2656" rx="4" ry="4" style="stroke:#181818;stroke-width:0.5;" width="90.0898" x="1011.5" y="87"/><line style="stroke:#181818;stroke-width:0.5;" x1="1011.5" x2="1101.5898" y1="113.2969" y2="113.2969"/><text fill="#000000" font-family="Roboto" font-size="14" lengthAdjust="spacing" textLength="48.4805" x="1032.3047" y="104.9951">n_start</text><text fill="#000000" font-family="Roboto" font-size="12" lengthAdjust="spacing" textLength="70.0898" x="1016.5" y="129.4355">setup &#183; 85w</text></g><g id="n_gear"><rect fill="#BBDEFB" height="50.2656" rx="4" ry="4" style="stroke:#181818;stroke-width:0.5;" width="90.0898" x="1011.5" y="214"/><line style="stroke:#181818;stroke-width:0.5;" x1="1011.5" x2="1101.5898" y1="240.2969" y2="240.2969"/><text fill="#000000" font-family="Roboto" font-size="14" lengthAdjust="spacing" textLength="47.708" x="1032.6909" y="231.9951">n_gear</text><text fill="#000000" font-family="Roboto" font-size="12" lengthAdjust="spacing" textLength="70.0898" x="1016.5" y="256.4355">setup &#183; 72w</text></g><g id="n_basecamp"><rect fill="#FFF9C4" height="50.2656" rx="4" ry="4" style="stroke:#181818;stroke-width:0.5;" width="108.0469" x="1002.5" y="341"/><line style="stroke:#181818;stroke-width:0.5;" x1="1002.5" x2="1110.5469" y1="367.2969" y2="367.2969"/><text fill="#000000" font-family="Roboto" font-size="14" lengthAdjust="spacing" textLength="88.0469" x="1012.5" y="358.9951">n_basecamp</text><text fill="#000000" font-family="Roboto" font-size="12" lengthAdjust="spacing" textLength="75.3867" x="1007.5" y="383.4355">choice &#183; 82w</text></g><g id="n_east"><rect fill="#FFF9C4" height="50.2656" rx="4" ry="4" style="stroke:#181818;stroke-width:0.5;" width="95.3867" x="831" y="468"/><line style="stroke:#181818;stroke-width:0.5;" x1="831" x2="926.3867" y1="494.2969" y2="494.2969"/><text fill="#000000" font-family="Roboto" font-size="14" lengthAdjust="spacing" textLength="45.8486" x="855.769" y="485.9951">n_east</text><text fill="#000000" font-family="Roboto" font-size="12" lengthAdjust="spacing" textLength="75.3867" x="836" y="510.4355">choice &#183; 78w</text></g><g id="n_west"><rect fill="#FFF9C4" height="50.2656" rx="4" ry="4" style="stroke:#181818;stroke-width:0.5;" width="95.3867" x="1214" y="468"/><line style="stroke:#181818;stroke-width:0.5;" x1="1214" x2="1309.3867" y1="494.2969" y2="494.2969"/><text fill="#000000" font-family="Roboto" font-size="14" lengthAdjust="spacing" textLength="48.7197" x="1237.3335" y="485.9951">n_west</text><text fill="#000000" font-family="Roboto" font-size="12" lengthAdjust="spacing" textLength="75.3867" x="1219" y="510.4355">choice &#183; 78w</text></g><g id="m_1"><rect fill="#D1C4E9" height="50.2656" rx="4" ry="4" style="stroke:#181818;stroke-width:0.5;" width="89.6035" x="646.5" y="595"/><line style="stroke:#181818;stroke-width:0.5;" x1="646.5" x2="736.1035" y1="621.2969" y2="621.2969"/><text fill="#000000" font-family="Roboto" font-size="14" lengthAdjust="spacing" textLength="29.5449" x="676.5293" y="612.9951">m_1</text><text fill="#000000" font-family="Roboto" font-size="12" lengthAdjust="spacing" textLength="69.6035" x="651.5" y="637.4355">rising &#183; 68w</text></g><g id="m_2"><rect fill="#FFF9C4" height="50.2656" rx="4" ry="4" style="stroke:#181818;stroke-width:0.5;" width="95.3867" x="303" y="755"/><line style="stroke:#181818;stroke-width:0.5;" x1="303" x2="398.3867" y1="781.2969" y2="781.2969"/><text fill="#000000" font-family="Roboto" font-size="14" lengthAdjust="spacing" textLength="29.5449" x="335.9209" y="772.9951">m_2</text><text fill="#000000" font-family="Roboto" font-size="12" lengthAdjust="spacing" textLength="75.3867" x="308" y="797.4355">choice &#183; 80w</text></g><g id="m_r1"><rect fill="#D1C4E9" height="50.2656" rx="4" ry="4" style="stroke:#181818;stroke-width:0.5;" width="89.6035" x="47.5" y="915"/><line style="stroke:#181818;stroke-width:0.5;" x1="47.5" x2="137.1035" y1="941.2969" y2="941.2969"/><text fill="#000000" font-family="Roboto" font-size="14" lengthAdjust="spacing" textLength="35.3008" x="74.6514" y="932.9951">m_r1</text><text fill="#000000" font-family="Roboto" font-size="12" lengthAdjust="spacing" textLength="69.6035" x="52.5" y="957.4355">rising &#183; 60w</text></g><g id="e_m_retreat"><rect fill="#FFCDD2" height="64.2344" rx="4" ry="4" style="stroke:#181818;stroke-width:0.5;" width="142.8008" x="7" y="1122"/><line style="stroke:#181818;stroke-width:0.5;" x1="7" x2="149.8008" y1="1148.2969" y2="1148.2969"/><text fill="#000000" font-family="Roboto" font-size="14" lengthAdjust="spacing" textLength="84.5469" x="36.127" y="1139.9951">e_m_retreat</text><text fill="#000000" font-family="Roboto" font-size="12" lengthAdjust="spacing" textLength="112.5176" x="12" y="1164.4355">setback (negative)</text><text fill="#000000" font-family="Roboto" font-size="12" lengthAdjust="spacing" textLength="122.8008" x="12" y="1178.4043">"The Cocoa Retreat"</text></g><g id="m_3"><rect fill="#D1C4E9" height="50.2656" rx="4" ry="4" style="stroke:#181818;stroke-width:0.5;" width="89.6035" x="305.5" y="915"/><line style="stroke:#181818;stroke-width:0.5;" x1="305.5" x2="395.1035" y1="941.2969" y2="941.2969"/><text fill="#000000" font-family="Roboto" font-size="14" lengthAdjust="spacing" textLength="29.5449" x="335.5293" y="932.9951">m_3</text><text fill="#000000" font-family="Roboto" font-size="12" lengthAdjust="spacing" textLength="69.6035" x="310.5" y="957.4355">rising &#183; 66w</text></g><g id="m_4"><rect fill="#FFF9C4" height="50.2656" rx="4" ry="4" style="stroke:#181818;stroke-width:0.5;" width="95.3867" x="303" y="1042"/><line style="stroke:#181818;stroke-width:0.5;" x1="303" x2="398.3867" y1="1068.2969" y2="1068.2969"/><text fill="#000000" font-family="Roboto" font-size="14" lengthAdjust="spacing" textLength="29.5449" x="335.9209" y="1059.9951">m_4</text><text fill="#000000" font-family="Roboto" font-size="12" lengthAdjust="spacing" textLength="75.3867" x="308" y="1084.4355">choice &#183; 78w</text></g><g id="m_f1"><rect fill="#D1C4E9" height="50.2656" rx="4" ry="4" style="stroke:#181818;stroke-width:0.5;" width="89.6035" x="151.5" y="1216"/><line style="stroke:#181818;stroke-width:0.5;" x1="151.5" x2="241.1035" y1="1242.2969" y2="1242.2969"/><text fill="#000000" font-family="Roboto" font-size="14" lengthAdjust="spacing" textLength="34.4736" x="179.0649" y="1233.9951">m_f1</text><text fill="#000000" font-family="Roboto" font-size="12" lengthAdjust="spacing" textLength="69.6035" x="156.5" y="1258.4355">rising &#183; 62w</text></g><g id="e_m_flag"><rect fill="#C8E6C9" height="64.2344" rx="4" ry="4" style="stroke:#181818;stroke-width:0.5;" width="148.9707" x="154" y="1390"/><line style="stroke:#181818;stroke-width:0.5;" x1="154" x2="302.9707" y1="1416.2969" y2="1416.2969"/><text fill="#000000" font-family="Roboto" font-size="14" lengthAdjust="spacing" textLength="62.5352" x="197.2178" y="1407.9951">e_m_flag</text><text fill="#000000" font-family="Roboto" font-size="12" lengthAdjust="spacing" textLength="107.1855" x="159" y="1432.4355">success (positive)</text><text fill="#000000" font-family="Roboto" font-size="12" lengthAdjust="spacing" textLength="128.9707" x="159" y="1446.4043">"Flag on the Summit"</text></g><g id="m_s1"><rect fill="#D1C4E9" height="50.2656" rx="4" ry="4" style="stroke:#181818;stroke-width:0.5;" width="89.6035" x="380.5" y="1216"/><line style="stroke:#181818;stroke-width:0.5;" x1="380.5" x2="470.1035" y1="1242.2969" y2="1242.2969"/><text fill="#000000" font-family="Roboto" font-size="14" lengthAdjust="spacing" textLength="36.8389" x="406.8823" y="1233.9951">m_s1</text><text fill="#000000" font-family="Roboto" font-size="12" lengthAdjust="spacing" textLength="69.6035" x="385.5" y="1258.4355">rising &#183; 62w</text></g><g id="e_m_sled"><rect fill="#C8E6C9" height="64.2344" rx="4" ry="4" style="stroke:#181818;stroke-width:0.5;" width="198.4297" x="403.5" y="1390"/><line style="stroke:#181818;stroke-width:0.5;" x1="403.5" x2="601.9297" y1="1416.2969" y2="1416.2969"/><text fill="#000000" font-family="Roboto" font-size="14" lengthAdjust="spacing" textLength="64.9346" x="470.2476" y="1407.9951">e_m_sled</text><text fill="#000000" font-family="Roboto" font-size="12" lengthAdjust="spacing" textLength="107.1855" x="408.5" y="1432.4355">success (positive)</text><text fill="#000000" font-family="Roboto" font-size="12" lengthAdjust="spacing" textLength="178.4297" x="408.5" y="1446.4043">"The Great Summit Sled Run"</text></g><g id="t_1"><rect fill="#D1C4E9" height="50.2656" rx="4" ry="4" style="stroke:#181818;stroke-width:0.5;" width="89.6035" x="833.5" y="835"/><line style="stroke:#181818;stroke-width:0.5;" x1="833.5" x2="923.1035" y1="861.2969" y2="861.2969"/><text fill="#000000" font-family="Roboto" font-size="14" lengthAdjust="spacing" textLength="21.3965" x="867.6035" y="852.9951">t_1</text><text fill="#000000" font-family="Roboto" font-size="12" lengthAdjust="spacing" textLength="69.6035" x="838.5" y="877.4355">rising &#183; 68w</text></g><g id="t_2"><rect fill="#FFF9C4" height="50.2656" rx="4" ry="4" style="stroke:#181818;stroke-width:0.5;" width="95.3867" x="831" y="1042"/><line style="stroke:#181818;stroke-width:0.5;" x1="831" x2="926.3867" y1="1068.2969" y2="1068.2969"/><text fill="#000000" font-family="Roboto" font-size="14" lengthAdjust="spacing" textLength="21.3965" x="867.9951" y="1059.9951">t_2</text><text fill="#000000" font-family="Roboto" font-size="12" lengthAdjust="spacing" textLength="75.3867" x="836" y="1084.4355">choice &#183; 80w</text></g><g id="t_3"><rect fill="#D1C4E9" height="50.2656" rx="4" ry="4" style="stroke:#181818;stroke-width:0.5;" width="89.6035" x="649.5" y="1216"/><line style="stroke:#181818;stroke-width:0.5;" x1="649.5" x2="739.1035" y1="1242.2969" y2="1242.2969"/><text fill="#000000" font-family="Roboto" font-size="14" lengthAdjust="spacing" textLength="21.3965" x="683.6035" y="1233.9951">t_3</text><text fill="#000000" font-family="Roboto" font-size="12" lengthAdjust="spacing" textLength="69.6035" x="654.5" y="1258.4355">rising &#183; 72w</text></g><g id="e_t_cat"><rect fill="#C8E6C9" height="64.2344" rx="4" ry="4" style="stroke:#181818;stroke-width:0.5;" width="179.8906" x="669.5" y="1390"/><line style="stroke:#181818;stroke-width:0.5;" x1="669.5" x2="849.3906" y1="1416.2969" y2="1416.2969"/><text fill="#000000" font-family="Roboto" font-size="14" lengthAdjust="spacing" textLength="49.8682" x="734.5112" y="1407.9951">e_t_cat</text><text fill="#000000" font-family="Roboto" font-size="12" lengthAdjust="spacing" textLength="117.9082" x="674.5" y="1432.4355">discovery (positive)</text><text fill="#000000" font-family="Roboto" font-size="12" lengthAdjust="spacing" textLength="159.8906" x="674.5" y="1446.4043">"The Snow Leopard's Den"</text></g><g id="t_4"><rect fill="#D1C4E9" height="50.2656" rx="4" ry="4" style="stroke:#181818;stroke-width:0.5;" width="89.6035" x="929.5" y="1216"/><line style="stroke:#181818;stroke-width:0.5;" x1="929.5" x2="1019.1035" y1="1242.2969" y2="1242.2969"/><text fill="#000000" font-family="Roboto" font-size="14" lengthAdjust="spacing" textLength="21.3965" x="963.6035" y="1233.9951">t_4</text><text fill="#000000" font-family="Roboto" font-size="12" lengthAdjust="spacing" textLength="69.6035" x="934.5" y="1258.4355">rising &#183; 72w</text></g><g id="e_t_rabbits"><rect fill="#C8E6C9" height="64.2344" rx="4" ry="4" style="stroke:#181818;stroke-width:0.5;" width="175.5664" x="900.5" y="1390"/><line style="stroke:#181818;stroke-width:0.5;" x1="900.5" x2="1076.0664" y1="1416.2969" y2="1416.2969"/><text fill="#000000" font-family="Roboto" font-size="14" lengthAdjust="spacing" textLength="76.8838" x="949.8413" y="1407.9951">e_t_rabbits</text><text fill="#000000" font-family="Roboto" font-size="12" lengthAdjust="spacing" textLength="117.9082" x="905.5" y="1432.4355">discovery (positive)</text><text fill="#000000" font-family="Roboto" font-size="12" lengthAdjust="spacing" textLength="155.5664" x="905.5" y="1446.4043">"The Hidden Rabbit Base"</text></g><g id="i_1"><rect fill="#D1C4E9" height="50.2656" rx="4" ry="4" style="stroke:#181818;stroke-width:0.5;" width="89.6035" x="1216.5" y="675"/><line style="stroke:#181818;stroke-width:0.5;" x1="1216.5" x2="1306.1035" y1="701.2969" y2="701.2969"/><text fill="#000000" font-family="Roboto" font-size="14" lengthAdjust="spacing" textLength="19.7969" x="1251.4033" y="692.9951">i_1</text><text fill="#000000" font-family="Roboto" font-size="12" lengthAdjust="spacing" textLength="69.6035" x="1221.5" y="717.4355">rising &#183; 66w</text></g><g id="i_2"><rect fill="#D1C4E9" height="50.2656" rx="4" ry="4" style="stroke:#181818;stroke-width:0.5;" width="89.6035" x="1216.5" y="835"/><line style="stroke:#181818;stroke-width:0.5;" x1="1216.5" x2="1306.1035" y1="861.2969" y2="861.2969"/><text fill="#000000" font-family="Roboto" font-size="14" lengthAdjust="spacing" textLength="19.7969" x="1251.4033" y="852.9951">i_2</text><text fill="#000000" font-family="Roboto" font-size="12" lengthAdjust="spacing" textLength="69.6035" x="1221.5" y="877.4355">rising &#183; 68w</text></g><g id="i_3"><rect fill="#FFF9C4" height="50.2656" rx="4" ry="4" style="stroke:#181818;stroke-width:0.5;" width="95.3867" x="1214" y="1042"/><line style="stroke:#181818;stroke-width:0.5;" x1="1214" x2="1309.3867" y1="1068.2969" y2="1068.2969"/><text fill="#000000" font-family="Roboto" font-size="14" lengthAdjust="spacing" textLength="19.7969" x="1251.7949" y="1059.9951">i_3</text><text fill="#000000" font-family="Roboto" font-size="12" lengthAdjust="spacing" textLength="75.3867" x="1219" y="1084.4355">choice &#183; 80w</text></g><g id="i_f1"><rect fill="#D1C4E9" height="50.2656" rx="4" ry="4" style="stroke:#181818;stroke-width:0.5;" width="89.6035" x="1166.5" y="1216"/><line style="stroke:#181818;stroke-width:0.5;" x1="1166.5" x2="1256.1035" y1="1242.2969" y2="1242.2969"/><text fill="#000000" font-family="Roboto" font-size="14" lengthAdjust="spacing" textLength="24.7256" x="1198.939" y="1233.9951">i_f1</text><text fill="#000000" font-family="Roboto" font-size="12" lengthAdjust="spacing" textLength="69.6035" x="1171.5" y="1258.4355">rising &#183; 62w</text></g><g id="e_i_base"><rect fill="#C8E6C9" height="64.2344" rx="4" ry="4" style="stroke:#181818;stroke-width:0.5;" width="147.1953" x="1120" y="1390"/><line style="stroke:#181818;stroke-width:0.5;" x1="1120" x2="1267.1953" y1="1416.2969" y2="1416.2969"/><text fill="#000000" font-family="Roboto" font-size="14" lengthAdjust="spacing" textLength="59.876" x="1163.6597" y="1407.9951">e_i_base</text><text fill="#000000" font-family="Roboto" font-size="12" lengthAdjust="spacing" textLength="127.1953" x="1125" y="1432.4355">completion (positive)</text><text fill="#000000" font-family="Roboto" font-size="12" lengthAdjust="spacing" textLength="112.1016" x="1125" y="1446.4043">"Base Camp Igloo"</text></g><g id="i_f2"><rect fill="#D1C4E9" height="50.2656" rx="4" ry="4" style="stroke:#181818;stroke-width:0.5;" width="89.6035" x="1414.5" y="1216"/><line style="stroke:#181818;stroke-width:0.5;" x1="1414.5" x2="1504.1035" y1="1242.2969" y2="1242.2969"/><text fill="#000000" font-family="Roboto" font-size="14" lengthAdjust="spacing" textLength="24.7256" x="1446.939" y="1233.9951">i_f2</text><text fill="#000000" font-family="Roboto" font-size="12" lengthAdjust="spacing" textLength="69.6035" x="1419.5" y="1258.4355">rising &#183; 62w</text></g><g id="e_i_tunnel"><rect fill="#C8E6C9" height="64.2344" rx="4" ry="4" style="stroke:#181818;stroke-width:0.5;" width="174.8516" x="1310" y="1390"/><line style="stroke:#181818;stroke-width:0.5;" x1="1310" x2="1484.8516" y1="1416.2969" y2="1416.2969"/><text fill="#000000" font-family="Roboto" font-size="14" lengthAdjust="spacing" textLength="71.1143" x="1361.8687" y="1407.9951">e_i_tunnel</text><text fill="#000000" font-family="Roboto" font-size="12" lengthAdjust="spacing" textLength="107.1855" x="1315" y="1432.4355">success (positive)</text><text fill="#000000" font-family="Roboto" font-size="12" lengthAdjust="spacing" textLength="154.8516" x="1315" y="1446.4043">"The Grand Snow Tunnel"</text></g><g id="p_1"><rect fill="#D1C4E9" height="50.2656" rx="4" ry="4" style="stroke:#181818;stroke-width:0.5;" width="89.6035" x="1656.5" y="595"/><line style="stroke:#181818;stroke-width:0.5;" x1="1656.5" x2="1746.1035" y1="621.2969" y2="621.2969"/><text fill="#000000" font-family="Roboto" font-size="14" lengthAdjust="spacing" textLength="24.7939" x="1688.9048" y="612.9951">p_1</text><text fill="#000000" font-family="Roboto" font-size="12" lengthAdjust="spacing" textLength="69.6035" x="1661.5" y="637.4355">rising &#183; 68w</text></g><g id="p_2"><rect fill="#FFF9C4" height="50.2656" rx="4" ry="4" style="stroke:#181818;stroke-width:0.5;" width="95.3867" x="1693" y="755"/><line style="stroke:#181818;stroke-width:0.5;" x1="1693" x2="1788.3867" y1="781.2969" y2="781.2969"/><text fill="#000000" font-family="Roboto" font-size="14" lengthAdjust="spacing" textLength="24.7939" x="1728.2964" y="772.9951">p_2</text><text fill="#000000" font-family="Roboto" font-size="12" lengthAdjust="spacing" textLength="75.3867" x="1698" y="797.4355">choice &#183; 80w</text></g><g id="p_r1"><rect fill="#D1C4E9" height="50.2656" rx="4" ry="4" style="stroke:#181818;stroke-width:0.5;" width="89.6035" x="1695.5" y="915"/><line style="stroke:#181818;stroke-width:0.5;" x1="1695.5" x2="1785.1035" y1="941.2969" y2="941.2969"/><text fill="#000000" font-family="Roboto" font-size="14" lengthAdjust="spacing" textLength="30.5498" x="1725.0269" y="932.9951">p_r1</text><text fill="#000000" font-family="Roboto" font-size="12" lengthAdjust="spacing" textLength="69.6035" x="1700.5" y="957.4355">rising &#183; 60w</text></g><g id="e_p_retreat"><rect fill="#FFCDD2" height="64.2344" rx="4" ry="4" style="stroke:#181818;stroke-width:0.5;" width="150.3477" x="1634.5" y="1296"/><line style="stroke:#181818;stroke-width:0.5;" x1="1634.5" x2="1784.8477" y1="1322.2969" y2="1322.2969"/><text fill="#000000" font-family="Roboto" font-size="14" lengthAdjust="spacing" textLength="79.7959" x="1669.7759" y="1313.9951">e_p_retreat</text><text fill="#000000" font-family="Roboto" font-size="12" lengthAdjust="spacing" textLength="112.5176" x="1639.5" y="1338.4355">setback (negative)</text><text fill="#000000" font-family="Roboto" font-size="12" lengthAdjust="spacing" textLength="130.3477" x="1639.5" y="1352.4043">"Regroup and Refuel"</text></g><g id="p_3"><rect fill="#D1C4E9" height="50.2656" rx="4" ry="4" style="stroke:#181818;stroke-width:0.5;" width="89.6035" x="1975.5" y="915"/><line style="stroke:#181818;stroke-width:0.5;" x1="1975.5" x2="2065.1035" y1="941.2969" y2="941.2969"/><text fill="#000000" font-family="Roboto" font-size="14" lengthAdjust="spacing" textLength="24.7939" x="2007.9048" y="932.9951">p_3</text><text fill="#000000" font-family="Roboto" font-size="12" lengthAdjust="spacing" textLength="69.6035" x="1980.5" y="957.4355">rising &#183; 66w</text></g><g id="p_4"><rect fill="#FFF9C4" height="50.2656" rx="4" ry="4" style="stroke:#181818;stroke-width:0.5;" width="95.3867" x="1987" y="1042"/><line style="stroke:#181818;stroke-width:0.5;" x1="1987" x2="2082.3867" y1="1068.2969" y2="1068.2969"/><text fill="#000000" font-family="Roboto" font-size="14" lengthAdjust="spacing" textLength="24.7939" x="2022.2964" y="1059.9951">p_4</text><text fill="#000000" font-family="Roboto" font-size="12" lengthAdjust="spacing" textLength="75.3867" x="1992" y="1084.4355">choice &#183; 78w</text></g><g id="p_f1"><rect fill="#D1C4E9" height="50.2656" rx="4" ry="4" style="stroke:#181818;stroke-width:0.5;" width="89.6035" x="1794.5" y="1216"/><line style="stroke:#181818;stroke-width:0.5;" x1="1794.5" x2="1884.1035" y1="1242.2969" y2="1242.2969"/><text fill="#000000" font-family="Roboto" font-size="14" lengthAdjust="spacing" textLength="29.7227" x="1824.4404" y="1233.9951">p_f1</text><text fill="#000000" font-family="Roboto" font-size="12" lengthAdjust="spacing" textLength="69.6035" x="1799.5" y="1258.4355">rising &#183; 62w</text></g><g id="e_p_hospital"><rect fill="#C8E6C9" height="64.2344" rx="4" ry="4" style="stroke:#181818;stroke-width:0.5;" width="178.332" x="1699.5" y="1390"/><line style="stroke:#181818;stroke-width:0.5;" x1="1699.5" x2="1877.832" y1="1416.2969" y2="1416.2969"/><text fill="#000000" font-family="Roboto" font-size="14" lengthAdjust="spacing" textLength="86.9668" x="1745.1826" y="1407.9951">e_p_hospital</text><text fill="#000000" font-family="Roboto" font-size="12" lengthAdjust="spacing" textLength="127.1953" x="1704.5" y="1432.4355">completion (positive)</text><text fill="#000000" font-family="Roboto" font-size="12" lengthAdjust="spacing" textLength="158.332" x="1704.5" y="1446.4043">"Penguin Hospital Heroes"</text></g><g id="p_f2"><rect fill="#D1C4E9" height="50.2656" rx="4" ry="4" style="stroke:#181818;stroke-width:0.5;" width="89.6035" x="2025.5" y="1216"/><line style="stroke:#181818;stroke-width:0.5;" x1="2025.5" x2="2115.1035" y1="1242.2969" y2="1242.2969"/><text fill="#000000" font-family="Roboto" font-size="14" lengthAdjust="spacing" textLength="29.7227" x="2055.4404" y="1233.9951">p_f2</text><text fill="#000000" font-family="Roboto" font-size="12" lengthAdjust="spacing" textLength="69.6035" x="2030.5" y="1258.4355">rising &#183; 62w</text></g><g id="e_p_parade"><rect fill="#C8E6C9" height="64.2344" rx="4" ry="4" style="stroke:#181818;stroke-width:0.5;" width="183.9102" x="1951.5" y="1390"/><line style="stroke:#181818;stroke-width:0.5;" x1="1951.5" x2="2135.4102" y1="1416.2969" y2="1416.2969"/><text fill="#000000" font-family="Roboto" font-size="14" lengthAdjust="spacing" textLength="80.8008" x="2003.0547" y="1407.9951">e_p_parade</text><text fill="#000000" font-family="Roboto" font-size="12" lengthAdjust="spacing" textLength="107.1855" x="1956.5" y="1432.4355">success (positive)</text><text fill="#000000" font-family="Roboto" font-size="12" lengthAdjust="spacing" textLength="163.9102" x="1956.5" y="1446.4043">"The Great Rescue Parade"</text></g><ellipse cx="1080.5" cy="1526" fill="none" rx="11" ry="11" style="stroke:#222222;stroke-width:1.0;"/><ellipse cx="1080.5" cy="1526" fill="#222222" rx="6" ry="6" style="stroke:#222222;stroke-width:1.0;"/><!--link *start* to n_start--><g id="link_*start*_n_start"><path d="M1056.5,26.01 C1056.5,39.89 1056.5,60.97 1056.5,80.84 " fill="none" id="*start*-to-n_start" style="stroke:#181818;stroke-width:1.0;"/><polygon fill="#181818" points="1056.5,86.84,1060.5,77.84,1056.5,81.84,1052.5,77.84,1056.5,86.84" style="stroke:#181818;stroke-width:1.0;"/></g><!--link n_start to n_gear--><g id="link_n_start_n_gear"><path d="M1056.5,137.1 C1056.5,159.24 1056.5,185.86 1056.5,207.97 " fill="none" id="n_start-to-n_gear" style="stroke:#181818;stroke-width:1.0;"/><polygon fill="#181818" points="1056.5,213.97,1060.5,204.97,1056.5,208.97,1052.5,204.97,1056.5,213.97" style="stroke:#181818;stroke-width:1.0;"/><text fill="#000000" font-family="Roboto" font-size="13" lengthAdjust="spacing" textLength="170.2695" x="1057.5" y="180.0669">Suit up for the expedition.</text></g><!--link n_gear to n_basecamp--><g id="link_n_gear_n_basecamp"><path d="M1056.5,264.1 C1056.5,286.24 1056.5,312.86 1056.5,334.97 " fill="none" id="n_gear-to-n_basecamp" style="stroke:#181818;stroke-width:1.0;"/><polygon fill="#181818" points="1056.5,340.97,1060.5,331.97,1056.5,335.97,1052.5,331.97,1056.5,340.97" style="stroke:#181818;stroke-width:1.0;"/><text fill="#000000" font-family="Roboto" font-size="13" lengthAdjust="spacing" textLength="195.1333" x="1057.5" y="307.0669">March out to Base Camp One.</text></g><!--link n_basecamp to n_east--><g id="link_n_basecamp_n_east"><path d="M1012.09,391.16 C996.69,400.03 979.52,410.49 964.5,421 C943.88,435.43 926.5551,449.5816 910.0351,463.8916 " fill="none" id="n_basecamp-to-n_east" style="stroke:#181818;stroke-width:1.0;"/><polygon fill="#181818" points="905.5,467.82,914.9217,464.9508,909.2793,464.5463,909.6837,458.9039,905.5,467.82" style="stroke:#181818;stroke-width:1.0;"/><text fill="#000000" font-family="Roboto" font-size="13" lengthAdjust="spacing" textLength="189.8838" x="965.5" y="434.0669">Trek toward Mount Snowpile.</text></g><!--link n_basecamp to n_west--><g id="link_n_basecamp_n_west"><path d="M1105.4,391.05 C1122.75,399.99 1142.24,410.52 1159.5,421 C1183.48,435.55 1204.5512,450.1098 1224.2612,464.3898 " fill="none" id="n_basecamp-to-n_west" style="stroke:#181818;stroke-width:1.0;"/><polygon fill="#181818" points="1229.12,467.91,1224.1786,459.3905,1225.071,464.9765,1219.485,465.8689,1229.12,467.91" style="stroke:#181818;stroke-width:1.0;"/><text fill="#000000" font-family="Roboto" font-size="13" lengthAdjust="spacing" textLength="187.5288" x="1185.5" y="434.0669">Trek across the Frozen Flats.</text></g><!--link n_east to m_1--><g id="link_n_east_m_1"><path d="M830.7,495.31 C790.38,499.12 734.29,511.27 702.5,548 C691.48,560.73 688.9646,573.7803 689.1046,588.9403 " fill="none" id="n_east-to-m_1" style="stroke:#181818;stroke-width:1.0;"/><polygon fill="#181818" points="689.16,594.94,693.0767,585.9034,689.1138,589.9402,685.0771,585.9773,689.16,594.94" style="stroke:#181818;stroke-width:1.0;"/><text fill="#000000" font-family="Roboto" font-size="13" lengthAdjust="spacing" textLength="148.9097" x="703.5" y="561.0669">Climb Mount Snowpile.</text></g><!--link n_east to t_1--><g id="link_n_east_t_1"><path d="M878.5,518.23 C878.5,584.47 878.5,762.03 878.5,828.54 " fill="none" id="n_east-to-t_1" style="stroke:#181818;stroke-width:1.0;"/><polygon fill="#181818" points="878.5,834.54,882.5,825.54,878.5,829.54,874.5,825.54,878.5,834.54" style="stroke:#181818;stroke-width:1.0;"/><text fill="#000000" font-family="Roboto" font-size="13" lengthAdjust="spacing" textLength="219.5527" x="879.5" y="624.5669">Follow the mysterious paw prints.</text></g><!--link n_west to i_1--><g id="link_n_west_i_1"><path d="M1261.5,518.32 C1261.5,557.78 1261.5,629.28 1261.5,668.71 " fill="none" id="n_west-to-i_1" style="stroke:#181818;stroke-width:1.0;"/><polygon fill="#181818" points="1261.5,674.71,1265.5,665.71,1261.5,669.71,1257.5,665.71,1261.5,674.71" style="stroke:#181818;stroke-width:1.0;"/><text fill="#000000" font-family="Roboto" font-size="13" lengthAdjust="spacing" textLength="165.6865" x="1262.5" y="561.0669">Build the Great Igloo fort.</text></g><!--link n_west to p_1--><g id="link_n_west_p_1"><path d="M1309.01,507.5 C1394.45,531.77 1567.1384,580.8302 1650.7284,604.5802 " fill="none" id="n_west-to-p_1" style="stroke:#181818;stroke-width:1.0;"/><polygon fill="#181818" points="1656.5,606.22,1648.9359,599.9125,1651.6904,604.8535,1646.7494,607.6079,1656.5,606.22" style="stroke:#181818;stroke-width:1.0;"/><text fill="#000000" font-family="Roboto" font-size="13" lengthAdjust="spacing" textLength="203.8042" x="1508.5" y="561.0669">Rescue the bird bath penguins.</text></g><!--link m_1 to m_2--><g id="link_m_1_m_2"><path d="M646.22,641.98 C581.72,671.87 469.394,723.9075 403.614,754.3875 " fill="none" id="m_1-to-m_2" style="stroke:#181818;stroke-width:1.0;"/><polygon fill="#181818" points="398.17,756.91,408.0176,756.7555,402.7066,754.8079,404.6543,749.4969,398.17,756.91" style="stroke:#181818;stroke-width:1.0;"/><text fill="#000000" font-family="Roboto" font-size="13" lengthAdjust="spacing" textLength="167.1465" x="572.5" y="704.5669">Start up the lower slopes.</text></g><!--link m_2 to m_3--><g id="link_m_2_m_3"><path d="M350.5,805.34 C350.5,835.12 350.5,879.22 350.5,908.89 " fill="none" id="m_2-to-m_3" style="stroke:#181818;stroke-width:1.0;"/><polygon fill="#181818" points="350.5,914.89,354.5,905.89,350.5,909.89,346.5,905.89,350.5,914.89" style="stroke:#181818;stroke-width:1.0;"/><text fill="#000000" font-family="Roboto" font-size="13" lengthAdjust="spacing" textLength="208.9077" x="351.5" y="864.5669">Push on through the snow-swirl.</text></g><!--link m_2 to m_r1--><g id="link_m_2_m_r1"><path d="M302.7,785.89 C262.64,791.97 205.57,805.44 164.5,835 C135.98,855.53 117.6506,885.6422 105.9106,909.3722 " fill="none" id="m_2-to-m_r1" style="stroke:#181818;stroke-width:1.0;"/><polygon fill="#181818" points="103.25,914.75,110.8261,908.457,105.4672,910.2685,103.6557,904.9095,103.25,914.75" style="stroke:#181818;stroke-width:1.0;"/><text fill="#000000" font-family="Roboto" font-size="13" lengthAdjust="spacing" textLength="176.668" x="165.5" y="864.5669">Head back down for cocoa.</text></g><!--link m_r1 to e_m_retreat--><g id="link_m_r1_e_m_retreat"><path d="M90.89,965.32 C88.34,1003.93 83.7655,1073.243 80.9555,1115.783 " fill="none" id="m_r1-to-e_m_retreat" style="stroke:#181818;stroke-width:1.0;"/><polygon fill="#181818" points="80.56,1121.77,85.1445,1113.0532,80.8896,1116.7809,77.1619,1112.5259,80.56,1121.77" style="stroke:#181818;stroke-width:1.0;"/><text fill="#000000" font-family="Roboto" font-size="13" lengthAdjust="spacing" textLength="167.4512" x="90.5" y="1008.0669">Tromp inside to warm up.</text></g><!--link m_3 to m_4--><g id="link_m_3_m_4"><path d="M350.5,965.1 C350.5,987.24 350.5,1013.86 350.5,1035.97 " fill="none" id="m_3-to-m_4" style="stroke:#181818;stroke-width:1.0;"/><polygon fill="#181818" points="350.5,1041.97,354.5,1032.97,350.5,1036.97,346.5,1032.97,350.5,1041.97" style="stroke:#181818;stroke-width:1.0;"/><text fill="#000000" font-family="Roboto" font-size="13" lengthAdjust="spacing" textLength="188.8682" x="351.5" y="1008.0669">Scramble up the last stretch.</text></g><!--link m_4 to m_f1--><g id="link_m_4_m_f1"><path d="M302.74,1070.27 C266.23,1074.82 218.11,1087.51 193.5,1122 C173.98,1149.36 179.0526,1184.3206 186.4026,1210.0606 " fill="none" id="m_4-to-m_f1" style="stroke:#181818;stroke-width:1.0;"/><polygon fill="#181818" points="188.05,1215.83,189.4251,1206.0776,186.6771,1211.0222,181.7326,1208.2742,188.05,1215.83" style="stroke:#181818;stroke-width:1.0;"/><text fill="#000000" font-family="Roboto" font-size="13" lengthAdjust="spacing" textLength="172.561" x="194.5" y="1158.5669">Plant the flag on the peak.</text></g><!--link m_4 to m_s1--><g id="link_m_4_m_s1"><path d="M360.98,1092.44 C371.24,1116.32 387.34,1153.7 401.5,1186 C405.78,1195.77 408.1121,1201.0376 412.2521,1210.3476 " fill="none" id="m_4-to-m_s1" style="stroke:#181818;stroke-width:1.0;"/><polygon fill="#181818" points="414.69,1215.83,414.688,1205.9811,412.6584,1211.2613,407.3782,1209.2317,414.69,1215.83" style="stroke:#181818;stroke-width:1.0;"/><text fill="#000000" font-family="Roboto" font-size="13" lengthAdjust="spacing" textLength="214.6777" x="402.5" y="1158.5669">Ride the sled down the far slope.</text></g><!--link m_f1 to e_m_flag--><g id="link_m_f1_e_m_flag"><path d="M197.8,1266.17 C199.41,1290.17 202.8,1327.92 209.5,1360 C211.56,1369.88 212.7512,1374.7191 215.7612,1384.2391 " fill="none" id="m_f1-to-e_m_flag" style="stroke:#181818;stroke-width:1.0;"/><polygon fill="#181818" points="217.57,1389.96,218.6707,1380.1728,216.0627,1385.1926,211.0429,1382.5846,217.57,1389.96" style="stroke:#181818;stroke-width:1.0;"/><text fill="#000000" font-family="Roboto" font-size="13" lengthAdjust="spacing" textLength="191.7056" x="210.5" y="1332.5669">Name the mountain out loud.</text></g><!--link m_s1 to e_m_sled--><g id="link_m_s1_e_m_sled"><path d="M435.88,1266.14 C449.64,1298.11 471.5393,1349.0282 486.6793,1384.2282 " fill="none" id="m_s1-to-e_m_sled" style="stroke:#181818;stroke-width:1.0;"/><polygon fill="#181818" points="489.05,1389.74,489.1685,1379.8919,487.0744,1385.1468,481.8194,1383.0528,489.05,1389.74" style="stroke:#181818;stroke-width:1.0;"/><text fill="#000000" font-family="Roboto" font-size="13" lengthAdjust="spacing" textLength="159.8594" x="476.5" y="1332.5669">Push off down the slope.</text></g><!--link t_1 to t_2--><g id="link_t_1_t_2"><path d="M878.5,885.32 C878.5,924.78 878.5,996.28 878.5,1035.71 " fill="none" id="t_1-to-t_2" style="stroke:#181818;stroke-width:1.0;"/><polygon fill="#181818" points="878.5,1041.71,882.5,1032.71,878.5,1036.71,874.5,1032.71,878.5,1041.71" style="stroke:#181818;stroke-width:1.0;"/><text fill="#000000" font-family="Roboto" font-size="13" lengthAdjust="spacing" textLength="212.6909" x="879.5" y="944.5669">Track the prints along the fence.</text></g><!--link t_2 to t_3--><g id="link_t_2_t_3"><path d="M830.95,1072.59 C771.58,1079.43 675.17,1094.51 653.5,1122 C635.89,1144.34 644.43,1159.04 653.5,1186 C657.14,1196.82 660.154,1202.5111 667.154,1211.2311 " fill="none" id="t_2-to-t_3" style="stroke:#181818;stroke-width:1.0;"/><polygon fill="#181818" points="670.91,1215.91,668.3953,1206.3876,667.78,1212.0109,662.1567,1211.3956,670.91,1215.91" style="stroke:#181818;stroke-width:1.0;"/><text fill="#000000" font-family="Roboto" font-size="13" lengthAdjust="spacing" textLength="278.4653" x="654.5" y="1158.5669">Crawl through the tunnel under the holly...</text></g><!--link t_2 to t_4--><g id="link_t_2_t_4"><path d="M913.84,1092.06 C924.02,1100.49 934.3,1110.7 941.5,1122 C960.02,1151.06 967.4711,1184.6504 971.0611,1209.7704 " fill="none" id="t_2-to-t_4" style="stroke:#181818;stroke-width:1.0;"/><polygon fill="#181818" points="971.91,1215.71,974.5965,1206.2346,971.2026,1210.7603,966.6769,1207.3664,971.91,1215.71" style="stroke:#181818;stroke-width:1.0;"/><text fill="#000000" font-family="Roboto" font-size="13" lengthAdjust="spacing" textLength="200.6367" x="967.5" y="1158.5669">Circle around behind the shed.</text></g><!--link t_3 to e_t_cat--><g id="link_t_3_e_t_cat"><path d="M703.27,1266.14 C714.87,1298.11 733.3224,1348.9002 746.1024,1384.1002 " fill="none" id="t_3-to-e_t_cat" style="stroke:#181818;stroke-width:1.0;"/><polygon fill="#181818" points="748.15,1389.74,748.8384,1379.9152,746.4436,1385.0402,741.3187,1382.6454,748.15,1389.74" style="stroke:#181818;stroke-width:1.0;"/><text fill="#000000" font-family="Roboto" font-size="13" lengthAdjust="spacing" textLength="173.4878" x="738.5" y="1332.5669">Peek around the woodpile.</text></g><!--link t_4 to e_t_rabbits--><g id="link_t_4_e_t_rabbits"><path d="M971.21,1266.09 C968.51,1290.04 965.84,1327.74 970.5,1360 C971.92,1369.84 972.8454,1374.5432 975.6754,1383.9732 " fill="none" id="t_4-to-e_t_rabbits" style="stroke:#181818;stroke-width:1.0;"/><polygon fill="#181818" points="977.4,1389.72,978.6442,1379.9501,975.9628,1384.931,970.9818,1382.2496,977.4,1389.72" style="stroke:#181818;stroke-width:1.0;"/><text fill="#000000" font-family="Roboto" font-size="13" lengthAdjust="spacing" textLength="186.437" x="971.5" y="1332.5669">Hold still and watch the gap.</text></g><!--link i_1 to i_2--><g id="link_i_1_i_2"><path d="M1261.5,725.34 C1261.5,755.12 1261.5,799.22 1261.5,828.89 " fill="none" id="i_1-to-i_2" style="stroke:#181818;stroke-width:1.0;"/><polygon fill="#181818" points="1261.5,834.89,1265.5,825.89,1261.5,829.89,1257.5,825.89,1261.5,834.89" style="stroke:#181818;stroke-width:1.0;"/><text fill="#000000" font-family="Roboto" font-size="13" lengthAdjust="spacing" textLength="206.7939" x="1262.5" y="784.5669">Cut the first row of snow bricks.</text></g><!--link i_2 to i_3--><g id="link_i_2_i_3"><path d="M1261.5,885.32 C1261.5,924.78 1261.5,996.28 1261.5,1035.71 " fill="none" id="i_2-to-i_3" style="stroke:#181818;stroke-width:1.0;"/><polygon fill="#181818" points="1261.5,1041.71,1265.5,1032.71,1261.5,1036.71,1257.5,1032.71,1261.5,1041.71" style="stroke:#181818;stroke-width:1.0;"/><text fill="#000000" font-family="Roboto" font-size="13" lengthAdjust="spacing" textLength="199.2847" x="1262.5" y="944.5669">Fit the last bricks of the dome.</text></g><!--link i_3 to i_f1--><g id="link_i_3_i_f1"><path d="M1237.77,1092.16 C1230.63,1100.88 1223.61,1111.24 1219.5,1122 C1207.79,1152.7 1207.2232,1185.1312 1208.7232,1209.6212 " fill="none" id="i_3-to-i_f1" style="stroke:#181818;stroke-width:1.0;"/><polygon fill="#181818" points="1209.09,1215.61,1212.5323,1206.3823,1208.7843,1210.6194,1204.5473,1206.8714,1209.09,1215.61" style="stroke:#181818;stroke-width:1.0;"/><text fill="#000000" font-family="Roboto" font-size="13" lengthAdjust="spacing" textLength="250.4214" x="1220.5" y="1158.5669">Carve a window and move in supplies.</text></g><!--link i_3 to i_f2--><g id="link_i_3_i_f2"><path d="M1309.46,1073.29 C1366.13,1080.65 1455.31,1096.08 1475.5,1122 C1496.34,1148.75 1486.3621,1184.1739 1474.7421,1210.1239 " fill="none" id="i_3-to-i_f2" style="stroke:#181818;stroke-width:1.0;"/><polygon fill="#181818" points="1472.29,1215.6,1479.6188,1209.0206,1474.3334,1211.0366,1472.3174,1205.7512,1472.29,1215.6" style="stroke:#181818;stroke-width:1.0;"/><text fill="#000000" font-family="Roboto" font-size="13" lengthAdjust="spacing" textLength="201.3794" x="1487.5" y="1158.5669">Dig the grand entrance tunnel.</text></g><!--link i_f1 to e_i_base--><g id="link_i_f1_e_i_base"><path d="M1204.59,1266.27 C1202.24,1275.5 1199.87,1286.16 1198.5,1296 C1194.09,1327.73 1193.1095,1358.39 1193.0695,1383.77 " fill="none" id="i_f1-to-e_i_base" style="stroke:#181818;stroke-width:1.0;"/><polygon fill="#181818" points="1193.06,1389.77,1197.0742,1380.7763,1193.0679,1384.77,1189.0742,1380.7637,1193.06,1389.77" style="stroke:#181818;stroke-width:1.0;"/><text fill="#000000" font-family="Roboto" font-size="13" lengthAdjust="spacing" textLength="162.811" x="1199.5" y="1332.5669">Settle into the new base.</text></g><!--link i_f2 to e_i_tunnel--><g id="link_i_f2_e_i_tunnel"><path d="M1418.74,1266.03 C1408.62,1274.17 1399.08,1284.23 1393.5,1296 C1379.51,1325.53 1382.1142,1357.6687 1387.6542,1383.9887 " fill="none" id="i_f2-to-e_i_tunnel" style="stroke:#181818;stroke-width:1.0;"/><polygon fill="#181818" points="1388.89,1389.86,1390.9505,1380.2291,1387.8601,1384.9672,1383.122,1381.8769,1388.89,1389.86" style="stroke:#181818;stroke-width:1.0;"/><text fill="#000000" font-family="Roboto" font-size="13" lengthAdjust="spacing" textLength="222.7202" x="1394.5" y="1332.5669">Crawl through the finished tunnel.</text></g><!--link p_1 to p_2--><g id="link_p_1_p_2"><path d="M1707.51,645.34 C1714.86,675.12 1725.781,719.3951 1733.111,749.0651 " fill="none" id="p_1-to-p_2" style="stroke:#181818;stroke-width:1.0;"/><polygon fill="#181818" points="1734.55,754.89,1736.2747,745.1933,1733.3508,750.0359,1728.5082,747.112,1734.55,754.89" style="stroke:#181818;stroke-width:1.0;"/><text fill="#000000" font-family="Roboto" font-size="13" lengthAdjust="spacing" textLength="209.7012" x="1727.5" y="704.5669">Look closely at the icy situation.</text></g><!--link p_2 to p_3--><g id="link_p_2_p_3"><path d="M1788.22,783.93 C1833.13,788.75 1900.48,801.46 1948.5,835 C1977.31,855.12 1995.6002,885.317 2007.2402,909.187 " fill="none" id="p_2-to-p_3" style="stroke:#181818;stroke-width:1.0;"/><polygon fill="#181818" points="2009.87,914.58,2009.5206,904.7373,2007.6785,910.0859,2002.33,908.2438,2009.87,914.58" style="stroke:#181818;stroke-width:1.0;"/><text fill="#000000" font-family="Roboto" font-size="13" lengthAdjust="spacing" textLength="228.8076" x="1992.5" y="864.5669">Tap the ice loose, slow and steady.</text></g><!--link p_2 to p_r1--><g id="link_p_2_p_r1"><path d="M1740.5,805.34 C1740.5,835.12 1740.5,879.22 1740.5,908.89 " fill="none" id="p_2-to-p_r1" style="stroke:#181818;stroke-width:1.0;"/><polygon fill="#181818" points="1740.5,914.89,1744.5,905.89,1740.5,909.89,1736.5,905.89,1740.5,914.89" style="stroke:#181818;stroke-width:1.0;"/><text fill="#000000" font-family="Roboto" font-size="13" lengthAdjust="spacing" textLength="198.0278" x="1741.5" y="864.5669">Pour warm cocoa over the ice.</text></g><!--link p_r1 to e_p_retreat--><g id="link_p_r1_e_p_retreat"><path d="M1738.56,965.15 C1733.17,1032.24 1718.4999,1214.9092 1712.4899,1289.8092 " fill="none" id="p_r1-to-e_p_retreat" style="stroke:#181818;stroke-width:1.0;"/><polygon fill="#181818" points="1712.01,1295.79,1716.717,1287.1388,1712.4099,1290.806,1708.7427,1286.4989,1712.01,1295.79" style="stroke:#181818;stroke-width:1.0;"/><text fill="#000000" font-family="Roboto" font-size="13" lengthAdjust="spacing" textLength="209.8979" x="1732.5" y="1071.5669">Call a retreat to mission control.</text></g><!--link p_3 to p_4--><g id="link_p_3_p_4"><path d="M2023.2,965.1 C2025.68,987.24 2028.6612,1013.8974 2031.1412,1036.0074 " fill="none" id="p_3-to-p_4" style="stroke:#181818;stroke-width:1.0;"/><polygon fill="#181818" points="2031.81,1041.97,2034.7819,1032.5802,2031.2527,1037.0012,2026.8317,1033.472,2031.81,1041.97" style="stroke:#181818;stroke-width:1.0;"/><text fill="#000000" font-family="Roboto" font-size="13" lengthAdjust="spacing" textLength="210.958" x="2028.5" y="1008.0669">Load the penguins for transport.</text></g><!--link p_4 to p_f1--><g id="link_p_4_p_f1"><path d="M1986.98,1083.51 C1977.87,1086.4 1968.41,1089.34 1959.5,1092 C1911.77,1106.26 1883.62,1083.92 1851.5,1122 C1829.6,1147.97 1830.0953,1183.5498 1833.8253,1209.7798 " fill="none" id="p_4-to-p_f1" style="stroke:#181818;stroke-width:1.0;"/><polygon fill="#181818" points="1834.67,1215.72,1837.3631,1206.2465,1833.9661,1210.7698,1829.4428,1207.3728,1834.67,1215.72" style="stroke:#181818;stroke-width:1.0;"/><text fill="#000000" font-family="Roboto" font-size="13" lengthAdjust="spacing" textLength="184.1709" x="1852.5" y="1158.5669">Set up the penguin hospital.</text></g><!--link p_4 to p_f2--><g id="link_p_4_p_f2"><path d="M2039.58,1092.28 C2046.44,1125.06 2057.3719,1177.257 2064.2119,1209.967 " fill="none" id="p_4-to-p_f2" style="stroke:#181818;stroke-width:1.0;"/><polygon fill="#181818" points="2065.44,1215.84,2067.5132,1206.2118,2064.4166,1210.9459,2059.6825,1207.8493,2065.44,1215.84" style="stroke:#181818;stroke-width:1.0;"/><text fill="#000000" font-family="Roboto" font-size="13" lengthAdjust="spacing" textLength="158.6025" x="2059.5" y="1158.5669">Lead the rescue parade.</text></g><!--link p_f1 to e_p_hospital--><g id="link_p_f1_e_p_hospital"><path d="M1832.62,1266.14 C1823.51,1298.11 1809.0842,1348.7697 1799.0542,1383.9697 " fill="none" id="p_f1-to-e_p_hospital" style="stroke:#181818;stroke-width:1.0;"/><polygon fill="#181818" points="1797.41,1389.74,1803.7232,1382.1807,1798.7802,1384.9314,1796.0294,1379.9884,1797.41,1389.74" style="stroke:#181818;stroke-width:1.0;"/><text fill="#000000" font-family="Roboto" font-size="13" lengthAdjust="spacing" textLength="216.4868" x="1823.5" y="1332.5669">Tuck the patients into their beds.</text></g><!--link p_f2 to e_p_parade--><g id="link_p_f2_e_p_parade"><path d="M2066.86,1266.14 C2062.04,1298.11 2054.4133,1348.6069 2049.1133,1383.8069 " fill="none" id="p_f2-to-e_p_parade" style="stroke:#181818;stroke-width:1.0;"/><polygon fill="#181818" points="2048.22,1389.74,2053.5154,1381.4359,2048.9644,1384.7957,2045.6046,1380.2448,2048.22,1389.74" style="stroke:#181818;stroke-width:1.0;"/><text fill="#000000" font-family="Roboto" font-size="13" lengthAdjust="spacing" textLength="166.3213" x="2062.5" y="1332.5669">March the full victory lap.</text></g><!--link e_m_retreat to *end*--><g id="link_e_m_retreat_*end*"><path d="M73.69,1186.16 C66.14,1247.85 59.47,1385.46 136.5,1454 C209.86,1519.28 963.0301,1524.5249 1063.5301,1524.9449 " fill="none" id="e_m_retreat-to-*end*" style="stroke:#181818;stroke-width:1.0;"/><polygon fill="#181818" points="1069.53,1524.97,1060.5468,1520.9324,1064.53,1524.9491,1060.5134,1528.9324,1069.53,1524.97" style="stroke:#181818;stroke-width:1.0;"/></g><!--link e_m_flag to *end*--><g id="link_e_m_flag_*end*"><path d="M303.32,1439.25 C329.25,1444.49 358.57,1449.97 385.5,1454 C662,1495.33 998.034,1519.3809 1063.434,1523.8509 " fill="none" id="e_m_flag-to-*end*" style="stroke:#181818;stroke-width:1.0;"/><polygon fill="#181818" points="1069.42,1524.26,1060.7137,1519.6556,1064.4316,1523.9191,1060.1682,1527.637,1069.42,1524.26" style="stroke:#181818;stroke-width:1.0;"/></g><!--link e_m_sled to *end*--><g id="link_e_m_sled_*end*"><path d="M601.77,1444.25 C618.35,1447.63 635.4,1450.99 651.5,1454 C817.36,1484.97 1014.6669,1515.0863 1063.5969,1522.4563 " fill="none" id="e_m_sled-to-*end*" style="stroke:#181818;stroke-width:1.0;"/><polygon fill="#181818" points="1069.53,1523.35,1061.2262,1518.0541,1064.5858,1522.6053,1060.0346,1525.9649,1069.53,1523.35" style="stroke:#181818;stroke-width:1.0;"/></g><!--link e_t_cat to *end*--><g id="link_e_t_cat_*end*"><path d="M849.77,1451.68 C929.14,1476.9 1031.3215,1509.3738 1064.6015,1519.9438 " fill="none" id="e_t_cat-to-*end*" style="stroke:#181818;stroke-width:1.0;"/><polygon fill="#181818" points="1070.32,1521.76,1062.9531,1515.2233,1065.5546,1520.2465,1060.5314,1522.848,1070.32,1521.76" style="stroke:#181818;stroke-width:1.0;"/></g><!--link e_t_rabbits to *end*--><g id="link_e_t_rabbits_*end*"><path d="M1016.6,1454.16 C1036.47,1476.19 1057.5997,1499.6161 1069.5597,1512.8661 " fill="none" id="e_t_rabbits-to-*end*" style="stroke:#181818;stroke-width:1.0;"/><polygon fill="#181818" points="1073.58,1517.32,1070.5188,1507.9589,1070.2298,1513.6084,1064.5803,1513.3193,1073.58,1517.32" style="stroke:#181818;stroke-width:1.0;"/></g><!--link e_i_base to *end*--><g id="link_e_i_base_*end*"><path d="M1158.98,1454.16 C1134.32,1476.42 1107.4838,1500.6396 1092.9938,1513.7196 " fill="none" id="e_i_base-to-*end*" style="stroke:#181818;stroke-width:1.0;"/><polygon fill="#181818" points="1088.54,1517.74,1097.901,1514.6786,1092.2515,1514.3897,1092.5404,1508.7402,1088.54,1517.74" style="stroke:#181818;stroke-width:1.0;"/></g><!--link e_i_tunnel to *end*--><g id="link_e_i_tunnel_*end*"><path d="M1309.62,1451.28 C1231.2,1476.51 1129.4911,1509.2307 1096.3611,1519.9007 " fill="none" id="e_i_tunnel-to-*end*" style="stroke:#181818;stroke-width:1.0;"/><polygon fill="#181818" points="1090.65,1521.74,1100.4429,1522.7884,1095.4093,1520.2072,1097.9904,1515.1736,1090.65,1521.74" style="stroke:#181818;stroke-width:1.0;"/></g><!--link e_p_retreat to *end*--><g id="link_e_p_retreat_*end*"><path d="M1668.68,1360.07 C1628.56,1389 1564.5,1431.02 1502.5,1454 C1346.81,1511.71 1147.3157,1522.5431 1097.6457,1524.4231 " fill="none" id="e_p_retreat-to-*end*" style="stroke:#181818;stroke-width:1.0;"/><polygon fill="#181818" points="1091.65,1524.65,1100.7949,1528.3067,1096.6464,1524.4609,1100.4923,1520.3125,1091.65,1524.65" style="stroke:#181818;stroke-width:1.0;"/></g><!--link e_p_hospital to *end*--><g id="link_e_p_hospital_*end*"><path d="M1725.26,1454.02 C1698.5,1465.75 1666.61,1477.96 1636.5,1485 C1527.42,1510.49 1166.9473,1522.4096 1097.8073,1524.4896 " fill="none" id="e_p_hospital-to-*end*" style="stroke:#181818;stroke-width:1.0;"/><polygon fill="#181818" points="1091.81,1524.67,1100.9262,1528.3976,1096.8077,1524.5196,1100.6856,1520.4012,1091.81,1524.67" style="stroke:#181818;stroke-width:1.0;"/></g><!--link e_p_parade to *end*--><g id="link_e_p_parade_*end*"><path d="M1951.33,1443.41 C1932.89,1447.18 1913.61,1450.9 1895.5,1454 C1570.01,1509.66 1169.4978,1522.6181 1097.6078,1524.5581 " fill="none" id="e_p_parade-to-*end*" style="stroke:#181818;stroke-width:1.0;"/><polygon fill="#181818" points="1091.61,1524.72,1100.7146,1528.4758,1096.6082,1524.5851,1100.4988,1520.4787,1091.61,1524.72" style="stroke:#181818;stroke-width:1.0;"/></g><rect fill="none" height="107.7813" id="_legend" rx="4" ry="4" style="stroke:#000000;stroke-width:1.0;" width="260.4141" x="1961.0439" y="1554"/><text fill="#000000" font-family="Roboto" font-size="14" lengthAdjust="spacing" textLength="179.0332" x="1966.0439" y="1571.9951">The Snow Day Expedition</text><text fill="#000000" font-family="Roboto" font-size="14" lengthAdjust="spacing" textLength="181.6172" x="1966.0439" y="1588.292">Band 5-8 &#183; Tier 1 &#183; ~5 min</text><text fill="#000000" font-family="Roboto" font-size="14" lengthAdjust="spacing" textLength="145.168" x="1966.0439" y="1604.5889">Topology: time_cave</text><text fill="#000000" font-family="Roboto" font-size="14" lengthAdjust="spacing" textLength="250.4141" x="1966.0439" y="1620.8857">38 nodes &#183; 10 endings (8+ / 0n / 2-)</text><text fill="#000000" font-family="Roboto" font-size="14" lengthAdjust="spacing" textLength="130.6484" x="1966.0439" y="1637.1826">Production-eligible</text><text fill="#000000" font-family="Roboto" font-size="14" lengthAdjust="spacing" textLength="135.2764" x="1966.0439" y="1653.4795">Scale: short &#183; prose</text></g></svg>